<?xml version="1.0" encoding="UTF-8"?>
<svg xmlns="http://www.w3.org/2000/svg" viewBox="0 0 48 48" width="48" height="48">
  <g transform="translate(0 -1) rotate(-7 24 38)">
<g transform="scale(0.062500 0.062500) translate(0.000000,768.000000) scale(1.000000,-1.000000)" fill="#d4a373" stroke="none"><path d="M491.13 373.13 C489.10 371.10 489.00 370.06 489.00 351.15 C489.00 332.62 489.87 325.00 491.98 325.00 C492.42 325.00 493.99 325.63 495.48 326.40 C497.38 327.39 499.09 327.55 501.23 326.93 C508.30 324.91 511.08 319.71 512.12 306.59 C512.54 301.13 513.39 295.47 514.00 294.01 C514.63 292.47 517.28 290.11 520.27 288.40 C524.06 286.23 526.23 284.06 528.40 280.27 C532.46 273.15 534.44 272.50 552.00 272.50 C569.56 272.50 571.54 273.15 575.60 280.27 C577.77 284.06 579.94 286.23 583.73 288.40 C586.75 290.12 589.31 292.42 589.89 293.93 C593.03 302.11 591.86 313.01 587.42 316.82 C584.83 319.05 584.18 319.15 575.97 318.50 C563.72 317.53 559.00 320.17 559.00 328.00 C559.00 332.80 560.56 334.75 567.02 338.01 C576.84 342.97 575.98 348.32 564.71 352.44 C555.84 355.69 551.00 361.69 551.00 369.43 C551.00 371.98 550.42 373.24 548.86 374.08 C546.72 375.22 536.60 374.93 535.36 373.70 C535.01 373.34 535.29 371.03 535.99 368.54 C537.47 363.23 536.45 359.76 532.18 355.67 C528.19 351.85 522.82 350.00 515.78 350.01 C507.77 350.03 504.84 351.52 503.23 356.40 C502.17 359.63 502.23 361.28 503.58 366.69 C504.47 370.23 504.98 373.36 504.71 373.63 C504.43 373.90 501.75 374.38 498.73 374.69 C494.03 375.17 492.95 374.95 491.13 373.13 Z M557.42 350.48 C567.43 348.16 569.00 347.37 569.00 344.68 C569.00 342.88 568.04 341.87 565.05 340.52 C559.13 337.85 556.78 334.82 556.31 329.28 C555.86 323.85 557.22 320.65 561.21 317.68 C563.54 315.95 565.31 315.69 573.78 315.83 C580.40 315.93 584.21 315.57 585.37 314.72 C588.84 312.18 589.72 300.22 586.85 294.75 C586.34 293.79 583.73 291.88 581.04 290.52 C577.20 288.58 575.54 286.90 573.32 282.77 C569.72 276.05 567.12 275.11 552.00 275.11 C536.88 275.11 534.28 276.05 530.68 282.77 C528.46 286.90 526.80 288.58 522.96 290.52 C520.27 291.88 517.56 293.95 516.94 295.12 C516.31 296.28 515.41 302.70 514.93 309.37 C514.45 316.04 513.61 323.30 513.05 325.50 C511.79 330.54 511.72 339.12 512.92 342.28 C513.90 344.88 516.62 346.21 524.58 347.98 C527.37 348.61 531.42 349.75 533.58 350.51 C538.79 352.37 549.34 352.36 557.42 350.48 Z M395.80 325.95 C394.87 325.40 392.93 322.80 391.49 320.16 C387.86 313.48 384.40 311.71 374.02 311.19 C369.33 310.95 364.74 310.36 363.81 309.88 C362.88 309.39 360.94 306.83 359.50 304.18 C355.86 297.48 352.41 295.71 342.02 295.19 C337.33 294.95 332.74 294.36 331.81 293.88 C330.88 293.39 328.94 290.83 327.50 288.18 C323.86 281.48 320.41 279.71 310.02 279.19 C305.33 278.95 300.74 278.36 299.81 277.88 C298.88 277.39 296.94 274.83 295.50 272.18 C291.20 264.28 289.22 263.58 269.40 263.00 C257.86 262.66 251.81 262.09 250.80 261.25 C249.79 260.41 249.10 257.25 248.70 251.57 C247.96 241.01 245.61 235.98 240.30 233.51 C232.68 229.97 233.00 231.10 233.00 207.35 C233.00 187.33 233.12 185.88 235.00 184.00 C236.91 182.09 238.33 182.00 265.25 182.01 C281.24 182.01 295.08 182.45 297.15 183.02 C303.20 184.71 304.00 186.99 304.01 202.71 C304.02 211.79 304.46 217.35 305.29 219.00 C307.40 223.17 311.69 223.88 335.13 223.94 C356.58 224.00 356.81 224.02 362.63 226.75 L368.50 229.50 L407.50 229.50 L446.50 229.50 L451.10 226.80 C454.65 224.71 456.08 223.07 457.41 219.58 C458.56 216.58 460.51 214.06 463.27 212.04 C468.64 208.08 470.00 208.15 470.00 212.38 C470.00 215.98 468.89 217.31 463.74 219.88 C456.12 223.69 460.11 233.69 471.54 239.48 C477.93 242.71 480.28 245.82 482.09 253.42 C482.76 256.21 484.16 260.14 485.20 262.14 C486.68 265.00 487.02 267.47 486.79 273.63 C486.45 282.74 485.75 283.31 478.85 280.06 C475.61 278.53 473.86 276.80 472.00 273.29 C467.88 265.51 465.11 264.50 448.00 264.50 C435.23 264.50 433.08 264.74 430.00 266.53 C424.23 269.89 423.00 273.64 423.00 287.93 C423.00 303.37 424.59 307.65 431.57 311.03 C434.02 312.22 436.69 314.14 437.51 315.32 C439.59 318.29 439.37 322.63 437.00 325.00 C435.14 326.86 433.69 327.00 416.25 326.97 C405.74 326.95 396.75 326.50 395.80 325.95 Z M471.43 252.67 C473.88 250.89 472.73 247.53 469.22 246.16 C458.84 242.12 457.10 242.00 408.07 242.02 C381.91 242.02 360.00 242.36 359.40 242.77 C358.09 243.64 356.00 247.43 356.00 248.93 C356.00 249.52 356.90 250.90 358.00 252.00 C359.95 253.95 361.33 254.00 414.81 254.00 C458.76 254.00 469.98 253.74 471.43 252.67 Z M463.25 187.95 C458.28 184.30 457.27 181.77 459.44 178.45 C461.39 175.48 465.92 175.15 468.33 177.82 C471.49 181.31 471.75 191.00 468.68 191.00 C467.97 191.00 465.53 189.63 463.25 187.95 Z"/></g>
  <g transform="scale(0.062500 0.062500) translate(0.000000,768.000000) scale(1.000000,-1.000000)" fill="#a47a52" stroke="none"><path d="M544.59 388.25 C544.17 387.84 530.92 387.27 515.12 387.00 C483.79 386.45 483.24 386.35 479.26 380.28 C477.67 377.86 477.45 373.54 477.00 336.21 L476.50 294.82 L473.89 292.66 C472.45 291.47 469.85 289.73 468.11 288.78 C466.37 287.83 464.17 285.60 463.22 283.82 C462.27 282.04 460.30 279.33 458.83 277.79 C456.33 275.18 455.62 275.00 448.03 275.00 C440.74 275.00 439.66 275.25 437.45 277.45 C435.25 279.66 435.00 280.74 435.00 288.03 C435.00 295.62 435.18 296.33 437.79 298.83 C439.33 300.30 441.99 302.24 443.71 303.15 C449.22 306.08 450.48 309.20 450.48 320.00 C450.48 330.50 449.41 333.37 444.28 336.74 C441.88 338.31 438.72 338.50 415.04 338.50 C395.05 338.50 387.94 338.18 386.21 337.20 C384.96 336.48 382.86 333.48 381.56 330.53 C380.25 327.58 378.36 324.74 377.34 324.22 C376.33 323.70 371.16 323.02 365.84 322.72 C360.53 322.42 355.23 321.66 354.06 321.03 C352.89 320.40 350.86 317.48 349.56 314.53 C348.25 311.58 346.36 308.74 345.34 308.22 C344.33 307.70 339.16 307.02 333.84 306.72 C328.53 306.42 323.23 305.66 322.06 305.03 C320.89 304.40 318.86 301.48 317.56 298.53 C316.25 295.58 314.36 292.74 313.34 292.22 C312.33 291.70 307.16 291.02 301.84 290.72 C296.53 290.42 291.23 289.66 290.06 289.03 C288.89 288.40 286.86 285.48 285.56 282.53 C284.25 279.58 282.27 276.68 281.16 276.08 C279.99 275.46 273.44 275.00 265.70 275.00 C250.24 275.00 243.08 273.90 238.84 270.89 C236.28 269.07 235.97 268.37 236.67 266.13 C237.13 264.68 237.50 259.75 237.50 255.17 C237.50 247.04 237.42 246.77 234.34 244.17 C232.60 242.70 229.68 240.59 227.84 239.48 C222.21 236.07 221.86 233.52 222.20 197.84 C222.49 167.48 222.59 166.02 224.59 163.32 C225.75 161.77 228.22 159.96 230.09 159.31 C235.45 157.43 382.59 157.49 383.31 159.37 C383.60 160.13 384.16 162.94 384.55 165.62 C385.51 172.23 387.41 175.64 390.57 176.43 C395.98 177.79 399.02 173.56 400.50 162.65 L401.15 157.80 L413.50 158.15 C432.54 158.69 433.89 160.40 433.89 184.00 C433.89 207.01 432.14 209.50 416.00 209.50 C404.91 209.50 402.26 208.34 398.87 202.01 C395.19 195.16 393.88 194.50 384.00 194.50 C376.03 194.50 374.81 194.75 372.78 196.78 C370.75 198.81 370.50 200.03 370.50 208.00 C370.50 215.97 370.75 217.19 372.78 219.22 L375.06 221.50 L408.00 221.50 C440.94 221.50 440.94 221.50 443.22 219.22 C445.44 217.01 445.51 216.32 446.00 191.55 C446.47 167.75 446.63 165.96 448.59 163.32 C451.30 159.67 455.92 158.11 464.00 158.11 C472.08 158.11 476.70 159.67 479.41 163.32 C481.41 166.02 481.52 167.62 482.00 199.65 L482.50 233.17 L485.66 235.83 C487.40 237.30 490.32 239.41 492.16 240.52 C497.53 243.76 497.88 246.14 497.96 280.00 C498.04 314.32 498.24 315.50 504.00 315.50 C506.67 315.50 507.73 314.94 508.71 313.00 C509.67 311.09 509.97 310.93 509.99 312.30 C510.01 315.40 507.01 320.04 504.32 321.07 C501.06 322.31 498.95 321.64 495.91 318.40 C493.51 315.86 493.50 315.68 493.00 288.67 L492.50 261.50 L488.58 255.00 C480.87 242.19 479.95 241.03 474.51 237.01 C467.98 232.18 467.44 229.54 471.96 224.40 C476.65 219.05 477.30 214.79 476.74 193.00 C476.07 166.76 475.29 165.06 464.00 165.06 C454.23 165.06 452.00 167.77 452.00 179.63 C452.00 186.83 452.81 188.99 457.29 193.72 C461.59 198.26 461.34 201.68 456.28 207.42 C453.89 210.13 451.78 213.81 451.13 216.41 C449.75 221.88 445.50 225.65 439.75 226.51 C437.41 226.86 421.24 227.00 403.82 226.82 C373.62 226.52 372.01 226.40 369.32 224.43 C364.49 220.88 363.00 216.60 363.00 206.19 L363.00 196.88 L358.00 191.59 C354.20 187.57 353.00 185.56 353.00 183.19 C353.00 178.95 355.19 178.00 364.98 178.00 C372.26 178.00 373.34 177.75 375.55 175.55 C378.72 172.37 378.67 168.58 375.42 165.33 C373.00 162.91 372.38 162.78 365.35 163.23 C356.83 163.77 353.68 165.49 350.50 171.33 C347.89 176.11 346.71 176.29 322.92 175.57 C274.82 174.11 238.44 173.86 234.76 174.96 C227.93 177.00 227.50 178.92 227.50 207.15 C227.50 230.30 227.62 231.92 229.48 233.98 C230.57 235.18 232.82 236.74 234.48 237.45 C240.77 240.14 242.31 243.08 243.01 253.66 C243.88 266.92 243.35 266.59 264.71 267.21 C284.83 267.79 287.39 268.62 291.36 275.92 C292.80 278.57 294.55 281.19 295.24 281.74 C295.93 282.29 300.55 283.05 305.50 283.44 C316.92 284.33 320.04 285.81 323.36 291.92 C324.80 294.57 326.55 297.19 327.24 297.74 C327.93 298.29 332.55 299.05 337.50 299.44 C348.92 300.33 352.04 301.81 355.36 307.92 C356.80 310.57 358.55 313.19 359.24 313.74 C359.93 314.29 364.55 315.05 369.50 315.44 C380.58 316.31 384.00 317.84 386.98 323.29 C391.50 331.52 389.57 331.00 415.65 331.00 C443.56 331.00 443.00 331.22 443.00 320.43 C443.00 316.82 442.55 313.03 442.00 312.00 C441.45 310.97 438.77 308.91 436.05 307.43 C429.14 303.67 427.59 300.10 427.59 288.00 C427.59 271.17 430.83 268.00 448.00 268.00 C460.75 268.00 463.55 269.18 467.59 276.25 C469.75 280.04 471.93 282.23 475.63 284.35 C484.78 289.57 484.43 287.67 485.00 334.83 C485.48 374.28 485.59 376.23 487.44 377.58 C488.94 378.68 493.38 379.00 507.03 379.00 C516.74 379.00 530.72 379.28 538.09 379.63 C555.25 380.44 556.00 380.01 556.73 368.94 C557.30 360.25 558.60 357.76 563.97 355.01 C569.26 352.32 569.62 352.47 565.86 355.83 C562.85 358.52 562.66 359.14 561.96 368.33 C561.13 379.36 559.87 382.00 554.05 384.97 C551.90 386.07 549.85 387.43 549.51 387.99 C548.78 389.17 545.67 389.34 544.59 388.25 Z M513.31 371.05 C509.21 368.55 508.00 366.18 508.00 360.64 C508.00 354.35 511.06 352.00 519.23 352.00 C524.69 352.00 525.49 352.29 528.60 355.40 C538.08 364.88 525.05 378.21 513.31 371.05 Z M210.67 366.95 C206.45 363.64 204.23 351.89 207.58 350.61 C210.64 349.43 219.23 350.02 222.63 351.63 C227.67 354.02 228.44 356.13 225.95 360.70 C221.58 368.73 215.89 371.06 210.67 366.95 Z M523.07 364.96 C527.28 362.71 524.66 356.00 519.57 356.00 C517.12 356.00 513.96 359.70 514.66 361.73 C515.99 365.55 519.47 366.89 523.07 364.96 Z M573.50 350.00 C574.50 348.90 575.53 348.00 575.81 348.00 C576.08 348.00 575.50 348.90 574.50 350.00 C573.50 351.10 572.47 352.00 572.19 352.00 C571.92 352.00 572.50 351.10 573.50 350.00 Z M576.10 345.33 C575.91 341.14 574.65 339.76 568.52 337.01 C561.12 333.69 558.89 330.10 561.02 324.96 C562.86 320.50 564.95 319.86 576.45 320.19 C583.24 320.39 586.26 320.81 585.17 321.39 C584.25 321.87 582.56 323.13 581.40 324.17 C579.69 325.72 578.80 325.88 576.59 325.03 C572.93 323.64 567.67 323.73 566.20 325.20 C562.88 328.52 566.31 332.29 573.75 333.49 C577.98 334.17 578.00 334.19 577.90 338.34 C577.85 340.63 577.44 343.62 577.00 345.00 C576.26 347.30 576.19 347.33 576.10 345.33 Z M589.50 318.00 C590.50 316.90 591.53 316.00 591.81 316.00 C592.08 316.00 591.50 316.90 590.50 318.00 C589.50 319.10 588.47 320.00 588.19 320.00 C587.92 320.00 588.50 319.10 589.50 318.00 Z M593.34 304.00 C593.34 299.88 593.51 298.19 593.73 300.25 C593.94 302.31 593.94 305.69 593.73 307.75 C593.51 309.81 593.34 308.12 593.34 304.00 Z M510.32 303.00 C510.32 299.43 510.50 297.96 510.72 299.75 C510.95 301.54 510.95 304.46 510.72 306.25 C510.50 308.04 510.32 306.57 510.32 303.00 Z M513.50 290.00 C514.50 288.90 515.53 288.00 515.81 288.00 C516.08 288.00 515.50 288.90 514.50 290.00 C513.50 291.10 512.47 292.00 512.19 292.00 C511.92 292.00 512.50 291.10 513.50 290.00 Z M589.40 289.75 L587.50 287.50 L589.75 289.40 C591.86 291.20 592.46 292.00 591.65 292.00 C591.47 292.00 590.45 290.99 589.40 289.75 Z M523.00 283.50 C524.29 282.12 525.57 281.00 525.85 281.00 C526.12 281.00 525.29 282.12 524.00 283.50 C522.71 284.88 521.43 286.00 521.15 286.00 C520.88 286.00 521.71 284.88 523.00 283.50 Z M579.92 283.25 L577.50 280.50 L580.25 282.92 C581.76 284.26 583.00 285.50 583.00 285.67 C583.00 286.46 582.19 285.82 579.92 283.25 Z M526.00 279.06 C526.00 278.54 526.44 277.84 526.99 277.51 C527.56 277.16 527.72 277.56 527.38 278.45 C526.72 280.18 526.00 280.50 526.00 279.06 Z M576.56 278.29 C576.02 276.87 576.14 276.75 577.12 277.73 C577.81 278.41 578.11 279.22 577.81 279.53 C577.50 279.83 576.94 279.28 576.56 278.29 Z M529.50 274.00 C530.50 272.90 531.53 272.00 531.81 272.00 C532.08 272.00 531.50 272.90 530.50 274.00 C529.50 275.10 528.47 276.00 528.19 276.00 C527.92 276.00 528.50 275.10 529.50 274.00 Z M573.40 273.75 L571.50 271.50 L573.75 273.40 C575.86 275.20 576.46 276.00 575.65 276.00 C575.47 276.00 574.45 274.99 573.40 273.75 Z M544.25 270.26 C548.51 270.07 555.49 270.07 559.75 270.26 C564.01 270.44 560.52 270.60 552.00 270.60 C543.48 270.60 539.99 270.44 544.25 270.26 Z M422.78 174.44 C427.88 170.87 423.98 165.00 416.50 165.00 C411.54 165.00 408.00 167.29 408.00 170.50 C408.00 173.71 411.54 176.00 416.50 176.00 C418.73 176.00 421.56 175.30 422.78 174.44 Z"/></g>
  <g transform="scale(0.062500 0.062500) translate(0.000000,768.000000) scale(1.000000,-1.000000)" fill="#4a2c18" stroke="none"><path d="M470.09 400.72 C464.47 398.70 462.88 395.52 462.05 384.56 C460.92 369.52 463.77 370.60 423.72 370.00 C399.28 369.63 389.91 369.16 388.25 368.21 C384.15 365.87 382.80 362.45 382.04 352.44 C381.07 339.61 380.39 338.93 367.44 337.95 C356.69 337.13 353.99 335.84 350.87 330.01 C347.35 323.45 345.99 322.74 335.44 321.95 C324.69 321.13 321.99 319.84 318.87 314.01 C315.35 307.45 313.99 306.74 303.44 305.95 C292.69 305.13 289.99 303.84 286.87 298.01 C282.84 290.50 282.84 290.50 264.00 290.50 C240.70 290.50 242.64 287.87 242.00 320.32 C241.44 348.69 241.30 349.28 234.05 352.97 C231.90 354.07 229.85 355.43 229.50 356.00 C229.13 356.59 227.63 355.78 225.90 354.05 C222.52 350.67 218.10 349.54 210.94 350.23 L206.00 350.71 L206.06 340.10 C206.12 327.34 207.34 323.24 211.84 320.52 C213.68 319.41 216.60 317.30 218.34 315.83 L221.50 313.17 L222.00 295.79 C222.56 276.19 223.10 274.52 229.95 271.03 C232.10 269.93 234.17 268.54 234.54 267.94 C234.97 267.24 235.70 267.55 236.57 268.80 C239.70 273.27 244.50 274.38 262.50 274.81 C271.85 275.04 280.33 275.66 281.34 276.20 C282.36 276.73 284.25 279.58 285.56 282.53 C286.86 285.48 288.89 288.40 290.06 289.03 C291.23 289.66 296.53 290.42 301.84 290.72 C307.16 291.02 312.33 291.70 313.34 292.22 C314.36 292.74 316.25 295.58 317.56 298.53 C318.86 301.48 320.89 304.40 322.06 305.03 C323.23 305.66 328.53 306.42 333.84 306.72 C339.16 307.02 344.33 307.70 345.34 308.22 C346.36 308.74 348.25 311.58 349.56 314.53 C350.86 317.48 352.89 320.40 354.06 321.03 C355.23 321.66 360.53 322.42 365.84 322.72 C371.16 323.02 376.33 323.70 377.34 324.22 C378.36 324.74 380.25 327.58 381.56 330.53 C382.86 333.48 384.96 336.48 386.21 337.20 C387.94 338.18 395.05 338.50 415.04 338.50 C438.72 338.50 441.88 338.31 444.28 336.74 C449.41 333.37 450.48 330.50 450.48 320.00 C450.48 309.20 449.22 306.08 443.71 303.15 C441.99 302.24 439.33 300.30 437.79 298.83 C435.18 296.33 435.00 295.62 435.00 288.03 C435.00 280.74 435.25 279.66 437.45 277.45 C439.66 275.25 440.74 275.00 448.03 275.00 C455.62 275.00 456.33 275.18 458.83 277.79 C460.30 279.33 462.27 282.04 463.22 283.82 C464.17 285.60 466.37 287.83 468.11 288.78 C469.85 289.73 472.45 291.47 473.89 292.66 L476.50 294.82 L477.00 336.21 C477.45 373.54 477.67 377.86 479.26 380.28 C483.23 386.33 483.84 386.45 514.95 387.10 C530.65 387.43 544.48 388.04 545.68 388.45 L547.86 389.20 L545.53 393.35 C540.83 401.72 542.01 401.47 505.68 401.72 C482.39 401.88 472.56 401.60 470.09 400.72 Z M516.83 364.75 C514.20 362.63 513.90 360.10 516.02 357.98 C519.63 354.37 525.00 356.18 525.00 361.00 C525.00 365.30 520.23 367.49 516.83 364.75 Z M571.26 333.03 C565.39 331.63 563.12 327.80 566.51 324.99 C568.15 323.63 576.52 324.12 578.06 325.66 C578.55 326.15 578.68 328.22 578.34 330.27 C577.70 334.24 577.20 334.44 571.26 333.03 Z M389.41 176.03 C387.10 175.10 385.48 171.60 384.52 165.50 C384.18 163.30 383.66 160.71 383.38 159.75 C382.92 158.17 383.77 158.00 391.99 158.00 L401.12 158.00 L400.48 162.75 C399.50 170.01 398.06 173.84 395.70 175.50 C393.30 177.18 392.43 177.25 389.41 176.03 Z"/></g>
  <g transform="scale(0.062500 0.062500) translate(0.000000,768.000000) scale(1.000000,-1.000000)" fill="#c89a6a" stroke="none"><path d="M511.30 379.04 C494.20 378.64 487.75 378.16 486.80 377.20 C485.79 376.20 485.39 366.60 485.00 334.70 C484.43 287.68 484.78 289.57 475.63 284.35 C471.93 282.23 469.75 280.04 467.59 276.25 C463.55 269.18 460.75 268.00 448.00 268.00 C430.83 268.00 427.59 271.17 427.59 288.00 C427.59 300.10 429.14 303.67 436.05 307.43 C438.77 308.91 441.45 310.97 442.00 312.00 C442.55 313.03 443.00 316.82 443.00 320.43 C443.00 331.22 443.56 331.00 415.65 331.00 C389.57 331.00 391.50 331.52 386.98 323.29 C384.00 317.84 380.58 316.31 369.50 315.44 C364.55 315.05 359.93 314.29 359.24 313.74 C358.55 313.19 356.80 310.57 355.36 307.92 C352.04 301.81 348.92 300.33 337.50 299.44 C332.55 299.05 327.93 298.29 327.24 297.74 C326.55 297.19 324.80 294.57 323.36 291.92 C320.04 285.81 316.92 284.33 305.50 283.44 C300.55 283.05 295.93 282.29 295.24 281.74 C294.55 281.19 292.80 278.57 291.36 275.92 C287.39 268.62 284.83 267.79 264.71 267.21 C243.35 266.59 243.88 266.92 243.01 253.66 C242.31 243.08 240.77 240.14 234.48 237.45 C232.82 236.74 230.57 235.18 229.48 233.98 C227.62 231.92 227.50 230.30 227.50 207.15 C227.50 178.92 227.93 177.00 234.76 174.96 C238.44 173.86 274.82 174.11 322.92 175.57 C346.71 176.29 347.89 176.11 350.50 171.33 C353.68 165.49 356.83 163.77 365.35 163.23 C372.38 162.78 373.00 162.91 375.42 165.33 C378.67 168.58 378.72 172.37 375.55 175.55 C373.34 177.75 372.26 178.00 364.98 178.00 C355.19 178.00 353.00 178.95 353.00 183.19 C353.00 185.56 354.20 187.57 358.00 191.59 L363.00 196.88 L363.00 206.19 C363.00 216.60 364.49 220.88 369.32 224.43 C372.01 226.40 373.62 226.52 403.82 226.82 C421.24 227.00 437.41 226.86 439.75 226.51 C445.50 225.65 449.75 221.88 451.13 216.41 C451.78 213.81 453.89 210.13 456.28 207.42 C461.34 201.68 461.59 198.26 457.29 193.72 C452.81 188.99 452.00 186.83 452.00 179.63 C452.00 167.77 454.23 165.06 464.00 165.06 C475.29 165.06 476.07 166.76 476.74 193.00 C477.30 214.79 476.65 219.05 471.96 224.40 C467.44 229.54 467.98 232.18 474.51 237.01 C479.95 241.03 480.87 242.19 488.58 255.00 L492.50 261.50 L493.00 288.67 C493.50 315.68 493.51 315.86 495.91 318.40 C498.95 321.64 501.06 322.31 504.32 321.07 C508.43 319.51 510.14 314.86 510.76 303.60 C511.29 293.92 511.44 293.38 514.43 290.50 C516.15 288.85 519.02 286.73 520.81 285.78 C522.60 284.83 524.83 282.60 525.78 280.81 C526.73 279.02 528.92 276.08 530.65 274.28 L533.80 271.00 L552.00 271.00 L570.20 271.00 L573.35 274.28 C575.08 276.08 577.27 279.02 578.22 280.81 C579.17 282.60 581.40 284.83 583.19 285.78 C584.98 286.73 587.92 288.92 589.72 290.65 L593.00 293.80 L593.00 303.88 C593.00 313.62 592.90 314.08 590.08 317.23 L587.15 320.50 L576.61 320.19 C564.94 319.86 562.87 320.49 561.02 324.96 C558.89 330.10 561.12 333.69 568.52 337.01 C571.92 338.54 574.99 340.54 575.35 341.47 C577.43 346.89 575.01 350.15 565.83 354.27 C562.72 355.67 559.51 357.87 558.69 359.16 C557.88 360.45 557.00 364.85 556.73 368.94 C556.06 379.09 554.82 380.08 543.14 379.79 C538.39 379.67 524.06 379.33 511.30 379.04 Z M504.71 373.63 C504.98 373.36 504.47 370.23 503.58 366.69 C502.23 361.28 502.17 359.63 503.23 356.40 C504.84 351.52 507.77 350.03 515.78 350.01 C522.82 350.00 528.19 351.85 532.18 355.67 C536.45 359.76 537.47 363.23 535.99 368.54 C535.29 371.03 535.01 373.34 535.36 373.70 C536.60 374.93 546.72 375.22 548.86 374.08 C550.42 373.24 551.00 371.98 551.00 369.43 C551.00 361.69 555.84 355.69 564.71 352.44 C575.98 348.32 576.84 342.97 567.02 338.01 C560.56 334.75 559.00 332.80 559.00 328.00 C559.00 320.17 563.72 317.53 575.97 318.50 C584.18 319.15 584.83 319.05 587.42 316.82 C591.86 313.01 593.03 302.11 589.89 293.93 C589.31 292.42 586.75 290.12 583.73 288.40 C579.94 286.23 577.77 284.06 575.60 280.27 C571.54 273.15 569.56 272.50 552.00 272.50 C534.44 272.50 532.46 273.15 528.40 280.27 C526.23 284.06 524.06 286.23 520.27 288.40 C517.28 290.11 514.63 292.47 514.00 294.01 C513.39 295.47 512.54 301.13 512.12 306.59 C511.08 319.71 508.30 324.91 501.23 326.93 C499.09 327.55 497.38 327.39 495.48 326.40 C493.99 325.63 492.42 325.00 491.98 325.00 C489.87 325.00 489.00 332.62 489.00 351.15 C489.00 370.06 489.10 371.10 491.13 373.13 C492.95 374.95 494.03 375.17 498.73 374.69 C501.75 374.38 504.43 373.90 504.71 373.63 Z M525.99 371.51 C532.90 367.93 534.05 360.85 528.60 355.40 C525.49 352.29 524.69 352.00 519.23 352.00 C511.06 352.00 508.00 354.35 508.00 360.64 C508.00 366.18 509.21 368.55 513.31 371.05 C517.13 373.37 522.03 373.55 525.99 371.51 Z M437.00 325.00 C439.37 322.63 439.59 318.29 437.51 315.32 C436.69 314.14 434.02 312.22 431.57 311.03 C424.59 307.65 423.00 303.37 423.00 287.93 C423.00 273.64 424.23 269.89 430.00 266.53 C433.08 264.74 435.23 264.50 448.00 264.50 C465.11 264.50 467.88 265.51 472.00 273.29 C473.86 276.80 475.61 278.53 478.85 280.06 C485.75 283.31 486.45 282.74 486.79 273.63 C487.02 267.47 486.68 265.00 485.20 262.14 C484.16 260.14 482.76 256.21 482.09 253.42 C480.28 245.82 477.93 242.71 471.54 239.48 C460.11 233.69 456.12 223.69 463.74 219.88 C468.89 217.31 470.00 215.98 470.00 212.38 C470.00 208.15 468.64 208.08 463.27 212.04 C460.51 214.06 458.56 216.58 457.41 219.58 C456.08 223.07 454.65 224.71 451.10 226.80 L446.50 229.50 L407.50 229.50 L368.50 229.50 L362.63 226.75 C356.81 224.02 356.58 224.00 335.13 223.94 C311.69 223.88 307.40 223.17 305.29 219.00 C304.46 217.35 304.02 211.79 304.01 202.71 C304.00 186.99 303.20 184.71 297.15 183.02 C295.08 182.45 281.24 182.01 265.25 182.01 C238.33 182.00 236.91 182.09 235.00 184.00 C233.12 185.88 233.00 187.33 233.00 207.35 C233.00 231.10 232.68 229.97 240.30 233.51 C245.61 235.98 247.96 241.01 248.70 251.57 C249.10 257.25 249.79 260.41 250.80 261.25 C251.81 262.09 257.86 262.66 269.40 263.00 C289.22 263.58 291.20 264.28 295.50 272.18 C296.94 274.83 298.88 277.39 299.81 277.88 C300.74 278.36 305.33 278.95 310.02 279.19 C320.41 279.71 323.86 281.48 327.50 288.18 C328.94 290.83 330.88 293.39 331.81 293.88 C332.74 294.36 337.33 294.95 342.02 295.19 C352.41 295.71 355.86 297.48 359.50 304.18 C360.94 306.83 362.88 309.39 363.81 309.88 C364.74 310.36 369.33 310.95 374.02 311.19 C384.40 311.71 387.86 313.48 391.49 320.16 C392.93 322.80 394.87 325.40 395.80 325.95 C396.75 326.50 405.74 326.95 416.25 326.97 C433.69 327.00 435.14 326.86 437.00 325.00 Z M470.60 188.46 C471.44 185.10 470.37 180.07 468.33 177.82 C465.92 175.15 461.39 175.48 459.44 178.45 C457.27 181.77 458.28 184.30 463.25 187.95 C468.29 191.66 469.77 191.77 470.60 188.46 Z M410.22 174.44 C405.12 170.87 409.02 165.00 416.50 165.00 C421.46 165.00 425.00 167.29 425.00 170.50 C425.00 173.71 421.46 176.00 416.50 176.00 C414.27 176.00 411.44 175.30 410.22 174.44 Z"/></g>
  <g transform="scale(0.062500 0.062500) translate(0.000000,768.000000) scale(1.000000,-1.000000)" fill="#f7eede" stroke="none"><path d="M533.58 350.51 C531.42 349.75 527.37 348.61 524.58 347.98 C516.62 346.21 513.90 344.88 512.92 342.28 C511.72 339.12 511.79 330.54 513.05 325.50 C513.61 323.30 514.45 316.04 514.93 309.37 C515.41 302.70 516.31 296.28 516.94 295.12 C517.56 293.95 520.27 291.88 522.96 290.52 C526.80 288.58 528.46 286.90 530.68 282.77 C534.28 276.05 536.88 275.11 552.00 275.11 C567.12 275.11 569.72 276.05 573.32 282.77 C575.54 286.90 577.20 288.58 581.04 290.52 C583.73 291.88 586.34 293.79 586.85 294.75 C589.72 300.22 588.84 312.18 585.37 314.72 C584.21 315.57 580.40 315.93 573.78 315.83 C565.31 315.69 563.54 315.95 561.21 317.68 C557.22 320.65 555.86 323.85 556.31 329.28 C556.78 334.82 559.13 337.85 565.05 340.52 C569.86 342.69 570.58 346.45 566.48 348.01 C556.31 351.87 540.72 353.06 533.58 350.51 Z M358.00 252.00 C356.90 250.90 356.00 249.52 356.00 248.93 C356.00 247.43 358.09 243.64 359.40 242.77 C360.00 242.36 381.91 242.02 408.07 242.02 C448.06 242.00 456.50 242.25 461.07 243.55 C469.78 246.04 471.89 247.09 472.59 249.28 C474.07 253.94 473.33 254.00 414.81 254.00 C361.33 254.00 359.95 253.95 358.00 252.00 Z"/></g>
  </g>
</svg>