<?xml version="1.0" encoding="UTF-8"?>
<svg xmlns="http://www.w3.org/2000/svg" viewBox="0 0 48 48" width="48" height="48" shape-rendering="crispEdges">
<defs><linearGradient id="belly" x1="0" y1="24" x2="0" y2="37" gradientUnits="userSpaceOnUse" spreadMethod="pad"><stop offset="0" stop-color="#f7eede"/><stop offset="1" stop-color="#c89a6a"/></linearGradient></defs>
<rect x="14" y="14" width="4" height="8" fill="#4a2c18"/>
<rect x="30" y="14" width="4" height="8" fill="#4a2c18"/>
<rect x="14" y="21" width="4" height="1" fill="#a47a52"/>
<rect x="30" y="21" width="4" height="1" fill="#a47a52"/>
<rect x="33" y="29" width="2" height="2" fill="#4a2c18"/>
<rect x="34" y="28" width="1" height="2" fill="#d4a373"/>
<rect x="18" y="12" width="12" height="3" fill="#4a2c18"/>
<rect x="18" y="15" width="12" height="5" fill="#d4a373"/>
<rect x="18" y="15" width="4" height="3" fill="#4a2c18"/>
<rect x="26" y="15" width="4" height="3" fill="#4a2c18"/>
<rect x="23" y="15" width="2" height="3" fill="url(#belly)"/>
<rect x="19" y="16" width="2" height="2" fill="#1a1410"/>
<rect x="27" y="16" width="2" height="2" fill="#1a1410"/>
<rect x="19" y="16" width="1" height="1" fill="#f7eede"/>
<rect x="27" y="16" width="1" height="1" fill="#f7eede"/>
<rect x="19" y="20" width="10" height="1" fill="#d4a373"/>
<rect x="20" y="21" width="8" height="1" fill="#d4a373"/>
<rect x="21" y="22" width="6" height="1" fill="#d4a373"/>
<rect x="21" y="19" width="6" height="3" fill="url(#belly)"/>
<rect x="23" y="19" width="2" height="2" fill="#1a1410"/>
<rect x="22" y="22" width="1" height="1" fill="#4a2c18"/>
<rect x="25" y="22" width="1" height="1" fill="#4a2c18"/>
<rect x="17" y="24" width="14" height="2" fill="#d4a373"/>
<rect x="20" y="24" width="8" height="2" fill="url(#belly)"/>
<rect x="16" y="26" width="16" height="3" fill="#d4a373"/>
<rect x="20" y="26" width="8" height="3" fill="url(#belly)"/>
<rect x="17" y="29" width="14" height="3" fill="#d4a373"/>
<rect x="20" y="29" width="8" height="3" fill="url(#belly)"/>
<!-- LIFTED LEFT REAR LEG: paw at mid-low (frame 2: retracting down) -->
<rect x="11" y="24" width="3" height="2" fill="#d4a373"/>
<rect x="11" y="24" width="1" height="2" fill="#1a1410"/>
<rect x="13" y="24" width="1" height="2" fill="#1a1410"/>
<rect x="12" y="26" width="3" height="3" fill="#d4a373"/>
<rect x="12" y="27" width="1" height="1" fill="#a47a52"/>
<rect x="14" y="29" width="3" height="3" fill="#d4a373"/>
<!-- Motion dashes: lower position, trailing -->
<rect x="9" y="22" width="1" height="1" fill="#1a1410"/>
<rect x="9" y="25" width="1" height="1" fill="#1a1410"/>
<rect x="8" y="23" width="1" height="2" fill="#1a1410"/>
<rect x="31" y="30" width="3" height="6" fill="#d4a373"/>
<rect x="31" y="32" width="3" height="1" fill="#a47a52"/>
<rect x="31" y="35" width="3" height="1" fill="#a47a52"/>
<rect x="19" y="29" width="3" height="8" fill="#d4a373"/>
<rect x="26" y="29" width="3" height="8" fill="#d4a373"/>
<rect x="21" y="30" width="1" height="6" fill="#a47a52"/>
<rect x="26" y="30" width="1" height="6" fill="#a47a52"/>
<rect x="30" y="36" width="5" height="2" fill="#d4a373"/>
<rect x="30" y="37" width="5" height="1" fill="#a47a52"/>
<rect x="31" y="37" width="1" height="1" fill="#1a1410"/>
<rect x="33" y="37" width="1" height="1" fill="#1a1410"/>
<rect x="18" y="36" width="5" height="2" fill="#d4a373"/>
<rect x="25" y="36" width="5" height="2" fill="#d4a373"/>
<rect x="18" y="37" width="5" height="1" fill="#a47a52"/>
<rect x="25" y="37" width="5" height="1" fill="#a47a52"/>
<rect x="19" y="37" width="1" height="1" fill="#1a1410"/>
<rect x="21" y="37" width="1" height="1" fill="#1a1410"/>
<rect x="26" y="37" width="1" height="1" fill="#1a1410"/>
<rect x="28" y="37" width="1" height="1" fill="#1a1410"/>
<rect x="19" y="23" width="10" height="1" fill="#b53a2b"/>
<rect x="23" y="24" width="2" height="2" fill="#e0c95a"/>
</svg>
