<?xml version="1.0" encoding="UTF-8"?>
<svg xmlns="http://www.w3.org/2000/svg" viewBox="0 0 48 48" width="48" height="48" shape-rendering="crispEdges">
<!--
  Beagle scratch frame 0/3 — paw LOW (chest level).
  Sitting body identical to Sit/tile000. The lifted rear leg is
  drawn LAST so it overlays the body and is clearly visible.
  Tail wag pos: LOW.
-->
<defs>
  <linearGradient id="belly" x1="0" y1="32" x2="0" y2="34" gradientUnits="userSpaceOnUse" spreadMethod="pad">
    <stop offset="0" stop-color="#f7eede"/>
    <stop offset="1" stop-color="#c89a6a"/>
  </linearGradient>
</defs>

<!-- Tail: LOW -->
<rect x="13" y="31" width="2" height="1" fill="#4a2c18"/>
<rect x="12" y="32" width="2" height="2" fill="#4a2c18"/>
<rect x="12" y="34" width="1" height="1" fill="#d4a373"/>

<!-- Rear sitting haunches -->
<rect x="24" y="26" width="2" height="1" fill="#4a2c18"/>
<rect x="22" y="27" width="2" height="1" fill="#4a2c18"/>
<rect x="20" y="28" width="2" height="1" fill="#4a2c18"/>
<rect x="18" y="29" width="2" height="1" fill="#4a2c18"/>
<rect x="14" y="30" width="4" height="1" fill="#4a2c18"/>
<rect x="24" y="27" width="2" height="2" fill="#d4a373"/>
<rect x="22" y="28" width="4" height="2" fill="#d4a373"/>
<rect x="20" y="29" width="6" height="2" fill="#d4a373"/>
<rect x="18" y="30" width="8" height="2" fill="#d4a373"/>
<rect x="15" y="31" width="7" height="2" fill="#d4a373"/>
<rect x="14" y="33" width="9" height="4" fill="#d4a373"/>
<rect x="14" y="37" width="9" height="1" fill="#a47a52"/>
<rect x="19" y="33" width="4" height="4" fill="url(#belly)"/>
<rect x="22" y="32" width="4" height="1" fill="url(#belly)"/>
<rect x="23" y="33" width="3" height="1" fill="url(#belly)"/>
<rect x="22" y="36" width="3" height="1" fill="#a47a52"/>
<rect x="22" y="37" width="3" height="1" fill="#d4a373"/>
<rect x="24" y="37" width="1" height="1" fill="#1a1410"/>

<!-- Front: head/chest/front legs -->
<rect x="24" y="25" width="5" height="2" fill="#4a2c18"/>
<rect x="29" y="25" width="2" height="2" fill="#d4a373"/>
<rect x="24" y="27" width="7" height="2" fill="#d4a373"/>
<rect x="24" y="29" width="7" height="3" fill="#d4a373"/>
<rect x="30" y="32" width="1" height="1" fill="#a47a52"/>
<rect x="24" y="32" width="6" height="1" fill="url(#belly)"/>
<rect x="29" y="33" width="1" height="1" fill="#a47a52"/>
<rect x="24" y="33" width="5" height="1" fill="url(#belly)"/>
<rect x="29" y="23" width="2" height="2" fill="#4a2c18"/>
<rect x="28" y="25" width="2" height="5" fill="#4a2c18"/>
<rect x="27" y="29" width="2" height="2" fill="#4a2c18"/>
<rect x="30" y="23" width="4" height="1" fill="#4a2c18"/>
<rect x="30" y="24" width="5" height="2" fill="#d4a373"/>
<rect x="30" y="26" width="2" height="2" fill="#d4a373"/>
<rect x="32" y="26" width="4" height="2" fill="url(#belly)"/>
<rect x="32" y="28" width="5" height="2" fill="url(#belly)"/>
<rect x="33" y="30" width="3" height="1" fill="url(#belly)"/>
<rect x="32" y="25" width="1" height="1" fill="#1a1410"/>
<rect x="35" y="27" width="1" height="1" fill="#1a1410"/>
<rect x="25" y="35" width="2" height="2" fill="#a47a52"/>
<rect x="25" y="37" width="2" height="1" fill="url(#belly)"/>
<rect x="28" y="34" width="2" height="3" fill="#d4a373"/>
<rect x="28" y="35" width="1" height="1" fill="#a47a52"/>
<rect x="28" y="37" width="2" height="1" fill="url(#belly)"/>

<!-- ===== LIFTED REAR LEG (drawn LAST so it overlays the body).
     Frame 0: paw LOW, at chest level. Thigh comes forward from
     rear haunch, shin angles down, paw beside neck. ===== -->
<rect x="22" y="29" width="4" height="2" fill="#a47a52"/>
<rect x="25" y="30" width="3" height="2" fill="#a47a52"/>
<rect x="27" y="31" width="3" height="2" fill="#d4a373"/>
<rect x="29" y="33" width="4" height="2" fill="#d4a373"/>
<rect x="29" y="35" width="4" height="1" fill="#1a1410"/>
<!-- Motion dashes below paw (downward stroke) -->
<rect x="34" y="35" width="2" height="1" fill="#1a1410"/>
<rect x="33" y="37" width="1" height="1" fill="#1a1410"/>
<rect x="36" y="36" width="1" height="1" fill="#1a1410"/>
</svg>
