<?xml version="1.0" encoding="UTF-8"?>
<svg xmlns="http://www.w3.org/2000/svg" viewBox="0 0 64 64" width="64" height="64">
  <g transform="scale(0.125 0.125) translate(0.000000,512.000000) scale(1.000000,-1.000000)" fill="#236b61" stroke="none"><path d="M184 196 c-3 -4 -4 -4 -8 -4 -4 0 -4 0 -18 -14 l-14 -14 0 -8 0 -8
10 -10 10 -10 80 0 81 0 3 4 3 4 29 0 28 0 10 10 c10 10 10 10 10 14 0 8 -1 8
-20 8 -19 0 -20 0 -20 8 0 4 0 5 -10 14 l-10 10 -80 0 -81 0 -3 -4z"/></g>
  <g transform="scale(0.125 0.125) translate(0.000000,512.000000) scale(1.000000,-1.000000)" fill="#001714" stroke="none"><path d="M186 198 c-1 -1 -2 -3 -2 -4 0 -2 -1 -2 -6 -2 l-6 0 -14 -14 -14 -14
0 -8 0 -8 10 -10 10 -10 80 0 81 0 3 4 3 4 29 0 28 0 10 10 c10 10 10 10 10
14 0 8 -1 8 -20 8 -19 0 -20 0 -20 8 0 4 0 5 -10 14 l-10 10 -80 0 c-77 0 -81
0 -82 -2z m30 -10 l3 -4 57 0 c64 0 60 1 60 -8 0 -8 -1 -8 -20 -8 l-17 0 -3 4
-3 4 -9 0 c-7 0 -9 0 -10 -2 -3 -3 0 -6 6 -6 3 0 5 -1 7 -2 1 -2 1 -2 -7 -10
-8 -7 -8 -8 -8 -12 0 -7 -2 -8 -12 -8 -9 0 -12 1 -12 6 0 2 0 2 -10 2 l-10 0
-6 6 c-6 5 -6 6 -6 10 0 3 -1 5 -2 6 -2 2 -2 2 -8 -4 l-6 -6 8 -8 c8 -8 8 -8
7 -10 -2 -1 -4 -2 -7 -2 -4 0 -5 0 -8 4 -3 4 -4 4 -8 4 -4 0 -5 0 -10 6 l-6 6
0 8 0 9 4 3 c4 3 4 3 4 10 l0 6 14 0 15 0 3 -4z"/><path d="M258 166 c-2 -1 -2 -3 -2 -8 0 -6 0 -6 -2 -6 -3 0 -6 -3 -6 -6 0 -1
1 -2 2 -2 3 0 6 3 6 6 0 1 1 2 2 2 6 0 8 10 4 14 -2 2 -2 2 -4 0z"/></g>
  <g transform="scale(0.125 0.125) translate(0.000000,512.000000) scale(1.000000,-1.000000)" fill="#251700" stroke="none"><path d="M218 190 c-2 -2 -2 -2 0 -4 1 -2 3 -2 58 -2 64 0 60 1 60 -8 0 -8 -1
-8 -20 -8 l-16 0 -4 4 c-4 4 -4 4 -6 3 -1 -2 -2 -4 -2 -7 0 -4 0 -5 -8 -12 -8
-7 -8 -8 -8 -12 0 -8 0 -8 -24 -8 l-21 0 -3 4 c-2 3 -4 4 -6 4 -1 0 -2 1 -2 2
0 3 -3 6 -6 6 -1 0 -2 1 -2 2 0 2 -1 4 -2 5 -2 1 -2 1 -4 -1 -2 -2 -2 -2 -1
-4 1 -1 3 -2 5 -2 1 0 2 -1 2 -2 0 -3 3 -6 6 -6 1 0 2 -1 2 -2 0 -4 -3 -6 -8
-6 -4 0 -5 0 -8 4 -3 4 -4 4 -8 4 -4 0 -5 0 -10 6 l-6 6 0 8 0 9 4 3 c4 4 4 4
3 6 -2 1 -4 2 -7 2 -4 0 -4 0 -14 -10 l-10 -10 0 -8 0 -8 6 -6 6 -6 12 0 13 0
3 -4 3 -4 61 0 61 0 3 4 3 4 33 0 32 0 10 10 c10 10 10 10 10 14 0 8 0 8 -32
8 -27 0 -29 0 -30 2 -3 3 0 6 6 6 3 0 5 1 6 2 2 2 2 2 -4 8 l-6 6 -64 0 c-63
0 -65 0 -66 -2z"/></g>
  <g transform="scale(0.125 0.125) translate(0.000000,512.000000) scale(1.000000,-1.000000)" fill="#054139" stroke="none"><path d="M218 190 c-2 -2 -2 -2 0 -4 1 -2 3 -2 58 -2 64 0 60 1 60 -8 0 -3 1
-5 2 -7 2 -1 2 -1 6 3 3 4 4 4 8 4 3 0 5 1 6 2 2 2 2 2 -4 8 l-6 6 -64 0 c-63
0 -65 0 -66 -2z"/><path d="M162 174 l-10 -10 0 -8 0 -8 6 -6 6 -6 12 0 13 0 3 -4 3 -4 21 0 c19
0 21 0 23 2 2 3 -1 6 -7 6 -4 0 -5 0 -8 4 -2 3 -4 4 -6 4 -1 0 -2 1 -2 2 0 3
-3 6 -6 6 -1 0 -2 1 -2 2 0 2 -1 4 -2 5 -2 1 -2 1 -4 -1 -2 -2 -2 -2 -1 -4 1
-1 3 -2 5 -2 1 0 2 -1 2 -2 0 -3 3 -6 6 -6 1 0 2 -1 2 -2 0 -4 -3 -6 -8 -6 -4
0 -5 0 -8 4 -3 4 -4 4 -8 4 -4 0 -5 0 -10 6 l-6 6 0 8 0 9 4 3 c4 4 4 4 3 6
-2 1 -3 2 -7 2 -4 0 -5 0 -14 -10z"/><path d="M289 174 c-1 -2 -1 -2 1 -4 l2 -2 2 2 c2 2 2 2 1 4 -1 1 -3 2 -3 2 0
0 -2 -1 -3 -2z"/><path d="M286 154 c-4 -3 -6 -7 -6 -8 0 -1 -1 -2 -2 -2 -2 0 -4 -1 -6 -4 l-3
-4 -9 0 c-7 0 -9 0 -10 -2 -2 -2 -2 -2 0 -4 1 -2 3 -2 22 -2 19 0 21 0 23 2 2
3 -1 6 -7 6 -5 0 -8 2 -8 6 l0 2 50 0 51 0 3 4 c3 4 4 4 8 4 6 0 9 3 7 6 -2 2
-4 2 -55 2 l-52 0 -6 -6z"/><path d="M306 134 c-3 -3 0 -6 6 -6 6 0 9 3 7 6 -2 1 -4 2 -7 2 -3 0 -5 -1 -6
-2z"/></g>
  <g transform="scale(0.125 0.125) translate(0.000000,512.000000) scale(1.000000,-1.000000)" fill="#55948b" stroke="none"><path d="M218 190 c-2 -2 -2 -2 0 -4 1 -2 3 -2 58 -2 64 0 60 1 60 -8 0 -3 1
-5 2 -7 2 -1 2 -1 6 3 3 4 4 4 8 4 3 0 5 1 6 2 2 2 2 2 -4 8 l-6 6 -64 0 c-63
0 -65 0 -66 -2z"/><path d="M289 174 c-1 -2 -1 -2 1 -4 l2 -2 2 2 c2 2 2 2 1 4 -1 1 -3 2 -3 2 0
0 -2 -1 -3 -2z"/><path d="M286 154 c-6 -6 -6 -6 -4 -8 1 -2 3 -2 50 -2 l49 0 3 4 c3 4 4 4 8 4
6 0 9 3 7 6 -2 2 -4 2 -55 2 l-52 0 -6 -6z"/><path d="M250 134 c-2 -2 -2 -2 0 -4 1 -2 3 -2 22 -2 19 0 21 0 23 2 1 2 1 2
0 4 -2 2 -4 2 -23 2 -19 0 -21 0 -22 -2z"/><path d="M306 134 c-3 -3 0 -6 6 -6 6 0 9 3 7 6 -2 1 -4 2 -7 2 -3 0 -5 -1 -6
-2z"/></g>
  <g transform="scale(0.125 0.125) translate(0.000000,512.000000) scale(1.000000,-1.000000)" fill="#aa7f38" stroke="none"><path d="M289 174 c-1 -2 -1 -2 1 -4 l2 -2 2 2 c2 2 2 2 1 4 -1 1 -3 2 -3 2 0
0 -2 -1 -3 -2z"/><path d="M337 174 c-1 -2 -1 -2 1 -4 l2 -2 2 2 c2 2 2 2 1 4 -1 1 -3 2 -3 2 0
0 -2 -1 -3 -2z"/><path d="M286 154 c-6 -6 -6 -6 -4 -8 1 -2 3 -2 50 -2 l49 0 3 4 c3 4 4 4 8 4
6 0 9 3 7 6 -2 2 -4 2 -55 2 l-52 0 -6 -6z"/><path d="M250 134 c-2 -2 -2 -2 0 -4 1 -2 3 -2 22 -2 19 0 21 0 23 2 1 2 1 2
0 4 -2 2 -4 2 -23 2 -19 0 -21 0 -22 -2z"/><path d="M306 134 c-3 -3 0 -6 6 -6 6 0 9 3 7 6 -2 1 -4 2 -7 2 -3 0 -5 -1 -6
-2z"/></g>
  <g transform="scale(0.125 0.125) translate(0.000000,512.000000) scale(1.000000,-1.000000)" fill="#674309" stroke="none"><path d="M289 174 c-1 -2 -1 -2 1 -4 l2 -2 2 2 c2 2 2 2 1 4 -1 1 -3 2 -3 2 0
0 -2 -1 -3 -2z"/><path d="M337 174 c-1 -2 -1 -2 1 -4 l2 -2 2 2 c2 2 2 2 1 4 -1 1 -3 2 -3 2 0
0 -2 -1 -3 -2z"/><path d="M286 154 c-6 -6 -6 -6 -4 -8 2 -3 90 -3 93 0 1 2 1 2 0 4 -2 2 -4 2
-39 2 l-37 0 -3 4 c-2 2 -3 4 -4 4 0 0 -3 -3 -6 -6z"/><path d="M393 158 c-1 -2 -1 -2 1 -4 l2 -2 2 2 c2 2 2 2 1 4 -1 1 -3 2 -3 2 0
0 -2 -1 -3 -2z"/><path d="M282 134 c-3 -3 0 -6 6 -6 6 0 9 3 7 6 -2 1 -4 2 -7 2 -3 0 -5 -1 -6
-2z"/><path d="M305 134 c-1 -2 -1 -2 1 -4 l2 -2 2 2 c2 2 2 2 1 4 -1 1 -3 2 -3 2 0
0 -2 -1 -3 -2z"/></g>
  <g transform="scale(0.125 0.125) translate(0.000000,512.000000) scale(1.000000,-1.000000)" fill="#ecc687" stroke="none"><path d="M289 174 c-1 -2 -1 -2 1 -4 l2 -2 2 2 c2 2 2 2 1 4 -1 1 -3 2 -3 2 0
0 -2 -1 -3 -2z"/><path d="M337 174 c-1 -2 -1 -2 1 -4 l2 -2 2 2 c2 2 2 2 1 4 -1 1 -3 2 -3 2 0
0 -2 -1 -3 -2z"/><path d="M393 158 c-1 -2 -1 -2 1 -4 l2 -2 2 2 c2 2 2 2 1 4 -1 1 -3 2 -3 2 0
0 -2 -1 -3 -2z"/><path d="M282 134 c-3 -3 0 -6 6 -6 6 0 9 3 7 6 -2 1 -4 2 -7 2 -3 0 -5 -1 -6
-2z"/></g>
  <g transform="scale(0.125 0.125) translate(0.000000,512.000000) scale(1.000000,-1.000000)" fill="#afd5d0" stroke="none"><path d="M289 174 c-1 -2 -1 -2 1 -4 l2 -2 2 2 c2 2 2 2 1 4 -1 1 -3 2 -3 2 0
0 -2 -1 -3 -2z"/><path d="M337 174 c-1 -2 -1 -2 1 -4 l2 -2 2 2 c2 2 2 2 1 4 -1 1 -3 2 -3 2 0
0 -2 -1 -3 -2z"/></g>
</svg>
