<?xml version="1.0" encoding="UTF-8"?>
<svg xmlns="http://www.w3.org/2000/svg" viewBox="0 0 64 64" width="64" height="64">
  <g transform="scale(0.125 0.125) translate(0.000000,512.000000) scale(1.000000,-1.000000)" fill="#236b61" stroke="none"><path d="M168 196 l-3 -4 -9 0 -8 0 -8 -8 c-7 -8 -8 -8 -12 -8 -4 0 -5 -1 -10
-6 l-6 -6 0 -8 0 -9 4 -3 c4 -3 4 -4 4 -8 0 -9 -13 -8 128 -8 l125 0 2 2 c1 2
1 2 -3 6 l-4 4 8 8 8 8 0 8 0 8 -6 6 c-5 6 -6 6 -10 6 -4 0 -5 0 -8 4 -3 4 -4
4 -8 4 -4 0 -5 0 -8 4 l-3 4 -85 0 -85 0 -3 -4z"/></g>
  <g transform="scale(0.125 0.125) translate(0.000000,512.000000) scale(1.000000,-1.000000)" fill="#251700" stroke="none"><path d="M170 198 c-1 -1 -2 -3 -2 -4 0 -2 0 -2 -10 -2 l-10 0 -8 -8 c-7 -8
-8 -8 -12 -8 -4 0 -5 -1 -10 -6 l-6 -6 0 -8 0 -9 4 -3 c4 -3 4 -4 4 -8 0 -9
-13 -8 128 -8 l125 0 2 2 c1 2 1 2 -3 6 l-4 4 8 8 8 8 0 8 0 8 -6 6 c-5 6 -6
6 -10 6 -4 0 -5 0 -8 4 -3 4 -4 4 -8 4 -4 0 -5 0 -8 4 l-3 4 -85 0 c-81 0 -85
0 -86 -2z m30 -10 l3 -4 73 0 c82 0 76 1 76 -8 0 -3 -1 -5 -2 -7 -2 -1 -2 -1
-6 3 l-3 4 -9 0 -9 0 -3 -4 -3 -4 -49 0 -48 0 -10 -10 c-10 -9 -10 -10 -10
-14 0 -6 -2 -8 -8 -8 -4 0 -5 0 -8 4 -3 4 -4 4 -8 4 -4 0 -5 0 -10 6 l-6 6 0
8 0 9 4 3 c4 3 4 3 4 10 l0 6 14 0 15 0 3 -4z m-58 -22 c2 -1 2 -3 2 -10 0
-10 -1 -12 -8 -12 -4 0 -5 0 -10 6 l-6 6 6 6 c5 5 6 6 10 6 3 0 5 -1 6 -2z"/><path d="M186 174 c-2 -2 -2 -2 0 -4 1 -2 3 -2 10 -2 7 0 9 0 11 2 1 2 1 2 0
4 -2 2 -4 2 -11 2 -7 0 -9 0 -10 -2z"/></g>
  <g transform="scale(0.125 0.125) translate(0.000000,512.000000) scale(1.000000,-1.000000)" fill="#001714" stroke="none"><path d="M170 198 c-1 -1 -2 -3 -2 -4 0 -2 0 -2 -10 -2 l-10 0 -8 -8 c-7 -8
-8 -8 -12 -8 -4 0 -5 -1 -10 -6 l-6 -6 0 -8 0 -8 10 -10 10 -10 16 0 17 0 3 4
4 5 4 -5 4 -4 64 0 c63 0 65 0 67 2 1 2 1 2 0 4 -2 2 -4 2 -51 2 -53 0 -52 0
-52 6 l0 2 74 0 75 0 3 4 c3 4 4 4 8 4 6 0 9 3 7 6 -2 2 -4 2 -79 2 l-76 0 -6
-6 c-4 -3 -6 -7 -6 -8 0 -1 -1 -2 -2 -2 -2 0 -4 -1 -6 -4 -3 -4 -4 -4 -8 -4
-4 0 -5 0 -8 4 -3 4 -4 4 -8 4 -4 0 -5 0 -10 6 l-6 6 0 8 0 9 4 3 c4 3 4 3 4
10 l0 6 14 0 15 0 3 -4 3 -4 73 0 c82 0 76 1 76 -8 0 -7 1 -8 16 -8 11 0 13 0
14 2 2 2 2 2 -4 8 -5 6 -6 6 -10 6 -4 0 -5 0 -8 4 -3 4 -4 4 -8 4 -4 0 -5 0
-8 4 l-3 4 -85 0 c-81 0 -85 0 -86 -2z m-28 -32 c2 -1 2 -3 2 -10 0 -10 -1
-12 -8 -12 -4 0 -5 0 -10 6 l-6 6 6 6 c5 5 6 6 10 6 3 0 5 -1 6 -2z"/><path d="M186 174 c-2 -2 -2 -2 0 -4 1 -2 3 -2 10 -2 7 0 9 0 11 2 1 2 1 2 0
4 -2 2 -4 2 -11 2 -7 0 -9 0 -10 -2z"/><path d="M322 174 c-2 -2 -2 -2 0 -4 1 -2 3 -2 10 -2 7 0 9 0 11 2 1 2 1 2 0
4 -2 2 -4 2 -11 2 -7 0 -9 0 -10 -2z"/><path d="M322 134 c-2 -2 -2 -2 0 -4 1 -2 3 -2 22 -2 19 0 21 0 23 2 1 2 1 2
0 4 -2 2 -4 2 -23 2 -19 0 -21 0 -22 -2z"/></g>
  <g transform="scale(0.125 0.125) translate(0.000000,512.000000) scale(1.000000,-1.000000)" fill="#054139" stroke="none"><path d="M202 190 c-2 -2 -2 -2 0 -4 2 -3 138 -3 141 0 1 2 1 2 0 4 -3 3 -139
3 -141 0z"/><path d="M142 178 l-6 -6 4 -4 c4 -3 4 -4 4 -8 0 -4 0 -5 4 -8 4 -3 4 -4 4 -8
0 -7 -2 -8 -12 -8 -7 0 -9 0 -10 -2 -2 -2 -2 -2 0 -4 1 -2 3 -2 18 -2 l17 0 3
4 4 5 4 -5 4 -4 64 0 c63 0 65 0 67 2 1 2 1 2 0 4 -2 2 -4 2 -51 2 -53 0 -52
0 -52 6 l0 2 74 0 75 0 3 4 c3 4 4 4 8 4 6 0 9 3 7 6 -2 2 -4 2 -79 2 l-76 0
-6 -6 c-4 -3 -6 -7 -6 -8 0 -1 -1 -2 -2 -2 -2 0 -4 -1 -6 -4 -3 -4 -4 -4 -8
-4 -4 0 -5 0 -8 4 -3 4 -4 4 -8 4 -4 0 -5 0 -10 6 l-6 6 0 8 0 9 4 3 c4 4 4 4
3 6 -2 2 -3 2 -11 2 l-8 0 -6 -6z"/><path d="M354 182 c-3 -3 -3 -10 0 -12 3 -3 6 0 6 6 0 7 -3 10 -6 6z"/><path d="M201 174 c-1 -2 -1 -2 1 -4 l2 -2 2 2 c2 2 2 2 1 4 -1 1 -3 2 -3 2 0
0 -2 -1 -3 -2z"/><path d="M337 174 c-1 -2 -1 -2 1 -4 l2 -2 2 2 c2 2 2 2 1 4 -1 1 -3 2 -3 2 0
0 -2 -1 -3 -2z"/><path d="M369 174 c-1 -2 -1 -2 1 -4 l2 -2 2 2 c2 2 2 2 1 4 -1 1 -3 2 -3 2 0
0 -2 -1 -3 -2z"/><path d="M121 166 c-1 -2 -1 -2 1 -4 l2 -2 2 2 c2 2 2 2 1 4 -1 1 -3 2 -3 2 0
0 -2 -1 -3 -2z"/><path d="M121 150 c-1 -2 -1 -2 1 -4 l2 -2 2 2 c2 2 2 2 1 4 -1 1 -3 2 -3 2 0
0 -2 -1 -3 -2z"/><path d="M322 134 c-2 -2 -2 -2 0 -4 1 -2 3 -2 22 -2 19 0 21 0 23 2 1 2 1 2
0 4 -2 2 -4 2 -23 2 -19 0 -21 0 -22 -2z"/></g>
  <g transform="scale(0.125 0.125) translate(0.000000,512.000000) scale(1.000000,-1.000000)" fill="#aa7f38" stroke="none"><path d="M202 190 c-2 -2 -2 -2 0 -4 2 -3 138 -3 141 0 1 2 1 2 0 4 -3 3 -139
3 -141 0z"/><path d="M354 182 c-3 -3 -3 -10 0 -12 3 -3 6 0 6 6 0 7 -3 10 -6 6z"/><path d="M201 174 c-1 -2 -1 -2 1 -4 l2 -2 2 2 c2 2 2 2 1 4 -1 1 -3 2 -3 2 0
0 -2 -1 -3 -2z"/><path d="M337 174 c-1 -2 -1 -2 1 -4 l2 -2 2 2 c2 2 2 2 1 4 -1 1 -3 2 -3 2 0
0 -2 -1 -3 -2z"/><path d="M214 154 c-6 -6 -6 -6 -4 -8 1 -2 3 -2 74 -2 l73 0 3 4 c3 4 4 4 8 4
6 0 9 3 7 6 -2 2 -4 2 -79 2 l-76 0 -6 -6z"/><path d="M121 150 c-1 -2 -1 -2 1 -4 l2 -2 2 2 c2 2 2 2 1 4 -1 1 -3 2 -3 2 0
0 -2 -1 -3 -2z"/><path d="M130 134 c-2 -2 -2 -2 0 -4 1 -2 3 -2 18 -2 15 0 17 0 19 2 1 2 1 2
0 4 -2 2 -4 2 -19 2 -15 0 -17 0 -18 -2z"/><path d="M322 134 c-2 -2 -2 -2 0 -4 1 -2 3 -2 22 -2 19 0 21 0 23 2 1 2 1 2
0 4 -2 2 -4 2 -23 2 -19 0 -21 0 -22 -2z"/></g>
  <g transform="scale(0.125 0.125) translate(0.000000,512.000000) scale(1.000000,-1.000000)" fill="#55948b" stroke="none"><path d="M202 190 c-2 -2 -2 -2 0 -4 2 -3 138 -3 141 0 1 2 1 2 0 4 -3 3 -139
3 -141 0z"/><path d="M354 182 c-3 -3 -3 -10 0 -12 3 -3 6 0 6 6 0 7 -3 10 -6 6z"/><path d="M201 174 c-1 -2 -1 -2 1 -4 l2 -2 2 2 c2 2 2 2 1 4 -1 1 -3 2 -3 2 0
0 -2 -1 -3 -2z"/><path d="M337 174 c-1 -2 -1 -2 1 -4 l2 -2 2 2 c2 2 2 2 1 4 -1 1 -3 2 -3 2 0
0 -2 -1 -3 -2z"/><path d="M214 154 c-6 -6 -6 -6 -4 -8 2 -3 122 -3 125 0 1 2 1 2 0 4 -2 2 -4
2 -55 2 l-53 0 -3 4 c-2 2 -3 4 -4 4 0 0 -3 -3 -6 -6z"/><path d="M369 158 c-1 -2 -1 -2 1 -4 l2 -2 2 2 c2 2 2 2 1 4 -1 1 -3 2 -3 2 0
0 -2 -1 -3 -2z"/><path d="M121 150 c-1 -2 -1 -2 1 -4 l2 -2 2 2 c2 2 2 2 1 4 -1 1 -3 2 -3 2 0
0 -2 -1 -3 -2z"/><path d="M129 134 c-1 -2 -1 -2 1 -4 l2 -2 2 2 c2 2 2 2 1 4 -1 1 -3 2 -3 2 0
0 -2 -1 -3 -2z"/><path d="M161 134 c-1 -2 -1 -2 1 -4 l2 -2 2 2 c2 2 2 2 1 4 -1 1 -3 2 -3 2 0
0 -2 -1 -3 -2z"/><path d="M321 134 c-1 -2 -1 -2 1 -4 l2 -2 2 2 c2 2 2 2 1 4 -1 1 -3 2 -3 2 0
0 -2 -1 -3 -2z"/><path d="M354 134 c-3 -3 0 -6 6 -6 6 0 9 3 7 6 -2 1 -4 2 -7 2 -3 0 -5 -1 -6
-2z"/></g>
  <g transform="scale(0.125 0.125) translate(0.000000,512.000000) scale(1.000000,-1.000000)" fill="#674309" stroke="none"><path d="M201 174 c-1 -2 -1 -2 1 -4 l2 -2 2 2 c2 2 2 2 1 4 -1 1 -3 2 -3 2 0
0 -2 -1 -3 -2z"/><path d="M337 174 c-1 -2 -1 -2 1 -4 l2 -2 2 2 c2 2 2 2 1 4 -1 1 -3 2 -3 2 0
0 -2 -1 -3 -2z"/><path d="M214 154 c-6 -6 -6 -6 -4 -8 2 -3 122 -3 125 0 1 2 1 2 0 4 -2 2 -4
2 -55 2 l-53 0 -3 4 c-2 2 -3 4 -4 4 0 0 -3 -3 -6 -6z"/><path d="M369 158 c-1 -2 -1 -2 1 -4 l2 -2 2 2 c2 2 2 2 1 4 -1 1 -3 2 -3 2 0
0 -2 -1 -3 -2z"/><path d="M129 134 c-1 -2 -1 -2 1 -4 l2 -2 2 2 c2 2 2 2 1 4 -1 1 -3 2 -3 2 0
0 -2 -1 -3 -2z"/><path d="M161 134 c-1 -2 -1 -2 1 -4 l2 -2 2 2 c2 2 2 2 1 4 -1 1 -3 2 -3 2 0
0 -2 -1 -3 -2z"/><path d="M321 134 c-1 -2 -1 -2 1 -4 l2 -2 2 2 c2 2 2 2 1 4 -1 1 -3 2 -3 2 0
0 -2 -1 -3 -2z"/><path d="M354 134 c-3 -3 0 -6 6 -6 6 0 9 3 7 6 -2 1 -4 2 -7 2 -3 0 -5 -1 -6
-2z"/></g>
  <g transform="scale(0.125 0.125) translate(0.000000,512.000000) scale(1.000000,-1.000000)" fill="#ecc687" stroke="none"><path d="M201 174 c-1 -2 -1 -2 1 -4 l2 -2 2 2 c2 2 2 2 1 4 -1 1 -3 2 -3 2 0
0 -2 -1 -3 -2z"/><path d="M337 174 c-1 -2 -1 -2 1 -4 l2 -2 2 2 c2 2 2 2 1 4 -1 1 -3 2 -3 2 0
0 -2 -1 -3 -2z"/><path d="M369 158 c-1 -2 -1 -2 1 -4 l2 -2 2 2 c2 2 2 2 1 4 -1 1 -3 2 -3 2 0
0 -2 -1 -3 -2z"/><path d="M129 134 c-1 -2 -1 -2 1 -4 l2 -2 2 2 c2 2 2 2 1 4 -1 1 -3 2 -3 2 0
0 -2 -1 -3 -2z"/><path d="M354 134 c-3 -3 0 -6 6 -6 6 0 9 3 7 6 -2 1 -4 2 -7 2 -3 0 -5 -1 -6
-2z"/></g>
  <g transform="scale(0.125 0.125) translate(0.000000,512.000000) scale(1.000000,-1.000000)" fill="#afd5d0" stroke="none"><path d="M201 174 c-1 -2 -1 -2 1 -4 l2 -2 2 2 c2 2 2 2 1 4 -1 1 -3 2 -3 2 0
0 -2 -1 -3 -2z"/><path d="M337 174 c-1 -2 -1 -2 1 -4 l2 -2 2 2 c2 2 2 2 1 4 -1 1 -3 2 -3 2 0
0 -2 -1 -3 -2z"/></g>
</svg>
