<?xml version="1.0" encoding="UTF-8"?>
<svg xmlns="http://www.w3.org/2000/svg" viewBox="0 0 64 64" width="64" height="64">
  <g transform="scale(0.125 0.125) translate(0.000000,512.000000) scale(1.000000,-1.000000)" fill="#236b61" stroke="none"><path d="M176 196 c-3 -4 -4 -4 -8 -4 -4 0 -5 0 -8 -4 -3 -4 -4 -4 -8 -4 -4 0
-5 0 -10 -6 l-6 -6 0 -8 0 -8 8 -8 9 -8 -5 -4 c-4 -4 -4 -4 -3 -6 l2 -2 125 0
c141 0 128 -1 128 8 0 4 0 5 4 8 l4 3 0 9 0 8 -6 6 c-5 5 -6 6 -10 6 -4 0 -5
0 -12 8 l-8 8 -8 0 -9 0 -3 4 -3 4 -85 0 -85 0 -3 -4z"/></g>
  <g transform="scale(0.125 0.125) translate(0.000000,512.000000) scale(1.000000,-1.000000)" fill="#001714" stroke="none"><path d="M178 198 c-1 -1 -2 -3 -2 -4 0 -2 0 -2 -6 -2 -7 0 -7 0 -10 -4 -3 -4
-4 -4 -8 -4 -4 0 -5 0 -10 -6 l-6 -6 0 -8 0 -8 8 -8 9 -8 -5 -4 c-4 -4 -4 -4
-3 -6 3 -3 51 -3 54 0 2 3 -1 6 -7 6 -4 0 -5 0 -8 4 -3 4 -4 4 -8 4 -4 0 -4 0
-14 10 l-10 10 12 12 c8 8 12 12 12 14 0 4 4 3 8 -2 l3 -4 81 0 81 0 3 -4 3
-4 9 0 8 0 14 -14 c16 -16 17 -18 8 -18 l-6 0 -8 8 c-5 5 -8 8 -10 8 -1 0 -2
1 -2 2 0 2 -1 4 -2 5 -2 1 -2 1 -4 -1 -2 -2 -2 -2 -1 -4 1 -1 3 -2 5 -2 1 0 2
-1 2 -2 0 -5 -3 -6 -16 -6 l-13 0 -3 -4 -3 -4 -9 0 -9 0 -3 -4 -3 -4 -49 0
c-47 0 -49 0 -50 -2 -2 -2 -2 -2 0 -4 1 -2 3 -2 94 -2 106 0 96 -1 96 10 0 6
0 6 2 6 5 0 6 3 6 12 l0 8 -6 6 c-5 5 -6 6 -10 6 -4 0 -5 0 -12 8 l-8 8 -8 0
-9 0 -3 4 -3 4 -85 0 c-81 0 -85 0 -86 -2z"/></g>
  <g transform="scale(0.125 0.125) translate(0.000000,512.000000) scale(1.000000,-1.000000)" fill="#054139" stroke="none"><path d="M186 190 c-2 -2 -2 -2 0 -4 1 -2 3 -2 84 -2 l82 0 0 -2 c0 -5 3 -6
14 -6 10 0 10 0 10 -2 0 -3 3 -6 6 -6 1 0 2 -1 2 -2 0 -1 3 -5 6 -8 6 -6 6 -6
8 -4 1 1 2 3 2 6 0 6 -2 8 -10 8 -6 0 -6 0 -6 2 0 3 -3 6 -6 6 -1 0 -2 1 -2 2
0 5 -3 6 -14 6 -10 0 -10 0 -10 2 0 6 4 6 -84 6 -79 0 -81 0 -82 -2z"/><path d="M162 182 c-1 -1 -2 -3 -2 -4 0 -2 0 -2 -6 -2 -9 0 -10 -1 -10 -12 l0
-8 8 -8 9 -8 -5 -4 c-4 -4 -4 -4 -3 -6 3 -3 43 -3 46 0 2 3 -1 6 -7 6 -4 0 -5
0 -8 4 -3 4 -4 4 -8 4 -4 0 -4 0 -14 10 l-10 10 4 4 c2 2 4 4 4 6 0 1 1 2 2 2
2 0 4 1 5 2 1 2 1 2 0 4 -3 2 -3 2 -5 0z"/><path d="M362 166 c-2 -2 -2 -2 0 -4 0 -1 2 -2 4 -2 2 0 2 0 2 -4 l0 -4 -14 0
-15 0 -3 -4 -3 -4 -9 0 -9 0 -3 -4 -3 -4 -49 0 c-47 0 -49 0 -50 -2 -2 -2 -2
-2 0 -4 1 -2 3 -2 94 -2 91 0 93 0 95 2 1 2 1 2 0 4 -2 2 -4 2 -11 2 -7 0 -9
0 -10 2 -3 3 -3 6 0 6 2 0 4 1 5 2 1 2 1 2 0 4 -1 1 -3 2 -5 2 -1 0 -2 1 -2 2
0 3 -3 6 -6 6 -1 0 -2 1 -2 2 0 2 -3 6 -4 6 0 0 -2 -1 -2 -2z m14 -18 c0 -3 0
-4 -2 -4 -3 0 -6 3 -6 6 0 2 0 2 4 2 l4 0 0 -4z"/></g>
  <g transform="scale(0.125 0.125) translate(0.000000,512.000000) scale(1.000000,-1.000000)" fill="#55948b" stroke="none"><path d="M186 190 c-2 -2 -2 -2 0 -4 1 -2 3 -2 84 -2 l82 0 0 -2 c0 -5 3 -6
14 -6 10 0 10 0 10 -2 0 -3 3 -6 6 -6 1 0 2 -1 2 -2 0 -1 3 -5 6 -8 6 -6 6 -6
8 -4 1 1 2 3 2 6 0 6 -2 8 -10 8 -6 0 -6 0 -6 2 0 3 -3 6 -6 6 -1 0 -2 1 -2 2
0 5 -3 6 -14 6 -10 0 -10 0 -10 2 0 6 4 6 -84 6 -79 0 -81 0 -82 -2z"/><path d="M153 150 c-1 -2 -1 -2 1 -4 l2 -2 2 2 c2 2 2 2 1 4 -1 1 -3 2 -3 2 0
0 -2 -1 -3 -2z"/><path d="M342 146 c-5 -5 -6 -6 -6 -10 0 -8 0 -8 32 -8 27 0 29 0 31 2 1 2 1
2 0 4 -2 2 -4 2 -11 2 l-9 0 -3 4 c-3 4 -4 4 -8 4 -4 0 -5 0 -8 4 -3 4 -4 4
-8 4 -4 0 -5 -1 -10 -6z"/><path d="M154 134 c-2 -2 -2 -2 0 -4 1 -2 3 -2 22 -2 19 0 21 0 23 2 1 2 1 2
0 4 -2 2 -4 2 -23 2 -19 0 -21 0 -22 -2z"/></g>
  <g transform="scale(0.125 0.125) translate(0.000000,512.000000) scale(1.000000,-1.000000)" fill="#aa7f38" stroke="none"><path d="M153 150 c-1 -2 -1 -2 1 -4 l2 -2 2 2 c2 2 2 2 1 4 -1 1 -3 2 -3 2 0
0 -2 -1 -3 -2z"/><path d="M342 146 c-5 -5 -6 -6 -6 -10 0 -8 0 -8 32 -8 27 0 29 0 31 2 1 2 1
2 0 4 -2 2 -4 2 -11 2 l-9 0 -3 4 c-3 4 -4 4 -8 4 -4 0 -5 0 -8 4 -3 4 -4 4
-8 4 -4 0 -5 -1 -10 -6z"/><path d="M154 134 c-2 -2 -2 -2 0 -4 1 -2 3 -2 22 -2 19 0 21 0 23 2 1 2 1 2
0 4 -2 2 -4 2 -23 2 -19 0 -21 0 -22 -2z"/></g>
  <g transform="scale(0.125 0.125) translate(0.000000,512.000000) scale(1.000000,-1.000000)" fill="#674309" stroke="none"><path d="M153 150 c-1 -2 -1 -2 1 -4 l2 -2 2 2 c2 2 2 2 1 4 -1 1 -3 2 -3 2 0
0 -2 -1 -3 -2z"/><path d="M354 150 c-2 -2 -2 -2 0 -4 0 -1 2 -2 4 -2 1 0 2 -1 2 -2 0 -6 10 -8
15 -4 3 3 -1 6 -9 6 -6 0 -6 0 -6 2 0 2 -3 6 -4 6 0 0 -2 -1 -2 -2z"/><path d="M162 134 c-2 -2 -2 -2 0 -4 1 -2 3 -2 18 -2 15 0 17 0 19 2 1 2 1 2
0 4 -2 2 -4 2 -19 2 -15 0 -17 0 -18 -2z"/><path d="M386 134 c-3 -3 0 -6 6 -6 6 0 9 3 7 6 -2 1 -4 2 -7 2 -3 0 -5 -1 -6
-2z"/></g>
  <g transform="scale(0.125 0.125) translate(0.000000,512.000000) scale(1.000000,-1.000000)" fill="#251700" stroke="none"><path d="M153 150 c-1 -2 -1 -2 1 -4 l2 -2 2 2 c2 2 2 2 1 4 -1 1 -3 2 -3 2 0
0 -2 -1 -3 -2z"/><path d="M354 150 c-2 -2 -2 -2 0 -4 0 -1 2 -2 4 -2 1 0 2 -1 2 -2 0 -6 10 -8
15 -4 3 3 -1 6 -9 6 -6 0 -6 0 -6 2 0 2 -3 6 -4 6 0 0 -2 -1 -2 -2z"/><path d="M386 134 c-3 -3 0 -6 6 -6 6 0 9 3 7 6 -2 1 -4 2 -7 2 -3 0 -5 -1 -6
-2z"/></g>
  <g transform="scale(0.125 0.125) translate(0.000000,512.000000) scale(1.000000,-1.000000)" fill="#ecc687" stroke="none"><path d="M354 150 c-2 -2 -2 -2 0 -4 0 -1 2 -2 4 -2 1 0 2 -1 2 -2 0 -2 1 -4
2 -5 2 -1 2 -1 4 1 2 2 2 2 1 4 -1 1 -3 2 -5 2 -1 0 -2 1 -2 2 0 2 -3 6 -4 6
0 0 -2 -1 -2 -2z"/><path d="M385 134 c-1 -2 -1 -2 1 -4 l2 -2 2 2 c2 2 2 2 1 4 -1 1 -3 2 -3 2 0
0 -2 -1 -3 -2z"/></g>
</svg>
