<?xml version="1.0" encoding="UTF-8"?>
<svg xmlns="http://www.w3.org/2000/svg" viewBox="0 0 32 32" width="32" height="32">
  <g transform="scale(0.125 0.125) translate(0.000000,256.000000) scale(1.000000,-1.000000)" fill="#000000" stroke="none"><path d="M110 98 l-6 -6 0 -8 0 -9 -4 -3 c-4 -3 -4 -4 -4 -8 0 -4 0 -4 -10
-14 -9 -10 -10 -10 -14 -10 -4 0 -5 0 -12 -8 -7 -8 -8 -8 -12 -8 -4 0 -5 -1
-10 -6 l-6 -6 0 -6 0 -6 12 0 c12 0 12 0 12 2 0 4 3 6 8 6 4 0 5 0 8 4 3 4 4
4 8 4 6 0 8 -2 8 -10 l0 -6 12 0 12 0 0 6 c0 9 1 10 12 10 l8 0 6 6 6 6 0 12
0 13 -4 3 -4 3 0 9 0 9 4 3 c4 3 4 4 4 8 0 4 0 5 -6 10 l-6 6 -8 0 -8 0 -6 -6z"/></g>
  <g transform="scale(0.125 0.125) translate(0.000000,256.000000) scale(1.000000,-1.000000)" fill="#566a89" stroke="none"><path d="M114 94 c-2 -1 -2 -4 -2 -10 l0 -9 -4 -3 c-4 -3 -4 -4 -4 -8 0 -4 0
-4 -14 -18 -13 -13 -14 -14 -18 -14 -4 0 -5 -1 -10 -6 -4 -3 -6 -7 -6 -8 0 -2
-1 -2 -6 -2 -8 0 -12 -3 -8 -6 4 -5 14 -2 14 4 0 2 0 2 6 2 7 0 7 0 10 4 3 4
4 4 8 4 4 0 5 0 10 -6 l6 -6 0 -6 0 -6 4 0 4 0 0 6 0 6 6 6 6 6 8 0 c12 0 12
0 12 16 l0 13 -4 3 -4 3 0 9 0 9 4 3 c4 3 4 4 4 8 0 7 -2 8 -12 8 -7 0 -9 0
-10 -2z"/></g>
  <g transform="scale(0.125 0.125) translate(0.000000,256.000000) scale(1.000000,-1.000000)" fill="#37446e" stroke="none"><path d="M114 94 c-2 -1 -2 -4 -2 -10 l0 -9 -4 -3 c-4 -3 -4 -4 -4 -8 0 -6 2
-8 8 -8 6 0 16 -10 16 -16 0 -6 -2 -8 -8 -8 -4 0 -5 0 -8 4 l-4 5 -4 -5 c-4
-5 -8 -6 -8 -2 0 2 -1 4 -2 5 -2 1 -2 1 -4 -1 -2 -2 -2 -2 -1 -4 1 -1 3 -2 5
-2 1 0 2 -1 2 -2 0 -5 2 -6 20 -6 21 0 20 -1 20 16 l0 13 -4 3 -4 3 0 9 0 9 4
3 c4 3 4 4 4 8 0 7 -2 8 -12 8 -7 0 -9 0 -10 -2z"/><path d="M62 26 c-4 -3 -6 -7 -6 -8 0 -2 -1 -2 -6 -2 -8 0 -12 -3 -8 -6 4 -5
14 -2 14 4 0 2 1 2 6 2 l6 0 6 6 c6 6 6 6 4 8 -1 1 -3 2 -6 2 -4 0 -5 -1 -10
-6z"/><path d="M98 14 c-2 -1 -2 -3 -2 -8 l0 -6 4 0 4 0 0 6 c0 5 0 7 -2 8 -2 2 -2
2 -4 0z"/></g>
  <g transform="scale(0.125 0.125) translate(0.000000,256.000000) scale(1.000000,-1.000000)" fill="#222a5c" stroke="none"><path d="M114 70 c-4 -4 -3 -10 4 -16 7 -7 13 -8 17 -4 1 2 1 2 -3 6 -4 3 -4
4 -4 8 0 6 -2 8 -8 8 -3 0 -5 -1 -6 -2z"/><path d="M90 38 c-2 -2 -2 -2 0 -4 0 -1 2 -2 4 -2 1 0 2 -1 2 -2 0 -5 3 -6 12
-6 7 0 9 0 10 2 2 2 2 2 -4 8 l-6 6 -4 -4 c-4 -5 -8 -6 -8 -2 0 2 -3 6 -4 6 0
0 -2 -1 -2 -2z"/><path d="M62 26 c-4 -3 -6 -7 -6 -8 0 -2 -1 -2 -6 -2 -8 0 -12 -3 -8 -6 4 -5
14 -2 14 4 0 2 1 2 6 2 l6 0 6 6 c6 6 6 6 4 8 -1 1 -3 2 -6 2 -4 0 -5 -1 -10
-6z"/><path d="M98 14 c-2 -1 -2 -3 -2 -8 l0 -6 4 0 4 0 0 6 c0 5 0 7 -2 8 -2 2 -2
2 -4 0z"/></g>
  <g transform="scale(0.125 0.125) translate(0.000000,256.000000) scale(1.000000,-1.000000)" fill="#158968" stroke="none"><path d="M114 70 c-4 -4 -3 -10 4 -16 7 -7 13 -8 17 -4 1 2 1 2 -3 6 -4 3 -4
4 -4 8 0 6 -2 8 -8 8 -3 0 -5 -1 -6 -2z"/><path d="M98 14 c-2 -1 -2 -3 -2 -8 l0 -6 4 0 4 0 0 6 c0 5 0 7 -2 8 -2 2 -2
2 -4 0z"/></g>
  <g transform="scale(0.125 0.125) translate(0.000000,256.000000) scale(1.000000,-1.000000)" fill="#ab1f65" stroke="none"><path d="M98 14 c-2 -1 -2 -3 -2 -8 l0 -6 4 0 4 0 0 6 c0 5 0 7 -2 8 -2 2 -2
2 -4 0z"/></g>
</svg>
