<?xml version="1.0" encoding="UTF-8"?>
<svg xmlns="http://www.w3.org/2000/svg" viewBox="0 0 32 32" width="32" height="32">
  <g transform="scale(0.125 0.125) translate(0.000000,256.000000) scale(1.000000,-1.000000)" fill="#000000" stroke="none"><path d="M114 94 l-10 -10 0 -8 0 -9 -4 -3 c-4 -3 -4 -4 -4 -8 0 -4 0 -5 -6
-10 -5 -6 -6 -6 -10 -6 -4 0 -5 0 -8 -4 -3 -4 -4 -4 -8 -4 -4 0 -5 0 -8 -4 -3
-4 -4 -4 -8 -4 -4 0 -5 0 -10 -6 l-6 -6 0 -6 0 -6 12 0 c12 0 12 0 12 2 0 5 3
6 16 6 14 0 16 -1 16 -6 0 -2 0 -2 12 -2 12 0 12 0 12 2 0 1 5 8 16 18 l16 16
0 12 0 13 -4 3 c-4 3 -4 4 -4 8 0 4 0 5 4 8 4 3 4 4 4 8 0 4 0 5 -6 10 -5 6
-6 6 -10 6 -4 0 -5 -1 -14 -10z"/></g>
  <g transform="scale(0.125 0.125) translate(0.000000,256.000000) scale(1.000000,-1.000000)" fill="#566a89" stroke="none"><path d="M118 90 l-6 -6 0 -8 0 -9 -4 -3 c-4 -3 -4 -4 -4 -8 0 -4 0 -4 -10
-14 -10 -10 -10 -10 -14 -10 -4 0 -5 0 -8 -4 -3 -4 -4 -4 -8 -4 -5 0 -8 -2 -8
-6 0 -2 0 -2 -6 -2 -8 0 -12 -3 -8 -6 4 -5 14 -2 14 4 0 2 0 2 14 2 l14 0 6
-6 c4 -3 6 -7 6 -8 0 -2 1 -2 4 -2 3 0 4 0 4 2 0 1 5 8 16 18 l16 16 0 12 0
13 -4 3 c-4 3 -4 4 -4 8 0 4 0 5 4 8 4 3 4 4 4 8 0 6 -2 8 -8 8 -4 0 -5 -1
-10 -6z"/></g>
  <g transform="scale(0.125 0.125) translate(0.000000,256.000000) scale(1.000000,-1.000000)" fill="#37446e" stroke="none"><path d="M118 90 l-6 -6 0 -8 0 -9 -4 -3 c-4 -3 -4 -4 -4 -8 0 -6 2 -8 8 -8 4
0 5 0 12 -8 8 -8 8 -8 10 -7 2 2 2 4 2 15 l0 13 -4 3 c-4 3 -4 4 -4 8 0 4 0 5
4 8 4 3 4 4 4 8 0 6 -2 8 -8 8 -4 0 -5 -1 -10 -6z"/><path d="M72 28 c-3 -4 -4 -4 -8 -4 -5 0 -8 -2 -8 -6 0 -2 0 -2 -6 -2 -8 0
-12 -3 -9 -6 5 -5 15 -2 15 4 0 2 0 2 10 2 9 0 11 0 12 2 3 2 3 10 0 12 -2 3
-2 3 -6 -2z"/><path d="M90 30 c-2 -2 -2 -2 0 -4 0 -1 2 -2 4 -2 1 0 2 -1 2 -2 0 -5 3 -6 12
-6 7 0 9 0 10 2 2 2 2 2 -4 8 l-6 6 -4 -4 c-4 -5 -8 -6 -8 -2 0 2 -3 6 -4 6 0
0 -2 -1 -2 -2z"/><path d="M98 6 c-4 -3 -3 -6 2 -6 4 0 4 0 4 2 0 2 -3 6 -4 6 0 0 -1 -1 -2 -2z"/></g>
  <g transform="scale(0.125 0.125) translate(0.000000,256.000000) scale(1.000000,-1.000000)" fill="#222a5c" stroke="none"><path d="M118 66 c-8 -8 -8 -12 0 -20 5 -6 6 -6 10 -6 7 0 8 2 8 12 l0 8 -6 6
c-3 3 -6 6 -6 6 0 0 -3 -3 -6 -6z"/><path d="M72 28 c-3 -4 -4 -4 -8 -4 -5 0 -8 -2 -8 -6 0 -2 0 -2 -6 -2 -8 0
-12 -3 -9 -6 5 -5 15 -2 15 4 0 2 0 2 10 2 9 0 11 0 12 2 3 2 3 10 0 12 -2 3
-2 3 -6 -2z"/><path d="M90 30 c-2 -2 -2 -2 0 -4 0 -1 2 -2 4 -2 1 0 2 -1 2 -2 0 -5 3 -6 12
-6 7 0 9 0 10 2 2 2 2 2 -4 8 l-6 6 -4 -4 c-4 -5 -8 -6 -8 -2 0 2 -3 6 -4 6 0
0 -2 -1 -2 -2z"/><path d="M98 6 c-4 -3 -3 -6 2 -6 4 0 4 0 4 2 0 2 -3 6 -4 6 0 0 -1 -1 -2 -2z"/></g>
  <g transform="scale(0.125 0.125) translate(0.000000,256.000000) scale(1.000000,-1.000000)" fill="#158968" stroke="none"><path d="M118 66 c-8 -8 -8 -12 0 -20 5 -6 6 -6 10 -6 7 0 8 2 8 12 l0 8 -6 6
c-3 3 -6 6 -6 6 0 0 -3 -3 -6 -6z"/><path d="M98 6 c-4 -3 -3 -6 2 -6 4 0 4 0 4 2 0 2 -3 6 -4 6 0 0 -1 -1 -2 -2z"/></g>
  <g transform="scale(0.125 0.125) translate(0.000000,256.000000) scale(1.000000,-1.000000)" fill="#ab1f65" stroke="none"><path d="M98 6 c-4 -3 -3 -6 2 -6 4 0 4 0 4 2 0 2 -3 6 -4 6 0 0 -1 -1 -2 -2z"/></g>
</svg>
