<?xml version="1.0" encoding="UTF-8"?>
<svg xmlns="http://www.w3.org/2000/svg" viewBox="0 0 32 32" width="32" height="32">
  <g transform="scale(0.125 0.125) translate(0.000000,256.000000) scale(1.000000,-1.000000)" fill="#000000" stroke="none"><path d="M146 110 c-1 -1 -2 -3 -2 -6 0 -6 -2 -8 -8 -8 -4 0 -5 0 -14 -10
l-10 -10 0 -12 0 -13 4 -3 c4 -3 4 -4 4 -8 0 -4 0 -5 -4 -8 -4 -3 -4 -4 -4 -8
0 -4 0 -5 6 -10 l6 -6 8 0 9 0 3 4 c4 5 8 6 8 2 0 -2 1 -4 4 -6 3 -2 4 -4 4
-6 0 -2 0 -2 4 -2 3 0 4 0 4 2 0 2 2 4 4 6 l4 4 -6 6 -6 6 -4 -4 c-2 -2 -4 -4
-6 -4 -2 0 -2 0 -2 10 l0 11 4 3 c4 3 4 4 4 8 0 4 0 4 10 14 10 10 10 10 14
10 4 0 5 0 8 4 l3 4 9 0 8 0 6 6 c6 5 6 6 6 10 0 8 -1 8 -20 8 l-17 0 -3 -4
c-3 -4 -4 -4 -8 -4 -6 0 -8 2 -8 8 0 7 -2 8 -12 8 -7 0 -9 0 -10 -2z"/><path d="M25 78 c-1 -2 -1 -2 1 -4 l2 -2 2 2 c2 2 2 2 1 4 -1 1 -3 2 -3 2 0 0
-2 -1 -3 -2z"/><path d="M78 18 l-6 -6 4 -4 c2 -2 4 -4 4 -6 0 -2 1 -2 4 -2 3 0 4 0 4 2 0 2
2 4 4 6 l4 4 -6 6 c-3 3 -6 6 -6 6 0 0 -3 -3 -6 -6z"/></g>
  <g transform="scale(0.125 0.125) translate(0.000000,256.000000) scale(1.000000,-1.000000)" fill="#566a89" stroke="none"><path d="M154 110 c-1 -1 -2 -3 -2 -6 0 -6 -10 -16 -16 -16 -4 0 -5 -1 -10 -6
l-6 -6 0 -12 0 -13 4 -3 c4 -3 4 -4 4 -8 0 -4 0 -5 -4 -8 -4 -3 -4 -4 -4 -8 0
-7 2 -8 12 -8 11 0 12 1 12 12 l0 9 4 3 c4 3 4 4 4 8 0 4 0 4 10 14 9 10 10
10 14 10 4 0 5 0 12 8 l8 8 8 0 c7 0 9 0 11 2 1 2 1 2 0 4 -2 2 -4 2 -15 2
l-13 0 -3 -4 c-3 -4 -4 -4 -8 -4 -4 0 -5 0 -10 6 -6 5 -6 6 -6 10 0 7 -3 10
-6 6z"/><path d="M25 78 c-1 -2 -1 -2 1 -4 l2 -2 2 2 c2 2 2 2 1 4 -1 1 -3 2 -3 2 0 0
-2 -1 -3 -2z"/><path d="M78 18 l-6 -6 4 -4 c2 -2 4 -4 4 -6 0 -2 1 -2 4 -2 3 0 4 0 4 2 0 2
2 4 4 6 l4 4 -6 6 c-3 3 -6 6 -6 6 0 0 -3 -3 -6 -6z"/><path d="M158 18 l-6 -6 4 -4 c2 -2 4 -4 4 -6 0 -2 1 -2 4 -2 3 0 4 0 4 2 0 2
2 4 4 6 l4 4 -6 6 c-3 3 -6 6 -6 6 0 0 -3 -3 -6 -6z"/></g>
  <g transform="scale(0.125 0.125) translate(0.000000,256.000000) scale(1.000000,-1.000000)" fill="#37446e" stroke="none"><path d="M154 110 c-3 -3 -3 -10 0 -12 3 -3 6 0 6 6 0 7 -3 10 -6 6z"/><path d="M182 90 c-7 -7 -8 -13 -4 -17 2 -1 2 -1 10 7 l8 8 8 0 c7 0 9 0 11 2
1 2 1 2 0 4 -2 2 -4 2 -15 2 l-12 0 -6 -6z"/><path d="M130 86 c-1 -1 -2 -3 -2 -4 0 -1 -1 -2 -2 -2 -5 0 -6 -3 -6 -16 l0
-13 4 -3 c4 -3 4 -4 4 -8 0 -4 0 -5 -4 -8 -4 -3 -4 -4 -4 -8 0 -7 2 -8 12 -8
11 0 12 1 12 12 l0 9 4 3 c4 3 4 4 4 8 0 6 -2 8 -8 8 -4 0 -5 1 -10 6 l-6 6 0
6 0 6 6 0 c6 0 7 0 10 -4 l4 -4 4 4 c4 5 8 6 8 2 0 -2 1 -4 2 -5 2 -1 2 -1 4
1 2 2 2 2 1 4 -1 1 -3 2 -5 2 -1 0 -2 1 -2 2 0 5 -3 6 -16 6 -11 0 -13 0 -14
-2z"/><path d="M25 78 c-1 -2 -1 -2 1 -4 l2 -2 2 2 c2 2 2 2 1 4 -1 1 -3 2 -3 2 0 0
-2 -1 -3 -2z"/><path d="M78 18 l-6 -6 4 -4 c2 -2 4 -4 4 -6 0 -2 1 -2 4 -2 3 0 4 0 4 2 0 2
2 4 4 6 l4 4 -6 6 c-3 3 -6 6 -6 6 0 0 -3 -3 -6 -6z"/><path d="M158 18 l-6 -6 4 -4 c2 -2 4 -4 4 -6 0 -2 1 -2 4 -2 3 0 4 0 4 2 0 2
2 4 4 6 l4 4 -6 6 c-3 3 -6 6 -6 6 0 0 -3 -3 -6 -6z"/></g>
  <g transform="scale(0.125 0.125) translate(0.000000,256.000000) scale(1.000000,-1.000000)" fill="#f6cd26" stroke="none"><path d="M154 110 c-3 -3 -3 -10 0 -12 3 -3 6 0 6 6 0 7 -3 10 -6 6z"/><path d="M182 90 c-7 -7 -8 -13 -4 -17 2 -1 2 -1 10 7 l8 8 8 0 c7 0 9 0 11 2
1 2 1 2 0 4 -2 2 -4 2 -15 2 l-12 0 -6 -6z"/><path d="M138 86 c-2 -2 -2 -2 4 -8 l6 -6 4 4 c4 5 8 6 8 2 0 -2 1 -4 2 -5 2
-1 2 -1 4 1 2 2 2 2 1 4 -1 1 -3 2 -5 2 -1 0 -2 1 -2 2 0 5 -3 6 -12 6 -7 0
-9 0 -10 -2z"/><path d="M25 78 c-1 -2 -1 -2 1 -4 l2 -2 2 2 c2 2 2 2 1 4 -1 1 -3 2 -3 2 0 0
-2 -1 -3 -2z"/><path d="M122 62 c-1 -1 -2 -3 -2 -6 0 -4 0 -5 4 -8 4 -3 4 -4 4 -8 0 -3 1 -5
2 -6 2 -2 2 -2 8 4 8 8 8 12 0 20 -5 6 -6 6 -10 6 -3 0 -5 -1 -6 -2z"/><path d="M78 18 l-6 -6 4 -4 c2 -2 4 -4 4 -6 0 -2 1 -2 4 -2 3 0 4 0 4 2 0 2
2 4 4 6 l4 4 -6 6 c-3 3 -6 6 -6 6 0 0 -3 -3 -6 -6z"/><path d="M158 18 l-6 -6 4 -4 c2 -2 4 -4 4 -6 0 -2 1 -2 4 -2 3 0 4 0 4 2 0 2
2 4 4 6 l4 4 -6 6 c-3 3 -6 6 -6 6 0 0 -3 -3 -6 -6z"/></g>
  <g transform="scale(0.125 0.125) translate(0.000000,256.000000) scale(1.000000,-1.000000)" fill="#222a5c" stroke="none"><path d="M154 110 c-3 -3 -3 -10 0 -12 3 -3 6 0 6 6 0 7 -3 10 -6 6z"/><path d="M182 90 c-6 -6 -6 -6 -4 -8 1 -1 3 -2 6 -2 4 0 5 0 8 4 l3 4 9 0 c7
0 9 0 11 2 1 2 1 2 0 4 -2 2 -4 2 -15 2 l-12 0 -6 -6z"/><path d="M138 86 c-2 -2 -2 -2 4 -8 l6 -6 4 4 c4 5 8 6 8 2 0 -2 1 -4 2 -5 2
-1 2 -1 4 1 2 2 2 2 1 4 -1 1 -3 2 -5 2 -1 0 -2 1 -2 2 0 5 -3 6 -12 6 -7 0
-9 0 -10 -2z"/><path d="M122 62 c-1 -1 -2 -3 -2 -6 0 -4 0 -5 4 -8 4 -3 4 -4 4 -8 0 -3 1 -5
2 -6 2 -2 2 -2 8 4 8 8 8 12 0 20 -5 6 -6 6 -10 6 -3 0 -5 -1 -6 -2z"/></g>
  <g transform="scale(0.125 0.125) translate(0.000000,256.000000) scale(1.000000,-1.000000)" fill="#158968" stroke="none"><path d="M154 110 c-3 -3 -3 -10 0 -12 3 -3 6 0 6 6 0 7 -3 10 -6 6z"/><path d="M122 62 c-1 -1 -2 -3 -2 -6 0 -4 0 -5 4 -8 4 -3 4 -4 4 -8 0 -3 1 -5
2 -6 2 -2 2 -2 8 4 8 8 8 12 0 20 -5 6 -6 6 -10 6 -3 0 -5 -1 -6 -2z"/></g>
  <g transform="scale(0.125 0.125) translate(0.000000,256.000000) scale(1.000000,-1.000000)" fill="#ab1f65" stroke="none"><path d="M154 110 c-3 -3 -3 -10 0 -12 3 -3 6 0 6 6 0 7 -3 10 -6 6z"/></g>
</svg>
