<?xml version="1.0" encoding="UTF-8"?>
<svg xmlns="http://www.w3.org/2000/svg" viewBox="0 0 32 32" width="32" height="32">
  <g transform="scale(0.125 0.125) translate(0.000000,256.000000) scale(1.000000,-1.000000)" fill="#2f2f2e" stroke="none"><path d="M82 134 c-2 -1 -2 -4 -2 -18 l0 -16 -8 -8 c-8 -7 -8 -8 -8 -12 0 -4
1 -5 6 -10 l6 -6 4 4 c3 4 4 4 8 4 4 0 5 -1 10 -6 l6 -6 -4 -4 -4 -3 0 -9 c0
-10 1 -12 8 -12 4 0 5 0 12 8 8 8 8 8 10 7 1 -2 2 -4 2 -7 0 -6 2 -8 8 -8 4 0
5 0 12 8 8 8 8 8 10 7 1 -2 2 -4 2 -7 0 -4 0 -5 6 -10 l6 -6 6 6 c5 5 6 6 6
10 0 4 0 5 -8 12 -8 7 -8 8 -8 12 0 4 0 4 -16 20 l-16 16 0 16 c0 19 0 20 -8
20 -4 0 -5 0 -8 -4 l-3 -4 -9 0 -9 0 -3 4 c-3 4 -4 4 -8 4 -3 0 -5 -1 -6 -2z"/></g>
  <g transform="scale(0.125 0.125) translate(0.000000,256.000000) scale(1.000000,-1.000000)" fill="#b5b5b5" stroke="none"><path d="M90 126 c-1 -1 -2 -3 -2 -6 0 -4 0 -5 4 -8 l5 -4 -5 -4 c-4 -3 -4 -4
-4 -10 l0 -6 -6 0 c-8 0 -10 -2 -10 -8 0 -3 1 -5 2 -6 2 -2 2 -2 8 4 3 3 6 7
6 8 0 3 12 3 15 0 1 -2 1 -2 -3 -6 l-4 -4 6 -6 c3 -3 7 -6 8 -6 4 0 3 -4 -2
-8 -4 -3 -4 -4 -4 -8 0 -3 1 -5 2 -6 2 -2 2 -2 8 4 l6 6 0 6 0 6 4 0 c4 0 4 0
4 -2 0 -2 1 -4 4 -6 4 -3 4 -4 4 -8 0 -6 3 -9 6 -7 1 2 2 4 2 7 0 6 2 8 10 8
6 0 6 0 6 -2 0 -3 3 -6 6 -6 2 0 2 0 2 -6 0 -8 3 -12 6 -9 5 5 2 15 -4 15 -1
0 -2 1 -2 2 0 3 -3 6 -6 6 -2 0 -2 1 -2 6 l0 6 -10 10 -10 10 -6 0 -6 0 0 18
c0 18 0 19 -2 21 -2 1 -2 1 -6 -3 l-3 -4 -9 0 -9 0 -3 4 c-4 5 -4 5 -6 2z m29
-16 c1 -2 1 -2 -1 -4 l-2 -2 -2 2 c-2 2 -2 2 -1 4 1 1 3 2 3 2 0 0 2 -1 3 -2z
m9 -24 c0 -3 -3 -6 -6 -6 -2 0 -2 0 -2 -8 l0 -8 -4 0 -4 0 0 6 c0 7 2 10 6 10
1 0 2 1 2 2 0 3 3 6 6 6 1 0 2 -1 2 -2z m7 -16 c1 -2 1 -2 0 -4 -3 -3 -7 -3
-7 0 0 2 3 6 4 6 0 0 2 -1 3 -2z"/></g>
  <g transform="scale(0.125 0.125) translate(0.000000,256.000000) scale(1.000000,-1.000000)" fill="#e0e0e0" stroke="none"><path d="M90 118 c-2 -2 -2 -2 0 -4 1 -2 3 -2 14 -2 11 0 13 0 15 2 1 2 1 2 0
4 -2 2 -4 2 -15 2 -11 0 -13 0 -14 -2z"/><path d="M90 102 c-2 -2 -2 -2 0 -4 1 -2 3 -2 14 -2 11 0 13 0 15 2 1 2 1 2 0
4 -2 2 -4 2 -15 2 -11 0 -13 0 -14 -2z"/><path d="M74 86 c-3 -3 -3 -10 0 -12 3 -3 6 0 6 6 0 7 -3 10 -6 6z"/><path d="M98 78 c-2 -2 -2 -2 4 -8 3 -3 7 -6 8 -6 1 0 2 -1 2 -2 0 -2 1 -4 2
-4 2 -2 2 -2 4 0 1 0 2 2 2 4 0 2 0 2 4 2 4 0 4 0 4 -2 0 -2 1 -4 4 -6 4 -3 4
-4 4 -8 0 -6 3 -9 6 -7 1 2 2 4 2 7 0 4 0 5 4 8 l4 4 -6 6 -6 6 -4 -4 c-6 -6
-8 -6 -8 2 0 8 -3 12 -6 9 -2 -2 -2 -4 -2 -9 l0 -6 -4 0 -4 0 0 6 c0 8 -2 10
-8 10 -3 0 -5 -1 -6 -2z"/></g>
</svg>
