<?xml version="1.0" encoding="UTF-8"?>
<svg xmlns="http://www.w3.org/2000/svg" viewBox="0 0 32 32" width="32" height="32">
  <g transform="scale(0.125 0.125) translate(0.000000,256.000000) scale(1.000000,-1.000000)" fill="#2f2f2e" stroke="none"><path d="M162 142 c-2 -1 -2 -4 -2 -14 0 -15 -1 -16 -8 -16 -4 0 -5 0 -8 -4
-4 -4 -4 -4 -6 -3 -1 2 -2 4 -2 7 0 6 -2 8 -8 8 -4 0 -5 0 -8 -4 -3 -4 -4 -4
-8 -4 -4 0 -5 0 -8 4 -3 4 -4 4 -8 4 -6 0 -8 -2 -8 -8 0 -4 0 -5 -4 -8 l-4 -3
0 -17 0 -17 -4 -3 -4 -3 0 -9 c0 -10 1 -12 8 -12 4 0 5 0 8 4 l3 4 9 0 c10 0
12 -1 12 -8 0 -6 2 -8 8 -8 6 0 16 10 16 16 0 6 10 16 16 16 4 0 5 0 8 -4 3
-4 4 -4 8 -4 8 0 8 0 8 24 l0 21 4 3 4 3 0 13 0 12 -6 6 c-5 6 -6 6 -10 6 -3
0 -5 -1 -6 -2z"/></g>
  <g transform="scale(0.125 0.125) translate(0.000000,256.000000) scale(1.000000,-1.000000)" fill="#e0e0e0" stroke="none"><path d="M170 134 c-2 -1 -2 -4 -2 -10 l0 -8 -6 -6 c-5 -5 -6 -6 -10 -6 -4 0
-5 -1 -10 -6 l-6 -6 0 -8 c0 -7 0 -9 -2 -10 -2 -2 -2 -2 -4 -1 -2 2 -2 4 -2
19 0 16 0 17 -2 19 -2 1 -2 1 -6 -3 l-3 -4 -13 0 c-12 0 -13 0 -15 -2 -1 -2
-1 -2 3 -6 l5 -4 -5 -4 c-6 -5 -6 -11 0 -16 4 -4 4 -4 3 -6 -2 -1 -4 -2 -7 -2
-6 0 -8 -2 -8 -8 0 -3 1 -5 2 -7 2 -1 2 -1 6 3 l4 4 12 0 c15 0 16 -1 16 -8 0
-6 3 -9 6 -6 1 1 2 3 2 6 0 4 0 4 10 14 9 10 10 10 14 10 4 0 5 0 8 -4 4 -4 4
-4 6 -3 2 2 2 3 2 19 l0 17 4 3 4 3 0 13 c0 11 0 13 -2 14 -2 2 -2 2 -4 0z
m-59 -48 c1 -2 1 -2 -1 -4 l-2 -2 -2 2 c-2 2 -2 2 -1 4 1 1 3 2 3 2 0 0 2 -1
3 -2z"/></g>
  <g transform="scale(0.125 0.125) translate(0.000000,256.000000) scale(1.000000,-1.000000)" fill="#b5b5b5" stroke="none"><path d="M122 110 c-2 -1 -2 -4 -2 -14 0 -15 -1 -16 -8 -16 -4 0 -5 0 -8 4 -3
4 -4 4 -8 4 -6 0 -8 -2 -8 -8 0 -8 1 -8 20 -8 21 0 20 -2 20 20 0 15 0 17 -2
18 -2 2 -2 2 -4 0z"/><path d="M142 98 c-7 -7 -8 -13 -4 -16 2 -2 2 -2 8 4 6 5 6 6 6 10 0 3 -1 5
-2 6 -2 2 -2 3 -8 -4z"/><path d="M81 54 c-1 -2 -1 -2 1 -4 l2 -2 2 2 c2 2 2 2 1 4 -1 1 -3 2 -3 2 0 0
-2 -1 -3 -2z"/></g>
</svg>
