<?xml version="1.0" encoding="UTF-8"?>
<svg xmlns="http://www.w3.org/2000/svg" viewBox="0 0 32 32" width="32" height="32">
  <g transform="scale(0.125 0.125) translate(0.000000,256.000000) scale(1.000000,-1.000000)" fill="#2f2f2e" stroke="none"><path d="M154 86 c-2 -1 -2 -4 -2 -14 0 -15 -1 -16 -8 -16 -7 0 -8 2 -8 12 0
10 -1 12 -8 12 -4 0 -5 0 -8 -4 -3 -4 -4 -4 -8 -4 -4 0 -5 0 -8 4 -3 4 -4 4
-8 4 -6 0 -8 -2 -8 -8 0 -4 0 -5 -4 -8 l-4 -3 0 -13 0 -13 4 -3 c4 -3 4 -4 4
-8 0 -4 0 -5 -4 -8 -4 -3 -4 -3 -4 -10 l0 -6 12 0 c12 0 12 0 12 2 0 4 3 6 8
6 5 0 8 -2 8 -6 0 -2 0 -2 8 -2 l8 0 0 6 c0 10 1 10 16 10 l13 0 3 -4 c3 -4 4
-4 8 -4 7 0 8 2 8 12 l0 9 -4 3 -4 3 0 21 0 20 -6 6 c-5 6 -6 6 -10 6 -3 0 -5
-1 -6 -2z"/></g>
  <g transform="scale(0.125 0.125) translate(0.000000,256.000000) scale(1.000000,-1.000000)" fill="#e0e0e0" stroke="none"><path d="M162 78 c-2 -1 -2 -4 -2 -14 0 -16 0 -16 -12 -16 l-8 0 -4 -4 c-4 -4
-4 -4 -6 -3 -2 2 -2 3 -2 15 0 12 0 13 -2 15 -2 1 -2 1 -6 -3 l-3 -4 -13 0
c-15 0 -16 -1 -16 -8 0 -4 0 -5 4 -8 l5 -4 -5 -4 -4 -4 4 -4 c4 -3 4 -4 4 -10
0 -6 0 -6 -2 -6 -2 0 -4 -1 -5 -2 -1 -2 -1 -2 1 -4 2 -2 2 -2 4 -1 1 1 2 3 2
5 0 2 0 2 12 2 12 0 12 0 12 -2 0 -2 1 -4 2 -5 2 -1 2 -1 4 0 1 1 2 3 2 5 0 1
1 2 2 2 2 0 4 1 6 4 l3 4 13 0 13 0 3 -4 c4 -4 4 -4 6 -3 1 2 2 4 2 7 0 4 0 5
-4 8 l-4 3 0 21 c0 19 0 21 -2 22 -2 2 -2 2 -4 0z m-43 -32 c1 -2 1 -2 -1 -4
l-2 -2 -2 2 c-2 2 -2 2 -1 4 1 1 3 2 3 2 0 0 2 -1 3 -2z m7 -24 c1 -1 2 -2 2
-4 0 -2 0 -2 -4 -2 -5 0 -6 3 -2 6 2 2 2 2 4 0z"/></g>
  <g transform="scale(0.125 0.125) translate(0.000000,256.000000) scale(1.000000,-1.000000)" fill="#b5b5b5" stroke="none"><path d="M122 70 c-2 -1 -2 -4 -2 -14 0 -12 0 -13 -2 -15 -2 -1 -2 -1 -6 3 -3
4 -4 4 -8 4 -4 0 -5 -1 -10 -6 -6 -6 -6 -6 -4 -8 2 -3 34 -3 36 0 3 3 3 34 0
36 -2 2 -2 2 -4 0z"/><path d="M170 30 c-3 -3 -3 -10 0 -12 3 -3 6 0 6 6 0 7 -3 10 -6 6z"/><path d="M98 22 c-3 -3 0 -6 6 -6 6 0 9 3 7 6 -2 1 -4 2 -7 2 -3 0 -5 -1 -6
-2z"/></g>
</svg>
