<?xml version="1.0" encoding="UTF-8"?>
<svg xmlns="http://www.w3.org/2000/svg" viewBox="0 0 64 64" shape-rendering="crispEdges">
<!--
  Ducky scratch pose: based on Crouch/crouch.svg but with a raised right
  foot (orange) flicking up against the body, plus 3 motion dashes off
  to the right. Reads as "duck preens / scratches with the foot".
  The body stays in crouch silhouette so the read is "duck doing something
  active to itself" rather than "duck walking".
-->
<rect x="21" y="39" width="22" height="1" fill="#001714"/>
<rect x="18" y="40" width="3" height="1" fill="#001714"/>
<rect x="21" y="40" width="4" height="1" fill="#236b61"/>
<rect x="25" y="40" width="18" height="1" fill="#55948b"/>
<rect x="43" y="40" width="2" height="1" fill="#001714"/>
<rect x="17" y="41" width="1" height="1" fill="#001714"/>
<rect x="18" y="41" width="3" height="1" fill="#054139"/>
<rect x="21" y="41" width="23" height="1" fill="#236b61"/>
<rect x="44" y="41" width="1" height="1" fill="#55948b"/>
<rect x="45" y="41" width="2" height="1" fill="#001714"/>
<rect x="15" y="42" width="2" height="1" fill="#001714"/>
<rect x="17" y="42" width="3" height="1" fill="#054139"/>
<rect x="20" y="42" width="3" height="1" fill="#236b61"/>
<rect x="23" y="42" width="2" height="1" fill="#001714"/>
<rect x="25" y="42" width="1" height="1" fill="#afd5d0"/>
<rect x="26" y="42" width="14" height="1" fill="#236b61"/>
<rect x="40" y="42" width="2" height="1" fill="#001714"/>
<rect x="42" y="42" width="1" height="1" fill="#afd5d0"/>
<rect x="43" y="42" width="1" height="1" fill="#236b61"/>
<rect x="44" y="42" width="1" height="1" fill="#55948b"/>
<rect x="45" y="42" width="1" height="1" fill="#001714"/>
<rect x="46" y="42" width="1" height="1" fill="#054139"/>
<rect x="47" y="42" width="1" height="1" fill="#001714"/>
<rect x="14" y="43" width="1" height="1" fill="#001714"/>
<rect x="15" y="43" width="1" height="1" fill="#054139"/>
<rect x="16" y="43" width="2" height="1" fill="#236b61"/>
<rect x="18" y="43" width="2" height="1" fill="#054139"/>
<rect x="20" y="43" width="7" height="1" fill="#236b61"/>
<rect x="27" y="43" width="21" height="1" fill="#251700"/>
<rect x="14" y="44" width="1" height="1" fill="#001714"/>
<rect x="15" y="44" width="3" height="1" fill="#236b61"/>
<rect x="18" y="44" width="2" height="1" fill="#054139"/>
<rect x="20" y="44" width="6" height="1" fill="#236b61"/>
<rect x="26" y="44" width="1" height="1" fill="#251700"/>
<rect x="27" y="44" width="1" height="1" fill="#674309"/>
<rect x="28" y="44" width="18" height="1" fill="#aa7f38"/>
<rect x="46" y="44" width="1" height="1" fill="#ecc687"/>
<rect x="47" y="44" width="1" height="1" fill="#251700"/>
<rect x="14" y="45" width="1" height="1" fill="#001714"/>
<rect x="15" y="45" width="1" height="1" fill="#55948b"/>
<rect x="16" y="45" width="2" height="1" fill="#236b61"/>
<rect x="18" y="45" width="1" height="1" fill="#001714"/>
<rect x="19" y="45" width="2" height="1" fill="#054139"/>
<rect x="21" y="45" width="4" height="1" fill="#236b61"/>
<rect x="25" y="45" width="1" height="1" fill="#251700"/>
<rect x="26" y="45" width="16" height="1" fill="#674309"/>
<rect x="42" y="45" width="3" height="1" fill="#aa7f38"/>
<rect x="45" y="45" width="2" height="1" fill="#251700"/>
<rect x="15" y="46" width="4" height="1" fill="#001714"/>
<rect x="19" y="46" width="4" height="1" fill="#054139"/>
<rect x="23" y="46" width="2" height="1" fill="#236b61"/>
<rect x="25" y="46" width="1" height="1" fill="#054139"/>
<rect x="26" y="46" width="20" height="1" fill="#251700"/>
<!-- LEFT foot still planted on baseline -->
<rect x="15" y="47" width="1" height="1" fill="#251700"/>
<rect x="16" y="47" width="1" height="1" fill="#ecc687"/>
<rect x="17" y="47" width="3" height="1" fill="#aa7f38"/>
<rect x="20" y="47" width="1" height="1" fill="#674309"/>
<rect x="21" y="47" width="1" height="1" fill="#251700"/>
<!-- Body underside (right foot lifted, so trim that section) -->
<rect x="22" y="47" width="17" height="1" fill="#054139"/>
<!-- RIGHT foot LIFTED UP against the body (was at x=40..46 y=47 in crouch). -->
<rect x="44" y="44" width="3" height="1" fill="#aa7f38"/>
<rect x="44" y="43" width="1" height="1" fill="#251700"/>
<rect x="47" y="43" width="1" height="1" fill="#251700"/>
<rect x="44" y="45" width="3" height="1" fill="#ecc687"/>
<!-- Motion dashes flicking off the raised foot -->
<rect x="49" y="42" width="1" height="1" fill="#251700"/>
<rect x="51" y="43" width="1" height="1" fill="#251700"/>
<rect x="49" y="44" width="1" height="1" fill="#251700"/>
</svg>
