<?xml version="1.0" encoding="UTF-8"?>
<svg xmlns="http://www.w3.org/2000/svg" viewBox="0 0 48 48" width="48" height="48">
  <g transform="scale(0.062500 0.062500) translate(0.000000,768.000000) scale(1.000000,-1.000000)" fill="#d4a373" stroke="none"><path d="M563.65 396.17 C561.73 394.04 561.47 388.93 563.20 387.20 C565.02 385.38 570.47 385.75 572.35 387.83 C573.26 388.83 574.00 390.79 574.00 392.17 C574.00 397.30 567.09 399.97 563.65 396.17 Z M218.75 373.98 C217.62 373.28 217.00 371.66 217.00 369.42 C217.00 361.69 212.16 355.69 203.29 352.44 C192.02 348.32 191.16 342.97 200.98 338.01 C207.44 334.75 209.00 332.80 209.00 328.00 C209.00 320.17 204.28 317.53 192.03 318.50 C183.82 319.15 183.17 319.05 180.58 316.82 C176.14 313.01 174.97 302.11 178.11 293.93 C178.69 292.42 181.25 290.12 184.27 288.40 C188.06 286.23 190.23 284.06 192.40 280.27 C196.46 273.15 198.44 272.50 216.00 272.50 C233.56 272.50 235.54 273.15 239.60 280.27 C241.77 284.06 243.94 286.23 247.73 288.40 C250.72 290.11 253.37 292.47 254.00 294.01 C254.61 295.47 255.46 301.13 255.88 306.59 C256.92 319.71 259.70 324.91 266.77 326.93 C268.91 327.55 270.62 327.39 272.52 326.40 C274.01 325.63 275.58 325.00 276.02 325.00 C278.13 325.00 279.00 332.62 279.00 351.15 C279.00 370.06 278.90 371.10 276.87 373.13 C275.05 374.95 273.97 375.17 269.27 374.69 C266.25 374.38 263.57 373.90 263.29 373.63 C263.02 373.36 263.53 370.23 264.42 366.69 C265.77 361.28 265.83 359.63 264.77 356.40 C263.16 351.52 260.23 350.03 252.22 350.01 C245.18 350.00 239.81 351.85 235.82 355.67 C231.55 359.76 230.53 363.23 232.01 368.54 C232.71 371.03 232.98 373.35 232.62 373.72 C231.45 374.88 220.56 375.09 218.75 373.98 Z M235.62 350.13 C238.85 349.10 243.07 347.95 245.00 347.57 C251.08 346.37 254.14 344.76 255.08 342.28 C256.28 339.12 256.21 330.54 254.95 325.50 C254.39 323.30 253.55 316.04 253.07 309.37 C252.59 302.70 251.69 296.28 251.06 295.12 C250.44 293.95 247.73 291.88 245.04 290.52 C241.20 288.58 239.54 286.90 237.32 282.77 C233.72 276.05 231.12 275.11 216.00 275.11 C200.88 275.11 198.28 276.05 194.68 282.77 C192.46 286.90 190.80 288.58 186.96 290.52 C184.27 291.88 181.66 293.79 181.15 294.75 C178.28 300.22 179.16 312.18 182.63 314.72 C183.79 315.57 187.60 315.93 194.22 315.83 C202.69 315.69 204.46 315.95 206.79 317.68 C210.78 320.65 212.14 323.85 211.69 329.28 C211.22 334.82 208.87 337.85 202.95 340.52 C200.02 341.84 199.00 342.89 199.00 344.59 C199.00 347.46 199.32 347.65 208.20 349.94 C217.84 352.43 228.16 352.50 235.62 350.13 Z M479.00 328.44 C476.22 327.39 460.84 327.10 404.25 327.06 C334.37 327.00 332.96 326.96 331.00 325.00 C328.63 322.63 328.41 318.29 330.49 315.32 C331.31 314.14 333.98 312.22 336.43 311.03 C343.41 307.65 345.00 303.37 345.00 287.93 C345.00 268.23 342.91 265.85 324.03 263.96 C305.96 262.15 300.95 263.73 296.26 272.71 C294.11 276.83 292.54 278.46 289.15 280.06 C282.21 283.32 281.55 282.76 281.21 273.38 L280.92 265.27 L284.40 262.22 C286.31 260.54 288.52 258.79 289.30 258.33 C291.14 257.26 293.56 252.45 294.50 248.00 C294.90 246.07 295.92 243.31 296.77 241.85 L298.31 239.21 L302.30 242.10 C304.50 243.70 307.40 245.00 308.75 245.00 C311.99 245.00 316.02 242.02 319.41 237.13 C324.25 230.14 325.78 229.83 353.37 230.19 L377.66 230.50 L381.33 233.30 C387.18 237.76 391.23 239.00 400.00 239.00 C408.60 239.00 412.83 237.75 418.25 233.63 C420.04 232.26 423.75 230.60 426.50 229.93 C435.36 227.76 439.14 225.00 440.38 219.76 C441.06 216.91 450.02 209.00 452.57 209.00 C454.05 209.00 454.54 210.60 455.42 218.27 C456.48 227.52 461.43 234.27 470.57 238.96 C478.00 242.77 480.22 245.56 482.09 253.42 C482.75 256.21 484.13 260.07 485.15 261.99 C486.83 265.15 487.00 268.18 487.00 295.17 C487.00 312.05 486.58 325.98 486.02 327.43 C484.95 330.27 484.14 330.38 479.00 328.44 Z M471.43 252.67 C473.88 250.89 472.73 247.53 469.22 246.16 C460.46 242.75 455.19 242.00 440.07 242.02 C427.79 242.04 422.93 242.46 417.07 244.02 C407.08 246.68 392.92 246.68 382.93 244.02 C376.57 242.33 372.18 242.04 352.44 242.02 C330.60 242.00 329.26 242.11 327.19 244.04 C324.52 246.53 324.27 251.48 326.75 252.92 C327.89 253.59 353.00 253.95 399.06 253.97 C456.13 253.99 469.96 253.75 471.43 252.67 Z M297.40 220.46 C296.56 217.10 297.63 212.07 299.67 209.82 C303.07 206.05 310.00 208.71 310.00 213.78 C310.00 215.99 301.92 223.00 299.38 223.00 C298.64 223.00 297.75 221.86 297.40 220.46 Z M447.25 187.95 C442.28 184.30 441.27 181.77 443.44 178.45 C445.39 175.48 449.92 175.15 452.33 177.82 C455.49 181.31 455.75 191.00 452.68 191.00 C451.97 191.00 449.53 189.63 447.25 187.95 Z"/></g>
  <g transform="scale(0.062500 0.062500) translate(0.000000,768.000000) scale(1.000000,-1.000000)" fill="#a47a52" stroke="none"><path d="M566.25 400.31 C567.21 400.06 568.79 400.06 569.75 400.31 C570.71 400.56 569.92 400.77 568.00 400.77 C566.08 400.77 565.29 400.56 566.25 400.31 Z M561.40 397.75 L559.50 395.50 L561.75 397.40 C563.86 399.20 564.46 400.00 563.65 400.00 C563.47 400.00 562.45 398.99 561.40 397.75 Z M573.50 398.00 C574.50 396.90 575.53 396.00 575.81 396.00 C576.08 396.00 575.50 396.90 574.50 398.00 C573.50 399.10 572.47 400.00 572.19 400.00 C571.92 400.00 572.50 399.10 573.50 398.00 Z M557.97 391.40 C556.98 388.42 555.85 387.38 551.50 385.46 C546.91 383.43 542.00 378.76 542.00 376.42 C542.00 376.00 541.28 374.86 540.40 373.89 C538.92 372.26 538.96 371.38 540.88 363.04 C542.99 353.88 544.96 349.61 547.52 348.63 C549.46 347.89 557.76 352.70 559.74 355.72 C560.83 357.39 561.49 361.06 561.73 366.86 C562.22 378.43 562.57 379.70 565.76 381.43 L568.50 382.92 L565.32 382.96 C560.59 383.02 558.68 385.46 559.27 390.68 C559.54 393.06 559.62 395.00 559.45 395.00 C559.29 395.00 558.62 393.38 557.97 391.40 Z M576.23 392.00 C576.23 390.07 576.44 389.29 576.69 390.25 C576.94 391.21 576.94 392.79 576.69 393.75 C576.44 394.71 576.23 393.93 576.23 392.00 Z M218.55 388.08 C218.17 387.47 216.10 386.07 213.95 384.97 C208.13 382.00 206.87 379.36 206.04 368.33 C205.34 359.14 205.15 358.52 202.14 355.83 C198.38 352.47 198.74 352.32 204.03 355.01 C209.40 357.76 210.70 360.25 211.27 368.94 C212.00 380.01 212.75 380.44 229.91 379.63 C237.28 379.28 251.26 379.00 260.97 379.00 C274.62 379.00 279.06 378.68 280.56 377.58 C282.41 376.23 282.52 374.28 283.00 334.83 C283.57 287.67 283.22 289.57 292.37 284.35 C296.07 282.23 298.25 280.04 300.41 276.25 C304.45 269.18 307.25 268.00 320.00 268.00 C337.17 268.00 340.41 271.17 340.41 288.00 C340.41 300.10 338.86 303.67 331.95 307.43 C325.81 310.77 325.00 312.26 325.00 320.24 C325.00 331.56 317.01 330.43 400.67 331.00 C467.68 331.46 473.78 331.64 477.04 333.27 C482.41 335.94 484.31 340.03 484.81 349.98 C485.05 354.67 485.65 359.29 486.16 360.25 C487.21 362.28 489.54 362.55 490.64 360.78 C491.52 359.35 492.30 328.03 492.42 289.00 L492.50 261.50 L488.32 254.50 C481.32 242.80 479.24 240.18 474.78 237.41 C468.73 233.66 466.12 231.09 463.68 226.50 C461.73 222.85 461.49 220.36 460.90 198.00 C460.06 166.19 459.61 165.06 448.00 165.06 C438.23 165.06 436.00 167.77 436.00 179.63 C436.00 186.83 436.81 188.99 441.29 193.72 C445.59 198.26 445.34 201.68 440.28 207.42 C437.94 210.08 435.78 213.82 435.16 216.30 C433.70 222.07 430.61 224.68 422.61 226.90 C418.91 227.93 414.89 229.66 413.69 230.76 C409.88 234.23 407.33 235.00 399.71 235.00 C393.38 235.00 391.80 234.63 388.90 232.51 C381.41 227.01 381.31 227.00 349.04 227.00 L319.03 227.00 L316.59 230.86 C313.94 235.06 310.72 236.57 308.96 234.45 C306.94 232.02 308.31 228.69 312.16 226.66 C316.47 224.40 317.47 221.03 316.50 212.16 C314.99 198.47 313.77 196.98 304.06 197.03 C293.18 197.08 292.08 199.08 291.35 220.00 C290.69 239.00 288.87 245.55 282.07 253.32 C279.33 256.45 276.62 260.70 276.05 262.76 C275.47 264.85 275.00 276.87 274.99 290.00 C274.97 315.07 274.70 316.67 269.93 320.22 C268.08 321.58 266.57 321.93 264.58 321.43 C261.60 320.68 258.00 315.79 258.02 312.50 C258.03 310.76 258.19 310.82 259.29 313.00 C260.27 314.94 261.33 315.50 264.00 315.50 C269.76 315.50 269.96 314.32 270.04 280.00 C270.12 246.14 270.47 243.76 275.84 240.52 C277.68 239.41 280.60 237.30 282.34 235.83 L285.50 233.17 L286.00 215.66 C286.45 199.90 286.71 197.86 288.59 195.32 C291.30 191.67 295.92 190.11 304.00 190.11 C317.72 190.11 320.87 193.15 321.95 207.44 C323.07 222.25 321.47 221.50 352.00 221.50 C382.53 221.50 380.93 222.25 382.05 207.44 C383.13 193.15 386.28 190.11 400.00 190.11 C413.69 190.11 416.87 193.17 417.94 207.33 C418.75 218.12 419.85 220.25 424.39 219.80 C429.51 219.30 429.96 217.09 430.04 192.00 C430.09 177.31 430.53 168.32 431.31 166.09 C433.21 160.65 436.72 158.74 445.71 158.25 C455.00 157.75 460.42 159.30 463.40 163.32 C465.37 165.96 465.53 167.74 466.00 191.65 L466.50 217.17 L469.66 219.83 C471.40 221.30 474.29 223.40 476.08 224.50 C477.87 225.60 480.21 228.19 481.27 230.26 C483.22 234.04 485.55 236.24 492.00 240.34 C497.56 243.88 497.88 246.02 497.94 279.85 C497.99 305.29 498.25 310.73 499.57 313.51 C500.83 316.16 500.93 317.59 500.08 320.66 C498.67 325.72 498.70 345.92 500.12 351.56 C500.99 355.00 500.96 356.35 499.99 357.51 C499.30 358.34 497.96 360.47 497.02 362.23 C494.49 366.94 491.07 369.03 484.84 369.68 C478.14 370.37 478.23 370.56 477.32 354.67 C476.85 346.52 476.26 343.31 474.93 341.67 L473.18 339.50 L399.79 339.00 C331.87 338.54 326.21 338.37 323.72 336.74 C318.59 333.37 317.52 330.49 317.52 320.00 C317.52 309.20 318.78 306.08 324.29 303.15 C326.01 302.24 328.67 300.30 330.21 298.83 C332.82 296.33 333.00 295.62 333.00 288.03 C333.00 280.74 332.75 279.66 330.55 277.45 C328.34 275.25 327.26 275.00 319.97 275.00 C312.38 275.00 311.67 275.18 309.17 277.79 C307.70 279.33 305.73 282.04 304.78 283.82 C303.83 285.60 301.63 287.83 299.89 288.78 C298.15 289.73 295.55 291.47 294.11 292.66 L291.50 294.82 L291.00 336.21 C290.55 373.54 290.33 377.86 288.74 380.28 C284.77 386.32 284.15 386.44 253.05 387.13 C237.35 387.48 223.32 388.09 221.87 388.48 C220.27 388.91 218.96 388.75 218.55 388.08 Z M573.40 385.75 L571.50 383.50 L573.75 385.40 C574.99 386.45 576.00 387.47 576.00 387.65 C576.00 388.46 575.20 387.86 573.40 385.75 Z M556.11 376.00 C558.18 368.50 556.34 358.88 552.71 358.18 C548.68 357.41 546.04 373.90 549.62 377.48 C551.92 379.78 555.28 379.01 556.11 376.00 Z M241.31 371.05 C234.87 367.12 234.09 360.71 239.40 355.40 C242.51 352.29 243.31 352.00 248.77 352.00 C257.04 352.00 260.00 354.33 260.00 360.85 C260.00 366.18 258.23 369.31 253.99 371.51 C250.03 373.55 245.13 373.37 241.31 371.05 Z M251.17 364.75 C253.80 362.63 254.10 360.10 251.98 357.98 C248.38 354.38 243.00 356.18 243.00 360.99 C243.00 365.31 247.76 367.50 251.17 364.75 Z M193.40 349.75 L191.50 347.50 L193.75 349.40 C195.86 351.20 196.46 352.00 195.65 352.00 C195.47 352.00 194.45 350.99 193.40 349.75 Z M190.67 344.11 C190.30 342.26 190.00 339.27 190.00 337.46 C190.00 334.37 190.25 334.14 194.25 333.49 C201.69 332.29 205.12 328.52 201.80 325.20 C200.33 323.73 195.07 323.64 191.41 325.03 C189.20 325.88 188.31 325.72 186.60 324.17 C185.44 323.13 183.75 321.87 182.83 321.39 C181.74 320.81 184.76 320.39 191.55 320.19 C203.05 319.86 205.14 320.50 206.98 324.96 C209.12 330.13 206.88 333.69 199.36 337.06 C194.28 339.34 192.95 340.43 192.45 342.69 C192.10 344.24 191.72 345.94 191.58 346.48 C191.45 347.03 191.04 345.96 190.67 344.11 Z M177.40 317.75 L175.50 315.50 L177.75 317.40 C179.86 319.20 180.46 320.00 179.65 320.00 C179.47 320.00 178.45 318.99 177.40 317.75 Z M174.34 304.00 C174.34 299.88 174.51 298.19 174.73 300.25 C174.94 302.31 174.94 305.69 174.73 307.75 C174.51 309.81 174.34 308.12 174.34 304.00 Z M257.32 303.00 C257.32 299.43 257.50 297.96 257.72 299.75 C257.95 301.54 257.95 304.46 257.72 306.25 C257.50 308.04 257.32 306.57 257.32 303.00 Z M177.50 290.00 C178.50 288.90 179.53 288.00 179.81 288.00 C180.08 288.00 179.50 288.90 178.50 290.00 C177.50 291.10 176.47 292.00 176.19 292.00 C175.92 292.00 176.50 291.10 177.50 290.00 Z M253.40 289.75 L251.50 287.50 L253.75 289.40 C255.86 291.20 256.46 292.00 255.65 292.00 C255.47 292.00 254.45 290.99 253.40 289.75 Z M187.00 283.50 C188.29 282.12 189.57 281.00 189.85 281.00 C190.12 281.00 189.29 282.12 188.00 283.50 C186.71 284.88 185.43 286.00 185.15 286.00 C184.88 286.00 185.71 284.88 187.00 283.50 Z M243.92 283.25 L241.50 280.50 L244.25 282.92 C246.82 285.19 247.46 286.00 246.67 286.00 C246.50 286.00 245.26 284.76 243.92 283.25 Z M190.00 279.06 C190.00 278.54 190.44 277.84 190.99 277.51 C191.56 277.16 191.72 277.56 191.38 278.45 C190.72 280.18 190.00 280.50 190.00 279.06 Z M240.56 278.29 C240.02 276.87 240.14 276.75 241.12 277.73 C241.81 278.41 242.11 279.22 241.81 279.53 C241.50 279.83 240.94 279.28 240.56 278.29 Z M193.50 274.00 C194.50 272.90 195.53 272.00 195.81 272.00 C196.08 272.00 195.50 272.90 194.50 274.00 C193.50 275.10 192.47 276.00 192.19 276.00 C191.92 276.00 192.50 275.10 193.50 274.00 Z M237.40 273.75 L235.50 271.50 L237.75 273.40 C239.86 275.20 240.46 276.00 239.65 276.00 C239.47 276.00 238.45 274.99 237.40 273.75 Z M208.25 270.26 C212.51 270.07 219.49 270.07 223.75 270.26 C228.01 270.44 224.53 270.60 216.00 270.60 C207.47 270.60 203.99 270.44 208.25 270.26 Z M342.09 208.75 C335.42 206.30 334.54 203.80 334.18 186.18 C333.67 161.31 335.48 158.50 352.00 158.50 C368.14 158.50 369.89 160.99 369.89 184.00 C369.89 206.25 368.09 209.12 353.77 209.68 C348.81 209.88 344.14 209.50 342.09 208.75 Z M406.78 206.44 C408.02 205.57 409.00 203.83 409.00 202.50 C409.00 199.19 405.41 197.00 400.00 197.00 C394.59 197.00 391.00 199.19 391.00 202.50 C391.00 205.81 394.59 208.00 400.00 208.00 C402.51 208.00 405.56 207.30 406.78 206.44 Z M358.78 174.44 C360.02 173.57 361.00 171.83 361.00 170.50 C361.00 167.19 357.41 165.00 352.00 165.00 C346.59 165.00 343.00 167.19 343.00 170.50 C343.00 173.81 346.59 176.00 352.00 176.00 C354.51 176.00 357.56 175.30 358.78 174.44 Z"/></g>
  <g transform="scale(0.062500 0.062500) translate(0.000000,768.000000) scale(1.000000,-1.000000)" fill="#4a2c18" stroke="none"><path d="M230.42 400.92 C226.94 399.91 225.10 398.12 222.17 392.85 L220.14 389.20 L222.32 388.45 C223.52 388.04 237.35 387.43 253.05 387.10 C284.16 386.45 284.77 386.33 288.74 380.28 C290.33 377.86 290.55 373.54 291.00 336.21 L291.50 294.82 L294.11 292.66 C295.55 291.47 298.15 289.73 299.89 288.78 C301.63 287.83 303.83 285.60 304.78 283.82 C305.73 282.04 307.70 279.33 309.17 277.79 C311.67 275.18 312.38 275.00 319.97 275.00 C327.26 275.00 328.34 275.25 330.55 277.45 C332.75 279.66 333.00 280.74 333.00 288.03 C333.00 295.62 332.82 296.33 330.21 298.83 C328.67 300.30 326.01 302.24 324.29 303.15 C318.78 306.08 317.52 309.20 317.52 320.00 C317.52 330.49 318.59 333.37 323.72 336.74 C326.21 338.37 331.87 338.54 399.79 339.00 L473.18 339.50 L474.93 341.67 C476.26 343.31 476.85 346.52 477.32 354.67 C477.66 360.63 478.23 366.50 478.58 367.73 L479.22 369.97 L395.14 370.23 L311.06 370.50 L308.87 372.69 C307.05 374.50 306.55 376.52 305.95 384.56 C305.12 395.53 303.52 398.73 297.91 400.69 C293.82 402.13 235.24 402.33 230.42 400.92 Z M534.50 369.45 C530.42 367.04 526.01 362.36 526.00 360.42 C526.00 359.83 524.85 358.27 523.45 356.95 C521.39 355.02 519.58 354.49 513.99 354.17 C510.19 353.95 505.75 354.24 504.13 354.80 C501.25 355.81 501.17 355.74 500.10 351.47 C497.67 341.83 499.38 314.88 502.31 316.69 C502.91 317.06 507.63 317.68 512.81 318.07 C523.43 318.88 526.12 320.23 529.28 326.32 C531.20 330.01 533.50 332.18 539.90 336.31 C541.77 337.51 544.11 340.03 545.11 341.91 C546.11 343.79 547.36 345.76 547.90 346.30 C548.54 346.94 547.88 348.27 546.02 350.13 C543.79 352.36 542.69 355.07 541.00 362.49 C539.81 367.72 538.76 371.96 538.67 371.91 C538.58 371.85 536.70 370.75 534.50 369.45 Z M244.75 364.92 C242.33 363.51 242.45 358.37 244.93 357.04 C247.80 355.50 249.77 355.77 251.98 357.98 C256.20 362.20 250.11 368.04 244.75 364.92 Z M189.67 330.34 C189.33 328.25 189.45 326.15 189.94 325.66 C191.48 324.12 199.85 323.63 201.49 324.99 C205.32 328.17 201.89 332.26 194.39 333.47 L190.28 334.13 L189.67 330.34 Z"/></g>
  <g transform="scale(0.062500 0.062500) translate(0.000000,768.000000) scale(1.000000,-1.000000)" fill="#c89a6a" stroke="none"><path d="M562.06 397.56 C558.94 394.24 558.11 387.03 560.57 384.57 C563.03 382.11 570.24 382.94 573.56 386.06 C576.85 389.14 576.91 394.80 573.69 397.83 C570.45 400.86 565.04 400.74 562.06 397.56 Z M572.17 396.35 C576.22 392.68 573.24 386.00 567.55 386.00 C563.61 386.00 562.00 387.56 562.00 391.37 C562.00 397.14 568.03 400.09 572.17 396.35 Z M214.13 378.33 C212.13 376.69 211.68 375.23 211.27 368.94 C211.00 364.85 210.12 360.45 209.31 359.16 C208.49 357.87 205.28 355.67 202.17 354.27 C192.99 350.15 190.57 346.89 192.65 341.47 C193.01 340.54 196.08 338.54 199.48 337.01 C206.88 333.69 209.11 330.10 206.98 324.96 C205.13 320.49 203.06 319.86 191.39 320.19 L180.85 320.50 L177.92 317.23 C175.10 314.08 175.00 313.62 175.00 303.88 L175.00 293.80 L178.28 290.65 C180.08 288.92 183.02 286.73 184.81 285.78 C186.60 284.83 188.83 282.60 189.78 280.81 C190.73 279.02 192.92 276.08 194.65 274.28 L197.80 271.00 L216.00 271.00 L234.20 271.00 L237.35 274.28 C239.08 276.08 241.27 279.02 242.22 280.81 C243.17 282.60 245.40 284.83 247.19 285.78 C248.98 286.73 251.85 288.85 253.57 290.50 C256.57 293.38 256.71 293.90 257.25 303.75 C257.88 315.31 259.67 319.72 264.36 321.29 C266.63 322.04 267.74 321.84 269.85 320.27 C274.71 316.67 274.97 315.14 274.99 290.00 C275.00 276.87 275.47 264.85 276.05 262.76 C276.62 260.70 279.33 256.45 282.07 253.32 C288.87 245.55 290.69 239.00 291.35 220.00 C292.08 199.08 293.18 197.08 304.06 197.03 C313.77 196.98 314.99 198.47 316.50 212.16 C317.47 221.03 316.47 224.40 312.16 226.66 C308.31 228.69 306.94 232.02 308.96 234.45 C310.72 236.57 313.94 235.06 316.59 230.86 L319.03 227.00 L349.04 227.00 C381.31 227.00 381.41 227.01 388.90 232.51 C391.80 234.63 393.38 235.00 399.71 235.00 C407.33 235.00 409.88 234.23 413.69 230.76 C414.89 229.66 418.91 227.93 422.61 226.90 C430.61 224.68 433.70 222.07 435.16 216.30 C435.78 213.82 437.94 210.08 440.28 207.42 C445.34 201.68 445.59 198.26 441.29 193.72 C436.81 188.99 436.00 186.83 436.00 179.63 C436.00 167.77 438.23 165.06 448.00 165.06 C459.61 165.06 460.06 166.19 460.90 198.00 C461.70 228.03 462.27 229.64 474.78 237.41 C479.24 240.18 481.32 242.80 488.32 254.50 L492.50 261.50 L492.42 289.00 C492.30 328.03 491.52 359.35 490.64 360.78 C489.54 362.55 487.21 362.28 486.16 360.25 C485.65 359.29 485.05 354.67 484.81 349.98 C484.31 340.03 482.41 335.94 477.04 333.27 C473.78 331.64 467.68 331.46 400.67 331.00 C317.01 330.43 325.00 331.56 325.00 320.24 C325.00 312.26 325.81 310.77 331.95 307.43 C338.86 303.67 340.41 300.10 340.41 288.00 C340.41 271.17 337.17 268.00 320.00 268.00 C307.25 268.00 304.45 269.18 300.41 276.25 C298.25 280.04 296.07 282.23 292.37 284.35 C283.22 289.57 283.57 287.67 283.00 334.83 C282.52 374.28 282.41 376.23 280.56 377.58 C279.06 378.68 274.62 379.00 260.97 379.00 C251.26 379.00 237.28 379.28 229.91 379.63 C217.59 380.21 216.31 380.11 214.13 378.33 Z M549.62 377.48 C546.04 373.90 548.68 357.41 552.71 358.18 C556.34 358.88 558.18 368.50 556.11 376.00 C555.28 379.01 551.92 379.78 549.62 377.48 Z M232.62 373.72 C232.98 373.35 232.71 371.03 232.01 368.54 C230.53 363.23 231.55 359.76 235.82 355.67 C239.81 351.85 245.18 350.00 252.22 350.01 C260.23 350.03 263.16 351.52 264.77 356.40 C265.83 359.63 265.77 361.28 264.42 366.69 C263.53 370.23 263.02 373.36 263.29 373.63 C263.57 373.90 266.25 374.38 269.27 374.69 C273.97 375.17 275.05 374.95 276.87 373.13 C278.90 371.10 279.00 370.06 279.00 351.15 C279.00 332.62 278.13 325.00 276.02 325.00 C275.58 325.00 274.01 325.63 272.52 326.40 C270.62 327.39 268.91 327.55 266.77 326.93 C259.70 324.91 256.92 319.71 255.88 306.59 C255.46 301.13 254.61 295.47 254.00 294.01 C253.37 292.47 250.72 290.11 247.73 288.40 C243.94 286.23 241.77 284.06 239.60 280.27 C235.54 273.15 233.56 272.50 216.00 272.50 C198.44 272.50 196.46 273.15 192.40 280.27 C190.23 284.06 188.06 286.23 184.27 288.40 C181.25 290.12 178.69 292.42 178.11 293.93 C174.97 302.11 176.14 313.01 180.58 316.82 C183.17 319.05 183.82 319.15 192.03 318.50 C204.28 317.53 209.00 320.17 209.00 328.00 C209.00 332.80 207.44 334.75 200.98 338.01 C191.16 342.97 192.02 348.32 203.29 352.44 C212.16 355.69 217.00 361.69 217.00 369.42 C217.00 371.66 217.62 373.28 218.75 373.98 C220.56 375.09 231.45 374.88 232.62 373.72 Z M253.99 371.51 C258.23 369.31 260.00 366.18 260.00 360.85 C260.00 354.33 257.04 352.00 248.77 352.00 C243.31 352.00 242.51 352.29 239.40 355.40 C234.09 360.71 234.87 367.12 241.31 371.05 C245.13 373.37 250.03 373.55 253.99 371.51 Z M486.02 327.43 C486.58 325.98 487.00 312.05 487.00 295.17 C487.00 268.18 486.83 265.15 485.15 261.99 C484.13 260.07 482.75 256.21 482.09 253.42 C480.22 245.56 478.00 242.77 470.57 238.96 C461.43 234.27 456.48 227.52 455.42 218.27 C454.54 210.60 454.05 209.00 452.57 209.00 C450.02 209.00 441.06 216.91 440.38 219.76 C439.14 225.00 435.36 227.76 426.50 229.93 C423.75 230.60 420.04 232.26 418.25 233.63 C412.83 237.75 408.60 239.00 400.00 239.00 C391.23 239.00 387.18 237.76 381.33 233.30 L377.66 230.50 L353.37 230.19 C325.78 229.83 324.25 230.14 319.41 237.13 C316.02 242.02 311.99 245.00 308.75 245.00 C307.40 245.00 304.50 243.70 302.30 242.10 L298.31 239.21 L296.77 241.85 C295.92 243.31 294.90 246.07 294.50 248.00 C293.56 252.45 291.14 257.26 289.30 258.33 C288.52 258.79 286.31 260.54 284.40 262.22 L280.92 265.27 L281.21 273.38 C281.55 282.76 282.21 283.32 289.15 280.06 C292.54 278.46 294.11 276.83 296.26 272.71 C300.95 263.73 305.96 262.15 324.03 263.96 C342.91 265.85 345.00 268.23 345.00 287.93 C345.00 303.37 343.41 307.65 336.43 311.03 C333.98 312.22 331.31 314.14 330.49 315.32 C328.41 318.29 328.63 322.63 331.00 325.00 C332.96 326.96 334.37 327.00 404.25 327.06 C460.84 327.10 476.22 327.39 479.00 328.44 C484.14 330.38 484.95 330.27 486.02 327.43 Z M305.36 219.45 C310.35 215.64 311.18 212.97 308.35 209.83 C306.22 207.49 301.78 207.48 299.67 209.82 C296.47 213.34 296.26 223.00 299.38 223.00 C300.11 223.00 302.80 221.40 305.36 219.45 Z M393.22 206.44 C391.98 205.57 391.00 203.83 391.00 202.50 C391.00 199.19 394.59 197.00 400.00 197.00 C405.41 197.00 409.00 199.19 409.00 202.50 C409.00 205.81 405.41 208.00 400.00 208.00 C397.49 208.00 394.44 207.30 393.22 206.44 Z M454.60 188.46 C455.44 185.10 454.37 180.07 452.33 177.82 C449.92 175.15 445.39 175.48 443.44 178.45 C441.27 181.77 442.28 184.30 447.25 187.95 C452.29 191.66 453.77 191.77 454.60 188.46 Z M345.22 174.44 C343.98 173.57 343.00 171.83 343.00 170.50 C343.00 167.19 346.59 165.00 352.00 165.00 C357.41 165.00 361.00 167.19 361.00 170.50 C361.00 173.81 357.41 176.00 352.00 176.00 C349.49 176.00 346.44 175.30 345.22 174.44 Z"/></g>
  <g transform="scale(0.062500 0.062500) translate(0.000000,768.000000) scale(1.000000,-1.000000)" fill="#f7eede" stroke="none"><path d="M208.20 349.94 C199.32 347.65 199.00 347.46 199.00 344.59 C199.00 342.89 200.02 341.84 202.95 340.52 C208.87 337.85 211.22 334.82 211.69 329.28 C212.14 323.85 210.78 320.65 206.79 317.68 C204.46 315.95 202.69 315.69 194.22 315.83 C187.60 315.93 183.79 315.57 182.63 314.72 C179.16 312.18 178.28 300.22 181.15 294.75 C181.66 293.79 184.27 291.88 186.96 290.52 C190.80 288.58 192.46 286.90 194.68 282.77 C198.28 276.05 200.88 275.11 216.00 275.11 C231.12 275.11 233.72 276.05 237.32 282.77 C239.54 286.90 241.20 288.58 245.04 290.52 C247.73 291.88 250.44 293.95 251.06 295.12 C251.69 296.28 252.59 302.70 253.07 309.37 C253.55 316.04 254.39 323.30 254.95 325.50 C256.21 330.54 256.28 339.12 255.08 342.28 C254.14 344.76 251.08 346.37 245.00 347.57 C243.07 347.95 238.85 349.10 235.62 350.13 C228.16 352.50 217.84 352.43 208.20 349.94 Z M326.75 252.92 C324.27 251.48 324.52 246.53 327.19 244.04 C329.26 242.11 330.60 242.00 352.44 242.02 C372.18 242.04 376.57 242.33 382.93 244.02 C392.92 246.68 407.08 246.68 417.07 244.02 C426.78 241.44 452.70 241.16 461.07 243.55 C469.78 246.04 471.89 247.09 472.59 249.28 C474.09 254.02 474.41 254.00 399.06 253.97 C353.00 253.95 327.89 253.59 326.75 252.92 Z"/></g>
</svg>
