<?xml version="1.0" encoding="UTF-8"?>
<svg xmlns="http://www.w3.org/2000/svg" viewBox="0 0 48 48" width="48" height="48">
  <g transform="scale(0.062500 0.062500) translate(0.000000,768.000000) scale(1.000000,-1.000000)" fill="#d4a373" stroke="none"><path d="M563.65 412.17 C561.73 410.04 561.47 404.93 563.20 403.20 C565.02 401.38 570.47 401.75 572.35 403.83 C573.26 404.83 574.00 406.79 574.00 408.17 C574.00 413.30 567.09 415.97 563.65 412.17 Z M218.75 373.98 C217.62 373.28 217.00 371.66 217.00 369.42 C217.00 361.69 212.16 355.69 203.29 352.44 C192.02 348.32 191.16 342.97 200.98 338.01 C207.44 334.75 209.00 332.80 209.00 328.00 C209.00 320.17 204.28 317.53 192.03 318.50 C183.82 319.15 183.17 319.05 180.58 316.82 C176.14 313.01 174.97 302.11 178.11 293.93 C178.69 292.42 181.25 290.12 184.27 288.40 C188.06 286.23 190.23 284.06 192.40 280.27 C196.46 273.15 198.44 272.50 216.00 272.50 C233.56 272.50 235.54 273.15 239.60 280.27 C241.77 284.06 243.94 286.23 247.73 288.40 C250.72 290.11 253.37 292.47 254.00 294.01 C254.61 295.47 255.46 301.13 255.88 306.59 C256.92 319.71 259.70 324.91 266.77 326.93 C268.91 327.55 270.62 327.39 272.52 326.40 C274.01 325.63 275.58 325.00 276.02 325.00 C278.13 325.00 279.00 332.62 279.00 351.15 C279.00 370.06 278.90 371.10 276.87 373.13 C275.05 374.95 273.97 375.17 269.27 374.69 C266.25 374.38 263.57 373.90 263.29 373.63 C263.02 373.36 263.53 370.23 264.42 366.69 C265.77 361.28 265.83 359.63 264.77 356.40 C263.16 351.52 260.23 350.03 252.22 350.01 C245.18 350.00 239.81 351.85 235.82 355.67 C231.55 359.76 230.53 363.23 232.01 368.54 C232.71 371.03 232.98 373.35 232.62 373.72 C231.45 374.88 220.56 375.09 218.75 373.98 Z M235.62 350.13 C238.85 349.10 243.07 347.95 245.00 347.57 C251.08 346.37 254.14 344.76 255.08 342.28 C256.28 339.12 256.21 330.54 254.95 325.50 C254.39 323.30 253.55 316.04 253.07 309.37 C252.59 302.70 251.69 296.28 251.06 295.12 C250.44 293.95 247.73 291.88 245.04 290.52 C241.20 288.58 239.54 286.90 237.32 282.77 C233.72 276.05 231.12 275.11 216.00 275.11 C200.88 275.11 198.28 276.05 194.68 282.77 C192.46 286.90 190.80 288.58 186.96 290.52 C184.27 291.88 181.66 293.79 181.15 294.75 C178.28 300.22 179.16 312.18 182.63 314.72 C183.79 315.57 187.60 315.93 194.22 315.83 C202.69 315.69 204.46 315.95 206.79 317.68 C210.78 320.65 212.14 323.85 211.69 329.28 C211.22 334.82 208.87 337.85 202.95 340.52 C200.02 341.84 199.00 342.89 199.00 344.59 C199.00 347.46 199.32 347.65 208.20 349.94 C217.84 352.43 228.16 352.50 235.62 350.13 Z M479.00 328.44 C476.22 327.39 460.84 327.10 404.25 327.06 C334.37 327.00 332.96 326.96 331.00 325.00 C328.63 322.63 328.41 318.29 330.49 315.32 C331.31 314.14 333.98 312.22 336.43 311.03 C343.41 307.65 345.00 303.37 345.00 287.93 C345.00 273.64 343.77 269.89 338.00 266.53 C334.92 264.74 332.77 264.50 320.00 264.50 C302.89 264.50 300.12 265.51 296.00 273.29 C294.14 276.80 292.39 278.53 289.15 280.06 C282.26 283.30 281.55 282.73 281.21 273.68 C280.98 267.54 281.34 265.00 282.90 261.70 C284.00 259.39 285.59 254.97 286.44 251.87 C288.42 244.67 290.04 242.81 298.00 238.62 C307.30 233.73 312.98 224.91 312.99 215.33 C313.00 211.23 313.89 209.00 315.52 209.00 C318.23 209.00 327.06 217.05 327.66 220.07 C328.39 223.70 332.80 227.57 337.78 228.96 C342.75 230.34 409.25 230.34 414.22 228.96 C419.20 227.57 423.61 223.70 424.34 220.07 C424.73 218.08 426.62 215.77 430.05 213.05 C437.64 207.05 438.20 207.33 439.52 217.74 C440.30 223.90 443.54 227.29 450.30 229.03 C452.61 229.63 455.19 230.32 456.03 230.56 C456.87 230.80 460.02 232.58 463.03 234.52 C466.04 236.47 470.46 239.00 472.85 240.16 C477.85 242.59 480.38 246.21 482.09 253.42 C482.75 256.21 484.13 260.07 485.15 261.99 C486.83 265.15 487.00 268.18 487.00 295.17 C487.00 312.05 486.58 325.98 486.02 327.43 C484.95 330.27 484.14 330.38 479.00 328.44 Z M471.43 252.67 C473.88 250.89 472.73 247.53 469.22 246.16 C458.52 241.99 458.68 242.00 384.00 242.00 C309.32 242.00 309.48 241.99 298.78 246.16 C295.27 247.53 294.12 250.89 296.57 252.67 C299.25 254.63 468.75 254.63 471.43 252.67 Z M313.40 188.46 C312.56 185.10 313.63 180.07 315.67 177.82 C318.82 174.33 328.00 176.17 328.00 180.29 C328.00 182.71 324.72 187.00 322.87 187.00 C322.29 187.00 320.67 187.90 319.27 189.00 C315.87 191.68 314.17 191.52 313.40 188.46 Z"/></g>
  <g transform="scale(0.062500 0.062500) translate(0.000000,768.000000) scale(1.000000,-1.000000)" fill="#4a2c18" stroke="none"><path d="M230.42 400.92 C226.94 399.91 225.10 398.12 222.17 392.85 L220.14 389.20 L222.32 388.45 C223.52 388.04 237.35 387.43 253.05 387.10 C284.16 386.45 284.77 386.33 288.74 380.28 C290.33 377.86 290.55 373.54 291.00 336.21 L291.50 294.82 L294.11 292.66 C295.55 291.47 298.15 289.73 299.89 288.78 C301.63 287.83 303.83 285.60 304.78 283.82 C305.73 282.04 307.70 279.33 309.17 277.79 C311.67 275.18 312.38 275.00 319.97 275.00 C327.26 275.00 328.34 275.25 330.55 277.45 C332.75 279.66 333.00 280.74 333.00 288.03 C333.00 295.62 332.82 296.33 330.21 298.83 C328.67 300.30 326.01 302.24 324.29 303.15 C318.78 306.08 317.52 309.20 317.52 320.00 C317.52 330.49 318.59 333.37 323.72 336.74 C326.21 338.37 331.87 338.54 399.79 339.00 L473.18 339.50 L474.93 341.67 C476.26 343.31 476.85 346.52 477.32 354.67 C477.66 360.63 478.23 366.50 478.58 367.73 L479.22 369.97 L395.14 370.23 L311.06 370.50 L308.87 372.69 C307.05 374.50 306.55 376.52 305.95 384.56 C305.12 395.53 303.52 398.73 297.91 400.69 C293.82 402.13 235.24 402.33 230.42 400.92 Z M534.21 385.30 C527.99 381.68 526.87 379.38 526.04 368.44 C525.11 356.09 523.97 354.73 514.04 354.17 C510.21 353.96 505.75 354.24 504.13 354.80 C501.25 355.81 501.17 355.74 500.10 351.47 C497.67 341.83 499.38 314.88 502.31 316.69 C502.91 317.06 507.63 317.68 512.81 318.07 C523.43 318.88 526.12 320.23 529.28 326.32 C531.22 330.05 533.58 332.25 540.00 336.34 C544.27 339.06 545.86 343.25 545.96 352.00 C546.00 355.57 546.61 359.62 547.31 361.00 C548.47 363.25 548.33 363.77 545.88 366.24 C543.82 368.32 542.64 371.28 541.00 378.49 C539.81 383.72 538.76 387.95 538.67 387.90 C538.58 387.84 536.57 386.68 534.21 385.30 Z M244.75 364.92 C242.33 363.51 242.45 358.37 244.93 357.04 C247.80 355.50 249.77 355.77 251.98 357.98 C256.20 362.20 250.11 368.04 244.75 364.92 Z M189.67 330.34 C189.33 328.25 189.45 326.15 189.94 325.66 C191.48 324.12 199.85 323.63 201.49 324.99 C205.32 328.17 201.89 332.26 194.39 333.47 L190.28 334.13 L189.67 330.34 Z"/></g>
  <g transform="scale(0.062500 0.062500) translate(0.000000,768.000000) scale(1.000000,-1.000000)" fill="#a47a52" stroke="none"><path d="M566.25 416.31 C567.21 416.06 568.79 416.06 569.75 416.31 C570.71 416.56 569.92 416.77 568.00 416.77 C566.08 416.77 565.29 416.56 566.25 416.31 Z M561.40 413.75 L559.50 411.50 L561.75 413.40 C563.86 415.20 564.46 416.00 563.65 416.00 C563.47 416.00 562.45 414.99 561.40 413.75 Z M573.50 414.00 C574.50 412.90 575.53 412.00 575.81 412.00 C576.08 412.00 575.50 412.90 574.50 414.00 C573.50 415.10 572.47 416.00 572.19 416.00 C571.92 416.00 572.50 415.10 573.50 414.00 Z M557.97 407.40 C556.98 404.42 555.85 403.38 551.50 401.46 C546.91 399.43 542.00 394.76 542.00 392.42 C542.00 392.00 541.28 390.86 540.40 389.89 C538.92 388.26 538.96 387.38 540.88 379.04 C542.99 369.88 544.96 365.61 547.52 364.63 C549.46 363.89 557.76 368.70 559.74 371.72 C560.83 373.39 561.49 377.06 561.73 382.86 C562.22 394.43 562.57 395.70 565.76 397.43 L568.50 398.92 L565.32 398.96 C560.59 399.02 558.68 401.46 559.27 406.68 C559.54 409.06 559.62 411.00 559.45 411.00 C559.29 411.00 558.62 409.38 557.97 407.40 Z M576.23 408.00 C576.23 406.07 576.44 405.29 576.69 406.25 C576.94 407.21 576.94 408.79 576.69 409.75 C576.44 410.71 576.23 409.93 576.23 408.00 Z M573.40 401.75 L571.50 399.50 L573.75 401.40 C574.99 402.45 576.00 403.47 576.00 403.65 C576.00 404.46 575.20 403.86 573.40 401.75 Z M556.11 392.00 C558.18 384.50 556.34 374.88 552.71 374.18 C548.68 373.41 546.04 389.90 549.62 393.48 C551.92 395.78 555.28 395.01 556.11 392.00 Z M218.55 388.08 C218.17 387.47 216.10 386.07 213.95 384.97 C208.13 382.00 206.87 379.36 206.04 368.33 C205.34 359.14 205.15 358.52 202.14 355.83 C198.38 352.47 198.74 352.32 204.03 355.01 C209.40 357.76 210.70 360.25 211.27 368.94 C212.00 380.01 212.75 380.44 229.91 379.63 C237.28 379.28 251.26 379.00 260.97 379.00 C274.62 379.00 279.06 378.68 280.56 377.58 C282.41 376.23 282.52 374.28 283.00 334.83 C283.57 287.67 283.22 289.57 292.37 284.35 C296.07 282.23 298.25 280.04 300.41 276.25 C304.45 269.18 307.25 268.00 320.00 268.00 C337.17 268.00 340.41 271.17 340.41 288.00 C340.41 300.10 338.86 303.67 331.95 307.43 C325.81 310.77 325.00 312.26 325.00 320.24 C325.00 331.56 317.01 330.43 400.67 331.00 C467.68 331.46 473.78 331.64 477.04 333.27 C482.41 335.94 484.31 340.03 484.81 349.98 C485.05 354.67 485.65 359.29 486.16 360.25 C487.21 362.28 489.54 362.55 490.64 360.78 C491.52 359.35 492.30 328.03 492.42 289.00 L492.50 261.50 L488.32 254.50 C486.01 250.65 483.04 245.90 481.71 243.94 C478.60 239.37 463.72 229.45 456.12 226.88 C445.52 223.30 445.60 223.52 444.85 196.67 C444.48 183.42 443.71 172.17 443.05 170.39 C441.37 165.83 438.47 165.00 424.18 165.00 C410.20 165.00 407.00 166.03 407.00 170.50 C407.00 174.18 410.54 176.00 417.67 176.00 C422.79 176.00 424.38 176.42 426.68 178.40 C429.24 180.60 429.51 181.50 429.84 188.91 C430.32 199.43 429.92 200.73 424.56 206.17 C421.20 209.59 419.90 211.79 419.39 214.96 C418.53 220.32 414.91 224.65 410.19 225.97 C405.31 227.32 346.69 227.32 341.81 225.97 C337.11 224.66 333.47 220.33 332.62 215.05 C332.17 212.19 330.74 209.58 327.98 206.60 C322.24 200.37 322.54 197.91 329.60 193.40 C334.19 190.46 335.63 188.82 337.67 184.22 C339.03 181.14 341.24 177.32 342.57 175.73 C345.84 171.85 345.79 167.68 342.45 166.16 C338.80 164.50 314.03 164.66 311.79 166.36 C308.40 168.93 307.76 173.31 307.10 198.00 C306.30 228.03 305.73 229.64 293.22 237.41 C288.76 240.18 286.68 242.80 279.68 254.50 L275.50 261.50 L275.00 288.67 C274.50 315.68 274.49 315.86 272.09 318.40 C269.05 321.64 266.94 322.31 263.68 321.07 C260.99 320.04 257.99 315.40 258.01 312.30 C258.03 310.93 258.33 311.09 259.29 313.00 C260.27 314.94 261.33 315.50 264.00 315.50 C269.76 315.50 269.96 314.32 270.04 280.00 C270.12 246.02 270.44 243.88 276.00 240.34 C282.45 236.24 284.78 234.04 286.73 230.26 C287.79 228.19 290.13 225.60 291.92 224.50 C293.71 223.40 296.60 221.30 298.34 219.83 L301.50 217.17 L302.00 191.65 C302.47 167.74 302.63 165.96 304.60 163.32 C308.00 158.74 312.56 157.82 330.18 158.18 C344.24 158.47 346.15 158.72 348.68 160.59 C352.97 163.78 353.89 167.89 353.89 184.00 C353.89 202.36 353.25 204.34 345.69 209.36 C340.46 212.84 339.92 213.53 340.19 216.34 C340.72 221.73 342.23 221.97 376.00 221.97 C409.77 221.97 411.28 221.73 411.81 216.34 C412.08 213.53 411.54 212.84 406.31 209.36 C398.41 204.11 397.77 201.93 398.18 181.82 C398.47 167.76 398.72 165.85 400.59 163.32 C403.78 159.03 407.89 158.11 424.00 158.11 C440.11 158.11 444.22 159.03 447.41 163.32 C449.37 165.96 449.53 167.75 450.00 191.55 C450.61 222.58 449.83 220.94 464.56 222.05 C475.45 222.88 478.11 224.19 481.28 230.32 C483.22 234.05 485.58 236.25 492.00 240.34 C497.56 243.88 497.88 246.02 497.94 279.85 C497.99 305.29 498.25 310.73 499.57 313.51 C500.83 316.16 500.93 317.59 500.08 320.66 C498.67 325.72 498.70 345.92 500.12 351.56 C500.99 355.00 500.96 356.35 499.99 357.51 C499.30 358.34 497.96 360.47 497.02 362.23 C494.49 366.94 491.07 369.03 484.84 369.68 C478.14 370.37 478.23 370.56 477.32 354.67 C476.85 346.52 476.26 343.31 474.93 341.67 L473.18 339.50 L399.79 339.00 C331.87 338.54 326.21 338.37 323.72 336.74 C318.59 333.37 317.52 330.49 317.52 320.00 C317.52 309.20 318.78 306.08 324.29 303.15 C326.01 302.24 328.67 300.30 330.21 298.83 C332.82 296.33 333.00 295.62 333.00 288.03 C333.00 280.74 332.75 279.66 330.55 277.45 C328.34 275.25 327.26 275.00 319.97 275.00 C312.38 275.00 311.67 275.18 309.17 277.79 C307.70 279.33 305.73 282.04 304.78 283.82 C303.83 285.60 301.63 287.83 299.89 288.78 C298.15 289.73 295.55 291.47 294.11 292.66 L291.50 294.82 L291.00 336.21 C290.55 373.54 290.33 377.86 288.74 380.28 C284.77 386.32 284.15 386.44 253.05 387.13 C237.35 387.48 223.32 388.09 221.87 388.48 C220.27 388.91 218.96 388.75 218.55 388.08 Z M241.31 371.05 C234.87 367.12 234.09 360.71 239.40 355.40 C242.51 352.29 243.31 352.00 248.77 352.00 C257.04 352.00 260.00 354.33 260.00 360.85 C260.00 366.18 258.23 369.31 253.99 371.51 C250.03 373.55 245.13 373.37 241.31 371.05 Z M251.17 364.75 C253.80 362.63 254.10 360.10 251.98 357.98 C248.38 354.38 243.00 356.18 243.00 360.99 C243.00 365.31 247.76 367.50 251.17 364.75 Z M193.40 349.75 L191.50 347.50 L193.75 349.40 C195.86 351.20 196.46 352.00 195.65 352.00 C195.47 352.00 194.45 350.99 193.40 349.75 Z M190.67 344.11 C190.30 342.26 190.00 339.27 190.00 337.46 C190.00 334.37 190.25 334.14 194.25 333.49 C201.69 332.29 205.12 328.52 201.80 325.20 C200.33 323.73 195.07 323.64 191.41 325.03 C189.20 325.88 188.31 325.72 186.60 324.17 C185.44 323.13 183.75 321.87 182.83 321.39 C181.74 320.81 184.76 320.39 191.55 320.19 C203.05 319.86 205.14 320.50 206.98 324.96 C209.12 330.13 206.88 333.69 199.36 337.06 C194.28 339.34 192.95 340.43 192.45 342.69 C192.10 344.24 191.72 345.94 191.58 346.48 C191.45 347.03 191.04 345.96 190.67 344.11 Z M177.40 317.75 L175.50 315.50 L177.75 317.40 C179.86 319.20 180.46 320.00 179.65 320.00 C179.47 320.00 178.45 318.99 177.40 317.75 Z M174.34 304.00 C174.34 299.88 174.51 298.19 174.73 300.25 C174.94 302.31 174.94 305.69 174.73 307.75 C174.51 309.81 174.34 308.12 174.34 304.00 Z M257.32 303.00 C257.32 299.43 257.50 297.96 257.72 299.75 C257.95 301.54 257.95 304.46 257.72 306.25 C257.50 308.04 257.32 306.57 257.32 303.00 Z M177.50 290.00 C178.50 288.90 179.53 288.00 179.81 288.00 C180.08 288.00 179.50 288.90 178.50 290.00 C177.50 291.10 176.47 292.00 176.19 292.00 C175.92 292.00 176.50 291.10 177.50 290.00 Z M253.40 289.75 L251.50 287.50 L253.75 289.40 C255.86 291.20 256.46 292.00 255.65 292.00 C255.47 292.00 254.45 290.99 253.40 289.75 Z M187.00 283.50 C188.29 282.12 189.57 281.00 189.85 281.00 C190.12 281.00 189.29 282.12 188.00 283.50 C186.71 284.88 185.43 286.00 185.15 286.00 C184.88 286.00 185.71 284.88 187.00 283.50 Z M243.92 283.25 L241.50 280.50 L244.25 282.92 C246.82 285.19 247.46 286.00 246.67 286.00 C246.50 286.00 245.26 284.76 243.92 283.25 Z M190.00 279.06 C190.00 278.54 190.44 277.84 190.99 277.51 C191.56 277.16 191.72 277.56 191.38 278.45 C190.72 280.18 190.00 280.50 190.00 279.06 Z M240.56 278.29 C240.02 276.87 240.14 276.75 241.12 277.73 C241.81 278.41 242.11 279.22 241.81 279.53 C241.50 279.83 240.94 279.28 240.56 278.29 Z M193.50 274.00 C194.50 272.90 195.53 272.00 195.81 272.00 C196.08 272.00 195.50 272.90 194.50 274.00 C193.50 275.10 192.47 276.00 192.19 276.00 C191.92 276.00 192.50 275.10 193.50 274.00 Z M237.40 273.75 L235.50 271.50 L237.75 273.40 C239.86 275.20 240.46 276.00 239.65 276.00 C239.47 276.00 238.45 274.99 237.40 273.75 Z M208.25 270.26 C212.51 270.07 219.49 270.07 223.75 270.26 C228.01 270.44 224.53 270.60 216.00 270.60 C207.47 270.60 203.99 270.44 208.25 270.26 Z"/></g>
  <g transform="scale(0.062500 0.062500) translate(0.000000,768.000000) scale(1.000000,-1.000000)" fill="#c89a6a" stroke="none"><path d="M562.06 413.56 C558.94 410.24 558.11 403.03 560.57 400.57 C563.03 398.11 570.24 398.94 573.56 402.06 C576.85 405.14 576.91 410.80 573.69 413.83 C570.45 416.86 565.04 416.74 562.06 413.56 Z M572.17 412.35 C576.22 408.68 573.24 402.00 567.55 402.00 C563.61 402.00 562.00 403.56 562.00 407.37 C562.00 413.14 568.03 416.09 572.17 412.35 Z M549.62 393.48 C546.04 389.90 548.68 373.41 552.71 374.18 C556.34 374.88 558.18 384.50 556.11 392.00 C555.28 395.01 551.92 395.78 549.62 393.48 Z M214.13 378.33 C212.13 376.69 211.68 375.23 211.27 368.94 C211.00 364.85 210.12 360.45 209.31 359.16 C208.49 357.87 205.28 355.67 202.17 354.27 C192.99 350.15 190.57 346.89 192.65 341.47 C193.01 340.54 196.08 338.54 199.48 337.01 C206.88 333.69 209.11 330.10 206.98 324.96 C205.13 320.49 203.06 319.86 191.39 320.19 L180.85 320.50 L177.92 317.23 C175.10 314.08 175.00 313.62 175.00 303.88 L175.00 293.80 L178.28 290.65 C180.08 288.92 183.02 286.73 184.81 285.78 C186.60 284.83 188.83 282.60 189.78 280.81 C190.73 279.02 192.92 276.08 194.65 274.28 L197.80 271.00 L216.00 271.00 L234.20 271.00 L237.35 274.28 C239.08 276.08 241.27 279.02 242.22 280.81 C243.17 282.60 245.40 284.83 247.19 285.78 C248.98 286.73 251.85 288.85 253.57 290.50 C256.56 293.38 256.71 293.92 257.24 303.60 C257.86 314.86 259.57 319.51 263.68 321.07 C266.94 322.31 269.05 321.64 272.09 318.40 C274.49 315.86 274.50 315.68 275.00 288.67 L275.50 261.50 L279.68 254.50 C286.68 242.80 288.76 240.18 293.22 237.41 C299.27 233.66 301.88 231.09 304.32 226.50 C306.27 222.85 306.51 220.36 307.10 198.00 C307.76 173.31 308.40 168.93 311.79 166.36 C314.03 164.66 338.80 164.50 342.45 166.16 C345.79 167.68 345.84 171.85 342.57 175.73 C341.24 177.32 339.03 181.14 337.67 184.22 C335.63 188.82 334.19 190.46 329.60 193.40 C322.54 197.91 322.24 200.37 327.98 206.60 C330.74 209.58 332.17 212.19 332.62 215.05 C333.47 220.33 337.11 224.66 341.81 225.97 C346.69 227.32 405.31 227.32 410.19 225.97 C414.91 224.65 418.53 220.32 419.39 214.96 C419.90 211.79 421.20 209.59 424.56 206.17 C429.92 200.73 430.32 199.43 429.84 188.91 C429.51 181.50 429.24 180.60 426.68 178.40 C424.38 176.42 422.79 176.00 417.67 176.00 C410.54 176.00 407.00 174.18 407.00 170.50 C407.00 166.03 410.20 165.00 424.18 165.00 C438.47 165.00 441.37 165.83 443.05 170.39 C443.71 172.17 444.48 183.42 444.85 196.67 C445.60 223.52 445.52 223.30 456.12 226.88 C463.72 229.45 478.60 239.37 481.71 243.94 C483.04 245.90 486.01 250.65 488.32 254.50 L492.50 261.50 L492.42 289.00 C492.30 328.03 491.52 359.35 490.64 360.78 C489.54 362.55 487.21 362.28 486.16 360.25 C485.65 359.29 485.05 354.67 484.81 349.98 C484.31 340.03 482.41 335.94 477.04 333.27 C473.78 331.64 467.68 331.46 400.67 331.00 C317.01 330.43 325.00 331.56 325.00 320.24 C325.00 312.26 325.81 310.77 331.95 307.43 C338.86 303.67 340.41 300.10 340.41 288.00 C340.41 271.17 337.17 268.00 320.00 268.00 C307.25 268.00 304.45 269.18 300.41 276.25 C298.25 280.04 296.07 282.23 292.37 284.35 C283.22 289.57 283.57 287.67 283.00 334.83 C282.52 374.28 282.41 376.23 280.56 377.58 C279.06 378.68 274.62 379.00 260.97 379.00 C251.26 379.00 237.28 379.28 229.91 379.63 C217.59 380.21 216.31 380.11 214.13 378.33 Z M232.62 373.72 C232.98 373.35 232.71 371.03 232.01 368.54 C230.53 363.23 231.55 359.76 235.82 355.67 C239.81 351.85 245.18 350.00 252.22 350.01 C260.23 350.03 263.16 351.52 264.77 356.40 C265.83 359.63 265.77 361.28 264.42 366.69 C263.53 370.23 263.02 373.36 263.29 373.63 C263.57 373.90 266.25 374.38 269.27 374.69 C273.97 375.17 275.05 374.95 276.87 373.13 C278.90 371.10 279.00 370.06 279.00 351.15 C279.00 332.62 278.13 325.00 276.02 325.00 C275.58 325.00 274.01 325.63 272.52 326.40 C270.62 327.39 268.91 327.55 266.77 326.93 C259.70 324.91 256.92 319.71 255.88 306.59 C255.46 301.13 254.61 295.47 254.00 294.01 C253.37 292.47 250.72 290.11 247.73 288.40 C243.94 286.23 241.77 284.06 239.60 280.27 C235.54 273.15 233.56 272.50 216.00 272.50 C198.44 272.50 196.46 273.15 192.40 280.27 C190.23 284.06 188.06 286.23 184.27 288.40 C181.25 290.12 178.69 292.42 178.11 293.93 C174.97 302.11 176.14 313.01 180.58 316.82 C183.17 319.05 183.82 319.15 192.03 318.50 C204.28 317.53 209.00 320.17 209.00 328.00 C209.00 332.80 207.44 334.75 200.98 338.01 C191.16 342.97 192.02 348.32 203.29 352.44 C212.16 355.69 217.00 361.69 217.00 369.42 C217.00 371.66 217.62 373.28 218.75 373.98 C220.56 375.09 231.45 374.88 232.62 373.72 Z M253.99 371.51 C258.23 369.31 260.00 366.18 260.00 360.85 C260.00 354.33 257.04 352.00 248.77 352.00 C243.31 352.00 242.51 352.29 239.40 355.40 C234.09 360.71 234.87 367.12 241.31 371.05 C245.13 373.37 250.03 373.55 253.99 371.51 Z M486.02 327.43 C486.58 325.98 487.00 312.05 487.00 295.17 C487.00 268.18 486.83 265.15 485.15 261.99 C484.13 260.07 482.75 256.21 482.09 253.42 C480.38 246.21 477.85 242.59 472.85 240.16 C470.46 239.00 466.04 236.47 463.03 234.52 C460.02 232.58 456.87 230.80 456.03 230.56 C455.19 230.32 452.61 229.63 450.30 229.03 C443.54 227.29 440.30 223.90 439.52 217.74 C438.20 207.33 437.64 207.05 430.05 213.05 C426.62 215.77 424.73 218.08 424.34 220.07 C423.61 223.70 419.20 227.57 414.22 228.96 C409.25 230.34 342.75 230.34 337.78 228.96 C332.80 227.57 328.39 223.70 327.66 220.07 C327.06 217.05 318.23 209.00 315.52 209.00 C313.89 209.00 313.00 211.23 312.99 215.33 C312.98 224.91 307.30 233.73 298.00 238.62 C290.04 242.81 288.42 244.67 286.44 251.87 C285.59 254.97 284.00 259.39 282.90 261.70 C281.34 265.00 280.98 267.54 281.21 273.68 C281.55 282.73 282.26 283.30 289.15 280.06 C292.39 278.53 294.14 276.80 296.00 273.29 C300.12 265.51 302.89 264.50 320.00 264.50 C332.77 264.50 334.92 264.74 338.00 266.53 C343.77 269.89 345.00 273.64 345.00 287.93 C345.00 303.37 343.41 307.65 336.43 311.03 C333.98 312.22 331.31 314.14 330.49 315.32 C328.41 318.29 328.63 322.63 331.00 325.00 C332.96 326.96 334.37 327.00 404.25 327.06 C460.84 327.10 476.22 327.39 479.00 328.44 C484.14 330.38 484.95 330.27 486.02 327.43 Z M319.27 189.00 C320.67 187.90 322.29 187.00 322.87 187.00 C324.72 187.00 328.00 182.71 328.00 180.29 C328.00 176.17 318.82 174.33 315.67 177.82 C312.47 181.35 312.26 191.00 315.38 191.00 C316.12 191.00 317.87 190.10 319.27 189.00 Z"/></g>
  <g transform="scale(0.062500 0.062500) translate(0.000000,768.000000) scale(1.000000,-1.000000)" fill="#f7eede" stroke="none"><path d="M208.20 349.94 C199.32 347.65 199.00 347.46 199.00 344.59 C199.00 342.89 200.02 341.84 202.95 340.52 C208.87 337.85 211.22 334.82 211.69 329.28 C212.14 323.85 210.78 320.65 206.79 317.68 C204.46 315.95 202.69 315.69 194.22 315.83 C187.60 315.93 183.79 315.57 182.63 314.72 C179.16 312.18 178.28 300.22 181.15 294.75 C181.66 293.79 184.27 291.88 186.96 290.52 C190.80 288.58 192.46 286.90 194.68 282.77 C198.28 276.05 200.88 275.11 216.00 275.11 C231.12 275.11 233.72 276.05 237.32 282.77 C239.54 286.90 241.20 288.58 245.04 290.52 C247.73 291.88 250.44 293.95 251.06 295.12 C251.69 296.28 252.59 302.70 253.07 309.37 C253.55 316.04 254.39 323.30 254.95 325.50 C256.21 330.54 256.28 339.12 255.08 342.28 C254.14 344.76 251.08 346.37 245.00 347.57 C243.07 347.95 238.85 349.10 235.62 350.13 C228.16 352.50 217.84 352.43 208.20 349.94 Z M296.57 252.67 C294.12 250.89 295.27 247.53 298.78 246.16 C309.48 241.99 309.32 242.00 384.00 242.00 C458.68 242.00 458.52 241.99 469.22 246.16 C472.73 247.53 473.88 250.89 471.43 252.67 C468.75 254.63 299.25 254.63 296.57 252.67 Z"/></g>
</svg>
