<?xml version="1.0" encoding="UTF-8"?>
<svg xmlns="http://www.w3.org/2000/svg" viewBox="0 0 48 48" shape-rendering="crispEdges">
<rect x="19" y="25" width="11" height="2" fill="#4a2c18"/>
<rect x="30" y="25" width="1" height="2" fill="#d4a373"/>
<rect x="17" y="25" width="2" height="2" fill="#d4a373"/>
<rect x="17" y="27" width="14" height="2" fill="#d4a373"/>
<rect x="17" y="29" width="14" height="3" fill="#d4a373"/>
<rect x="17" y="32" width="14" height="3" fill="#f7eede"/>
<rect x="18" y="35" width="12" height="1" fill="#f7eede"/>
<rect x="17" y="23" width="2" height="2" fill="#4a2c18"/>
<rect x="18" y="25" width="2" height="5" fill="#4a2c18"/>
<rect x="19" y="29" width="2" height="2" fill="#4a2c18"/>
<rect x="14" y="23" width="4" height="1" fill="#4a2c18"/>
<rect x="13" y="24" width="5" height="2" fill="#d4a373"/>
<rect x="16" y="26" width="2" height="2" fill="#d4a373"/>
<rect x="12" y="26" width="4" height="2" fill="#f7eede"/>
<rect x="11" y="28" width="5" height="2" fill="#f7eede"/>
<rect x="12" y="30" width="3" height="1" fill="#f7eede"/>
<rect x="15" y="25" width="1" height="1" fill="#1a1410"/>
<rect x="12" y="27" width="1" height="1" fill="#1a1410"/>
<rect x="31" y="26" width="2" height="2" fill="#4a2c18"/>
<rect x="33" y="24" width="1" height="3" fill="#4a2c18"/>
<rect x="34" y="23" width="1" height="2" fill="#d4a373"/>
<rect x="35" y="22" width="1" height="1" fill="#f7eede"/>
<rect x="26" y="36" width="2" height="3" fill="#d4a373"/>
<rect x="26" y="39" width="2" height="1" fill="#f7eede"/>
<rect x="25" y="37" width="2" height="2" fill="#a47a52"/>
<rect x="25" y="39" width="2" height="1" fill="#f7eede"/>
<rect x="20" y="37" width="2" height="2" fill="#a47a52"/>
<rect x="20" y="39" width="2" height="1" fill="#f7eede"/>
<rect x="19" y="36" width="2" height="3" fill="#d4a373"/>
<rect x="19" y="39" width="2" height="1" fill="#f7eede"/>
</svg>
