<?xml version="1.0" encoding="UTF-8"?>
<svg xmlns="http://www.w3.org/2000/svg" viewBox="0 0 24 24" width="24" height="24">
  <g transform="scale(0.125 0.125) translate(0.000000,192.000000) scale(1.000000,-1.000000)" fill="#5fb0d6" stroke="none"><path d="M90 174 c-2 -1 -2 -4 -2 -14 l0 -13 -4 -3 -4 -3 0 -9 0 -9 -4 -3 -4
-3 0 -9 0 -9 -4 -3 -4 -3 0 -13 0 -13 4 -3 4 -3 0 -9 0 -9 4 -3 c4 -3 4 -4 4
-8 0 -7 1 -8 16 -8 15 0 16 1 16 8 0 4 0 5 4 8 l4 3 0 9 0 9 4 3 4 3 0 13 0
13 -4 3 -4 3 0 9 0 9 -4 3 -4 3 0 9 0 9 -4 3 -4 3 0 13 c0 11 0 13 -2 14 -2 3
-10 3 -12 0z"/></g>
  <g transform="scale(0.125 0.125) translate(0.000000,192.000000) scale(1.000000,-1.000000)" fill="#c5e6f3" stroke="none"><path d="M82 86 c-3 -2 -3 -10 0 -12 2 -3 10 -3 12 0 3 2 3 10 0 12 -2 3 -10
3 -12 0z"/></g>
</svg>
