<?xml version="1.0" encoding="UTF-8"?>
<svg xmlns="http://www.w3.org/2000/svg" viewBox="0 0 24 24" width="24" height="24">
  <g transform="scale(0.125 0.125) translate(0.000000,192.000000) scale(1.000000,-1.000000)" fill="#f06a8a" stroke="none"><path d="M42 166 c-1 -1 -2 -3 -2 -4 0 -1 -1 -2 -2 -2 -2 0 -4 -1 -5 -2 -1 -2
-1 -2 1 -4 2 -2 2 -2 4 -1 1 1 2 3 2 5 0 1 1 2 2 2 2 0 4 1 5 2 1 2 1 2 0 4
-3 2 -3 2 -5 0z"/><path d="M138 158 c-2 -2 -2 -2 0 -4 0 -1 2 -2 4 -2 1 0 2 -1 2 -2 0 -2 1 -4
2 -5 2 -1 2 -1 4 1 2 2 2 2 1 4 -1 1 -3 2 -5 2 -1 0 -2 1 -2 2 0 2 -3 6 -4 6
0 0 -2 -1 -2 -2z"/><path d="M62 138 l-6 -6 0 -20 0 -21 4 -3 c4 -3 4 -4 4 -8 0 -4 0 -5 4 -8 4
-3 4 -4 4 -8 0 -6 10 -16 16 -16 6 0 16 10 16 16 0 4 0 5 4 8 4 3 4 4 4 8 0 4
0 5 4 8 l4 3 0 21 0 20 -6 6 -6 6 -20 0 -20 0 -6 -6z"/></g>
  <g transform="scale(0.125 0.125) translate(0.000000,192.000000) scale(1.000000,-1.000000)" fill="#a8324a" stroke="none"><path d="M42 166 c-1 -1 -2 -3 -2 -4 0 -1 -1 -2 -2 -2 -2 0 -4 -1 -5 -2 -1 -2
-1 -2 1 -4 2 -2 2 -2 4 -1 1 1 2 3 2 5 0 1 1 2 2 2 2 0 4 1 5 2 1 2 1 2 0 4
-3 2 -3 2 -5 0z"/><path d="M138 158 c-2 -2 -2 -2 0 -4 0 -1 2 -2 4 -2 1 0 2 -1 2 -2 0 -2 1 -4
2 -5 2 -1 2 -1 4 1 2 2 2 2 1 4 -1 1 -3 2 -5 2 -1 0 -2 1 -2 2 0 2 -3 6 -4 6
0 0 -2 -1 -2 -2z"/><path d="M66 142 c-1 -1 -2 -3 -2 -4 0 -1 -1 -2 -2 -2 -6 0 -6 -2 -6 -24 0
-22 0 -24 6 -24 2 0 2 0 2 -6 0 -7 2 -10 6 -10 2 0 2 0 2 -6 0 -7 2 -10 6 -10
1 0 2 -1 2 -2 0 -4 3 -6 8 -6 5 0 8 2 8 6 0 1 1 2 2 2 4 0 6 3 6 10 0 6 0 6 2
6 4 0 6 3 6 10 0 6 0 6 2 6 6 0 6 2 6 24 0 22 0 24 -6 24 -1 0 -2 1 -2 2 0 6
-2 6 -24 6 -19 0 -21 0 -22 -2z m4 -8 c2 -1 2 -3 2 -10 0 -9 1 -12 6 -12 1 0
2 1 2 2 0 4 3 6 8 6 3 0 5 1 7 2 1 2 1 2 -3 6 -4 4 -4 4 -3 6 2 2 3 2 13 2
l10 0 0 -24 c0 -24 0 -24 -2 -24 -4 0 -6 -3 -6 -10 0 -6 0 -6 -2 -6 -4 0 -6
-3 -6 -10 l0 -6 -8 0 -8 0 0 6 c0 7 -2 10 -6 10 -2 0 -2 0 -2 6 0 7 -2 10 -6
10 l-2 0 0 24 c0 24 0 24 2 24 1 0 3 -1 4 -2z"/><path d="M80 110 c0 -6 10 -8 15 -4 3 3 -1 6 -9 6 -6 0 -6 0 -6 -2z"/><path d="M82 94 c-3 -3 0 -6 6 -6 6 0 9 3 7 6 -2 1 -4 2 -7 2 -3 0 -5 -1 -6
-2z"/></g>
  <g transform="scale(0.125 0.125) translate(0.000000,192.000000) scale(1.000000,-1.000000)" fill="#d44868" stroke="none"><path d="M42 166 c-1 -1 -2 -3 -2 -4 0 -1 -1 -2 -2 -2 -2 0 -4 -1 -5 -2 -1 -2
-1 -2 1 -4 2 -2 2 -2 4 -1 1 1 2 3 2 5 0 1 1 2 2 2 2 0 4 1 5 2 1 2 1 2 0 4
-3 2 -3 2 -5 0z"/><path d="M138 158 c-2 -2 -2 -2 0 -4 0 -1 2 -2 4 -2 1 0 2 -1 2 -2 0 -2 1 -4
2 -5 2 -1 2 -1 4 1 2 2 2 2 1 4 -1 1 -3 2 -5 2 -1 0 -2 1 -2 2 0 2 -3 6 -4 6
0 0 -2 -1 -2 -2z"/><path d="M74 134 c-2 -1 -2 -4 -2 -10 0 -9 1 -12 6 -12 1 0 2 -1 2 -2 0 -6 10
-8 15 -4 3 3 -1 6 -9 6 -6 0 -6 0 -6 2 0 4 3 6 8 6 3 0 5 1 6 2 2 2 2 2 -4 8
-5 6 -6 6 -10 6 -3 0 -5 -1 -6 -2z"/><path d="M82 94 c-3 -3 0 -6 6 -6 6 0 9 3 7 6 -2 1 -4 2 -7 2 -3 0 -5 -1 -6
-2z"/></g>
  <g transform="scale(0.125 0.125) translate(0.000000,192.000000) scale(1.000000,-1.000000)" fill="#f7eede" stroke="none"><path d="M42 166 c-1 -1 -2 -3 -2 -4 0 -1 -1 -2 -2 -2 -2 0 -4 -1 -5 -2 -1 -2
-1 -2 1 -4 2 -2 2 -2 4 -1 1 1 2 3 2 5 0 1 1 2 2 2 2 0 4 1 5 2 1 2 1 2 0 4
-3 2 -3 2 -5 0z"/><path d="M138 158 c-2 -2 -2 -2 0 -4 0 -1 2 -2 4 -2 1 0 2 -1 2 -2 0 -2 1 -4
2 -5 2 -1 2 -1 4 1 2 2 2 2 1 4 -1 1 -3 2 -5 2 -1 0 -2 1 -2 2 0 2 -3 6 -4 6
0 0 -2 -1 -2 -2z"/><path d="M74 134 c-3 -3 -3 -18 0 -20 3 -3 6 0 6 6 0 4 0 5 4 8 4 4 4 4 3 6
-3 3 -11 3 -13 0z"/></g>
  <g transform="scale(0.125 0.125) translate(0.000000,192.000000) scale(1.000000,-1.000000)" fill="#ffb0c4" stroke="none"><path d="M74 134 c-3 -3 -3 -18 0 -20 3 -3 6 0 6 6 0 4 0 5 4 8 4 4 4 4 3 6
-3 3 -11 3 -13 0z"/></g>
</svg>
