<?xml version="1.0" encoding="UTF-8"?>
<svg xmlns="http://www.w3.org/2000/svg" viewBox="0 0 24 24" width="24" height="24">
  <g transform="scale(0.125 0.125) translate(0.000000,192.000000) scale(1.000000,-1.000000)" fill="#e84a7b" stroke="none"><path d="M34 142 c-1 -1 -2 -3 -2 -6 0 -4 0 -5 -4 -8 l-4 -3 0 -21 0 -21 4 -3
c4 -3 4 -4 4 -8 0 -6 2 -8 8 -8 6 0 8 -2 8 -8 0 -6 2 -8 8 -8 6 0 8 -2 8 -8 0
-6 2 -8 8 -8 6 0 8 -2 8 -8 0 -7 1 -8 16 -8 15 0 16 1 16 8 0 6 2 8 8 8 6 0 8
2 8 8 0 6 2 8 8 8 6 0 8 2 8 8 0 6 2 8 8 8 6 0 8 2 8 8 0 4 0 5 4 8 l4 3 0 21
0 21 -4 3 c-4 3 -4 4 -4 8 0 8 0 8 -24 8 -24 0 -24 0 -24 -8 0 -4 0 -5 -4 -8
l-4 -3 0 -9 c0 -10 -1 -12 -8 -12 -7 0 -8 2 -8 12 l0 9 -4 3 c-4 3 -4 4 -4 8
0 8 0 8 -24 8 -19 0 -21 0 -22 -2z"/></g>
  <g transform="scale(0.125 0.125) translate(0.000000,192.000000) scale(1.000000,-1.000000)" fill="#ffb0c8" stroke="none"><path d="M42 126 c-1 -1 -2 -3 -2 -6 0 -4 0 -5 4 -8 4 -3 4 -4 4 -8 0 -6 2 -8
8 -8 7 0 8 1 8 16 0 16 0 16 -12 16 -7 0 -9 0 -10 -2z"/></g>
</svg>
