<?xml version="1.0" encoding="UTF-8"?>
<svg xmlns="http://www.w3.org/2000/svg" viewBox="0 0 24 24" width="24" height="24">
  <g transform="scale(0.125 0.125) translate(0.000000,192.000000) scale(1.000000,-1.000000)" fill="#f8eea3" stroke="none"><path d="M64 164 c-3 -4 -4 -4 -8 -4 -6 0 -8 -2 -8 -8 0 -4 0 -5 -4 -8 -4 -3
-4 -4 -4 -8 0 -4 0 -5 -4 -8 l-4 -3 0 -17 0 -17 4 -3 4 -3 0 -9 0 -8 8 -8 c8
-7 8 -8 8 -12 0 -8 1 -8 20 -8 20 0 20 0 20 12 0 11 1 12 12 12 8 0 9 0 11 2
1 2 1 2 -3 6 -4 3 -4 4 -4 8 0 4 0 5 -8 12 -8 7 -8 8 -8 12 0 4 0 5 10 14 10
10 10 10 12 8 2 -1 2 -3 2 -10 0 -7 0 -9 2 -10 2 -2 2 -2 4 0 2 1 2 3 2 18 l0
17 -4 3 c-4 3 -4 4 -4 8 0 6 -2 8 -8 8 -4 0 -5 0 -8 4 l-3 4 -17 0 -17 0 -3
-4z"/><path d="M145 150 c-1 -2 -1 -2 1 -4 l2 -2 2 2 c2 2 2 2 1 4 -1 1 -3 2 -3 2 0
0 -2 -1 -3 -2z"/><path d="M161 118 c-1 -2 -1 -2 1 -4 l2 -2 2 2 c2 2 2 2 1 4 -1 1 -3 2 -3 2 0
0 -2 -1 -3 -2z"/><path d="M153 70 c-1 -2 -1 -2 1 -4 l2 -2 2 2 c2 2 2 2 1 4 -1 1 -3 2 -3 2 0
0 -2 -1 -3 -2z"/></g>
  <g transform="scale(0.125 0.125) translate(0.000000,192.000000) scale(1.000000,-1.000000)" fill="#8a7a3a" stroke="none"><path d="M66 166 c-1 -1 -2 -3 -2 -4 0 -2 0 -2 -6 -2 -9 0 -10 -1 -10 -10 0
-6 0 -6 -2 -6 -4 0 -6 -3 -6 -8 0 -4 0 -5 -4 -8 l-4 -3 0 -17 c0 -18 1 -20 6
-20 2 0 2 0 2 -10 l0 -10 6 -6 c3 -4 7 -6 8 -6 2 0 2 -1 2 -6 0 -10 0 -10 20
-10 20 0 20 0 20 12 0 7 0 9 -2 11 -3 2 -6 -1 -6 -7 0 -6 -2 -8 -8 -8 -4 0 -5
0 -8 4 -3 4 -3 4 -10 4 l-6 0 0 6 c0 7 0 7 -4 10 -4 3 -4 4 -4 8 0 5 -2 8 -6
8 -2 0 -2 0 -2 14 l0 15 4 3 4 3 0 11 c0 9 0 10 2 10 3 0 14 11 14 14 0 2 0 2
20 2 l20 0 0 -6 c0 -6 0 -7 4 -10 l5 -4 -9 -8 -8 -8 0 -6 0 -6 -10 0 c-13 0
-14 -1 -14 -8 0 -7 2 -8 14 -8 10 0 10 0 10 -2 0 -3 3 -6 6 -6 1 0 2 -1 2 -2
0 -2 1 -4 2 -5 2 -1 2 -1 4 1 2 2 2 2 1 4 -1 1 -3 2 -5 2 -1 0 -2 1 -2 2 0 3
-3 6 -6 6 -2 0 -2 0 -2 8 0 8 0 8 2 8 2 0 5 3 10 8 8 8 8 8 10 7 2 -2 2 -4 2
-11 0 -7 0 -9 2 -10 2 -2 2 -2 4 0 2 1 2 3 2 18 l0 17 -4 3 c-4 3 -4 4 -4 8 0
6 -2 8 -10 8 -6 0 -6 0 -6 2 0 5 -2 6 -20 6 -15 0 -17 0 -18 -2z"/><path d="M145 150 c-1 -2 -1 -2 1 -4 l2 -2 2 2 c2 2 2 2 1 4 -1 1 -3 2 -3 2 0
0 -2 -1 -3 -2z"/><path d="M74 134 c-3 -3 0 -6 6 -6 3 0 5 1 7 2 2 3 -1 6 -7 6 -3 0 -5 -1 -6
-2z"/><path d="M161 118 c-1 -2 -1 -2 1 -4 l2 -2 2 2 c2 2 2 2 1 4 -1 1 -3 2 -3 2 0
0 -2 -1 -3 -2z"/><path d="M82 78 c-3 -3 0 -6 6 -6 6 0 9 3 7 6 -2 1 -4 2 -7 2 -3 0 -5 -1 -6
-2z"/><path d="M113 70 c-1 -2 -1 -2 1 -4 l2 -2 2 2 c2 2 2 2 1 4 -1 1 -3 2 -3 2 0
0 -2 -1 -3 -2z"/><path d="M153 70 c-1 -2 -1 -2 1 -4 l2 -2 2 2 c2 2 2 2 1 4 -1 1 -3 2 -3 2 0
0 -2 -1 -3 -2z"/></g>
  <g transform="scale(0.125 0.125) translate(0.000000,192.000000) scale(1.000000,-1.000000)" fill="#d6c87a" stroke="none"><path d="M145 150 c-1 -2 -1 -2 1 -4 l2 -2 2 2 c2 2 2 2 1 4 -1 1 -3 2 -3 2 0
0 -2 -1 -3 -2z"/><path d="M74 134 c-3 -3 0 -6 6 -6 3 0 5 1 7 2 2 3 -1 6 -7 6 -3 0 -5 -1 -6
-2z"/><path d="M161 118 c-1 -2 -1 -2 1 -4 l2 -2 2 2 c2 2 2 2 1 4 -1 1 -3 2 -3 2 0
0 -2 -1 -3 -2z"/><path d="M74 110 c-3 -2 -3 -10 0 -12 2 -3 10 -3 12 0 3 2 3 10 0 12 -2 3 -10
3 -12 0z"/><path d="M82 78 c-3 -3 0 -6 6 -6 6 0 9 3 7 6 -2 1 -4 2 -7 2 -3 0 -5 -1 -6
-2z"/><path d="M153 70 c-1 -2 -1 -2 1 -4 l2 -2 2 2 c2 2 2 2 1 4 -1 1 -3 2 -3 2 0
0 -2 -1 -3 -2z"/></g>
  <g transform="scale(0.125 0.125) translate(0.000000,192.000000) scale(1.000000,-1.000000)" fill="#fff8c2" stroke="none"><path d="M145 150 c-1 -2 -1 -2 1 -4 l2 -2 2 2 c2 2 2 2 1 4 -1 1 -3 2 -3 2 0
0 -2 -1 -3 -2z"/><path d="M161 118 c-1 -2 -1 -2 1 -4 l2 -2 2 2 c2 2 2 2 1 4 -1 1 -3 2 -3 2 0
0 -2 -1 -3 -2z"/><path d="M153 70 c-1 -2 -1 -2 1 -4 l2 -2 2 2 c2 2 2 2 1 4 -1 1 -3 2 -3 2 0
0 -2 -1 -3 -2z"/></g>
</svg>
