<?xml version="1.0" encoding="UTF-8"?>
<svg xmlns="http://www.w3.org/2000/svg" viewBox="0 0 24 24" width="24" height="24">
  <g transform="scale(0.125 0.125) translate(0.000000,192.000000) scale(1.000000,-1.000000)" fill="#ffd84d" stroke="none"><path d="M90 174 c-2 -1 -2 -5 -2 -30 l0 -28 -6 -6 -6 -6 -28 0 c-33 0 -32 0
-32 -8 0 -8 0 -8 32 -8 l28 0 6 -6 6 -6 0 -28 c0 -33 0 -32 8 -32 8 0 8 0 8
32 l0 28 6 6 6 6 28 0 c33 0 32 0 32 8 0 8 0 8 -32 8 l-28 0 -6 6 -6 6 0 28
c0 27 0 29 -2 30 -2 3 -10 3 -12 0z"/><path d="M58 134 c-3 -2 -3 -10 0 -12 2 -3 10 -3 12 0 3 2 3 10 0 12 -2 3 -10
3 -12 0z"/><path d="M122 134 c-3 -2 -3 -10 0 -12 2 -3 10 -3 12 0 3 2 3 10 0 12 -2 3
-10 3 -12 0z"/><path d="M58 70 c-3 -2 -3 -10 0 -12 2 -3 10 -3 12 0 3 2 3 10 0 12 -2 3 -10
3 -12 0z"/><path d="M122 70 c-3 -2 -3 -10 0 -12 2 -3 10 -3 12 0 3 2 3 10 0 12 -2 3 -10
3 -12 0z"/></g>
  <g transform="scale(0.125 0.125) translate(0.000000,192.000000) scale(1.000000,-1.000000)" fill="#fff2a0" stroke="none"><path d="M90 150 c-2 -1 -2 -4 -2 -18 l0 -16 -6 -6 -6 -6 -16 0 c-19 0 -20 0
-20 -8 0 -8 1 -8 20 -8 l16 0 6 -6 6 -6 0 -16 c0 -19 0 -20 8 -20 8 0 8 1 8
20 l0 16 6 6 6 6 16 0 c19 0 20 0 20 8 0 8 -1 8 -20 8 l-16 0 -6 6 -6 6 0 16
c0 15 0 17 -2 18 -2 3 -10 3 -12 0z"/></g>
  <g transform="scale(0.125 0.125) translate(0.000000,192.000000) scale(1.000000,-1.000000)" fill="#ffffff" stroke="none"><path d="M82 110 c-3 -3 -3 -26 0 -28 3 -3 26 -3 28 0 3 3 3 26 0 28 -3 3 -26
3 -28 0z"/></g>
</svg>
