<?xml version="1.0" encoding="UTF-8"?>
<svg xmlns="http://www.w3.org/2000/svg" viewBox="0 0 24 24" width="24" height="24">
  <g transform="scale(0.125 0.125) translate(0.000000,192.000000) scale(1.000000,-1.000000)" fill="#ff8c2a" stroke="none"><path d="M88 190 c0 -4 -3 -6 -8 -6 -4 0 -5 0 -8 -4 -3 -4 -4 -4 -8 -4 -4 0
-5 0 -8 -4 -3 -4 -4 -4 -8 -4 -4 0 -4 0 -14 -10 -10 -10 -10 -10 -10 -14 0 -4
0 -5 -4 -8 -4 -3 -4 -4 -4 -8 0 -4 0 -5 -4 -8 -4 -3 -4 -4 -4 -8 0 -5 -2 -8
-6 -8 -2 0 -2 0 -2 -8 0 -8 0 -8 2 -8 4 0 6 -3 6 -8 0 -4 0 -5 4 -8 4 -3 4 -4
4 -8 0 -4 0 -5 4 -8 4 -3 4 -4 4 -8 0 -4 0 -4 10 -14 10 -10 10 -10 14 -10 4
0 5 0 8 -4 3 -4 4 -4 8 -4 4 0 5 0 8 -4 3 -4 4 -4 8 -4 5 0 8 -2 8 -6 0 -2 0
-2 8 -2 8 0 8 0 8 2 0 4 3 6 8 6 4 0 5 0 8 4 3 4 4 4 8 4 4 0 5 0 8 4 3 4 4 4
8 4 4 0 4 0 14 10 10 10 10 10 10 14 0 4 0 5 4 8 4 3 4 4 4 8 0 4 0 5 4 8 4 3
4 4 4 8 0 5 2 8 6 8 2 0 2 0 2 8 0 8 0 8 -2 8 -4 0 -6 3 -6 8 0 4 0 5 -4 8 -4
3 -4 4 -4 8 0 4 0 5 -4 8 -4 3 -4 4 -4 8 0 4 0 4 -10 14 -10 10 -10 10 -14 10
-4 0 -5 0 -8 4 -3 4 -4 4 -8 4 -4 0 -5 0 -8 4 -3 4 -4 4 -8 4 -5 0 -8 2 -8 6
0 2 0 2 -8 2 -8 0 -8 0 -8 -2z m0 -26 c3 -4 4 -4 8 -4 4 0 5 0 8 4 3 4 4 4 8
4 4 0 5 0 8 -4 3 -4 4 -4 8 -4 4 0 4 0 18 -14 14 -14 14 -14 14 -18 0 -4 0 -5
4 -8 4 -3 4 -4 4 -8 0 -4 0 -5 -4 -8 -4 -3 -4 -4 -4 -8 0 -4 0 -5 4 -8 4 -3 4
-4 4 -8 0 -4 0 -5 -4 -8 -4 -3 -4 -4 -4 -8 0 -4 0 -4 -14 -18 -14 -14 -14 -14
-18 -14 -4 0 -5 0 -8 -4 -3 -4 -4 -4 -8 -4 -4 0 -5 0 -8 4 -3 4 -4 4 -8 4 -4
0 -5 0 -8 -4 -3 -4 -4 -4 -8 -4 -4 0 -5 0 -8 4 -3 4 -4 4 -8 4 -4 0 -4 0 -18
14 -14 14 -14 14 -14 18 0 4 0 5 -4 8 -6 5 -6 11 0 16 4 3 4 4 4 8 0 4 0 5 -4
8 -4 3 -4 4 -4 8 0 4 0 5 4 8 4 3 4 4 4 8 0 4 0 4 14 18 14 14 14 14 18 14 4
0 5 0 8 4 3 4 4 4 8 4 4 0 5 0 8 -4z"/><path d="M80 140 c-3 -4 -4 -4 -8 -4 -4 0 -5 0 -10 -6 -6 -5 -6 -6 -6 -10 0
-4 0 -5 -4 -8 l-4 -3 0 -13 0 -13 4 -3 c4 -3 4 -4 4 -8 0 -4 0 -5 6 -10 5 -6
6 -6 10 -6 4 0 5 0 8 -4 l3 -4 13 0 13 0 3 4 c3 4 4 4 8 4 6 0 16 10 16 16 0
4 0 5 4 8 l4 3 0 13 0 13 -4 3 c-4 3 -4 4 -4 8 0 4 0 5 -6 10 -5 6 -6 6 -10 6
-4 0 -5 0 -8 4 l-3 4 -13 0 -13 0 -3 -4z m38 -22 l10 -10 0 -12 0 -12 -10 -10
-10 -10 -12 0 -12 0 -10 10 -10 10 0 12 0 12 10 10 10 10 12 0 12 0 10 -10z"/><path d="M90 102 c-3 -2 -3 -10 0 -12 2 -3 10 -3 12 0 3 2 3 10 0 12 -2 3 -10
3 -12 0z"/></g>
  <g transform="scale(0.125 0.125) translate(0.000000,192.000000) scale(1.000000,-1.000000)" fill="#ff8c2b" stroke="none"><path d="M74 182 c-3 -3 0 -6 6 -6 3 0 5 1 7 2 2 3 -1 6 -7 6 -3 0 -5 -1 -6
-2z"/><path d="M106 182 c-3 -3 0 -6 6 -6 3 0 5 1 7 2 2 3 -1 6 -7 6 -3 0 -5 -1 -6
-2z"/><path d="M129 174 c-1 -2 -1 -2 1 -4 l2 -2 2 2 c2 2 2 2 1 4 -1 1 -3 2 -3 2 0
0 -2 -1 -3 -2z"/><path d="M42 166 c-1 -1 -2 -3 -2 -4 0 -1 -1 -2 -2 -2 -3 0 -6 -3 -6 -6 0 -1
-1 -2 -2 -2 -2 0 -4 -1 -5 -2 -1 -2 -1 -2 1 -4 2 -2 2 -2 4 -1 1 1 2 3 2 5 0
2 0 2 4 2 4 0 4 0 4 -2 0 -2 1 -4 2 -5 2 -1 2 -1 4 1 2 2 2 2 1 4 -1 1 -3 2
-5 2 -2 0 -2 0 -2 4 0 4 0 4 2 4 2 0 4 1 5 2 1 2 1 2 0 4 -3 2 -3 2 -5 0z"/><path d="M65 166 c-1 -2 -1 -2 1 -4 l2 -2 2 2 c2 2 2 2 1 4 -1 1 -3 2 -3 2 0
0 -2 -1 -3 -2z"/><path d="M146 166 c-2 -2 -2 -2 0 -4 0 -1 2 -2 4 -2 1 0 2 -1 2 -2 0 -2 1 -4
2 -5 2 -1 2 -1 4 1 2 2 2 2 1 4 -1 1 -3 2 -5 2 -1 0 -2 1 -2 2 0 2 -3 6 -4 6
0 0 -2 -1 -2 -2z"/><path d="M169 134 c-1 -2 -1 -2 1 -4 l2 -2 2 2 c2 2 2 2 1 4 -1 1 -3 2 -3 2 0
0 -2 -1 -3 -2z"/><path d="M25 126 c-1 -2 -1 -2 1 -4 l2 -2 2 2 c2 2 2 2 1 4 -1 1 -3 2 -3 2 0
0 -2 -1 -3 -2z"/><path d="M113 126 c-1 -2 -1 -2 1 -4 l2 -2 2 2 c2 2 2 2 1 4 -1 1 -3 2 -3 2 0
0 -2 -1 -3 -2z"/><path d="M9 118 c-1 -2 -1 -2 1 -4 l2 -2 2 2 c2 2 2 2 1 4 -1 1 -3 2 -3 2 0 0
-2 -1 -3 -2z"/><path d="M178 118 c-3 -3 -3 -10 0 -12 3 -3 6 0 6 6 0 7 -3 10 -6 6z"/><path d="M178 86 c-3 -3 -3 -10 0 -12 3 -3 6 0 6 6 0 7 -3 10 -6 6z"/><path d="M65 78 c-1 -2 -1 -2 1 -4 l2 -2 2 2 c2 2 2 2 1 4 -1 1 -3 2 -3 2 0 0
-2 -1 -3 -2z"/><path d="M130 70 c-1 -1 -2 -3 -2 -4 0 -1 -1 -2 -2 -2 -2 0 -4 -1 -5 -2 -1 -2
-1 -2 1 -4 2 -2 2 -2 4 -1 1 1 2 3 2 5 0 1 1 2 2 2 2 0 4 1 5 2 1 2 1 2 0 4
-3 2 -3 2 -5 0z"/><path d="M17 62 c-1 -2 -1 -2 1 -4 l2 -2 2 2 c2 2 2 2 1 4 -1 1 -3 2 -3 2 0 0
-2 -1 -3 -2z"/><path d="M34 54 c-1 -1 -2 -3 -2 -4 0 -1 -1 -2 -2 -2 -2 0 -4 -1 -4 -2 -2 -2
-2 -2 -1 -4 1 -1 3 -2 5 -2 1 0 2 -1 2 -2 0 -2 1 -4 2 -5 2 -1 2 -1 4 1 2 2 2
2 1 4 -1 1 -3 2 -5 2 -2 0 -2 0 -2 4 0 4 0 4 2 4 2 0 4 1 5 2 1 2 1 2 0 4 -3
2 -3 2 -5 0z"/><path d="M105 54 c-1 -2 -1 -2 1 -4 l2 -2 2 2 c2 2 2 2 1 4 -1 1 -3 2 -3 2 0
0 -2 -1 -3 -2z"/><path d="M145 46 c-1 -2 -1 -2 1 -4 l2 -2 2 2 c2 2 2 2 1 4 -1 1 -3 2 -3 2 0
0 -2 -1 -3 -2z"/><path d="M57 22 c-1 -2 -1 -2 1 -4 l2 -2 2 2 c2 2 2 2 1 4 -1 1 -3 2 -3 2 0 0
-2 -1 -3 -2z"/><path d="M73 14 c-1 -2 -1 -2 1 -4 l2 -2 2 2 c2 2 2 2 1 4 -1 1 -3 2 -3 2 0 0
-2 -1 -3 -2z"/><path d="M113 14 c-1 -2 -1 -2 1 -4 l2 -2 2 2 c2 2 2 2 1 4 -1 1 -3 2 -3 2 0
0 -2 -1 -3 -2z"/></g>
  <g transform="scale(0.125 0.125) translate(0.000000,192.000000) scale(1.000000,-1.000000)" fill="#ff8d2a" stroke="none"><path d="M73 182 c-1 -2 -1 -2 1 -4 l2 -2 2 2 c2 2 2 2 1 4 -1 1 -3 2 -3 2 0
0 -2 -1 -3 -2z"/><path d="M113 182 c-1 -2 -1 -2 1 -4 l2 -2 2 2 c2 2 2 2 1 4 -1 1 -3 2 -3 2 0
0 -2 -1 -3 -2z"/><path d="M41 150 c-1 -2 -1 -2 1 -4 l2 -2 2 2 c2 2 2 2 1 4 -1 1 -3 2 -3 2 0
0 -2 -1 -3 -2z"/><path d="M9 118 c-1 -2 -1 -2 1 -4 l2 -2 2 2 c2 2 2 2 1 4 -1 1 -3 2 -3 2 0 0
-2 -1 -3 -2z"/><path d="M177 118 c-1 -2 -1 -2 1 -4 l2 -2 2 2 c2 2 2 2 1 4 -1 1 -3 2 -3 2 0
0 -2 -1 -3 -2z"/><path d="M177 78 c-1 -2 -1 -2 1 -4 l2 -2 2 2 c2 2 2 2 1 4 -1 1 -3 2 -3 2 0
0 -2 -1 -3 -2z"/><path d="M130 70 c-1 -1 -2 -3 -2 -4 0 -1 -1 -2 -2 -2 -2 0 -4 -1 -5 -2 -1 -2
-1 -2 1 -4 2 -2 2 -2 4 -1 1 1 2 3 2 5 0 1 1 2 2 2 2 0 4 1 5 2 1 2 1 2 0 4
-3 2 -3 2 -5 0z"/><path d="M25 46 c-1 -2 -1 -2 1 -4 l2 -2 2 2 c2 2 2 2 1 4 -1 1 -3 2 -3 2 0 0
-2 -1 -3 -2z"/><path d="M145 46 c-1 -2 -1 -2 1 -4 l2 -2 2 2 c2 2 2 2 1 4 -1 1 -3 2 -3 2 0
0 -2 -1 -3 -2z"/><path d="M73 14 c-1 -2 -1 -2 1 -4 l2 -2 2 2 c2 2 2 2 1 4 -1 1 -3 2 -3 2 0 0
-2 -1 -3 -2z"/><path d="M113 14 c-1 -2 -1 -2 1 -4 l2 -2 2 2 c2 2 2 2 1 4 -1 1 -3 2 -3 2 0
0 -2 -1 -3 -2z"/></g>
  <g transform="scale(0.125 0.125) translate(0.000000,192.000000) scale(1.000000,-1.000000)" fill="#ff8d2b" stroke="none"><path d="M41 150 c-1 -2 -1 -2 1 -4 l2 -2 2 2 c2 2 2 2 1 4 -1 1 -3 2 -3 2 0
0 -2 -1 -3 -2z"/><path d="M177 118 c-1 -2 -1 -2 1 -4 l2 -2 2 2 c2 2 2 2 1 4 -1 1 -3 2 -3 2 0
0 -2 -1 -3 -2z"/><path d="M177 78 c-1 -2 -1 -2 1 -4 l2 -2 2 2 c2 2 2 2 1 4 -1 1 -3 2 -3 2 0
0 -2 -1 -3 -2z"/><path d="M25 46 c-1 -2 -1 -2 1 -4 l2 -2 2 2 c2 2 2 2 1 4 -1 1 -3 2 -3 2 0 0
-2 -1 -3 -2z"/><path d="M73 14 c-1 -2 -1 -2 1 -4 l2 -2 2 2 c2 2 2 2 1 4 -1 1 -3 2 -3 2 0 0
-2 -1 -3 -2z"/><path d="M113 14 c-1 -2 -1 -2 1 -4 l2 -2 2 2 c2 2 2 2 1 4 -1 1 -3 2 -3 2 0
0 -2 -1 -3 -2z"/></g>
  <g transform="scale(0.125 0.125) translate(0.000000,192.000000) scale(1.000000,-1.000000)" fill="#ff8b2b" stroke="none"><path d="M41 150 c-1 -2 -1 -2 1 -4 l2 -2 2 2 c2 2 2 2 1 4 -1 1 -3 2 -3 2 0
0 -2 -1 -3 -2z"/><path d="M177 78 c-1 -2 -1 -2 1 -4 l2 -2 2 2 c2 2 2 2 1 4 -1 1 -3 2 -3 2 0
0 -2 -1 -3 -2z"/><path d="M25 46 c-1 -2 -1 -2 1 -4 l2 -2 2 2 c2 2 2 2 1 4 -1 1 -3 2 -3 2 0 0
-2 -1 -3 -2z"/></g>
  <g transform="scale(0.125 0.125) translate(0.000000,192.000000) scale(1.000000,-1.000000)" fill="#ff8c29" stroke="none"><path d="M177 78 c-1 -2 -1 -2 1 -4 l2 -2 2 2 c2 2 2 2 1 4 -1 1 -3 2 -3 2 0
0 -2 -1 -3 -2z"/><path d="M25 46 c-1 -2 -1 -2 1 -4 l2 -2 2 2 c2 2 2 2 1 4 -1 1 -3 2 -3 2 0 0
-2 -1 -3 -2z"/></g>
  <g transform="scale(0.125 0.125) translate(0.000000,192.000000) scale(1.000000,-1.000000)" fill="#ff8b29" stroke="none"><path d="M25 46 c-1 -2 -1 -2 1 -4 l2 -2 2 2 c2 2 2 2 1 4 -1 1 -3 2 -3 2 0 0
-2 -1 -3 -2z"/></g>
</svg>
