<?xml version="1.0" encoding="UTF-8"?>
<svg xmlns="http://www.w3.org/2000/svg" viewBox="0 0 24 24" shape-rendering="crispEdges">
<!-- Pixel-art thought bubble with a small food-bowl icon inside, used to
     telegraph hunger before the EAT activity. The two tiny dots below the
     bubble are the classic "thought trail" connecting back to the pet. -->
<!-- Bubble outline (dark grey) -->
<rect x="6"  y="2"  width="12" height="1" fill="#3a3a3a"/>
<rect x="4"  y="3"  width="2"  height="1" fill="#3a3a3a"/>
<rect x="18" y="3"  width="2"  height="1" fill="#3a3a3a"/>
<rect x="3"  y="4"  width="1"  height="6" fill="#3a3a3a"/>
<rect x="20" y="4"  width="1"  height="6" fill="#3a3a3a"/>
<rect x="4"  y="10" width="2"  height="1" fill="#3a3a3a"/>
<rect x="18" y="10" width="2"  height="1" fill="#3a3a3a"/>
<rect x="6"  y="11" width="12" height="1" fill="#3a3a3a"/>
<!-- Bubble fill (white) -->
<rect x="6"  y="3"  width="12" height="1" fill="#ffffff"/>
<rect x="4"  y="4"  width="16" height="6" fill="#ffffff"/>
<rect x="6"  y="10" width="12" height="1" fill="#ffffff"/>
<!-- Two trailing dots toward the pet (lower-right corner) -->
<rect x="16" y="14" width="2" height="2" fill="#3a3a3a"/>
<rect x="16" y="14" width="1" height="1" fill="#ffffff"/>
<rect x="19" y="17" width="3" height="3" fill="#3a3a3a"/>
<rect x="19" y="17" width="1" height="1" fill="#ffffff"/>
<!-- Food bowl inside the bubble (mini version of prop/food). -->
<!-- Bowl rim and body -->
<rect x="7"  y="6"  width="10" height="1" fill="#7a4f17"/>
<rect x="6"  y="7"  width="12" height="1" fill="#b0772a"/>
<rect x="7"  y="8"  width="10" height="1" fill="#b0772a"/>
<rect x="8"  y="9"  width="8"  height="1" fill="#7a4f17"/>
<!-- Kibbles peeking above the rim -->
<rect x="9"  y="5"  width="2" height="1" fill="#5c3210"/>
<rect x="12" y="5"  width="1" height="1" fill="#5c3210"/>
<rect x="14" y="5"  width="2" height="1" fill="#5c3210"/>
</svg>
