<?xml version="1.0" encoding="UTF-8"?>
<svg xmlns="http://www.w3.org/2000/svg" viewBox="0 0 24 24" width="24" height="24">
  <g transform="scale(0.125 0.125) translate(0.000000,192.000000) scale(1.000000,-1.000000)" fill="#ffffff" stroke="none"><path d="M48 172 c-3 -4 -4 -4 -8 -4 -4 0 -5 0 -10 -6 l-6 -6 0 -20 0 -20 6
-6 c5 -6 6 -6 10 -6 4 0 5 0 8 -4 l3 -4 45 0 45 0 3 4 c3 4 4 4 8 4 4 0 5 0
10 6 l6 6 0 20 0 20 -6 6 c-5 6 -6 6 -10 6 -4 0 -5 0 -8 4 l-3 4 -45 0 -45 0
-3 -4z"/><path d="M130 78 c-3 -2 -3 -10 0 -12 2 -3 10 -3 12 0 3 2 3 10 0 12 -2 3 -10
3 -12 0z"/><path d="M154 54 c-3 -3 -3 -18 0 -20 3 -3 18 -3 20 0 3 3 3 18 0 20 -3 3 -18
3 -20 0z"/></g>
  <g transform="scale(0.125 0.125) translate(0.000000,192.000000) scale(1.000000,-1.000000)" fill="#3a3a3a" stroke="none"><path d="M50 174 c-1 -1 -2 -3 -2 -4 0 -2 0 -2 -6 -2 -7 0 -10 -2 -10 -6 0 -1
-1 -2 -2 -2 -6 0 -6 -2 -6 -24 0 -22 0 -24 6 -24 1 0 2 -1 2 -2 0 -4 3 -6 10
-6 6 0 6 0 6 -2 0 -6 0 -6 48 -6 49 0 48 0 48 6 0 2 0 2 6 2 7 0 10 2 10 6 0
1 1 2 2 2 6 0 6 2 6 24 0 22 0 24 -6 24 -1 0 -2 1 -2 2 0 4 -3 6 -10 6 -6 0
-6 0 -6 2 0 6 0 6 -48 6 -42 0 -45 0 -46 -2z m94 -8 c0 -4 3 -6 10 -6 l6 0 0
-24 0 -24 -6 0 c-7 0 -10 -2 -10 -6 l0 -2 -18 0 c-17 0 -19 0 -21 2 -1 2 -1 2
7 10 8 7 8 8 8 12 0 4 0 5 -4 8 -4 3 -4 4 -4 8 0 6 -10 16 -16 16 -6 0 -16
-10 -16 -16 0 -4 0 -5 -4 -8 -4 -3 -4 -4 -4 -8 0 -4 0 -5 8 -12 8 -8 8 -8 7
-10 -2 -2 -4 -2 -21 -2 -18 0 -18 0 -18 2 0 4 -3 6 -10 6 l-6 0 0 24 0 24 6 0
c7 0 10 2 10 6 l0 2 48 0 48 0 0 -2z"/><path d="M134 74 c-6 -6 -6 -6 -4 -8 2 -3 10 -3 12 0 3 2 3 10 0 12 -2 2 -2 3
-8 -4z"/><path d="M158 50 c-5 -5 -6 -6 -6 -10 0 -7 2 -8 12 -8 11 0 12 1 12 12 0 10
-1 12 -8 12 -4 0 -5 -1 -10 -6z"/></g>
  <g transform="scale(0.125 0.125) translate(0.000000,192.000000) scale(1.000000,-1.000000)" fill="#1e6fb0" stroke="none"><path d="M86 154 c-6 -5 -6 -6 -6 -10 0 -4 0 -5 -4 -8 -4 -3 -4 -4 -4 -8 0 -4
0 -4 10 -14 14 -14 14 -14 28 0 10 10 10 10 10 14 0 4 0 5 -4 8 -4 3 -4 4 -4
8 0 4 0 5 -6 10 -5 6 -6 6 -10 6 -4 0 -5 -1 -10 -6z"/></g>
  <g transform="scale(0.125 0.125) translate(0.000000,192.000000) scale(1.000000,-1.000000)" fill="#7ec1ee" stroke="none"><path d="M90 150 c-1 -1 -2 -3 -2 -6 0 -4 0 -5 -4 -8 -4 -3 -4 -4 -4 -8 0 -6
10 -16 16 -16 6 0 16 10 16 16 0 4 0 5 -4 8 -4 3 -4 4 -4 8 0 6 -2 8 -8 8 -3
0 -5 -1 -6 -2z"/></g>
  <g transform="scale(0.125 0.125) translate(0.000000,192.000000) scale(1.000000,-1.000000)" fill="#d6ebfa" stroke="none"><path d="M89 134 c-1 -2 -1 -2 1 -4 l2 -2 2 2 c2 2 2 2 1 4 -1 1 -3 2 -3 2 0
0 -2 -1 -3 -2z"/></g>
</svg>
