<?xml version="1.0" encoding="UTF-8"?>
<svg xmlns="http://www.w3.org/2000/svg" viewBox="0 0 24 24" width="24" height="24">
  <g transform="scale(0.125 0.125) translate(0.000000,192.000000) scale(1.000000,-1.000000)" fill="#2c4ab0" stroke="none"><path d="M122 174 c-3 -3 0 -6 6 -6 3 0 5 -1 7 -2 1 -2 1 -2 -7 -10 -8 -8 -8
-8 -7 -10 3 -3 27 -3 30 0 1 2 1 2 -3 6 l-4 4 4 4 c4 3 4 4 4 8 0 7 -1 8 -16
8 -11 0 -13 0 -14 -2z"/><path d="M74 142 c-1 -1 -2 -3 -2 -6 0 -7 2 -8 12 -8 7 0 9 0 10 -2 2 -2 2 -2
-10 -14 -12 -12 -12 -12 -12 -16 0 -8 0 -8 -24 -8 -24 0 -24 0 -24 -8 0 -7 1
-8 16 -8 11 0 13 0 14 -2 2 -2 2 -2 -14 -18 -16 -16 -16 -16 -16 -20 0 -8 0
-8 28 -8 28 0 28 0 28 8 0 7 -1 8 -16 8 -11 0 -13 0 -14 2 -2 2 -2 2 14 18 16
16 16 16 16 20 0 7 1 8 16 8 15 0 16 1 16 8 0 6 -2 8 -8 8 -3 0 -5 1 -7 2 -1
2 -1 2 7 10 l8 8 0 8 c0 12 0 12 -20 12 -15 0 -17 0 -18 -2z"/></g>
  <g transform="scale(0.125 0.125) translate(0.000000,192.000000) scale(1.000000,-1.000000)" fill="#5b78d6" stroke="none"><path d="M82 134 c-2 -2 -2 -2 0 -4 1 -2 3 -2 10 -2 7 0 9 0 11 2 1 2 1 2 0 4
-2 2 -4 2 -11 2 -7 0 -9 0 -10 -2z"/><path d="M82 94 c-2 -2 -2 -2 0 -4 1 -2 3 -2 10 -2 7 0 9 0 11 2 1 2 1 2 0 4
-2 2 -4 2 -11 2 -7 0 -9 0 -10 -2z"/><path d="M34 78 c-2 -2 -2 -2 0 -4 1 -2 3 -2 18 -2 15 0 17 0 19 2 1 2 1 2 0
4 -2 2 -4 2 -19 2 -15 0 -17 0 -18 -2z"/><path d="M34 30 c-2 -2 -2 -2 0 -4 2 -3 34 -3 37 0 1 2 1 2 0 4 -2 2 -4 2 -19
2 -15 0 -17 0 -18 -2z"/></g>
</svg>
