<?xml version="1.0" encoding="UTF-8"?>
<svg xmlns="http://www.w3.org/2000/svg" viewBox="0 0 32 32" shape-rendering="crispEdges">
<rect x="15" y="20" width="4" height="1" fill="#000000"/>
<rect x="10" y="21" width="5" height="1" fill="#000000"/>
<rect x="15" y="21" width="2" height="1" fill="#37446e"/>
<rect x="17" y="21" width="2" height="1" fill="#566a89"/>
<rect x="19" y="21" width="2" height="1" fill="#000000"/>
<rect x="9" y="22" width="1" height="1" fill="#000000"/>
<rect x="10" y="22" width="3" height="1" fill="#37446e"/>
<rect x="13" y="22" width="2" height="1" fill="#158968"/>
<rect x="15" y="22" width="1" height="1" fill="#37446e"/>
<rect x="16" y="22" width="5" height="1" fill="#566a89"/>
<rect x="21" y="22" width="1" height="1" fill="#000000"/>
<rect x="9" y="23" width="1" height="1" fill="#000000"/>
<rect x="10" y="23" width="3" height="1" fill="#37446e"/>
<rect x="13" y="23" width="3" height="1" fill="#158968"/>
<rect x="16" y="23" width="6" height="1" fill="#566a89"/>
<rect x="22" y="23" width="2" height="1" fill="#000000"/>
<rect x="10" y="24" width="6" height="1" fill="#000000"/>
<rect x="16" y="24" width="1" height="1" fill="#37446e"/>
<rect x="17" y="24" width="5" height="1" fill="#566a89"/>
<rect x="22" y="24" width="2" height="1" fill="#222a5c"/>
<rect x="24" y="24" width="3" height="1" fill="#000000"/>
<rect x="16" y="25" width="1" height="1" fill="#000000"/>
<rect x="17" y="25" width="4" height="1" fill="#566a89"/>
<rect x="21" y="25" width="2" height="1" fill="#000000"/>
<rect x="23" y="25" width="4" height="1" fill="#222a5c"/>
<rect x="27" y="25" width="1" height="1" fill="#000000"/>
<rect x="16" y="26" width="1" height="1" fill="#000000"/>
<rect x="17" y="26" width="5" height="1" fill="#566a89"/>
<rect x="22" y="26" width="6" height="1" fill="#000000"/>
<rect x="16" y="27" width="1" height="1" fill="#000000"/>
<rect x="17" y="27" width="1" height="1" fill="#222a5c"/>
<rect x="18" y="27" width="2" height="1" fill="#566a89"/>
<rect x="20" y="27" width="1" height="1" fill="#222a5c"/>
<rect x="21" y="27" width="1" height="1" fill="#566a89"/>
<rect x="22" y="27" width="1" height="1" fill="#000000"/>
<rect x="17" y="28" width="1" height="1" fill="#000000"/>
<rect x="18" y="28" width="1" height="1" fill="#222a5c"/>
<rect x="19" y="28" width="1" height="1" fill="#566a89"/>
<rect x="20" y="28" width="3" height="1" fill="#000000"/>
<rect x="17" y="29" width="1" height="1" fill="#000000"/>
<rect x="18" y="29" width="2" height="1" fill="#222a5c"/>
<rect x="20" y="29" width="1" height="1" fill="#000000"/>
<rect x="17" y="30" width="3" height="1" fill="#000000"/>
</svg>
