<?xml version="1.0" encoding="UTF-8"?>
<svg xmlns="http://www.w3.org/2000/svg" viewBox="0 0 32 32" width="32" height="32">
  <g transform="scale(0.125 0.125) translate(0.000000,256.000000) scale(1.000000,-1.000000)" fill="#000000" stroke="none"><path d="M78 98 c-8 -8 -8 -12 0 -20 5 -6 6 -6 10 -6 4 0 5 0 8 -4 3 -4 4 -4
8 -4 4 0 5 0 10 -6 l6 -6 0 -8 c0 -12 0 -12 16 -12 l13 0 3 4 4 5 8 -9 c7 -8
8 -8 12 -8 6 0 8 2 8 8 0 4 0 5 -4 8 -4 4 -4 4 -3 6 2 1 4 2 7 2 4 0 5 0 8 -4
l3 -4 13 0 c15 0 16 1 16 8 0 6 -10 16 -16 16 -4 0 -5 0 -8 4 -3 4 -4 4 -8 4
-4 0 -5 0 -12 8 -7 8 -8 8 -12 8 -4 0 -5 0 -8 4 l-3 4 -25 0 -25 0 -3 4 -3 4
-9 0 -8 0 -6 -6z"/></g>
  <g transform="scale(0.125 0.125) translate(0.000000,256.000000) scale(1.000000,-1.000000)" fill="#566a89" stroke="none"><path d="M82 94 c-1 -1 -2 -3 -2 -6 0 -6 2 -8 8 -8 4 0 5 0 8 -4 3 -4 4 -4 8
-4 4 0 5 0 8 -4 3 -4 4 -4 8 -4 7 0 8 -2 8 -12 0 -11 1 -12 12 -12 l9 0 3 4 4
5 4 -5 c2 -2 4 -4 6 -4 1 0 2 -1 2 -2 0 -2 1 -4 2 -5 2 -1 2 -1 4 1 2 2 2 2 1
4 -1 1 -3 2 -5 2 -2 0 -2 0 -2 6 0 9 1 10 12 10 l9 0 3 -4 3 -4 9 0 c7 0 9 0
11 2 2 3 -1 6 -7 6 -4 0 -5 0 -8 4 l-3 4 -9 0 c-10 0 -12 1 -12 8 0 6 -2 8 -8
8 -4 0 -5 0 -8 4 l-3 4 -25 0 -25 0 -3 4 -3 4 -9 0 c-7 0 -9 0 -10 -2z"/></g>
  <g transform="scale(0.125 0.125) translate(0.000000,256.000000) scale(1.000000,-1.000000)" fill="#37446e" stroke="none"><path d="M82 94 c-1 -1 -2 -3 -2 -6 0 -6 2 -8 8 -8 4 0 5 0 8 -4 3 -4 4 -4 8
-4 4 0 5 0 8 -4 3 -4 3 -4 10 -4 l6 0 0 -10 c0 -9 0 -11 2 -12 2 -2 2 -2 8 4
3 3 6 7 6 8 0 1 1 2 2 2 2 0 4 1 5 2 1 2 1 2 -1 4 -2 2 -2 2 -4 1 -1 -1 -2 -3
-2 -5 0 -4 -4 -3 -8 2 -2 3 -4 4 -6 4 -2 0 -2 0 -2 6 0 6 0 7 4 10 4 4 4 4 3
6 -2 2 -3 2 -15 2 l-13 0 -3 4 -3 4 -9 0 c-7 0 -9 0 -10 -2z"/><path d="M178 62 c-3 -3 0 -6 6 -6 4 0 5 0 8 -4 l3 -4 9 0 c7 0 9 0 11 2 2 3
-1 6 -7 6 -4 0 -5 0 -8 4 l-3 4 -9 0 c-7 0 -9 0 -10 -2z"/><path d="M162 46 c-2 -2 -2 -2 0 -4 0 -1 2 -2 4 -2 1 0 2 -1 2 -2 0 -2 1 -4 2
-5 2 -1 2 -1 4 1 2 2 2 2 1 4 -1 1 -3 2 -5 2 -1 0 -2 1 -2 2 0 2 -3 6 -4 6 0
0 -2 -1 -2 -2z"/></g>
  <g transform="scale(0.125 0.125) translate(0.000000,256.000000) scale(1.000000,-1.000000)" fill="#222a5c" stroke="none"><path d="M98 78 c-3 -3 0 -6 6 -6 4 0 5 0 8 -4 3 -4 4 -4 8 -4 3 0 5 1 6 2 2
2 2 2 -4 8 l-6 6 -8 0 c-7 0 -9 0 -10 -2z"/><path d="M146 62 c-1 -1 -2 -3 -2 -4 0 -2 0 -2 -6 -2 -8 0 -10 -2 -10 -8 0 -3
1 -5 2 -6 2 -2 2 -2 8 4 3 3 6 7 6 8 0 1 1 2 2 2 2 0 4 1 5 2 1 2 1 2 0 4 -3
2 -3 2 -5 0z"/><path d="M178 62 c-3 -3 0 -6 6 -6 4 0 5 0 8 -4 l3 -4 9 0 c7 0 9 0 11 2 2 3
-1 6 -7 6 -4 0 -5 0 -8 4 l-3 4 -9 0 c-7 0 -9 0 -10 -2z"/><path d="M162 46 c-2 -2 -2 -2 0 -4 0 -1 2 -2 4 -2 1 0 2 -1 2 -2 0 -2 1 -4 2
-5 2 -1 2 -1 4 1 2 2 2 2 1 4 -1 1 -3 2 -5 2 -1 0 -2 1 -2 2 0 2 -3 6 -4 6 0
0 -2 -1 -2 -2z"/></g>
  <g transform="scale(0.125 0.125) translate(0.000000,256.000000) scale(1.000000,-1.000000)" fill="#158968" stroke="none"><path d="M98 78 c-3 -3 0 -6 6 -6 4 0 5 0 8 -4 3 -4 4 -4 8 -4 3 0 5 1 6 2 2
2 2 2 -4 8 l-6 6 -8 0 c-7 0 -9 0 -10 -2z"/><path d="M162 46 c-2 -2 -2 -2 0 -4 0 -1 2 -2 4 -2 1 0 2 -1 2 -2 0 -2 1 -4 2
-5 2 -1 2 -1 4 1 2 2 2 2 1 4 -1 1 -3 2 -5 2 -1 0 -2 1 -2 2 0 2 -3 6 -4 6 0
0 -2 -1 -2 -2z"/></g>
  <g transform="scale(0.125 0.125) translate(0.000000,256.000000) scale(1.000000,-1.000000)" fill="#ab1f65" stroke="none"><path d="M162 46 c-2 -2 -2 -2 0 -4 0 -1 2 -2 4 -2 1 0 2 -1 2 -2 0 -2 1 -4 2
-5 2 -1 2 -1 4 1 2 2 2 2 1 4 -1 1 -3 2 -5 2 -1 0 -2 1 -2 2 0 2 -3 6 -4 6 0
0 -2 -1 -2 -2z"/></g>
</svg>
