<?xml version="1.0" encoding="UTF-8"?>
<svg xmlns="http://www.w3.org/2000/svg" viewBox="0 0 32 32" width="32" height="32">
  <g transform="scale(0.125 0.125) translate(0.000000,256.000000) scale(1.000000,-1.000000)" fill="#000000" stroke="none"><path d="M120 92 l-3 -4 -17 0 -16 0 -6 -6 c-8 -8 -8 -12 0 -20 l6 -6 20 0
c25 0 24 1 24 -12 l0 -9 4 -3 4 -3 0 -9 c0 -11 1 -12 12 -12 l8 0 8 8 c7 8 8
8 12 8 6 0 8 2 8 8 0 8 1 8 20 8 19 0 20 0 20 8 0 4 -1 5 -6 10 l-6 6 -8 0 -9
0 -3 4 c-3 4 -4 4 -8 4 -4 0 -5 0 -12 8 -7 8 -8 8 -12 8 -4 0 -5 0 -8 4 l-3 4
-13 0 -13 0 -3 -4z"/></g>
  <g transform="scale(0.125 0.125) translate(0.000000,256.000000) scale(1.000000,-1.000000)" fill="#566a89" stroke="none"><path d="M120 84 l-3 -4 -17 0 c-19 0 -20 0 -20 -8 0 -8 0 -8 24 -8 l20 0 6
-6 6 -6 0 -8 0 -9 4 -3 c4 -3 4 -4 4 -8 0 -6 2 -8 8 -8 6 0 8 2 8 8 0 6 2 8 8
8 6 0 8 2 8 8 0 4 0 5 -4 8 -4 4 -4 4 -3 6 2 1 4 2 7 2 4 0 5 0 8 -4 l3 -4 13
0 c11 0 13 0 15 2 1 2 1 2 0 4 -2 2 -4 2 -11 2 l-9 0 -3 4 c-3 4 -4 4 -8 4 -4
0 -5 0 -12 8 -7 8 -8 8 -12 8 -4 0 -5 0 -8 4 l-3 4 -13 0 -13 0 -3 -4z"/></g>
  <g transform="scale(0.125 0.125) translate(0.000000,256.000000) scale(1.000000,-1.000000)" fill="#222a5c" stroke="none"><path d="M120 84 l-3 -4 -17 0 c-19 0 -20 0 -20 -8 0 -8 0 -8 26 -8 l22 0 0
-2 c0 -2 1 -4 2 -5 2 -1 2 -1 4 1 2 2 2 2 1 4 -1 1 -3 2 -5 2 -2 0 -2 0 -2 6
0 6 0 7 4 10 4 4 4 4 3 6 -2 1 -4 2 -7 2 -4 0 -5 0 -8 -4z"/><path d="M178 62 c-2 -2 -2 -2 4 -8 l6 -6 12 0 c11 0 13 0 15 2 1 2 1 2 0 4
-2 2 -4 2 -11 2 l-9 0 -3 4 c-3 4 -4 4 -8 4 -3 0 -5 -1 -6 -2z"/><path d="M138 38 c-2 -2 -2 -2 0 -4 0 -1 2 -2 4 -2 2 0 2 0 2 -6 0 -8 2 -10 8
-10 3 0 5 1 6 2 2 2 2 2 -4 8 -3 3 -7 6 -8 6 -1 0 -2 1 -2 2 0 2 -3 6 -4 6 0
0 -2 -1 -2 -2z"/><path d="M161 38 c-1 -2 -1 -2 1 -4 l2 -2 2 2 c2 2 2 2 1 4 -1 1 -3 2 -3 2 0
0 -2 -1 -3 -2z"/></g>
  <g transform="scale(0.125 0.125) translate(0.000000,256.000000) scale(1.000000,-1.000000)" fill="#37446e" stroke="none"><path d="M120 84 l-3 -4 -17 0 c-19 0 -20 0 -20 -8 0 -8 0 -8 26 -8 l22 0 0
-2 c0 -2 1 -4 2 -5 2 -1 2 -1 4 1 2 2 2 2 1 4 -1 1 -3 2 -5 2 -2 0 -2 0 -2 6
0 6 0 7 4 10 4 4 4 4 3 6 -2 1 -4 2 -7 2 -4 0 -5 0 -8 -4z"/></g>
  <g transform="scale(0.125 0.125) translate(0.000000,256.000000) scale(1.000000,-1.000000)" fill="#158968" stroke="none"><path d="M106 78 c-3 -2 -3 -10 0 -12 3 -3 18 -3 20 0 2 2 2 2 -4 8 -5 6 -6 6
-10 6 -3 0 -5 -1 -6 -2z"/></g>
</svg>
