<?xml version="1.0" encoding="UTF-8"?>
<svg xmlns="http://www.w3.org/2000/svg" viewBox="0 0 32 32" width="32" height="32">
  <g transform="scale(0.125 0.125) translate(0.000000,256.000000) scale(1.000000,-1.000000)" fill="#000000" stroke="none"><path d="M152 100 c-3 -4 -4 -4 -8 -4 -4 0 -5 0 -12 -8 l-8 -8 -8 0 -9 0 -3 4
-3 4 -9 0 -8 0 -6 -6 c-8 -8 -8 -12 0 -20 5 -6 6 -6 10 -6 4 0 5 0 8 -4 3 -4
4 -4 8 -4 4 0 5 0 8 -4 3 -4 4 -4 8 -4 4 0 5 0 8 -4 3 -4 4 -4 8 -4 4 0 5 0 8
-4 3 -4 4 -4 8 -4 4 0 5 0 12 -8 7 -8 8 -8 12 -8 6 0 8 2 8 8 0 4 0 5 -4 8 -4
4 -4 4 -3 6 2 2 3 2 23 2 24 0 24 0 24 8 0 4 -1 5 -6 10 l-6 6 -12 0 -12 0 -6
6 -6 6 8 8 8 8 0 8 c0 12 0 12 -20 12 l-17 0 -3 -4z"/></g>
  <g transform="scale(0.125 0.125) translate(0.000000,256.000000) scale(1.000000,-1.000000)" fill="#566a89" stroke="none"><path d="M152 92 c-3 -4 -4 -4 -8 -4 -4 0 -5 0 -12 -8 l-8 -8 -8 0 -9 0 -3 4
-3 4 -9 0 c-10 0 -12 -1 -12 -8 0 -6 2 -8 8 -8 4 0 5 0 8 -4 3 -4 4 -4 8 -4 4
0 5 0 8 -4 3 -4 4 -4 8 -4 4 0 5 0 8 -4 3 -4 4 -4 8 -4 4 0 5 0 8 -4 3 -4 4
-4 8 -4 4 0 5 0 8 -4 2 -3 4 -4 6 -4 1 0 2 -1 2 -2 0 -2 1 -4 2 -5 2 -1 2 -1
4 1 2 2 2 2 1 4 -1 1 -3 2 -5 2 -2 0 -2 0 -2 6 0 10 0 10 24 10 19 0 21 0 23
2 1 2 1 2 0 4 -2 2 -4 2 -15 2 l-13 0 -3 4 c-3 4 -4 4 -8 4 -6 0 -8 2 -8 8 0
4 0 5 8 12 8 7 8 8 8 12 0 7 -1 8 -16 8 l-13 0 -3 -4z"/></g>
  <g transform="scale(0.125 0.125) translate(0.000000,256.000000) scale(1.000000,-1.000000)" fill="#222a5c" stroke="none"><path d="M154 94 c-2 -2 -2 -2 0 -4 1 -2 3 -2 10 -2 7 0 9 0 10 -2 3 -3 3 -6
0 -6 -2 0 -4 -1 -5 -2 -1 -2 -1 -2 1 -4 2 -2 2 -2 4 -1 1 1 2 3 2 5 0 1 1 2 2
2 6 0 8 10 4 14 -3 3 -26 3 -28 0z"/><path d="M82 78 c-1 -1 -2 -3 -2 -6 0 -6 2 -8 8 -8 4 0 5 0 8 -4 3 -4 4 -4 8
-4 4 0 5 0 8 -4 3 -4 3 -4 10 -4 6 0 6 0 6 -2 0 -2 1 -4 2 -5 2 -1 2 -1 4 1 2
2 2 2 1 4 -1 1 -3 2 -5 2 -2 0 -2 0 -2 10 0 14 0 14 -12 14 l-9 0 -3 4 -3 4
-9 0 c-7 0 -9 0 -10 -2z"/><path d="M153 70 c-1 -2 -1 -2 1 -4 l2 -2 2 2 c2 2 2 2 1 4 -1 1 -3 2 -3 2 0
0 -2 -1 -3 -2z"/><path d="M178 54 c-3 -2 -3 -10 0 -12 3 -3 34 -3 37 0 1 2 1 2 0 4 -2 2 -4 2
-15 2 l-13 0 -3 4 c-4 5 -4 5 -6 2z"/><path d="M162 30 c-2 -2 -2 -2 0 -4 0 -1 2 -2 4 -2 1 0 2 -1 2 -2 0 -2 1 -4 2
-5 2 -1 2 -1 4 1 2 2 2 2 1 4 -1 1 -3 2 -5 2 -1 0 -2 1 -2 2 0 2 -3 6 -4 6 0
0 -2 -1 -2 -2z"/></g>
  <g transform="scale(0.125 0.125) translate(0.000000,256.000000) scale(1.000000,-1.000000)" fill="#37446e" stroke="none"><path d="M82 78 c-1 -1 -2 -3 -2 -6 0 -6 2 -8 8 -8 4 0 5 0 8 -4 3 -4 4 -4 8
-4 4 0 5 0 8 -4 3 -4 3 -4 10 -4 6 0 6 0 6 -2 0 -2 1 -4 2 -5 2 -1 2 -1 4 1 2
2 2 2 1 4 -1 1 -3 2 -5 2 -2 0 -2 0 -2 10 0 14 0 14 -12 14 l-9 0 -3 4 -3 4
-9 0 c-7 0 -9 0 -10 -2z"/><path d="M162 30 c-2 -2 -2 -2 0 -4 0 -1 2 -2 4 -2 1 0 2 -1 2 -2 0 -2 1 -4 2
-5 2 -1 2 -1 4 1 2 2 2 2 1 4 -1 1 -3 2 -5 2 -1 0 -2 1 -2 2 0 2 -3 6 -4 6 0
0 -2 -1 -2 -2z"/></g>
  <g transform="scale(0.125 0.125) translate(0.000000,256.000000) scale(1.000000,-1.000000)" fill="#158968" stroke="none"><path d="M98 62 c-3 -3 0 -6 6 -6 4 0 5 0 8 -4 3 -4 4 -4 8 -4 3 0 5 1 6 2 2
2 2 2 -4 8 l-6 6 -8 0 c-7 0 -9 0 -10 -2z"/><path d="M162 30 c-2 -2 -2 -2 0 -4 0 -1 2 -2 4 -2 1 0 2 -1 2 -2 0 -2 1 -4 2
-5 2 -1 2 -1 4 1 2 2 2 2 1 4 -1 1 -3 2 -5 2 -1 0 -2 1 -2 2 0 2 -3 6 -4 6 0
0 -2 -1 -2 -2z"/></g>
  <g transform="scale(0.125 0.125) translate(0.000000,256.000000) scale(1.000000,-1.000000)" fill="#ab1f65" stroke="none"><path d="M162 30 c-2 -2 -2 -2 0 -4 0 -1 2 -2 4 -2 1 0 2 -1 2 -2 0 -2 1 -4 2
-5 2 -1 2 -1 4 1 2 2 2 2 1 4 -1 1 -3 2 -5 2 -1 0 -2 1 -2 2 0 2 -3 6 -4 6 0
0 -2 -1 -2 -2z"/></g>
</svg>
