<?xml version="1.0" encoding="UTF-8"?>
<svg xmlns="http://www.w3.org/2000/svg" viewBox="0 0 32 32" width="32" height="32">
  <g transform="scale(0.125 0.125) translate(0.000000,256.000000) scale(1.000000,-1.000000)" fill="#000000" stroke="none"><path d="M78 98 c-8 -8 -8 -12 0 -20 5 -5 6 -6 10 -6 4 0 5 0 16 -12 12 -12
12 -12 16 -12 4 0 5 0 8 -4 3 -4 4 -4 8 -4 4 0 5 0 8 -4 3 -4 4 -4 8 -4 4 0 5
0 12 -8 7 -8 8 -8 12 -8 6 0 8 2 8 8 0 4 0 5 -4 8 -4 4 -4 4 -3 6 2 2 3 2 11
2 l9 0 3 -4 3 -4 9 0 c10 0 12 1 12 8 0 4 0 5 -10 14 l-10 10 -8 0 -8 0 -8 8
c-7 8 -8 8 -12 8 -4 0 -5 0 -8 4 l-3 4 -17 0 -17 0 -3 4 c-3 4 -4 4 -8 4 -4 0
-5 0 -8 4 l-3 4 -9 0 -8 0 -6 -6z"/></g>
  <g transform="scale(0.125 0.125) translate(0.000000,256.000000) scale(1.000000,-1.000000)" fill="#566a89" stroke="none"><path d="M82 94 c-1 -1 -2 -3 -2 -6 0 -6 2 -8 8 -8 4 0 5 0 16 -12 12 -12 12
-12 16 -12 4 0 5 0 8 -4 3 -4 4 -4 8 -4 4 0 5 0 8 -4 3 -4 4 -4 8 -4 4 0 5 0
8 -4 2 -3 4 -4 6 -4 1 0 2 -1 2 -2 0 -2 1 -4 2 -5 2 -1 2 -1 4 1 2 2 2 2 1 4
-1 1 -3 2 -5 2 -2 0 -2 0 -2 6 0 10 1 10 16 10 l13 0 3 -4 c3 -4 4 -4 8 -4 3
0 5 1 6 2 2 2 2 2 -4 8 l-6 6 -12 0 c-15 0 -16 1 -16 8 0 6 -2 8 -8 8 -4 0 -5
0 -8 4 l-3 4 -17 0 -17 0 -3 4 c-3 4 -4 4 -8 4 -4 0 -5 0 -8 4 l-3 4 -9 0 c-7
0 -9 0 -10 -2z"/></g>
  <g transform="scale(0.125 0.125) translate(0.000000,256.000000) scale(1.000000,-1.000000)" fill="#37446e" stroke="none"><path d="M82 94 c-1 -1 -2 -3 -2 -6 0 -6 2 -8 8 -8 4 0 5 0 16 -12 l12 -12 6
0 c6 0 6 0 6 -2 0 -2 1 -4 2 -5 2 -1 2 -1 4 1 2 2 2 2 1 4 -1 1 -3 2 -5 2 -2
0 -2 0 -2 6 0 6 0 7 4 10 4 4 4 4 3 6 -2 1 -4 2 -7 2 -4 0 -5 0 -8 4 -3 4 -4
4 -8 4 -4 0 -5 0 -8 4 l-3 4 -9 0 c-7 0 -9 0 -10 -2z"/><path d="M153 78 c-1 -2 -1 -2 1 -4 l2 -2 2 2 c2 2 2 2 1 4 -1 1 -3 2 -3 2 0
0 -2 -1 -3 -2z"/><path d="M145 62 c-1 -2 -1 -2 1 -4 l2 -2 2 2 c2 2 2 2 1 4 -1 1 -3 2 -3 2 0
0 -2 -1 -3 -2z"/><path d="M166 58 c-6 -6 -6 -6 -4 -8 1 -2 3 -2 18 -2 l17 0 3 -4 c3 -4 4 -4 8
-4 3 0 5 1 6 2 2 2 2 2 -4 8 l-6 6 -12 0 -13 0 -3 4 c-2 2 -3 4 -4 4 0 0 -3
-3 -6 -6z"/><path d="M162 38 c-2 -2 -2 -2 0 -4 0 -1 2 -2 4 -2 1 0 2 -1 2 -2 0 -2 1 -4 2
-5 2 -1 2 -1 4 1 2 2 2 2 1 4 -1 1 -3 2 -5 2 -1 0 -2 1 -2 2 0 2 -3 6 -4 6 0
0 -2 -1 -2 -2z"/></g>
  <g transform="scale(0.125 0.125) translate(0.000000,256.000000) scale(1.000000,-1.000000)" fill="#222a5c" stroke="none"><path d="M98 78 c-2 -2 -2 -2 0 -4 0 -1 2 -2 4 -2 1 0 2 -1 2 -2 0 -1 2 -5 6
-8 5 -6 6 -6 10 -6 3 0 5 1 6 2 2 2 2 2 -4 8 l-6 6 -6 0 c-6 0 -6 0 -6 2 0 2
-3 6 -4 6 0 0 -2 -1 -2 -2z"/><path d="M153 78 c-1 -2 -1 -2 1 -4 l2 -2 2 2 c2 2 2 2 1 4 -1 1 -3 2 -3 2 0
0 -2 -1 -3 -2z"/><path d="M145 62 c-1 -2 -1 -2 1 -4 l2 -2 2 2 c2 2 2 2 1 4 -1 1 -3 2 -3 2 0
0 -2 -1 -3 -2z"/><path d="M166 58 c-6 -6 -6 -6 -4 -8 1 -2 3 -2 18 -2 l17 0 3 -4 c3 -4 4 -4 8
-4 3 0 5 1 6 2 2 2 2 2 -4 8 l-6 6 -12 0 -13 0 -3 4 c-2 2 -3 4 -4 4 0 0 -3
-3 -6 -6z"/><path d="M162 38 c-2 -2 -2 -2 0 -4 0 -1 2 -2 4 -2 1 0 2 -1 2 -2 0 -2 1 -4 2
-5 2 -1 2 -1 4 1 2 2 2 2 1 4 -1 1 -3 2 -5 2 -1 0 -2 1 -2 2 0 2 -3 6 -4 6 0
0 -2 -1 -2 -2z"/></g>
  <g transform="scale(0.125 0.125) translate(0.000000,256.000000) scale(1.000000,-1.000000)" fill="#158968" stroke="none"><path d="M98 78 c-2 -2 -2 -2 0 -4 0 -1 2 -2 4 -2 1 0 2 -1 2 -2 0 -1 2 -5 6
-8 5 -6 6 -6 10 -6 3 0 5 1 6 2 2 2 2 2 -4 8 l-6 6 -6 0 c-6 0 -6 0 -6 2 0 2
-3 6 -4 6 0 0 -2 -1 -2 -2z"/><path d="M162 38 c-2 -2 -2 -2 0 -4 0 -1 2 -2 4 -2 1 0 2 -1 2 -2 0 -2 1 -4 2
-5 2 -1 2 -1 4 1 2 2 2 2 1 4 -1 1 -3 2 -5 2 -1 0 -2 1 -2 2 0 2 -3 6 -4 6 0
0 -2 -1 -2 -2z"/></g>
  <g transform="scale(0.125 0.125) translate(0.000000,256.000000) scale(1.000000,-1.000000)" fill="#ab1f65" stroke="none"><path d="M162 38 c-2 -2 -2 -2 0 -4 0 -1 2 -2 4 -2 1 0 2 -1 2 -2 0 -2 1 -4 2
-5 2 -1 2 -1 4 1 2 2 2 2 1 4 -1 1 -3 2 -5 2 -1 0 -2 1 -2 2 0 2 -3 6 -4 6 0
0 -2 -1 -2 -2z"/></g>
</svg>
