<?xml version="1.0" encoding="UTF-8"?>
<svg xmlns="http://www.w3.org/2000/svg" viewBox="0 0 32 32" width="32" height="32">
  <g transform="translate(0 1) translate(0 28) scale(1 0.55) translate(0 -28)">
<g transform="scale(0.125 0.125) translate(0.000000,256.000000) scale(1.000000,-1.000000)" fill="#000000" stroke="none"><path d="M110 98 l-6 -6 0 -8 0 -9 -4 -3 c-4 -3 -4 -4 -4 -8 0 -4 0 -4 -10
-14 -10 -10 -10 -10 -14 -10 -4 0 -5 0 -8 -4 l-3 -4 -9 0 -8 0 -6 -6 c-6 -5
-6 -6 -6 -10 0 -8 1 -8 20 -8 l17 0 3 4 c3 4 4 4 8 4 6 0 8 -2 8 -10 l0 -6 12
0 12 0 0 6 c0 8 2 10 8 10 4 0 5 0 14 10 l10 10 0 12 0 13 -4 3 c-4 3 -4 4 -4
8 0 4 0 5 4 8 4 3 4 4 4 8 0 4 0 5 -6 10 l-6 6 -8 0 -8 0 -6 -6z"/></g>
  <g transform="scale(0.125 0.125) translate(0.000000,256.000000) scale(1.000000,-1.000000)" fill="#566a89" stroke="none"><path d="M114 94 c-2 -1 -2 -4 -2 -10 l0 -9 -4 -3 c-4 -3 -4 -4 -4 -8 0 -4 0
-4 -14 -18 -14 -14 -14 -14 -18 -14 -4 0 -5 0 -8 -4 l-3 -4 -9 0 c-7 0 -9 0
-10 -2 -2 -2 -2 -2 -1 -4 2 -2 4 -2 15 -2 l13 0 3 4 c3 4 4 4 8 4 4 0 5 0 10
-6 l6 -6 0 -6 0 -6 4 0 4 0 0 6 0 6 6 6 c5 5 6 6 10 6 4 0 5 1 10 6 l6 6 0 12
0 13 -4 3 c-4 3 -4 4 -4 8 0 4 0 5 4 8 4 3 4 4 4 8 0 7 -2 8 -12 8 -7 0 -9 0
-10 -2z"/></g>
  <g transform="scale(0.125 0.125) translate(0.000000,256.000000) scale(1.000000,-1.000000)" fill="#37446e" stroke="none"><path d="M114 94 c-2 -1 -2 -4 -2 -10 l0 -9 -4 -3 c-4 -3 -4 -4 -4 -8 0 -6 2
-8 8 -8 4 0 5 -1 10 -6 l6 -6 0 -6 0 -6 -6 0 c-6 0 -7 0 -10 4 l-4 5 -4 -5
c-4 -5 -8 -6 -8 -2 0 2 -1 4 -2 5 -2 1 -2 1 -4 -1 -2 -2 -2 -2 -1 -4 1 -1 3
-2 5 -2 1 0 2 -1 2 -2 0 -5 3 -6 16 -6 14 0 16 1 16 6 0 1 1 2 2 2 5 0 6 3 6
16 l0 13 -4 3 c-4 3 -4 4 -4 8 0 4 0 5 4 8 4 3 4 4 4 8 0 7 -2 8 -12 8 -7 0
-9 0 -10 -2z"/><path d="M64 28 l-3 -4 -9 0 c-7 0 -9 0 -10 -2 -2 -2 -2 -2 0 -4 1 -2 3 -2 14
-2 l12 0 6 6 c6 6 6 6 4 8 -1 1 -3 2 -6 2 -4 0 -5 0 -8 -4z"/><path d="M98 14 c-2 -1 -2 -3 -2 -8 l0 -6 4 0 4 0 0 6 c0 5 0 7 -2 8 -2 2 -2
2 -4 0z"/></g>
  <g transform="scale(0.125 0.125) translate(0.000000,256.000000) scale(1.000000,-1.000000)" fill="#222a5c" stroke="none"><path d="M118 74 c-8 -8 -8 -12 0 -20 5 -6 6 -6 10 -6 6 0 8 2 8 8 0 4 0 5 -4
8 -4 3 -4 4 -4 8 0 3 -1 5 -2 6 -2 2 -2 3 -8 -4z"/><path d="M90 38 c-2 -2 -2 -2 0 -4 0 -1 2 -2 4 -2 1 0 2 -1 2 -2 0 -5 3 -6 12
-6 7 0 9 0 10 2 2 2 2 2 -4 8 l-6 6 -4 -4 c-4 -5 -8 -6 -8 -2 0 2 -3 6 -4 6 0
0 -2 -1 -2 -2z"/><path d="M64 28 l-3 -4 -9 0 c-7 0 -9 0 -10 -2 -2 -2 -2 -2 0 -4 1 -2 3 -2 14
-2 l12 0 6 6 c6 6 6 6 4 8 -1 1 -3 2 -6 2 -4 0 -5 0 -8 -4z"/><path d="M98 14 c-2 -1 -2 -3 -2 -8 l0 -6 4 0 4 0 0 6 c0 5 0 7 -2 8 -2 2 -2
2 -4 0z"/></g>
  <g transform="scale(0.125 0.125) translate(0.000000,256.000000) scale(1.000000,-1.000000)" fill="#158968" stroke="none"><path d="M118 74 c-8 -8 -8 -12 0 -20 5 -6 6 -6 10 -6 6 0 8 2 8 8 0 4 0 5 -4
8 -4 3 -4 4 -4 8 0 3 -1 5 -2 6 -2 2 -2 3 -8 -4z"/><path d="M98 14 c-2 -1 -2 -3 -2 -8 l0 -6 4 0 4 0 0 6 c0 5 0 7 -2 8 -2 2 -2
2 -4 0z"/></g>
  <g transform="scale(0.125 0.125) translate(0.000000,256.000000) scale(1.000000,-1.000000)" fill="#ab1f65" stroke="none"><path d="M98 14 c-2 -1 -2 -3 -2 -8 l0 -6 4 0 4 0 0 6 c0 5 0 7 -2 8 -2 2 -2
2 -4 0z"/></g>
  </g>
</svg>