<?xml version="1.0" encoding="UTF-8"?>
<svg xmlns="http://www.w3.org/2000/svg" viewBox="0 0 64 64" shape-rendering="crispEdges">
<rect x="20" y="39" width="22" height="1" fill="#001714"/>
<rect x="17" y="40" width="3" height="1" fill="#001714"/>
<rect x="20" y="40" width="21" height="1" fill="#55948b"/>
<rect x="41" y="40" width="1" height="1" fill="#236b61"/>
<rect x="42" y="40" width="2" height="1" fill="#001714"/>
<rect x="16" y="41" width="1" height="1" fill="#001714"/>
<rect x="17" y="41" width="3" height="1" fill="#55948b"/>
<rect x="20" y="41" width="23" height="1" fill="#236b61"/>
<rect x="43" y="41" width="1" height="1" fill="#054139"/>
<rect x="44" y="41" width="2" height="1" fill="#001714"/>
<rect x="14" y="42" width="2" height="1" fill="#001714"/>
<rect x="16" y="42" width="1" height="1" fill="#55948b"/>
<rect x="17" y="42" width="27" height="1" fill="#236b61"/>
<rect x="44" y="42" width="2" height="1" fill="#054139"/>
<rect x="46" y="42" width="1" height="1" fill="#001714"/>
<rect x="13" y="43" width="1" height="1" fill="#001714"/>
<rect x="14" y="43" width="2" height="1" fill="#55948b"/>
<rect x="16" y="43" width="2" height="1" fill="#236b61"/>
<rect x="18" y="43" width="1" height="1" fill="#054139"/>
<rect x="19" y="43" width="26" height="1" fill="#236b61"/>
<rect x="45" y="43" width="1" height="1" fill="#054139"/>
<rect x="46" y="43" width="1" height="1" fill="#001714"/>
<rect x="13" y="44" width="1" height="1" fill="#001714"/>
<rect x="14" y="44" width="1" height="1" fill="#55948b"/>
<rect x="15" y="44" width="2" height="1" fill="#236b61"/>
<rect x="17" y="44" width="1" height="1" fill="#054139"/>
<rect x="18" y="44" width="26" height="1" fill="#236b61"/>
<rect x="44" y="44" width="2" height="1" fill="#054139"/>
<rect x="46" y="44" width="1" height="1" fill="#001714"/>
<rect x="13" y="45" width="1" height="1" fill="#001714"/>
<rect x="14" y="45" width="2" height="1" fill="#236b61"/>
<rect x="16" y="45" width="1" height="1" fill="#054139"/>
<rect x="17" y="45" width="1" height="1" fill="#001714"/>
<rect x="18" y="45" width="1" height="1" fill="#054139"/>
<rect x="19" y="45" width="1" height="1" fill="#ecc687"/>
<rect x="20" y="45" width="1" height="1" fill="#aa7f38"/>
<rect x="21" y="45" width="1" height="1" fill="#054139"/>
<rect x="22" y="45" width="21" height="1" fill="#236b61"/>
<rect x="43" y="45" width="1" height="1" fill="#054139"/>
<rect x="44" y="45" width="1" height="1" fill="#251700"/>
<rect x="45" y="45" width="1" height="1" fill="#001714"/>
<rect x="14" y="46" width="3" height="1" fill="#001714"/>
<rect x="17" y="46" width="1" height="1" fill="#251700"/>
<rect x="18" y="46" width="1" height="1" fill="#ecc687"/>
<rect x="19" y="46" width="3" height="1" fill="#aa7f38"/>
<rect x="22" y="46" width="3" height="1" fill="#054139"/>
<rect x="25" y="46" width="16" height="1" fill="#236b61"/>
<rect x="41" y="46" width="3" height="1" fill="#054139"/>
<rect x="44" y="46" width="1" height="1" fill="#001714"/>
<rect x="14" y="47" width="1" height="1" fill="#251700"/>
<rect x="15" y="47" width="1" height="1" fill="#ecc687"/>
<rect x="16" y="47" width="6" height="1" fill="#aa7f38"/>
<rect x="22" y="47" width="16" height="1" fill="#054139"/>
<rect x="38" y="47" width="1" height="1" fill="#236b61"/>
<rect x="39" y="47" width="5" height="1" fill="#674309"/>
<rect x="44" y="47" width="1" height="1" fill="#aa7f38"/>
<rect x="45" y="47" width="1" height="1" fill="#001714"/>
</svg>
