<?xml version="1.0" encoding="UTF-8"?>
<svg xmlns="http://www.w3.org/2000/svg" viewBox="0 0 64 64" width="64" height="64">
  <g transform="scale(0.125 0.125) translate(0.000000,512.000000) scale(1.000000,-1.000000)" fill="#236b61" stroke="none"><path d="M160 196 l-3 -4 -9 0 -8 0 -8 -8 c-7 -8 -8 -8 -12 -8 -4 0 -5 -1 -10
-6 l-6 -6 0 -8 0 -9 4 -3 c4 -3 4 -4 4 -8 0 -9 -13 -8 128 -8 l125 0 2 2 c1 2
1 2 -3 6 l-4 4 8 8 8 8 0 8 0 8 -6 6 c-5 6 -6 6 -10 6 -4 0 -5 0 -8 4 -3 4 -4
4 -8 4 -4 0 -5 0 -8 4 l-3 4 -85 0 -85 0 -3 -4z"/></g>
  <g transform="scale(0.125 0.125) translate(0.000000,512.000000) scale(1.000000,-1.000000)" fill="#001714" stroke="none"><path d="M160 196 l-3 -4 -9 0 -8 0 -8 -8 c-7 -8 -8 -8 -12 -8 -4 0 -5 -1 -10
-6 l-6 -6 0 -8 c0 -9 1 -12 6 -12 2 0 2 0 2 -6 0 -11 -10 -10 96 -10 91 0 93
0 95 2 1 2 1 2 0 4 -2 2 -4 2 -51 2 l-49 0 -3 4 -3 4 -9 0 -9 0 -3 4 -3 4 -13
0 c-11 0 -13 0 -14 2 -3 3 -3 6 0 6 2 0 4 1 5 2 1 2 1 2 -1 4 -2 2 -2 2 -4 1
-1 -1 -2 -3 -2 -5 0 -1 -1 -2 -2 -2 -2 0 -5 -3 -10 -8 l-8 -8 -6 0 c-9 0 -8 2
8 18 l14 14 8 0 9 0 3 4 3 4 81 0 81 0 3 4 c4 5 8 6 8 2 0 -2 4 -6 12 -14 l12
-12 -10 -10 c-10 -10 -10 -10 -14 -10 -4 0 -5 0 -8 -4 -3 -4 -4 -4 -8 -4 -6 0
-9 -3 -6 -6 2 -3 50 -3 53 0 1 2 1 2 -3 6 l-4 4 8 8 8 8 0 8 0 8 -6 6 c-5 6
-6 6 -10 6 -4 0 -5 0 -8 4 -3 4 -3 4 -10 4 -6 0 -6 0 -6 2 0 6 4 6 -88 6 l-85
0 -3 -4z"/></g>
  <g transform="scale(0.125 0.125) translate(0.000000,512.000000) scale(1.000000,-1.000000)" fill="#054139" stroke="none"><path d="M162 190 c-1 -1 -2 -3 -2 -4 0 -2 0 -2 -10 -2 -12 0 -14 -1 -14 -6 0
-1 -1 -2 -2 -2 -3 0 -6 -3 -6 -6 0 -2 0 -2 -6 -2 -8 0 -10 -2 -10 -8 0 -3 1
-5 2 -6 2 -2 2 -2 8 4 3 3 6 7 6 8 0 1 1 2 2 2 3 0 6 3 6 6 0 2 0 2 10 2 12 0
14 1 14 6 l0 2 82 0 c81 0 83 0 85 2 1 2 1 2 0 4 -3 3 -163 3 -165 0z"/><path d="M346 182 c-2 -2 -2 -2 0 -4 0 -1 2 -2 4 -2 1 0 2 -1 2 -2 0 -2 2 -4
4 -6 l4 -4 -10 -10 c-10 -10 -10 -10 -14 -10 -4 0 -5 0 -8 -4 -3 -4 -4 -4 -8
-4 -6 0 -9 -3 -6 -6 2 -3 42 -3 45 0 1 2 1 2 -3 6 l-4 4 8 8 8 8 0 8 c0 11 -1
12 -10 12 -6 0 -6 0 -6 2 0 2 -3 6 -4 6 0 0 -2 -1 -2 -2z"/><path d="M146 166 c-1 -1 -2 -3 -2 -4 0 -1 -1 -2 -2 -2 -3 0 -6 -3 -6 -6 0 -1
-1 -2 -2 -2 -2 0 -4 -1 -4 -2 -2 -2 -2 -2 0 -4 0 -1 2 -2 4 -2 1 0 2 -1 2 -2
0 -5 -3 -6 -12 -6 -7 0 -9 0 -10 -2 -2 -2 -2 -2 0 -4 2 -3 186 -3 189 0 1 2 1
2 0 4 -2 2 -4 2 -51 2 l-49 0 -3 4 -3 4 -9 0 -9 0 -3 4 -3 4 -15 0 -14 0 0 4
c0 4 0 4 2 4 2 0 4 1 5 2 1 2 1 2 0 4 -3 2 -3 2 -5 0z m-2 -16 c0 -3 -3 -6 -6
-6 -2 0 -2 0 -2 4 l0 4 4 0 c3 0 4 0 4 -2z"/></g>
  <g transform="scale(0.125 0.125) translate(0.000000,512.000000) scale(1.000000,-1.000000)" fill="#55948b" stroke="none"><path d="M162 190 c-1 -1 -2 -3 -2 -4 0 -2 0 -2 -10 -2 -12 0 -14 -1 -14 -6 0
-1 -1 -2 -2 -2 -3 0 -6 -3 -6 -6 0 -2 0 -2 -6 -2 -8 0 -10 -2 -10 -8 0 -3 1
-5 2 -6 2 -2 2 -2 8 4 3 3 6 7 6 8 0 1 1 2 2 2 3 0 6 3 6 6 0 2 0 2 10 2 12 0
14 1 14 6 l0 2 82 0 c81 0 83 0 85 2 1 2 1 2 0 4 -3 3 -163 3 -165 0z"/><path d="M152 148 c-3 -4 -4 -4 -8 -4 -4 0 -5 0 -8 -4 l-3 -4 -9 0 c-7 0 -9 0
-10 -2 -2 -2 -2 -2 -1 -4 2 -2 4 -2 31 -2 33 0 32 0 32 8 0 6 -10 16 -16 16
-4 0 -5 0 -8 -4z"/><path d="M353 150 c-1 -2 -1 -2 1 -4 l2 -2 2 2 c2 2 2 2 1 4 -1 1 -3 2 -3 2 0
0 -2 -1 -3 -2z"/><path d="M314 134 c-2 -2 -2 -2 0 -4 1 -2 3 -2 22 -2 19 0 21 0 23 2 1 2 1 2
0 4 -2 2 -4 2 -23 2 -19 0 -21 0 -22 -2z"/></g>
  <g transform="scale(0.125 0.125) translate(0.000000,512.000000) scale(1.000000,-1.000000)" fill="#aa7f38" stroke="none"><path d="M152 148 c-3 -4 -4 -4 -8 -4 -4 0 -5 0 -8 -4 l-3 -4 -9 0 c-7 0 -9 0
-10 -2 -2 -2 -2 -2 -1 -4 2 -2 4 -2 31 -2 33 0 32 0 32 8 0 6 -10 16 -16 16
-4 0 -5 0 -8 -4z"/><path d="M353 150 c-1 -2 -1 -2 1 -4 l2 -2 2 2 c2 2 2 2 1 4 -1 1 -3 2 -3 2 0
0 -2 -1 -3 -2z"/><path d="M314 134 c-2 -2 -2 -2 0 -4 1 -2 3 -2 22 -2 19 0 21 0 23 2 1 2 1 2
0 4 -2 2 -4 2 -23 2 -19 0 -21 0 -22 -2z"/></g>
  <g transform="scale(0.125 0.125) translate(0.000000,512.000000) scale(1.000000,-1.000000)" fill="#674309" stroke="none"><path d="M154 150 c-1 -1 -2 -3 -2 -4 0 -2 0 -2 -6 -2 -8 0 -12 -3 -8 -6 4 -5
14 -2 14 4 0 1 1 2 2 2 2 0 4 1 5 2 1 2 1 2 0 4 -3 2 -3 2 -5 0z"/><path d="M353 150 c-1 -2 -1 -2 1 -4 l2 -2 2 2 c2 2 2 2 1 4 -1 1 -3 2 -3 2 0
0 -2 -1 -3 -2z"/><path d="M114 134 c-3 -3 0 -6 6 -6 3 0 5 1 7 2 2 3 -1 6 -7 6 -3 0 -5 -1 -6
-2z"/><path d="M314 134 c-2 -2 -2 -2 0 -4 1 -2 3 -2 18 -2 15 0 17 0 19 2 1 2 1 2
0 4 -2 2 -4 2 -19 2 -15 0 -17 0 -18 -2z"/></g>
  <g transform="scale(0.125 0.125) translate(0.000000,512.000000) scale(1.000000,-1.000000)" fill="#ecc687" stroke="none"><path d="M154 150 c-1 -1 -2 -3 -2 -4 0 -2 0 -2 -6 -2 -8 0 -12 -3 -8 -6 4 -5
14 -2 14 4 0 1 1 2 2 2 2 0 4 1 5 2 1 2 1 2 0 4 -3 2 -3 2 -5 0z"/><path d="M353 150 c-1 -2 -1 -2 1 -4 l2 -2 2 2 c2 2 2 2 1 4 -1 1 -3 2 -3 2 0
0 -2 -1 -3 -2z"/><path d="M114 134 c-3 -3 0 -6 6 -6 3 0 5 1 7 2 2 3 -1 6 -7 6 -3 0 -5 -1 -6
-2z"/></g>
  <g transform="scale(0.125 0.125) translate(0.000000,512.000000) scale(1.000000,-1.000000)" fill="#251700" stroke="none"><path d="M353 150 c-1 -2 -1 -2 1 -4 l2 -2 2 2 c2 2 2 2 1 4 -1 1 -3 2 -3 2 0
0 -2 -1 -3 -2z"/><path d="M137 142 c-1 -2 -1 -2 1 -4 l2 -2 2 2 c2 2 2 2 1 4 -1 1 -3 2 -3 2 0
0 -2 -1 -3 -2z"/><path d="M113 134 c-1 -2 -1 -2 1 -4 l2 -2 2 2 c2 2 2 2 1 4 -1 1 -3 2 -3 2 0
0 -2 -1 -3 -2z"/></g>
</svg>
