<?xml version="1.0" encoding="UTF-8"?>
<svg xmlns="http://www.w3.org/2000/svg" viewBox="0 0 64 64" width="64" height="64">
  <g transform="scale(0.125 0.125) translate(0.000000,512.000000) scale(1.000000,-1.000000)" fill="#236b61" stroke="none"><path d="M154 190 c-10 -10 -10 -10 -10 -14 0 -8 -1 -8 -20 -8 -19 0 -20 0
-20 -8 0 -4 0 -5 10 -14 l10 -10 28 0 29 0 3 -4 3 -4 81 0 80 0 10 10 10 10 0
8 0 8 -14 14 c-14 14 -14 14 -18 14 -4 0 -5 0 -8 4 l-3 4 -81 0 -80 0 -10 -10z"/></g>
  <g transform="scale(0.125 0.125) translate(0.000000,512.000000) scale(1.000000,-1.000000)" fill="#001714" stroke="none"><path d="M154 190 c-10 -10 -10 -10 -10 -14 0 -8 -1 -8 -20 -8 -19 0 -20 0
-20 -8 0 -4 0 -5 10 -14 l10 -10 28 0 29 0 3 -4 3 -4 81 0 80 0 10 10 10 10 0
8 0 8 -14 14 -14 14 -6 0 c-6 0 -6 0 -6 2 0 6 4 6 -84 6 l-80 0 -10 -10z m174
-4 c0 -7 0 -7 4 -10 l4 -3 0 -9 0 -8 -6 -6 c-5 -6 -6 -6 -10 -6 -4 0 -5 0 -8
-4 -3 -4 -4 -4 -8 -4 -3 0 -5 1 -7 2 -1 2 -1 2 7 10 l8 8 -6 6 c-6 6 -6 6 -8
4 -1 -1 -2 -3 -2 -6 0 -4 0 -5 -6 -10 l-6 -6 -10 0 c-10 0 -10 0 -10 -2 0 -5
-3 -6 -12 -6 -10 0 -12 1 -12 8 0 4 0 5 -8 12 -8 8 -8 8 -7 10 2 1 4 2 7 2 6
0 9 3 7 6 -2 2 -4 2 -11 2 l-9 0 -3 -4 -3 -4 -17 0 c-19 0 -20 0 -20 8 0 9 -4
8 60 8 l57 0 3 4 3 4 15 0 14 0 0 -6z"/><path d="M250 166 c-4 -4 -2 -14 4 -14 1 0 2 -1 2 -2 0 -3 3 -6 6 -6 1 0 2 1
2 2 0 3 -3 6 -6 6 -2 0 -2 0 -2 6 0 5 0 7 -2 8 -2 2 -2 2 -4 0z"/></g>
  <g transform="scale(0.125 0.125) translate(0.000000,512.000000) scale(1.000000,-1.000000)" fill="#251700" stroke="none"><path d="M158 186 c-6 -6 -6 -6 -4 -8 1 -1 3 -2 6 -2 6 0 9 -3 7 -6 -2 -2 -4
-2 -31 -2 -33 0 -32 0 -32 -8 0 -4 0 -5 10 -14 l10 -10 32 0 33 0 3 -4 3 -4
61 0 61 0 3 4 3 4 13 0 12 0 6 6 6 6 0 8 0 8 -10 10 c-10 10 -10 10 -14 10 -3
0 -5 -1 -7 -2 -1 -2 -1 -2 3 -6 l4 -3 0 -9 0 -8 -6 -6 c-5 -6 -6 -6 -10 -6 -4
0 -5 0 -8 -4 -3 -4 -4 -4 -8 -4 -5 0 -8 2 -8 6 0 1 1 2 2 2 3 0 6 3 6 6 0 1 1
2 2 2 2 0 4 1 5 2 1 2 1 2 -1 4 -2 2 -2 2 -4 1 -1 -1 -2 -3 -2 -5 0 -1 -1 -2
-2 -2 -3 0 -6 -3 -6 -6 0 -1 -1 -2 -2 -2 -2 0 -4 -1 -6 -4 l-3 -4 -21 0 c-24
0 -24 0 -24 8 0 4 0 5 -8 12 -8 7 -8 8 -8 12 0 3 -1 5 -2 7 -2 1 -2 1 -6 -3
l-3 -4 -17 0 c-19 0 -20 0 -20 8 0 8 -4 8 60 8 55 0 57 0 59 2 1 2 1 2 0 4 -2
2 -4 2 -67 2 l-64 0 -6 -6z"/></g>
  <g transform="scale(0.125 0.125) translate(0.000000,512.000000) scale(1.000000,-1.000000)" fill="#054139" stroke="none"><path d="M158 186 c-6 -6 -6 -6 -4 -8 1 -1 3 -2 6 -2 4 0 5 0 8 -4 4 -4 4 -4
6 -3 1 2 2 4 2 7 0 9 -4 8 60 8 55 0 57 0 59 2 1 2 1 2 0 4 -2 2 -4 2 -67 2
l-64 0 -6 -6z"/><path d="M329 182 c-1 -2 -1 -2 3 -6 l4 -3 0 -9 0 -8 -6 -6 c-5 -6 -6 -6 -10
-6 -4 0 -5 0 -8 -4 -3 -4 -4 -4 -8 -4 -5 0 -8 2 -8 6 0 1 1 2 2 2 3 0 6 3 6 6
0 1 1 2 2 2 2 0 4 1 5 2 1 2 1 2 -1 4 -2 2 -2 2 -4 1 -1 -1 -2 -3 -2 -5 0 -1
-1 -2 -2 -2 -3 0 -6 -3 -6 -6 0 -1 -1 -2 -2 -2 -2 0 -4 -1 -6 -4 -3 -4 -4 -4
-8 -4 -6 0 -9 -3 -6 -6 1 -2 3 -2 22 -2 l21 0 3 4 3 4 13 0 12 0 6 6 6 6 0 8
0 8 -10 10 c-10 10 -10 10 -14 10 -3 0 -5 -1 -7 -2z"/><path d="M217 174 c-1 -2 -1 -2 1 -4 l2 -2 2 2 c2 2 2 2 1 4 -1 1 -3 2 -3 2 0
0 -2 -1 -3 -2z"/><path d="M114 158 c-3 -3 0 -6 6 -6 4 0 5 0 8 -4 l3 -4 51 0 50 0 0 -2 c0 -4
-3 -6 -8 -6 -6 0 -9 -3 -6 -6 1 -2 3 -2 22 -2 19 0 21 0 23 2 1 2 1 2 0 4 -2
2 -4 2 -11 2 l-9 0 -3 4 c-2 3 -4 4 -6 4 -1 0 -2 1 -2 2 0 1 -2 5 -6 8 l-6 6
-52 0 c-51 0 -53 0 -54 -2z"/><path d="M194 134 c-3 -3 0 -6 6 -6 6 0 9 3 7 6 -2 1 -4 2 -7 2 -3 0 -5 -1 -6
-2z"/></g>
  <g transform="scale(0.125 0.125) translate(0.000000,512.000000) scale(1.000000,-1.000000)" fill="#55948b" stroke="none"><path d="M158 186 c-6 -6 -6 -6 -4 -8 1 -1 3 -2 6 -2 4 0 5 0 8 -4 4 -4 4 -4
6 -3 1 2 2 4 2 7 0 9 -4 8 60 8 55 0 57 0 59 2 1 2 1 2 0 4 -2 2 -4 2 -67 2
l-64 0 -6 -6z"/><path d="M217 174 c-1 -2 -1 -2 1 -4 l2 -2 2 2 c2 2 2 2 1 4 -1 1 -3 2 -3 2 0
0 -2 -1 -3 -2z"/><path d="M114 158 c-3 -3 0 -6 6 -6 4 0 5 0 8 -4 l3 -4 49 0 c47 0 49 0 50 2
2 2 2 2 -4 8 l-6 6 -52 0 c-51 0 -53 0 -54 -2z"/><path d="M194 134 c-3 -3 0 -6 6 -6 6 0 9 3 7 6 -2 1 -4 2 -7 2 -3 0 -5 -1 -6
-2z"/><path d="M218 134 c-2 -2 -2 -2 0 -4 1 -2 3 -2 22 -2 19 0 21 0 23 2 1 2 1 2
0 4 -2 2 -4 2 -23 2 -19 0 -21 0 -22 -2z"/></g>
  <g transform="scale(0.125 0.125) translate(0.000000,512.000000) scale(1.000000,-1.000000)" fill="#aa7f38" stroke="none"><path d="M169 174 c-1 -2 -1 -2 1 -4 l2 -2 2 2 c2 2 2 2 1 4 -1 1 -3 2 -3 2 0
0 -2 -1 -3 -2z"/><path d="M217 174 c-1 -2 -1 -2 1 -4 l2 -2 2 2 c2 2 2 2 1 4 -1 1 -3 2 -3 2 0
0 -2 -1 -3 -2z"/><path d="M114 158 c-3 -3 0 -6 6 -6 4 0 5 0 8 -4 l3 -4 49 0 c47 0 49 0 50 2
2 2 2 2 -4 8 l-6 6 -52 0 c-51 0 -53 0 -54 -2z"/><path d="M194 134 c-3 -3 0 -6 6 -6 6 0 9 3 7 6 -2 1 -4 2 -7 2 -3 0 -5 -1 -6
-2z"/><path d="M218 134 c-2 -2 -2 -2 0 -4 1 -2 3 -2 22 -2 19 0 21 0 23 2 1 2 1 2
0 4 -2 2 -4 2 -23 2 -19 0 -21 0 -22 -2z"/></g>
  <g transform="scale(0.125 0.125) translate(0.000000,512.000000) scale(1.000000,-1.000000)" fill="#674309" stroke="none"><path d="M169 174 c-1 -2 -1 -2 1 -4 l2 -2 2 2 c2 2 2 2 1 4 -1 1 -3 2 -3 2 0
0 -2 -1 -3 -2z"/><path d="M217 174 c-1 -2 -1 -2 1 -4 l2 -2 2 2 c2 2 2 2 1 4 -1 1 -3 2 -3 2 0
0 -2 -1 -3 -2z"/><path d="M113 158 c-1 -2 -1 -2 1 -4 l2 -2 2 2 c2 2 2 2 1 4 -1 1 -3 2 -3 2 0
0 -2 -1 -3 -2z"/><path d="M216 156 l-3 -4 -37 0 c-35 0 -37 0 -38 -2 -2 -2 -2 -2 0 -4 2 -3 90
-3 92 0 2 2 2 2 -4 8 -3 3 -6 6 -6 6 -1 0 -2 -2 -4 -4z"/><path d="M201 134 c-1 -2 -1 -2 1 -4 l2 -2 2 2 c2 2 2 2 1 4 -1 1 -3 2 -3 2 0
0 -2 -1 -3 -2z"/><path d="M218 134 c-3 -3 0 -6 6 -6 3 0 5 1 7 2 2 3 -1 6 -7 6 -3 0 -5 -1 -6
-2z"/></g>
  <g transform="scale(0.125 0.125) translate(0.000000,512.000000) scale(1.000000,-1.000000)" fill="#ecc687" stroke="none"><path d="M169 174 c-1 -2 -1 -2 1 -4 l2 -2 2 2 c2 2 2 2 1 4 -1 1 -3 2 -3 2 0
0 -2 -1 -3 -2z"/><path d="M217 174 c-1 -2 -1 -2 1 -4 l2 -2 2 2 c2 2 2 2 1 4 -1 1 -3 2 -3 2 0
0 -2 -1 -3 -2z"/><path d="M113 158 c-1 -2 -1 -2 1 -4 l2 -2 2 2 c2 2 2 2 1 4 -1 1 -3 2 -3 2 0
0 -2 -1 -3 -2z"/><path d="M218 134 c-3 -3 0 -6 6 -6 3 0 5 1 7 2 2 3 -1 6 -7 6 -3 0 -5 -1 -6
-2z"/></g>
  <g transform="scale(0.125 0.125) translate(0.000000,512.000000) scale(1.000000,-1.000000)" fill="#afd5d0" stroke="none"><path d="M169 174 c-1 -2 -1 -2 1 -4 l2 -2 2 2 c2 2 2 2 1 4 -1 1 -3 2 -3 2 0
0 -2 -1 -3 -2z"/><path d="M217 174 c-1 -2 -1 -2 1 -4 l2 -2 2 2 c2 2 2 2 1 4 -1 1 -3 2 -3 2 0
0 -2 -1 -3 -2z"/></g>
</svg>
