<?xml version="1.0" encoding="UTF-8"?>
<svg xmlns="http://www.w3.org/2000/svg" viewBox="0 0 64 64" width="64" height="64">
  <g transform="scale(0.125 0.125) translate(0.000000,512.000000) scale(1.000000,-1.000000)" fill="#236b61" stroke="none"><path d="M168 196 c-3 -4 -4 -4 -8 -4 -4 0 -5 0 -8 -4 -3 -4 -4 -4 -8 -4 -4 0
-5 0 -10 -6 l-6 -6 0 -8 0 -8 8 -8 9 -8 -5 -4 c-4 -4 -4 -4 -3 -6 l2 -2 125 0
c141 0 128 -1 128 8 0 4 0 5 4 8 l4 3 0 9 0 8 -6 6 c-5 5 -6 6 -10 6 -4 0 -5
0 -12 8 l-8 8 -8 0 -9 0 -3 4 -3 4 -85 0 -85 0 -3 -4z"/></g>
  <g transform="scale(0.125 0.125) translate(0.000000,512.000000) scale(1.000000,-1.000000)" fill="#251700" stroke="none"><path d="M168 196 c-3 -4 -4 -4 -8 -4 -4 0 -5 0 -8 -4 -3 -4 -4 -4 -8 -4 -4 0
-5 0 -10 -6 l-6 -6 0 -8 0 -8 8 -8 9 -8 -5 -4 c-4 -4 -4 -4 -3 -6 l2 -2 125 0
c141 0 128 -1 128 8 0 4 0 5 4 8 l4 3 0 9 0 8 -6 6 c-5 5 -6 6 -10 6 -4 0 -5
0 -12 8 l-8 8 -10 0 c-10 0 -10 0 -10 2 0 6 4 6 -88 6 l-85 0 -3 -4z m176 -10
c0 -7 0 -7 4 -10 l4 -3 0 -9 0 -8 -6 -6 c-5 -6 -6 -6 -10 -6 -4 0 -5 0 -8 -4
-3 -4 -4 -4 -8 -4 -6 0 -8 2 -8 8 0 4 0 4 -10 14 l-10 10 -48 0 -49 0 -3 4 -3
4 -9 0 -8 0 -4 -4 c-4 -4 -4 -4 -6 -3 -3 3 -3 10 0 13 1 2 5 2 74 2 l73 0 3 4
3 4 15 0 14 0 0 -6z m42 -24 l6 -6 -6 -6 c-5 -5 -6 -6 -10 -6 -7 0 -8 2 -8 12
0 10 1 12 8 12 4 0 5 0 10 -6z"/><path d="M306 174 c-2 -2 -2 -2 0 -4 1 -2 3 -2 10 -2 7 0 9 0 11 2 1 2 1 2 0
4 -2 2 -4 2 -11 2 -7 0 -9 0 -10 -2z"/></g>
  <g transform="scale(0.125 0.125) translate(0.000000,512.000000) scale(1.000000,-1.000000)" fill="#001714" stroke="none"><path d="M168 196 c-3 -4 -4 -4 -8 -4 -4 0 -5 0 -8 -4 -3 -4 -4 -4 -8 -4 -4 0
-5 0 -10 -6 -6 -6 -6 -6 -4 -8 1 -2 3 -2 14 -2 15 0 16 1 16 8 0 9 -6 8 76 8
l73 0 3 4 3 4 15 0 14 0 0 -6 c0 -7 0 -7 4 -10 l4 -3 0 -9 0 -8 -6 -6 c-5 -6
-6 -6 -10 -6 -4 0 -5 0 -8 -4 -3 -4 -4 -4 -8 -4 -4 0 -5 0 -8 4 -2 3 -4 4 -6
4 -1 0 -2 1 -2 2 0 1 -2 5 -6 8 l-6 6 -76 0 c-75 0 -77 0 -78 -2 -3 -3 0 -6 6
-6 4 0 5 0 8 -4 l3 -4 75 0 74 0 0 -2 c0 -6 1 -6 -52 -6 -47 0 -49 0 -50 -2
-2 -2 -2 -2 0 -4 1 -2 3 -2 66 -2 l65 0 3 4 4 5 4 -5 4 -4 16 0 16 0 10 10 10
10 0 8 0 8 -6 6 c-5 5 -6 6 -10 6 -4 0 -5 0 -12 8 l-8 8 -10 0 c-10 0 -10 0
-10 2 0 6 4 6 -88 6 l-85 0 -3 -4z m218 -34 l6 -6 -6 -6 c-5 -5 -6 -6 -10 -6
-7 0 -8 2 -8 12 0 10 1 12 8 12 4 0 5 0 10 -6z"/><path d="M170 174 c-2 -2 -2 -2 0 -4 1 -2 3 -2 10 -2 7 0 9 0 11 2 1 2 1 2 0
4 -2 2 -4 2 -11 2 -7 0 -9 0 -10 -2z"/><path d="M306 174 c-2 -2 -2 -2 0 -4 1 -2 3 -2 10 -2 7 0 9 0 11 2 1 2 1 2 0
4 -2 2 -4 2 -11 2 -7 0 -9 0 -10 -2z"/><path d="M146 134 c-2 -2 -2 -2 0 -4 1 -2 3 -2 22 -2 19 0 21 0 23 2 1 2 1 2
0 4 -2 2 -4 2 -23 2 -19 0 -21 0 -22 -2z"/></g>
  <g transform="scale(0.125 0.125) translate(0.000000,512.000000) scale(1.000000,-1.000000)" fill="#054139" stroke="none"><path d="M170 190 c-2 -2 -2 -2 0 -4 2 -3 138 -3 141 0 1 2 1 2 0 4 -3 3 -139
3 -141 0z"/><path d="M154 182 c-3 -3 -3 -10 0 -12 3 -3 6 0 6 6 0 7 -3 10 -6 6z"/><path d="M345 182 c-1 -2 -1 -2 3 -6 l4 -3 0 -9 0 -8 -6 -6 c-5 -6 -6 -6 -10
-6 -4 0 -5 0 -8 -4 -3 -4 -4 -4 -8 -4 -4 0 -5 0 -8 4 -2 3 -4 4 -6 4 -1 0 -2
1 -2 2 0 1 -2 5 -6 8 l-6 6 -76 0 c-75 0 -77 0 -78 -2 -3 -3 0 -6 6 -6 4 0 5
0 8 -4 l3 -4 75 0 74 0 0 -2 c0 -6 1 -6 -52 -6 -47 0 -49 0 -50 -2 -2 -2 -2
-2 0 -4 1 -2 3 -2 66 -2 l65 0 3 4 4 5 4 -5 4 -4 16 0 c15 0 17 0 19 2 1 2 1
2 0 4 -2 2 -4 2 -11 2 -10 0 -12 1 -12 8 0 4 0 5 4 8 4 3 4 4 4 8 0 4 0 5 4 8
l4 4 -6 6 -6 6 -8 0 c-8 0 -9 0 -11 -2z"/><path d="M137 174 c-1 -2 -1 -2 1 -4 l2 -2 2 2 c2 2 2 2 1 4 -1 1 -3 2 -3 2 0
0 -2 -1 -3 -2z"/><path d="M169 174 c-1 -2 -1 -2 1 -4 l2 -2 2 2 c2 2 2 2 1 4 -1 1 -3 2 -3 2 0
0 -2 -1 -3 -2z"/><path d="M305 174 c-1 -2 -1 -2 1 -4 l2 -2 2 2 c2 2 2 2 1 4 -1 1 -3 2 -3 2 0
0 -2 -1 -3 -2z"/><path d="M385 166 c-1 -2 -1 -2 1 -4 l2 -2 2 2 c2 2 2 2 1 4 -1 1 -3 2 -3 2 0
0 -2 -1 -3 -2z"/><path d="M385 150 c-1 -2 -1 -2 1 -4 l2 -2 2 2 c2 2 2 2 1 4 -1 1 -3 2 -3 2 0
0 -2 -1 -3 -2z"/><path d="M146 134 c-2 -2 -2 -2 0 -4 1 -2 3 -2 22 -2 19 0 21 0 23 2 1 2 1 2
0 4 -2 2 -4 2 -23 2 -19 0 -21 0 -22 -2z"/></g>
  <g transform="scale(0.125 0.125) translate(0.000000,512.000000) scale(1.000000,-1.000000)" fill="#aa7f38" stroke="none"><path d="M170 190 c-2 -2 -2 -2 0 -4 2 -3 138 -3 141 0 1 2 1 2 0 4 -3 3 -139
3 -141 0z"/><path d="M154 182 c-3 -3 -3 -10 0 -12 3 -3 6 0 6 6 0 7 -3 10 -6 6z"/><path d="M169 174 c-1 -2 -1 -2 1 -4 l2 -2 2 2 c2 2 2 2 1 4 -1 1 -3 2 -3 2 0
0 -2 -1 -3 -2z"/><path d="M305 174 c-1 -2 -1 -2 1 -4 l2 -2 2 2 c2 2 2 2 1 4 -1 1 -3 2 -3 2 0
0 -2 -1 -3 -2z"/><path d="M138 158 c-3 -3 0 -6 6 -6 4 0 5 0 8 -4 l3 -4 73 0 c71 0 73 0 74 2
2 2 2 2 -4 8 l-6 6 -76 0 c-75 0 -77 0 -78 -2z"/><path d="M385 150 c-1 -2 -1 -2 1 -4 l2 -2 2 2 c2 2 2 2 1 4 -1 1 -3 2 -3 2 0
0 -2 -1 -3 -2z"/><path d="M146 134 c-2 -2 -2 -2 0 -4 1 -2 3 -2 22 -2 19 0 21 0 23 2 1 2 1 2
0 4 -2 2 -4 2 -23 2 -19 0 -21 0 -22 -2z"/><path d="M346 134 c-2 -2 -2 -2 0 -4 1 -2 3 -2 18 -2 15 0 17 0 19 2 1 2 1 2
0 4 -2 2 -4 2 -19 2 -15 0 -17 0 -18 -2z"/></g>
  <g transform="scale(0.125 0.125) translate(0.000000,512.000000) scale(1.000000,-1.000000)" fill="#55948b" stroke="none"><path d="M170 190 c-2 -2 -2 -2 0 -4 2 -3 138 -3 141 0 1 2 1 2 0 4 -3 3 -139
3 -141 0z"/><path d="M154 182 c-3 -3 -3 -10 0 -12 3 -3 6 0 6 6 0 7 -3 10 -6 6z"/><path d="M169 174 c-1 -2 -1 -2 1 -4 l2 -2 2 2 c2 2 2 2 1 4 -1 1 -3 2 -3 2 0
0 -2 -1 -3 -2z"/><path d="M305 174 c-1 -2 -1 -2 1 -4 l2 -2 2 2 c2 2 2 2 1 4 -1 1 -3 2 -3 2 0
0 -2 -1 -3 -2z"/><path d="M137 158 c-1 -2 -1 -2 1 -4 l2 -2 2 2 c2 2 2 2 1 4 -1 1 -3 2 -3 2 0
0 -2 -1 -3 -2z"/><path d="M288 156 l-3 -4 -53 0 c-51 0 -53 0 -54 -2 -2 -2 -2 -2 0 -4 2 -3
122 -3 124 0 2 2 2 2 -4 8 -3 3 -6 6 -6 6 -1 0 -2 -2 -4 -4z"/><path d="M385 150 c-1 -2 -1 -2 1 -4 l2 -2 2 2 c2 2 2 2 1 4 -1 1 -3 2 -3 2 0
0 -2 -1 -3 -2z"/><path d="M146 134 c-3 -3 0 -6 6 -6 3 0 5 1 7 2 2 3 -1 6 -7 6 -3 0 -5 -1 -6
-2z"/><path d="M185 134 c-1 -2 -1 -2 1 -4 l2 -2 2 2 c2 2 2 2 1 4 -1 1 -3 2 -3 2 0
0 -2 -1 -3 -2z"/><path d="M345 134 c-1 -2 -1 -2 1 -4 l2 -2 2 2 c2 2 2 2 1 4 -1 1 -3 2 -3 2 0
0 -2 -1 -3 -2z"/><path d="M377 134 c-1 -2 -1 -2 1 -4 l2 -2 2 2 c2 2 2 2 1 4 -1 1 -3 2 -3 2 0
0 -2 -1 -3 -2z"/></g>
  <g transform="scale(0.125 0.125) translate(0.000000,512.000000) scale(1.000000,-1.000000)" fill="#674309" stroke="none"><path d="M169 174 c-1 -2 -1 -2 1 -4 l2 -2 2 2 c2 2 2 2 1 4 -1 1 -3 2 -3 2 0
0 -2 -1 -3 -2z"/><path d="M305 174 c-1 -2 -1 -2 1 -4 l2 -2 2 2 c2 2 2 2 1 4 -1 1 -3 2 -3 2 0
0 -2 -1 -3 -2z"/><path d="M137 158 c-1 -2 -1 -2 1 -4 l2 -2 2 2 c2 2 2 2 1 4 -1 1 -3 2 -3 2 0
0 -2 -1 -3 -2z"/><path d="M288 156 l-3 -4 -53 0 c-51 0 -53 0 -54 -2 -2 -2 -2 -2 0 -4 2 -3
122 -3 124 0 2 2 2 2 -4 8 -3 3 -6 6 -6 6 -1 0 -2 -2 -4 -4z"/><path d="M146 134 c-3 -3 0 -6 6 -6 3 0 5 1 7 2 2 3 -1 6 -7 6 -3 0 -5 -1 -6
-2z"/><path d="M185 134 c-1 -2 -1 -2 1 -4 l2 -2 2 2 c2 2 2 2 1 4 -1 1 -3 2 -3 2 0
0 -2 -1 -3 -2z"/><path d="M345 134 c-1 -2 -1 -2 1 -4 l2 -2 2 2 c2 2 2 2 1 4 -1 1 -3 2 -3 2 0
0 -2 -1 -3 -2z"/><path d="M377 134 c-1 -2 -1 -2 1 -4 l2 -2 2 2 c2 2 2 2 1 4 -1 1 -3 2 -3 2 0
0 -2 -1 -3 -2z"/></g>
  <g transform="scale(0.125 0.125) translate(0.000000,512.000000) scale(1.000000,-1.000000)" fill="#ecc687" stroke="none"><path d="M169 174 c-1 -2 -1 -2 1 -4 l2 -2 2 2 c2 2 2 2 1 4 -1 1 -3 2 -3 2 0
0 -2 -1 -3 -2z"/><path d="M305 174 c-1 -2 -1 -2 1 -4 l2 -2 2 2 c2 2 2 2 1 4 -1 1 -3 2 -3 2 0
0 -2 -1 -3 -2z"/><path d="M137 158 c-1 -2 -1 -2 1 -4 l2 -2 2 2 c2 2 2 2 1 4 -1 1 -3 2 -3 2 0
0 -2 -1 -3 -2z"/><path d="M146 134 c-3 -3 0 -6 6 -6 3 0 5 1 7 2 2 3 -1 6 -7 6 -3 0 -5 -1 -6
-2z"/><path d="M377 134 c-1 -2 -1 -2 1 -4 l2 -2 2 2 c2 2 2 2 1 4 -1 1 -3 2 -3 2 0
0 -2 -1 -3 -2z"/></g>
  <g transform="scale(0.125 0.125) translate(0.000000,512.000000) scale(1.000000,-1.000000)" fill="#afd5d0" stroke="none"><path d="M169 174 c-1 -2 -1 -2 1 -4 l2 -2 2 2 c2 2 2 2 1 4 -1 1 -3 2 -3 2 0
0 -2 -1 -3 -2z"/><path d="M305 174 c-1 -2 -1 -2 1 -4 l2 -2 2 2 c2 2 2 2 1 4 -1 1 -3 2 -3 2 0
0 -2 -1 -3 -2z"/></g>
</svg>
