<?xml version="1.0" encoding="UTF-8"?>
<svg xmlns="http://www.w3.org/2000/svg" viewBox="0 0 64 64" shape-rendering="crispEdges">
<rect x="20" y="39" width="21" height="1" fill="#001714"/>
<rect x="19" y="40" width="1" height="1" fill="#001714"/>
<rect x="20" y="40" width="17" height="1" fill="#55948b"/>
<rect x="37" y="40" width="4" height="1" fill="#236b61"/>
<rect x="41" y="40" width="2" height="1" fill="#001714"/>
<rect x="18" y="41" width="1" height="1" fill="#001714"/>
<rect x="19" y="41" width="3" height="1" fill="#55948b"/>
<rect x="22" y="41" width="19" height="1" fill="#236b61"/>
<rect x="41" y="41" width="2" height="1" fill="#054139"/>
<rect x="43" y="41" width="1" height="1" fill="#001714"/>
<rect x="18" y="42" width="3" height="1" fill="#001714"/>
<rect x="21" y="42" width="1" height="1" fill="#afd5d0"/>
<rect x="22" y="42" width="5" height="1" fill="#236b61"/>
<rect x="27" y="42" width="1" height="1" fill="#afd5d0"/>
<rect x="28" y="42" width="2" height="1" fill="#001714"/>
<rect x="30" y="42" width="12" height="1" fill="#236b61"/>
<rect x="42" y="42" width="2" height="1" fill="#054139"/>
<rect x="44" y="42" width="1" height="1" fill="#001714"/>
<rect x="13" y="43" width="15" height="1" fill="#251700"/>
<rect x="28" y="43" width="3" height="1" fill="#236b61"/>
<rect x="31" y="43" width="1" height="1" fill="#001714"/>
<rect x="32" y="43" width="5" height="1" fill="#236b61"/>
<rect x="37" y="43" width="1" height="1" fill="#001714"/>
<rect x="38" y="43" width="4" height="1" fill="#236b61"/>
<rect x="42" y="43" width="3" height="1" fill="#054139"/>
<rect x="45" y="43" width="1" height="1" fill="#001714"/>
<rect x="13" y="44" width="1" height="1" fill="#251700"/>
<rect x="14" y="44" width="1" height="1" fill="#ecc687"/>
<rect x="15" y="44" width="12" height="1" fill="#aa7f38"/>
<rect x="27" y="44" width="1" height="1" fill="#674309"/>
<rect x="28" y="44" width="1" height="1" fill="#251700"/>
<rect x="29" y="44" width="2" height="1" fill="#236b61"/>
<rect x="31" y="44" width="1" height="1" fill="#001714"/>
<rect x="32" y="44" width="5" height="1" fill="#236b61"/>
<rect x="37" y="44" width="1" height="1" fill="#001714"/>
<rect x="38" y="44" width="1" height="1" fill="#054139"/>
<rect x="39" y="44" width="3" height="1" fill="#236b61"/>
<rect x="42" y="44" width="3" height="1" fill="#054139"/>
<rect x="45" y="44" width="1" height="1" fill="#001714"/>
<rect x="14" y="45" width="2" height="1" fill="#251700"/>
<rect x="16" y="45" width="1" height="1" fill="#aa7f38"/>
<rect x="17" y="45" width="12" height="1" fill="#674309"/>
<rect x="29" y="45" width="1" height="1" fill="#251700"/>
<rect x="30" y="45" width="2" height="1" fill="#236b61"/>
<rect x="32" y="45" width="1" height="1" fill="#001714"/>
<rect x="33" y="45" width="3" height="1" fill="#236b61"/>
<rect x="36" y="45" width="1" height="1" fill="#001714"/>
<rect x="37" y="45" width="1" height="1" fill="#054139"/>
<rect x="38" y="45" width="3" height="1" fill="#236b61"/>
<rect x="41" y="45" width="4" height="1" fill="#054139"/>
<rect x="45" y="45" width="1" height="1" fill="#001714"/>
<rect x="15" y="46" width="14" height="1" fill="#251700"/>
<rect x="29" y="46" width="1" height="1" fill="#054139"/>
<rect x="30" y="46" width="3" height="1" fill="#236b61"/>
<rect x="33" y="46" width="3" height="1" fill="#001714"/>
<rect x="36" y="46" width="1" height="1" fill="#054139"/>
<rect x="37" y="46" width="2" height="1" fill="#236b61"/>
<rect x="39" y="46" width="5" height="1" fill="#054139"/>
<rect x="44" y="46" width="1" height="1" fill="#001714"/>
<rect x="23" y="47" width="1" height="1" fill="#001714"/>
<rect x="24" y="47" width="1" height="1" fill="#aa7f38"/>
<rect x="25" y="47" width="1" height="1" fill="#674309"/>
<rect x="26" y="47" width="1" height="1" fill="#251700"/>
<rect x="27" y="47" width="2" height="1" fill="#ecc687"/>
<rect x="29" y="47" width="4" height="1" fill="#aa7f38"/>
<rect x="33" y="47" width="1" height="1" fill="#251700"/>
<rect x="34" y="47" width="6" height="1" fill="#054139"/>
<rect x="40" y="47" width="4" height="1" fill="#001714"/>
</svg>
