<?xml version="1.0" encoding="UTF-8"?>
<svg xmlns="http://www.w3.org/2000/svg" viewBox="0 0 32 32" width="32" height="32">
  <g transform="scale(0.125 0.125) translate(0.000000,256.000000) scale(1.000000,-1.000000)" fill="#2f2f2e" stroke="none"><path d="M114 126 c-2 -1 -2 -4 -2 -10 l0 -8 -8 -8 -8 -8 0 -8 0 -8 8 -8 9 -8
-5 -4 c-4 -3 -4 -4 -4 -8 0 -4 0 -5 -4 -8 -4 -3 -4 -4 -4 -8 0 -6 -2 -8 -8 -8
-4 0 -5 -1 -10 -6 l-6 -6 4 -4 c2 -2 4 -4 4 -6 0 -2 0 -2 8 -2 7 0 8 0 8 2 0
1 2 5 6 8 5 6 6 6 10 6 4 0 5 0 8 4 l3 4 13 0 13 0 3 -4 c3 -4 4 -4 8 -4 7 0
8 2 8 12 l0 9 -4 3 c-4 3 -4 4 -4 8 0 4 0 4 12 16 12 12 12 12 12 16 0 4 0 5
4 8 4 3 4 4 4 8 0 7 -2 8 -12 8 -11 0 -12 1 -12 12 0 10 -1 12 -8 12 -4 0 -5
0 -8 -4 l-3 -4 -9 0 -9 0 -3 4 c-3 4 -4 4 -8 4 -3 0 -5 -1 -6 -2z"/></g>
  <g transform="scale(0.125 0.125) translate(0.000000,256.000000) scale(1.000000,-1.000000)" fill="#e0e0e0" stroke="none"><path d="M122 118 c-2 -1 -2 -4 -2 -12 l0 -10 -6 0 c-9 0 -10 -1 -10 -12 l0
-8 8 -8 9 -8 -5 -4 c-4 -3 -4 -4 -4 -8 0 -4 0 -5 -4 -8 -4 -3 -4 -3 -4 -10 0
-6 0 -6 -2 -6 -3 0 -6 -3 -6 -6 0 -2 0 -2 -6 -2 -8 0 -12 -3 -9 -6 5 -5 15 -2
15 4 0 1 1 2 2 2 3 0 6 3 6 6 0 2 0 2 6 2 7 0 7 0 10 4 l3 4 13 0 13 0 3 -4
c4 -4 4 -4 6 -3 1 2 2 4 2 7 0 4 0 5 -4 8 -4 3 -4 4 -4 8 0 4 0 5 4 8 4 3 4 4
4 8 0 4 0 5 -4 8 -5 4 -6 8 -2 8 4 0 6 3 6 8 0 5 -2 8 -6 8 -4 0 -3 4 2 8 4 3
4 4 4 8 0 3 -1 5 -2 7 -2 1 -2 1 -6 -3 l-3 -4 -9 0 -9 0 -3 4 c-4 5 -4 5 -6 2z
m12 -16 c1 -1 2 -2 2 -4 0 -2 0 -2 8 -2 l8 0 0 -8 0 -8 -6 0 c-9 0 -10 1 -10
10 l0 6 -4 0 c-3 0 -4 0 -4 -2 0 -3 -3 -6 -6 -6 -2 0 -2 0 -2 -4 0 -4 0 -4 2
-4 2 0 4 -1 5 -2 1 -2 1 -2 -1 -4 -2 -2 -2 -2 -4 -1 -1 1 -2 3 -2 5 0 1 -1 2
-2 2 -2 0 -4 1 -4 2 -2 2 -2 2 0 4 0 1 2 2 4 2 2 0 2 0 2 4 l0 4 4 0 c3 0 4 0
4 2 0 2 3 6 4 6 0 0 1 -1 2 -2z"/><path d="M170 94 c-3 -3 -3 -18 0 -20 3 -3 6 0 6 6 0 4 0 5 4 8 4 4 4 4 3 6
-3 3 -11 3 -13 0z"/></g>
  <g transform="scale(0.125 0.125) translate(0.000000,256.000000) scale(1.000000,-1.000000)" fill="#b5b5b5" stroke="none"><path d="M122 118 c-2 -1 -2 -4 -2 -12 0 -10 0 -10 -2 -10 -2 0 -4 -1 -4 -2
-2 -2 -2 -2 0 -4 0 -1 2 -2 4 -2 2 0 2 0 2 -4 0 -4 0 -4 -2 -4 -4 0 -6 -3 -6
-8 0 -4 0 -5 4 -8 l5 -4 -5 -4 c-4 -3 -4 -4 -4 -8 0 -4 0 -5 -4 -8 -4 -3 -4
-3 -4 -10 0 -6 0 -6 -2 -6 -3 0 -6 -3 -6 -6 0 -2 0 -2 -6 -2 -8 0 -12 -3 -9
-6 5 -5 15 -2 15 4 0 1 1 2 2 2 3 0 6 3 6 6 0 2 0 2 6 2 9 0 10 1 10 12 l0 8
8 8 c8 7 8 8 8 12 0 6 2 8 8 8 5 0 8 2 8 6 0 1 1 2 2 2 2 0 4 1 5 2 1 2 1 2
-1 4 -2 2 -2 2 -4 1 -1 -1 -2 -3 -2 -5 0 -2 0 -2 -6 -2 -7 0 -7 0 -10 4 -3 4
-3 4 -10 4 l-6 0 0 4 c0 4 0 4 2 4 5 0 6 3 6 12 0 7 0 9 -2 10 -2 2 -2 2 -4 0z
m5 -40 c1 -2 1 -2 -1 -4 -2 -2 -2 -2 -4 -1 -3 3 -3 7 0 7 2 0 4 -1 5 -2z"/><path d="M153 118 c-1 -2 -1 -2 1 -4 l2 -2 2 2 c2 2 2 2 1 4 -1 1 -3 2 -3 2 0
0 -2 -1 -3 -2z"/><path d="M138 102 c-3 -3 0 -6 6 -6 3 0 5 1 7 2 2 3 -1 6 -7 6 -3 0 -5 -1 -6
-2z"/><path d="M177 94 c-1 -2 -1 -2 1 -4 l2 -2 2 2 c2 2 2 2 1 4 -1 1 -3 2 -3 2 0
0 -2 -1 -3 -2z"/></g>
</svg>
