<?xml version="1.0" encoding="UTF-8"?>
<svg xmlns="http://www.w3.org/2000/svg" viewBox="0 0 32 32" width="32" height="32">
  <g transform="scale(0.125 0.125) translate(0.000000,256.000000) scale(1.000000,-1.000000)" fill="#2f2f2e" stroke="none"><path d="M122 134 c-2 -1 -2 -4 -2 -18 l0 -16 -16 -16 c-16 -16 -16 -16 -16
-20 0 -4 0 -5 -8 -12 -8 -7 -8 -8 -8 -12 0 -4 1 -5 6 -10 l6 -6 6 6 c6 5 6 6
6 10 0 3 1 5 2 7 2 1 2 1 10 -7 7 -8 8 -8 12 -8 6 0 8 2 8 8 0 3 1 5 2 7 2 1
2 1 10 -7 7 -8 8 -8 12 -8 7 0 8 2 8 12 l0 9 -4 3 -4 4 6 6 c5 5 6 6 10 6 4 0
5 0 8 -4 l4 -4 6 6 c5 5 6 6 6 10 0 4 0 5 -8 12 l-8 8 0 16 c0 19 0 20 -8 20
-4 0 -5 0 -8 -4 l-3 -4 -9 0 -9 0 -3 4 c-3 4 -4 4 -8 4 -3 0 -5 -1 -6 -2z"/></g>
  <g transform="scale(0.125 0.125) translate(0.000000,256.000000) scale(1.000000,-1.000000)" fill="#b5b5b5" stroke="none"><path d="M130 126 c-2 -1 -2 -4 -2 -20 l0 -18 -6 0 -6 0 -10 -10 -10 -10 0 -6
c0 -6 0 -6 -2 -6 -3 0 -6 -3 -6 -6 0 -1 -1 -2 -2 -2 -6 0 -8 -10 -4 -14 3 -4
6 0 6 8 0 6 0 6 2 6 3 0 6 3 6 6 0 2 0 2 6 2 8 0 10 -2 10 -8 0 -3 1 -5 2 -7
3 -2 6 1 6 7 0 4 0 5 4 8 3 2 4 4 4 6 0 2 0 2 4 2 l4 0 0 -6 0 -6 6 -6 c6 -6
6 -6 8 -4 1 1 2 3 2 6 0 4 0 5 -4 8 -5 4 -6 8 -2 8 1 0 5 3 8 6 l6 6 -4 4 c-4
4 -4 4 -3 6 3 3 15 3 15 0 0 -1 3 -5 6 -8 6 -6 6 -6 8 -4 1 1 2 3 2 6 0 6 -2
8 -10 8 l-6 0 0 6 c0 6 0 7 -4 10 l-4 4 4 4 c5 4 6 11 2 15 -2 1 -2 1 -6 -3
l-3 -4 -9 0 -9 0 -3 4 c-4 5 -4 5 -6 2z m13 -16 c1 -2 1 -2 -1 -4 l-2 -2 -2 2
c-2 2 -2 2 -1 4 1 1 3 2 3 2 0 0 2 -1 3 -2z m-9 -24 c1 -1 2 -2 2 -4 0 -1 1
-2 2 -2 4 0 6 -3 6 -10 l0 -6 -4 0 -4 0 0 8 c0 8 0 8 -2 8 -3 0 -6 3 -6 6 0 3
3 3 6 0z m-8 -16 c1 -1 2 -2 2 -4 0 -3 -4 -3 -6 0 -2 2 -2 2 0 4 2 2 2 2 4 0z"/></g>
  <g transform="scale(0.125 0.125) translate(0.000000,256.000000) scale(1.000000,-1.000000)" fill="#e0e0e0" stroke="none"><path d="M138 118 c-2 -2 -2 -2 0 -4 1 -2 3 -2 14 -2 11 0 13 0 15 2 1 2 1 2
0 4 -2 2 -4 2 -15 2 -11 0 -13 0 -14 -2z"/><path d="M138 102 c-2 -2 -2 -2 0 -4 1 -2 3 -2 14 -2 11 0 13 0 15 2 1 2 1 2
0 4 -2 2 -4 2 -15 2 -11 0 -13 0 -14 -2z"/><path d="M178 86 c-3 -3 -3 -10 0 -12 3 -3 6 0 6 6 0 7 -3 10 -6 6z"/><path d="M130 78 c-2 -1 -2 -3 -2 -8 0 -8 -3 -8 -8 -2 l-4 4 -6 -6 -6 -6 4 -4
c4 -3 4 -4 4 -8 0 -3 1 -5 2 -6 3 -3 6 0 6 6 0 4 0 5 4 8 3 2 4 4 4 6 0 2 0 2
4 2 4 0 4 0 4 -2 0 -2 1 -4 2 -4 2 -2 2 -2 4 0 1 0 2 2 2 4 0 1 1 2 2 2 1 0 5
3 8 6 6 6 6 6 4 8 -1 1 -3 2 -6 2 -6 0 -8 -2 -8 -10 l0 -6 -4 0 -4 0 0 6 c0 5
0 7 -2 8 -2 2 -2 2 -4 0z"/></g>
</svg>
