<?xml version="1.0" encoding="UTF-8"?>
<svg xmlns="http://www.w3.org/2000/svg" viewBox="0 0 32 32" width="32" height="32">
  <g transform="scale(0.125 0.125) translate(0.000000,256.000000) scale(1.000000,-1.000000)" fill="#2f2f2e" stroke="none"><path d="M130 78 c-2 -1 -2 -4 -2 -18 0 -19 0 -20 -8 -20 -6 0 -8 2 -8 8 0 4
0 5 -10 14 -9 9 -10 10 -14 10 -4 0 -5 -1 -10 -6 l-6 -6 8 -8 8 -8 0 -12 0
-13 4 -3 c4 -3 4 -3 4 -10 l0 -6 24 0 24 0 0 2 c0 2 1 4 2 5 2 1 2 1 4 0 1 -1
2 -3 2 -5 0 -2 0 -2 8 -2 l8 0 0 6 c0 7 0 7 4 10 4 3 4 4 4 8 0 4 0 5 4 8 l4
3 0 9 0 9 -4 3 -4 3 0 9 c0 10 -1 12 -8 12 -4 0 -5 0 -8 -4 -3 -4 -4 -4 -8 -4
-4 0 -5 0 -8 4 -3 4 -4 4 -8 4 -3 0 -5 -1 -6 -2z"/></g>
  <g transform="scale(0.125 0.125) translate(0.000000,256.000000) scale(1.000000,-1.000000)" fill="#e0e0e0" stroke="none"><path d="M138 70 c-2 -1 -2 -4 -2 -18 0 -21 2 -20 -20 -20 -19 0 -20 0 -20 -8
0 -5 2 -8 6 -8 1 0 2 -1 2 -2 0 -2 1 -4 2 -4 2 -2 2 -2 4 0 1 0 2 2 2 4 0 2 0
2 12 2 12 0 12 0 12 -2 0 -2 1 -4 2 -4 2 -2 2 -2 4 0 1 0 2 2 2 4 0 4 4 3 8
-2 l4 -4 6 6 c6 5 6 6 6 10 0 4 0 5 4 8 l4 3 0 9 0 8 -6 6 -6 6 -8 0 -9 0 -3
4 c-4 5 -4 5 -6 2z m21 -16 c1 -2 1 -2 -1 -4 l-2 -2 -2 2 c-2 2 -2 2 -1 4 1 1
3 2 3 2 0 0 2 -1 3 -2z m-49 -32 c1 -1 2 -2 2 -4 0 -2 0 -2 -4 -2 -5 0 -6 3
-2 6 2 2 2 2 4 0z m32 0 c1 -1 2 -2 2 -4 0 -2 0 -2 -4 -2 -5 0 -6 3 -2 6 2 2
2 2 4 0z"/><path d="M82 62 c-4 -3 0 -6 8 -6 l6 0 0 -6 c0 -8 3 -12 6 -8 5 4 2 14 -4 14
-1 0 -2 1 -2 2 0 6 -10 8 -14 4z"/></g>
  <g transform="scale(0.125 0.125) translate(0.000000,256.000000) scale(1.000000,-1.000000)" fill="#b5b5b5" stroke="none"><path d="M138 70 c-3 -3 -3 -34 0 -36 3 -3 34 -3 37 0 1 2 1 2 0 4 -2 2 -4 2
-15 2 -17 0 -16 -1 -16 16 0 11 0 13 -2 14 -2 2 -2 2 -4 0z"/><path d="M162 54 c-3 -3 0 -6 6 -6 6 0 9 3 7 6 -2 1 -4 2 -7 2 -3 0 -5 -1 -6
-2z"/><path d="M153 22 c-1 -2 -1 -2 1 -4 l2 -2 2 2 c2 2 2 2 1 4 -1 1 -3 2 -3 2 0
0 -2 -1 -3 -2z"/><path d="M105 14 c-1 -2 -1 -2 1 -4 l2 -2 2 2 c2 2 2 2 1 4 -1 1 -3 2 -3 2 0
0 -2 -1 -3 -2z"/></g>
</svg>
