<?xml version="1.0" encoding="UTF-8"?>
<svg xmlns="http://www.w3.org/2000/svg" viewBox="0 0 32 32" width="32" height="32">
  <g transform="scale(0.125 0.125) translate(0.000000,256.000000) scale(1.000000,-1.000000)" fill="#2f2f2e" stroke="none"><path d="M94 90 c-6 -5 -6 -6 -6 -10 0 -4 0 -5 -4 -8 -4 -3 -4 -4 -4 -8 0 -4
0 -5 4 -8 l4 -3 0 -9 0 -8 6 -6 6 -6 36 0 c43 0 40 -1 40 12 l0 9 4 3 4 3 0 9
0 9 -4 3 c-4 3 -4 4 -4 8 0 4 0 5 -6 10 -5 6 -6 6 -10 6 -4 0 -5 0 -8 -4 -3
-4 -4 -4 -8 -4 -4 0 -5 0 -8 4 -3 4 -4 4 -8 4 -6 0 -8 -2 -8 -8 0 -4 0 -5 4
-8 4 -3 4 -4 4 -8 0 -7 -2 -8 -12 -8 -8 0 -9 0 -11 2 -1 2 -1 2 3 6 l4 4 0 8
c0 10 -1 12 -8 12 -4 0 -5 -1 -10 -6z"/></g>
  <g transform="scale(0.125 0.125) translate(0.000000,256.000000) scale(1.000000,-1.000000)" fill="#e0e0e0" stroke="none"><path d="M98 86 c-2 -1 -2 -3 -2 -8 0 -6 0 -6 -2 -6 -4 0 -6 -3 -6 -8 0 -5 2
-8 6 -8 2 0 2 0 2 -10 0 -14 0 -14 16 -14 14 0 16 1 16 6 0 2 1 2 6 2 6 0 7 0
10 -4 l4 -4 8 8 c7 8 8 8 12 8 7 0 8 2 8 12 l0 8 -6 6 -6 6 -14 0 -14 0 0 2
c0 2 -1 4 -2 5 -2 1 -2 1 -4 -1 -2 -2 -2 -2 -1 -4 1 -1 3 -2 5 -2 2 0 2 0 2
-10 0 -15 1 -14 -22 -14 l-18 0 0 8 c0 8 0 8 2 8 6 0 8 10 4 14 -2 2 -2 2 -4
0z m61 -16 c1 -2 1 -2 -1 -4 l-2 -2 -2 2 c-2 2 -2 2 -1 4 1 1 3 2 3 2 0 0 2
-1 3 -2z m-33 -24 c1 -1 2 -2 2 -4 0 -2 0 -2 -6 -2 -8 0 -12 3 -8 6 2 3 9 3
12 0z"/></g>
  <g transform="scale(0.125 0.125) translate(0.000000,256.000000) scale(1.000000,-1.000000)" fill="#b5b5b5" stroke="none"><path d="M130 86 c-2 -2 -2 -2 0 -4 0 -1 2 -2 4 -2 l2 0 0 -14 c0 -19 -1 -18
20 -18 15 0 17 0 19 2 1 2 1 2 0 4 -2 2 -4 2 -15 2 -16 0 -16 0 -16 12 0 9 -1
12 -6 12 -1 0 -2 1 -2 2 0 2 -3 6 -4 6 0 0 -2 -1 -2 -2z"/><path d="M162 70 c-3 -3 0 -6 6 -6 3 0 5 1 7 2 2 3 -1 6 -7 6 -3 0 -5 -1 -6
-2z"/></g>
</svg>
