<?xml version="1.0" encoding="UTF-8"?>
<svg xmlns="http://www.w3.org/2000/svg" viewBox="0 0 32 32" width="32" height="32">
  <g transform="scale(0.125 0.125) translate(0.000000,256.000000) scale(1.000000,-1.000000)" fill="#2f2f2e" stroke="none"><path d="M122 102 c-1 -1 -2 -3 -2 -6 0 -4 0 -5 4 -8 l4 -3 0 -9 c0 -12 0 -12
-16 -12 l-12 0 -16 16 c-16 16 -16 16 -20 16 -6 0 -8 -2 -8 -8 0 -4 0 -5 12
-16 l12 -12 -4 -4 c-4 -3 -4 -4 -4 -8 0 -7 2 -8 12 -8 l9 0 3 -4 3 -4 21 0 21
0 3 4 3 4 17 0 16 0 6 6 c6 5 6 6 6 10 0 4 0 5 -4 8 -4 3 -4 4 -4 8 0 4 0 5
-8 12 -8 7 -8 8 -8 12 0 6 -2 8 -8 8 -4 0 -5 0 -8 -4 -3 -4 -4 -4 -8 -4 -4 0
-5 0 -8 4 -3 4 -4 4 -8 4 -3 0 -5 -1 -6 -2z"/></g>
  <g transform="scale(0.125 0.125) translate(0.000000,256.000000) scale(1.000000,-1.000000)" fill="#e0e0e0" stroke="none"><path d="M130 94 c-2 -2 -2 -2 0 -4 0 -1 2 -2 4 -2 l2 0 0 -14 c0 -20 3 -18
-28 -18 -23 0 -25 0 -26 -2 -3 -3 0 -6 6 -6 4 0 5 0 8 -4 l3 -4 21 0 21 0 3 4
c3 4 4 4 8 4 5 0 8 2 8 6 0 2 0 2 6 2 9 0 10 1 10 12 l0 8 -6 6 -6 6 -14 0
-14 0 0 2 c0 2 -3 6 -4 6 0 0 -2 -1 -2 -2z m29 -16 c1 -2 1 -2 -1 -4 l-2 -2
-2 2 c-2 2 -2 2 -1 4 1 1 3 2 3 2 0 0 2 -1 3 -2z m-1 -16 c1 -1 2 -2 2 -4 0
-2 0 -2 -6 -2 -8 0 -12 3 -8 6 2 3 9 3 12 0z"/><path d="M66 86 c-2 -2 -2 -2 0 -4 0 -1 2 -2 4 -2 1 0 2 -1 2 -2 0 -3 3 -6 6
-6 1 0 2 -1 2 -2 0 -2 1 -4 2 -5 2 -1 2 -1 4 1 2 2 2 2 1 4 -1 1 -3 2 -5 2 -1
0 -2 1 -2 2 0 3 -3 6 -6 6 -1 0 -2 1 -2 2 0 2 -3 6 -4 6 0 0 -2 -1 -2 -2z"/></g>
  <g transform="scale(0.125 0.125) translate(0.000000,256.000000) scale(1.000000,-1.000000)" fill="#b5b5b5" stroke="none"><path d="M130 94 c-2 -2 -2 -2 0 -4 0 -1 2 -2 4 -2 l2 0 0 -14 c0 -13 0 -15 2
-17 2 -1 2 -1 4 0 2 2 2 4 2 15 0 14 -1 16 -6 16 -1 0 -2 1 -2 2 0 2 -3 6 -4
6 0 0 -2 -1 -2 -2z"/><path d="M162 78 c-3 -3 0 -6 6 -6 3 0 5 1 7 2 2 3 -1 6 -7 6 -3 0 -5 -1 -6
-2z"/><path d="M162 62 c-3 -3 0 -6 6 -6 6 0 9 3 7 6 -2 1 -4 2 -7 2 -3 0 -5 -1 -6
-2z"/></g>
</svg>
