<?xml version="1.0" encoding="UTF-8"?>
<svg xmlns="http://www.w3.org/2000/svg" viewBox="0 0 48 48" width="48" height="48">
  <g transform="translate(48 0) scale(-1 1) rotate(15 24 38)">
<g transform="scale(0.062500 0.062500) translate(0.000000,768.000000) scale(1.000000,-1.000000)" fill="#d4a373" stroke="none"><path d="M195.65 396.17 C191.91 392.03 194.86 386.00 200.63 386.00 C204.44 386.00 206.00 387.61 206.00 391.55 C206.00 397.24 199.32 400.22 195.65 396.17 Z M491.13 373.13 C489.10 371.10 489.00 370.06 489.00 351.15 C489.00 332.62 489.87 325.00 491.98 325.00 C492.42 325.00 493.99 325.63 495.48 326.40 C497.38 327.39 499.09 327.55 501.23 326.93 C508.30 324.91 511.08 319.71 512.12 306.59 C512.54 301.13 513.39 295.47 514.00 294.01 C514.63 292.47 517.28 290.11 520.27 288.40 C524.06 286.23 526.23 284.06 528.40 280.27 C532.46 273.15 534.44 272.50 552.00 272.50 C569.56 272.50 571.54 273.15 575.60 280.27 C577.77 284.06 579.94 286.23 583.73 288.40 C586.75 290.12 589.31 292.42 589.89 293.93 C593.03 302.11 591.86 313.01 587.42 316.82 C584.83 319.05 584.18 319.15 575.97 318.50 C563.72 317.53 559.00 320.17 559.00 328.00 C559.00 332.80 560.56 334.75 567.02 338.01 C576.84 342.97 575.98 348.32 564.71 352.44 C555.84 355.69 551.00 361.69 551.00 369.43 C551.00 371.98 550.42 373.24 548.86 374.08 C546.72 375.22 536.60 374.93 535.36 373.70 C535.01 373.34 535.29 371.03 535.99 368.54 C537.47 363.23 536.45 359.76 532.18 355.67 C528.19 351.85 522.82 350.00 515.78 350.01 C507.77 350.03 504.84 351.52 503.23 356.40 C502.17 359.63 502.23 361.28 503.58 366.69 C504.47 370.23 504.98 373.36 504.71 373.63 C504.43 373.90 501.75 374.38 498.73 374.69 C494.03 375.17 492.95 374.95 491.13 373.13 Z M557.42 350.48 C567.43 348.16 569.00 347.37 569.00 344.68 C569.00 342.88 568.04 341.87 565.05 340.52 C559.13 337.85 556.78 334.82 556.31 329.28 C555.86 323.85 557.22 320.65 561.21 317.68 C563.54 315.95 565.31 315.69 573.78 315.83 C580.40 315.93 584.21 315.57 585.37 314.72 C588.84 312.18 589.72 300.22 586.85 294.75 C586.34 293.79 583.73 291.88 581.04 290.52 C577.20 288.58 575.54 286.90 573.32 282.77 C569.72 276.05 567.12 275.11 552.00 275.11 C536.88 275.11 534.28 276.05 530.68 282.77 C528.46 286.90 526.80 288.58 522.96 290.52 C520.27 291.88 517.56 293.95 516.94 295.12 C516.31 296.28 515.41 302.70 514.93 309.37 C514.45 316.04 513.61 323.30 513.05 325.50 C511.79 330.54 511.72 339.12 512.92 342.28 C513.90 344.88 516.62 346.21 524.58 347.98 C527.37 348.61 531.42 349.75 533.58 350.51 C538.79 352.37 549.34 352.36 557.42 350.48 Z M281.98 327.43 C281.42 325.98 281.00 312.05 281.00 295.17 C281.00 268.18 281.17 265.15 282.85 261.99 C283.87 260.07 285.25 256.21 285.91 253.42 C287.78 245.56 290.00 242.77 297.43 238.96 C306.57 234.27 311.52 227.52 312.58 218.27 C313.84 207.28 314.31 207.02 321.95 213.05 C325.38 215.77 327.27 218.08 327.66 220.07 C328.40 223.77 332.86 227.62 338.03 229.01 C340.63 229.71 359.66 229.97 394.23 229.78 L446.50 229.50 L451.10 226.80 C454.65 224.71 456.08 223.07 457.41 219.58 C458.56 216.58 460.51 214.06 463.27 212.04 C468.64 208.08 470.00 208.15 470.00 212.38 C470.00 215.98 468.89 217.31 463.74 219.88 C456.12 223.69 460.11 233.69 471.54 239.48 C477.93 242.71 480.28 245.82 482.09 253.42 C482.76 256.21 484.16 260.14 485.20 262.14 C486.68 265.00 487.02 267.47 486.79 273.63 C486.45 282.74 485.75 283.31 478.85 280.06 C475.61 278.53 473.86 276.80 472.00 273.29 C467.88 265.51 465.11 264.50 448.00 264.50 C435.23 264.50 433.08 264.74 430.00 266.53 C424.23 269.89 423.00 273.64 423.00 287.93 C423.00 303.37 424.59 307.65 431.57 311.03 C434.02 312.22 436.69 314.14 437.51 315.32 C439.59 318.29 439.37 322.63 437.00 325.00 C435.04 326.96 433.64 327.00 363.75 327.04 C304.31 327.08 291.84 327.33 288.50 328.53 C283.22 330.43 283.11 330.41 281.98 327.43 Z M471.43 252.67 C473.88 250.89 472.73 247.53 469.22 246.16 C458.52 241.99 458.68 242.00 384.00 242.00 C309.32 242.00 309.48 241.99 298.78 246.16 C295.27 247.53 294.12 250.89 296.57 252.67 C299.25 254.63 468.75 254.63 471.43 252.67 Z M313.40 188.46 C312.56 185.10 313.63 180.07 315.67 177.82 C318.08 175.15 322.61 175.48 324.56 178.45 C326.73 181.77 325.72 184.30 320.75 187.95 C315.71 191.66 314.23 191.77 313.40 188.46 Z M463.25 187.95 C458.28 184.30 457.27 181.77 459.44 178.45 C461.39 175.48 465.92 175.15 468.33 177.82 C471.49 181.31 471.75 191.00 468.68 191.00 C467.97 191.00 465.53 189.63 463.25 187.95 Z"/></g>
  <g transform="scale(0.062500 0.062500) translate(0.000000,768.000000) scale(1.000000,-1.000000)" fill="#a47a52" stroke="none"><path d="M198.25 400.31 C199.21 400.06 200.79 400.06 201.75 400.31 C202.71 400.56 201.93 400.77 200.00 400.77 C198.07 400.77 197.29 400.56 198.25 400.31 Z M193.40 397.75 L191.50 395.50 L193.75 397.40 C195.86 399.20 196.46 400.00 195.65 400.00 C195.47 400.00 194.45 398.99 193.40 397.75 Z M205.50 398.00 C206.50 396.90 207.53 396.00 207.81 396.00 C208.08 396.00 207.50 396.90 206.50 398.00 C205.50 399.10 204.47 400.00 204.19 400.00 C203.92 400.00 204.50 399.10 205.50 398.00 Z M191.23 392.00 C191.23 390.07 191.44 389.29 191.69 390.25 C191.94 391.21 191.94 392.79 191.69 393.75 C191.44 394.71 191.23 393.93 191.23 392.00 Z M208.73 390.93 C209.32 385.45 207.47 383.02 202.68 382.96 L199.50 382.92 L202.24 381.43 C205.43 379.70 205.78 378.43 206.27 366.86 C206.51 361.06 207.17 357.39 208.26 355.72 C210.24 352.70 218.54 347.89 220.48 348.63 C223.04 349.61 225.01 353.88 227.12 363.04 C229.04 371.38 229.08 372.26 227.60 373.89 C226.72 374.86 226.00 376.03 226.00 376.48 C226.00 378.81 220.64 383.87 216.48 385.45 C212.65 386.92 211.50 387.97 210.03 391.37 L208.24 395.50 L208.73 390.93 Z M544.59 388.25 C544.17 387.84 530.92 387.27 515.12 387.00 C483.79 386.45 483.24 386.35 479.26 380.28 C477.67 377.86 477.45 373.54 477.00 336.21 L476.50 294.82 L473.89 292.66 C472.45 291.47 469.85 289.73 468.11 288.78 C466.37 287.83 464.17 285.60 463.22 283.82 C462.27 282.04 460.30 279.33 458.83 277.79 C456.33 275.18 455.62 275.00 448.03 275.00 C440.74 275.00 439.66 275.25 437.45 277.45 C435.25 279.66 435.00 280.74 435.00 288.03 C435.00 295.62 435.18 296.33 437.79 298.83 C439.33 300.30 441.99 302.24 443.71 303.15 C449.22 306.08 450.48 309.20 450.48 320.00 C450.48 330.49 449.41 333.37 444.28 336.74 C441.79 338.37 436.13 338.54 368.21 339.00 L294.82 339.50 L293.07 341.67 C291.74 343.31 291.15 346.52 290.68 354.67 C289.77 370.56 289.86 370.37 283.16 369.68 C276.93 369.03 273.51 366.94 270.98 362.23 C270.04 360.47 268.70 358.34 268.01 357.51 C267.04 356.35 267.01 355.00 267.88 351.56 C269.30 345.92 269.33 325.72 267.92 320.66 C267.07 317.59 267.17 316.16 268.43 313.51 C269.75 310.73 270.01 305.29 270.06 279.85 C270.12 246.02 270.44 243.88 276.00 240.34 C282.45 236.24 284.78 234.04 286.73 230.26 C287.79 228.19 290.13 225.60 291.92 224.50 C293.71 223.40 296.60 221.30 298.34 219.83 L301.50 217.17 L302.00 191.65 C302.47 167.75 302.63 165.96 304.59 163.32 C307.30 159.67 311.92 158.11 320.00 158.11 C328.08 158.11 332.70 159.67 335.41 163.32 C337.37 165.96 337.53 167.75 338.00 191.55 C338.49 216.32 338.56 217.01 340.78 219.22 L343.06 221.50 L392.00 221.50 L440.94 221.50 L443.22 219.22 C445.44 217.01 445.51 216.32 446.00 191.55 C446.47 167.75 446.63 165.96 448.59 163.32 C451.30 159.67 455.92 158.11 464.00 158.11 C472.08 158.11 476.70 159.67 479.41 163.32 C481.41 166.02 481.52 167.62 482.00 199.65 L482.50 233.17 L485.66 235.83 C487.40 237.30 490.32 239.41 492.16 240.52 C497.53 243.76 497.88 246.14 497.96 280.00 C498.04 314.32 498.24 315.50 504.00 315.50 C506.67 315.50 507.73 314.94 508.71 313.00 C509.67 311.09 509.97 310.93 509.99 312.30 C510.01 315.40 507.01 320.04 504.32 321.07 C501.06 322.31 498.95 321.64 495.91 318.40 C493.51 315.86 493.50 315.68 493.00 288.67 L492.50 261.50 L488.58 255.00 C480.87 242.19 479.95 241.03 474.51 237.01 C467.98 232.18 467.44 229.54 471.96 224.40 C476.65 219.05 477.30 214.79 476.74 193.00 C476.07 166.76 475.29 165.06 464.00 165.06 C454.23 165.06 452.00 167.77 452.00 179.63 C452.00 186.83 452.81 188.99 457.29 193.72 C461.59 198.26 461.34 201.68 456.28 207.42 C453.94 210.08 451.78 213.82 451.16 216.30 C449.90 221.29 446.70 224.65 441.92 226.02 C437.39 227.32 346.61 227.32 342.08 226.02 C337.30 224.65 334.10 221.29 332.84 216.30 C332.22 213.82 330.06 210.08 327.72 207.42 C322.66 201.68 322.41 198.26 326.71 193.72 C331.19 188.99 332.00 186.83 332.00 179.63 C332.00 167.77 329.77 165.06 320.00 165.06 C308.39 165.06 307.94 166.19 307.10 198.00 C306.30 228.03 305.73 229.64 293.22 237.41 C288.76 240.18 286.68 242.80 279.68 254.50 L275.50 261.50 L275.58 289.00 C275.70 328.03 276.48 359.35 277.36 360.78 C278.46 362.55 280.79 362.28 281.84 360.25 C282.35 359.29 282.95 354.67 283.19 349.98 C283.69 340.03 285.59 335.94 290.96 333.27 C294.22 331.64 300.32 331.46 367.33 331.00 C450.99 330.43 443.00 331.56 443.00 320.24 C443.00 312.26 442.19 310.77 436.05 307.43 C429.14 303.67 427.59 300.10 427.59 288.00 C427.59 271.17 430.83 268.00 448.00 268.00 C460.75 268.00 463.55 269.18 467.59 276.25 C469.75 280.04 471.93 282.23 475.63 284.35 C484.78 289.57 484.43 287.67 485.00 334.83 C485.48 374.28 485.59 376.23 487.44 377.58 C488.94 378.68 493.38 379.00 507.03 379.00 C516.74 379.00 530.72 379.28 538.09 379.63 C555.25 380.44 556.00 380.01 556.73 368.94 C557.30 360.25 558.60 357.76 563.97 355.01 C569.26 352.32 569.62 352.47 565.86 355.83 C562.85 358.52 562.66 359.14 561.96 368.33 C561.13 379.36 559.87 382.00 554.05 384.97 C551.90 386.07 549.85 387.43 549.51 387.99 C548.78 389.17 545.67 389.34 544.59 388.25 Z M193.50 386.00 C194.50 384.90 195.53 384.00 195.81 384.00 C196.08 384.00 195.50 384.90 194.50 386.00 C193.50 387.10 192.47 388.00 192.19 388.00 C191.92 388.00 192.50 387.10 193.50 386.00 Z M218.43 377.43 C221.96 373.90 219.28 357.41 215.29 358.18 C212.27 358.76 210.87 362.96 211.31 370.11 C211.53 373.75 212.03 377.24 212.42 377.86 C213.42 379.49 216.59 379.26 218.43 377.43 Z M513.31 371.05 C509.21 368.55 508.00 366.18 508.00 360.64 C508.00 354.35 511.06 352.00 519.23 352.00 C524.69 352.00 525.49 352.29 528.60 355.40 C538.08 364.88 525.05 378.21 513.31 371.05 Z M523.07 364.96 C527.28 362.71 524.66 356.00 519.57 356.00 C517.12 356.00 513.96 359.70 514.66 361.73 C515.99 365.55 519.47 366.89 523.07 364.96 Z M573.50 350.00 C574.50 348.90 575.53 348.00 575.81 348.00 C576.08 348.00 575.50 348.90 574.50 350.00 C573.50 351.10 572.47 352.00 572.19 352.00 C571.92 352.00 572.50 351.10 573.50 350.00 Z M576.10 345.33 C575.91 341.14 574.65 339.76 568.52 337.01 C561.12 333.69 558.89 330.10 561.02 324.96 C562.86 320.50 564.95 319.86 576.45 320.19 C583.24 320.39 586.26 320.81 585.17 321.39 C584.25 321.87 582.56 323.13 581.40 324.17 C579.69 325.72 578.80 325.88 576.59 325.03 C572.93 323.64 567.67 323.73 566.20 325.20 C562.88 328.52 566.31 332.29 573.75 333.49 C577.98 334.17 578.00 334.19 577.90 338.34 C577.85 340.63 577.44 343.62 577.00 345.00 C576.26 347.30 576.19 347.33 576.10 345.33 Z M589.50 318.00 C590.50 316.90 591.53 316.00 591.81 316.00 C592.08 316.00 591.50 316.90 590.50 318.00 C589.50 319.10 588.47 320.00 588.19 320.00 C587.92 320.00 588.50 319.10 589.50 318.00 Z M593.34 304.00 C593.34 299.88 593.51 298.19 593.73 300.25 C593.94 302.31 593.94 305.69 593.73 307.75 C593.51 309.81 593.34 308.12 593.34 304.00 Z M510.32 303.00 C510.32 299.43 510.50 297.96 510.72 299.75 C510.95 301.54 510.95 304.46 510.72 306.25 C510.50 308.04 510.32 306.57 510.32 303.00 Z M513.50 290.00 C514.50 288.90 515.53 288.00 515.81 288.00 C516.08 288.00 515.50 288.90 514.50 290.00 C513.50 291.10 512.47 292.00 512.19 292.00 C511.92 292.00 512.50 291.10 513.50 290.00 Z M589.40 289.75 L587.50 287.50 L589.75 289.40 C591.86 291.20 592.46 292.00 591.65 292.00 C591.47 292.00 590.45 290.99 589.40 289.75 Z M523.00 283.50 C524.29 282.12 525.57 281.00 525.85 281.00 C526.12 281.00 525.29 282.12 524.00 283.50 C522.71 284.88 521.43 286.00 521.15 286.00 C520.88 286.00 521.71 284.88 523.00 283.50 Z M579.92 283.25 L577.50 280.50 L580.25 282.92 C581.76 284.26 583.00 285.50 583.00 285.67 C583.00 286.46 582.19 285.82 579.92 283.25 Z M526.00 279.06 C526.00 278.54 526.44 277.84 526.99 277.51 C527.56 277.16 527.72 277.56 527.38 278.45 C526.72 280.18 526.00 280.50 526.00 279.06 Z M576.56 278.29 C576.02 276.87 576.14 276.75 577.12 277.73 C577.81 278.41 578.11 279.22 577.81 279.53 C577.50 279.83 576.94 279.28 576.56 278.29 Z M529.50 274.00 C530.50 272.90 531.53 272.00 531.81 272.00 C532.08 272.00 531.50 272.90 530.50 274.00 C529.50 275.10 528.47 276.00 528.19 276.00 C527.92 276.00 528.50 275.10 529.50 274.00 Z M573.40 273.75 L571.50 271.50 L573.75 273.40 C575.86 275.20 576.46 276.00 575.65 276.00 C575.47 276.00 574.45 274.99 573.40 273.75 Z M544.25 270.26 C548.51 270.07 555.49 270.07 559.75 270.26 C564.01 270.44 560.52 270.60 552.00 270.60 C543.48 270.60 539.99 270.44 544.25 270.26 Z M358.09 208.75 C351.42 206.30 350.54 203.80 350.18 186.18 C349.67 161.31 351.48 158.50 368.00 158.50 C384.14 158.50 385.89 160.99 385.89 184.00 C385.89 206.25 384.09 209.12 369.77 209.68 C364.81 209.88 360.14 209.50 358.09 208.75 Z M406.09 208.75 C399.42 206.30 398.54 203.80 398.18 186.18 C397.67 161.31 399.48 158.50 416.00 158.50 C432.14 158.50 433.89 160.99 433.89 184.00 C433.89 206.25 432.09 209.12 417.77 209.68 C412.81 209.88 408.14 209.50 406.09 208.75 Z M374.78 174.44 C376.02 173.57 377.00 171.83 377.00 170.50 C377.00 167.19 373.41 165.00 368.00 165.00 C362.59 165.00 359.00 167.19 359.00 170.50 C359.00 173.81 362.59 176.00 368.00 176.00 C370.51 176.00 373.56 175.30 374.78 174.44 Z M422.78 174.44 C424.02 173.57 425.00 171.83 425.00 170.50 C425.00 167.19 421.41 165.00 416.00 165.00 C410.59 165.00 407.00 167.19 407.00 170.50 C407.00 173.81 410.59 176.00 416.00 176.00 C418.51 176.00 421.56 175.30 422.78 174.44 Z"/></g>
  <g transform="scale(0.062500 0.062500) translate(0.000000,768.000000) scale(1.000000,-1.000000)" fill="#4a2c18" stroke="none"><path d="M470.09 400.72 C464.47 398.70 462.88 395.52 462.05 384.56 C461.45 376.52 460.95 374.50 459.13 372.69 L456.94 370.50 L372.86 370.23 L288.78 369.97 L289.42 367.73 C289.77 366.50 290.34 360.63 290.68 354.67 C291.15 346.52 291.74 343.31 293.07 341.67 L294.82 339.50 L368.21 339.00 C436.13 338.54 441.79 338.37 444.28 336.74 C449.41 333.37 450.48 330.49 450.48 320.00 C450.48 309.20 449.22 306.08 443.71 303.15 C441.99 302.24 439.33 300.30 437.79 298.83 C435.18 296.33 435.00 295.62 435.00 288.03 C435.00 280.74 435.25 279.66 437.45 277.45 C439.66 275.25 440.74 275.00 448.03 275.00 C455.62 275.00 456.33 275.18 458.83 277.79 C460.30 279.33 462.27 282.04 463.22 283.82 C464.17 285.60 466.37 287.83 468.11 288.78 C469.85 289.73 472.45 291.47 473.89 292.66 L476.50 294.82 L477.00 336.21 C477.45 373.54 477.67 377.86 479.26 380.28 C483.23 386.33 483.84 386.45 514.95 387.10 C530.65 387.43 544.48 388.04 545.68 388.45 L547.86 389.20 L545.53 393.35 C540.83 401.72 542.01 401.47 505.68 401.72 C482.39 401.88 472.56 401.60 470.09 400.72 Z M226.97 362.39 C225.31 355.07 224.20 352.35 221.98 350.13 C220.12 348.27 219.46 346.94 220.10 346.30 C220.64 345.76 221.89 343.79 222.89 341.91 C223.89 340.03 226.23 337.51 228.10 336.31 C234.50 332.18 236.80 330.01 238.72 326.32 C241.88 320.23 244.57 318.88 255.19 318.07 C260.37 317.68 265.09 317.06 265.69 316.69 C268.62 314.88 270.33 341.83 267.90 351.47 C266.83 355.74 266.75 355.81 263.87 354.80 C262.25 354.24 257.81 353.95 254.01 354.17 C248.42 354.49 246.61 355.02 244.55 356.95 C243.15 358.27 242.00 359.76 242.00 360.27 C242.00 362.38 237.68 367.01 233.55 369.32 L229.12 371.79 L226.97 362.39 Z M516.83 364.75 C514.20 362.63 513.90 360.10 516.02 357.98 C519.63 354.37 525.00 356.18 525.00 361.00 C525.00 365.30 520.23 367.49 516.83 364.75 Z M571.26 333.03 C565.39 331.63 563.12 327.80 566.51 324.99 C568.15 323.63 576.52 324.12 578.06 325.66 C578.55 326.15 578.68 328.22 578.34 330.27 C577.70 334.24 577.20 334.44 571.26 333.03 Z"/></g>
  <g transform="scale(0.062500 0.062500) translate(0.000000,768.000000) scale(1.000000,-1.000000)" fill="#c89a6a" stroke="none"><path d="M194.17 397.69 C191.14 394.45 191.26 389.04 194.44 386.06 C197.76 382.94 204.97 382.11 207.43 384.57 C209.89 387.03 209.06 394.24 205.94 397.56 C202.86 400.85 197.20 400.91 194.17 397.69 Z M204.17 396.35 C206.25 394.47 206.62 389.02 204.80 387.20 C203.07 385.47 197.96 385.73 195.83 387.65 C192.03 391.09 194.70 398.00 199.83 398.00 C201.21 398.00 203.17 397.26 204.17 396.35 Z M511.30 379.04 C494.20 378.64 487.75 378.16 486.80 377.20 C485.79 376.20 485.39 366.60 485.00 334.70 C484.43 287.68 484.78 289.57 475.63 284.35 C471.93 282.23 469.75 280.04 467.59 276.25 C463.55 269.18 460.75 268.00 448.00 268.00 C430.83 268.00 427.59 271.17 427.59 288.00 C427.59 300.10 429.14 303.67 436.05 307.43 C442.19 310.77 443.00 312.26 443.00 320.24 C443.00 331.56 450.99 330.43 367.33 331.00 C300.32 331.46 294.22 331.64 290.96 333.27 C285.59 335.94 283.69 340.03 283.19 349.98 C282.95 354.67 282.35 359.29 281.84 360.25 C280.79 362.28 278.46 362.55 277.36 360.78 C276.48 359.35 275.70 328.03 275.58 289.00 L275.50 261.50 L279.68 254.50 C286.68 242.80 288.76 240.18 293.22 237.41 C299.27 233.66 301.88 231.09 304.32 226.50 C306.27 222.85 306.51 220.36 307.10 198.00 C307.94 166.19 308.39 165.06 320.00 165.06 C329.77 165.06 332.00 167.77 332.00 179.63 C332.00 186.83 331.19 188.99 326.71 193.72 C322.41 198.26 322.66 201.68 327.72 207.42 C330.06 210.08 332.22 213.82 332.84 216.30 C334.10 221.29 337.30 224.65 342.08 226.02 C346.61 227.32 437.39 227.32 441.92 226.02 C446.70 224.65 449.90 221.29 451.16 216.30 C451.78 213.82 453.94 210.08 456.28 207.42 C461.34 201.68 461.59 198.26 457.29 193.72 C452.81 188.99 452.00 186.83 452.00 179.63 C452.00 167.77 454.23 165.06 464.00 165.06 C475.29 165.06 476.07 166.76 476.74 193.00 C477.30 214.79 476.65 219.05 471.96 224.40 C467.44 229.54 467.98 232.18 474.51 237.01 C479.95 241.03 480.87 242.19 488.58 255.00 L492.50 261.50 L493.00 288.67 C493.50 315.68 493.51 315.86 495.91 318.40 C498.95 321.64 501.06 322.31 504.32 321.07 C508.43 319.51 510.14 314.86 510.76 303.60 C511.29 293.92 511.44 293.38 514.43 290.50 C516.15 288.85 519.02 286.73 520.81 285.78 C522.60 284.83 524.83 282.60 525.78 280.81 C526.73 279.02 528.92 276.08 530.65 274.28 L533.80 271.00 L552.00 271.00 L570.20 271.00 L573.35 274.28 C575.08 276.08 577.27 279.02 578.22 280.81 C579.17 282.60 581.40 284.83 583.19 285.78 C584.98 286.73 587.92 288.92 589.72 290.65 L593.00 293.80 L593.00 303.88 C593.00 313.62 592.90 314.08 590.08 317.23 L587.15 320.50 L576.61 320.19 C564.94 319.86 562.87 320.49 561.02 324.96 C558.89 330.10 561.12 333.69 568.52 337.01 C571.92 338.54 574.99 340.54 575.35 341.47 C577.43 346.89 575.01 350.15 565.83 354.27 C562.72 355.67 559.51 357.87 558.69 359.16 C557.88 360.45 557.00 364.85 556.73 368.94 C556.06 379.09 554.82 380.08 543.14 379.79 C538.39 379.67 524.06 379.33 511.30 379.04 Z M212.42 377.86 C212.03 377.24 211.53 373.75 211.31 370.11 C210.87 362.96 212.27 358.76 215.29 358.18 C219.28 357.41 221.96 373.90 218.43 377.43 C216.59 379.26 213.42 379.49 212.42 377.86 Z M504.71 373.63 C504.98 373.36 504.47 370.23 503.58 366.69 C502.23 361.28 502.17 359.63 503.23 356.40 C504.84 351.52 507.77 350.03 515.78 350.01 C522.82 350.00 528.19 351.85 532.18 355.67 C536.45 359.76 537.47 363.23 535.99 368.54 C535.29 371.03 535.01 373.34 535.36 373.70 C536.60 374.93 546.72 375.22 548.86 374.08 C550.42 373.24 551.00 371.98 551.00 369.43 C551.00 361.69 555.84 355.69 564.71 352.44 C575.98 348.32 576.84 342.97 567.02 338.01 C560.56 334.75 559.00 332.80 559.00 328.00 C559.00 320.17 563.72 317.53 575.97 318.50 C584.18 319.15 584.83 319.05 587.42 316.82 C591.86 313.01 593.03 302.11 589.89 293.93 C589.31 292.42 586.75 290.12 583.73 288.40 C579.94 286.23 577.77 284.06 575.60 280.27 C571.54 273.15 569.56 272.50 552.00 272.50 C534.44 272.50 532.46 273.15 528.40 280.27 C526.23 284.06 524.06 286.23 520.27 288.40 C517.28 290.11 514.63 292.47 514.00 294.01 C513.39 295.47 512.54 301.13 512.12 306.59 C511.08 319.71 508.30 324.91 501.23 326.93 C499.09 327.55 497.38 327.39 495.48 326.40 C493.99 325.63 492.42 325.00 491.98 325.00 C489.87 325.00 489.00 332.62 489.00 351.15 C489.00 370.06 489.10 371.10 491.13 373.13 C492.95 374.95 494.03 375.17 498.73 374.69 C501.75 374.38 504.43 373.90 504.71 373.63 Z M525.99 371.51 C532.90 367.93 534.05 360.85 528.60 355.40 C525.49 352.29 524.69 352.00 519.23 352.00 C511.06 352.00 508.00 354.35 508.00 360.64 C508.00 366.18 509.21 368.55 513.31 371.05 C517.13 373.37 522.03 373.55 525.99 371.51 Z M288.50 328.53 C291.84 327.33 304.31 327.08 363.75 327.04 C433.64 327.00 435.04 326.96 437.00 325.00 C439.37 322.63 439.59 318.29 437.51 315.32 C436.69 314.14 434.02 312.22 431.57 311.03 C424.59 307.65 423.00 303.37 423.00 287.93 C423.00 273.64 424.23 269.89 430.00 266.53 C433.08 264.74 435.23 264.50 448.00 264.50 C465.11 264.50 467.88 265.51 472.00 273.29 C473.86 276.80 475.61 278.53 478.85 280.06 C485.75 283.31 486.45 282.74 486.79 273.63 C487.02 267.47 486.68 265.00 485.20 262.14 C484.16 260.14 482.76 256.21 482.09 253.42 C480.28 245.82 477.93 242.71 471.54 239.48 C460.11 233.69 456.12 223.69 463.74 219.88 C468.89 217.31 470.00 215.98 470.00 212.38 C470.00 208.15 468.64 208.08 463.27 212.04 C460.51 214.06 458.56 216.58 457.41 219.58 C456.08 223.07 454.65 224.71 451.10 226.80 L446.50 229.50 L394.23 229.78 C359.66 229.97 340.63 229.71 338.03 229.01 C332.86 227.62 328.40 223.77 327.66 220.07 C327.27 218.08 325.38 215.77 321.95 213.05 C314.31 207.02 313.84 207.28 312.58 218.27 C311.52 227.52 306.57 234.27 297.43 238.96 C290.00 242.77 287.78 245.56 285.91 253.42 C285.25 256.21 283.87 260.07 282.85 261.99 C281.17 265.15 281.00 268.18 281.00 295.17 C281.00 322.60 281.58 330.03 283.73 329.98 C284.15 329.98 286.30 329.32 288.50 328.53 Z M320.75 187.95 C325.72 184.30 326.73 181.77 324.56 178.45 C322.61 175.48 318.08 175.15 315.67 177.82 C312.51 181.31 312.25 191.00 315.32 191.00 C316.03 191.00 318.47 189.63 320.75 187.95 Z M470.60 188.46 C471.44 185.10 470.37 180.07 468.33 177.82 C465.92 175.15 461.39 175.48 459.44 178.45 C457.27 181.77 458.28 184.30 463.25 187.95 C468.29 191.66 469.77 191.77 470.60 188.46 Z M361.22 174.44 C359.98 173.57 359.00 171.83 359.00 170.50 C359.00 167.19 362.59 165.00 368.00 165.00 C373.41 165.00 377.00 167.19 377.00 170.50 C377.00 173.81 373.41 176.00 368.00 176.00 C365.49 176.00 362.44 175.30 361.22 174.44 Z M409.22 174.44 C407.98 173.57 407.00 171.83 407.00 170.50 C407.00 167.19 410.59 165.00 416.00 165.00 C421.41 165.00 425.00 167.19 425.00 170.50 C425.00 173.81 421.41 176.00 416.00 176.00 C413.49 176.00 410.44 175.30 409.22 174.44 Z"/></g>
  <g transform="scale(0.062500 0.062500) translate(0.000000,768.000000) scale(1.000000,-1.000000)" fill="#f7eede" stroke="none"><path d="M533.58 350.51 C531.42 349.75 527.37 348.61 524.58 347.98 C516.62 346.21 513.90 344.88 512.92 342.28 C511.72 339.12 511.79 330.54 513.05 325.50 C513.61 323.30 514.45 316.04 514.93 309.37 C515.41 302.70 516.31 296.28 516.94 295.12 C517.56 293.95 520.27 291.88 522.96 290.52 C526.80 288.58 528.46 286.90 530.68 282.77 C534.28 276.05 536.88 275.11 552.00 275.11 C567.12 275.11 569.72 276.05 573.32 282.77 C575.54 286.90 577.20 288.58 581.04 290.52 C583.73 291.88 586.34 293.79 586.85 294.75 C589.72 300.22 588.84 312.18 585.37 314.72 C584.21 315.57 580.40 315.93 573.78 315.83 C565.31 315.69 563.54 315.95 561.21 317.68 C557.22 320.65 555.86 323.85 556.31 329.28 C556.78 334.82 559.13 337.85 565.05 340.52 C569.86 342.69 570.58 346.45 566.48 348.01 C556.31 351.87 540.72 353.06 533.58 350.51 Z M296.57 252.67 C294.12 250.89 295.27 247.53 298.78 246.16 C309.48 241.99 309.32 242.00 384.00 242.00 C458.68 242.00 458.52 241.99 469.22 246.16 C472.73 247.53 473.88 250.89 471.43 252.67 C468.75 254.63 299.25 254.63 296.57 252.67 Z"/></g>
  </g>
</svg>