<?xml version="1.0" encoding="UTF-8"?>
<svg xmlns="http://www.w3.org/2000/svg" viewBox="0 0 32 32" width="32" height="32">
  <g transform="scale(0.125 0.125) translate(0.000000,256.000000) scale(1.000000,-1.000000)" fill="#2f2f2e" stroke="none"><path d="M58 86 c-1 -1 -2 -3 -2 -6 0 -4 0 -4 16 -20 l16 -16 0 -22 0 -22 8 0
c8 0 8 0 8 2 0 4 3 6 8 6 5 0 8 -2 8 -6 0 -2 1 -2 4 -2 l4 0 0 6 c0 8 3 12 6
9 2 -2 2 -4 2 -9 l0 -6 8 0 c8 0 8 0 8 2 0 2 1 4 2 4 2 2 2 2 4 1 1 -1 2 -3 2
-5 0 -2 0 -2 8 -2 l8 0 0 10 0 10 8 8 8 8 0 8 0 9 -4 3 -4 3 0 9 c0 10 -1 12
-8 12 -4 0 -5 0 -8 -4 -3 -4 -4 -4 -8 -4 -4 0 -5 0 -8 4 -3 4 -4 4 -8 4 -4 0
-5 0 -8 -4 l-3 -4 -13 0 -13 0 -3 -4 c-3 -4 -4 -4 -8 -4 -4 0 -4 0 -16 12 -12
12 -12 12 -16 12 -3 0 -5 -1 -6 -2z"/></g>
  <g transform="scale(0.125 0.125) translate(0.000000,256.000000) scale(1.000000,-1.000000)" fill="#e0e0e0" stroke="none"><path d="M66 78 c-2 -2 -2 -2 0 -4 0 -1 2 -2 4 -2 1 0 2 -1 2 -2 0 -3 3 -6 6
-6 1 0 2 -1 2 -2 0 -3 3 -6 6 -6 1 0 2 -1 2 -2 0 -2 1 -4 4 -6 l4 -3 0 -17 c0
-15 0 -17 2 -18 3 -3 6 0 6 6 0 4 0 5 6 10 l6 6 10 0 c10 0 10 0 10 -2 0 -2 1
-4 4 -6 4 -3 4 -4 4 -8 0 -3 1 -5 2 -7 2 -1 2 -1 6 3 l4 5 4 -5 c4 -4 4 -4 6
-3 2 2 2 3 2 11 0 10 1 12 8 12 7 0 8 2 8 12 l0 8 -6 6 c-7 7 -13 8 -17 4 -1
-2 -1 -2 3 -6 4 -4 4 -4 3 -6 -2 -1 -4 -2 -7 -2 -7 0 -8 2 -8 12 0 7 0 9 -2
11 -2 1 -2 1 -4 0 -2 -2 -2 -4 -2 -19 0 -18 -1 -20 -6 -20 -2 0 -2 0 -2 14 0
19 1 18 -16 18 l-13 0 -3 -4 c-3 -4 -3 -4 -10 -4 -6 0 -6 0 -6 2 0 3 -3 6 -6
6 -1 0 -2 1 -2 2 0 3 -3 6 -6 6 -1 0 -2 1 -2 2 0 2 -3 6 -4 6 0 0 -2 -1 -2 -2z"/></g>
  <g transform="scale(0.125 0.125) translate(0.000000,256.000000) scale(1.000000,-1.000000)" fill="#b5b5b5" stroke="none"><path d="M146 70 c-3 -3 -3 -34 0 -36 3 -3 34 -3 37 0 1 2 1 2 0 4 -2 2 -4 2
-15 2 -17 0 -16 -1 -16 16 0 11 0 13 -2 14 -2 2 -2 2 -4 0z"/><path d="M170 54 c-3 -3 0 -6 6 -6 6 0 9 3 7 6 -2 1 -4 2 -7 2 -3 0 -5 -1 -6
-2z"/><path d="M153 22 c-1 -2 -1 -2 1 -4 l2 -2 2 2 c2 2 2 2 1 4 -1 1 -3 2 -3 2 0
0 -2 -1 -3 -2z"/><path d="M97 14 c-1 -2 -1 -2 1 -4 l2 -2 2 2 c2 2 2 2 1 4 -1 1 -3 2 -3 2 0 0
-2 -1 -3 -2z"/></g>
</svg>
