<?xml version="1.0" encoding="UTF-8"?>
<svg xmlns="http://www.w3.org/2000/svg" viewBox="0 0 48 48" width="48" height="48">
  <g transform="scale(0.062500 0.062500) translate(0.000000,768.000000) scale(1.000000,-1.000000)" fill="#d4a373" stroke="none"><path d="M563.65 396.17 C561.73 394.04 561.47 388.93 563.20 387.20 C565.02 385.38 570.47 385.75 572.35 387.83 C573.26 388.83 574.00 390.79 574.00 392.17 C574.00 397.30 567.09 399.97 563.65 396.17 Z M218.75 373.98 C217.62 373.28 217.00 371.66 217.00 369.42 C217.00 361.69 212.16 355.69 203.29 352.44 C192.02 348.32 191.16 342.97 200.98 338.01 C207.44 334.75 209.00 332.80 209.00 328.00 C209.00 320.16 204.28 317.53 191.99 318.50 C183.34 319.19 183.22 319.16 180.23 316.35 C176.34 312.67 171.47 297.53 172.93 293.68 C174.11 290.57 174.67 290.24 181.68 288.41 C188.58 286.61 189.30 286.05 192.63 279.94 C196.29 273.21 198.53 272.50 216.00 272.50 C233.56 272.50 235.54 273.15 239.60 280.27 C241.77 284.06 243.94 286.23 247.73 288.40 C250.72 290.11 253.37 292.47 254.00 294.01 C254.61 295.47 255.46 301.13 255.88 306.59 C256.92 319.71 259.70 324.91 266.77 326.93 C268.91 327.55 270.62 327.39 272.52 326.40 C274.01 325.63 275.58 325.00 276.02 325.00 C278.13 325.00 279.00 332.62 279.00 351.15 C279.00 370.06 278.90 371.10 276.87 373.13 C275.05 374.95 273.97 375.17 269.27 374.69 C266.25 374.38 263.57 373.90 263.29 373.63 C263.02 373.36 263.53 370.23 264.42 366.69 C265.77 361.28 265.83 359.63 264.77 356.40 C263.16 351.52 260.23 350.03 252.22 350.01 C245.18 350.00 239.81 351.85 235.82 355.67 C231.55 359.76 230.53 363.23 232.01 368.54 C232.71 371.03 232.98 373.35 232.62 373.72 C231.45 374.88 220.56 375.09 218.75 373.98 Z M235.62 350.13 C238.85 349.10 243.07 347.95 245.00 347.57 C251.08 346.37 254.14 344.76 255.08 342.28 C256.28 339.12 256.21 330.54 254.95 325.50 C254.39 323.30 253.55 316.04 253.07 309.37 C252.59 302.70 251.69 296.28 251.06 295.12 C250.44 293.95 247.73 291.88 245.04 290.52 C241.20 288.58 239.54 286.90 237.32 282.77 C233.72 276.05 231.12 275.11 216.00 275.11 C200.83 275.11 198.28 276.04 194.63 282.86 C192.22 287.35 190.92 288.59 186.59 290.50 C179.63 293.58 178.71 294.92 178.87 301.75 C179.03 308.77 180.56 313.70 182.99 315.00 C184.00 315.54 189.16 315.91 194.45 315.82 C202.68 315.69 204.47 315.96 206.79 317.68 C210.78 320.65 212.14 323.85 211.69 329.28 C211.22 334.82 208.87 337.85 202.95 340.52 C200.02 341.84 199.00 342.89 199.00 344.59 C199.00 347.46 199.32 347.65 208.20 349.94 C217.84 352.43 228.16 352.50 235.62 350.13 Z M479.00 328.44 C476.22 327.39 460.84 327.10 404.25 327.06 C334.37 327.00 332.96 326.96 331.00 325.00 C328.63 322.63 328.41 318.29 330.49 315.32 C331.31 314.14 333.98 312.22 336.43 311.03 C343.41 307.65 345.00 303.37 345.00 287.93 C345.00 273.64 343.77 269.89 338.00 266.53 C334.92 264.74 332.77 264.50 320.00 264.50 C302.89 264.50 300.12 265.51 296.00 273.29 C294.14 276.80 292.39 278.53 289.15 280.06 C282.25 283.31 281.55 282.74 281.21 273.63 C280.98 267.47 281.32 265.00 282.80 262.14 C283.84 260.14 285.24 256.21 285.91 253.42 C287.72 245.82 290.07 242.71 296.46 239.48 C307.89 233.69 311.88 223.69 304.26 219.88 C299.11 217.31 298.00 215.98 298.00 212.38 C298.00 208.15 299.36 208.08 304.73 212.04 C307.49 214.06 309.44 216.58 310.59 219.58 C312.55 224.74 317.18 227.95 325.50 229.95 C328.25 230.61 331.96 232.26 333.75 233.63 C339.17 237.75 343.40 239.00 352.00 239.00 C360.77 239.00 364.82 237.76 370.67 233.30 L374.34 230.50 L398.63 230.19 C426.22 229.83 427.75 230.14 432.59 237.13 C439.75 247.47 448.19 247.39 453.23 236.94 L455.46 232.31 L458.22 235.06 C459.94 236.79 462.57 238.08 465.24 238.51 C475.93 240.24 479.62 243.54 482.11 253.60 C482.77 256.29 484.15 260.07 485.16 261.99 C486.83 265.14 487.00 268.26 487.00 295.17 C487.00 312.05 486.58 325.98 486.02 327.43 C484.95 330.27 484.14 330.38 479.00 328.44 Z M425.07 252.96 C427.74 251.54 427.60 246.63 424.81 244.04 C422.74 242.11 421.40 242.00 399.56 242.02 C379.82 242.04 375.43 242.33 369.07 244.02 C364.11 245.34 358.42 246.00 352.00 246.00 C345.58 246.00 339.89 245.34 334.93 244.02 C322.86 240.81 310.67 241.53 298.78 246.16 C297.29 246.74 295.77 248.14 295.41 249.28 C293.92 253.98 294.16 254.00 360.76 254.00 C401.84 254.00 423.79 253.65 425.07 252.96 Z M447.75 220.32 C443.73 217.21 442.00 215.18 442.00 213.59 C442.00 208.58 449.01 206.15 452.46 209.96 C454.49 212.20 455.56 219.47 454.33 222.64 C453.53 224.70 453.28 224.61 447.75 220.32 Z M297.40 188.46 C296.56 185.10 297.63 180.07 299.67 177.82 C302.08 175.15 306.61 175.48 308.56 178.45 C310.73 181.77 309.72 184.30 304.75 187.95 C299.71 191.66 298.23 191.77 297.40 188.46 Z"/></g>
  <g transform="scale(0.062500 0.062500) translate(0.000000,768.000000) scale(1.000000,-1.000000)" fill="#a47a52" stroke="none"><path d="M566.25 400.31 C567.21 400.06 568.79 400.06 569.75 400.31 C570.71 400.56 569.92 400.77 568.00 400.77 C566.08 400.77 565.29 400.56 566.25 400.31 Z M561.40 397.75 L559.50 395.50 L561.75 397.40 C563.86 399.20 564.46 400.00 563.65 400.00 C563.47 400.00 562.45 398.99 561.40 397.75 Z M573.50 398.00 C574.50 396.90 575.53 396.00 575.81 396.00 C576.08 396.00 575.50 396.90 574.50 398.00 C573.50 399.10 572.47 400.00 572.19 400.00 C571.92 400.00 572.50 399.10 573.50 398.00 Z M557.97 391.40 C556.98 388.42 555.85 387.38 551.50 385.46 C546.91 383.43 542.00 378.76 542.00 376.42 C542.00 376.00 541.28 374.86 540.40 373.89 C538.92 372.26 538.96 371.38 540.88 363.04 C542.99 353.88 544.96 349.61 547.52 348.63 C549.46 347.89 557.76 352.70 559.74 355.72 C560.83 357.39 561.49 361.06 561.73 366.86 C562.22 378.43 562.57 379.70 565.76 381.43 L568.50 382.92 L565.32 382.96 C560.59 383.02 558.68 385.46 559.27 390.68 C559.54 393.06 559.62 395.00 559.45 395.00 C559.29 395.00 558.62 393.38 557.97 391.40 Z M576.23 392.00 C576.23 390.07 576.44 389.29 576.69 390.25 C576.94 391.21 576.94 392.79 576.69 393.75 C576.44 394.71 576.23 393.93 576.23 392.00 Z M218.55 388.08 C218.17 387.47 216.10 386.07 213.95 384.97 C208.13 382.00 206.87 379.36 206.04 368.33 C205.34 359.14 205.15 358.52 202.14 355.83 C198.38 352.47 198.74 352.32 204.03 355.01 C209.40 357.76 210.70 360.25 211.27 368.94 C212.00 380.01 212.75 380.44 229.91 379.63 C237.28 379.28 251.26 379.00 260.97 379.00 C274.62 379.00 279.06 378.68 280.56 377.58 C282.41 376.23 282.52 374.28 283.00 334.83 C283.57 287.67 283.22 289.57 292.37 284.35 C296.07 282.23 298.25 280.04 300.41 276.25 C304.45 269.18 307.25 268.00 320.00 268.00 C337.17 268.00 340.41 271.17 340.41 288.00 C340.41 300.10 338.86 303.67 331.95 307.43 C325.81 310.77 325.00 312.26 325.00 320.24 C325.00 331.56 317.01 330.43 400.67 331.00 C467.68 331.46 473.78 331.64 477.04 333.27 C482.41 335.94 484.31 340.03 484.81 349.98 C485.05 354.67 485.65 359.29 486.16 360.25 C487.21 362.28 489.54 362.55 490.64 360.78 C491.52 359.35 492.30 328.03 492.42 289.00 L492.50 261.50 L488.50 254.68 C482.05 243.69 478.71 239.66 473.85 237.00 C471.34 235.62 468.47 233.82 467.48 233.00 C464.58 230.58 462.09 223.82 460.99 215.37 C459.30 202.26 458.99 201.07 456.77 199.00 C455.07 197.42 453.24 197.00 448.00 197.00 C438.22 197.00 437.01 198.46 435.50 212.16 C434.53 221.03 435.53 224.40 439.84 226.66 C443.69 228.69 445.06 232.02 443.04 234.45 C441.28 236.57 438.06 235.06 435.41 230.86 L432.97 227.00 L402.96 227.00 C370.69 227.00 370.59 227.01 363.10 232.51 C360.20 234.63 358.62 235.00 352.29 235.00 C344.67 235.00 342.12 234.23 338.31 230.76 C337.11 229.66 333.09 227.93 329.39 226.90 C321.39 224.68 318.30 222.07 316.84 216.30 C316.22 213.82 314.06 210.08 311.72 207.42 C306.66 201.68 306.41 198.26 310.71 193.72 C315.19 188.99 316.00 186.83 316.00 179.63 C316.00 167.77 313.77 165.06 304.00 165.06 C292.71 165.06 291.93 166.76 291.26 193.00 C290.70 214.79 291.35 219.05 296.04 224.40 C300.56 229.54 300.02 232.18 293.49 237.01 C288.05 241.03 287.13 242.19 279.42 255.00 L275.50 261.50 L275.00 288.67 C274.50 315.68 274.49 315.86 272.09 318.40 C269.05 321.64 266.94 322.31 263.68 321.07 C260.99 320.04 257.99 315.40 258.01 312.30 C258.03 310.93 258.33 311.09 259.29 313.00 C260.27 314.94 261.33 315.50 264.00 315.50 C269.76 315.50 269.96 314.32 270.04 280.00 C270.12 246.14 270.47 243.76 275.84 240.52 C277.68 239.41 280.60 237.30 282.34 235.83 L285.50 233.17 L286.00 199.65 C286.48 167.61 286.59 166.02 288.60 163.32 C291.58 159.30 297.00 157.75 306.29 158.25 C315.28 158.74 318.79 160.65 320.69 166.09 C321.47 168.32 321.91 177.31 321.96 192.00 C322.04 217.09 322.49 219.30 327.61 219.80 C332.15 220.25 333.25 218.12 334.06 207.33 C335.13 193.17 338.31 190.11 352.00 190.11 C365.72 190.11 368.87 193.15 369.95 207.44 C371.07 222.25 369.47 221.50 400.00 221.50 C430.53 221.50 428.93 222.25 430.05 207.44 C431.13 193.15 434.28 190.11 448.00 190.11 C461.75 190.11 464.87 193.14 465.96 207.55 C466.76 218.23 467.28 219.10 476.08 224.50 C477.87 225.60 480.21 228.19 481.27 230.26 C483.22 234.04 485.55 236.24 492.00 240.34 C497.56 243.88 497.88 246.02 497.94 279.85 C497.99 305.29 498.25 310.73 499.57 313.51 C500.83 316.16 500.93 317.59 500.08 320.66 C498.67 325.72 498.70 345.92 500.12 351.56 C500.99 355.00 500.96 356.35 499.99 357.51 C499.30 358.34 497.96 360.47 497.02 362.23 C494.49 366.94 491.07 369.03 484.84 369.68 C478.14 370.37 478.23 370.56 477.32 354.67 C476.85 346.52 476.26 343.31 474.93 341.67 L473.18 339.50 L399.79 339.00 C331.87 338.54 326.21 338.37 323.72 336.74 C318.59 333.37 317.52 330.49 317.52 320.00 C317.52 309.20 318.78 306.08 324.29 303.15 C326.01 302.24 328.67 300.30 330.21 298.83 C332.82 296.33 333.00 295.62 333.00 288.03 C333.00 280.74 332.75 279.66 330.55 277.45 C328.34 275.25 327.26 275.00 319.97 275.00 C312.38 275.00 311.67 275.18 309.17 277.79 C307.70 279.33 305.73 282.04 304.78 283.82 C303.83 285.60 301.63 287.83 299.89 288.78 C298.15 289.73 295.55 291.47 294.11 292.66 L291.50 294.82 L291.00 336.21 C290.55 373.54 290.33 377.86 288.74 380.28 C284.77 386.32 284.15 386.44 253.05 387.13 C237.35 387.48 223.32 388.09 221.87 388.48 C220.27 388.91 218.96 388.75 218.55 388.08 Z M573.40 385.75 L571.50 383.50 L573.75 385.40 C574.99 386.45 576.00 387.47 576.00 387.65 C576.00 388.46 575.20 387.86 573.40 385.75 Z M556.11 376.00 C558.18 368.50 556.34 358.88 552.71 358.18 C548.68 357.41 546.04 373.90 549.62 377.48 C551.92 379.78 555.28 379.01 556.11 376.00 Z M241.31 371.05 C234.87 367.12 234.09 360.71 239.40 355.40 C242.51 352.29 243.31 352.00 248.77 352.00 C257.04 352.00 260.00 354.33 260.00 360.85 C260.00 366.18 258.23 369.31 253.99 371.51 C250.03 373.55 245.13 373.37 241.31 371.05 Z M251.17 364.75 C253.80 362.63 254.10 360.10 251.98 357.98 C248.38 354.38 243.00 356.18 243.00 360.99 C243.00 365.31 247.76 367.50 251.17 364.75 Z M193.40 349.75 L191.50 347.50 L193.75 349.40 C195.86 351.20 196.46 352.00 195.65 352.00 C195.47 352.00 194.45 350.99 193.40 349.75 Z M190.67 344.11 C190.30 342.26 190.00 339.27 190.00 337.46 C190.00 334.37 190.25 334.14 194.25 333.49 C201.69 332.29 205.12 328.52 201.80 325.20 C200.33 323.73 195.07 323.64 191.41 325.03 C189.20 325.88 188.31 325.72 186.60 324.17 C185.44 323.13 183.75 321.87 182.83 321.39 C181.74 320.81 184.76 320.39 191.55 320.19 C203.05 319.86 205.14 320.50 206.98 324.96 C209.12 330.13 206.88 333.69 199.36 337.06 C194.28 339.34 192.95 340.43 192.45 342.69 C192.10 344.24 191.72 345.94 191.58 346.48 C191.45 347.03 191.04 345.96 190.67 344.11 Z M177.40 317.75 L175.50 315.50 L177.75 317.40 C179.86 319.20 180.46 320.00 179.65 320.00 C179.47 320.00 178.45 318.99 177.40 317.75 Z M174.05 312.64 C173.14 310.23 170.21 307.61 164.00 303.66 C159.29 300.65 157.71 295.72 158.25 285.71 C158.72 277.08 160.65 273.23 165.35 271.56 C169.67 270.02 173.11 271.95 177.32 278.26 C180.54 283.09 181.62 284.00 184.11 284.00 C186.43 284.00 187.51 283.25 189.13 280.50 C191.65 276.23 192.64 275.86 190.50 279.99 C188.44 283.99 185.41 285.78 180.05 286.17 C175.80 286.49 175.51 286.33 173.39 282.59 C172.17 280.44 170.50 278.30 169.67 277.84 C165.55 275.53 162.48 281.71 163.23 290.78 C163.60 295.19 164.23 296.80 166.28 298.56 C167.70 299.79 169.36 300.95 169.97 301.16 C171.08 301.53 176.42 315.00 175.46 315.00 C175.18 315.00 174.55 313.94 174.05 312.64 Z M257.32 303.00 C257.32 299.43 257.50 297.96 257.72 299.75 C257.95 301.54 257.95 304.46 257.72 306.25 C257.50 308.04 257.32 306.57 257.32 303.00 Z M253.40 289.75 L251.50 287.50 L253.75 289.40 C255.86 291.20 256.46 292.00 255.65 292.00 C255.47 292.00 254.45 290.99 253.40 289.75 Z M243.92 283.25 L241.50 280.50 L244.25 282.92 C246.82 285.19 247.46 286.00 246.67 286.00 C246.50 286.00 245.26 284.76 243.92 283.25 Z M240.56 278.29 C240.02 276.87 240.14 276.75 241.12 277.73 C241.81 278.41 242.11 279.22 241.81 279.53 C241.50 279.83 240.94 279.28 240.56 278.29 Z M193.50 274.00 C194.50 272.90 195.53 272.00 195.81 272.00 C196.08 272.00 195.50 272.90 194.50 274.00 C193.50 275.10 192.47 276.00 192.19 276.00 C191.92 276.00 192.50 275.10 193.50 274.00 Z M237.40 273.75 L235.50 271.50 L237.75 273.40 C239.86 275.20 240.46 276.00 239.65 276.00 C239.47 276.00 238.45 274.99 237.40 273.75 Z M208.25 270.26 C212.51 270.07 219.49 270.07 223.75 270.26 C228.01 270.44 224.53 270.60 216.00 270.60 C207.47 270.60 203.99 270.44 208.25 270.26 Z M390.09 208.75 C383.42 206.30 382.54 203.80 382.18 186.18 C381.67 161.31 383.48 158.50 400.00 158.50 C416.14 158.50 417.89 160.99 417.89 184.00 C417.89 206.25 416.09 209.12 401.77 209.68 C396.81 209.88 392.14 209.50 390.09 208.75 Z M358.78 206.44 C360.02 205.57 361.00 203.83 361.00 202.50 C361.00 199.19 357.41 197.00 352.00 197.00 C346.59 197.00 343.00 199.19 343.00 202.50 C343.00 205.81 346.59 208.00 352.00 208.00 C354.51 208.00 357.56 207.30 358.78 206.44 Z M406.78 174.44 C408.02 173.57 409.00 171.83 409.00 170.50 C409.00 167.19 405.41 165.00 400.00 165.00 C394.59 165.00 391.00 167.19 391.00 170.50 C391.00 173.81 394.59 176.00 400.00 176.00 C402.51 176.00 405.56 175.30 406.78 174.44 Z"/></g>
  <g transform="scale(0.062500 0.062500) translate(0.000000,768.000000) scale(1.000000,-1.000000)" fill="#4a2c18" stroke="none"><path d="M230.42 400.92 C226.94 399.91 225.10 398.12 222.17 392.85 L220.14 389.20 L222.32 388.45 C223.52 388.04 237.35 387.43 253.05 387.10 C284.16 386.45 284.77 386.33 288.74 380.28 C290.33 377.86 290.55 373.54 291.00 336.21 L291.50 294.82 L294.11 292.66 C295.55 291.47 298.15 289.73 299.89 288.78 C301.63 287.83 303.83 285.60 304.78 283.82 C305.73 282.04 307.70 279.33 309.17 277.79 C311.67 275.18 312.38 275.00 319.97 275.00 C327.26 275.00 328.34 275.25 330.55 277.45 C332.75 279.66 333.00 280.74 333.00 288.03 C333.00 295.62 332.82 296.33 330.21 298.83 C328.67 300.30 326.01 302.24 324.29 303.15 C318.78 306.08 317.52 309.20 317.52 320.00 C317.52 330.49 318.59 333.37 323.72 336.74 C326.21 338.37 331.87 338.54 399.79 339.00 L473.18 339.50 L474.93 341.67 C476.26 343.31 476.85 346.52 477.32 354.67 C477.66 360.63 478.23 366.50 478.58 367.73 L479.22 369.97 L395.14 370.23 L311.06 370.50 L308.87 372.69 C307.05 374.50 306.55 376.52 305.95 384.56 C305.12 395.53 303.52 398.73 297.91 400.69 C293.82 402.13 235.24 402.33 230.42 400.92 Z M534.50 369.45 C530.42 367.04 526.01 362.36 526.00 360.42 C526.00 359.83 524.85 358.27 523.45 356.95 C521.39 355.02 519.58 354.49 513.99 354.17 C510.19 353.95 505.75 354.24 504.13 354.80 C501.25 355.81 501.17 355.74 500.10 351.47 C497.67 341.83 499.38 314.88 502.31 316.69 C502.91 317.06 507.63 317.68 512.81 318.07 C523.43 318.88 526.12 320.23 529.28 326.32 C531.20 330.01 533.50 332.18 539.90 336.31 C541.77 337.51 544.11 340.03 545.11 341.91 C546.11 343.79 547.36 345.76 547.90 346.30 C548.54 346.94 547.88 348.27 546.02 350.13 C543.79 352.36 542.69 355.07 541.00 362.49 C539.81 367.72 538.76 371.96 538.67 371.91 C538.58 371.85 536.70 370.75 534.50 369.45 Z M244.75 364.92 C242.33 363.51 242.45 358.37 244.93 357.04 C247.80 355.50 249.77 355.77 251.98 357.98 C256.20 362.20 250.11 368.04 244.75 364.92 Z M189.67 330.34 C189.33 328.25 189.45 326.15 189.94 325.66 C191.48 324.12 199.85 323.63 201.49 324.99 C205.32 328.17 201.89 332.26 194.39 333.47 L190.28 334.13 L189.67 330.34 Z"/></g>
  <g transform="scale(0.062500 0.062500) translate(0.000000,768.000000) scale(1.000000,-1.000000)" fill="#c89a6a" stroke="none"><path d="M562.06 397.56 C558.94 394.24 558.11 387.03 560.57 384.57 C563.03 382.11 570.24 382.94 573.56 386.06 C576.85 389.14 576.91 394.80 573.69 397.83 C570.45 400.86 565.04 400.74 562.06 397.56 Z M572.17 396.35 C576.22 392.68 573.24 386.00 567.55 386.00 C563.61 386.00 562.00 387.56 562.00 391.37 C562.00 397.14 568.03 400.09 572.17 396.35 Z M214.13 378.33 C212.13 376.69 211.68 375.23 211.27 368.94 C211.00 364.85 210.12 360.45 209.31 359.16 C208.49 357.87 205.28 355.67 202.17 354.27 C192.99 350.15 190.57 346.89 192.65 341.47 C193.01 340.54 196.08 338.54 199.48 337.01 C206.88 333.69 209.11 330.10 206.98 324.96 C205.13 320.50 203.05 319.86 191.49 320.19 C181.50 320.49 180.95 320.39 178.57 318.00 C175.39 314.81 170.19 300.41 171.67 298.93 C172.40 298.20 173.43 300.36 175.07 306.03 C176.84 312.16 178.16 314.80 180.40 316.68 C183.24 319.07 183.76 319.15 192.05 318.50 C204.27 317.53 209.00 320.18 209.00 328.00 C209.00 332.80 207.44 334.75 200.98 338.01 C191.16 342.97 192.02 348.32 203.29 352.44 C212.16 355.69 217.00 361.69 217.00 369.43 C217.00 371.98 217.58 373.24 219.14 374.08 C221.28 375.22 231.40 374.93 232.64 373.70 C232.99 373.34 232.71 371.03 232.01 368.54 C230.53 363.23 231.55 359.76 235.82 355.67 C239.81 351.85 245.18 350.00 252.22 350.01 C260.23 350.03 263.16 351.52 264.77 356.40 C265.83 359.63 265.77 361.28 264.42 366.69 C263.53 370.23 263.02 373.36 263.29 373.63 C263.57 373.90 266.25 374.38 269.27 374.69 C273.97 375.17 275.05 374.95 276.87 373.13 C278.90 371.10 279.00 370.06 279.00 351.15 C279.00 332.62 278.13 325.00 276.02 325.00 C275.58 325.00 274.01 325.63 272.52 326.40 C270.62 327.39 268.91 327.55 266.77 326.93 C259.70 324.91 256.92 319.71 255.88 306.59 C255.46 301.13 254.61 295.47 254.00 294.01 C253.37 292.47 250.72 290.11 247.73 288.40 C243.94 286.23 241.77 284.06 239.60 280.27 C235.54 273.15 233.56 272.50 216.00 272.50 C198.53 272.50 196.29 273.21 192.63 279.94 C189.29 286.07 188.58 286.61 181.57 288.44 C178.38 289.27 175.15 290.46 174.39 291.09 C173.26 292.03 173.20 291.74 174.03 289.36 C174.92 286.83 175.57 286.47 179.73 286.22 C185.57 285.88 188.41 284.08 190.96 279.08 C194.91 271.33 195.95 271.00 216.23 271.00 L234.20 271.00 L237.35 274.28 C239.08 276.08 241.27 279.02 242.22 280.81 C243.17 282.60 245.40 284.83 247.19 285.78 C248.98 286.73 251.85 288.85 253.57 290.50 C256.56 293.38 256.71 293.92 257.24 303.60 C257.86 314.86 259.57 319.51 263.68 321.07 C266.94 322.31 269.05 321.64 272.09 318.40 C274.49 315.86 274.50 315.68 275.00 288.67 L275.50 261.50 L279.42 255.00 C287.13 242.19 288.05 241.03 293.49 237.01 C300.02 232.18 300.56 229.54 296.04 224.40 C291.35 219.05 290.70 214.79 291.26 193.00 C291.93 166.76 292.71 165.06 304.00 165.06 C313.77 165.06 316.00 167.77 316.00 179.63 C316.00 186.83 315.19 188.99 310.71 193.72 C306.41 198.26 306.66 201.68 311.72 207.42 C314.06 210.08 316.22 213.82 316.84 216.30 C318.30 222.07 321.39 224.68 329.39 226.90 C333.09 227.93 337.11 229.66 338.31 230.76 C342.12 234.23 344.67 235.00 352.29 235.00 C358.62 235.00 360.20 234.63 363.10 232.51 C370.59 227.01 370.69 227.00 402.96 227.00 L432.97 227.00 L435.41 230.86 C438.06 235.06 441.28 236.57 443.04 234.45 C445.06 232.02 443.69 228.69 439.84 226.66 C435.53 224.40 434.53 221.03 435.50 212.16 C437.01 198.46 438.22 197.00 448.00 197.00 C453.24 197.00 455.07 197.42 456.77 199.00 C458.99 201.07 459.30 202.26 460.99 215.37 C462.09 223.82 464.58 230.58 467.48 233.00 C468.47 233.82 471.34 235.62 473.85 237.00 C478.71 239.66 482.05 243.69 488.50 254.68 L492.50 261.50 L492.42 289.00 C492.30 328.03 491.52 359.35 490.64 360.78 C489.54 362.55 487.21 362.28 486.16 360.25 C485.65 359.29 485.05 354.67 484.81 349.98 C484.31 340.03 482.41 335.94 477.04 333.27 C473.78 331.64 467.68 331.46 400.67 331.00 C317.01 330.43 325.00 331.56 325.00 320.24 C325.00 312.26 325.81 310.77 331.95 307.43 C338.86 303.67 340.41 300.10 340.41 288.00 C340.41 271.17 337.17 268.00 320.00 268.00 C307.25 268.00 304.45 269.18 300.41 276.25 C298.25 280.04 296.07 282.23 292.37 284.35 C283.22 289.57 283.57 287.67 283.00 334.83 C282.52 374.28 282.41 376.23 280.56 377.58 C279.06 378.68 274.62 379.00 260.97 379.00 C251.26 379.00 237.28 379.28 229.91 379.63 C217.59 380.21 216.31 380.11 214.13 378.33 Z M549.62 377.48 C546.04 373.90 548.68 357.41 552.71 358.18 C556.34 358.88 558.18 368.50 556.11 376.00 C555.28 379.01 551.92 379.78 549.62 377.48 Z M253.99 371.51 C258.23 369.31 260.00 366.18 260.00 360.85 C260.00 354.33 257.04 352.00 248.77 352.00 C243.31 352.00 242.51 352.29 239.40 355.40 C234.09 360.71 234.87 367.12 241.31 371.05 C245.13 373.37 250.03 373.55 253.99 371.51 Z M486.02 327.43 C486.58 325.98 487.00 312.05 487.00 295.17 C487.00 268.26 486.83 265.14 485.16 261.99 C484.15 260.07 482.77 256.29 482.11 253.60 C479.62 243.54 475.93 240.24 465.24 238.51 C462.57 238.08 459.94 236.79 458.22 235.06 L455.46 232.31 L453.23 236.94 C448.19 247.39 439.75 247.47 432.59 237.13 C427.75 230.14 426.22 229.83 398.63 230.19 L374.34 230.50 L370.67 233.30 C364.82 237.76 360.77 239.00 352.00 239.00 C343.40 239.00 339.17 237.75 333.75 233.63 C331.96 232.26 328.25 230.61 325.50 229.95 C317.18 227.95 312.55 224.74 310.59 219.58 C309.44 216.58 307.49 214.06 304.73 212.04 C299.36 208.08 298.00 208.15 298.00 212.38 C298.00 215.98 299.11 217.31 304.26 219.88 C311.88 223.69 307.89 233.69 296.46 239.48 C290.07 242.71 287.72 245.82 285.91 253.42 C285.24 256.21 283.84 260.14 282.80 262.14 C281.32 265.00 280.98 267.47 281.21 273.63 C281.55 282.74 282.25 283.31 289.15 280.06 C292.39 278.53 294.14 276.80 296.00 273.29 C300.12 265.51 302.89 264.50 320.00 264.50 C332.77 264.50 334.92 264.74 338.00 266.53 C343.77 269.89 345.00 273.64 345.00 287.93 C345.00 303.37 343.41 307.65 336.43 311.03 C333.98 312.22 331.31 314.14 330.49 315.32 C328.41 318.29 328.63 322.63 331.00 325.00 C332.96 326.96 334.37 327.00 404.25 327.06 C460.84 327.10 476.22 327.39 479.00 328.44 C484.14 330.38 484.95 330.27 486.02 327.43 Z M454.70 216.21 C454.45 213.85 453.44 211.04 452.46 209.96 C449.01 206.15 442.00 208.58 442.00 213.59 C442.00 215.18 443.73 217.21 447.75 220.32 C453.28 224.61 453.53 224.70 454.33 222.64 C454.79 221.46 454.96 218.57 454.70 216.21 Z M345.22 206.44 C343.98 205.57 343.00 203.83 343.00 202.50 C343.00 199.19 346.59 197.00 352.00 197.00 C357.41 197.00 361.00 199.19 361.00 202.50 C361.00 205.81 357.41 208.00 352.00 208.00 C349.49 208.00 346.44 207.30 345.22 206.44 Z M304.75 187.95 C309.72 184.30 310.73 181.77 308.56 178.45 C306.61 175.48 302.08 175.15 299.67 177.82 C296.51 181.31 296.25 191.00 299.32 191.00 C300.03 191.00 302.47 189.63 304.75 187.95 Z M393.22 174.44 C391.98 173.57 391.00 171.83 391.00 170.50 C391.00 167.19 394.59 165.00 400.00 165.00 C405.41 165.00 409.00 167.19 409.00 170.50 C409.00 173.81 405.41 176.00 400.00 176.00 C397.49 176.00 394.44 175.30 393.22 174.44 Z"/></g>
  <g transform="scale(0.062500 0.062500) translate(0.000000,768.000000) scale(1.000000,-1.000000)" fill="#f7eede" stroke="none"><path d="M208.20 349.94 C199.32 347.65 199.00 347.46 199.00 344.59 C199.00 342.89 200.02 341.84 202.95 340.52 C208.87 337.85 211.22 334.82 211.69 329.28 C212.14 323.85 210.78 320.65 206.79 317.68 C204.47 315.96 202.68 315.69 194.45 315.82 C189.16 315.91 184.00 315.54 182.99 315.00 C180.56 313.70 179.03 308.77 178.87 301.75 C178.71 294.92 179.63 293.58 186.59 290.50 C190.92 288.59 192.22 287.35 194.63 282.86 C198.28 276.04 200.83 275.11 216.00 275.11 C231.12 275.11 233.72 276.05 237.32 282.77 C239.54 286.90 241.20 288.58 245.04 290.52 C247.73 291.88 250.44 293.95 251.06 295.12 C251.69 296.28 252.59 302.70 253.07 309.37 C253.55 316.04 254.39 323.30 254.95 325.50 C256.21 330.54 256.28 339.12 255.08 342.28 C254.14 344.76 251.08 346.37 245.00 347.57 C243.07 347.95 238.85 349.10 235.62 350.13 C228.16 352.50 217.84 352.43 208.20 349.94 Z M296.57 252.67 C294.12 250.89 295.27 247.53 298.78 246.16 C310.67 241.53 322.86 240.81 334.93 244.02 C339.89 245.34 345.58 246.00 352.00 246.00 C358.42 246.00 364.11 245.34 369.07 244.02 C375.43 242.33 379.82 242.04 399.56 242.02 C421.40 242.00 422.74 242.11 424.81 244.04 C427.60 246.63 427.74 251.54 425.07 252.96 C423.79 253.65 401.84 254.00 360.76 254.00 C310.52 254.00 298.03 253.74 296.57 252.67 Z"/></g>
  <g transform="scale(0.062500 0.062500) translate(0.000000,768.000000) scale(1.000000,-1.000000)" fill="#e0586a" stroke="none"><path d="M166.40 298.67 C164.22 296.79 163.60 295.26 163.23 290.78 C162.17 278.01 168.26 272.71 173.10 282.19 C174.73 285.38 174.92 286.75 174.11 289.32 C173.56 291.07 172.62 294.41 172.02 296.75 C171.42 299.09 170.52 301.00 170.02 301.00 C169.52 301.00 167.89 299.95 166.40 298.67 Z"/></g>
</svg>
