<?xml version="1.0" encoding="UTF-8"?>
<svg xmlns="http://www.w3.org/2000/svg" viewBox="0 0 32 32" width="32" height="32">
  <g transform="scale(0.125 0.125) translate(0.000000,256.000000) scale(1.000000,-1.000000)" fill="#2f2f2e" stroke="none"><path d="M82 86 c-2 -1 -2 -4 -2 -10 l0 -9 -4 -3 -4 -3 0 -9 0 -9 4 -3 4 -3 0
-19 0 -18 8 0 c8 0 8 0 8 2 0 2 1 4 2 5 2 1 2 1 4 0 1 -1 2 -3 2 -5 0 -2 0 -2
8 -2 8 0 8 0 8 2 0 2 1 4 2 4 2 2 2 2 4 1 1 -1 2 -3 2 -5 0 -2 0 -2 8 -2 8 0
8 0 8 2 0 2 1 4 2 4 2 2 2 2 4 1 1 -1 2 -3 2 -5 0 -2 0 -2 8 -2 l8 0 0 18 0
19 4 3 4 3 0 13 0 12 -6 6 c-5 6 -6 6 -10 6 -7 0 -8 -1 -8 -16 0 -16 0 -16
-12 -16 -12 0 -12 0 -12 20 0 19 0 20 -8 20 -4 0 -5 0 -8 -4 -3 -4 -4 -4 -8
-4 -4 0 -5 0 -8 4 -3 4 -4 4 -8 4 -3 0 -5 -1 -6 -2z"/></g>
  <g transform="scale(0.125 0.125) translate(0.000000,256.000000) scale(1.000000,-1.000000)" fill="#e0e0e0" stroke="none"><path d="M112 76 l-3 -4 -9 0 -8 0 -6 -6 -6 -6 0 -8 0 -9 4 -3 4 -3 0 -13 c0
-12 0 -13 2 -15 2 -1 2 -1 6 3 l4 5 4 -5 c4 -4 4 -4 6 -3 1 2 2 4 2 7 0 3 1 5
2 7 2 1 2 1 6 -3 l4 -4 8 0 9 0 3 4 c4 4 4 4 6 3 1 -2 2 -4 2 -7 0 -6 3 -9 6
-6 2 1 2 3 2 16 l0 14 2 0 c5 0 6 3 6 16 0 11 0 13 -2 15 -2 1 -2 1 -4 0 -2
-2 -2 -4 -2 -17 l0 -14 -18 0 c-24 0 -22 -2 -22 20 0 15 0 17 -2 18 -2 3 -2 3
-6 -2z m-9 -14 c1 -2 1 -2 -1 -4 l-2 -2 -2 2 c-2 2 -2 2 -1 4 1 1 3 2 3 2 0 0
2 -1 3 -2z"/></g>
  <g transform="scale(0.125 0.125) translate(0.000000,256.000000) scale(1.000000,-1.000000)" fill="#b5b5b5" stroke="none"><path d="M114 78 c-2 -1 -2 -4 -2 -14 0 -16 1 -16 -16 -16 -11 0 -13 0 -14 -2
-2 -2 -2 -2 0 -4 2 -3 34 -3 36 0 3 3 3 34 0 36 -2 2 -2 2 -4 0z"/><path d="M82 62 c-3 -3 0 -6 6 -6 6 0 9 3 7 6 -2 1 -4 2 -7 2 -3 0 -5 -1 -6
-2z"/><path d="M97 22 c-1 -2 -1 -2 1 -4 l2 -2 2 2 c2 2 2 2 1 4 -1 1 -3 2 -3 2 0 0
-2 -1 -3 -2z"/><path d="M153 14 c-1 -2 -1 -2 1 -4 l2 -2 2 2 c2 2 2 2 1 4 -1 1 -3 2 -3 2 0
0 -2 -1 -3 -2z"/></g>
</svg>
