<?xml version="1.0" encoding="UTF-8"?>
<svg xmlns="http://www.w3.org/2000/svg" viewBox="0 0 32 32" width="32" height="32">
  <g transform="scale(0.125 0.125) translate(0.000000,256.000000) scale(1.000000,-1.000000)" fill="#2f2f2e" stroke="none"><path d="M90 102 c-1 -1 -2 -3 -2 -6 0 -4 0 -5 -8 -12 -8 -7 -8 -8 -8 -12 0
-4 0 -5 -4 -8 -4 -3 -4 -4 -4 -8 0 -4 0 -5 6 -10 l6 -6 16 0 17 0 3 -4 3 -4
21 0 21 0 3 4 3 4 9 0 c10 0 12 1 12 8 0 4 0 5 -4 8 l-4 4 12 12 c12 12 12 12
12 16 0 6 -2 8 -8 8 -4 0 -4 0 -20 -16 l-16 -16 -12 0 c-16 0 -16 0 -16 12 l0
9 4 3 c4 3 4 4 4 8 0 6 -2 8 -8 8 -4 0 -5 0 -8 -4 -3 -4 -4 -4 -8 -4 -4 0 -5
0 -8 4 -3 4 -4 4 -8 4 -3 0 -5 -1 -6 -2z"/></g>
  <g transform="scale(0.125 0.125) translate(0.000000,256.000000) scale(1.000000,-1.000000)" fill="#e0e0e0" stroke="none"><path d="M122 94 c-1 -1 -2 -3 -2 -4 0 -2 0 -2 -14 -2 l-14 0 -6 -6 -6 -6 0
-8 c0 -11 1 -12 10 -12 6 0 6 0 6 -2 0 -4 3 -6 8 -6 4 0 5 0 8 -4 l3 -4 21 0
21 0 3 4 c3 4 4 4 8 4 6 0 9 3 7 6 -2 2 -4 2 -27 2 -31 0 -28 -2 -28 18 l0 14
2 0 c2 0 4 1 5 2 1 2 1 2 0 4 -3 2 -3 2 -5 0z m-19 -16 c1 -2 1 -2 -1 -4 l-2
-2 -2 2 c-2 2 -2 2 -1 4 1 1 3 2 3 2 0 0 2 -1 3 -2z m8 -16 c3 -3 -1 -6 -9 -6
-6 0 -6 0 -6 2 0 6 10 9 15 4z"/><path d="M186 86 c-1 -1 -2 -3 -2 -4 0 -1 -1 -2 -2 -2 -3 0 -6 -3 -6 -6 0 -1
-1 -2 -2 -2 -2 0 -4 -1 -5 -2 -1 -2 -1 -2 1 -4 2 -2 2 -2 4 -1 1 1 2 3 2 5 0
1 1 2 2 2 3 0 6 3 6 6 0 1 1 2 2 2 2 0 4 1 5 2 1 2 1 2 0 4 -3 2 -3 2 -5 0z"/></g>
  <g transform="scale(0.125 0.125) translate(0.000000,256.000000) scale(1.000000,-1.000000)" fill="#b5b5b5" stroke="none"><path d="M122 94 c-1 -1 -2 -3 -2 -4 0 -1 -1 -2 -2 -2 -5 0 -6 -3 -6 -16 0
-11 0 -13 2 -14 2 -2 2 -2 4 -1 2 2 2 4 2 17 l0 14 2 0 c2 0 4 1 5 2 1 2 1 2
0 4 -3 2 -3 2 -5 0z"/><path d="M82 78 c-3 -3 0 -6 6 -6 6 0 9 3 7 6 -2 1 -4 2 -7 2 -3 0 -5 -1 -6
-2z"/><path d="M82 62 c-3 -3 0 -6 6 -6 6 0 9 3 7 6 -2 1 -4 2 -7 2 -3 0 -5 -1 -6
-2z"/></g>
</svg>
