<?xml version="1.0" encoding="UTF-8"?>
<svg xmlns="http://www.w3.org/2000/svg" viewBox="0 0 32 32" width="32" height="32">
  <g transform="scale(0.125 0.125) translate(0.000000,256.000000) scale(1.000000,-1.000000)" fill="#2f2f2e" stroke="none"><path d="M86 82 c-6 -5 -6 -6 -6 -10 0 -4 0 -5 -4 -8 l-4 -3 0 -9 0 -8 8 -8 9
-8 -5 -4 -4 -4 6 -6 c5 -6 6 -6 10 -6 4 0 5 0 8 4 3 4 4 4 8 4 4 0 5 0 8 -4
l3 -4 9 0 9 0 3 4 c3 4 4 4 8 4 4 0 5 0 10 6 l6 6 0 12 0 12 8 8 8 8 -6 6 -6
6 -8 0 -8 0 -6 -6 c-6 -5 -6 -6 -6 -10 0 -6 -2 -8 -8 -8 -6 0 -8 2 -8 8 0 4 0
5 4 8 4 3 4 4 4 8 0 6 -2 8 -8 8 -4 0 -5 0 -8 -4 -3 -4 -4 -4 -8 -4 -4 0 -5 0
-8 4 -3 4 -4 4 -8 4 -4 0 -5 -1 -10 -6z"/></g>
  <g transform="scale(0.125 0.125) translate(0.000000,256.000000) scale(1.000000,-1.000000)" fill="#e0e0e0" stroke="none"><path d="M122 78 c-1 -1 -2 -3 -2 -4 0 -2 0 -2 -14 -2 l-14 0 -6 -6 -6 -6 0
-8 c0 -10 1 -12 8 -12 4 0 5 -1 10 -6 8 -8 8 -10 0 -10 -8 0 -12 -3 -8 -6 4
-5 14 -2 14 4 0 1 1 2 2 2 2 0 4 2 6 4 l4 5 4 -5 c2 -2 4 -4 6 -4 1 0 2 -1 2
-2 0 -4 3 -6 8 -6 4 0 5 0 8 4 3 4 4 4 8 4 7 0 8 2 8 12 0 12 0 12 -20 12 -21
0 -20 -1 -20 14 0 10 0 10 2 10 2 0 4 1 5 2 1 2 1 2 0 4 -3 2 -3 2 -5 0z m-19
-16 c1 -2 1 -2 -1 -4 l-2 -2 -2 2 c-2 2 -2 2 -1 4 1 1 3 2 3 2 0 0 2 -1 3 -2z
m40 -24 c1 -2 1 -2 0 -4 -1 -1 -3 -2 -5 -2 -1 0 -2 -1 -2 -2 0 -3 -3 -6 -6 -6
-1 0 -2 1 -2 2 0 3 3 6 6 6 1 0 2 1 2 2 0 2 3 6 4 6 0 0 2 -1 3 -2z"/><path d="M154 70 c-3 -3 -3 -10 0 -13 2 -1 2 -1 6 3 3 4 4 4 8 4 6 0 9 3 7 6
-3 3 -19 3 -21 0z"/></g>
  <g transform="scale(0.125 0.125) translate(0.000000,256.000000) scale(1.000000,-1.000000)" fill="#b5b5b5" stroke="none"><path d="M122 78 c-1 -1 -2 -3 -2 -4 0 -1 -1 -2 -2 -2 -5 0 -6 -3 -6 -12 0
-12 0 -12 -16 -12 -11 0 -13 0 -14 -2 -2 -2 -2 -2 0 -4 1 -2 3 -2 18 -2 21 0
20 -1 20 18 l0 14 2 0 c2 0 4 1 5 2 1 2 1 2 0 4 -3 2 -3 2 -5 0z"/><path d="M82 62 c-3 -3 0 -6 6 -6 6 0 9 3 7 6 -2 1 -4 2 -7 2 -3 0 -5 -1 -6
-2z"/></g>
</svg>
