<?xml version="1.0" encoding="UTF-8"?>
<svg xmlns="http://www.w3.org/2000/svg" viewBox="0 0 32 32" width="32" height="32">
  <g transform="scale(0.125 0.125) translate(0.000000,256.000000) scale(1.000000,-1.000000)" fill="#2f2f2e" stroke="none"><path d="M150 90 c-5 -5 -6 -6 -6 -10 0 -3 -1 -5 -2 -7 -2 -1 -2 -1 -6 3 -3 4
-4 4 -8 4 -7 0 -8 -1 -8 -16 0 -11 0 -13 -2 -14 -2 -2 -2 -2 -8 4 l-6 6 0 8
c0 10 -1 12 -8 12 -6 0 -16 -10 -16 -16 0 -4 0 -5 4 -8 l4 -3 0 -27 0 -26 8 0
c8 0 8 0 8 2 0 2 1 4 2 5 2 1 2 1 4 -1 1 0 2 -2 2 -4 0 -2 0 -2 8 -2 8 0 8 0
8 2 0 2 1 4 2 4 2 2 2 2 4 0 1 0 2 -2 2 -4 0 -2 0 -2 8 -2 8 0 8 0 8 2 0 5 3
6 16 6 15 0 16 1 16 8 0 4 0 5 -8 12 l-8 8 4 4 4 4 0 12 0 13 -4 3 -4 3 0 9
c0 10 -1 12 -8 12 -4 0 -5 -1 -10 -6z"/></g>
  <g transform="scale(0.125 0.125) translate(0.000000,256.000000) scale(1.000000,-1.000000)" fill="#e0e0e0" stroke="none"><path d="M154 86 c-1 -1 -2 -3 -2 -6 0 -4 -1 -5 -6 -10 l-6 -6 -4 4 c-4 4 -4
4 -6 3 -2 -2 -2 -3 -2 -15 0 -16 0 -16 -12 -16 -10 0 -12 1 -12 8 0 5 -2 8 -6
8 -2 0 -2 0 -2 6 0 8 -3 12 -6 9 -5 -5 -2 -15 4 -15 2 0 2 0 2 -22 0 -21 0
-23 2 -25 3 -2 6 1 6 7 0 3 1 5 2 7 2 1 2 1 6 -3 l4 -4 8 0 9 0 3 4 c4 4 4 4
6 3 1 -2 2 -4 2 -7 0 -6 3 -9 6 -7 1 2 2 4 2 7 0 3 1 5 2 7 2 1 2 1 6 -3 3 -4
4 -4 8 -4 3 0 5 1 7 2 1 2 1 2 -7 10 l-8 8 4 4 c4 3 4 4 4 8 0 4 0 5 -4 8 l-4
4 4 4 5 4 -5 4 c-4 3 -4 4 -4 8 0 7 -3 10 -6 6z m-3 -32 c1 -2 1 -2 -1 -4 l-2
-2 -2 2 c-2 2 -2 2 -1 4 1 1 3 2 3 2 0 0 2 -1 3 -2z"/></g>
  <g transform="scale(0.125 0.125) translate(0.000000,256.000000) scale(1.000000,-1.000000)" fill="#b5b5b5" stroke="none"><path d="M153 86 c-1 -2 -1 -2 1 -4 l2 -2 2 2 c2 2 2 2 1 4 -1 1 -3 2 -3 2 0
0 -2 -1 -3 -2z"/><path d="M130 70 c-2 -1 -2 -4 -2 -14 0 -17 -1 -16 20 -16 19 0 20 0 20 8 0 6
-2 8 -8 8 -4 0 -5 0 -8 -4 -3 -4 -4 -4 -8 -4 -7 0 -8 2 -8 12 0 7 0 9 -2 10
-2 2 -2 2 -4 0z"/><path d="M161 22 c-1 -2 -1 -2 1 -4 l2 -2 2 2 c2 2 2 2 1 4 -1 1 -3 2 -3 2 0
0 -2 -1 -3 -2z"/><path d="M97 14 c-1 -2 -1 -2 1 -4 l2 -2 2 2 c2 2 2 2 1 4 -1 1 -3 2 -3 2 0 0
-2 -1 -3 -2z"/></g>
</svg>
