<?xml version="1.0" encoding="UTF-8"?>
<svg xmlns="http://www.w3.org/2000/svg" viewBox="0 0 64 64" shape-rendering="crispEdges"><g transform="translate(-2,-1)">
<rect x="27" y="29" width="8" height="1" fill="#001714"/>
<rect x="26" y="30" width="1" height="1" fill="#001714"/>
<rect x="27" y="30" width="1" height="1" fill="#054139"/>
<rect x="28" y="30" width="1" height="1" fill="#236b61"/>
<rect x="29" y="30" width="6" height="1" fill="#55948b"/>
<rect x="35" y="30" width="2" height="1" fill="#001714"/>
<rect x="25" y="31" width="1" height="1" fill="#001714"/>
<rect x="26" y="31" width="1" height="1" fill="#054139"/>
<rect x="27" y="31" width="1" height="1" fill="#236b61"/>
<rect x="28" y="31" width="9" height="1" fill="#55948b"/>
<rect x="37" y="31" width="1" height="1" fill="#001714"/>
<rect x="24" y="32" width="1" height="1" fill="#001714"/>
<rect x="25" y="32" width="1" height="1" fill="#054139"/>
<rect x="26" y="32" width="10" height="1" fill="#236b61"/>
<rect x="36" y="32" width="2" height="1" fill="#55948b"/>
<rect x="38" y="32" width="1" height="1" fill="#001714"/>
<rect x="23" y="33" width="1" height="1" fill="#001714"/>
<rect x="24" y="33" width="1" height="1" fill="#054139"/>
<rect x="25" y="33" width="12" height="1" fill="#236b61"/>
<rect x="37" y="33" width="2" height="1" fill="#55948b"/>
<rect x="39" y="33" width="1" height="1" fill="#001714"/>
<rect x="23" y="34" width="1" height="1" fill="#001714"/>
<rect x="24" y="34" width="14" height="1" fill="#236b61"/>
<rect x="38" y="34" width="1" height="1" fill="#55948b"/>
<rect x="39" y="34" width="1" height="1" fill="#001714"/>
<rect x="22" y="35" width="1" height="1" fill="#001714"/>
<rect x="23" y="35" width="1" height="1" fill="#054139"/>
<rect x="24" y="35" width="3" height="1" fill="#236b61"/>
<rect x="27" y="35" width="2" height="1" fill="#001714"/>
<rect x="29" y="35" width="6" height="1" fill="#236b61"/>
<rect x="35" y="35" width="2" height="1" fill="#001714"/>
<rect x="37" y="35" width="2" height="1" fill="#236b61"/>
<rect x="39" y="35" width="1" height="1" fill="#001714"/>
<rect x="21" y="36" width="2" height="1" fill="#001714"/>
<rect x="23" y="36" width="1" height="1" fill="#054139"/>
<rect x="24" y="36" width="3" height="1" fill="#236b61"/>
<rect x="27" y="36" width="1" height="1" fill="#001714"/>
<rect x="28" y="36" width="1" height="1" fill="#afd5d0"/>
<rect x="29" y="36" width="6" height="1" fill="#236b61"/>
<rect x="35" y="36" width="1" height="1" fill="#001714"/>
<rect x="36" y="36" width="1" height="1" fill="#afd5d0"/>
<rect x="37" y="36" width="2" height="1" fill="#236b61"/>
<rect x="39" y="36" width="1" height="1" fill="#001714"/>
<rect x="20" y="37" width="1" height="1" fill="#001714"/>
<rect x="21" y="37" width="1" height="1" fill="#054139"/>
<rect x="22" y="37" width="1" height="1" fill="#001714"/>
<rect x="23" y="37" width="1" height="1" fill="#054139"/>
<rect x="24" y="37" width="6" height="1" fill="#236b61"/>
<rect x="30" y="37" width="11" height="1" fill="#251700"/>
<rect x="19" y="38" width="1" height="1" fill="#001714"/>
<rect x="20" y="38" width="1" height="1" fill="#054139"/>
<rect x="21" y="38" width="1" height="1" fill="#236b61"/>
<rect x="22" y="38" width="1" height="1" fill="#001714"/>
<rect x="23" y="38" width="1" height="1" fill="#054139"/>
<rect x="24" y="38" width="5" height="1" fill="#236b61"/>
<rect x="29" y="38" width="1" height="1" fill="#251700"/>
<rect x="30" y="38" width="11" height="1" fill="#ecc687"/>
<rect x="41" y="38" width="1" height="1" fill="#251700"/>
<rect x="19" y="39" width="1" height="1" fill="#001714"/>
<rect x="20" y="39" width="2" height="1" fill="#236b61"/>
<rect x="22" y="39" width="1" height="1" fill="#001714"/>
<rect x="23" y="39" width="1" height="1" fill="#054139"/>
<rect x="24" y="39" width="4" height="1" fill="#236b61"/>
<rect x="28" y="39" width="1" height="1" fill="#251700"/>
<rect x="29" y="39" width="1" height="1" fill="#674309"/>
<rect x="30" y="39" width="10" height="1" fill="#aa7f38"/>
<rect x="40" y="39" width="1" height="1" fill="#ecc687"/>
<rect x="41" y="39" width="1" height="1" fill="#251700"/>
<rect x="19" y="40" width="1" height="1" fill="#001714"/>
<rect x="20" y="40" width="1" height="1" fill="#55948b"/>
<rect x="21" y="40" width="1" height="1" fill="#236b61"/>
<rect x="22" y="40" width="1" height="1" fill="#001714"/>
<rect x="23" y="40" width="2" height="1" fill="#054139"/>
<rect x="25" y="40" width="4" height="1" fill="#236b61"/>
<rect x="29" y="40" width="1" height="1" fill="#251700"/>
<rect x="30" y="40" width="6" height="1" fill="#674309"/>
<rect x="36" y="40" width="3" height="1" fill="#aa7f38"/>
<rect x="39" y="40" width="2" height="1" fill="#251700"/>
<rect x="20" y="41" width="1" height="1" fill="#001714"/>
<rect x="21" y="41" width="1" height="1" fill="#55948b"/>
<rect x="22" y="41" width="2" height="1" fill="#001714"/>
<rect x="24" y="41" width="2" height="1" fill="#054139"/>
<rect x="26" y="41" width="4" height="1" fill="#236b61"/>
<rect x="30" y="41" width="9" height="1" fill="#251700"/>
<rect x="39" y="41" width="1" height="1" fill="#054139"/>
<rect x="40" y="41" width="1" height="1" fill="#001714"/>
<rect x="21" y="42" width="2" height="1" fill="#001714"/>
<rect x="24" y="42" width="1" height="1" fill="#001714"/>
<rect x="25" y="42" width="2" height="1" fill="#054139"/>
<rect x="27" y="42" width="4" height="1" fill="#236b61"/>
<rect x="31" y="42" width="6" height="1" fill="#054139"/>
<rect x="37" y="42" width="1" height="1" fill="#001714"/>
<rect x="38" y="42" width="1" height="1" fill="#054139"/>
<rect x="39" y="42" width="1" height="1" fill="#001714"/>
<rect x="24" y="43" width="1" height="1" fill="#001714"/>
<rect x="25" y="43" width="3" height="1" fill="#054139"/>
<rect x="28" y="43" width="8" height="1" fill="#236b61"/>
<rect x="36" y="43" width="1" height="1" fill="#001714"/>
<rect x="38" y="43" width="1" height="1" fill="#001714"/>
<rect x="23" y="44" width="1" height="1" fill="#251700"/>
<rect x="24" y="44" width="1" height="1" fill="#674309"/>
<rect x="25" y="44" width="3" height="1" fill="#001714"/>
<rect x="28" y="44" width="7" height="1" fill="#054139"/>
<rect x="35" y="44" width="2" height="1" fill="#001714"/>
<rect x="22" y="45" width="1" height="1" fill="#251700"/>
<rect x="23" y="45" width="3" height="1" fill="#674309"/>
<rect x="26" y="45" width="1" height="1" fill="#251700"/>
<rect x="28" y="45" width="7" height="1" fill="#001714"/>
<rect x="35" y="45" width="1" height="1" fill="#aa7f38"/>
<rect x="36" y="45" width="1" height="1" fill="#ecc687"/>
<rect x="37" y="45" width="1" height="1" fill="#251700"/>
<rect x="21" y="46" width="1" height="1" fill="#251700"/>
<rect x="22" y="46" width="1" height="1" fill="#ecc687"/>
<rect x="23" y="46" width="1" height="1" fill="#aa7f38"/>
<rect x="24" y="46" width="2" height="1" fill="#674309"/>
<rect x="26" y="46" width="1" height="1" fill="#251700"/>
<rect x="33" y="46" width="1" height="1" fill="#251700"/>
<rect x="34" y="46" width="1" height="1" fill="#674309"/>
<rect x="35" y="46" width="2" height="1" fill="#aa7f38"/>
<rect x="37" y="46" width="1" height="1" fill="#ecc687"/>
<rect x="38" y="46" width="2" height="1" fill="#251700"/>
<rect x="20" y="47" width="1" height="1" fill="#251700"/>
<rect x="21" y="47" width="1" height="1" fill="#ecc687"/>
<rect x="22" y="47" width="3" height="1" fill="#aa7f38"/>
<rect x="25" y="47" width="1" height="1" fill="#674309"/>
<rect x="26" y="47" width="1" height="1" fill="#251700"/>
<rect x="33" y="47" width="1" height="1" fill="#251700"/>
<rect x="34" y="47" width="1" height="1" fill="#674309"/>
<rect x="35" y="47" width="3" height="1" fill="#aa7f38"/>
<rect x="38" y="47" width="2" height="1" fill="#ecc687"/>
<rect x="40" y="47" width="1" height="1" fill="#251700"/>
</g></svg>
