<?xml version="1.0" encoding="UTF-8"?>
<svg xmlns="http://www.w3.org/2000/svg" viewBox="0 0 32 32" width="32" height="32">
  <g transform="scale(0.125 0.125) translate(0.000000,256.000000) scale(1.000000,-1.000000)" fill="#2f2f2e" stroke="none"><path d="M114 94 c-2 -1 -2 -4 -2 -22 l0 -21 -4 -3 -4 -3 0 -9 c0 -11 -1 -12
-12 -12 l-8 0 -6 -6 -6 -6 0 -6 0 -6 40 0 40 0 0 10 0 11 4 3 4 3 0 9 0 8 6 6
c5 5 6 6 10 6 4 0 5 1 10 6 l6 6 0 12 c0 15 -1 16 -8 16 -7 0 -8 -1 -8 -16 0
-11 0 -13 -2 -14 -2 -2 -2 -2 -4 0 -2 1 -2 3 -2 14 0 15 -1 16 -8 16 -4 0 -5
0 -8 -4 l-3 -4 -9 0 -9 0 -3 4 c-3 4 -4 4 -8 4 -3 0 -5 -1 -6 -2z"/><path d="M202 94 c-2 -2 -2 -2 0 -4 0 -1 2 -2 4 -2 2 0 2 0 2 -4 0 -4 0 -4 -2
-4 -2 0 -4 -1 -5 -2 -1 -2 -1 -2 1 -4 2 -2 2 -2 4 -1 1 1 2 3 2 5 0 1 1 2 2 2
2 0 4 1 5 2 1 2 1 2 0 4 -1 1 -3 2 -5 2 -1 0 -2 1 -2 2 0 2 -3 6 -4 6 0 0 -2
-1 -2 -2z"/></g>
  <g transform="scale(0.125 0.125) translate(0.000000,256.000000) scale(1.000000,-1.000000)" fill="#b5b5b5" stroke="none"><path d="M122 86 c-2 -1 -2 -4 -2 -18 l0 -17 -4 -3 -4 -3 0 -9 0 -9 -4 -3 c-4
-3 -4 -4 -4 -8 0 -7 2 -8 12 -8 10 0 12 1 12 8 0 3 1 5 2 6 3 3 6 0 6 -6 0 -3
1 -5 2 -7 3 -2 6 1 6 7 0 4 0 5 4 8 l4 3 0 9 0 9 4 3 c4 3 4 4 4 8 0 4 0 5 -4
8 l-4 4 4 4 c5 4 6 11 2 15 -2 1 -2 1 -6 -3 l-3 -4 -9 0 -9 0 -3 4 c-4 5 -4 5
-6 2z m13 -16 c1 -2 1 -2 -1 -4 l-2 -2 -2 2 c-2 2 -2 2 -1 4 1 1 3 2 3 2 0 0
2 -1 3 -2z"/><path d="M177 86 c-1 -2 -1 -2 1 -4 l2 -2 2 2 c2 2 2 2 1 4 -1 1 -3 2 -3 2 0
0 -2 -1 -3 -2z"/><path d="M177 70 c-1 -2 -1 -2 1 -4 l2 -2 2 2 c2 2 2 2 1 4 -1 1 -3 2 -3 2 0
0 -2 -1 -3 -2z"/><path d="M82 14 c-2 -2 -2 -2 0 -4 2 -3 10 -3 13 0 2 3 -1 6 -7 6 -3 0 -5 -1
-6 -2z"/></g>
  <g transform="scale(0.125 0.125) translate(0.000000,256.000000) scale(1.000000,-1.000000)" fill="#e0e0e0" stroke="none"><path d="M130 78 c-2 -2 -2 -2 0 -4 1 -2 3 -2 14 -2 11 0 13 0 15 2 1 2 1 2 0
4 -2 2 -4 2 -15 2 -11 0 -13 0 -14 -2z"/><path d="M130 62 c-2 -2 -2 -2 0 -4 1 -2 3 -2 14 -2 11 0 13 0 15 2 1 2 1 2 0
4 -2 2 -4 2 -15 2 -11 0 -13 0 -14 -2z"/><path d="M130 46 c-1 -1 -2 -3 -2 -6 0 -4 0 -5 -4 -8 l-4 -3 0 -9 c0 -7 0 -9
2 -11 3 -2 6 1 6 7 0 3 1 5 2 7 3 2 6 -1 6 -7 0 -3 1 -5 2 -7 3 -2 6 1 6 7 0
4 0 5 4 8 l4 3 0 9 c0 11 -1 12 -12 12 -7 0 -9 0 -10 -2z"/></g>
</svg>
