<?xml version="1.0" encoding="UTF-8"?>
<svg xmlns="http://www.w3.org/2000/svg" viewBox="0 0 64 64" width="64" height="64">
  <g transform="scale(0.125 0.125) translate(0.000000,512.000000) scale(1.000000,-1.000000)" fill="#236b61" stroke="none"><path d="M202 262 c-17 -17 -18 -18 -18 -22 0 -4 0 -5 -16 -20 l-16 -16 0 -8
0 -8 10 -10 c9 -10 10 -10 14 -10 4 0 5 0 8 4 4 4 4 4 6 3 1 -2 2 -4 2 -7 0
-4 0 -4 -16 -20 -21 -21 -22 -20 12 -20 30 0 28 -1 28 12 0 8 0 9 2 11 2 1 2
1 6 -3 l4 -4 16 0 c19 0 20 0 20 -8 0 -8 0 -8 32 -8 27 0 29 0 30 2 2 2 2 2
-4 8 -5 5 -6 6 -10 6 -6 0 -16 10 -16 16 0 3 1 5 2 7 2 1 2 1 6 -3 l4 -4 10
10 c10 10 10 10 10 14 0 4 0 5 4 8 4 3 4 4 4 8 0 4 0 5 -8 12 l-8 8 0 12 0 12
-14 14 c-14 14 -14 14 -18 14 -4 0 -5 0 -8 4 l-3 4 -29 0 -28 0 -18 -18z"/></g>
  <g transform="scale(0.125 0.125) translate(0.000000,512.000000) scale(1.000000,-1.000000)" fill="#001714" stroke="none"><path d="M202 262 c-17 -17 -18 -18 -18 -22 0 -4 0 -5 -16 -20 l-16 -16 0 -8
0 -8 10 -10 c9 -10 10 -10 14 -10 4 0 5 0 8 4 4 4 4 4 6 3 1 -2 2 -4 2 -7 0
-4 0 -4 -16 -20 -21 -21 -22 -20 12 -20 30 0 28 -1 28 12 0 8 0 9 2 11 2 1 2
1 6 -3 l4 -4 16 0 c19 0 20 0 20 -8 0 -8 0 -8 32 -8 27 0 29 0 30 2 2 2 2 2
-4 8 -5 5 -6 6 -10 6 -6 0 -16 10 -16 16 0 3 1 5 2 7 2 1 2 1 6 -3 l4 -4 10
10 c10 10 10 10 10 14 0 4 0 5 4 8 4 3 4 4 4 8 0 4 0 5 -8 12 l-8 8 0 12 0 12
-14 14 c-14 14 -14 14 -18 14 -4 0 -5 0 -8 4 l-3 4 -29 0 -28 0 -18 -18z m29
8 c1 -2 1 -2 0 -4 -1 -1 -3 -2 -5 -2 -3 0 -3 -3 0 -6 1 -2 3 -2 30 -2 l28 0
14 -14 c14 -13 14 -14 14 -18 0 -6 -2 -8 -8 -8 -6 0 -8 2 -8 8 0 6 -2 8 -8 8
-6 0 -8 -2 -8 -8 0 -8 -1 -8 -20 -8 l-16 0 -10 -10 -10 -10 14 -14 14 -14 16
0 c15 0 17 0 19 -2 1 -2 1 -2 0 -4 -2 -2 -4 -2 -31 -2 l-28 0 -18 18 -18 18 0
20 0 20 14 14 c9 9 15 14 16 14 1 0 2 1 2 2 0 2 3 6 4 6 0 0 2 -1 3 -2z m-57
-64 c3 -2 3 -18 0 -20 -2 -2 -2 -2 -8 4 l-6 6 6 6 c6 7 6 6 8 4z"/><path d="M218 230 c-3 -2 -3 -10 0 -12 2 -3 10 -3 12 0 3 2 3 10 0 12 -2 3
-10 3 -12 0z"/></g>
  <g transform="scale(0.125 0.125) translate(0.000000,512.000000) scale(1.000000,-1.000000)" fill="#251700" stroke="none"><path d="M218 270 c-1 -1 -2 -3 -2 -4 0 -1 -1 -2 -2 -2 -3 0 -6 -3 -6 -6 0 -1
-1 -2 -2 -2 -3 0 -6 -3 -6 -6 0 -1 -1 -2 -2 -2 -2 0 -4 -1 -5 -2 -1 -2 -1 -2
1 -4 2 -2 2 -2 4 -1 1 1 2 3 2 5 0 1 1 2 2 2 3 0 6 3 6 6 0 1 1 2 2 2 3 0 6 3
6 6 0 2 1 2 4 2 4 0 4 0 4 -2 0 -6 1 -6 32 -6 l28 0 12 -12 c12 -12 12 -12 14
-10 1 1 2 3 2 6 0 4 0 4 -10 14 -10 10 -10 10 -14 10 -4 0 -5 0 -8 4 l-3 4
-21 0 -21 0 -3 -4 c-4 -5 -8 -6 -8 -2 0 2 -3 6 -4 6 0 0 -1 -1 -2 -2z"/><path d="M186 230 c-2 -1 -2 -4 -2 -22 l0 -20 8 -8 8 -8 0 -6 0 -6 -6 0 -6 0
-14 -14 c-19 -19 -20 -18 14 -18 30 0 28 -1 28 12 0 10 -1 12 -8 12 -5 0 -8 2
-8 6 0 2 0 2 12 2 12 0 12 0 12 -2 0 -6 1 -6 30 -6 l26 0 0 -2 c0 -4 -3 -6 -8
-6 -6 0 -8 -2 -8 -8 0 -8 0 -8 32 -8 27 0 29 0 30 2 2 2 2 2 -4 8 -5 6 -6 6
-10 6 -4 0 -5 0 -8 4 l-3 4 -11 0 c-10 0 -10 0 -10 2 0 6 -1 6 -30 6 -26 0
-26 0 -26 2 0 1 -5 8 -16 18 l-16 16 0 16 c0 15 0 17 -2 18 -2 2 -2 2 -4 0z"/><path d="M225 222 c-1 -2 -1 -2 1 -4 l2 -2 2 2 c2 2 2 2 1 4 -1 1 -3 2 -3 2 0
0 -2 -1 -3 -2z"/><path d="M288 220 l-3 -4 -21 0 -20 0 -10 -10 -10 -10 14 -14 14 -14 20 0 21
0 3 4 4 5 4 -5 4 -4 14 14 c13 13 14 14 14 18 0 4 -1 5 -6 10 l-6 6 -12 0 -13
0 -3 4 c-2 2 -4 4 -4 4 0 0 -2 -2 -4 -4z"/><path d="M170 214 c-1 -1 -2 -3 -2 -4 0 -1 -1 -2 -2 -2 -2 0 -4 -1 -5 -2 -1
-2 -1 -2 1 -4 2 -2 2 -2 4 -1 1 1 2 3 2 5 0 1 1 2 2 2 2 0 4 1 5 2 1 2 1 2 0
4 -3 2 -3 2 -5 0z"/><path d="M162 190 c-2 -2 -2 -2 0 -4 0 -1 2 -2 4 -2 1 0 2 -1 2 -2 0 -2 1 -4
2 -5 2 -1 2 -1 4 1 2 2 2 2 1 4 -1 1 -3 2 -5 2 -1 0 -2 1 -2 2 0 2 -3 6 -4 6
0 0 -2 -1 -2 -2z"/></g>
  <g transform="scale(0.125 0.125) translate(0.000000,512.000000) scale(1.000000,-1.000000)" fill="#054139" stroke="none"><path d="M218 270 c-1 -1 -2 -3 -2 -4 0 -1 -1 -2 -2 -2 -3 0 -6 -3 -6 -6 0 -1
-1 -2 -2 -2 -3 0 -6 -3 -6 -6 0 -1 -1 -2 -2 -2 -2 0 -4 -1 -5 -2 -1 -2 -1 -2
1 -4 2 -2 2 -2 4 -1 1 1 2 3 2 5 0 1 1 2 2 2 3 0 6 3 6 6 0 1 1 2 2 2 3 0 6 3
6 6 0 2 1 2 4 2 4 0 4 0 4 -2 0 -6 1 -6 32 -6 l28 0 12 -12 c12 -12 12 -12 14
-10 1 1 2 3 2 6 0 4 0 4 -10 14 -10 10 -10 10 -14 10 -4 0 -5 0 -8 4 l-3 4
-21 0 -21 0 -3 -4 c-4 -5 -8 -6 -8 -2 0 2 -3 6 -4 6 0 0 -1 -1 -2 -2z"/><path d="M186 230 c-2 -1 -2 -4 -2 -22 l0 -20 8 -8 8 -8 0 -6 c0 -5 0 -6 -2
-6 -1 0 -7 -5 -16 -14 -14 -14 -14 -14 -12 -16 1 -2 3 -2 18 -2 20 0 20 0 20
12 l0 9 -4 3 c-3 2 -4 4 -4 6 l0 2 12 0 c12 0 12 0 12 -2 0 -6 1 -6 30 -6 l26
0 0 -2 c0 -2 -1 -4 -4 -6 -4 -3 -4 -4 -4 -8 0 -8 0 -8 24 -8 19 0 21 0 22 2 3
3 0 6 -6 6 -4 0 -5 0 -12 8 l-8 8 -6 0 c-6 0 -6 0 -6 2 0 6 -1 6 -30 6 -26 0
-26 0 -26 2 0 1 -5 8 -16 18 l-16 16 0 16 c0 15 0 17 -2 18 -2 2 -2 2 -4 0z"/><path d="M225 222 c-1 -2 -1 -2 1 -4 l2 -2 2 2 c2 2 2 2 1 4 -1 1 -3 2 -3 2 0
0 -2 -1 -3 -2z"/><path d="M289 222 c-1 -2 -1 -2 1 -4 l2 -2 2 2 c2 2 2 2 1 4 -1 1 -3 2 -3 2 0
0 -2 -1 -3 -2z"/><path d="M170 214 c-1 -1 -2 -3 -2 -4 0 -1 -1 -2 -2 -2 -2 0 -4 -1 -5 -2 -1
-2 -1 -2 1 -4 2 -2 2 -2 4 -1 1 1 2 3 2 5 0 1 1 2 2 2 2 0 4 1 5 2 1 2 1 2 0
4 -3 2 -3 2 -5 0z"/><path d="M238 202 l-6 -6 6 -6 6 -6 34 0 34 0 0 -4 c0 -4 0 -4 -2 -4 -2 0 -4
-1 -5 -2 -1 -2 -1 -2 1 -4 2 -2 2 -2 4 -1 1 1 2 3 2 5 0 1 1 2 2 2 2 0 4 1 5
2 1 2 1 2 0 4 -1 1 -3 2 -5 2 -1 0 -2 1 -2 2 0 4 3 6 8 6 6 0 8 2 8 8 0 8 2 8
-44 8 l-40 0 -6 -6z"/><path d="M162 190 c-2 -2 -2 -2 0 -4 0 -1 2 -2 4 -2 1 0 2 -1 2 -2 0 -2 1 -4
2 -5 2 -1 2 -1 4 1 2 2 2 2 1 4 -1 1 -3 2 -5 2 -1 0 -2 1 -2 2 0 2 -3 6 -4 6
0 0 -2 -1 -2 -2z"/><path d="M250 174 c-2 -2 -2 -2 0 -4 1 -2 3 -2 22 -2 19 0 21 0 23 2 1 2 1 2
0 4 -2 2 -4 2 -23 2 -19 0 -21 0 -22 -2z"/></g>
  <g transform="scale(0.125 0.125) translate(0.000000,512.000000) scale(1.000000,-1.000000)" fill="#aa7f38" stroke="none"><path d="M230 266 c-6 -6 -6 -6 -4 -8 1 -2 3 -2 30 -2 l28 0 12 -12 c12 -12
12 -12 14 -10 1 1 2 3 2 6 0 4 0 4 -10 14 -10 10 -10 10 -14 10 -4 0 -5 0 -8
4 l-3 4 -21 0 -20 0 -6 -6z"/><path d="M225 222 c-1 -2 -1 -2 1 -4 l2 -2 2 2 c2 2 2 2 1 4 -1 1 -3 2 -3 2 0
0 -2 -1 -3 -2z"/><path d="M289 222 c-1 -2 -1 -2 1 -4 l2 -2 2 2 c2 2 2 2 1 4 -1 1 -3 2 -3 2 0
0 -2 -1 -3 -2z"/><path d="M238 202 l-6 -6 6 -6 6 -6 32 0 33 0 3 4 c3 4 4 4 8 4 6 0 8 2 8 8 0
8 2 8 -44 8 l-40 0 -6 -6z"/><path d="M162 190 c-2 -2 -2 -2 0 -4 0 -1 2 -2 4 -2 1 0 2 -1 2 -2 0 -2 1 -4
2 -5 2 -1 2 -1 4 1 2 2 2 2 1 4 -1 1 -3 2 -5 2 -1 0 -2 1 -2 2 0 2 -3 6 -4 6
0 0 -2 -1 -2 -2z"/><path d="M182 146 c-14 -14 -14 -14 -12 -16 1 -2 3 -2 18 -2 20 0 20 0 20 12
l0 8 -6 6 c-3 3 -6 6 -6 6 0 0 -7 -6 -14 -14z"/><path d="M278 146 c-5 -5 -6 -6 -6 -10 0 -8 1 -8 24 -8 19 0 21 0 23 2 2 3 -1
6 -7 6 -4 0 -5 0 -12 8 -7 8 -8 8 -12 8 -4 0 -5 -1 -10 -6z"/></g>
  <g transform="scale(0.125 0.125) translate(0.000000,512.000000) scale(1.000000,-1.000000)" fill="#55948b" stroke="none"><path d="M230 266 c-6 -6 -6 -6 -4 -8 1 -2 3 -2 30 -2 l28 0 12 -12 c12 -12
12 -12 14 -10 1 1 2 3 2 6 0 4 0 4 -10 14 -10 10 -10 10 -14 10 -4 0 -5 0 -8
4 l-3 4 -21 0 -20 0 -6 -6z"/><path d="M225 222 c-1 -2 -1 -2 1 -4 l2 -2 2 2 c2 2 2 2 1 4 -1 1 -3 2 -3 2 0
0 -2 -1 -3 -2z"/><path d="M289 222 c-1 -2 -1 -2 1 -4 l2 -2 2 2 c2 2 2 2 1 4 -1 1 -3 2 -3 2 0
0 -2 -1 -3 -2z"/><path d="M242 206 c-1 -1 -2 -3 -2 -4 0 -1 -1 -2 -2 -2 -2 0 -4 -1 -4 -2 -2
-2 -2 -2 0 -4 0 -1 2 -2 4 -2 1 0 2 -1 2 -2 0 -6 2 -6 24 -6 19 0 21 0 23 2 1
2 1 2 0 4 -2 2 -4 2 -25 2 l-22 0 0 4 0 4 38 0 39 0 3 -4 c4 -4 4 -4 6 -3 3 3
3 11 0 13 -3 3 -82 3 -84 0z"/><path d="M162 190 c-2 -2 -2 -2 0 -4 0 -1 2 -2 4 -2 1 0 2 -1 2 -2 0 -2 1 -4
2 -5 2 -1 2 -1 4 1 2 2 2 2 1 4 -1 1 -3 2 -5 2 -1 0 -2 1 -2 2 0 2 -3 6 -4 6
0 0 -2 -1 -2 -2z"/><path d="M190 154 c-4 -3 -6 -7 -6 -8 0 -1 -1 -2 -2 -2 -3 0 -6 -3 -6 -6 0 -1
-1 -2 -2 -2 -2 0 -4 -1 -5 -2 -1 -2 -1 -2 1 -4 2 -2 2 -2 4 -1 1 1 2 3 2 5 0
1 1 2 2 2 3 0 6 3 6 6 0 4 4 2 12 -6 8 -8 8 -8 10 -7 2 2 2 4 2 11 l0 8 -6 6
c-3 3 -6 6 -6 6 0 0 -3 -3 -6 -6z"/><path d="M290 150 c-2 -2 -2 -2 0 -4 0 -1 2 -2 4 -2 1 0 2 -1 2 -2 0 -3 3 -6
6 -6 1 0 2 -1 2 -2 0 -6 10 -8 15 -4 3 3 -1 6 -9 6 -6 0 -6 0 -6 2 0 3 -3 6
-6 6 -1 0 -2 1 -2 2 0 2 -3 6 -4 6 0 0 -2 -1 -2 -2z"/><path d="M274 142 c-3 -3 -3 -10 0 -12 3 -3 6 0 6 6 0 7 -3 10 -6 6z"/></g>
  <g transform="scale(0.125 0.125) translate(0.000000,512.000000) scale(1.000000,-1.000000)" fill="#ecc687" stroke="none"><path d="M225 222 c-1 -2 -1 -2 1 -4 l2 -2 2 2 c2 2 2 2 1 4 -1 1 -3 2 -3 2 0
0 -2 -1 -3 -2z"/><path d="M289 222 c-1 -2 -1 -2 1 -4 l2 -2 2 2 c2 2 2 2 1 4 -1 1 -3 2 -3 2 0
0 -2 -1 -3 -2z"/><path d="M242 206 c-1 -1 -2 -3 -2 -4 0 -1 -1 -2 -2 -2 -2 0 -4 -1 -4 -2 -2
-2 -2 -2 0 -4 0 -1 2 -2 4 -2 1 0 2 -1 2 -2 0 -6 2 -6 24 -6 19 0 21 0 23 2 1
2 1 2 0 4 -2 2 -4 2 -25 2 l-22 0 0 4 0 4 38 0 39 0 3 -4 c4 -4 4 -4 6 -3 3 3
3 11 0 13 -3 3 -82 3 -84 0z"/><path d="M190 154 c-4 -3 -6 -7 -6 -8 0 -1 -1 -2 -2 -2 -3 0 -6 -3 -6 -6 0 -1
-1 -2 -2 -2 -2 0 -4 -1 -5 -2 -1 -2 -1 -2 1 -4 2 -2 2 -2 4 -1 1 1 2 3 2 5 0
1 1 2 2 2 3 0 6 3 6 6 0 4 4 2 12 -6 8 -8 8 -8 10 -7 2 2 2 4 2 11 l0 8 -6 6
c-3 3 -6 6 -6 6 0 0 -3 -3 -6 -6z"/><path d="M290 150 c-2 -2 -2 -2 0 -4 0 -1 2 -2 4 -2 1 0 2 -1 2 -2 0 -3 3 -6
6 -6 1 0 2 -1 2 -2 0 -6 10 -8 15 -4 3 3 -1 6 -9 6 -6 0 -6 0 -6 2 0 3 -3 6
-6 6 -1 0 -2 1 -2 2 0 2 -3 6 -4 6 0 0 -2 -1 -2 -2z"/><path d="M274 142 c-3 -3 -3 -10 0 -12 3 -3 6 0 6 6 0 7 -3 10 -6 6z"/></g>
  <g transform="scale(0.125 0.125) translate(0.000000,512.000000) scale(1.000000,-1.000000)" fill="#674309" stroke="none"><path d="M225 222 c-1 -2 -1 -2 1 -4 l2 -2 2 2 c2 2 2 2 1 4 -1 1 -3 2 -3 2 0
0 -2 -1 -3 -2z"/><path d="M289 222 c-1 -2 -1 -2 1 -4 l2 -2 2 2 c2 2 2 2 1 4 -1 1 -3 2 -3 2 0
0 -2 -1 -3 -2z"/><path d="M234 198 c-2 -2 -2 -2 0 -4 0 -1 2 -2 4 -2 1 0 2 -1 2 -2 0 -6 2 -6
24 -6 19 0 21 0 23 2 1 2 1 2 0 4 -2 2 -4 2 -25 2 l-22 0 0 2 c0 2 -3 6 -4 6
0 0 -2 -1 -2 -2z"/><path d="M190 154 l-6 -6 10 -10 c10 -10 10 -10 12 -8 2 1 2 3 2 10 l0 8 -6 6
c-3 3 -6 6 -6 6 0 0 -3 -3 -6 -6z"/><path d="M274 142 c-3 -3 -3 -10 0 -12 3 -3 6 0 6 6 0 7 -3 10 -6 6z"/></g>
  <g transform="scale(0.125 0.125) translate(0.000000,512.000000) scale(1.000000,-1.000000)" fill="#afd5d0" stroke="none"><path d="M225 222 c-1 -2 -1 -2 1 -4 l2 -2 2 2 c2 2 2 2 1 4 -1 1 -3 2 -3 2 0
0 -2 -1 -3 -2z"/><path d="M289 222 c-1 -2 -1 -2 1 -4 l2 -2 2 2 c2 2 2 2 1 4 -1 1 -3 2 -3 2 0
0 -2 -1 -3 -2z"/></g>
</svg>
