<?xml version="1.0" encoding="UTF-8"?>
<svg xmlns="http://www.w3.org/2000/svg" viewBox="0 0 256 32" shape-rendering="crispEdges">
<rect x="106" y="14" width="2" height="1" fill="#2f2f2e"/>
<rect x="79" y="15" width="2" height="1" fill="#2f2f2e"/>
<rect x="84" y="15" width="2" height="1" fill="#2f2f2e"/>
<rect x="105" y="15" width="1" height="1" fill="#2f2f2e"/>
<rect x="106" y="15" width="1" height="1" fill="#e0e0e0"/>
<rect x="107" y="15" width="1" height="1" fill="#2f2f2e"/>
<rect x="46" y="16" width="2" height="1" fill="#2f2f2e"/>
<rect x="51" y="16" width="2" height="1" fill="#2f2f2e"/>
<rect x="79" y="16" width="1" height="1" fill="#2f2f2e"/>
<rect x="80" y="16" width="1" height="1" fill="#b5b5b5"/>
<rect x="81" y="16" width="3" height="1" fill="#2f2f2e"/>
<rect x="84" y="16" width="1" height="1" fill="#b5b5b5"/>
<rect x="85" y="16" width="1" height="1" fill="#2f2f2e"/>
<rect x="105" y="16" width="1" height="1" fill="#2f2f2e"/>
<rect x="106" y="16" width="1" height="1" fill="#e0e0e0"/>
<rect x="107" y="16" width="1" height="1" fill="#2f2f2e"/>
<rect x="46" y="17" width="1" height="1" fill="#2f2f2e"/>
<rect x="47" y="17" width="1" height="1" fill="#b5b5b5"/>
<rect x="48" y="17" width="3" height="1" fill="#2f2f2e"/>
<rect x="51" y="17" width="1" height="1" fill="#b5b5b5"/>
<rect x="52" y="17" width="1" height="1" fill="#2f2f2e"/>
<rect x="79" y="17" width="1" height="1" fill="#2f2f2e"/>
<rect x="80" y="17" width="1" height="1" fill="#b5b5b5"/>
<rect x="81" y="17" width="4" height="1" fill="#e0e0e0"/>
<rect x="85" y="17" width="1" height="1" fill="#2f2f2e"/>
<rect x="105" y="17" width="1" height="1" fill="#2f2f2e"/>
<rect x="106" y="17" width="1" height="1" fill="#e0e0e0"/>
<rect x="107" y="17" width="1" height="1" fill="#2f2f2e"/>
<rect x="111" y="17" width="2" height="1" fill="#2f2f2e"/>
<rect x="115" y="17" width="2" height="1" fill="#2f2f2e"/>
<rect x="46" y="18" width="1" height="1" fill="#2f2f2e"/>
<rect x="47" y="18" width="1" height="1" fill="#b5b5b5"/>
<rect x="48" y="18" width="4" height="1" fill="#e0e0e0"/>
<rect x="52" y="18" width="1" height="1" fill="#2f2f2e"/>
<rect x="79" y="18" width="1" height="1" fill="#2f2f2e"/>
<rect x="80" y="18" width="1" height="1" fill="#b5b5b5"/>
<rect x="81" y="18" width="1" height="1" fill="#2f2f2e"/>
<rect x="82" y="18" width="2" height="1" fill="#b5b5b5"/>
<rect x="84" y="18" width="2" height="1" fill="#2f2f2e"/>
<rect x="105" y="18" width="1" height="1" fill="#2f2f2e"/>
<rect x="106" y="18" width="2" height="1" fill="#e0e0e0"/>
<rect x="108" y="18" width="2" height="1" fill="#2f2f2e"/>
<rect x="111" y="18" width="1" height="1" fill="#2f2f2e"/>
<rect x="112" y="18" width="1" height="1" fill="#b5b5b5"/>
<rect x="113" y="18" width="4" height="1" fill="#2f2f2e"/>
<rect x="45" y="19" width="2" height="1" fill="#2f2f2e"/>
<rect x="47" y="19" width="1" height="1" fill="#b5b5b5"/>
<rect x="48" y="19" width="1" height="1" fill="#2f2f2e"/>
<rect x="49" y="19" width="2" height="1" fill="#b5b5b5"/>
<rect x="51" y="19" width="5" height="1" fill="#2f2f2e"/>
<rect x="79" y="19" width="1" height="1" fill="#2f2f2e"/>
<rect x="80" y="19" width="1" height="1" fill="#b5b5b5"/>
<rect x="81" y="19" width="4" height="1" fill="#e0e0e0"/>
<rect x="85" y="19" width="1" height="1" fill="#2f2f2e"/>
<rect x="106" y="19" width="1" height="1" fill="#2f2f2e"/>
<rect x="107" y="19" width="2" height="1" fill="#e0e0e0"/>
<rect x="109" y="19" width="1" height="1" fill="#b5b5b5"/>
<rect x="110" y="19" width="2" height="1" fill="#2f2f2e"/>
<rect x="112" y="19" width="1" height="1" fill="#b5b5b5"/>
<rect x="113" y="19" width="4" height="1" fill="#e0e0e0"/>
<rect x="117" y="19" width="1" height="1" fill="#2f2f2e"/>
<rect x="14" y="20" width="2" height="1" fill="#2f2f2e"/>
<rect x="19" y="20" width="2" height="1" fill="#2f2f2e"/>
<rect x="44" y="20" width="1" height="1" fill="#2f2f2e"/>
<rect x="45" y="20" width="1" height="1" fill="#e0e0e0"/>
<rect x="46" y="20" width="1" height="1" fill="#b5b5b5"/>
<rect x="47" y="20" width="1" height="1" fill="#2f2f2e"/>
<rect x="48" y="20" width="1" height="1" fill="#e0e0e0"/>
<rect x="49" y="20" width="2" height="1" fill="#2f2f2e"/>
<rect x="51" y="20" width="1" height="1" fill="#e0e0e0"/>
<rect x="52" y="20" width="1" height="1" fill="#2f2f2e"/>
<rect x="53" y="20" width="1" height="1" fill="#e0e0e0"/>
<rect x="54" y="20" width="1" height="1" fill="#b5b5b5"/>
<rect x="55" y="20" width="1" height="1" fill="#2f2f2e"/>
<rect x="78" y="20" width="2" height="1" fill="#2f2f2e"/>
<rect x="80" y="20" width="5" height="1" fill="#b5b5b5"/>
<rect x="85" y="20" width="2" height="1" fill="#2f2f2e"/>
<rect x="106" y="20" width="1" height="1" fill="#2f2f2e"/>
<rect x="107" y="20" width="2" height="1" fill="#e0e0e0"/>
<rect x="109" y="20" width="2" height="1" fill="#b5b5b5"/>
<rect x="111" y="20" width="1" height="1" fill="#2f2f2e"/>
<rect x="112" y="20" width="1" height="1" fill="#b5b5b5"/>
<rect x="113" y="20" width="3" height="1" fill="#e0e0e0"/>
<rect x="116" y="20" width="2" height="1" fill="#2f2f2e"/>
<rect x="14" y="21" width="1" height="1" fill="#2f2f2e"/>
<rect x="15" y="21" width="1" height="1" fill="#b5b5b5"/>
<rect x="16" y="21" width="3" height="1" fill="#2f2f2e"/>
<rect x="19" y="21" width="1" height="1" fill="#b5b5b5"/>
<rect x="20" y="21" width="1" height="1" fill="#2f2f2e"/>
<rect x="44" y="21" width="1" height="1" fill="#2f2f2e"/>
<rect x="45" y="21" width="1" height="1" fill="#e0e0e0"/>
<rect x="46" y="21" width="1" height="1" fill="#2f2f2e"/>
<rect x="47" y="21" width="2" height="1" fill="#b5b5b5"/>
<rect x="49" y="21" width="2" height="1" fill="#2f2f2e"/>
<rect x="51" y="21" width="1" height="1" fill="#b5b5b5"/>
<rect x="52" y="21" width="1" height="1" fill="#2f2f2e"/>
<rect x="53" y="21" width="1" height="1" fill="#e0e0e0"/>
<rect x="54" y="21" width="1" height="1" fill="#2f2f2e"/>
<rect x="77" y="21" width="1" height="1" fill="#2f2f2e"/>
<rect x="78" y="21" width="2" height="1" fill="#b5b5b5"/>
<rect x="80" y="21" width="1" height="1" fill="#2f2f2e"/>
<rect x="81" y="21" width="2" height="1" fill="#b5b5b5"/>
<rect x="83" y="21" width="2" height="1" fill="#2f2f2e"/>
<rect x="85" y="21" width="1" height="1" fill="#b5b5b5"/>
<rect x="86" y="21" width="1" height="1" fill="#e0e0e0"/>
<rect x="87" y="21" width="1" height="1" fill="#2f2f2e"/>
<rect x="106" y="21" width="1" height="1" fill="#2f2f2e"/>
<rect x="107" y="21" width="3" height="1" fill="#e0e0e0"/>
<rect x="110" y="21" width="1" height="1" fill="#b5b5b5"/>
<rect x="111" y="21" width="1" height="1" fill="#2f2f2e"/>
<rect x="112" y="21" width="1" height="1" fill="#b5b5b5"/>
<rect x="113" y="21" width="1" height="1" fill="#e0e0e0"/>
<rect x="114" y="21" width="1" height="1" fill="#2f2f2e"/>
<rect x="115" y="21" width="2" height="1" fill="#b5b5b5"/>
<rect x="117" y="21" width="1" height="1" fill="#2f2f2e"/>
<rect x="139" y="21" width="2" height="1" fill="#2f2f2e"/>
<rect x="207" y="21" width="2" height="1" fill="#2f2f2e"/>
<rect x="211" y="21" width="2" height="1" fill="#2f2f2e"/>
<rect x="14" y="22" width="1" height="1" fill="#2f2f2e"/>
<rect x="15" y="22" width="1" height="1" fill="#b5b5b5"/>
<rect x="16" y="22" width="4" height="1" fill="#e0e0e0"/>
<rect x="20" y="22" width="1" height="1" fill="#2f2f2e"/>
<rect x="44" y="22" width="1" height="1" fill="#2f2f2e"/>
<rect x="45" y="22" width="1" height="1" fill="#e0e0e0"/>
<rect x="46" y="22" width="1" height="1" fill="#b5b5b5"/>
<rect x="47" y="22" width="1" height="1" fill="#2f2f2e"/>
<rect x="48" y="22" width="3" height="1" fill="#b5b5b5"/>
<rect x="51" y="22" width="2" height="1" fill="#2f2f2e"/>
<rect x="53" y="22" width="1" height="1" fill="#e0e0e0"/>
<rect x="54" y="22" width="1" height="1" fill="#2f2f2e"/>
<rect x="76" y="22" width="1" height="1" fill="#2f2f2e"/>
<rect x="77" y="22" width="3" height="1" fill="#b5b5b5"/>
<rect x="80" y="22" width="1" height="1" fill="#e0e0e0"/>
<rect x="81" y="22" width="1" height="1" fill="#2f2f2e"/>
<rect x="82" y="22" width="2" height="1" fill="#e0e0e0"/>
<rect x="84" y="22" width="2" height="1" fill="#2f2f2e"/>
<rect x="86" y="22" width="1" height="1" fill="#e0e0e0"/>
<rect x="87" y="22" width="1" height="1" fill="#2f2f2e"/>
<rect x="106" y="22" width="1" height="1" fill="#2f2f2e"/>
<rect x="107" y="22" width="4" height="1" fill="#e0e0e0"/>
<rect x="111" y="22" width="1" height="1" fill="#2f2f2e"/>
<rect x="112" y="22" width="5" height="1" fill="#b5b5b5"/>
<rect x="117" y="22" width="1" height="1" fill="#2f2f2e"/>
<rect x="138" y="22" width="1" height="1" fill="#2f2f2e"/>
<rect x="139" y="22" width="1" height="1" fill="#e0e0e0"/>
<rect x="140" y="22" width="1" height="1" fill="#2f2f2e"/>
<rect x="143" y="22" width="2" height="1" fill="#2f2f2e"/>
<rect x="147" y="22" width="2" height="1" fill="#2f2f2e"/>
<rect x="175" y="22" width="2" height="1" fill="#2f2f2e"/>
<rect x="179" y="22" width="2" height="1" fill="#2f2f2e"/>
<rect x="202" y="22" width="2" height="1" fill="#2f2f2e"/>
<rect x="207" y="22" width="1" height="1" fill="#2f2f2e"/>
<rect x="208" y="22" width="1" height="1" fill="#b5b5b5"/>
<rect x="209" y="22" width="4" height="1" fill="#2f2f2e"/>
<rect x="14" y="23" width="1" height="1" fill="#2f2f2e"/>
<rect x="15" y="23" width="1" height="1" fill="#b5b5b5"/>
<rect x="16" y="23" width="1" height="1" fill="#2f2f2e"/>
<rect x="17" y="23" width="2" height="1" fill="#b5b5b5"/>
<rect x="19" y="23" width="2" height="1" fill="#2f2f2e"/>
<rect x="45" y="23" width="1" height="1" fill="#2f2f2e"/>
<rect x="46" y="23" width="3" height="1" fill="#b5b5b5"/>
<rect x="49" y="23" width="3" height="1" fill="#e0e0e0"/>
<rect x="52" y="23" width="2" height="1" fill="#2f2f2e"/>
<rect x="75" y="23" width="1" height="1" fill="#2f2f2e"/>
<rect x="76" y="23" width="2" height="1" fill="#b5b5b5"/>
<rect x="78" y="23" width="1" height="1" fill="#e0e0e0"/>
<rect x="79" y="23" width="1" height="1" fill="#2f2f2e"/>
<rect x="80" y="23" width="1" height="1" fill="#e0e0e0"/>
<rect x="81" y="23" width="1" height="1" fill="#2f2f2e"/>
<rect x="82" y="23" width="1" height="1" fill="#e0e0e0"/>
<rect x="83" y="23" width="1" height="1" fill="#2f2f2e"/>
<rect x="86" y="23" width="1" height="1" fill="#2f2f2e"/>
<rect x="106" y="23" width="1" height="1" fill="#2f2f2e"/>
<rect x="107" y="23" width="1" height="1" fill="#e0e0e0"/>
<rect x="108" y="23" width="2" height="1" fill="#2f2f2e"/>
<rect x="110" y="23" width="6" height="1" fill="#e0e0e0"/>
<rect x="116" y="23" width="2" height="1" fill="#2f2f2e"/>
<rect x="138" y="23" width="1" height="1" fill="#2f2f2e"/>
<rect x="139" y="23" width="1" height="1" fill="#e0e0e0"/>
<rect x="140" y="23" width="1" height="1" fill="#2f2f2e"/>
<rect x="143" y="23" width="1" height="1" fill="#2f2f2e"/>
<rect x="144" y="23" width="1" height="1" fill="#b5b5b5"/>
<rect x="145" y="23" width="4" height="1" fill="#2f2f2e"/>
<rect x="170" y="23" width="2" height="1" fill="#2f2f2e"/>
<rect x="175" y="23" width="1" height="1" fill="#2f2f2e"/>
<rect x="176" y="23" width="1" height="1" fill="#b5b5b5"/>
<rect x="177" y="23" width="4" height="1" fill="#2f2f2e"/>
<rect x="201" y="23" width="1" height="1" fill="#2f2f2e"/>
<rect x="202" y="23" width="1" height="1" fill="#e0e0e0"/>
<rect x="203" y="23" width="1" height="1" fill="#2f2f2e"/>
<rect x="207" y="23" width="1" height="1" fill="#2f2f2e"/>
<rect x="208" y="23" width="1" height="1" fill="#b5b5b5"/>
<rect x="209" y="23" width="4" height="1" fill="#e0e0e0"/>
<rect x="213" y="23" width="1" height="1" fill="#2f2f2e"/>
<rect x="14" y="24" width="1" height="1" fill="#2f2f2e"/>
<rect x="15" y="24" width="1" height="1" fill="#b5b5b5"/>
<rect x="16" y="24" width="4" height="1" fill="#e0e0e0"/>
<rect x="20" y="24" width="1" height="1" fill="#2f2f2e"/>
<rect x="46" y="24" width="1" height="1" fill="#2f2f2e"/>
<rect x="47" y="24" width="2" height="1" fill="#b5b5b5"/>
<rect x="49" y="24" width="3" height="1" fill="#e0e0e0"/>
<rect x="52" y="24" width="1" height="1" fill="#2f2f2e"/>
<rect x="75" y="24" width="1" height="1" fill="#2f2f2e"/>
<rect x="76" y="24" width="1" height="1" fill="#b5b5b5"/>
<rect x="77" y="24" width="3" height="1" fill="#e0e0e0"/>
<rect x="80" y="24" width="1" height="1" fill="#2f2f2e"/>
<rect x="81" y="24" width="1" height="1" fill="#e0e0e0"/>
<rect x="82" y="24" width="1" height="1" fill="#2f2f2e"/>
<rect x="106" y="24" width="2" height="1" fill="#2f2f2e"/>
<rect x="110" y="24" width="1" height="1" fill="#2f2f2e"/>
<rect x="111" y="24" width="7" height="1" fill="#e0e0e0"/>
<rect x="118" y="24" width="1" height="1" fill="#2f2f2e"/>
<rect x="138" y="24" width="1" height="1" fill="#2f2f2e"/>
<rect x="139" y="24" width="1" height="1" fill="#e0e0e0"/>
<rect x="140" y="24" width="1" height="1" fill="#2f2f2e"/>
<rect x="143" y="24" width="1" height="1" fill="#2f2f2e"/>
<rect x="144" y="24" width="1" height="1" fill="#b5b5b5"/>
<rect x="145" y="24" width="4" height="1" fill="#e0e0e0"/>
<rect x="149" y="24" width="1" height="1" fill="#2f2f2e"/>
<rect x="169" y="24" width="1" height="1" fill="#2f2f2e"/>
<rect x="170" y="24" width="1" height="1" fill="#e0e0e0"/>
<rect x="171" y="24" width="1" height="1" fill="#2f2f2e"/>
<rect x="175" y="24" width="1" height="1" fill="#2f2f2e"/>
<rect x="176" y="24" width="1" height="1" fill="#b5b5b5"/>
<rect x="177" y="24" width="4" height="1" fill="#e0e0e0"/>
<rect x="181" y="24" width="1" height="1" fill="#2f2f2e"/>
<rect x="201" y="24" width="1" height="1" fill="#2f2f2e"/>
<rect x="202" y="24" width="1" height="1" fill="#e0e0e0"/>
<rect x="203" y="24" width="1" height="1" fill="#2f2f2e"/>
<rect x="207" y="24" width="1" height="1" fill="#2f2f2e"/>
<rect x="208" y="24" width="1" height="1" fill="#b5b5b5"/>
<rect x="209" y="24" width="1" height="1" fill="#2f2f2e"/>
<rect x="210" y="24" width="2" height="1" fill="#b5b5b5"/>
<rect x="212" y="24" width="2" height="1" fill="#2f2f2e"/>
<rect x="14" y="25" width="1" height="1" fill="#2f2f2e"/>
<rect x="15" y="25" width="5" height="1" fill="#b5b5b5"/>
<rect x="20" y="25" width="1" height="1" fill="#2f2f2e"/>
<rect x="45" y="25" width="1" height="1" fill="#2f2f2e"/>
<rect x="46" y="25" width="2" height="1" fill="#b5b5b5"/>
<rect x="48" y="25" width="3" height="1" fill="#e0e0e0"/>
<rect x="51" y="25" width="1" height="1" fill="#2f2f2e"/>
<rect x="74" y="25" width="1" height="1" fill="#2f2f2e"/>
<rect x="75" y="25" width="1" height="1" fill="#b5b5b5"/>
<rect x="76" y="25" width="2" height="1" fill="#2f2f2e"/>
<rect x="78" y="25" width="1" height="1" fill="#e0e0e0"/>
<rect x="79" y="25" width="2" height="1" fill="#2f2f2e"/>
<rect x="81" y="25" width="2" height="1" fill="#b5b5b5"/>
<rect x="83" y="25" width="1" height="1" fill="#2f2f2e"/>
<rect x="111" y="25" width="1" height="1" fill="#2f2f2e"/>
<rect x="112" y="25" width="1" height="1" fill="#e0e0e0"/>
<rect x="113" y="25" width="4" height="1" fill="#2f2f2e"/>
<rect x="117" y="25" width="1" height="1" fill="#b5b5b5"/>
<rect x="118" y="25" width="1" height="1" fill="#2f2f2e"/>
<rect x="138" y="25" width="1" height="1" fill="#2f2f2e"/>
<rect x="139" y="25" width="1" height="1" fill="#e0e0e0"/>
<rect x="140" y="25" width="4" height="1" fill="#2f2f2e"/>
<rect x="144" y="25" width="1" height="1" fill="#b5b5b5"/>
<rect x="145" y="25" width="4" height="1" fill="#e0e0e0"/>
<rect x="149" y="25" width="1" height="1" fill="#2f2f2e"/>
<rect x="169" y="25" width="1" height="1" fill="#2f2f2e"/>
<rect x="170" y="25" width="1" height="1" fill="#e0e0e0"/>
<rect x="171" y="25" width="1" height="1" fill="#2f2f2e"/>
<rect x="175" y="25" width="1" height="1" fill="#2f2f2e"/>
<rect x="176" y="25" width="1" height="1" fill="#b5b5b5"/>
<rect x="177" y="25" width="1" height="1" fill="#2f2f2e"/>
<rect x="178" y="25" width="2" height="1" fill="#b5b5b5"/>
<rect x="180" y="25" width="2" height="1" fill="#2f2f2e"/>
<rect x="201" y="25" width="1" height="1" fill="#2f2f2e"/>
<rect x="202" y="25" width="1" height="1" fill="#e0e0e0"/>
<rect x="203" y="25" width="1" height="1" fill="#2f2f2e"/>
<rect x="207" y="25" width="1" height="1" fill="#2f2f2e"/>
<rect x="208" y="25" width="1" height="1" fill="#b5b5b5"/>
<rect x="209" y="25" width="4" height="1" fill="#e0e0e0"/>
<rect x="213" y="25" width="1" height="1" fill="#2f2f2e"/>
<rect x="13" y="26" width="1" height="1" fill="#2f2f2e"/>
<rect x="14" y="26" width="2" height="1" fill="#b5b5b5"/>
<rect x="16" y="26" width="3" height="1" fill="#e0e0e0"/>
<rect x="19" y="26" width="1" height="1" fill="#2f2f2e"/>
<rect x="45" y="26" width="1" height="1" fill="#2f2f2e"/>
<rect x="46" y="26" width="1" height="1" fill="#b5b5b5"/>
<rect x="47" y="26" width="4" height="1" fill="#e0e0e0"/>
<rect x="51" y="26" width="1" height="1" fill="#2f2f2e"/>
<rect x="73" y="26" width="1" height="1" fill="#2f2f2e"/>
<rect x="74" y="26" width="1" height="1" fill="#b5b5b5"/>
<rect x="75" y="26" width="1" height="1" fill="#2f2f2e"/>
<rect x="77" y="26" width="1" height="1" fill="#2f2f2e"/>
<rect x="78" y="26" width="1" height="1" fill="#e0e0e0"/>
<rect x="79" y="26" width="1" height="1" fill="#2f2f2e"/>
<rect x="81" y="26" width="1" height="1" fill="#2f2f2e"/>
<rect x="82" y="26" width="1" height="1" fill="#b5b5b5"/>
<rect x="83" y="26" width="1" height="1" fill="#2f2f2e"/>
<rect x="111" y="26" width="1" height="1" fill="#2f2f2e"/>
<rect x="112" y="26" width="1" height="1" fill="#e0e0e0"/>
<rect x="113" y="26" width="1" height="1" fill="#2f2f2e"/>
<rect x="117" y="26" width="2" height="1" fill="#2f2f2e"/>
<rect x="138" y="26" width="1" height="1" fill="#2f2f2e"/>
<rect x="139" y="26" width="4" height="1" fill="#e0e0e0"/>
<rect x="143" y="26" width="1" height="1" fill="#2f2f2e"/>
<rect x="144" y="26" width="1" height="1" fill="#b5b5b5"/>
<rect x="145" y="26" width="1" height="1" fill="#2f2f2e"/>
<rect x="146" y="26" width="2" height="1" fill="#b5b5b5"/>
<rect x="148" y="26" width="2" height="1" fill="#2f2f2e"/>
<rect x="169" y="26" width="1" height="1" fill="#2f2f2e"/>
<rect x="170" y="26" width="1" height="1" fill="#e0e0e0"/>
<rect x="171" y="26" width="1" height="1" fill="#2f2f2e"/>
<rect x="175" y="26" width="1" height="1" fill="#2f2f2e"/>
<rect x="176" y="26" width="1" height="1" fill="#b5b5b5"/>
<rect x="177" y="26" width="4" height="1" fill="#e0e0e0"/>
<rect x="181" y="26" width="1" height="1" fill="#2f2f2e"/>
<rect x="201" y="26" width="1" height="1" fill="#2f2f2e"/>
<rect x="202" y="26" width="1" height="1" fill="#e0e0e0"/>
<rect x="203" y="26" width="5" height="1" fill="#2f2f2e"/>
<rect x="208" y="26" width="5" height="1" fill="#b5b5b5"/>
<rect x="213" y="26" width="1" height="1" fill="#2f2f2e"/>
<rect x="13" y="27" width="1" height="1" fill="#2f2f2e"/>
<rect x="14" y="27" width="2" height="1" fill="#b5b5b5"/>
<rect x="16" y="27" width="3" height="1" fill="#e0e0e0"/>
<rect x="19" y="27" width="1" height="1" fill="#2f2f2e"/>
<rect x="44" y="27" width="1" height="1" fill="#2f2f2e"/>
<rect x="45" y="27" width="2" height="1" fill="#b5b5b5"/>
<rect x="47" y="27" width="5" height="1" fill="#e0e0e0"/>
<rect x="52" y="27" width="1" height="1" fill="#2f2f2e"/>
<rect x="73" y="27" width="1" height="1" fill="#2f2f2e"/>
<rect x="74" y="27" width="1" height="1" fill="#b5b5b5"/>
<rect x="75" y="27" width="1" height="1" fill="#2f2f2e"/>
<rect x="78" y="27" width="2" height="1" fill="#2f2f2e"/>
<rect x="82" y="27" width="2" height="1" fill="#2f2f2e"/>
<rect x="112" y="27" width="2" height="1" fill="#2f2f2e"/>
<rect x="138" y="27" width="1" height="1" fill="#2f2f2e"/>
<rect x="139" y="27" width="5" height="1" fill="#e0e0e0"/>
<rect x="144" y="27" width="5" height="1" fill="#b5b5b5"/>
<rect x="149" y="27" width="1" height="1" fill="#2f2f2e"/>
<rect x="169" y="27" width="1" height="1" fill="#2f2f2e"/>
<rect x="170" y="27" width="1" height="1" fill="#e0e0e0"/>
<rect x="171" y="27" width="5" height="1" fill="#2f2f2e"/>
<rect x="176" y="27" width="5" height="1" fill="#b5b5b5"/>
<rect x="181" y="27" width="1" height="1" fill="#2f2f2e"/>
<rect x="202" y="27" width="1" height="1" fill="#2f2f2e"/>
<rect x="203" y="27" width="9" height="1" fill="#e0e0e0"/>
<rect x="212" y="27" width="1" height="1" fill="#2f2f2e"/>
<rect x="13" y="28" width="1" height="1" fill="#2f2f2e"/>
<rect x="14" y="28" width="1" height="1" fill="#b5b5b5"/>
<rect x="15" y="28" width="4" height="1" fill="#e0e0e0"/>
<rect x="19" y="28" width="1" height="1" fill="#2f2f2e"/>
<rect x="44" y="28" width="1" height="1" fill="#2f2f2e"/>
<rect x="45" y="28" width="2" height="1" fill="#b5b5b5"/>
<rect x="47" y="28" width="4" height="1" fill="#2f2f2e"/>
<rect x="51" y="28" width="1" height="1" fill="#e0e0e0"/>
<rect x="52" y="28" width="1" height="1" fill="#2f2f2e"/>
<rect x="74" y="28" width="1" height="1" fill="#2f2f2e"/>
<rect x="137" y="28" width="1" height="1" fill="#2f2f2e"/>
<rect x="138" y="28" width="1" height="1" fill="#b5b5b5"/>
<rect x="139" y="28" width="9" height="1" fill="#e0e0e0"/>
<rect x="148" y="28" width="1" height="1" fill="#2f2f2e"/>
<rect x="170" y="28" width="1" height="1" fill="#2f2f2e"/>
<rect x="171" y="28" width="9" height="1" fill="#e0e0e0"/>
<rect x="180" y="28" width="1" height="1" fill="#2f2f2e"/>
<rect x="202" y="28" width="1" height="1" fill="#2f2f2e"/>
<rect x="203" y="28" width="9" height="1" fill="#e0e0e0"/>
<rect x="212" y="28" width="1" height="1" fill="#2f2f2e"/>
<rect x="10" y="29" width="3" height="1" fill="#2f2f2e"/>
<rect x="13" y="29" width="2" height="1" fill="#b5b5b5"/>
<rect x="15" y="29" width="1" height="1" fill="#e0e0e0"/>
<rect x="16" y="29" width="1" height="1" fill="#2f2f2e"/>
<rect x="17" y="29" width="1" height="1" fill="#e0e0e0"/>
<rect x="18" y="29" width="1" height="1" fill="#2f2f2e"/>
<rect x="19" y="29" width="1" height="1" fill="#e0e0e0"/>
<rect x="20" y="29" width="1" height="1" fill="#2f2f2e"/>
<rect x="42" y="29" width="2" height="1" fill="#2f2f2e"/>
<rect x="44" y="29" width="1" height="1" fill="#b5b5b5"/>
<rect x="45" y="29" width="2" height="1" fill="#2f2f2e"/>
<rect x="51" y="29" width="2" height="1" fill="#2f2f2e"/>
<rect x="137" y="29" width="1" height="1" fill="#2f2f2e"/>
<rect x="138" y="29" width="1" height="1" fill="#b5b5b5"/>
<rect x="139" y="29" width="4" height="1" fill="#2f2f2e"/>
<rect x="143" y="29" width="1" height="1" fill="#e0e0e0"/>
<rect x="144" y="29" width="1" height="1" fill="#2f2f2e"/>
<rect x="145" y="29" width="1" height="1" fill="#e0e0e0"/>
<rect x="146" y="29" width="2" height="1" fill="#b5b5b5"/>
<rect x="148" y="29" width="1" height="1" fill="#2f2f2e"/>
<rect x="170" y="29" width="1" height="1" fill="#2f2f2e"/>
<rect x="171" y="29" width="9" height="1" fill="#e0e0e0"/>
<rect x="180" y="29" width="1" height="1" fill="#2f2f2e"/>
<rect x="202" y="29" width="1" height="1" fill="#2f2f2e"/>
<rect x="203" y="29" width="1" height="1" fill="#e0e0e0"/>
<rect x="204" y="29" width="1" height="1" fill="#2f2f2e"/>
<rect x="205" y="29" width="3" height="1" fill="#e0e0e0"/>
<rect x="208" y="29" width="1" height="1" fill="#2f2f2e"/>
<rect x="209" y="29" width="1" height="1" fill="#e0e0e0"/>
<rect x="210" y="29" width="1" height="1" fill="#b5b5b5"/>
<rect x="211" y="29" width="1" height="1" fill="#e0e0e0"/>
<rect x="212" y="29" width="1" height="1" fill="#2f2f2e"/>
<rect x="9" y="30" width="1" height="1" fill="#2f2f2e"/>
<rect x="10" y="30" width="2" height="1" fill="#b5b5b5"/>
<rect x="12" y="30" width="1" height="1" fill="#2f2f2e"/>
<rect x="13" y="30" width="2" height="1" fill="#b5b5b5"/>
<rect x="15" y="30" width="1" height="1" fill="#e0e0e0"/>
<rect x="16" y="30" width="1" height="1" fill="#2f2f2e"/>
<rect x="17" y="30" width="1" height="1" fill="#e0e0e0"/>
<rect x="18" y="30" width="1" height="1" fill="#2f2f2e"/>
<rect x="19" y="30" width="1" height="1" fill="#e0e0e0"/>
<rect x="20" y="30" width="1" height="1" fill="#2f2f2e"/>
<rect x="41" y="30" width="1" height="1" fill="#2f2f2e"/>
<rect x="42" y="30" width="2" height="1" fill="#b5b5b5"/>
<rect x="44" y="30" width="1" height="1" fill="#2f2f2e"/>
<rect x="137" y="30" width="2" height="1" fill="#2f2f2e"/>
<rect x="143" y="30" width="1" height="1" fill="#2f2f2e"/>
<rect x="144" y="30" width="1" height="1" fill="#e0e0e0"/>
<rect x="145" y="30" width="3" height="1" fill="#2f2f2e"/>
<rect x="148" y="30" width="1" height="1" fill="#e0e0e0"/>
<rect x="149" y="30" width="1" height="1" fill="#2f2f2e"/>
<rect x="170" y="30" width="1" height="1" fill="#2f2f2e"/>
<rect x="171" y="30" width="1" height="1" fill="#e0e0e0"/>
<rect x="172" y="30" width="1" height="1" fill="#2f2f2e"/>
<rect x="173" y="30" width="3" height="1" fill="#e0e0e0"/>
<rect x="176" y="30" width="1" height="1" fill="#2f2f2e"/>
<rect x="177" y="30" width="1" height="1" fill="#e0e0e0"/>
<rect x="178" y="30" width="1" height="1" fill="#b5b5b5"/>
<rect x="179" y="30" width="1" height="1" fill="#e0e0e0"/>
<rect x="180" y="30" width="1" height="1" fill="#2f2f2e"/>
<rect x="202" y="30" width="1" height="1" fill="#2f2f2e"/>
<rect x="203" y="30" width="1" height="1" fill="#b5b5b5"/>
<rect x="204" y="30" width="5" height="1" fill="#2f2f2e"/>
<rect x="209" y="30" width="1" height="1" fill="#e0e0e0"/>
<rect x="210" y="30" width="1" height="1" fill="#2f2f2e"/>
<rect x="211" y="30" width="1" height="1" fill="#e0e0e0"/>
<rect x="212" y="30" width="1" height="1" fill="#2f2f2e"/>
<rect x="9" y="31" width="12" height="1" fill="#2f2f2e"/>
<rect x="42" y="31" width="2" height="1" fill="#2f2f2e"/>
<rect x="143" y="31" width="2" height="1" fill="#2f2f2e"/>
<rect x="147" y="31" width="3" height="1" fill="#2f2f2e"/>
<rect x="170" y="31" width="11" height="1" fill="#2f2f2e"/>
<rect x="202" y="31" width="2" height="1" fill="#2f2f2e"/>
<rect x="205" y="31" width="2" height="1" fill="#2f2f2e"/>
<rect x="208" y="31" width="2" height="1" fill="#2f2f2e"/>
<rect x="211" y="31" width="2" height="1" fill="#2f2f2e"/>
</svg>
