<?xml version="1.0" encoding="UTF-8"?>
<svg xmlns="http://www.w3.org/2000/svg" viewBox="0 0 256 32" shape-rendering="crispEdges">
<rect x="16" y="24" width="2" height="1" fill="#2f2f2e"/>
<rect x="21" y="24" width="2" height="1" fill="#2f2f2e"/>
<rect x="48" y="24" width="2" height="1" fill="#2f2f2e"/>
<rect x="53" y="24" width="2" height="1" fill="#2f2f2e"/>
<rect x="80" y="24" width="2" height="1" fill="#2f2f2e"/>
<rect x="85" y="24" width="2" height="1" fill="#2f2f2e"/>
<rect x="112" y="24" width="2" height="1" fill="#2f2f2e"/>
<rect x="117" y="24" width="2" height="1" fill="#2f2f2e"/>
<rect x="16" y="25" width="1" height="1" fill="#2f2f2e"/>
<rect x="17" y="25" width="1" height="1" fill="#b5b5b5"/>
<rect x="18" y="25" width="3" height="1" fill="#2f2f2e"/>
<rect x="21" y="25" width="1" height="1" fill="#b5b5b5"/>
<rect x="22" y="25" width="1" height="1" fill="#2f2f2e"/>
<rect x="48" y="25" width="1" height="1" fill="#2f2f2e"/>
<rect x="49" y="25" width="1" height="1" fill="#b5b5b5"/>
<rect x="50" y="25" width="3" height="1" fill="#2f2f2e"/>
<rect x="53" y="25" width="1" height="1" fill="#b5b5b5"/>
<rect x="54" y="25" width="1" height="1" fill="#2f2f2e"/>
<rect x="80" y="25" width="1" height="1" fill="#2f2f2e"/>
<rect x="81" y="25" width="1" height="1" fill="#b5b5b5"/>
<rect x="82" y="25" width="3" height="1" fill="#2f2f2e"/>
<rect x="85" y="25" width="1" height="1" fill="#b5b5b5"/>
<rect x="86" y="25" width="1" height="1" fill="#2f2f2e"/>
<rect x="112" y="25" width="1" height="1" fill="#2f2f2e"/>
<rect x="113" y="25" width="1" height="1" fill="#b5b5b5"/>
<rect x="114" y="25" width="3" height="1" fill="#2f2f2e"/>
<rect x="117" y="25" width="1" height="1" fill="#b5b5b5"/>
<rect x="118" y="25" width="1" height="1" fill="#2f2f2e"/>
<rect x="14" y="26" width="3" height="1" fill="#2f2f2e"/>
<rect x="17" y="26" width="5" height="1" fill="#e0e0e0"/>
<rect x="22" y="26" width="1" height="1" fill="#2f2f2e"/>
<rect x="45" y="26" width="4" height="1" fill="#2f2f2e"/>
<rect x="49" y="26" width="5" height="1" fill="#e0e0e0"/>
<rect x="54" y="26" width="1" height="1" fill="#2f2f2e"/>
<rect x="76" y="26" width="5" height="1" fill="#2f2f2e"/>
<rect x="81" y="26" width="5" height="1" fill="#e0e0e0"/>
<rect x="86" y="26" width="1" height="1" fill="#2f2f2e"/>
<rect x="109" y="26" width="4" height="1" fill="#2f2f2e"/>
<rect x="113" y="26" width="5" height="1" fill="#e0e0e0"/>
<rect x="118" y="26" width="1" height="1" fill="#2f2f2e"/>
<rect x="12" y="27" width="2" height="1" fill="#2f2f2e"/>
<rect x="14" y="27" width="2" height="1" fill="#e0e0e0"/>
<rect x="16" y="27" width="3" height="1" fill="#2f2f2e"/>
<rect x="19" y="27" width="1" height="1" fill="#b5b5b5"/>
<rect x="20" y="27" width="3" height="1" fill="#2f2f2e"/>
<rect x="43" y="27" width="2" height="1" fill="#2f2f2e"/>
<rect x="45" y="27" width="3" height="1" fill="#e0e0e0"/>
<rect x="48" y="27" width="3" height="1" fill="#2f2f2e"/>
<rect x="51" y="27" width="1" height="1" fill="#b5b5b5"/>
<rect x="52" y="27" width="3" height="1" fill="#2f2f2e"/>
<rect x="75" y="27" width="1" height="1" fill="#2f2f2e"/>
<rect x="76" y="27" width="4" height="1" fill="#e0e0e0"/>
<rect x="80" y="27" width="3" height="1" fill="#2f2f2e"/>
<rect x="83" y="27" width="1" height="1" fill="#b5b5b5"/>
<rect x="84" y="27" width="3" height="1" fill="#2f2f2e"/>
<rect x="107" y="27" width="2" height="1" fill="#2f2f2e"/>
<rect x="109" y="27" width="3" height="1" fill="#e0e0e0"/>
<rect x="112" y="27" width="3" height="1" fill="#2f2f2e"/>
<rect x="115" y="27" width="1" height="1" fill="#b5b5b5"/>
<rect x="116" y="27" width="3" height="1" fill="#2f2f2e"/>
<rect x="11" y="28" width="1" height="1" fill="#2f2f2e"/>
<rect x="12" y="28" width="4" height="1" fill="#e0e0e0"/>
<rect x="16" y="28" width="1" height="1" fill="#2f2f2e"/>
<rect x="17" y="28" width="5" height="1" fill="#e0e0e0"/>
<rect x="22" y="28" width="1" height="1" fill="#2f2f2e"/>
<rect x="42" y="28" width="1" height="1" fill="#2f2f2e"/>
<rect x="43" y="28" width="5" height="1" fill="#e0e0e0"/>
<rect x="48" y="28" width="1" height="1" fill="#2f2f2e"/>
<rect x="49" y="28" width="5" height="1" fill="#e0e0e0"/>
<rect x="54" y="28" width="1" height="1" fill="#2f2f2e"/>
<rect x="74" y="28" width="1" height="1" fill="#2f2f2e"/>
<rect x="75" y="28" width="5" height="1" fill="#e0e0e0"/>
<rect x="80" y="28" width="1" height="1" fill="#2f2f2e"/>
<rect x="81" y="28" width="5" height="1" fill="#e0e0e0"/>
<rect x="86" y="28" width="1" height="1" fill="#2f2f2e"/>
<rect x="106" y="28" width="1" height="1" fill="#2f2f2e"/>
<rect x="107" y="28" width="5" height="1" fill="#e0e0e0"/>
<rect x="112" y="28" width="1" height="1" fill="#2f2f2e"/>
<rect x="113" y="28" width="5" height="1" fill="#e0e0e0"/>
<rect x="118" y="28" width="1" height="1" fill="#2f2f2e"/>
<rect x="9" y="29" width="4" height="1" fill="#2f2f2e"/>
<rect x="13" y="29" width="3" height="1" fill="#e0e0e0"/>
<rect x="16" y="29" width="4" height="1" fill="#2f2f2e"/>
<rect x="20" y="29" width="1" height="1" fill="#b5b5b5"/>
<rect x="21" y="29" width="2" height="1" fill="#2f2f2e"/>
<rect x="41" y="29" width="4" height="1" fill="#2f2f2e"/>
<rect x="45" y="29" width="3" height="1" fill="#e0e0e0"/>
<rect x="48" y="29" width="4" height="1" fill="#2f2f2e"/>
<rect x="52" y="29" width="1" height="1" fill="#b5b5b5"/>
<rect x="53" y="29" width="2" height="1" fill="#2f2f2e"/>
<rect x="73" y="29" width="4" height="1" fill="#2f2f2e"/>
<rect x="77" y="29" width="3" height="1" fill="#e0e0e0"/>
<rect x="80" y="29" width="4" height="1" fill="#2f2f2e"/>
<rect x="84" y="29" width="1" height="1" fill="#b5b5b5"/>
<rect x="85" y="29" width="2" height="1" fill="#2f2f2e"/>
<rect x="105" y="29" width="4" height="1" fill="#2f2f2e"/>
<rect x="109" y="29" width="3" height="1" fill="#e0e0e0"/>
<rect x="112" y="29" width="4" height="1" fill="#2f2f2e"/>
<rect x="116" y="29" width="1" height="1" fill="#b5b5b5"/>
<rect x="117" y="29" width="2" height="1" fill="#2f2f2e"/>
<rect x="8" y="30" width="1" height="1" fill="#2f2f2e"/>
<rect x="9" y="30" width="3" height="1" fill="#e0e0e0"/>
<rect x="12" y="30" width="1" height="1" fill="#b5b5b5"/>
<rect x="13" y="30" width="1" height="1" fill="#2f2f2e"/>
<rect x="14" y="30" width="1" height="1" fill="#e0e0e0"/>
<rect x="15" y="30" width="1" height="1" fill="#2f2f2e"/>
<rect x="16" y="30" width="1" height="1" fill="#b5b5b5"/>
<rect x="17" y="30" width="3" height="1" fill="#e0e0e0"/>
<rect x="20" y="30" width="1" height="1" fill="#2f2f2e"/>
<rect x="21" y="30" width="2" height="1" fill="#e0e0e0"/>
<rect x="23" y="30" width="1" height="1" fill="#2f2f2e"/>
<rect x="40" y="30" width="1" height="1" fill="#2f2f2e"/>
<rect x="41" y="30" width="3" height="1" fill="#e0e0e0"/>
<rect x="44" y="30" width="1" height="1" fill="#b5b5b5"/>
<rect x="45" y="30" width="1" height="1" fill="#2f2f2e"/>
<rect x="46" y="30" width="1" height="1" fill="#e0e0e0"/>
<rect x="47" y="30" width="1" height="1" fill="#2f2f2e"/>
<rect x="48" y="30" width="1" height="1" fill="#b5b5b5"/>
<rect x="49" y="30" width="3" height="1" fill="#e0e0e0"/>
<rect x="52" y="30" width="1" height="1" fill="#2f2f2e"/>
<rect x="53" y="30" width="2" height="1" fill="#e0e0e0"/>
<rect x="55" y="30" width="1" height="1" fill="#2f2f2e"/>
<rect x="72" y="30" width="1" height="1" fill="#2f2f2e"/>
<rect x="73" y="30" width="3" height="1" fill="#e0e0e0"/>
<rect x="76" y="30" width="1" height="1" fill="#b5b5b5"/>
<rect x="77" y="30" width="1" height="1" fill="#2f2f2e"/>
<rect x="78" y="30" width="1" height="1" fill="#e0e0e0"/>
<rect x="79" y="30" width="1" height="1" fill="#2f2f2e"/>
<rect x="80" y="30" width="1" height="1" fill="#b5b5b5"/>
<rect x="81" y="30" width="3" height="1" fill="#e0e0e0"/>
<rect x="84" y="30" width="1" height="1" fill="#2f2f2e"/>
<rect x="85" y="30" width="2" height="1" fill="#e0e0e0"/>
<rect x="87" y="30" width="1" height="1" fill="#2f2f2e"/>
<rect x="104" y="30" width="1" height="1" fill="#2f2f2e"/>
<rect x="105" y="30" width="3" height="1" fill="#e0e0e0"/>
<rect x="108" y="30" width="1" height="1" fill="#b5b5b5"/>
<rect x="109" y="30" width="1" height="1" fill="#2f2f2e"/>
<rect x="110" y="30" width="1" height="1" fill="#e0e0e0"/>
<rect x="111" y="30" width="1" height="1" fill="#2f2f2e"/>
<rect x="112" y="30" width="1" height="1" fill="#b5b5b5"/>
<rect x="113" y="30" width="3" height="1" fill="#e0e0e0"/>
<rect x="116" y="30" width="1" height="1" fill="#2f2f2e"/>
<rect x="117" y="30" width="2" height="1" fill="#e0e0e0"/>
<rect x="119" y="30" width="1" height="1" fill="#2f2f2e"/>
<rect x="8" y="31" width="16" height="1" fill="#2f2f2e"/>
<rect x="40" y="31" width="16" height="1" fill="#2f2f2e"/>
<rect x="72" y="31" width="16" height="1" fill="#2f2f2e"/>
<rect x="104" y="31" width="16" height="1" fill="#2f2f2e"/>
</svg>
