<?xml version="1.0" encoding="UTF-8"?>
<svg xmlns="http://www.w3.org/2000/svg" viewBox="0 0 32 32" width="32" height="32">
  <g transform="scale(0.125 0.125) translate(0.000000,256.000000) scale(1.000000,-1.000000)" fill="#000000" stroke="none"><path d="M110 98 l-6 -6 0 -8 c0 -11 -1 -12 -12 -12 l-8 0 -4 4 -4 4 -6 -6
c-5 -5 -6 -6 -6 -10 0 -4 0 -5 8 -12 8 -8 8 -8 7 -10 -2 -1 -4 -2 -7 -2 -4 0
-5 0 -8 -4 l-3 -4 -9 0 -8 0 -6 -6 c-6 -5 -6 -6 -6 -10 0 -8 1 -8 20 -8 l17 0
3 4 c3 4 4 4 8 4 6 0 8 -2 8 -10 l0 -6 12 0 12 0 0 6 c0 8 2 10 8 10 4 0 5 0
14 10 l10 10 0 12 0 13 -4 3 c-4 3 -4 4 -4 8 0 4 0 5 4 8 4 3 4 4 4 8 0 4 0 5
-6 10 l-6 6 -8 0 -8 0 -6 -6z"/><path d="M41 86 c-1 -2 -1 -2 1 -4 l2 -2 2 2 c2 2 2 2 1 4 -1 1 -3 2 -3 2 0 0
-2 -1 -3 -2z"/><path d="M49 70 c-1 -2 -1 -2 1 -4 l2 -2 2 2 c2 2 2 2 1 4 -1 1 -3 2 -3 2 0 0
-2 -1 -3 -2z"/><path d="M33 62 c-1 -2 -1 -2 1 -4 l2 -2 2 2 c2 2 2 2 1 4 -1 1 -3 2 -3 2 0 0
-2 -1 -3 -2z"/></g>
  <g transform="scale(0.125 0.125) translate(0.000000,256.000000) scale(1.000000,-1.000000)" fill="#566a89" stroke="none"><path d="M114 94 c-2 -1 -2 -4 -2 -10 l0 -9 -4 -3 c-4 -3 -4 -4 -4 -8 0 -4 0
-5 -6 -10 -9 -9 -10 -9 -10 4 0 12 -1 14 -8 14 -4 0 -5 -1 -10 -6 l-6 -6 6 -6
6 -6 6 0 c8 0 8 -2 0 -10 -5 -6 -6 -6 -10 -6 -4 0 -5 0 -8 -4 l-3 -4 -9 0 c-7
0 -9 0 -10 -2 -2 -2 -2 -2 -1 -4 2 -2 4 -2 15 -2 l13 0 3 4 c3 4 4 4 8 4 4 0
5 0 10 -6 l6 -6 0 -6 0 -6 4 0 4 0 0 6 0 6 6 6 c5 5 6 6 10 6 4 0 5 1 10 6 l6
6 0 12 0 13 -4 3 c-4 3 -4 4 -4 8 0 4 0 5 4 8 4 3 4 4 4 8 0 7 -2 8 -12 8 -7
0 -9 0 -10 -2z"/></g>
  <g transform="scale(0.125 0.125) translate(0.000000,256.000000) scale(1.000000,-1.000000)" fill="#158968" stroke="none"><path d="M114 94 c-2 -1 -2 -4 -2 -10 l0 -9 -4 -3 c-4 -3 -4 -4 -4 -8 0 -6 2
-8 8 -8 4 0 5 -1 10 -6 l6 -6 0 -6 0 -6 -6 0 c-6 0 -7 0 -10 4 l-4 5 -4 -5
c-4 -5 -8 -6 -8 -2 0 2 -1 4 -2 5 -2 1 -2 1 -4 -1 -2 -2 -2 -2 -1 -4 1 -1 3
-2 5 -2 1 0 2 -1 2 -2 0 -5 3 -6 16 -6 14 0 16 1 16 6 0 1 1 2 2 2 5 0 6 3 6
16 l0 13 -4 3 c-4 3 -4 4 -4 8 0 4 0 5 4 8 4 3 4 4 4 8 0 7 -2 8 -12 8 -7 0
-9 0 -10 -2z"/><path d="M70 66 l-6 -6 6 -6 c5 -6 6 -6 10 -6 7 0 8 2 8 12 0 10 -1 12 -8 12
-4 0 -5 -1 -10 -6z"/><path d="M64 28 l-3 -4 -9 0 c-7 0 -9 0 -10 -2 -2 -2 -2 -2 0 -4 1 -2 3 -2 14
-2 l12 0 6 6 c6 6 6 6 4 8 -1 1 -3 2 -6 2 -4 0 -5 0 -8 -4z"/><path d="M98 14 c-2 -1 -2 -3 -2 -8 l0 -6 4 0 4 0 0 6 c0 5 0 7 -2 8 -2 2 -2
2 -4 0z"/></g>
  <g transform="scale(0.125 0.125) translate(0.000000,256.000000) scale(1.000000,-1.000000)" fill="#37446e" stroke="none"><path d="M114 94 c-2 -1 -2 -4 -2 -12 0 -10 0 -10 -2 -10 -6 0 -8 -10 -4 -14
3 -4 6 0 6 8 0 6 0 6 2 6 2 0 4 1 6 4 3 4 4 4 8 4 6 0 8 2 8 8 0 7 -2 8 -12 8
-7 0 -9 0 -10 -2z"/><path d="M130 46 c-2 -1 -2 -3 -2 -8 l0 -6 -6 0 c-6 0 -7 0 -10 4 l-4 5 -4 -5
c-4 -5 -8 -6 -8 -2 0 2 -1 4 -2 5 -2 1 -2 1 -4 -1 -2 -2 -2 -2 -1 -4 1 -1 3
-2 5 -2 1 0 2 -1 2 -2 0 -5 3 -6 16 -6 14 0 16 1 16 6 0 1 1 2 2 2 6 0 8 10 4
14 -2 2 -2 2 -4 0z"/><path d="M64 28 l-3 -4 -9 0 c-7 0 -9 0 -10 -2 -2 -2 -2 -2 0 -4 1 -2 3 -2 14
-2 l12 0 6 6 c6 6 6 6 4 8 -1 1 -3 2 -6 2 -4 0 -5 0 -8 -4z"/><path d="M98 14 c-2 -1 -2 -3 -2 -8 l0 -6 4 0 4 0 0 6 c0 5 0 7 -2 8 -2 2 -2
2 -4 0z"/></g>
  <g transform="scale(0.125 0.125) translate(0.000000,256.000000) scale(1.000000,-1.000000)" fill="#222a5c" stroke="none"><path d="M90 38 c-2 -2 -2 -2 0 -4 0 -1 2 -2 4 -2 1 0 2 -1 2 -2 0 -5 3 -6 12
-6 7 0 9 0 10 2 2 2 2 2 -4 8 l-6 6 -4 -4 c-4 -5 -8 -6 -8 -2 0 2 -3 6 -4 6 0
0 -2 -1 -2 -2z"/><path d="M64 28 l-3 -4 -9 0 c-7 0 -9 0 -10 -2 -2 -2 -2 -2 0 -4 1 -2 3 -2 14
-2 l12 0 6 6 c6 6 6 6 4 8 -1 1 -3 2 -6 2 -4 0 -5 0 -8 -4z"/><path d="M98 14 c-2 -1 -2 -3 -2 -8 l0 -6 4 0 4 0 0 6 c0 5 0 7 -2 8 -2 2 -2
2 -4 0z"/></g>
  <g transform="scale(0.125 0.125) translate(0.000000,256.000000) scale(1.000000,-1.000000)" fill="#ab1f65" stroke="none"><path d="M98 14 c-2 -1 -2 -3 -2 -8 l0 -6 4 0 4 0 0 6 c0 5 0 7 -2 8 -2 2 -2
2 -4 0z"/></g>
</svg>
