<?xml version="1.0" encoding="UTF-8"?>
<svg xmlns="http://www.w3.org/2000/svg" viewBox="0 0 32 32" shape-rendering="crispEdges">
<rect x="13" y="20" width="4" height="1" fill="#000000"/>
<rect x="11" y="21" width="2" height="1" fill="#000000"/>
<rect x="13" y="21" width="2" height="1" fill="#566a89"/>
<rect x="15" y="21" width="2" height="1" fill="#37446e"/>
<rect x="17" y="21" width="5" height="1" fill="#000000"/>
<rect x="10" y="22" width="1" height="1" fill="#000000"/>
<rect x="11" y="22" width="5" height="1" fill="#566a89"/>
<rect x="16" y="22" width="1" height="1" fill="#37446e"/>
<rect x="17" y="22" width="2" height="1" fill="#158968"/>
<rect x="19" y="22" width="3" height="1" fill="#37446e"/>
<rect x="22" y="22" width="1" height="1" fill="#000000"/>
<rect x="8" y="23" width="2" height="1" fill="#000000"/>
<rect x="10" y="23" width="6" height="1" fill="#566a89"/>
<rect x="16" y="23" width="3" height="1" fill="#158968"/>
<rect x="19" y="23" width="3" height="1" fill="#37446e"/>
<rect x="22" y="23" width="1" height="1" fill="#000000"/>
<rect x="5" y="24" width="3" height="1" fill="#000000"/>
<rect x="8" y="24" width="2" height="1" fill="#222a5c"/>
<rect x="10" y="24" width="5" height="1" fill="#566a89"/>
<rect x="15" y="24" width="1" height="1" fill="#37446e"/>
<rect x="16" y="24" width="6" height="1" fill="#000000"/>
<rect x="4" y="25" width="1" height="1" fill="#000000"/>
<rect x="5" y="25" width="4" height="1" fill="#222a5c"/>
<rect x="9" y="25" width="2" height="1" fill="#000000"/>
<rect x="11" y="25" width="4" height="1" fill="#566a89"/>
<rect x="15" y="25" width="1" height="1" fill="#000000"/>
<rect x="4" y="26" width="6" height="1" fill="#000000"/>
<rect x="10" y="26" width="5" height="1" fill="#566a89"/>
<rect x="15" y="26" width="1" height="1" fill="#000000"/>
<rect x="9" y="27" width="1" height="1" fill="#000000"/>
<rect x="10" y="27" width="1" height="1" fill="#566a89"/>
<rect x="11" y="27" width="1" height="1" fill="#222a5c"/>
<rect x="12" y="27" width="2" height="1" fill="#566a89"/>
<rect x="14" y="27" width="1" height="1" fill="#222a5c"/>
<rect x="15" y="27" width="1" height="1" fill="#000000"/>
<rect x="9" y="28" width="3" height="1" fill="#000000"/>
<rect x="12" y="28" width="1" height="1" fill="#566a89"/>
<rect x="13" y="28" width="1" height="1" fill="#222a5c"/>
<rect x="14" y="28" width="1" height="1" fill="#000000"/>
<rect x="11" y="29" width="1" height="1" fill="#000000"/>
<rect x="12" y="29" width="2" height="1" fill="#222a5c"/>
<rect x="14" y="29" width="1" height="1" fill="#000000"/>
<rect x="12" y="30" width="3" height="1" fill="#000000"/>
</svg>
