<?xml version="1.0" encoding="UTF-8"?>
<svg xmlns="http://www.w3.org/2000/svg" viewBox="0 0 32 32" shape-rendering="crispEdges">
<rect x="19" y="22" width="3" height="1" fill="#000000"/>
<rect x="8" y="23" width="11" height="1" fill="#000000"/>
<rect x="19" y="23" width="3" height="1" fill="#37446e"/>
<rect x="22" y="23" width="1" height="1" fill="#000000"/>
<rect x="8" y="24" width="1" height="1" fill="#000000"/>
<rect x="9" y="24" width="2" height="1" fill="#222a5c"/>
<rect x="11" y="24" width="5" height="1" fill="#566a89"/>
<rect x="16" y="24" width="6" height="1" fill="#37446e"/>
<rect x="22" y="24" width="1" height="1" fill="#000000"/>
<rect x="5" y="25" width="2" height="1" fill="#000000"/>
<rect x="8" y="25" width="1" height="1" fill="#000000"/>
<rect x="9" y="25" width="1" height="1" fill="#222a5c"/>
<rect x="10" y="25" width="6" height="1" fill="#566a89"/>
<rect x="16" y="25" width="1" height="1" fill="#37446e"/>
<rect x="17" y="25" width="3" height="1" fill="#158968"/>
<rect x="20" y="25" width="2" height="1" fill="#000000"/>
<rect x="4" y="26" width="1" height="1" fill="#000000"/>
<rect x="5" y="26" width="2" height="1" fill="#222a5c"/>
<rect x="7" y="26" width="3" height="1" fill="#000000"/>
<rect x="10" y="26" width="1" height="1" fill="#566a89"/>
<rect x="11" y="26" width="1" height="1" fill="#222a5c"/>
<rect x="12" y="26" width="4" height="1" fill="#566a89"/>
<rect x="16" y="26" width="2" height="1" fill="#158968"/>
<rect x="18" y="26" width="2" height="1" fill="#000000"/>
<rect x="4" y="27" width="3" height="1" fill="#000000"/>
<rect x="7" y="27" width="3" height="1" fill="#222a5c"/>
<rect x="10" y="27" width="5" height="1" fill="#566a89"/>
<rect x="15" y="27" width="1" height="1" fill="#37446e"/>
<rect x="16" y="27" width="2" height="1" fill="#000000"/>
<rect x="7" y="28" width="4" height="1" fill="#000000"/>
<rect x="11" y="28" width="3" height="1" fill="#566a89"/>
<rect x="14" y="28" width="2" height="1" fill="#000000"/>
<rect x="10" y="29" width="1" height="1" fill="#000000"/>
<rect x="11" y="29" width="1" height="1" fill="#ab1f65"/>
<rect x="12" y="29" width="2" height="1" fill="#000000"/>
<rect x="9" y="30" width="1" height="1" fill="#000000"/>
<rect x="10" y="30" width="1" height="1" fill="#ab1f65"/>
<rect x="11" y="30" width="1" height="1" fill="#000000"/>
<rect x="9" y="31" width="2" height="1" fill="#000000"/>
</svg>
