<?xml version="1.0" encoding="UTF-8"?>
<svg xmlns="http://www.w3.org/2000/svg" viewBox="0 0 32 32" width="32" height="32">
  <g transform="scale(0.125 0.125) translate(0.000000,256.000000) scale(1.000000,-1.000000)" fill="#000000" stroke="none"><path d="M152 76 l-3 -4 -41 0 c-48 0 -44 1 -44 -12 0 -8 0 -9 -2 -11 -2 -1
-2 -1 -6 3 -3 4 -4 4 -8 4 -6 0 -16 -10 -16 -16 0 -7 2 -8 12 -8 l9 0 3 -4 3
-4 9 0 c8 0 9 0 11 -2 1 -2 1 -2 -3 -6 -4 -3 -4 -4 -4 -10 l0 -6 8 0 c7 0 8 0
8 2 0 1 2 5 6 8 5 6 6 6 10 6 4 0 5 0 8 4 3 4 4 4 8 4 4 0 5 0 8 4 3 4 4 4 8
4 4 0 5 0 8 4 3 4 4 4 8 4 4 0 5 0 8 4 3 4 4 4 8 4 6 0 16 10 16 16 0 4 -1 5
-6 10 l-6 6 -8 0 -9 0 -3 -4z"/></g>
  <g transform="scale(0.125 0.125) translate(0.000000,256.000000) scale(1.000000,-1.000000)" fill="#566a89" stroke="none"><path d="M152 68 l-3 -4 -37 0 c-42 0 -40 0 -40 -8 0 -4 0 -5 4 -8 4 -4 4 -4
3 -6 -2 -2 -3 -2 -13 -2 -10 0 -10 0 -10 2 0 6 -10 8 -14 4 -4 -3 0 -6 8 -6 6
0 6 0 6 -2 0 -5 3 -6 16 -6 15 0 16 0 16 -10 0 -6 0 -6 -2 -6 -2 0 -4 -1 -5
-2 -1 -2 -1 -2 1 -4 2 -2 2 -2 4 -1 1 1 2 3 2 5 0 1 1 2 2 2 2 0 4 1 6 4 3 4
4 4 8 4 4 0 5 0 8 4 3 4 4 4 8 4 4 0 5 0 8 4 3 4 4 4 8 4 4 0 5 0 8 4 3 4 4 4
8 4 4 0 5 0 8 4 3 4 4 4 8 4 6 0 8 2 8 8 0 7 -2 8 -12 8 l-9 0 -3 -4z"/></g>
  <g transform="scale(0.125 0.125) translate(0.000000,256.000000) scale(1.000000,-1.000000)" fill="#37446e" stroke="none"><path d="M152 68 l-3 -4 -9 0 c-12 0 -12 0 -12 -14 0 -10 0 -10 -2 -10 -2 0
-4 -1 -5 -2 -1 -2 -1 -2 1 -4 2 -2 2 -2 4 -1 1 1 2 3 2 5 0 2 0 2 6 2 7 0 7 0
10 4 3 4 4 4 8 4 4 0 5 0 8 4 3 4 4 4 8 4 6 0 8 2 8 8 0 7 -2 8 -12 8 l-9 0
-3 -4z"/><path d="M74 62 c-3 -2 -3 -10 0 -12 2 -2 2 -2 8 4 6 6 6 6 4 8 -2 3 -10 3
-12 0z"/><path d="M42 46 c-4 -3 0 -6 8 -6 6 0 6 0 6 -2 0 -5 3 -6 12 -6 7 0 9 0 11 2
1 2 1 2 0 4 -2 2 -4 2 -13 2 -10 0 -10 0 -10 2 0 6 -10 8 -14 4z"/><path d="M89 46 c-1 -2 -1 -2 1 -4 l2 -2 2 2 c2 2 2 2 1 4 -1 1 -3 2 -3 2 0 0
-2 -1 -3 -2z"/><path d="M90 22 c-1 -1 -2 -3 -2 -4 0 -1 -1 -2 -2 -2 -2 0 -4 -1 -5 -2 -1 -2
-1 -2 1 -4 2 -2 2 -2 4 -1 1 1 2 3 2 5 0 1 1 2 2 2 2 0 4 1 5 2 1 2 1 2 0 4
-3 2 -3 2 -5 0z"/></g>
  <g transform="scale(0.125 0.125) translate(0.000000,256.000000) scale(1.000000,-1.000000)" fill="#222a5c" stroke="none"><path d="M74 62 c-3 -2 -3 -10 0 -12 2 -2 2 -2 8 4 6 6 6 6 4 8 -2 3 -10 3
-12 0z"/><path d="M134 50 c-6 -6 -6 -6 -4 -8 1 -1 3 -2 6 -2 4 0 5 0 8 4 3 4 4 4 8 4
6 0 9 3 7 6 -2 2 -4 2 -11 2 l-8 0 -6 -6z"/><path d="M42 46 c-4 -3 0 -6 8 -6 6 0 6 0 6 -2 0 -5 3 -6 12 -6 7 0 9 0 11 2
1 2 1 2 0 4 -2 2 -4 2 -13 2 -10 0 -10 0 -10 2 0 6 -10 8 -14 4z"/><path d="M89 46 c-1 -2 -1 -2 1 -4 l2 -2 2 2 c2 2 2 2 1 4 -1 1 -3 2 -3 2 0 0
-2 -1 -3 -2z"/><path d="M90 22 c-1 -1 -2 -3 -2 -4 0 -1 -1 -2 -2 -2 -2 0 -4 -1 -5 -2 -1 -2
-1 -2 1 -4 2 -2 2 -2 4 -1 1 1 2 3 2 5 0 1 1 2 2 2 2 0 4 1 5 2 1 2 1 2 0 4
-3 2 -3 2 -5 0z"/></g>
  <g transform="scale(0.125 0.125) translate(0.000000,256.000000) scale(1.000000,-1.000000)" fill="#158968" stroke="none"><path d="M134 50 c-6 -6 -6 -6 -4 -8 1 -1 3 -2 6 -2 4 0 5 0 8 4 3 4 4 4 8 4
6 0 9 3 7 6 -2 2 -4 2 -11 2 l-8 0 -6 -6z"/><path d="M90 22 c-1 -1 -2 -3 -2 -4 0 -1 -1 -2 -2 -2 -2 0 -4 -1 -5 -2 -1 -2
-1 -2 1 -4 2 -2 2 -2 4 -1 1 1 2 3 2 5 0 1 1 2 2 2 2 0 4 1 5 2 1 2 1 2 0 4
-3 2 -3 2 -5 0z"/></g>
  <g transform="scale(0.125 0.125) translate(0.000000,256.000000) scale(1.000000,-1.000000)" fill="#ab1f65" stroke="none"><path d="M90 22 c-1 -1 -2 -3 -2 -4 0 -1 -1 -2 -2 -2 -2 0 -4 -1 -5 -2 -1 -2
-1 -2 1 -4 2 -2 2 -2 4 -1 1 1 2 3 2 5 0 1 1 2 2 2 2 0 4 1 5 2 1 2 1 2 0 4
-3 2 -3 2 -5 0z"/></g>
</svg>
