<?xml version="1.0" encoding="UTF-8"?>
<svg xmlns="http://www.w3.org/2000/svg" viewBox="0 0 32 32" width="32" height="32">
  <g transform="scale(0.125 0.125) translate(0.000000,256.000000) scale(1.000000,-1.000000)" fill="#000000" stroke="none"><path d="M104 92 c-3 -4 -4 -4 -8 -4 -4 0 -5 0 -12 -8 -7 -8 -8 -8 -12 -8 -4
0 -5 0 -8 -4 l-3 -4 -9 0 -8 0 -6 -6 c-6 -5 -6 -6 -6 -10 0 -8 1 -8 20 -8 19
0 20 0 20 -8 0 -6 2 -8 8 -8 4 0 5 0 12 -8 l8 -8 8 0 c11 0 12 1 12 12 l0 9 4
3 4 3 0 9 c0 12 -1 12 24 12 l20 0 6 6 c8 8 8 12 0 20 l-6 6 -16 0 -17 0 -3 4
-3 4 -13 0 -13 0 -3 -4z"/></g>
  <g transform="scale(0.125 0.125) translate(0.000000,256.000000) scale(1.000000,-1.000000)" fill="#566a89" stroke="none"><path d="M104 84 c-3 -4 -4 -4 -8 -4 -4 0 -5 0 -12 -8 -7 -8 -8 -8 -12 -8 -4
0 -5 0 -8 -4 l-3 -4 -9 0 c-7 0 -9 0 -10 -2 -2 -2 -2 -2 0 -4 1 -2 3 -2 14 -2
l13 0 3 4 c3 4 4 4 8 4 3 0 5 -1 7 -2 1 -2 1 -2 -3 -6 -4 -3 -4 -4 -4 -8 0 -6
2 -8 8 -8 6 0 8 -2 8 -8 0 -6 2 -8 8 -8 6 0 8 2 8 8 0 4 0 5 4 8 l4 3 0 9 0 8
6 6 6 6 20 0 c24 0 24 0 24 8 0 8 -1 8 -20 8 l-17 0 -3 4 -3 4 -13 0 -13 0 -3
-4z"/></g>
  <g transform="scale(0.125 0.125) translate(0.000000,256.000000) scale(1.000000,-1.000000)" fill="#222a5c" stroke="none"><path d="M121 86 c-1 -2 -1 -2 3 -6 4 -3 4 -4 4 -10 0 -6 0 -6 -2 -6 -2 0 -4
-1 -5 -2 -1 -2 -1 -2 1 -4 2 -2 2 -2 4 -1 1 1 2 3 2 5 l0 2 22 0 c26 0 26 0
26 8 0 8 -1 8 -20 8 l-17 0 -3 4 c-3 4 -4 4 -8 4 -3 0 -5 -1 -7 -2z"/><path d="M64 60 l-3 -4 -9 0 c-7 0 -9 0 -10 -2 -2 -2 -2 -2 0 -4 1 -2 3 -2 14
-2 l12 0 6 6 c6 6 6 6 4 8 -1 1 -3 2 -6 2 -4 0 -5 0 -8 -4z"/><path d="M89 38 c-1 -2 -1 -2 1 -4 l2 -2 2 2 c2 2 2 2 1 4 -1 1 -3 2 -3 2 0 0
-2 -1 -3 -2z"/><path d="M114 38 c-1 -1 -2 -3 -2 -4 0 -1 -1 -2 -2 -2 -1 0 -5 -3 -8 -6 -6 -6
-6 -6 -4 -8 1 -1 3 -2 6 -2 6 0 8 2 8 10 0 6 0 6 2 6 2 0 4 1 5 2 1 2 1 2 0 4
-3 2 -3 2 -5 0z"/></g>
  <g transform="scale(0.125 0.125) translate(0.000000,256.000000) scale(1.000000,-1.000000)" fill="#37446e" stroke="none"><path d="M121 86 c-1 -2 -1 -2 3 -6 4 -3 4 -4 4 -10 0 -6 0 -6 -2 -6 -2 0 -4
-1 -5 -2 -1 -2 -1 -2 1 -4 2 -2 2 -2 4 -1 1 1 2 3 2 5 l0 2 22 0 c26 0 26 0
26 8 0 8 -1 8 -20 8 l-17 0 -3 4 c-3 4 -4 4 -8 4 -3 0 -5 -1 -7 -2z"/></g>
  <g transform="scale(0.125 0.125) translate(0.000000,256.000000) scale(1.000000,-1.000000)" fill="#158968" stroke="none"><path d="M134 74 c-6 -6 -6 -6 -4 -8 1 -2 3 -2 10 -2 10 0 12 1 12 8 0 6 -2 8
-8 8 -4 0 -5 -1 -10 -6z"/></g>
</svg>
