<?xml version="1.0" encoding="UTF-8"?>
<svg xmlns="http://www.w3.org/2000/svg" viewBox="0 0 32 32" width="32" height="32">
  <g transform="scale(0.125 0.125) translate(0.000000,256.000000) scale(1.000000,-1.000000)" fill="#000000" stroke="none"><path d="M152 100 l-3 -4 -25 0 -25 0 -3 -4 c-3 -4 -4 -4 -8 -4 -4 0 -5 0 -12
-8 -7 -8 -8 -8 -12 -8 -4 0 -5 0 -8 -4 -3 -4 -4 -4 -8 -4 -4 0 -5 0 -10 -6 -6
-5 -6 -6 -6 -10 0 -7 1 -8 16 -8 l13 0 3 4 c3 4 4 4 8 4 3 0 5 -1 7 -2 1 -2 1
-2 -3 -6 -4 -3 -4 -4 -4 -8 0 -6 2 -8 8 -8 4 0 5 0 12 8 l8 9 4 -5 4 -4 12 0
c16 0 16 0 16 12 l0 8 6 6 c5 6 6 6 10 6 4 0 5 0 8 4 3 4 4 4 8 4 6 0 16 10
16 16 0 4 -1 5 -6 10 l-6 6 -8 0 -9 0 -3 -4z"/></g>
  <g transform="scale(0.125 0.125) translate(0.000000,256.000000) scale(1.000000,-1.000000)" fill="#566a89" stroke="none"><path d="M152 92 l-3 -4 -25 0 -25 0 -3 -4 c-3 -4 -4 -4 -8 -4 -6 0 -8 -2 -8
-8 0 -7 -2 -8 -12 -8 l-9 0 -3 -4 c-3 -4 -4 -4 -8 -4 -6 0 -9 -3 -7 -6 2 -2 4
-2 11 -2 l9 0 3 4 3 4 9 0 c11 0 12 -1 12 -10 0 -6 0 -6 -2 -6 -2 0 -4 -1 -5
-2 -1 -2 -1 -2 1 -4 2 -2 2 -2 4 -1 1 1 2 3 2 5 0 1 1 2 2 2 2 0 4 2 6 4 l4 5
4 -5 4 -4 8 0 c11 0 12 1 12 12 0 10 1 12 8 12 4 0 5 0 8 4 3 4 4 4 8 4 4 0 5
0 8 4 3 4 4 4 8 4 6 0 8 2 8 8 0 7 -2 8 -12 8 l-9 0 -3 -4z"/></g>
  <g transform="scale(0.125 0.125) translate(0.000000,256.000000) scale(1.000000,-1.000000)" fill="#37446e" stroke="none"><path d="M152 92 l-3 -4 -13 0 c-12 0 -13 0 -15 -2 -1 -2 -1 -2 3 -6 4 -3 4
-4 4 -10 0 -6 0 -6 -2 -6 -2 0 -4 -1 -6 -4 -4 -5 -8 -6 -8 -2 0 2 -1 4 -2 5
-2 1 -2 1 -4 -1 -2 -2 -2 -2 -1 -4 1 -1 3 -2 5 -2 1 0 2 -1 2 -2 0 -1 3 -5 6
-8 6 -6 6 -6 8 -4 2 1 2 3 2 12 l0 10 6 0 c7 0 7 0 10 4 3 4 4 4 8 4 4 0 5 0
8 4 3 4 4 4 8 4 6 0 8 2 8 8 0 7 -2 8 -12 8 l-9 0 -3 -4z"/><path d="M56 60 c-3 -4 -4 -4 -8 -4 -6 0 -9 -3 -6 -6 1 -2 3 -2 10 -2 l9 0 3
4 c3 4 4 4 8 4 6 0 9 3 7 6 -2 2 -4 2 -11 2 l-9 0 -3 -4z"/><path d="M90 46 c-1 -1 -2 -3 -2 -4 0 -1 -1 -2 -2 -2 -2 0 -4 -1 -5 -2 -1 -2
-1 -2 1 -4 2 -2 2 -2 4 -1 1 1 2 3 2 5 0 1 1 2 2 2 2 0 4 1 5 2 1 2 1 2 0 4
-3 2 -3 2 -5 0z"/></g>
  <g transform="scale(0.125 0.125) translate(0.000000,256.000000) scale(1.000000,-1.000000)" fill="#222a5c" stroke="none"><path d="M134 74 c-6 -6 -6 -6 -4 -8 1 -1 3 -2 6 -2 4 0 5 0 8 4 3 4 4 4 8 4
6 0 9 3 7 6 -2 2 -4 2 -11 2 l-8 0 -6 -6z"/><path d="M56 60 c-3 -4 -4 -4 -8 -4 -6 0 -9 -3 -6 -6 1 -2 3 -2 10 -2 l9 0 3
4 c3 4 4 4 8 4 6 0 9 3 7 6 -2 2 -4 2 -11 2 l-9 0 -3 -4z"/><path d="M106 62 c-2 -2 -2 -2 0 -4 0 -1 2 -2 4 -2 1 0 2 -1 2 -2 0 -1 3 -5 6
-8 6 -6 6 -6 8 -4 1 1 2 3 2 6 0 6 -2 8 -10 8 -6 0 -6 0 -6 2 0 2 -3 6 -4 6 0
0 -2 -1 -2 -2z"/><path d="M90 46 c-1 -1 -2 -3 -2 -4 0 -1 -1 -2 -2 -2 -2 0 -4 -1 -5 -2 -1 -2
-1 -2 1 -4 2 -2 2 -2 4 -1 1 1 2 3 2 5 0 1 1 2 2 2 2 0 4 1 5 2 1 2 1 2 0 4
-3 2 -3 2 -5 0z"/></g>
  <g transform="scale(0.125 0.125) translate(0.000000,256.000000) scale(1.000000,-1.000000)" fill="#158968" stroke="none"><path d="M134 74 c-6 -6 -6 -6 -4 -8 1 -1 3 -2 6 -2 4 0 5 0 8 4 3 4 4 4 8 4
6 0 9 3 7 6 -2 2 -4 2 -11 2 l-8 0 -6 -6z"/><path d="M90 46 c-1 -1 -2 -3 -2 -4 0 -1 -1 -2 -2 -2 -2 0 -4 -1 -5 -2 -1 -2
-1 -2 1 -4 2 -2 2 -2 4 -1 1 1 2 3 2 5 0 1 1 2 2 2 2 0 4 1 5 2 1 2 1 2 0 4
-3 2 -3 2 -5 0z"/></g>
  <g transform="scale(0.125 0.125) translate(0.000000,256.000000) scale(1.000000,-1.000000)" fill="#ab1f65" stroke="none"><path d="M90 46 c-1 -1 -2 -3 -2 -4 0 -1 -1 -2 -2 -2 -2 0 -4 -1 -5 -2 -1 -2
-1 -2 1 -4 2 -2 2 -2 4 -1 1 1 2 3 2 5 0 1 1 2 2 2 2 0 4 1 5 2 1 2 1 2 0 4
-3 2 -3 2 -5 0z"/></g>
</svg>
