<?xml version="1.0" encoding="UTF-8"?>
<svg xmlns="http://www.w3.org/2000/svg" viewBox="0 0 32 32" width="32" height="32">
  <g transform="scale(0.125 0.125) translate(0.000000,256.000000) scale(1.000000,-1.000000)" fill="#000000" stroke="none"><path d="M104 100 c-3 -4 -4 -4 -8 -4 -4 0 -5 0 -12 -8 -7 -8 -8 -8 -12 -8 -4
0 -5 0 -8 -4 l-3 -4 -9 0 -8 0 -6 -6 c-6 -5 -6 -6 -6 -10 0 -8 1 -8 20 -8 19
0 20 0 20 -8 0 -7 2 -8 12 -8 l9 0 3 -4 c3 -4 4 -4 8 -4 4 0 5 0 8 -4 l3 -4 9
0 c12 0 12 0 12 16 l0 13 -4 3 c-4 3 -4 4 -4 8 0 6 2 8 8 8 4 0 5 0 8 4 l3 4
13 0 12 0 6 6 c8 8 8 12 0 20 l-6 6 -32 0 -33 0 -3 -4z"/></g>
  <g transform="scale(0.125 0.125) translate(0.000000,256.000000) scale(1.000000,-1.000000)" fill="#566a89" stroke="none"><path d="M104 92 c-3 -4 -4 -4 -8 -4 -4 0 -5 0 -12 -8 -7 -8 -8 -8 -12 -8 -4
0 -5 0 -8 -4 l-3 -4 -9 0 c-7 0 -9 0 -10 -2 -2 -2 -2 -2 0 -4 1 -2 3 -2 14 -2
l13 0 3 4 c3 4 4 4 8 4 6 0 8 -2 8 -8 0 -4 0 -5 -4 -8 -4 -4 -4 -4 -3 -6 2 -1
4 -2 7 -2 4 0 5 0 8 -4 3 -4 4 -4 8 -4 4 0 5 0 8 -4 3 -4 4 -4 8 -4 7 0 8 2 8
12 l0 9 -4 3 c-4 3 -4 4 -4 8 0 6 10 16 16 16 4 0 5 0 8 4 l3 4 13 0 c15 0 16
1 16 8 0 8 1 8 -36 8 l-33 0 -3 -4z"/></g>
  <g transform="scale(0.125 0.125) translate(0.000000,256.000000) scale(1.000000,-1.000000)" fill="#222a5c" stroke="none"><path d="M121 94 c-1 -2 -1 -2 3 -6 4 -3 4 -4 4 -10 0 -6 0 -6 -2 -6 -2 0 -4
-1 -5 -2 -1 -2 -1 -2 1 -4 2 -2 2 -2 4 -1 1 1 2 3 2 5 0 2 0 2 6 2 7 0 7 0 10
4 l3 4 13 0 c15 0 16 1 16 8 0 8 0 8 -28 8 -24 0 -25 0 -27 -2z"/><path d="M64 68 l-3 -4 -9 0 c-7 0 -9 0 -10 -2 -2 -2 -2 -2 0 -4 1 -2 3 -2 14
-2 l12 0 6 6 c6 6 6 6 4 8 -1 1 -3 2 -6 2 -4 0 -5 0 -8 -4z"/><path d="M81 46 c-1 -2 -1 -2 1 -4 l2 -2 2 2 c2 2 2 2 1 4 -1 1 -3 2 -3 2 0 0
-2 -1 -3 -2z"/><path d="M98 46 c-3 -3 -3 -10 0 -12 3 -3 6 0 6 6 0 7 -3 10 -6 6z"/><path d="M122 46 c-1 -1 -2 -3 -2 -6 0 -4 0 -5 -4 -8 -4 -4 -4 -4 -3 -6 3 -3
11 -3 13 0 3 3 3 18 0 20 -2 2 -2 2 -4 0z"/></g>
  <g transform="scale(0.125 0.125) translate(0.000000,256.000000) scale(1.000000,-1.000000)" fill="#37446e" stroke="none"><path d="M121 94 c-1 -2 -1 -2 3 -6 4 -3 4 -4 4 -10 0 -6 0 -6 -2 -6 -2 0 -4
-1 -5 -2 -1 -2 -1 -2 1 -4 2 -2 2 -2 4 -1 1 1 2 3 2 5 0 2 0 2 6 2 7 0 7 0 10
4 l3 4 13 0 c15 0 16 1 16 8 0 8 0 8 -28 8 -24 0 -25 0 -27 -2z"/><path d="M81 46 c-1 -2 -1 -2 1 -4 l2 -2 2 2 c2 2 2 2 1 4 -1 1 -3 2 -3 2 0 0
-2 -1 -3 -2z"/></g>
  <g transform="scale(0.125 0.125) translate(0.000000,256.000000) scale(1.000000,-1.000000)" fill="#158968" stroke="none"><path d="M134 82 c-6 -6 -6 -6 -4 -8 1 -1 3 -2 6 -2 4 0 5 0 8 4 3 4 4 4 8 4
6 0 9 3 7 6 -2 2 -4 2 -11 2 l-8 0 -6 -6z"/><path d="M81 46 c-1 -2 -1 -2 1 -4 l2 -2 2 2 c2 2 2 2 1 4 -1 1 -3 2 -3 2 0 0
-2 -1 -3 -2z"/></g>
  <g transform="scale(0.125 0.125) translate(0.000000,256.000000) scale(1.000000,-1.000000)" fill="#ab1f65" stroke="none"><path d="M81 46 c-1 -2 -1 -2 1 -4 l2 -2 2 2 c2 2 2 2 1 4 -1 1 -3 2 -3 2 0 0
-2 -1 -3 -2z"/></g>
</svg>
