<?xml version="1.0" encoding="UTF-8"?>
<svg xmlns="http://www.w3.org/2000/svg" viewBox="0 0 32 32" width="32" height="32">
  <g transform="scale(0.125 0.125) translate(0.000000,256.000000) scale(1.000000,-1.000000)" fill="#000000" stroke="none"><path d="M152 100 c-3 -4 -4 -4 -8 -4 -4 0 -5 0 -8 -4 l-3 -4 -17 0 -17 0 -3
-4 c-3 -4 -4 -4 -8 -4 -4 0 -5 0 -12 -8 l-8 -8 -8 0 -8 0 -10 -10 c-10 -10
-10 -10 -10 -14 0 -7 2 -8 12 -8 l9 0 3 4 3 4 9 0 c8 0 9 0 11 -2 1 -2 1 -2
-3 -6 -4 -3 -4 -4 -4 -8 0 -6 2 -8 8 -8 4 0 5 0 12 8 7 8 8 8 12 8 4 0 5 0 8
4 3 4 4 4 8 4 4 0 5 0 8 4 3 4 4 4 8 4 4 0 4 0 16 12 11 12 12 12 16 12 6 0
16 10 16 16 0 4 -1 5 -6 10 l-6 6 -8 0 -9 0 -3 -4z"/></g>
  <g transform="scale(0.125 0.125) translate(0.000000,256.000000) scale(1.000000,-1.000000)" fill="#566a89" stroke="none"><path d="M152 92 c-3 -4 -4 -4 -8 -4 -4 0 -5 0 -8 -4 l-3 -4 -17 0 -17 0 -3
-4 c-3 -4 -4 -4 -8 -4 -6 0 -8 -2 -8 -8 0 -7 -1 -8 -16 -8 l-12 0 -6 -6 c-6
-6 -6 -6 -4 -8 1 -1 3 -2 6 -2 4 0 5 0 8 4 l3 4 13 0 c15 0 16 0 16 -10 0 -6
0 -6 -2 -6 -2 0 -4 -1 -5 -2 -1 -2 -1 -2 1 -4 2 -2 2 -2 4 -1 1 1 2 3 2 5 0 1
1 2 2 2 2 0 4 1 6 4 3 4 4 4 8 4 4 0 5 0 8 4 3 4 4 4 8 4 4 0 5 0 8 4 3 4 4 4
8 4 4 0 4 0 16 12 12 12 12 12 16 12 6 0 8 2 8 8 0 7 -2 8 -12 8 l-9 0 -3 -4z"/></g>
  <g transform="scale(0.125 0.125) translate(0.000000,256.000000) scale(1.000000,-1.000000)" fill="#37446e" stroke="none"><path d="M152 92 c-3 -4 -4 -4 -8 -4 -4 0 -5 0 -8 -4 -3 -4 -4 -4 -8 -4 -3 0
-5 -1 -7 -2 -1 -2 -1 -2 3 -6 4 -3 4 -4 4 -10 0 -6 0 -6 -2 -6 -2 0 -4 -1 -5
-2 -1 -2 -1 -2 1 -4 2 -2 2 -2 4 -1 1 1 2 3 2 5 0 2 0 2 6 2 l6 0 12 12 c12
12 12 12 16 12 6 0 8 2 8 8 0 7 -2 8 -12 8 l-9 0 -3 -4z"/><path d="M97 78 c-1 -2 -1 -2 1 -4 l2 -2 2 2 c2 2 2 2 1 4 -1 1 -3 2 -3 2 0 0
-2 -1 -3 -2z"/><path d="M80 60 l-3 -4 -13 0 -12 0 -6 -6 c-6 -6 -6 -6 -4 -8 1 -1 3 -2 6 -2
4 0 5 0 8 4 l3 4 17 0 c15 0 17 0 18 2 2 2 2 2 -4 8 -3 3 -6 6 -6 6 -1 0 -2
-2 -4 -4z"/><path d="M105 62 c-1 -2 -1 -2 1 -4 l2 -2 2 2 c2 2 2 2 1 4 -1 1 -3 2 -3 2 0
0 -2 -1 -3 -2z"/><path d="M90 38 c-1 -1 -2 -3 -2 -4 0 -1 -1 -2 -2 -2 -2 0 -4 -1 -5 -2 -1 -2
-1 -2 1 -4 2 -2 2 -2 4 -1 1 1 2 3 2 5 0 1 1 2 2 2 2 0 4 1 5 2 1 2 1 2 0 4
-3 2 -3 2 -5 0z"/></g>
  <g transform="scale(0.125 0.125) translate(0.000000,256.000000) scale(1.000000,-1.000000)" fill="#222a5c" stroke="none"><path d="M97 78 c-1 -2 -1 -2 1 -4 l2 -2 2 2 c2 2 2 2 1 4 -1 1 -3 2 -3 2 0 0
-2 -1 -3 -2z"/><path d="M154 78 c-1 -1 -2 -3 -2 -4 0 -2 -1 -2 -6 -2 l-6 0 -6 -6 c-6 -6 -6
-6 -4 -8 1 -1 3 -2 6 -2 4 0 5 0 10 6 4 3 6 7 6 8 0 1 1 2 2 2 2 0 4 1 5 2 1
2 1 2 0 4 -3 2 -3 2 -5 0z"/><path d="M80 60 l-3 -4 -13 0 -12 0 -6 -6 c-6 -6 -6 -6 -4 -8 1 -1 3 -2 6 -2
4 0 5 0 8 4 l3 4 17 0 c15 0 17 0 18 2 2 2 2 2 -4 8 -3 3 -6 6 -6 6 -1 0 -2
-2 -4 -4z"/><path d="M105 62 c-1 -2 -1 -2 1 -4 l2 -2 2 2 c2 2 2 2 1 4 -1 1 -3 2 -3 2 0
0 -2 -1 -3 -2z"/><path d="M90 38 c-1 -1 -2 -3 -2 -4 0 -1 -1 -2 -2 -2 -2 0 -4 -1 -5 -2 -1 -2
-1 -2 1 -4 2 -2 2 -2 4 -1 1 1 2 3 2 5 0 1 1 2 2 2 2 0 4 1 5 2 1 2 1 2 0 4
-3 2 -3 2 -5 0z"/></g>
  <g transform="scale(0.125 0.125) translate(0.000000,256.000000) scale(1.000000,-1.000000)" fill="#158968" stroke="none"><path d="M154 78 c-1 -1 -2 -3 -2 -4 0 -2 -1 -2 -6 -2 l-6 0 -6 -6 c-6 -6 -6
-6 -4 -8 1 -1 3 -2 6 -2 4 0 5 0 10 6 4 3 6 7 6 8 0 1 1 2 2 2 2 0 4 1 5 2 1
2 1 2 0 4 -3 2 -3 2 -5 0z"/><path d="M90 38 c-1 -1 -2 -3 -2 -4 0 -1 -1 -2 -2 -2 -2 0 -4 -1 -5 -2 -1 -2
-1 -2 1 -4 2 -2 2 -2 4 -1 1 1 2 3 2 5 0 1 1 2 2 2 2 0 4 1 5 2 1 2 1 2 0 4
-3 2 -3 2 -5 0z"/></g>
  <g transform="scale(0.125 0.125) translate(0.000000,256.000000) scale(1.000000,-1.000000)" fill="#ab1f65" stroke="none"><path d="M90 38 c-1 -1 -2 -3 -2 -4 0 -1 -1 -2 -2 -2 -2 0 -4 -1 -5 -2 -1 -2
-1 -2 1 -4 2 -2 2 -2 4 -1 1 1 2 3 2 5 0 1 1 2 2 2 2 0 4 1 5 2 1 2 1 2 0 4
-3 2 -3 2 -5 0z"/></g>
</svg>
