<?xml version="1.0" encoding="UTF-8"?>
<svg xmlns="http://www.w3.org/2000/svg" viewBox="0 0 32 32" width="32" height="32">
  <g transform="scale(0.125 0.125) translate(0.000000,256.000000) scale(1.000000,-1.000000)" fill="#2f2f2e" stroke="none"><path d="M78 90 l-6 -6 0 -12 0 -13 4 -3 c4 -3 4 -4 4 -8 0 -4 0 -5 -4 -8 l-4
-4 6 -6 6 -6 48 0 c57 0 52 -1 52 12 l0 8 8 8 c8 7 8 8 8 12 0 6 -10 16 -16
16 -6 0 -8 -2 -8 -8 0 -8 0 -8 -24 -8 -25 0 -24 0 -24 12 l0 8 -6 6 -6 6 -16
0 -16 0 -6 -6z"/></g>
  <g transform="scale(0.125 0.125) translate(0.000000,256.000000) scale(1.000000,-1.000000)" fill="#e0e0e0" stroke="none"><path d="M86 82 l-6 -6 0 -8 0 -8 8 -8 c8 -8 8 -8 7 -10 -2 -1 -4 -2 -7 -2 -6
0 -9 -3 -6 -6 1 -2 3 -2 10 -2 l9 0 3 4 4 5 4 -5 c3 -4 4 -4 8 -4 4 0 5 0 8 4
4 5 8 6 8 2 0 -4 3 -6 8 -6 4 0 5 0 8 4 4 5 8 6 8 2 0 -6 10 -8 15 -4 3 3 -1
6 -9 6 l-6 0 0 6 c0 10 0 10 -20 10 -21 0 -20 -1 -20 16 0 15 -1 16 -8 16 -6
0 -8 -2 -8 -8 0 -3 -1 -5 -2 -6 -3 -3 -6 0 -6 6 0 3 -1 5 -2 6 -2 2 -2 3 -8
-4z m57 -36 c1 -2 1 -2 0 -4 -3 -3 -7 -3 -7 0 0 2 3 6 4 6 0 0 2 -1 3 -2z"/><path d="M186 70 c-2 -1 -2 -3 -2 -8 l0 -6 -6 0 c-8 0 -12 -3 -8 -6 4 -5 14
-2 14 4 0 1 1 2 2 2 6 0 8 10 4 14 -2 2 -2 2 -4 0z"/></g>
  <g transform="scale(0.125 0.125) translate(0.000000,256.000000) scale(1.000000,-1.000000)" fill="#b5b5b5" stroke="none"><path d="M114 86 c-2 -1 -2 -4 -2 -10 0 -12 0 -12 -16 -12 -11 0 -13 0 -14 -2
-2 -2 -2 -2 -1 -4 3 -3 35 -3 37 0 3 3 3 26 0 28 -2 2 -2 2 -4 0z"/><path d="M82 78 c-3 -3 0 -6 6 -6 6 0 9 3 7 6 -2 1 -4 2 -7 2 -3 0 -5 -1 -6
-2z"/><path d="M137 38 c-1 -2 -1 -2 1 -4 l2 -2 2 2 c2 2 2 2 1 4 -1 1 -3 2 -3 2 0
0 -2 -1 -3 -2z"/><path d="M162 38 c-3 -3 0 -6 6 -6 6 0 9 3 7 6 -2 1 -4 2 -7 2 -3 0 -5 -1 -6
-2z"/></g>
</svg>
