<?xml version="1.0" encoding="UTF-8"?>
<svg xmlns="http://www.w3.org/2000/svg" viewBox="0 0 32 32" width="32" height="32">
  <g transform="scale(0.125 0.125) translate(0.000000,256.000000) scale(1.000000,-1.000000)" fill="#2f2f2e" stroke="none"><path d="M78 90 l-6 -6 0 -12 0 -12 4 -4 5 -4 -9 -8 c-8 -7 -8 -8 -8 -12 0 -8
0 -8 28 -8 l25 0 3 -4 c5 -6 11 -6 16 0 l3 4 17 0 16 0 6 6 6 6 -8 8 -8 8 4 4
4 4 0 8 0 9 4 3 4 4 -6 6 c-5 6 -6 6 -10 6 -6 0 -8 -2 -8 -8 0 -4 0 -5 -4 -8
-4 -3 -4 -4 -4 -8 0 -7 -2 -8 -12 -8 -11 0 -12 1 -12 12 l0 8 -6 6 -6 6 -16 0
-16 0 -6 -6z"/></g>
  <g transform="scale(0.125 0.125) translate(0.000000,256.000000) scale(1.000000,-1.000000)" fill="#e0e0e0" stroke="none"><path d="M86 82 l-6 -6 0 -8 0 -9 4 -3 c4 -3 4 -4 4 -8 0 -6 -2 -8 -8 -8 -6 0
-9 -3 -6 -6 1 -2 3 -2 22 -2 l21 0 3 -4 c3 -4 4 -4 8 -4 4 0 5 0 12 8 l8 9 4
-5 4 -4 8 0 c7 0 9 0 11 2 2 3 -1 6 -7 6 -6 0 -8 2 -8 10 0 6 0 6 2 6 5 0 6 3
6 14 0 10 0 10 2 10 2 0 4 1 5 2 1 2 1 2 -1 4 -2 2 -2 2 -4 1 -1 -1 -2 -3 -2
-5 0 -1 -1 -2 -2 -2 -5 0 -6 -3 -6 -14 l0 -10 -18 0 c-23 0 -22 -1 -22 16 0
16 0 16 -16 16 l-12 0 -6 -6z m17 -4 c1 -2 1 -2 -1 -4 l-2 -2 -2 2 c-2 2 -2 2
-1 4 1 1 3 2 3 2 0 0 2 -1 3 -2z"/></g>
  <g transform="scale(0.125 0.125) translate(0.000000,256.000000) scale(1.000000,-1.000000)" fill="#b5b5b5" stroke="none"><path d="M114 86 c-2 -1 -2 -4 -2 -10 0 -12 0 -12 -16 -12 -11 0 -13 0 -14 -2
-2 -2 -2 -2 -1 -4 3 -3 35 -3 37 0 3 3 3 26 0 28 -2 2 -2 2 -4 0z"/><path d="M82 78 c-3 -3 0 -6 6 -6 6 0 9 3 7 6 -2 1 -4 2 -7 2 -3 0 -5 -1 -6
-2z"/><path d="M90 38 c-3 -3 0 -6 6 -6 6 0 9 3 7 6 -2 1 -4 2 -7 2 -3 0 -5 -1 -6
-2z"/><path d="M169 38 c-1 -2 -1 -2 1 -4 l2 -2 2 2 c2 2 2 2 1 4 -1 1 -3 2 -3 2 0
0 -2 -1 -3 -2z"/></g>
</svg>
