<?xml version="1.0" encoding="UTF-8"?>
<svg xmlns="http://www.w3.org/2000/svg" viewBox="0 0 32 32" shape-rendering="crispEdges">
<rect x="10" y="20" width="5" height="1" fill="#2f2f2e"/>
<rect x="9" y="21" width="2" height="1" fill="#2f2f2e"/>
<rect x="11" y="21" width="1" height="1" fill="#e0e0e0"/>
<rect x="12" y="21" width="1" height="1" fill="#2f2f2e"/>
<rect x="13" y="21" width="1" height="1" fill="#e0e0e0"/>
<rect x="14" y="21" width="1" height="1" fill="#b5b5b5"/>
<rect x="15" y="21" width="1" height="1" fill="#2f2f2e"/>
<rect x="9" y="22" width="1" height="1" fill="#2f2f2e"/>
<rect x="10" y="22" width="2" height="1" fill="#b5b5b5"/>
<rect x="12" y="22" width="1" height="1" fill="#2f2f2e"/>
<rect x="13" y="22" width="1" height="1" fill="#e0e0e0"/>
<rect x="14" y="22" width="1" height="1" fill="#b5b5b5"/>
<rect x="15" y="22" width="1" height="1" fill="#2f2f2e"/>
<rect x="22" y="22" width="2" height="1" fill="#2f2f2e"/>
<rect x="9" y="23" width="1" height="1" fill="#2f2f2e"/>
<rect x="10" y="23" width="4" height="1" fill="#e0e0e0"/>
<rect x="14" y="23" width="1" height="1" fill="#b5b5b5"/>
<rect x="15" y="23" width="1" height="1" fill="#2f2f2e"/>
<rect x="22" y="23" width="1" height="1" fill="#2f2f2e"/>
<rect x="23" y="23" width="1" height="1" fill="#e0e0e0"/>
<rect x="24" y="23" width="1" height="1" fill="#2f2f2e"/>
<rect x="9" y="24" width="1" height="1" fill="#2f2f2e"/>
<rect x="10" y="24" width="5" height="1" fill="#b5b5b5"/>
<rect x="15" y="24" width="8" height="1" fill="#2f2f2e"/>
<rect x="23" y="24" width="1" height="1" fill="#e0e0e0"/>
<rect x="24" y="24" width="1" height="1" fill="#2f2f2e"/>
<rect x="10" y="25" width="1" height="1" fill="#2f2f2e"/>
<rect x="11" y="25" width="9" height="1" fill="#e0e0e0"/>
<rect x="20" y="25" width="1" height="1" fill="#2f2f2e"/>
<rect x="21" y="25" width="2" height="1" fill="#e0e0e0"/>
<rect x="23" y="25" width="1" height="1" fill="#2f2f2e"/>
<rect x="10" y="26" width="2" height="1" fill="#2f2f2e"/>
<rect x="12" y="26" width="5" height="1" fill="#e0e0e0"/>
<rect x="17" y="26" width="1" height="1" fill="#2f2f2e"/>
<rect x="18" y="26" width="2" height="1" fill="#e0e0e0"/>
<rect x="20" y="26" width="3" height="1" fill="#2f2f2e"/>
<rect x="9" y="27" width="1" height="1" fill="#2f2f2e"/>
<rect x="10" y="27" width="3" height="1" fill="#e0e0e0"/>
<rect x="13" y="27" width="1" height="1" fill="#2f2f2e"/>
<rect x="14" y="27" width="2" height="1" fill="#e0e0e0"/>
<rect x="16" y="27" width="1" height="1" fill="#2f2f2e"/>
<rect x="17" y="27" width="1" height="1" fill="#b5b5b5"/>
<rect x="18" y="27" width="1" height="1" fill="#e0e0e0"/>
<rect x="19" y="27" width="1" height="1" fill="#2f2f2e"/>
<rect x="20" y="27" width="2" height="1" fill="#b5b5b5"/>
<rect x="22" y="27" width="1" height="1" fill="#2f2f2e"/>
<rect x="10" y="28" width="13" height="1" fill="#2f2f2e"/>
</svg>
