<?xml version="1.0" encoding="UTF-8"?>
<svg xmlns="http://www.w3.org/2000/svg" viewBox="0 0 32 32" width="32" height="32">
  <g transform="scale(0.125 0.125) translate(0.000000,256.000000) scale(1.000000,-1.000000)" fill="#2f2f2e" stroke="none"><path d="M74 94 c-1 -1 -2 -3 -2 -6 0 -4 0 -5 4 -8 l5 -4 -5 -4 -4 -3 0 -9 0
-9 4 -3 c4 -3 4 -4 4 -8 0 -4 0 -5 4 -8 l4 -3 0 -9 c0 -10 1 -12 8 -12 4 0 5
0 8 4 l3 4 13 0 13 0 3 -4 c3 -4 4 -4 8 -4 4 0 5 0 8 4 l4 5 4 -5 c3 -4 4 -4
8 -4 6 0 8 2 8 8 0 4 0 5 -4 8 -4 3 -4 4 -4 8 0 4 0 5 8 12 8 7 8 8 8 12 0 4
0 5 -10 14 -10 10 -10 10 -14 10 -6 0 -8 -2 -8 -8 0 -4 0 -5 4 -8 4 -4 4 -4 3
-6 -2 -2 -3 -2 -15 -2 -16 0 -16 0 -16 12 l0 8 -10 10 c-9 10 -10 10 -14 10
-4 0 -5 0 -8 -4 l-4 -4 -4 4 c-3 4 -4 4 -8 4 -3 0 -5 -1 -6 -2z"/></g>
  <g transform="scale(0.125 0.125) translate(0.000000,256.000000) scale(1.000000,-1.000000)" fill="#e0e0e0" stroke="none"><path d="M82 86 c-2 -2 -2 -2 0 -4 0 -1 2 -2 4 -2 4 0 3 -4 -2 -8 l-4 -3 0 -9
0 -9 4 -3 c4 -3 4 -4 4 -8 0 -6 2 -8 8 -8 5 0 8 -2 8 -6 0 -1 -1 -2 -2 -2 -2
0 -4 -1 -5 -2 -1 -2 -1 -2 1 -4 2 -2 2 -2 4 -1 1 1 2 3 2 5 0 1 1 2 2 2 2 0 4
2 6 4 l4 5 4 -5 c5 -6 11 -6 16 0 4 4 4 4 6 3 1 -2 2 -4 2 -7 0 -3 1 -5 2 -7
2 -1 2 -1 6 3 4 5 8 6 8 2 0 -2 1 -4 2 -5 2 -1 2 -1 4 1 2 2 2 2 1 4 -1 1 -3
2 -5 2 -2 0 -2 0 -2 12 l0 12 6 0 c8 0 10 2 10 8 0 5 -2 8 -6 8 -1 0 -2 1 -2
2 0 2 -1 4 -2 5 -2 1 -2 1 -4 -1 -2 -2 -2 -2 -1 -4 1 -1 3 -2 5 -2 4 0 3 -4
-2 -8 -3 -2 -4 -4 -4 -6 l0 -2 -18 0 c-23 0 -22 -1 -22 16 l0 12 -6 6 -6 6 -4
-4 c-3 -4 -4 -4 -10 -4 -6 0 -6 0 -6 2 0 2 -3 6 -4 6 0 0 -2 -1 -2 -2z m21
-16 c1 -2 1 -2 -1 -4 l-2 -2 -2 2 c-2 2 -2 2 -1 4 1 1 3 2 3 2 0 0 2 -1 3 -2z"/></g>
  <g transform="scale(0.125 0.125) translate(0.000000,256.000000) scale(1.000000,-1.000000)" fill="#b5b5b5" stroke="none"><path d="M81 86 c-1 -2 -1 -2 1 -4 l2 -2 2 2 c2 2 2 2 1 4 -1 1 -3 2 -3 2 0 0
-2 -1 -3 -2z"/><path d="M106 86 c-2 -2 -2 -2 0 -4 0 -1 2 -2 4 -2 2 0 2 0 2 -10 0 -14 0 -14
-16 -14 -11 0 -13 0 -14 -2 -2 -2 -2 -2 0 -4 1 -2 3 -2 18 -2 21 0 20 -1 20
16 0 14 -1 16 -6 16 -1 0 -2 1 -2 2 0 2 -3 6 -4 6 0 0 -2 -1 -2 -2z"/><path d="M82 70 c-3 -3 0 -6 6 -6 6 0 9 3 7 6 -2 1 -4 2 -7 2 -3 0 -5 -1 -6
-2z"/><path d="M145 22 c-1 -2 -1 -2 1 -4 l2 -2 2 2 c2 2 2 2 1 4 -1 1 -3 2 -3 2 0
0 -2 -1 -3 -2z"/><path d="M161 22 c-1 -2 -1 -2 1 -4 l2 -2 2 2 c2 2 2 2 1 4 -1 1 -3 2 -3 2 0
0 -2 -1 -3 -2z"/></g>
</svg>
