<?xml version="1.0" encoding="UTF-8"?>
<svg xmlns="http://www.w3.org/2000/svg" viewBox="0 0 32 32" width="32" height="32">
  <g transform="scale(0.125 0.125) translate(0.000000,256.000000) scale(1.000000,-1.000000)" fill="#2f2f2e" stroke="none"><path d="M82 86 c-2 -1 -2 -4 -2 -10 l0 -9 -4 -3 -4 -3 0 -9 0 -9 4 -3 c4 -3
4 -4 4 -8 0 -4 0 -5 -4 -8 l-4 -3 0 -11 0 -10 8 0 c8 0 8 0 8 2 0 4 3 6 8 6 5
0 8 -2 8 -6 0 -2 0 -2 8 -2 8 0 8 0 8 2 0 4 3 6 8 6 5 0 8 -2 8 -6 0 -2 0 -2
8 -2 8 0 8 0 8 2 0 2 1 4 2 4 2 2 2 2 4 1 1 -1 2 -3 2 -5 0 -2 0 -2 8 -2 l8 0
0 10 0 11 -4 3 c-4 3 -4 4 -4 8 0 4 0 5 6 10 l6 6 4 -4 c3 -4 4 -4 8 -4 6 0 8
2 8 8 0 4 0 5 -10 14 -14 14 -14 14 -30 -2 l-12 -12 -8 0 c-12 0 -12 0 -12 16
l0 12 -6 6 c-8 8 -12 8 -18 2 l-4 -4 -4 4 c-3 4 -4 4 -8 4 -3 0 -5 -1 -6 -2z"/></g>
  <g transform="scale(0.125 0.125) translate(0.000000,256.000000) scale(1.000000,-1.000000)" fill="#e0e0e0" stroke="none"><path d="M112 76 l-3 -4 -9 0 -8 0 -6 -6 -6 -6 0 -8 0 -9 4 -3 c4 -3 4 -4 4
-8 0 -4 0 -5 -4 -8 -4 -3 -4 -4 -4 -8 0 -3 1 -5 2 -7 2 -1 2 -1 6 3 5 6 11 6
16 0 l4 -4 4 4 4 4 20 0 21 0 3 -4 c4 -4 4 -4 6 -3 1 2 2 4 2 7 0 4 0 5 -4 8
-4 3 -4 3 -4 10 0 6 0 6 2 6 4 0 6 3 6 10 l0 6 8 0 c8 0 8 0 8 -2 0 -2 1 -4 2
-5 2 -1 2 -1 4 1 2 2 2 2 1 4 -1 1 -3 2 -5 2 -1 0 -2 1 -2 2 0 4 -3 6 -8 6 -5
0 -8 -2 -8 -6 0 -1 -1 -2 -2 -2 -4 0 -6 -3 -6 -10 l0 -6 -18 0 c-24 0 -22 -2
-22 20 0 15 0 17 -2 18 -2 3 -2 3 -6 -2z m-9 -14 c1 -2 1 -2 -1 -4 l-2 -2 -2
2 c-2 2 -2 2 -1 4 1 1 3 2 3 2 0 0 2 -1 3 -2z"/></g>
  <g transform="scale(0.125 0.125) translate(0.000000,256.000000) scale(1.000000,-1.000000)" fill="#b5b5b5" stroke="none"><path d="M114 78 c-2 -1 -2 -4 -2 -14 0 -16 1 -16 -16 -16 -11 0 -13 0 -14 -2
-2 -2 -2 -2 0 -4 2 -3 34 -3 36 0 3 3 3 34 0 36 -2 2 -2 2 -4 0z"/><path d="M82 62 c-3 -3 0 -6 6 -6 6 0 9 3 7 6 -2 1 -4 2 -7 2 -3 0 -5 -1 -6
-2z"/><path d="M90 22 c-3 -3 0 -6 6 -6 3 0 5 1 7 2 2 3 -1 6 -7 6 -3 0 -5 -1 -6 -2z"/></g>
</svg>
