<?xml version="1.0" encoding="UTF-8"?>
<svg xmlns="http://www.w3.org/2000/svg" viewBox="0 0 256 32" shape-rendering="crispEdges">
<rect x="16" y="21" width="2" height="1" fill="#2f2f2e"/>
<rect x="20" y="21" width="2" height="1" fill="#2f2f2e"/>
<rect x="135" y="21" width="2" height="1" fill="#2f2f2e"/>
<rect x="167" y="21" width="2" height="1" fill="#2f2f2e"/>
<rect x="240" y="21" width="2" height="1" fill="#2f2f2e"/>
<rect x="244" y="21" width="2" height="1" fill="#2f2f2e"/>
<rect x="11" y="22" width="2" height="1" fill="#2f2f2e"/>
<rect x="16" y="22" width="1" height="1" fill="#2f2f2e"/>
<rect x="17" y="22" width="1" height="1" fill="#b5b5b5"/>
<rect x="18" y="22" width="4" height="1" fill="#2f2f2e"/>
<rect x="41" y="22" width="2" height="1" fill="#2f2f2e"/>
<rect x="49" y="22" width="2" height="1" fill="#2f2f2e"/>
<rect x="53" y="22" width="2" height="1" fill="#2f2f2e"/>
<rect x="73" y="22" width="2" height="1" fill="#2f2f2e"/>
<rect x="81" y="22" width="2" height="1" fill="#2f2f2e"/>
<rect x="85" y="22" width="2" height="1" fill="#2f2f2e"/>
<rect x="105" y="22" width="2" height="1" fill="#2f2f2e"/>
<rect x="113" y="22" width="2" height="1" fill="#2f2f2e"/>
<rect x="117" y="22" width="2" height="1" fill="#2f2f2e"/>
<rect x="135" y="22" width="1" height="1" fill="#2f2f2e"/>
<rect x="136" y="22" width="1" height="1" fill="#e0e0e0"/>
<rect x="137" y="22" width="1" height="1" fill="#2f2f2e"/>
<rect x="145" y="22" width="2" height="1" fill="#2f2f2e"/>
<rect x="149" y="22" width="2" height="1" fill="#2f2f2e"/>
<rect x="167" y="22" width="1" height="1" fill="#2f2f2e"/>
<rect x="168" y="22" width="1" height="1" fill="#e0e0e0"/>
<rect x="169" y="22" width="1" height="1" fill="#2f2f2e"/>
<rect x="177" y="22" width="2" height="1" fill="#2f2f2e"/>
<rect x="181" y="22" width="2" height="1" fill="#2f2f2e"/>
<rect x="201" y="22" width="2" height="1" fill="#2f2f2e"/>
<rect x="209" y="22" width="2" height="1" fill="#2f2f2e"/>
<rect x="213" y="22" width="2" height="1" fill="#2f2f2e"/>
<rect x="235" y="22" width="2" height="1" fill="#2f2f2e"/>
<rect x="240" y="22" width="1" height="1" fill="#2f2f2e"/>
<rect x="241" y="22" width="1" height="1" fill="#b5b5b5"/>
<rect x="242" y="22" width="4" height="1" fill="#2f2f2e"/>
<rect x="10" y="23" width="1" height="1" fill="#2f2f2e"/>
<rect x="11" y="23" width="1" height="1" fill="#e0e0e0"/>
<rect x="12" y="23" width="1" height="1" fill="#2f2f2e"/>
<rect x="16" y="23" width="1" height="1" fill="#2f2f2e"/>
<rect x="17" y="23" width="1" height="1" fill="#b5b5b5"/>
<rect x="18" y="23" width="3" height="1" fill="#e0e0e0"/>
<rect x="21" y="23" width="1" height="1" fill="#2f2f2e"/>
<rect x="41" y="23" width="1" height="1" fill="#2f2f2e"/>
<rect x="42" y="23" width="1" height="1" fill="#e0e0e0"/>
<rect x="43" y="23" width="1" height="1" fill="#2f2f2e"/>
<rect x="49" y="23" width="1" height="1" fill="#2f2f2e"/>
<rect x="50" y="23" width="1" height="1" fill="#b5b5b5"/>
<rect x="51" y="23" width="4" height="1" fill="#2f2f2e"/>
<rect x="73" y="23" width="1" height="1" fill="#2f2f2e"/>
<rect x="74" y="23" width="1" height="1" fill="#e0e0e0"/>
<rect x="75" y="23" width="1" height="1" fill="#2f2f2e"/>
<rect x="81" y="23" width="1" height="1" fill="#2f2f2e"/>
<rect x="82" y="23" width="1" height="1" fill="#b5b5b5"/>
<rect x="83" y="23" width="4" height="1" fill="#2f2f2e"/>
<rect x="105" y="23" width="1" height="1" fill="#2f2f2e"/>
<rect x="106" y="23" width="1" height="1" fill="#e0e0e0"/>
<rect x="107" y="23" width="1" height="1" fill="#2f2f2e"/>
<rect x="109" y="23" width="5" height="1" fill="#2f2f2e"/>
<rect x="114" y="23" width="1" height="1" fill="#b5b5b5"/>
<rect x="115" y="23" width="4" height="1" fill="#2f2f2e"/>
<rect x="136" y="23" width="1" height="1" fill="#2f2f2e"/>
<rect x="137" y="23" width="1" height="1" fill="#e0e0e0"/>
<rect x="138" y="23" width="1" height="1" fill="#2f2f2e"/>
<rect x="141" y="23" width="5" height="1" fill="#2f2f2e"/>
<rect x="146" y="23" width="1" height="1" fill="#b5b5b5"/>
<rect x="147" y="23" width="4" height="1" fill="#2f2f2e"/>
<rect x="168" y="23" width="1" height="1" fill="#2f2f2e"/>
<rect x="169" y="23" width="1" height="1" fill="#e0e0e0"/>
<rect x="170" y="23" width="1" height="1" fill="#2f2f2e"/>
<rect x="173" y="23" width="5" height="1" fill="#2f2f2e"/>
<rect x="178" y="23" width="1" height="1" fill="#b5b5b5"/>
<rect x="179" y="23" width="4" height="1" fill="#2f2f2e"/>
<rect x="201" y="23" width="1" height="1" fill="#2f2f2e"/>
<rect x="202" y="23" width="1" height="1" fill="#e0e0e0"/>
<rect x="203" y="23" width="1" height="1" fill="#2f2f2e"/>
<rect x="209" y="23" width="1" height="1" fill="#2f2f2e"/>
<rect x="210" y="23" width="1" height="1" fill="#b5b5b5"/>
<rect x="211" y="23" width="4" height="1" fill="#2f2f2e"/>
<rect x="234" y="23" width="1" height="1" fill="#2f2f2e"/>
<rect x="235" y="23" width="1" height="1" fill="#e0e0e0"/>
<rect x="236" y="23" width="1" height="1" fill="#2f2f2e"/>
<rect x="240" y="23" width="1" height="1" fill="#2f2f2e"/>
<rect x="241" y="23" width="1" height="1" fill="#b5b5b5"/>
<rect x="242" y="23" width="3" height="1" fill="#e0e0e0"/>
<rect x="245" y="23" width="1" height="1" fill="#2f2f2e"/>
<rect x="10" y="24" width="1" height="1" fill="#2f2f2e"/>
<rect x="11" y="24" width="1" height="1" fill="#e0e0e0"/>
<rect x="12" y="24" width="1" height="1" fill="#2f2f2e"/>
<rect x="16" y="24" width="1" height="1" fill="#2f2f2e"/>
<rect x="17" y="24" width="1" height="1" fill="#b5b5b5"/>
<rect x="18" y="24" width="1" height="1" fill="#e0e0e0"/>
<rect x="19" y="24" width="1" height="1" fill="#2f2f2e"/>
<rect x="20" y="24" width="2" height="1" fill="#b5b5b5"/>
<rect x="22" y="24" width="1" height="1" fill="#2f2f2e"/>
<rect x="41" y="24" width="1" height="1" fill="#2f2f2e"/>
<rect x="42" y="24" width="1" height="1" fill="#e0e0e0"/>
<rect x="43" y="24" width="1" height="1" fill="#2f2f2e"/>
<rect x="48" y="24" width="2" height="1" fill="#2f2f2e"/>
<rect x="50" y="24" width="1" height="1" fill="#b5b5b5"/>
<rect x="51" y="24" width="1" height="1" fill="#2f2f2e"/>
<rect x="52" y="24" width="2" height="1" fill="#e0e0e0"/>
<rect x="54" y="24" width="1" height="1" fill="#2f2f2e"/>
<rect x="73" y="24" width="1" height="1" fill="#2f2f2e"/>
<rect x="74" y="24" width="1" height="1" fill="#e0e0e0"/>
<rect x="75" y="24" width="1" height="1" fill="#2f2f2e"/>
<rect x="78" y="24" width="4" height="1" fill="#2f2f2e"/>
<rect x="82" y="24" width="1" height="1" fill="#b5b5b5"/>
<rect x="83" y="24" width="1" height="1" fill="#2f2f2e"/>
<rect x="84" y="24" width="2" height="1" fill="#e0e0e0"/>
<rect x="86" y="24" width="1" height="1" fill="#2f2f2e"/>
<rect x="105" y="24" width="1" height="1" fill="#2f2f2e"/>
<rect x="106" y="24" width="1" height="1" fill="#e0e0e0"/>
<rect x="107" y="24" width="2" height="1" fill="#2f2f2e"/>
<rect x="109" y="24" width="4" height="1" fill="#e0e0e0"/>
<rect x="113" y="24" width="1" height="1" fill="#2f2f2e"/>
<rect x="114" y="24" width="1" height="1" fill="#b5b5b5"/>
<rect x="115" y="24" width="1" height="1" fill="#2f2f2e"/>
<rect x="116" y="24" width="2" height="1" fill="#e0e0e0"/>
<rect x="118" y="24" width="1" height="1" fill="#2f2f2e"/>
<rect x="137" y="24" width="1" height="1" fill="#2f2f2e"/>
<rect x="138" y="24" width="1" height="1" fill="#e0e0e0"/>
<rect x="139" y="24" width="2" height="1" fill="#2f2f2e"/>
<rect x="141" y="24" width="4" height="1" fill="#e0e0e0"/>
<rect x="145" y="24" width="1" height="1" fill="#2f2f2e"/>
<rect x="146" y="24" width="1" height="1" fill="#b5b5b5"/>
<rect x="147" y="24" width="1" height="1" fill="#2f2f2e"/>
<rect x="148" y="24" width="2" height="1" fill="#e0e0e0"/>
<rect x="150" y="24" width="1" height="1" fill="#2f2f2e"/>
<rect x="169" y="24" width="1" height="1" fill="#2f2f2e"/>
<rect x="170" y="24" width="1" height="1" fill="#e0e0e0"/>
<rect x="171" y="24" width="2" height="1" fill="#2f2f2e"/>
<rect x="173" y="24" width="4" height="1" fill="#e0e0e0"/>
<rect x="177" y="24" width="1" height="1" fill="#2f2f2e"/>
<rect x="178" y="24" width="1" height="1" fill="#b5b5b5"/>
<rect x="179" y="24" width="1" height="1" fill="#2f2f2e"/>
<rect x="180" y="24" width="2" height="1" fill="#e0e0e0"/>
<rect x="182" y="24" width="1" height="1" fill="#2f2f2e"/>
<rect x="201" y="24" width="1" height="1" fill="#2f2f2e"/>
<rect x="202" y="24" width="1" height="1" fill="#e0e0e0"/>
<rect x="203" y="24" width="1" height="1" fill="#2f2f2e"/>
<rect x="206" y="24" width="4" height="1" fill="#2f2f2e"/>
<rect x="210" y="24" width="1" height="1" fill="#b5b5b5"/>
<rect x="211" y="24" width="1" height="1" fill="#2f2f2e"/>
<rect x="212" y="24" width="2" height="1" fill="#e0e0e0"/>
<rect x="214" y="24" width="1" height="1" fill="#2f2f2e"/>
<rect x="234" y="24" width="1" height="1" fill="#2f2f2e"/>
<rect x="235" y="24" width="1" height="1" fill="#e0e0e0"/>
<rect x="236" y="24" width="1" height="1" fill="#2f2f2e"/>
<rect x="240" y="24" width="1" height="1" fill="#2f2f2e"/>
<rect x="241" y="24" width="1" height="1" fill="#b5b5b5"/>
<rect x="242" y="24" width="1" height="1" fill="#e0e0e0"/>
<rect x="243" y="24" width="1" height="1" fill="#2f2f2e"/>
<rect x="244" y="24" width="2" height="1" fill="#b5b5b5"/>
<rect x="246" y="24" width="1" height="1" fill="#2f2f2e"/>
<rect x="10" y="25" width="1" height="1" fill="#2f2f2e"/>
<rect x="11" y="25" width="1" height="1" fill="#e0e0e0"/>
<rect x="12" y="25" width="1" height="1" fill="#2f2f2e"/>
<rect x="16" y="25" width="1" height="1" fill="#2f2f2e"/>
<rect x="17" y="25" width="1" height="1" fill="#b5b5b5"/>
<rect x="18" y="25" width="4" height="1" fill="#e0e0e0"/>
<rect x="22" y="25" width="1" height="1" fill="#2f2f2e"/>
<rect x="41" y="25" width="1" height="1" fill="#2f2f2e"/>
<rect x="42" y="25" width="1" height="1" fill="#e0e0e0"/>
<rect x="43" y="25" width="1" height="1" fill="#2f2f2e"/>
<rect x="46" y="25" width="2" height="1" fill="#2f2f2e"/>
<rect x="48" y="25" width="1" height="1" fill="#e0e0e0"/>
<rect x="49" y="25" width="1" height="1" fill="#2f2f2e"/>
<rect x="50" y="25" width="1" height="1" fill="#b5b5b5"/>
<rect x="51" y="25" width="2" height="1" fill="#2f2f2e"/>
<rect x="53" y="25" width="2" height="1" fill="#b5b5b5"/>
<rect x="55" y="25" width="1" height="1" fill="#2f2f2e"/>
<rect x="73" y="25" width="1" height="1" fill="#2f2f2e"/>
<rect x="74" y="25" width="1" height="1" fill="#e0e0e0"/>
<rect x="75" y="25" width="1" height="1" fill="#2f2f2e"/>
<rect x="77" y="25" width="1" height="1" fill="#2f2f2e"/>
<rect x="78" y="25" width="3" height="1" fill="#e0e0e0"/>
<rect x="81" y="25" width="1" height="1" fill="#2f2f2e"/>
<rect x="82" y="25" width="1" height="1" fill="#b5b5b5"/>
<rect x="83" y="25" width="2" height="1" fill="#2f2f2e"/>
<rect x="85" y="25" width="2" height="1" fill="#b5b5b5"/>
<rect x="87" y="25" width="1" height="1" fill="#2f2f2e"/>
<rect x="105" y="25" width="1" height="1" fill="#2f2f2e"/>
<rect x="106" y="25" width="1" height="1" fill="#e0e0e0"/>
<rect x="107" y="25" width="2" height="1" fill="#2f2f2e"/>
<rect x="109" y="25" width="4" height="1" fill="#e0e0e0"/>
<rect x="113" y="25" width="1" height="1" fill="#2f2f2e"/>
<rect x="114" y="25" width="1" height="1" fill="#b5b5b5"/>
<rect x="115" y="25" width="2" height="1" fill="#2f2f2e"/>
<rect x="117" y="25" width="2" height="1" fill="#b5b5b5"/>
<rect x="119" y="25" width="1" height="1" fill="#2f2f2e"/>
<rect x="138" y="25" width="1" height="1" fill="#2f2f2e"/>
<rect x="139" y="25" width="6" height="1" fill="#e0e0e0"/>
<rect x="145" y="25" width="1" height="1" fill="#2f2f2e"/>
<rect x="146" y="25" width="1" height="1" fill="#b5b5b5"/>
<rect x="147" y="25" width="2" height="1" fill="#2f2f2e"/>
<rect x="149" y="25" width="2" height="1" fill="#b5b5b5"/>
<rect x="151" y="25" width="1" height="1" fill="#2f2f2e"/>
<rect x="170" y="25" width="1" height="1" fill="#2f2f2e"/>
<rect x="171" y="25" width="6" height="1" fill="#e0e0e0"/>
<rect x="177" y="25" width="1" height="1" fill="#2f2f2e"/>
<rect x="178" y="25" width="1" height="1" fill="#b5b5b5"/>
<rect x="179" y="25" width="2" height="1" fill="#2f2f2e"/>
<rect x="181" y="25" width="2" height="1" fill="#b5b5b5"/>
<rect x="183" y="25" width="1" height="1" fill="#2f2f2e"/>
<rect x="201" y="25" width="1" height="1" fill="#2f2f2e"/>
<rect x="202" y="25" width="1" height="1" fill="#e0e0e0"/>
<rect x="203" y="25" width="3" height="1" fill="#2f2f2e"/>
<rect x="206" y="25" width="3" height="1" fill="#e0e0e0"/>
<rect x="209" y="25" width="1" height="1" fill="#2f2f2e"/>
<rect x="210" y="25" width="1" height="1" fill="#b5b5b5"/>
<rect x="211" y="25" width="2" height="1" fill="#2f2f2e"/>
<rect x="213" y="25" width="2" height="1" fill="#b5b5b5"/>
<rect x="215" y="25" width="1" height="1" fill="#2f2f2e"/>
<rect x="234" y="25" width="1" height="1" fill="#2f2f2e"/>
<rect x="235" y="25" width="1" height="1" fill="#e0e0e0"/>
<rect x="236" y="25" width="1" height="1" fill="#2f2f2e"/>
<rect x="240" y="25" width="1" height="1" fill="#2f2f2e"/>
<rect x="241" y="25" width="1" height="1" fill="#b5b5b5"/>
<rect x="242" y="25" width="4" height="1" fill="#e0e0e0"/>
<rect x="246" y="25" width="1" height="1" fill="#2f2f2e"/>
<rect x="10" y="26" width="1" height="1" fill="#2f2f2e"/>
<rect x="11" y="26" width="1" height="1" fill="#e0e0e0"/>
<rect x="12" y="26" width="5" height="1" fill="#2f2f2e"/>
<rect x="17" y="26" width="5" height="1" fill="#b5b5b5"/>
<rect x="22" y="26" width="1" height="1" fill="#2f2f2e"/>
<rect x="41" y="26" width="1" height="1" fill="#2f2f2e"/>
<rect x="42" y="26" width="1" height="1" fill="#b5b5b5"/>
<rect x="43" y="26" width="1" height="1" fill="#e0e0e0"/>
<rect x="44" y="26" width="2" height="1" fill="#2f2f2e"/>
<rect x="46" y="26" width="3" height="1" fill="#e0e0e0"/>
<rect x="49" y="26" width="1" height="1" fill="#2f2f2e"/>
<rect x="50" y="26" width="1" height="1" fill="#b5b5b5"/>
<rect x="51" y="26" width="4" height="1" fill="#e0e0e0"/>
<rect x="55" y="26" width="1" height="1" fill="#2f2f2e"/>
<rect x="73" y="26" width="1" height="1" fill="#2f2f2e"/>
<rect x="74" y="26" width="1" height="1" fill="#b5b5b5"/>
<rect x="75" y="26" width="1" height="1" fill="#e0e0e0"/>
<rect x="76" y="26" width="1" height="1" fill="#2f2f2e"/>
<rect x="77" y="26" width="4" height="1" fill="#e0e0e0"/>
<rect x="81" y="26" width="1" height="1" fill="#2f2f2e"/>
<rect x="82" y="26" width="1" height="1" fill="#b5b5b5"/>
<rect x="83" y="26" width="4" height="1" fill="#e0e0e0"/>
<rect x="87" y="26" width="1" height="1" fill="#2f2f2e"/>
<rect x="105" y="26" width="1" height="1" fill="#2f2f2e"/>
<rect x="106" y="26" width="1" height="1" fill="#b5b5b5"/>
<rect x="107" y="26" width="6" height="1" fill="#e0e0e0"/>
<rect x="113" y="26" width="1" height="1" fill="#2f2f2e"/>
<rect x="114" y="26" width="1" height="1" fill="#b5b5b5"/>
<rect x="115" y="26" width="4" height="1" fill="#e0e0e0"/>
<rect x="119" y="26" width="1" height="1" fill="#2f2f2e"/>
<rect x="139" y="26" width="1" height="1" fill="#2f2f2e"/>
<rect x="140" y="26" width="5" height="1" fill="#e0e0e0"/>
<rect x="145" y="26" width="1" height="1" fill="#2f2f2e"/>
<rect x="146" y="26" width="1" height="1" fill="#b5b5b5"/>
<rect x="147" y="26" width="4" height="1" fill="#e0e0e0"/>
<rect x="151" y="26" width="1" height="1" fill="#2f2f2e"/>
<rect x="171" y="26" width="1" height="1" fill="#2f2f2e"/>
<rect x="172" y="26" width="5" height="1" fill="#e0e0e0"/>
<rect x="177" y="26" width="1" height="1" fill="#2f2f2e"/>
<rect x="178" y="26" width="1" height="1" fill="#b5b5b5"/>
<rect x="179" y="26" width="4" height="1" fill="#e0e0e0"/>
<rect x="183" y="26" width="1" height="1" fill="#2f2f2e"/>
<rect x="201" y="26" width="1" height="1" fill="#2f2f2e"/>
<rect x="202" y="26" width="1" height="1" fill="#b5b5b5"/>
<rect x="203" y="26" width="6" height="1" fill="#e0e0e0"/>
<rect x="209" y="26" width="1" height="1" fill="#2f2f2e"/>
<rect x="210" y="26" width="1" height="1" fill="#b5b5b5"/>
<rect x="211" y="26" width="4" height="1" fill="#e0e0e0"/>
<rect x="215" y="26" width="1" height="1" fill="#2f2f2e"/>
<rect x="234" y="26" width="1" height="1" fill="#2f2f2e"/>
<rect x="235" y="26" width="1" height="1" fill="#e0e0e0"/>
<rect x="236" y="26" width="5" height="1" fill="#2f2f2e"/>
<rect x="241" y="26" width="5" height="1" fill="#b5b5b5"/>
<rect x="246" y="26" width="1" height="1" fill="#2f2f2e"/>
<rect x="11" y="27" width="1" height="1" fill="#2f2f2e"/>
<rect x="12" y="27" width="9" height="1" fill="#e0e0e0"/>
<rect x="21" y="27" width="1" height="1" fill="#2f2f2e"/>
<rect x="42" y="27" width="2" height="1" fill="#2f2f2e"/>
<rect x="44" y="27" width="5" height="1" fill="#e0e0e0"/>
<rect x="49" y="27" width="1" height="1" fill="#2f2f2e"/>
<rect x="50" y="27" width="5" height="1" fill="#b5b5b5"/>
<rect x="55" y="27" width="1" height="1" fill="#2f2f2e"/>
<rect x="74" y="27" width="2" height="1" fill="#2f2f2e"/>
<rect x="76" y="27" width="5" height="1" fill="#e0e0e0"/>
<rect x="81" y="27" width="1" height="1" fill="#2f2f2e"/>
<rect x="82" y="27" width="5" height="1" fill="#b5b5b5"/>
<rect x="87" y="27" width="1" height="1" fill="#2f2f2e"/>
<rect x="106" y="27" width="2" height="1" fill="#2f2f2e"/>
<rect x="108" y="27" width="5" height="1" fill="#e0e0e0"/>
<rect x="113" y="27" width="1" height="1" fill="#2f2f2e"/>
<rect x="114" y="27" width="5" height="1" fill="#b5b5b5"/>
<rect x="119" y="27" width="1" height="1" fill="#2f2f2e"/>
<rect x="139" y="27" width="1" height="1" fill="#2f2f2e"/>
<rect x="140" y="27" width="5" height="1" fill="#e0e0e0"/>
<rect x="145" y="27" width="1" height="1" fill="#2f2f2e"/>
<rect x="146" y="27" width="5" height="1" fill="#b5b5b5"/>
<rect x="151" y="27" width="1" height="1" fill="#2f2f2e"/>
<rect x="171" y="27" width="1" height="1" fill="#2f2f2e"/>
<rect x="172" y="27" width="5" height="1" fill="#e0e0e0"/>
<rect x="177" y="27" width="1" height="1" fill="#2f2f2e"/>
<rect x="178" y="27" width="5" height="1" fill="#b5b5b5"/>
<rect x="183" y="27" width="1" height="1" fill="#2f2f2e"/>
<rect x="202" y="27" width="2" height="1" fill="#2f2f2e"/>
<rect x="204" y="27" width="5" height="1" fill="#e0e0e0"/>
<rect x="209" y="27" width="1" height="1" fill="#2f2f2e"/>
<rect x="210" y="27" width="5" height="1" fill="#b5b5b5"/>
<rect x="215" y="27" width="1" height="1" fill="#2f2f2e"/>
<rect x="235" y="27" width="1" height="1" fill="#2f2f2e"/>
<rect x="236" y="27" width="9" height="1" fill="#e0e0e0"/>
<rect x="245" y="27" width="1" height="1" fill="#2f2f2e"/>
<rect x="11" y="28" width="1" height="1" fill="#2f2f2e"/>
<rect x="12" y="28" width="9" height="1" fill="#e0e0e0"/>
<rect x="21" y="28" width="1" height="1" fill="#2f2f2e"/>
<rect x="43" y="28" width="1" height="1" fill="#2f2f2e"/>
<rect x="44" y="28" width="9" height="1" fill="#e0e0e0"/>
<rect x="53" y="28" width="2" height="1" fill="#2f2f2e"/>
<rect x="75" y="28" width="1" height="1" fill="#2f2f2e"/>
<rect x="76" y="28" width="9" height="1" fill="#e0e0e0"/>
<rect x="85" y="28" width="2" height="1" fill="#2f2f2e"/>
<rect x="107" y="28" width="1" height="1" fill="#2f2f2e"/>
<rect x="108" y="28" width="2" height="1" fill="#e0e0e0"/>
<rect x="110" y="28" width="3" height="1" fill="#2f2f2e"/>
<rect x="113" y="28" width="4" height="1" fill="#e0e0e0"/>
<rect x="117" y="28" width="2" height="1" fill="#2f2f2e"/>
<rect x="139" y="28" width="1" height="1" fill="#2f2f2e"/>
<rect x="140" y="28" width="2" height="1" fill="#e0e0e0"/>
<rect x="142" y="28" width="3" height="1" fill="#2f2f2e"/>
<rect x="145" y="28" width="4" height="1" fill="#e0e0e0"/>
<rect x="149" y="28" width="2" height="1" fill="#2f2f2e"/>
<rect x="171" y="28" width="1" height="1" fill="#2f2f2e"/>
<rect x="172" y="28" width="2" height="1" fill="#e0e0e0"/>
<rect x="174" y="28" width="3" height="1" fill="#2f2f2e"/>
<rect x="177" y="28" width="4" height="1" fill="#e0e0e0"/>
<rect x="181" y="28" width="2" height="1" fill="#2f2f2e"/>
<rect x="203" y="28" width="1" height="1" fill="#2f2f2e"/>
<rect x="204" y="28" width="9" height="1" fill="#e0e0e0"/>
<rect x="213" y="28" width="2" height="1" fill="#2f2f2e"/>
<rect x="235" y="28" width="1" height="1" fill="#2f2f2e"/>
<rect x="236" y="28" width="9" height="1" fill="#e0e0e0"/>
<rect x="245" y="28" width="1" height="1" fill="#2f2f2e"/>
<rect x="11" y="29" width="1" height="1" fill="#2f2f2e"/>
<rect x="12" y="29" width="1" height="1" fill="#e0e0e0"/>
<rect x="13" y="29" width="1" height="1" fill="#2f2f2e"/>
<rect x="14" y="29" width="3" height="1" fill="#e0e0e0"/>
<rect x="17" y="29" width="1" height="1" fill="#2f2f2e"/>
<rect x="18" y="29" width="1" height="1" fill="#e0e0e0"/>
<rect x="19" y="29" width="1" height="1" fill="#b5b5b5"/>
<rect x="20" y="29" width="1" height="1" fill="#e0e0e0"/>
<rect x="21" y="29" width="1" height="1" fill="#2f2f2e"/>
<rect x="43" y="29" width="1" height="1" fill="#2f2f2e"/>
<rect x="44" y="29" width="1" height="1" fill="#e0e0e0"/>
<rect x="45" y="29" width="5" height="1" fill="#2f2f2e"/>
<rect x="50" y="29" width="1" height="1" fill="#e0e0e0"/>
<rect x="51" y="29" width="1" height="1" fill="#b5b5b5"/>
<rect x="52" y="29" width="1" height="1" fill="#e0e0e0"/>
<rect x="53" y="29" width="1" height="1" fill="#2f2f2e"/>
<rect x="75" y="29" width="1" height="1" fill="#2f2f2e"/>
<rect x="76" y="29" width="1" height="1" fill="#e0e0e0"/>
<rect x="77" y="29" width="5" height="1" fill="#2f2f2e"/>
<rect x="82" y="29" width="1" height="1" fill="#e0e0e0"/>
<rect x="83" y="29" width="1" height="1" fill="#b5b5b5"/>
<rect x="84" y="29" width="1" height="1" fill="#e0e0e0"/>
<rect x="85" y="29" width="1" height="1" fill="#2f2f2e"/>
<rect x="107" y="29" width="1" height="1" fill="#2f2f2e"/>
<rect x="108" y="29" width="1" height="1" fill="#e0e0e0"/>
<rect x="109" y="29" width="5" height="1" fill="#2f2f2e"/>
<rect x="114" y="29" width="1" height="1" fill="#e0e0e0"/>
<rect x="115" y="29" width="1" height="1" fill="#b5b5b5"/>
<rect x="116" y="29" width="1" height="1" fill="#e0e0e0"/>
<rect x="117" y="29" width="1" height="1" fill="#2f2f2e"/>
<rect x="139" y="29" width="1" height="1" fill="#2f2f2e"/>
<rect x="140" y="29" width="1" height="1" fill="#e0e0e0"/>
<rect x="141" y="29" width="5" height="1" fill="#2f2f2e"/>
<rect x="146" y="29" width="1" height="1" fill="#e0e0e0"/>
<rect x="147" y="29" width="1" height="1" fill="#b5b5b5"/>
<rect x="148" y="29" width="1" height="1" fill="#e0e0e0"/>
<rect x="149" y="29" width="1" height="1" fill="#2f2f2e"/>
<rect x="171" y="29" width="1" height="1" fill="#2f2f2e"/>
<rect x="172" y="29" width="1" height="1" fill="#e0e0e0"/>
<rect x="173" y="29" width="5" height="1" fill="#2f2f2e"/>
<rect x="178" y="29" width="1" height="1" fill="#e0e0e0"/>
<rect x="179" y="29" width="1" height="1" fill="#b5b5b5"/>
<rect x="180" y="29" width="1" height="1" fill="#e0e0e0"/>
<rect x="181" y="29" width="1" height="1" fill="#2f2f2e"/>
<rect x="203" y="29" width="1" height="1" fill="#2f2f2e"/>
<rect x="204" y="29" width="1" height="1" fill="#e0e0e0"/>
<rect x="205" y="29" width="5" height="1" fill="#2f2f2e"/>
<rect x="210" y="29" width="1" height="1" fill="#e0e0e0"/>
<rect x="211" y="29" width="1" height="1" fill="#b5b5b5"/>
<rect x="212" y="29" width="1" height="1" fill="#e0e0e0"/>
<rect x="213" y="29" width="1" height="1" fill="#2f2f2e"/>
<rect x="235" y="29" width="1" height="1" fill="#2f2f2e"/>
<rect x="236" y="29" width="1" height="1" fill="#e0e0e0"/>
<rect x="237" y="29" width="1" height="1" fill="#2f2f2e"/>
<rect x="238" y="29" width="3" height="1" fill="#e0e0e0"/>
<rect x="241" y="29" width="1" height="1" fill="#2f2f2e"/>
<rect x="242" y="29" width="1" height="1" fill="#e0e0e0"/>
<rect x="243" y="29" width="1" height="1" fill="#b5b5b5"/>
<rect x="244" y="29" width="1" height="1" fill="#e0e0e0"/>
<rect x="245" y="29" width="1" height="1" fill="#2f2f2e"/>
<rect x="11" y="30" width="1" height="1" fill="#2f2f2e"/>
<rect x="12" y="30" width="1" height="1" fill="#b5b5b5"/>
<rect x="13" y="30" width="5" height="1" fill="#2f2f2e"/>
<rect x="18" y="30" width="1" height="1" fill="#e0e0e0"/>
<rect x="19" y="30" width="1" height="1" fill="#2f2f2e"/>
<rect x="20" y="30" width="1" height="1" fill="#e0e0e0"/>
<rect x="21" y="30" width="1" height="1" fill="#2f2f2e"/>
<rect x="43" y="30" width="1" height="1" fill="#2f2f2e"/>
<rect x="44" y="30" width="1" height="1" fill="#b5b5b5"/>
<rect x="45" y="30" width="3" height="1" fill="#2f2f2e"/>
<rect x="49" y="30" width="1" height="1" fill="#2f2f2e"/>
<rect x="50" y="30" width="1" height="1" fill="#e0e0e0"/>
<rect x="51" y="30" width="1" height="1" fill="#2f2f2e"/>
<rect x="52" y="30" width="1" height="1" fill="#e0e0e0"/>
<rect x="53" y="30" width="1" height="1" fill="#2f2f2e"/>
<rect x="75" y="30" width="1" height="1" fill="#2f2f2e"/>
<rect x="76" y="30" width="1" height="1" fill="#b5b5b5"/>
<rect x="77" y="30" width="3" height="1" fill="#2f2f2e"/>
<rect x="81" y="30" width="1" height="1" fill="#2f2f2e"/>
<rect x="82" y="30" width="1" height="1" fill="#e0e0e0"/>
<rect x="83" y="30" width="1" height="1" fill="#2f2f2e"/>
<rect x="84" y="30" width="1" height="1" fill="#e0e0e0"/>
<rect x="85" y="30" width="1" height="1" fill="#2f2f2e"/>
<rect x="107" y="30" width="1" height="1" fill="#2f2f2e"/>
<rect x="108" y="30" width="1" height="1" fill="#b5b5b5"/>
<rect x="109" y="30" width="3" height="1" fill="#2f2f2e"/>
<rect x="113" y="30" width="1" height="1" fill="#2f2f2e"/>
<rect x="114" y="30" width="1" height="1" fill="#e0e0e0"/>
<rect x="115" y="30" width="1" height="1" fill="#2f2f2e"/>
<rect x="116" y="30" width="1" height="1" fill="#e0e0e0"/>
<rect x="117" y="30" width="1" height="1" fill="#2f2f2e"/>
<rect x="139" y="30" width="1" height="1" fill="#2f2f2e"/>
<rect x="140" y="30" width="1" height="1" fill="#b5b5b5"/>
<rect x="141" y="30" width="3" height="1" fill="#2f2f2e"/>
<rect x="145" y="30" width="1" height="1" fill="#2f2f2e"/>
<rect x="146" y="30" width="1" height="1" fill="#e0e0e0"/>
<rect x="147" y="30" width="1" height="1" fill="#2f2f2e"/>
<rect x="148" y="30" width="1" height="1" fill="#e0e0e0"/>
<rect x="149" y="30" width="1" height="1" fill="#2f2f2e"/>
<rect x="171" y="30" width="1" height="1" fill="#2f2f2e"/>
<rect x="172" y="30" width="1" height="1" fill="#b5b5b5"/>
<rect x="173" y="30" width="3" height="1" fill="#2f2f2e"/>
<rect x="177" y="30" width="1" height="1" fill="#2f2f2e"/>
<rect x="178" y="30" width="1" height="1" fill="#e0e0e0"/>
<rect x="179" y="30" width="1" height="1" fill="#2f2f2e"/>
<rect x="180" y="30" width="1" height="1" fill="#e0e0e0"/>
<rect x="181" y="30" width="1" height="1" fill="#2f2f2e"/>
<rect x="203" y="30" width="1" height="1" fill="#2f2f2e"/>
<rect x="204" y="30" width="1" height="1" fill="#b5b5b5"/>
<rect x="205" y="30" width="3" height="1" fill="#2f2f2e"/>
<rect x="209" y="30" width="1" height="1" fill="#2f2f2e"/>
<rect x="210" y="30" width="1" height="1" fill="#e0e0e0"/>
<rect x="211" y="30" width="1" height="1" fill="#2f2f2e"/>
<rect x="212" y="30" width="1" height="1" fill="#e0e0e0"/>
<rect x="213" y="30" width="1" height="1" fill="#2f2f2e"/>
<rect x="235" y="30" width="1" height="1" fill="#2f2f2e"/>
<rect x="236" y="30" width="1" height="1" fill="#b5b5b5"/>
<rect x="237" y="30" width="5" height="1" fill="#2f2f2e"/>
<rect x="242" y="30" width="1" height="1" fill="#e0e0e0"/>
<rect x="243" y="30" width="1" height="1" fill="#2f2f2e"/>
<rect x="244" y="30" width="1" height="1" fill="#e0e0e0"/>
<rect x="245" y="30" width="1" height="1" fill="#2f2f2e"/>
<rect x="11" y="31" width="2" height="1" fill="#2f2f2e"/>
<rect x="14" y="31" width="2" height="1" fill="#2f2f2e"/>
<rect x="17" y="31" width="2" height="1" fill="#2f2f2e"/>
<rect x="20" y="31" width="2" height="1" fill="#2f2f2e"/>
<rect x="43" y="31" width="2" height="1" fill="#2f2f2e"/>
<rect x="47" y="31" width="1" height="1" fill="#2f2f2e"/>
<rect x="49" y="31" width="2" height="1" fill="#2f2f2e"/>
<rect x="52" y="31" width="2" height="1" fill="#2f2f2e"/>
<rect x="75" y="31" width="2" height="1" fill="#2f2f2e"/>
<rect x="79" y="31" width="1" height="1" fill="#2f2f2e"/>
<rect x="81" y="31" width="2" height="1" fill="#2f2f2e"/>
<rect x="84" y="31" width="2" height="1" fill="#2f2f2e"/>
<rect x="107" y="31" width="2" height="1" fill="#2f2f2e"/>
<rect x="111" y="31" width="1" height="1" fill="#2f2f2e"/>
<rect x="113" y="31" width="2" height="1" fill="#2f2f2e"/>
<rect x="116" y="31" width="2" height="1" fill="#2f2f2e"/>
<rect x="139" y="31" width="2" height="1" fill="#2f2f2e"/>
<rect x="143" y="31" width="1" height="1" fill="#2f2f2e"/>
<rect x="145" y="31" width="2" height="1" fill="#2f2f2e"/>
<rect x="148" y="31" width="2" height="1" fill="#2f2f2e"/>
<rect x="171" y="31" width="2" height="1" fill="#2f2f2e"/>
<rect x="175" y="31" width="1" height="1" fill="#2f2f2e"/>
<rect x="177" y="31" width="2" height="1" fill="#2f2f2e"/>
<rect x="180" y="31" width="2" height="1" fill="#2f2f2e"/>
<rect x="203" y="31" width="2" height="1" fill="#2f2f2e"/>
<rect x="207" y="31" width="1" height="1" fill="#2f2f2e"/>
<rect x="209" y="31" width="2" height="1" fill="#2f2f2e"/>
<rect x="212" y="31" width="2" height="1" fill="#2f2f2e"/>
<rect x="235" y="31" width="2" height="1" fill="#2f2f2e"/>
<rect x="238" y="31" width="2" height="1" fill="#2f2f2e"/>
<rect x="241" y="31" width="2" height="1" fill="#2f2f2e"/>
<rect x="244" y="31" width="2" height="1" fill="#2f2f2e"/>
</svg>
