<?xml version="1.0" encoding="UTF-8"?>
<svg xmlns="http://www.w3.org/2000/svg" viewBox="0 0 256 32" shape-rendering="crispEdges">
<rect x="51" y="20" width="2" height="1" fill="#2f2f2e"/>
<rect x="83" y="20" width="2" height="1" fill="#2f2f2e"/>
<rect x="147" y="20" width="2" height="1" fill="#2f2f2e"/>
<rect x="179" y="20" width="2" height="1" fill="#2f2f2e"/>
<rect x="16" y="21" width="2" height="1" fill="#2f2f2e"/>
<rect x="20" y="21" width="2" height="1" fill="#2f2f2e"/>
<rect x="50" y="21" width="1" height="1" fill="#2f2f2e"/>
<rect x="51" y="21" width="1" height="1" fill="#b5b5b5"/>
<rect x="52" y="21" width="1" height="1" fill="#2f2f2e"/>
<rect x="82" y="21" width="1" height="1" fill="#2f2f2e"/>
<rect x="83" y="21" width="1" height="1" fill="#b5b5b5"/>
<rect x="84" y="21" width="1" height="1" fill="#2f2f2e"/>
<rect x="117" y="21" width="2" height="1" fill="#2f2f2e"/>
<rect x="146" y="21" width="1" height="1" fill="#2f2f2e"/>
<rect x="147" y="21" width="1" height="1" fill="#b5b5b5"/>
<rect x="148" y="21" width="1" height="1" fill="#2f2f2e"/>
<rect x="178" y="21" width="1" height="1" fill="#2f2f2e"/>
<rect x="179" y="21" width="1" height="1" fill="#b5b5b5"/>
<rect x="180" y="21" width="1" height="1" fill="#2f2f2e"/>
<rect x="11" y="22" width="2" height="1" fill="#2f2f2e"/>
<rect x="16" y="22" width="1" height="1" fill="#2f2f2e"/>
<rect x="17" y="22" width="1" height="1" fill="#b5b5b5"/>
<rect x="18" y="22" width="4" height="1" fill="#2f2f2e"/>
<rect x="43" y="22" width="2" height="1" fill="#2f2f2e"/>
<rect x="47" y="22" width="2" height="1" fill="#2f2f2e"/>
<rect x="50" y="22" width="1" height="1" fill="#2f2f2e"/>
<rect x="51" y="22" width="1" height="1" fill="#e0e0e0"/>
<rect x="52" y="22" width="1" height="1" fill="#2f2f2e"/>
<rect x="76" y="22" width="2" height="1" fill="#2f2f2e"/>
<rect x="79" y="22" width="2" height="1" fill="#2f2f2e"/>
<rect x="82" y="22" width="1" height="1" fill="#2f2f2e"/>
<rect x="83" y="22" width="1" height="1" fill="#e0e0e0"/>
<rect x="84" y="22" width="1" height="1" fill="#2f2f2e"/>
<rect x="108" y="22" width="2" height="1" fill="#2f2f2e"/>
<rect x="116" y="22" width="1" height="1" fill="#2f2f2e"/>
<rect x="117" y="22" width="1" height="1" fill="#b5b5b5"/>
<rect x="118" y="22" width="1" height="1" fill="#2f2f2e"/>
<rect x="139" y="22" width="2" height="1" fill="#2f2f2e"/>
<rect x="143" y="22" width="2" height="1" fill="#2f2f2e"/>
<rect x="146" y="22" width="1" height="1" fill="#2f2f2e"/>
<rect x="147" y="22" width="1" height="1" fill="#e0e0e0"/>
<rect x="148" y="22" width="1" height="1" fill="#2f2f2e"/>
<rect x="175" y="22" width="2" height="1" fill="#2f2f2e"/>
<rect x="178" y="22" width="1" height="1" fill="#2f2f2e"/>
<rect x="179" y="22" width="1" height="1" fill="#e0e0e0"/>
<rect x="180" y="22" width="1" height="1" fill="#2f2f2e"/>
<rect x="10" y="23" width="1" height="1" fill="#2f2f2e"/>
<rect x="11" y="23" width="1" height="1" fill="#e0e0e0"/>
<rect x="12" y="23" width="1" height="1" fill="#2f2f2e"/>
<rect x="16" y="23" width="1" height="1" fill="#2f2f2e"/>
<rect x="17" y="23" width="1" height="1" fill="#b5b5b5"/>
<rect x="18" y="23" width="3" height="1" fill="#e0e0e0"/>
<rect x="21" y="23" width="1" height="1" fill="#2f2f2e"/>
<rect x="42" y="23" width="1" height="1" fill="#2f2f2e"/>
<rect x="43" y="23" width="1" height="1" fill="#e0e0e0"/>
<rect x="44" y="23" width="1" height="1" fill="#2f2f2e"/>
<rect x="47" y="23" width="1" height="1" fill="#2f2f2e"/>
<rect x="48" y="23" width="1" height="1" fill="#b5b5b5"/>
<rect x="49" y="23" width="1" height="1" fill="#2f2f2e"/>
<rect x="50" y="23" width="3" height="1" fill="#e0e0e0"/>
<rect x="53" y="23" width="1" height="1" fill="#2f2f2e"/>
<rect x="75" y="23" width="1" height="1" fill="#2f2f2e"/>
<rect x="76" y="23" width="1" height="1" fill="#e0e0e0"/>
<rect x="77" y="23" width="1" height="1" fill="#2f2f2e"/>
<rect x="79" y="23" width="1" height="1" fill="#2f2f2e"/>
<rect x="80" y="23" width="1" height="1" fill="#b5b5b5"/>
<rect x="81" y="23" width="1" height="1" fill="#2f2f2e"/>
<rect x="82" y="23" width="3" height="1" fill="#e0e0e0"/>
<rect x="85" y="23" width="1" height="1" fill="#2f2f2e"/>
<rect x="107" y="23" width="1" height="1" fill="#2f2f2e"/>
<rect x="108" y="23" width="1" height="1" fill="#e0e0e0"/>
<rect x="109" y="23" width="1" height="1" fill="#2f2f2e"/>
<rect x="113" y="23" width="2" height="1" fill="#2f2f2e"/>
<rect x="116" y="23" width="1" height="1" fill="#2f2f2e"/>
<rect x="117" y="23" width="1" height="1" fill="#e0e0e0"/>
<rect x="118" y="23" width="1" height="1" fill="#2f2f2e"/>
<rect x="138" y="23" width="1" height="1" fill="#2f2f2e"/>
<rect x="139" y="23" width="1" height="1" fill="#e0e0e0"/>
<rect x="140" y="23" width="1" height="1" fill="#2f2f2e"/>
<rect x="143" y="23" width="1" height="1" fill="#2f2f2e"/>
<rect x="144" y="23" width="1" height="1" fill="#b5b5b5"/>
<rect x="145" y="23" width="1" height="1" fill="#2f2f2e"/>
<rect x="146" y="23" width="3" height="1" fill="#e0e0e0"/>
<rect x="149" y="23" width="1" height="1" fill="#2f2f2e"/>
<rect x="172" y="23" width="2" height="1" fill="#2f2f2e"/>
<rect x="175" y="23" width="1" height="1" fill="#2f2f2e"/>
<rect x="176" y="23" width="1" height="1" fill="#b5b5b5"/>
<rect x="177" y="23" width="1" height="1" fill="#2f2f2e"/>
<rect x="178" y="23" width="3" height="1" fill="#e0e0e0"/>
<rect x="181" y="23" width="1" height="1" fill="#2f2f2e"/>
<rect x="10" y="24" width="1" height="1" fill="#2f2f2e"/>
<rect x="11" y="24" width="1" height="1" fill="#e0e0e0"/>
<rect x="12" y="24" width="1" height="1" fill="#2f2f2e"/>
<rect x="16" y="24" width="1" height="1" fill="#2f2f2e"/>
<rect x="17" y="24" width="1" height="1" fill="#b5b5b5"/>
<rect x="18" y="24" width="3" height="1" fill="#e0e0e0"/>
<rect x="21" y="24" width="1" height="1" fill="#2f2f2e"/>
<rect x="42" y="24" width="1" height="1" fill="#2f2f2e"/>
<rect x="43" y="24" width="1" height="1" fill="#e0e0e0"/>
<rect x="44" y="24" width="1" height="1" fill="#2f2f2e"/>
<rect x="47" y="24" width="1" height="1" fill="#2f2f2e"/>
<rect x="48" y="24" width="1" height="1" fill="#b5b5b5"/>
<rect x="49" y="24" width="3" height="1" fill="#e0e0e0"/>
<rect x="52" y="24" width="2" height="1" fill="#2f2f2e"/>
<rect x="75" y="24" width="1" height="1" fill="#2f2f2e"/>
<rect x="76" y="24" width="1" height="1" fill="#e0e0e0"/>
<rect x="77" y="24" width="1" height="1" fill="#2f2f2e"/>
<rect x="79" y="24" width="1" height="1" fill="#2f2f2e"/>
<rect x="80" y="24" width="1" height="1" fill="#b5b5b5"/>
<rect x="81" y="24" width="3" height="1" fill="#e0e0e0"/>
<rect x="84" y="24" width="2" height="1" fill="#2f2f2e"/>
<rect x="107" y="24" width="1" height="1" fill="#2f2f2e"/>
<rect x="108" y="24" width="1" height="1" fill="#e0e0e0"/>
<rect x="109" y="24" width="1" height="1" fill="#2f2f2e"/>
<rect x="113" y="24" width="1" height="1" fill="#2f2f2e"/>
<rect x="114" y="24" width="1" height="1" fill="#b5b5b5"/>
<rect x="115" y="24" width="1" height="1" fill="#2f2f2e"/>
<rect x="116" y="24" width="3" height="1" fill="#e0e0e0"/>
<rect x="119" y="24" width="1" height="1" fill="#2f2f2e"/>
<rect x="138" y="24" width="1" height="1" fill="#2f2f2e"/>
<rect x="139" y="24" width="1" height="1" fill="#e0e0e0"/>
<rect x="140" y="24" width="1" height="1" fill="#2f2f2e"/>
<rect x="143" y="24" width="1" height="1" fill="#2f2f2e"/>
<rect x="144" y="24" width="1" height="1" fill="#b5b5b5"/>
<rect x="145" y="24" width="3" height="1" fill="#e0e0e0"/>
<rect x="148" y="24" width="2" height="1" fill="#2f2f2e"/>
<rect x="171" y="24" width="1" height="1" fill="#2f2f2e"/>
<rect x="172" y="24" width="1" height="1" fill="#e0e0e0"/>
<rect x="173" y="24" width="1" height="1" fill="#2f2f2e"/>
<rect x="175" y="24" width="1" height="1" fill="#2f2f2e"/>
<rect x="176" y="24" width="1" height="1" fill="#b5b5b5"/>
<rect x="177" y="24" width="3" height="1" fill="#e0e0e0"/>
<rect x="180" y="24" width="2" height="1" fill="#2f2f2e"/>
<rect x="10" y="25" width="1" height="1" fill="#2f2f2e"/>
<rect x="11" y="25" width="1" height="1" fill="#e0e0e0"/>
<rect x="12" y="25" width="1" height="1" fill="#2f2f2e"/>
<rect x="16" y="25" width="1" height="1" fill="#2f2f2e"/>
<rect x="17" y="25" width="1" height="1" fill="#b5b5b5"/>
<rect x="18" y="25" width="1" height="1" fill="#e0e0e0"/>
<rect x="19" y="25" width="1" height="1" fill="#2f2f2e"/>
<rect x="20" y="25" width="2" height="1" fill="#b5b5b5"/>
<rect x="22" y="25" width="1" height="1" fill="#2f2f2e"/>
<rect x="43" y="25" width="1" height="1" fill="#2f2f2e"/>
<rect x="44" y="25" width="1" height="1" fill="#e0e0e0"/>
<rect x="45" y="25" width="1" height="1" fill="#2f2f2e"/>
<rect x="47" y="25" width="1" height="1" fill="#2f2f2e"/>
<rect x="48" y="25" width="1" height="1" fill="#b5b5b5"/>
<rect x="49" y="25" width="1" height="1" fill="#e0e0e0"/>
<rect x="50" y="25" width="1" height="1" fill="#2f2f2e"/>
<rect x="51" y="25" width="2" height="1" fill="#b5b5b5"/>
<rect x="53" y="25" width="1" height="1" fill="#2f2f2e"/>
<rect x="75" y="25" width="1" height="1" fill="#2f2f2e"/>
<rect x="76" y="25" width="1" height="1" fill="#e0e0e0"/>
<rect x="77" y="25" width="1" height="1" fill="#2f2f2e"/>
<rect x="79" y="25" width="1" height="1" fill="#2f2f2e"/>
<rect x="80" y="25" width="1" height="1" fill="#b5b5b5"/>
<rect x="81" y="25" width="1" height="1" fill="#e0e0e0"/>
<rect x="82" y="25" width="1" height="1" fill="#2f2f2e"/>
<rect x="83" y="25" width="2" height="1" fill="#b5b5b5"/>
<rect x="85" y="25" width="1" height="1" fill="#2f2f2e"/>
<rect x="106" y="25" width="1" height="1" fill="#2f2f2e"/>
<rect x="107" y="25" width="1" height="1" fill="#e0e0e0"/>
<rect x="108" y="25" width="1" height="1" fill="#2f2f2e"/>
<rect x="113" y="25" width="1" height="1" fill="#2f2f2e"/>
<rect x="114" y="25" width="1" height="1" fill="#b5b5b5"/>
<rect x="115" y="25" width="3" height="1" fill="#e0e0e0"/>
<rect x="118" y="25" width="2" height="1" fill="#2f2f2e"/>
<rect x="138" y="25" width="1" height="1" fill="#2f2f2e"/>
<rect x="139" y="25" width="1" height="1" fill="#e0e0e0"/>
<rect x="140" y="25" width="1" height="1" fill="#2f2f2e"/>
<rect x="143" y="25" width="1" height="1" fill="#2f2f2e"/>
<rect x="144" y="25" width="1" height="1" fill="#b5b5b5"/>
<rect x="145" y="25" width="1" height="1" fill="#e0e0e0"/>
<rect x="146" y="25" width="1" height="1" fill="#2f2f2e"/>
<rect x="147" y="25" width="2" height="1" fill="#b5b5b5"/>
<rect x="149" y="25" width="1" height="1" fill="#2f2f2e"/>
<rect x="170" y="25" width="1" height="1" fill="#2f2f2e"/>
<rect x="171" y="25" width="1" height="1" fill="#e0e0e0"/>
<rect x="172" y="25" width="1" height="1" fill="#2f2f2e"/>
<rect x="175" y="25" width="1" height="1" fill="#2f2f2e"/>
<rect x="176" y="25" width="1" height="1" fill="#b5b5b5"/>
<rect x="177" y="25" width="1" height="1" fill="#e0e0e0"/>
<rect x="178" y="25" width="1" height="1" fill="#2f2f2e"/>
<rect x="179" y="25" width="2" height="1" fill="#b5b5b5"/>
<rect x="181" y="25" width="1" height="1" fill="#2f2f2e"/>
<rect x="10" y="26" width="1" height="1" fill="#2f2f2e"/>
<rect x="11" y="26" width="1" height="1" fill="#e0e0e0"/>
<rect x="12" y="26" width="5" height="1" fill="#2f2f2e"/>
<rect x="17" y="26" width="5" height="1" fill="#b5b5b5"/>
<rect x="22" y="26" width="1" height="1" fill="#2f2f2e"/>
<rect x="43" y="26" width="1" height="1" fill="#2f2f2e"/>
<rect x="44" y="26" width="1" height="1" fill="#e0e0e0"/>
<rect x="45" y="26" width="3" height="1" fill="#2f2f2e"/>
<rect x="48" y="26" width="5" height="1" fill="#b5b5b5"/>
<rect x="53" y="26" width="1" height="1" fill="#2f2f2e"/>
<rect x="75" y="26" width="1" height="1" fill="#2f2f2e"/>
<rect x="76" y="26" width="1" height="1" fill="#e0e0e0"/>
<rect x="77" y="26" width="3" height="1" fill="#2f2f2e"/>
<rect x="80" y="26" width="5" height="1" fill="#b5b5b5"/>
<rect x="85" y="26" width="2" height="1" fill="#2f2f2e"/>
<rect x="106" y="26" width="1" height="1" fill="#2f2f2e"/>
<rect x="107" y="26" width="1" height="1" fill="#e0e0e0"/>
<rect x="108" y="26" width="6" height="1" fill="#2f2f2e"/>
<rect x="114" y="26" width="1" height="1" fill="#b5b5b5"/>
<rect x="115" y="26" width="1" height="1" fill="#e0e0e0"/>
<rect x="116" y="26" width="1" height="1" fill="#2f2f2e"/>
<rect x="117" y="26" width="2" height="1" fill="#b5b5b5"/>
<rect x="119" y="26" width="1" height="1" fill="#2f2f2e"/>
<rect x="138" y="26" width="1" height="1" fill="#2f2f2e"/>
<rect x="139" y="26" width="1" height="1" fill="#e0e0e0"/>
<rect x="140" y="26" width="4" height="1" fill="#2f2f2e"/>
<rect x="144" y="26" width="5" height="1" fill="#b5b5b5"/>
<rect x="149" y="26" width="2" height="1" fill="#2f2f2e"/>
<rect x="170" y="26" width="1" height="1" fill="#2f2f2e"/>
<rect x="171" y="26" width="1" height="1" fill="#e0e0e0"/>
<rect x="172" y="26" width="4" height="1" fill="#2f2f2e"/>
<rect x="176" y="26" width="5" height="1" fill="#b5b5b5"/>
<rect x="181" y="26" width="1" height="1" fill="#2f2f2e"/>
<rect x="11" y="27" width="1" height="1" fill="#2f2f2e"/>
<rect x="12" y="27" width="9" height="1" fill="#e0e0e0"/>
<rect x="21" y="27" width="1" height="1" fill="#2f2f2e"/>
<rect x="43" y="27" width="1" height="1" fill="#2f2f2e"/>
<rect x="44" y="27" width="8" height="1" fill="#e0e0e0"/>
<rect x="52" y="27" width="1" height="1" fill="#2f2f2e"/>
<rect x="75" y="27" width="1" height="1" fill="#2f2f2e"/>
<rect x="76" y="27" width="10" height="1" fill="#e0e0e0"/>
<rect x="86" y="27" width="1" height="1" fill="#b5b5b5"/>
<rect x="87" y="27" width="1" height="1" fill="#2f2f2e"/>
<rect x="107" y="27" width="1" height="1" fill="#2f2f2e"/>
<rect x="108" y="27" width="5" height="1" fill="#e0e0e0"/>
<rect x="113" y="27" width="1" height="1" fill="#2f2f2e"/>
<rect x="114" y="27" width="5" height="1" fill="#b5b5b5"/>
<rect x="119" y="27" width="1" height="1" fill="#2f2f2e"/>
<rect x="139" y="27" width="1" height="1" fill="#2f2f2e"/>
<rect x="140" y="27" width="10" height="1" fill="#e0e0e0"/>
<rect x="150" y="27" width="1" height="1" fill="#b5b5b5"/>
<rect x="151" y="27" width="1" height="1" fill="#2f2f2e"/>
<rect x="170" y="27" width="1" height="1" fill="#2f2f2e"/>
<rect x="171" y="27" width="9" height="1" fill="#e0e0e0"/>
<rect x="180" y="27" width="1" height="1" fill="#2f2f2e"/>
<rect x="11" y="28" width="1" height="1" fill="#2f2f2e"/>
<rect x="12" y="28" width="9" height="1" fill="#e0e0e0"/>
<rect x="21" y="28" width="1" height="1" fill="#2f2f2e"/>
<rect x="43" y="28" width="1" height="1" fill="#2f2f2e"/>
<rect x="44" y="28" width="9" height="1" fill="#e0e0e0"/>
<rect x="53" y="28" width="1" height="1" fill="#2f2f2e"/>
<rect x="75" y="28" width="1" height="1" fill="#2f2f2e"/>
<rect x="76" y="28" width="8" height="1" fill="#e0e0e0"/>
<rect x="84" y="28" width="4" height="1" fill="#2f2f2e"/>
<rect x="107" y="28" width="1" height="1" fill="#2f2f2e"/>
<rect x="108" y="28" width="11" height="1" fill="#e0e0e0"/>
<rect x="119" y="28" width="1" height="1" fill="#2f2f2e"/>
<rect x="139" y="28" width="1" height="1" fill="#2f2f2e"/>
<rect x="140" y="28" width="8" height="1" fill="#e0e0e0"/>
<rect x="148" y="28" width="4" height="1" fill="#2f2f2e"/>
<rect x="171" y="28" width="1" height="1" fill="#2f2f2e"/>
<rect x="172" y="28" width="9" height="1" fill="#e0e0e0"/>
<rect x="181" y="28" width="1" height="1" fill="#2f2f2e"/>
<rect x="11" y="29" width="1" height="1" fill="#2f2f2e"/>
<rect x="12" y="29" width="1" height="1" fill="#e0e0e0"/>
<rect x="13" y="29" width="1" height="1" fill="#2f2f2e"/>
<rect x="14" y="29" width="3" height="1" fill="#e0e0e0"/>
<rect x="17" y="29" width="1" height="1" fill="#2f2f2e"/>
<rect x="18" y="29" width="1" height="1" fill="#e0e0e0"/>
<rect x="19" y="29" width="1" height="1" fill="#b5b5b5"/>
<rect x="20" y="29" width="1" height="1" fill="#e0e0e0"/>
<rect x="21" y="29" width="1" height="1" fill="#2f2f2e"/>
<rect x="43" y="29" width="1" height="1" fill="#2f2f2e"/>
<rect x="44" y="29" width="1" height="1" fill="#e0e0e0"/>
<rect x="45" y="29" width="1" height="1" fill="#2f2f2e"/>
<rect x="46" y="29" width="3" height="1" fill="#e0e0e0"/>
<rect x="49" y="29" width="1" height="1" fill="#2f2f2e"/>
<rect x="50" y="29" width="1" height="1" fill="#e0e0e0"/>
<rect x="51" y="29" width="1" height="1" fill="#2f2f2e"/>
<rect x="52" y="29" width="1" height="1" fill="#b5b5b5"/>
<rect x="53" y="29" width="1" height="1" fill="#e0e0e0"/>
<rect x="54" y="29" width="1" height="1" fill="#2f2f2e"/>
<rect x="75" y="29" width="1" height="1" fill="#2f2f2e"/>
<rect x="76" y="29" width="1" height="1" fill="#e0e0e0"/>
<rect x="77" y="29" width="1" height="1" fill="#2f2f2e"/>
<rect x="78" y="29" width="3" height="1" fill="#e0e0e0"/>
<rect x="81" y="29" width="1" height="1" fill="#2f2f2e"/>
<rect x="82" y="29" width="1" height="1" fill="#e0e0e0"/>
<rect x="83" y="29" width="1" height="1" fill="#2f2f2e"/>
<rect x="107" y="29" width="1" height="1" fill="#2f2f2e"/>
<rect x="108" y="29" width="1" height="1" fill="#e0e0e0"/>
<rect x="109" y="29" width="1" height="1" fill="#2f2f2e"/>
<rect x="110" y="29" width="3" height="1" fill="#e0e0e0"/>
<rect x="113" y="29" width="1" height="1" fill="#2f2f2e"/>
<rect x="114" y="29" width="1" height="1" fill="#e0e0e0"/>
<rect x="115" y="29" width="3" height="1" fill="#b5b5b5"/>
<rect x="118" y="29" width="1" height="1" fill="#e0e0e0"/>
<rect x="119" y="29" width="1" height="1" fill="#2f2f2e"/>
<rect x="139" y="29" width="1" height="1" fill="#2f2f2e"/>
<rect x="140" y="29" width="1" height="1" fill="#e0e0e0"/>
<rect x="141" y="29" width="1" height="1" fill="#2f2f2e"/>
<rect x="142" y="29" width="3" height="1" fill="#e0e0e0"/>
<rect x="145" y="29" width="1" height="1" fill="#2f2f2e"/>
<rect x="146" y="29" width="1" height="1" fill="#e0e0e0"/>
<rect x="147" y="29" width="1" height="1" fill="#2f2f2e"/>
<rect x="171" y="29" width="1" height="1" fill="#2f2f2e"/>
<rect x="172" y="29" width="1" height="1" fill="#e0e0e0"/>
<rect x="173" y="29" width="1" height="1" fill="#2f2f2e"/>
<rect x="174" y="29" width="3" height="1" fill="#e0e0e0"/>
<rect x="177" y="29" width="1" height="1" fill="#2f2f2e"/>
<rect x="178" y="29" width="1" height="1" fill="#e0e0e0"/>
<rect x="179" y="29" width="1" height="1" fill="#2f2f2e"/>
<rect x="180" y="29" width="1" height="1" fill="#b5b5b5"/>
<rect x="181" y="29" width="1" height="1" fill="#e0e0e0"/>
<rect x="182" y="29" width="1" height="1" fill="#2f2f2e"/>
<rect x="11" y="30" width="1" height="1" fill="#2f2f2e"/>
<rect x="12" y="30" width="1" height="1" fill="#b5b5b5"/>
<rect x="13" y="30" width="5" height="1" fill="#2f2f2e"/>
<rect x="18" y="30" width="1" height="1" fill="#e0e0e0"/>
<rect x="19" y="30" width="1" height="1" fill="#2f2f2e"/>
<rect x="20" y="30" width="1" height="1" fill="#e0e0e0"/>
<rect x="21" y="30" width="1" height="1" fill="#2f2f2e"/>
<rect x="43" y="30" width="1" height="1" fill="#2f2f2e"/>
<rect x="44" y="30" width="1" height="1" fill="#b5b5b5"/>
<rect x="45" y="30" width="5" height="1" fill="#2f2f2e"/>
<rect x="50" y="30" width="1" height="1" fill="#e0e0e0"/>
<rect x="51" y="30" width="4" height="1" fill="#2f2f2e"/>
<rect x="75" y="30" width="1" height="1" fill="#2f2f2e"/>
<rect x="76" y="30" width="1" height="1" fill="#b5b5b5"/>
<rect x="77" y="30" width="5" height="1" fill="#2f2f2e"/>
<rect x="82" y="30" width="1" height="1" fill="#e0e0e0"/>
<rect x="83" y="30" width="1" height="1" fill="#2f2f2e"/>
<rect x="107" y="30" width="1" height="1" fill="#2f2f2e"/>
<rect x="108" y="30" width="1" height="1" fill="#b5b5b5"/>
<rect x="109" y="30" width="5" height="1" fill="#2f2f2e"/>
<rect x="114" y="30" width="1" height="1" fill="#e0e0e0"/>
<rect x="115" y="30" width="3" height="1" fill="#2f2f2e"/>
<rect x="118" y="30" width="1" height="1" fill="#b5b5b5"/>
<rect x="119" y="30" width="1" height="1" fill="#e0e0e0"/>
<rect x="120" y="30" width="1" height="1" fill="#2f2f2e"/>
<rect x="139" y="30" width="1" height="1" fill="#2f2f2e"/>
<rect x="140" y="30" width="1" height="1" fill="#b5b5b5"/>
<rect x="141" y="30" width="5" height="1" fill="#2f2f2e"/>
<rect x="146" y="30" width="1" height="1" fill="#e0e0e0"/>
<rect x="147" y="30" width="1" height="1" fill="#2f2f2e"/>
<rect x="171" y="30" width="1" height="1" fill="#2f2f2e"/>
<rect x="172" y="30" width="1" height="1" fill="#b5b5b5"/>
<rect x="173" y="30" width="5" height="1" fill="#2f2f2e"/>
<rect x="178" y="30" width="1" height="1" fill="#e0e0e0"/>
<rect x="179" y="30" width="4" height="1" fill="#2f2f2e"/>
<rect x="11" y="31" width="2" height="1" fill="#2f2f2e"/>
<rect x="14" y="31" width="2" height="1" fill="#2f2f2e"/>
<rect x="17" y="31" width="2" height="1" fill="#2f2f2e"/>
<rect x="20" y="31" width="2" height="1" fill="#2f2f2e"/>
<rect x="43" y="31" width="2" height="1" fill="#2f2f2e"/>
<rect x="46" y="31" width="2" height="1" fill="#2f2f2e"/>
<rect x="49" y="31" width="2" height="1" fill="#2f2f2e"/>
<rect x="75" y="31" width="2" height="1" fill="#2f2f2e"/>
<rect x="78" y="31" width="2" height="1" fill="#2f2f2e"/>
<rect x="81" y="31" width="2" height="1" fill="#2f2f2e"/>
<rect x="107" y="31" width="2" height="1" fill="#2f2f2e"/>
<rect x="110" y="31" width="2" height="1" fill="#2f2f2e"/>
<rect x="113" y="31" width="2" height="1" fill="#2f2f2e"/>
<rect x="118" y="31" width="3" height="1" fill="#2f2f2e"/>
<rect x="139" y="31" width="2" height="1" fill="#2f2f2e"/>
<rect x="142" y="31" width="2" height="1" fill="#2f2f2e"/>
<rect x="145" y="31" width="2" height="1" fill="#2f2f2e"/>
<rect x="171" y="31" width="2" height="1" fill="#2f2f2e"/>
<rect x="174" y="31" width="2" height="1" fill="#2f2f2e"/>
<rect x="177" y="31" width="2" height="1" fill="#2f2f2e"/>
</svg>
