<?xml version="1.0" encoding="UTF-8"?>
<svg xmlns="http://www.w3.org/2000/svg" viewBox="0 0 64 64" width="64" height="64">
  <g transform="scale(0.125 0.125) translate(0.000000,512.000000) scale(1.000000,-1.000000)" fill="#ffffff" stroke="none"><path d="M192 484 l-3 -4 -9 0 -9 0 -3 -4 c-3 -4 -4 -4 -8 -4 -4 0 -5 0 -8 -4
-3 -4 -4 -4 -8 -4 -4 0 -5 0 -8 -4 -3 -4 -4 -4 -8 -4 -4 0 -4 0 -16 -12 -12
-12 -12 -12 -16 -12 -6 0 -8 -2 -8 -8 0 -4 0 -5 -12 -16 -12 -12 -12 -12 -12
-16 0 -4 0 -5 -4 -8 l-4 -3 0 -9 0 -9 -4 -3 -4 -3 0 -49 0 -49 4 -3 c4 -3 4
-4 4 -8 0 -4 0 -5 4 -8 4 -3 4 -4 4 -8 0 -4 0 -5 4 -8 4 -3 4 -4 4 -8 l0 -4
22 -22 c22 -22 22 -22 26 -22 4 0 5 0 12 -8 7 -8 8 -8 12 -8 4 0 5 0 8 -4 l3
-4 9 0 9 0 3 -4 c3 -4 4 -4 8 -4 6 0 16 -10 16 -16 0 -4 0 -5 8 -12 8 -7 8 -8
8 -12 0 -4 0 -5 4 -8 4 -3 4 -4 4 -8 0 -4 0 -5 4 -8 4 -3 4 -4 4 -8 0 -4 0 -5
8 -12 8 -7 8 -8 8 -12 0 -3 1 -5 2 -6 2 -2 2 -2 8 4 6 5 6 6 6 10 0 4 0 5 4 8
4 3 4 4 4 8 0 4 0 5 8 12 8 7 8 8 8 12 0 4 0 5 4 8 4 3 4 4 4 8 0 4 0 5 4 8 4
3 4 4 4 8 0 4 0 5 6 10 5 6 6 6 10 6 4 0 5 0 8 4 l3 4 9 0 9 0 3 4 c3 4 4 4 8
4 4 0 5 0 12 8 7 8 8 8 12 8 4 0 4 0 26 22 22 22 22 22 22 26 0 4 0 5 8 12 l8
8 0 8 0 9 4 3 4 3 0 9 0 9 4 3 4 3 0 25 0 25 -4 3 -4 3 0 13 0 13 -4 3 c-4 3
-4 4 -4 8 0 4 0 5 -4 8 -4 3 -4 4 -4 8 0 4 0 5 -8 12 -8 7 -8 8 -8 12 0 4 0 5
-10 14 -9 10 -10 10 -14 10 -4 0 -5 0 -12 8 -7 8 -8 8 -12 8 -4 0 -5 0 -8 4
-3 4 -4 4 -8 4 -4 0 -5 0 -8 4 -3 4 -4 4 -8 4 -4 0 -5 0 -8 4 l-3 4 -9 0 -9 0
-3 4 -3 4 -57 0 -57 0 -3 -4z"/></g>
  <g transform="scale(0.125 0.125) translate(0.000000,512.000000) scale(1.000000,-1.000000)" fill="#2d2d2d" stroke="none"><path d="M192 484 l-3 -4 -9 0 -9 0 -3 -4 c-3 -4 -4 -4 -8 -4 -4 0 -5 0 -8 -4
-3 -4 -4 -4 -8 -4 -4 0 -5 0 -8 -4 -3 -4 -4 -4 -8 -4 -4 0 -4 0 -16 -12 -12
-12 -12 -12 -16 -12 -6 0 -8 -2 -8 -8 0 -4 0 -5 -12 -16 -12 -12 -12 -12 -12
-16 0 -4 0 -5 -4 -8 l-4 -3 0 -9 0 -9 -4 -3 -4 -3 0 -49 0 -49 4 -3 c4 -3 4
-4 4 -8 0 -4 0 -5 4 -8 4 -3 4 -4 4 -8 0 -4 0 -5 4 -8 4 -3 4 -4 4 -8 l0 -4
22 -22 c22 -22 22 -22 26 -22 4 0 5 0 12 -8 7 -8 8 -8 12 -8 4 0 5 0 8 -4 l3
-4 9 0 9 0 3 -4 c3 -4 4 -4 8 -4 6 0 16 -10 16 -16 0 -4 0 -5 8 -12 8 -7 8 -8
8 -12 0 -4 0 -5 4 -8 4 -3 4 -4 4 -8 0 -4 0 -5 4 -8 4 -3 4 -4 4 -8 0 -4 0 -5
8 -12 8 -7 8 -8 8 -12 0 -3 1 -5 2 -6 2 -2 2 -2 8 4 6 5 6 6 6 10 0 4 0 5 4 8
4 3 4 4 4 8 0 4 0 5 8 12 8 7 8 8 8 12 0 4 0 5 4 8 4 3 4 4 4 8 0 4 0 5 4 8 4
3 4 4 4 8 0 4 0 5 6 10 5 6 6 6 10 6 4 0 5 0 8 4 l3 4 9 0 9 0 3 4 c3 4 4 4 8
4 4 0 5 0 12 8 7 8 8 8 12 8 4 0 4 0 26 22 22 22 22 22 22 26 0 4 0 5 8 12 l8
8 0 8 0 9 4 3 4 3 0 9 0 9 4 3 4 3 0 25 0 25 -4 3 -4 3 0 13 0 13 -4 3 c-4 3
-4 4 -4 8 0 4 0 5 -4 8 -4 3 -4 4 -4 8 0 4 0 5 -8 12 -8 7 -8 8 -8 12 0 4 0 5
-10 14 -9 10 -10 10 -14 10 -4 0 -5 0 -12 8 -7 8 -8 8 -12 8 -4 0 -5 0 -8 4
-3 4 -4 4 -8 4 -4 0 -5 0 -8 4 -3 4 -4 4 -8 4 -4 0 -5 0 -8 4 l-3 4 -9 0 -9 0
-3 4 -3 4 -57 0 -57 0 -3 -4z m64 -8 l3 -4 21 0 21 0 3 -4 3 -4 9 0 9 0 3 -4
c3 -4 4 -4 8 -4 4 0 5 0 8 -4 3 -4 4 -4 8 -4 4 0 5 0 12 -8 7 -8 8 -8 12 -8 4
0 5 0 18 -14 14 -13 14 -14 14 -18 0 -4 0 -5 8 -12 8 -7 8 -8 8 -12 0 -4 0 -5
4 -8 4 -3 4 -4 4 -8 0 -4 0 -5 4 -8 l4 -3 0 -37 0 -37 -4 -3 -4 -3 0 -9 0 -8
-8 -8 c-8 -7 -8 -8 -8 -12 0 -4 0 -4 -22 -26 l-22 -22 -4 0 c-4 0 -5 0 -8 -4
-3 -4 -4 -4 -8 -4 -4 0 -5 0 -8 -4 -3 -4 -4 -4 -8 -4 -4 0 -5 0 -8 -4 l-3 -4
-9 0 -8 0 -6 -6 c-6 -5 -6 -6 -6 -10 0 -4 0 -5 -4 -8 -4 -3 -4 -4 -4 -8 0 -4
0 -5 -8 -12 -8 -7 -8 -8 -8 -12 0 -4 0 -5 -8 -12 -8 -7 -8 -8 -8 -12 0 -3 -1
-5 -2 -6 -3 -3 -6 0 -6 6 0 4 0 5 -8 12 -8 7 -8 8 -8 12 0 4 0 5 -4 8 -4 3 -4
4 -4 8 0 4 0 5 -4 8 -4 3 -4 4 -4 8 0 4 0 4 -10 14 l-10 10 -8 0 -9 0 -3 4
c-3 4 -4 4 -8 4 -4 0 -5 0 -8 4 -3 4 -4 4 -8 4 -4 0 -5 0 -12 8 -7 8 -8 8 -12
8 -4 0 -4 0 -22 18 -18 18 -18 18 -18 22 0 4 0 5 -4 8 -4 3 -4 4 -4 8 0 4 0 5
-4 8 -4 3 -4 4 -4 8 0 4 0 5 -4 8 l-4 3 0 37 0 37 4 3 4 3 0 9 0 8 12 12 c12
11 12 12 12 16 0 4 1 5 10 14 9 9 10 10 14 10 4 0 5 0 16 12 12 12 12 12 16
12 4 0 5 0 8 4 3 4 4 4 8 4 4 0 5 0 8 4 l3 4 9 0 9 0 3 4 3 4 21 0 21 0 3 4
c2 2 4 4 4 4 0 0 2 -2 4 -4z"/><path d="M178 406 c-1 -1 -2 -3 -2 -6 0 -4 0 -5 -8 -12 l-8 -8 0 -12 0 -13 4
-3 4 -3 0 -9 0 -9 4 -3 c4 -3 4 -4 4 -8 0 -4 0 -4 16 -20 16 -16 16 -16 16
-20 0 -4 0 -5 8 -12 8 -7 8 -8 8 -12 0 -4 0 -5 8 -12 8 -7 8 -8 8 -12 0 -4 0
-5 4 -8 4 -3 4 -4 4 -8 0 -3 1 -5 2 -6 3 -3 6 0 6 6 0 4 0 5 4 8 4 3 4 4 4 8
0 4 0 5 8 12 8 7 8 8 8 12 0 4 0 5 8 12 8 7 8 8 8 12 0 4 0 4 16 20 16 16 16
16 16 20 0 4 0 5 4 8 4 3 4 4 4 8 0 4 0 5 4 8 l4 3 0 17 0 17 -4 3 c-4 3 -4 4
-4 8 0 4 0 5 -6 10 l-6 6 -24 0 -24 0 -12 -12 -12 -12 -12 12 -12 12 -24 0
c-23 0 -25 0 -26 -2z"/><path d="M249 142 c-1 -2 -1 -2 1 -4 l2 -2 2 2 c2 2 2 2 1 4 -1 1 -3 2 -3 2 0
0 -2 -1 -3 -2z"/></g>
  <g transform="scale(0.125 0.125) translate(0.000000,512.000000) scale(1.000000,-1.000000)" fill="#ff2994" stroke="none"><path d="M202 478 c-1 -1 -2 -3 -2 -4 0 -2 0 -2 -10 -2 -12 0 -14 -1 -14 -6 0
-2 0 -2 -10 -2 l-11 0 -3 -4 c-3 -4 -4 -4 -8 -4 -4 0 -5 0 -12 -8 -7 -8 -8 -8
-12 -8 -4 0 -4 0 -22 -18 -18 -18 -18 -18 -18 -22 0 -4 0 -5 -8 -12 -8 -7 -8
-8 -8 -12 0 -4 0 -5 -4 -8 l-4 -3 0 -13 0 -13 -4 -3 -4 -3 0 -25 0 -25 4 -3 4
-3 0 -9 0 -9 4 -3 c4 -3 4 -4 4 -8 0 -4 0 -5 4 -8 4 -3 4 -4 4 -8 l0 -4 30
-30 30 -30 4 0 c4 0 5 0 8 -4 3 -4 4 -4 8 -4 6 0 8 -2 8 -8 0 -3 1 -5 2 -7 2
-1 2 -1 6 3 3 4 4 4 8 4 6 0 8 -2 8 -8 0 -4 0 -5 8 -12 8 -7 8 -8 8 -12 0 -4
0 -5 8 -12 8 -7 8 -8 8 -12 0 -4 0 -5 4 -8 4 -3 4 -4 4 -8 0 -4 0 -5 4 -8 4
-3 4 -4 4 -8 0 -4 0 -5 8 -12 8 -7 8 -8 8 -12 0 -3 1 -5 2 -6 2 -2 2 -2 8 4 6
5 6 6 6 10 0 4 0 5 4 8 4 3 4 4 4 8 0 4 0 5 8 12 8 7 8 8 8 12 0 4 0 5 4 8 4
3 4 4 4 8 0 4 0 5 4 8 4 3 4 4 4 8 0 4 0 5 8 12 8 7 8 8 8 12 0 6 2 8 8 8 4 0
5 0 8 -4 4 -4 4 -4 6 -3 1 2 2 4 2 7 0 3 1 5 2 7 2 1 2 1 6 -3 4 -4 4 -4 6 -3
1 2 2 4 2 7 0 6 2 8 8 8 4 0 5 0 16 12 12 12 12 12 16 12 6 0 8 2 8 8 0 4 0 5
12 16 12 12 12 12 12 16 0 4 0 5 4 8 4 3 4 4 4 8 0 4 0 5 4 8 l4 3 0 13 c0 15
1 16 8 16 8 0 8 1 8 20 l0 16 -8 8 -8 8 0 12 0 13 -4 3 c-4 3 -4 4 -4 8 0 4 0
5 -8 12 -8 7 -8 8 -8 12 0 4 0 4 -18 22 -18 18 -18 18 -22 18 -4 0 -5 0 -12 8
-7 8 -8 8 -12 8 -4 0 -5 0 -8 4 l-3 4 -11 0 c-10 0 -10 0 -10 2 0 5 -3 6 -14
6 -10 0 -10 0 -10 2 0 6 -2 6 -24 6 -19 0 -21 0 -22 -2 -2 -2 -2 -2 0 -4 1 -2
3 -2 24 -2 l22 0 0 -2 c0 -5 3 -6 14 -6 10 0 10 0 10 -2 0 -4 3 -6 8 -6 4 0 5
0 8 -4 3 -4 4 -4 8 -4 4 0 5 0 12 -8 7 -8 8 -8 12 -8 4 0 5 0 18 -14 14 -13
14 -14 14 -18 0 -4 0 -5 8 -12 8 -7 8 -8 8 -12 0 -4 0 -5 4 -8 4 -3 4 -4 4 -8
0 -4 0 -5 4 -8 l4 -3 0 -37 0 -37 -4 -3 -4 -3 0 -9 0 -8 -8 -8 c-8 -7 -8 -8
-8 -12 0 -4 0 -4 -22 -26 l-22 -22 -4 0 c-4 0 -5 0 -8 -4 -3 -4 -4 -4 -8 -4
-4 0 -5 0 -8 -4 -3 -4 -4 -4 -8 -4 -4 0 -5 0 -8 -4 l-3 -4 -9 0 -8 0 -6 -6
c-6 -5 -6 -6 -6 -10 0 -4 0 -5 -4 -8 -4 -3 -4 -4 -4 -8 0 -4 0 -5 -8 -12 -8
-7 -8 -8 -8 -12 0 -4 0 -5 -8 -12 -8 -7 -8 -8 -8 -12 0 -3 -1 -5 -2 -6 -3 -3
-6 0 -6 6 0 4 0 5 -8 12 -8 7 -8 8 -8 12 0 4 0 5 -4 8 -4 3 -4 4 -4 8 0 4 0 5
-4 8 -4 3 -4 4 -4 8 0 4 0 4 -10 14 l-10 10 -8 0 -9 0 -3 4 c-3 4 -4 4 -8 4
-4 0 -5 0 -8 4 -3 4 -4 4 -8 4 -4 0 -5 0 -12 8 -7 8 -8 8 -12 8 -4 0 -4 0 -22
18 -18 18 -18 18 -18 22 0 4 0 5 -4 8 -4 3 -4 4 -4 8 0 4 0 5 -4 8 -4 3 -4 4
-4 8 0 4 0 5 -4 8 l-4 3 0 37 0 37 4 3 4 3 0 9 0 8 12 12 c12 11 12 12 12 16
0 4 1 5 10 14 9 9 10 10 14 10 4 0 5 0 16 12 12 12 12 12 16 12 4 0 5 0 8 4 3
4 4 4 8 4 5 0 8 2 8 6 0 2 0 2 10 2 12 0 14 1 14 6 0 2 0 2 22 2 21 0 23 0 25
2 1 2 1 2 0 4 -3 3 -43 3 -45 0z"/><path d="M178 406 c-1 -1 -2 -3 -2 -6 0 -4 0 -5 -4 -8 -3 -2 -4 -4 -4 -6 0 -1
-1 -2 -2 -2 -5 0 -6 -3 -6 -16 0 -16 0 -16 12 -16 7 0 9 0 11 -2 2 -3 -1 -6
-7 -6 -6 0 -8 -2 -8 -8 0 -4 0 -5 4 -8 4 -3 4 -4 4 -8 0 -5 2 -8 6 -8 1 0 2
-1 2 -2 0 -2 4 -6 12 -14 12 -12 12 -12 12 -16 0 -5 2 -8 6 -8 1 0 2 -1 2 -2
0 -2 1 -4 4 -6 4 -3 4 -4 4 -8 0 -5 2 -8 6 -8 1 0 2 -1 2 -2 0 -2 1 -4 4 -6 4
-3 4 -4 4 -8 0 -4 0 -5 4 -8 4 -3 4 -4 4 -8 0 -6 3 -9 6 -6 1 1 2 3 2 6 0 4 0
5 4 8 l5 4 -5 4 c-6 5 -6 8 2 8 l6 0 6 6 c5 5 6 6 6 10 0 4 0 5 8 12 l9 8 -5
4 c-4 4 -4 4 -3 6 2 1 4 2 7 2 4 0 4 0 14 10 6 6 10 11 10 12 0 1 1 2 2 2 4 0
6 3 6 8 0 4 0 5 4 8 l5 4 -5 4 c-4 4 -4 4 -3 6 2 1 4 2 7 2 8 0 8 1 8 20 0 19
0 20 -8 20 -5 0 -8 2 -8 6 0 1 1 2 2 2 2 0 4 1 5 2 1 2 1 2 0 4 -1 1 -3 2 -5
2 -1 0 -2 1 -2 2 0 4 -3 6 -8 6 -4 0 -5 0 -8 -4 l-4 -4 -4 4 -3 4 -13 0 -12 0
-10 -10 c-6 -6 -10 -11 -10 -12 0 -5 -4 -2 -16 10 l-12 12 -24 0 c-23 0 -25 0
-26 -2z m150 -10 c0 -5 -3 -6 -6 -2 -2 2 -2 2 0 4 3 4 6 3 6 -2z m-98 -6 c1
-1 2 -2 2 -4 0 -1 1 -2 2 -2 2 0 4 -1 5 -2 1 -2 1 -2 -1 -4 -2 -2 -2 -2 -4 -1
-1 1 -2 3 -2 5 0 1 -1 2 -2 2 -2 0 -4 1 -4 2 -2 2 -2 2 0 4 2 2 2 2 4 0z m-56
-8 c1 -1 2 -2 2 -4 0 -1 1 -2 2 -2 2 0 4 -1 5 -2 1 -2 1 -2 -1 -4 -2 -2 -2 -2
-4 -1 -1 1 -2 3 -2 5 0 1 -1 2 -2 2 -3 0 -6 3 -6 6 0 3 3 3 6 0z m89 0 c1 -2
1 -2 -1 -4 -2 -2 -2 -2 -4 -1 -3 3 -3 7 0 7 2 0 4 -1 5 -2z m-16 -16 c1 -2 1
-2 -1 -4 l-2 -2 -2 2 c-2 2 -2 2 -1 4 1 1 3 2 3 2 0 0 2 -1 3 -2z m-56 -32 c1
-2 1 -2 -1 -4 l-2 -2 -2 2 c-2 2 -2 2 -1 4 1 1 3 2 3 2 0 0 2 -1 3 -2z m0 -16
c1 -2 1 -2 0 -4 -3 -3 -7 -3 -7 0 0 2 3 6 4 6 0 0 2 -1 3 -2z m127 0 c1 -1 2
-2 2 -4 0 -3 -4 -3 -6 0 -2 2 -2 2 0 4 2 2 2 2 4 0z m-111 -8 c1 -2 1 -2 -1
-4 l-2 -2 -2 2 c-2 2 -2 2 -1 4 1 1 3 2 3 2 0 0 2 -1 3 -2z m96 0 c1 -2 1 -2
-1 -4 l-2 -2 -2 2 c-2 2 -2 2 -1 4 1 1 3 2 3 2 0 0 2 -1 3 -2z m-80 -32 c1 -2
1 -2 0 -4 -3 -3 -7 -3 -7 0 0 2 3 6 4 6 0 0 2 -1 3 -2z m56 0 c1 -2 1 -2 -1
-4 l-2 -2 -2 2 c-2 2 -2 2 -1 4 1 1 3 2 3 2 0 0 2 -1 3 -2z m-33 -24 c1 -1 2
-2 2 -4 0 -1 1 -2 2 -2 3 0 6 -3 6 -6 0 -1 -1 -2 -2 -2 -3 0 -6 3 -6 6 0 2 0
2 -8 2 -8 0 -8 0 -8 2 0 6 10 8 14 4z"/><path d="M249 142 c-1 -2 -1 -2 1 -4 l2 -2 2 2 c2 2 2 2 1 4 -1 1 -3 2 -3 2 0
0 -2 -1 -3 -2z"/></g>
  <g transform="scale(0.125 0.125) translate(0.000000,512.000000) scale(1.000000,-1.000000)" fill="#7f7f7f" stroke="none"><path d="M202 478 c-1 -1 -2 -3 -2 -4 0 -2 0 -2 -10 -2 -12 0 -14 -1 -14 -6 0
-2 0 -2 -10 -2 l-11 0 -3 -4 c-3 -4 -4 -4 -8 -4 -4 0 -5 0 -12 -8 -7 -8 -8 -8
-12 -8 -4 0 -4 0 -22 -18 -18 -18 -18 -18 -18 -22 0 -4 0 -5 -8 -12 -8 -7 -8
-8 -8 -12 0 -4 0 -5 -4 -8 l-4 -3 0 -13 0 -13 -4 -3 -4 -3 0 -25 0 -25 4 -3 4
-3 0 -9 0 -9 4 -3 c4 -3 4 -4 4 -8 0 -4 0 -5 4 -8 4 -3 4 -4 4 -8 l0 -4 30
-30 30 -30 4 0 c4 0 5 0 8 -4 3 -4 4 -4 8 -4 6 0 8 -2 8 -8 0 -3 1 -5 2 -7 2
-1 2 -1 6 3 3 4 4 4 8 4 6 0 8 -2 8 -8 0 -4 0 -5 8 -12 8 -7 8 -8 8 -12 0 -4
0 -5 8 -12 8 -7 8 -8 8 -12 0 -4 0 -5 4 -8 4 -3 4 -4 4 -8 0 -4 0 -5 4 -8 4
-3 4 -4 4 -8 0 -4 0 -5 8 -12 8 -7 8 -8 8 -12 0 -3 1 -5 2 -6 2 -2 2 -2 8 4 6
5 6 6 6 10 0 4 0 5 4 8 4 3 4 4 4 8 0 4 0 5 8 12 8 7 8 8 8 12 0 4 0 5 4 8 4
3 4 4 4 8 0 4 0 5 4 8 4 3 4 4 4 8 0 4 0 5 8 12 8 7 8 8 8 12 0 6 2 8 8 8 4 0
5 0 8 -4 4 -4 4 -4 6 -3 1 2 2 4 2 7 0 3 1 5 2 7 2 1 2 1 6 -3 4 -4 4 -4 6 -3
1 2 2 4 2 7 0 6 2 8 8 8 4 0 5 0 16 12 12 12 12 12 16 12 6 0 8 2 8 8 0 4 0 5
12 16 12 12 12 12 12 16 0 4 0 5 4 8 4 3 4 4 4 8 0 4 0 5 4 8 l4 3 0 13 c0 15
1 16 8 16 8 0 8 1 8 20 l0 16 -8 8 -8 8 0 12 0 13 -4 3 c-4 3 -4 4 -4 8 0 4 0
5 -8 12 -8 7 -8 8 -8 12 0 4 0 4 -18 22 -18 18 -18 18 -22 18 -4 0 -5 0 -12 8
-7 8 -8 8 -12 8 -4 0 -5 0 -8 4 l-3 4 -11 0 c-10 0 -10 0 -10 2 0 5 -3 6 -14
6 -10 0 -10 0 -10 2 0 6 -2 6 -24 6 -19 0 -21 0 -22 -2 -2 -2 -2 -2 0 -4 1 -2
3 -2 24 -2 l22 0 0 -2 c0 -5 3 -6 14 -6 10 0 10 0 10 -2 0 -4 3 -6 8 -6 4 0 5
0 8 -4 3 -4 4 -4 8 -4 4 0 5 0 12 -8 7 -8 8 -8 12 -8 4 0 5 0 18 -14 14 -13
14 -14 14 -18 0 -4 0 -5 8 -12 8 -7 8 -8 8 -12 0 -4 0 -5 4 -8 4 -3 4 -4 4 -8
0 -4 0 -5 4 -8 l4 -3 0 -37 0 -37 -4 -3 -4 -3 0 -9 0 -8 -8 -8 c-8 -7 -8 -8
-8 -12 0 -4 0 -4 -22 -26 l-22 -22 -4 0 c-4 0 -5 0 -8 -4 -3 -4 -4 -4 -8 -4
-4 0 -5 0 -8 -4 -3 -4 -4 -4 -8 -4 -4 0 -5 0 -8 -4 l-3 -4 -9 0 -8 0 -6 -6
c-6 -5 -6 -6 -6 -10 0 -4 0 -5 -4 -8 -4 -3 -4 -4 -4 -8 0 -4 0 -5 -8 -12 -8
-7 -8 -8 -8 -12 0 -4 0 -5 -8 -12 -8 -7 -8 -8 -8 -12 0 -3 -1 -5 -2 -6 -3 -3
-6 0 -6 6 0 4 0 5 -8 12 -8 7 -8 8 -8 12 0 4 0 5 -4 8 -4 3 -4 4 -4 8 0 4 0 5
-4 8 -4 3 -4 4 -4 8 0 4 0 4 -10 14 l-10 10 -8 0 -9 0 -3 4 c-3 4 -4 4 -8 4
-4 0 -5 0 -8 4 -3 4 -4 4 -8 4 -4 0 -5 0 -12 8 -7 8 -8 8 -12 8 -4 0 -4 0 -22
18 -18 18 -18 18 -18 22 0 4 0 5 -4 8 -4 3 -4 4 -4 8 0 4 0 5 -4 8 -4 3 -4 4
-4 8 0 4 0 5 -4 8 l-4 3 0 37 0 37 4 3 4 3 0 9 0 8 12 12 c12 11 12 12 12 16
0 4 1 5 10 14 9 9 10 10 14 10 4 0 5 0 16 12 12 12 12 12 16 12 4 0 5 0 8 4 3
4 4 4 8 4 5 0 8 2 8 6 0 2 0 2 10 2 12 0 14 1 14 6 0 2 0 2 22 2 21 0 23 0 25
2 1 2 1 2 0 4 -3 3 -43 3 -45 0z"/><path d="M178 406 c-1 -1 -2 -3 -2 -6 0 -4 0 -5 -4 -8 -3 -2 -4 -4 -4 -6 0 -1
-1 -2 -2 -2 -5 0 -6 -3 -6 -16 0 -16 -1 -16 16 -16 14 0 16 -1 16 -6 0 -2 0
-2 -10 -2 -13 0 -14 -1 -14 -8 0 -4 0 -5 4 -8 4 -3 4 -4 4 -8 0 -5 2 -8 6 -8
1 0 2 -1 2 -2 0 -2 4 -6 12 -14 12 -12 12 -12 12 -16 0 -5 2 -8 6 -8 1 0 2 -1
2 -2 0 -2 1 -4 4 -6 4 -3 4 -4 4 -8 0 -5 2 -8 6 -8 1 0 2 -1 2 -2 0 -2 1 -4 4
-6 4 -3 4 -4 4 -8 0 -4 0 -5 4 -8 4 -3 4 -4 4 -8 0 -6 3 -9 6 -6 1 1 2 3 2 6
0 4 0 5 4 8 l5 4 -5 4 c-6 5 -6 8 2 8 l6 0 6 6 c5 5 6 6 6 10 0 4 0 5 8 12 l9
8 -5 4 c-6 5 -6 8 2 8 l6 0 10 10 c6 6 10 11 10 12 0 1 1 2 2 2 4 0 6 3 6 8 0
4 0 5 4 8 l5 4 -5 4 c-4 4 -4 4 -3 6 2 1 4 2 7 2 8 0 8 1 8 20 0 19 0 20 -8
20 -5 0 -8 2 -8 6 0 1 1 2 2 2 2 0 4 1 5 2 1 2 1 2 0 4 -1 1 -3 2 -5 2 -1 0
-2 1 -2 2 0 4 -3 6 -8 6 -4 0 -5 0 -8 -4 l-4 -4 -4 4 -3 4 -13 0 -12 0 -10
-10 c-6 -6 -10 -11 -10 -12 0 -5 -4 -2 -16 10 l-12 12 -24 0 c-23 0 -25 0 -26
-2z m150 -10 c0 -5 -3 -6 -6 -2 -2 2 -2 2 0 4 3 4 6 3 6 -2z m-98 -6 c1 -1 2
-2 2 -4 0 -1 1 -2 2 -2 2 0 4 -1 5 -2 1 -2 1 -2 -1 -4 -2 -2 -2 -2 -4 -1 -1 1
-2 3 -2 5 0 1 -1 2 -2 2 -2 0 -4 1 -4 2 -2 2 -2 2 0 4 2 2 2 2 4 0z m-56 -8
c1 -1 2 -2 2 -4 0 -1 1 -2 2 -2 2 0 4 -1 5 -2 1 -2 1 -2 -1 -4 -2 -2 -2 -2 -4
-1 -1 1 -2 3 -2 5 0 1 -1 2 -2 2 -3 0 -6 3 -6 6 0 3 3 3 6 0z m89 0 c1 -2 1
-2 -1 -4 -2 -2 -2 -2 -4 -1 -3 3 -3 7 0 7 2 0 4 -1 5 -2z m-16 -16 c1 -2 1 -2
-1 -4 l-2 -2 -2 2 c-2 2 -2 2 -1 4 1 1 3 2 3 2 0 0 2 -1 3 -2z m9 -18 l3 -4
25 0 25 0 3 4 c4 4 4 4 6 3 1 -2 2 -4 2 -7 0 -4 0 -5 -4 -8 -4 -3 -4 -3 -4
-10 0 -6 0 -6 2 -6 3 0 6 -3 6 -6 0 -1 -1 -2 -2 -2 -3 0 -6 3 -6 6 0 1 -1 2
-2 2 -4 0 -6 -3 -6 -8 0 -6 -2 -8 -8 -8 -6 0 -8 -2 -8 -10 0 -6 0 -6 -2 -6 -4
0 -6 -3 -6 -8 0 -6 -2 -8 -8 -8 -6 0 -8 -2 -8 -8 0 -4 0 -5 -4 -8 -4 -3 -4 -3
-4 -10 0 -6 0 -6 -2 -6 -2 0 -4 1 -6 4 -3 4 -3 4 -10 4 -6 0 -6 0 -6 2 0 2 1
4 4 6 4 3 4 4 4 8 0 4 0 5 -6 10 -6 6 -10 8 -10 4 0 -3 -3 -6 -6 -6 -1 0 -2 1
-2 2 0 3 3 6 6 6 2 0 2 0 2 6 l0 6 -6 6 c-5 5 -6 6 -10 6 -7 0 -8 2 -8 12 0
10 -1 12 -8 12 -3 0 -5 1 -7 2 -1 2 -1 2 3 6 2 2 4 4 4 6 l0 2 26 0 27 0 3 4
c2 2 4 4 4 4 0 0 2 -2 4 -4z m-65 -30 c1 -2 1 -2 0 -4 -3 -3 -7 -3 -7 0 0 2 3
6 4 6 0 0 2 -1 3 -2z"/><path d="M249 142 c-1 -2 -1 -2 1 -4 l2 -2 2 2 c2 2 2 2 1 4 -1 1 -3 2 -3 2 0
0 -2 -1 -3 -2z"/></g>
  <g transform="scale(0.125 0.125) translate(0.000000,512.000000) scale(1.000000,-1.000000)" fill="#cacaca" stroke="none"><path d="M202 478 c-1 -1 -2 -3 -2 -4 0 -2 0 -2 -6 -2 -8 0 -12 -3 -8 -6 4 -5
14 -2 14 4 0 1 1 2 2 2 2 0 4 1 5 2 1 2 1 2 0 4 -3 2 -3 2 -5 0z"/><path d="M218 478 c-2 -2 -2 -2 0 -4 1 -2 3 -2 14 -2 11 0 13 0 15 2 1 2 1 2
0 4 -2 2 -4 2 -15 2 -11 0 -13 0 -14 -2z"/><path d="M258 478 c-2 -2 -2 -2 0 -4 1 -2 3 -2 14 -2 11 0 13 0 15 2 1 2 1 2
0 4 -2 2 -4 2 -15 2 -11 0 -13 0 -14 -2z"/><path d="M306 470 c-3 -3 0 -6 6 -6 6 0 9 3 7 6 -2 1 -4 2 -7 2 -3 0 -5 -1 -6
-2z"/><path d="M162 462 c-1 -1 -2 -3 -2 -4 0 -2 0 -2 -6 -2 -7 0 -10 -2 -10 -6 0
-1 -1 -2 -2 -2 -3 0 -6 -3 -6 -6 0 -2 0 -2 -10 -2 -13 0 -14 -1 -14 -10 0 -6
0 -6 -2 -6 -3 0 -6 -3 -6 -6 0 -1 -1 -2 -2 -2 -3 0 -6 -3 -6 -6 0 -2 0 -2 -6
-2 -9 0 -10 -1 -10 -14 l0 -10 -6 0 c-8 0 -12 -3 -8 -6 4 -5 14 -2 14 4 0 1 1
2 2 2 1 0 5 2 8 6 l6 6 0 6 c0 6 0 6 2 6 3 0 6 3 6 6 0 1 1 2 2 2 3 0 6 3 6 6
0 2 1 2 6 2 l6 0 6 6 c4 3 6 7 6 8 0 1 1 2 2 2 3 0 6 3 6 6 0 2 0 2 6 2 7 0
10 2 10 6 0 2 0 2 6 2 8 0 12 3 9 6 -3 3 -11 3 -13 0z"/><path d="M330 462 c-4 -3 0 -6 8 -6 6 0 6 0 6 -2 0 -4 3 -6 10 -6 6 0 6 0 6
-2 0 -3 3 -6 6 -6 1 0 2 -1 2 -2 0 -4 3 -6 10 -6 6 0 6 0 6 -2 0 -3 3 -6 6 -6
1 0 2 -1 2 -2 0 -3 3 -6 6 -6 1 0 2 -1 2 -2 0 -3 3 -6 6 -6 2 0 2 -1 2 -6 l0
-6 6 -6 c3 -4 7 -6 8 -6 2 0 2 -1 2 -6 0 -7 2 -10 6 -10 2 0 2 0 2 -6 0 -5 0
-7 2 -8 2 -2 2 -2 8 4 6 6 6 6 4 8 -1 2 -3 2 -8 2 -8 0 -8 2 -2 8 4 4 4 4 3 6
-2 2 -3 2 -9 2 l-6 0 0 10 c0 13 -1 14 -10 14 -6 0 -6 0 -6 2 0 3 -3 6 -6 6
-1 0 -2 1 -2 2 0 3 -3 6 -6 6 -1 0 -2 1 -2 2 0 3 -3 6 -6 6 -1 0 -2 1 -2 2 0
4 -3 6 -10 6 -6 0 -6 0 -6 2 0 3 -3 6 -6 6 -1 0 -2 1 -2 2 0 4 -3 6 -10 6 -6
0 -6 0 -6 2 0 6 -10 8 -14 4z"/><path d="M177 406 c-1 -2 -1 -2 3 -6 l5 -4 -5 -4 c-4 -3 -4 -4 -4 -10 0 -8 -2
-8 -8 -2 -4 4 -4 4 -6 3 -2 -2 -2 -3 -2 -15 0 -17 -1 -16 16 -16 14 0 16 -1
16 -6 0 -2 -1 -2 -6 -2 l-6 0 -6 -6 -6 -6 4 -4 c4 -3 4 -4 4 -8 0 -5 2 -8 6
-8 1 0 2 -1 2 -2 0 -1 2 -5 6 -8 5 -5 6 -6 10 -6 4 0 5 -1 10 -6 6 -6 8 -10 4
-10 -2 0 -4 -1 -4 -2 -2 -2 -2 -2 0 -4 0 -1 2 -2 4 -2 1 0 2 -1 2 -2 0 -2 1
-4 4 -6 4 -3 4 -4 4 -8 0 -5 2 -8 6 -8 1 0 2 -1 2 -2 0 -2 1 -4 4 -6 4 -3 4
-4 4 -8 0 -4 0 -5 4 -8 4 -3 4 -4 4 -8 0 -6 3 -9 6 -6 1 1 2 3 2 6 0 4 0 5 4
8 l5 4 -5 4 c-6 5 -6 8 2 8 l6 0 6 6 6 6 -4 4 c-4 4 -4 4 -3 6 2 1 4 2 7 2 4
0 5 0 10 6 l6 6 -4 4 c-5 4 -6 8 -2 8 2 0 4 1 6 4 3 4 4 4 8 4 4 0 5 0 10 6 4
3 6 7 6 8 0 1 1 2 2 2 2 0 4 1 5 2 1 2 1 2 0 4 -1 1 -3 2 -5 2 -1 0 -2 1 -2 2
0 4 3 6 8 6 3 0 5 1 7 2 1 2 1 2 -3 6 -4 4 -4 4 -3 6 2 1 4 2 7 2 3 0 5 1 7 2
1 2 1 2 -3 6 l-4 4 0 8 0 9 4 3 c4 4 4 4 3 6 -2 1 -4 2 -7 2 -5 0 -8 2 -8 6 0
1 1 2 2 2 2 0 4 1 5 2 1 2 1 2 0 4 -1 1 -3 2 -5 2 -1 0 -2 1 -2 2 0 4 -3 6 -8
6 -4 0 -5 0 -8 -4 l-4 -4 -4 4 c-3 4 -4 4 -8 4 -4 0 -5 0 -8 -4 l-4 -4 -4 4
-4 4 -10 -10 c-6 -6 -10 -11 -10 -12 0 -5 -4 -2 -16 10 l-12 12 -4 -4 -4 -4
-4 4 c-3 4 -4 4 -8 4 -4 0 -5 0 -8 -4 l-4 -4 -4 4 c-4 5 -11 6 -15 2z m151
-10 c0 -5 -3 -6 -6 -2 -2 2 -2 2 0 4 3 4 6 3 6 -2z m-98 -6 c1 -1 2 -2 2 -4 0
-1 1 -2 2 -2 2 0 4 -1 5 -2 1 -2 1 -2 -1 -4 -2 -2 -2 -2 -4 -1 -1 1 -2 3 -2 5
0 1 -1 2 -2 2 -2 0 -4 1 -4 2 -2 2 -2 2 0 4 2 2 2 2 4 0z m33 -8 c1 -2 1 -2
-1 -4 -2 -2 -2 -2 -4 -1 -3 3 -3 7 0 7 2 0 4 -1 5 -2z m-80 -8 c1 -2 1 -2 -1
-4 -2 -2 -2 -2 -4 -1 -3 3 -3 7 0 7 2 0 4 -1 5 -2z m64 -8 c1 -2 1 -2 -1 -4
l-2 -2 -2 2 c-2 2 -2 2 -1 4 1 1 3 2 3 2 0 0 2 -1 3 -2z m9 -18 l3 -4 25 0 25
0 3 4 c4 4 4 4 6 3 1 -2 2 -4 2 -7 0 -4 0 -5 -4 -8 -4 -3 -4 -3 -4 -10 l0 -6
4 0 4 0 0 -4 c0 -3 0 -4 -2 -4 -3 0 -6 3 -6 6 0 1 -1 2 -2 2 -4 0 -6 -3 -6 -8
0 -6 -2 -8 -8 -8 -6 0 -8 -2 -8 -10 0 -6 0 -6 -2 -6 -4 0 -6 -3 -6 -8 0 -6 -2
-8 -8 -8 -6 0 -8 -2 -8 -8 0 -4 0 -5 -4 -8 -4 -3 -4 -3 -4 -10 0 -6 0 -6 -2
-6 -2 0 -4 1 -6 4 -3 4 -3 4 -10 4 -6 0 -6 0 -6 2 0 2 1 4 4 6 4 3 4 4 4 8 0
4 0 5 -6 10 -6 6 -10 8 -10 4 0 -3 -3 -6 -6 -6 -2 0 -2 0 -2 4 l0 4 4 0 4 0 0
6 0 6 -6 6 c-5 5 -6 6 -10 6 -7 0 -8 2 -8 12 0 10 -1 12 -8 12 -3 0 -5 1 -7 2
-1 2 -1 2 3 6 2 2 4 4 4 6 l0 2 26 0 27 0 3 4 c2 2 4 4 4 4 0 0 2 -2 4 -4z
m-65 -30 c1 -2 1 -2 0 -4 -3 -3 -7 -3 -7 0 0 2 3 6 4 6 0 0 2 -1 3 -2z"/><path d="M58 366 c-2 -2 -2 -2 4 -8 6 -6 6 -6 8 -4 3 2 3 10 0 12 -2 3 -10 3
-12 0z"/><path d="M54 338 l-6 -6 4 -4 4 -3 0 -17 0 -16 -4 -4 c-4 -4 -4 -4 -3 -6 3 -3
11 -3 13 0 3 3 3 58 0 60 -2 2 -2 3 -8 -4z"/><path d="M442 342 c-2 -1 -2 -5 -2 -36 l0 -34 -2 0 c-5 0 -6 -3 -6 -14 0 -9 0
-10 -2 -10 -1 0 -5 -2 -8 -6 l-6 -6 0 -6 c0 -5 0 -6 -2 -6 -3 0 -38 -35 -38
-38 0 -2 -1 -2 -6 -2 -7 0 -7 0 -10 -4 -3 -4 -4 -4 -8 -4 -4 0 -5 0 -8 -4 -3
-4 -4 -4 -8 -4 -4 0 -5 0 -8 -4 l-3 -4 -9 0 -8 0 -6 -6 -6 -6 4 -4 c4 -3 4 -4
4 -10 0 -8 -2 -8 -8 -2 -4 4 -4 4 -6 3 -2 -2 -2 -3 -2 -9 0 -5 0 -6 -2 -6 -1
0 -5 -2 -8 -6 l-6 -6 0 -6 c0 -5 0 -6 -2 -6 -1 0 -5 -2 -8 -6 l-6 -6 0 -6 0
-6 -4 0 -4 0 0 6 c0 7 -2 10 -6 10 -1 0 -2 1 -2 2 0 3 -3 6 -6 6 -2 0 -2 0 -2
6 0 7 -2 10 -6 10 -2 0 -2 0 -2 6 0 6 0 7 -2 9 -2 1 -2 1 -6 -3 -4 -4 -4 -4
-6 -3 -3 3 -3 15 0 15 2 0 4 1 5 2 1 2 1 2 -1 4 0 1 -2 2 -4 2 -1 0 -2 1 -2 2
0 1 -2 5 -6 8 l-6 6 -8 0 -9 0 -3 4 c-3 4 -4 4 -8 4 -4 0 -5 0 -8 4 -3 4 -4 4
-8 4 -4 0 -5 0 -12 8 -7 8 -8 8 -12 8 -4 0 -5 0 -16 12 -8 8 -12 12 -14 12 -1
0 -2 1 -2 2 0 3 -3 6 -6 6 -2 0 -2 0 -2 6 0 7 0 7 -4 10 -4 3 -4 4 -4 8 0 4 0
5 -4 8 -4 3 -4 4 -4 8 0 6 -3 9 -6 7 -2 -2 -2 -4 -2 -11 l0 -9 4 -3 c4 -3 4
-4 4 -8 0 -4 0 -5 6 -10 3 -4 7 -6 8 -6 1 0 2 -1 2 -2 0 -3 3 -6 6 -6 2 0 2
-1 2 -6 l0 -6 10 -10 c9 -10 10 -10 14 -10 4 0 5 0 12 -8 7 -8 8 -8 12 -8 4 0
5 0 8 -4 3 -4 4 -4 8 -4 5 0 8 -2 8 -6 0 -1 -1 -2 -2 -2 -2 0 -4 -1 -5 -2 -1
-2 -1 -2 1 -4 2 -2 2 -2 4 -1 1 1 2 3 2 5 0 2 0 2 10 2 10 0 11 0 13 -2 1 -2
1 -2 -3 -6 l-4 -4 8 -8 c8 -7 8 -8 8 -12 0 -4 1 -5 6 -10 3 -4 7 -6 8 -6 2 0
2 -1 2 -6 0 -7 2 -10 6 -10 2 0 2 0 2 -6 0 -7 0 -7 4 -10 4 -3 4 -4 4 -8 0 -4
0 -5 8 -12 8 -7 8 -8 8 -12 0 -3 1 -5 2 -6 2 -2 2 -2 8 4 6 5 6 6 6 10 0 4 0
5 4 8 4 3 4 3 4 10 0 5 0 6 2 6 1 0 5 2 8 6 l6 6 0 6 c0 6 0 6 2 6 4 0 6 3 6
10 0 6 0 6 2 6 4 0 6 3 6 10 0 5 0 6 2 6 1 0 5 3 8 6 l6 6 -4 4 c-4 4 -4 4 -3
6 2 2 3 2 13 2 10 0 10 0 10 -2 0 -2 1 -4 2 -5 2 -1 2 -1 4 1 2 2 2 2 1 4 -1
1 -3 2 -5 2 -1 0 -2 1 -2 2 0 4 3 6 10 6 6 0 6 0 6 -2 0 -2 1 -4 2 -5 2 -1 2
-1 4 1 2 2 2 2 1 4 -1 1 -3 2 -5 2 -1 0 -2 1 -2 2 0 4 3 6 8 6 4 0 5 1 10 6 4
3 6 7 6 8 0 2 1 2 6 2 7 0 7 0 10 4 3 4 4 4 8 4 6 0 8 2 8 8 0 4 0 5 4 8 4 3
4 3 4 10 0 5 0 6 2 6 1 0 5 2 8 6 l6 6 0 6 c0 6 0 6 2 6 5 0 6 3 6 14 0 10 0
10 2 10 4 0 6 3 6 8 0 6 2 8 8 8 8 0 8 1 8 20 0 18 -1 20 -6 20 -1 0 -2 1 -2
2 0 2 -11 14 -12 14 0 0 -1 -1 -2 -2z m14 -28 c0 -13 0 -15 -2 -16 -2 -2 -2
-2 -4 0 -2 1 -2 3 -2 14 0 13 1 16 6 16 l2 0 0 -14z m-248 -174 c0 -5 -3 -6
-6 -2 -2 2 -2 2 0 4 3 4 6 3 6 -2z m86 -22 c3 -2 3 -6 0 -6 -3 0 -6 3 -6 6 0
3 3 3 6 0z m-70 -8 c0 -3 -3 -6 -6 -6 -3 0 -3 3 0 6 2 3 6 3 6 0z m62 -8 c1
-1 2 -2 2 -4 0 -2 0 -2 -4 -2 -4 0 -4 0 -4 -2 0 -2 -1 -4 -2 -4 -2 -2 -2 -2
-4 0 -4 3 -3 6 2 6 3 0 4 0 4 2 0 2 3 6 4 6 0 0 1 -1 2 -2z m-54 -10 l0 -4 4
0 c5 0 6 -3 2 -6 -2 -2 -2 -2 -4 0 -1 0 -2 2 -2 4 0 2 0 2 -4 2 -3 0 -4 0 -4
2 0 3 3 6 6 6 2 0 2 0 2 -4z m38 -14 c1 -1 2 -2 2 -4 0 -2 0 -2 -4 -2 -3 0 -4
0 -4 -2 0 -3 -3 -6 -6 -6 -1 0 -2 -1 -2 -2 0 -2 -1 -4 -2 -4 -2 -2 -2 -2 -4 0
-1 0 -2 2 -2 4 0 1 -1 2 -2 2 -2 0 -4 1 -4 2 -2 2 -2 2 0 4 3 4 6 3 6 -2 l0
-4 4 0 4 0 0 4 0 4 4 0 c3 0 4 0 4 2 0 2 3 6 4 6 0 0 1 -1 2 -2z"/><path d="M249 142 c-1 -2 -1 -2 1 -4 l2 -2 2 2 c2 2 2 2 1 4 -1 1 -3 2 -3 2 0
0 -2 -1 -3 -2z"/></g>
  <g transform="scale(0.125 0.125) translate(0.000000,512.000000) scale(1.000000,-1.000000)" fill="#ff0e87" stroke="none"><path d="M202 478 c-1 -1 -2 -3 -2 -4 0 -1 -1 -2 -2 -2 -2 0 -4 -1 -5 -2 -1
-2 -1 -2 1 -4 2 -2 2 -2 4 -1 1 1 2 3 2 5 0 1 1 2 2 2 2 0 4 1 5 2 1 2 1 2 0
4 -3 2 -3 2 -5 0z"/><path d="M234 478 c-3 -3 0 -6 6 -6 3 0 5 1 7 2 2 3 -1 6 -7 6 -3 0 -5 -1 -6
-2z"/><path d="M258 478 c-3 -3 0 -6 6 -6 6 0 9 3 7 6 -2 1 -4 2 -7 2 -3 0 -5 -1 -6
-2z"/><path d="M305 470 c-1 -2 -1 -2 1 -4 l2 -2 2 2 c2 2 2 2 1 4 -1 1 -3 2 -3 2 0
0 -2 -1 -3 -2z"/><path d="M169 462 c-1 -2 -1 -2 1 -4 l2 -2 2 2 c2 2 2 2 1 4 -1 1 -3 2 -3 2 0
0 -2 -1 -3 -2z"/><path d="M329 462 c-1 -2 -1 -2 1 -4 l2 -2 2 2 c2 2 2 2 1 4 -1 1 -3 2 -3 2 0
0 -2 -1 -3 -2z"/><path d="M153 454 c-1 -2 -1 -2 1 -4 l2 -2 2 2 c2 2 2 2 1 4 -1 1 -3 2 -3 2 0
0 -2 -1 -3 -2z"/><path d="M345 454 c-1 -2 -1 -2 1 -4 l2 -2 2 2 c2 2 2 2 1 4 -1 1 -3 2 -3 2 0
0 -2 -1 -3 -2z"/><path d="M138 446 c-1 -1 -2 -3 -2 -4 0 -1 -1 -2 -2 -2 -3 0 -6 -3 -6 -6 0 -2
-1 -2 -4 -2 -4 0 -4 0 -4 2 0 2 -1 4 -2 5 -2 1 -2 1 -4 -1 -2 -2 -2 -2 -1 -4
1 -1 3 -2 5 -2 1 0 2 -1 2 -2 0 -2 1 -4 2 -4 2 -2 2 -2 4 0 1 0 2 2 2 4 0 1 1
2 2 2 3 0 6 3 6 6 0 1 1 2 2 2 2 0 4 1 5 2 1 2 1 2 0 4 -3 2 -3 2 -5 0z"/><path d="M362 446 c-2 -2 -2 -2 0 -4 0 -1 2 -2 4 -2 1 0 2 -1 2 -2 0 -2 1 -4
2 -5 2 -1 2 -1 4 1 2 2 2 2 1 4 -1 1 -3 2 -5 2 -1 0 -2 1 -2 2 0 2 -3 6 -4 6
0 0 -2 -1 -2 -2z"/><path d="M386 430 c-2 -2 -2 -2 0 -4 0 -1 2 -2 4 -2 1 0 2 -1 2 -2 0 -3 3 -6
6 -6 1 0 2 -1 2 -2 0 -2 1 -4 2 -5 2 -1 2 -1 4 1 2 2 2 2 1 4 -1 1 -3 2 -5 2
-1 0 -2 1 -2 2 0 3 -3 6 -6 6 -1 0 -2 1 -2 2 0 2 -3 6 -4 6 0 0 -2 -1 -2 -2z"/><path d="M106 422 c-1 -1 -2 -3 -2 -4 0 -1 -1 -2 -2 -2 -2 0 -4 -1 -5 -2 -1
-2 -1 -2 1 -4 2 -2 2 -2 4 -1 1 1 2 3 2 5 0 1 1 2 2 2 2 0 4 1 5 2 1 2 1 2 0
4 -3 2 -3 2 -5 0z"/><path d="M82 406 c-2 -2 -2 -2 0 -4 0 -1 2 -2 4 -2 2 0 2 0 2 -4 0 -4 0 -4 -2
-4 -2 0 -4 -1 -5 -2 -1 -2 -1 -2 1 -4 2 -2 2 -2 4 -1 1 1 2 3 2 5 0 1 1 2 2 2
2 0 4 1 5 2 1 2 1 2 0 4 -1 1 -3 2 -5 2 -1 0 -2 1 -2 2 0 2 -3 6 -4 6 0 0 -2
-1 -2 -2z"/><path d="M178 406 c-2 -2 -2 -2 0 -4 0 -1 2 -2 4 -2 4 0 3 -4 -2 -8 -4 -3 -4
-3 -4 -10 l0 -6 -4 0 c-4 0 -4 0 -4 2 0 2 -1 4 -2 5 -2 1 -2 1 -4 -1 -2 -2 -2
-2 -1 -4 1 -1 3 -2 5 -2 2 0 2 0 2 -6 0 -6 0 -7 -4 -10 -4 -4 -4 -4 -3 -6 2
-2 3 -2 15 -2 14 0 16 -1 16 -6 0 -2 -1 -2 -6 -2 l-6 0 -6 -6 c-6 -6 -6 -6 -4
-8 1 -2 3 -2 8 -2 l6 0 0 -4 c0 -4 0 -4 -2 -4 -2 0 -4 -1 -4 -2 -2 -2 -2 -2 0
-4 0 -1 2 -2 4 -2 1 0 2 -1 2 -2 0 -4 3 -6 10 -6 5 0 6 0 6 -2 0 -2 3 -5 8
-10 8 -8 10 -12 6 -12 -2 0 -4 -1 -5 -2 -1 -2 -1 -2 1 -4 2 -2 2 -2 4 -1 1 1
2 3 2 5 0 2 0 2 4 2 l4 0 0 -6 c0 -7 0 -7 4 -10 5 -4 6 -8 2 -8 -2 0 -4 -1 -4
-2 -2 -2 -2 -2 0 -4 0 -1 2 -2 4 -2 1 0 2 -1 2 -2 0 -2 3 -5 8 -10 l8 -8 0 -8
c0 -7 0 -9 2 -10 2 -2 2 -2 4 0 2 1 2 3 2 16 l0 14 2 0 c2 0 4 1 6 4 3 4 4 4
8 4 3 0 5 1 7 2 1 2 1 2 -3 6 l-4 4 4 4 c2 2 4 4 4 6 0 2 0 2 6 2 6 0 7 0 9 2
1 2 1 2 -3 6 -5 4 -6 8 -2 8 1 0 5 2 8 6 4 3 6 7 6 8 0 1 1 2 2 2 4 0 6 3 6
10 l0 6 4 0 c4 0 4 0 4 -2 0 -2 1 -4 2 -5 2 -1 2 -1 4 1 2 2 2 2 1 4 -1 1 -3
2 -5 2 -4 0 -3 4 2 8 4 3 4 4 4 8 0 6 2 8 8 8 3 0 5 1 7 2 1 2 1 2 -3 6 l-4 4
0 12 0 13 -4 3 c-5 4 -6 8 -2 8 2 0 4 1 5 2 1 2 1 2 0 4 -1 1 -3 2 -5 2 -1 0
-2 1 -2 2 0 2 -1 4 -2 5 -2 1 -2 1 -4 0 -1 -1 -2 -3 -2 -5 0 -2 0 -2 -6 -2 -7
0 -7 0 -10 4 -3 4 -4 4 -8 4 -4 0 -5 0 -8 -4 l-4 -4 -4 4 -4 4 -6 -6 -6 -6 0
-8 c0 -8 0 -9 -2 -11 -2 -1 -2 -1 -6 3 -3 4 -4 4 -10 4 -6 0 -6 0 -6 2 0 3 -3
6 -6 6 -2 0 -2 0 -2 6 0 6 0 7 -2 9 -2 1 -2 1 -6 -3 l-4 -4 -4 4 c-3 4 -4 4
-8 4 -4 0 -5 0 -8 -4 -3 -4 -3 -4 -10 -4 -6 0 -6 0 -6 2 0 2 -3 6 -4 6 0 0 -2
-1 -2 -2z m150 -10 c0 -3 0 -4 -2 -4 -3 0 -6 3 -6 6 0 2 0 2 4 2 l4 0 0 -4z
m-96 -8 l0 -4 4 0 c5 0 6 -3 2 -6 -2 -2 -2 -2 -4 0 -1 0 -2 2 -2 4 0 1 -1 2
-2 2 -2 0 -4 1 -4 2 -2 2 -2 2 0 4 3 4 6 3 6 -2z m-49 -14 c1 -2 1 -2 -1 -4
-2 -2 -2 -2 -4 -1 -3 3 -3 7 0 7 2 0 4 -1 5 -2z m64 -8 c1 -2 1 -2 -1 -4 l-2
-2 -2 2 c-2 2 -2 2 -1 4 1 1 3 2 3 2 0 0 2 -1 3 -2z m9 -18 l3 -4 25 0 25 0 3
4 c4 4 4 4 6 3 1 -2 2 -4 2 -7 0 -4 0 -5 -4 -8 -4 -3 -4 -3 -4 -10 0 -6 0 -6
-2 -6 -4 0 -6 -3 -6 -10 l0 -6 -6 0 c-9 0 -10 -1 -10 -10 0 -6 0 -6 -2 -6 -4
0 -6 -3 -6 -10 l0 -6 -6 0 c-8 0 -10 -2 -10 -8 0 -4 0 -5 -4 -8 -4 -3 -4 -3
-4 -10 0 -6 0 -6 -2 -6 -2 0 -4 1 -6 4 -3 4 -3 4 -10 4 l-6 0 0 4 c0 3 0 4 2
4 4 0 6 3 6 8 0 4 0 5 -6 10 -3 4 -7 6 -8 6 -2 0 -2 1 -2 6 l0 6 -6 6 -6 6 -6
0 -6 0 0 10 c0 13 -1 14 -10 14 -6 0 -6 0 -6 2 0 2 1 4 4 6 3 2 4 4 4 6 l0 2
26 0 27 0 3 4 c2 2 4 4 4 4 0 0 2 -2 4 -4z m-65 -30 c1 -2 1 -2 0 -4 -4 -4 -7
-3 -7 2 0 5 3 6 7 2z"/><path d="M418 406 c-1 -1 -2 -3 -2 -4 0 -1 -1 -2 -2 -2 -2 0 -4 -1 -4 -2 -2
-2 -2 -2 0 -4 0 -1 2 -2 4 -2 1 0 2 -1 2 -2 0 -2 1 -4 2 -5 2 -1 2 -1 4 1 2 2
2 2 1 4 -1 1 -3 2 -5 2 -2 0 -2 0 -2 4 0 4 0 4 2 4 2 0 4 1 5 2 1 2 1 2 0 4
-3 2 -3 2 -5 0z"/><path d="M65 382 c-1 -2 -1 -2 1 -4 l2 -2 2 2 c2 2 2 2 1 4 -1 1 -3 2 -3 2 0
0 -2 -1 -3 -2z"/><path d="M434 382 c-1 -1 -2 -3 -2 -4 0 -1 -1 -2 -2 -2 -2 0 -4 -1 -5 -2 -1
-2 -1 -2 1 -4 2 -2 2 -2 4 -1 1 1 2 3 2 5 0 1 1 2 2 2 2 0 4 1 5 2 1 2 1 2 0
4 -3 2 -3 2 -5 0z"/><path d="M58 366 c-2 -2 -2 -2 0 -4 0 -1 2 -2 4 -2 1 0 2 -1 2 -2 0 -2 1 -4 2
-5 2 -1 2 -1 4 1 2 2 2 2 1 4 -1 1 -3 2 -5 2 -1 0 -2 1 -2 2 0 2 -3 6 -4 6 0
0 -2 -1 -2 -2z"/><path d="M442 366 c-1 -1 -2 -3 -2 -4 0 -1 -1 -2 -2 -2 -2 0 -4 -1 -5 -2 -1
-2 -1 -2 1 -4 2 -2 2 -2 4 -1 1 1 2 3 2 5 0 1 1 2 2 2 2 0 4 1 5 2 1 2 1 2 0
4 -3 2 -3 2 -5 0z"/><path d="M50 334 c-2 -2 -2 -2 0 -4 0 -1 2 -2 4 -2 l2 0 0 -20 0 -20 -2 0 c-2
0 -4 -1 -5 -2 -1 -2 -1 -2 1 -4 2 -2 2 -2 4 -1 1 1 2 3 2 5 0 1 1 2 2 2 5 0 6
2 6 20 0 18 -1 20 -6 20 -1 0 -2 1 -2 2 0 2 -3 6 -4 6 0 0 -2 -1 -2 -2z"/><path d="M450 334 c-1 -1 -2 -3 -2 -4 0 -1 -1 -2 -2 -2 -5 0 -6 -3 -6 -16 0
-14 1 -16 6 -16 1 0 2 -1 2 -2 0 -4 3 -6 8 -6 8 0 8 1 8 20 0 18 -1 20 -6 20
-1 0 -2 1 -2 2 0 2 -3 6 -4 6 0 0 -1 -1 -2 -2z m6 -20 c0 -16 -1 -18 -6 -18
l-2 0 0 16 0 16 4 0 4 0 0 -14z"/><path d="M66 270 c-4 -4 -2 -14 4 -14 2 0 2 0 2 -6 0 -7 2 -10 6 -10 1 0 2 -1
2 -2 0 -2 1 -4 2 -5 2 -1 2 -1 4 1 2 2 2 2 1 4 -1 1 -3 2 -5 2 -2 0 -2 0 -2 6
0 7 -2 10 -6 10 -2 0 -2 0 -2 6 0 5 0 7 -2 8 -2 2 -2 2 -4 0z"/><path d="M434 270 c-3 -3 -3 -10 0 -12 3 -3 6 0 6 6 0 7 -3 10 -6 6z"/><path d="M426 246 c-1 -1 -2 -3 -2 -4 0 -1 -1 -2 -2 -2 -2 0 -4 -1 -5 -2 -1
-2 -1 -2 1 -4 2 -2 2 -2 4 -1 1 1 2 3 2 5 0 1 1 2 2 2 2 0 4 1 5 2 1 2 1 2 0
4 -3 2 -3 2 -5 0z"/><path d="M90 222 c-2 -2 -2 -2 0 -4 0 -1 2 -2 4 -2 1 0 2 -1 2 -2 0 -3 3 -6 6
-6 1 0 2 -1 2 -2 0 -3 3 -6 6 -6 1 0 2 -1 2 -2 0 -3 3 -6 6 -6 1 0 2 -1 2 -2
0 -4 3 -6 10 -6 6 0 6 0 6 -2 0 -3 3 -6 6 -6 1 0 2 -1 2 -2 0 -4 3 -6 10 -6 6
0 6 0 6 -2 0 -6 10 -8 15 -4 3 3 -1 6 -9 6 -6 0 -6 0 -6 2 0 4 -3 6 -10 6 -6
0 -6 0 -6 2 0 3 -3 6 -6 6 -1 0 -2 1 -2 2 0 4 -3 6 -10 6 -6 0 -6 0 -6 2 0 3
-3 6 -6 6 -1 0 -2 1 -2 2 0 3 -3 6 -6 6 -1 0 -2 1 -2 2 0 3 -3 6 -6 6 -1 0 -2
1 -2 2 0 2 -3 6 -4 6 0 0 -2 -1 -2 -2z"/><path d="M410 222 c-1 -1 -2 -3 -2 -4 0 -1 -1 -2 -2 -2 -3 0 -6 -3 -6 -6 0 -1
-1 -2 -2 -2 -3 0 -6 -3 -6 -6 0 -1 -1 -2 -2 -2 -3 0 -6 -3 -6 -6 0 -1 -1 -2
-2 -2 -2 0 -4 -1 -5 -2 -1 -2 -1 -2 1 -4 2 -2 2 -2 4 -1 1 1 2 3 2 5 0 1 1 2
2 2 3 0 6 3 6 6 0 2 1 2 4 2 4 0 4 0 4 -2 0 -2 1 -4 2 -5 2 -1 2 -1 4 1 2 2 2
2 1 4 -1 1 -3 2 -5 2 -2 0 -2 0 -2 4 0 4 0 4 2 4 3 0 6 3 6 6 0 1 1 2 2 2 2 0
4 1 5 2 1 2 1 2 0 4 -3 2 -3 2 -5 0z"/><path d="M362 182 c-1 -1 -2 -3 -2 -4 0 -2 0 -2 -6 -2 -7 0 -10 -2 -10 -6 0
-2 0 -2 -6 -2 -8 0 -12 -3 -8 -6 4 -5 14 -2 14 4 0 2 0 2 6 2 7 0 10 2 10 6 0
1 1 2 2 2 2 0 4 1 5 2 1 2 1 2 0 4 -3 2 -3 2 -5 0z"/><path d="M186 158 c-4 -3 0 -6 8 -6 l6 0 0 -4 0 -4 -6 0 c-5 0 -7 0 -9 -2 -1
-2 -1 -2 7 -10 8 -7 8 -8 8 -12 0 -4 1 -5 6 -10 3 -4 7 -6 8 -6 2 0 2 -1 2 -6
0 -7 2 -10 6 -10 2 0 2 0 2 -6 0 -7 0 -7 4 -10 4 -3 4 -4 4 -8 0 -4 0 -5 8
-12 8 -7 8 -8 8 -12 0 -3 1 -5 2 -6 2 -2 2 -2 8 4 6 5 6 6 6 10 0 4 0 5 4 8 4
3 4 3 4 10 0 5 0 6 2 6 1 0 5 2 8 6 l6 6 0 6 c0 6 0 6 2 6 4 0 6 3 6 10 0 6 0
6 2 6 4 0 6 3 6 10 0 5 0 6 2 6 1 0 5 3 8 6 6 6 6 6 4 8 -1 2 -3 2 -8 2 l-6 0
0 4 0 4 6 0 c8 0 12 3 9 6 -5 5 -15 2 -15 -4 0 -1 -1 -2 -2 -2 -2 0 -4 -1 -4
-2 -2 -2 -2 -2 0 -4 0 -1 2 -2 4 -2 2 0 2 0 2 -8 l0 -8 -4 0 c-4 0 -4 0 -4 2
0 2 -1 4 -2 5 -2 1 -2 1 -4 -1 -2 -2 -2 -2 -1 -4 1 -1 3 -2 5 -2 2 0 2 0 2 -8
l0 -8 -4 0 c-4 0 -4 0 -4 2 0 2 -1 4 -2 5 -2 1 -2 1 -4 0 -1 -1 -2 -3 -2 -5 0
-1 -1 -2 -2 -2 -4 0 -6 -3 -6 -10 0 -6 0 -6 -2 -6 -3 0 -6 -3 -6 -6 0 -1 -1
-2 -2 -2 -4 0 -6 -3 -6 -10 0 -6 0 -6 -2 -6 -3 0 -6 -3 -6 -6 0 -1 -1 -2 -2
-2 -4 0 -6 3 -6 10 0 6 0 6 2 6 2 0 4 1 5 2 1 2 1 2 0 4 -1 1 -3 2 -5 2 -1 0
-2 1 -2 2 0 2 -1 4 -2 5 -2 1 -2 1 -4 0 -1 -1 -2 -3 -2 -5 0 -2 0 -2 -4 -2
l-4 0 0 8 c0 8 0 8 2 8 2 0 4 1 5 2 1 2 1 2 -1 4 -2 2 -2 2 -4 1 -1 -1 -2 -3
-2 -5 0 -2 0 -2 -4 -2 l-4 0 0 8 c0 8 0 8 2 8 2 0 4 1 5 2 1 2 1 2 -1 4 -2 2
-2 2 -4 1 -1 -1 -2 -3 -2 -5 0 -1 -1 -2 -2 -2 -4 0 -6 3 -6 10 0 6 0 6 2 6 2
0 4 1 5 2 1 2 1 2 0 4 -1 1 -3 2 -5 2 -1 0 -2 1 -2 2 0 3 -3 6 -6 6 -1 0 -2 1
-2 2 0 6 -10 8 -14 4z m22 -18 c0 -3 0 -4 -2 -4 -3 0 -6 3 -6 6 0 2 0 2 4 2
l4 0 0 -4z m80 -36 l0 -8 -4 0 c-3 0 -4 0 -4 -2 0 -3 -3 -6 -6 -6 -2 0 -2 0
-2 -8 l0 -8 -4 0 c-3 0 -4 0 -4 -2 0 -3 -3 -6 -6 -6 -1 0 -2 -1 -2 -2 0 -2 -1
-4 -2 -4 -2 -2 -2 -2 -4 0 -4 3 -3 6 2 6 l4 0 0 4 0 4 4 0 4 0 0 8 0 8 4 0 4
0 0 4 0 4 4 0 4 0 0 8 0 8 4 0 4 0 0 -8z m-48 -20 c0 -3 0 -4 -2 -4 -3 0 -6 3
-6 6 0 2 0 2 4 2 l4 0 0 -4z"/><path d="M353 158 c-1 -2 -1 -2 1 -4 l2 -2 2 2 c2 2 2 2 1 4 -1 1 -3 2 -3 2 0
0 -2 -1 -3 -2z"/><path d="M161 150 c-1 -2 -1 -2 1 -4 l2 -2 2 2 c2 2 2 2 1 4 -1 1 -3 2 -3 2 0
0 -2 -1 -3 -2z"/><path d="M337 150 c-1 -2 -1 -2 1 -4 l2 -2 2 2 c2 2 2 2 1 4 -1 1 -3 2 -3 2 0
0 -2 -1 -3 -2z"/><path d="M249 142 c-1 -2 -1 -2 1 -4 l2 -2 2 2 c2 2 2 2 1 4 -1 1 -3 2 -3 2 0
0 -2 -1 -3 -2z"/></g>
  <g transform="scale(0.125 0.125) translate(0.000000,512.000000) scale(1.000000,-1.000000)" fill="#f0f0f0" stroke="none"><path d="M202 478 c-1 -1 -2 -3 -2 -4 0 -1 -1 -2 -2 -2 -2 0 -4 -1 -5 -2 -1
-2 -1 -2 1 -4 2 -2 2 -2 4 -1 1 1 2 3 2 5 0 1 1 2 2 2 2 0 4 1 5 2 1 2 1 2 0
4 -3 2 -3 2 -5 0z"/><path d="M234 478 c-3 -3 0 -6 6 -6 3 0 5 1 7 2 2 3 -1 6 -7 6 -3 0 -5 -1 -6
-2z"/><path d="M258 478 c-3 -3 0 -6 6 -6 6 0 9 3 7 6 -2 1 -4 2 -7 2 -3 0 -5 -1 -6
-2z"/><path d="M305 470 c-1 -2 -1 -2 1 -4 l2 -2 2 2 c2 2 2 2 1 4 -1 1 -3 2 -3 2 0
0 -2 -1 -3 -2z"/><path d="M169 462 c-1 -2 -1 -2 1 -4 l2 -2 2 2 c2 2 2 2 1 4 -1 1 -3 2 -3 2 0
0 -2 -1 -3 -2z"/><path d="M329 462 c-1 -2 -1 -2 1 -4 l2 -2 2 2 c2 2 2 2 1 4 -1 1 -3 2 -3 2 0
0 -2 -1 -3 -2z"/><path d="M153 454 c-1 -2 -1 -2 1 -4 l2 -2 2 2 c2 2 2 2 1 4 -1 1 -3 2 -3 2 0
0 -2 -1 -3 -2z"/><path d="M345 454 c-1 -2 -1 -2 1 -4 l2 -2 2 2 c2 2 2 2 1 4 -1 1 -3 2 -3 2 0
0 -2 -1 -3 -2z"/><path d="M138 446 c-1 -1 -2 -3 -2 -4 0 -1 -1 -2 -2 -2 -3 0 -6 -3 -6 -6 0 -2
-1 -2 -4 -2 -4 0 -4 0 -4 2 0 2 -1 4 -2 5 -2 1 -2 1 -4 -1 -2 -2 -2 -2 -1 -4
1 -1 3 -2 5 -2 1 0 2 -1 2 -2 0 -2 1 -4 2 -4 2 -2 2 -2 4 0 1 0 2 2 2 4 0 1 1
2 2 2 3 0 6 3 6 6 0 1 1 2 2 2 2 0 4 1 5 2 1 2 1 2 0 4 -3 2 -3 2 -5 0z"/><path d="M362 446 c-2 -2 -2 -2 0 -4 0 -1 2 -2 4 -2 1 0 2 -1 2 -2 0 -2 1 -4
2 -5 2 -1 2 -1 4 1 2 2 2 2 1 4 -1 1 -3 2 -5 2 -1 0 -2 1 -2 2 0 2 -3 6 -4 6
0 0 -2 -1 -2 -2z"/><path d="M386 430 c-2 -2 -2 -2 0 -4 0 -1 2 -2 4 -2 1 0 2 -1 2 -2 0 -3 3 -6
6 -6 1 0 2 -1 2 -2 0 -2 1 -4 2 -5 2 -1 2 -1 4 1 2 2 2 2 1 4 -1 1 -3 2 -5 2
-1 0 -2 1 -2 2 0 3 -3 6 -6 6 -1 0 -2 1 -2 2 0 2 -3 6 -4 6 0 0 -2 -1 -2 -2z"/><path d="M106 422 c-1 -1 -2 -3 -2 -4 0 -1 -1 -2 -2 -2 -2 0 -4 -1 -5 -2 -1
-2 -1 -2 1 -4 2 -2 2 -2 4 -1 1 1 2 3 2 5 0 1 1 2 2 2 2 0 4 1 5 2 1 2 1 2 0
4 -3 2 -3 2 -5 0z"/><path d="M82 406 c-2 -2 -2 -2 0 -4 0 -1 2 -2 4 -2 2 0 2 0 2 -4 0 -4 0 -4 -2
-4 -2 0 -4 -1 -5 -2 -1 -2 -1 -2 1 -4 2 -2 2 -2 4 -1 1 1 2 3 2 5 0 1 1 2 2 2
2 0 4 1 5 2 1 2 1 2 0 4 -1 1 -3 2 -5 2 -1 0 -2 1 -2 2 0 2 -3 6 -4 6 0 0 -2
-1 -2 -2z"/><path d="M178 406 c-2 -2 -2 -2 0 -4 0 -1 2 -2 4 -2 4 0 3 -4 -2 -8 -4 -3 -4
-3 -4 -10 l0 -6 -4 0 c-4 0 -4 0 -4 2 0 2 -1 4 -2 5 -2 1 -2 1 -4 -1 -2 -2 -2
-2 -1 -4 1 -1 3 -2 5 -2 2 0 2 0 2 -6 0 -6 0 -7 -4 -10 -4 -4 -4 -4 -3 -6 2
-2 3 -2 11 -2 10 0 12 1 12 8 0 4 0 5 -4 8 -5 4 -6 8 -2 8 2 0 4 1 6 4 3 4 4
4 8 4 4 0 5 0 8 4 l3 4 15 0 14 0 0 -2 c0 -3 3 -6 6 -6 2 0 2 0 2 -6 0 -6 0
-7 4 -10 l5 -4 -5 -4 c-4 -4 -4 -4 -3 -6 2 -2 3 -2 11 -2 10 0 12 1 12 8 0 4
0 5 4 8 4 3 4 4 4 8 0 6 2 8 8 8 4 0 5 0 8 4 l3 4 9 0 8 0 6 -6 6 -6 0 -20 0
-21 -4 -3 c-4 -3 -4 -3 -4 -10 0 -6 0 -6 -2 -6 -4 0 -6 -3 -6 -10 l0 -6 -6 0
c-9 0 -10 -1 -10 -10 0 -6 0 -6 -2 -6 -4 0 -6 -3 -6 -10 l0 -6 -6 0 c-8 0 -10
-2 -10 -8 0 -4 0 -5 -4 -8 -4 -3 -4 -3 -4 -10 0 -6 0 -6 -2 -6 -2 0 -4 1 -6 4
-3 4 -3 4 -10 4 l-6 0 0 4 c0 4 0 4 2 4 4 0 6 3 6 8 0 4 -1 5 -6 10 -3 4 -7 6
-8 6 -2 0 -2 1 -2 6 l0 6 -6 6 -6 6 -6 0 -6 0 0 10 c0 13 -1 14 -10 14 l-6 0
0 6 c0 5 0 7 -2 8 -2 2 -2 2 -8 -4 -6 -6 -6 -6 -4 -8 1 -2 3 -2 8 -2 l6 0 0
-4 c0 -4 0 -4 -2 -4 -2 0 -4 -1 -4 -2 -2 -2 -2 -2 0 -4 0 -1 2 -2 4 -2 1 0 2
-1 2 -2 0 -4 3 -6 10 -6 5 0 6 0 6 -2 0 -2 3 -5 8 -10 8 -8 10 -12 6 -12 -2 0
-4 -1 -5 -2 -1 -2 -1 -2 1 -4 2 -2 2 -2 4 -1 1 1 2 3 2 5 0 2 0 2 4 2 l4 0 0
-6 c0 -7 0 -7 4 -10 5 -4 6 -8 2 -8 -2 0 -4 -1 -4 -2 -2 -2 -2 -2 0 -4 0 -1 2
-2 4 -2 1 0 2 -1 2 -2 0 -2 3 -5 8 -10 l8 -8 0 -8 c0 -7 0 -9 2 -10 2 -2 2 -2
4 0 2 1 2 3 2 16 l0 14 2 0 c2 0 4 1 6 4 3 4 4 4 8 4 3 0 5 1 7 2 1 2 1 2 -3
6 l-4 4 4 4 c2 2 4 4 4 6 0 2 0 2 6 2 6 0 7 0 9 2 1 2 1 2 -3 6 -5 4 -6 8 -2
8 1 0 5 2 8 6 4 3 6 7 6 8 0 1 1 2 2 2 4 0 6 3 6 10 l0 6 4 0 c4 0 4 0 4 -2 0
-2 1 -4 2 -5 2 -1 2 -1 4 1 2 2 2 2 1 4 -1 1 -3 2 -5 2 -4 0 -3 4 2 8 4 3 4 4
4 8 0 6 2 8 8 8 3 0 5 1 7 2 1 2 1 2 -3 6 l-4 4 0 12 0 13 -4 3 c-5 4 -6 8 -2
8 2 0 4 1 5 2 1 2 1 2 0 4 -1 1 -3 2 -5 2 -1 0 -2 1 -2 2 0 2 -1 4 -2 5 -2 1
-2 1 -4 0 -1 -1 -2 -3 -2 -5 0 -2 0 -2 -6 -2 -7 0 -7 0 -10 4 -3 4 -4 4 -8 4
-4 0 -5 0 -8 -4 l-4 -4 -4 4 -4 4 -6 -6 -6 -6 0 -8 c0 -8 0 -9 -2 -11 -2 -1
-2 -1 -6 3 -3 4 -4 4 -10 4 -6 0 -6 0 -6 2 0 3 -3 6 -6 6 -2 0 -2 0 -2 6 0 6
0 7 -2 9 -2 1 -2 1 -6 -3 l-4 -4 -4 4 c-3 4 -4 4 -8 4 -4 0 -5 0 -8 -4 -3 -4
-3 -4 -10 -4 -6 0 -6 0 -6 2 0 2 -3 6 -4 6 0 0 -2 -1 -2 -2z m150 -10 c0 -3 0
-4 -2 -4 -3 0 -6 3 -6 6 0 2 0 2 4 2 l4 0 0 -4z m-137 -78 c1 -2 1 -2 0 -4 -4
-4 -7 -3 -7 2 0 5 3 6 7 2z"/><path d="M418 406 c-1 -1 -2 -3 -2 -4 0 -1 -1 -2 -2 -2 -2 0 -4 -1 -4 -2 -2
-2 -2 -2 0 -4 0 -1 2 -2 4 -2 1 0 2 -1 2 -2 0 -2 1 -4 2 -5 2 -1 2 -1 4 1 2 2
2 2 1 4 -1 1 -3 2 -5 2 -2 0 -2 0 -2 4 0 4 0 4 2 4 2 0 4 1 5 2 1 2 1 2 0 4
-3 2 -3 2 -5 0z"/><path d="M65 382 c-1 -2 -1 -2 1 -4 l2 -2 2 2 c2 2 2 2 1 4 -1 1 -3 2 -3 2 0
0 -2 -1 -3 -2z"/><path d="M434 382 c-1 -1 -2 -3 -2 -4 0 -1 -1 -2 -2 -2 -2 0 -4 -1 -5 -2 -1
-2 -1 -2 1 -4 2 -2 2 -2 4 -1 1 1 2 3 2 5 0 1 1 2 2 2 2 0 4 1 5 2 1 2 1 2 0
4 -3 2 -3 2 -5 0z"/><path d="M58 366 c-2 -2 -2 -2 0 -4 0 -1 2 -2 4 -2 1 0 2 -1 2 -2 0 -2 1 -4 2
-5 2 -1 2 -1 4 1 2 2 2 2 1 4 -1 1 -3 2 -5 2 -1 0 -2 1 -2 2 0 2 -3 6 -4 6 0
0 -2 -1 -2 -2z"/><path d="M442 366 c-1 -1 -2 -3 -2 -4 0 -1 -1 -2 -2 -2 -2 0 -4 -1 -5 -2 -1
-2 -1 -2 1 -4 2 -2 2 -2 4 -1 1 1 2 3 2 5 0 1 1 2 2 2 2 0 4 1 5 2 1 2 1 2 0
4 -3 2 -3 2 -5 0z"/><path d="M50 334 c-2 -2 -2 -2 0 -4 0 -1 2 -2 4 -2 l2 0 0 -20 0 -20 -2 0 c-2
0 -4 -1 -5 -2 -1 -2 -1 -2 1 -4 2 -2 2 -2 4 -1 1 1 2 3 2 5 0 1 1 2 2 2 5 0 6
2 6 20 0 18 -1 20 -6 20 -1 0 -2 1 -2 2 0 2 -3 6 -4 6 0 0 -2 -1 -2 -2z"/><path d="M450 334 c-1 -1 -2 -3 -2 -4 0 -1 -1 -2 -2 -2 -5 0 -6 -3 -6 -16 0
-14 1 -16 6 -16 1 0 2 -1 2 -2 0 -4 3 -6 8 -6 8 0 8 1 8 20 0 18 -1 20 -6 20
-1 0 -2 1 -2 2 0 2 -3 6 -4 6 0 0 -1 -1 -2 -2z m6 -20 c0 -16 -1 -18 -6 -18
l-2 0 0 16 0 16 4 0 4 0 0 -14z"/><path d="M66 270 c-4 -4 -2 -14 4 -14 2 0 2 0 2 -6 0 -7 2 -10 6 -10 1 0 2 -1
2 -2 0 -2 1 -4 2 -5 2 -1 2 -1 4 1 2 2 2 2 1 4 -1 1 -3 2 -5 2 -2 0 -2 0 -2 6
0 7 -2 10 -6 10 -2 0 -2 0 -2 6 0 5 0 7 -2 8 -2 2 -2 2 -4 0z"/><path d="M434 270 c-3 -3 -3 -10 0 -12 3 -3 6 0 6 6 0 7 -3 10 -6 6z"/><path d="M426 246 c-1 -1 -2 -3 -2 -4 0 -1 -1 -2 -2 -2 -2 0 -4 -1 -5 -2 -1
-2 -1 -2 1 -4 2 -2 2 -2 4 -1 1 1 2 3 2 5 0 1 1 2 2 2 2 0 4 1 5 2 1 2 1 2 0
4 -3 2 -3 2 -5 0z"/><path d="M90 222 c-2 -2 -2 -2 0 -4 0 -1 2 -2 4 -2 1 0 2 -1 2 -2 0 -3 3 -6 6
-6 1 0 2 -1 2 -2 0 -3 3 -6 6 -6 1 0 2 -1 2 -2 0 -3 3 -6 6 -6 1 0 2 -1 2 -2
0 -4 3 -6 10 -6 6 0 6 0 6 -2 0 -3 3 -6 6 -6 1 0 2 -1 2 -2 0 -4 3 -6 10 -6 6
0 6 0 6 -2 0 -6 10 -8 15 -4 3 3 -1 6 -9 6 -6 0 -6 0 -6 2 0 4 -3 6 -10 6 -6
0 -6 0 -6 2 0 3 -3 6 -6 6 -1 0 -2 1 -2 2 0 4 -3 6 -10 6 -6 0 -6 0 -6 2 0 3
-3 6 -6 6 -1 0 -2 1 -2 2 0 3 -3 6 -6 6 -1 0 -2 1 -2 2 0 3 -3 6 -6 6 -1 0 -2
1 -2 2 0 2 -3 6 -4 6 0 0 -2 -1 -2 -2z"/><path d="M410 222 c-1 -1 -2 -3 -2 -4 0 -1 -1 -2 -2 -2 -3 0 -6 -3 -6 -6 0 -1
-1 -2 -2 -2 -3 0 -6 -3 -6 -6 0 -1 -1 -2 -2 -2 -3 0 -6 -3 -6 -6 0 -1 -1 -2
-2 -2 -2 0 -4 -1 -5 -2 -1 -2 -1 -2 1 -4 2 -2 2 -2 4 -1 1 1 2 3 2 5 0 1 1 2
2 2 3 0 6 3 6 6 0 2 1 2 4 2 4 0 4 0 4 -2 0 -2 1 -4 2 -5 2 -1 2 -1 4 1 2 2 2
2 1 4 -1 1 -3 2 -5 2 -2 0 -2 0 -2 4 0 4 0 4 2 4 3 0 6 3 6 6 0 1 1 2 2 2 2 0
4 1 5 2 1 2 1 2 0 4 -3 2 -3 2 -5 0z"/><path d="M362 182 c-1 -1 -2 -3 -2 -4 0 -2 0 -2 -6 -2 -7 0 -10 -2 -10 -6 0
-2 0 -2 -6 -2 -8 0 -12 -3 -8 -6 4 -5 14 -2 14 4 0 2 0 2 6 2 7 0 10 2 10 6 0
1 1 2 2 2 2 0 4 1 5 2 1 2 1 2 0 4 -3 2 -3 2 -5 0z"/><path d="M186 158 c-4 -3 0 -6 8 -6 l6 0 0 -4 0 -4 -6 0 c-5 0 -7 0 -9 -2 -1
-2 -1 -2 7 -10 8 -7 8 -8 8 -12 0 -4 1 -5 6 -10 3 -4 7 -6 8 -6 2 0 2 -1 2 -6
0 -7 2 -10 6 -10 2 0 2 0 2 -6 0 -7 0 -7 4 -10 4 -3 4 -4 4 -8 0 -4 0 -5 8
-12 8 -7 8 -8 8 -12 0 -3 1 -5 2 -6 2 -2 2 -2 8 4 6 5 6 6 6 10 0 4 0 5 4 8 4
3 4 3 4 10 0 5 0 6 2 6 1 0 5 2 8 6 l6 6 0 6 c0 6 0 6 2 6 4 0 6 3 6 10 0 6 0
6 2 6 4 0 6 3 6 10 0 5 0 6 2 6 1 0 5 3 8 6 6 6 6 6 4 8 -1 2 -3 2 -8 2 l-6 0
0 4 0 4 6 0 c8 0 12 3 9 6 -5 5 -15 2 -15 -4 0 -1 -1 -2 -2 -2 -2 0 -4 -1 -4
-2 -2 -2 -2 -2 0 -4 0 -1 2 -2 4 -2 2 0 2 0 2 -8 l0 -8 -4 0 c-4 0 -4 0 -4 2
0 2 -1 4 -2 5 -2 1 -2 1 -4 -1 -2 -2 -2 -2 -1 -4 1 -1 3 -2 5 -2 2 0 2 0 2 -8
l0 -8 -4 0 c-4 0 -4 0 -4 2 0 2 -1 4 -2 5 -2 1 -2 1 -4 0 -1 -1 -2 -3 -2 -5 0
-1 -1 -2 -2 -2 -4 0 -6 -3 -6 -10 0 -6 0 -6 -2 -6 -3 0 -6 -3 -6 -6 0 -1 -1
-2 -2 -2 -4 0 -6 -3 -6 -10 0 -6 0 -6 -2 -6 -3 0 -6 -3 -6 -6 0 -1 -1 -2 -2
-2 -4 0 -6 3 -6 10 0 6 0 6 2 6 2 0 4 1 5 2 1 2 1 2 0 4 -1 1 -3 2 -5 2 -1 0
-2 1 -2 2 0 2 -1 4 -2 5 -2 1 -2 1 -4 0 -1 -1 -2 -3 -2 -5 0 -2 0 -2 -4 -2
l-4 0 0 8 c0 8 0 8 2 8 2 0 4 1 5 2 1 2 1 2 -1 4 -2 2 -2 2 -4 1 -1 -1 -2 -3
-2 -5 0 -2 0 -2 -4 -2 l-4 0 0 8 c0 8 0 8 2 8 2 0 4 1 5 2 1 2 1 2 -1 4 -2 2
-2 2 -4 1 -1 -1 -2 -3 -2 -5 0 -1 -1 -2 -2 -2 -4 0 -6 3 -6 10 0 6 0 6 2 6 2
0 4 1 5 2 1 2 1 2 0 4 -1 1 -3 2 -5 2 -1 0 -2 1 -2 2 0 3 -3 6 -6 6 -1 0 -2 1
-2 2 0 6 -10 8 -14 4z m22 -18 c0 -3 0 -4 -2 -4 -3 0 -6 3 -6 6 0 2 0 2 4 2
l4 0 0 -4z m80 -36 l0 -8 -4 0 c-3 0 -4 0 -4 -2 0 -3 -3 -6 -6 -6 -2 0 -2 0
-2 -8 l0 -8 -4 0 c-3 0 -4 0 -4 -2 0 -3 -3 -6 -6 -6 -1 0 -2 -1 -2 -2 0 -2 -1
-4 -2 -4 -2 -2 -2 -2 -4 0 -4 3 -3 6 2 6 l4 0 0 4 0 4 4 0 4 0 0 8 0 8 4 0 4
0 0 4 0 4 4 0 4 0 0 8 0 8 4 0 4 0 0 -8z m-48 -20 c0 -3 0 -4 -2 -4 -3 0 -6 3
-6 6 0 2 0 2 4 2 l4 0 0 -4z"/><path d="M353 158 c-1 -2 -1 -2 1 -4 l2 -2 2 2 c2 2 2 2 1 4 -1 1 -3 2 -3 2 0
0 -2 -1 -3 -2z"/><path d="M161 150 c-1 -2 -1 -2 1 -4 l2 -2 2 2 c2 2 2 2 1 4 -1 1 -3 2 -3 2 0
0 -2 -1 -3 -2z"/><path d="M337 150 c-1 -2 -1 -2 1 -4 l2 -2 2 2 c2 2 2 2 1 4 -1 1 -3 2 -3 2 0
0 -2 -1 -3 -2z"/><path d="M249 142 c-1 -2 -1 -2 1 -4 l2 -2 2 2 c2 2 2 2 1 4 -1 1 -3 2 -3 2 0
0 -2 -1 -3 -2z"/></g>
  <g transform="scale(0.125 0.125) translate(0.000000,512.000000) scale(1.000000,-1.000000)" fill="#000000" stroke="none"><path d="M201 478 c-1 -2 -1 -2 1 -4 l2 -2 2 2 c2 2 2 2 1 4 -1 1 -3 2 -3 2 0
0 -2 -1 -3 -2z"/><path d="M241 478 c-1 -2 -1 -2 1 -4 l2 -2 2 2 c2 2 2 2 1 4 -1 1 -3 2 -3 2 0
0 -2 -1 -3 -2z"/><path d="M257 478 c-1 -2 -1 -2 1 -4 l2 -2 2 2 c2 2 2 2 1 4 -1 1 -3 2 -3 2 0
0 -2 -1 -3 -2z"/><path d="M305 470 c-1 -2 -1 -2 1 -4 l2 -2 2 2 c2 2 2 2 1 4 -1 1 -3 2 -3 2 0
0 -2 -1 -3 -2z"/><path d="M114 438 c-2 -2 -2 -2 0 -4 0 -1 2 -2 4 -2 1 0 2 -1 2 -2 0 -2 1 -4
2 -4 2 -2 2 -2 4 0 1 0 2 2 2 4 0 1 1 2 2 2 2 0 4 1 5 2 1 2 1 2 -1 4 -2 2 -2
2 -4 1 -1 -1 -2 -3 -2 -5 0 -2 0 -2 -4 -2 -4 0 -4 0 -4 2 0 2 -3 6 -4 6 0 0
-2 -1 -2 -2z"/><path d="M369 438 c-1 -2 -1 -2 1 -4 l2 -2 2 2 c2 2 2 2 1 4 -1 1 -3 2 -3 2 0
0 -2 -1 -3 -2z"/><path d="M82 406 c-2 -2 -2 -2 0 -4 0 -1 2 -2 4 -2 2 0 2 0 2 -4 0 -4 0 -4 -2
-4 -2 0 -4 -1 -5 -2 -1 -2 -1 -2 1 -4 2 -2 2 -2 4 -1 1 1 2 3 2 5 0 1 1 2 2 2
2 0 4 1 5 2 1 2 1 2 0 4 -1 1 -3 2 -5 2 -1 0 -2 1 -2 2 0 2 -3 6 -4 6 0 0 -2
-1 -2 -2z"/><path d="M178 406 c-2 -2 -2 -2 0 -4 0 -1 2 -2 4 -2 4 0 3 -4 -2 -8 -4 -3 -4
-3 -4 -10 l0 -6 -4 0 c-4 0 -4 0 -4 2 0 2 -1 4 -2 5 -2 1 -2 1 -4 -1 -2 -2 -2
-2 -1 -4 1 -1 3 -2 5 -2 2 0 2 0 2 -10 0 -13 1 -14 8 -14 6 0 8 2 8 8 0 4 0 5
-4 8 -5 4 -6 8 -2 8 2 0 4 1 6 4 3 4 4 4 8 4 4 0 5 0 8 4 l3 4 15 0 14 0 0 -2
c0 -3 3 -6 6 -6 2 0 2 0 2 -6 0 -6 0 -7 4 -10 l5 -4 -5 -4 c-4 -4 -4 -4 -3 -6
2 -2 3 -2 11 -2 10 0 12 1 12 8 0 4 0 5 4 8 4 3 4 4 4 8 0 6 2 8 8 8 4 0 5 0
8 4 l3 4 9 0 8 0 6 -6 6 -6 0 -20 0 -21 -4 -3 c-4 -3 -4 -3 -4 -10 0 -6 0 -6
-2 -6 -4 0 -6 -3 -6 -10 l0 -6 -6 0 c-9 0 -10 -1 -10 -10 0 -6 0 -6 -2 -6 -4
0 -6 -3 -6 -10 l0 -6 -6 0 c-8 0 -10 -2 -10 -8 0 -4 0 -5 -4 -8 -4 -3 -4 -3
-4 -10 0 -8 -2 -8 -8 -2 -4 4 -4 4 -6 3 -1 -2 -2 -4 -2 -7 0 -4 0 -5 4 -8 4
-3 4 -4 4 -8 0 -6 3 -9 6 -6 2 1 2 3 2 12 0 9 0 10 2 10 1 0 5 2 8 6 6 5 6 6
6 10 0 4 0 5 4 8 3 2 4 4 4 6 0 1 1 2 2 2 4 0 6 3 6 10 0 5 0 6 2 6 1 0 5 2 8
6 4 3 6 7 6 8 0 1 1 2 2 2 4 0 6 3 6 10 0 5 0 6 2 6 1 0 5 2 8 6 6 5 6 6 6 10
0 6 2 8 8 8 3 0 5 1 7 2 1 2 1 2 -3 6 l-4 4 0 12 0 13 -4 3 c-5 4 -6 8 -2 8 2
0 4 1 5 2 1 2 1 2 0 4 -1 1 -3 2 -5 2 -1 0 -2 1 -2 2 0 2 -1 4 -2 5 -2 1 -2 1
-4 0 -1 -1 -2 -3 -2 -5 0 -2 0 -2 -6 -2 -7 0 -7 0 -10 4 -3 4 -4 4 -8 4 -4 0
-5 0 -8 -4 -3 -4 -4 -4 -8 -4 -4 0 -5 0 -10 -6 -6 -5 -6 -6 -6 -10 0 -6 -2 -8
-8 -8 -4 0 -5 0 -8 4 -2 3 -4 4 -6 4 -1 0 -2 1 -2 2 0 3 -3 6 -6 6 -1 0 -2 1
-2 2 0 4 -3 6 -8 6 -4 0 -5 0 -8 4 -3 4 -4 4 -8 4 -4 0 -5 0 -8 -4 -3 -4 -3
-4 -10 -4 -6 0 -6 0 -6 2 0 2 -3 6 -4 6 0 0 -2 -1 -2 -2z m150 -10 c0 -3 0 -4
-2 -4 -3 0 -6 3 -6 6 0 2 0 2 4 2 l4 0 0 -4z"/><path d="M418 406 c-1 -1 -2 -3 -2 -4 0 -1 -1 -2 -2 -2 -2 0 -4 -1 -5 -2 -1
-2 -1 -2 1 -4 2 -2 2 -2 4 -1 1 1 2 3 2 5 0 1 1 2 2 2 2 0 4 1 5 2 1 2 1 2 0
4 -3 2 -3 2 -5 0z"/><path d="M65 382 c-1 -2 -1 -2 1 -4 l2 -2 2 2 c2 2 2 2 1 4 -1 1 -3 2 -3 2 0
0 -2 -1 -3 -2z"/><path d="M434 382 c-1 -1 -2 -3 -2 -4 0 -1 -1 -2 -2 -2 -2 0 -4 -1 -5 -2 -1
-2 -1 -2 1 -4 2 -2 2 -2 4 -1 1 1 2 3 2 5 0 1 1 2 2 2 2 0 4 1 5 2 1 2 1 2 0
4 -3 2 -3 2 -5 0z"/><path d="M57 366 c-1 -2 -1 -2 1 -4 l2 -2 2 2 c2 2 2 2 1 4 -1 1 -3 2 -3 2 0
0 -2 -1 -3 -2z"/><path d="M441 366 c-1 -2 -1 -2 1 -4 l2 -2 2 2 c2 2 2 2 1 4 -1 1 -3 2 -3 2 0
0 -2 -1 -3 -2z"/><path d="M178 342 c-4 -4 -2 -14 4 -14 2 0 2 -1 2 -4 0 -4 0 -4 -2 -4 -2 0 -4
-1 -5 -2 -1 -2 -1 -2 1 -4 2 -2 2 -2 4 -1 1 1 2 3 2 5 0 1 1 2 2 2 4 0 6 -3 6
-8 0 -5 2 -8 6 -8 1 0 2 -1 2 -2 0 -3 19 -22 22 -22 2 0 2 -1 2 -6 0 -7 0 -7
4 -10 5 -4 6 -8 2 -8 -2 0 -4 -1 -5 -2 -1 -2 -1 -2 1 -4 2 -2 2 -2 4 -1 1 1 2
3 2 5 0 1 1 2 2 2 4 0 6 3 6 8 0 4 -1 5 -6 10 -3 4 -7 6 -8 6 -2 0 -2 1 -2 6
l0 6 -6 6 -6 6 -6 0 -6 0 0 10 c0 13 -1 14 -10 14 l-6 0 0 6 c0 5 0 7 -2 8 -2
2 -2 2 -4 0z"/><path d="M49 334 c-1 -2 -1 -2 1 -4 l2 -2 2 2 c2 2 2 2 1 4 -1 1 -3 2 -3 2 0
0 -2 -1 -3 -2z"/><path d="M450 334 c-2 -2 -2 -2 0 -4 0 -1 2 -2 4 -2 l2 0 0 -14 0 -14 -4 -4
c-4 -4 -4 -4 -3 -6 2 -1 4 -2 7 -2 8 0 8 1 8 20 0 18 -1 20 -6 20 -1 0 -2 1
-2 2 0 2 -3 6 -4 6 0 0 -2 -1 -2 -2z"/><path d="M57 310 c-1 -2 -1 -2 1 -4 l2 -2 2 2 c2 2 2 2 1 4 -1 1 -3 2 -3 2 0
0 -2 -1 -3 -2z"/><path d="M49 286 c-1 -2 -1 -2 1 -4 l2 -2 2 2 c2 2 2 2 1 4 -1 1 -3 2 -3 2 0
0 -2 -1 -3 -2z"/><path d="M65 270 c-1 -2 -1 -2 1 -4 l2 -2 2 2 c2 2 2 2 1 4 -1 1 -3 2 -3 2 0
0 -2 -1 -3 -2z"/><path d="M433 270 c-1 -2 -1 -2 1 -4 l2 -2 2 2 c2 2 2 2 1 4 -1 1 -3 2 -3 2 0
0 -2 -1 -3 -2z"/><path d="M73 254 c-1 -2 -1 -2 1 -4 l2 -2 2 2 c2 2 2 2 1 4 -1 1 -3 2 -3 2 0
0 -2 -1 -3 -2z"/><path d="M81 238 c-1 -2 -1 -2 1 -4 l2 -2 2 2 c2 2 2 2 1 4 -1 1 -3 2 -3 2 0
0 -2 -1 -3 -2z"/><path d="M417 238 c-1 -2 -1 -2 1 -4 l2 -2 2 2 c2 2 2 2 1 4 -1 1 -3 2 -3 2 0
0 -2 -1 -3 -2z"/><path d="M401 198 c-1 -2 -1 -2 1 -4 l2 -2 2 2 c2 2 2 2 1 4 -1 1 -3 2 -3 2 0
0 -2 -1 -3 -2z"/><path d="M130 190 c-2 -2 -2 -2 0 -4 0 -1 2 -2 4 -2 1 0 2 -1 2 -2 0 -2 1 -4
2 -5 2 -1 2 -1 4 1 2 2 2 2 1 4 -1 1 -3 2 -5 2 -1 0 -2 1 -2 2 0 2 -3 6 -4 6
0 0 -2 -1 -2 -2z"/><path d="M361 182 c-1 -2 -1 -2 1 -4 l2 -2 2 2 c2 2 2 2 1 4 -1 1 -3 2 -3 2 0
0 -2 -1 -3 -2z"/><path d="M153 174 c-1 -2 -1 -2 1 -4 l2 -2 2 2 c2 2 2 2 1 4 -1 1 -3 2 -3 2 0
0 -2 -1 -3 -2z"/><path d="M345 174 c-1 -2 -1 -2 1 -4 l2 -2 2 2 c2 2 2 2 1 4 -1 1 -3 2 -3 2 0
0 -2 -1 -3 -2z"/><path d="M169 166 c-1 -2 -1 -2 1 -4 l2 -2 2 2 c2 2 2 2 1 4 -1 1 -3 2 -3 2 0
0 -2 -1 -3 -2z"/><path d="M329 166 c-1 -2 -1 -2 1 -4 l2 -2 2 2 c2 2 2 2 1 4 -1 1 -3 2 -3 2 0
0 -2 -1 -3 -2z"/><path d="M193 158 c-1 -2 -1 -2 1 -4 l2 -2 2 2 c2 2 2 2 1 4 -1 1 -3 2 -3 2 0
0 -2 -1 -3 -2z"/><path d="M305 158 c-1 -2 -1 -2 1 -4 l2 -2 2 2 c2 2 2 2 1 4 -1 1 -3 2 -3 2 0
0 -2 -1 -3 -2z"/><path d="M353 158 c-1 -2 -1 -2 1 -4 l2 -2 2 2 c2 2 2 2 1 4 -1 1 -3 2 -3 2 0
0 -2 -1 -3 -2z"/><path d="M161 150 c-1 -2 -1 -2 1 -4 l2 -2 2 2 c2 2 2 2 1 4 -1 1 -3 2 -3 2 0
0 -2 -1 -3 -2z"/><path d="M337 150 c-1 -2 -1 -2 1 -4 l2 -2 2 2 c2 2 2 2 1 4 -1 1 -3 2 -3 2 0
0 -2 -1 -3 -2z"/><path d="M185 142 c-1 -2 -1 -2 7 -10 8 -7 8 -8 8 -12 0 -4 1 -5 6 -10 3 -4 7
-6 8 -6 2 0 2 -1 2 -6 0 -7 2 -10 6 -10 2 0 2 0 2 -6 0 -7 0 -7 4 -10 4 -3 4
-4 4 -8 0 -4 0 -5 8 -12 8 -7 8 -8 8 -12 0 -3 1 -5 2 -6 2 -2 2 -2 8 4 6 5 6
6 6 10 0 4 0 5 4 8 4 3 4 3 4 10 0 5 0 6 2 6 1 0 5 2 8 6 l6 6 0 6 c0 6 0 6 2
6 4 0 6 3 6 10 0 6 0 6 2 6 4 0 6 3 6 10 0 5 0 6 2 6 1 0 5 3 8 6 6 6 6 6 4 8
-1 1 -3 2 -6 2 -6 0 -8 -2 -8 -10 l0 -6 -4 0 c-4 0 -4 0 -4 2 0 2 -1 4 -2 5
-2 1 -2 1 -4 -1 -2 -2 -2 -2 -1 -4 1 -1 3 -2 5 -2 2 0 2 0 2 -8 0 -8 0 -8 -2
-8 -4 0 -6 -3 -6 -10 0 -6 0 -6 -2 -6 -2 0 -4 -1 -6 -4 -4 -5 -8 -6 -8 -2 0 2
-1 4 -2 5 -2 1 -2 1 -4 0 -1 -1 -2 -3 -2 -5 0 -1 -1 -2 -2 -2 -2 0 -4 -1 -5
-2 -1 -2 -1 -2 1 -4 2 -2 2 -2 4 -1 1 1 2 3 2 5 0 2 0 2 4 2 l4 0 0 -8 c0 -8
0 -8 -2 -8 -2 0 -5 -3 -10 -8 l-8 -8 -6 6 -6 6 0 6 c0 6 0 6 2 6 2 0 4 1 5 2
1 2 1 2 -1 4 -2 2 -2 2 -4 1 -1 -1 -2 -3 -2 -5 0 -4 -4 -3 -8 2 -2 3 -4 4 -6
4 -2 0 -2 0 -2 8 0 8 0 8 2 8 2 0 4 1 5 2 1 2 1 2 -1 4 -2 2 -2 2 -4 1 -1 -1
-2 -3 -2 -5 0 -2 0 -2 -4 -2 l-4 0 0 8 c0 8 0 8 2 8 2 0 4 1 5 2 1 2 1 2 -1 4
-2 2 -2 2 -4 1 -1 -1 -2 -3 -2 -5 0 -1 -1 -2 -2 -2 -4 0 -6 3 -6 8 0 6 -10 16
-16 16 -3 0 -5 -1 -7 -2z"/><path d="M249 142 c-1 -2 -1 -2 1 -4 l2 -2 2 2 c2 2 2 2 1 4 -1 1 -3 2 -3 2 0
0 -2 -1 -3 -2z"/><path d="M273 110 c-1 -2 -1 -2 1 -4 l2 -2 2 2 c2 2 2 2 1 4 -1 1 -3 2 -3 2 0
0 -2 -1 -3 -2z"/></g>
  <g transform="scale(0.125 0.125) translate(0.000000,512.000000) scale(1.000000,-1.000000)" fill="#0d0609" stroke="none"><path d="M201 478 c-1 -2 -1 -2 1 -4 l2 -2 2 2 c2 2 2 2 1 4 -1 1 -3 2 -3 2 0
0 -2 -1 -3 -2z"/><path d="M241 478 c-1 -2 -1 -2 1 -4 l2 -2 2 2 c2 2 2 2 1 4 -1 1 -3 2 -3 2 0
0 -2 -1 -3 -2z"/><path d="M257 478 c-1 -2 -1 -2 1 -4 l2 -2 2 2 c2 2 2 2 1 4 -1 1 -3 2 -3 2 0
0 -2 -1 -3 -2z"/><path d="M305 470 c-1 -2 -1 -2 1 -4 l2 -2 2 2 c2 2 2 2 1 4 -1 1 -3 2 -3 2 0
0 -2 -1 -3 -2z"/><path d="M114 438 c-2 -2 -2 -2 0 -4 0 -1 2 -2 4 -2 1 0 2 -1 2 -2 0 -2 1 -4
2 -4 2 -2 2 -2 4 0 1 0 2 2 2 4 0 1 1 2 2 2 2 0 4 1 5 2 1 2 1 2 -1 4 -2 2 -2
2 -4 1 -1 -1 -2 -3 -2 -5 0 -2 0 -2 -4 -2 -4 0 -4 0 -4 2 0 2 -3 6 -4 6 0 0
-2 -1 -2 -2z"/><path d="M369 438 c-1 -2 -1 -2 1 -4 l2 -2 2 2 c2 2 2 2 1 4 -1 1 -3 2 -3 2 0
0 -2 -1 -3 -2z"/><path d="M82 406 c-2 -2 -2 -2 0 -4 0 -1 2 -2 4 -2 2 0 2 0 2 -4 0 -4 0 -4 -2
-4 -2 0 -4 -1 -5 -2 -1 -2 -1 -2 1 -4 2 -2 2 -2 4 -1 1 1 2 3 2 5 0 1 1 2 2 2
2 0 4 1 5 2 1 2 1 2 0 4 -1 1 -3 2 -5 2 -1 0 -2 1 -2 2 0 2 -3 6 -4 6 0 0 -2
-1 -2 -2z"/><path d="M177 406 c-1 -2 -1 -2 1 -4 l2 -2 2 2 c2 2 2 2 1 4 -1 1 -3 2 -3 2 0
0 -2 -1 -3 -2z"/><path d="M289 406 c-1 -2 -1 -2 1 -4 l2 -2 2 2 c2 2 2 2 1 4 -1 1 -3 2 -3 2 0
0 -2 -1 -3 -2z"/><path d="M322 406 c-2 -2 -2 -2 0 -4 0 -1 2 -2 4 -2 1 0 2 -1 2 -2 0 -2 1 -4
2 -5 2 -1 2 -1 4 1 2 2 2 2 1 4 -1 1 -3 2 -5 2 -1 0 -2 1 -2 2 0 2 -3 6 -4 6
0 0 -2 -1 -2 -2z"/><path d="M418 406 c-1 -1 -2 -3 -2 -4 0 -1 -1 -2 -2 -2 -2 0 -4 -1 -5 -2 -1
-2 -1 -2 1 -4 2 -2 2 -2 4 -1 1 1 2 3 2 5 0 1 1 2 2 2 2 0 4 1 5 2 1 2 1 2 0
4 -3 2 -3 2 -5 0z"/><path d="M270 394 l-6 -6 0 -10 0 -10 -4 0 c-3 0 -4 0 -4 2 0 1 -3 5 -6 8 -6
6 -6 6 -8 4 -1 -1 -2 -3 -2 -6 0 -6 2 -8 10 -8 l6 0 0 -6 c0 -8 3 -12 6 -8 2
1 2 3 2 8 0 6 0 6 2 6 4 0 6 3 6 8 0 6 2 8 8 8 3 0 5 1 6 2 2 2 2 2 -4 8 -3 3
-6 6 -6 6 0 0 -3 -3 -6 -6z"/><path d="M186 390 c-1 -1 -2 -3 -2 -4 0 -1 -1 -2 -2 -2 -3 0 -6 -3 -6 -6 0 -2
-1 -2 -4 -2 -4 0 -4 0 -4 2 0 2 -1 4 -2 5 -2 1 -2 1 -4 -1 -2 -2 -2 -2 -1 -4
1 -1 3 -2 5 -2 1 0 2 -1 2 -2 0 -3 3 -6 6 -6 4 0 3 -4 -2 -8 -4 -4 -4 -4 -3
-6 3 -3 11 -3 13 0 4 4 2 14 -4 14 -2 0 -2 1 -2 4 0 4 0 4 2 4 3 0 6 3 6 6 0
2 0 2 6 2 8 0 12 3 9 6 -3 3 -11 3 -13 0z"/><path d="M314 390 c-2 -2 -2 -2 0 -4 0 -1 2 -2 4 -2 l2 0 0 -22 0 -23 -4 -3
c-4 -3 -4 -3 -4 -10 0 -6 0 -6 -2 -6 -2 0 -4 -1 -5 -2 -1 -2 -1 -2 1 -4 2 -2
2 -2 4 -1 1 1 2 3 2 5 0 1 1 2 2 2 1 0 5 2 8 6 6 5 6 6 6 10 0 6 2 8 8 8 3 0
5 1 7 2 2 3 -1 6 -7 6 -7 0 -8 2 -8 12 l0 9 4 3 c4 4 4 4 3 6 -2 2 -3 2 -9 2
-6 0 -6 0 -6 2 0 2 -3 6 -4 6 0 0 -2 -1 -2 -2z"/><path d="M65 382 c-1 -2 -1 -2 1 -4 l2 -2 2 2 c2 2 2 2 1 4 -1 1 -3 2 -3 2 0
0 -2 -1 -3 -2z"/><path d="M434 382 c-1 -1 -2 -3 -2 -4 0 -1 -1 -2 -2 -2 -2 0 -4 -1 -5 -2 -1
-2 -1 -2 1 -4 2 -2 2 -2 4 -1 1 1 2 3 2 5 0 1 1 2 2 2 2 0 4 1 5 2 1 2 1 2 0
4 -3 2 -3 2 -5 0z"/><path d="M57 366 c-1 -2 -1 -2 1 -4 l2 -2 2 2 c2 2 2 2 1 4 -1 1 -3 2 -3 2 0
0 -2 -1 -3 -2z"/><path d="M441 366 c-1 -2 -1 -2 1 -4 l2 -2 2 2 c2 2 2 2 1 4 -1 1 -3 2 -3 2 0
0 -2 -1 -3 -2z"/><path d="M241 358 c-1 -2 -1 -2 1 -4 l2 -2 2 2 c2 2 2 2 1 4 -1 1 -3 2 -3 2 0
0 -2 -1 -3 -2z"/><path d="M49 334 c-1 -2 -1 -2 1 -4 l2 -2 2 2 c2 2 2 2 1 4 -1 1 -3 2 -3 2 0
0 -2 -1 -3 -2z"/><path d="M177 334 c-1 -2 -1 -2 1 -4 l2 -2 2 2 c2 2 2 2 1 4 -1 1 -3 2 -3 2 0
0 -2 -1 -3 -2z"/><path d="M449 334 c-1 -2 -1 -2 1 -4 l2 -2 2 2 c2 2 2 2 1 4 -1 1 -3 2 -3 2 0
0 -2 -1 -3 -2z"/><path d="M193 326 c-1 -2 -1 -2 1 -4 l2 -2 2 2 c2 2 2 2 1 4 -1 1 -3 2 -3 2 0
0 -2 -1 -3 -2z"/><path d="M177 318 c-1 -2 -1 -2 1 -4 l2 -2 2 2 c2 2 2 2 1 4 -1 1 -3 2 -3 2 0
0 -2 -1 -3 -2z"/><path d="M57 310 c-1 -2 -1 -2 1 -4 l2 -2 2 2 c2 2 2 2 1 4 -1 1 -3 2 -3 2 0
0 -2 -1 -3 -2z"/><path d="M194 310 c-2 -2 -2 -2 0 -4 0 -1 2 -2 4 -2 1 0 2 -1 2 -2 0 -4 3 -6
10 -6 l6 0 0 -6 c0 -7 2 -10 6 -10 2 0 2 0 2 -6 0 -8 2 -10 8 -10 3 0 5 1 6 2
2 2 2 2 -4 8 -3 3 -7 6 -8 6 -2 0 -2 1 -2 6 0 7 -2 10 -6 10 -1 0 -2 1 -2 2 0
4 -3 6 -10 6 -6 0 -6 0 -6 2 0 2 -3 6 -4 6 0 0 -2 -1 -2 -2z"/><path d="M290 302 c-3 -3 0 -6 6 -6 6 0 9 3 7 6 -2 1 -4 2 -7 2 -3 0 -5 -1 -6
-2z"/><path d="M449 294 c-1 -2 -1 -2 1 -4 l2 -2 2 2 c2 2 2 2 1 4 -1 1 -3 2 -3 2 0
0 -2 -1 -3 -2z"/><path d="M49 286 c-1 -2 -1 -2 1 -4 l2 -2 2 2 c2 2 2 2 1 4 -1 1 -3 2 -3 2 0
0 -2 -1 -3 -2z"/><path d="M282 286 c-3 -3 -3 -10 0 -12 3 -3 6 0 6 6 0 7 -3 10 -6 6z"/><path d="M65 270 c-1 -2 -1 -2 1 -4 l2 -2 2 2 c2 2 2 2 1 4 -1 1 -3 2 -3 2 0
0 -2 -1 -3 -2z"/><path d="M265 270 c-1 -2 -1 -2 1 -4 l2 -2 2 2 c2 2 2 2 1 4 -1 1 -3 2 -3 2 0
0 -2 -1 -3 -2z"/><path d="M433 270 c-1 -2 -1 -2 1 -4 l2 -2 2 2 c2 2 2 2 1 4 -1 1 -3 2 -3 2 0
0 -2 -1 -3 -2z"/><path d="M73 254 c-1 -2 -1 -2 1 -4 l2 -2 2 2 c2 2 2 2 1 4 -1 1 -3 2 -3 2 0
0 -2 -1 -3 -2z"/><path d="M225 254 c-1 -2 -1 -2 1 -4 l2 -2 2 2 c2 2 2 2 1 4 -3 2 -3 2 -6 0z"/><path d="M258 254 c-3 -3 0 -6 6 -6 3 0 5 1 7 2 2 3 -1 6 -7 6 -3 0 -5 -1 -6
-2z"/><path d="M242 246 c-4 -4 -2 -14 4 -14 2 0 2 0 2 -6 0 -8 3 -12 6 -8 5 4 2 14
-4 14 -2 0 -2 0 -2 6 0 5 0 7 -2 8 -2 2 -2 2 -4 0z"/><path d="M81 238 c-1 -2 -1 -2 1 -4 l2 -2 2 2 c2 2 2 2 1 4 -1 1 -3 2 -3 2 0
0 -2 -1 -3 -2z"/><path d="M417 238 c-1 -2 -1 -2 1 -4 l2 -2 2 2 c2 2 2 2 1 4 -1 1 -3 2 -3 2 0
0 -2 -1 -3 -2z"/><path d="M401 198 c-1 -2 -1 -2 1 -4 l2 -2 2 2 c2 2 2 2 1 4 -1 1 -3 2 -3 2 0
0 -2 -1 -3 -2z"/><path d="M130 190 c-2 -2 -2 -2 0 -4 0 -1 2 -2 4 -2 1 0 2 -1 2 -2 0 -2 1 -4
2 -5 2 -1 2 -1 4 1 2 2 2 2 1 4 -1 1 -3 2 -5 2 -1 0 -2 1 -2 2 0 2 -3 6 -4 6
0 0 -2 -1 -2 -2z"/><path d="M361 182 c-1 -2 -1 -2 1 -4 l2 -2 2 2 c2 2 2 2 1 4 -1 1 -3 2 -3 2 0
0 -2 -1 -3 -2z"/><path d="M153 174 c-1 -2 -1 -2 1 -4 l2 -2 2 2 c2 2 2 2 1 4 -1 1 -3 2 -3 2 0
0 -2 -1 -3 -2z"/><path d="M345 174 c-1 -2 -1 -2 1 -4 l2 -2 2 2 c2 2 2 2 1 4 -1 1 -3 2 -3 2 0
0 -2 -1 -3 -2z"/><path d="M169 166 c-1 -2 -1 -2 1 -4 l2 -2 2 2 c2 2 2 2 1 4 -1 1 -3 2 -3 2 0
0 -2 -1 -3 -2z"/><path d="M329 166 c-1 -2 -1 -2 1 -4 l2 -2 2 2 c2 2 2 2 1 4 -1 1 -3 2 -3 2 0
0 -2 -1 -3 -2z"/><path d="M193 158 c-1 -2 -1 -2 1 -4 l2 -2 2 2 c2 2 2 2 1 4 -1 1 -3 2 -3 2 0
0 -2 -1 -3 -2z"/><path d="M305 158 c-1 -2 -1 -2 1 -4 l2 -2 2 2 c2 2 2 2 1 4 -1 1 -3 2 -3 2 0
0 -2 -1 -3 -2z"/><path d="M353 158 c-1 -2 -1 -2 1 -4 l2 -2 2 2 c2 2 2 2 1 4 -1 1 -3 2 -3 2 0
0 -2 -1 -3 -2z"/><path d="M161 150 c-1 -2 -1 -2 1 -4 l2 -2 2 2 c2 2 2 2 1 4 -1 1 -3 2 -3 2 0
0 -2 -1 -3 -2z"/><path d="M337 150 c-1 -2 -1 -2 1 -4 l2 -2 2 2 c2 2 2 2 1 4 -1 1 -3 2 -3 2 0
0 -2 -1 -3 -2z"/><path d="M186 142 c-2 -2 -2 -2 4 -8 5 -6 6 -6 10 -6 3 0 5 1 6 2 2 2 2 2 -4
8 -5 6 -6 6 -10 6 -3 0 -5 -1 -6 -2z"/><path d="M249 142 c-1 -2 -1 -2 1 -4 l2 -2 2 2 c2 2 2 2 1 4 -1 1 -3 2 -3 2 0
0 -2 -1 -3 -2z"/><path d="M306 142 c-3 -2 -3 -10 0 -12 2 -2 2 -2 8 4 6 6 6 6 4 8 -2 3 -10 3
-12 0z"/><path d="M289 134 c-1 -2 -1 -2 1 -4 l2 -2 2 2 c2 2 2 2 1 4 -1 1 -3 2 -3 2 0
0 -2 -1 -3 -2z"/><path d="M217 126 c-1 -2 -1 -2 1 -4 l2 -2 2 2 c2 2 2 2 1 4 -1 1 -3 2 -3 2 0
0 -2 -1 -3 -2z"/><path d="M225 110 c-1 -2 -1 -2 1 -4 l2 -2 2 2 c2 2 2 2 1 4 -1 1 -3 2 -3 2 0
0 -2 -1 -3 -2z"/><path d="M273 110 c-1 -2 -1 -2 1 -4 l2 -2 2 2 c2 2 2 2 1 4 -1 1 -3 2 -3 2 0
0 -2 -1 -3 -2z"/><path d="M266 94 c-1 -1 -2 -3 -2 -4 0 -1 -1 -2 -2 -2 -2 0 -4 -1 -5 -2 -1 -2
-1 -2 1 -4 2 -2 2 -2 4 -1 1 1 2 3 2 5 0 2 0 2 4 2 4 0 4 0 4 -2 0 -2 1 -4 2
-5 2 -1 2 -1 4 1 2 2 2 2 1 4 -1 1 -3 2 -5 2 -1 0 -2 1 -2 2 0 2 -3 6 -4 6 0
0 -1 -1 -2 -2z"/><path d="M241 86 c-1 -2 -1 -2 1 -4 l2 -2 2 2 c2 2 2 2 1 4 -1 1 -3 2 -3 2 0
0 -2 -1 -3 -2z"/><path d="M258 62 c-1 -1 -2 -3 -2 -4 0 -1 -1 -2 -2 -2 -2 0 -4 -1 -5 -2 -1 -2
-1 -2 1 -4 2 -2 2 -2 4 -1 1 1 2 3 2 5 0 1 1 2 2 2 2 0 4 1 5 2 1 2 1 2 0 4
-3 2 -3 2 -5 0z"/></g>
  <g transform="scale(0.125 0.125) translate(0.000000,512.000000) scale(1.000000,-1.000000)" fill="#fbfbfb" stroke="none"><path d="M201 478 c-1 -2 -1 -2 1 -4 l2 -2 2 2 c2 2 2 2 1 4 -1 1 -3 2 -3 2 0
0 -2 -1 -3 -2z"/><path d="M241 478 c-1 -2 -1 -2 1 -4 l2 -2 2 2 c2 2 2 2 1 4 -1 1 -3 2 -3 2 0
0 -2 -1 -3 -2z"/><path d="M257 478 c-1 -2 -1 -2 1 -4 l2 -2 2 2 c2 2 2 2 1 4 -1 1 -3 2 -3 2 0
0 -2 -1 -3 -2z"/><path d="M305 470 c-1 -2 -1 -2 1 -4 l2 -2 2 2 c2 2 2 2 1 4 -1 1 -3 2 -3 2 0
0 -2 -1 -3 -2z"/><path d="M114 438 c-2 -2 -2 -2 0 -4 0 -1 2 -2 4 -2 1 0 2 -1 2 -2 0 -2 1 -4
2 -4 2 -2 2 -2 4 0 1 0 2 2 2 4 0 1 1 2 2 2 2 0 4 1 5 2 1 2 1 2 -1 4 -2 2 -2
2 -4 1 -1 -1 -2 -3 -2 -5 0 -2 0 -2 -4 -2 -4 0 -4 0 -4 2 0 2 -3 6 -4 6 0 0
-2 -1 -2 -2z"/><path d="M369 438 c-1 -2 -1 -2 1 -4 l2 -2 2 2 c2 2 2 2 1 4 -1 1 -3 2 -3 2 0
0 -2 -1 -3 -2z"/><path d="M82 406 c-2 -2 -2 -2 0 -4 0 -1 2 -2 4 -2 2 0 2 0 2 -4 0 -4 0 -4 -2
-4 -2 0 -4 -1 -5 -2 -1 -2 -1 -2 1 -4 2 -2 2 -2 4 -1 1 1 2 3 2 5 0 1 1 2 2 2
2 0 4 1 5 2 1 2 1 2 0 4 -1 1 -3 2 -5 2 -1 0 -2 1 -2 2 0 2 -3 6 -4 6 0 0 -2
-1 -2 -2z"/><path d="M177 406 c-1 -2 -1 -2 1 -4 l2 -2 2 2 c2 2 2 2 1 4 -1 1 -3 2 -3 2 0
0 -2 -1 -3 -2z"/><path d="M322 406 c-2 -2 -2 -2 0 -4 0 -1 2 -2 4 -2 1 0 2 -1 2 -2 0 -2 1 -4
2 -5 2 -1 2 -1 4 1 2 2 2 2 1 4 -1 1 -3 2 -5 2 -1 0 -2 1 -2 2 0 2 -3 6 -4 6
0 0 -2 -1 -2 -2z"/><path d="M418 406 c-1 -1 -2 -3 -2 -4 0 -1 -1 -2 -2 -2 -2 0 -4 -1 -5 -2 -1
-2 -1 -2 1 -4 2 -2 2 -2 4 -1 1 1 2 3 2 5 0 1 1 2 2 2 2 0 4 1 5 2 1 2 1 2 0
4 -3 2 -3 2 -5 0z"/><path d="M193 390 c-1 -2 -1 -2 1 -4 l2 -2 2 2 c2 2 2 2 1 4 -1 1 -3 2 -3 2 0
0 -2 -1 -3 -2z"/><path d="M281 390 c-1 -2 -1 -2 1 -4 l2 -2 2 2 c2 2 2 2 1 4 -1 1 -3 2 -3 2 0
0 -2 -1 -3 -2z"/><path d="M65 382 c-1 -2 -1 -2 1 -4 l2 -2 2 2 c2 2 2 2 1 4 -1 1 -3 2 -3 2 0
0 -2 -1 -3 -2z"/><path d="M161 382 c-1 -2 -1 -2 1 -4 l2 -2 2 2 c2 2 2 2 1 4 -1 1 -3 2 -3 2 0
0 -2 -1 -3 -2z"/><path d="M434 382 c-1 -1 -2 -3 -2 -4 0 -1 -1 -2 -2 -2 -2 0 -4 -1 -5 -2 -1
-2 -1 -2 1 -4 2 -2 2 -2 4 -1 1 1 2 3 2 5 0 1 1 2 2 2 2 0 4 1 5 2 1 2 1 2 0
4 -3 2 -3 2 -5 0z"/><path d="M249 374 c-1 -2 -1 -2 1 -4 l2 -2 2 2 c2 2 2 2 1 4 -1 1 -3 2 -3 2 0
0 -2 -1 -3 -2z"/><path d="M265 374 c-1 -2 -1 -2 1 -4 l2 -2 2 2 c2 2 2 2 1 4 -1 1 -3 2 -3 2 0
0 -2 -1 -3 -2z"/><path d="M322 374 c-3 -3 -3 -26 0 -28 2 -2 2 -2 4 0 3 2 3 26 0 28 -2 2 -2 2
-4 0z"/><path d="M57 366 c-1 -2 -1 -2 1 -4 l2 -2 2 2 c2 2 2 2 1 4 -1 1 -3 2 -3 2 0
0 -2 -1 -3 -2z"/><path d="M178 366 c-3 -3 -3 -10 0 -12 3 -3 6 0 6 6 0 7 -3 10 -6 6z"/><path d="M441 366 c-1 -2 -1 -2 1 -4 l2 -2 2 2 c2 2 2 2 1 4 -1 1 -3 2 -3 2 0
0 -2 -1 -3 -2z"/><path d="M241 358 c-1 -2 -1 -2 1 -4 l2 -2 2 2 c2 2 2 2 1 4 -1 1 -3 2 -3 2 0
0 -2 -1 -3 -2z"/><path d="M257 358 c-1 -2 -1 -2 1 -4 l2 -2 2 2 c2 2 2 2 1 4 -1 1 -3 2 -3 2 0
0 -2 -1 -3 -2z"/><path d="M337 350 c-1 -2 -1 -2 1 -4 l2 -2 2 2 c2 2 2 2 1 4 -1 1 -3 2 -3 2 0
0 -2 -1 -3 -2z"/><path d="M49 334 c-1 -2 -1 -2 1 -4 l2 -2 2 2 c2 2 2 2 1 4 -1 1 -3 2 -3 2 0
0 -2 -1 -3 -2z"/><path d="M313 334 c-1 -2 -1 -2 1 -4 l2 -2 2 2 c2 2 2 2 1 4 -1 1 -3 2 -3 2 0
0 -2 -1 -3 -2z"/><path d="M449 334 c-1 -2 -1 -2 1 -4 l2 -2 2 2 c2 2 2 2 1 4 -1 1 -3 2 -3 2 0
0 -2 -1 -3 -2z"/><path d="M193 326 c-1 -2 -1 -2 1 -4 l2 -2 2 2 c2 2 2 2 1 4 -1 1 -3 2 -3 2 0
0 -2 -1 -3 -2z"/><path d="M177 318 c-1 -2 -1 -2 1 -4 l2 -2 2 2 c2 2 2 2 1 4 -1 1 -3 2 -3 2 0
0 -2 -1 -3 -2z"/><path d="M57 310 c-1 -2 -1 -2 1 -4 l2 -2 2 2 c2 2 2 2 1 4 -1 1 -3 2 -3 2 0
0 -2 -1 -3 -2z"/><path d="M210 302 c-2 -2 -2 -2 0 -4 0 -1 2 -2 4 -2 1 0 2 -1 2 -2 0 -2 1 -4
2 -5 2 -1 2 -1 4 1 2 2 2 2 1 4 -1 1 -3 2 -5 2 -1 0 -2 1 -2 2 0 2 -3 6 -4 6
0 0 -2 -1 -2 -2z"/><path d="M289 302 c-1 -2 -1 -2 1 -4 l2 -2 2 2 c2 2 2 2 1 4 -1 1 -3 2 -3 2 0
0 -2 -1 -3 -2z"/><path d="M449 294 c-1 -2 -1 -2 1 -4 l2 -2 2 2 c2 2 2 2 1 4 -1 1 -3 2 -3 2 0
0 -2 -1 -3 -2z"/><path d="M49 286 c-1 -2 -1 -2 1 -4 l2 -2 2 2 c2 2 2 2 1 4 -1 1 -3 2 -3 2 0
0 -2 -1 -3 -2z"/><path d="M65 270 c-1 -2 -1 -2 1 -4 l2 -2 2 2 c2 2 2 2 1 4 -1 1 -3 2 -3 2 0
0 -2 -1 -3 -2z"/><path d="M233 270 c-1 -2 -1 -2 1 -4 l2 -2 2 2 c2 2 2 2 1 4 -1 1 -3 2 -3 2 0
0 -2 -1 -3 -2z"/><path d="M265 270 c-1 -2 -1 -2 1 -4 l2 -2 2 2 c2 2 2 2 1 4 -1 1 -3 2 -3 2 0
0 -2 -1 -3 -2z"/><path d="M433 270 c-1 -2 -1 -2 1 -4 l2 -2 2 2 c2 2 2 2 1 4 -1 1 -3 2 -3 2 0
0 -2 -1 -3 -2z"/><path d="M73 254 c-1 -2 -1 -2 1 -4 l2 -2 2 2 c2 2 2 2 1 4 -1 1 -3 2 -3 2 0
0 -2 -1 -3 -2z"/><path d="M225 254 c-1 -2 -1 -2 1 -4 l2 -2 2 2 c2 2 2 2 1 4 -3 2 -3 2 -6 0z"/><path d="M257 254 c-1 -2 -1 -2 1 -4 l2 -2 2 2 c2 2 2 2 1 4 -1 1 -3 2 -3 2 0
0 -2 -1 -3 -2z"/><path d="M81 238 c-1 -2 -1 -2 1 -4 l2 -2 2 2 c2 2 2 2 1 4 -1 1 -3 2 -3 2 0
0 -2 -1 -3 -2z"/><path d="M241 238 c-1 -2 -1 -2 1 -4 l2 -2 2 2 c2 2 2 2 1 4 -1 1 -3 2 -3 2 0
0 -2 -1 -3 -2z"/><path d="M417 238 c-1 -2 -1 -2 1 -4 l2 -2 2 2 c2 2 2 2 1 4 -1 1 -3 2 -3 2 0
0 -2 -1 -3 -2z"/><path d="M249 222 c-1 -2 -1 -2 1 -4 l2 -2 2 2 c2 2 2 2 1 4 -1 1 -3 2 -3 2 0
0 -2 -1 -3 -2z"/><path d="M401 198 c-1 -2 -1 -2 1 -4 l2 -2 2 2 c2 2 2 2 1 4 -1 1 -3 2 -3 2 0
0 -2 -1 -3 -2z"/><path d="M130 190 c-2 -2 -2 -2 0 -4 0 -1 2 -2 4 -2 1 0 2 -1 2 -2 0 -2 1 -4
2 -5 2 -1 2 -1 4 1 2 2 2 2 1 4 -1 1 -3 2 -5 2 -1 0 -2 1 -2 2 0 2 -3 6 -4 6
0 0 -2 -1 -2 -2z"/><path d="M361 182 c-1 -2 -1 -2 1 -4 l2 -2 2 2 c2 2 2 2 1 4 -1 1 -3 2 -3 2 0
0 -2 -1 -3 -2z"/><path d="M153 174 c-1 -2 -1 -2 1 -4 l2 -2 2 2 c2 2 2 2 1 4 -1 1 -3 2 -3 2 0
0 -2 -1 -3 -2z"/><path d="M345 174 c-1 -2 -1 -2 1 -4 l2 -2 2 2 c2 2 2 2 1 4 -1 1 -3 2 -3 2 0
0 -2 -1 -3 -2z"/><path d="M169 166 c-1 -2 -1 -2 1 -4 l2 -2 2 2 c2 2 2 2 1 4 -1 1 -3 2 -3 2 0
0 -2 -1 -3 -2z"/><path d="M329 166 c-1 -2 -1 -2 1 -4 l2 -2 2 2 c2 2 2 2 1 4 -1 1 -3 2 -3 2 0
0 -2 -1 -3 -2z"/><path d="M193 158 c-1 -2 -1 -2 1 -4 l2 -2 2 2 c2 2 2 2 1 4 -1 1 -3 2 -3 2 0
0 -2 -1 -3 -2z"/><path d="M305 158 c-1 -2 -1 -2 1 -4 l2 -2 2 2 c2 2 2 2 1 4 -1 1 -3 2 -3 2 0
0 -2 -1 -3 -2z"/><path d="M249 142 c-1 -2 -1 -2 1 -4 l2 -2 2 2 c2 2 2 2 1 4 -1 1 -3 2 -3 2 0
0 -2 -1 -3 -2z"/><path d="M289 134 c-1 -2 -1 -2 1 -4 l2 -2 2 2 c2 2 2 2 1 4 -1 1 -3 2 -3 2 0
0 -2 -1 -3 -2z"/><path d="M217 126 c-1 -2 -1 -2 1 -4 l2 -2 2 2 c2 2 2 2 1 4 -1 1 -3 2 -3 2 0
0 -2 -1 -3 -2z"/><path d="M225 110 c-1 -2 -1 -2 1 -4 l2 -2 2 2 c2 2 2 2 1 4 -1 1 -3 2 -3 2 0
0 -2 -1 -3 -2z"/><path d="M273 110 c-1 -2 -1 -2 1 -4 l2 -2 2 2 c2 2 2 2 1 4 -1 1 -3 2 -3 2 0
0 -2 -1 -3 -2z"/><path d="M266 94 c-1 -1 -2 -3 -2 -4 0 -1 -1 -2 -2 -2 -2 0 -4 -1 -5 -2 -1 -2
-1 -2 1 -4 2 -2 2 -2 4 -1 1 1 2 3 2 5 0 1 1 2 2 2 2 0 4 1 5 2 1 2 1 2 0 4
-3 2 -3 2 -5 0z"/><path d="M241 86 c-1 -2 -1 -2 1 -4 l2 -2 2 2 c2 2 2 2 1 4 -1 1 -3 2 -3 2 0
0 -2 -1 -3 -2z"/><path d="M257 62 c-1 -2 -1 -2 1 -4 l2 -2 2 2 c2 2 2 2 1 4 -1 1 -3 2 -3 2 0
0 -2 -1 -3 -2z"/></g>
  <g transform="scale(0.125 0.125) translate(0.000000,512.000000) scale(1.000000,-1.000000)" fill="#904a6e" stroke="none"><path d="M201 478 c-1 -2 -1 -2 1 -4 l2 -2 2 2 c2 2 2 2 1 4 -1 1 -3 2 -3 2 0
0 -2 -1 -3 -2z"/><path d="M113 438 c-1 -2 -1 -2 1 -4 l2 -2 2 2 c2 2 2 2 1 4 -1 1 -3 2 -3 2 0
0 -2 -1 -3 -2z"/><path d="M81 406 c-1 -2 -1 -2 1 -4 l2 -2 2 2 c2 2 2 2 1 4 -1 1 -3 2 -3 2 0
0 -2 -1 -3 -2z"/><path d="M417 406 c-1 -2 -1 -2 1 -4 l2 -2 2 2 c2 2 2 2 1 4 -1 1 -3 2 -3 2 0
0 -2 -1 -3 -2z"/><path d="M193 390 c-1 -2 -1 -2 1 -4 l2 -2 2 2 c2 2 2 2 1 4 -1 1 -3 2 -3 2 0
0 -2 -1 -3 -2z"/><path d="M281 390 c-1 -2 -1 -2 1 -4 l2 -2 2 2 c2 2 2 2 1 4 -1 1 -3 2 -3 2 0
0 -2 -1 -3 -2z"/><path d="M65 382 c-1 -2 -1 -2 1 -4 l2 -2 2 2 c2 2 2 2 1 4 -1 1 -3 2 -3 2 0
0 -2 -1 -3 -2z"/><path d="M433 382 c-1 -2 -1 -2 1 -4 l2 -2 2 2 c2 2 2 2 1 4 -1 1 -3 2 -3 2 0
0 -2 -1 -3 -2z"/><path d="M249 374 c-1 -2 -1 -2 1 -4 l2 -2 2 2 c2 2 2 2 1 4 -1 1 -3 2 -3 2 0
0 -2 -1 -3 -2z"/><path d="M265 374 c-1 -2 -1 -2 1 -4 l2 -2 2 2 c2 2 2 2 1 4 -1 1 -3 2 -3 2 0
0 -2 -1 -3 -2z"/><path d="M322 374 c-3 -3 -3 -26 0 -28 2 -2 2 -2 4 0 3 2 3 26 0 28 -2 2 -2 2
-4 0z"/><path d="M57 366 c-1 -2 -1 -2 1 -4 l2 -2 2 2 c2 2 2 2 1 4 -1 1 -3 2 -3 2 0
0 -2 -1 -3 -2z"/><path d="M178 366 c-3 -3 -3 -10 0 -12 3 -3 6 0 6 6 0 7 -3 10 -6 6z"/><path d="M441 366 c-1 -2 -1 -2 1 -4 l2 -2 2 2 c2 2 2 2 1 4 -1 1 -3 2 -3 2 0
0 -2 -1 -3 -2z"/><path d="M241 358 c-1 -2 -1 -2 1 -4 l2 -2 2 2 c2 2 2 2 1 4 -1 1 -3 2 -3 2 0
0 -2 -1 -3 -2z"/><path d="M257 358 c-1 -2 -1 -2 1 -4 l2 -2 2 2 c2 2 2 2 1 4 -1 1 -3 2 -3 2 0
0 -2 -1 -3 -2z"/><path d="M49 334 c-1 -2 -1 -2 1 -4 l2 -2 2 2 c2 2 2 2 1 4 -1 1 -3 2 -3 2 0
0 -2 -1 -3 -2z"/><path d="M313 334 c-1 -2 -1 -2 1 -4 l2 -2 2 2 c2 2 2 2 1 4 -1 1 -3 2 -3 2 0
0 -2 -1 -3 -2z"/><path d="M449 334 c-1 -2 -1 -2 1 -4 l2 -2 2 2 c2 2 2 2 1 4 -1 1 -3 2 -3 2 0
0 -2 -1 -3 -2z"/><path d="M193 326 c-1 -2 -1 -2 1 -4 l2 -2 2 2 c2 2 2 2 1 4 -1 1 -3 2 -3 2 0
0 -2 -1 -3 -2z"/><path d="M210 302 c-2 -2 -2 -2 0 -4 0 -1 2 -2 4 -2 1 0 2 -1 2 -2 0 -2 1 -4
2 -5 2 -1 2 -1 4 1 2 2 2 2 1 4 -1 1 -3 2 -5 2 -1 0 -2 1 -2 2 0 2 -3 6 -4 6
0 0 -2 -1 -2 -2z"/><path d="M289 302 c-1 -2 -1 -2 1 -4 l2 -2 2 2 c2 2 2 2 1 4 -1 1 -3 2 -3 2 0
0 -2 -1 -3 -2z"/><path d="M449 294 c-1 -2 -1 -2 1 -4 l2 -2 2 2 c2 2 2 2 1 4 -1 1 -3 2 -3 2 0
0 -2 -1 -3 -2z"/><path d="M49 286 c-1 -2 -1 -2 1 -4 l2 -2 2 2 c2 2 2 2 1 4 -1 1 -3 2 -3 2 0
0 -2 -1 -3 -2z"/><path d="M233 270 c-1 -2 -1 -2 1 -4 l2 -2 2 2 c2 2 2 2 1 4 -1 1 -3 2 -3 2 0
0 -2 -1 -3 -2z"/><path d="M265 270 c-1 -2 -1 -2 1 -4 l2 -2 2 2 c2 2 2 2 1 4 -1 1 -3 2 -3 2 0
0 -2 -1 -3 -2z"/><path d="M257 254 c-1 -2 -1 -2 1 -4 l2 -2 2 2 c2 2 2 2 1 4 -1 1 -3 2 -3 2 0
0 -2 -1 -3 -2z"/><path d="M241 238 c-1 -2 -1 -2 1 -4 l2 -2 2 2 c2 2 2 2 1 4 -1 1 -3 2 -3 2 0
0 -2 -1 -3 -2z"/><path d="M249 222 c-1 -2 -1 -2 1 -4 l2 -2 2 2 c2 2 2 2 1 4 -1 1 -3 2 -3 2 0
0 -2 -1 -3 -2z"/><path d="M401 198 c-1 -2 -1 -2 1 -4 l2 -2 2 2 c2 2 2 2 1 4 -1 1 -3 2 -3 2 0
0 -2 -1 -3 -2z"/><path d="M257 62 c-1 -2 -1 -2 1 -4 l2 -2 2 2 c2 2 2 2 1 4 -1 1 -3 2 -3 2 0
0 -2 -1 -3 -2z"/></g>
  <g transform="scale(0.125 0.125) translate(0.000000,512.000000) scale(1.000000,-1.000000)" fill="#872055" stroke="none"><path d="M193 390 c-1 -2 -1 -2 1 -4 l2 -2 2 2 c2 2 2 2 1 4 -1 1 -3 2 -3 2 0
0 -2 -1 -3 -2z"/><path d="M281 390 c-1 -2 -1 -2 1 -4 l2 -2 2 2 c2 2 2 2 1 4 -1 1 -3 2 -3 2 0
0 -2 -1 -3 -2z"/><path d="M265 374 c-1 -2 -1 -2 1 -4 l2 -2 2 2 c2 2 2 2 1 4 -1 1 -3 2 -3 2 0
0 -2 -1 -3 -2z"/><path d="M322 374 c-3 -3 -3 -26 0 -28 2 -2 2 -2 4 0 3 2 3 26 0 28 -2 2 -2 2
-4 0z"/><path d="M178 366 c-3 -3 -3 -10 0 -12 3 -3 6 0 6 6 0 7 -3 10 -6 6z"/><path d="M241 358 c-1 -2 -1 -2 1 -4 l2 -2 2 2 c2 2 2 2 1 4 -1 1 -3 2 -3 2 0
0 -2 -1 -3 -2z"/><path d="M257 358 c-1 -2 -1 -2 1 -4 l2 -2 2 2 c2 2 2 2 1 4 -1 1 -3 2 -3 2 0
0 -2 -1 -3 -2z"/><path d="M313 334 c-1 -2 -1 -2 1 -4 l2 -2 2 2 c2 2 2 2 1 4 -1 1 -3 2 -3 2 0
0 -2 -1 -3 -2z"/><path d="M209 302 c-1 -2 -1 -2 1 -4 l2 -2 2 2 c2 2 2 2 1 4 -1 1 -3 2 -3 2 0
0 -2 -1 -3 -2z"/><path d="M233 270 c-1 -2 -1 -2 1 -4 l2 -2 2 2 c2 2 2 2 1 4 -1 1 -3 2 -3 2 0
0 -2 -1 -3 -2z"/><path d="M257 254 c-1 -2 -1 -2 1 -4 l2 -2 2 2 c2 2 2 2 1 4 -1 1 -3 2 -3 2 0
0 -2 -1 -3 -2z"/></g>
</svg>
