<?xml version="1.0" encoding="UTF-8"?>
<svg xmlns="http://www.w3.org/2000/svg" viewBox="0 0 64 64" width="64" height="64">
  <g transform="scale(0.125 0.125) translate(0.000000,512.000000) scale(1.000000,-1.000000)" fill="#ffffff" stroke="none"><path d="M192 452 l-3 -4 -9 0 -9 0 -3 -4 c-3 -4 -4 -4 -8 -4 -4 0 -5 0 -12
-8 -7 -8 -8 -8 -12 -8 -4 0 -4 0 -22 -18 -18 -18 -18 -18 -18 -22 0 -4 0 -5
-4 -8 -4 -3 -4 -4 -4 -8 0 -4 0 -5 -4 -8 -4 -3 -4 -4 -4 -8 0 -4 0 -5 -4 -8
l-4 -3 0 -37 0 -37 4 -3 c4 -3 4 -4 4 -8 0 -4 0 -5 4 -8 4 -3 4 -4 4 -8 0 -4
0 -5 4 -8 4 -3 4 -4 4 -8 0 -4 0 -4 18 -22 18 -18 18 -18 22 -18 4 0 5 0 12
-8 7 -8 8 -8 12 -8 4 0 5 0 8 -4 3 -4 4 -4 8 -4 4 0 5 0 8 -4 3 -4 4 -4 8 -4
6 0 16 -10 16 -16 0 -4 1 -5 6 -10 3 -4 7 -6 8 -6 2 0 2 -1 2 -6 0 -7 0 -7 4
-10 4 -3 4 -4 4 -8 0 -4 0 -5 8 -12 8 -7 8 -8 8 -12 0 -3 1 -5 2 -6 2 -2 2 -2
8 4 5 5 6 6 6 10 0 4 0 5 8 12 8 7 8 8 8 12 0 4 0 5 4 8 4 3 4 4 4 8 0 4 0 5
4 8 4 3 4 4 4 8 0 4 0 5 6 10 5 6 6 6 10 6 4 0 5 0 8 4 3 4 4 4 8 4 4 0 5 0 8
4 3 4 4 4 8 4 4 0 5 0 12 8 7 8 8 8 12 8 4 0 4 0 22 18 18 18 18 18 18 22 0 4
0 5 4 8 4 3 4 4 4 8 0 4 0 5 4 8 4 3 4 4 4 8 0 4 0 5 4 8 l4 3 0 37 0 37 -4 3
c-4 3 -4 4 -4 8 0 4 0 5 -4 8 -4 3 -4 4 -4 8 0 4 0 5 -4 8 -4 3 -4 4 -4 8 0 4
0 4 -18 22 -18 18 -18 18 -22 18 -4 0 -5 0 -12 8 -7 8 -8 8 -12 8 -4 0 -5 0
-8 4 l-3 4 -9 0 -9 0 -3 4 -3 4 -57 0 -57 0 -3 -4z m31 -310 c1 -2 1 -2 -1 -4
l-2 -2 -2 2 c-2 2 -2 2 -1 4 1 1 3 2 3 2 0 0 2 -1 3 -2z m8 -16 c1 -2 1 -2 0
-4 -3 -3 -7 -3 -7 0 0 2 3 6 4 6 0 0 2 -1 3 -2z"/></g>
  <g transform="scale(0.125 0.125) translate(0.000000,512.000000) scale(1.000000,-1.000000)" fill="#c9c9c9" stroke="none"><path d="M192 452 l-3 -4 -9 0 -9 0 -3 -4 c-3 -4 -4 -4 -8 -4 -4 0 -5 0 -12
-8 -7 -8 -8 -8 -12 -8 -4 0 -4 0 -22 -18 -18 -18 -18 -18 -18 -22 0 -4 0 -5
-4 -8 -4 -3 -4 -4 -4 -8 0 -4 0 -5 -4 -8 -4 -3 -4 -4 -4 -8 0 -4 0 -5 -4 -8
l-4 -3 0 -37 0 -37 4 -3 c4 -3 4 -4 4 -8 0 -4 0 -5 4 -8 4 -3 4 -4 4 -8 0 -4
0 -5 4 -8 4 -3 4 -4 4 -8 0 -4 0 -4 18 -22 18 -18 18 -18 22 -18 4 0 5 0 12
-8 7 -8 8 -8 12 -8 4 0 5 0 8 -4 3 -4 4 -4 8 -4 4 0 5 0 8 -4 3 -4 4 -4 8 -4
6 0 16 -10 16 -16 0 -4 1 -5 6 -10 3 -4 7 -6 8 -6 2 0 2 -1 2 -6 0 -7 0 -7 4
-10 4 -3 4 -4 4 -8 0 -4 0 -5 8 -12 8 -7 8 -8 8 -12 0 -3 1 -5 2 -6 2 -2 2 -2
8 4 5 5 6 6 6 10 0 4 0 5 8 12 8 7 8 8 8 12 0 4 0 5 4 8 4 3 4 4 4 8 0 4 0 5
4 8 4 3 4 4 4 8 0 4 0 5 6 10 5 6 6 6 10 6 4 0 5 0 8 4 3 4 4 4 8 4 4 0 5 0 8
4 3 4 4 4 8 4 4 0 5 0 12 8 7 8 8 8 12 8 4 0 4 0 22 18 18 18 18 18 18 22 0 4
0 5 4 8 4 3 4 4 4 8 0 4 0 5 4 8 4 3 4 4 4 8 0 4 0 5 4 8 l4 3 0 37 0 37 -4 3
c-4 3 -4 4 -4 8 0 4 0 5 -4 8 -4 3 -4 4 -4 8 0 4 0 5 -4 8 -4 3 -4 4 -4 8 0 4
0 4 -18 22 -18 18 -18 18 -22 18 -4 0 -5 0 -12 8 -7 8 -8 8 -12 8 -4 0 -5 0
-8 4 l-3 4 -9 0 -9 0 -3 4 -3 4 -57 0 -57 0 -3 -4z m64 -8 l3 -4 21 0 21 0 3
-4 3 -4 13 0 12 0 12 -12 c11 -12 12 -12 16 -12 4 0 5 -1 14 -10 10 -9 10 -10
10 -14 0 -4 0 -5 8 -12 8 -7 8 -8 8 -12 0 -4 0 -5 4 -8 4 -3 4 -4 4 -8 0 -4 0
-5 4 -8 l4 -3 0 -29 0 -29 -4 -3 c-4 -3 -4 -4 -4 -8 0 -4 0 -5 -4 -8 -4 -3 -4
-4 -4 -8 0 -4 0 -5 -4 -8 -4 -3 -4 -4 -4 -8 0 -4 0 -4 -10 -14 -9 -9 -10 -10
-14 -10 -4 0 -5 0 -20 -16 l-16 -16 -16 0 -16 0 -6 -6 c-6 -5 -6 -6 -6 -10 0
-4 0 -5 -4 -8 l-4 -3 0 -9 0 -8 -12 -12 c-12 -12 -12 -12 -12 -16 0 -6 -3 -9
-6 -6 -1 1 -2 3 -2 6 0 4 0 5 -6 10 l-6 6 -6 0 c-8 0 -8 3 -2 8 4 4 4 4 3 6
-2 1 -4 2 -7 2 -3 0 -5 1 -7 2 -1 2 -1 2 3 6 4 3 4 4 4 8 0 6 -10 16 -16 16
-4 0 -5 0 -8 4 l-3 4 -9 0 -9 0 -3 4 c-3 4 -4 4 -8 4 -4 0 -5 0 -12 8 -7 8 -8
8 -12 8 -4 0 -5 0 -18 14 -14 14 -14 14 -14 18 0 4 0 5 -4 8 -4 3 -4 4 -4 8 0
4 0 5 -4 8 -4 3 -4 4 -4 8 0 4 0 5 -4 8 l-4 3 0 29 0 29 4 3 4 3 0 9 0 8 12
12 c12 11 12 12 12 16 0 4 1 5 10 14 9 10 10 10 14 10 4 0 5 0 12 8 7 8 8 8
12 8 4 0 5 0 8 4 l3 4 9 0 9 0 3 4 3 4 21 0 21 0 3 4 c2 2 4 4 4 4 0 0 2 -2 4
-4z"/></g>
  <g transform="scale(0.125 0.125) translate(0.000000,512.000000) scale(1.000000,-1.000000)" fill="#393939" stroke="none"><path d="M192 452 l-3 -4 -9 0 -9 0 -3 -4 c-3 -4 -4 -4 -8 -4 -4 0 -5 0 -12
-8 -7 -8 -8 -8 -12 -8 -4 0 -4 0 -22 -18 -18 -18 -18 -18 -18 -22 0 -4 0 -5
-4 -8 -4 -3 -4 -4 -4 -8 0 -4 0 -5 -4 -8 -4 -3 -4 -4 -4 -8 0 -4 0 -5 -4 -8
l-4 -3 0 -37 0 -37 4 -3 c4 -3 4 -4 4 -8 0 -4 0 -5 4 -8 4 -3 4 -4 4 -8 0 -4
0 -5 4 -8 4 -3 4 -4 4 -8 0 -4 0 -4 18 -22 18 -18 18 -18 22 -18 4 0 5 0 12
-8 7 -8 8 -8 12 -8 4 0 5 0 8 -4 3 -4 4 -4 8 -4 4 0 5 0 8 -4 3 -4 4 -4 8 -4
6 0 16 -10 16 -16 0 -4 1 -5 6 -10 3 -4 7 -6 8 -6 2 0 2 -1 2 -6 0 -7 0 -7 4
-10 4 -3 4 -4 4 -8 0 -4 0 -5 8 -12 8 -7 8 -8 8 -12 0 -3 1 -5 2 -6 2 -2 2 -2
8 4 5 5 6 6 6 10 0 4 0 5 8 12 8 7 8 8 8 12 0 4 0 5 4 8 4 3 4 4 4 8 0 4 0 5
4 8 4 3 4 4 4 8 0 4 0 5 6 10 5 6 6 6 10 6 4 0 5 0 8 4 3 4 4 4 8 4 4 0 5 0 8
4 3 4 4 4 8 4 4 0 5 0 12 8 7 8 8 8 12 8 4 0 4 0 22 18 18 18 18 18 18 22 0 4
0 5 4 8 4 3 4 4 4 8 0 4 0 5 4 8 4 3 4 4 4 8 0 4 0 5 4 8 l4 3 0 37 0 37 -4 3
c-4 3 -4 4 -4 8 0 4 0 5 -4 8 -4 3 -4 4 -4 8 0 4 0 5 -4 8 -4 3 -4 4 -4 8 0 4
0 4 -18 22 -18 18 -18 18 -22 18 -4 0 -5 0 -12 8 -7 8 -8 8 -12 8 -4 0 -5 0
-8 4 l-3 4 -9 0 -9 0 -3 4 -3 4 -57 0 -57 0 -3 -4z m32 -8 l3 -4 9 0 9 0 3 4
4 5 4 -5 4 -4 8 0 9 0 3 4 3 4 9 0 c10 0 12 -1 12 -8 0 -6 2 -8 8 -8 4 0 5 0
8 4 l4 5 4 -5 c3 -4 4 -4 8 -4 6 0 8 -2 8 -8 0 -4 0 -5 6 -10 l6 -6 4 4 c4 4
4 4 6 3 1 -2 2 -4 2 -7 0 -4 0 -5 8 -12 8 -7 8 -8 8 -12 0 -5 2 -8 6 -8 1 0 2
1 2 2 0 2 1 4 2 5 2 1 2 1 4 -1 2 -2 2 -2 1 -4 -1 -1 -3 -2 -5 -2 -1 0 -2 -1
-2 -2 0 -4 3 -6 8 -6 3 0 5 -1 7 -2 1 -2 1 -2 -3 -6 -4 -4 -4 -4 -3 -6 2 -1 4
-2 7 -2 3 0 5 -1 7 -2 1 -2 1 -2 -3 -6 l-4 -4 4 -4 c4 -3 4 -4 4 -8 0 -4 0 -5
4 -8 l5 -4 -5 -4 c-4 -3 -4 -4 -4 -8 0 -4 0 -5 4 -8 l5 -4 -5 -4 c-4 -3 -4 -4
-4 -8 0 -4 0 -5 -4 -8 l-4 -4 4 -4 c4 -4 4 -4 3 -6 -2 -1 -4 -2 -7 -2 -3 0 -5
-1 -7 -2 -1 -2 -1 -2 3 -6 4 -4 4 -4 3 -6 -2 -1 -4 -2 -7 -2 -3 0 -5 -1 -7 -2
-1 -2 -1 -2 3 -6 4 -4 4 -4 3 -6 -2 -1 -4 -2 -7 -2 -6 0 -16 -10 -16 -16 0 -5
-2 -8 -6 -8 -1 0 -2 -1 -2 -2 0 -2 -1 -4 -2 -4 -2 -2 -2 -2 -4 0 -1 0 -2 2 -2
4 0 4 -4 2 -10 -4 -5 -5 -6 -6 -6 -10 0 -6 -2 -8 -8 -8 -4 0 -5 0 -8 -4 l-4
-4 -4 4 -3 4 -9 0 c-9 0 -12 -1 -12 -6 0 -1 1 -2 2 -2 2 0 4 -1 4 -2 2 -2 2
-2 1 -4 -1 -1 -3 -2 -5 -2 -1 0 -2 -1 -2 -2 0 -4 -3 -6 -8 -6 -7 0 -8 -2 -8
-12 l0 -8 -12 -12 -12 -12 4 -4 4 -4 -6 -6 c-6 -6 -6 -6 -8 -4 -2 1 -2 3 -2
10 l0 8 -6 6 -6 6 -6 0 c-8 0 -8 3 -2 8 4 4 4 4 3 6 -2 1 -4 2 -7 2 -3 0 -5 1
-7 2 -1 2 -1 2 3 6 4 3 4 4 4 8 0 4 -1 5 -6 10 l-6 6 -4 -4 c-4 -4 -4 -4 -6
-3 -1 2 -2 4 -2 7 0 6 -2 8 -8 8 -4 0 -5 0 -8 -4 -4 -4 -4 -4 -6 -3 -1 2 -2 4
-2 7 0 3 -1 5 -2 7 -2 1 -2 1 -6 -3 -4 -4 -4 -4 -6 -3 -1 2 -2 4 -2 7 0 4 0 5
-6 10 l-6 6 -4 -4 -4 -4 -6 6 c-5 5 -6 6 -6 10 0 6 -2 8 -8 8 -4 0 -5 0 -10 6
l-6 6 4 4 c4 4 4 4 3 6 -2 1 -4 2 -7 2 -3 0 -5 1 -7 2 -1 2 -1 2 3 6 4 4 4 4
3 6 -2 1 -4 2 -7 2 -3 0 -5 1 -7 2 -1 2 -1 2 3 6 l5 4 -9 8 -8 8 4 4 4 4 0 8
0 9 -4 3 -4 4 4 4 c4 3 4 4 4 8 0 4 0 5 4 8 l5 4 -5 4 -4 4 4 4 c4 3 4 4 4 8
0 6 2 8 8 8 5 0 8 2 8 6 0 1 -1 2 -2 2 -2 0 -4 1 -4 2 -2 2 -2 2 0 4 0 1 2 2
4 2 1 0 2 1 2 2 0 4 3 6 8 6 6 0 16 10 16 16 0 3 1 5 2 7 2 1 2 1 6 -3 l4 -4
6 6 c6 5 6 6 6 10 0 3 1 5 2 7 2 1 2 1 6 -3 4 -4 4 -4 6 -3 1 2 2 4 2 7 0 3 1
5 2 7 2 1 2 1 6 -3 3 -4 4 -4 8 -4 6 0 8 2 8 8 0 7 2 8 12 8 l9 0 3 -4z"/><path d="M112 380 c0 -5 3 -6 7 -2 1 2 1 2 0 4 -4 4 -7 3 -7 -2z"/><path d="M362 206 c-4 -3 -3 -6 2 -6 4 0 4 0 4 2 0 2 -3 6 -4 6 0 0 -1 -1 -2
-2z"/><path d="M290 166 c-2 -2 -2 -2 0 -4 3 -4 6 -3 6 2 0 5 -3 6 -6 2z"/></g>
  <g transform="scale(0.125 0.125) translate(0.000000,512.000000) scale(1.000000,-1.000000)" fill="#272626" stroke="none"><path d="M192 452 l-3 -4 -9 0 -8 0 -6 -6 c-4 -3 -6 -7 -6 -8 0 -2 -1 -2 -6
-2 -9 0 -10 -1 -10 -12 0 -7 0 -9 2 -10 2 -2 2 -2 8 4 l6 6 0 6 c0 8 3 8 8 2
4 -4 4 -4 6 -3 1 2 2 4 2 7 0 3 1 5 2 7 2 1 2 1 6 -3 3 -4 4 -4 8 -4 6 0 8 2
8 8 0 4 0 5 4 8 4 4 4 4 3 6 -2 1 -4 2 -7 2 -4 0 -5 0 -8 -4z"/><path d="M218 454 c-2 -2 -2 -2 4 -8 l6 -6 8 0 9 0 3 4 4 5 4 -5 4 -4 8 0 9 0
3 4 3 4 9 0 c10 0 12 -1 12 -8 0 -6 2 -8 8 -8 4 0 5 0 8 4 l4 5 4 -5 c3 -4 4
-4 10 -4 l6 0 0 -6 0 -6 6 -6 c6 -6 6 -6 8 -4 2 1 2 3 2 10 0 11 -1 12 -10 12
-5 0 -6 0 -6 2 0 1 -2 5 -6 8 l-6 6 -8 0 -9 0 -3 4 -3 4 -45 0 c-43 0 -45 0
-46 -2z"/><path d="M128 412 c-3 -4 -4 -4 -8 -4 -6 0 -8 -2 -8 -10 l0 -6 -6 0 c-5 0 -7
0 -8 -2 -4 -3 0 -6 8 -6 l6 0 0 -4 0 -4 -6 0 c-7 0 -10 -2 -10 -6 0 -1 -1 -2
-2 -2 -4 0 -6 -3 -6 -10 0 -5 0 -6 -2 -6 -1 0 -5 -3 -8 -6 l-6 -6 4 -4 5 -4
-5 -4 -4 -3 0 -21 c0 -22 0 -24 6 -24 2 0 2 -1 2 -4 0 -4 0 -4 -2 -4 -2 0 -4
-1 -5 -2 -1 -2 -1 -2 1 -4 0 -1 2 -2 4 -2 1 0 2 -1 2 -2 0 -3 3 -6 6 -6 2 0 2
0 2 -6 0 -7 2 -10 6 -10 1 0 2 -1 2 -2 0 -6 10 -8 15 -4 3 3 -1 6 -9 6 -8 0
-8 2 -2 8 4 4 4 4 3 6 -2 2 -3 2 -9 2 l-6 0 0 4 c0 4 0 4 2 4 2 0 4 1 5 2 1 2
1 2 -1 4 0 1 -2 2 -4 2 -1 0 -2 1 -2 2 0 3 -3 6 -6 6 -4 0 -3 4 2 8 l4 3 0 9
0 9 -4 3 -4 4 4 4 c4 3 4 4 4 8 0 4 0 5 4 8 l5 4 -5 4 c-5 4 -6 8 -2 8 4 0 6
3 6 10 l0 6 6 0 c7 0 10 2 10 6 0 1 1 2 2 2 2 0 4 1 5 2 1 2 1 2 0 4 -1 1 -3
2 -5 2 -2 0 -2 0 -2 4 l0 4 6 0 6 0 6 6 c6 5 6 6 6 10 0 3 -1 5 -2 6 -2 3 -2
3 -6 -2z m-40 -144 l0 -4 -4 0 -4 0 0 4 0 4 4 0 4 0 0 -4z"/><path d="M370 414 c-1 -1 -2 -3 -2 -6 0 -4 0 -5 8 -12 8 -7 8 -8 8 -12 0 -5 2
-8 6 -8 1 0 2 -1 2 -2 0 -4 3 -6 10 -6 8 0 8 -3 2 -8 -4 -4 -4 -4 -3 -6 3 -3
11 -3 13 0 4 4 2 14 -4 14 -1 0 -2 1 -2 2 0 4 -3 6 -10 6 -6 0 -6 0 -6 2 0 4
3 6 8 6 3 0 5 1 6 2 2 2 2 2 -8 12 -10 10 -10 10 -14 10 -4 0 -5 0 -8 4 -4 5
-4 5 -6 2z"/><path d="M409 342 c-1 -2 -1 -2 3 -6 4 -3 4 -4 4 -8 0 -4 0 -5 4 -8 l5 -4 -5
-4 c-4 -3 -4 -4 -4 -8 0 -4 0 -5 4 -8 l5 -4 -5 -4 c-4 -3 -4 -4 -4 -8 0 -4 0
-5 -4 -8 -4 -4 -4 -4 -3 -6 2 -2 3 -2 11 -2 8 0 9 0 11 2 1 2 1 2 -3 6 l-4 4
4 4 4 4 0 20 0 21 -4 3 -4 4 4 4 c4 4 4 4 3 6 -2 2 -3 2 -11 2 -8 0 -9 0 -11
-2z"/><path d="M401 254 c-1 -2 -1 -2 3 -6 6 -6 6 -8 -2 -8 -8 0 -12 -3 -8 -6 4 -5
14 -2 14 4 0 1 1 2 2 2 6 0 8 10 4 14 -3 3 -10 3 -13 0z"/><path d="M98 222 c-2 -2 -2 -2 12 -16 14 -14 14 -14 18 -14 3 0 5 1 7 2 1 2 1
2 -3 6 -4 3 -4 4 -4 8 0 6 -2 8 -8 8 -4 0 -5 0 -8 4 -3 4 -4 4 -8 4 -3 0 -5
-1 -6 -2z"/><path d="M382 218 c-6 -6 -6 -6 -6 -12 l0 -6 -4 0 c-4 0 -4 0 -4 2 0 2 -1 4
-2 5 -2 1 -2 1 -4 0 -1 -1 -2 -3 -2 -5 0 -1 -1 -2 -2 -2 -1 0 -5 -2 -8 -6 l-6
-6 0 -6 0 -6 -6 0 c-7 0 -7 0 -10 -4 -4 -5 -8 -6 -8 -2 0 5 -3 6 -12 6 -9 0
-12 -1 -12 -6 0 -1 -1 -2 -2 -2 -2 0 -4 -1 -4 -2 -2 -2 -2 -2 0 -4 0 -1 2 -2
4 -2 1 0 2 -1 2 -2 0 -4 -3 -6 -8 -6 -6 0 -8 -2 -8 -8 0 -4 0 -5 4 -8 3 -2 4
-4 4 -6 0 -2 0 -2 -6 -2 l-6 0 -10 -10 -10 -10 4 -4 4 -4 -6 -6 c-6 -6 -6 -6
-8 -4 -2 1 -2 3 -2 10 l0 8 -6 6 -6 6 -6 0 c-8 0 -8 3 -2 8 4 4 4 4 3 6 -2 1
-4 2 -7 2 -3 0 -5 1 -7 2 -1 2 -1 2 3 6 4 3 4 4 4 8 0 4 -1 5 -6 10 l-6 6 -4
-4 c-4 -4 -4 -4 -6 -3 -1 2 -2 4 -2 7 0 6 -2 8 -8 8 -5 0 -8 -2 -8 -6 0 -1 -1
-2 -2 -2 -4 0 -6 3 -6 8 0 3 -1 5 -2 7 -2 1 -2 1 -6 -3 -5 -6 -8 -6 -8 2 l0 6
-6 6 c-6 6 -6 6 -8 4 -2 -1 -2 -3 -2 -10 0 -11 1 -12 10 -12 5 0 6 0 6 -2 0
-1 2 -5 6 -8 5 -6 6 -6 10 -6 5 0 8 2 8 6 0 1 1 2 2 2 4 0 6 -3 6 -8 0 -4 0
-5 8 -12 8 -7 8 -8 8 -12 0 -4 1 -5 6 -10 3 -4 7 -6 8 -6 2 0 2 -1 2 -6 0 -7
0 -7 4 -10 4 -3 4 -4 4 -8 0 -4 0 -5 8 -12 8 -7 8 -8 8 -12 0 -3 1 -5 2 -6 2
-2 2 -2 8 4 5 5 6 6 6 10 0 4 0 5 8 12 8 7 8 8 8 12 0 4 0 5 4 8 4 3 4 3 4 10
0 6 0 6 2 6 4 0 6 3 6 8 0 4 0 5 8 12 8 7 8 8 8 12 0 5 2 8 6 8 1 0 2 -1 2 -2
0 -4 3 -6 8 -6 4 0 5 1 10 6 4 3 6 7 6 8 0 2 1 2 6 2 9 0 10 1 10 14 l0 10 4
0 c4 0 4 0 4 -2 0 -2 1 -4 2 -4 2 -2 2 -2 4 0 1 0 2 2 2 4 0 2 0 2 6 2 l6 0
10 10 c10 10 10 10 8 12 -1 2 -3 2 -10 2 l-8 0 -6 -6z m-79 -52 c1 -2 1 -2 0
-4 -4 -4 -7 -3 -7 2 0 5 3 6 7 2z"/></g>
  <g transform="scale(0.125 0.125) translate(0.000000,512.000000) scale(1.000000,-1.000000)" fill="#ebeaeb" stroke="none"><path d="M192 452 c-3 -4 -4 -4 -8 -4 -5 0 -8 -2 -8 -6 0 -2 0 -2 -6 -2 -7 0
-10 -2 -10 -6 0 -1 -1 -2 -2 -2 -1 0 -5 -2 -8 -6 -6 -5 -6 -6 -6 -10 0 -3 1
-5 2 -6 2 -2 2 -2 8 4 l6 6 0 6 c0 8 3 8 8 2 4 -4 4 -4 6 -3 2 2 2 3 2 9 0 6
0 6 2 6 2 0 4 -1 6 -4 3 -4 4 -4 8 -4 7 0 8 2 8 12 0 7 0 9 -2 10 -2 3 -2 3
-6 -2z"/><path d="M218 454 c-2 -2 -2 -2 4 -8 l6 -6 8 0 9 0 3 4 4 5 4 -5 4 -4 8 0 9 0
3 4 c3 4 4 4 8 4 6 0 9 3 7 6 -3 3 -75 3 -77 0z"/><path d="M306 454 c-2 -1 -2 -4 -2 -10 0 -10 1 -12 8 -12 4 0 5 0 8 4 4 5 8 6
8 2 0 -2 1 -4 2 -5 2 -1 2 -1 4 1 2 2 2 2 1 4 -1 1 -3 2 -5 2 -1 0 -2 1 -2 2
0 4 -3 6 -8 6 -4 0 -5 0 -8 4 -4 5 -4 5 -6 2z"/><path d="M346 430 c-4 -4 -3 -10 4 -16 6 -6 6 -6 8 -4 1 1 2 3 2 6 0 4 0 5 -6
10 -7 7 -6 7 -8 4z"/><path d="M122 406 c-6 -6 -10 -11 -10 -12 0 -1 -1 -2 -2 -2 -2 0 -4 -1 -4 -2
-2 -2 -2 -2 0 -4 0 -1 2 -2 4 -2 2 0 2 0 2 -4 l0 -4 -6 0 c-7 0 -10 -2 -10 -6
0 -1 -1 -2 -2 -2 -6 0 -8 -10 -4 -14 3 -4 6 0 6 8 l0 6 6 0 c7 0 10 2 10 6 0
1 1 2 2 2 2 0 4 1 5 2 1 2 1 2 0 4 -1 1 -3 2 -5 2 -2 0 -2 0 -2 4 l0 4 6 0 6
0 6 6 c6 5 6 6 6 10 0 4 -2 8 -4 8 0 0 -5 -5 -10 -10z"/><path d="M370 414 c-1 -1 -2 -3 -2 -6 0 -4 0 -5 8 -12 8 -7 8 -8 8 -12 0 -5 2
-8 6 -8 1 0 2 -1 2 -2 0 -4 3 -6 10 -6 8 0 8 -3 2 -8 -4 -4 -4 -4 -3 -6 3 -3
11 -3 13 0 4 4 2 14 -4 14 -1 0 -2 1 -2 2 0 4 -3 6 -10 6 -8 0 -8 3 -2 8 l4 4
-14 14 c-8 8 -14 14 -14 14 -1 0 -1 -1 -2 -2z"/><path d="M73 342 c-1 -2 -1 -2 3 -6 4 -3 4 -4 4 -10 0 -6 0 -6 -2 -6 -5 0 -6
-2 -6 -20 0 -18 1 -20 6 -20 2 0 2 -1 2 -4 0 -4 0 -4 -2 -4 -2 0 -4 -1 -5 -2
-1 -2 -1 -2 1 -4 2 -2 2 -2 4 -1 1 1 2 3 2 5 0 2 0 2 4 2 4 0 4 0 4 -2 0 -2 1
-4 2 -5 3 -2 7 2 5 5 -1 1 -3 2 -5 2 -1 0 -2 1 -2 2 0 3 -3 6 -6 6 -4 0 -3 4
2 8 l4 3 0 9 0 9 -4 3 c-5 4 -6 8 -2 8 4 0 6 3 6 8 0 4 0 5 4 8 4 4 4 4 3 6
-2 2 -3 2 -11 2 -8 0 -9 0 -11 -2z"/><path d="M409 342 c-1 -2 -1 -2 3 -6 4 -3 4 -4 4 -8 0 -5 2 -8 6 -8 4 0 3 -4
-2 -8 -4 -3 -4 -4 -4 -8 0 -4 0 -5 4 -8 5 -4 6 -8 2 -8 -4 0 -6 -3 -6 -8 0 -4
0 -5 -4 -8 -4 -4 -4 -4 -3 -6 2 -2 3 -2 11 -2 8 0 9 0 11 2 1 2 1 2 -3 6 -4 3
-4 4 -4 10 0 6 0 6 2 6 5 0 6 3 6 16 0 14 -1 16 -6 16 -2 0 -2 1 -2 6 0 6 0 7
4 10 4 4 4 4 3 6 -2 2 -3 2 -11 2 -8 0 -9 0 -11 -2z"/><path d="M90 254 c-4 -4 -2 -14 4 -14 1 0 2 -1 2 -2 0 -6 10 -8 15 -4 3 3 -1
6 -9 6 -8 0 -8 2 -2 8 4 4 4 4 3 6 -3 3 -11 3 -13 0z"/><path d="M401 254 c-1 -2 -1 -2 3 -6 6 -6 6 -8 -2 -8 -8 0 -12 -3 -8 -6 4 -5
14 -2 14 4 0 1 1 2 2 2 6 0 8 10 4 14 -3 3 -10 3 -13 0z"/><path d="M106 222 c-2 -2 -2 -2 0 -4 0 -1 2 -2 4 -2 1 0 2 -1 2 -2 0 -3 11
-14 14 -14 1 0 2 -1 2 -2 0 -2 1 -4 2 -5 2 -1 2 -1 4 1 2 2 2 2 1 4 -1 1 -3 2
-5 2 -2 0 -2 0 -2 6 0 9 -1 10 -10 10 -6 0 -6 0 -6 2 0 2 -3 6 -4 6 0 0 -2 -1
-2 -2z"/><path d="M382 218 c-6 -6 -6 -6 -6 -12 l0 -6 -4 0 c-4 0 -4 0 -4 2 0 2 -1 4
-2 5 -2 1 -2 1 -4 0 -1 -1 -2 -3 -2 -5 0 -1 -1 -2 -2 -2 -1 0 -5 -2 -8 -6 l-6
-6 0 -6 0 -6 -6 0 c-7 0 -10 -2 -10 -6 0 -2 -1 -2 -4 -2 -4 0 -4 0 -4 2 0 5
-3 6 -12 6 -9 0 -12 -1 -12 -6 0 -1 -1 -2 -2 -2 -2 0 -4 -1 -4 -2 -2 -2 -2 -2
0 -4 0 -1 2 -2 4 -2 1 0 2 -1 2 -2 0 -4 -3 -6 -8 -6 -6 0 -8 -2 -8 -8 0 -4 0
-5 4 -8 3 -2 4 -4 4 -6 0 -2 0 -2 -6 -2 l-6 0 -10 -10 c-10 -10 -10 -10 -8
-12 1 -1 3 -2 6 -2 5 0 8 -2 8 -6 0 -2 0 -2 -6 -2 -8 0 -10 -2 -10 -8 0 -5 -2
-8 -6 -8 -1 0 -2 1 -2 2 0 3 -3 6 -6 6 -4 0 -3 4 2 8 4 3 4 4 4 8 0 5 -2 8 -6
8 -1 0 -2 1 -2 2 0 4 -3 6 -10 6 -8 0 -8 3 -2 8 4 4 4 4 3 6 -2 1 -4 2 -7 2
-3 0 -5 1 -7 2 -1 2 -1 2 3 6 4 3 4 4 4 8 0 4 -1 5 -6 10 l-6 6 -4 -4 c-6 -6
-8 -6 -8 2 0 8 -2 10 -8 10 -5 0 -8 -2 -8 -6 0 -2 -1 -2 -4 -2 l-4 0 0 6 c0 6
0 7 -2 9 -2 1 -2 1 -6 -3 -5 -6 -8 -6 -8 2 l0 6 -6 6 c-6 6 -6 6 -8 4 -1 -1
-2 -3 -2 -6 0 -4 0 -5 6 -10 3 -4 7 -6 8 -6 1 0 2 -1 2 -2 0 -4 3 -6 10 -6 6
0 6 0 6 -2 0 -2 1 -4 2 -5 2 -1 2 -1 4 1 1 0 2 2 2 4 0 4 4 3 8 -2 2 -3 4 -4
6 -4 2 0 2 0 2 -6 0 -7 0 -7 4 -10 4 -3 4 -4 4 -8 0 -4 0 -5 6 -10 3 -4 7 -6
8 -6 2 0 2 -1 2 -6 0 -7 2 -10 6 -10 2 0 2 0 2 -6 0 -7 2 -10 6 -10 1 0 2 -1
2 -2 0 -3 3 -6 6 -6 2 0 2 0 2 -6 0 -5 0 -7 2 -8 2 -2 2 -2 8 4 6 5 6 6 6 10
0 4 0 5 4 8 3 2 4 4 4 6 0 1 1 2 2 2 4 0 6 3 6 8 0 4 0 5 4 8 4 3 4 3 4 10 0
6 0 6 2 6 4 0 6 3 6 8 0 4 0 5 8 12 8 7 8 8 8 12 0 5 2 8 6 8 1 0 2 -1 2 -2 0
-2 1 -4 2 -4 2 -2 2 -2 4 0 1 0 2 2 2 4 0 2 0 2 6 2 7 0 10 2 10 6 0 1 1 2 2
2 1 0 5 2 8 6 l6 6 0 6 0 6 4 0 c4 0 4 0 4 -2 0 -2 1 -4 2 -4 2 -2 2 -2 4 0 1
0 2 2 2 4 0 1 1 2 2 2 1 0 6 4 12 10 10 10 10 10 8 12 -1 1 -3 2 -6 2 -4 0 -5
-1 -10 -6z m-79 -52 c1 -2 1 -2 0 -4 -4 -4 -7 -3 -7 2 0 5 3 6 7 2z m-63 -56
c0 -3 -3 -6 -6 -6 -3 0 -3 3 0 6 2 3 6 3 6 0z"/></g>
  <g transform="scale(0.125 0.125) translate(0.000000,512.000000) scale(1.000000,-1.000000)" fill="#8d8d8d" stroke="none"><path d="M192 452 c-3 -4 -4 -4 -8 -4 -5 0 -8 -2 -8 -6 0 -2 0 -2 -6 -2 -7 0
-10 -2 -10 -6 0 -1 -1 -2 -2 -2 -3 0 -6 -3 -6 -6 0 -1 -1 -2 -2 -2 -6 0 -8
-10 -4 -14 3 -4 6 0 6 8 0 6 0 6 2 6 3 0 6 3 6 6 0 4 4 3 8 -2 4 -4 4 -4 6 -3
2 2 2 3 2 9 l0 6 6 0 c6 0 7 0 10 -4 4 -4 4 -4 6 -3 3 3 3 19 0 21 -2 3 -2 3
-6 -2z"/><path d="M218 454 c-3 -3 0 -6 6 -6 4 0 5 0 8 -4 3 -4 4 -4 8 -4 4 0 5 0 8 4
l4 5 4 -5 c3 -4 4 -4 8 -4 4 0 5 0 8 4 l3 4 9 0 c7 0 9 0 11 2 1 2 1 2 0 4 -2
2 -4 2 -39 2 -35 0 -37 0 -38 -2z"/><path d="M306 454 c-3 -3 -3 -18 0 -21 2 -1 2 -1 6 3 3 4 4 4 10 4 6 0 6 0 6
-2 0 -2 1 -4 2 -5 2 -1 2 -1 4 1 2 2 2 2 1 4 -1 1 -3 2 -5 2 -1 0 -2 1 -2 2 0
4 -3 6 -8 6 -4 0 -5 0 -8 4 -4 5 -4 5 -6 2z"/><path d="M346 430 c-2 -2 -2 -2 0 -4 0 -1 2 -2 4 -2 2 0 2 0 2 -6 0 -8 3 -12
6 -8 5 4 2 14 -4 14 -1 0 -2 1 -2 2 0 2 -3 6 -4 6 0 0 -2 -1 -2 -2z"/><path d="M130 414 c-1 -1 -2 -3 -2 -4 0 -1 -1 -2 -2 -2 -3 0 -6 -3 -6 -6 0 -1
-1 -2 -2 -2 -3 0 -6 -3 -6 -6 0 -1 -1 -2 -2 -2 -2 0 -4 -1 -4 -2 -2 -2 -2 -2
0 -4 0 -1 2 -2 4 -2 2 0 2 0 2 -4 l0 -4 -6 0 c-7 0 -10 -2 -10 -6 0 -1 -1 -2
-2 -2 -6 0 -8 -10 -4 -14 3 -4 6 0 6 8 l0 6 6 0 c7 0 10 2 10 6 0 1 1 2 2 2 2
0 4 1 5 2 1 2 1 2 0 4 -1 1 -3 2 -5 2 -2 0 -2 0 -2 4 0 4 0 4 2 4 3 0 6 3 6 6
0 1 1 2 2 2 3 0 6 3 6 6 0 1 1 2 2 2 2 0 4 1 5 2 1 2 1 2 0 4 -3 2 -3 2 -5 0z"/><path d="M370 414 c-2 -2 -2 -2 0 -4 0 -1 2 -2 4 -2 1 0 2 -1 2 -2 0 -3 3 -6
6 -6 1 0 2 -1 2 -2 0 -3 3 -6 6 -6 2 0 2 -1 2 -4 0 -4 0 -4 -2 -4 -2 0 -4 -1
-4 -2 -2 -2 -2 -2 0 -4 0 -1 2 -2 4 -2 1 0 2 -1 2 -2 0 -4 3 -6 10 -6 8 0 8
-3 2 -8 -4 -4 -4 -4 -3 -6 3 -3 11 -3 13 0 4 4 2 14 -4 14 -1 0 -2 1 -2 2 0 4
-3 6 -10 6 l-6 0 0 4 c0 4 0 4 2 4 2 0 4 1 5 2 1 2 1 2 0 4 -1 1 -3 2 -5 2 -1
0 -2 1 -2 2 0 3 -3 6 -6 6 -1 0 -2 1 -2 2 0 3 -3 6 -6 6 -1 0 -2 1 -2 2 0 2
-3 6 -4 6 0 0 -2 -1 -2 -2z"/><path d="M73 342 c-1 -2 -1 -2 3 -6 4 -3 4 -4 4 -10 0 -6 0 -6 -2 -6 -5 0 -6
-2 -6 -20 0 -18 1 -20 6 -20 2 0 2 -1 2 -4 0 -4 0 -4 -2 -4 -2 0 -4 -1 -5 -2
-1 -2 -1 -2 1 -4 2 -2 2 -2 4 -1 1 1 2 3 2 5 0 2 0 2 4 2 4 0 4 0 4 -2 0 -2 1
-4 2 -5 3 -2 7 2 5 5 -1 1 -3 2 -5 2 -1 0 -2 1 -2 2 0 3 -3 6 -6 6 -2 0 -2 1
-2 6 0 6 0 7 4 10 l5 4 -5 4 c-4 3 -4 4 -4 10 0 6 0 6 2 6 4 0 6 3 6 8 0 4 0
5 4 8 4 4 4 4 3 6 -2 2 -3 2 -11 2 -8 0 -9 0 -11 -2z"/><path d="M409 342 c-1 -2 -1 -2 3 -6 4 -3 4 -4 4 -8 0 -5 2 -8 6 -8 2 0 2 0 2
-16 l0 -16 -2 0 c-4 0 -6 -3 -6 -8 0 -4 0 -5 -4 -8 -4 -4 -4 -4 -3 -6 2 -2 3
-2 11 -2 8 0 9 0 11 2 1 2 1 2 -3 6 -4 3 -4 4 -4 10 0 6 0 6 2 6 5 0 6 3 6 16
0 14 -1 16 -6 16 -2 0 -2 1 -2 6 0 6 0 7 4 10 4 4 4 4 3 6 -2 2 -3 2 -11 2 -8
0 -9 0 -11 -2z"/><path d="M90 254 c-4 -4 -2 -14 4 -14 1 0 2 -1 2 -2 0 -6 10 -8 15 -4 3 3 -1
6 -9 6 -8 0 -8 2 -2 8 4 4 4 4 3 6 -3 3 -11 3 -13 0z"/><path d="M401 254 c-1 -2 -1 -2 3 -6 6 -6 6 -8 -2 -8 -8 0 -12 -3 -8 -6 4 -5
14 -2 14 4 0 1 1 2 2 2 6 0 8 10 4 14 -3 3 -10 3 -13 0z"/><path d="M106 222 c-2 -2 -2 -2 0 -4 0 -1 2 -2 4 -2 1 0 2 -1 2 -2 0 -3 3 -6
6 -6 1 0 2 -1 2 -2 0 -3 3 -6 6 -6 1 0 2 -1 2 -2 0 -2 1 -4 2 -5 2 -1 2 -1 4
1 2 2 2 2 1 4 -1 1 -3 2 -5 2 -1 0 -2 1 -2 2 0 3 -3 6 -6 6 -1 0 -2 1 -2 2 0
3 -3 6 -6 6 -1 0 -2 1 -2 2 0 2 -3 6 -4 6 0 0 -2 -1 -2 -2z"/><path d="M394 222 c-1 -1 -2 -3 -2 -4 0 -1 -1 -2 -2 -2 -3 0 -6 -3 -6 -6 0 -1
-1 -2 -2 -2 -3 0 -6 -3 -6 -6 0 -2 -1 -2 -4 -2 -4 0 -4 0 -4 2 0 2 -1 4 -2 5
-2 1 -2 1 -4 0 -1 -1 -2 -3 -2 -5 0 -1 -1 -2 -2 -2 -4 0 -6 -3 -6 -10 0 -6 0
-6 -2 -6 -3 0 -6 -3 -6 -6 0 -2 0 -2 -6 -2 -7 0 -10 -2 -10 -6 0 -1 -1 -2 -2
-2 -2 0 -4 -1 -5 -2 -1 -2 -1 -2 1 -4 2 -2 2 -2 4 -1 1 1 2 3 2 5 0 2 0 2 6 2
7 0 10 2 10 6 0 1 1 2 2 2 3 0 6 3 6 6 0 1 1 2 2 2 4 0 6 3 6 10 l0 6 4 0 c4
0 4 0 4 -2 0 -2 1 -4 2 -4 2 -2 2 -2 4 0 1 0 2 2 2 4 0 1 1 2 2 2 3 0 6 3 6 6
0 1 1 2 2 2 3 0 6 3 6 6 0 1 1 2 2 2 2 0 4 1 5 2 1 2 1 2 0 4 -3 2 -3 2 -5 0z"/><path d="M146 198 c-4 -4 -2 -14 4 -14 1 0 2 -1 2 -2 0 -3 3 -6 6 -6 1 0 2 -1
2 -2 0 -4 3 -6 10 -6 6 0 6 0 6 -2 0 -2 1 -4 2 -5 2 -1 2 -1 4 1 2 2 2 2 1 4
-1 1 -3 2 -5 2 -2 0 -2 0 -2 6 0 6 0 7 -2 9 -2 1 -2 1 -6 -3 -4 -5 -8 -6 -8
-2 0 3 -3 6 -6 6 -2 0 -2 0 -2 6 0 5 0 7 -2 8 -2 2 -2 2 -4 0z"/><path d="M194 174 c-4 -4 -2 -14 4 -14 2 0 2 0 2 -6 0 -7 0 -7 4 -10 4 -3 4
-4 4 -8 0 -4 0 -5 6 -10 3 -4 7 -6 8 -6 2 0 2 -1 2 -6 0 -7 2 -10 6 -10 2 0 2
0 2 -6 0 -7 2 -10 6 -10 1 0 2 -1 2 -2 0 -3 3 -6 6 -6 2 0 2 0 2 -6 0 -5 0 -7
2 -8 2 -2 2 -2 8 4 6 5 6 6 6 10 0 4 0 5 4 8 3 2 4 4 4 6 0 1 1 2 2 2 4 0 6 3
6 8 0 4 0 5 4 8 4 3 4 3 4 10 0 6 0 6 2 6 4 0 6 3 6 8 0 4 0 5 8 12 l8 8 0 8
c0 10 -1 12 -8 12 -3 0 -5 -1 -7 -2 -1 -2 -1 -2 3 -6 l4 -4 -6 -6 c-5 -6 -6
-6 -10 -6 -3 0 -5 -1 -7 -2 -1 -2 -1 -2 3 -6 4 -3 4 -4 4 -10 0 -6 0 -6 -2 -6
-2 0 -4 -1 -6 -4 -3 -4 -4 -4 -8 -4 -4 0 -5 0 -10 -6 -6 -6 -6 -6 -4 -8 1 -1
3 -2 6 -2 5 0 8 -2 8 -6 0 -2 0 -2 -6 -2 -8 0 -10 -2 -10 -8 0 -5 -2 -8 -6 -8
-1 0 -2 1 -2 2 0 3 -3 6 -6 6 -4 0 -3 4 2 8 4 4 4 4 3 6 -2 2 -3 2 -9 2 l-6 0
0 6 c0 7 -2 10 -6 10 -4 0 -3 4 2 8 4 4 4 4 3 6 -2 1 -4 2 -7 2 -6 0 -8 2 -8
8 0 4 0 5 4 8 4 4 4 4 3 6 -2 2 -3 2 -13 2 l-10 0 0 6 c0 5 0 7 -2 8 -2 2 -2
2 -4 0z"/></g>
  <g transform="scale(0.125 0.125) translate(0.000000,512.000000) scale(1.000000,-1.000000)" fill="#5e5e5e" stroke="none"><path d="M194 454 c-1 -1 -2 -3 -2 -4 0 -2 0 -2 -6 -2 -7 0 -10 -2 -10 -6 0
-2 0 -2 -6 -2 -7 0 -10 -2 -10 -6 0 -1 -1 -2 -2 -2 -2 0 -4 -1 -5 -2 -1 -2 -1
-2 1 -4 2 -2 2 -2 4 -1 1 1 2 3 2 5 0 4 4 3 8 -2 4 -4 4 -4 6 -3 2 2 2 3 2 9
l0 6 8 0 c8 0 8 0 8 -2 0 -2 1 -4 2 -5 2 -1 2 -1 4 1 2 2 2 2 1 4 -1 1 -3 2
-5 2 -2 0 -2 0 -2 4 0 4 0 4 2 4 2 0 4 1 5 2 1 2 1 2 0 4 -3 2 -3 2 -5 0z"/><path d="M218 454 c-4 -3 0 -6 8 -6 6 0 6 0 6 -2 0 -6 10 -8 15 -4 3 3 -1 6
-9 6 -6 0 -6 0 -6 2 0 6 -10 8 -14 4z"/><path d="M274 454 c-1 -1 -2 -3 -2 -4 0 -2 0 -2 -6 -2 -8 0 -12 -3 -8 -6 4 -5
14 -2 14 4 0 2 0 2 10 2 9 0 11 0 13 2 1 2 1 2 0 4 -3 3 -19 3 -21 0z"/><path d="M306 454 c-2 -2 -2 -2 0 -4 0 -1 2 -2 4 -2 2 0 2 0 2 -4 0 -4 0 -4
-2 -4 -2 0 -4 -1 -5 -2 -1 -2 -1 -2 1 -4 2 -2 2 -2 4 -1 1 1 2 3 2 5 0 2 0 2
8 2 8 0 8 0 8 -2 0 -2 1 -4 2 -5 2 -1 2 -1 4 1 2 2 2 2 1 4 -1 1 -3 2 -5 2 -1
0 -2 1 -2 2 0 4 -3 6 -10 6 -6 0 -6 0 -6 2 0 2 -3 6 -4 6 0 0 -2 -1 -2 -2z"/><path d="M345 430 c-1 -2 -1 -2 1 -4 l2 -2 2 2 c2 2 2 2 1 4 -1 1 -3 2 -3 2 0
0 -2 -1 -3 -2z"/><path d="M130 414 c-1 -1 -2 -3 -2 -4 0 -1 -1 -2 -2 -2 -3 0 -6 -3 -6 -6 0 -1
-1 -2 -2 -2 -3 0 -6 -3 -6 -6 0 -1 -1 -2 -2 -2 -2 0 -4 -1 -4 -2 -2 -2 -2 -2
0 -4 0 -1 2 -2 4 -2 2 0 2 0 2 -4 0 -4 0 -4 -2 -4 -2 0 -4 -1 -5 -2 -1 -2 -1
-2 1 -4 2 -2 2 -2 4 -1 1 1 2 3 2 5 0 1 1 2 2 2 2 0 4 1 5 2 1 2 1 2 0 4 -1 1
-3 2 -5 2 -2 0 -2 0 -2 4 0 4 0 4 2 4 3 0 6 3 6 6 0 1 1 2 2 2 3 0 6 3 6 6 0
1 1 2 2 2 2 0 4 1 5 2 1 2 1 2 0 4 -3 2 -3 2 -5 0z"/><path d="M145 414 c-1 -2 -1 -2 1 -4 l2 -2 2 2 c2 2 2 2 1 4 -1 1 -3 2 -3 2 0
0 -2 -1 -3 -2z"/><path d="M353 414 c-1 -2 -1 -2 1 -4 l2 -2 2 2 c2 2 2 2 1 4 -1 1 -3 2 -3 2 0
0 -2 -1 -3 -2z"/><path d="M370 414 c-2 -2 -2 -2 0 -4 0 -1 2 -2 4 -2 1 0 2 -1 2 -2 0 -3 3 -6
6 -6 1 0 2 -1 2 -2 0 -3 3 -6 6 -6 2 0 2 -1 2 -4 0 -4 0 -4 -2 -4 -2 0 -4 -1
-4 -2 -2 -2 -2 -2 0 -4 0 -1 2 -2 4 -2 1 0 2 -1 2 -2 0 -2 1 -4 2 -5 2 -1 2
-1 4 1 2 2 2 2 1 4 -1 1 -3 2 -5 2 -2 0 -2 0 -2 4 0 4 0 4 2 4 2 0 4 1 5 2 1
2 1 2 0 4 -1 1 -3 2 -5 2 -1 0 -2 1 -2 2 0 3 -3 6 -6 6 -1 0 -2 1 -2 2 0 3 -3
6 -6 6 -1 0 -2 1 -2 2 0 2 -3 6 -4 6 0 0 -2 -1 -2 -2z"/><path d="M89 366 c-1 -2 -1 -2 1 -4 l2 -2 2 2 c2 2 2 2 1 4 -1 1 -3 2 -3 2 0
0 -2 -1 -3 -2z"/><path d="M410 366 c-1 -1 -2 -3 -2 -4 0 -1 -1 -2 -2 -2 -2 0 -4 -1 -5 -2 -1
-2 -1 -2 1 -4 2 -2 2 -2 4 -1 1 1 2 3 2 5 0 1 1 2 2 2 2 0 4 1 5 2 1 2 1 2 0
4 -3 2 -3 2 -5 0z"/><path d="M74 342 c-2 -2 -2 -2 4 -8 l6 -6 6 6 c6 6 6 6 4 8 -1 2 -3 2 -10 2
-7 0 -9 0 -10 -2z"/><path d="M410 342 c-2 -2 -2 -2 0 -4 1 -2 3 -2 10 -2 7 0 9 0 11 2 1 2 1 2 0
4 -2 2 -4 2 -11 2 -7 0 -9 0 -10 -2z"/><path d="M74 318 c-2 -1 -2 -4 -2 -18 0 -18 1 -20 6 -20 2 0 2 -1 2 -4 0 -4 0
-4 -2 -4 -2 0 -4 -1 -5 -2 -1 -2 -1 -2 1 -4 2 -2 2 -2 4 -1 1 1 2 3 2 5 0 2 0
2 4 2 4 0 4 0 4 -2 0 -2 1 -4 2 -5 2 -1 2 -1 4 1 2 2 2 2 1 4 -1 1 -3 2 -5 2
-1 0 -2 1 -2 2 0 3 -3 6 -6 6 -2 0 -2 1 -2 6 0 6 0 7 4 10 l5 4 -5 4 c-4 3 -4
4 -4 8 0 7 -3 10 -6 6z"/><path d="M426 318 c-3 -3 -3 -26 0 -28 2 -2 2 -2 4 0 3 2 3 26 0 28 -2 2 -2 2
-4 0z"/><path d="M414 274 c-6 -6 -6 -6 -4 -8 2 -3 18 -3 20 0 2 2 2 2 -4 8 -3 3 -6 6
-6 6 0 0 -3 -3 -6 -6z"/><path d="M98 254 c-1 -1 -2 -3 -2 -4 0 -1 -1 -2 -2 -2 -2 0 -4 -1 -5 -2 -1 -2
-1 -2 1 -4 2 -2 2 -2 4 -1 1 1 2 3 2 5 0 1 1 2 2 2 2 0 4 1 5 2 1 2 1 2 0 4
-3 2 -3 2 -5 0z"/><path d="M402 254 c-2 -2 -2 -2 0 -4 0 -1 2 -2 4 -2 1 0 2 -1 2 -2 0 -2 1 -4
2 -5 2 -1 2 -1 4 1 2 2 2 2 1 4 -1 1 -3 2 -5 2 -1 0 -2 1 -2 2 0 2 -3 6 -4 6
0 0 -2 -1 -2 -2z"/><path d="M105 238 c-1 -2 -1 -2 1 -4 l2 -2 2 2 c2 2 2 2 1 4 -1 1 -3 2 -3 2 0
0 -2 -1 -3 -2z"/><path d="M393 238 c-1 -2 -1 -2 1 -4 l2 -2 2 2 c2 2 2 2 1 4 -1 1 -3 2 -3 2 0
0 -2 -1 -3 -2z"/><path d="M106 222 c-2 -2 -2 -2 0 -4 0 -1 2 -2 4 -2 1 0 2 -1 2 -2 0 -3 3 -6
6 -6 1 0 2 -1 2 -2 0 -3 3 -6 6 -6 1 0 2 -1 2 -2 0 -2 1 -4 2 -5 2 -1 2 -1 4
1 2 2 2 2 1 4 -1 1 -3 2 -5 2 -1 0 -2 1 -2 2 0 3 -3 6 -6 6 -1 0 -2 1 -2 2 0
3 -3 6 -6 6 -1 0 -2 1 -2 2 0 2 -3 6 -4 6 0 0 -2 -1 -2 -2z"/><path d="M394 222 c-1 -1 -2 -3 -2 -4 0 -1 -1 -2 -2 -2 -3 0 -6 -3 -6 -6 0 -1
-1 -2 -2 -2 -3 0 -6 -3 -6 -6 0 -2 -1 -2 -4 -2 -4 0 -4 0 -4 2 0 2 -1 4 -2 5
-2 1 -2 1 -4 0 -1 -1 -2 -3 -2 -5 0 -1 -1 -2 -2 -2 -2 0 -4 -1 -5 -2 -1 -2 -1
-2 1 -4 2 -2 2 -2 4 -1 1 1 2 3 2 5 0 2 0 2 4 2 4 0 4 0 4 -2 0 -2 1 -4 2 -4
2 -2 2 -2 4 0 1 0 2 2 2 4 0 1 1 2 2 2 3 0 6 3 6 6 0 1 1 2 2 2 3 0 6 3 6 6 0
1 1 2 2 2 2 0 4 1 5 2 1 2 1 2 0 4 -3 2 -3 2 -5 0z"/><path d="M145 198 c-1 -2 -1 -2 1 -4 l2 -2 2 2 c2 2 2 2 1 4 -1 1 -3 2 -3 2 0
0 -2 -1 -3 -2z"/><path d="M154 182 c-2 -2 -2 -2 0 -4 0 -1 2 -2 4 -2 1 0 2 -1 2 -2 0 -4 3 -6
10 -6 6 0 6 0 6 -2 0 -2 1 -4 2 -5 2 -1 2 -1 4 1 2 2 2 2 1 4 -1 1 -3 2 -5 2
-2 0 -2 0 -2 6 0 6 0 7 -2 9 -2 1 -2 1 -6 -3 -4 -5 -8 -6 -8 -2 0 2 -3 6 -4 6
0 0 -2 -1 -2 -2z"/><path d="M346 182 c-1 -1 -2 -3 -2 -4 0 -2 0 -2 -6 -2 -7 0 -10 -2 -10 -6 0
-1 -1 -2 -2 -2 -2 0 -4 -1 -5 -2 -1 -2 -1 -2 1 -4 2 -2 2 -2 4 -1 1 1 2 3 2 5
0 2 0 2 6 2 7 0 10 2 10 6 0 1 1 2 2 2 2 0 4 1 5 2 1 2 1 2 0 4 -3 2 -3 2 -5
0z"/><path d="M193 174 c-1 -2 -1 -2 1 -4 l2 -2 2 2 c2 2 2 2 1 4 -1 1 -3 2 -3 2 0
0 -2 -1 -3 -2z"/><path d="M298 174 c-3 -3 0 -6 6 -6 6 0 9 3 7 6 -2 1 -4 2 -7 2 -3 0 -5 -1 -6
-2z"/><path d="M202 158 c-1 -1 -2 -3 -2 -6 0 -4 0 -5 4 -8 4 -3 4 -4 4 -8 0 -4 0
-5 6 -10 3 -4 7 -6 8 -6 2 0 2 -1 2 -6 0 -7 2 -10 6 -10 2 0 2 0 2 -6 0 -7 2
-10 6 -10 1 0 2 -1 2 -2 0 -3 3 -6 6 -6 2 0 2 0 2 -6 0 -5 0 -7 2 -8 2 -2 2
-2 8 4 6 5 6 6 6 10 0 4 0 5 4 8 3 2 4 4 4 6 0 1 1 2 2 2 4 0 6 3 6 8 0 4 0 5
4 8 4 3 4 3 4 10 0 6 0 6 2 6 4 0 6 3 6 10 0 5 0 6 2 6 1 0 5 3 8 6 6 6 6 6 4
8 -1 1 -3 2 -6 2 -6 0 -8 -2 -8 -10 l0 -6 -4 0 c-4 0 -4 0 -4 2 0 2 -1 4 -2 5
-2 1 -2 1 -4 -1 -2 -2 -2 -2 -1 -4 1 -1 3 -2 5 -2 2 0 2 0 2 -8 0 -8 0 -8 -2
-8 -2 0 -4 -1 -6 -4 -3 -4 -4 -4 -8 -4 -4 0 -5 0 -10 -6 -6 -6 -6 -6 -4 -8 1
-1 3 -2 6 -2 5 0 8 -2 8 -6 0 -2 0 -2 -6 -2 -8 0 -10 -2 -10 -8 0 -5 -2 -8 -6
-8 -1 0 -2 1 -2 2 0 3 -3 6 -6 6 -2 0 -2 0 -2 6 0 7 -2 10 -6 10 -2 0 -2 0 -2
6 0 7 -2 10 -6 10 -4 0 -3 4 2 8 4 4 4 4 3 6 -2 1 -4 2 -7 2 -6 0 -8 2 -8 10
0 6 0 6 2 6 2 0 4 1 5 2 1 2 1 2 -1 4 -2 2 -2 2 -4 1 -1 -1 -2 -3 -2 -5 0 -4
-4 -3 -8 2 -4 5 -4 5 -6 2z"/></g>
  <g transform="scale(0.125 0.125) translate(0.000000,512.000000) scale(1.000000,-1.000000)" fill="#000000" stroke="none"><path d="M194 454 c-1 -1 -2 -3 -2 -4 0 -2 0 -2 -6 -2 -8 0 -12 -3 -8 -6 1 -2
3 -2 8 -2 6 0 6 0 6 -2 0 -2 1 -4 2 -5 2 -1 2 -1 4 1 2 2 2 2 1 4 -1 1 -3 2
-5 2 -2 0 -2 0 -2 4 0 4 0 4 2 4 2 0 4 1 5 2 1 2 1 2 0 4 -3 2 -3 2 -5 0z"/><path d="M289 454 c-1 -2 -1 -2 1 -4 l2 -2 2 2 c2 2 2 2 1 4 -1 1 -3 2 -3 2 0
0 -2 -1 -3 -2z"/><path d="M306 454 c-2 -2 -2 -2 0 -4 0 -1 2 -2 4 -2 2 0 2 0 2 -4 0 -4 0 -4
-2 -4 -2 0 -4 -1 -5 -2 -1 -2 -1 -2 1 -4 2 -2 2 -2 4 -1 1 1 2 3 2 5 0 2 0 2
6 2 5 0 7 0 9 2 3 3 -1 6 -9 6 -6 0 -6 0 -6 2 0 2 -3 6 -4 6 0 0 -2 -1 -2 -2z"/><path d="M234 446 c-3 -3 0 -6 6 -6 3 0 5 1 7 2 2 3 -1 6 -7 6 -3 0 -5 -1 -6
-2z"/><path d="M258 446 c-3 -3 0 -6 6 -6 6 0 9 3 7 6 -2 1 -4 2 -7 2 -3 0 -5 -1 -6
-2z"/><path d="M162 438 c-1 -1 -2 -3 -2 -4 0 -1 -1 -2 -2 -2 -2 0 -4 -1 -5 -2 -1
-2 -1 -2 1 -4 2 -2 2 -2 4 -1 1 1 2 3 2 5 0 2 0 2 4 2 4 0 4 0 4 -2 0 -2 1 -4
2 -5 2 -1 2 -1 4 1 2 2 2 2 1 4 -1 1 -3 2 -5 2 -1 0 -2 1 -2 2 0 2 -3 6 -4 6
0 0 -1 -1 -2 -2z"/><path d="M345 430 c-1 -2 -1 -2 1 -4 l2 -2 2 2 c2 2 2 2 1 4 -1 1 -3 2 -3 2 0
0 -2 -1 -3 -2z"/><path d="M129 414 c-1 -2 -1 -2 1 -4 l2 -2 2 2 c2 2 2 2 1 4 -1 1 -3 2 -3 2 0
0 -2 -1 -3 -2z"/><path d="M145 414 c-1 -2 -1 -2 1 -4 l2 -2 2 2 c2 2 2 2 1 4 -1 1 -3 2 -3 2 0
0 -2 -1 -3 -2z"/><path d="M353 414 c-1 -2 -1 -2 1 -4 l2 -2 2 2 c2 2 2 2 1 4 -1 1 -3 2 -3 2 0
0 -2 -1 -3 -2z"/><path d="M394 390 c-1 -1 -2 -3 -2 -4 0 -1 -1 -2 -2 -2 -2 0 -4 -1 -4 -2 -2
-2 -2 -2 0 -4 0 -1 2 -2 4 -2 1 0 2 -1 2 -2 0 -2 1 -4 2 -5 2 -1 2 -1 4 1 2 2
2 2 1 4 -1 1 -3 2 -5 2 -2 0 -2 0 -2 4 0 4 0 4 2 4 2 0 4 1 5 2 1 2 1 2 0 4
-3 2 -3 2 -5 0z"/><path d="M114 382 c-1 -1 -2 -3 -2 -4 0 -1 -1 -2 -2 -2 -2 0 -4 -1 -5 -2 -1
-2 -1 -2 1 -4 2 -2 2 -2 4 -1 1 1 2 3 2 5 0 1 1 2 2 2 2 0 4 1 5 2 1 2 1 2 0
4 -3 2 -3 2 -5 0z"/><path d="M89 366 c-1 -2 -1 -2 1 -4 l2 -2 2 2 c2 2 2 2 1 4 -1 1 -3 2 -3 2 0
0 -2 -1 -3 -2z"/><path d="M410 366 c-1 -1 -2 -3 -2 -4 0 -1 -1 -2 -2 -2 -2 0 -4 -1 -5 -2 -1
-2 -1 -2 1 -4 2 -2 2 -2 4 -1 1 1 2 3 2 5 0 1 1 2 2 2 2 0 4 1 5 2 1 2 1 2 0
4 -3 2 -3 2 -5 0z"/><path d="M82 342 c-3 -3 0 -6 6 -6 3 0 5 1 7 2 2 3 -1 6 -7 6 -3 0 -5 -1 -6
-2z"/><path d="M410 342 c-3 -3 0 -6 6 -6 6 0 9 3 7 6 -2 1 -4 2 -7 2 -3 0 -5 -1 -6
-2z"/><path d="M74 318 c-3 -3 -3 -34 0 -36 3 -3 6 0 6 6 0 4 0 5 4 8 l5 4 -5 4 c-4
3 -4 4 -4 8 0 7 -3 10 -6 6z"/><path d="M426 318 c-3 -3 -3 -26 0 -28 2 -2 2 -2 4 0 3 2 3 26 0 28 -2 2 -2 2
-4 0z"/><path d="M89 270 c-1 -2 -1 -2 1 -4 l2 -2 2 2 c2 2 2 2 1 4 -1 1 -3 2 -3 2 0
0 -2 -1 -3 -2z"/><path d="M410 270 c-3 -3 0 -6 6 -6 6 0 9 3 7 6 -2 1 -4 2 -7 2 -3 0 -5 -1 -6
-2z"/><path d="M98 254 c-1 -1 -2 -3 -2 -4 0 -1 -1 -2 -2 -2 -2 0 -4 -1 -5 -2 -1 -2
-1 -2 1 -4 2 -2 2 -2 4 -1 1 1 2 3 2 5 0 1 1 2 2 2 2 0 4 1 5 2 1 2 1 2 0 4
-3 2 -3 2 -5 0z"/><path d="M402 254 c-2 -2 -2 -2 0 -4 0 -1 2 -2 4 -2 1 0 2 -1 2 -2 0 -2 1 -4
2 -5 2 -1 2 -1 4 1 2 2 2 2 1 4 -1 1 -3 2 -5 2 -1 0 -2 1 -2 2 0 2 -3 6 -4 6
0 0 -2 -1 -2 -2z"/><path d="M105 238 c-1 -2 -1 -2 1 -4 l2 -2 2 2 c2 2 2 2 1 4 -1 1 -3 2 -3 2 0
0 -2 -1 -3 -2z"/><path d="M393 238 c-1 -2 -1 -2 1 -4 l2 -2 2 2 c2 2 2 2 1 4 -1 1 -3 2 -3 2 0
0 -2 -1 -3 -2z"/><path d="M105 222 c-1 -2 -1 -2 1 -4 l2 -2 2 2 c2 2 2 2 1 4 -1 1 -3 2 -3 2 0
0 -2 -1 -3 -2z"/><path d="M393 222 c-1 -2 -1 -2 1 -4 l2 -2 2 2 c2 2 2 2 1 4 -1 1 -3 2 -3 2 0
0 -2 -1 -3 -2z"/><path d="M362 206 c-1 -1 -2 -3 -2 -4 0 -1 -1 -2 -2 -2 -2 0 -4 -1 -5 -2 -1
-2 -1 -2 1 -4 2 -2 2 -2 4 -1 1 1 2 3 2 5 0 2 0 2 4 2 4 0 4 0 4 -2 0 -2 1 -4
2 -5 2 -1 2 -1 4 1 2 2 2 2 1 4 -1 1 -3 2 -5 2 -1 0 -2 1 -2 2 0 2 -3 6 -4 6
0 0 -1 -1 -2 -2z"/><path d="M129 198 c-1 -2 -1 -2 1 -4 l2 -2 2 2 c2 2 2 2 1 4 -1 1 -3 2 -3 2 0
0 -2 -1 -3 -2z"/><path d="M145 198 c-1 -2 -1 -2 1 -4 l2 -2 2 2 c2 2 2 2 1 4 -1 1 -3 2 -3 2 0
0 -2 -1 -3 -2z"/><path d="M154 182 c-2 -2 -2 -2 0 -4 0 -1 2 -2 4 -2 1 0 2 -1 2 -2 0 -2 1 -4
2 -4 2 -2 2 -2 4 0 1 0 2 2 2 4 0 1 1 2 2 2 2 0 4 1 5 2 1 2 1 2 -1 4 -2 2 -2
2 -4 1 -1 -1 -2 -3 -2 -5 0 -2 0 -2 -4 -2 -4 0 -4 0 -4 2 0 2 -3 6 -4 6 0 0
-2 -1 -2 -2z"/><path d="M346 182 c-1 -1 -2 -3 -2 -4 0 -2 0 -2 -6 -2 -7 0 -10 -2 -10 -6 0
-1 -1 -2 -2 -2 -2 0 -4 -1 -5 -2 -1 -2 -1 -2 1 -4 2 -2 2 -2 4 -1 1 1 2 3 2 5
0 2 0 2 6 2 7 0 10 2 10 6 0 1 1 2 2 2 2 0 4 1 5 2 1 2 1 2 0 4 -3 2 -3 2 -5
0z"/><path d="M193 174 c-1 -2 -1 -2 1 -4 l2 -2 2 2 c2 2 2 2 1 4 -1 1 -3 2 -3 2 0
0 -2 -1 -3 -2z"/><path d="M298 174 c-3 -3 0 -6 6 -6 6 0 9 3 7 6 -2 1 -4 2 -7 2 -3 0 -5 -1 -6
-2z"/><path d="M177 166 c-1 -2 -1 -2 1 -4 l2 -2 2 2 c2 2 2 2 1 4 -1 1 -3 2 -3 2 0
0 -2 -1 -3 -2z"/><path d="M202 158 c-1 -1 -2 -3 -2 -6 0 -4 0 -5 4 -8 4 -3 4 -4 4 -8 0 -4 0
-5 6 -10 3 -4 7 -6 8 -6 2 0 2 -1 2 -6 0 -7 2 -10 6 -10 2 0 2 0 2 -6 0 -7 2
-10 6 -10 1 0 2 -1 2 -2 0 -3 3 -6 6 -6 2 0 2 0 2 -6 0 -5 0 -7 2 -8 2 -2 2
-2 8 4 l6 6 0 6 c0 6 0 6 2 6 3 0 6 3 6 6 0 1 1 2 2 2 4 0 6 3 6 8 0 4 0 5 4
8 4 3 4 3 4 10 0 6 0 6 2 6 4 0 6 3 6 10 0 5 0 6 2 6 1 0 5 3 8 6 6 6 6 6 4 8
-1 1 -3 2 -6 2 -6 0 -8 -2 -8 -10 l0 -6 -4 0 c-4 0 -4 0 -4 2 0 2 -1 4 -2 5
-2 1 -2 1 -4 -1 -2 -2 -2 -2 -1 -4 1 -1 3 -2 5 -2 2 0 2 0 2 -8 0 -8 0 -8 -2
-8 -2 0 -4 -1 -6 -4 -3 -4 -4 -4 -8 -4 -5 0 -8 -2 -8 -6 0 -1 -1 -2 -2 -2 -2
0 -4 -1 -5 -2 -1 -2 -1 -2 1 -4 2 -2 2 -2 4 -1 1 1 2 3 2 5 0 1 1 2 2 2 4 0 6
-3 6 -10 0 -6 0 -6 -2 -6 -3 0 -6 -3 -6 -6 0 -1 -1 -2 -2 -2 -2 0 -4 -1 -6 -4
-4 -5 -8 -6 -8 -2 0 3 -3 6 -6 6 -2 0 -2 0 -2 6 0 7 -2 10 -6 10 -2 0 -2 0 -2
6 0 7 -2 10 -6 10 -4 0 -3 4 2 8 4 4 4 4 3 6 -2 1 -4 2 -7 2 -6 0 -8 2 -8 10
0 6 0 6 2 6 2 0 4 1 5 2 2 3 -2 7 -5 5 -1 -1 -2 -3 -2 -5 0 -4 -4 -3 -8 2 -4
5 -4 5 -6 2z"/></g>
  <g transform="scale(0.125 0.125) translate(0.000000,512.000000) scale(1.000000,-1.000000)" fill="#0f0e0e" stroke="none"><path d="M194 454 c-1 -1 -2 -3 -2 -4 0 -2 0 -2 -6 -2 -8 0 -12 -3 -8 -6 1 -2
3 -2 8 -2 6 0 6 0 6 -2 0 -2 1 -4 2 -5 2 -1 2 -1 4 1 2 2 2 2 1 4 -1 1 -3 2
-5 2 -2 0 -2 0 -2 4 0 4 0 4 2 4 2 0 4 1 5 2 1 2 1 2 0 4 -3 2 -3 2 -5 0z"/><path d="M289 454 c-1 -2 -1 -2 1 -4 l2 -2 2 2 c2 2 2 2 1 4 -1 1 -3 2 -3 2 0
0 -2 -1 -3 -2z"/><path d="M306 454 c-2 -2 -2 -2 0 -4 0 -1 2 -2 4 -2 2 0 2 0 2 -4 0 -4 0 -4
-2 -4 -2 0 -4 -1 -5 -2 -1 -2 -1 -2 1 -4 2 -2 2 -2 4 -1 1 1 2 3 2 5 0 2 0 2
6 2 5 0 7 0 9 2 3 3 -1 6 -9 6 -6 0 -6 0 -6 2 0 2 -3 6 -4 6 0 0 -2 -1 -2 -2z"/><path d="M234 446 c-3 -3 0 -6 6 -6 3 0 5 1 7 2 2 3 -1 6 -7 6 -3 0 -5 -1 -6
-2z"/><path d="M258 446 c-3 -3 0 -6 6 -6 6 0 9 3 7 6 -2 1 -4 2 -7 2 -3 0 -5 -1 -6
-2z"/><path d="M162 438 c-1 -1 -2 -3 -2 -4 0 -1 -1 -2 -2 -2 -2 0 -4 -1 -5 -2 -1
-2 -1 -2 1 -4 2 -2 2 -2 4 -1 1 1 2 3 2 5 0 2 0 2 4 2 4 0 4 0 4 -2 0 -2 1 -4
2 -5 2 -1 2 -1 4 1 2 2 2 2 1 4 -1 1 -3 2 -5 2 -1 0 -2 1 -2 2 0 2 -3 6 -4 6
0 0 -1 -1 -2 -2z"/><path d="M345 430 c-1 -2 -1 -2 1 -4 l2 -2 2 2 c2 2 2 2 1 4 -1 1 -3 2 -3 2 0
0 -2 -1 -3 -2z"/><path d="M129 414 c-1 -2 -1 -2 1 -4 l2 -2 2 2 c2 2 2 2 1 4 -1 1 -3 2 -3 2 0
0 -2 -1 -3 -2z"/><path d="M145 414 c-1 -2 -1 -2 1 -4 l2 -2 2 2 c2 2 2 2 1 4 -1 1 -3 2 -3 2 0
0 -2 -1 -3 -2z"/><path d="M353 414 c-1 -2 -1 -2 1 -4 l2 -2 2 2 c2 2 2 2 1 4 -1 1 -3 2 -3 2 0
0 -2 -1 -3 -2z"/><path d="M394 390 c-1 -1 -2 -3 -2 -4 0 -1 -1 -2 -2 -2 -2 0 -4 -1 -4 -2 -2
-2 -2 -2 0 -4 0 -1 2 -2 4 -2 1 0 2 -1 2 -2 0 -2 1 -4 2 -5 2 -1 2 -1 4 1 2 2
2 2 1 4 -1 1 -3 2 -5 2 -2 0 -2 0 -2 4 0 4 0 4 2 4 2 0 4 1 5 2 1 2 1 2 0 4
-3 2 -3 2 -5 0z"/><path d="M114 382 c-1 -1 -2 -3 -2 -4 0 -1 -1 -2 -2 -2 -2 0 -4 -1 -5 -2 -1
-2 -1 -2 1 -4 2 -2 2 -2 4 -1 1 1 2 3 2 5 0 1 1 2 2 2 2 0 4 1 5 2 1 2 1 2 0
4 -3 2 -3 2 -5 0z"/><path d="M89 366 c-1 -2 -1 -2 1 -4 l2 -2 2 2 c2 2 2 2 1 4 -1 1 -3 2 -3 2 0
0 -2 -1 -3 -2z"/><path d="M410 366 c-1 -1 -2 -3 -2 -4 0 -1 -1 -2 -2 -2 -2 0 -4 -1 -5 -2 -1
-2 -1 -2 1 -4 2 -2 2 -2 4 -1 1 1 2 3 2 5 0 1 1 2 2 2 2 0 4 1 5 2 1 2 1 2 0
4 -3 2 -3 2 -5 0z"/><path d="M82 342 c-3 -3 0 -6 6 -6 3 0 5 1 7 2 2 3 -1 6 -7 6 -3 0 -5 -1 -6
-2z"/><path d="M410 342 c-3 -3 0 -6 6 -6 6 0 9 3 7 6 -2 1 -4 2 -7 2 -3 0 -5 -1 -6
-2z"/><path d="M426 318 c-3 -3 -3 -26 0 -28 2 -2 2 -2 4 0 3 2 3 26 0 28 -2 2 -2 2
-4 0z"/><path d="M81 302 c-1 -2 -1 -2 1 -4 l2 -2 2 2 c2 2 2 2 1 4 -1 1 -3 2 -3 2 0
0 -2 -1 -3 -2z"/><path d="M73 286 c-1 -2 -1 -2 1 -4 l2 -2 2 2 c2 2 2 2 1 4 -1 1 -3 2 -3 2 0
0 -2 -1 -3 -2z"/><path d="M89 270 c-1 -2 -1 -2 1 -4 l2 -2 2 2 c2 2 2 2 1 4 -1 1 -3 2 -3 2 0
0 -2 -1 -3 -2z"/><path d="M410 270 c-3 -3 0 -6 6 -6 6 0 9 3 7 6 -2 1 -4 2 -7 2 -3 0 -5 -1 -6
-2z"/><path d="M98 254 c-1 -1 -2 -3 -2 -4 0 -1 -1 -2 -2 -2 -2 0 -4 -1 -5 -2 -1 -2
-1 -2 1 -4 2 -2 2 -2 4 -1 1 1 2 3 2 5 0 1 1 2 2 2 2 0 4 1 5 2 1 2 1 2 0 4
-3 2 -3 2 -5 0z"/><path d="M402 254 c-2 -2 -2 -2 0 -4 0 -1 2 -2 4 -2 1 0 2 -1 2 -2 0 -2 1 -4
2 -5 2 -1 2 -1 4 1 2 2 2 2 1 4 -1 1 -3 2 -5 2 -1 0 -2 1 -2 2 0 2 -3 6 -4 6
0 0 -2 -1 -2 -2z"/><path d="M105 238 c-1 -2 -1 -2 1 -4 l2 -2 2 2 c2 2 2 2 1 4 -1 1 -3 2 -3 2 0
0 -2 -1 -3 -2z"/><path d="M393 238 c-1 -2 -1 -2 1 -4 l2 -2 2 2 c2 2 2 2 1 4 -1 1 -3 2 -3 2 0
0 -2 -1 -3 -2z"/><path d="M105 222 c-1 -2 -1 -2 1 -4 l2 -2 2 2 c2 2 2 2 1 4 -1 1 -3 2 -3 2 0
0 -2 -1 -3 -2z"/><path d="M393 222 c-1 -2 -1 -2 1 -4 l2 -2 2 2 c2 2 2 2 1 4 -1 1 -3 2 -3 2 0
0 -2 -1 -3 -2z"/><path d="M362 206 c-1 -1 -2 -3 -2 -4 0 -1 -1 -2 -2 -2 -2 0 -4 -1 -5 -2 -1
-2 -1 -2 1 -4 2 -2 2 -2 4 -1 1 1 2 3 2 5 0 2 0 2 4 2 4 0 4 0 4 -2 0 -2 1 -4
2 -5 2 -1 2 -1 4 1 2 2 2 2 1 4 -1 1 -3 2 -5 2 -1 0 -2 1 -2 2 0 2 -3 6 -4 6
0 0 -1 -1 -2 -2z"/><path d="M129 198 c-1 -2 -1 -2 1 -4 l2 -2 2 2 c2 2 2 2 1 4 -1 1 -3 2 -3 2 0
0 -2 -1 -3 -2z"/><path d="M145 198 c-1 -2 -1 -2 1 -4 l2 -2 2 2 c2 2 2 2 1 4 -1 1 -3 2 -3 2 0
0 -2 -1 -3 -2z"/><path d="M154 182 c-2 -2 -2 -2 0 -4 0 -1 2 -2 4 -2 1 0 2 -1 2 -2 0 -2 1 -4
2 -4 2 -2 2 -2 4 0 1 0 2 2 2 4 0 1 1 2 2 2 2 0 4 1 5 2 1 2 1 2 -1 4 -2 2 -2
2 -4 1 -1 -1 -2 -3 -2 -5 0 -2 0 -2 -4 -2 -4 0 -4 0 -4 2 0 2 -3 6 -4 6 0 0
-2 -1 -2 -2z"/><path d="M346 182 c-1 -1 -2 -3 -2 -4 0 -2 0 -2 -6 -2 -7 0 -10 -2 -10 -6 0
-1 -1 -2 -2 -2 -2 0 -4 -1 -5 -2 -1 -2 -1 -2 1 -4 2 -2 2 -2 4 -1 1 1 2 3 2 5
0 2 0 2 6 2 7 0 10 2 10 6 0 1 1 2 2 2 2 0 4 1 5 2 1 2 1 2 0 4 -3 2 -3 2 -5
0z"/><path d="M193 174 c-1 -2 -1 -2 1 -4 l2 -2 2 2 c2 2 2 2 1 4 -1 1 -3 2 -3 2 0
0 -2 -1 -3 -2z"/><path d="M298 174 c-3 -3 0 -6 6 -6 6 0 9 3 7 6 -2 1 -4 2 -7 2 -3 0 -5 -1 -6
-2z"/><path d="M177 166 c-1 -2 -1 -2 1 -4 l2 -2 2 2 c2 2 2 2 1 4 -1 1 -3 2 -3 2 0
0 -2 -1 -3 -2z"/><path d="M202 158 c-3 -2 -3 -10 0 -12 4 -4 14 -2 14 4 0 1 1 2 2 2 2 0 4 1 5
2 1 2 1 2 -1 4 -2 2 -2 2 -4 1 -1 -1 -2 -3 -2 -5 0 -4 -4 -3 -8 2 -4 5 -4 5
-6 2z"/><path d="M298 158 c-3 -2 -3 -10 0 -12 2 -2 2 -2 8 4 6 6 6 6 4 8 -2 3 -10 3
-12 0z"/><path d="M281 150 c-1 -2 -1 -2 1 -4 l2 -2 2 2 c2 2 2 2 1 4 -1 1 -3 2 -3 2 0
0 -2 -1 -3 -2z"/><path d="M225 134 c-1 -2 -1 -2 1 -4 l2 -2 2 2 c2 2 2 2 1 4 -1 1 -3 2 -3 2 0
0 -2 -1 -3 -2z"/><path d="M266 118 c-1 -1 -2 -3 -2 -4 0 -1 -1 -2 -2 -2 -2 0 -4 -1 -5 -2 -1
-2 -1 -2 1 -4 2 -2 2 -2 4 -1 1 1 2 3 2 5 0 2 0 2 6 2 8 0 12 3 9 6 -3 3 -11
3 -13 0z"/><path d="M257 86 c-1 -2 -1 -2 1 -4 l2 -2 2 2 c2 2 2 2 1 4 -1 1 -3 2 -3 2 0
0 -2 -1 -3 -2z"/></g>
  <g transform="scale(0.125 0.125) translate(0.000000,512.000000) scale(1.000000,-1.000000)" fill="#4a494a" stroke="none"><path d="M289 454 c-1 -2 -1 -2 1 -4 l2 -2 2 2 c2 2 2 2 1 4 -1 1 -3 2 -3 2 0
0 -2 -1 -3 -2z"/><path d="M186 446 c-2 -2 -2 -2 0 -4 0 -1 2 -2 4 -2 1 0 2 -1 2 -2 0 -2 1 -4
2 -5 2 -1 2 -1 4 1 2 2 2 2 1 4 -1 1 -3 2 -5 2 -1 0 -2 1 -2 2 0 2 -3 6 -4 6
0 0 -2 -1 -2 -2z"/><path d="M234 446 c-3 -3 0 -6 6 -6 3 0 5 1 7 2 2 3 -1 6 -7 6 -3 0 -5 -1 -6
-2z"/><path d="M258 446 c-3 -3 0 -6 6 -6 6 0 9 3 7 6 -2 1 -4 2 -7 2 -3 0 -5 -1 -6
-2z"/><path d="M314 446 c-1 -1 -2 -3 -2 -4 0 -1 -1 -2 -2 -2 -2 0 -4 -1 -5 -2 -1
-2 -1 -2 1 -4 2 -2 2 -2 4 -1 1 1 2 3 2 5 0 1 1 2 2 2 2 0 4 1 5 2 1 2 1 2 0
4 -3 2 -3 2 -5 0z"/><path d="M153 430 c-1 -2 -1 -2 1 -4 l2 -2 2 2 c2 2 2 2 1 4 -1 1 -3 2 -3 2 0
0 -2 -1 -3 -2z"/><path d="M169 430 c-1 -2 -1 -2 1 -4 l2 -2 2 2 c2 2 2 2 1 4 -1 1 -3 2 -3 2 0
0 -2 -1 -3 -2z"/><path d="M345 430 c-1 -2 -1 -2 1 -4 l2 -2 2 2 c2 2 2 2 1 4 -1 1 -3 2 -3 2 0
0 -2 -1 -3 -2z"/><path d="M129 414 c-1 -2 -1 -2 1 -4 l2 -2 2 2 c2 2 2 2 1 4 -1 1 -3 2 -3 2 0
0 -2 -1 -3 -2z"/><path d="M145 414 c-1 -2 -1 -2 1 -4 l2 -2 2 2 c2 2 2 2 1 4 -1 1 -3 2 -3 2 0
0 -2 -1 -3 -2z"/><path d="M353 414 c-1 -2 -1 -2 1 -4 l2 -2 2 2 c2 2 2 2 1 4 -1 1 -3 2 -3 2 0
0 -2 -1 -3 -2z"/><path d="M394 390 c-1 -1 -2 -3 -2 -4 0 -1 -1 -2 -2 -2 -2 0 -4 -1 -4 -2 -2
-2 -2 -2 0 -4 0 -1 2 -2 4 -2 1 0 2 -1 2 -2 0 -2 1 -4 2 -5 2 -1 2 -1 4 1 2 2
2 2 1 4 -1 1 -3 2 -5 2 -2 0 -2 0 -2 4 0 4 0 4 2 4 2 0 4 1 5 2 1 2 1 2 0 4
-3 2 -3 2 -5 0z"/><path d="M114 382 c-1 -1 -2 -3 -2 -4 0 -1 -1 -2 -2 -2 -2 0 -4 -1 -5 -2 -1
-2 -1 -2 1 -4 2 -2 2 -2 4 -1 1 1 2 3 2 5 0 1 1 2 2 2 2 0 4 1 5 2 1 2 1 2 0
4 -3 2 -3 2 -5 0z"/><path d="M89 366 c-1 -2 -1 -2 1 -4 l2 -2 2 2 c2 2 2 2 1 4 -1 1 -3 2 -3 2 0
0 -2 -1 -3 -2z"/><path d="M410 366 c-1 -1 -2 -3 -2 -4 0 -1 -1 -2 -2 -2 -2 0 -4 -1 -5 -2 -1
-2 -1 -2 1 -4 2 -2 2 -2 4 -1 1 1 2 3 2 5 0 1 1 2 2 2 2 0 4 1 5 2 1 2 1 2 0
4 -3 2 -3 2 -5 0z"/><path d="M82 342 c-3 -3 0 -6 6 -6 3 0 5 1 7 2 2 3 -1 6 -7 6 -3 0 -5 -1 -6
-2z"/><path d="M410 342 c-3 -3 0 -6 6 -6 6 0 9 3 7 6 -2 1 -4 2 -7 2 -3 0 -5 -1 -6
-2z"/><path d="M81 302 c-1 -2 -1 -2 1 -4 l2 -2 2 2 c2 2 2 2 1 4 -1 1 -3 2 -3 2 0
0 -2 -1 -3 -2z"/><path d="M89 270 c-1 -2 -1 -2 1 -4 l2 -2 2 2 c2 2 2 2 1 4 -1 1 -3 2 -3 2 0
0 -2 -1 -3 -2z"/><path d="M410 270 c-3 -3 0 -6 6 -6 6 0 9 3 7 6 -2 1 -4 2 -7 2 -3 0 -5 -1 -6
-2z"/><path d="M98 254 c-1 -1 -2 -3 -2 -4 0 -1 -1 -2 -2 -2 -2 0 -4 -1 -5 -2 -1 -2
-1 -2 1 -4 2 -2 2 -2 4 -1 1 1 2 3 2 5 0 1 1 2 2 2 2 0 4 1 5 2 1 2 1 2 0 4
-3 2 -3 2 -5 0z"/><path d="M402 254 c-2 -2 -2 -2 0 -4 0 -1 2 -2 4 -2 1 0 2 -1 2 -2 0 -2 1 -4
2 -5 2 -1 2 -1 4 1 2 2 2 2 1 4 -1 1 -3 2 -5 2 -1 0 -2 1 -2 2 0 2 -3 6 -4 6
0 0 -2 -1 -2 -2z"/><path d="M105 238 c-1 -2 -1 -2 1 -4 l2 -2 2 2 c2 2 2 2 1 4 -1 1 -3 2 -3 2 0
0 -2 -1 -3 -2z"/><path d="M393 238 c-1 -2 -1 -2 1 -4 l2 -2 2 2 c2 2 2 2 1 4 -1 1 -3 2 -3 2 0
0 -2 -1 -3 -2z"/><path d="M105 222 c-1 -2 -1 -2 1 -4 l2 -2 2 2 c2 2 2 2 1 4 -1 1 -3 2 -3 2 0
0 -2 -1 -3 -2z"/><path d="M393 222 c-1 -2 -1 -2 1 -4 l2 -2 2 2 c2 2 2 2 1 4 -1 1 -3 2 -3 2 0
0 -2 -1 -3 -2z"/><path d="M362 206 c-1 -1 -2 -3 -2 -4 0 -1 -1 -2 -2 -2 -2 0 -4 -1 -5 -2 -1
-2 -1 -2 1 -4 2 -2 2 -2 4 -1 1 1 2 3 2 5 0 2 0 2 4 2 4 0 4 0 4 -2 0 -2 1 -4
2 -5 2 -1 2 -1 4 1 2 2 2 2 1 4 -1 1 -3 2 -5 2 -1 0 -2 1 -2 2 0 2 -3 6 -4 6
0 0 -1 -1 -2 -2z"/><path d="M129 198 c-1 -2 -1 -2 1 -4 l2 -2 2 2 c2 2 2 2 1 4 -1 1 -3 2 -3 2 0
0 -2 -1 -3 -2z"/><path d="M145 198 c-1 -2 -1 -2 1 -4 l2 -2 2 2 c2 2 2 2 1 4 -1 1 -3 2 -3 2 0
0 -2 -1 -3 -2z"/><path d="M153 182 c-1 -2 -1 -2 1 -4 l2 -2 2 2 c2 2 2 2 1 4 -1 1 -3 2 -3 2 0
0 -2 -1 -3 -2z"/><path d="M169 182 c-1 -2 -1 -2 1 -4 l2 -2 2 2 c2 2 2 2 1 4 -1 1 -3 2 -3 2 0
0 -2 -1 -3 -2z"/><path d="M345 182 c-1 -2 -1 -2 1 -4 l2 -2 2 2 c2 2 2 2 1 4 -1 1 -3 2 -3 2 0
0 -2 -1 -3 -2z"/><path d="M193 174 c-1 -2 -1 -2 1 -4 l2 -2 2 2 c2 2 2 2 1 4 -1 1 -3 2 -3 2 0
0 -2 -1 -3 -2z"/><path d="M298 174 c-3 -3 0 -6 6 -6 6 0 9 3 7 6 -2 1 -4 2 -7 2 -3 0 -5 -1 -6
-2z"/><path d="M329 174 c-1 -2 -1 -2 1 -4 l2 -2 2 2 c2 2 2 2 1 4 -1 1 -3 2 -3 2 0
0 -2 -1 -3 -2z"/><path d="M217 158 c-1 -2 -1 -2 1 -4 l2 -2 2 2 c2 2 2 2 1 4 -1 1 -3 2 -3 2 0
0 -2 -1 -3 -2z"/><path d="M281 150 c-1 -2 -1 -2 1 -4 l2 -2 2 2 c2 2 2 2 1 4 -1 1 -3 2 -3 2 0
0 -2 -1 -3 -2z"/><path d="M225 134 c-1 -2 -1 -2 1 -4 l2 -2 2 2 c2 2 2 2 1 4 -1 1 -3 2 -3 2 0
0 -2 -1 -3 -2z"/><path d="M266 118 c-1 -1 -2 -3 -2 -4 0 -1 -1 -2 -2 -2 -2 0 -4 -1 -5 -2 -1
-2 -1 -2 1 -4 2 -2 2 -2 4 -1 1 1 2 3 2 5 0 1 1 2 2 2 2 0 4 1 5 2 1 2 1 2 0
4 -3 2 -3 2 -5 0z"/></g>
  <g transform="scale(0.125 0.125) translate(0.000000,512.000000) scale(1.000000,-1.000000)" fill="#f8f8f8" stroke="none"><path d="M234 446 c-3 -3 0 -6 6 -6 3 0 5 1 7 2 2 3 -1 6 -7 6 -3 0 -5 -1 -6
-2z"/><path d="M258 446 c-3 -3 0 -6 6 -6 6 0 9 3 7 6 -2 1 -4 2 -7 2 -3 0 -5 -1 -6
-2z"/><path d="M193 438 c-1 -2 -1 -2 1 -4 l2 -2 2 2 c2 2 2 2 1 4 -1 1 -3 2 -3 2 0
0 -2 -1 -3 -2z"/><path d="M305 438 c-1 -2 -1 -2 1 -4 l2 -2 2 2 c2 2 2 2 1 4 -1 1 -3 2 -3 2 0
0 -2 -1 -3 -2z"/><path d="M169 430 c-1 -2 -1 -2 1 -4 l2 -2 2 2 c2 2 2 2 1 4 -1 1 -3 2 -3 2 0
0 -2 -1 -3 -2z"/><path d="M145 414 c-1 -2 -1 -2 1 -4 l2 -2 2 2 c2 2 2 2 1 4 -1 1 -3 2 -3 2 0
0 -2 -1 -3 -2z"/><path d="M353 414 c-1 -2 -1 -2 1 -4 l2 -2 2 2 c2 2 2 2 1 4 -1 1 -3 2 -3 2 0
0 -2 -1 -3 -2z"/><path d="M114 382 c-1 -1 -2 -3 -2 -4 0 -1 -1 -2 -2 -2 -2 0 -4 -1 -5 -2 -1
-2 -1 -2 1 -4 2 -2 2 -2 4 -1 1 1 2 3 2 5 0 1 1 2 2 2 2 0 4 1 5 2 1 2 1 2 0
4 -3 2 -3 2 -5 0z"/><path d="M386 382 c-2 -2 -2 -2 0 -4 0 -1 2 -2 4 -2 1 0 2 -1 2 -2 0 -2 1 -4
2 -5 2 -1 2 -1 4 1 2 2 2 2 1 4 -1 1 -3 2 -5 2 -1 0 -2 1 -2 2 0 2 -3 6 -4 6
0 0 -2 -1 -2 -2z"/><path d="M401 358 c-1 -2 -1 -2 1 -4 l2 -2 2 2 c2 2 2 2 1 4 -1 1 -3 2 -3 2 0
0 -2 -1 -3 -2z"/><path d="M89 342 c-1 -2 -1 -2 1 -4 l2 -2 2 2 c2 2 2 2 1 4 -1 1 -3 2 -3 2 0
0 -2 -1 -3 -2z"/><path d="M409 342 c-1 -2 -1 -2 1 -4 l2 -2 2 2 c2 2 2 2 1 4 -1 1 -3 2 -3 2 0
0 -2 -1 -3 -2z"/><path d="M81 302 c-1 -2 -1 -2 1 -4 l2 -2 2 2 c2 2 2 2 1 4 -1 1 -3 2 -3 2 0
0 -2 -1 -3 -2z"/><path d="M89 270 c-1 -2 -1 -2 1 -4 l2 -2 2 2 c2 2 2 2 1 4 -1 1 -3 2 -3 2 0
0 -2 -1 -3 -2z"/><path d="M409 270 c-1 -2 -1 -2 1 -4 l2 -2 2 2 c2 2 2 2 1 4 -1 1 -3 2 -3 2 0
0 -2 -1 -3 -2z"/><path d="M97 254 c-1 -2 -1 -2 1 -4 l2 -2 2 2 c2 2 2 2 1 4 -1 1 -3 2 -3 2 0
0 -2 -1 -3 -2z"/><path d="M401 254 c-1 -2 -1 -2 1 -4 l2 -2 2 2 c2 2 2 2 1 4 -1 1 -3 2 -3 2 0
0 -2 -1 -3 -2z"/><path d="M105 238 c-1 -2 -1 -2 1 -4 l2 -2 2 2 c2 2 2 2 1 4 -1 1 -3 2 -3 2 0
0 -2 -1 -3 -2z"/><path d="M393 238 c-1 -2 -1 -2 1 -4 l2 -2 2 2 c2 2 2 2 1 4 -1 1 -3 2 -3 2 0
0 -2 -1 -3 -2z"/><path d="M362 206 c-1 -1 -2 -3 -2 -4 0 -1 -1 -2 -2 -2 -2 0 -4 -1 -5 -2 -1
-2 -1 -2 1 -4 2 -2 2 -2 4 -1 1 1 2 3 2 5 0 1 1 2 2 2 2 0 4 1 5 2 1 2 1 2 0
4 -3 2 -3 2 -5 0z"/><path d="M145 198 c-1 -2 -1 -2 1 -4 l2 -2 2 2 c2 2 2 2 1 4 -1 1 -3 2 -3 2 0
0 -2 -1 -3 -2z"/><path d="M169 182 c-1 -2 -1 -2 1 -4 l2 -2 2 2 c2 2 2 2 1 4 -1 1 -3 2 -3 2 0
0 -2 -1 -3 -2z"/><path d="M193 174 c-1 -2 -1 -2 1 -4 l2 -2 2 2 c2 2 2 2 1 4 -1 1 -3 2 -3 2 0
0 -2 -1 -3 -2z"/><path d="M298 174 c-3 -3 0 -6 6 -6 6 0 9 3 7 6 -2 1 -4 2 -7 2 -3 0 -5 -1 -6
-2z"/><path d="M217 158 c-1 -2 -1 -2 1 -4 l2 -2 2 2 c2 2 2 2 1 4 -1 1 -3 2 -3 2 0
0 -2 -1 -3 -2z"/><path d="M281 150 c-1 -2 -1 -2 1 -4 l2 -2 2 2 c2 2 2 2 1 4 -1 1 -3 2 -3 2 0
0 -2 -1 -3 -2z"/><path d="M225 134 c-1 -2 -1 -2 1 -4 l2 -2 2 2 c2 2 2 2 1 4 -1 1 -3 2 -3 2 0
0 -2 -1 -3 -2z"/><path d="M266 118 c-1 -1 -2 -3 -2 -4 0 -1 -1 -2 -2 -2 -2 0 -4 -1 -5 -2 -1
-2 -1 -2 1 -4 2 -2 2 -2 4 -1 1 1 2 3 2 5 0 1 1 2 2 2 2 0 4 1 5 2 1 2 1 2 0
4 -3 2 -3 2 -5 0z"/></g>
  <g transform="scale(0.125 0.125) translate(0.000000,512.000000) scale(1.000000,-1.000000)" fill="#fdfdfd" stroke="none"><path d="M241 446 c-1 -2 -1 -2 1 -4 l2 -2 2 2 c2 2 2 2 1 4 -1 1 -3 2 -3 2 0
0 -2 -1 -3 -2z"/><path d="M257 446 c-1 -2 -1 -2 1 -4 l2 -2 2 2 c2 2 2 2 1 4 -1 1 -3 2 -3 2 0
0 -2 -1 -3 -2z"/><path d="M169 430 c-1 -2 -1 -2 1 -4 l2 -2 2 2 c2 2 2 2 1 4 -1 1 -3 2 -3 2 0
0 -2 -1 -3 -2z"/><path d="M145 414 c-1 -2 -1 -2 1 -4 l2 -2 2 2 c2 2 2 2 1 4 -1 1 -3 2 -3 2 0
0 -2 -1 -3 -2z"/><path d="M113 382 c-1 -2 -1 -2 1 -4 l2 -2 2 2 c2 2 2 2 1 4 -1 1 -3 2 -3 2 0
0 -2 -1 -3 -2z"/><path d="M385 382 c-1 -2 -1 -2 1 -4 l2 -2 2 2 c2 2 2 2 1 4 -1 1 -3 2 -3 2 0
0 -2 -1 -3 -2z"/><path d="M401 358 c-1 -2 -1 -2 1 -4 l2 -2 2 2 c2 2 2 2 1 4 -1 1 -3 2 -3 2 0
0 -2 -1 -3 -2z"/><path d="M89 342 c-1 -2 -1 -2 1 -4 l2 -2 2 2 c2 2 2 2 1 4 -1 1 -3 2 -3 2 0
0 -2 -1 -3 -2z"/><path d="M401 254 c-1 -2 -1 -2 1 -4 l2 -2 2 2 c2 2 2 2 1 4 -1 1 -3 2 -3 2 0
0 -2 -1 -3 -2z"/><path d="M362 206 c-1 -1 -2 -3 -2 -4 0 -1 -1 -2 -2 -2 -2 0 -4 -1 -5 -2 -1
-2 -1 -2 1 -4 2 -2 2 -2 4 -1 1 1 2 3 2 5 0 1 1 2 2 2 2 0 4 1 5 2 1 2 1 2 0
4 -3 2 -3 2 -5 0z"/><path d="M169 182 c-1 -2 -1 -2 1 -4 l2 -2 2 2 c2 2 2 2 1 4 -1 1 -3 2 -3 2 0
0 -2 -1 -3 -2z"/><path d="M297 174 c-1 -2 -1 -2 1 -4 l2 -2 2 2 c2 2 2 2 1 4 -1 1 -3 2 -3 2 0
0 -2 -1 -3 -2z"/><path d="M225 134 c-1 -2 -1 -2 1 -4 l2 -2 2 2 c2 2 2 2 1 4 -1 1 -3 2 -3 2 0
0 -2 -1 -3 -2z"/><path d="M257 110 c-1 -2 -1 -2 1 -4 l2 -2 2 2 c2 2 2 2 1 4 -1 1 -3 2 -3 2 0
0 -2 -1 -3 -2z"/></g>
</svg>
