<?xml version="1.0" encoding="UTF-8"?>
<svg xmlns="http://www.w3.org/2000/svg" viewBox="0 0 64 64" width="64" height="64">
  <g transform="scale(0.125 0.125) translate(0.000000,512.000000) scale(1.000000,-1.000000)" fill="#ffffff" stroke="none"><path d="M192 484 l-3 -4 -9 0 -9 0 -3 -4 c-3 -4 -4 -4 -8 -4 -4 0 -5 0 -8 -4
-3 -4 -4 -4 -8 -4 -4 0 -5 0 -8 -4 -3 -4 -4 -4 -8 -4 -4 0 -4 0 -16 -12 -12
-12 -12 -12 -16 -12 -6 0 -8 -2 -8 -8 0 -4 0 -5 -12 -16 -12 -12 -12 -12 -12
-16 0 -4 0 -5 -4 -8 l-4 -3 0 -9 0 -9 -4 -3 -4 -3 0 -49 0 -49 4 -3 c4 -3 4
-4 4 -8 0 -4 0 -5 4 -8 4 -3 4 -4 4 -8 0 -4 0 -5 4 -8 4 -3 4 -4 4 -8 l0 -4
22 -22 c22 -22 22 -22 26 -22 4 0 5 0 12 -8 7 -8 8 -8 12 -8 4 0 5 0 8 -4 l3
-4 9 0 9 0 3 -4 c3 -4 4 -4 8 -4 6 0 16 -10 16 -16 0 -4 0 -5 8 -12 8 -7 8 -8
8 -12 0 -4 0 -5 4 -8 4 -3 4 -4 4 -8 0 -4 0 -5 4 -8 4 -3 4 -4 4 -8 0 -4 0 -5
8 -12 8 -7 8 -8 8 -12 0 -3 1 -5 2 -6 2 -2 2 -2 8 4 6 5 6 6 6 10 0 4 0 5 4 8
4 3 4 4 4 8 0 4 0 5 8 12 8 7 8 8 8 12 0 4 0 5 4 8 4 3 4 4 4 8 0 4 0 5 4 8 4
3 4 4 4 8 0 4 0 5 6 10 5 6 6 6 10 6 4 0 5 0 8 4 l3 4 9 0 9 0 3 4 c3 4 4 4 8
4 4 0 5 0 12 8 7 8 8 8 12 8 4 0 4 0 26 22 22 22 22 22 22 26 0 4 0 5 8 12 l8
8 0 8 0 9 4 3 4 3 0 9 0 9 4 3 4 3 0 25 0 25 -4 3 -4 3 0 13 0 13 -4 3 c-4 3
-4 4 -4 8 0 4 0 5 -4 8 -4 3 -4 4 -4 8 0 4 0 5 -8 12 -8 7 -8 8 -8 12 0 4 0 5
-10 14 -9 10 -10 10 -14 10 -4 0 -5 0 -12 8 -7 8 -8 8 -12 8 -4 0 -5 0 -8 4
-3 4 -4 4 -8 4 -4 0 -5 0 -8 4 -3 4 -4 4 -8 4 -4 0 -5 0 -8 4 l-3 4 -9 0 -9 0
-3 4 -3 4 -57 0 -57 0 -3 -4z"/></g>
  <g transform="scale(0.125 0.125) translate(0.000000,512.000000) scale(1.000000,-1.000000)" fill="#3b2631" stroke="none"><path d="M192 484 l-3 -4 -9 0 -9 0 -3 -4 c-3 -4 -4 -4 -8 -4 -4 0 -5 0 -8 -4
-3 -4 -4 -4 -8 -4 -4 0 -5 0 -8 -4 -3 -4 -4 -4 -8 -4 -4 0 -4 0 -16 -12 -12
-12 -12 -12 -16 -12 -6 0 -8 -2 -8 -8 0 -4 0 -5 -12 -16 -12 -12 -12 -12 -12
-16 0 -4 0 -5 -4 -8 l-4 -3 0 -9 0 -9 -4 -3 -4 -3 0 -49 0 -49 4 -3 c4 -3 4
-4 4 -8 0 -4 0 -5 4 -8 4 -3 4 -4 4 -8 0 -4 0 -5 4 -8 4 -3 4 -4 4 -8 l0 -4
22 -22 c22 -22 22 -22 26 -22 4 0 5 0 12 -8 7 -8 8 -8 12 -8 4 0 5 0 8 -4 l3
-4 9 0 9 0 3 -4 c3 -4 4 -4 8 -4 6 0 16 -10 16 -16 0 -4 0 -5 8 -12 8 -7 8 -8
8 -12 0 -4 0 -5 4 -8 4 -3 4 -4 4 -8 0 -4 0 -5 4 -8 4 -3 4 -4 4 -8 0 -4 0 -5
8 -12 8 -7 8 -8 8 -12 0 -3 1 -5 2 -6 2 -2 2 -2 8 4 6 5 6 6 6 10 0 4 0 5 4 8
4 3 4 4 4 8 0 4 0 5 8 12 8 7 8 8 8 12 0 4 0 5 4 8 4 3 4 4 4 8 0 4 0 5 4 8 4
3 4 4 4 8 0 4 0 5 6 10 5 6 6 6 10 6 4 0 5 0 8 4 l3 4 9 0 9 0 3 4 c3 4 4 4 8
4 4 0 5 0 12 8 7 8 8 8 12 8 4 0 4 0 26 22 22 22 22 22 22 26 0 4 0 5 8 12 l8
8 0 8 0 9 4 3 4 3 0 9 0 9 4 3 4 3 0 25 0 25 -4 3 -4 3 0 13 0 13 -4 3 c-4 3
-4 4 -4 8 0 4 0 5 -4 8 -4 3 -4 4 -4 8 0 4 0 5 -8 12 -8 7 -8 8 -8 12 0 4 0 5
-10 14 -9 10 -10 10 -14 10 -4 0 -5 0 -12 8 -7 8 -8 8 -12 8 -4 0 -5 0 -8 4
-3 4 -4 4 -8 4 -4 0 -5 0 -8 4 -3 4 -4 4 -8 4 -4 0 -5 0 -8 4 l-3 4 -9 0 -9 0
-3 4 -3 4 -57 0 -57 0 -3 -4z m64 -8 l3 -4 21 0 21 0 3 -4 3 -4 9 0 9 0 3 -4
c3 -4 4 -4 8 -4 4 0 5 0 8 -4 3 -4 4 -4 8 -4 4 0 5 0 12 -8 7 -8 8 -8 12 -8 4
0 4 0 22 -18 18 -18 18 -18 18 -22 0 -4 0 -5 4 -8 4 -3 4 -4 4 -8 0 -4 0 -5 4
-8 4 -3 4 -4 4 -8 0 -4 0 -5 4 -8 l4 -3 0 -41 0 -41 -4 -3 c-4 -3 -4 -4 -4 -8
0 -4 0 -5 -8 -12 -8 -7 -8 -8 -8 -12 0 -4 0 -4 -22 -26 -22 -22 -22 -22 -26
-22 -4 0 -5 0 -12 -8 l-8 -8 -8 0 -9 0 -3 -4 -3 -4 -9 0 -8 0 -6 -6 c-6 -5 -6
-6 -6 -10 0 -4 0 -5 -4 -8 -4 -3 -4 -4 -4 -8 0 -4 0 -5 -4 -8 -4 -3 -4 -4 -4
-8 0 -4 0 -5 -8 -12 -8 -7 -8 -8 -8 -12 0 -4 -1 -5 -6 -10 l-6 -6 -6 6 c-6 5
-6 6 -6 10 0 4 0 5 -4 8 -4 3 -4 4 -4 8 0 4 0 5 -8 12 l-8 8 0 8 0 8 -6 6 c-5
6 -6 6 -10 6 -4 0 -5 0 -8 4 -3 4 -4 4 -8 4 -4 0 -5 0 -8 4 l-3 4 -9 0 -8 0
-8 8 c-7 8 -8 8 -12 8 -4 0 -4 0 -30 26 l-26 26 0 4 c0 4 0 5 -4 8 l-4 3 0 9
0 9 -4 3 -4 3 0 37 0 37 4 3 4 3 0 9 0 8 8 8 c8 7 8 8 8 12 0 4 0 4 22 26 l22
22 4 0 c4 0 5 0 8 4 3 4 4 4 8 4 4 0 5 0 8 4 3 4 4 4 8 4 4 0 5 0 8 4 l3 4 9
0 9 0 3 4 3 4 21 0 21 0 3 4 c2 2 4 4 4 4 0 0 2 -2 4 -4z"/><path d="M166 410 c-14 -14 -14 -14 -14 -18 0 -4 0 -5 -4 -8 -4 -3 -4 -4 -4
-8 0 -4 0 -5 4 -8 l4 -3 0 -9 0 -9 4 -3 c4 -3 4 -4 4 -8 0 -4 0 -5 8 -12 8 -7
8 -8 8 -12 0 -4 0 -5 8 -12 8 -7 8 -8 8 -12 0 -4 0 -5 12 -16 12 -11 12 -12
12 -16 0 -4 0 -5 8 -12 8 -7 8 -8 8 -12 0 -4 0 -5 4 -8 4 -3 4 -4 4 -8 0 -4 0
-5 4 -8 4 -3 4 -4 4 -8 0 -3 1 -5 2 -6 3 -3 6 0 6 6 0 4 0 5 4 8 4 3 4 4 4 8
0 4 0 5 4 8 4 3 4 4 4 8 0 4 0 5 8 12 8 7 8 8 8 12 0 4 0 5 12 16 12 11 12 12
12 16 0 4 0 5 16 20 16 16 16 16 16 20 0 4 0 5 4 8 l4 3 0 9 0 9 4 3 4 3 0 13
0 12 -8 8 c-8 7 -8 8 -8 12 0 6 -2 8 -8 8 -4 0 -5 0 -8 4 l-3 4 -21 0 -20 0
-16 -16 -16 -16 -16 16 -16 16 -20 0 -20 0 -14 -14z"/></g>
  <g transform="scale(0.125 0.125) translate(0.000000,512.000000) scale(1.000000,-1.000000)" fill="#ff2995" stroke="none"><path d="M202 478 c-1 -1 -2 -3 -2 -4 0 -2 0 -2 -10 -2 -12 0 -14 -1 -14 -6 0
-2 0 -2 -10 -2 l-11 0 -3 -4 c-3 -4 -4 -4 -8 -4 -4 0 -5 0 -10 -6 -4 -3 -6 -7
-6 -8 0 -2 -1 -2 -6 -2 l-6 0 -18 -18 c-18 -18 -18 -18 -18 -22 0 -4 0 -5 -8
-12 -8 -7 -8 -8 -8 -12 0 -4 0 -5 -4 -8 l-4 -3 0 -13 0 -13 -4 -3 -4 -3 0 -25
0 -25 4 -3 4 -3 0 -9 0 -9 4 -3 c4 -3 4 -4 4 -8 0 -4 0 -5 4 -8 4 -3 4 -4 4
-8 0 -4 0 -4 12 -16 12 -12 12 -12 12 -16 0 -6 2 -8 8 -8 4 0 5 0 16 -12 12
-12 12 -12 16 -12 4 0 5 0 8 -4 3 -4 4 -4 8 -4 6 0 8 -2 8 -8 0 -3 1 -5 2 -7
2 -1 2 -1 6 3 l4 4 14 -14 c14 -13 14 -14 14 -18 0 -4 0 -5 8 -12 8 -7 8 -8 8
-12 0 -4 0 -5 4 -8 4 -3 4 -4 4 -8 0 -4 0 -5 4 -8 4 -3 4 -4 4 -8 0 -4 0 -5 8
-12 8 -7 8 -8 8 -12 0 -3 1 -5 2 -6 2 -2 2 -2 8 4 6 5 6 6 6 10 0 4 0 5 4 8 4
3 4 4 4 8 0 4 0 5 8 12 8 7 8 8 8 12 0 4 0 5 4 8 4 3 4 4 4 8 0 4 0 5 4 8 4 3
4 4 4 8 0 4 0 5 8 12 8 7 8 8 8 12 0 6 2 8 8 8 4 0 5 0 8 -4 4 -4 4 -4 6 -3 1
2 2 4 2 7 0 3 1 5 2 7 2 1 2 1 6 -3 4 -4 4 -4 6 -3 1 2 2 4 2 7 0 6 2 8 8 8 4
0 5 0 16 12 12 12 12 12 16 12 6 0 8 2 8 8 0 4 0 5 12 16 12 12 12 12 12 16 0
4 0 5 4 8 4 3 4 4 4 8 0 4 0 5 4 8 l4 3 0 9 0 8 8 8 8 8 0 16 0 16 -8 8 -8 8
0 12 0 13 -4 3 c-4 3 -4 4 -4 8 0 4 0 5 -8 12 -8 7 -8 8 -8 12 0 4 0 4 -18 22
-18 18 -18 18 -22 18 -4 0 -5 0 -12 8 -7 8 -8 8 -12 8 -4 0 -5 0 -8 4 -3 4 -4
4 -8 4 -4 0 -5 0 -8 4 l-3 4 -15 0 -14 0 0 2 c0 6 -2 6 -24 6 -19 0 -21 0 -22
-2 -2 -2 -2 -2 0 -4 1 -2 3 -2 24 -2 l22 0 0 -2 c0 -5 3 -6 12 -6 l9 0 3 -4
c3 -4 4 -4 8 -4 4 0 5 0 8 -4 3 -4 4 -4 8 -4 4 0 5 0 12 -8 7 -8 8 -8 12 -8 4
0 4 0 22 -18 18 -18 18 -18 18 -22 0 -4 0 -5 4 -8 4 -3 4 -4 4 -8 0 -4 0 -5 4
-8 4 -3 4 -4 4 -8 0 -4 0 -5 4 -8 l4 -3 0 -41 0 -41 -4 -3 c-4 -3 -4 -4 -4 -8
0 -4 0 -5 -8 -12 -8 -7 -8 -8 -8 -12 0 -4 0 -4 -22 -26 -22 -22 -22 -22 -26
-22 -4 0 -5 0 -12 -8 l-8 -8 -8 0 -9 0 -3 -4 -3 -4 -9 0 -8 0 -6 -6 c-6 -5 -6
-6 -6 -10 0 -4 0 -5 -4 -8 -4 -3 -4 -4 -4 -8 0 -4 0 -5 -4 -8 -4 -3 -4 -4 -4
-8 0 -4 0 -5 -8 -12 -8 -7 -8 -8 -8 -12 0 -4 -1 -5 -6 -10 l-6 -6 -6 6 c-6 5
-6 6 -6 10 0 4 0 5 -4 8 -4 3 -4 4 -4 8 0 4 0 5 -8 12 l-8 8 0 8 0 8 -6 6 c-5
6 -6 6 -10 6 -4 0 -5 0 -8 4 -3 4 -4 4 -8 4 -4 0 -5 0 -8 4 l-3 4 -9 0 -8 0
-8 8 c-7 8 -8 8 -12 8 -4 0 -4 0 -30 26 l-26 26 0 4 c0 4 0 5 -4 8 l-4 3 0 9
0 9 -4 3 -4 3 0 37 0 37 4 3 4 3 0 9 0 8 8 8 c8 7 8 8 8 12 0 4 0 4 20 24 13
13 20 21 20 22 0 2 1 2 6 2 7 0 7 0 10 4 3 4 4 4 8 4 4 0 5 0 8 4 3 4 4 4 8 4
5 0 8 2 8 6 0 2 0 2 10 2 12 0 14 1 14 6 0 2 0 2 22 2 21 0 23 0 25 2 1 2 1 2
0 4 -3 3 -43 3 -45 0z"/><path d="M178 422 c-1 -1 -2 -3 -2 -4 0 -1 -1 -2 -2 -2 -1 0 -6 -4 -12 -10
-10 -10 -10 -10 -10 -14 0 -4 0 -5 -4 -8 -4 -3 -4 -4 -4 -8 0 -5 2 -8 6 -8 2
0 2 0 2 -10 l0 -11 4 -3 c4 -3 4 -4 4 -8 0 -4 0 -5 6 -10 5 -6 6 -6 10 -6 3 0
5 -1 7 -2 1 -2 1 -2 -3 -6 l-4 -4 8 -8 c8 -7 8 -8 8 -12 0 -5 2 -8 6 -8 1 0 2
-1 2 -2 0 -3 3 -6 6 -6 1 0 2 -1 2 -2 0 -2 1 -4 4 -6 4 -3 4 -4 4 -8 0 -4 0
-5 8 -12 8 -7 8 -8 8 -12 0 -4 0 -5 4 -8 4 -3 4 -4 4 -8 0 -5 2 -8 6 -8 2 0 2
0 2 -6 0 -5 0 -7 2 -8 3 -4 6 0 6 8 0 6 0 6 2 6 2 0 4 1 5 2 1 2 1 2 0 4 -1 1
-3 2 -5 2 -1 0 -2 1 -2 2 0 4 3 6 8 6 6 0 8 2 8 8 0 4 0 5 4 8 3 2 4 4 4 6 0
1 1 2 2 2 4 0 6 3 6 8 0 4 0 5 8 12 5 5 8 8 8 10 0 1 1 2 2 2 4 0 6 3 6 8 0 4
0 5 8 12 5 5 8 8 8 10 0 1 1 2 2 2 1 0 5 2 8 6 l6 6 0 6 c0 6 0 6 2 6 5 0 6 3
6 14 0 10 0 10 2 10 5 0 6 3 6 16 0 14 -1 16 -6 16 -1 0 -2 1 -2 2 0 2 -1 4
-4 6 -4 3 -4 4 -4 8 0 6 -2 8 -10 8 -6 0 -6 0 -6 2 0 6 -2 6 -24 6 -22 0 -24
0 -24 -6 0 -1 -1 -2 -2 -2 -3 0 -22 -19 -22 -22 0 -5 -4 -2 -16 10 -8 8 -12
12 -14 12 -1 0 -2 1 -2 2 0 6 -2 6 -24 6 -19 0 -21 0 -22 -2z m5 -8 c1 -2 1
-2 -1 -4 -2 -2 -2 -2 -4 -1 -1 1 -2 3 -2 5 0 3 4 3 7 0z m41 0 c0 -3 -3 -6 -6
-6 -1 0 -2 -1 -2 -2 0 -5 -3 -6 -12 -6 -7 0 -9 0 -10 2 -2 2 -2 2 0 4 1 2 3 2
12 2 10 0 10 0 10 2 0 3 3 6 6 6 1 0 2 -1 2 -2z m62 0 c1 -1 2 -2 2 -4 0 -2 0
-2 10 -2 9 0 11 0 13 -2 1 -2 1 -2 0 -4 -2 -2 -4 -2 -11 -2 -9 0 -12 1 -12 6
0 1 -1 2 -2 2 -3 0 -6 3 -6 6 0 3 3 3 6 0z m42 0 c0 -2 -1 -4 -2 -5 -2 -1 -2
-1 -4 1 -2 2 -2 2 -1 4 3 3 7 3 7 0z m-145 -16 c1 -2 1 -2 -1 -4 l-2 -2 -2 2
c-2 2 -2 2 -1 4 1 1 3 2 3 2 0 0 2 -1 3 -2z m48 0 c1 -2 1 -2 -1 -4 l-2 -2 -2
2 c-2 2 -2 2 -1 4 1 1 3 2 3 2 0 0 2 -1 3 -2z m95 0 c1 -1 2 -2 2 -4 0 -1 1
-2 2 -2 2 0 4 -1 5 -2 1 -2 1 -2 -1 -4 -2 -2 -2 -2 -4 -1 -1 1 -2 3 -2 5 0 1
-1 2 -2 2 -2 0 -4 1 -4 2 -2 2 -2 2 0 4 2 2 2 2 4 0z m-63 -8 c1 -2 1 -2 -1
-4 -2 -2 -2 -2 -4 -1 -3 3 -3 7 0 7 2 0 4 -1 5 -2z m89 0 c0 -2 -1 -4 -2 -5
-2 -1 -2 -1 -4 1 -2 2 -2 2 -1 4 3 3 7 3 7 0z m-193 -16 c1 -2 1 -2 0 -4 -3
-3 -7 -3 -7 0 0 2 3 6 4 6 0 0 2 -1 3 -2z m88 -8 c1 -2 1 -2 -1 -4 l-2 -2 -2
2 c-2 2 -2 2 -1 4 1 1 3 2 3 2 0 0 2 -1 3 -2z m16 0 c1 -2 1 -2 -1 -4 l-2 -2
-2 2 c-2 2 -2 2 -1 4 1 1 3 2 3 2 0 0 2 -1 3 -2z m87 0 c1 -1 2 -2 2 -4 0 -3
-4 -3 -6 0 -2 2 -2 2 0 4 2 2 2 2 4 0z m-175 -16 c1 -2 1 -2 -1 -4 l-2 -2 -2
2 c-2 2 -2 2 -1 4 1 1 3 2 3 2 0 0 2 -1 3 -2z m159 0 c1 -1 2 -2 2 -4 0 -1 1
-2 2 -2 3 0 6 -3 6 -6 0 -1 -1 -2 -2 -2 -3 0 -6 3 -6 6 0 1 -1 2 -2 2 -2 0 -4
1 -4 2 -2 2 -2 2 0 4 2 2 2 2 4 0z m-151 -16 c1 -2 1 -2 -1 -4 l-2 -2 -2 2
c-2 2 -2 2 -1 4 1 1 3 2 3 2 0 0 2 -1 3 -2z m144 0 c1 -2 1 -2 -1 -4 l-2 -2
-2 2 c-2 2 -2 2 -1 4 1 1 3 2 3 2 0 0 2 -1 3 -2z m-1 -16 c1 -1 2 -2 2 -4 0
-3 -4 -3 -6 0 -2 2 -2 2 0 4 2 2 2 2 4 0z m-128 -8 c1 -1 2 -2 2 -4 0 -1 1 -2
2 -2 2 0 4 -1 5 -2 1 -2 1 -2 -1 -4 -2 -2 -2 -2 -4 -1 -1 1 -2 3 -2 5 0 1 -1
2 -2 2 -2 0 -4 1 -4 2 -2 2 -2 2 0 4 2 2 2 2 4 0z m113 0 c1 -2 1 -2 -1 -4
l-2 -2 -2 2 c-2 2 -2 2 -1 4 1 1 3 2 3 2 0 0 2 -1 3 -2z m-105 -24 c1 -1 2 -2
2 -4 0 -1 1 -2 2 -2 2 0 4 -1 5 -2 1 -2 1 -2 0 -4 -4 -4 -7 -3 -7 2 l0 4 -4 0
c-5 0 -6 3 -2 6 2 2 2 2 4 0z m96 0 c1 -1 2 -2 2 -4 0 -3 -4 -3 -6 0 -2 2 -2
2 0 4 2 2 2 2 4 0z m-15 -8 c1 -2 1 -2 -1 -4 l-2 -2 -2 2 c-2 2 -2 2 -1 4 1 1
3 2 3 2 0 0 2 -1 3 -2z m-56 -8 c1 -2 1 -2 -1 -4 l-2 -2 -2 2 c-2 2 -2 2 -1 4
1 1 3 2 3 2 0 0 2 -1 3 -2z m47 -16 c1 -1 2 -2 2 -4 0 -2 0 -2 -6 -2 -8 0 -12
3 -8 6 2 3 9 3 12 0z m-31 -8 c1 -2 1 -2 -1 -4 l-2 -2 -2 2 c-2 2 -2 2 -1 4 1
1 3 2 3 2 0 0 2 -1 3 -2z m9 -34 l0 -4 -4 0 c-3 0 -4 0 -4 2 0 3 3 6 6 6 2 0
2 0 2 -4z"/></g>
  <g transform="scale(0.125 0.125) translate(0.000000,512.000000) scale(1.000000,-1.000000)" fill="#f6f6f6" stroke="none"><path d="M202 478 c-1 -1 -2 -3 -2 -4 0 -2 0 -2 -10 -2 -12 0 -14 -1 -14 -6 0
-2 0 -2 -10 -2 l-11 0 -3 -4 c-3 -4 -4 -4 -8 -4 -4 0 -5 0 -10 -6 -4 -3 -6 -7
-6 -8 0 -2 -1 -2 -6 -2 l-6 0 -18 -18 c-18 -18 -18 -18 -18 -22 0 -4 0 -5 -8
-12 -8 -7 -8 -8 -8 -12 0 -4 0 -5 -4 -8 l-4 -3 0 -13 0 -13 -4 -3 -4 -3 0 -25
0 -25 4 -3 4 -3 0 -9 0 -9 4 -3 c4 -3 4 -4 4 -8 0 -4 0 -5 4 -8 4 -3 4 -4 4
-8 0 -4 0 -4 12 -16 12 -12 12 -12 12 -16 0 -6 2 -8 8 -8 4 0 5 0 16 -12 12
-12 12 -12 16 -12 4 0 5 0 8 -4 3 -4 4 -4 8 -4 6 0 8 -2 8 -8 0 -3 1 -5 2 -7
2 -1 2 -1 6 3 l4 4 14 -14 c14 -13 14 -14 14 -18 0 -4 0 -5 8 -12 8 -7 8 -8 8
-12 0 -4 0 -5 4 -8 4 -3 4 -4 4 -8 0 -4 0 -5 4 -8 4 -3 4 -4 4 -8 0 -4 0 -5 8
-12 8 -7 8 -8 8 -12 0 -3 1 -5 2 -6 2 -2 2 -2 8 4 6 5 6 6 6 10 0 4 0 5 4 8 4
3 4 4 4 8 0 4 0 5 8 12 8 7 8 8 8 12 0 4 0 5 4 8 4 3 4 4 4 8 0 4 0 5 4 8 4 3
4 4 4 8 0 4 0 5 8 12 8 7 8 8 8 12 0 6 2 8 8 8 4 0 5 0 8 -4 4 -4 4 -4 6 -3 1
2 2 4 2 7 0 3 1 5 2 7 2 1 2 1 6 -3 4 -4 4 -4 6 -3 1 2 2 4 2 7 0 6 2 8 8 8 4
0 5 0 16 12 12 12 12 12 16 12 6 0 8 2 8 8 0 4 0 5 12 16 12 12 12 12 12 16 0
4 0 5 4 8 4 3 4 4 4 8 0 4 0 5 4 8 l4 3 0 9 0 8 8 8 8 8 0 16 0 16 -8 8 -8 8
0 12 0 13 -4 3 c-4 3 -4 4 -4 8 0 4 0 5 -8 12 -8 7 -8 8 -8 12 0 4 0 4 -18 22
-18 18 -18 18 -22 18 -4 0 -5 0 -12 8 -7 8 -8 8 -12 8 -4 0 -5 0 -8 4 -3 4 -4
4 -8 4 -4 0 -5 0 -8 4 l-3 4 -15 0 -14 0 0 2 c0 6 -2 6 -24 6 -19 0 -21 0 -22
-2 -2 -2 -2 -2 0 -4 1 -2 3 -2 24 -2 l22 0 0 -2 c0 -5 3 -6 12 -6 l9 0 3 -4
c3 -4 4 -4 8 -4 4 0 5 0 8 -4 3 -4 4 -4 8 -4 4 0 5 0 12 -8 7 -8 8 -8 12 -8 4
0 4 0 22 -18 18 -18 18 -18 18 -22 0 -4 0 -5 4 -8 4 -3 4 -4 4 -8 0 -4 0 -5 4
-8 4 -3 4 -4 4 -8 0 -4 0 -5 4 -8 l4 -3 0 -41 0 -41 -4 -3 c-4 -3 -4 -4 -4 -8
0 -4 0 -5 -8 -12 -8 -7 -8 -8 -8 -12 0 -4 0 -4 -22 -26 -22 -22 -22 -22 -26
-22 -4 0 -5 0 -12 -8 l-8 -8 -8 0 -9 0 -3 -4 -3 -4 -9 0 -8 0 -6 -6 c-6 -5 -6
-6 -6 -10 0 -4 0 -5 -4 -8 -4 -3 -4 -4 -4 -8 0 -4 0 -5 -4 -8 -4 -3 -4 -4 -4
-8 0 -4 0 -5 -8 -12 -8 -7 -8 -8 -8 -12 0 -4 -1 -5 -6 -10 l-6 -6 -6 6 c-6 5
-6 6 -6 10 0 4 0 5 -4 8 -4 3 -4 4 -4 8 0 4 0 5 -8 12 l-8 8 0 8 0 8 -6 6 c-5
6 -6 6 -10 6 -4 0 -5 0 -8 4 -3 4 -4 4 -8 4 -4 0 -5 0 -8 4 l-3 4 -9 0 -8 0
-8 8 c-7 8 -8 8 -12 8 -4 0 -4 0 -30 26 l-26 26 0 4 c0 4 0 5 -4 8 l-4 3 0 9
0 9 -4 3 -4 3 0 37 0 37 4 3 4 3 0 9 0 8 8 8 c8 7 8 8 8 12 0 4 0 4 20 24 13
13 20 21 20 22 0 2 1 2 6 2 7 0 7 0 10 4 3 4 4 4 8 4 4 0 5 0 8 4 3 4 4 4 8 4
5 0 8 2 8 6 0 2 0 2 10 2 12 0 14 1 14 6 0 2 0 2 22 2 21 0 23 0 25 2 1 2 1 2
0 4 -3 3 -43 3 -45 0z"/><path d="M178 422 c-1 -1 -2 -3 -2 -4 0 -1 -1 -2 -2 -2 -1 0 -6 -4 -12 -10
-10 -10 -10 -10 -10 -14 0 -4 0 -5 -4 -8 -4 -3 -4 -4 -4 -8 0 -5 2 -8 6 -8 2
0 2 0 2 -10 l0 -11 4 -3 c4 -3 4 -4 4 -8 0 -4 0 -5 6 -10 5 -6 6 -6 10 -6 3 0
5 -1 7 -2 1 -2 1 -2 -3 -6 l-4 -4 8 -8 c8 -7 8 -8 8 -12 0 -5 2 -8 6 -8 1 0 2
-1 2 -2 0 -3 3 -6 6 -6 1 0 2 -1 2 -2 0 -2 1 -4 4 -6 4 -3 4 -4 4 -8 0 -4 0
-5 8 -12 8 -7 8 -8 8 -12 0 -4 0 -5 4 -8 4 -3 4 -4 4 -8 0 -5 2 -8 6 -8 2 0 2
0 2 -6 0 -5 0 -7 2 -8 3 -4 6 0 6 8 0 6 0 6 2 6 2 0 4 1 5 2 1 2 1 2 0 4 -1 1
-3 2 -5 2 -1 0 -2 1 -2 2 0 4 3 6 8 6 6 0 8 2 8 8 0 4 0 5 4 8 3 2 4 4 4 6 0
1 1 2 2 2 4 0 6 3 6 8 0 4 0 5 8 12 5 5 8 8 8 10 0 1 1 2 2 2 4 0 6 3 6 8 0 4
0 5 8 12 5 5 8 8 8 10 0 1 1 2 2 2 1 0 5 2 8 6 l6 6 0 6 c0 6 0 6 2 6 5 0 6 3
6 14 0 10 0 10 2 10 5 0 6 3 6 16 0 14 -1 16 -6 16 -1 0 -2 1 -2 2 0 2 -1 4
-4 6 -4 3 -4 4 -4 8 0 6 -2 8 -10 8 -6 0 -6 0 -6 2 0 6 -2 6 -24 6 -22 0 -24
0 -24 -6 0 -1 -1 -2 -2 -2 -3 0 -22 -19 -22 -22 0 -5 -4 -2 -16 10 -8 8 -12
12 -14 12 -1 0 -2 1 -2 2 0 6 -2 6 -24 6 -19 0 -21 0 -22 -2z m5 -8 c1 -2 1
-2 -1 -4 -2 -2 -2 -2 -4 -1 -1 1 -2 3 -2 5 0 3 4 3 7 0z m41 0 c0 -3 -3 -6 -6
-6 -1 0 -2 -1 -2 -2 0 -5 -3 -6 -12 -6 -7 0 -9 0 -10 2 -2 2 -2 2 0 4 1 2 3 2
12 2 10 0 10 0 10 2 0 3 3 6 6 6 1 0 2 -1 2 -2z m62 0 c1 -1 2 -2 2 -4 0 -2 0
-2 10 -2 9 0 11 0 13 -2 1 -2 1 -2 0 -4 -2 -2 -4 -2 -11 -2 -9 0 -12 1 -12 6
0 1 -1 2 -2 2 -3 0 -6 3 -6 6 0 3 3 3 6 0z m42 0 c0 -2 -1 -4 -2 -5 -2 -1 -2
-1 -4 1 -2 2 -2 2 -1 4 3 3 7 3 7 0z m-145 -16 c1 -2 1 -2 -1 -4 l-2 -2 -2 2
c-2 2 -2 2 -1 4 1 1 3 2 3 2 0 0 2 -1 3 -2z m48 0 c1 -2 1 -2 -1 -4 l-2 -2 -2
2 c-2 2 -2 2 -1 4 1 1 3 2 3 2 0 0 2 -1 3 -2z m95 0 c1 -1 2 -2 2 -4 0 -1 1
-2 2 -2 2 0 4 -1 5 -2 1 -2 1 -2 -1 -4 -2 -2 -2 -2 -4 -1 -1 1 -2 3 -2 5 0 1
-1 2 -2 2 -2 0 -4 1 -4 2 -2 2 -2 2 0 4 2 2 2 2 4 0z m-63 -8 c1 -2 1 -2 -1
-4 -2 -2 -2 -2 -4 -1 -3 3 -3 7 0 7 2 0 4 -1 5 -2z m89 0 c0 -2 -1 -4 -2 -5
-2 -1 -2 -1 -4 1 -2 2 -2 2 -1 4 3 3 7 3 7 0z m-193 -16 c1 -2 1 -2 0 -4 -3
-3 -7 -3 -7 0 0 2 3 6 4 6 0 0 2 -1 3 -2z m88 -8 c1 -2 1 -2 -1 -4 l-2 -2 -2
2 c-2 2 -2 2 -1 4 1 1 3 2 3 2 0 0 2 -1 3 -2z m16 0 c1 -2 1 -2 -1 -4 l-2 -2
-2 2 c-2 2 -2 2 -1 4 1 1 3 2 3 2 0 0 2 -1 3 -2z m87 0 c1 -1 2 -2 2 -4 0 -3
-4 -3 -6 0 -2 2 -2 2 0 4 2 2 2 2 4 0z m-16 -16 c1 -1 2 -2 2 -4 0 -1 1 -2 2
-2 3 0 6 -3 6 -6 0 -1 -1 -2 -2 -2 -3 0 -6 3 -6 6 0 3 -12 3 -15 0 -1 -2 -1
-2 3 -6 4 -4 4 -4 3 -6 -2 -1 -4 -2 -7 -2 -7 0 -8 -2 -8 -12 0 -10 -1 -12 -8
-12 -4 0 -5 0 -10 -6 l-6 -6 0 -8 c0 -10 -1 -12 -8 -12 -4 0 -5 0 -10 -6 -6
-6 -6 -6 -4 -8 1 -1 3 -2 6 -2 5 0 8 -2 8 -6 0 -2 0 -2 -10 -2 l-11 0 -3 -4
c-3 -4 -4 -4 -8 -4 -7 0 -8 2 -8 12 0 10 -1 12 -8 12 -7 0 -8 2 -8 12 l0 8 -6
6 c-5 5 -6 6 -10 6 -4 0 -5 1 -10 6 l-6 6 4 4 4 4 -6 6 c-5 6 -6 6 -10 6 -3 0
-5 1 -7 2 -1 2 -1 2 3 6 4 4 4 4 3 6 -2 1 -4 2 -7 2 -6 0 -9 3 -6 6 1 2 3 2
82 2 73 0 81 0 82 -2z m-8 -32 c1 -1 2 -2 2 -4 0 -3 -4 -3 -6 0 -2 2 -2 2 0 4
2 2 2 2 4 0z m-120 -32 c1 -1 2 -2 2 -4 0 -1 1 -2 2 -2 2 0 4 -1 5 -2 1 -2 1
-2 0 -4 -4 -4 -7 -3 -7 2 l0 4 -4 0 c-5 0 -6 3 -2 6 2 2 2 2 4 0z m96 0 c1 -1
2 -2 2 -4 0 -3 -4 -3 -6 0 -2 2 -2 2 0 4 2 2 2 2 4 0z m-46 -74 l0 -4 -4 0
c-3 0 -4 0 -4 2 0 3 3 6 6 6 2 0 2 0 2 -4z"/></g>
  <g transform="scale(0.125 0.125) translate(0.000000,512.000000) scale(1.000000,-1.000000)" fill="#ff0d86" stroke="none"><path d="M202 478 c-2 -2 -2 -2 0 -4 1 -2 3 -2 14 -2 11 0 13 0 15 2 1 2 1 2
0 4 -2 2 -4 2 -15 2 -11 0 -13 0 -14 -2z"/><path d="M274 478 c-2 -2 -2 -2 0 -4 1 -2 3 -2 14 -2 11 0 13 0 15 2 1 2 1 2
0 4 -2 2 -4 2 -15 2 -11 0 -13 0 -14 -2z"/><path d="M178 470 c-3 -3 0 -6 6 -6 3 0 5 1 7 2 2 3 -1 6 -7 6 -3 0 -5 -1 -6
-2z"/><path d="M314 470 c-2 -2 -2 -2 0 -4 1 -2 3 -2 12 -2 10 0 10 0 10 -2 0 -4 3
-6 10 -6 6 0 6 0 6 -2 0 -4 3 -6 10 -6 6 0 6 0 6 -2 0 -3 3 -6 6 -6 1 0 2 -1
2 -2 0 -4 3 -6 10 -6 l6 0 0 -6 c0 -9 1 -10 10 -10 l6 0 0 -6 0 -6 6 -6 c3 -4
7 -6 8 -6 2 0 2 -1 2 -6 0 -7 0 -7 4 -10 4 -3 4 -4 4 -8 0 -4 0 -5 4 -8 l4 -3
0 -17 0 -17 4 -3 4 -3 0 -9 0 -9 -4 -3 -4 -3 0 -13 0 -13 -4 -3 -4 -3 0 -11
c0 -9 0 -10 -2 -10 -1 0 -5 -2 -8 -6 l-6 -6 0 -6 c0 -6 0 -6 -2 -6 -3 0 -6 -3
-6 -6 0 -1 -1 -2 -2 -2 -3 0 -14 -11 -14 -14 0 -1 -1 -2 -2 -2 -3 0 -6 -3 -6
-6 0 -2 -1 -2 -6 -2 l-6 0 -6 -6 c-4 -3 -6 -7 -6 -8 0 -2 -1 -2 -6 -2 -7 0
-10 -2 -10 -6 0 -2 0 -2 -10 -2 -12 0 -14 -1 -14 -6 0 -2 -1 -2 -6 -2 l-6 0
-6 -6 c-6 -5 -6 -6 -6 -10 0 -4 0 -5 -4 -8 -4 -3 -4 -4 -4 -8 0 -4 0 -5 -4 -8
-4 -3 -4 -4 -4 -8 0 -4 0 -5 -8 -12 -8 -7 -8 -8 -8 -12 0 -4 -1 -5 -6 -10 -6
-6 -6 -6 -8 -4 -1 1 -2 3 -2 6 0 4 0 5 -8 12 -8 7 -8 8 -8 12 0 4 0 5 -4 8 -4
3 -4 4 -4 8 0 4 0 5 -4 8 -4 3 -4 4 -4 8 0 4 0 4 -10 14 -10 10 -10 10 -14 10
-4 0 -5 0 -8 4 l-3 4 -11 0 c-10 0 -10 0 -10 2 0 4 -3 6 -10 6 -5 0 -6 0 -6 2
0 1 -2 5 -6 8 l-6 6 -6 0 c-6 0 -6 0 -6 2 0 3 -3 6 -6 6 -1 0 -2 1 -2 2 0 3
-11 14 -14 14 -1 0 -2 1 -2 2 0 3 -3 6 -6 6 -2 0 -2 1 -2 6 l0 6 -6 6 c-3 4
-7 6 -8 6 -2 0 -2 1 -2 6 0 7 -2 10 -6 10 -2 0 -2 0 -2 18 l0 19 -4 3 -4 3 0
13 0 13 4 3 4 3 0 13 0 13 4 3 c4 3 4 4 4 8 0 4 0 5 4 8 4 3 4 3 4 10 0 5 0 6
2 6 1 0 5 2 8 6 l6 6 0 6 c0 6 0 6 2 6 3 0 6 3 6 6 0 2 1 2 6 2 l6 0 6 6 c4 3
6 7 6 8 0 1 1 2 2 2 3 0 6 3 6 6 0 2 0 2 6 2 7 0 10 2 10 6 0 2 0 2 6 2 8 0
12 3 9 6 -5 5 -15 2 -15 -4 0 -2 0 -2 -6 -2 -7 0 -10 -2 -10 -6 0 -1 -1 -2 -2
-2 -3 0 -6 -3 -6 -6 0 -2 -1 -2 -6 -2 l-6 0 -6 -6 c-4 -3 -6 -7 -6 -8 0 -1 -1
-2 -2 -2 -3 0 -6 -3 -6 -6 0 -1 -1 -2 -2 -2 -1 0 -5 -2 -8 -6 l-6 -6 0 -6 c0
-5 0 -6 -2 -6 -1 0 -5 -2 -8 -6 -6 -5 -6 -6 -6 -10 0 -4 0 -5 -4 -8 l-4 -3 0
-13 0 -13 -4 -3 -4 -3 0 -25 0 -25 4 -3 4 -3 0 -9 c0 -9 1 -12 6 -12 2 0 2 0
2 -6 0 -7 2 -10 6 -10 2 0 2 -1 2 -6 l0 -6 6 -6 c3 -4 7 -6 8 -6 1 0 2 -1 2
-2 0 -3 3 -6 6 -6 2 0 2 0 2 -6 0 -9 1 -10 10 -10 6 0 6 0 6 -2 0 -3 3 -6 6
-6 1 0 2 -1 2 -2 0 -1 2 -5 6 -8 l6 -6 6 0 c6 0 6 0 6 -2 0 -4 3 -6 10 -6 l6
0 0 -6 c0 -6 0 -7 2 -9 2 -1 2 -1 6 3 l4 4 14 -14 c14 -13 14 -14 14 -18 0 -4
0 -5 8 -12 8 -7 8 -8 8 -12 0 -4 0 -5 4 -8 4 -3 4 -4 4 -8 0 -4 0 -5 4 -8 4
-3 4 -4 4 -8 0 -4 0 -5 8 -12 8 -7 8 -8 8 -12 0 -3 1 -5 2 -6 2 -2 2 -2 8 4 6
5 6 6 6 10 0 4 0 5 4 8 4 3 4 4 4 8 0 4 0 5 8 12 8 7 8 8 8 12 0 4 0 5 4 8 4
3 4 4 4 8 0 4 0 5 4 8 4 3 4 4 4 8 0 4 0 5 8 12 l8 8 0 6 0 6 6 0 c6 0 7 0 10
-4 4 -4 4 -4 6 -3 2 2 2 3 2 9 0 8 2 8 8 2 4 -4 4 -4 6 -3 2 2 2 3 2 9 l0 6 6
0 6 0 6 6 c4 3 6 7 6 8 0 1 1 2 2 2 3 0 6 3 6 6 0 2 0 2 6 2 9 0 10 1 10 10 0
6 0 6 2 6 3 0 6 3 6 6 0 1 1 2 2 2 1 0 5 2 8 6 l6 6 0 6 c0 6 0 6 2 6 4 0 6 3
6 8 0 4 0 5 4 8 l4 3 0 9 0 8 8 8 8 8 0 16 0 16 -8 8 -8 8 0 12 0 13 -4 3 c-4
3 -4 4 -4 8 0 4 0 5 -6 10 -3 4 -7 6 -8 6 -2 0 -2 1 -2 6 l0 6 -6 6 c-3 4 -7
6 -8 6 -1 0 -2 1 -2 2 0 1 -2 5 -6 8 -3 4 -7 6 -8 6 -1 0 -2 1 -2 2 0 4 -3 6
-10 6 -6 0 -6 0 -6 2 0 3 -3 6 -6 6 -1 0 -2 1 -2 2 0 4 -3 6 -10 6 -6 0 -6 0
-6 2 0 4 -3 6 -10 6 -6 0 -6 0 -6 2 0 5 -3 6 -12 6 -7 0 -9 0 -10 -2z"/><path d="M186 422 c-1 -1 -2 -3 -2 -6 0 -3 -1 -5 -2 -7 -2 -1 -2 -1 -6 3 l-4
4 -6 -6 c-6 -5 -6 -6 -6 -10 0 -4 0 -5 -4 -8 -4 -3 -4 -4 -4 -8 0 -4 0 -5 4
-8 l5 -4 -5 -4 -4 -3 0 -9 0 -9 4 -3 c4 -3 4 -4 4 -8 0 -4 0 -5 6 -10 5 -6 6
-6 10 -6 3 0 5 -1 7 -2 1 -2 1 -2 -3 -6 l-4 -4 10 -10 c9 -9 10 -10 14 -10 4
0 5 -1 10 -6 l6 -6 -4 -4 -4 -4 8 -8 c8 -7 8 -8 8 -12 0 -4 0 -5 8 -12 8 -7 8
-8 8 -12 0 -6 2 -8 10 -8 l6 0 0 -4 c0 -4 0 -4 -2 -4 -2 0 -4 -1 -5 -2 -1 -2
-1 -2 1 -4 2 -2 2 -2 4 -1 1 1 2 3 2 5 0 1 1 2 2 2 2 0 4 1 5 2 1 2 1 2 0 4
-1 1 -3 2 -5 2 -1 0 -2 1 -2 2 0 4 3 6 8 6 6 0 8 2 8 8 0 4 0 5 4 8 4 4 4 4 3
6 -2 2 -3 2 -11 2 l-9 0 -3 -4 c-3 -4 -4 -4 -8 -4 -7 0 -8 2 -8 12 0 10 -1 12
-8 12 -7 0 -8 2 -8 12 l0 8 -6 6 c-5 5 -6 6 -10 6 -4 0 -5 1 -10 6 l-6 6 4 4
4 4 -6 6 c-5 6 -6 6 -10 6 -3 0 -5 1 -7 2 -1 2 -1 2 3 6 4 4 4 4 3 6 -2 1 -4
2 -7 2 -6 0 -9 3 -6 6 2 3 162 3 164 0 4 -4 3 -6 -4 -6 -6 0 -7 0 -9 -2 -1 -2
-1 -2 3 -6 4 -4 4 -4 3 -6 -2 -1 -4 -2 -7 -2 -7 0 -8 -2 -8 -12 0 -10 -1 -12
-8 -12 -4 0 -5 -1 -10 -6 l-6 -6 0 -8 c0 -10 -1 -12 -8 -12 -4 0 -5 -1 -10 -6
-6 -6 -6 -6 -4 -8 1 -2 3 -2 10 -2 l8 0 10 10 10 10 -4 4 c-4 4 -4 4 -3 6 2 1
4 2 7 2 4 0 4 0 14 10 l10 10 -4 4 c-4 4 -4 4 -3 6 2 1 4 2 7 2 4 0 5 0 10 6
l6 6 -4 4 c-6 6 -6 8 2 8 8 0 10 2 10 8 0 4 0 5 -4 8 l-4 4 4 4 c6 5 6 11 0
16 l-4 4 4 4 4 4 -10 10 -10 10 -4 -4 c-4 -4 -4 -4 -6 -3 -1 2 -2 4 -2 7 0 7
-1 8 -16 8 -15 0 -16 0 -16 -10 0 -8 -3 -8 -8 -2 l-4 4 -10 -10 -10 -10 4 -4
c4 -4 4 -4 3 -6 -2 -1 -4 -2 -7 -2 -6 0 -8 2 -8 8 0 4 0 5 -10 14 l-10 10 -4
-4 c-6 -6 -8 -6 -8 2 0 10 -1 10 -16 10 -11 0 -13 0 -14 -2z m30 -16 c0 -5 -3
-6 -12 -6 -7 0 -9 0 -10 2 -2 2 -2 2 0 4 2 3 22 3 22 0z m95 0 c1 -2 1 -2 0
-4 -2 -2 -4 -2 -11 -2 -9 0 -12 1 -12 6 0 2 0 2 10 2 9 0 11 0 13 -2z m-128
-8 c1 -2 1 -2 -1 -4 l-2 -2 -2 2 c-2 2 -2 2 -1 4 1 1 3 2 3 2 0 0 2 -1 3 -2z
m48 0 c1 -2 1 -2 -1 -4 l-2 -2 -2 2 c-2 2 -2 2 -1 4 1 1 3 2 3 2 0 0 2 -1 3
-2z m95 0 c1 -1 2 -2 2 -4 0 -1 1 -2 2 -2 2 0 4 -1 5 -2 1 -2 1 -2 -1 -4 -2
-2 -2 -2 -4 -1 -1 1 -2 3 -2 5 0 1 -1 2 -2 2 -2 0 -4 1 -4 2 -2 2 -2 2 0 4 2
2 2 2 4 0z m-79 -32 c1 -2 1 -2 -1 -4 l-2 -2 -2 2 c-2 2 -2 2 -1 4 1 1 3 2 3
2 0 0 2 -1 3 -2z m16 0 c1 -2 1 -2 -1 -4 l-2 -2 -2 2 c-2 2 -2 2 -1 4 1 1 3 2
3 2 0 0 2 -1 3 -2z"/></g>
  <g transform="scale(0.125 0.125) translate(0.000000,512.000000) scale(1.000000,-1.000000)" fill="#c8c8c8" stroke="none"><path d="M202 478 c-2 -2 -2 -2 0 -4 1 -2 3 -2 14 -2 11 0 13 0 15 2 1 2 1 2
0 4 -2 2 -4 2 -15 2 -11 0 -13 0 -14 -2z"/><path d="M274 478 c-2 -2 -2 -2 0 -4 1 -2 3 -2 14 -2 11 0 13 0 15 2 1 2 1 2
0 4 -2 2 -4 2 -15 2 -11 0 -13 0 -14 -2z"/><path d="M178 470 c-3 -3 0 -6 6 -6 3 0 5 1 7 2 2 3 -1 6 -7 6 -3 0 -5 -1 -6
-2z"/><path d="M314 470 c-2 -2 -2 -2 0 -4 1 -2 3 -2 12 -2 10 0 10 0 10 -2 0 -4 3
-6 10 -6 6 0 6 0 6 -2 0 -4 3 -6 10 -6 6 0 6 0 6 -2 0 -3 3 -6 6 -6 1 0 2 -1
2 -2 0 -4 3 -6 10 -6 l6 0 0 -6 c0 -9 1 -10 10 -10 l6 0 0 -6 0 -6 6 -6 c3 -4
7 -6 8 -6 2 0 2 -1 2 -6 0 -7 0 -7 4 -10 4 -3 4 -4 4 -8 0 -4 0 -5 4 -8 l4 -3
0 -17 0 -17 4 -3 4 -3 0 -9 0 -9 -4 -3 -4 -3 0 -13 0 -13 -4 -3 -4 -3 0 -11
c0 -9 0 -10 -2 -10 -1 0 -5 -2 -8 -6 l-6 -6 0 -6 c0 -6 0 -6 -2 -6 -3 0 -6 -3
-6 -6 0 -1 -1 -2 -2 -2 -3 0 -14 -11 -14 -14 0 -1 -1 -2 -2 -2 -3 0 -6 -3 -6
-6 0 -2 -1 -2 -6 -2 l-6 0 -6 -6 c-4 -3 -6 -7 -6 -8 0 -2 -1 -2 -6 -2 -7 0
-10 -2 -10 -6 0 -2 0 -2 -10 -2 -12 0 -14 -1 -14 -6 0 -2 -1 -2 -6 -2 l-6 0
-6 -6 c-6 -5 -6 -6 -6 -10 0 -4 0 -5 -4 -8 -4 -3 -4 -4 -4 -8 0 -4 0 -5 -4 -8
-4 -3 -4 -4 -4 -8 0 -4 0 -5 -8 -12 -8 -7 -8 -8 -8 -12 0 -4 -1 -5 -6 -10 -6
-6 -6 -6 -8 -4 -1 1 -2 3 -2 6 0 4 0 5 -8 12 -8 7 -8 8 -8 12 0 4 0 5 -4 8 -4
3 -4 4 -4 8 0 4 0 5 -4 8 -4 3 -4 4 -4 8 0 4 0 4 -10 14 -10 10 -10 10 -14 10
-4 0 -5 0 -8 4 l-3 4 -11 0 c-10 0 -10 0 -10 2 0 4 -3 6 -10 6 -5 0 -6 0 -6 2
0 1 -2 5 -6 8 l-6 6 -6 0 c-6 0 -6 0 -6 2 0 3 -3 6 -6 6 -1 0 -2 1 -2 2 0 3
-11 14 -14 14 -1 0 -2 1 -2 2 0 3 -3 6 -6 6 -2 0 -2 1 -2 6 l0 6 -6 6 c-3 4
-7 6 -8 6 -2 0 -2 1 -2 6 0 7 -2 10 -6 10 -2 0 -2 0 -2 18 l0 19 -4 3 -4 3 0
13 0 13 4 3 4 3 0 13 0 13 4 3 c4 3 4 4 4 8 0 4 0 5 4 8 4 3 4 3 4 10 0 5 0 6
2 6 1 0 5 2 8 6 l6 6 0 6 c0 6 0 6 2 6 3 0 6 3 6 6 0 2 1 2 6 2 l6 0 6 6 c4 3
6 7 6 8 0 1 1 2 2 2 3 0 6 3 6 6 0 2 0 2 6 2 7 0 10 2 10 6 0 2 0 2 6 2 8 0
12 3 9 6 -5 5 -15 2 -15 -4 0 -2 0 -2 -6 -2 -7 0 -10 -2 -10 -6 0 -1 -1 -2 -2
-2 -3 0 -6 -3 -6 -6 0 -2 -1 -2 -6 -2 l-6 0 -6 -6 c-4 -3 -6 -7 -6 -8 0 -1 -1
-2 -2 -2 -3 0 -6 -3 -6 -6 0 -1 -1 -2 -2 -2 -1 0 -5 -2 -8 -6 l-6 -6 0 -6 c0
-5 0 -6 -2 -6 -1 0 -5 -2 -8 -6 -6 -5 -6 -6 -6 -10 0 -4 0 -5 -4 -8 l-4 -3 0
-13 0 -13 -4 -3 -4 -3 0 -25 0 -25 4 -3 4 -3 0 -9 c0 -9 1 -12 6 -12 2 0 2 0
2 -6 0 -7 2 -10 6 -10 2 0 2 -1 2 -6 l0 -6 6 -6 c3 -4 7 -6 8 -6 1 0 2 -1 2
-2 0 -3 3 -6 6 -6 2 0 2 0 2 -6 0 -9 1 -10 10 -10 6 0 6 0 6 -2 0 -3 3 -6 6
-6 1 0 2 -1 2 -2 0 -1 2 -5 6 -8 l6 -6 6 0 c6 0 6 0 6 -2 0 -4 3 -6 10 -6 l6
0 0 -6 c0 -6 0 -7 2 -9 2 -1 2 -1 6 3 l4 4 14 -14 c14 -13 14 -14 14 -18 0 -4
0 -5 8 -12 8 -7 8 -8 8 -12 0 -4 0 -5 4 -8 4 -3 4 -4 4 -8 0 -4 0 -5 4 -8 4
-3 4 -4 4 -8 0 -4 0 -5 8 -12 8 -7 8 -8 8 -12 0 -3 1 -5 2 -6 2 -2 2 -2 8 4 6
5 6 6 6 10 0 4 0 5 4 8 4 3 4 4 4 8 0 4 0 5 8 12 8 7 8 8 8 12 0 4 0 5 4 8 4
3 4 4 4 8 0 4 0 5 4 8 4 3 4 4 4 8 0 4 0 5 8 12 l8 8 0 6 0 6 6 0 c6 0 7 0 10
-4 4 -4 4 -4 6 -3 2 2 2 3 2 9 0 8 2 8 8 2 4 -4 4 -4 6 -3 2 2 2 3 2 9 l0 6 6
0 6 0 6 6 c4 3 6 7 6 8 0 1 1 2 2 2 3 0 6 3 6 6 0 2 0 2 6 2 9 0 10 1 10 10 0
6 0 6 2 6 3 0 6 3 6 6 0 1 1 2 2 2 1 0 5 2 8 6 l6 6 0 6 c0 6 0 6 2 6 4 0 6 3
6 8 0 4 0 5 4 8 l4 3 0 9 0 8 8 8 8 8 0 16 0 16 -8 8 -8 8 0 12 0 13 -4 3 c-4
3 -4 4 -4 8 0 4 0 5 -6 10 -3 4 -7 6 -8 6 -2 0 -2 1 -2 6 l0 6 -6 6 c-3 4 -7
6 -8 6 -1 0 -2 1 -2 2 0 1 -2 5 -6 8 -3 4 -7 6 -8 6 -1 0 -2 1 -2 2 0 4 -3 6
-10 6 -6 0 -6 0 -6 2 0 3 -3 6 -6 6 -1 0 -2 1 -2 2 0 4 -3 6 -10 6 -6 0 -6 0
-6 2 0 4 -3 6 -10 6 -6 0 -6 0 -6 2 0 5 -3 6 -12 6 -7 0 -9 0 -10 -2z"/><path d="M186 422 c-1 -1 -2 -3 -2 -6 0 -3 -1 -5 -2 -7 -2 -1 -2 -1 -6 3 l-4
4 -6 -6 c-6 -5 -6 -6 -6 -10 0 -4 0 -5 -4 -8 -4 -3 -4 -4 -4 -8 0 -4 0 -5 4
-8 l5 -4 -5 -4 -4 -3 0 -9 0 -9 4 -3 c4 -3 4 -4 4 -8 0 -4 0 -5 6 -10 5 -6 6
-6 10 -6 3 0 5 -1 7 -2 1 -2 1 -2 -3 -6 l-4 -4 10 -10 c9 -9 10 -10 14 -10 4
0 5 -1 10 -6 l6 -6 -4 -4 -4 -4 8 -8 c8 -7 8 -8 8 -12 0 -4 0 -5 8 -12 8 -7 8
-8 8 -12 0 -6 2 -8 10 -8 l6 0 0 -4 c0 -4 0 -4 -2 -4 -2 0 -4 -1 -5 -2 -1 -2
-1 -2 1 -4 2 -2 2 -2 4 -1 1 1 2 3 2 5 0 1 1 2 2 2 2 0 4 1 5 2 1 2 1 2 0 4
-1 1 -3 2 -5 2 -1 0 -2 1 -2 2 0 4 3 6 8 6 6 0 8 2 8 8 0 4 0 5 4 8 4 4 4 4 3
6 -2 2 -3 2 -11 2 l-9 0 -3 -4 c-3 -4 -4 -4 -8 -4 -7 0 -8 2 -8 12 0 10 -1 12
-8 12 -7 0 -8 2 -8 12 l0 8 -6 6 c-5 5 -6 6 -10 6 -4 0 -5 1 -10 6 l-6 6 4 4
4 4 -6 6 c-5 6 -6 6 -10 6 -3 0 -5 1 -7 2 -1 2 -1 2 3 6 4 4 4 4 3 6 -2 1 -4
2 -7 2 -3 0 -5 1 -7 2 -1 2 -1 2 3 6 l4 4 0 20 c0 20 0 21 2 23 2 1 2 1 6 -3
4 -4 4 -4 6 -3 1 2 2 4 2 7 0 7 2 8 14 8 l10 0 0 -6 c0 -6 0 -7 2 -9 2 -1 2
-1 6 3 4 4 4 4 6 3 2 -2 2 -3 2 -15 0 -15 1 -16 8 -16 6 0 8 -2 8 -8 0 -3 1
-5 2 -6 3 -3 6 0 6 6 0 6 2 8 8 8 6 0 8 2 8 8 0 4 0 5 8 12 l8 8 0 6 0 6 10 0
11 0 3 -4 c3 -4 4 -4 8 -4 4 0 5 0 10 -6 l6 -6 -4 -4 -4 -4 4 -4 c4 -3 4 -4 4
-8 0 -4 0 -5 -4 -8 l-4 -4 4 -4 c6 -6 6 -8 -2 -8 -6 0 -7 0 -9 -2 -1 -2 -1 -2
3 -6 4 -4 4 -4 3 -6 -2 -1 -4 -2 -7 -2 -7 0 -8 -2 -8 -12 0 -10 -1 -12 -8 -12
-4 0 -5 -1 -10 -6 l-6 -6 0 -8 c0 -10 -1 -12 -8 -12 -4 0 -5 -1 -10 -6 -6 -6
-6 -6 -4 -8 1 -2 3 -2 10 -2 l8 0 10 10 10 10 -4 4 c-4 4 -4 4 -3 6 2 1 4 2 7
2 4 0 4 0 14 10 l10 10 -4 4 c-4 4 -4 4 -3 6 2 1 4 2 7 2 4 0 5 0 10 6 l6 6
-4 4 c-6 6 -6 8 2 8 8 0 10 2 10 8 0 4 0 5 -4 8 l-4 4 4 4 c6 5 6 11 0 16 l-4
4 4 4 4 4 -10 10 -10 10 -4 -4 c-4 -4 -4 -4 -6 -3 -1 2 -2 4 -2 7 0 7 -1 8
-16 8 -15 0 -16 0 -16 -10 0 -8 -3 -8 -8 -2 l-4 4 -10 -10 -10 -10 4 -4 c4 -4
4 -4 3 -6 -2 -1 -4 -2 -7 -2 -6 0 -8 2 -8 8 0 4 0 5 -10 14 l-10 10 -4 -4 c-6
-6 -8 -6 -8 2 0 10 -1 10 -16 10 -11 0 -13 0 -14 -2z"/></g>
  <g transform="scale(0.125 0.125) translate(0.000000,512.000000) scale(1.000000,-1.000000)" fill="#000000" stroke="none"><path d="M202 478 c-3 -3 0 -6 6 -6 3 0 5 1 7 2 2 3 -1 6 -7 6 -3 0 -5 -1 -6
-2z"/><path d="M282 478 c-2 -2 -2 -2 0 -4 1 -2 3 -2 10 -2 7 0 9 0 11 2 1 2 1 2 0
4 -2 2 -4 2 -11 2 -7 0 -9 0 -10 -2z"/><path d="M177 470 c-1 -2 -1 -2 1 -4 l2 -2 2 2 c2 2 2 2 1 4 -1 1 -3 2 -3 2 0
0 -2 -1 -3 -2z"/><path d="M322 470 c-3 -3 0 -6 6 -6 6 0 9 3 7 6 -2 1 -4 2 -7 2 -3 0 -5 -1 -6
-2z"/><path d="M153 462 c-1 -2 -1 -2 1 -4 l2 -2 2 2 c2 2 2 2 1 4 -1 1 -3 2 -3 2 0
0 -2 -1 -3 -2z"/><path d="M345 462 c-1 -2 -1 -2 1 -4 l2 -2 2 2 c2 2 2 2 1 4 -1 1 -3 2 -3 2 0
0 -2 -1 -3 -2z"/><path d="M138 454 c-1 -1 -2 -3 -2 -4 0 -1 -1 -2 -2 -2 -2 0 -4 -1 -5 -2 -1
-2 -1 -2 1 -4 2 -2 2 -2 4 -1 1 1 2 3 2 5 0 1 1 2 2 2 2 0 4 1 5 2 1 2 1 2 0
4 -3 2 -3 2 -5 0z"/><path d="M362 454 c-2 -2 -2 -2 0 -4 0 -1 2 -2 4 -2 1 0 2 -1 2 -2 0 -2 1 -4
2 -5 2 -1 2 -1 4 1 2 2 2 2 1 4 -1 1 -3 2 -5 2 -1 0 -2 1 -2 2 0 2 -3 6 -4 6
0 0 -2 -1 -2 -2z"/><path d="M114 438 c-1 -1 -2 -3 -2 -4 0 -1 -1 -2 -2 -2 -3 0 -6 -3 -6 -6 0 -1
-1 -2 -2 -2 -3 0 -6 -3 -6 -6 0 -1 -1 -2 -2 -2 -3 0 -6 -3 -6 -6 0 -1 -1 -2
-2 -2 -2 0 -4 -1 -5 -2 -1 -2 -1 -2 1 -4 2 -2 2 -2 4 -1 1 1 2 3 2 5 0 1 1 2
2 2 3 0 6 3 6 6 0 1 1 2 2 2 3 0 6 3 6 6 0 1 1 2 2 2 3 0 6 3 6 6 0 1 1 2 2 2
2 0 4 1 5 2 1 2 1 2 0 4 -3 2 -3 2 -5 0z"/><path d="M386 438 c-2 -2 -2 -2 0 -4 0 -1 2 -2 4 -2 1 0 2 -1 2 -2 0 -3 3 -6
6 -6 1 0 2 -1 2 -2 0 -3 3 -6 6 -6 1 0 2 -1 2 -2 0 -3 3 -6 6 -6 1 0 2 -1 2
-2 0 -2 1 -4 2 -5 2 -1 2 -1 4 1 2 2 2 2 1 4 -1 1 -3 2 -5 2 -1 0 -2 1 -2 2 0
3 -3 6 -6 6 -1 0 -2 1 -2 2 0 3 -3 6 -6 6 -1 0 -2 1 -2 2 0 3 -3 6 -6 6 -1 0
-2 1 -2 2 0 2 -3 6 -4 6 0 0 -2 -1 -2 -2z"/><path d="M188 416 c-7 -8 -8 -8 -12 -8 -4 0 -5 0 -14 -10 -10 -9 -10 -10 -10
-14 0 -4 0 -5 4 -8 l5 -4 -5 -4 c-4 -3 -4 -4 -4 -8 0 -4 0 -5 4 -8 4 -3 4 -4
4 -8 0 -4 0 -5 4 -8 4 -3 4 -4 4 -8 0 -6 2 -8 8 -8 6 0 8 -2 8 -8 0 -5 2 -8 6
-8 2 0 2 0 2 -6 0 -8 2 -10 8 -10 4 0 5 -1 10 -6 l6 -6 0 -8 0 -8 8 -8 c8 -7
8 -8 8 -12 0 -4 0 -5 4 -8 4 -3 4 -4 4 -8 0 -6 2 -8 8 -8 4 0 5 0 14 10 10 10
10 10 10 14 0 6 -2 8 -8 8 -4 0 -5 0 -8 -4 -3 -4 -4 -4 -8 -4 -7 0 -8 2 -8 12
0 10 -1 12 -8 12 -7 0 -8 2 -8 12 l0 8 -6 6 c-5 6 -6 6 -10 6 -4 0 -5 0 -8 4
-2 3 -4 4 -6 4 -4 0 -3 4 2 8 l4 4 -6 6 c-5 6 -6 6 -10 6 -3 0 -5 1 -7 2 -1 2
-1 2 3 6 4 4 4 4 3 6 -2 1 -4 2 -7 2 -3 0 -5 1 -7 2 -1 2 -1 2 3 6 l4 4 0 20
c0 20 0 21 2 23 2 1 2 1 6 -3 4 -4 4 -4 6 -3 1 2 2 4 2 7 0 7 2 8 14 8 l10 0
0 -6 c0 -6 0 -7 2 -9 2 -1 2 -1 6 3 4 4 4 4 6 3 2 -2 2 -3 2 -15 0 -15 1 -16
8 -16 6 0 8 -2 8 -8 0 -3 1 -5 2 -6 3 -3 6 0 6 6 0 6 2 8 8 8 6 0 8 2 8 8 0 4
0 5 8 12 l8 8 0 6 0 6 10 0 11 0 3 -4 c3 -4 4 -4 8 -4 4 0 5 0 10 -6 l6 -6 -4
-4 -4 -4 4 -4 c6 -5 6 -11 0 -16 l-4 -4 4 -4 c6 -6 6 -8 -2 -8 -6 0 -7 0 -9
-2 -1 -2 -1 -2 3 -6 4 -4 4 -4 3 -6 -2 -1 -4 -2 -7 -2 -7 0 -8 -2 -8 -12 0
-10 -1 -12 -8 -12 -4 0 -5 -1 -10 -6 l-6 -6 0 -8 c0 -10 -1 -12 -8 -12 -4 0
-5 -1 -10 -6 -6 -6 -6 -6 -4 -8 1 -2 3 -2 10 -2 l8 0 6 6 6 6 0 8 c0 10 1 12
8 12 4 0 5 1 10 6 l6 6 0 8 c0 10 1 12 8 12 7 0 8 2 8 14 0 9 0 10 2 10 1 0 5
3 8 6 l6 6 -4 4 -4 4 4 4 c4 3 4 4 4 8 0 4 0 5 -4 8 l-4 3 0 9 c0 11 -1 12
-12 12 -10 0 -12 1 -12 8 0 7 -2 8 -12 8 l-8 0 -6 -6 c-4 -3 -6 -7 -6 -8 0 -2
-1 -2 -10 -2 -14 0 -14 0 -14 -12 0 -10 -1 -12 -8 -12 -6 0 -16 10 -16 16 0 7
-2 8 -14 8 l-10 0 0 6 c0 9 -1 10 -12 10 l-8 0 -8 -8z"/><path d="M74 390 c-1 -1 -2 -3 -2 -4 0 -1 -1 -2 -2 -2 -4 0 -6 -3 -6 -10 0 -6
0 -6 -2 -6 -5 0 -6 -3 -6 -12 0 -7 0 -9 2 -10 2 -2 2 -2 4 0 2 1 2 3 2 12 0
10 0 10 2 10 4 0 6 3 6 10 0 6 0 6 2 6 2 0 4 1 5 2 1 2 1 2 0 4 -3 2 -3 2 -5
0z"/><path d="M426 390 c-2 -2 -2 -2 0 -4 0 -1 2 -2 4 -2 2 0 2 0 2 -6 0 -7 2 -10
6 -10 2 0 2 0 2 -10 0 -9 0 -11 2 -12 2 -2 2 -2 4 0 2 1 2 3 2 10 0 9 -1 12
-6 12 -2 0 -2 0 -2 6 0 7 -2 10 -6 10 -1 0 -2 1 -2 2 0 2 -3 6 -4 6 0 0 -2 -1
-2 -2z"/><path d="M50 334 c-2 -1 -2 -5 -2 -26 0 -27 0 -28 6 -28 2 0 2 0 2 -10 0 -9 0
-11 2 -12 2 -2 2 -2 4 0 2 1 2 3 2 10 0 9 -1 12 -6 12 l-2 0 0 26 c0 25 0 27
-2 28 -2 2 -2 2 -4 0z"/><path d="M450 334 c-2 -1 -2 -5 -2 -28 l0 -26 -2 0 c-5 0 -6 -3 -6 -12 0 -7 0
-9 2 -10 2 -2 2 -2 4 0 2 1 2 3 2 12 0 9 0 10 2 10 1 0 5 2 8 6 l6 6 0 16 0
16 -6 6 c-7 7 -6 7 -8 4z"/><path d="M65 246 c-1 -2 -1 -2 1 -4 l2 -2 2 2 c2 2 2 2 1 4 -1 1 -3 2 -3 2 0
0 -2 -1 -3 -2z"/><path d="M433 246 c-1 -2 -1 -2 1 -4 l2 -2 2 2 c2 2 2 2 1 4 -1 1 -3 2 -3 2 0
0 -2 -1 -3 -2z"/><path d="M74 230 c-2 -2 -2 -2 0 -4 0 -1 2 -2 4 -2 1 0 2 -1 2 -2 0 -3 3 -6 6
-6 1 0 2 -1 2 -2 0 -2 1 -4 2 -5 2 -1 2 -1 4 1 2 2 2 2 1 4 -1 1 -3 2 -5 2 -1
0 -2 1 -2 2 0 3 -3 6 -6 6 -1 0 -2 1 -2 2 0 2 -3 6 -4 6 0 0 -2 -1 -2 -2z"/><path d="M426 230 c-1 -1 -2 -3 -2 -4 0 -1 -1 -2 -2 -2 -3 0 -6 -3 -6 -6 0 -1
-1 -2 -2 -2 -2 0 -4 -1 -5 -2 -1 -2 -1 -2 1 -4 2 -2 2 -2 4 -1 1 1 2 3 2 5 0
1 1 2 2 2 3 0 6 3 6 6 0 1 1 2 2 2 2 0 4 1 5 2 1 2 1 2 0 4 -3 2 -3 2 -5 0z"/><path d="M249 206 c-1 -2 -1 -2 1 -4 l2 -2 2 2 c2 2 2 2 1 4 -1 1 -3 2 -3 2 0
0 -2 -1 -3 -2z"/><path d="M97 198 c-1 -2 -1 -2 1 -4 l2 -2 2 2 c2 2 2 2 1 4 -1 1 -3 2 -3 2 0
0 -2 -1 -3 -2z"/><path d="M401 198 c-1 -2 -1 -2 1 -4 l2 -2 2 2 c2 2 2 2 1 4 -1 1 -3 2 -3 2 0
0 -2 -1 -3 -2z"/><path d="M386 190 c-1 -1 -2 -3 -2 -4 0 -1 -1 -2 -2 -2 -3 0 -6 -3 -6 -6 0 -1
-1 -2 -2 -2 -2 0 -4 -1 -5 -2 -1 -2 -1 -2 1 -4 2 -2 2 -2 4 -1 1 1 2 3 2 5 0
1 1 2 2 2 3 0 6 3 6 6 0 1 1 2 2 2 2 0 4 1 5 2 1 2 1 2 0 4 -3 2 -3 2 -5 0z"/><path d="M122 182 c-2 -2 -2 -2 0 -4 0 -1 2 -2 4 -2 1 0 2 -1 2 -2 0 -2 1 -4
2 -5 2 -1 2 -1 4 1 2 2 2 2 1 4 -1 1 -3 2 -5 2 -1 0 -2 1 -2 2 0 2 -3 6 -4 6
0 0 -2 -1 -2 -2z"/><path d="M145 166 c-1 -2 -1 -2 1 -4 l2 -2 2 2 c2 2 2 2 1 4 -1 1 -3 2 -3 2 0
0 -2 -1 -3 -2z"/><path d="M354 166 c-3 -3 -3 -10 0 -12 3 -3 6 0 6 6 0 7 -3 10 -6 6z"/><path d="M162 158 c-3 -3 -3 -10 0 -12 3 -3 6 0 6 6 0 7 -3 10 -6 6z"/><path d="M338 158 c-3 -3 -3 -10 0 -12 3 -3 6 0 6 6 0 7 -3 10 -6 6z"/><path d="M178 150 c-2 -2 -2 -2 10 -14 12 -11 12 -12 12 -16 0 -4 0 -5 8 -12
8 -7 8 -8 8 -12 0 -4 0 -5 4 -8 4 -3 4 -4 4 -8 0 -4 0 -5 4 -8 4 -3 4 -4 4 -8
0 -4 0 -5 8 -12 8 -7 8 -8 8 -12 0 -3 1 -5 2 -6 2 -2 2 -2 8 4 6 5 6 6 6 10 0
4 0 5 4 8 4 3 4 4 4 8 0 4 0 5 8 12 8 7 8 8 8 12 0 4 0 5 4 8 4 3 4 4 4 8 0 4
0 5 4 8 4 3 4 4 4 8 0 4 0 5 8 12 8 7 8 8 8 12 0 3 -1 5 -2 7 -2 1 -2 1 -6 -3
-3 -4 -4 -4 -8 -4 -7 0 -8 -2 -8 -12 l0 -8 -8 -8 c-8 -7 -8 -8 -8 -12 0 -4 0
-5 -4 -8 -4 -3 -4 -4 -4 -8 0 -4 0 -4 -10 -14 l-10 -10 -6 6 c-5 5 -6 6 -6 10
0 4 0 5 -8 12 -8 7 -8 8 -8 12 0 4 0 5 -4 8 l-4 3 0 9 0 8 -6 6 c-5 6 -6 6
-10 6 -4 0 -5 0 -8 4 -3 4 -4 4 -8 4 -3 0 -5 -1 -6 -2z"/></g>
  <g transform="scale(0.125 0.125) translate(0.000000,512.000000) scale(1.000000,-1.000000)" fill="#666666" stroke="none"><path d="M202 478 c-3 -3 0 -6 6 -6 3 0 5 1 7 2 2 3 -1 6 -7 6 -3 0 -5 -1 -6
-2z"/><path d="M282 478 c-2 -2 -2 -2 0 -4 1 -2 3 -2 10 -2 7 0 9 0 11 2 1 2 1 2 0
4 -2 2 -4 2 -11 2 -7 0 -9 0 -10 -2z"/><path d="M177 470 c-1 -2 -1 -2 1 -4 l2 -2 2 2 c2 2 2 2 1 4 -1 1 -3 2 -3 2 0
0 -2 -1 -3 -2z"/><path d="M322 470 c-3 -3 0 -6 6 -6 6 0 9 3 7 6 -2 1 -4 2 -7 2 -3 0 -5 -1 -6
-2z"/><path d="M153 462 c-1 -2 -1 -2 1 -4 l2 -2 2 2 c2 2 2 2 1 4 -1 1 -3 2 -3 2 0
0 -2 -1 -3 -2z"/><path d="M345 462 c-1 -2 -1 -2 1 -4 l2 -2 2 2 c2 2 2 2 1 4 -1 1 -3 2 -3 2 0
0 -2 -1 -3 -2z"/><path d="M138 454 c-1 -1 -2 -3 -2 -4 0 -1 -1 -2 -2 -2 -2 0 -4 -1 -5 -2 -1
-2 -1 -2 1 -4 2 -2 2 -2 4 -1 1 1 2 3 2 5 0 1 1 2 2 2 2 0 4 1 5 2 1 2 1 2 0
4 -3 2 -3 2 -5 0z"/><path d="M362 454 c-2 -2 -2 -2 0 -4 0 -1 2 -2 4 -2 1 0 2 -1 2 -2 0 -2 1 -4
2 -5 2 -1 2 -1 4 1 2 2 2 2 1 4 -1 1 -3 2 -5 2 -1 0 -2 1 -2 2 0 2 -3 6 -4 6
0 0 -2 -1 -2 -2z"/><path d="M114 438 c-1 -1 -2 -3 -2 -4 0 -1 -1 -2 -2 -2 -3 0 -6 -3 -6 -6 0 -1
-1 -2 -2 -2 -3 0 -6 -3 -6 -6 0 -1 -1 -2 -2 -2 -3 0 -6 -3 -6 -6 0 -1 -1 -2
-2 -2 -2 0 -4 -1 -5 -2 -1 -2 -1 -2 1 -4 2 -2 2 -2 4 -1 1 1 2 3 2 5 0 1 1 2
2 2 3 0 6 3 6 6 0 1 1 2 2 2 3 0 6 3 6 6 0 1 1 2 2 2 3 0 6 3 6 6 0 1 1 2 2 2
2 0 4 1 5 2 1 2 1 2 0 4 -3 2 -3 2 -5 0z"/><path d="M386 438 c-2 -2 -2 -2 0 -4 0 -1 2 -2 4 -2 1 0 2 -1 2 -2 0 -3 3 -6
6 -6 1 0 2 -1 2 -2 0 -3 3 -6 6 -6 1 0 2 -1 2 -2 0 -3 3 -6 6 -6 1 0 2 -1 2
-2 0 -2 1 -4 2 -5 2 -1 2 -1 4 1 2 2 2 2 1 4 -1 1 -3 2 -5 2 -1 0 -2 1 -2 2 0
3 -3 6 -6 6 -1 0 -2 1 -2 2 0 3 -3 6 -6 6 -1 0 -2 1 -2 2 0 3 -3 6 -6 6 -1 0
-2 1 -2 2 0 2 -3 6 -4 6 0 0 -2 -1 -2 -2z"/><path d="M194 422 c-2 -2 -2 -2 0 -4 1 -2 3 -2 10 -2 7 0 9 0 11 2 1 2 1 2 0
4 -2 2 -4 2 -11 2 -7 0 -9 0 -10 -2z"/><path d="M298 422 c-2 -2 -2 -2 0 -4 1 -2 3 -2 10 -2 7 0 9 0 11 2 1 2 1 2 0
4 -2 2 -4 2 -11 2 -7 0 -9 0 -10 -2z"/><path d="M170 406 c-1 -1 -2 -3 -2 -4 0 -1 -1 -2 -2 -2 -3 0 -6 -3 -6 -6 0 -1
-1 -2 -2 -2 -4 0 -6 -3 -6 -8 0 -5 2 -8 6 -8 2 0 2 -1 2 -4 0 -4 0 -4 -2 -4
-6 0 -8 -10 -4 -14 3 -4 6 0 6 8 0 6 0 6 2 6 4 0 6 -3 6 -8 0 -6 3 -9 6 -6 2
1 2 3 2 18 0 18 -1 20 -6 20 -2 0 -2 1 -2 4 0 4 0 4 2 4 2 0 4 1 5 2 1 2 1 2
0 4 -3 2 -3 2 -5 0z m-2 -20 c0 -7 -2 -10 -6 -10 -2 0 -2 0 -2 8 l0 8 4 0 4 0
0 -6z"/><path d="M233 406 c-1 -2 -1 -2 1 -4 l2 -2 2 2 c2 2 2 2 1 4 -1 1 -3 2 -3 2 0
0 -2 -1 -3 -2z"/><path d="M266 406 c-3 -3 -3 -34 0 -36 3 -3 6 0 6 6 0 4 0 5 8 12 l8 8 -6 6
c-5 6 -6 6 -10 6 -3 0 -5 -1 -6 -2z"/><path d="M313 406 c-1 -2 -1 -2 1 -4 l2 -2 2 2 c2 2 2 2 1 4 -1 1 -3 2 -3 2 0
0 -2 -1 -3 -2z"/><path d="M337 406 c-1 -2 -1 -2 1 -4 l2 -2 2 2 c2 2 2 2 1 4 -1 1 -3 2 -3 2 0
0 -2 -1 -3 -2z"/><path d="M185 398 c-1 -2 -1 -2 1 -4 l2 -2 2 2 c2 2 2 2 1 4 -1 1 -3 2 -3 2 0
0 -2 -1 -3 -2z"/><path d="M217 398 c-1 -2 -1 -2 1 -4 l2 -2 2 2 c2 2 2 2 1 4 -1 1 -3 2 -3 2 0
0 -2 -1 -3 -2z"/><path d="M74 390 c-1 -1 -2 -3 -2 -4 0 -1 -1 -2 -2 -2 -4 0 -6 -3 -6 -10 0 -6
0 -6 -2 -6 -5 0 -6 -3 -6 -12 0 -7 0 -9 2 -10 2 -2 2 -2 4 0 2 1 2 3 2 12 0
10 0 10 2 10 4 0 6 3 6 10 0 6 0 6 2 6 2 0 4 1 5 2 1 2 1 2 0 4 -3 2 -3 2 -5
0z"/><path d="M234 390 c-3 -3 -3 -18 0 -20 4 -4 14 -2 14 4 0 1 1 2 2 2 2 0 4 1 5
2 1 2 1 2 0 4 -1 1 -3 2 -5 2 -1 0 -2 1 -2 2 0 6 -10 8 -14 4z m14 -10 c0 -5
-3 -6 -6 -2 -2 2 -2 2 0 4 3 4 6 3 6 -2z"/><path d="M426 390 c-2 -2 -2 -2 0 -4 0 -1 2 -2 4 -2 2 0 2 0 2 -6 0 -7 2 -10
6 -10 2 0 2 0 2 -10 0 -9 0 -11 2 -12 2 -2 2 -2 4 0 2 1 2 3 2 10 0 9 -1 12
-6 12 -2 0 -2 0 -2 6 0 7 -2 10 -6 10 -1 0 -2 1 -2 2 0 2 -3 6 -4 6 0 0 -2 -1
-2 -2z"/><path d="M329 382 c-1 -2 -1 -2 3 -6 4 -3 4 -4 4 -10 0 -6 0 -6 -2 -6 -2 0 -4
-1 -5 -2 -1 -2 -1 -2 1 -4 2 -2 2 -2 4 -1 1 1 2 3 2 5 0 2 0 2 4 2 4 0 4 0 4
-2 0 -2 1 -4 2 -5 2 -1 2 -1 4 1 2 2 2 2 1 4 -1 1 -3 2 -5 2 -4 0 -3 4 2 8 4
3 4 4 4 8 0 7 -2 8 -12 8 -8 0 -9 0 -11 -2z"/><path d="M249 358 c-1 -2 -1 -2 1 -4 l2 -2 2 2 c2 2 2 2 1 4 -1 1 -3 2 -3 2 0
0 -2 -1 -3 -2z"/><path d="M162 342 c-2 -2 -2 -2 0 -4 0 -1 2 -2 4 -2 2 0 2 0 2 -6 0 -5 0 -7 2
-8 3 -4 6 0 6 8 0 6 0 6 2 6 2 0 4 1 5 2 1 2 1 2 -1 4 -2 2 -2 2 -4 1 -1 -1
-2 -3 -2 -5 0 -2 0 -2 -4 -2 -4 0 -4 0 -4 2 0 2 -3 6 -4 6 0 0 -2 -1 -2 -2z"/><path d="M321 342 c-1 -2 -1 -2 1 -4 l2 -2 2 2 c2 2 2 2 1 4 -1 1 -3 2 -3 2 0
0 -2 -1 -3 -2z"/><path d="M50 334 c-2 -1 -2 -5 -2 -26 0 -27 0 -28 6 -28 2 0 2 0 2 -10 0 -9 0
-11 2 -12 2 -2 2 -2 4 0 2 1 2 3 2 10 0 9 -1 12 -6 12 l-2 0 0 26 c0 25 0 27
-2 28 -2 2 -2 2 -4 0z"/><path d="M450 334 c-2 -1 -2 -5 -2 -28 l0 -26 -2 0 c-5 0 -6 -3 -6 -12 0 -7 0
-9 2 -10 2 -2 2 -2 4 0 2 1 2 3 2 12 0 10 0 10 2 10 6 0 6 2 6 28 0 23 0 25
-2 26 -2 2 -2 2 -4 0z"/><path d="M186 326 c-2 -2 -2 -2 0 -4 0 -1 2 -2 4 -2 2 0 2 0 2 -4 0 -4 0 -4
-2 -4 -2 0 -4 -1 -5 -2 -1 -2 -1 -2 1 -4 2 -2 2 -2 4 -1 1 1 2 3 2 5 0 1 1 2
2 2 2 0 4 1 5 2 1 2 1 2 0 4 -1 1 -3 2 -5 2 -1 0 -2 1 -2 2 0 2 -3 6 -4 6 0 0
-2 -1 -2 -2z"/><path d="M314 326 c-3 -3 -3 -10 0 -13 2 -1 2 -1 6 3 3 4 4 4 8 4 6 0 9 3 7 6
-3 3 -19 3 -21 0z"/><path d="M294 298 l-6 -6 0 -14 0 -14 -4 0 c-4 0 -4 0 -4 2 0 2 -1 4 -2 5 -2
1 -2 1 -4 0 -1 -1 -2 -3 -2 -5 0 -1 -1 -2 -2 -2 -2 0 -4 -1 -5 -2 -1 -2 -1 -2
1 -4 2 -2 2 -2 4 -1 1 1 2 3 2 5 0 2 0 2 4 2 4 0 4 0 4 -2 0 -2 1 -4 2 -4 2
-2 2 -2 4 0 1 0 2 2 2 4 0 1 1 2 2 2 5 0 6 3 6 12 0 10 1 12 8 12 5 0 8 2 8 6
0 1 1 2 2 2 2 0 4 1 5 2 1 2 1 2 -1 4 -2 2 -2 2 -4 1 -1 -1 -2 -3 -2 -5 0 -4
-4 -3 -8 2 -2 2 -3 4 -4 4 0 0 -3 -3 -6 -6z"/><path d="M193 294 c-1 -2 -1 -2 1 -4 l2 -2 2 2 c2 2 2 2 1 4 -1 1 -3 2 -3 2 0
0 -2 -1 -3 -2z"/><path d="M210 294 c-2 -2 -2 -2 0 -4 0 -1 2 -2 4 -2 l2 0 0 -14 c0 -16 1 -18
6 -18 1 0 2 -1 2 -2 0 -2 1 -4 4 -6 4 -3 4 -4 4 -8 0 -5 2 -8 6 -8 2 0 2 0 2
-6 0 -5 0 -7 2 -8 3 -4 6 0 6 8 0 6 0 6 2 6 3 0 6 3 6 6 0 2 1 2 4 2 4 0 4 0
4 -2 0 -2 1 -4 2 -5 2 -1 2 -1 4 1 2 2 2 2 1 4 -1 1 -3 2 -5 2 -1 0 -2 1 -2 2
0 2 -1 4 -2 5 -2 1 -2 1 -4 0 -1 -1 -2 -3 -2 -5 0 -1 -1 -2 -2 -2 -3 0 -6 -3
-6 -6 0 -2 -1 -2 -4 -2 l-4 0 0 14 c0 14 0 15 -2 17 -2 1 -2 1 -6 -3 -2 -2 -4
-4 -6 -4 -2 0 -2 0 -2 14 0 16 -1 18 -6 18 -1 0 -2 1 -2 2 0 2 -3 6 -4 6 0 0
-2 -1 -2 -2z"/><path d="M65 246 c-1 -2 -1 -2 1 -4 l2 -2 2 2 c2 2 2 2 1 4 -1 1 -3 2 -3 2 0
0 -2 -1 -3 -2z"/><path d="M433 246 c-1 -2 -1 -2 1 -4 l2 -2 2 2 c2 2 2 2 1 4 -1 1 -3 2 -3 2 0
0 -2 -1 -3 -2z"/><path d="M74 230 c-2 -2 -2 -2 0 -4 0 -1 2 -2 4 -2 1 0 2 -1 2 -2 0 -3 3 -6 6
-6 1 0 2 -1 2 -2 0 -2 1 -4 2 -5 2 -1 2 -1 4 1 2 2 2 2 1 4 -1 1 -3 2 -5 2 -1
0 -2 1 -2 2 0 3 -3 6 -6 6 -1 0 -2 1 -2 2 0 2 -3 6 -4 6 0 0 -2 -1 -2 -2z"/><path d="M426 230 c-1 -1 -2 -3 -2 -4 0 -1 -1 -2 -2 -2 -3 0 -6 -3 -6 -6 0 -1
-1 -2 -2 -2 -2 0 -4 -1 -5 -2 -1 -2 -1 -2 1 -4 2 -2 2 -2 4 -1 1 1 2 3 2 5 0
1 1 2 2 2 3 0 6 3 6 6 0 1 1 2 2 2 2 0 4 1 5 2 1 2 1 2 0 4 -3 2 -3 2 -5 0z"/><path d="M249 206 c-1 -2 -1 -2 1 -4 l2 -2 2 2 c2 2 2 2 1 4 -1 1 -3 2 -3 2 0
0 -2 -1 -3 -2z"/><path d="M97 198 c-1 -2 -1 -2 1 -4 l2 -2 2 2 c2 2 2 2 1 4 -1 1 -3 2 -3 2 0
0 -2 -1 -3 -2z"/><path d="M401 198 c-1 -2 -1 -2 1 -4 l2 -2 2 2 c2 2 2 2 1 4 -1 1 -3 2 -3 2 0
0 -2 -1 -3 -2z"/><path d="M386 190 c-1 -1 -2 -3 -2 -4 0 -1 -1 -2 -2 -2 -3 0 -6 -3 -6 -6 0 -1
-1 -2 -2 -2 -2 0 -4 -1 -5 -2 -1 -2 -1 -2 1 -4 2 -2 2 -2 4 -1 1 1 2 3 2 5 0
1 1 2 2 2 3 0 6 3 6 6 0 1 1 2 2 2 2 0 4 1 5 2 1 2 1 2 0 4 -3 2 -3 2 -5 0z"/><path d="M122 182 c-2 -2 -2 -2 0 -4 0 -1 2 -2 4 -2 1 0 2 -1 2 -2 0 -2 1 -4
2 -5 2 -1 2 -1 4 1 2 2 2 2 1 4 -1 1 -3 2 -5 2 -1 0 -2 1 -2 2 0 2 -3 6 -4 6
0 0 -2 -1 -2 -2z"/><path d="M145 166 c-1 -2 -1 -2 1 -4 l2 -2 2 2 c2 2 2 2 1 4 -1 1 -3 2 -3 2 0
0 -2 -1 -3 -2z"/><path d="M354 166 c-3 -3 -3 -10 0 -12 3 -3 6 0 6 6 0 7 -3 10 -6 6z"/><path d="M162 158 c-3 -3 -3 -10 0 -12 3 -3 6 0 6 6 0 7 -3 10 -6 6z"/><path d="M338 158 c-3 -3 -3 -10 0 -12 3 -3 6 0 6 6 0 7 -3 10 -6 6z"/><path d="M178 150 c-2 -2 -2 -2 8 -12 9 -10 10 -10 14 -10 4 0 5 0 8 -4 4 -4
4 -4 6 -3 4 4 3 10 -4 17 -5 6 -6 6 -10 6 -4 0 -5 0 -8 4 -3 4 -4 4 -8 4 -3 0
-5 -1 -6 -2z"/><path d="M312 148 c-3 -4 -4 -4 -8 -4 -6 0 -8 -2 -8 -8 0 -6 2 -8 8 -8 6 0 16
10 16 16 0 3 -1 5 -2 6 -2 3 -2 3 -6 -2z"/><path d="M290 118 c-1 -1 -2 -3 -2 -4 0 -1 -1 -2 -2 -2 -4 0 -6 -3 -6 -10 0
-6 0 -6 -2 -6 -4 0 -6 -3 -6 -10 0 -6 0 -6 -2 -6 -3 0 -6 -3 -6 -6 0 -1 -1 -2
-2 -2 -2 0 -4 -1 -6 -4 -4 -5 -8 -6 -8 -2 0 2 -1 4 -2 5 -2 1 -2 1 -4 -1 -2
-2 -2 -2 -1 -4 1 -1 3 -2 5 -2 2 0 2 0 2 -6 0 -5 0 -7 2 -8 2 -2 2 -2 8 4 l6
6 0 6 c0 6 0 6 2 6 3 0 6 3 6 6 0 1 1 2 2 2 4 0 6 3 6 10 0 6 0 6 2 6 4 0 6 3
6 10 0 6 0 6 2 6 2 0 4 1 5 2 1 2 1 2 0 4 -3 2 -3 2 -5 0z"/><path d="M217 110 c-1 -2 -1 -2 1 -4 l2 -2 2 2 c2 2 2 2 1 4 -1 1 -3 2 -3 2 0
0 -2 -1 -3 -2z"/><path d="M226 94 c-2 -2 -2 -2 0 -4 0 -1 2 -2 4 -2 1 0 2 -1 2 -2 0 -2 1 -4 2
-5 2 -1 2 -1 4 1 2 2 2 2 1 4 -1 1 -3 2 -5 2 -1 0 -2 1 -2 2 0 2 -3 6 -4 6 0
0 -2 -1 -2 -2z"/></g>
  <g transform="scale(0.125 0.125) translate(0.000000,512.000000) scale(1.000000,-1.000000)" fill="#8e888b" stroke="none"><path d="M209 478 c-1 -2 -1 -2 1 -4 l2 -2 2 2 c2 2 2 2 1 4 -1 1 -3 2 -3 2 0
0 -2 -1 -3 -2z"/><path d="M282 478 c-3 -3 0 -6 6 -6 6 0 9 3 7 6 -2 1 -4 2 -7 2 -3 0 -5 -1 -6
-2z"/><path d="M177 470 c-1 -2 -1 -2 1 -4 l2 -2 2 2 c2 2 2 2 1 4 -1 1 -3 2 -3 2 0
0 -2 -1 -3 -2z"/><path d="M321 470 c-1 -2 -1 -2 1 -4 l2 -2 2 2 c2 2 2 2 1 4 -1 1 -3 2 -3 2 0
0 -2 -1 -3 -2z"/><path d="M129 446 c-1 -2 -1 -2 1 -4 l2 -2 2 2 c2 2 2 2 1 4 -1 1 -3 2 -3 2 0
0 -2 -1 -3 -2z"/><path d="M369 446 c-1 -2 -1 -2 1 -4 l2 -2 2 2 c2 2 2 2 1 4 -1 1 -3 2 -3 2 0
0 -2 -1 -3 -2z"/><path d="M105 430 c-1 -2 -1 -2 1 -4 l2 -2 2 2 c2 2 2 2 1 4 -1 1 -3 2 -3 2 0
0 -2 -1 -3 -2z"/><path d="M394 430 c-2 -2 -2 -2 0 -4 0 -1 2 -2 4 -2 1 0 2 -1 2 -2 0 -2 1 -4
2 -5 2 -1 2 -1 4 1 2 2 2 2 1 4 -1 1 -3 2 -5 2 -1 0 -2 1 -2 2 0 2 -3 6 -4 6
0 0 -2 -1 -2 -2z"/><path d="M209 422 c-1 -2 -1 -2 1 -4 l2 -2 2 2 c2 2 2 2 1 4 -1 1 -3 2 -3 2 0
0 -2 -1 -3 -2z"/><path d="M313 422 c-1 -2 -1 -2 1 -4 l2 -2 2 2 c2 2 2 2 1 4 -1 1 -3 2 -3 2 0
0 -2 -1 -3 -2z"/><path d="M170 406 c-1 -1 -2 -3 -2 -4 0 -1 -1 -2 -2 -2 -3 0 -6 -3 -6 -6 0 -1
-1 -2 -2 -2 -2 0 -4 -1 -5 -2 -1 -2 -1 -2 1 -4 2 -2 2 -2 4 -1 1 1 2 3 2 5 0
2 0 2 4 2 l4 0 0 -6 c0 -6 0 -7 -4 -10 l-4 -4 4 -4 c4 -3 4 -4 4 -8 0 -6 3 -9
6 -6 2 1 2 3 2 18 0 18 -1 20 -6 20 -2 0 -2 1 -2 4 0 4 0 4 2 4 2 0 4 1 5 2 1
2 1 2 0 4 -3 2 -3 2 -5 0z"/><path d="M266 406 c-3 -3 -3 -34 0 -36 3 -3 6 0 6 6 0 4 0 5 8 12 l8 8 -6 6
c-5 6 -6 6 -10 6 -3 0 -5 -1 -6 -2z"/><path d="M313 406 c-1 -2 -1 -2 1 -4 l2 -2 2 2 c2 2 2 2 1 4 -1 1 -3 2 -3 2 0
0 -2 -1 -3 -2z"/><path d="M337 406 c-1 -2 -1 -2 1 -4 l2 -2 2 2 c2 2 2 2 1 4 -1 1 -3 2 -3 2 0
0 -2 -1 -3 -2z"/><path d="M185 398 c-1 -2 -1 -2 1 -4 l2 -2 2 2 c2 2 2 2 1 4 -1 1 -3 2 -3 2 0
0 -2 -1 -3 -2z"/><path d="M217 398 c-1 -2 -1 -2 1 -4 l2 -2 2 2 c2 2 2 2 1 4 -1 1 -3 2 -3 2 0
0 -2 -1 -3 -2z"/><path d="M73 390 c-1 -2 -1 -2 1 -4 l2 -2 2 2 c2 2 2 2 1 4 -1 1 -3 2 -3 2 0
0 -2 -1 -3 -2z"/><path d="M234 390 c-3 -3 -3 -18 0 -20 3 -3 10 -3 13 0 1 2 1 2 -3 6 l-4 4 4
4 c4 4 4 4 3 6 -3 3 -11 3 -13 0z"/><path d="M425 390 c-1 -2 -1 -2 1 -4 l2 -2 2 2 c2 2 2 2 1 4 -1 1 -3 2 -3 2 0
0 -2 -1 -3 -2z"/><path d="M329 382 c-1 -2 -1 -2 3 -6 4 -3 4 -4 4 -10 0 -6 0 -6 -2 -6 -2 0 -4
-1 -5 -2 -1 -2 -1 -2 1 -4 2 -2 2 -2 4 -1 1 1 2 3 2 5 0 1 1 2 2 2 1 0 5 2 8
6 6 5 6 6 6 10 0 7 -2 8 -12 8 -8 0 -9 0 -11 -2z"/><path d="M65 374 c-1 -2 -1 -2 1 -4 l2 -2 2 2 c2 2 2 2 1 4 -1 1 -3 2 -3 2 0
0 -2 -1 -3 -2z"/><path d="M433 374 c-1 -2 -1 -2 1 -4 l2 -2 2 2 c2 2 2 2 1 4 -1 1 -3 2 -3 2 0
0 -2 -1 -3 -2z"/><path d="M153 358 c-1 -2 -1 -2 1 -4 l2 -2 2 2 c2 2 2 2 1 4 -1 1 -3 2 -3 2 0
0 -2 -1 -3 -2z"/><path d="M249 358 c-1 -2 -1 -2 1 -4 l2 -2 2 2 c2 2 2 2 1 4 -1 1 -3 2 -3 2 0
0 -2 -1 -3 -2z"/><path d="M442 358 c-3 -3 -3 -10 0 -12 3 -3 6 0 6 6 0 7 -3 10 -6 6z"/><path d="M57 350 c-1 -2 -1 -2 1 -4 l2 -2 2 2 c2 2 2 2 1 4 -1 1 -3 2 -3 2 0
0 -2 -1 -3 -2z"/><path d="M178 342 c-1 -1 -2 -3 -2 -4 0 -1 -1 -2 -2 -2 -6 0 -8 -10 -4 -14 3
-4 6 0 6 8 0 6 0 6 2 6 2 0 4 1 5 2 1 2 1 2 0 4 -3 2 -3 2 -5 0z"/><path d="M321 342 c-1 -2 -1 -2 1 -4 l2 -2 2 2 c2 2 2 2 1 4 -1 1 -3 2 -3 2 0
0 -2 -1 -3 -2z"/><path d="M186 326 c-2 -2 -2 -2 0 -4 0 -1 2 -2 4 -2 2 0 2 0 2 -4 0 -4 0 -4
-2 -4 -2 0 -4 -1 -5 -2 -1 -2 -1 -2 1 -4 2 -2 2 -2 4 -1 1 1 2 3 2 5 0 1 1 2
2 2 2 0 4 1 5 2 1 2 1 2 0 4 -1 1 -3 2 -5 2 -1 0 -2 1 -2 2 0 2 -3 6 -4 6 0 0
-2 -1 -2 -2z"/><path d="M314 326 c-3 -2 -3 -10 0 -12 2 -2 2 -2 8 4 6 6 6 6 4 8 -2 3 -10 3
-12 0z"/><path d="M449 310 c-1 -2 -1 -2 1 -4 l2 -2 2 2 c2 2 2 2 1 4 -1 1 -3 2 -3 2 0
0 -2 -1 -3 -2z"/><path d="M294 298 l-6 -6 0 -12 c0 -11 0 -13 2 -14 2 -2 2 -2 4 0 2 1 2 3 2
10 l0 9 4 3 c4 3 4 4 4 8 0 3 -1 5 -2 6 -2 2 -2 3 -8 -4z"/><path d="M313 302 c-1 -2 -1 -2 1 -4 l2 -2 2 2 c2 2 2 2 1 4 -1 1 -3 2 -3 2 0
0 -2 -1 -3 -2z"/><path d="M193 294 c-1 -2 -1 -2 1 -4 l2 -2 2 2 c2 2 2 2 1 4 -1 1 -3 2 -3 2 0
0 -2 -1 -3 -2z"/><path d="M210 294 c-2 -2 -2 -2 0 -4 0 -1 2 -2 4 -2 l2 0 0 -14 c0 -13 0 -15
2 -16 2 -2 2 -2 4 0 2 1 2 3 2 14 0 14 -1 16 -6 16 -1 0 -2 1 -2 2 0 2 -3 6
-4 6 0 0 -2 -1 -2 -2z"/><path d="M58 278 c-3 -3 -3 -10 0 -12 3 -3 6 0 6 6 0 7 -3 10 -6 6z"/><path d="M442 278 c-3 -3 -3 -10 0 -12 3 -3 6 0 6 6 0 7 -3 10 -6 6z"/><path d="M274 270 c-1 -1 -2 -3 -2 -4 0 -1 -1 -2 -2 -2 -2 0 -4 -1 -5 -2 -1
-2 -1 -2 1 -4 2 -2 2 -2 4 -1 1 1 2 3 2 5 0 1 1 2 2 2 2 0 4 1 5 2 1 2 1 2 0
4 -3 2 -3 2 -5 0z"/><path d="M234 262 c-2 -1 -2 -4 -2 -14 0 -14 1 -16 6 -16 2 0 2 0 2 -6 0 -8 3
-12 6 -8 2 1 2 3 2 8 0 6 0 6 2 6 3 0 6 3 6 6 0 1 1 2 2 2 2 0 4 1 5 2 1 2 1
2 -1 4 -2 2 -2 2 -4 1 -1 -1 -2 -3 -2 -5 0 -1 -1 -2 -2 -2 -3 0 -6 -3 -6 -6 0
-2 -1 -2 -4 -2 l-4 0 0 14 c0 13 0 15 -2 16 -2 2 -2 2 -4 0z"/><path d="M82 222 c-2 -2 -2 -2 0 -4 0 -1 2 -2 4 -2 1 0 2 -1 2 -2 0 -2 1 -4 2
-5 2 -1 2 -1 4 1 2 2 2 2 1 4 -1 1 -3 2 -5 2 -1 0 -2 1 -2 2 0 2 -3 6 -4 6 0
0 -2 -1 -2 -2z"/><path d="M418 222 c-1 -1 -2 -3 -2 -4 0 -1 -1 -2 -2 -2 -2 0 -4 -1 -5 -2 -1
-2 -1 -2 1 -4 2 -2 2 -2 4 -1 1 1 2 3 2 5 0 1 1 2 2 2 2 0 4 1 5 2 1 2 1 2 0
4 -3 2 -3 2 -5 0z"/><path d="M249 206 c-1 -2 -1 -2 1 -4 l2 -2 2 2 c2 2 2 2 1 4 -1 1 -3 2 -3 2 0
0 -2 -1 -3 -2z"/><path d="M386 190 c-1 -1 -2 -3 -2 -4 0 -1 -1 -2 -2 -2 -2 0 -4 -1 -5 -2 -1
-2 -1 -2 1 -4 2 -2 2 -2 4 -1 1 1 2 3 2 5 0 1 1 2 2 2 2 0 4 1 5 2 1 2 1 2 0
4 -3 2 -3 2 -5 0z"/><path d="M121 182 c-1 -2 -1 -2 1 -4 l2 -2 2 2 c2 2 2 2 1 4 -1 1 -3 2 -3 2 0
0 -2 -1 -3 -2z"/><path d="M145 166 c-1 -2 -1 -2 1 -4 l2 -2 2 2 c2 2 2 2 1 4 -1 1 -3 2 -3 2 0
0 -2 -1 -3 -2z"/><path d="M354 166 c-3 -3 -3 -10 0 -12 3 -3 6 0 6 6 0 7 -3 10 -6 6z"/><path d="M161 150 c-1 -2 -1 -2 1 -4 l2 -2 2 2 c2 2 2 2 1 4 -1 1 -3 2 -3 2 0
0 -2 -1 -3 -2z"/><path d="M186 150 c-1 -1 -2 -3 -2 -6 0 -6 10 -16 16 -16 4 0 5 0 8 -4 4 -4 4
-4 6 -3 1 2 2 4 2 7 0 6 -2 8 -8 8 -4 0 -5 0 -12 8 -9 9 -8 9 -10 6z"/><path d="M312 148 c-3 -4 -4 -4 -8 -4 -6 0 -8 -2 -8 -8 0 -6 2 -8 8 -8 6 0 16
10 16 16 0 3 -1 5 -2 6 -2 3 -2 3 -6 -2z"/><path d="M337 150 c-1 -2 -1 -2 1 -4 l2 -2 2 2 c2 2 2 2 1 4 -1 1 -3 2 -3 2 0
0 -2 -1 -3 -2z"/><path d="M281 110 c-1 -2 -1 -2 1 -4 l2 -2 2 2 c2 2 2 2 1 4 -1 1 -3 2 -3 2 0
0 -2 -1 -3 -2z"/><path d="M274 94 c-3 -3 -3 -10 0 -12 3 -3 6 0 6 6 0 7 -3 10 -6 6z"/><path d="M233 86 c-1 -2 -1 -2 1 -4 l2 -2 2 2 c2 2 2 2 1 4 -1 1 -3 2 -3 2 0
0 -2 -1 -3 -2z"/><path d="M241 70 c-1 -2 -1 -2 1 -4 l2 -2 2 2 c2 2 2 2 1 4 -1 1 -3 2 -3 2 0
0 -2 -1 -3 -2z"/><path d="M257 70 c-1 -2 -1 -2 1 -4 l2 -2 2 2 c2 2 2 2 1 4 -1 1 -3 2 -3 2 0
0 -2 -1 -3 -2z"/><path d="M249 54 c-1 -2 -1 -2 1 -4 l2 -2 2 2 c2 2 2 2 1 4 -1 1 -3 2 -3 2 0
0 -2 -1 -3 -2z"/></g>
  <g transform="scale(0.125 0.125) translate(0.000000,512.000000) scale(1.000000,-1.000000)" fill="#0e0b0d" stroke="none"><path d="M170 406 c-1 -1 -2 -3 -2 -4 0 -1 -1 -2 -2 -2 -2 0 -4 -1 -4 -2 -2
-2 -2 -2 0 -4 0 -1 2 -2 4 -2 2 0 2 0 2 -6 0 -6 0 -7 -4 -10 l-4 -4 4 -4 c4
-3 4 -4 4 -8 0 -6 3 -9 6 -6 2 1 2 3 2 18 0 18 -1 20 -6 20 -2 0 -2 1 -2 4 0
4 0 4 2 4 2 0 4 1 5 2 1 2 1 2 0 4 -3 2 -3 2 -5 0z"/><path d="M270 402 l-6 -6 0 -12 c0 -11 0 -13 2 -14 3 -3 6 0 6 6 0 4 0 5 8 12
l8 8 -6 6 c-3 3 -6 6 -6 6 0 0 -3 -3 -6 -6z"/><path d="M313 406 c-1 -2 -1 -2 1 -4 l2 -2 2 2 c2 2 2 2 1 4 -1 1 -3 2 -3 2 0
0 -2 -1 -3 -2z"/><path d="M185 398 c-1 -2 -1 -2 1 -4 l2 -2 2 2 c2 2 2 2 1 4 -1 1 -3 2 -3 2 0
0 -2 -1 -3 -2z"/><path d="M217 398 c-1 -2 -1 -2 1 -4 l2 -2 2 2 c2 2 2 2 1 4 -1 1 -3 2 -3 2 0
0 -2 -1 -3 -2z"/><path d="M234 390 c-3 -3 -3 -18 0 -20 3 -3 10 -3 13 0 1 2 1 2 -3 6 l-4 4 4
4 c4 4 4 4 3 6 -3 3 -11 3 -13 0z"/><path d="M329 382 c-1 -2 -1 -2 3 -6 4 -3 4 -4 4 -10 0 -6 0 -6 -2 -6 -2 0 -4
-1 -5 -2 -1 -2 -1 -2 1 -4 2 -2 2 -2 4 -1 1 1 2 3 2 5 0 1 1 2 2 2 1 0 5 2 8
6 6 5 6 6 6 10 0 7 -2 8 -12 8 -8 0 -9 0 -11 -2z"/><path d="M249 358 c-1 -2 -1 -2 1 -4 l2 -2 2 2 c2 2 2 2 1 4 -1 1 -3 2 -3 2 0
0 -2 -1 -3 -2z"/><path d="M178 342 c-1 -1 -2 -3 -2 -4 0 -1 -1 -2 -2 -2 -2 0 -4 -1 -5 -2 -1
-2 -1 -2 1 -4 2 -2 2 -2 4 -1 1 1 2 3 2 5 0 1 1 2 2 2 2 0 4 1 5 2 1 2 1 2 0
4 -3 2 -3 2 -5 0z"/><path d="M321 342 c-1 -2 -1 -2 1 -4 l2 -2 2 2 c2 2 2 2 1 4 -1 1 -3 2 -3 2 0
0 -2 -1 -3 -2z"/><path d="M186 326 c-2 -2 -2 -2 0 -4 0 -1 2 -2 4 -2 2 0 2 0 2 -4 0 -4 0 -4
-2 -4 -2 0 -4 -1 -5 -2 -1 -2 -1 -2 1 -4 2 -2 2 -2 4 -1 1 1 2 3 2 5 0 1 1 2
2 2 2 0 4 1 5 2 1 2 1 2 0 4 -1 1 -3 2 -5 2 -1 0 -2 1 -2 2 0 2 -3 6 -4 6 0 0
-2 -1 -2 -2z"/><path d="M314 326 c-3 -2 -3 -10 0 -12 2 -2 2 -2 8 4 6 6 6 6 4 8 -2 3 -10 3
-12 0z"/><path d="M294 298 l-6 -6 0 -8 c0 -7 0 -9 2 -10 3 -3 6 0 6 6 0 4 0 5 4 8 4 3
4 4 4 8 0 3 -1 5 -2 6 -2 2 -2 3 -8 -4z"/><path d="M210 294 c-2 -2 -2 -2 0 -4 0 -1 2 -2 4 -2 2 0 2 0 2 -10 0 -9 0 -11
2 -12 2 -2 2 -2 4 0 2 1 2 3 2 10 0 9 -1 12 -6 12 -1 0 -2 1 -2 2 0 2 -3 6 -4
6 0 0 -2 -1 -2 -2z"/><path d="M274 270 c-1 -1 -2 -3 -2 -4 0 -1 -1 -2 -2 -2 -2 0 -4 -1 -5 -2 -1
-2 -1 -2 1 -4 2 -2 2 -2 4 -1 1 1 2 3 2 5 0 1 1 2 2 2 2 0 4 1 5 2 1 2 1 2 0
4 -3 2 -3 2 -5 0z"/><path d="M234 262 c-3 -3 -3 -18 0 -20 2 -2 2 -2 4 0 3 2 3 18 0 20 -2 2 -2 2
-4 0z"/><path d="M258 246 c-1 -1 -2 -3 -2 -4 0 -1 -1 -2 -2 -2 -3 0 -6 -3 -6 -6 0 -1
-1 -2 -2 -2 -2 0 -4 -1 -5 -2 -1 -2 -1 -2 1 -4 2 -2 2 -2 4 -1 1 1 2 3 2 5 0
1 1 2 2 2 3 0 6 3 6 6 0 1 1 2 2 2 2 0 4 1 5 2 1 2 1 2 0 4 -3 2 -3 2 -5 0z"/><path d="M353 158 c-1 -2 -1 -2 1 -4 l2 -2 2 2 c2 2 2 2 1 4 -1 1 -3 2 -3 2 0
0 -2 -1 -3 -2z"/><path d="M161 150 c-1 -2 -1 -2 1 -4 l2 -2 2 2 c2 2 2 2 1 4 -1 1 -3 2 -3 2 0
0 -2 -1 -3 -2z"/><path d="M337 150 c-1 -2 -1 -2 1 -4 l2 -2 2 2 c2 2 2 2 1 4 -1 1 -3 2 -3 2 0
0 -2 -1 -3 -2z"/><path d="M186 142 c-2 -2 -2 -2 4 -8 5 -6 6 -6 10 -6 3 0 5 1 6 2 2 2 2 2 -4
8 -5 6 -6 6 -10 6 -3 0 -5 -1 -6 -2z"/><path d="M306 142 c-3 -2 -3 -10 0 -12 2 -2 2 -2 8 4 6 6 6 6 4 8 -2 3 -10 3
-12 0z"/><path d="M273 86 c-1 -2 -1 -2 1 -4 l2 -2 2 2 c2 2 2 2 1 4 -1 1 -3 2 -3 2 0
0 -2 -1 -3 -2z"/><path d="M249 54 c-1 -2 -1 -2 1 -4 l2 -2 2 2 c2 2 2 2 1 4 -1 1 -3 2 -3 2 0
0 -2 -1 -3 -2z"/></g>
  <g transform="scale(0.125 0.125) translate(0.000000,512.000000) scale(1.000000,-1.000000)" fill="#d40d74" stroke="none"><path d="M185 398 c-1 -2 -1 -2 1 -4 l2 -2 2 2 c2 2 2 2 1 4 -1 1 -3 2 -3 2 0
0 -2 -1 -3 -2z"/><path d="M217 398 c-1 -2 -1 -2 1 -4 l2 -2 2 2 c2 2 2 2 1 4 -1 1 -3 2 -3 2 0
0 -2 -1 -3 -2z"/><path d="M282 398 c-1 -1 -2 -3 -2 -4 0 -1 -1 -2 -2 -2 -3 0 -6 -3 -6 -6 0 -1
-1 -2 -2 -2 -6 0 -8 -10 -4 -14 3 -4 6 0 6 8 0 6 0 6 2 6 3 0 6 3 6 6 0 1 1 2
2 2 2 0 4 1 5 2 1 2 1 2 0 4 -3 2 -3 2 -5 0z"/><path d="M170 382 c-3 -3 -3 -26 0 -28 2 -2 2 -2 4 0 3 2 3 26 0 28 -2 2 -2 2
-4 0z"/><path d="M234 382 c-3 -3 -3 -10 0 -12 3 -3 6 0 6 6 0 7 -3 10 -6 6z"/><path d="M329 382 c-1 -2 -1 -2 1 -4 l2 -2 2 2 c2 2 2 2 1 4 -1 1 -3 2 -3 2 0
0 -2 -1 -3 -2z"/><path d="M249 358 c-1 -2 -1 -2 1 -4 l2 -2 2 2 c2 2 2 2 1 4 -1 1 -3 2 -3 2 0
0 -2 -1 -3 -2z"/><path d="M329 358 c-1 -2 -1 -2 1 -4 l2 -2 2 2 c2 2 2 2 1 4 -1 1 -3 2 -3 2 0
0 -2 -1 -3 -2z"/><path d="M177 342 c-1 -2 -1 -2 1 -4 l2 -2 2 2 c2 2 2 2 1 4 -1 1 -3 2 -3 2 0
0 -2 -1 -3 -2z"/><path d="M321 342 c-1 -2 -1 -2 1 -4 l2 -2 2 2 c2 2 2 2 1 4 -1 1 -3 2 -3 2 0
0 -2 -1 -3 -2z"/><path d="M186 326 c-2 -2 -2 -2 0 -4 0 -1 2 -2 4 -2 1 0 2 -1 2 -2 0 -2 1 -4
2 -5 2 -1 2 -1 4 1 2 2 2 2 1 4 -1 1 -3 2 -5 2 -1 0 -2 1 -2 2 0 2 -3 6 -4 6
0 0 -2 -1 -2 -2z"/><path d="M313 326 c-1 -2 -1 -2 1 -4 l2 -2 2 2 c2 2 2 2 1 4 -1 1 -3 2 -3 2 0
0 -2 -1 -3 -2z"/><path d="M298 302 c-1 -1 -2 -3 -2 -4 0 -1 -1 -2 -2 -2 -2 0 -4 -1 -5 -2 -1
-2 -1 -2 1 -4 2 -2 2 -2 4 -1 1 1 2 3 2 5 0 1 1 2 2 2 2 0 4 1 5 2 1 2 1 2 0
4 -3 2 -3 2 -5 0z"/><path d="M210 294 c-2 -2 -2 -2 0 -4 0 -1 2 -2 4 -2 1 0 2 -1 2 -2 0 -2 1 -4
2 -5 2 -1 2 -1 4 1 2 2 2 2 1 4 -1 1 -3 2 -5 2 -1 0 -2 1 -2 2 0 2 -3 6 -4 6
0 0 -2 -1 -2 -2z"/><path d="M274 270 c-1 -1 -2 -3 -2 -4 0 -1 -1 -2 -2 -2 -2 0 -4 -1 -5 -2 -1
-2 -1 -2 1 -4 2 -2 2 -2 4 -1 1 1 2 3 2 5 0 1 1 2 2 2 2 0 4 1 5 2 1 2 1 2 0
4 -3 2 -3 2 -5 0z"/><path d="M233 262 c-1 -2 -1 -2 1 -4 l2 -2 2 2 c2 2 2 2 1 4 -1 1 -3 2 -3 2 0
0 -2 -1 -3 -2z"/><path d="M258 246 c-1 -1 -2 -3 -2 -4 0 -1 -1 -2 -2 -2 -2 0 -4 -1 -5 -2 -1
-2 -1 -2 1 -4 2 -2 2 -2 4 -1 1 1 2 3 2 5 0 1 1 2 2 2 2 0 4 1 5 2 1 2 1 2 0
4 -3 2 -3 2 -5 0z"/></g>
  <g transform="scale(0.125 0.125) translate(0.000000,512.000000) scale(1.000000,-1.000000)" fill="#854565" stroke="none"><path d="M265 382 c-1 -2 -1 -2 1 -4 l2 -2 2 2 c2 2 2 2 1 4 -1 1 -3 2 -3 2 0
0 -2 -1 -3 -2z"/><path d="M185 326 c-1 -2 -1 -2 1 -4 l2 -2 2 2 c2 2 2 2 1 4 -1 1 -3 2 -3 2 0
0 -2 -1 -3 -2z"/><path d="M298 302 c-1 -1 -2 -3 -2 -4 0 -1 -1 -2 -2 -2 -2 0 -4 -1 -5 -2 -1
-2 -1 -2 1 -4 2 -2 2 -2 4 -1 1 1 2 3 2 5 0 1 1 2 2 2 2 0 4 1 5 2 1 2 1 2 0
4 -3 2 -3 2 -5 0z"/><path d="M209 294 c-1 -2 -1 -2 1 -4 l2 -2 2 2 c2 2 2 2 1 4 -1 1 -3 2 -3 2 0
0 -2 -1 -3 -2z"/><path d="M273 270 c-1 -2 -1 -2 1 -4 l2 -2 2 2 c2 2 2 2 1 4 -1 1 -3 2 -3 2 0
0 -2 -1 -3 -2z"/><path d="M233 262 c-1 -2 -1 -2 1 -4 l2 -2 2 2 c2 2 2 2 1 4 -1 1 -3 2 -3 2 0
0 -2 -1 -3 -2z"/><path d="M258 246 c-1 -1 -2 -3 -2 -4 0 -1 -1 -2 -2 -2 -2 0 -4 -1 -5 -2 -1
-2 -1 -2 1 -4 2 -2 2 -2 4 -1 1 1 2 3 2 5 0 1 1 2 2 2 2 0 4 1 5 2 1 2 1 2 0
4 -3 2 -3 2 -5 0z"/></g>
</svg>
