<?xml version="1.0" encoding="UTF-8"?>
<svg xmlns="http://www.w3.org/2000/svg" viewBox="0 0 64 64" shape-rendering="crispEdges">
<rect x="25" y="14" width="1" height="1" fill="#636363" fill-opacity="0.251"/>
<rect x="26" y="14" width="1" height="1" fill="#2d2d2d" fill-opacity="0.431"/>
<rect x="27" y="14" width="1" height="1" fill="#333333" fill-opacity="0.761"/>
<rect x="28" y="14" width="1" height="1" fill="#454545" fill-opacity="0.922"/>
<rect x="29" y="14" width="1" height="1" fill="#4d4d4d" fill-opacity="0.996"/>
<rect x="30" y="14" width="1" height="1" fill="#5d5c5d"/>
<rect x="31" y="14" width="1" height="1" fill="#616161"/>
<rect x="32" y="14" width="1" height="1" fill="#585858"/>
<rect x="33" y="14" width="1" height="1" fill="#494949" fill-opacity="0.988"/>
<rect x="34" y="14" width="1" height="1" fill="#454545" fill-opacity="0.922"/>
<rect x="35" y="14" width="1" height="1" fill="#333333" fill-opacity="0.761"/>
<rect x="36" y="14" width="1" height="1" fill="#2d2d2d" fill-opacity="0.431"/>
<rect x="37" y="14" width="1" height="1" fill="#4e4e4e" fill-opacity="0.263"/>
<rect x="23" y="15" width="1" height="1" fill="#484848" fill-opacity="0.094"/>
<rect x="24" y="15" width="1" height="1" fill="#282828" fill-opacity="0.894"/>
<rect x="25" y="15" width="1" height="1" fill="#212021"/>
<rect x="26" y="15" width="1" height="1" fill="#a5a5a5"/>
<rect x="27" y="15" width="1" height="1" fill="#fbfbfb"/>
<rect x="28" y="15" width="7" height="1" fill="#ffffff"/>
<rect x="35" y="15" width="1" height="1" fill="#fdfdfd"/>
<rect x="36" y="15" width="1" height="1" fill="#aaaaaa"/>
<rect x="37" y="15" width="1" height="1" fill="#2a2929"/>
<rect x="38" y="15" width="1" height="1" fill="#212121" fill-opacity="0.918"/>
<rect x="39" y="15" width="1" height="1" fill="#4f4f4f" fill-opacity="0.176"/>
<rect x="21" y="16" width="1" height="1" fill="#6f6f6f" fill-opacity="0.122"/>
<rect x="22" y="16" width="1" height="1" fill="#252525" fill-opacity="0.757"/>
<rect x="23" y="16" width="1" height="1" fill="#5d5c5d"/>
<rect x="24" y="16" width="1" height="1" fill="#c9c9c9"/>
<rect x="25" y="16" width="1" height="1" fill="#f9f9f9"/>
<rect x="26" y="16" width="11" height="1" fill="#ffffff"/>
<rect x="37" y="16" width="1" height="1" fill="#f9f9f9"/>
<rect x="38" y="16" width="1" height="1" fill="#d0d0d0"/>
<rect x="39" y="16" width="1" height="1" fill="#696869"/>
<rect x="40" y="16" width="1" height="1" fill="#272727" fill-opacity="0.796"/>
<rect x="41" y="16" width="1" height="1" fill="#6f6f6f" fill-opacity="0.122"/>
<rect x="20" y="17" width="1" height="1" fill="#484848" fill-opacity="0.353"/>
<rect x="21" y="17" width="1" height="1" fill="#343434" fill-opacity="0.918"/>
<rect x="22" y="17" width="1" height="1" fill="#aaaaaa"/>
<rect x="23" y="17" width="17" height="1" fill="#ffffff"/>
<rect x="40" y="17" width="1" height="1" fill="#b3b3b3"/>
<rect x="41" y="17" width="1" height="1" fill="#333333" fill-opacity="0.949"/>
<rect x="42" y="17" width="1" height="1" fill="#484848" fill-opacity="0.404"/>
<rect x="19" y="18" width="1" height="1" fill="#484848" fill-opacity="0.404"/>
<rect x="20" y="18" width="1" height="1" fill="#333232"/>
<rect x="21" y="18" width="1" height="1" fill="#eaeaea"/>
<rect x="22" y="18" width="19" height="1" fill="#ffffff"/>
<rect x="41" y="18" width="1" height="1" fill="#f5f5f5"/>
<rect x="42" y="18" width="1" height="1" fill="#333232"/>
<rect x="43" y="18" width="1" height="1" fill="#3f3f3f" fill-opacity="0.486"/>
<rect x="18" y="19" width="1" height="1" fill="#575757" fill-opacity="0.302"/>
<rect x="19" y="19" width="1" height="1" fill="#4d4d4d" fill-opacity="0.996"/>
<rect x="20" y="19" width="1" height="1" fill="#ededed"/>
<rect x="21" y="19" width="21" height="1" fill="#ffffff"/>
<rect x="42" y="19" width="1" height="1" fill="#eaeaea"/>
<rect x="43" y="19" width="1" height="1" fill="#545454" fill-opacity="0.992"/>
<rect x="44" y="19" width="1" height="1" fill="#545454" fill-opacity="0.380"/>
<rect x="17" y="20" width="1" height="1" fill="#656565" fill-opacity="0.075"/>
<rect x="18" y="20" width="1" height="1" fill="#282828" fill-opacity="0.894"/>
<rect x="19" y="20" width="1" height="1" fill="#d7d7d7"/>
<rect x="20" y="20" width="23" height="1" fill="#ffffff"/>
<rect x="43" y="20" width="1" height="1" fill="#d7d7d7"/>
<rect x="44" y="20" width="1" height="1" fill="#212121" fill-opacity="0.965"/>
<rect x="45" y="20" width="1" height="1" fill="#535353" fill-opacity="0.145"/>
<rect x="17" y="21" width="1" height="1" fill="#464646" fill-opacity="0.824"/>
<rect x="18" y="21" width="1" height="1" fill="#b9b9b9"/>
<rect x="19" y="21" width="25" height="1" fill="#ffffff"/>
<rect x="44" y="21" width="1" height="1" fill="#d0d0d0"/>
<rect x="45" y="21" width="1" height="1" fill="#464646" fill-opacity="0.824"/>
<rect x="16" y="22" width="1" height="1" fill="#656565" fill-opacity="0.220"/>
<rect x="17" y="22" width="1" height="1" fill="#333232"/>
<rect x="18" y="22" width="1" height="1" fill="#f7f7f7"/>
<rect x="19" y="22" width="25" height="1" fill="#ffffff"/>
<rect x="44" y="22" width="1" height="1" fill="#f9f9f9"/>
<rect x="45" y="22" width="1" height="1" fill="#424142"/>
<rect x="46" y="22" width="1" height="1" fill="#575757" fill-opacity="0.302"/>
<rect x="16" y="23" width="1" height="1" fill="#242424" fill-opacity="0.541"/>
<rect x="17" y="23" width="1" height="1" fill="#b3b3b3"/>
<rect x="18" y="23" width="27" height="1" fill="#ffffff"/>
<rect x="45" y="23" width="1" height="1" fill="#b3b3b3"/>
<rect x="46" y="23" width="1" height="1" fill="#191919" fill-opacity="0.604"/>
<rect x="16" y="24" width="1" height="1" fill="#414141" fill-opacity="0.878"/>
<rect x="17" y="24" width="29" height="1" fill="#ffffff"/>
<rect x="46" y="24" width="1" height="1" fill="#363636" fill-opacity="0.894"/>
<rect x="16" y="25" width="1" height="1" fill="#4d4d4d" fill-opacity="0.996"/>
<rect x="17" y="25" width="29" height="1" fill="#ffffff"/>
<rect x="46" y="25" width="1" height="1" fill="#545454" fill-opacity="0.992"/>
<rect x="16" y="26" width="1" height="1" fill="#5d5c5d"/>
<rect x="17" y="26" width="29" height="1" fill="#ffffff"/>
<rect x="46" y="26" width="1" height="1" fill="#6b6b6b"/>
<rect x="16" y="27" width="1" height="1" fill="#6e6d6d" fill-opacity="0.996"/>
<rect x="17" y="27" width="29" height="1" fill="#ffffff"/>
<rect x="46" y="27" width="1" height="1" fill="#858585"/>
<rect x="16" y="28" width="1" height="1" fill="#616161"/>
<rect x="17" y="28" width="29" height="1" fill="#ffffff"/>
<rect x="46" y="28" width="1" height="1" fill="#6b6b6b"/>
<rect x="16" y="29" width="1" height="1" fill="#525051"/>
<rect x="17" y="29" width="29" height="1" fill="#ffffff"/>
<rect x="46" y="29" width="1" height="1" fill="#4d4d4d" fill-opacity="0.996"/>
<rect x="16" y="30" width="1" height="1" fill="#393939" fill-opacity="0.839"/>
<rect x="17" y="30" width="1" height="1" fill="#fbfbfb"/>
<rect x="18" y="30" width="27" height="1" fill="#ffffff"/>
<rect x="45" y="30" width="1" height="1" fill="#fdfdfd"/>
<rect x="46" y="30" width="1" height="1" fill="#363636" fill-opacity="0.894"/>
<rect x="16" y="31" width="1" height="1" fill="#252525" fill-opacity="0.482"/>
<rect x="17" y="31" width="1" height="1" fill="#a5a5a5"/>
<rect x="18" y="31" width="27" height="1" fill="#ffffff"/>
<rect x="45" y="31" width="1" height="1" fill="#a5a5a5"/>
<rect x="46" y="31" width="1" height="1" fill="#212121" fill-opacity="0.592"/>
<rect x="16" y="32" width="1" height="1" fill="#656565" fill-opacity="0.220"/>
<rect x="17" y="32" width="1" height="1" fill="#333232"/>
<rect x="18" y="32" width="1" height="1" fill="#f3f3f3"/>
<rect x="19" y="32" width="25" height="1" fill="#ffffff"/>
<rect x="44" y="32" width="1" height="1" fill="#f7f7f7"/>
<rect x="45" y="32" width="1" height="1" fill="#333232"/>
<rect x="46" y="32" width="1" height="1" fill="#636363" fill-opacity="0.251"/>
<rect x="17" y="33" width="1" height="1" fill="#414141" fill-opacity="0.725"/>
<rect x="18" y="33" width="1" height="1" fill="#aeadae"/>
<rect x="19" y="33" width="25" height="1" fill="#ffffff"/>
<rect x="44" y="33" width="1" height="1" fill="#b3b3b3"/>
<rect x="45" y="33" width="1" height="1" fill="#464646" fill-opacity="0.824"/>
<rect x="17" y="34" width="1" height="1" fill="#080808" fill-opacity="0.043"/>
<rect x="18" y="34" width="1" height="1" fill="#212121" fill-opacity="0.918"/>
<rect x="19" y="34" width="1" height="1" fill="#c9c9c9"/>
<rect x="20" y="34" width="23" height="1" fill="#ffffff"/>
<rect x="43" y="34" width="1" height="1" fill="#d3d3d3"/>
<rect x="44" y="34" width="1" height="1" fill="#0f0f0f" fill-opacity="0.933"/>
<rect x="45" y="34" width="1" height="1" fill="#484848" fill-opacity="0.094"/>
<rect x="18" y="35" width="1" height="1" fill="#575757" fill-opacity="0.302"/>
<rect x="19" y="35" width="1" height="1" fill="#454545" fill-opacity="0.984"/>
<rect x="20" y="35" width="1" height="1" fill="#e3e2e3"/>
<rect x="21" y="35" width="21" height="1" fill="#ffffff"/>
<rect x="42" y="35" width="1" height="1" fill="#e7e7e7"/>
<rect x="43" y="35" width="1" height="1" fill="#454545" fill-opacity="0.984"/>
<rect x="44" y="35" width="1" height="1" fill="#575757" fill-opacity="0.302"/>
<rect x="19" y="36" width="1" height="1" fill="#484848" fill-opacity="0.353"/>
<rect x="20" y="36" width="1" height="1" fill="#1a1919"/>
<rect x="21" y="36" width="1" height="1" fill="#e3e2e3"/>
<rect x="22" y="36" width="1" height="1" fill="#fffefe"/>
<rect x="23" y="36" width="18" height="1" fill="#ffffff"/>
<rect x="41" y="36" width="1" height="1" fill="#e3e2e3"/>
<rect x="42" y="36" width="1" height="1" fill="#2a2929"/>
<rect x="43" y="36" width="1" height="1" fill="#424242" fill-opacity="0.451"/>
<rect x="20" y="37" width="1" height="1" fill="#4e4e4e" fill-opacity="0.263"/>
<rect x="21" y="37" width="1" height="1" fill="#303030" fill-opacity="0.922"/>
<rect x="22" y="37" width="1" height="1" fill="#999898"/>
<rect x="23" y="37" width="1" height="1" fill="#fffefe"/>
<rect x="24" y="37" width="16" height="1" fill="#ffffff"/>
<rect x="40" y="37" width="1" height="1" fill="#9e9d9e"/>
<rect x="41" y="37" width="1" height="1" fill="#212121" fill-opacity="0.918"/>
<rect x="42" y="37" width="1" height="1" fill="#454545" fill-opacity="0.306"/>
<rect x="21" y="38" width="1" height="1" fill="#6f6f6f" fill-opacity="0.122"/>
<rect x="22" y="38" width="1" height="1" fill="#292929" fill-opacity="0.725"/>
<rect x="23" y="38" width="1" height="1" fill="#4d4d4d" fill-opacity="0.996"/>
<rect x="24" y="38" width="1" height="1" fill="#b9b9b9"/>
<rect x="25" y="38" width="1" height="1" fill="#f5f5f5"/>
<rect x="26" y="38" width="11" height="1" fill="#ffffff"/>
<rect x="37" y="38" width="1" height="1" fill="#f5f5f5"/>
<rect x="38" y="38" width="1" height="1" fill="#b9b9b9"/>
<rect x="39" y="38" width="1" height="1" fill="#545454" fill-opacity="0.992"/>
<rect x="40" y="38" width="1" height="1" fill="#292929" fill-opacity="0.725"/>
<rect x="41" y="38" width="1" height="1" fill="#6f6f6f" fill-opacity="0.122"/>
<rect x="23" y="39" width="1" height="1" fill="#656565" fill-opacity="0.075"/>
<rect x="24" y="39" width="1" height="1" fill="#212121" fill-opacity="0.827"/>
<rect x="25" y="39" width="1" height="1" fill="#1a1919"/>
<rect x="26" y="39" width="1" height="1" fill="#858585"/>
<rect x="27" y="39" width="1" height="1" fill="#ededed"/>
<rect x="28" y="39" width="7" height="1" fill="#ffffff"/>
<rect x="35" y="39" width="1" height="1" fill="#ededed"/>
<rect x="36" y="39" width="1" height="1" fill="#808080"/>
<rect x="37" y="39" width="1" height="1" fill="#1a1919"/>
<rect x="38" y="39" width="1" height="1" fill="#282828" fill-opacity="0.894"/>
<rect x="39" y="39" width="1" height="1" fill="#6f6f6f" fill-opacity="0.122"/>
<rect x="25" y="40" width="1" height="1" fill="#4f4f4f" fill-opacity="0.176"/>
<rect x="26" y="40" width="1" height="1" fill="#000000" fill-opacity="0.275"/>
<rect x="27" y="40" width="1" height="1" fill="#070707" fill-opacity="0.886"/>
<rect x="28" y="40" width="1" height="1" fill="#b9b9b9"/>
<rect x="29" y="40" width="2" height="1" fill="#ffffff"/>
<rect x="31" y="40" width="1" height="1" fill="#fffefe"/>
<rect x="32" y="40" width="3" height="1" fill="#ffffff"/>
<rect x="35" y="40" width="1" height="1" fill="#212121" fill-opacity="0.918"/>
<rect x="36" y="40" width="1" height="1" fill="#010101" fill-opacity="0.341"/>
<rect x="37" y="40" width="1" height="1" fill="#4f4f4f" fill-opacity="0.176"/>
<rect x="27" y="41" width="1" height="1" fill="#010101" fill-opacity="0.584"/>
<rect x="28" y="41" width="1" height="1" fill="#555555" fill-opacity="0.675"/>
<rect x="29" y="41" width="5" height="1" fill="#ffffff"/>
<rect x="34" y="41" width="1" height="1" fill="#bcbcbc" fill-opacity="0.753"/>
<rect x="35" y="41" width="1" height="1" fill="#000000" fill-opacity="0.765"/>
<rect x="28" y="42" width="1" height="1" fill="#000000" fill-opacity="0.765"/>
<rect x="29" y="42" width="1" height="1" fill="#f7f7f7"/>
<rect x="30" y="42" width="3" height="1" fill="#ffffff"/>
<rect x="33" y="42" width="1" height="1" fill="#fffefe"/>
<rect x="34" y="42" width="1" height="1" fill="#020202" fill-opacity="0.655"/>
<rect x="35" y="42" width="1" height="1" fill="#080808" fill-opacity="0.043"/>
<rect x="28" y="43" width="1" height="1" fill="#010101" fill-opacity="0.341"/>
<rect x="29" y="43" width="1" height="1" fill="#292929" fill-opacity="0.725"/>
<rect x="30" y="43" width="3" height="1" fill="#ffffff"/>
<rect x="33" y="43" width="1" height="1" fill="#878787" fill-opacity="0.792"/>
<rect x="34" y="43" width="1" height="1" fill="#030303" fill-opacity="0.533"/>
<rect x="28" y="44" width="1" height="1" fill="#080808" fill-opacity="0.043"/>
<rect x="29" y="44" width="1" height="1" fill="#000000" fill-opacity="0.718"/>
<rect x="30" y="44" width="1" height="1" fill="#c8c8c8" fill-opacity="0.663"/>
<rect x="31" y="44" width="1" height="1" fill="#ffffff"/>
<rect x="32" y="44" width="1" height="1" fill="#e9e9e9" fill-opacity="0.949"/>
<rect x="33" y="44" width="1" height="1" fill="#080808" fill-opacity="0.827"/>
<rect x="34" y="44" width="1" height="1" fill="#010101" fill-opacity="0.137"/>
<rect x="29" y="45" width="1" height="1" fill="#030303" fill-opacity="0.090"/>
<rect x="30" y="45" width="1" height="1" fill="#000000" fill-opacity="0.718"/>
<rect x="31" y="45" width="1" height="1" fill="#f9f9f9"/>
<rect x="32" y="45" width="1" height="1" fill="#010101" fill-opacity="0.584"/>
<rect x="33" y="45" width="1" height="1" fill="#010101" fill-opacity="0.341"/>
<rect x="30" y="46" width="1" height="1" fill="#030303" fill-opacity="0.624"/>
<rect x="31" y="46" width="1" height="1" fill="#292929" fill-opacity="0.725"/>
<rect x="32" y="46" width="1" height="1" fill="#000000" fill-opacity="0.718"/>
<rect x="33" y="46" width="1" height="1" fill="#000000" fill-opacity="0.063"/>
<rect x="30" y="47" width="1" height="1" fill="#030303" fill-opacity="0.090"/>
<rect x="31" y="47" width="1" height="1" fill="#080808" fill-opacity="0.827"/>
<rect x="32" y="47" width="1" height="1" fill="#010101" fill-opacity="0.341"/>
<rect x="31" y="48" width="1" height="1" fill="#000000" fill-opacity="0.184"/>
</svg>
