<?xml version="1.0" encoding="UTF-8"?>
<svg xmlns="http://www.w3.org/2000/svg" viewBox="0 0 64 64" width="64" height="64">
  <g transform="scale(0.125 0.125) translate(0.000000,512.000000) scale(1.000000,-1.000000)" fill="#ffffff" stroke="none"><path d="M216 428 l-3 -4 -9 0 -9 0 -3 -4 c-3 -4 -4 -4 -8 -4 -4 0 -5 0 -8 -4
-3 -4 -4 -4 -8 -4 -4 0 -5 0 -12 -8 -7 -8 -8 -8 -12 -8 -6 0 -16 -10 -16 -16
0 -4 0 -5 -8 -12 -8 -7 -8 -8 -8 -12 0 -4 0 -5 -4 -8 l-4 -3 0 -45 0 -44 8 -8
c8 -7 8 -8 8 -12 0 -4 0 -4 18 -22 18 -18 18 -18 22 -18 4 0 5 0 8 -4 3 -4 4
-4 8 -4 4 0 5 0 8 -4 3 -4 4 -4 8 -4 4 0 4 0 18 -14 14 -14 14 -14 14 -18 0
-4 0 -5 4 -8 4 -3 4 -4 4 -8 0 -4 0 -5 8 -12 8 -7 8 -8 8 -12 0 -3 1 -5 2 -6
2 -2 2 -2 8 4 5 5 6 6 6 10 0 4 0 5 8 12 8 7 8 8 8 12 0 4 0 5 4 8 4 3 4 3 4
10 0 5 0 6 2 6 2 0 5 3 10 8 l8 8 8 0 8 0 8 8 c7 8 8 8 12 8 4 0 4 0 26 22
l22 22 0 4 c0 4 0 5 4 8 l4 3 0 9 0 9 4 3 4 3 0 21 0 21 -4 3 -4 3 0 9 0 9 -4
3 c-4 3 -4 4 -4 8 0 4 0 5 -4 8 -4 3 -4 4 -4 8 0 4 0 4 -14 18 -14 14 -14 14
-18 14 -4 0 -5 0 -8 4 -3 4 -4 4 -8 4 -4 0 -5 0 -8 4 -3 4 -4 4 -8 4 -4 0 -5
0 -8 4 l-3 4 -9 0 -9 0 -3 4 -3 4 -33 0 -33 0 -3 -4z m70 -262 c1 -1 2 -2 2
-4 0 -3 -4 -3 -6 0 -2 2 -2 2 0 4 2 2 2 2 4 0z"/></g>
  <g transform="scale(0.125 0.125) translate(0.000000,512.000000) scale(1.000000,-1.000000)" fill="#1f1f1f" stroke="none"><path d="M216 428 l-3 -4 -9 0 -9 0 -3 -4 c-3 -4 -4 -4 -8 -4 -4 0 -5 0 -8 -4
-3 -4 -4 -4 -8 -4 -4 0 -5 0 -12 -8 -7 -8 -8 -8 -12 -8 -6 0 -16 -10 -16 -16
0 -4 0 -5 -8 -12 -8 -7 -8 -8 -8 -12 0 -4 0 -5 -4 -8 l-4 -3 0 -45 0 -44 8 -8
c8 -7 8 -8 8 -12 0 -4 0 -4 18 -22 18 -18 18 -18 22 -18 4 0 5 0 8 -4 3 -4 4
-4 8 -4 4 0 5 0 8 -4 3 -4 4 -4 8 -4 4 0 4 0 18 -14 14 -14 14 -14 14 -18 0
-4 0 -5 4 -8 4 -3 4 -4 4 -8 0 -4 0 -5 8 -12 8 -7 8 -8 8 -12 0 -3 1 -5 2 -6
2 -2 2 -2 8 4 5 5 6 6 6 10 0 4 0 5 8 12 8 7 8 8 8 12 0 4 0 5 4 8 4 3 4 3 4
10 0 5 0 6 2 6 2 0 5 3 10 8 l8 8 8 0 8 0 8 8 c7 8 8 8 12 8 4 0 4 0 26 22
l22 22 0 4 c0 4 0 5 4 8 l4 3 0 9 0 9 4 3 4 3 0 21 0 21 -4 3 -4 3 0 9 0 9 -4
3 c-4 3 -4 4 -4 8 0 4 0 5 -4 8 -4 3 -4 4 -4 8 0 4 0 4 -14 18 -14 14 -14 14
-18 14 -4 0 -5 0 -8 4 -3 4 -4 4 -8 4 -4 0 -5 0 -8 4 -3 4 -4 4 -8 4 -4 0 -5
0 -8 4 l-3 4 -9 0 -9 0 -3 4 -3 4 -33 0 -33 0 -3 -4z m40 -8 l3 -4 13 0 13 0
3 -4 3 -4 9 0 9 0 3 -4 c3 -4 4 -4 8 -4 4 0 5 0 12 -8 7 -8 8 -8 12 -8 4 0 5
0 18 -14 14 -14 14 -14 14 -18 0 -4 0 -5 4 -8 4 -3 4 -4 4 -8 0 -4 0 -5 4 -8
l4 -3 0 -25 0 -25 -4 -3 c-4 -3 -4 -4 -4 -8 0 -4 0 -5 -4 -8 l-4 -3 0 -9 c0
-10 -1 -12 -8 -12 -4 0 -4 0 -20 -16 -16 -16 -16 -16 -20 -16 -4 0 -5 0 -12
-8 l-8 -8 -8 0 c-12 0 -12 0 -12 -14 l0 -10 -6 0 -6 0 -6 -6 c-6 -5 -6 -6 -6
-10 0 -4 0 -5 -4 -8 -4 -3 -4 -4 -4 -8 0 -3 -1 -5 -2 -7 -3 -2 -6 1 -6 7 0 4
0 5 -4 8 -4 3 -4 4 -4 8 0 4 0 5 -8 12 -8 7 -8 8 -8 12 0 6 -10 16 -16 16 -4
0 -5 0 -8 4 -3 4 -4 4 -8 4 -4 0 -5 0 -8 4 -3 4 -4 4 -8 4 -4 0 -5 0 -8 4 -3
4 -4 4 -8 4 -6 0 -8 2 -8 8 0 6 -2 8 -8 8 -6 0 -8 2 -8 8 0 4 0 5 -4 8 -4 3
-4 4 -4 8 0 4 0 5 -4 8 -4 3 -4 4 -4 8 0 4 0 5 -4 8 l-4 3 0 25 0 25 4 3 c4 3
4 4 4 8 0 4 0 5 4 8 4 3 4 4 4 8 0 4 0 4 18 22 18 18 18 18 22 18 4 0 5 0 8 4
3 4 4 4 8 4 4 0 5 0 8 4 l3 4 9 0 9 0 3 4 3 4 13 0 13 0 3 4 c2 2 4 4 4 4 0 0
2 -2 4 -4z"/></g>
  <g transform="scale(0.125 0.125) translate(0.000000,512.000000) scale(1.000000,-1.000000)" fill="#e0e0e0" stroke="none"><path d="M216 428 l-3 -4 -9 0 -9 0 -3 -4 c-3 -4 -4 -4 -8 -4 -4 0 -5 0 -12
-8 -7 -8 -8 -8 -12 -8 -4 0 -5 0 -8 -4 -3 -4 -4 -4 -8 -4 -6 0 -16 -10 -16
-16 0 -4 0 -5 -8 -12 l-8 -8 0 -14 0 -14 -2 0 c-6 0 -6 -2 -6 -28 0 -27 0 -28
6 -28 2 0 2 -1 2 -6 0 -6 0 -7 -4 -10 l-4 -4 14 -14 c9 -9 15 -14 16 -14 2 0
2 -1 2 -6 0 -9 1 -10 10 -10 5 0 6 0 6 -2 0 -1 4 -6 10 -12 l10 -10 8 0 9 0 3
-4 c3 -4 4 -4 8 -4 6 0 8 -2 8 -8 0 -4 0 -5 8 -12 8 -7 8 -8 8 -12 0 -4 0 -5
4 -8 4 -3 4 -4 4 -8 0 -5 2 -8 6 -8 1 0 2 -1 2 -2 0 -2 1 -4 4 -6 4 -3 4 -4 4
-8 0 -3 1 -5 2 -6 2 -2 2 -2 8 4 l6 6 -4 4 c-6 6 -6 8 2 8 7 0 10 2 10 6 0 1
1 2 2 2 4 0 6 3 6 8 0 4 0 5 4 8 4 3 4 3 4 10 0 6 0 6 2 6 2 0 4 1 5 2 1 2 1
2 -1 4 -2 2 -2 2 -4 1 -1 -1 -2 -3 -2 -5 0 -2 0 -2 -6 -2 l-6 0 -6 -6 -6 -6 0
-6 c0 -6 0 -6 -2 -6 -4 0 -6 -3 -6 -10 l0 -6 -8 0 c-10 0 -11 2 -4 8 l5 4 -5
4 c-4 3 -4 4 -4 8 0 4 0 5 -8 12 -8 7 -8 8 -8 12 0 6 -10 16 -16 16 -4 0 -5 0
-8 4 -3 4 -4 4 -8 4 -4 0 -5 0 -8 4 -3 4 -4 4 -8 4 -4 0 -5 0 -8 4 -3 4 -3 4
-10 4 l-6 0 0 6 c0 9 -1 10 -10 10 l-6 0 0 6 c0 7 0 7 -4 10 -4 3 -4 4 -4 8 0
4 0 5 -4 8 -4 3 -4 4 -4 8 0 5 -2 8 -6 8 l-2 0 0 28 0 28 2 0 c4 0 6 3 6 8 0
4 0 5 4 8 4 3 4 4 4 8 0 4 0 4 18 22 18 18 18 18 22 18 4 0 5 0 8 4 3 4 4 4 8
4 4 0 5 0 8 4 l3 4 9 0 9 0 3 4 3 4 13 0 13 0 3 4 4 5 4 -5 4 -4 12 0 13 0 3
-4 3 -4 9 0 9 0 3 -4 c3 -4 4 -4 8 -4 4 0 5 0 12 -8 7 -8 8 -8 12 -8 4 0 5 0
18 -14 14 -14 14 -14 14 -18 0 -4 0 -5 4 -8 4 -3 4 -4 4 -8 0 -4 0 -5 4 -8 l4
-3 0 -27 0 -26 -2 0 c-4 0 -6 -3 -6 -8 0 -4 0 -5 -4 -8 l-4 -3 0 -11 0 -10 -6
0 -6 0 -16 -16 c-15 -16 -16 -16 -20 -16 -4 0 -5 -1 -10 -6 -4 -3 -6 -7 -6 -8
0 -2 -1 -2 -10 -2 -9 0 -11 0 -12 -2 -2 -2 -2 -2 0 -4 1 -2 3 -2 10 -2 9 0 12
1 12 6 0 4 4 3 8 -2 l4 -4 8 8 c7 8 8 8 12 8 4 0 5 0 14 10 10 10 10 10 10 14
0 4 0 5 4 8 3 2 4 4 4 6 0 2 0 2 6 2 8 0 10 2 10 8 0 4 0 5 4 8 4 3 4 4 4 8 0
4 0 5 -4 8 -5 4 -6 8 -2 8 4 0 6 3 6 8 0 4 0 5 4 8 l4 3 0 9 0 9 -4 3 -4 3 0
9 0 9 -4 3 -4 3 0 9 0 9 -4 3 c-4 3 -4 4 -4 8 0 4 0 4 -14 18 l-14 14 -8 0 -8
0 -8 8 c-7 8 -8 8 -12 8 -4 0 -5 0 -8 4 l-3 4 -9 0 -8 0 -4 4 -4 5 -4 -5 -4
-4 -4 4 -3 4 -17 0 -16 0 -4 -4 -4 -4 -4 4 c-4 5 -4 5 -8 0z m54 -294 c3 -2 3
-6 0 -6 -3 0 -6 3 -6 6 0 3 3 3 6 0z"/></g>
  <g transform="scale(0.125 0.125) translate(0.000000,512.000000) scale(1.000000,-1.000000)" fill="#afafaf" stroke="none"><path d="M216 428 l-3 -4 -9 0 -9 0 -3 -4 c-3 -4 -4 -4 -8 -4 -5 0 -8 -2 -8
-6 0 -1 -1 -2 -2 -2 -2 0 -4 -1 -6 -4 -3 -4 -4 -4 -8 -4 -5 0 -8 -2 -8 -6 0
-2 -1 -2 -6 -2 l-6 0 -6 -6 -6 -6 0 -6 c0 -5 0 -6 -2 -6 -1 0 -5 -2 -8 -6 l-6
-6 0 -14 0 -14 -2 0 c-5 0 -6 -3 -6 -12 0 -7 0 -9 2 -10 2 -2 2 -2 4 0 2 1 2
3 2 12 0 10 0 10 2 10 5 0 6 3 6 12 l0 9 4 3 c4 3 4 3 4 10 0 5 0 6 2 6 3 0
22 19 22 22 0 2 1 2 10 2 13 0 14 1 14 10 0 8 3 8 8 2 l4 -4 8 8 8 9 4 -5 4
-4 4 4 c3 4 4 4 8 4 5 0 8 2 8 6 0 4 4 3 8 -2 l4 -4 4 4 4 5 4 -5 4 -4 4 4 c4
5 8 6 8 2 0 -4 3 -6 8 -6 4 0 5 0 8 -4 l4 -4 4 4 4 5 8 -9 8 -8 4 4 c5 6 8 6
8 -2 l0 -6 6 -6 6 -6 4 4 c4 4 4 4 6 3 1 -2 2 -4 2 -7 0 -6 2 -8 8 -8 6 0 16
-10 16 -16 0 -4 0 -5 4 -8 l4 -3 0 -9 0 -9 4 -3 4 -3 0 -9 0 -9 4 -3 c4 -3 4
-3 4 -10 0 -6 0 -6 -2 -6 -4 0 -6 -3 -6 -10 0 -6 0 -6 -2 -6 -4 0 -6 -3 -6 -8
0 -4 0 -5 -4 -8 l-4 -3 0 -11 0 -10 -6 0 -6 0 -16 -16 c-15 -16 -16 -16 -20
-16 -4 0 -5 -1 -10 -6 -4 -3 -6 -7 -6 -8 0 -2 -1 -2 -6 -2 -8 0 -12 -3 -9 -6
5 -5 15 -2 15 4 0 4 4 3 8 -2 l4 -4 8 8 c7 8 8 8 12 8 4 0 5 0 14 10 10 10 10
10 10 14 0 4 0 5 4 8 3 2 4 4 4 6 0 2 0 2 6 2 8 0 10 2 10 8 0 4 0 5 4 8 4 3
4 4 4 8 0 4 0 5 -4 8 -5 4 -6 8 -2 8 4 0 6 3 6 10 0 6 0 6 2 6 5 0 6 3 6 12
l0 9 -4 3 -4 3 0 9 0 9 -4 3 -4 3 0 9 0 9 -4 3 c-4 3 -4 4 -4 8 0 4 0 4 -14
18 l-14 14 -8 0 -9 0 -3 4 c-2 3 -4 4 -6 4 -1 0 -2 1 -2 2 0 4 -3 6 -8 6 -4 0
-5 0 -8 4 l-3 4 -9 0 -8 0 -4 4 -4 5 -4 -5 c-4 -5 -8 -6 -8 -2 0 5 -2 6 -20 6
-18 0 -20 -1 -20 -6 0 -4 -4 -3 -8 2 -2 2 -4 4 -4 4 0 0 -2 -2 -4 -4z"/><path d="M106 286 c-4 -4 -2 -14 4 -14 2 0 2 -1 2 -6 0 -6 0 -7 -4 -10 l-4 -4
14 -14 c9 -9 15 -14 16 -14 2 0 2 -1 2 -6 0 -9 1 -10 10 -10 6 0 6 0 6 -2 0
-3 3 -6 6 -6 1 0 2 -1 2 -2 0 -1 2 -5 6 -8 l6 -6 8 0 9 0 3 -4 c3 -4 3 -4 10
-4 l6 0 0 -6 0 -6 8 -8 c8 -7 8 -8 8 -12 0 -4 0 -5 4 -8 4 -3 4 -4 4 -8 0 -5
2 -8 6 -8 1 0 2 -1 2 -2 0 -2 1 -4 4 -6 4 -3 4 -4 4 -8 0 -3 1 -5 2 -6 2 -2 2
-2 8 4 l6 6 -4 4 c-6 6 -6 8 2 8 7 0 10 2 10 6 0 1 1 2 2 2 4 0 6 3 6 8 0 4 0
5 4 8 4 3 4 3 4 10 0 6 0 6 2 6 2 0 4 1 5 2 1 2 1 2 -1 4 -2 2 -2 2 -4 1 -1
-1 -2 -3 -2 -5 0 -1 -1 -2 -2 -2 -2 0 -4 -1 -6 -4 -3 -4 -4 -4 -8 -4 -3 0 -5
-1 -7 -2 -1 -2 -1 -2 3 -6 4 -3 4 -4 4 -10 0 -8 -2 -8 -8 -2 -4 4 -4 4 -6 3
-2 -2 -2 -3 -2 -9 l0 -6 -8 0 c-10 0 -11 2 -4 8 l5 4 -5 4 c-4 3 -4 4 -4 8 0
4 0 5 -8 12 -8 7 -8 8 -8 12 0 6 -2 8 -10 8 -5 0 -6 0 -6 2 0 1 -2 5 -6 8 -5
6 -6 6 -10 6 -4 0 -5 0 -8 4 l-3 4 -11 0 c-10 0 -10 0 -10 2 0 3 -3 6 -6 6 -2
0 -2 0 -2 6 0 9 -1 10 -10 10 l-6 0 0 6 c0 7 0 7 -4 10 -4 3 -4 4 -4 8 0 4 0
5 -4 8 -4 3 -4 4 -4 8 0 5 -2 8 -6 8 -2 0 -2 0 -2 6 0 5 0 7 -2 8 -2 2 -2 2
-4 0z"/></g>
  <g transform="scale(0.125 0.125) translate(0.000000,512.000000) scale(1.000000,-1.000000)" fill="#3e3e3e" stroke="none"><path d="M216 428 l-3 -4 -9 0 c-9 0 -12 -1 -12 -6 0 -2 0 -2 -6 -2 -7 0 -10
-2 -10 -6 0 -1 -1 -2 -2 -2 -6 0 -8 -10 -4 -14 3 -4 6 0 6 8 0 8 2 8 8 2 4 -4
4 -4 6 -3 2 2 2 3 2 9 l0 6 6 0 c6 0 7 0 10 -4 l4 -4 6 6 c6 5 6 6 6 10 0 3
-1 5 -2 6 -2 3 -2 3 -6 -2z"/><path d="M234 430 c-2 -2 -2 -2 4 -8 l6 -6 4 4 4 5 4 -5 4 -4 6 6 c6 6 6 6 4
8 -1 2 -3 2 -18 2 -15 0 -17 0 -18 -2z"/><path d="M282 430 c-4 -4 -3 -10 4 -16 l6 -6 4 4 c3 4 4 4 10 4 l6 0 0 -6 c0
-6 0 -7 2 -9 2 -1 2 -1 6 3 6 6 8 6 8 -2 0 -7 2 -10 6 -10 1 0 2 -1 2 -2 0 -2
1 -4 2 -4 2 -2 2 -2 4 0 1 0 2 2 2 4 0 1 1 2 2 2 4 0 6 -3 6 -8 0 -6 2 -8 8
-8 4 0 5 0 12 -8 5 -5 8 -8 10 -8 2 0 2 0 2 -14 l0 -15 4 -3 c4 -3 4 -4 4 -8
0 -5 2 -8 6 -8 2 0 2 0 2 -12 0 -12 0 -12 -2 -12 -4 0 -6 -3 -6 -10 0 -6 0 -6
-2 -6 -2 0 -4 -1 -4 -2 -2 -2 -2 -2 0 -4 0 -1 2 -2 4 -2 1 0 2 -1 2 -2 0 -4
-3 -6 -8 -6 -3 0 -5 -1 -7 -2 -1 -2 -1 -2 3 -6 l5 -4 -5 -4 c-2 -2 -4 -4 -4
-6 0 -2 0 -2 -6 -2 -7 0 -10 -2 -10 -6 0 -1 -1 -2 -2 -2 -1 0 -6 -4 -12 -10
l-10 -10 0 -6 c0 -8 -3 -8 -8 -2 -4 4 -4 4 -6 3 -3 -3 -3 -19 0 -21 2 -2 2 -2
8 4 3 3 6 7 6 8 0 2 1 2 6 2 l6 0 10 10 10 10 -4 4 c-6 6 -6 8 2 8 7 0 10 2
10 6 0 2 0 2 6 2 8 0 10 2 10 8 0 4 0 5 4 8 4 3 4 4 4 8 0 5 -2 8 -6 8 -2 0
-2 1 -2 4 0 4 0 4 2 4 4 0 6 3 6 10 0 6 0 6 2 6 5 0 6 3 6 12 0 9 -1 12 -6 12
-2 0 -2 0 -2 10 l0 11 -4 3 -4 3 0 9 c0 9 -1 12 -6 12 -2 0 -2 1 -2 6 l0 6
-14 14 c-14 14 -14 14 -18 14 -5 0 -8 -2 -8 -6 0 -2 -1 -2 -4 -2 l-4 0 0 6 c0
7 -2 10 -6 10 -1 0 -2 1 -2 2 0 4 -3 6 -10 6 -6 0 -6 0 -6 2 0 5 -3 6 -12 6
l-9 0 -3 4 c-4 5 -4 5 -6 2z"/><path d="M154 398 c-1 -1 -2 -3 -2 -4 0 -2 -1 -2 -6 -2 l-6 0 -6 -6 -6 -6 0
-6 c0 -5 0 -6 -2 -6 -1 0 -5 -2 -8 -6 l-6 -6 0 -14 0 -14 -2 0 c-6 0 -8 -10
-4 -14 3 -4 6 0 6 8 0 6 0 6 2 6 5 0 6 3 6 12 l0 9 4 3 c4 3 4 3 4 10 0 5 0 6
2 6 3 0 22 19 22 22 0 1 1 2 2 2 2 0 4 1 5 2 1 2 1 2 0 4 -3 2 -3 2 -5 0z"/><path d="M106 278 c-2 -2 -2 -2 0 -4 0 -1 2 -2 4 -2 1 0 2 -1 2 -2 0 -2 1 -4
2 -5 2 -1 2 -1 4 1 2 2 2 2 1 4 -1 1 -3 2 -5 2 -1 0 -2 1 -2 2 0 2 -3 6 -4 6
0 0 -2 -1 -2 -2z"/><path d="M106 254 c-2 -2 -2 -2 4 -8 3 -3 7 -6 8 -6 1 0 2 -1 2 -2 0 -1 3 -5
6 -8 6 -6 6 -6 8 -4 1 1 2 3 2 6 0 6 -2 8 -10 8 -8 0 -8 3 -2 8 4 4 4 4 3 6
-3 3 -19 3 -21 0z"/><path d="M142 218 c-6 -6 -6 -6 -4 -8 1 -2 3 -2 8 -2 6 0 6 0 6 -2 0 -3 3 -6
6 -6 1 0 2 -1 2 -2 0 -3 3 -6 6 -6 1 0 2 -1 2 -2 0 -6 10 -8 14 -4 3 3 3 10 0
13 -2 1 -2 1 -6 -3 -4 -5 -8 -6 -8 -2 0 3 -3 6 -6 6 -1 0 -2 1 -2 2 0 3 -3 6
-6 6 -2 0 -2 0 -2 6 0 5 0 7 -2 8 -2 2 -2 3 -8 -4z"/><path d="M194 190 c-1 -1 -2 -3 -2 -6 0 -6 2 -8 10 -8 l6 0 0 -6 0 -6 6 -6 c3
-4 7 -6 8 -6 2 0 2 -1 2 -6 0 -7 2 -10 6 -10 2 0 2 0 2 -6 0 -7 2 -10 6 -10 1
0 2 -1 2 -2 0 -2 1 -4 4 -6 4 -3 4 -4 4 -8 0 -3 1 -5 2 -6 2 -2 2 -2 8 4 l6 6
-4 4 c-6 6 -6 8 2 8 7 0 10 2 10 6 0 1 1 2 2 2 4 0 6 3 6 8 0 4 0 5 4 8 4 3 4
3 4 10 0 6 0 6 2 6 2 0 4 1 5 2 1 2 1 2 -1 4 -2 2 -2 2 -4 1 -1 -1 -2 -3 -2
-5 0 -1 -1 -2 -2 -2 -2 0 -4 -1 -6 -4 -3 -4 -4 -4 -8 -4 -3 0 -5 -1 -7 -2 -1
-2 -1 -2 3 -6 4 -3 4 -4 4 -10 0 -8 -2 -8 -8 -2 -4 4 -4 4 -6 3 -2 -2 -2 -3
-2 -9 l0 -6 -8 0 c-10 0 -11 2 -4 8 4 4 4 4 3 6 -2 2 -3 2 -9 2 -8 0 -8 2 -2
8 4 4 4 4 3 6 -2 2 -3 2 -9 2 l-6 0 0 6 0 6 -6 6 c-3 4 -7 6 -8 6 -1 0 -2 1
-2 2 0 2 -11 14 -12 14 0 0 -1 -1 -2 -2z"/><path d="M298 182 c-3 -3 0 -6 6 -6 6 0 9 3 7 6 -2 1 -4 2 -7 2 -3 0 -5 -1 -6
-2z"/></g>
  <g transform="scale(0.125 0.125) translate(0.000000,512.000000) scale(1.000000,-1.000000)" fill="#323232" stroke="none"><path d="M234 430 c-2 -2 -2 -2 4 -8 l6 -6 4 4 4 5 4 -5 4 -4 6 6 c6 6 6 6 4
8 -1 2 -3 2 -18 2 -15 0 -17 0 -18 -2z"/><path d="M202 422 c-2 -2 -2 -2 4 -8 l6 -6 6 6 c6 6 6 6 4 8 -1 2 -3 2 -10 2
-7 0 -9 0 -10 -2z"/><path d="M282 422 c-2 -2 -2 -2 0 -4 0 -1 2 -2 4 -2 1 0 2 -1 2 -2 0 -2 1 -4
2 -4 2 -2 2 -2 4 0 1 0 2 2 2 4 0 1 1 2 2 2 2 0 4 1 5 2 1 2 1 2 -1 4 -2 2 -2
2 -4 1 -1 -1 -2 -3 -2 -5 0 -2 0 -2 -4 -2 -4 0 -4 0 -4 2 0 2 -3 6 -4 6 0 0
-2 -1 -2 -2z"/><path d="M178 414 c-1 -1 -2 -3 -2 -4 0 -1 -1 -2 -2 -2 -6 0 -8 -10 -4 -14 3
-4 6 0 6 8 0 8 2 8 8 2 4 -4 4 -4 6 -3 3 3 3 11 0 13 -2 3 -10 3 -12 0z"/><path d="M314 414 c-3 -3 -3 -10 0 -12 3 -3 6 0 6 6 0 7 -3 10 -6 6z"/><path d="M330 406 c-4 -4 -2 -14 4 -14 1 0 2 -1 2 -2 0 -2 1 -4 2 -4 2 -2 2
-2 4 0 1 0 2 2 2 4 0 2 0 2 4 2 l4 0 0 -6 c0 -8 2 -10 8 -10 6 0 8 2 8 8 0 6
-2 8 -10 8 -6 0 -6 0 -6 2 0 2 -1 4 -2 5 -2 1 -2 1 -4 0 -1 -1 -2 -3 -2 -5 0
-2 0 -2 -4 -2 l-4 0 0 6 c0 5 0 7 -2 8 -2 2 -2 2 -4 0z"/><path d="M154 398 c-1 -1 -2 -3 -2 -4 0 -2 0 -2 -6 -2 -8 0 -12 -3 -8 -6 4 -5
14 -2 14 4 0 1 1 2 2 2 2 0 4 1 5 2 1 2 1 2 0 4 -3 2 -3 2 -5 0z"/><path d="M122 366 c-3 -3 -3 -10 0 -12 3 -3 6 0 6 6 0 7 -3 10 -6 6z"/><path d="M377 366 c-1 -2 -1 -2 1 -4 l2 -2 2 2 c2 2 2 2 1 4 -1 1 -3 2 -3 2 0
0 -2 -1 -3 -2z"/><path d="M386 350 c-3 -3 -3 -18 0 -20 3 -3 10 -3 13 0 1 2 1 2 -3 6 -4 3 -4
4 -4 8 0 7 -3 10 -6 6z"/><path d="M114 342 c-3 -3 -3 -10 0 -12 3 -3 6 0 6 6 0 7 -3 10 -6 6z"/><path d="M105 318 c-1 -2 -1 -2 1 -4 l2 -2 2 2 c2 2 2 2 1 4 -1 1 -3 2 -3 2 0
0 -2 -1 -3 -2z"/><path d="M394 318 c-2 -2 -2 -2 0 -4 0 -1 2 -2 4 -2 2 0 2 0 2 -12 0 -12 0
-12 -2 -12 -4 0 -6 -3 -6 -10 0 -6 0 -6 -2 -6 -2 0 -4 -1 -4 -2 -2 -2 -2 -2 0
-4 0 -1 2 -2 4 -2 1 0 2 -1 2 -2 0 -4 -3 -6 -8 -6 -3 0 -5 -1 -7 -2 -1 -2 -1
-2 3 -6 5 -4 6 -8 2 -8 -3 0 -6 -3 -6 -6 0 -2 0 -2 -6 -2 -7 0 -10 -2 -10 -6
0 -1 -1 -2 -2 -2 -1 0 -6 -4 -12 -10 l-10 -10 0 -6 0 -6 -4 0 c-4 0 -4 0 -4 2
0 2 -1 4 -2 5 -2 1 -2 1 -4 -1 -2 -2 -2 -2 -1 -4 1 -1 3 -2 5 -2 1 0 2 -1 2
-2 0 -2 1 -4 2 -4 2 -2 2 -2 4 0 1 0 2 2 2 4 0 2 0 2 6 2 l6 0 10 10 10 10 -4
4 c-6 6 -6 8 2 8 7 0 10 2 10 6 0 1 1 2 2 2 3 0 6 3 6 6 0 1 1 2 2 2 1 0 5 2
8 6 6 5 6 6 6 10 0 5 -2 8 -6 8 -2 0 -2 1 -2 4 0 4 0 4 2 4 4 0 6 3 6 10 0 6
0 6 2 6 5 0 6 3 6 12 0 9 -1 12 -6 12 -1 0 -2 1 -2 2 0 2 -3 6 -4 6 0 0 -2 -1
-2 -2z"/><path d="M106 278 c-2 -2 -2 -2 0 -4 0 -1 2 -2 4 -2 1 0 2 -1 2 -2 0 -2 1 -4
2 -5 2 -1 2 -1 4 1 2 2 2 2 1 4 -1 1 -3 2 -5 2 -1 0 -2 1 -2 2 0 2 -3 6 -4 6
0 0 -2 -1 -2 -2z"/><path d="M106 254 c-2 -2 -2 -2 4 -8 3 -3 7 -6 8 -6 1 0 2 -1 2 -2 0 -1 3 -5
6 -8 6 -6 6 -6 8 -4 1 1 2 3 2 6 0 6 -2 8 -10 8 -8 0 -8 3 -2 8 4 4 4 4 3 6
-3 3 -19 3 -21 0z"/><path d="M142 218 c-6 -6 -6 -6 -4 -8 1 -2 3 -2 8 -2 6 0 6 0 6 -2 0 -3 3 -6
6 -6 1 0 2 -1 2 -2 0 -3 3 -6 6 -6 1 0 2 -1 2 -2 0 -6 10 -8 14 -4 3 3 3 10 0
13 -2 1 -2 1 -6 -3 -4 -5 -8 -6 -8 -2 0 3 -3 6 -6 6 -1 0 -2 1 -2 2 0 3 -3 6
-6 6 -2 0 -2 0 -2 6 0 5 0 7 -2 8 -2 2 -2 3 -8 -4z"/><path d="M194 190 c-1 -1 -2 -3 -2 -6 0 -6 2 -8 10 -8 l6 0 0 -6 0 -6 6 -6 c3
-4 7 -6 8 -6 2 0 2 -1 2 -6 0 -7 2 -10 6 -10 2 0 2 0 2 -6 0 -7 2 -10 6 -10 1
0 2 -1 2 -2 0 -2 1 -4 4 -6 4 -3 4 -4 4 -8 0 -3 1 -5 2 -6 2 -2 2 -2 8 4 l6 6
-4 4 c-6 6 -6 8 2 8 7 0 10 2 10 6 0 1 1 2 2 2 4 0 6 3 6 8 0 4 0 5 4 8 4 3 4
3 4 10 0 6 0 6 2 6 2 0 4 1 5 2 1 2 1 2 -1 4 -2 2 -2 2 -4 1 -1 -1 -2 -3 -2
-5 0 -1 -1 -2 -2 -2 -2 0 -4 -1 -6 -4 -3 -4 -4 -4 -8 -4 -3 0 -5 -1 -7 -2 -1
-2 -1 -2 3 -6 4 -3 4 -4 4 -10 0 -8 -2 -8 -8 -2 -4 4 -4 4 -6 3 -2 -2 -2 -3
-2 -9 l0 -6 -8 0 c-10 0 -11 2 -4 8 4 4 4 4 3 6 -2 2 -3 2 -9 2 -8 0 -8 2 -2
8 4 4 4 4 3 6 -2 2 -3 2 -9 2 l-6 0 0 6 0 6 -6 6 c-3 4 -7 6 -8 6 -1 0 -2 1
-2 2 0 2 -11 14 -12 14 0 0 -1 -1 -2 -2z"/><path d="M298 182 c-3 -3 0 -6 6 -6 6 0 9 3 7 6 -2 1 -4 2 -7 2 -3 0 -5 -1 -6
-2z"/></g>
  <g transform="scale(0.125 0.125) translate(0.000000,512.000000) scale(1.000000,-1.000000)" fill="#515151" stroke="none"><path d="M234 430 c-2 -2 -2 -2 4 -8 l6 -6 4 4 4 5 4 -5 4 -4 6 6 c6 6 6 6 4
8 -1 2 -3 2 -18 2 -15 0 -17 0 -18 -2z"/><path d="M218 422 c-1 -1 -2 -3 -2 -4 0 -1 -1 -2 -2 -2 -2 0 -4 -1 -5 -2 -1
-2 -1 -2 1 -4 2 -2 2 -2 4 -1 1 1 2 3 2 5 0 1 1 2 2 2 2 0 4 1 5 2 1 2 1 2 0
4 -3 2 -3 2 -5 0z"/><path d="M282 422 c-2 -2 -2 -2 0 -4 0 -1 2 -2 4 -2 1 0 2 -1 2 -2 0 -2 1 -4
2 -5 2 -1 2 -1 4 1 2 2 2 2 1 4 -1 1 -3 2 -5 2 -1 0 -2 1 -2 2 0 2 -3 6 -4 6
0 0 -2 -1 -2 -2z"/><path d="M186 414 c-3 -3 -3 -10 0 -12 3 -3 6 0 6 6 0 7 -3 10 -6 6z"/><path d="M314 414 c-3 -3 -3 -10 0 -12 3 -3 6 0 6 6 0 7 -3 10 -6 6z"/><path d="M170 406 c-3 -3 -3 -10 0 -12 3 -3 6 0 6 6 0 7 -3 10 -6 6z"/><path d="M330 406 c-4 -4 -2 -14 4 -14 1 0 2 -1 2 -2 0 -2 1 -4 2 -5 2 -1 2
-1 4 1 2 2 2 2 1 4 -1 1 -3 2 -5 2 -2 0 -2 0 -2 6 0 5 0 7 -2 8 -2 2 -2 2 -4
0z"/><path d="M145 390 c-1 -2 -1 -2 1 -4 l2 -2 2 2 c2 2 2 2 1 4 -1 1 -3 2 -3 2 0
0 -2 -1 -3 -2z"/><path d="M354 390 c-3 -2 -3 -10 0 -12 2 -3 10 -3 12 0 2 2 2 2 -4 8 -7 7 -6
7 -8 4z"/><path d="M121 358 c-1 -2 -1 -2 1 -4 l2 -2 2 2 c2 2 2 2 1 4 -1 1 -3 2 -3 2 0
0 -2 -1 -3 -2z"/><path d="M386 350 c-3 -3 -3 -18 0 -20 3 -3 10 -3 13 0 1 2 1 2 -3 6 -4 3 -4
4 -4 8 0 7 -3 10 -6 6z"/><path d="M114 342 c-3 -3 -3 -10 0 -12 3 -3 6 0 6 6 0 7 -3 10 -6 6z"/><path d="M105 318 c-1 -2 -1 -2 1 -4 l2 -2 2 2 c2 2 2 2 1 4 -1 1 -3 2 -3 2 0
0 -2 -1 -3 -2z"/><path d="M394 318 c-2 -2 -2 -2 0 -4 0 -1 2 -2 4 -2 2 0 2 0 2 -12 0 -12 0
-12 -2 -12 -4 0 -6 -3 -6 -10 0 -6 0 -6 -2 -6 -2 0 -4 -1 -4 -2 -2 -2 -2 -2 0
-4 0 -1 2 -2 4 -2 1 0 2 -1 2 -2 0 -4 -3 -6 -8 -6 -6 0 -9 -3 -6 -6 2 -3 18
-3 20 0 4 4 2 14 -4 14 -2 0 -2 1 -2 4 0 4 0 4 2 4 4 0 6 3 6 10 0 6 0 6 2 6
5 0 6 3 6 12 0 9 -1 12 -6 12 -1 0 -2 1 -2 2 0 2 -3 6 -4 6 0 0 -2 -1 -2 -2z"/><path d="M106 278 c-2 -2 -2 -2 0 -4 0 -1 2 -2 4 -2 1 0 2 -1 2 -2 0 -2 1 -4
2 -5 2 -1 2 -1 4 1 2 2 2 2 1 4 -1 1 -3 2 -5 2 -1 0 -2 1 -2 2 0 2 -3 6 -4 6
0 0 -2 -1 -2 -2z"/><path d="M106 254 c-2 -2 -2 -2 0 -4 1 -2 3 -2 10 -2 7 0 9 0 11 2 1 2 1 2 0
4 -2 2 -4 2 -11 2 -7 0 -9 0 -10 -2z"/><path d="M122 238 c-2 -2 -2 -2 4 -8 6 -6 6 -6 8 -4 3 2 3 10 0 12 -2 3 -10 3
-12 0z"/><path d="M378 238 c-1 -1 -2 -3 -2 -4 0 -2 0 -2 -6 -2 -7 0 -10 -2 -10 -6 0
-1 -1 -2 -2 -2 -1 0 -6 -4 -12 -10 -10 -10 -10 -10 -10 -14 0 -3 1 -5 2 -7 2
-1 2 -1 6 3 3 4 4 4 8 4 7 0 8 2 8 14 l0 10 6 0 c7 0 10 2 10 6 0 1 1 2 2 2 2
0 4 1 5 2 1 2 1 2 0 4 -3 2 -3 2 -5 0z"/><path d="M146 222 c-4 -4 -2 -14 4 -14 1 0 2 -1 2 -2 0 -3 3 -6 6 -6 1 0 2 -1
2 -2 0 -2 1 -4 2 -5 2 -1 2 -1 4 1 2 2 2 2 1 4 -1 1 -3 2 -5 2 -1 0 -2 1 -2 2
0 3 -3 6 -6 6 -2 0 -2 0 -2 6 0 5 0 7 -2 8 -2 2 -2 2 -4 0z"/><path d="M178 198 c-3 -3 -3 -10 0 -12 3 -3 6 0 6 6 0 7 -3 10 -6 6z"/><path d="M321 198 c-1 -2 -1 -2 1 -4 l2 -2 2 2 c2 2 2 2 1 4 -1 1 -3 2 -3 2 0
0 -2 -1 -3 -2z"/><path d="M194 190 c-2 -2 -2 -2 0 -4 0 -1 2 -2 4 -2 1 0 2 -1 2 -2 0 -3 3 -6
6 -6 2 0 2 -1 2 -6 l0 -6 6 -6 c6 -6 6 -6 8 -4 1 1 2 3 2 6 0 4 0 5 -6 10 -3
4 -7 6 -8 6 -1 0 -2 1 -2 2 0 3 -3 6 -6 6 -1 0 -2 1 -2 2 0 2 -3 6 -4 6 0 0
-2 -1 -2 -2z"/><path d="M297 182 c-1 -2 -1 -2 1 -4 l2 -2 2 2 c2 2 2 2 1 4 -1 1 -3 2 -3 2 0
0 -2 -1 -3 -2z"/><path d="M290 166 c-1 -1 -2 -3 -2 -4 0 -1 -1 -2 -2 -2 -2 0 -4 -1 -6 -4 -3
-4 -4 -4 -8 -4 -3 0 -5 -1 -7 -2 -1 -2 -1 -2 3 -6 4 -3 4 -4 4 -10 0 -8 -2 -8
-8 -2 -4 4 -4 4 -6 3 -2 -2 -2 -3 -2 -9 l0 -6 -8 0 c-10 0 -11 2 -4 8 4 4 4 4
3 6 -2 2 -3 2 -9 2 l-6 0 0 4 c0 4 0 4 2 4 2 0 4 1 5 2 1 2 1 2 -1 4 -2 2 -2
2 -4 1 -1 -1 -2 -3 -2 -5 0 -1 -1 -2 -2 -2 -2 0 -4 -1 -4 -2 -2 -2 -2 -2 0 -4
0 -1 2 -2 4 -2 2 0 2 0 2 -6 0 -7 2 -10 6 -10 1 0 2 -1 2 -2 0 -2 1 -4 4 -6 4
-3 4 -4 4 -8 0 -3 1 -5 2 -6 2 -2 2 -2 8 4 l6 6 -4 4 c-6 6 -6 8 2 8 7 0 10 2
10 6 0 1 1 2 2 2 4 0 6 3 6 8 0 4 0 5 4 8 4 3 4 3 4 10 0 6 0 6 2 6 2 0 4 1 5
2 1 2 1 2 0 4 -3 2 -3 2 -5 0z"/></g>
  <g transform="scale(0.125 0.125) translate(0.000000,512.000000) scale(1.000000,-1.000000)" fill="#f7f7f7" stroke="none"><path d="M234 430 c-2 -2 -2 -2 4 -8 l6 -6 4 4 4 5 4 -5 4 -4 6 6 c6 6 6 6 4
8 -1 2 -3 2 -18 2 -15 0 -17 0 -18 -2z"/><path d="M282 422 c-2 -2 -2 -2 0 -4 0 -1 2 -2 4 -2 1 0 2 -1 2 -2 0 -2 1 -4
2 -5 2 -1 2 -1 4 1 2 2 2 2 1 4 -1 1 -3 2 -5 2 -1 0 -2 1 -2 2 0 2 -3 6 -4 6
0 0 -2 -1 -2 -2z"/><path d="M209 414 c-1 -2 -1 -2 1 -4 l2 -2 2 2 c2 2 2 2 1 4 -1 1 -3 2 -3 2 0
0 -2 -1 -3 -2z"/><path d="M185 406 c-1 -2 -1 -2 1 -4 l2 -2 2 2 c2 2 2 2 1 4 -1 1 -3 2 -3 2 0
0 -2 -1 -3 -2z"/><path d="M313 406 c-1 -2 -1 -2 1 -4 l2 -2 2 2 c2 2 2 2 1 4 -1 1 -3 2 -3 2 0
0 -2 -1 -3 -2z"/><path d="M169 398 c-1 -2 -1 -2 1 -4 l2 -2 2 2 c2 2 2 2 1 4 -1 1 -3 2 -3 2 0
0 -2 -1 -3 -2z"/><path d="M330 398 c-2 -2 -2 -2 0 -4 0 -1 2 -2 4 -2 1 0 2 -1 2 -2 0 -2 1 -4
2 -5 2 -1 2 -1 4 1 2 2 2 2 1 4 -1 1 -3 2 -5 2 -1 0 -2 1 -2 2 0 2 -3 6 -4 6
0 0 -2 -1 -2 -2z"/><path d="M353 382 c-1 -2 -1 -2 1 -4 l2 -2 2 2 c2 2 2 2 1 4 -1 1 -3 2 -3 2 0
0 -2 -1 -3 -2z"/><path d="M121 358 c-1 -2 -1 -2 1 -4 l2 -2 2 2 c2 2 2 2 1 4 -1 1 -3 2 -3 2 0
0 -2 -1 -3 -2z"/><path d="M114 342 c-3 -3 -3 -10 0 -12 3 -3 6 0 6 6 0 7 -3 10 -6 6z"/><path d="M386 342 c-3 -2 -3 -10 0 -12 2 -3 10 -3 12 0 2 2 2 2 -4 8 -7 7 -6
7 -8 4z"/><path d="M105 318 c-1 -2 -1 -2 1 -4 l2 -2 2 2 c2 2 2 2 1 4 -1 1 -3 2 -3 2 0
0 -2 -1 -3 -2z"/><path d="M394 318 c-2 -2 -2 -2 0 -4 0 -1 2 -2 4 -2 2 0 2 0 2 -12 0 -12 0
-12 -2 -12 -2 0 -4 -1 -5 -2 -1 -2 -1 -2 1 -4 2 -2 2 -2 4 -1 1 1 2 3 2 5 0 1
1 2 2 2 5 0 6 3 6 12 0 9 -1 12 -6 12 -1 0 -2 1 -2 2 0 2 -3 6 -4 6 0 0 -2 -1
-2 -2z"/><path d="M113 270 c-1 -2 -1 -2 1 -4 l2 -2 2 2 c2 2 2 2 1 4 -1 1 -3 2 -3 2 0
0 -2 -1 -3 -2z"/><path d="M386 270 c-2 -2 -2 -2 0 -4 0 -1 2 -2 4 -2 1 0 2 -1 2 -2 0 -2 1 -4
2 -5 2 -1 2 -1 4 1 2 2 2 2 1 4 -1 1 -3 2 -5 2 -1 0 -2 1 -2 2 0 2 -3 6 -4 6
0 0 -2 -1 -2 -2z"/><path d="M121 254 c-1 -2 -1 -2 1 -4 l2 -2 2 2 c2 2 2 2 1 4 -1 1 -3 2 -3 2 0
0 -2 -1 -3 -2z"/><path d="M377 254 c-1 -2 -1 -2 1 -4 l2 -2 2 2 c2 2 2 2 1 4 -1 1 -3 2 -3 2 0
0 -2 -1 -3 -2z"/><path d="M130 238 c-3 -3 -3 -10 0 -12 3 -3 6 0 6 6 0 7 -3 10 -6 6z"/><path d="M362 230 c-1 -1 -2 -3 -2 -4 0 -1 -1 -2 -2 -2 -1 0 -6 -4 -12 -10
-10 -10 -10 -10 -8 -12 1 -2 3 -2 10 -2 12 0 12 0 12 14 l0 10 6 0 c8 0 12 3
9 6 -3 3 -11 3 -13 0z"/><path d="M146 222 c-4 -4 -2 -14 4 -14 1 0 2 -1 2 -2 0 -2 1 -4 2 -5 2 -1 2
-1 4 1 2 2 2 2 1 4 -1 1 -3 2 -5 2 -2 0 -2 0 -2 6 0 5 0 7 -2 8 -2 2 -2 2 -4
0z"/><path d="M177 198 c-1 -2 -1 -2 1 -4 l2 -2 2 2 c2 2 2 2 1 4 -1 1 -3 2 -3 2 0
0 -2 -1 -3 -2z"/><path d="M321 198 c-1 -2 -1 -2 1 -4 l2 -2 2 2 c2 2 2 2 1 4 -1 1 -3 2 -3 2 0
0 -2 -1 -3 -2z"/><path d="M194 190 c-2 -2 -2 -2 0 -4 0 -1 2 -2 4 -2 1 0 2 -1 2 -2 0 -3 3 -6
6 -6 2 0 2 -1 2 -6 l0 -6 6 -6 c6 -6 6 -6 8 -4 1 1 2 3 2 6 0 4 0 5 -6 10 -3
4 -7 6 -8 6 -1 0 -2 1 -2 2 0 3 -3 6 -6 6 -1 0 -2 1 -2 2 0 2 -3 6 -4 6 0 0
-2 -1 -2 -2z"/><path d="M297 182 c-1 -2 -1 -2 1 -4 l2 -2 2 2 c2 2 2 2 1 4 -1 1 -3 2 -3 2 0
0 -2 -1 -3 -2z"/><path d="M290 166 c-1 -1 -2 -3 -2 -4 0 -1 -1 -2 -2 -2 -2 0 -4 -1 -6 -4 -3
-4 -4 -4 -8 -4 -3 0 -5 -1 -7 -2 -1 -2 -1 -2 3 -6 4 -3 4 -4 4 -10 0 -8 -2 -8
-8 -2 -4 4 -4 4 -6 3 -2 -2 -2 -3 -2 -9 l0 -6 -8 0 c-10 0 -11 2 -4 8 4 4 4 4
3 6 -2 2 -3 2 -9 2 l-6 0 0 4 c0 4 0 4 2 4 2 0 4 1 5 2 1 2 1 2 -1 4 -2 2 -2
2 -4 1 -1 -1 -2 -3 -2 -5 0 -1 -1 -2 -2 -2 -2 0 -4 -1 -4 -2 -2 -2 -2 -2 0 -4
0 -1 2 -2 4 -2 2 0 2 0 2 -6 0 -7 2 -10 6 -10 1 0 2 -1 2 -2 0 -2 1 -4 4 -6 4
-3 4 -4 4 -8 0 -3 1 -5 2 -6 2 -2 2 -2 8 4 l6 6 -4 4 c-6 6 -6 8 2 8 7 0 10 2
10 6 0 1 1 2 2 2 4 0 6 3 6 8 0 4 0 5 4 8 4 3 4 3 4 10 0 6 0 6 2 6 2 0 4 1 5
2 1 2 1 2 0 4 -3 2 -3 2 -5 0z"/></g>
  <g transform="scale(0.125 0.125) translate(0.000000,512.000000) scale(1.000000,-1.000000)" fill="#7b7a7a" stroke="none"><path d="M234 430 c-2 -2 -2 -2 0 -4 1 -2 3 -2 18 -2 15 0 17 0 19 2 1 2 1 2
0 4 -2 2 -4 2 -19 2 -15 0 -17 0 -18 -2z"/><path d="M282 422 c-2 -2 -2 -2 0 -4 0 -1 2 -2 4 -2 1 0 2 -1 2 -2 0 -2 1 -4
2 -5 2 -1 2 -1 4 1 2 2 2 2 1 4 -1 1 -3 2 -5 2 -1 0 -2 1 -2 2 0 2 -3 6 -4 6
0 0 -2 -1 -2 -2z"/><path d="M209 414 c-1 -2 -1 -2 1 -4 l2 -2 2 2 c2 2 2 2 1 4 -1 1 -3 2 -3 2 0
0 -2 -1 -3 -2z"/><path d="M330 398 c-2 -2 -2 -2 0 -4 0 -1 2 -2 4 -2 1 0 2 -1 2 -2 0 -2 1 -4
2 -5 2 -1 2 -1 4 1 2 2 2 2 1 4 -1 1 -3 2 -5 2 -1 0 -2 1 -2 2 0 2 -3 6 -4 6
0 0 -2 -1 -2 -2z"/><path d="M121 358 c-1 -2 -1 -2 1 -4 l2 -2 2 2 c2 2 2 2 1 4 -1 1 -3 2 -3 2 0
0 -2 -1 -3 -2z"/><path d="M113 342 c-1 -2 -1 -2 1 -4 l2 -2 2 2 c2 2 2 2 1 4 -1 1 -3 2 -3 2 0
0 -2 -1 -3 -2z"/><path d="M386 342 c-2 -2 -2 -2 0 -4 0 -1 2 -2 4 -2 1 0 2 -1 2 -2 0 -2 1 -4
2 -5 2 -1 2 -1 4 1 2 2 2 2 1 4 -1 1 -3 2 -5 2 -1 0 -2 1 -2 2 0 2 -3 6 -4 6
0 0 -2 -1 -2 -2z"/><path d="M105 318 c-1 -2 -1 -2 1 -4 l2 -2 2 2 c2 2 2 2 1 4 -1 1 -3 2 -3 2 0
0 -2 -1 -3 -2z"/><path d="M394 318 c-2 -2 -2 -2 0 -4 0 -1 2 -2 4 -2 2 0 2 0 2 -12 0 -12 0
-12 -2 -12 -2 0 -4 -1 -5 -2 -1 -2 -1 -2 1 -4 2 -2 2 -2 4 -1 1 1 2 3 2 5 0 1
1 2 2 2 5 0 6 3 6 12 0 9 -1 12 -6 12 -1 0 -2 1 -2 2 0 2 -3 6 -4 6 0 0 -2 -1
-2 -2z"/><path d="M113 270 c-1 -2 -1 -2 1 -4 l2 -2 2 2 c2 2 2 2 1 4 -1 1 -3 2 -3 2 0
0 -2 -1 -3 -2z"/><path d="M386 270 c-2 -2 -2 -2 0 -4 0 -1 2 -2 4 -2 1 0 2 -1 2 -2 0 -2 1 -4
2 -5 2 -1 2 -1 4 1 2 2 2 2 1 4 -1 1 -3 2 -5 2 -1 0 -2 1 -2 2 0 2 -3 6 -4 6
0 0 -2 -1 -2 -2z"/><path d="M377 254 c-1 -2 -1 -2 1 -4 l2 -2 2 2 c2 2 2 2 1 4 -1 1 -3 2 -3 2 0
0 -2 -1 -3 -2z"/><path d="M129 230 c-1 -2 -1 -2 1 -4 l2 -2 2 2 c2 2 2 2 1 4 -1 1 -3 2 -3 2 0
0 -2 -1 -3 -2z"/><path d="M362 230 c-3 -3 0 -6 6 -6 6 0 9 3 7 6 -2 1 -4 2 -7 2 -3 0 -5 -1 -6
-2z"/><path d="M146 214 c-2 -2 -2 -2 0 -4 0 -1 2 -2 4 -2 1 0 2 -1 2 -2 0 -2 1 -4
2 -5 2 -1 2 -1 4 1 2 2 2 2 1 4 -1 1 -3 2 -5 2 -1 0 -2 1 -2 2 0 2 -3 6 -4 6
0 0 -2 -1 -2 -2z"/><path d="M350 210 c-6 -6 -6 -6 -4 -8 2 -3 10 -3 12 0 3 2 3 10 0 12 -2 2 -2
3 -8 -4z"/><path d="M194 190 c-2 -2 -2 -2 0 -4 0 -1 2 -2 4 -2 1 0 2 -1 2 -2 0 -3 3 -6
6 -6 2 0 2 -1 2 -6 l0 -6 6 -6 c6 -6 6 -6 8 -4 1 1 2 3 2 6 0 4 0 5 -6 10 -3
4 -7 6 -8 6 -1 0 -2 1 -2 2 0 3 -3 6 -6 6 -1 0 -2 1 -2 2 0 2 -3 6 -4 6 0 0
-2 -1 -2 -2z"/><path d="M297 182 c-1 -2 -1 -2 1 -4 l2 -2 2 2 c2 2 2 2 1 4 -1 1 -3 2 -3 2 0
0 -2 -1 -3 -2z"/><path d="M290 166 c-1 -1 -2 -3 -2 -4 0 -1 -1 -2 -2 -2 -2 0 -4 -1 -6 -4 -3
-4 -4 -4 -8 -4 -3 0 -5 -1 -7 -2 -1 -2 -1 -2 3 -6 4 -3 4 -4 4 -10 l0 -6 -6 0
c-7 0 -10 -2 -10 -6 0 -2 0 -2 -8 -2 l-8 0 0 6 c0 7 -2 10 -6 10 -1 0 -2 1 -2
2 0 2 -1 4 -2 5 -2 1 -2 1 -4 -1 -2 -2 -2 -2 -1 -4 1 -1 3 -2 5 -2 2 0 2 0 2
-6 0 -7 2 -10 6 -10 1 0 2 -1 2 -2 0 -2 1 -4 4 -6 4 -3 4 -4 4 -8 0 -3 1 -5 2
-6 2 -2 2 -2 8 4 l6 6 -4 4 c-6 6 -6 8 2 8 7 0 10 2 10 6 0 1 1 2 2 2 4 0 6 3
6 8 0 4 0 5 4 8 4 3 4 3 4 10 0 6 0 6 2 6 2 0 4 1 5 2 1 2 1 2 0 4 -3 2 -3 2
-5 0z"/></g>
  <g transform="scale(0.125 0.125) translate(0.000000,512.000000) scale(1.000000,-1.000000)" fill="#000000" stroke="none"><path d="M234 430 c-2 -2 -2 -2 0 -4 1 -2 3 -2 18 -2 15 0 17 0 19 2 1 2 1 2
0 4 -2 2 -4 2 -19 2 -15 0 -17 0 -18 -2z"/><path d="M209 414 c-1 -2 -1 -2 1 -4 l2 -2 2 2 c2 2 2 2 1 4 -1 1 -3 2 -3 2 0
0 -2 -1 -3 -2z"/><path d="M289 414 c-1 -2 -1 -2 1 -4 l2 -2 2 2 c2 2 2 2 1 4 -1 1 -3 2 -3 2 0
0 -2 -1 -3 -2z"/><path d="M330 398 c-2 -2 -2 -2 0 -4 0 -1 2 -2 4 -2 1 0 2 -1 2 -2 0 -2 1 -4
2 -5 2 -1 2 -1 4 1 2 2 2 2 1 4 -1 1 -3 2 -5 2 -1 0 -2 1 -2 2 0 2 -3 6 -4 6
0 0 -2 -1 -2 -2z"/><path d="M393 334 c-1 -2 -1 -2 1 -4 l2 -2 2 2 c2 2 2 2 1 4 -1 1 -3 2 -3 2 0
0 -2 -1 -3 -2z"/><path d="M402 310 c-3 -3 -3 -18 0 -20 2 -2 2 -2 4 0 3 2 3 18 0 20 -2 2 -2 2
-4 0z"/><path d="M113 270 c-1 -2 -1 -2 1 -4 l2 -2 2 2 c2 2 2 2 1 4 -1 1 -3 2 -3 2 0
0 -2 -1 -3 -2z"/><path d="M386 270 c-2 -2 -2 -2 0 -4 0 -1 2 -2 4 -2 1 0 2 -1 2 -2 0 -2 1 -4
2 -5 2 -1 2 -1 4 1 2 2 2 2 1 4 -1 1 -3 2 -5 2 -1 0 -2 1 -2 2 0 2 -3 6 -4 6
0 0 -2 -1 -2 -2z"/><path d="M377 254 c-1 -2 -1 -2 1 -4 l2 -2 2 2 c2 2 2 2 1 4 -1 1 -3 2 -3 2 0
0 -2 -1 -3 -2z"/><path d="M361 230 c-1 -2 -1 -2 1 -4 l2 -2 2 2 c2 2 2 2 1 4 -1 1 -3 2 -3 2 0
0 -2 -1 -3 -2z"/><path d="M353 206 c-1 -2 -1 -2 1 -4 l2 -2 2 2 c2 2 2 2 1 4 -1 1 -3 2 -3 2 0
0 -2 -1 -3 -2z"/><path d="M193 190 c-1 -2 -1 -2 1 -4 l2 -2 2 2 c2 2 2 2 1 4 -1 1 -3 2 -3 2 0
0 -2 -1 -3 -2z"/><path d="M210 174 c-4 -4 -3 -10 4 -16 6 -6 6 -6 8 -4 1 1 2 3 2 6 0 4 0 5 -6
10 -7 7 -6 7 -8 4z"/><path d="M290 166 c-1 -1 -2 -3 -2 -4 0 -1 -1 -2 -2 -2 -4 0 -6 -3 -6 -10 l0
-6 -4 0 c-4 0 -4 0 -4 2 0 2 -1 4 -2 5 -2 1 -2 1 -4 -1 -2 -2 -2 -2 -1 -4 1
-1 3 -2 5 -2 2 0 2 0 2 -8 0 -8 0 -8 -2 -8 -2 0 -4 -1 -5 -2 -1 -2 -1 -2 1 -4
2 -2 2 -2 4 -1 1 1 2 3 2 5 0 1 1 2 2 2 4 0 6 3 6 10 0 6 0 6 2 6 4 0 6 3 6
10 0 6 0 6 2 6 2 0 4 1 5 2 1 2 1 2 0 4 -3 2 -3 2 -5 0z"/><path d="M226 142 c-2 -2 -2 -2 0 -4 0 -1 2 -2 4 -2 2 0 2 0 2 -6 0 -7 2 -10
6 -10 1 0 2 -1 2 -2 0 -3 3 -6 6 -6 2 0 2 0 2 -6 0 -5 0 -7 2 -8 2 -2 2 -2 8
4 6 6 6 6 4 8 -1 2 -3 2 -8 2 -6 0 -6 0 -6 2 0 3 -3 6 -6 6 -2 0 -2 0 -2 6 0
7 -2 10 -6 10 -1 0 -2 1 -2 2 0 2 -3 6 -4 6 0 0 -2 -1 -2 -2z"/></g>
  <g transform="scale(0.125 0.125) translate(0.000000,512.000000) scale(1.000000,-1.000000)" fill="#060606" stroke="none"><path d="M234 430 c-2 -2 -2 -2 0 -4 1 -2 3 -2 18 -2 15 0 17 0 19 2 1 2 1 2
0 4 -2 2 -4 2 -19 2 -15 0 -17 0 -18 -2z"/><path d="M209 414 c-1 -2 -1 -2 1 -4 l2 -2 2 2 c2 2 2 2 1 4 -1 1 -3 2 -3 2 0
0 -2 -1 -3 -2z"/><path d="M289 414 c-1 -2 -1 -2 1 -4 l2 -2 2 2 c2 2 2 2 1 4 -1 1 -3 2 -3 2 0
0 -2 -1 -3 -2z"/><path d="M330 398 c-2 -2 -2 -2 0 -4 0 -1 2 -2 4 -2 1 0 2 -1 2 -2 0 -2 1 -4
2 -5 2 -1 2 -1 4 1 2 2 2 2 1 4 -1 1 -3 2 -5 2 -1 0 -2 1 -2 2 0 2 -3 6 -4 6
0 0 -2 -1 -2 -2z"/><path d="M393 334 c-1 -2 -1 -2 1 -4 l2 -2 2 2 c2 2 2 2 1 4 -1 1 -3 2 -3 2 0
0 -2 -1 -3 -2z"/><path d="M113 270 c-1 -2 -1 -2 1 -4 l2 -2 2 2 c2 2 2 2 1 4 -1 1 -3 2 -3 2 0
0 -2 -1 -3 -2z"/><path d="M386 270 c-2 -2 -2 -2 0 -4 0 -1 2 -2 4 -2 1 0 2 -1 2 -2 0 -2 1 -4
2 -5 2 -1 2 -1 4 1 2 2 2 2 1 4 -1 1 -3 2 -5 2 -1 0 -2 1 -2 2 0 2 -3 6 -4 6
0 0 -2 -1 -2 -2z"/><path d="M377 254 c-1 -2 -1 -2 1 -4 l2 -2 2 2 c2 2 2 2 1 4 -1 1 -3 2 -3 2 0
0 -2 -1 -3 -2z"/><path d="M361 230 c-1 -2 -1 -2 1 -4 l2 -2 2 2 c2 2 2 2 1 4 -1 1 -3 2 -3 2 0
0 -2 -1 -3 -2z"/><path d="M353 206 c-1 -2 -1 -2 1 -4 l2 -2 2 2 c2 2 2 2 1 4 -1 1 -3 2 -3 2 0
0 -2 -1 -3 -2z"/><path d="M193 190 c-1 -2 -1 -2 1 -4 l2 -2 2 2 c2 2 2 2 1 4 -1 1 -3 2 -3 2 0
0 -2 -1 -3 -2z"/><path d="M210 174 c-3 -2 -3 -10 0 -12 2 -3 10 -3 12 0 2 2 2 2 -4 8 -7 7 -6
7 -8 4z"/><path d="M281 158 c-1 -2 -1 -2 1 -4 l2 -2 2 2 c2 2 2 2 1 4 -1 1 -3 2 -3 2 0
0 -2 -1 -3 -2z"/><path d="M265 150 c-1 -2 -1 -2 1 -4 l2 -2 2 2 c2 2 2 2 1 4 -1 1 -3 2 -3 2 0
0 -2 -1 -3 -2z"/><path d="M273 134 c-1 -2 -1 -2 1 -4 l2 -2 2 2 c2 2 2 2 1 4 -1 1 -3 2 -3 2 0
0 -2 -1 -3 -2z"/></g>
  <g transform="scale(0.125 0.125) translate(0.000000,512.000000) scale(1.000000,-1.000000)" fill="#fdfdfd" stroke="none"><path d="M209 414 c-1 -2 -1 -2 1 -4 l2 -2 2 2 c2 2 2 2 1 4 -1 1 -3 2 -3 2 0
0 -2 -1 -3 -2z"/><path d="M289 414 c-1 -2 -1 -2 1 -4 l2 -2 2 2 c2 2 2 2 1 4 -1 1 -3 2 -3 2 0
0 -2 -1 -3 -2z"/><path d="M330 398 c-2 -2 -2 -2 0 -4 0 -1 2 -2 4 -2 1 0 2 -1 2 -2 0 -2 1 -4
2 -5 2 -1 2 -1 4 1 2 2 2 2 1 4 -1 1 -3 2 -5 2 -1 0 -2 1 -2 2 0 2 -3 6 -4 6
0 0 -2 -1 -2 -2z"/><path d="M113 270 c-1 -2 -1 -2 1 -4 l2 -2 2 2 c2 2 2 2 1 4 -1 1 -3 2 -3 2 0
0 -2 -1 -3 -2z"/><path d="M385 270 c-1 -2 -1 -2 1 -4 l2 -2 2 2 c2 2 2 2 1 4 -1 1 -3 2 -3 2 0
0 -2 -1 -3 -2z"/><path d="M377 254 c-1 -2 -1 -2 1 -4 l2 -2 2 2 c2 2 2 2 1 4 -1 1 -3 2 -3 2 0
0 -2 -1 -3 -2z"/><path d="M361 230 c-1 -2 -1 -2 1 -4 l2 -2 2 2 c2 2 2 2 1 4 -1 1 -3 2 -3 2 0
0 -2 -1 -3 -2z"/><path d="M193 190 c-1 -2 -1 -2 1 -4 l2 -2 2 2 c2 2 2 2 1 4 -1 1 -3 2 -3 2 0
0 -2 -1 -3 -2z"/><path d="M265 150 c-1 -2 -1 -2 1 -4 l2 -2 2 2 c2 2 2 2 1 4 -1 1 -3 2 -3 2 0
0 -2 -1 -3 -2z"/></g>
</svg>
