<?xml version="1.0" encoding="UTF-8"?>
<svg xmlns="http://www.w3.org/2000/svg" viewBox="0 0 64 64" width="64" height="64">
  <g transform="scale(0.125 0.125) translate(0.000000,512.000000) scale(1.000000,-1.000000)" fill="#ffffff" stroke="none"><path d="M216 396 l-3 -4 -9 0 -9 0 -3 -4 c-3 -4 -4 -4 -8 -4 l-4 0 -22 -22
-22 -22 0 -4 c0 -4 0 -5 -4 -8 l-4 -3 0 -29 0 -29 4 -3 4 -3 0 -9 0 -8 22 -22
22 -22 4 0 c4 0 5 0 8 -4 l3 -4 9 0 c10 0 12 -1 12 -8 0 -4 0 -5 8 -12 8 -7 8
-8 8 -12 0 -4 0 -5 4 -8 4 -3 4 -4 4 -8 0 -4 0 -5 6 -10 l6 -6 6 6 c5 5 6 6 6
10 0 4 0 5 8 12 8 7 8 8 8 12 0 4 0 5 4 8 4 3 4 4 4 8 0 7 2 8 12 8 l9 0 3 4
c3 4 4 4 8 4 l4 0 22 22 22 22 0 4 c0 4 0 5 4 8 l4 3 0 33 0 33 -4 3 c-4 3 -4
4 -4 8 l0 4 -22 22 -22 22 -4 0 c-4 0 -5 0 -8 4 l-3 4 -9 0 -9 0 -3 4 -3 4
-33 0 -33 0 -3 -4z"/></g>
  <g transform="scale(0.125 0.125) translate(0.000000,512.000000) scale(1.000000,-1.000000)" fill="#4c4c4c" stroke="none"><path d="M216 396 l-3 -4 -9 0 -9 0 -3 -4 c-3 -4 -4 -4 -8 -4 l-4 0 -22 -22
-22 -22 0 -4 c0 -4 0 -5 -4 -8 l-4 -3 0 -29 0 -29 4 -3 4 -3 0 -9 0 -8 22 -22
22 -22 4 0 c4 0 5 0 8 -4 l3 -4 9 0 c10 0 12 -1 12 -8 0 -4 0 -5 8 -12 8 -7 8
-8 8 -12 0 -4 0 -5 4 -8 4 -3 4 -4 4 -8 0 -4 0 -5 6 -10 l6 -6 6 6 c5 5 6 6 6
10 0 4 0 5 8 12 8 7 8 8 8 12 0 4 0 5 4 8 4 3 4 4 4 8 0 7 2 8 12 8 l9 0 3 4
c3 4 4 4 8 4 l4 0 22 22 22 22 0 4 c0 4 0 5 4 8 l4 3 0 33 0 33 -4 3 c-4 3 -4
4 -4 8 l0 4 -22 22 -22 22 -4 0 c-4 0 -5 0 -8 4 l-3 4 -9 0 -9 0 -3 4 -3 4
-33 0 -33 0 -3 -4z m64 -8 c3 -4 4 -4 8 -4 4 0 5 0 8 -4 l3 -4 9 0 8 0 18 -18
c18 -18 18 -18 18 -22 0 -4 0 -5 8 -12 l8 -8 0 -20 0 -21 -4 -3 c-4 -3 -4 -4
-4 -8 0 -4 0 -5 -4 -8 -4 -3 -4 -4 -4 -8 0 -4 0 -4 -18 -22 l-18 -18 -8 0 -9
0 -3 -4 c-3 -4 -4 -4 -8 -4 -6 0 -8 -2 -8 -8 0 -4 0 -5 -4 -8 -4 -3 -4 -4 -4
-8 0 -4 0 -4 -10 -14 l-10 -10 -6 6 c-6 5 -6 6 -6 10 0 4 0 5 -4 8 -4 3 -4 4
-4 8 0 4 0 5 -6 10 -5 6 -6 6 -10 6 -4 0 -5 0 -8 4 l-3 4 -9 0 -8 0 -18 18
c-18 18 -18 18 -18 22 0 4 0 5 -4 8 -4 3 -4 4 -4 8 0 4 0 5 -4 8 l-4 3 0 21 0
20 8 8 c8 7 8 8 8 12 0 4 0 4 18 22 l18 18 8 0 9 0 3 4 c3 4 4 4 8 4 4 0 5 0
8 4 l3 4 25 0 25 0 3 -4z"/></g>
  <g transform="scale(0.125 0.125) translate(0.000000,512.000000) scale(1.000000,-1.000000)" fill="#b1b1b1" stroke="none"><path d="M216 396 l-3 -4 -9 0 c-10 0 -12 -1 -12 -8 0 -6 2 -8 8 -8 4 0 5 0 8
4 3 4 4 4 8 4 6 0 8 2 8 8 0 3 -1 5 -2 6 -2 3 -2 3 -6 -2z"/><path d="M249 398 c-1 -2 -1 -2 1 -4 l2 -2 2 2 c2 2 2 2 1 4 -1 1 -3 2 -3 2 0
0 -2 -1 -3 -2z"/><path d="M282 398 c-1 -1 -2 -3 -2 -6 0 -6 2 -8 8 -8 4 0 5 0 8 -4 l3 -4 9 0
8 0 12 -12 c8 -8 12 -12 14 -12 1 0 2 -1 2 -2 0 -2 1 -4 4 -6 4 -3 4 -4 4 -8
0 -5 2 -8 6 -8 1 0 2 -1 2 -2 0 -1 3 -5 6 -8 6 -6 6 -6 8 -4 1 1 2 3 2 6 0 6
-2 8 -10 8 l-6 0 0 10 c0 13 -1 14 -10 14 l-6 0 0 6 0 6 -10 10 c-10 10 -10
10 -14 10 -4 0 -5 0 -8 4 l-3 4 -9 0 -9 0 -3 4 c-4 5 -4 5 -6 2z"/><path d="M170 374 l-10 -10 0 -6 0 -6 -6 0 c-8 0 -10 -2 -10 -8 0 -4 0 -5 -8
-12 -8 -7 -8 -8 -8 -12 0 -3 1 -5 2 -6 2 -2 2 -2 12 8 10 10 10 10 10 14 0 4
0 5 4 8 3 2 4 4 4 6 0 1 1 2 2 2 1 0 6 4 12 10 10 10 10 10 10 14 0 4 -2 8 -4
8 0 0 -5 -5 -10 -10z"/><path d="M370 302 c-3 -3 -3 -18 0 -20 2 -2 2 -2 4 0 3 2 3 18 0 20 -2 2 -2 2
-4 0z"/><path d="M130 294 c-3 -3 -3 -10 0 -12 3 -3 6 0 6 6 0 7 -3 10 -6 6z"/><path d="M129 270 c-1 -2 -1 -2 3 -6 l4 -3 0 -9 0 -8 6 -6 6 -6 6 0 6 0 0 -6
0 -6 10 -10 c10 -10 10 -10 12 -8 1 1 2 3 2 6 0 4 0 4 -10 14 -6 6 -11 10 -12
10 -1 0 -2 1 -2 2 0 2 -1 4 -4 6 -4 3 -4 4 -4 8 0 4 0 5 -4 8 -4 3 -4 4 -4 8
0 6 -2 8 -8 8 -3 0 -5 -1 -7 -2z"/><path d="M362 270 c-1 -1 -2 -3 -2 -6 0 -4 0 -5 -4 -8 -4 -3 -4 -4 -4 -8 0 -4
0 -5 -4 -8 -3 -2 -4 -4 -4 -6 0 -1 -1 -2 -2 -2 -1 0 -6 -4 -12 -10 -10 -10
-10 -10 -10 -14 0 -3 1 -5 2 -6 2 -2 2 -2 12 8 l10 10 0 6 0 6 6 0 c8 0 10 2
10 8 0 4 0 5 8 12 8 7 8 8 8 12 0 6 -2 8 -8 8 -3 0 -5 -1 -6 -2z"/><path d="M194 206 c-1 -1 -2 -3 -2 -6 0 -7 2 -8 12 -8 10 0 12 -1 12 -8 0 -5
2 -8 6 -8 1 0 2 -1 2 -2 0 -2 1 -4 4 -6 4 -3 4 -4 4 -8 0 -4 0 -5 4 -8 4 -3 4
-4 4 -8 0 -4 0 -5 6 -10 l6 -6 6 6 c5 5 6 6 6 10 0 4 0 5 8 12 8 7 8 8 8 12 0
4 0 5 4 8 4 3 4 4 4 8 0 7 2 8 12 8 10 0 12 1 12 8 0 6 -2 8 -8 8 -4 0 -5 0
-8 -4 -3 -4 -4 -4 -8 -4 -6 0 -8 -2 -8 -8 0 -4 0 -5 -4 -8 -4 -3 -4 -4 -4 -8
0 -4 0 -4 -10 -14 l-10 -10 -6 6 c-6 5 -6 6 -6 10 0 6 -2 8 -10 8 -8 0 -8 3
-2 8 l4 4 -6 6 c-5 6 -6 6 -10 6 -4 0 -5 0 -8 4 -3 4 -4 4 -8 4 -3 0 -5 -1 -6
-2z"/></g>
  <g transform="scale(0.125 0.125) translate(0.000000,512.000000) scale(1.000000,-1.000000)" fill="#363636" stroke="none"><path d="M218 398 c-3 -3 -3 -10 0 -12 3 -3 6 0 6 6 0 7 -3 10 -6 6z"/><path d="M249 398 c-1 -2 -1 -2 1 -4 l2 -2 2 2 c2 2 2 2 1 4 -1 1 -3 2 -3 2 0
0 -2 -1 -3 -2z"/><path d="M282 398 c-3 -3 -3 -10 0 -12 3 -3 6 0 6 6 0 7 -3 10 -6 6z"/><path d="M194 390 c-3 -2 -3 -10 0 -12 2 -3 10 -3 12 0 3 2 3 10 0 12 -2 3
-10 3 -12 0z"/><path d="M298 390 c-3 -2 -3 -10 0 -12 1 -2 4 -2 16 -2 l14 0 0 -6 0 -6 6 -6
c3 -4 7 -6 8 -6 1 0 2 -1 2 -2 0 -2 1 -4 4 -6 4 -3 4 -4 4 -8 0 -6 3 -9 6 -6
2 1 2 3 2 10 0 11 -1 12 -10 12 l-6 0 0 6 0 6 -6 6 c-3 4 -7 6 -8 6 -1 0 -2 1
-2 2 0 4 -3 6 -8 6 -4 0 -5 0 -8 4 -3 4 -4 4 -8 4 -3 0 -5 -1 -6 -2z"/><path d="M178 382 c-1 -1 -2 -3 -2 -4 0 -1 -1 -2 -2 -2 -1 0 -5 -2 -8 -6 l-6
-6 0 -6 0 -6 -6 0 c-8 0 -12 -3 -8 -6 4 -5 14 -2 14 4 0 1 1 2 2 2 1 0 5 2 8
6 l6 6 0 6 c0 6 0 6 2 6 2 0 4 1 5 2 1 2 1 2 0 4 -3 2 -3 2 -5 0z"/><path d="M138 334 c-1 -1 -2 -3 -2 -4 0 -1 -1 -2 -2 -2 -6 0 -8 -10 -4 -14 3
-4 6 0 6 8 l0 6 6 0 c8 0 12 3 9 6 -3 3 -11 3 -13 0z"/><path d="M370 326 c-3 -3 -3 -10 0 -12 3 -3 6 0 6 6 0 7 -3 10 -6 6z"/><path d="M370 302 c-3 -3 -3 -18 0 -20 2 -2 2 -2 4 0 3 2 3 18 0 20 -2 2 -2 2
-4 0z"/><path d="M130 294 c-3 -3 -3 -10 0 -12 3 -3 6 0 6 6 0 7 -3 10 -6 6z"/><path d="M130 270 c-3 -3 0 -6 6 -6 3 0 5 1 7 2 2 3 -1 6 -7 6 -3 0 -5 -1 -6
-2z"/><path d="M361 270 c-1 -2 -1 -2 3 -6 6 -6 6 -8 -2 -8 -8 0 -12 -3 -8 -6 4 -5
14 -2 14 4 0 1 1 2 2 2 6 0 8 10 4 14 -3 3 -10 3 -13 0z"/><path d="M138 254 c-4 -4 -2 -14 4 -14 1 0 2 -1 2 -2 0 -4 3 -6 10 -6 l6 0 0
-6 0 -6 6 -6 c3 -4 7 -6 8 -6 1 0 2 -1 2 -2 0 -2 1 -4 2 -5 2 -1 2 -1 4 1 2 2
2 2 1 4 -1 1 -3 2 -5 2 -2 0 -2 0 -2 6 l0 6 -6 6 c-3 4 -7 6 -8 6 -1 0 -2 1
-2 2 0 4 -3 6 -10 6 -8 0 -8 3 -2 8 4 4 4 4 3 6 -3 3 -11 3 -13 0z"/><path d="M346 238 c-1 -1 -2 -3 -2 -4 0 -1 -1 -2 -2 -2 -1 0 -5 -2 -8 -6 l-6
-6 0 -6 c0 -6 0 -6 -2 -6 -2 0 -4 -1 -5 -2 -1 -2 -1 -2 1 -4 2 -2 2 -2 4 -1 1
1 2 3 2 5 0 1 1 2 2 2 1 0 5 2 8 6 l6 6 0 6 0 6 6 0 c8 0 12 3 9 6 -3 3 -11 3
-13 0z"/><path d="M198 202 c-6 -6 -6 -6 -4 -8 1 -2 3 -2 10 -2 10 0 12 -1 12 -8 0 -5
2 -8 6 -8 1 0 2 -1 2 -2 0 -2 1 -4 4 -6 4 -3 4 -4 4 -8 0 -4 0 -5 4 -8 4 -3 4
-4 4 -8 0 -4 0 -5 6 -10 l6 -6 6 6 c5 5 6 6 6 10 0 4 0 5 8 12 l8 8 0 6 c0 6
0 6 2 6 4 0 6 3 6 8 0 7 2 8 12 8 7 0 9 0 10 2 2 2 2 2 -4 8 l-6 6 -4 -4 c-3
-4 -4 -4 -8 -4 -7 0 -8 -2 -8 -14 0 -10 0 -10 -2 -10 -2 0 -6 -4 -14 -12 l-12
-12 -6 6 c-6 5 -6 6 -6 10 0 6 -2 8 -10 8 l-6 0 0 10 c0 13 -1 14 -8 14 -4 0
-5 0 -8 4 -2 2 -3 4 -4 4 0 0 -3 -3 -6 -6z"/></g>
  <g transform="scale(0.125 0.125) translate(0.000000,512.000000) scale(1.000000,-1.000000)" fill="#dfdedf" stroke="none"><path d="M249 398 c-1 -2 -1 -2 1 -4 l2 -2 2 2 c2 2 2 2 1 4 -1 1 -3 2 -3 2 0
0 -2 -1 -3 -2z"/><path d="M194 390 c-3 -2 -3 -10 0 -12 2 -3 10 -3 12 0 3 2 3 10 0 12 -2 3
-10 3 -12 0z"/><path d="M217 390 c-1 -2 -1 -2 1 -4 l2 -2 2 2 c2 2 2 2 1 4 -1 1 -3 2 -3 2 0
0 -2 -1 -3 -2z"/><path d="M281 390 c-1 -2 -1 -2 1 -4 l2 -2 2 2 c2 2 2 2 1 4 -1 1 -3 2 -3 2 0
0 -2 -1 -3 -2z"/><path d="M298 390 c-3 -2 -3 -10 0 -12 3 -3 26 -3 29 0 2 3 -1 6 -7 6 -4 0 -5
0 -8 4 -3 4 -4 4 -8 4 -3 0 -5 -1 -6 -2z"/><path d="M177 382 c-1 -2 -1 -2 1 -4 l2 -2 2 2 c2 2 2 2 1 4 -1 1 -3 2 -3 2 0
0 -2 -1 -3 -2z"/><path d="M170 366 c-1 -1 -2 -3 -2 -4 0 -1 -1 -2 -2 -2 -3 0 -6 -3 -6 -6 0 -2
0 -2 -6 -2 -8 0 -12 -3 -8 -6 4 -5 14 -2 14 4 0 1 1 2 2 2 3 0 6 3 6 6 0 1 1
2 2 2 2 0 4 1 5 2 1 2 1 2 0 4 -3 2 -3 2 -5 0z"/><path d="M330 366 c-2 -2 -2 -2 0 -4 0 -1 2 -2 4 -2 1 0 2 -1 2 -2 0 -3 3 -6
6 -6 1 0 2 -1 2 -2 0 -2 1 -4 4 -6 4 -3 4 -4 4 -8 0 -6 3 -9 6 -6 2 1 2 3 2
10 0 11 -1 12 -10 12 -6 0 -6 0 -6 2 0 3 -3 6 -6 6 -1 0 -2 1 -2 2 0 2 -3 6
-4 6 0 0 -2 -1 -2 -2z"/><path d="M145 334 c-1 -2 -1 -2 1 -4 l2 -2 2 2 c2 2 2 2 1 4 -1 1 -3 2 -3 2 0
0 -2 -1 -3 -2z"/><path d="M129 326 c-1 -2 -1 -2 1 -4 l2 -2 2 2 c2 2 2 2 1 4 -1 1 -3 2 -3 2 0
0 -2 -1 -3 -2z"/><path d="M369 326 c-1 -2 -1 -2 1 -4 l2 -2 2 2 c2 2 2 2 1 4 -1 1 -3 2 -3 2 0
0 -2 -1 -3 -2z"/><path d="M370 302 c-3 -3 -3 -18 0 -20 2 -2 2 -2 4 0 3 2 3 18 0 20 -2 2 -2 2
-4 0z"/><path d="M130 294 c-3 -3 -3 -10 0 -12 3 -3 6 0 6 6 0 7 -3 10 -6 6z"/><path d="M137 270 c-1 -2 -1 -2 1 -4 l2 -2 2 2 c2 2 2 2 1 4 -1 1 -3 2 -3 2 0
0 -2 -1 -3 -2z"/><path d="M362 270 c-2 -2 -2 -2 0 -4 0 -1 2 -2 4 -2 1 0 2 -1 2 -2 0 -2 1 -4
2 -5 2 -1 2 -1 4 1 2 2 2 2 1 4 -1 1 -3 2 -5 2 -1 0 -2 1 -2 2 0 2 -3 6 -4 6
0 0 -2 -1 -2 -2z"/><path d="M145 254 c-1 -2 -1 -2 1 -4 l2 -2 2 2 c2 2 2 2 1 4 -3 2 -3 2 -6 0z"/><path d="M353 254 c-1 -2 -1 -2 1 -4 l2 -2 2 2 c2 2 2 2 1 4 -1 1 -3 2 -3 2 0
0 -2 -1 -3 -2z"/><path d="M146 238 c-4 -3 0 -6 8 -6 l6 0 0 -6 c0 -8 2 -10 8 -10 3 0 5 1 6 2
2 2 2 2 -4 8 -3 3 -7 6 -8 6 -1 0 -2 1 -2 2 0 6 -10 8 -14 4z"/><path d="M346 238 c-1 -1 -2 -3 -2 -4 0 -1 -1 -2 -2 -2 -1 0 -5 -2 -8 -6 l-6
-6 0 -6 c0 -6 0 -6 -2 -6 -2 0 -4 -1 -5 -2 -1 -2 -1 -2 1 -4 2 -2 2 -2 4 -1 1
1 2 3 2 5 0 1 1 2 2 2 1 0 5 2 8 6 l6 6 0 6 0 6 6 0 c8 0 12 3 9 6 -3 3 -11 3
-13 0z"/><path d="M177 206 c-1 -2 -1 -2 1 -4 l2 -2 2 2 c2 2 2 2 1 4 -1 1 -3 2 -3 2 0
0 -2 -1 -3 -2z"/><path d="M198 202 c-6 -6 -6 -6 -4 -8 1 -2 3 -2 10 -2 10 0 12 -1 12 -8 0 -5
2 -8 6 -8 1 0 2 -1 2 -2 0 -2 1 -4 4 -6 4 -3 4 -4 4 -8 0 -4 0 -5 4 -8 4 -3 4
-4 4 -8 0 -4 0 -5 6 -10 l6 -6 6 6 c5 5 6 6 6 10 0 4 0 5 8 12 l8 8 0 6 c0 6
0 6 2 6 4 0 6 3 6 8 0 7 2 8 12 8 7 0 9 0 10 2 2 2 2 2 -4 8 l-6 6 -4 -4 c-3
-4 -4 -4 -8 -4 -7 0 -8 -2 -8 -14 0 -10 0 -10 -2 -10 -2 0 -6 -4 -14 -12 l-12
-12 -6 6 c-6 5 -6 6 -6 10 0 6 -2 8 -10 8 l-6 0 0 10 c0 13 -1 14 -8 14 -4 0
-5 0 -8 4 -2 2 -3 4 -4 4 0 0 -3 -3 -6 -6z"/></g>
  <g transform="scale(0.125 0.125) translate(0.000000,512.000000) scale(1.000000,-1.000000)" fill="#222222" stroke="none"><path d="M249 398 c-1 -2 -1 -2 1 -4 l2 -2 2 2 c2 2 2 2 1 4 -1 1 -3 2 -3 2 0
0 -2 -1 -3 -2z"/><path d="M194 390 c-2 -2 -2 -2 4 -8 6 -6 6 -6 8 -4 3 2 3 10 0 12 -2 3 -10 3
-12 0z"/><path d="M217 390 c-1 -2 -1 -2 1 -4 l2 -2 2 2 c2 2 2 2 1 4 -1 1 -3 2 -3 2 0
0 -2 -1 -3 -2z"/><path d="M281 390 c-1 -2 -1 -2 1 -4 l2 -2 2 2 c2 2 2 2 1 4 -1 1 -3 2 -3 2 0
0 -2 -1 -3 -2z"/><path d="M298 390 c-3 -3 -3 -10 0 -13 2 -1 2 -1 6 3 4 5 8 6 8 2 0 -6 10 -8
15 -4 3 3 -1 6 -9 6 -6 0 -6 0 -6 2 0 6 -10 8 -14 4z"/><path d="M177 382 c-1 -2 -1 -2 1 -4 l2 -2 2 2 c2 2 2 2 1 4 -1 1 -3 2 -3 2 0
0 -2 -1 -3 -2z"/><path d="M329 366 c-1 -2 -1 -2 1 -4 l2 -2 2 2 c2 2 2 2 1 4 -1 1 -3 2 -3 2 0
0 -2 -1 -3 -2z"/><path d="M161 358 c-1 -2 -1 -2 1 -4 l2 -2 2 2 c2 2 2 2 1 4 -1 1 -3 2 -3 2 0
0 -2 -1 -3 -2z"/><path d="M145 350 c-1 -2 -1 -2 1 -4 l2 -2 2 2 c2 2 2 2 1 4 -1 1 -3 2 -3 2 0
0 -2 -1 -3 -2z"/><path d="M353 350 c-1 -2 -1 -2 1 -4 l2 -2 2 2 c2 2 2 2 1 4 -1 1 -3 2 -3 2 0
0 -2 -1 -3 -2z"/><path d="M145 334 c-1 -2 -1 -2 1 -4 l2 -2 2 2 c2 2 2 2 1 4 -1 1 -3 2 -3 2 0
0 -2 -1 -3 -2z"/><path d="M353 334 c-1 -2 -1 -2 1 -4 l2 -2 2 2 c2 2 2 2 1 4 -1 1 -3 2 -3 2 0
0 -2 -1 -3 -2z"/><path d="M129 326 c-1 -2 -1 -2 1 -4 l2 -2 2 2 c2 2 2 2 1 4 -1 1 -3 2 -3 2 0
0 -2 -1 -3 -2z"/><path d="M369 326 c-1 -2 -1 -2 1 -4 l2 -2 2 2 c2 2 2 2 1 4 -1 1 -3 2 -3 2 0
0 -2 -1 -3 -2z"/><path d="M370 302 c-3 -3 -3 -18 0 -20 2 -2 2 -2 4 0 3 2 3 18 0 20 -2 2 -2 2
-4 0z"/><path d="M130 294 c-3 -3 -3 -10 0 -12 3 -3 6 0 6 6 0 7 -3 10 -6 6z"/><path d="M137 270 c-1 -2 -1 -2 1 -4 l2 -2 2 2 c2 2 2 2 1 4 -1 1 -3 2 -3 2 0
0 -2 -1 -3 -2z"/><path d="M362 270 c-2 -2 -2 -2 0 -4 0 -1 2 -2 4 -2 1 0 2 -1 2 -2 0 -2 1 -4
2 -5 2 -1 2 -1 4 1 2 2 2 2 1 4 -1 1 -3 2 -5 2 -1 0 -2 1 -2 2 0 2 -3 6 -4 6
0 0 -2 -1 -2 -2z"/><path d="M145 254 c-1 -2 -1 -2 1 -4 l2 -2 2 2 c2 2 2 2 1 4 -3 2 -3 2 -6 0z"/><path d="M353 254 c-1 -2 -1 -2 1 -4 l2 -2 2 2 c2 2 2 2 1 4 -1 1 -3 2 -3 2 0
0 -2 -1 -3 -2z"/><path d="M145 238 c-1 -2 -1 -2 1 -4 l2 -2 2 2 c2 2 2 2 1 4 -1 1 -3 2 -3 2 0
0 -2 -1 -3 -2z"/><path d="M353 238 c-1 -2 -1 -2 1 -4 l2 -2 2 2 c2 2 2 2 1 4 -1 1 -3 2 -3 2 0
0 -2 -1 -3 -2z"/><path d="M161 222 c-1 -2 -1 -2 1 -4 l2 -2 2 2 c2 2 2 2 1 4 -1 1 -3 2 -3 2 0
0 -2 -1 -3 -2z"/><path d="M338 222 c-1 -1 -2 -3 -2 -4 0 -1 -1 -2 -2 -2 -3 0 -6 -3 -6 -6 0 -1
-1 -2 -2 -2 -2 0 -4 -1 -5 -2 -1 -2 -1 -2 1 -4 2 -2 2 -2 4 -1 1 1 2 3 2 5 0
1 1 2 2 2 3 0 6 3 6 6 0 1 1 2 2 2 2 0 4 1 5 2 1 2 1 2 0 4 -3 2 -3 2 -5 0z"/><path d="M177 206 c-1 -2 -1 -2 1 -4 l2 -2 2 2 c2 2 2 2 1 4 -1 1 -3 2 -3 2 0
0 -2 -1 -3 -2z"/><path d="M198 202 c-6 -6 -6 -6 -4 -8 1 -2 3 -2 10 -2 10 0 12 -1 12 -8 0 -5
2 -8 6 -8 1 0 2 -1 2 -2 0 -2 1 -4 4 -6 4 -3 4 -4 4 -8 0 -5 2 -8 6 -8 2 0 2
-1 2 -6 l0 -6 6 -6 6 -6 6 6 6 6 0 6 c0 5 0 6 2 6 1 0 5 2 8 6 l6 6 0 6 c0 6
0 6 2 6 4 0 6 3 6 8 0 7 2 8 12 8 7 0 9 0 10 2 2 2 2 2 -4 8 l-6 6 -4 -4 c-3
-4 -4 -4 -8 -4 -7 0 -8 -2 -8 -14 0 -9 0 -10 -2 -10 -1 0 -5 -2 -8 -6 l-6 -6
0 -6 0 -6 -12 0 -12 0 0 10 c0 13 -1 14 -10 14 l-6 0 0 10 c0 13 -1 14 -8 14
-4 0 -5 0 -8 4 -2 2 -3 4 -4 4 0 0 -3 -3 -6 -6z"/></g>
  <g transform="scale(0.125 0.125) translate(0.000000,512.000000) scale(1.000000,-1.000000)" fill="#6f6f6f" stroke="none"><path d="M249 398 c-1 -2 -1 -2 1 -4 l2 -2 2 2 c2 2 2 2 1 4 -1 1 -3 2 -3 2 0
0 -2 -1 -3 -2z"/><path d="M194 390 c-2 -2 -2 -2 0 -4 0 -1 2 -2 4 -2 1 0 2 -1 2 -2 0 -2 1 -4
2 -5 2 -1 2 -1 4 1 2 2 2 2 1 4 -1 1 -3 2 -5 2 -1 0 -2 1 -2 2 0 2 -3 6 -4 6
0 0 -2 -1 -2 -2z"/><path d="M217 390 c-1 -2 -1 -2 1 -4 l2 -2 2 2 c2 2 2 2 1 4 -1 1 -3 2 -3 2 0
0 -2 -1 -3 -2z"/><path d="M281 390 c-1 -2 -1 -2 1 -4 l2 -2 2 2 c2 2 2 2 1 4 -1 1 -3 2 -3 2 0
0 -2 -1 -3 -2z"/><path d="M298 390 c-3 -3 -3 -10 0 -12 3 -3 6 0 6 6 0 7 -3 10 -6 6z"/><path d="M314 382 c-3 -3 0 -6 6 -6 6 0 9 3 7 6 -2 1 -4 2 -7 2 -3 0 -5 -1 -6
-2z"/><path d="M329 366 c-1 -2 -1 -2 1 -4 l2 -2 2 2 c2 2 2 2 1 4 -1 1 -3 2 -3 2 0
0 -2 -1 -3 -2z"/><path d="M161 358 c-1 -2 -1 -2 1 -4 l2 -2 2 2 c2 2 2 2 1 4 -1 1 -3 2 -3 2 0
0 -2 -1 -3 -2z"/><path d="M145 350 c-1 -2 -1 -2 1 -4 l2 -2 2 2 c2 2 2 2 1 4 -1 1 -3 2 -3 2 0
0 -2 -1 -3 -2z"/><path d="M145 334 c-1 -2 -1 -2 1 -4 l2 -2 2 2 c2 2 2 2 1 4 -1 1 -3 2 -3 2 0
0 -2 -1 -3 -2z"/><path d="M353 334 c-1 -2 -1 -2 1 -4 l2 -2 2 2 c2 2 2 2 1 4 -1 1 -3 2 -3 2 0
0 -2 -1 -3 -2z"/><path d="M370 302 c-3 -3 -3 -18 0 -20 2 -2 2 -2 4 0 3 2 3 18 0 20 -2 2 -2 2
-4 0z"/><path d="M130 294 c-3 -3 -3 -10 0 -12 3 -3 6 0 6 6 0 7 -3 10 -6 6z"/><path d="M137 270 c-1 -2 -1 -2 1 -4 l2 -2 2 2 c2 2 2 2 1 4 -1 1 -3 2 -3 2 0
0 -2 -1 -3 -2z"/><path d="M361 270 c-1 -2 -1 -2 1 -4 l2 -2 2 2 c2 2 2 2 1 4 -1 1 -3 2 -3 2 0
0 -2 -1 -3 -2z"/><path d="M145 254 c-1 -2 -1 -2 1 -4 l2 -2 2 2 c2 2 2 2 1 4 -3 2 -3 2 -6 0z"/><path d="M353 254 c-1 -2 -1 -2 1 -4 l2 -2 2 2 c2 2 2 2 1 4 -1 1 -3 2 -3 2 0
0 -2 -1 -3 -2z"/><path d="M353 238 c-1 -2 -1 -2 1 -4 l2 -2 2 2 c2 2 2 2 1 4 -1 1 -3 2 -3 2 0
0 -2 -1 -3 -2z"/><path d="M337 222 c-1 -2 -1 -2 1 -4 l2 -2 2 2 c2 2 2 2 1 4 -1 1 -3 2 -3 2 0
0 -2 -1 -3 -2z"/><path d="M177 206 c-1 -2 -1 -2 1 -4 l2 -2 2 2 c2 2 2 2 1 4 -1 1 -3 2 -3 2 0
0 -2 -1 -3 -2z"/><path d="M202 206 c-2 -2 -2 -2 0 -4 0 -1 2 -2 4 -2 1 0 2 -1 2 -2 0 -2 1 -4
4 -6 4 -3 4 -4 4 -8 0 -5 2 -8 6 -8 1 0 2 -1 2 -2 0 -2 1 -4 4 -6 4 -3 4 -4 4
-8 0 -5 2 -8 6 -8 2 0 2 -1 2 -6 l0 -6 6 -6 6 -6 6 6 6 6 0 6 c0 5 0 6 2 6 1
0 5 2 8 6 l6 6 0 6 c0 6 0 6 2 6 2 0 4 1 5 2 1 2 1 2 -1 4 -2 2 -2 2 -4 1 -1
-1 -2 -3 -2 -5 0 -1 -1 -2 -2 -2 -1 0 -5 -2 -8 -6 l-6 -6 0 -6 0 -6 -12 0 -12
0 0 10 c0 13 -1 14 -10 14 l-6 0 0 10 c0 13 -1 14 -10 14 -6 0 -6 0 -6 2 0 2
-3 6 -4 6 0 0 -2 -1 -2 -2z"/><path d="M298 206 c-1 -1 -2 -3 -2 -4 0 -2 0 -2 -6 -2 -8 0 -12 -3 -8 -6 4 -5
14 -2 14 4 0 2 1 2 4 2 4 0 4 0 4 -2 0 -2 1 -4 2 -5 2 -1 2 -1 4 1 2 2 2 2 1
4 -1 1 -3 2 -5 2 -1 0 -2 1 -2 2 0 2 -3 6 -4 6 0 0 -1 -1 -2 -2z"/><path d="M321 206 c-1 -2 -1 -2 1 -4 l2 -2 2 2 c2 2 2 2 1 4 -1 1 -3 2 -3 2 0
0 -2 -1 -3 -2z"/></g>
  <g transform="scale(0.125 0.125) translate(0.000000,512.000000) scale(1.000000,-1.000000)" fill="#292929" stroke="none"><path d="M194 390 c-2 -2 -2 -2 0 -4 0 -1 2 -2 4 -2 1 0 2 -1 2 -2 0 -2 1 -4
2 -5 2 -1 2 -1 4 1 2 2 2 2 1 4 -1 1 -3 2 -5 2 -1 0 -2 1 -2 2 0 2 -3 6 -4 6
0 0 -2 -1 -2 -2z"/><path d="M217 390 c-1 -2 -1 -2 1 -4 l2 -2 2 2 c2 2 2 2 1 4 -1 1 -3 2 -3 2 0
0 -2 -1 -3 -2z"/><path d="M281 390 c-1 -2 -1 -2 1 -4 l2 -2 2 2 c2 2 2 2 1 4 -1 1 -3 2 -3 2 0
0 -2 -1 -3 -2z"/><path d="M298 390 c-3 -3 -3 -10 0 -12 3 -3 6 0 6 6 0 7 -3 10 -6 6z"/><path d="M321 382 c-1 -2 -1 -2 1 -4 l2 -2 2 2 c2 2 2 2 1 4 -1 1 -3 2 -3 2 0
0 -2 -1 -3 -2z"/><path d="M329 366 c-1 -2 -1 -2 1 -4 l2 -2 2 2 c2 2 2 2 1 4 -1 1 -3 2 -3 2 0
0 -2 -1 -3 -2z"/><path d="M161 358 c-1 -2 -1 -2 1 -4 l2 -2 2 2 c2 2 2 2 1 4 -1 1 -3 2 -3 2 0
0 -2 -1 -3 -2z"/><path d="M145 350 c-1 -2 -1 -2 1 -4 l2 -2 2 2 c2 2 2 2 1 4 -1 1 -3 2 -3 2 0
0 -2 -1 -3 -2z"/><path d="M145 334 c-1 -2 -1 -2 1 -4 l2 -2 2 2 c2 2 2 2 1 4 -1 1 -3 2 -3 2 0
0 -2 -1 -3 -2z"/><path d="M353 334 c-1 -2 -1 -2 1 -4 l2 -2 2 2 c2 2 2 2 1 4 -1 1 -3 2 -3 2 0
0 -2 -1 -3 -2z"/><path d="M137 270 c-1 -2 -1 -2 1 -4 l2 -2 2 2 c2 2 2 2 1 4 -1 1 -3 2 -3 2 0
0 -2 -1 -3 -2z"/><path d="M361 270 c-1 -2 -1 -2 1 -4 l2 -2 2 2 c2 2 2 2 1 4 -1 1 -3 2 -3 2 0
0 -2 -1 -3 -2z"/><path d="M145 254 c-1 -2 -1 -2 1 -4 l2 -2 2 2 c2 2 2 2 1 4 -3 2 -3 2 -6 0z"/><path d="M353 254 c-1 -2 -1 -2 1 -4 l2 -2 2 2 c2 2 2 2 1 4 -1 1 -3 2 -3 2 0
0 -2 -1 -3 -2z"/><path d="M353 238 c-1 -2 -1 -2 1 -4 l2 -2 2 2 c2 2 2 2 1 4 -1 1 -3 2 -3 2 0
0 -2 -1 -3 -2z"/><path d="M337 222 c-1 -2 -1 -2 1 -4 l2 -2 2 2 c2 2 2 2 1 4 -1 1 -3 2 -3 2 0
0 -2 -1 -3 -2z"/><path d="M177 206 c-1 -2 -1 -2 1 -4 l2 -2 2 2 c2 2 2 2 1 4 -1 1 -3 2 -3 2 0
0 -2 -1 -3 -2z"/><path d="M201 206 c-1 -2 -1 -2 1 -4 l2 -2 2 2 c2 2 2 2 1 4 -1 1 -3 2 -3 2 0
0 -2 -1 -3 -2z"/><path d="M298 206 c-2 -2 -2 -2 0 -4 0 -1 2 -2 4 -2 1 0 2 -1 2 -2 0 -2 1 -4
2 -5 2 -1 2 -1 4 1 2 2 2 2 1 4 -1 1 -3 2 -5 2 -1 0 -2 1 -2 2 0 2 -3 6 -4 6
0 0 -2 -1 -2 -2z"/><path d="M321 206 c-1 -2 -1 -2 1 -4 l2 -2 2 2 c2 2 2 2 1 4 -1 1 -3 2 -3 2 0
0 -2 -1 -3 -2z"/><path d="M218 198 c-2 -1 -2 -4 -2 -10 0 -9 1 -12 6 -12 1 0 2 -1 2 -2 0 -2 1
-4 4 -6 4 -3 4 -4 4 -8 0 -5 2 -8 6 -8 2 0 2 -1 2 -6 l0 -6 6 -6 6 -6 6 6 6 6
0 6 c0 6 0 6 2 6 3 0 6 3 6 6 0 1 1 2 2 2 4 0 6 3 6 10 0 6 0 6 2 6 2 0 4 1 5
2 1 2 1 2 -1 4 -2 2 -2 2 -4 1 -1 -1 -2 -3 -2 -5 0 -1 -1 -2 -2 -2 -4 0 -6 -3
-6 -10 0 -6 0 -6 -2 -6 -3 0 -6 -3 -6 -6 0 -2 0 -2 -12 -2 l-12 0 0 10 c0 13
-1 14 -10 14 l-6 0 0 10 c0 9 0 11 -2 12 -2 2 -2 2 -4 0z"/><path d="M281 198 c-1 -2 -1 -2 1 -4 l2 -2 2 2 c2 2 2 2 1 4 -1 1 -3 2 -3 2 0
0 -2 -1 -3 -2z"/></g>
  <g transform="scale(0.125 0.125) translate(0.000000,512.000000) scale(1.000000,-1.000000)" fill="#f6f6f6" stroke="none"><path d="M217 390 c-1 -2 -1 -2 1 -4 l2 -2 2 2 c2 2 2 2 1 4 -1 1 -3 2 -3 2 0
0 -2 -1 -3 -2z"/><path d="M281 390 c-1 -2 -1 -2 1 -4 l2 -2 2 2 c2 2 2 2 1 4 -1 1 -3 2 -3 2 0
0 -2 -1 -3 -2z"/><path d="M201 382 c-1 -2 -1 -2 1 -4 l2 -2 2 2 c2 2 2 2 1 4 -1 1 -3 2 -3 2 0
0 -2 -1 -3 -2z"/><path d="M297 382 c-1 -2 -1 -2 1 -4 l2 -2 2 2 c2 2 2 2 1 4 -1 1 -3 2 -3 2 0
0 -2 -1 -3 -2z"/><path d="M329 366 c-1 -2 -1 -2 1 -4 l2 -2 2 2 c2 2 2 2 1 4 -1 1 -3 2 -3 2 0
0 -2 -1 -3 -2z"/><path d="M161 358 c-1 -2 -1 -2 1 -4 l2 -2 2 2 c2 2 2 2 1 4 -1 1 -3 2 -3 2 0
0 -2 -1 -3 -2z"/><path d="M145 334 c-1 -2 -1 -2 1 -4 l2 -2 2 2 c2 2 2 2 1 4 -1 1 -3 2 -3 2 0
0 -2 -1 -3 -2z"/><path d="M353 334 c-1 -2 -1 -2 1 -4 l2 -2 2 2 c2 2 2 2 1 4 -1 1 -3 2 -3 2 0
0 -2 -1 -3 -2z"/><path d="M137 270 c-1 -2 -1 -2 1 -4 l2 -2 2 2 c2 2 2 2 1 4 -1 1 -3 2 -3 2 0
0 -2 -1 -3 -2z"/><path d="M361 270 c-1 -2 -1 -2 1 -4 l2 -2 2 2 c2 2 2 2 1 4 -1 1 -3 2 -3 2 0
0 -2 -1 -3 -2z"/><path d="M145 254 c-1 -2 -1 -2 1 -4 l2 -2 2 2 c2 2 2 2 1 4 -3 2 -3 2 -6 0z"/><path d="M353 254 c-1 -2 -1 -2 1 -4 l2 -2 2 2 c2 2 2 2 1 4 -1 1 -3 2 -3 2 0
0 -2 -1 -3 -2z"/><path d="M353 238 c-1 -2 -1 -2 1 -4 l2 -2 2 2 c2 2 2 2 1 4 -1 1 -3 2 -3 2 0
0 -2 -1 -3 -2z"/><path d="M201 206 c-1 -2 -1 -2 1 -4 l2 -2 2 2 c2 2 2 2 1 4 -1 1 -3 2 -3 2 0
0 -2 -1 -3 -2z"/><path d="M297 206 c-1 -2 -1 -2 1 -4 l2 -2 2 2 c2 2 2 2 1 4 -1 1 -3 2 -3 2 0
0 -2 -1 -3 -2z"/><path d="M218 198 c-2 -1 -2 -4 -2 -10 0 -9 1 -12 6 -12 1 0 2 -1 2 -2 0 -6
10 -8 15 -4 3 3 -1 6 -9 6 l-6 0 0 10 c0 9 0 11 -2 12 -2 2 -2 2 -4 0z"/><path d="M281 198 c-1 -2 -1 -2 1 -4 l2 -2 2 2 c2 2 2 2 1 4 -1 1 -3 2 -3 2 0
0 -2 -1 -3 -2z"/><path d="M282 182 c-1 -1 -2 -3 -2 -4 0 -1 -1 -2 -2 -2 -4 0 -6 -3 -6 -10 0
-6 0 -6 -2 -6 -3 0 -6 -3 -6 -6 0 -2 0 -2 -12 -2 -12 0 -12 0 -12 2 0 2 -1 4
-2 5 -2 1 -2 1 -4 -1 -2 -2 -2 -2 -1 -4 1 -1 3 -2 5 -2 2 0 2 0 2 -6 0 -7 2
-10 6 -10 1 0 2 -1 2 -2 0 -2 1 -4 2 -4 2 -2 2 -2 4 0 1 0 2 2 2 4 0 1 1 2 2
2 4 0 6 3 6 10 0 6 0 6 2 6 3 0 6 3 6 6 0 1 1 2 2 2 4 0 6 3 6 10 0 6 0 6 2 6
2 0 4 1 5 2 1 2 1 2 0 4 -3 2 -3 2 -5 0z m-28 -40 c1 -1 2 -2 2 -4 0 -2 0 -2
-4 -2 -5 0 -6 3 -2 6 2 2 2 2 4 0z"/></g>
  <g transform="scale(0.125 0.125) translate(0.000000,512.000000) scale(1.000000,-1.000000)" fill="#000000" stroke="none"><path d="M217 390 c-1 -2 -1 -2 1 -4 l2 -2 2 2 c2 2 2 2 1 4 -1 1 -3 2 -3 2 0
0 -2 -1 -3 -2z"/><path d="M281 390 c-1 -2 -1 -2 1 -4 l2 -2 2 2 c2 2 2 2 1 4 -1 1 -3 2 -3 2 0
0 -2 -1 -3 -2z"/><path d="M201 382 c-1 -2 -1 -2 1 -4 l2 -2 2 2 c2 2 2 2 1 4 -1 1 -3 2 -3 2 0
0 -2 -1 -3 -2z"/><path d="M297 382 c-1 -2 -1 -2 1 -4 l2 -2 2 2 c2 2 2 2 1 4 -1 1 -3 2 -3 2 0
0 -2 -1 -3 -2z"/><path d="M353 334 c-1 -2 -1 -2 1 -4 l2 -2 2 2 c2 2 2 2 1 4 -1 1 -3 2 -3 2 0
0 -2 -1 -3 -2z"/><path d="M137 270 c-1 -2 -1 -2 1 -4 l2 -2 2 2 c2 2 2 2 1 4 -1 1 -3 2 -3 2 0
0 -2 -1 -3 -2z"/><path d="M361 270 c-1 -2 -1 -2 1 -4 l2 -2 2 2 c2 2 2 2 1 4 -1 1 -3 2 -3 2 0
0 -2 -1 -3 -2z"/><path d="M353 238 c-1 -2 -1 -2 1 -4 l2 -2 2 2 c2 2 2 2 1 4 -1 1 -3 2 -3 2 0
0 -2 -1 -3 -2z"/><path d="M218 190 c-4 -4 -2 -14 4 -14 1 0 2 -1 2 -2 0 -2 1 -4 2 -5 2 -1 2
-1 4 1 2 2 2 2 1 4 -1 1 -3 2 -5 2 -2 0 -2 0 -2 6 0 5 0 7 -2 8 -2 2 -2 2 -4
0z"/><path d="M282 182 c-1 -1 -2 -3 -2 -4 0 -1 -1 -2 -2 -2 -4 0 -6 -3 -6 -10 0
-6 0 -6 -2 -6 -3 0 -6 -3 -6 -6 0 -2 0 -2 -12 -2 -12 0 -12 0 -12 2 0 2 -1 4
-2 5 -2 1 -2 1 -4 -1 -2 -2 -2 -2 -1 -4 1 -1 3 -2 5 -2 2 0 2 0 2 -6 0 -7 2
-10 6 -10 1 0 2 -1 2 -2 0 -2 1 -4 2 -4 2 -2 2 -2 4 0 1 0 2 2 2 4 0 1 1 2 2
2 4 0 6 3 6 10 0 6 0 6 2 6 3 0 6 3 6 6 0 1 1 2 2 2 4 0 6 3 6 10 0 6 0 6 2 6
2 0 4 1 5 2 1 2 1 2 0 4 -3 2 -3 2 -5 0z m-28 -40 c1 -1 2 -2 2 -4 0 -2 0 -2
-4 -2 -5 0 -6 3 -2 6 2 2 2 2 4 0z"/></g>
  <g transform="scale(0.125 0.125) translate(0.000000,512.000000) scale(1.000000,-1.000000)" fill="#fcfcfc" stroke="none"><path d="M217 390 c-1 -2 -1 -2 1 -4 l2 -2 2 2 c2 2 2 2 1 4 -1 1 -3 2 -3 2 0
0 -2 -1 -3 -2z"/><path d="M281 390 c-1 -2 -1 -2 1 -4 l2 -2 2 2 c2 2 2 2 1 4 -1 1 -3 2 -3 2 0
0 -2 -1 -3 -2z"/><path d="M201 382 c-1 -2 -1 -2 1 -4 l2 -2 2 2 c2 2 2 2 1 4 -1 1 -3 2 -3 2 0
0 -2 -1 -3 -2z"/><path d="M297 382 c-1 -2 -1 -2 1 -4 l2 -2 2 2 c2 2 2 2 1 4 -1 1 -3 2 -3 2 0
0 -2 -1 -3 -2z"/><path d="M353 334 c-1 -2 -1 -2 1 -4 l2 -2 2 2 c2 2 2 2 1 4 -1 1 -3 2 -3 2 0
0 -2 -1 -3 -2z"/><path d="M137 270 c-1 -2 -1 -2 1 -4 l2 -2 2 2 c2 2 2 2 1 4 -1 1 -3 2 -3 2 0
0 -2 -1 -3 -2z"/><path d="M361 270 c-1 -2 -1 -2 1 -4 l2 -2 2 2 c2 2 2 2 1 4 -1 1 -3 2 -3 2 0
0 -2 -1 -3 -2z"/><path d="M353 238 c-1 -2 -1 -2 1 -4 l2 -2 2 2 c2 2 2 2 1 4 -1 1 -3 2 -3 2 0
0 -2 -1 -3 -2z"/><path d="M217 190 c-1 -2 -1 -2 1 -4 l2 -2 2 2 c2 2 2 2 1 4 -1 1 -3 2 -3 2 0
0 -2 -1 -3 -2z"/><path d="M265 158 c-1 -2 -1 -2 1 -4 l2 -2 2 2 c2 2 2 2 1 4 -1 1 -3 2 -3 2 0
0 -2 -1 -3 -2z"/><path d="M249 150 c-1 -2 -1 -2 1 -4 l2 -2 2 2 c2 2 2 2 1 4 -1 1 -3 2 -3 2 0
0 -2 -1 -3 -2z"/><path d="M249 134 c-1 -2 -1 -2 1 -4 l2 -2 2 2 c2 2 2 2 1 4 -1 1 -3 2 -3 2 0
0 -2 -1 -3 -2z"/></g>
  <g transform="scale(0.125 0.125) translate(0.000000,512.000000) scale(1.000000,-1.000000)" fill="#0d0d0d" stroke="none"><path d="M353 238 c-1 -2 -1 -2 1 -4 l2 -2 2 2 c2 2 2 2 1 4 -1 1 -3 2 -3 2 0
0 -2 -1 -3 -2z"/><path d="M217 190 c-1 -2 -1 -2 1 -4 l2 -2 2 2 c2 2 2 2 1 4 -1 1 -3 2 -3 2 0
0 -2 -1 -3 -2z"/><path d="M265 158 c-1 -2 -1 -2 1 -4 l2 -2 2 2 c2 2 2 2 1 4 -1 1 -3 2 -3 2 0
0 -2 -1 -3 -2z"/><path d="M249 134 c-1 -2 -1 -2 1 -4 l2 -2 2 2 c2 2 2 2 1 4 -1 1 -3 2 -3 2 0
0 -2 -1 -3 -2z"/></g>
</svg>
