<?xml version="1.0" encoding="UTF-8"?>
<svg xmlns="http://www.w3.org/2000/svg" viewBox="0 0 64 64" width="64" height="64">
  <g transform="scale(0.125 0.125) translate(0.000000,512.000000) scale(1.000000,-1.000000)" fill="#ffffff" stroke="none"><path d="M192 484 l-3 -4 -9 0 -9 0 -3 -4 c-3 -4 -4 -4 -8 -4 -4 0 -5 0 -8 -4
-3 -4 -4 -4 -8 -4 -4 0 -5 0 -8 -4 -3 -4 -4 -4 -8 -4 -4 0 -4 0 -16 -12 -12
-12 -12 -12 -16 -12 -6 0 -8 -2 -8 -8 0 -4 0 -5 -12 -16 -12 -12 -12 -12 -12
-16 0 -4 0 -5 -4 -8 l-4 -3 0 -9 0 -9 -4 -3 -4 -3 0 -49 0 -49 4 -3 c4 -3 4
-4 4 -8 0 -4 0 -5 4 -8 4 -3 4 -4 4 -8 0 -4 0 -5 4 -8 4 -3 4 -4 4 -8 l0 -4
22 -22 c22 -22 22 -22 26 -22 4 0 5 0 12 -8 7 -8 8 -8 12 -8 4 0 5 0 8 -4 l3
-4 9 0 9 0 3 -4 c3 -4 4 -4 8 -4 6 0 16 -10 16 -16 0 -4 0 -5 8 -12 8 -7 8 -8
8 -12 0 -4 0 -5 4 -8 4 -3 4 -4 4 -8 0 -4 0 -5 4 -8 4 -3 4 -4 4 -8 0 -4 0 -5
8 -12 8 -7 8 -8 8 -12 0 -3 1 -5 2 -6 2 -2 2 -2 8 4 6 5 6 6 6 10 0 4 0 5 4 8
4 3 4 4 4 8 0 4 0 5 8 12 8 7 8 8 8 12 0 4 0 5 4 8 4 3 4 4 4 8 0 4 0 5 4 8 4
3 4 4 4 8 0 4 0 5 6 10 5 6 6 6 10 6 4 0 5 0 8 4 l3 4 9 0 9 0 3 4 c3 4 4 4 8
4 4 0 5 0 12 8 7 8 8 8 12 8 4 0 4 0 26 22 22 22 22 22 22 26 0 4 0 5 8 12 l8
8 0 8 0 9 4 3 4 3 0 9 0 9 4 3 4 3 0 25 0 25 -4 3 -4 3 0 13 0 13 -4 3 c-4 3
-4 4 -4 8 0 4 0 5 -4 8 -4 3 -4 4 -4 8 0 4 0 5 -8 12 -8 7 -8 8 -8 12 0 4 0 5
-10 14 -9 10 -10 10 -14 10 -4 0 -5 0 -12 8 -7 8 -8 8 -12 8 -4 0 -5 0 -8 4
-3 4 -4 4 -8 4 -4 0 -5 0 -8 4 -3 4 -4 4 -8 4 -4 0 -5 0 -8 4 l-3 4 -9 0 -9 0
-3 4 -3 4 -57 0 -57 0 -3 -4z"/></g>
  <g transform="scale(0.125 0.125) translate(0.000000,512.000000) scale(1.000000,-1.000000)" fill="#ff2894" stroke="none"><path d="M192 484 l-3 -4 -9 0 -9 0 -3 -4 c-3 -4 -4 -4 -8 -4 -4 0 -5 0 -8 -4
-3 -4 -4 -4 -8 -4 -4 0 -5 0 -8 -4 -3 -4 -4 -4 -8 -4 -4 0 -4 0 -16 -12 -12
-12 -12 -12 -16 -12 -6 0 -8 -2 -8 -8 0 -4 0 -5 -12 -16 -12 -12 -12 -12 -12
-16 0 -4 0 -5 -4 -8 l-4 -3 0 -9 0 -9 -4 -3 -4 -3 0 -49 0 -49 4 -3 c4 -3 4
-4 4 -8 0 -4 0 -5 4 -8 4 -3 4 -4 4 -8 0 -4 0 -5 4 -8 4 -3 4 -4 4 -8 l0 -4
22 -22 c22 -22 22 -22 26 -22 4 0 5 0 12 -8 7 -8 8 -8 12 -8 4 0 5 0 8 -4 l3
-4 9 0 9 0 3 -4 c3 -4 4 -4 8 -4 6 0 16 -10 16 -16 0 -4 0 -5 8 -12 8 -7 8 -8
8 -12 0 -4 0 -5 4 -8 4 -3 4 -4 4 -8 0 -4 0 -5 4 -8 4 -3 4 -4 4 -8 0 -4 0 -5
8 -12 8 -7 8 -8 8 -12 0 -3 1 -5 2 -6 2 -2 2 -2 8 4 6 5 6 6 6 10 0 4 0 5 4 8
4 3 4 4 4 8 0 4 0 5 8 12 8 7 8 8 8 12 0 4 0 5 4 8 4 3 4 4 4 8 0 4 0 5 4 8 4
3 4 4 4 8 0 4 0 5 6 10 5 6 6 6 10 6 4 0 5 0 8 4 l3 4 9 0 9 0 3 4 c3 4 4 4 8
4 4 0 5 0 12 8 7 8 8 8 12 8 4 0 4 0 26 22 22 22 22 22 22 26 0 4 0 5 8 12 l8
8 0 8 0 9 4 3 4 3 0 9 0 9 4 3 4 3 0 25 0 25 -4 3 -4 3 0 13 0 13 -4 3 c-4 3
-4 4 -4 8 0 4 0 5 -4 8 -4 3 -4 4 -4 8 0 4 0 5 -8 12 -8 7 -8 8 -8 12 0 4 0 5
-10 14 -9 10 -10 10 -14 10 -4 0 -5 0 -12 8 -7 8 -8 8 -12 8 -4 0 -5 0 -8 4
-3 4 -4 4 -8 4 -4 0 -5 0 -8 4 -3 4 -4 4 -8 4 -4 0 -5 0 -8 4 l-3 4 -9 0 -9 0
-3 4 -3 4 -57 0 -57 0 -3 -4z m64 -8 l3 -4 21 0 21 0 3 -4 3 -4 9 0 9 0 3 -4
c3 -4 4 -4 8 -4 4 0 5 0 8 -4 3 -4 4 -4 8 -4 4 0 5 0 12 -8 7 -8 8 -8 12 -8 4
0 4 0 22 -18 18 -18 18 -18 18 -22 0 -4 0 -5 4 -8 4 -3 4 -4 4 -8 0 -4 0 -5 4
-8 4 -3 4 -4 4 -8 0 -4 0 -5 4 -8 l4 -3 0 -41 0 -41 -4 -3 c-4 -3 -4 -4 -4 -8
0 -4 0 -5 -8 -12 -8 -7 -8 -8 -8 -12 0 -4 0 -4 -22 -26 -22 -22 -22 -22 -26
-22 -4 0 -5 0 -12 -8 l-8 -8 -8 0 -9 0 -3 -4 -3 -4 -9 0 -8 0 -6 -6 -6 -6 0
-8 0 -8 -8 -8 c-8 -7 -8 -8 -8 -12 0 -4 0 -5 -8 -12 -8 -7 -8 -8 -8 -12 0 -4
-1 -5 -6 -10 l-6 -6 -6 6 c-6 5 -6 6 -6 10 0 4 0 5 -4 8 -4 3 -4 4 -4 8 0 4 0
5 -8 12 l-8 8 0 8 0 8 -6 6 c-5 6 -6 6 -10 6 -4 0 -5 0 -8 4 -3 4 -4 4 -8 4
-4 0 -5 0 -8 4 l-3 4 -9 0 -8 0 -8 8 c-7 8 -8 8 -12 8 -4 0 -4 0 -30 26 l-26
26 0 4 c0 4 0 5 -4 8 l-4 3 0 9 0 9 -4 3 -4 3 0 37 0 37 4 3 4 3 0 9 0 8 8 8
c8 7 8 8 8 12 0 4 0 4 22 26 l22 22 4 0 c4 0 5 0 8 4 3 4 4 4 8 4 4 0 5 0 8 4
3 4 4 4 8 4 4 0 5 0 8 4 l3 4 9 0 9 0 3 4 3 4 21 0 21 0 3 4 c2 2 4 4 4 4 0 0
2 -2 4 -4z"/><path d="M162 414 c-10 -10 -10 -10 -10 -14 0 -4 0 -5 -4 -8 l-4 -3 0 -13 0
-13 4 -3 4 -3 0 -9 0 -9 4 -3 c4 -3 4 -4 4 -8 0 -4 0 -4 12 -16 12 -11 12 -12
12 -16 0 -4 0 -5 16 -20 16 -16 16 -16 16 -20 0 -4 0 -5 8 -12 8 -7 8 -8 8
-12 0 -4 0 -5 4 -8 4 -3 4 -4 4 -8 0 -4 0 -5 4 -8 4 -3 4 -4 4 -8 0 -3 1 -5 2
-6 2 -2 2 -2 8 4 6 5 6 6 6 10 0 4 0 5 4 8 l4 3 0 9 0 8 12 12 c12 11 12 12
12 16 0 4 0 5 12 16 12 12 12 12 12 16 0 6 2 8 8 8 6 0 8 2 8 8 0 4 0 5 4 8 4
3 4 4 4 8 0 4 0 5 4 8 4 3 4 4 4 8 0 4 0 5 4 8 l4 3 0 17 0 17 -4 3 c-4 3 -4
4 -4 8 0 4 0 4 -10 14 l-10 10 -24 0 -25 0 -3 -4 c-3 -4 -4 -4 -8 -4 -6 0 -8
-2 -8 -8 0 -4 -1 -5 -6 -10 -6 -6 -6 -6 -8 -4 -1 1 -2 3 -2 6 0 4 0 4 -10 14
l-10 10 -28 0 -28 0 -10 -10z"/></g>
  <g transform="scale(0.125 0.125) translate(0.000000,512.000000) scale(1.000000,-1.000000)" fill="#4e4e4e" stroke="none"><path d="M192 484 l-3 -4 -9 0 -9 0 -3 -4 c-3 -4 -4 -4 -8 -4 -4 0 -5 0 -8 -4
-3 -4 -4 -4 -8 -4 -4 0 -5 0 -8 -4 -3 -4 -4 -4 -8 -4 -4 0 -4 0 -16 -12 -12
-12 -12 -12 -16 -12 -6 0 -8 -2 -8 -8 0 -4 0 -5 -12 -16 -12 -12 -12 -12 -12
-16 0 -4 0 -5 -4 -8 l-4 -3 0 -9 0 -9 -4 -3 -4 -3 0 -49 0 -49 4 -3 c4 -3 4
-4 4 -8 0 -4 0 -5 4 -8 4 -3 4 -4 4 -8 0 -4 0 -5 4 -8 4 -3 4 -4 4 -8 l0 -4
22 -22 c22 -22 22 -22 26 -22 4 0 5 0 12 -8 7 -8 8 -8 12 -8 4 0 5 0 8 -4 l3
-4 9 0 9 0 3 -4 c3 -4 4 -4 8 -4 6 0 16 -10 16 -16 0 -4 0 -5 8 -12 8 -7 8 -8
8 -12 0 -4 0 -5 4 -8 4 -3 4 -4 4 -8 0 -4 0 -5 4 -8 4 -3 4 -4 4 -8 0 -4 0 -5
8 -12 8 -7 8 -8 8 -12 0 -3 1 -5 2 -6 2 -2 2 -2 8 4 6 5 6 6 6 10 0 4 0 5 4 8
4 3 4 4 4 8 0 4 0 5 8 12 8 7 8 8 8 12 0 4 0 5 4 8 4 3 4 4 4 8 0 4 0 5 4 8 4
3 4 4 4 8 0 4 0 5 6 10 5 6 6 6 10 6 4 0 5 0 8 4 l3 4 9 0 9 0 3 4 c3 4 4 4 8
4 4 0 5 0 12 8 7 8 8 8 12 8 4 0 4 0 26 22 22 22 22 22 22 26 0 4 0 5 8 12 l8
8 0 8 0 9 4 3 4 3 0 9 0 9 4 3 4 3 0 25 0 25 -4 3 -4 3 0 13 0 13 -4 3 c-4 3
-4 4 -4 8 0 4 0 5 -4 8 -4 3 -4 4 -4 8 0 4 0 5 -8 12 -8 7 -8 8 -8 12 0 4 0 5
-10 14 -9 10 -10 10 -14 10 -4 0 -5 0 -12 8 -7 8 -8 8 -12 8 -4 0 -5 0 -8 4
-3 4 -4 4 -8 4 -4 0 -5 0 -8 4 -3 4 -4 4 -8 4 -4 0 -5 0 -8 4 l-3 4 -9 0 -9 0
-3 4 -3 4 -57 0 -57 0 -3 -4z m64 -8 l3 -4 21 0 21 0 3 -4 3 -4 9 0 9 0 3 -4
c3 -4 4 -4 8 -4 4 0 5 0 8 -4 3 -4 4 -4 8 -4 4 0 5 0 12 -8 7 -8 8 -8 12 -8 4
0 4 0 22 -18 18 -18 18 -18 18 -22 0 -4 0 -5 4 -8 4 -3 4 -4 4 -8 0 -4 0 -5 4
-8 4 -3 4 -4 4 -8 0 -4 0 -5 4 -8 l4 -3 0 -41 0 -41 -4 -3 c-4 -3 -4 -4 -4 -8
0 -4 0 -5 -8 -12 -8 -7 -8 -8 -8 -12 0 -4 0 -4 -22 -26 -22 -22 -22 -22 -26
-22 -4 0 -5 0 -12 -8 l-8 -8 -8 0 -9 0 -3 -4 -3 -4 -9 0 -8 0 -6 -6 -6 -6 0
-8 0 -8 -8 -8 c-8 -7 -8 -8 -8 -12 0 -4 0 -5 -8 -12 -8 -7 -8 -8 -8 -12 0 -4
-1 -5 -6 -10 l-6 -6 -6 6 c-6 5 -6 6 -6 10 0 4 0 5 -4 8 -4 3 -4 4 -4 8 0 4 0
5 -8 12 l-8 8 0 8 0 8 -6 6 c-5 6 -6 6 -10 6 -4 0 -5 0 -8 4 -3 4 -4 4 -8 4
-4 0 -5 0 -8 4 l-3 4 -9 0 -8 0 -8 8 c-7 8 -8 8 -12 8 -4 0 -4 0 -30 26 l-26
26 0 4 c0 4 0 5 -4 8 l-4 3 0 9 0 9 -4 3 -4 3 0 37 0 37 4 3 4 3 0 9 0 8 8 8
c8 7 8 8 8 12 0 4 0 4 22 26 l22 22 4 0 c4 0 5 0 8 4 3 4 4 4 8 4 4 0 5 0 8 4
3 4 4 4 8 4 4 0 5 0 8 4 l3 4 9 0 9 0 3 4 3 4 21 0 21 0 3 4 c2 2 4 4 4 4 0 0
2 -2 4 -4z"/><path d="M162 414 c-10 -10 -10 -10 -10 -14 0 -4 0 -5 -4 -8 l-4 -3 0 -13 0
-13 4 -3 4 -3 0 -9 0 -9 4 -3 c4 -3 4 -4 4 -8 0 -4 0 -4 12 -16 12 -11 12 -12
12 -16 0 -4 0 -5 16 -20 16 -16 16 -16 16 -20 0 -4 0 -5 8 -12 8 -7 8 -8 8
-12 0 -4 0 -5 4 -8 4 -3 4 -4 4 -8 0 -4 0 -5 4 -8 4 -3 4 -4 4 -8 0 -3 1 -5 2
-6 2 -2 2 -2 8 4 6 5 6 6 6 10 0 4 0 5 4 8 l4 3 0 9 0 8 12 12 c12 11 12 12
12 16 0 4 0 5 12 16 12 12 12 12 12 16 0 6 2 8 8 8 6 0 8 2 8 8 0 4 0 5 4 8 4
3 4 4 4 8 0 4 0 5 4 8 4 3 4 4 4 8 0 4 0 5 4 8 l4 3 0 17 0 17 -4 3 c-4 3 -4
4 -4 8 0 4 0 4 -10 14 l-10 10 -24 0 -25 0 -3 -4 c-3 -4 -4 -4 -8 -4 -6 0 -8
-2 -8 -8 0 -4 -1 -5 -6 -10 -6 -6 -6 -6 -8 -4 -1 1 -2 3 -2 6 0 4 0 4 -10 14
l-10 10 -28 0 -28 0 -10 -10z m164 -64 c1 -1 2 -3 2 -6 0 -4 0 -5 -8 -12 -8
-7 -8 -8 -8 -12 0 -4 0 -5 -8 -12 -8 -7 -8 -8 -8 -12 0 -4 0 -4 -16 -20 -16
-15 -16 -16 -16 -20 0 -4 -1 -5 -6 -10 l-6 -6 -6 6 c-5 5 -6 6 -6 10 0 4 0 5
-12 16 -12 11 -12 12 -12 16 0 4 0 5 -12 16 -12 12 -12 12 -12 16 0 4 0 5 -4
8 -4 3 -4 4 -4 8 0 4 0 5 -4 8 -4 4 -4 4 -3 6 2 2 3 2 75 2 66 0 73 0 74 -2z"/></g>
  <g transform="scale(0.125 0.125) translate(0.000000,512.000000) scale(1.000000,-1.000000)" fill="#ff0d87" stroke="none"><path d="M194 486 c-1 -1 -2 -3 -2 -4 0 -2 0 -2 -6 -2 -9 0 -10 -1 -10 -10 0
-6 0 -6 -2 -6 -2 0 -4 1 -6 4 -3 4 -4 4 -8 4 -5 0 -8 -2 -8 -6 0 -2 0 -2 -6
-2 -7 0 -10 -2 -10 -6 0 -2 0 -2 -6 -2 -7 0 -10 -2 -10 -6 0 -1 -1 -2 -2 -2
-3 0 -6 -3 -6 -6 0 -1 -1 -2 -2 -2 -2 0 -4 -1 -6 -4 -3 -4 -4 -4 -8 -4 -6 0
-8 -2 -8 -10 0 -6 0 -6 -2 -6 -3 0 -6 -3 -6 -6 0 -1 -1 -2 -2 -2 -3 0 -6 -3
-6 -6 0 -1 -1 -2 -2 -2 -4 0 -6 -3 -6 -10 0 -6 0 -6 -2 -6 -2 0 -4 -1 -5 -2
-1 -2 -1 -2 0 -4 1 -1 3 -2 5 -2 2 0 2 0 2 -12 l0 -12 -4 0 c-4 0 -4 0 -4 2 0
2 -1 4 -2 5 -2 1 -2 1 -4 -1 -2 -2 -2 -2 -1 -4 1 -1 3 -2 5 -2 l2 0 0 -38 0
-39 -4 -3 c-4 -3 -4 -4 -4 -8 0 -3 1 -5 2 -7 2 -1 2 -1 6 3 4 4 4 4 6 3 3 -3
3 -15 0 -15 -2 0 -4 -1 -5 -2 -1 -2 -1 -2 1 -4 2 -2 2 -2 4 -1 1 1 2 3 2 5 0
2 0 2 4 2 l4 0 0 -8 c0 -8 0 -8 -2 -8 -2 0 -4 -1 -4 -2 -2 -2 -2 -2 0 -4 0 -1
2 -2 4 -2 2 0 2 0 2 -6 l0 -6 6 -6 c3 -4 7 -6 8 -6 1 0 2 -1 2 -2 0 -3 3 -6 6
-6 1 0 2 -1 2 -2 0 -3 3 -6 6 -6 1 0 2 -1 2 -2 0 -1 2 -5 6 -8 l6 -6 6 0 c5 0
6 0 6 -2 0 -1 2 -5 6 -8 5 -6 6 -6 10 -6 4 0 5 0 8 -4 l3 -4 11 0 c10 0 10 0
10 -2 0 -4 3 -6 8 -6 6 0 16 -10 16 -16 0 -4 1 -5 6 -10 3 -4 7 -6 8 -6 2 0 2
-1 2 -6 0 -7 2 -10 6 -10 2 0 2 0 2 -6 0 -7 0 -7 4 -10 4 -3 4 -4 4 -8 0 -4 0
-5 8 -12 8 -7 8 -8 8 -12 0 -3 1 -5 2 -6 2 -2 2 -2 8 4 l6 6 0 6 c0 6 0 6 2 6
4 0 6 3 6 10 0 5 0 6 2 6 1 0 5 2 8 6 l6 6 0 6 c0 6 0 6 2 6 4 0 6 3 6 10 0 6
0 6 2 6 4 0 6 3 6 8 0 6 10 16 16 16 5 0 8 2 8 6 0 2 0 2 10 2 l11 0 3 4 c3 4
4 4 8 4 4 0 5 0 10 6 4 3 6 7 6 8 0 2 1 2 6 2 l6 0 6 6 c4 3 6 7 6 8 0 1 1 2
2 2 3 0 6 3 6 6 0 1 1 2 2 2 3 0 6 3 6 6 0 1 1 2 2 2 1 0 5 2 8 6 l6 6 0 6 c0
5 0 6 2 6 1 0 5 2 8 6 l6 6 0 10 c0 10 0 10 2 10 5 0 6 3 6 14 0 10 0 10 2 10
6 0 6 2 6 28 0 23 0 25 -2 27 -2 1 -2 1 -4 -1 -2 -1 -2 -3 -2 -10 0 -7 0 -9
-2 -11 -2 -1 -2 -1 -4 1 -2 1 -2 3 -2 14 l0 13 4 3 4 3 0 9 c0 9 -1 12 -6 12
-2 0 -2 0 -2 6 0 7 -2 10 -6 10 -2 0 -2 0 -2 6 0 7 -2 10 -6 10 -1 0 -2 1 -2
2 0 3 -3 6 -6 6 -2 0 -2 1 -2 6 l0 6 -10 10 -10 10 -6 0 c-6 0 -6 0 -6 2 0 3
-3 6 -6 6 -1 0 -2 1 -2 2 0 4 -3 6 -10 6 -6 0 -6 0 -6 2 0 4 -3 6 -10 6 -6 0
-6 0 -6 2 0 4 -3 6 -8 6 -4 0 -5 0 -8 -4 -2 -3 -4 -4 -6 -4 -2 0 -2 0 -2 6 0
9 -1 10 -10 10 -6 0 -6 0 -6 2 0 2 -1 4 -2 5 -2 1 -2 1 -4 -1 -2 -2 -2 -2 -1
-4 1 -1 3 -2 5 -2 4 0 3 -4 -2 -8 -4 -4 -4 -4 -3 -6 2 -2 3 -2 13 -2 10 0 10
0 10 -2 0 -4 3 -6 10 -6 6 0 6 0 6 -2 0 -4 3 -6 10 -6 5 0 6 0 6 -2 0 -1 2 -5
6 -8 l6 -6 6 0 c5 0 6 0 6 -2 0 -3 19 -22 22 -22 1 0 2 -1 2 -2 0 -3 3 -6 6
-6 2 0 2 0 2 -6 0 -7 0 -7 4 -10 4 -3 4 -4 4 -8 0 -4 0 -5 4 -8 4 -3 4 -4 4
-8 0 -4 0 -5 4 -8 l4 -3 0 -43 0 -42 -2 0 c-4 0 -6 -3 -6 -10 0 -5 0 -6 -2 -6
-1 0 -5 -2 -8 -6 -5 -5 -6 -6 -6 -10 0 -4 0 -5 -22 -26 -22 -22 -22 -22 -26
-22 -4 0 -5 0 -12 -8 l-8 -8 -8 0 -9 0 -3 -4 -3 -4 -9 0 -8 0 -6 -6 -6 -6 0
-8 0 -9 -4 -3 c-3 -2 -4 -4 -4 -6 0 -1 -1 -2 -2 -2 -4 0 -6 -3 -6 -10 0 -5 0
-6 -2 -6 -1 0 -5 -2 -8 -6 l-6 -6 0 -6 c0 -6 0 -6 -2 -6 -2 0 -4 -2 -6 -4 l-4
-4 -6 6 c-6 5 -6 6 -6 10 0 5 -2 8 -6 8 -2 0 -2 0 -2 6 0 7 -2 10 -6 10 -1 0
-2 1 -2 2 0 2 -1 4 -4 6 l-4 3 0 9 c0 9 -1 12 -6 12 -1 0 -2 1 -2 2 0 4 -3 6
-8 6 -4 0 -5 0 -8 4 -3 4 -4 4 -8 4 -4 0 -5 0 -8 4 l-3 4 -9 0 -8 0 -8 8 c-7
8 -8 8 -12 8 -4 0 -4 0 -28 24 -16 16 -25 24 -26 24 -2 0 -2 1 -2 6 0 7 -2 10
-6 10 -2 0 -2 0 -2 10 l0 11 -4 3 -4 3 0 39 0 38 2 0 c5 0 6 3 6 14 0 9 0 10
2 10 1 0 5 2 8 6 l6 6 0 6 c0 6 0 6 2 6 3 0 6 3 6 6 0 1 1 2 2 2 3 0 6 3 6 6
0 1 1 2 2 2 3 0 14 11 14 14 0 1 1 2 2 2 3 0 6 3 6 6 0 2 0 2 6 2 7 0 10 2 10
6 0 2 0 2 6 2 7 0 10 2 10 6 0 2 0 2 6 2 7 0 10 2 10 6 0 2 0 2 10 2 10 0 11
0 13 2 1 2 1 2 -3 6 -5 4 -6 8 -2 8 2 0 4 1 5 2 1 2 1 2 0 4 -3 2 -3 2 -5 0z
m-36 -24 c3 -2 3 -6 0 -6 -3 0 -6 3 -6 6 0 3 3 3 6 0z m194 0 c0 -3 -3 -6 -6
-6 -3 0 -3 3 0 6 2 3 6 3 6 0z m-210 -8 c3 -2 3 -6 0 -6 -3 0 -6 3 -6 6 0 3 3
3 6 0z m226 0 c0 -3 -3 -6 -6 -6 -3 0 -3 3 0 6 2 3 6 3 6 0z m-242 -8 c1 -1 2
-2 2 -4 0 -2 0 -2 -4 -2 l-4 0 0 -4 c0 -3 0 -4 -2 -4 -3 0 -6 3 -6 6 0 2 0 2
4 2 l4 0 0 4 c0 5 3 6 6 2z m258 -2 l0 -4 4 0 c3 0 4 0 4 -2 0 -3 -3 -6 -6 -6
-2 0 -2 0 -2 4 0 4 0 4 -2 4 -2 0 -4 1 -4 2 -2 2 -2 2 0 4 3 4 6 3 6 -2z
m-282 -22 c1 -1 2 -2 2 -4 0 -2 0 -2 -4 -2 l-4 0 0 -4 0 -4 -4 0 -4 0 0 -4 0
-4 -4 0 c-4 0 -4 0 -4 -2 0 -2 -1 -4 -2 -4 -2 -2 -2 -2 -4 0 -4 3 -3 6 2 6 l4
0 0 4 0 4 4 0 4 0 0 4 0 4 4 0 c3 0 4 0 4 2 0 2 3 6 4 6 0 0 1 -1 2 -2z m312
-8 c1 -1 2 -2 2 -4 0 -2 0 -2 4 -2 l4 0 0 -4 0 -4 4 0 c5 0 6 -3 2 -6 -2 -2
-2 -2 -4 0 -1 0 -2 2 -2 4 0 2 0 2 -4 2 l-4 0 0 4 0 4 -4 0 c-5 0 -6 3 -2 6 2
2 2 2 4 0z m-344 -32 c1 -1 2 -2 2 -4 0 -2 0 -2 -4 -2 l-4 0 0 4 c0 5 3 6 6 2z
m370 0 c0 -2 -1 -4 -2 -5 -2 -1 -2 -1 -4 1 -2 2 -2 2 -1 4 3 3 7 3 7 0z m8
-16 c0 -2 -1 -4 -2 -5 -2 -1 -2 -1 -4 1 -2 2 -2 2 -1 4 3 3 7 3 7 0z m6 -64
c2 -1 2 -3 2 -12 0 -10 0 -10 -2 -10 -5 0 -6 3 -6 12 0 10 2 14 6 10z m-8 -40
c3 -2 3 -6 0 -6 -3 0 -6 3 -6 6 0 3 3 3 6 0z m-7 -16 c1 -2 1 -2 -1 -4 -2 -2
-2 -2 -4 -1 -1 1 -2 3 -2 5 0 3 4 3 7 0z m-359 -16 c0 -3 -3 -6 -6 -6 -2 0 -2
0 -2 4 l0 4 4 0 c3 0 4 0 4 -2z m350 0 c1 -1 2 -2 2 -4 0 -3 -4 -3 -6 0 -2 2
-2 2 0 4 2 2 2 2 4 0z m-336 -24 c1 -1 2 -2 2 -4 0 -1 1 -2 2 -2 3 0 6 -3 6
-6 0 -1 1 -2 2 -2 2 0 4 -1 5 -2 1 -2 1 -2 0 -4 -4 -4 -7 -3 -7 2 l0 4 -4 0
-4 0 0 4 0 4 -4 0 c-5 0 -6 3 -2 6 2 2 2 2 4 0z m320 0 c1 -1 2 -2 2 -4 0 -2
0 -2 -4 -2 l-4 0 0 -4 0 -4 -4 0 -4 0 0 -4 c0 -5 -3 -6 -6 -2 -2 2 -2 2 0 4 0
1 2 2 4 2 1 0 2 1 2 2 0 3 3 6 6 6 1 0 2 1 2 2 0 2 3 6 4 6 0 0 1 -1 2 -2z
m-279 -32 c1 -2 1 -2 0 -4 -3 -3 -7 -3 -7 0 0 2 3 6 4 6 0 0 2 -1 3 -2z m239
0 c1 -1 2 -2 2 -4 0 -3 -4 -3 -6 0 -2 2 -2 2 0 4 2 2 2 2 4 0z m-207 -16 c1
-2 1 -2 -1 -4 l-2 -2 -2 2 c-2 2 -2 2 -1 4 1 1 3 2 3 2 0 0 2 -1 3 -2z m176 0
c1 -2 1 -2 -1 -4 l-2 -2 -2 2 c-2 2 -2 2 -1 4 1 1 3 2 3 2 0 0 2 -1 3 -2z
m-160 -8 c1 -2 1 -2 0 -4 -3 -3 -7 -3 -7 0 0 2 3 6 4 6 0 0 2 -1 3 -2z m143 0
c1 -1 2 -2 2 -4 0 -3 -4 -3 -6 0 -2 2 -2 2 0 4 2 2 2 2 4 0z m-118 -8 c0 -2
-1 -4 -2 -5 -2 -1 -2 -1 -4 1 -2 2 -2 2 -1 4 3 3 7 3 7 0z m86 -24 c3 -2 3 -6
0 -6 -3 0 -6 3 -6 6 0 3 3 3 6 0z m-70 -8 c0 -3 -3 -6 -6 -6 -3 0 -3 3 0 6 2
3 6 3 6 0z m62 -8 c3 -2 3 -6 0 -6 -3 0 -6 3 -6 6 0 3 3 3 6 0z m-54 -8 c0 -3
-3 -6 -6 -6 -3 0 -3 3 0 6 2 3 6 3 6 0z m38 -16 c3 -2 3 -6 0 -6 -3 0 -6 3 -6
6 0 3 3 3 6 0z m-8 -16 c1 -1 2 -2 2 -4 0 -2 0 -2 -6 -2 -8 0 -12 3 -8 6 2 3
9 3 12 0z"/><path d="M214 482 c-6 -6 -6 -6 -4 -8 1 -2 3 -2 18 -2 l17 0 3 4 4 5 4 -5 4
-4 16 0 c15 0 17 0 18 2 2 2 2 2 -4 8 l-6 6 -32 0 -32 0 -6 -6z"/><path d="M170 422 c-1 -1 -2 -3 -2 -4 0 -1 -1 -2 -2 -2 -1 0 -5 -2 -8 -6 -6
-5 -6 -6 -6 -10 0 -4 0 -5 -4 -8 l-4 -3 0 -13 c0 -15 1 -16 8 -16 3 0 5 -1 7
-2 1 -2 1 -2 -3 -6 -4 -3 -4 -4 -4 -8 0 -4 0 -5 4 -8 4 -3 4 -4 4 -8 0 -5 2
-8 6 -8 1 0 2 -1 2 -2 0 -2 3 -5 8 -10 8 -7 8 -8 8 -12 0 -5 2 -8 6 -8 1 0 2
-1 2 -2 0 -1 4 -6 10 -12 l10 -10 6 0 c8 0 8 -3 2 -8 l-4 -4 6 -6 6 -6 6 0 c8
0 8 -3 2 -8 -4 -4 -4 -4 -3 -6 2 -1 4 -2 7 -2 3 0 5 -1 7 -2 1 -2 1 -2 -3 -6
-4 -4 -4 -4 -3 -6 2 -1 4 -2 7 -2 5 0 8 -2 8 -6 0 -1 -1 -2 -2 -2 -2 0 -4 -1
-5 -2 -1 -2 -1 -2 1 -4 2 -2 2 -2 4 -1 1 1 2 3 2 5 0 1 1 2 2 2 4 0 6 3 6 8 0
4 0 5 4 8 l4 3 0 13 c0 15 1 16 8 16 4 0 5 1 10 6 l6 6 -4 4 c-6 5 -6 8 2 8
l6 0 10 10 10 10 -4 4 -4 4 6 6 6 6 4 -4 c4 -4 4 -4 6 -3 1 2 2 3 2 7 0 4 0 5
4 8 l5 4 -5 4 c-4 4 -4 4 -3 6 2 1 4 2 7 2 3 0 5 1 7 2 1 2 1 2 -3 6 -4 4 -4
4 -3 6 2 1 4 2 7 2 8 0 8 1 8 20 0 19 0 20 -8 20 -3 0 -5 1 -7 2 -1 2 -1 2 3
6 l4 4 -10 10 -10 10 -16 0 -16 0 -4 -4 -4 -4 -4 4 c-4 4 -4 4 -6 3 -1 -2 -2
-4 -2 -7 0 -5 -2 -8 -6 -8 -1 0 -2 1 -2 2 0 2 -1 4 -2 5 -2 1 -2 1 -4 -1 -2
-2 -2 -2 -1 -4 1 -1 3 -2 5 -2 1 0 2 -1 2 -2 0 -4 -3 -6 -8 -6 -4 0 -5 0 -8
-4 -3 -4 -4 -4 -8 -4 -5 0 -8 2 -8 6 0 1 1 2 2 2 2 0 4 1 5 2 1 2 1 2 0 4 -1
1 -3 2 -5 2 -1 0 -2 1 -2 2 0 3 -3 6 -6 6 -1 0 -2 1 -2 2 0 4 -3 6 -8 6 -4 0
-5 0 -8 -4 l-4 -4 -4 4 c-3 4 -4 4 -8 4 -4 0 -5 0 -8 -4 l-4 -4 -4 4 c-3 4 -4
4 -8 4 -3 0 -5 -1 -6 -2z m5 -8 c1 -2 1 -2 -1 -4 -2 -2 -2 -2 -4 -1 -1 1 -2 3
-2 5 0 3 4 3 7 0z m57 -2 l0 -4 4 0 4 0 0 -4 c0 -3 0 -4 -2 -4 -3 0 -6 3 -6 6
0 1 -1 2 -2 2 -2 0 -4 1 -4 2 -2 2 -2 2 0 4 3 4 6 3 6 -2z m94 -62 c1 -1 2 -3
2 -6 0 -4 0 -5 -8 -12 -8 -7 -8 -8 -8 -12 0 -4 0 -5 -8 -12 -8 -7 -8 -8 -8
-12 0 -4 0 -5 -4 -8 -4 -3 -4 -3 -4 -10 l0 -6 -6 0 -6 0 -6 -6 c-5 -5 -6 -6
-6 -10 0 -4 -1 -5 -6 -10 l-6 -6 -6 0 -6 0 0 10 c0 13 -1 14 -10 14 l-6 0 0 6
c0 7 0 7 -4 10 -4 3 -4 4 -4 8 0 6 -2 8 -10 8 -6 0 -6 0 -6 -2 0 -3 -3 -6 -6
-6 -1 0 -2 1 -2 2 0 3 3 6 6 6 2 0 2 0 2 6 0 7 0 7 -4 10 -4 3 -4 4 -4 8 0 4
0 5 -4 8 -4 3 -4 4 -4 8 0 4 0 5 -4 8 -4 4 -4 4 -3 6 2 2 3 2 75 2 66 0 73 0
74 -2z m-151 -24 c1 -2 1 -2 0 -4 -3 -3 -7 -3 -7 0 0 2 3 6 4 6 0 0 2 -1 3 -2z"/></g>
  <g transform="scale(0.125 0.125) translate(0.000000,512.000000) scale(1.000000,-1.000000)" fill="#353234" stroke="none"><path d="M194 486 c-1 -1 -2 -3 -2 -4 0 -2 0 -2 -6 -2 -9 0 -10 -1 -10 -10 0
-6 0 -6 -2 -6 -2 0 -4 1 -6 4 -3 4 -4 4 -8 4 -5 0 -8 -2 -8 -6 0 -2 0 -2 -6
-2 -7 0 -10 -2 -10 -6 0 -2 0 -2 -6 -2 -7 0 -10 -2 -10 -6 0 -1 -1 -2 -2 -2
-3 0 -6 -3 -6 -6 0 -1 -1 -2 -2 -2 -2 0 -4 -1 -6 -4 -3 -4 -4 -4 -8 -4 -6 0
-8 -2 -8 -10 0 -6 0 -6 -2 -6 -3 0 -6 -3 -6 -6 0 -1 -1 -2 -2 -2 -3 0 -6 -3
-6 -6 0 -1 -1 -2 -2 -2 -4 0 -6 -3 -6 -10 0 -6 0 -6 -2 -6 -2 0 -4 -1 -5 -2
-1 -2 -1 -2 0 -4 1 -1 3 -2 5 -2 2 0 2 0 2 -12 l0 -12 -4 0 c-4 0 -4 0 -4 2 0
2 -1 4 -2 5 -2 1 -2 1 -4 -1 -2 -2 -2 -2 -1 -4 1 -1 3 -2 5 -2 l2 0 0 -38 0
-39 -4 -3 c-4 -3 -4 -4 -4 -8 0 -3 1 -5 2 -7 2 -1 2 -1 6 3 4 4 4 4 6 3 3 -3
3 -15 0 -15 -2 0 -4 -1 -5 -2 -1 -2 -1 -2 1 -4 2 -2 2 -2 4 -1 1 1 2 3 2 5 0
2 0 2 4 2 l4 0 0 -8 c0 -8 0 -8 -2 -8 -2 0 -4 -1 -4 -2 -2 -2 -2 -2 0 -4 0 -1
2 -2 4 -2 2 0 2 0 2 -6 l0 -6 6 -6 c3 -4 7 -6 8 -6 1 0 2 -1 2 -2 0 -3 3 -6 6
-6 1 0 2 -1 2 -2 0 -3 3 -6 6 -6 1 0 2 -1 2 -2 0 -1 2 -5 6 -8 l6 -6 6 0 c5 0
6 0 6 -2 0 -1 2 -5 6 -8 5 -6 6 -6 10 -6 4 0 5 0 8 -4 l3 -4 11 0 c10 0 10 0
10 -2 0 -4 3 -6 8 -6 6 0 16 -10 16 -16 0 -4 1 -5 6 -10 3 -4 7 -6 8 -6 2 0 2
-1 2 -6 0 -7 2 -10 6 -10 2 0 2 0 2 -6 0 -7 0 -7 4 -10 4 -3 4 -4 4 -8 0 -4 0
-5 8 -12 8 -7 8 -8 8 -12 0 -3 1 -5 2 -6 2 -2 2 -2 8 4 l6 6 0 6 c0 6 0 6 2 6
4 0 6 3 6 10 0 5 0 6 2 6 1 0 5 2 8 6 l6 6 0 6 c0 6 0 6 2 6 4 0 6 3 6 10 0 6
0 6 2 6 4 0 6 3 6 8 0 6 10 16 16 16 5 0 8 2 8 6 0 2 0 2 10 2 l11 0 3 4 c3 4
4 4 8 4 4 0 5 0 10 6 4 3 6 7 6 8 0 2 1 2 6 2 l6 0 6 6 c4 3 6 7 6 8 0 1 1 2
2 2 3 0 6 3 6 6 0 1 1 2 2 2 3 0 6 3 6 6 0 1 1 2 2 2 1 0 5 2 8 6 l6 6 0 6 c0
5 0 6 2 6 1 0 5 2 8 6 l6 6 0 10 c0 10 0 10 2 10 5 0 6 3 6 14 0 10 0 10 2 10
6 0 6 2 6 28 0 23 0 25 -2 27 -2 1 -2 1 -4 -1 -2 -1 -2 -3 -2 -10 0 -7 0 -9
-2 -11 -2 -1 -2 -1 -4 1 -2 1 -2 3 -2 14 l0 13 4 3 4 3 0 9 c0 9 -1 12 -6 12
-2 0 -2 0 -2 6 0 7 -2 10 -6 10 -2 0 -2 0 -2 6 0 7 -2 10 -6 10 -1 0 -2 1 -2
2 0 3 -3 6 -6 6 -2 0 -2 1 -2 6 l0 6 -10 10 -10 10 -6 0 c-6 0 -6 0 -6 2 0 3
-3 6 -6 6 -1 0 -2 1 -2 2 0 4 -3 6 -10 6 -6 0 -6 0 -6 2 0 4 -3 6 -10 6 -6 0
-6 0 -6 2 0 4 -3 6 -8 6 -4 0 -5 0 -8 -4 -2 -3 -4 -4 -6 -4 -2 0 -2 0 -2 6 0
9 -1 10 -10 10 -6 0 -6 0 -6 2 0 2 -1 4 -2 5 -2 1 -2 1 -4 -1 -2 -2 -2 -2 -1
-4 1 -1 3 -2 5 -2 4 0 3 -4 -2 -8 -4 -4 -4 -4 -3 -6 2 -2 3 -2 13 -2 10 0 10
0 10 -2 0 -4 3 -6 10 -6 6 0 6 0 6 -2 0 -4 3 -6 10 -6 5 0 6 0 6 -2 0 -1 2 -5
6 -8 l6 -6 6 0 c5 0 6 0 6 -2 0 -3 19 -22 22 -22 1 0 2 -1 2 -2 0 -3 3 -6 6
-6 2 0 2 0 2 -6 0 -7 0 -7 4 -10 4 -3 4 -4 4 -8 0 -4 0 -5 4 -8 4 -3 4 -4 4
-8 0 -4 0 -5 4 -8 l4 -3 0 -43 0 -42 -2 0 c-4 0 -6 -3 -6 -10 0 -5 0 -6 -2 -6
-1 0 -5 -2 -8 -6 -5 -5 -6 -6 -6 -10 0 -4 0 -5 -22 -26 -22 -22 -22 -22 -26
-22 -4 0 -5 0 -12 -8 l-8 -8 -8 0 -9 0 -3 -4 -3 -4 -9 0 -8 0 -6 -6 -6 -6 0
-8 0 -9 -4 -3 c-3 -2 -4 -4 -4 -6 0 -1 -1 -2 -2 -2 -4 0 -6 -3 -6 -10 0 -5 0
-6 -2 -6 -1 0 -5 -2 -8 -6 l-6 -6 0 -6 c0 -6 0 -6 -2 -6 -2 0 -4 -2 -6 -4 l-4
-4 -6 6 c-6 5 -6 6 -6 10 0 5 -2 8 -6 8 -2 0 -2 0 -2 6 0 7 -2 10 -6 10 -1 0
-2 1 -2 2 0 2 -1 4 -4 6 l-4 3 0 9 c0 9 -1 12 -6 12 -1 0 -2 1 -2 2 0 4 -3 6
-8 6 -4 0 -5 0 -8 4 -3 4 -4 4 -8 4 -4 0 -5 0 -8 4 l-3 4 -9 0 -8 0 -8 8 c-7
8 -8 8 -12 8 -4 0 -4 0 -28 24 -16 16 -25 24 -26 24 -2 0 -2 1 -2 6 0 7 -2 10
-6 10 -2 0 -2 0 -2 10 l0 11 -4 3 -4 3 0 39 0 38 2 0 c5 0 6 3 6 14 0 9 0 10
2 10 1 0 5 2 8 6 l6 6 0 6 c0 6 0 6 2 6 3 0 6 3 6 6 0 1 1 2 2 2 3 0 6 3 6 6
0 1 1 2 2 2 3 0 14 11 14 14 0 1 1 2 2 2 3 0 6 3 6 6 0 2 0 2 6 2 7 0 10 2 10
6 0 2 0 2 6 2 7 0 10 2 10 6 0 2 0 2 6 2 7 0 10 2 10 6 0 2 0 2 10 2 10 0 11
0 13 2 1 2 1 2 -3 6 -5 4 -6 8 -2 8 2 0 4 1 5 2 1 2 1 2 0 4 -3 2 -3 2 -5 0z
m-36 -24 c3 -2 3 -6 0 -6 -3 0 -6 3 -6 6 0 3 3 3 6 0z m194 0 c0 -3 -3 -6 -6
-6 -3 0 -3 3 0 6 2 3 6 3 6 0z m-210 -8 c3 -2 3 -6 0 -6 -3 0 -6 3 -6 6 0 3 3
3 6 0z m226 0 c0 -3 -3 -6 -6 -6 -3 0 -3 3 0 6 2 3 6 3 6 0z m-242 -8 c1 -1 2
-2 2 -4 0 -2 0 -2 -4 -2 l-4 0 0 -4 c0 -3 0 -4 -2 -4 -3 0 -6 3 -6 6 0 2 0 2
4 2 l4 0 0 4 c0 5 3 6 6 2z m258 -2 l0 -4 4 0 c3 0 4 0 4 -2 0 -3 -3 -6 -6 -6
-2 0 -2 0 -2 4 0 4 0 4 -2 4 -2 0 -4 1 -4 2 -2 2 -2 2 0 4 3 4 6 3 6 -2z
m-282 -22 c1 -1 2 -2 2 -4 0 -2 0 -2 -4 -2 l-4 0 0 -4 0 -4 -4 0 -4 0 0 -4 0
-4 -4 0 c-4 0 -4 0 -4 -2 0 -2 -1 -4 -2 -4 -2 -2 -2 -2 -4 0 -4 3 -3 6 2 6 l4
0 0 4 0 4 4 0 4 0 0 4 0 4 4 0 c3 0 4 0 4 2 0 2 3 6 4 6 0 0 1 -1 2 -2z m312
-8 c1 -1 2 -2 2 -4 0 -2 0 -2 4 -2 l4 0 0 -4 0 -4 4 0 c5 0 6 -3 2 -6 -2 -2
-2 -2 -4 0 -1 0 -2 2 -2 4 0 2 0 2 -4 2 l-4 0 0 4 0 4 -4 0 c-5 0 -6 3 -2 6 2
2 2 2 4 0z m-344 -32 c1 -1 2 -2 2 -4 0 -2 0 -2 -4 -2 l-4 0 0 4 c0 5 3 6 6 2z
m370 0 c0 -2 -1 -4 -2 -5 -2 -1 -2 -1 -4 1 -2 2 -2 2 -1 4 3 3 7 3 7 0z m8
-16 c0 -2 -1 -4 -2 -5 -2 -1 -2 -1 -4 1 -2 2 -2 2 -1 4 3 3 7 3 7 0z m6 -64
c2 -1 2 -3 2 -12 0 -10 0 -10 -2 -10 -5 0 -6 3 -6 12 0 10 2 14 6 10z m-8 -40
c3 -2 3 -6 0 -6 -3 0 -6 3 -6 6 0 3 3 3 6 0z m-7 -16 c1 -2 1 -2 -1 -4 -2 -2
-2 -2 -4 -1 -1 1 -2 3 -2 5 0 3 4 3 7 0z m-359 -16 c0 -3 -3 -6 -6 -6 -2 0 -2
0 -2 4 l0 4 4 0 c3 0 4 0 4 -2z m350 0 c1 -1 2 -2 2 -4 0 -3 -4 -3 -6 0 -2 2
-2 2 0 4 2 2 2 2 4 0z m-336 -24 c1 -1 2 -2 2 -4 0 -1 1 -2 2 -2 3 0 6 -3 6
-6 0 -1 1 -2 2 -2 2 0 4 -1 5 -2 1 -2 1 -2 0 -4 -4 -4 -7 -3 -7 2 l0 4 -4 0
-4 0 0 4 0 4 -4 0 c-5 0 -6 3 -2 6 2 2 2 2 4 0z m320 0 c1 -1 2 -2 2 -4 0 -2
0 -2 -4 -2 l-4 0 0 -4 0 -4 -4 0 -4 0 0 -4 c0 -5 -3 -6 -6 -2 -2 2 -2 2 0 4 0
1 2 2 4 2 1 0 2 1 2 2 0 3 3 6 6 6 1 0 2 1 2 2 0 2 3 6 4 6 0 0 1 -1 2 -2z
m-279 -32 c1 -2 1 -2 0 -4 -3 -3 -7 -3 -7 0 0 2 3 6 4 6 0 0 2 -1 3 -2z m239
0 c1 -1 2 -2 2 -4 0 -3 -4 -3 -6 0 -2 2 -2 2 0 4 2 2 2 2 4 0z m-207 -16 c1
-2 1 -2 -1 -4 l-2 -2 -2 2 c-2 2 -2 2 -1 4 1 1 3 2 3 2 0 0 2 -1 3 -2z m176 0
c1 -2 1 -2 -1 -4 l-2 -2 -2 2 c-2 2 -2 2 -1 4 1 1 3 2 3 2 0 0 2 -1 3 -2z
m-160 -8 c1 -2 1 -2 0 -4 -3 -3 -7 -3 -7 0 0 2 3 6 4 6 0 0 2 -1 3 -2z m143 0
c1 -1 2 -2 2 -4 0 -3 -4 -3 -6 0 -2 2 -2 2 0 4 2 2 2 2 4 0z m-118 -8 c0 -2
-1 -4 -2 -5 -2 -1 -2 -1 -4 1 -2 2 -2 2 -1 4 3 3 7 3 7 0z m86 -24 c3 -2 3 -6
0 -6 -3 0 -6 3 -6 6 0 3 3 3 6 0z m-70 -8 c0 -3 -3 -6 -6 -6 -3 0 -3 3 0 6 2
3 6 3 6 0z m62 -8 c3 -2 3 -6 0 -6 -3 0 -6 3 -6 6 0 3 3 3 6 0z m-54 -8 c0 -3
-3 -6 -6 -6 -3 0 -3 3 0 6 2 3 6 3 6 0z m38 -16 c3 -2 3 -6 0 -6 -3 0 -6 3 -6
6 0 3 3 3 6 0z m-8 -16 c1 -1 2 -2 2 -4 0 -2 0 -2 -6 -2 -8 0 -12 3 -8 6 2 3
9 3 12 0z"/><path d="M214 482 c-6 -6 -6 -6 -4 -8 1 -2 3 -2 18 -2 l17 0 3 4 4 5 4 -5 4
-4 16 0 c15 0 17 0 18 2 2 2 2 2 -4 8 l-6 6 -32 0 -32 0 -6 -6z"/><path d="M170 422 c-1 -1 -2 -3 -2 -4 0 -1 -1 -2 -2 -2 -1 0 -5 -2 -8 -6 -6
-5 -6 -6 -6 -10 0 -4 0 -5 -4 -8 l-4 -3 0 -13 c0 -15 1 -16 8 -16 3 0 5 -1 7
-2 1 -2 1 -2 -3 -6 -4 -3 -4 -4 -4 -8 0 -4 0 -5 4 -8 4 -3 4 -4 4 -8 0 -5 2
-8 6 -8 1 0 2 -1 2 -2 0 -2 3 -5 8 -10 8 -7 8 -8 8 -12 0 -5 2 -8 6 -8 1 0 2
-1 2 -2 0 -1 4 -6 10 -12 l10 -10 6 0 c8 0 8 -3 2 -8 l-4 -4 6 -6 6 -6 6 0 c8
0 8 -3 2 -8 -4 -4 -4 -4 -3 -6 2 -1 4 -2 7 -2 3 0 5 -1 7 -2 1 -2 1 -2 -3 -6
-4 -4 -4 -4 -3 -6 2 -1 4 -2 7 -2 5 0 8 -2 8 -6 0 -1 -1 -2 -2 -2 -2 0 -4 -1
-5 -2 -1 -2 -1 -2 1 -4 2 -2 2 -2 4 -1 1 1 2 3 2 5 0 1 1 2 2 2 4 0 6 3 6 8 0
4 0 5 4 8 l4 3 0 13 c0 15 1 16 8 16 4 0 5 1 10 6 l6 6 -4 4 c-6 5 -6 8 2 8
l6 0 10 10 10 10 -4 4 -4 4 6 6 6 6 4 -4 c4 -4 4 -4 6 -3 1 2 2 3 2 7 0 4 0 5
4 8 l5 4 -5 4 c-4 4 -4 4 -3 6 2 1 4 2 7 2 3 0 5 1 7 2 1 2 1 2 -3 6 -4 4 -4
4 -3 6 2 1 4 2 7 2 8 0 8 1 8 20 0 19 0 20 -8 20 -3 0 -5 1 -7 2 -1 2 -1 2 3
6 l4 4 -10 10 -10 10 -16 0 -16 0 -4 -4 -4 -4 -4 4 c-4 4 -4 4 -6 3 -1 -2 -2
-4 -2 -7 0 -5 -2 -8 -6 -8 -1 0 -2 1 -2 2 0 2 -1 4 -2 5 -2 1 -2 1 -4 -1 -2
-2 -2 -2 -1 -4 1 -1 3 -2 5 -2 1 0 2 -1 2 -2 0 -4 -3 -6 -8 -6 -4 0 -5 0 -8
-4 -3 -4 -4 -4 -8 -4 -5 0 -8 2 -8 6 0 1 1 2 2 2 2 0 4 1 5 2 1 2 1 2 0 4 -1
1 -3 2 -5 2 -1 0 -2 1 -2 2 0 3 -3 6 -6 6 -1 0 -2 1 -2 2 0 4 -3 6 -8 6 -4 0
-5 0 -8 -4 l-4 -4 -4 4 c-3 4 -4 4 -8 4 -4 0 -5 0 -8 -4 l-4 -4 -4 4 c-3 4 -4
4 -8 4 -3 0 -5 -1 -6 -2z m5 -8 c1 -2 1 -2 -1 -4 -2 -2 -2 -2 -4 -1 -1 1 -2 3
-2 5 0 3 4 3 7 0z m57 -2 l0 -4 4 0 4 0 0 -4 c0 -3 0 -4 -2 -4 -3 0 -6 3 -6 6
0 1 -1 2 -2 2 -2 0 -4 1 -4 2 -2 2 -2 2 0 4 3 4 6 3 6 -2z m-6 -18 c6 -5 6 -6
6 -10 0 -4 0 -5 4 -8 4 -3 4 -4 4 -8 0 -4 0 -5 6 -10 l6 -6 10 10 10 10 0 8 0
8 6 6 6 6 16 0 16 0 10 -10 10 -10 0 -12 0 -13 -4 -3 c-4 -3 -4 -4 -4 -8 0 -4
0 -5 -8 -12 -8 -7 -8 -8 -8 -12 0 -4 0 -5 -8 -12 -8 -7 -8 -8 -8 -12 0 -4 0
-5 -4 -8 -4 -3 -4 -3 -4 -10 l0 -6 -6 0 -6 0 -6 -6 c-5 -5 -6 -6 -6 -10 0 -4
-1 -5 -6 -10 l-6 -6 -6 0 -6 0 0 10 c0 13 -1 14 -10 14 l-6 0 0 6 c0 7 0 7 -4
10 -4 3 -4 4 -4 8 0 6 -2 8 -10 8 -6 0 -6 0 -6 -2 0 -3 -3 -6 -6 -6 -1 0 -2 1
-2 2 0 3 3 6 6 6 2 0 2 0 2 6 0 7 0 7 -4 10 -4 3 -4 4 -4 8 0 4 0 5 -4 8 -4 3
-4 4 -4 8 0 4 0 5 -4 8 -4 3 -4 4 -4 8 0 4 0 5 -4 8 l-4 3 0 9 0 8 10 10 10
10 16 0 16 0 6 -6z m-51 -68 c1 -2 1 -2 0 -4 -3 -3 -7 -3 -7 0 0 2 3 6 4 6 0
0 2 -1 3 -2z"/></g>
  <g transform="scale(0.125 0.125) translate(0.000000,512.000000) scale(1.000000,-1.000000)" fill="#f4f4f4" stroke="none"><path d="M210 478 c-2 -2 -2 -2 0 -4 1 -2 3 -2 18 -2 15 0 17 0 19 2 1 2 1 2
0 4 -2 2 -4 2 -19 2 -15 0 -17 0 -18 -2z"/><path d="M258 478 c-2 -2 -2 -2 0 -4 1 -2 3 -2 18 -2 15 0 17 0 19 2 1 2 1 2
0 4 -2 2 -4 2 -19 2 -15 0 -17 0 -18 -2z"/><path d="M178 470 c-1 -1 -2 -3 -2 -4 0 -2 0 -2 -6 -2 -7 0 -10 -2 -10 -6 0
-2 0 -2 -6 -2 -7 0 -10 -2 -10 -6 0 -2 0 -2 -6 -2 -7 0 -10 -2 -10 -6 0 -1 -1
-2 -2 -2 -3 0 -6 -3 -6 -6 0 -2 0 -2 -6 -2 -9 0 -10 -1 -10 -10 0 -6 0 -6 -2
-6 -3 0 -6 -3 -6 -6 0 -1 -1 -2 -2 -2 -3 0 -6 -3 -6 -6 0 -1 -1 -2 -2 -2 -2 0
-4 -1 -6 -4 -4 -5 -8 -6 -8 -2 0 2 -1 4 -2 5 -2 1 -2 1 -4 -1 -2 -2 -2 -2 -1
-4 1 -1 3 -2 5 -2 2 0 2 0 2 -8 0 -8 0 -8 -2 -8 -5 0 -6 -3 -6 -14 0 -10 0
-10 -2 -10 -6 0 -6 0 -6 -46 l0 -42 -2 0 c-2 0 -4 -1 -5 -2 -1 -2 -1 -2 1 -4
2 -2 2 -2 4 -1 1 1 2 3 2 5 0 1 1 2 2 2 4 0 6 -3 6 -8 0 -5 2 -8 6 -8 2 0 2 0
2 -6 0 -7 2 -10 6 -10 2 0 2 0 2 -8 0 -8 0 -8 -2 -8 -2 0 -4 -1 -5 -2 -1 -2
-1 -2 1 -4 2 -2 2 -2 4 -1 1 1 2 3 2 5 0 5 4 2 24 -18 19 -20 20 -20 24 -20 6
0 16 -10 16 -16 0 -3 1 -5 2 -7 2 -1 2 -1 6 3 4 5 11 6 15 2 1 -2 1 -2 -3 -6
-4 -4 -4 -4 -3 -6 4 -4 11 -3 15 2 4 4 4 4 6 3 1 -2 2 -4 2 -7 0 -4 0 -5 8
-12 8 -7 8 -8 8 -12 0 -4 1 -5 6 -10 3 -4 7 -6 8 -6 2 0 2 -1 2 -6 0 -7 2 -10
6 -10 2 0 2 0 2 -6 0 -7 0 -7 4 -10 4 -3 4 -4 4 -8 0 -4 0 -5 8 -12 8 -7 8 -8
8 -12 0 -3 1 -5 2 -6 2 -2 2 -2 8 4 l6 6 0 6 c0 6 0 6 2 6 4 0 6 3 6 10 0 5 0
6 2 6 1 0 5 2 8 6 l6 6 0 6 c0 6 0 6 2 6 4 0 6 3 6 10 0 6 0 6 2 6 4 0 6 3 6
8 0 4 0 5 8 12 8 7 8 8 8 12 0 3 1 5 2 7 2 1 2 1 6 -3 4 -5 11 -6 15 -2 1 2 1
2 -3 6 -4 4 -4 4 -3 6 4 4 11 3 15 -2 4 -4 4 -4 6 -3 1 2 2 4 2 7 0 5 2 8 6 8
1 0 2 -1 2 -2 0 -2 1 -4 2 -4 2 -2 2 -2 4 0 1 0 2 2 2 4 0 1 1 2 2 2 4 0 6 3
6 8 0 5 2 8 6 8 1 0 2 -1 2 -2 0 -2 1 -4 2 -5 2 -1 2 -1 4 1 2 2 2 2 1 4 -1 1
-3 2 -5 2 -5 0 -2 4 12 18 14 14 18 17 18 12 0 -2 1 -4 2 -5 2 -1 2 -1 4 1 2
2 2 2 1 4 -1 1 -3 2 -5 2 -2 0 -2 0 -2 6 0 7 0 7 4 10 4 3 4 3 4 10 0 6 0 6 2
6 4 0 6 3 6 10 l0 6 4 0 c4 0 4 0 4 -2 0 -2 1 -4 2 -5 2 -1 2 -1 4 1 2 2 2 2
1 4 -1 1 -3 2 -5 2 l-2 0 0 18 c0 17 0 19 2 21 2 1 2 1 4 0 2 -2 2 -4 2 -11 0
-7 0 -9 2 -10 2 -2 2 -2 4 -1 3 3 3 51 0 54 -2 1 -2 1 -4 -1 -2 -1 -2 -3 -2
-10 0 -7 0 -9 -2 -11 -2 -1 -2 -1 -4 1 -2 1 -2 3 -2 18 l0 17 4 3 c4 3 4 4 4
8 0 3 -1 5 -2 7 -2 1 -2 1 -6 -3 -4 -4 -4 -4 -6 -3 -3 3 -3 15 0 15 2 0 4 1 5
2 1 2 1 2 -1 4 -2 2 -2 2 -4 1 -1 -1 -2 -3 -2 -5 0 -1 -1 -2 -2 -2 -4 0 -6 3
-6 8 0 4 0 5 -4 8 -5 4 -6 8 -2 8 2 0 4 1 5 2 1 2 1 2 -1 4 -2 2 -2 2 -4 1 -1
-1 -2 -3 -2 -5 0 -2 0 -2 -4 -2 -4 0 -4 0 -4 2 0 3 -3 6 -6 6 -2 0 -2 1 -2 6
l0 6 -6 6 -6 6 -6 0 c-5 0 -6 0 -6 2 0 1 -2 5 -6 8 l-6 6 -6 0 c-6 0 -6 0 -6
2 0 4 -3 6 -10 6 -6 0 -6 0 -6 2 0 4 -3 6 -10 6 -6 0 -6 0 -6 2 0 5 -3 6 -12
6 -7 0 -9 0 -10 -2 -2 -2 -2 -2 0 -4 1 -2 3 -2 12 -2 10 0 10 0 10 -2 0 -4 3
-6 10 -6 6 0 6 0 6 -2 0 -4 3 -6 10 -6 5 0 6 0 6 -2 0 -1 2 -5 6 -8 l6 -6 6 0
c5 0 6 0 6 -2 0 -3 19 -22 22 -22 1 0 2 -1 2 -2 0 -3 3 -6 6 -6 2 0 2 0 2 -6
0 -7 0 -7 4 -10 4 -3 4 -4 4 -8 0 -4 0 -5 4 -8 4 -3 4 -4 4 -8 0 -4 0 -5 4 -8
l4 -3 0 -43 0 -42 -2 0 c-4 0 -6 -3 -6 -10 0 -5 0 -6 -2 -6 -1 0 -5 -2 -8 -6
-5 -5 -6 -6 -6 -10 0 -4 0 -5 -22 -26 -22 -22 -22 -22 -26 -22 -4 0 -5 0 -12
-8 l-8 -8 -8 0 -9 0 -3 -4 -3 -4 -9 0 -8 0 -6 -6 -6 -6 0 -8 0 -9 -4 -3 c-3
-2 -4 -4 -4 -6 0 -1 -1 -2 -2 -2 -4 0 -6 -3 -6 -10 0 -5 0 -6 -2 -6 -1 0 -5
-2 -8 -6 l-6 -6 0 -6 c0 -6 0 -6 -2 -6 -2 0 -4 -2 -6 -4 l-4 -4 -6 6 c-6 5 -6
6 -6 10 0 5 -2 8 -6 8 -2 0 -2 0 -2 6 0 7 -2 10 -6 10 -1 0 -2 1 -2 2 0 2 -1
4 -4 6 l-4 3 0 9 c0 9 -1 12 -6 12 -1 0 -2 1 -2 2 0 4 -3 6 -8 6 -4 0 -5 0 -8
4 -3 4 -4 4 -8 4 -4 0 -5 0 -8 4 l-3 4 -9 0 -8 0 -8 8 c-7 8 -8 8 -12 8 -4 0
-4 0 -28 24 -16 16 -25 24 -26 24 -2 0 -2 1 -2 6 0 7 -2 10 -6 10 -2 0 -2 0
-2 10 l0 11 -4 3 -4 3 0 39 0 38 2 0 c5 0 6 3 6 14 0 9 0 10 2 10 1 0 5 2 8 6
l6 6 0 6 c0 6 0 6 2 6 3 0 6 3 6 6 0 1 1 2 2 2 3 0 6 3 6 6 0 1 1 2 2 2 3 0
14 11 14 14 0 1 1 2 2 2 3 0 6 3 6 6 0 2 0 2 6 2 7 0 10 2 10 6 0 2 0 2 6 2 7
0 10 2 10 6 0 2 0 2 6 2 7 0 10 2 10 6 0 2 0 2 10 2 9 0 11 0 13 2 1 2 1 2 0
4 -3 3 -19 3 -21 0z m196 -296 c1 -1 2 -2 2 -4 0 -2 0 -2 -4 -2 -5 0 -6 3 -2
6 2 2 2 2 4 0z m-166 -32 c0 -2 -1 -4 -2 -5 -2 -1 -2 -1 -4 1 -2 2 -2 2 -1 4
3 3 7 3 7 0z m86 -24 c3 -2 3 -6 0 -6 -3 0 -6 3 -6 6 0 3 3 3 6 0z m-70 -8 c0
-3 -3 -6 -6 -6 -3 0 -3 3 0 6 2 3 6 3 6 0z m62 -8 c3 -2 3 -6 0 -6 -3 0 -6 3
-6 6 0 3 3 3 6 0z m-54 -8 c0 -3 -3 -6 -6 -6 -3 0 -3 3 0 6 2 3 6 3 6 0z m38
-16 c3 -2 3 -6 0 -6 -3 0 -6 3 -6 6 0 3 3 3 6 0z m-8 -16 c1 -1 2 -2 2 -4 0
-2 0 -2 -6 -2 -8 0 -12 3 -8 6 2 3 9 3 12 0z"/><path d="M170 422 c-1 -1 -2 -3 -2 -4 0 -1 -1 -2 -2 -2 -3 0 -6 -3 -6 -6 0 -1
-1 -2 -2 -2 -4 0 -6 -3 -6 -8 0 -4 0 -5 -4 -8 l-4 -3 0 -13 c0 -15 1 -16 8
-16 3 0 5 -1 7 -2 1 -2 1 -2 -3 -6 -4 -3 -4 -4 -4 -8 0 -5 2 -8 6 -8 2 0 2 0
2 -6 0 -7 2 -10 6 -10 1 0 2 -1 2 -2 0 -2 3 -5 8 -10 8 -7 8 -8 8 -12 0 -5 2
-8 6 -8 1 0 2 -1 2 -2 0 -1 4 -6 10 -12 l10 -10 6 0 c8 0 8 -3 2 -8 l-4 -4 6
-6 6 -6 6 0 c8 0 8 -3 2 -8 -4 -4 -4 -4 -3 -6 2 -1 4 -2 7 -2 3 0 5 -1 7 -2 1
-2 1 -2 -3 -6 -4 -4 -4 -4 -3 -6 2 -1 4 -2 7 -2 5 0 8 -2 8 -6 0 -1 -1 -2 -2
-2 -2 0 -4 -1 -5 -2 -1 -2 -1 -2 1 -4 2 -2 2 -2 4 -1 1 1 2 3 2 5 0 1 1 2 2 2
4 0 6 3 6 8 0 4 0 5 4 8 4 3 4 4 4 8 0 4 0 5 -4 8 l-4 4 6 6 c5 6 6 6 10 6 5
0 8 2 8 6 0 1 1 2 2 2 2 0 4 1 5 2 1 2 1 2 0 4 -1 1 -3 2 -5 2 -2 0 -2 0 -2 4
l0 4 6 0 6 0 10 10 10 10 -4 4 -4 4 6 6 6 6 4 -4 c4 -4 4 -4 6 -3 2 2 2 3 2 9
0 6 0 6 2 6 2 0 4 1 4 2 2 2 2 2 1 4 -1 1 -3 2 -5 2 -1 0 -2 1 -2 2 0 4 3 6 8
6 3 0 5 1 7 2 1 2 1 2 -3 6 -4 4 -4 4 -3 6 2 1 4 2 7 2 8 0 8 1 8 20 0 19 0
20 -8 20 -3 0 -5 1 -7 2 -1 2 -1 2 3 6 l4 4 -6 6 c-3 3 -7 6 -8 6 -1 0 -2 1
-2 2 0 4 -3 6 -8 6 -4 0 -5 0 -8 -4 l-4 -4 -4 4 c-3 4 -4 4 -8 4 -4 0 -5 0 -8
-4 l-4 -4 -4 4 c-4 4 -4 4 -6 3 -1 -2 -2 -4 -2 -7 0 -5 -2 -8 -6 -8 -1 0 -2 1
-2 2 0 2 -1 4 -2 5 -2 1 -2 1 -4 -1 -2 -2 -2 -2 -1 -4 1 -1 3 -2 5 -2 1 0 2
-1 2 -2 0 -4 -3 -6 -8 -6 -4 0 -5 0 -8 -4 -3 -4 -4 -4 -8 -4 -5 0 -8 2 -8 6 0
1 1 2 2 2 2 0 4 1 5 2 1 2 1 2 0 4 -1 1 -3 2 -5 2 -1 0 -2 1 -2 2 0 3 -3 6 -6
6 -1 0 -2 1 -2 2 0 4 -3 6 -8 6 -4 0 -5 0 -8 -4 l-4 -4 -4 4 c-3 4 -4 4 -8 4
-4 0 -5 0 -8 -4 l-4 -4 -4 4 c-3 4 -4 4 -8 4 -3 0 -5 -1 -6 -2z m5 -8 c1 -2 1
-2 0 -4 -1 -1 -3 -2 -5 -2 -1 0 -2 -1 -2 -2 0 -2 -1 -4 -2 -4 -2 -2 -2 -2 -4
0 -4 3 -3 6 2 6 l4 0 0 4 c0 5 3 6 7 2z m57 -2 l0 -4 4 0 4 0 0 -4 c0 -3 0 -4
-2 -4 -3 0 -6 3 -6 6 0 1 -1 2 -2 2 -2 0 -4 1 -4 2 -2 2 -2 2 0 4 3 4 6 3 6
-2z m104 2 c0 -2 -1 -4 -2 -5 -2 -1 -2 -1 -4 1 -2 2 -2 2 -1 4 3 3 7 3 7 0z
m-110 -20 c6 -5 6 -6 6 -10 0 -4 0 -5 4 -8 4 -3 4 -4 4 -8 0 -4 0 -5 6 -10 l6
-6 10 10 10 10 0 8 0 8 6 6 6 6 16 0 16 0 10 -10 10 -10 0 -12 0 -13 -4 -3
c-4 -3 -4 -4 -4 -8 0 -4 0 -5 -8 -12 -8 -7 -8 -8 -8 -12 0 -4 0 -5 -8 -12 -8
-7 -8 -8 -8 -12 0 -4 0 -5 -4 -8 -4 -3 -4 -3 -4 -10 l0 -6 -6 0 -6 0 -6 -6
c-5 -5 -6 -6 -6 -10 0 -4 -1 -5 -6 -10 l-6 -6 -6 0 -6 0 0 10 c0 13 -1 14 -10
14 l-6 0 0 6 c0 7 0 7 -4 10 -4 3 -4 4 -4 8 0 6 -2 8 -10 8 -6 0 -6 0 -6 -2 0
-3 -3 -6 -6 -6 -1 0 -2 1 -2 2 0 3 3 6 6 6 2 0 2 0 2 6 0 7 0 7 -4 10 -4 3 -4
4 -4 8 0 4 0 5 -4 8 -4 3 -4 4 -4 8 0 4 0 5 -4 8 -4 3 -4 4 -4 8 0 4 0 5 -4 8
l-4 3 0 9 0 8 10 10 10 10 16 0 16 0 6 -6z m29 -12 c1 -2 1 -2 -1 -4 l-2 -2
-2 2 c-2 2 -2 2 -1 4 1 1 3 2 3 2 0 0 2 -1 3 -2z m-88 -40 c1 -2 1 -2 0 -4 -3
-3 -7 -3 -7 0 0 2 3 6 4 6 0 0 2 -1 3 -2z m8 -16 c1 -2 1 -2 0 -4 -3 -3 -7 -3
-7 0 0 2 3 6 4 6 0 0 2 -1 3 -2z m161 -2 c0 -5 -3 -6 -6 -2 -2 2 -2 2 0 4 3 4
6 3 6 -2z m-48 -64 c0 -5 -3 -6 -6 -2 -2 2 -2 2 0 4 3 4 6 3 6 -2z"/><path d="M441 238 c-1 -2 -1 -2 1 -4 l2 -2 2 2 c2 2 2 2 1 4 -1 1 -3 2 -3 2 0
0 -2 -1 -3 -2z"/></g>
  <g transform="scale(0.125 0.125) translate(0.000000,512.000000) scale(1.000000,-1.000000)" fill="#c0bfc0" stroke="none"><path d="M210 478 c-2 -2 -2 -2 0 -4 1 -2 3 -2 10 -2 7 0 9 0 11 2 1 2 1 2 0
4 -2 2 -4 2 -11 2 -7 0 -9 0 -10 -2z"/><path d="M274 478 c-2 -2 -2 -2 0 -4 1 -2 3 -2 10 -2 7 0 9 0 11 2 1 2 1 2 0
4 -2 2 -4 2 -11 2 -7 0 -9 0 -10 -2z"/><path d="M178 470 c-3 -3 0 -6 6 -6 3 0 5 1 7 2 2 3 -1 6 -7 6 -3 0 -5 -1 -6
-2z"/><path d="M314 470 c-3 -3 0 -6 6 -6 6 0 9 3 7 6 -2 1 -4 2 -7 2 -3 0 -5 -1 -6
-2z"/><path d="M161 462 c-1 -2 -1 -2 1 -4 l2 -2 2 2 c2 2 2 2 1 4 -1 1 -3 2 -3 2 0
0 -2 -1 -3 -2z"/><path d="M337 462 c-1 -2 -1 -2 1 -4 l2 -2 2 2 c2 2 2 2 1 4 -1 1 -3 2 -3 2 0
0 -2 -1 -3 -2z"/><path d="M145 454 c-1 -2 -1 -2 1 -4 l2 -2 2 2 c2 2 2 2 1 4 -1 1 -3 2 -3 2 0
0 -2 -1 -3 -2z"/><path d="M353 454 c-1 -2 -1 -2 1 -4 l2 -2 2 2 c2 2 2 2 1 4 -1 1 -3 2 -3 2 0
0 -2 -1 -3 -2z"/><path d="M130 446 c-1 -1 -2 -3 -2 -4 0 -1 -1 -2 -2 -2 -2 0 -4 -1 -5 -2 -1
-2 -1 -2 1 -4 2 -2 2 -2 4 -1 1 1 2 3 2 5 0 1 1 2 2 2 2 0 4 1 5 2 1 2 1 2 0
4 -3 2 -3 2 -5 0z"/><path d="M370 446 c-2 -2 -2 -2 0 -4 0 -1 2 -2 4 -2 1 0 2 -1 2 -2 0 -2 1 -4
2 -5 2 -1 2 -1 4 1 2 2 2 2 1 4 -1 1 -3 2 -5 2 -1 0 -2 1 -2 2 0 2 -3 6 -4 6
0 0 -2 -1 -2 -2z"/><path d="M105 430 c-1 -2 -1 -2 1 -4 l2 -2 2 2 c2 2 2 2 1 4 -1 1 -3 2 -3 2 0
0 -2 -1 -3 -2z"/><path d="M394 430 c-2 -2 -2 -2 0 -4 0 -1 2 -2 4 -2 1 0 2 -1 2 -2 0 -2 1 -4
2 -5 2 -1 2 -1 4 1 2 2 2 2 1 4 -1 1 -3 2 -5 2 -1 0 -2 1 -2 2 0 2 -3 6 -4 6
0 0 -2 -1 -2 -2z"/><path d="M178 422 c-1 -1 -2 -3 -2 -6 0 -5 -2 -8 -6 -8 -1 0 -2 1 -2 2 0 2 -1
4 -2 5 -2 1 -2 1 -4 -1 -2 -2 -2 -2 -1 -4 1 -1 3 -2 5 -2 1 0 2 -1 2 -2 0 -4
-3 -6 -8 -6 -6 0 -8 -2 -8 -8 0 -4 0 -5 -4 -8 -4 -3 -4 -4 -4 -8 0 -4 0 -5 8
-12 l9 -8 -5 -4 c-4 -4 -4 -4 -3 -6 2 -1 4 -2 7 -2 3 0 5 -1 7 -2 1 -2 1 -2
-3 -6 -4 -4 -4 -4 -3 -6 2 -1 4 -2 7 -2 3 0 5 -1 7 -2 1 -2 1 -2 -3 -6 l-4 -4
10 -10 10 -10 6 0 6 0 0 -10 0 -10 6 -6 6 -6 6 0 6 0 0 -10 c0 -13 1 -14 10
-14 8 0 8 -3 2 -8 -4 -4 -4 -4 -3 -6 2 -1 4 -2 7 -2 3 0 5 -1 7 -2 1 -2 1 -2
-3 -6 -4 -4 -4 -4 -3 -6 2 -2 3 -2 11 -2 10 0 12 1 12 8 0 4 0 5 4 8 l5 4 -5
4 -4 4 6 6 c5 6 6 6 10 6 3 0 5 1 7 2 1 2 1 2 -3 6 l-4 4 4 4 c2 2 4 4 4 6 0
2 0 2 6 2 l6 0 10 10 10 10 -4 4 -4 4 6 6 c5 6 6 6 10 6 3 0 5 1 7 2 1 2 1 2
-3 6 l-4 4 6 6 c5 6 6 6 10 6 3 0 5 1 7 2 1 2 1 2 -3 6 l-4 4 8 8 8 8 0 12 c0
15 -1 16 -8 16 -3 0 -5 1 -7 2 -1 2 -1 2 3 6 l4 4 -6 6 -6 6 -4 -4 c-4 -4 -4
-4 -6 -3 -1 2 -2 4 -2 7 0 3 -1 5 -2 7 -2 1 -2 1 -6 -3 l-4 -4 -4 4 c-3 4 -4
4 -8 4 -4 0 -5 0 -8 -4 l-4 -4 -4 4 c-4 4 -4 4 -6 3 -1 -2 -2 -4 -2 -7 0 -4 0
-5 -6 -10 -5 -6 -6 -6 -10 -6 -4 0 -5 0 -8 -4 -3 -4 -4 -4 -8 -4 -4 0 -4 0
-14 10 -10 10 -10 10 -10 14 0 3 -1 5 -2 7 -2 1 -2 1 -6 -3 l-4 -4 -4 4 c-3 4
-4 4 -8 4 -4 0 -5 0 -8 -4 l-4 -4 -4 4 c-4 5 -4 5 -6 2z m48 -28 c6 -5 6 -6 6
-10 0 -4 0 -5 4 -8 4 -3 4 -4 4 -8 0 -4 0 -5 6 -10 l6 -6 10 10 10 10 0 8 0 8
6 6 6 6 16 0 16 0 10 -10 10 -10 0 -12 0 -13 -4 -3 c-4 -3 -4 -4 -4 -8 0 -4 0
-5 -8 -12 -8 -7 -8 -8 -8 -12 0 -4 0 -5 -8 -12 -8 -7 -8 -8 -8 -12 0 -4 0 -5
-4 -8 -4 -3 -4 -3 -4 -10 l0 -6 -6 0 -6 0 -6 -6 c-5 -5 -6 -6 -6 -10 0 -4 -1
-5 -6 -10 l-6 -6 -6 0 -6 0 0 10 c0 13 -1 14 -10 14 l-6 0 0 6 c0 7 0 7 -4 10
-4 3 -4 4 -4 8 0 6 -2 8 -10 8 l-6 0 0 6 c0 7 0 7 -4 10 -4 3 -4 4 -4 8 0 4 0
5 -4 8 -4 3 -4 4 -4 8 0 4 0 5 -4 8 -4 3 -4 4 -4 8 0 4 0 5 -4 8 l-4 3 0 9 0
8 10 10 10 10 16 0 16 0 6 -6z m29 -12 c1 -2 1 -2 -1 -4 l-2 -2 -2 2 c-2 2 -2
2 -1 4 1 1 3 2 3 2 0 0 2 -1 3 -2z"/><path d="M90 406 c-1 -1 -2 -3 -2 -4 0 -1 -1 -2 -2 -2 -3 0 -6 -3 -6 -6 0 -2
-1 -2 -4 -2 -4 0 -4 0 -4 2 0 2 -1 4 -2 5 -2 1 -2 1 -4 -1 -2 -2 -2 -2 -1 -4
1 -1 3 -2 5 -2 2 0 2 0 2 -8 0 -8 0 -8 -2 -8 -6 0 -8 -10 -4 -14 3 -4 6 0 6 8
0 6 0 6 2 6 4 0 6 3 6 10 0 6 0 6 2 6 3 0 6 3 6 6 0 1 1 2 2 2 2 0 4 1 5 2 1
2 1 2 0 4 -3 2 -3 2 -5 0z"/><path d="M410 406 c-2 -2 -2 -2 0 -4 0 -1 2 -2 4 -2 1 0 2 -1 2 -2 0 -3 3 -6
6 -6 2 0 2 0 2 -6 0 -7 2 -10 6 -10 2 0 2 0 2 -6 0 -7 2 -10 6 -10 2 0 2 0 2
-14 0 -13 0 -15 2 -16 2 -2 2 -2 4 0 2 1 2 3 2 10 l0 9 4 3 c4 3 4 4 4 8 0 3
-1 5 -2 7 -2 1 -2 1 -6 -3 -6 -7 -8 -6 -8 4 0 8 0 8 2 8 2 0 4 1 5 2 1 2 1 2
-1 4 -2 2 -2 2 -4 1 -1 -1 -2 -3 -2 -5 0 -2 0 -2 -4 -2 l-4 0 0 6 c0 7 -2 10
-6 10 -2 0 -2 1 -2 4 0 4 0 4 2 4 2 0 4 1 5 2 1 2 1 2 -1 4 -2 2 -2 2 -4 1 -1
-1 -2 -3 -2 -5 0 -2 0 -2 -4 -2 -4 0 -4 0 -4 2 0 2 -3 6 -4 6 0 0 -2 -1 -2 -2z"/><path d="M58 350 c-3 -3 -3 -18 0 -20 2 -2 2 -2 4 0 3 2 3 18 0 20 -2 2 -2 2
-4 0z"/><path d="M458 334 c-2 -1 -2 -4 -2 -10 l0 -8 -4 -4 -4 -4 4 -4 4 -3 0 -9 c0
-7 0 -9 2 -10 2 -2 2 -2 4 0 3 2 3 50 0 52 -2 2 -2 2 -4 0z"/><path d="M442 294 c-2 -1 -2 -4 -2 -14 0 -14 1 -16 6 -16 1 0 2 -1 2 -2 0 -2
1 -4 2 -5 2 -1 2 -1 4 1 2 2 2 2 1 4 -1 1 -3 2 -5 2 l-2 0 0 14 c0 13 0 15 -2
16 -2 2 -2 2 -4 0z"/><path d="M58 286 c-2 -1 -2 -4 -2 -12 0 -10 0 -10 -2 -10 -2 0 -4 -1 -5 -2 -1
-2 -1 -2 1 -4 2 -2 2 -2 4 -1 1 1 2 3 2 5 0 1 1 2 2 2 5 0 6 3 6 12 0 7 0 9
-2 10 -2 2 -2 2 -4 0z"/><path d="M65 254 c-1 -2 -1 -2 1 -4 l2 -2 2 2 c2 2 2 2 1 4 -1 1 -3 2 -3 2 0
0 -2 -1 -3 -2z"/><path d="M433 254 c-1 -2 -1 -2 1 -4 l2 -2 2 2 c2 2 2 2 1 4 -1 1 -3 2 -3 2 0
0 -2 -1 -3 -2z"/><path d="M73 238 c-1 -2 -1 -2 1 -4 l2 -2 2 2 c2 2 2 2 1 4 -1 1 -3 2 -3 2 0
0 -2 -1 -3 -2z"/><path d="M426 238 c-1 -1 -2 -3 -2 -4 0 -1 -1 -2 -2 -2 -4 0 -6 -3 -6 -10 0
-6 0 -6 -2 -6 -3 0 -6 -3 -6 -6 0 -1 -1 -2 -2 -2 -3 0 -6 -3 -6 -6 0 -1 -1 -2
-2 -2 -3 0 -6 -3 -6 -6 0 -1 -1 -2 -2 -2 -3 0 -6 -3 -6 -6 0 -1 -1 -2 -2 -2
-4 0 -6 -3 -6 -10 l0 -6 -4 0 c-4 0 -4 0 -4 2 0 2 -1 4 -2 5 -2 1 -2 1 -4 0
-1 -1 -2 -3 -2 -5 0 -2 0 -2 -6 -2 -5 0 -7 0 -8 -2 -2 -2 -2 -2 4 -8 6 -6 6
-6 8 -4 2 1 2 3 2 8 l0 6 4 0 c4 0 4 0 4 -2 0 -2 1 -4 2 -4 2 -2 2 -2 4 0 1 0
2 2 2 4 0 1 1 2 2 2 4 0 6 3 6 10 l0 6 4 0 c4 0 4 0 4 -2 0 -2 1 -4 2 -5 2 -1
2 -1 4 1 2 2 2 2 1 4 -1 1 -3 2 -5 2 -2 0 -2 0 -2 4 0 4 0 4 2 4 3 0 6 3 6 6
0 1 1 2 2 2 3 0 6 3 6 6 0 1 1 2 2 2 3 0 6 3 6 6 0 2 1 2 4 2 4 0 4 0 4 -2 0
-2 1 -4 2 -5 2 -1 2 -1 4 1 2 2 2 2 1 4 -1 1 -3 2 -5 2 -2 0 -2 0 -2 8 0 8 0
8 2 8 2 0 4 1 5 2 1 2 1 2 0 4 -3 2 -3 2 -5 0z"/><path d="M441 238 c-1 -2 -1 -2 1 -4 l2 -2 2 2 c2 2 2 2 1 4 -1 1 -3 2 -3 2 0
0 -2 -1 -3 -2z"/><path d="M82 222 c-1 -1 -2 -3 -2 -4 0 -1 -1 -2 -2 -2 -2 0 -4 -1 -5 -2 -1 -2
-1 -2 1 -4 2 -2 2 -2 4 -1 1 1 2 3 2 5 0 2 0 2 4 2 4 0 4 0 4 -2 0 -3 3 -6 6
-6 1 0 2 -1 2 -2 0 -3 3 -6 6 -6 1 0 2 -1 2 -2 0 -3 3 -6 6 -6 1 0 2 -1 2 -2
0 -3 3 -6 6 -6 1 0 2 -1 2 -2 0 -4 3 -6 10 -6 6 0 6 0 6 -2 0 -3 3 -6 6 -6 2
0 2 0 2 -6 0 -5 0 -7 2 -8 2 -2 2 -2 8 4 6 6 6 6 4 8 -1 2 -3 2 -8 2 -6 0 -6
0 -6 2 0 3 -3 6 -6 6 -1 0 -2 1 -2 2 0 4 -3 6 -10 6 -6 0 -6 0 -6 2 0 3 -3 6
-6 6 -1 0 -2 1 -2 2 0 3 -3 6 -6 6 -1 0 -2 1 -2 2 0 3 -3 6 -6 6 -1 0 -2 1 -2
2 0 3 -3 6 -6 6 -1 0 -2 1 -2 2 0 2 -3 6 -4 6 0 0 -1 -1 -2 -2z"/><path d="M249 198 c-1 -2 -1 -2 1 -4 l2 -2 2 2 c2 2 2 2 1 4 -1 1 -3 2 -3 2 0
0 -2 -1 -3 -2z"/><path d="M166 154 c-6 -6 -6 -6 -4 -8 1 -1 3 -2 6 -2 4 0 5 0 8 4 2 3 4 4 6 4
2 0 2 0 2 -6 l0 -6 8 -8 c8 -7 8 -8 8 -12 0 -4 1 -5 6 -10 3 -4 7 -6 8 -6 2 0
2 -1 2 -6 0 -7 2 -10 6 -10 2 0 2 0 2 -6 0 -7 0 -7 4 -10 4 -3 4 -4 4 -8 0 -4
0 -5 8 -12 8 -7 8 -8 8 -12 0 -3 1 -5 2 -6 2 -2 2 -2 8 4 l6 6 0 6 c0 6 0 6 2
6 4 0 6 3 6 10 0 5 0 6 2 6 1 0 5 2 8 6 l6 6 0 6 c0 6 0 6 2 6 4 0 6 3 6 10 0
6 0 6 2 6 4 0 6 3 6 8 0 4 0 5 8 12 l8 8 0 6 c0 6 0 6 2 6 2 0 4 -1 6 -4 3 -4
4 -4 8 -4 3 0 5 1 6 2 2 2 2 2 -4 8 -5 6 -6 6 -10 6 -5 0 -8 -2 -8 -6 0 -2 -1
-2 -6 -2 l-6 0 -6 -6 c-5 -5 -6 -6 -6 -10 0 -4 0 -5 -4 -8 l-4 -4 4 -4 c6 -6
6 -8 -2 -8 -6 0 -7 0 -9 -2 -1 -2 -1 -2 3 -6 6 -5 6 -8 -2 -8 l-6 0 -6 -6 -6
-6 4 -4 c6 -6 6 -8 -2 -8 -6 0 -7 0 -9 -2 -1 -2 -1 -2 3 -6 6 -6 6 -8 -2 -8
-9 0 -10 1 -10 12 l0 8 -6 6 -6 6 -6 0 c-8 0 -8 3 -2 8 4 4 4 4 3 6 -2 2 -3 2
-9 2 -8 0 -8 2 -2 8 l5 4 -5 4 c-4 3 -4 4 -4 8 0 6 -2 8 -8 8 -6 0 -8 2 -8 8
0 6 -2 8 -10 8 -6 0 -6 0 -6 2 0 4 -3 6 -8 6 -4 0 -5 -1 -10 -6z"/></g>
  <g transform="scale(0.125 0.125) translate(0.000000,512.000000) scale(1.000000,-1.000000)" fill="#000000" stroke="none"><path d="M209 478 c-1 -2 -1 -2 1 -4 l2 -2 2 2 c2 2 2 2 1 4 -1 1 -3 2 -3 2 0
0 -2 -1 -3 -2z"/><path d="M289 478 c-1 -2 -1 -2 1 -4 l2 -2 2 2 c2 2 2 2 1 4 -1 1 -3 2 -3 2 0
0 -2 -1 -3 -2z"/><path d="M177 470 c-1 -2 -1 -2 1 -4 l2 -2 2 2 c2 2 2 2 1 4 -1 1 -3 2 -3 2 0
0 -2 -1 -3 -2z"/><path d="M321 470 c-1 -2 -1 -2 1 -4 l2 -2 2 2 c2 2 2 2 1 4 -1 1 -3 2 -3 2 0
0 -2 -1 -3 -2z"/><path d="M129 446 c-1 -2 -1 -2 1 -4 l2 -2 2 2 c2 2 2 2 1 4 -1 1 -3 2 -3 2 0
0 -2 -1 -3 -2z"/><path d="M105 430 c-1 -2 -1 -2 1 -4 l2 -2 2 2 c2 2 2 2 1 4 -1 1 -3 2 -3 2 0
0 -2 -1 -3 -2z"/><path d="M394 430 c-2 -2 -2 -2 0 -4 0 -1 2 -2 4 -2 1 0 2 -1 2 -2 0 -2 1 -4
2 -5 2 -1 2 -1 4 1 2 2 2 2 1 4 -1 1 -3 2 -5 2 -1 0 -2 1 -2 2 0 2 -3 6 -4 6
0 0 -2 -1 -2 -2z"/><path d="M192 420 c-3 -4 -4 -4 -8 -4 -4 0 -5 0 -12 -8 -7 -8 -8 -8 -12 -8 -8
0 -8 -1 -8 -20 l0 -17 4 -3 c4 -3 4 -4 4 -8 0 -4 0 -5 4 -8 l5 -4 -5 -4 c-4
-4 -4 -4 -3 -6 2 -1 4 -2 7 -2 6 0 8 -2 8 -8 0 -4 0 -5 4 -8 4 -3 4 -4 4 -8 0
-6 2 -8 10 -8 l6 0 0 -6 c0 -7 0 -7 4 -10 4 -3 4 -4 4 -8 0 -6 2 -8 10 -8 l6
0 0 -6 0 -6 6 -6 c3 -4 7 -6 8 -6 2 0 2 -1 2 -6 0 -7 0 -7 4 -10 4 -3 4 -4 4
-8 0 -3 1 -5 2 -6 2 -2 2 -2 12 8 l10 10 -4 4 -4 4 8 8 c8 7 8 8 8 12 0 4 0 5
4 8 3 2 4 4 4 6 0 2 0 2 6 2 8 0 10 2 10 8 0 4 0 5 4 8 4 3 4 4 4 8 0 4 0 5 8
12 8 7 8 8 8 12 0 4 0 5 8 12 8 7 8 8 8 12 0 4 0 5 4 8 4 3 4 4 4 8 0 4 0 5 4
8 4 3 4 4 4 8 0 4 0 5 -8 12 -8 7 -8 8 -8 12 0 6 -2 8 -8 8 -6 0 -8 2 -8 8 0
3 -1 5 -2 7 -2 1 -2 1 -6 -3 l-4 -4 -4 4 c-3 4 -4 4 -8 4 -4 0 -5 0 -8 -4 -3
-4 -4 -4 -8 -4 -4 0 -4 0 -18 -14 -14 -14 -14 -14 -14 -18 0 -3 -1 -5 -2 -6
-3 -3 -6 0 -6 6 0 4 0 4 -14 18 -14 14 -14 14 -18 14 -4 0 -5 0 -8 4 -3 4 -4
4 -8 4 -4 0 -5 0 -8 -4z m34 -26 c6 -5 6 -6 6 -10 0 -4 0 -5 4 -8 4 -3 4 -4 4
-8 0 -4 0 -5 6 -10 l6 -6 10 10 10 10 0 8 0 8 6 6 6 6 16 0 16 0 10 -10 10
-10 0 -12 0 -13 -4 -3 c-4 -3 -4 -4 -4 -8 0 -4 0 -5 -8 -12 -8 -7 -8 -8 -8
-12 0 -4 0 -5 -8 -12 -8 -7 -8 -8 -8 -12 0 -4 0 -5 -4 -8 -4 -3 -4 -3 -4 -10
l0 -6 -6 0 -6 0 -6 -6 c-5 -5 -6 -6 -6 -10 0 -4 -1 -5 -6 -10 l-6 -6 -6 0 -6
0 0 10 c0 13 -1 14 -10 14 l-6 0 0 6 c0 7 0 7 -4 10 -4 3 -4 4 -4 8 0 6 -2 8
-10 8 l-6 0 0 6 c0 7 0 7 -4 10 -4 3 -4 4 -4 8 0 4 0 5 -4 8 -4 3 -4 4 -4 8 0
4 0 5 -4 8 -4 3 -4 4 -4 8 0 4 0 5 -4 8 l-4 3 0 9 0 8 10 10 10 10 16 0 16 0
6 -6z"/><path d="M425 406 c-1 -2 -1 -2 1 -4 l2 -2 2 2 c2 2 2 2 1 4 -1 1 -3 2 -3 2 0
0 -2 -1 -3 -2z"/><path d="M66 398 c-2 -2 -2 -2 0 -4 0 -1 2 -2 4 -2 1 0 2 -1 2 -2 0 -2 1 -4 2
-5 2 -1 2 -1 4 1 2 2 2 2 1 4 -1 1 -3 2 -5 2 -1 0 -2 1 -2 2 0 2 -3 6 -4 6 0
0 -2 -1 -2 -2z"/><path d="M425 390 c-1 -2 -1 -2 1 -4 l2 -2 2 2 c2 2 2 2 1 4 -1 1 -3 2 -3 2 0
0 -2 -1 -3 -2z"/><path d="M442 382 c-1 -1 -2 -3 -2 -4 0 -1 -1 -2 -2 -2 -2 0 -4 -1 -5 -2 -1
-2 -1 -2 1 -4 2 -2 2 -2 4 -1 1 1 2 3 2 5 0 1 1 2 2 2 2 0 4 1 5 2 1 2 1 2 0
4 -3 2 -3 2 -5 0z"/><path d="M65 374 c-1 -2 -1 -2 1 -4 l2 -2 2 2 c2 2 2 2 1 4 -1 1 -3 2 -3 2 0
0 -2 -1 -3 -2z"/><path d="M446 362 c-6 -6 -6 -6 -4 -8 2 -3 10 -3 12 0 3 2 3 10 0 12 -2 2 -2
3 -8 -4z"/><path d="M57 350 c-1 -2 -1 -2 1 -4 l2 -2 2 2 c2 2 2 2 1 4 -1 1 -3 2 -3 2 0
0 -2 -1 -3 -2z"/><path d="M458 334 c-2 -1 -2 -4 -2 -10 l0 -8 -4 -4 -4 -4 4 -4 4 -3 0 -9 c0
-7 0 -9 2 -10 2 -2 2 -2 4 0 3 2 3 50 0 52 -2 2 -2 2 -4 0z"/><path d="M58 270 c-1 -1 -2 -3 -2 -4 0 -1 -1 -2 -2 -2 -2 0 -4 -1 -5 -2 -1 -2
-1 -2 1 -4 2 -2 2 -2 4 -1 1 1 2 3 2 5 0 1 1 2 2 2 2 0 4 1 5 2 1 2 1 2 0 4
-3 2 -3 2 -5 0z"/><path d="M442 270 c-2 -2 -2 -2 0 -4 0 -1 2 -2 4 -2 1 0 2 -1 2 -2 0 -2 1 -4
2 -5 2 -1 2 -1 4 1 2 2 2 2 1 4 -1 1 -3 2 -5 2 -1 0 -2 1 -2 2 0 2 -3 6 -4 6
0 0 -2 -1 -2 -2z"/><path d="M441 238 c-1 -2 -1 -2 1 -4 l2 -2 2 2 c2 2 2 2 1 4 -1 1 -3 2 -3 2 0
0 -2 -1 -3 -2z"/><path d="M82 222 c-1 -1 -2 -3 -2 -4 0 -1 -1 -2 -2 -2 -2 0 -4 -1 -5 -2 -1 -2
-1 -2 1 -4 2 -2 2 -2 4 -1 1 1 2 3 2 5 0 1 1 2 2 2 2 0 4 1 5 2 1 2 1 2 0 4
-3 2 -3 2 -5 0z"/><path d="M418 222 c-2 -2 -2 -2 0 -4 0 -1 2 -2 4 -2 1 0 2 -1 2 -2 0 -2 1 -4
2 -5 2 -1 2 -1 4 1 2 2 2 2 1 4 -1 1 -3 2 -5 2 -1 0 -2 1 -2 2 0 2 -3 6 -4 6
0 0 -2 -1 -2 -2z"/><path d="M121 182 c-1 -2 -1 -2 1 -4 l2 -2 2 2 c2 2 2 2 1 4 -1 1 -3 2 -3 2 0
0 -2 -1 -3 -2z"/><path d="M378 182 c-2 -1 -2 -3 -2 -8 0 -6 0 -6 -2 -6 -2 0 -4 -1 -5 -2 -1 -2
-1 -2 1 -4 2 -2 2 -2 4 -1 1 1 2 3 2 5 0 1 1 2 2 2 6 0 8 10 4 14 -2 2 -2 2
-4 0z"/><path d="M393 182 c-1 -2 -1 -2 1 -4 l2 -2 2 2 c2 2 2 2 1 4 -1 1 -3 2 -3 2 0
0 -2 -1 -3 -2z"/><path d="M146 166 c-3 -3 -3 -10 0 -12 3 -3 6 0 6 6 0 7 -3 10 -6 6z"/><path d="M354 166 c-3 -3 -3 -10 0 -12 3 -3 6 0 6 6 0 7 -3 10 -6 6z"/><path d="M162 150 c-3 -3 0 -6 6 -6 3 0 5 1 7 2 2 3 -1 6 -7 6 -3 0 -5 -1 -6
-2z"/><path d="M186 150 c-1 -1 -2 -3 -2 -6 0 -4 0 -5 8 -12 8 -7 8 -8 8 -12 0 -4 1
-5 6 -10 3 -4 7 -6 8 -6 2 0 2 -1 2 -6 0 -7 2 -10 6 -10 2 0 2 0 2 -6 0 -7 0
-7 4 -10 4 -3 4 -4 4 -8 0 -4 0 -5 8 -12 8 -7 8 -8 8 -12 0 -3 1 -5 2 -6 2 -2
2 -2 8 4 l6 6 0 6 c0 6 0 6 2 6 4 0 6 3 6 10 0 5 0 6 2 6 1 0 5 2 8 6 l6 6 0
6 c0 6 0 6 2 6 4 0 6 3 6 10 0 6 0 6 2 6 4 0 6 3 6 8 0 4 0 5 8 12 8 7 8 8 8
12 0 3 -1 5 -2 7 -2 1 -2 1 -6 -3 -3 -4 -4 -4 -8 -4 -7 0 -8 -1 -8 -18 l0 -14
-2 0 c-4 0 -6 -3 -6 -10 l0 -6 -6 0 c-9 0 -10 -1 -10 -14 0 -10 0 -10 -2 -10
-4 0 -6 -3 -6 -10 l0 -6 -6 0 c-8 0 -10 2 -10 8 0 4 0 5 -4 8 -4 3 -4 4 -4 8
0 6 -2 8 -10 8 l-6 0 0 6 c0 7 -2 10 -6 10 -2 0 -2 0 -2 10 l0 10 -14 14 c-8
8 -14 14 -14 14 -1 0 -1 -1 -2 -2z"/><path d="M330 150 c-3 -3 0 -6 6 -6 6 0 9 3 7 6 -2 1 -4 2 -7 2 -3 0 -5 -1 -6
-2z"/></g>
  <g transform="scale(0.125 0.125) translate(0.000000,512.000000) scale(1.000000,-1.000000)" fill="#0b0809" stroke="none"><path d="M209 478 c-1 -2 -1 -2 1 -4 l2 -2 2 2 c2 2 2 2 1 4 -1 1 -3 2 -3 2 0
0 -2 -1 -3 -2z"/><path d="M289 478 c-1 -2 -1 -2 1 -4 l2 -2 2 2 c2 2 2 2 1 4 -1 1 -3 2 -3 2 0
0 -2 -1 -3 -2z"/><path d="M177 470 c-1 -2 -1 -2 1 -4 l2 -2 2 2 c2 2 2 2 1 4 -1 1 -3 2 -3 2 0
0 -2 -1 -3 -2z"/><path d="M321 470 c-1 -2 -1 -2 1 -4 l2 -2 2 2 c2 2 2 2 1 4 -1 1 -3 2 -3 2 0
0 -2 -1 -3 -2z"/><path d="M129 446 c-1 -2 -1 -2 1 -4 l2 -2 2 2 c2 2 2 2 1 4 -1 1 -3 2 -3 2 0
0 -2 -1 -3 -2z"/><path d="M105 430 c-1 -2 -1 -2 1 -4 l2 -2 2 2 c2 2 2 2 1 4 -1 1 -3 2 -3 2 0
0 -2 -1 -3 -2z"/><path d="M394 430 c-2 -2 -2 -2 0 -4 0 -1 2 -2 4 -2 1 0 2 -1 2 -2 0 -2 1 -4
2 -5 2 -1 2 -1 4 1 2 2 2 2 1 4 -1 1 -3 2 -5 2 -1 0 -2 1 -2 2 0 2 -3 6 -4 6
0 0 -2 -1 -2 -2z"/><path d="M297 422 c-1 -2 -1 -2 1 -4 l2 -2 2 2 c2 2 2 2 1 4 -1 1 -3 2 -3 2 0
0 -2 -1 -3 -2z"/><path d="M322 422 c-1 -1 -2 -3 -2 -6 0 -7 -1 -8 -16 -8 l-12 0 -4 4 c-4 4 -4
4 -6 3 -2 -2 -2 -3 -2 -9 l0 -6 -6 0 -6 0 -6 -6 -6 -6 4 -4 c4 -3 4 -4 4 -10
0 -6 0 -6 -2 -6 -3 0 -6 -3 -6 -6 0 -2 -1 -2 -4 -2 l-4 0 0 6 c0 7 -2 10 -6
10 -2 0 -2 0 -2 6 0 7 -2 10 -6 10 -1 0 -2 1 -2 2 0 3 -3 6 -6 6 -2 0 -2 0 -2
6 0 6 0 7 -2 9 -2 1 -2 1 -6 -3 l-3 -4 -13 0 -12 0 -4 4 c-4 4 -4 4 -6 3 -1
-2 -2 -4 -2 -7 0 -4 0 -5 -4 -8 -4 -3 -4 -3 -4 -10 0 -6 0 -6 -2 -6 -4 0 -6 3
-6 8 0 6 -3 9 -6 7 -2 -2 -2 -4 -2 -19 0 -20 0 -20 10 -20 l6 0 0 -12 c0 -12
0 -12 -2 -12 -2 0 -4 -1 -5 -2 -1 -2 -1 -2 1 -4 2 -2 2 -2 4 -1 1 1 2 3 2 5 0
4 4 3 8 -2 2 -3 4 -4 6 -4 4 0 3 -4 -2 -8 l-4 -4 4 -4 c4 -3 4 -4 4 -8 0 -3 1
-5 2 -6 2 -2 2 -2 8 4 l6 6 -4 4 c-4 3 -4 4 -4 8 0 5 -2 8 -6 8 -2 0 -2 0 -2
6 0 7 0 7 -4 10 -4 3 -4 4 -4 8 0 5 -2 8 -6 8 -2 0 -2 0 -2 12 0 12 0 12 2 12
2 0 5 3 10 8 l8 8 18 0 18 0 0 -2 c0 -3 3 -6 6 -6 2 0 2 0 2 -6 0 -7 2 -10 6
-10 2 0 2 0 2 -6 0 -7 2 -10 6 -10 1 0 2 -1 2 -2 0 -2 1 -4 2 -4 2 -2 2 -2 4
0 1 0 2 2 2 4 0 1 1 2 2 2 3 0 6 3 6 6 0 1 1 2 2 2 5 0 6 3 6 12 l0 9 4 3 c3
2 4 4 4 6 l0 2 18 0 18 0 8 -8 c5 -5 8 -8 10 -8 2 0 2 0 2 -16 l0 -16 -2 0
c-4 0 -6 -3 -6 -10 0 -5 0 -6 -2 -6 -1 0 -5 -2 -8 -6 l-6 -6 0 -6 c0 -6 0 -6
-2 -6 -3 0 -6 -3 -6 -6 0 -1 -1 -2 -2 -2 -4 0 -6 -3 -6 -8 0 -4 0 -5 -4 -8
l-4 -4 6 -6 c6 -6 6 -6 8 -4 1 1 2 3 2 6 0 4 0 5 4 8 l5 4 -5 4 c-5 4 -6 8 -2
8 3 0 6 3 6 6 0 2 0 2 6 2 9 0 10 1 10 14 l0 10 6 0 c6 0 7 0 9 2 1 2 1 2 -3
6 -6 6 -6 8 2 8 6 0 7 0 9 2 1 2 1 2 -3 6 l-4 4 0 10 0 10 4 0 4 0 0 -6 c0 -8
3 -12 6 -8 5 4 2 14 -4 14 -1 0 -2 1 -2 2 0 2 -1 4 -2 5 -2 1 -2 1 -4 0 -1 -1
-2 -3 -2 -5 0 -2 0 -2 -4 -2 l-4 0 0 8 c0 8 0 8 2 8 2 0 4 1 5 2 1 2 1 2 -1 4
-2 2 -2 2 -4 1 -1 -1 -2 -3 -2 -5 0 -1 -1 -2 -2 -2 -5 0 -6 3 -6 12 0 7 0 9
-2 10 -2 2 -2 2 -4 0z"/><path d="M425 406 c-1 -2 -1 -2 1 -4 l2 -2 2 2 c2 2 2 2 1 4 -1 1 -3 2 -3 2 0
0 -2 -1 -3 -2z"/><path d="M66 398 c-2 -2 -2 -2 0 -4 0 -1 2 -2 4 -2 1 0 2 -1 2 -2 0 -2 1 -4 2
-5 2 -1 2 -1 4 1 2 2 2 2 1 4 -1 1 -3 2 -5 2 -1 0 -2 1 -2 2 0 2 -3 6 -4 6 0
0 -2 -1 -2 -2z"/><path d="M425 390 c-1 -2 -1 -2 1 -4 l2 -2 2 2 c2 2 2 2 1 4 -1 1 -3 2 -3 2 0
0 -2 -1 -3 -2z"/><path d="M442 382 c-1 -1 -2 -3 -2 -4 0 -1 -1 -2 -2 -2 -2 0 -4 -1 -5 -2 -1
-2 -1 -2 1 -4 2 -2 2 -2 4 -1 1 1 2 3 2 5 0 1 1 2 2 2 2 0 4 1 5 2 1 2 1 2 0
4 -3 2 -3 2 -5 0z"/><path d="M65 374 c-1 -2 -1 -2 1 -4 l2 -2 2 2 c2 2 2 2 1 4 -1 1 -3 2 -3 2 0
0 -2 -1 -3 -2z"/><path d="M446 362 c-6 -6 -6 -6 -4 -8 2 -3 10 -3 12 0 3 2 3 10 0 12 -2 2 -2
3 -8 -4z"/><path d="M57 350 c-1 -2 -1 -2 1 -4 l2 -2 2 2 c2 2 2 2 1 4 -1 1 -3 2 -3 2 0
0 -2 -1 -3 -2z"/><path d="M457 334 c-1 -2 -1 -2 1 -4 l2 -2 2 2 c2 2 2 2 1 4 -1 1 -3 2 -3 2 0
0 -2 -1 -3 -2z"/><path d="M449 310 c-1 -2 -1 -2 1 -4 l2 -2 2 2 c2 2 2 2 1 4 -1 1 -3 2 -3 2 0
0 -2 -1 -3 -2z"/><path d="M202 294 c-4 -4 -2 -14 4 -14 2 0 2 0 2 -6 0 -5 0 -7 2 -8 2 -2 2 -2
8 4 6 6 6 6 4 8 -1 2 -3 2 -8 2 -8 0 -8 2 -2 8 4 4 4 4 3 6 -3 3 -11 3 -13 0z"/><path d="M457 286 c-1 -2 -1 -2 1 -4 l2 -2 2 2 c2 2 2 2 1 4 -1 1 -3 2 -3 2 0
0 -2 -1 -3 -2z"/><path d="M58 270 c-1 -1 -2 -3 -2 -4 0 -1 -1 -2 -2 -2 -2 0 -4 -1 -5 -2 -1 -2
-1 -2 1 -4 2 -2 2 -2 4 -1 1 1 2 3 2 5 0 1 1 2 2 2 2 0 4 1 5 2 1 2 1 2 0 4
-3 2 -3 2 -5 0z"/><path d="M270 266 c-5 -5 -6 -6 -6 -10 0 -4 0 -5 -12 -16 -12 -12 -12 -12 -10
-14 1 -2 3 -2 8 -2 l6 0 0 -4 c0 -4 0 -4 -2 -4 -2 0 -4 -1 -5 -2 -1 -2 -1 -2
1 -4 2 -2 2 -2 4 -1 1 1 2 3 2 5 0 1 1 2 2 2 3 0 6 3 6 6 0 1 1 2 2 2 2 0 4 1
5 2 1 2 1 2 0 4 -1 1 -3 2 -5 2 -4 0 -3 4 2 8 4 3 4 4 4 8 0 4 0 5 4 8 4 3 4
4 4 8 0 3 -1 5 -2 6 -2 2 -2 3 -8 -4z m-6 -38 l0 -4 -4 0 c-3 0 -4 0 -4 2 0 3
3 6 6 6 2 0 2 0 2 -4z"/><path d="M442 270 c-2 -2 -2 -2 0 -4 0 -1 2 -2 4 -2 1 0 2 -1 2 -2 0 -2 1 -4
2 -5 2 -1 2 -1 4 1 2 2 2 2 1 4 -1 1 -3 2 -5 2 -1 0 -2 1 -2 2 0 2 -3 6 -4 6
0 0 -2 -1 -2 -2z"/><path d="M226 262 c-4 -4 -3 -10 4 -16 6 -6 6 -6 8 -4 3 2 3 18 0 20 -2 3 -10
3 -12 0z"/><path d="M441 238 c-1 -2 -1 -2 1 -4 l2 -2 2 2 c2 2 2 2 1 4 -1 1 -3 2 -3 2 0
0 -2 -1 -3 -2z"/><path d="M82 222 c-1 -1 -2 -3 -2 -4 0 -1 -1 -2 -2 -2 -2 0 -4 -1 -5 -2 -1 -2
-1 -2 1 -4 2 -2 2 -2 4 -1 1 1 2 3 2 5 0 1 1 2 2 2 2 0 4 1 5 2 1 2 1 2 0 4
-3 2 -3 2 -5 0z"/><path d="M418 222 c-2 -2 -2 -2 0 -4 0 -1 2 -2 4 -2 1 0 2 -1 2 -2 0 -2 1 -4
2 -5 2 -1 2 -1 4 1 2 2 2 2 1 4 -1 1 -3 2 -5 2 -1 0 -2 1 -2 2 0 2 -3 6 -4 6
0 0 -2 -1 -2 -2z"/><path d="M121 182 c-1 -2 -1 -2 1 -4 l2 -2 2 2 c2 2 2 2 1 4 -1 1 -3 2 -3 2 0
0 -2 -1 -3 -2z"/><path d="M378 182 c-2 -1 -2 -3 -2 -8 0 -6 0 -6 -2 -6 -2 0 -4 -1 -5 -2 -1 -2
-1 -2 1 -4 2 -2 2 -2 4 -1 1 1 2 3 2 5 0 1 1 2 2 2 6 0 8 10 4 14 -2 2 -2 2
-4 0z"/><path d="M393 182 c-1 -2 -1 -2 1 -4 l2 -2 2 2 c2 2 2 2 1 4 -1 1 -3 2 -3 2 0
0 -2 -1 -3 -2z"/><path d="M146 166 c-3 -3 -3 -10 0 -12 3 -3 6 0 6 6 0 7 -3 10 -6 6z"/><path d="M354 166 c-3 -3 -3 -10 0 -12 3 -3 6 0 6 6 0 7 -3 10 -6 6z"/><path d="M162 150 c-3 -3 0 -6 6 -6 3 0 5 1 7 2 2 3 -1 6 -7 6 -3 0 -5 -1 -6
-2z"/><path d="M186 150 c-4 -4 -3 -10 4 -16 l6 -6 6 0 c6 0 6 0 6 -2 0 -2 1 -4 2
-5 2 -1 2 -1 4 1 2 2 2 2 1 4 -1 1 -3 2 -5 2 -1 0 -2 1 -2 2 0 2 -19 22 -20
22 -1 0 -1 -1 -2 -2z"/><path d="M312 148 c-3 -4 -4 -4 -8 -4 -6 0 -8 -2 -8 -8 0 -6 2 -8 8 -8 6 0 16
10 16 16 0 3 -1 5 -2 6 -2 3 -2 3 -6 -2z"/><path d="M330 150 c-3 -3 0 -6 6 -6 6 0 9 3 7 6 -2 1 -4 2 -7 2 -3 0 -5 -1 -6
-2z"/><path d="M274 94 c-3 -3 -3 -10 0 -12 3 -3 6 0 6 6 0 7 -3 10 -6 6z"/><path d="M233 86 c-1 -2 -1 -2 1 -4 l2 -2 2 2 c2 2 2 2 1 4 -1 1 -3 2 -3 2 0
0 -2 -1 -3 -2z"/><path d="M241 70 c-1 -2 -1 -2 1 -4 l2 -2 2 2 c2 2 2 2 1 4 -1 1 -3 2 -3 2 0
0 -2 -1 -3 -2z"/><path d="M249 54 c-1 -2 -1 -2 1 -4 l2 -2 2 2 c2 2 2 2 1 4 -1 1 -3 2 -3 2 0
0 -2 -1 -3 -2z"/></g>
  <g transform="scale(0.125 0.125) translate(0.000000,512.000000) scale(1.000000,-1.000000)" fill="#bb6390" stroke="none"><path d="M209 478 c-1 -2 -1 -2 1 -4 l2 -2 2 2 c2 2 2 2 1 4 -1 1 -3 2 -3 2 0
0 -2 -1 -3 -2z"/><path d="M289 478 c-1 -2 -1 -2 1 -4 l2 -2 2 2 c2 2 2 2 1 4 -1 1 -3 2 -3 2 0
0 -2 -1 -3 -2z"/><path d="M177 470 c-1 -2 -1 -2 1 -4 l2 -2 2 2 c2 2 2 2 1 4 -1 1 -3 2 -3 2 0
0 -2 -1 -3 -2z"/><path d="M321 470 c-1 -2 -1 -2 1 -4 l2 -2 2 2 c2 2 2 2 1 4 -1 1 -3 2 -3 2 0
0 -2 -1 -3 -2z"/><path d="M129 446 c-1 -2 -1 -2 1 -4 l2 -2 2 2 c2 2 2 2 1 4 -1 1 -3 2 -3 2 0
0 -2 -1 -3 -2z"/><path d="M105 430 c-1 -2 -1 -2 1 -4 l2 -2 2 2 c2 2 2 2 1 4 -1 1 -3 2 -3 2 0
0 -2 -1 -3 -2z"/><path d="M394 430 c-2 -2 -2 -2 0 -4 0 -1 2 -2 4 -2 1 0 2 -1 2 -2 0 -2 1 -4
2 -5 2 -1 2 -1 4 1 2 2 2 2 1 4 -1 1 -3 2 -5 2 -1 0 -2 1 -2 2 0 2 -3 6 -4 6
0 0 -2 -1 -2 -2z"/><path d="M321 422 c-1 -2 -1 -2 1 -4 l2 -2 2 2 c2 2 2 2 1 4 -1 1 -3 2 -3 2 0
0 -2 -1 -3 -2z"/><path d="M186 406 c-1 -1 -2 -3 -2 -4 0 -1 -1 -2 -2 -2 -3 0 -6 -3 -6 -6 0 -1
-1 -2 -2 -2 -2 0 -4 -1 -5 -2 -1 -2 -1 -2 1 -4 2 -2 2 -2 4 -1 1 1 2 3 2 5 0
1 1 2 2 2 3 0 6 3 6 6 0 2 0 2 20 2 l20 0 0 -2 c0 -3 3 -6 6 -6 2 0 2 0 2 -6
0 -8 3 -12 6 -8 5 4 2 14 -4 14 -1 0 -2 1 -2 2 0 3 -3 6 -6 6 -1 0 -2 1 -2 2
0 5 -2 6 -20 6 -15 0 -17 0 -18 -2z"/><path d="M290 406 c-2 -2 -2 -2 0 -4 1 -2 3 -2 16 -2 14 0 14 0 14 -2 0 -1 2
-5 6 -8 3 -4 7 -6 8 -6 2 0 2 -1 2 -10 0 -12 1 -14 6 -14 1 0 2 -1 2 -2 0 -2
1 -4 2 -5 2 -1 2 -1 4 1 2 2 2 2 1 4 -1 1 -3 2 -5 2 -2 0 -2 0 -2 10 0 12 -1
14 -6 14 -2 0 -2 0 -2 6 0 9 -1 10 -10 10 -6 0 -6 0 -6 2 0 5 -3 6 -16 6 -11
0 -13 0 -14 -2z"/><path d="M425 406 c-1 -2 -1 -2 1 -4 l2 -2 2 2 c2 2 2 2 1 4 -1 1 -3 2 -3 2 0
0 -2 -1 -3 -2z"/><path d="M66 398 c-2 -2 -2 -2 0 -4 0 -1 2 -2 4 -2 1 0 2 -1 2 -2 0 -2 1 -4 2
-5 2 -1 2 -1 4 1 2 2 2 2 1 4 -1 1 -3 2 -5 2 -1 0 -2 1 -2 2 0 2 -3 6 -4 6 0
0 -2 -1 -2 -2z"/><path d="M154 398 c-3 -3 -3 -10 0 -12 3 -3 6 0 6 6 0 7 -3 10 -6 6z"/><path d="M273 398 c-1 -2 -1 -2 1 -4 l2 -2 2 2 c2 2 2 2 1 4 -1 1 -3 2 -3 2 0
0 -2 -1 -3 -2z"/><path d="M425 390 c-1 -2 -1 -2 1 -4 l2 -2 2 2 c2 2 2 2 1 4 -1 1 -3 2 -3 2 0
0 -2 -1 -3 -2z"/><path d="M266 382 c-2 -1 -2 -3 -2 -8 0 -6 0 -6 -2 -6 -3 0 -6 -3 -6 -6 0 -2
-1 -2 -4 -2 -4 0 -4 0 -4 2 0 2 -1 4 -2 5 -2 1 -2 1 -4 -1 -2 -2 -2 -2 -1 -4
1 -1 3 -2 5 -2 1 0 2 -1 2 -2 0 -2 1 -4 2 -4 2 -2 2 -2 4 0 1 0 2 2 2 4 0 1 1
2 2 2 3 0 6 3 6 6 0 1 1 2 2 2 6 0 8 10 4 14 -2 2 -2 2 -4 0z"/><path d="M354 382 c-3 -3 -3 -10 0 -12 3 -3 6 0 6 6 0 7 -3 10 -6 6z"/><path d="M442 382 c-1 -1 -2 -3 -2 -4 0 -1 -1 -2 -2 -2 -2 0 -4 -1 -5 -2 -1
-2 -1 -2 1 -4 2 -2 2 -2 4 -1 1 1 2 3 2 5 0 1 1 2 2 2 2 0 4 1 5 2 1 2 1 2 0
4 -3 2 -3 2 -5 0z"/><path d="M65 374 c-1 -2 -1 -2 1 -4 l2 -2 2 2 c2 2 2 2 1 4 -1 1 -3 2 -3 2 0
0 -2 -1 -3 -2z"/><path d="M446 362 c-6 -6 -6 -6 -4 -8 2 -3 10 -3 12 0 3 2 3 10 0 12 -2 2 -2
3 -8 -4z"/><path d="M170 358 c-4 -4 -2 -14 4 -14 2 0 2 0 2 -6 0 -7 2 -10 6 -10 2 0 2 0
2 -6 0 -7 2 -10 6 -10 2 0 2 -1 2 -4 0 -4 0 -4 -2 -4 -2 0 -4 -1 -5 -2 -1 -2
-1 -2 1 -4 2 -2 2 -2 4 -1 1 1 2 3 2 5 0 1 1 2 2 2 2 0 4 1 5 2 1 2 1 2 0 4
-1 1 -3 2 -5 2 -2 0 -2 0 -2 6 0 7 -2 10 -6 10 -2 0 -2 0 -2 6 0 7 -2 10 -6
10 -2 0 -2 0 -2 6 0 5 0 7 -2 8 -2 2 -2 2 -4 0z"/><path d="M57 350 c-1 -2 -1 -2 1 -4 l2 -2 2 2 c2 2 2 2 1 4 -1 1 -3 2 -3 2 0
0 -2 -1 -3 -2z"/><path d="M330 350 c-2 -1 -2 -3 -2 -8 0 -6 0 -6 -2 -6 -3 0 -6 -3 -6 -6 0 -1
-1 -2 -2 -2 -4 0 -6 -3 -6 -10 0 -6 0 -6 -2 -6 -3 0 -6 -3 -6 -6 0 -1 -1 -2
-2 -2 -2 0 -4 -1 -4 -2 -2 -2 -2 -2 0 -4 0 -1 2 -2 4 -2 1 0 2 -1 2 -2 0 -2 1
-4 2 -5 2 -1 2 -1 4 1 2 2 2 2 1 4 -1 1 -3 2 -5 2 -2 0 -2 0 -2 4 0 4 0 4 2 4
3 0 6 3 6 6 0 1 1 2 2 2 4 0 6 3 6 10 0 6 0 6 2 6 3 0 6 3 6 6 0 1 1 2 2 2 6
0 8 10 4 14 -2 2 -2 2 -4 0z"/><path d="M161 334 c-1 -2 -1 -2 1 -4 l2 -2 2 2 c2 2 2 2 1 4 -1 1 -3 2 -3 2 0
0 -2 -1 -3 -2z"/><path d="M457 334 c-1 -2 -1 -2 1 -4 l2 -2 2 2 c2 2 2 2 1 4 -1 1 -3 2 -3 2 0
0 -2 -1 -3 -2z"/><path d="M449 310 c-1 -2 -1 -2 1 -4 l2 -2 2 2 c2 2 2 2 1 4 -1 1 -3 2 -3 2 0
0 -2 -1 -3 -2z"/><path d="M210 294 c-1 -1 -2 -3 -2 -4 0 -1 -1 -2 -2 -2 -2 0 -4 -1 -5 -2 -1
-2 -1 -2 1 -4 2 -2 2 -2 4 -1 1 1 2 3 2 5 0 1 1 2 2 2 2 0 4 1 5 2 1 2 1 2 0
4 -3 2 -3 2 -5 0z"/><path d="M457 286 c-1 -2 -1 -2 1 -4 l2 -2 2 2 c2 2 2 2 1 4 -1 1 -3 2 -3 2 0
0 -2 -1 -3 -2z"/><path d="M218 278 c-1 -1 -2 -3 -2 -4 0 -1 -1 -2 -2 -2 -2 0 -4 -1 -5 -2 -1
-2 -1 -2 1 -4 2 -2 2 -2 4 -1 1 1 2 3 2 5 0 1 1 2 2 2 2 0 4 1 5 2 1 2 1 2 0
4 -3 2 -3 2 -5 0z"/><path d="M297 278 c-1 -2 -1 -2 1 -4 l2 -2 2 2 c2 2 2 2 1 4 -1 1 -3 2 -3 2 0
0 -2 -1 -3 -2z"/><path d="M58 270 c-1 -1 -2 -3 -2 -4 0 -1 -1 -2 -2 -2 -2 0 -4 -1 -5 -2 -1 -2
-1 -2 1 -4 2 -2 2 -2 4 -1 1 1 2 3 2 5 0 1 1 2 2 2 2 0 4 1 5 2 1 2 1 2 0 4
-3 2 -3 2 -5 0z"/><path d="M274 270 c-1 -1 -2 -3 -2 -4 0 -1 -1 -2 -2 -2 -4 0 -6 -3 -6 -10 0
-6 0 -6 -2 -6 -3 0 -6 -3 -6 -6 0 -1 -1 -2 -2 -2 -2 0 -4 -1 -5 -2 -1 -2 -1
-2 1 -4 2 -2 2 -2 4 -1 1 1 2 3 2 5 0 1 1 2 2 2 3 0 6 3 6 6 0 1 1 2 2 2 4 0
6 3 6 10 0 6 0 6 2 6 2 0 4 1 5 2 1 2 1 2 0 4 -3 2 -3 2 -5 0z"/><path d="M442 270 c-2 -2 -2 -2 0 -4 0 -1 2 -2 4 -2 1 0 2 -1 2 -2 0 -2 1 -4
2 -5 2 -1 2 -1 4 1 2 2 2 2 1 4 -1 1 -3 2 -5 2 -1 0 -2 1 -2 2 0 2 -3 6 -4 6
0 0 -2 -1 -2 -2z"/><path d="M234 262 c-3 -3 -3 -10 0 -12 3 -3 6 0 6 6 0 7 -3 10 -6 6z"/><path d="M441 238 c-1 -2 -1 -2 1 -4 l2 -2 2 2 c2 2 2 2 1 4 -1 1 -3 2 -3 2 0
0 -2 -1 -3 -2z"/><path d="M265 230 c-1 -2 -1 -2 1 -4 l2 -2 2 2 c2 2 2 2 1 4 -1 1 -3 2 -3 2 0
0 -2 -1 -3 -2z"/><path d="M82 222 c-1 -1 -2 -3 -2 -4 0 -1 -1 -2 -2 -2 -2 0 -4 -1 -5 -2 -1 -2
-1 -2 1 -4 2 -2 2 -2 4 -1 1 1 2 3 2 5 0 1 1 2 2 2 2 0 4 1 5 2 1 2 1 2 0 4
-3 2 -3 2 -5 0z"/><path d="M418 222 c-2 -2 -2 -2 0 -4 0 -1 2 -2 4 -2 1 0 2 -1 2 -2 0 -2 1 -4
2 -5 2 -1 2 -1 4 1 2 2 2 2 1 4 -1 1 -3 2 -5 2 -1 0 -2 1 -2 2 0 2 -3 6 -4 6
0 0 -2 -1 -2 -2z"/><path d="M121 182 c-1 -2 -1 -2 1 -4 l2 -2 2 2 c2 2 2 2 1 4 -1 1 -3 2 -3 2 0
0 -2 -1 -3 -2z"/><path d="M378 182 c-2 -1 -2 -3 -2 -8 0 -6 0 -6 -2 -6 -2 0 -4 -1 -5 -2 -1 -2
-1 -2 1 -4 2 -2 2 -2 4 -1 1 1 2 3 2 5 0 1 1 2 2 2 6 0 8 10 4 14 -2 2 -2 2
-4 0z"/><path d="M393 182 c-1 -2 -1 -2 1 -4 l2 -2 2 2 c2 2 2 2 1 4 -1 1 -3 2 -3 2 0
0 -2 -1 -3 -2z"/><path d="M146 166 c-3 -3 -3 -10 0 -12 3 -3 6 0 6 6 0 7 -3 10 -6 6z"/><path d="M353 166 c-1 -2 -1 -2 1 -4 l2 -2 2 2 c2 2 2 2 1 4 -1 1 -3 2 -3 2 0
0 -2 -1 -3 -2z"/><path d="M169 150 c-1 -2 -1 -2 1 -4 l2 -2 2 2 c2 2 2 2 1 4 -1 1 -3 2 -3 2 0
0 -2 -1 -3 -2z"/><path d="M185 150 c-1 -2 -1 -2 1 -4 l2 -2 2 2 c2 2 2 2 1 4 -1 1 -3 2 -3 2 0
0 -2 -1 -3 -2z"/><path d="M313 150 c-1 -2 -1 -2 1 -4 l2 -2 2 2 c2 2 2 2 1 4 -1 1 -3 2 -3 2 0
0 -2 -1 -3 -2z"/><path d="M329 150 c-1 -2 -1 -2 1 -4 l2 -2 2 2 c2 2 2 2 1 4 -1 1 -3 2 -3 2 0
0 -2 -1 -3 -2z"/><path d="M298 142 c-3 -3 -3 -10 0 -12 3 -3 6 0 6 6 0 7 -3 10 -6 6z"/><path d="M209 126 c-1 -2 -1 -2 1 -4 l2 -2 2 2 c2 2 2 2 1 4 -1 1 -3 2 -3 2 0
0 -2 -1 -3 -2z"/><path d="M273 94 c-1 -2 -1 -2 1 -4 l2 -2 2 2 c2 2 2 2 1 4 -1 1 -3 2 -3 2 0
0 -2 -1 -3 -2z"/><path d="M233 86 c-1 -2 -1 -2 1 -4 l2 -2 2 2 c2 2 2 2 1 4 -1 1 -3 2 -3 2 0
0 -2 -1 -3 -2z"/><path d="M241 70 c-1 -2 -1 -2 1 -4 l2 -2 2 2 c2 2 2 2 1 4 -1 1 -3 2 -3 2 0
0 -2 -1 -3 -2z"/></g>
  <g transform="scale(0.125 0.125) translate(0.000000,512.000000) scale(1.000000,-1.000000)" fill="#371526" stroke="none"><path d="M186 406 c-1 -1 -2 -3 -2 -4 0 -1 -1 -2 -2 -2 -3 0 -6 -3 -6 -6 0 -1
-1 -2 -2 -2 -2 0 -4 -1 -5 -2 -1 -2 -1 -2 1 -4 2 -2 2 -2 4 -1 1 1 2 3 2 5 0
1 1 2 2 2 3 0 6 3 6 6 0 2 0 2 20 2 l20 0 0 -2 c0 -3 3 -6 6 -6 2 0 2 0 2 -6
0 -8 3 -12 6 -8 5 4 2 14 -4 14 -1 0 -2 1 -2 2 0 3 -3 6 -6 6 -1 0 -2 1 -2 2
0 5 -2 6 -20 6 -15 0 -17 0 -18 -2z"/><path d="M290 406 c-2 -2 -2 -2 0 -4 1 -2 3 -2 16 -2 14 0 14 0 14 -2 0 -1 2
-5 6 -8 3 -4 7 -6 8 -6 2 0 2 -1 2 -10 0 -12 1 -14 6 -14 1 0 2 -1 2 -2 0 -2
1 -4 2 -5 2 -1 2 -1 4 1 2 2 2 2 1 4 -1 1 -3 2 -5 2 -2 0 -2 0 -2 10 0 12 -1
14 -6 14 -2 0 -2 0 -2 6 0 9 -1 10 -10 10 -6 0 -6 0 -6 2 0 5 -3 6 -16 6 -11
0 -13 0 -14 -2z"/><path d="M425 406 c-1 -2 -1 -2 1 -4 l2 -2 2 2 c2 2 2 2 1 4 -1 1 -3 2 -3 2 0
0 -2 -1 -3 -2z"/><path d="M65 398 c-1 -2 -1 -2 1 -4 l2 -2 2 2 c2 2 2 2 1 4 -1 1 -3 2 -3 2 0
0 -2 -1 -3 -2z"/><path d="M273 398 c-1 -2 -1 -2 1 -4 l2 -2 2 2 c2 2 2 2 1 4 -1 1 -3 2 -3 2 0
0 -2 -1 -3 -2z"/><path d="M153 390 c-1 -2 -1 -2 1 -4 l2 -2 2 2 c2 2 2 2 1 4 -1 1 -3 2 -3 2 0
0 -2 -1 -3 -2z"/><path d="M266 382 c-2 -1 -2 -3 -2 -8 0 -6 0 -6 -2 -6 -3 0 -6 -3 -6 -6 0 -2
-1 -2 -4 -2 -4 0 -4 0 -4 2 0 2 -1 4 -2 5 -2 1 -2 1 -4 -1 -2 -2 -2 -2 -1 -4
1 -1 3 -2 5 -2 1 0 2 -1 2 -2 0 -2 1 -4 2 -4 2 -2 2 -2 4 0 1 0 2 2 2 4 0 1 1
2 2 2 3 0 6 3 6 6 0 1 1 2 2 2 6 0 8 10 4 14 -2 2 -2 2 -4 0z"/><path d="M441 382 c-1 -2 -1 -2 1 -4 l2 -2 2 2 c2 2 2 2 1 4 -1 1 -3 2 -3 2 0
0 -2 -1 -3 -2z"/><path d="M450 366 c-3 -3 -3 -10 0 -12 3 -3 6 0 6 6 0 7 -3 10 -6 6z"/><path d="M170 358 c-4 -4 -2 -14 4 -14 2 0 2 0 2 -6 0 -7 2 -10 6 -10 2 0 2 0
2 -6 0 -7 2 -10 6 -10 1 0 2 -1 2 -2 0 -2 1 -4 2 -5 2 -1 2 -1 4 1 2 2 2 2 1
4 -1 1 -3 2 -5 2 -2 0 -2 0 -2 6 0 7 -2 10 -6 10 -2 0 -2 0 -2 6 0 7 -2 10 -6
10 -2 0 -2 0 -2 6 0 5 0 7 -2 8 -2 2 -2 2 -4 0z"/><path d="M330 350 c-2 -1 -2 -3 -2 -8 0 -6 0 -6 -2 -6 -3 0 -6 -3 -6 -6 0 -1
-1 -2 -2 -2 -4 0 -6 -3 -6 -10 0 -6 0 -6 -2 -6 -3 0 -6 -3 -6 -6 0 -1 -1 -2
-2 -2 -2 0 -4 -1 -4 -2 -2 -2 -2 -2 0 -4 0 -1 2 -2 4 -2 1 0 2 -1 2 -2 0 -2 1
-4 2 -5 2 -1 2 -1 4 1 2 2 2 2 1 4 -1 1 -3 2 -5 2 -2 0 -2 0 -2 4 0 4 0 4 2 4
3 0 6 3 6 6 0 1 1 2 2 2 4 0 6 3 6 10 0 6 0 6 2 6 3 0 6 3 6 6 0 1 1 2 2 2 6
0 8 10 4 14 -2 2 -2 2 -4 0z"/><path d="M457 334 c-1 -2 -1 -2 1 -4 l2 -2 2 2 c2 2 2 2 1 4 -1 1 -3 2 -3 2 0
0 -2 -1 -3 -2z"/><path d="M210 294 c-1 -1 -2 -3 -2 -4 0 -1 -1 -2 -2 -2 -2 0 -4 -1 -5 -2 -1
-2 -1 -2 1 -4 2 -2 2 -2 4 -1 1 1 2 3 2 5 0 1 1 2 2 2 2 0 4 1 5 2 1 2 1 2 0
4 -3 2 -3 2 -5 0z"/><path d="M457 286 c-1 -2 -1 -2 1 -4 l2 -2 2 2 c2 2 2 2 1 4 -1 1 -3 2 -3 2 0
0 -2 -1 -3 -2z"/><path d="M217 278 c-1 -2 -1 -2 1 -4 l2 -2 2 2 c2 2 2 2 1 4 -1 1 -3 2 -3 2 0
0 -2 -1 -3 -2z"/><path d="M49 262 c-1 -2 -1 -2 1 -4 l2 -2 2 2 c2 2 2 2 1 4 -1 1 -3 2 -3 2 0
0 -2 -1 -3 -2z"/><path d="M449 262 c-1 -2 -1 -2 1 -4 l2 -2 2 2 c2 2 2 2 1 4 -1 1 -3 2 -3 2 0
0 -2 -1 -3 -2z"/><path d="M233 254 c-1 -2 -1 -2 1 -4 l2 -2 2 2 c2 2 2 2 1 4 -3 2 -3 2 -6 0z"/><path d="M265 254 c-1 -2 -1 -2 1 -4 l2 -2 2 2 c2 2 2 2 1 4 -1 1 -3 2 -3 2 0
0 -2 -1 -3 -2z"/><path d="M441 238 c-1 -2 -1 -2 1 -4 l2 -2 2 2 c2 2 2 2 1 4 -1 1 -3 2 -3 2 0
0 -2 -1 -3 -2z"/><path d="M73 214 c-1 -2 -1 -2 1 -4 l2 -2 2 2 c2 2 2 2 1 4 -1 1 -3 2 -3 2 0
0 -2 -1 -3 -2z"/><path d="M425 214 c-1 -2 -1 -2 1 -4 l2 -2 2 2 c2 2 2 2 1 4 -1 1 -3 2 -3 2 0
0 -2 -1 -3 -2z"/><path d="M393 182 c-1 -2 -1 -2 1 -4 l2 -2 2 2 c2 2 2 2 1 4 -1 1 -3 2 -3 2 0
0 -2 -1 -3 -2z"/><path d="M378 174 c-1 -1 -2 -3 -2 -4 0 -1 -1 -2 -2 -2 -2 0 -4 -1 -5 -2 -1
-2 -1 -2 1 -4 2 -2 2 -2 4 -1 1 1 2 3 2 5 0 1 1 2 2 2 2 0 4 1 5 2 1 2 1 2 0
4 -3 2 -3 2 -5 0z"/><path d="M145 158 c-1 -2 -1 -2 1 -4 l2 -2 2 2 c2 2 2 2 1 4 -1 1 -3 2 -3 2 0
0 -2 -1 -3 -2z"/><path d="M169 150 c-1 -2 -1 -2 1 -4 l2 -2 2 2 c2 2 2 2 1 4 -1 1 -3 2 -3 2 0
0 -2 -1 -3 -2z"/><path d="M329 150 c-1 -2 -1 -2 1 -4 l2 -2 2 2 c2 2 2 2 1 4 -1 1 -3 2 -3 2 0
0 -2 -1 -3 -2z"/></g>
  <g transform="scale(0.125 0.125) translate(0.000000,512.000000) scale(1.000000,-1.000000)" fill="#c6126f" stroke="none"><path d="M194 406 c-2 -2 -2 -2 0 -4 1 -2 3 -2 10 -2 7 0 9 0 11 2 1 2 1 2 0
4 -2 2 -4 2 -11 2 -7 0 -9 0 -10 -2z"/><path d="M298 406 c-3 -3 0 -6 6 -6 6 0 9 3 7 6 -2 1 -4 2 -7 2 -3 0 -5 -1 -6
-2z"/><path d="M178 398 c-1 -1 -2 -3 -2 -4 0 -1 -1 -2 -2 -2 -2 0 -4 -1 -5 -2 -1
-2 -1 -2 1 -4 2 -2 2 -2 4 -1 1 1 2 3 2 5 0 1 1 2 2 2 2 0 4 1 5 2 1 2 1 2 0
4 -3 2 -3 2 -5 0z"/><path d="M322 398 c-2 -2 -2 -2 0 -4 0 -1 2 -2 4 -2 1 0 2 -1 2 -2 0 -2 1 -4
2 -5 2 -1 2 -1 4 1 2 2 2 2 1 4 -1 1 -3 2 -5 2 -1 0 -2 1 -2 2 0 2 -3 6 -4 6
0 0 -2 -1 -2 -2z"/><path d="M233 382 c-1 -2 -1 -2 1 -4 l2 -2 2 2 c2 2 2 2 1 4 -1 1 -3 2 -3 2 0
0 -2 -1 -3 -2z"/><path d="M265 374 c-1 -2 -1 -2 1 -4 l2 -2 2 2 c2 2 2 2 1 4 -1 1 -3 2 -3 2 0
0 -2 -1 -3 -2z"/><path d="M242 366 c-2 -2 -2 -2 0 -4 0 -1 2 -2 4 -2 1 0 2 -1 2 -2 0 -2 1 -4
2 -5 2 -1 2 -1 4 1 2 2 2 2 1 4 -1 1 -3 2 -5 2 -1 0 -2 1 -2 2 0 2 -3 6 -4 6
0 0 -2 -1 -2 -2z"/><path d="M169 358 c-1 -2 -1 -2 1 -4 l2 -2 2 2 c2 2 2 2 1 4 -1 1 -3 2 -3 2 0
0 -2 -1 -3 -2z"/><path d="M329 350 c-1 -2 -1 -2 1 -4 l2 -2 2 2 c2 2 2 2 1 4 -1 1 -3 2 -3 2 0
0 -2 -1 -3 -2z"/><path d="M177 342 c-1 -2 -1 -2 1 -4 l2 -2 2 2 c2 2 2 2 1 4 -1 1 -3 2 -3 2 0
0 -2 -1 -3 -2z"/><path d="M322 334 c-1 -1 -2 -3 -2 -4 0 -1 -1 -2 -2 -2 -2 0 -4 -1 -5 -2 -1
-2 -1 -2 1 -4 2 -2 2 -2 4 -1 1 1 2 3 2 5 0 1 1 2 2 2 2 0 4 1 5 2 1 2 1 2 0
4 -3 2 -3 2 -5 0z"/><path d="M185 326 c-1 -2 -1 -2 1 -4 l2 -2 2 2 c2 2 2 2 1 4 -1 1 -3 2 -3 2 0
0 -2 -1 -3 -2z"/><path d="M306 310 c-1 -1 -2 -3 -2 -4 0 -1 -1 -2 -2 -2 -2 0 -4 -1 -5 -2 -1
-2 -1 -2 1 -4 2 -2 2 -2 4 -1 1 1 2 3 2 5 0 1 1 2 2 2 2 0 4 1 5 2 1 2 1 2 0
4 -3 2 -3 2 -5 0z"/><path d="M209 294 c-1 -2 -1 -2 1 -4 l2 -2 2 2 c2 2 2 2 1 4 -1 1 -3 2 -3 2 0
0 -2 -1 -3 -2z"/></g>
</svg>
