<?xml version="1.0" encoding="UTF-8"?>
<svg xmlns="http://www.w3.org/2000/svg" viewBox="0 0 64 64" width="64" height="64">
  <g transform="scale(0.125 0.125) translate(0.000000,512.000000) scale(1.000000,-1.000000)" fill="#ffffff" stroke="none"><path d="M200 484 l-3 -4 -13 0 -13 0 -3 -4 c-3 -4 -4 -4 -8 -4 -4 0 -5 0 -8
-4 -3 -4 -4 -4 -8 -4 -4 0 -5 0 -8 -4 -3 -4 -4 -4 -8 -4 l-4 0 -26 -26 -26
-26 0 -4 c0 -4 0 -5 -4 -8 -4 -3 -4 -4 -4 -8 0 -4 0 -5 -4 -8 -4 -3 -4 -4 -4
-8 0 -4 0 -5 -4 -8 l-4 -3 0 -49 0 -49 4 -3 c4 -3 4 -4 4 -8 0 -4 0 -5 4 -8 4
-3 4 -4 4 -8 0 -4 0 -5 8 -12 8 -7 8 -8 8 -12 0 -4 0 -4 18 -22 18 -18 18 -18
22 -18 4 0 5 0 12 -8 7 -8 8 -8 12 -8 4 0 5 0 8 -4 l3 -4 9 0 9 0 3 -4 c3 -4
4 -4 8 -4 6 0 16 -10 16 -16 0 -4 0 -5 8 -12 8 -7 8 -8 8 -12 0 -4 0 -5 4 -8
4 -3 4 -4 4 -8 0 -4 0 -5 8 -12 8 -7 8 -8 8 -12 0 -6 10 -16 16 -16 6 0 8 2 8
8 0 4 0 5 4 8 4 3 4 4 4 8 0 4 0 5 8 12 8 7 8 8 8 12 0 4 0 5 4 8 4 3 4 4 4 8
0 4 0 5 4 8 4 3 4 4 4 8 0 4 0 5 6 10 5 6 6 6 10 6 4 0 5 0 8 4 l3 4 9 0 9 0
3 4 c3 4 4 4 8 4 4 0 5 0 12 8 7 8 8 8 12 8 4 0 4 0 26 22 l22 22 0 4 c0 4 0
5 4 8 4 3 4 4 4 8 0 4 0 5 4 8 4 3 4 4 4 8 0 4 0 5 4 8 l4 3 0 49 0 49 -4 3
-4 3 0 9 0 8 -8 8 c-8 7 -8 8 -8 12 0 4 0 4 -26 30 l-26 26 -4 0 c-4 0 -5 0
-8 4 -3 4 -4 4 -8 4 -4 0 -5 0 -8 4 -3 4 -4 4 -8 4 -4 0 -5 0 -8 4 l-3 4 -9 0
-9 0 -3 4 -3 4 -53 0 -53 0 -3 -4z"/></g>
  <g transform="scale(0.125 0.125) translate(0.000000,512.000000) scale(1.000000,-1.000000)" fill="#2f2e2e" stroke="none"><path d="M200 484 l-3 -4 -13 0 -13 0 -3 -4 c-3 -4 -4 -4 -8 -4 -4 0 -5 0 -8
-4 -3 -4 -4 -4 -8 -4 -4 0 -5 0 -8 -4 -3 -4 -4 -4 -8 -4 l-4 0 -26 -26 -26
-26 0 -4 c0 -4 0 -5 -4 -8 -4 -3 -4 -4 -4 -8 0 -4 0 -5 -4 -8 -4 -3 -4 -4 -4
-8 0 -4 0 -5 -4 -8 l-4 -3 0 -49 0 -49 4 -3 c4 -3 4 -4 4 -8 0 -4 0 -5 4 -8 4
-3 4 -4 4 -8 0 -4 0 -5 8 -12 8 -7 8 -8 8 -12 0 -4 0 -4 18 -22 18 -18 18 -18
22 -18 4 0 5 0 12 -8 7 -8 8 -8 12 -8 4 0 5 0 8 -4 l3 -4 9 0 9 0 3 -4 c3 -4
4 -4 8 -4 6 0 16 -10 16 -16 0 -4 0 -5 8 -12 8 -7 8 -8 8 -12 0 -4 0 -5 4 -8
4 -3 4 -4 4 -8 0 -4 0 -5 8 -12 8 -7 8 -8 8 -12 0 -6 10 -16 16 -16 6 0 8 2 8
8 0 4 0 5 4 8 4 3 4 4 4 8 0 4 0 5 8 12 8 7 8 8 8 12 0 4 0 5 4 8 4 3 4 4 4 8
0 4 0 5 4 8 4 3 4 4 4 8 0 4 0 5 6 10 5 6 6 6 10 6 4 0 5 0 8 4 l3 4 9 0 9 0
3 4 c3 4 4 4 8 4 4 0 5 0 12 8 7 8 8 8 12 8 4 0 4 0 26 22 l22 22 0 4 c0 4 0
5 4 8 4 3 4 4 4 8 0 4 0 5 4 8 4 3 4 4 4 8 0 4 0 5 4 8 l4 3 0 49 0 49 -4 3
-4 3 0 9 0 8 -8 8 c-8 7 -8 8 -8 12 0 4 0 4 -26 30 l-26 26 -4 0 c-4 0 -5 0
-8 4 -3 4 -4 4 -8 4 -4 0 -5 0 -8 4 -3 4 -4 4 -8 4 -4 0 -5 0 -8 4 l-3 4 -9 0
-9 0 -3 4 -3 4 -53 0 -53 0 -3 -4z m56 -8 l3 -4 21 0 21 0 3 -4 3 -4 9 0 9 0
3 -4 c3 -4 4 -4 8 -4 4 0 5 0 8 -4 3 -4 4 -4 8 -4 4 0 5 0 12 -8 7 -8 8 -8 12
-8 4 0 5 0 18 -14 14 -13 14 -14 14 -18 0 -4 0 -5 8 -12 8 -7 8 -8 8 -12 0 -4
0 -5 4 -8 4 -3 4 -4 4 -8 0 -4 0 -5 4 -8 l4 -3 0 -37 0 -37 -4 -3 c-4 -3 -4
-4 -4 -8 0 -4 0 -5 -4 -8 -4 -3 -4 -4 -4 -8 0 -4 0 -5 -4 -8 -4 -3 -4 -4 -4
-8 l0 -4 -22 -22 -22 -22 -4 0 c-4 0 -5 0 -8 -4 -3 -4 -4 -4 -8 -4 -4 0 -5 0
-8 -4 -3 -4 -4 -4 -8 -4 -4 0 -5 0 -8 -4 l-3 -4 -9 0 -8 0 -6 -6 c-6 -5 -6 -6
-6 -10 0 -4 0 -5 -4 -8 -4 -3 -4 -4 -4 -8 0 -4 0 -5 -8 -12 -8 -7 -8 -8 -8
-12 0 -4 0 -5 -8 -12 -8 -7 -8 -8 -8 -12 0 -3 -1 -5 -2 -6 -3 -3 -6 0 -6 6 0
4 0 5 -8 12 -8 7 -8 8 -8 12 0 4 0 5 -4 8 -4 3 -4 4 -4 8 0 4 0 5 -4 8 -4 3
-4 4 -4 8 0 4 0 4 -10 14 l-10 10 -8 0 -9 0 -3 4 c-3 4 -4 4 -8 4 -4 0 -5 0
-8 4 -3 4 -4 4 -8 4 -4 0 -5 0 -12 8 -7 8 -8 8 -12 8 -4 0 -4 0 -22 18 -18 18
-18 18 -18 22 0 4 0 5 -4 8 -4 3 -4 4 -4 8 0 4 0 5 -4 8 -4 3 -4 4 -4 8 0 4 0
5 -4 8 l-4 3 0 37 0 37 4 3 4 3 0 9 0 8 12 12 c12 11 12 12 12 16 0 4 1 5 10
14 9 9 10 10 14 10 4 0 5 0 16 12 12 12 12 12 16 12 4 0 5 0 8 4 3 4 4 4 8 4
4 0 5 0 8 4 l3 4 9 0 9 0 3 4 3 4 21 0 21 0 3 4 c2 2 4 4 4 4 0 0 2 -2 4 -4z"/><path d="M249 142 c-1 -2 -1 -2 1 -4 l2 -2 2 2 c2 2 2 2 1 4 -1 1 -3 2 -3 2 0
0 -2 -1 -3 -2z"/></g>
  <g transform="scale(0.125 0.125) translate(0.000000,512.000000) scale(1.000000,-1.000000)" fill="#b0b0b0" stroke="none"><path d="M202 486 c-2 -1 -2 -3 -2 -8 l0 -6 -6 0 c-7 0 -7 0 -10 4 -3 4 -4 4
-8 4 -3 0 -5 -1 -7 -2 -1 -2 -1 -2 3 -6 2 -2 4 -4 4 -6 0 -2 0 -2 -10 -2 l-10
0 -4 -4 -4 -4 -4 4 c-4 4 -4 4 -6 3 -1 -2 -2 -4 -2 -7 0 -5 -2 -8 -6 -8 -1 0
-2 1 -2 2 0 2 -1 4 -2 5 -3 2 -7 -2 -5 -5 1 -1 3 -2 5 -2 1 0 2 -1 2 -2 0 -4
-3 -6 -8 -6 -4 0 -4 0 -20 -16 -16 -16 -16 -16 -20 -16 -6 0 -8 -2 -8 -8 0 -4
0 -5 -4 -8 -4 -3 -4 -4 -4 -8 0 -4 0 -5 -4 -8 -4 -3 -4 -4 -4 -8 0 -4 0 -5 -4
-8 l-4 -3 0 -41 0 -41 4 -3 4 -3 0 -13 0 -12 8 -8 c8 -7 8 -8 8 -12 0 -6 2 -8
8 -8 3 0 5 -1 7 -2 1 -2 1 -2 -3 -6 -4 -4 -4 -4 -3 -6 2 -1 4 -2 7 -2 4 0 5 0
12 -8 7 -8 8 -8 12 -8 5 0 8 -2 8 -6 0 -1 -1 -2 -2 -2 -2 0 -4 -1 -5 -2 -1 -2
-1 -2 1 -4 2 -2 2 -2 4 -1 1 1 2 3 2 5 0 4 4 3 8 -2 3 -4 4 -4 8 -4 5 0 8 -2
8 -6 0 -1 -1 -2 -2 -2 -2 0 -4 -1 -5 -2 -1 -2 -1 -2 1 -4 2 -2 2 -2 4 -1 1 1
2 3 2 5 0 2 0 2 6 2 7 0 10 -2 10 -6 0 -1 -1 -2 -2 -2 -2 0 -4 -1 -5 -2 -1 -2
-1 -2 1 -4 2 -2 2 -2 4 -1 1 1 2 3 2 5 0 2 0 2 6 2 8 0 10 -2 10 -8 0 -3 1 -5
2 -7 2 -1 2 -1 6 3 l4 4 6 -6 6 -6 0 -8 0 -8 8 -8 c8 -7 8 -8 8 -12 0 -4 0 -5
4 -8 4 -3 4 -4 4 -8 0 -4 0 -5 8 -12 8 -7 8 -8 8 -12 0 -6 10 -16 16 -16 6 0
8 2 8 8 0 4 0 5 4 8 4 3 4 4 4 8 0 4 0 5 8 12 8 7 8 8 8 12 0 4 0 5 4 8 4 3 4
4 4 8 0 4 0 5 4 8 4 3 4 4 4 8 0 4 0 5 6 10 5 6 6 6 10 6 6 0 8 2 8 8 0 6 2 8
10 8 6 0 6 0 6 -2 0 -2 1 -4 2 -4 2 -2 2 -2 4 -1 1 1 2 3 2 5 0 2 0 2 6 2 6 0
7 0 9 2 1 2 1 2 -3 6 -4 4 -4 4 -3 6 2 1 4 2 7 2 4 0 5 0 8 4 4 5 8 6 8 2 0
-2 1 -4 2 -5 2 -1 2 -1 4 1 2 2 2 2 1 4 -1 1 -3 2 -5 2 -1 0 -2 1 -2 2 0 4 3
6 8 6 4 0 5 0 14 10 9 9 10 10 10 14 0 4 0 5 12 16 12 12 12 12 12 16 0 4 0 5
4 8 4 3 4 4 4 8 0 4 0 5 4 8 l4 3 0 41 0 41 -4 3 -4 3 0 9 0 9 -4 3 c-4 3 -4
4 -4 8 l0 4 -26 26 -26 26 -4 0 c-5 0 -8 2 -8 6 0 1 1 2 2 2 2 0 4 1 5 2 1 2
1 2 -1 4 -2 2 -2 2 -4 1 -1 -1 -2 -3 -2 -5 0 -1 -1 -2 -2 -2 -4 0 -6 3 -6 8 0
3 -1 5 -2 7 -2 1 -2 1 -6 -3 -4 -4 -4 -4 -6 -3 -1 2 -2 4 -2 7 0 3 -1 5 -2 7
-2 1 -2 1 -6 -3 -4 -4 -4 -4 -6 -3 -1 2 -2 4 -2 7 0 6 -2 8 -8 8 -4 0 -5 0 -8
-4 -3 -4 -3 -4 -10 -4 -8 0 -8 2 -2 8 4 4 4 4 3 6 -2 2 -3 2 -11 2 l-9 0 -3
-4 c-3 -4 -4 -4 -8 -4 -4 0 -5 0 -8 4 l-4 4 -6 -6 c-6 -6 -6 -6 -4 -8 1 -2 3
-2 24 -2 l22 0 0 -2 c0 -5 3 -6 12 -6 l9 0 3 -4 c3 -4 4 -4 8 -4 4 0 5 0 8 -4
3 -4 4 -4 8 -4 4 0 5 0 12 -8 7 -8 8 -8 12 -8 4 0 5 0 18 -14 14 -13 14 -14
14 -18 0 -4 0 -5 8 -12 8 -7 8 -8 8 -12 0 -4 0 -5 4 -8 4 -3 4 -4 4 -8 0 -4 0
-5 4 -8 l4 -3 0 -37 0 -37 -4 -3 c-4 -3 -4 -4 -4 -8 0 -4 0 -5 -4 -8 -4 -3 -4
-4 -4 -8 0 -4 0 -5 -4 -8 -4 -3 -4 -4 -4 -8 l0 -4 -22 -22 -22 -22 -4 0 c-4 0
-5 0 -8 -4 -3 -4 -4 -4 -8 -4 -4 0 -5 0 -8 -4 -3 -4 -4 -4 -8 -4 -4 0 -5 0 -8
-4 l-3 -4 -9 0 -8 0 -6 -6 c-6 -5 -6 -6 -6 -10 0 -4 0 -5 -4 -8 -4 -3 -4 -4
-4 -8 0 -4 0 -5 -8 -12 -8 -7 -8 -8 -8 -12 0 -4 0 -5 -8 -12 -8 -7 -8 -8 -8
-12 0 -3 -1 -5 -2 -6 -3 -3 -6 0 -6 6 0 4 0 5 -8 12 -8 7 -8 8 -8 12 0 4 0 5
-4 8 -4 3 -4 4 -4 8 0 4 0 5 -4 8 -4 3 -4 4 -4 8 0 4 0 4 -10 14 l-10 10 -8 0
-9 0 -3 4 c-3 4 -4 4 -8 4 -4 0 -5 0 -8 4 -3 4 -4 4 -8 4 -4 0 -5 0 -12 8 -7
8 -8 8 -12 8 -4 0 -4 0 -22 18 -18 18 -18 18 -18 22 0 4 0 5 -4 8 -4 3 -4 4
-4 8 0 4 0 5 -4 8 -4 3 -4 4 -4 8 0 4 0 5 -4 8 l-4 3 0 37 0 37 4 3 4 3 0 9 0
8 12 12 c12 11 12 12 12 16 0 4 1 5 10 14 9 9 10 10 14 10 4 0 5 0 16 12 12
12 12 12 16 12 4 0 5 0 8 4 3 4 4 4 8 4 5 0 8 2 8 6 0 2 0 2 10 2 12 0 14 1
14 6 0 2 0 2 22 2 21 0 23 0 24 2 2 2 2 2 -4 8 l-6 6 -4 -4 c-3 -4 -4 -4 -8
-4 -4 0 -5 0 -8 4 -3 4 -4 4 -8 4 -3 0 -5 -1 -6 -2z m148 -328 c1 -1 2 -2 2
-4 0 -2 0 -2 -4 -2 -5 0 -6 3 -2 6 2 2 2 2 4 0z"/><path d="M249 142 c-1 -2 -1 -2 1 -4 l2 -2 2 2 c2 2 2 2 1 4 -1 1 -3 2 -3 2 0
0 -2 -1 -3 -2z"/></g>
  <g transform="scale(0.125 0.125) translate(0.000000,512.000000) scale(1.000000,-1.000000)" fill="#e0dfe0" stroke="none"><path d="M202 486 c-2 -1 -2 -3 -2 -8 0 -6 0 -6 -2 -6 -2 0 -4 -1 -5 -2 -1 -2
-1 -2 1 -4 2 -2 2 -2 4 -1 1 1 2 3 2 5 0 2 0 2 6 2 8 0 10 2 10 8 0 6 -2 8 -8
8 -3 0 -5 -1 -6 -2z"/><path d="M230 482 c-6 -6 -6 -6 -4 -8 2 -3 18 -3 20 0 2 2 2 2 -4 8 -3 3 -6 6
-6 6 0 0 -3 -3 -6 -6z"/><path d="M262 482 c-6 -6 -6 -6 -4 -8 2 -3 10 -3 12 0 3 2 3 10 0 12 -2 2 -2
3 -8 -4z"/><path d="M290 486 c-1 -1 -2 -3 -2 -6 0 -6 2 -8 10 -8 6 0 6 0 6 -2 0 -5 3 -6
12 -6 l9 0 3 -4 c4 -4 4 -4 6 -3 2 2 2 3 2 11 0 10 -1 12 -8 12 -4 0 -5 0 -8
-4 -3 -4 -3 -4 -10 -4 -8 0 -8 2 -2 8 4 4 4 4 3 6 -3 3 -19 3 -21 0z"/><path d="M169 478 c-1 -2 -1 -2 3 -6 5 -4 6 -8 2 -8 -2 0 -4 -1 -5 -2 -1 -2
-1 -2 1 -4 2 -2 2 -2 4 -1 1 1 2 3 2 5 0 1 1 2 2 2 6 0 8 10 4 14 -3 3 -10 3
-13 0z"/><path d="M346 470 c-3 -3 -3 -18 0 -20 2 -2 2 -2 4 0 3 2 3 18 0 20 -2 2 -2 2
-4 0z"/><path d="M138 462 c-1 -1 -2 -3 -2 -6 0 -5 -2 -8 -6 -8 -1 0 -2 1 -2 2 0 2 -1
4 -2 5 -2 1 -2 1 -4 -1 -2 -2 -2 -2 -1 -4 1 -1 3 -2 5 -2 2 0 2 0 2 -8 0 -10
-2 -11 -8 -4 l-4 4 -14 -14 c-9 -9 -14 -15 -14 -16 0 -2 -1 -2 -6 -2 -8 0 -10
-2 -10 -8 0 -4 0 -5 -4 -8 -4 -3 -4 -4 -4 -8 0 -4 0 -5 -4 -8 -4 -3 -4 -4 -4
-8 0 -4 0 -5 -4 -8 l-4 -3 0 -41 0 -41 4 -3 4 -3 0 -13 0 -12 6 -6 c3 -4 7 -6
8 -6 2 0 2 -1 2 -6 0 -8 2 -10 8 -10 3 0 5 -1 7 -2 1 -2 1 -2 -3 -6 -4 -4 -4
-4 -3 -6 2 -2 3 -2 9 -2 6 0 6 0 6 -2 0 -3 3 -6 6 -6 1 0 2 -1 2 -2 0 -2 1 -4
2 -4 2 -2 2 -2 4 0 1 0 2 2 2 4 0 2 0 2 4 2 l4 0 0 -8 c0 -8 0 -8 -2 -8 -2 0
-4 -1 -5 -2 -1 -2 -1 -2 1 -4 2 -2 2 -2 4 -1 1 1 2 3 2 5 0 4 4 3 8 -2 l4 -4
4 4 c6 7 8 6 8 -4 0 -8 0 -8 -2 -8 -2 0 -4 -1 -5 -2 -1 -2 -1 -2 1 -4 2 -2 2
-2 4 -1 1 1 2 3 2 5 0 1 1 2 2 2 2 0 4 1 6 4 2 3 4 4 6 4 2 0 2 0 2 -8 0 -8 0
-8 -2 -8 -2 0 -4 -1 -5 -2 -1 -2 -1 -2 1 -4 2 -2 2 -2 4 -1 1 1 2 3 2 5 0 1 1
2 2 2 2 0 4 1 6 4 2 3 4 4 6 4 2 0 2 0 2 -10 0 -10 0 -11 2 -13 2 -1 2 -1 6 3
4 5 8 6 8 2 0 -2 1 -4 4 -6 l4 -3 0 -9 0 -8 8 -8 c8 -7 8 -8 8 -12 0 -4 0 -5
4 -8 4 -3 4 -4 4 -8 0 -4 0 -5 8 -12 8 -7 8 -8 8 -12 0 -6 10 -16 16 -16 6 0
8 2 8 8 0 4 0 5 4 8 4 3 4 4 4 8 0 4 0 5 8 12 8 7 8 8 8 12 0 4 0 5 4 8 4 3 4
4 4 8 0 4 0 5 4 8 4 3 4 4 4 8 0 4 0 5 6 10 5 6 6 6 10 6 7 0 8 2 8 14 0 10 0
10 2 10 2 0 4 -1 6 -4 2 -3 4 -4 6 -4 1 0 2 -1 2 -2 0 -2 1 -4 2 -4 2 -2 2 -2
4 -1 1 1 2 3 2 5 0 2 0 2 6 2 6 0 7 0 9 2 1 2 1 2 -3 6 -4 3 -4 4 -4 10 0 8 2
8 8 2 l4 -4 4 4 c4 5 8 6 8 2 0 -2 1 -4 2 -5 2 -1 2 -1 4 1 2 2 2 2 1 4 -1 1
-3 2 -5 2 -2 0 -2 0 -2 8 l0 8 4 0 c4 0 4 0 4 -2 0 -2 1 -4 2 -4 2 -2 2 -2 4
0 1 0 2 2 2 4 0 1 1 2 2 2 3 0 6 3 6 6 0 1 1 2 2 2 2 0 4 1 4 2 2 2 2 2 0 4 0
1 -2 2 -4 2 -2 0 -2 0 -2 4 l0 4 6 0 6 0 6 6 c4 3 6 7 6 8 0 1 1 2 2 2 4 0 6
3 6 10 0 6 0 6 2 6 4 0 6 3 6 8 0 4 0 5 4 8 l4 3 0 41 0 41 -4 3 -4 3 0 9 0 9
-4 3 c-4 3 -4 4 -4 8 0 4 0 5 -6 10 -3 4 -7 6 -8 6 -1 0 -2 1 -2 2 0 3 -3 6
-6 6 -1 0 -2 1 -2 2 0 1 -5 7 -14 16 -14 14 -14 14 -16 12 -1 -1 -2 -3 -2 -6
0 -4 0 -4 10 -14 l10 -10 6 0 6 0 0 -4 c0 -4 0 -4 -2 -4 -2 0 -4 -1 -4 -2 -2
-2 -2 -2 0 -4 0 -1 2 -2 4 -2 1 0 2 -1 2 -2 0 -4 3 -6 8 -6 3 0 5 -1 7 -2 1
-2 1 -2 -3 -6 -4 -4 -4 -4 -3 -6 2 -1 4 -2 7 -2 3 0 5 -1 7 -2 1 -2 1 -2 -3
-6 l-4 -4 8 -8 c8 -7 8 -8 8 -12 0 -4 0 -5 -4 -8 l-4 -3 0 -17 0 -17 4 -3 c4
-3 4 -4 4 -8 0 -6 -2 -8 -8 -8 -6 0 -8 -2 -8 -10 0 -6 0 -6 -2 -6 -4 0 -6 -3
-6 -10 0 -6 0 -6 -2 -6 -4 0 -6 -3 -6 -8 0 -4 0 -5 -4 -8 -3 -2 -4 -4 -4 -6 0
-1 -1 -2 -2 -2 -3 0 -6 -3 -6 -6 0 -1 -1 -2 -2 -2 -3 0 -6 -3 -6 -6 0 -1 -1
-2 -2 -2 -3 0 -6 -3 -6 -6 0 -1 -1 -2 -2 -2 -2 0 -4 -1 -6 -4 -3 -4 -4 -4 -8
-4 -5 0 -8 -2 -8 -6 0 -2 0 -2 -6 -2 -7 0 -10 -2 -10 -6 0 -2 0 -2 -6 -2 -7 0
-10 -2 -10 -6 0 -2 0 -2 -10 -2 -12 0 -14 -1 -14 -6 0 -1 -1 -2 -2 -2 -4 0 -6
-3 -6 -8 0 -4 0 -5 -4 -8 l-4 -4 4 -4 c4 -4 4 -4 3 -6 -2 -1 -4 -2 -7 -2 -5 0
-8 -2 -8 -6 0 -1 -1 -2 -2 -2 -4 0 -6 -3 -6 -8 0 -4 0 -5 -4 -8 -3 -2 -4 -4
-4 -6 0 -1 -1 -2 -2 -2 -4 0 -6 -3 -6 -10 0 -6 0 -6 -2 -6 -4 0 -6 3 -6 8 0 6
-10 16 -16 16 -3 0 -5 1 -7 2 -1 2 -1 2 3 6 4 4 4 4 3 6 -2 1 -4 2 -7 2 -3 0
-5 1 -7 2 -1 2 -1 2 3 6 4 4 4 4 3 6 -2 1 -4 2 -7 2 -3 0 -5 1 -7 2 -1 2 -1 2
3 6 l4 4 -6 6 c-3 3 -7 6 -8 6 -1 0 -2 1 -2 2 0 5 -3 6 -14 6 -10 0 -10 0 -10
2 0 4 -3 6 -10 6 -6 0 -6 0 -6 2 0 4 -3 6 -10 6 -5 0 -6 0 -6 2 0 1 -2 5 -6 8
l-6 6 -6 0 c-6 0 -6 0 -6 2 0 3 -3 6 -6 6 -1 0 -2 1 -2 2 0 3 -3 6 -6 6 -1 0
-2 1 -2 2 0 2 -3 5 -8 10 -8 7 -8 8 -8 12 0 5 -2 8 -6 8 -2 0 -2 0 -2 6 0 7
-2 10 -6 10 -2 0 -2 1 -2 6 l0 6 -8 8 -8 8 4 4 4 4 0 16 0 17 -4 3 c-4 3 -4 4
-4 8 0 4 0 5 8 12 l9 8 -5 4 -4 4 12 12 c8 8 12 12 12 14 0 1 1 2 2 2 2 0 4 1
5 2 1 2 1 2 0 4 -1 1 -3 2 -5 2 -2 0 -2 0 -2 4 l0 4 6 0 6 0 8 8 c7 8 8 8 12
8 5 0 8 2 8 6 0 1 1 2 2 2 1 0 5 2 8 6 l6 6 0 8 c0 7 0 9 -2 10 -2 2 -2 2 -4
0z m-50 -66 c0 -5 -3 -6 -6 -2 -2 2 -2 2 0 4 3 4 6 3 6 -2z m336 2 c0 -3 -3
-6 -6 -6 -2 0 -2 0 -2 4 l0 4 4 0 c3 0 4 0 4 -2z m-352 -144 c0 -2 -1 -4 -2
-5 -2 -1 -2 -1 -4 1 -2 2 -2 2 -1 4 3 3 7 3 7 0z m366 0 c3 -2 3 -6 0 -6 -3 0
-6 3 -6 6 0 3 3 3 6 0z m-358 -16 c0 -3 -3 -6 -6 -6 -3 0 -3 3 0 6 2 3 6 3 6
0z m350 0 c3 -2 3 -6 0 -6 -3 0 -6 3 -6 6 0 3 3 3 6 0z m-326 -34 l0 -4 4 0 4
0 0 -4 0 -4 -4 0 -4 0 0 4 0 4 -4 0 c-3 0 -4 0 -4 2 0 3 3 6 6 6 2 0 2 0 2 -4z
m304 0 l0 -4 -4 0 -4 0 0 -4 0 -4 -4 0 -4 0 0 4 0 4 4 0 4 0 0 4 0 4 4 0 4 0
0 -4z m-58 -38 c2 -1 2 -3 2 -8 l0 -6 -4 0 -4 0 0 8 c0 8 0 8 2 8 1 0 3 -1 4
-2z m-150 -16 c0 -3 -3 -6 -6 -6 -3 0 -3 3 0 6 2 3 6 3 6 0z m111 0 c1 -2 1
-2 -1 -4 -2 -2 -2 -2 -4 -1 -3 3 -3 7 0 7 2 0 4 -1 5 -2z m-24 -40 c1 -2 1 -2
-1 -4 -2 -2 -2 -2 -4 -1 -1 1 -2 3 -2 5 0 3 4 3 7 0z m-16 -24 c1 -2 1 -2 -1
-4 -2 -2 -2 -2 -4 -1 -1 1 -2 3 -2 5 0 3 4 3 7 0z m-8 -16 c1 -2 1 -2 -1 -4
-2 -2 -2 -2 -4 -1 -1 1 -2 3 -2 5 0 3 4 3 7 0z"/><path d="M154 462 c-3 -3 -3 -10 0 -12 3 -3 6 0 6 6 0 7 -3 10 -6 6z"/><path d="M362 462 c-2 -1 -2 -4 -2 -10 l0 -8 6 -6 c6 -6 6 -6 8 -4 2 1 2 3 2
8 0 6 0 6 2 6 2 0 4 1 5 2 1 2 1 2 -1 4 -2 2 -2 2 -4 1 -1 -1 -2 -3 -2 -5 0
-1 -1 -2 -2 -2 -4 0 -6 3 -6 8 0 7 -3 10 -6 6z"/><path d="M249 142 c-1 -2 -1 -2 1 -4 l2 -2 2 2 c2 2 2 2 1 4 -1 1 -3 2 -3 2 0
0 -2 -1 -3 -2z"/></g>
  <g transform="scale(0.125 0.125) translate(0.000000,512.000000) scale(1.000000,-1.000000)" fill="#3b3b3b" stroke="none"><path d="M202 486 c-2 -1 -2 -3 -2 -8 0 -6 0 -6 -2 -6 -2 0 -4 -1 -5 -2 -1 -2
-1 -2 1 -4 2 -2 2 -2 4 -1 1 1 2 3 2 5 0 2 0 2 6 2 8 0 10 2 10 8 0 6 -2 8 -8
8 -3 0 -5 -1 -6 -2z"/><path d="M234 486 c-2 -2 -2 -2 0 -4 0 -1 2 -2 4 -2 1 0 2 -1 2 -2 0 -2 1 -4
2 -5 2 -1 2 -1 4 1 2 2 2 2 1 4 -1 1 -3 2 -5 2 -1 0 -2 1 -2 2 0 2 -3 6 -4 6
0 0 -2 -1 -2 -2z"/><path d="M266 486 c-1 -1 -2 -3 -2 -4 0 -1 -1 -2 -2 -2 -2 0 -4 -1 -5 -2 -1
-2 -1 -2 1 -4 2 -2 2 -2 4 -1 1 1 2 3 2 5 0 1 1 2 2 2 2 0 4 1 5 2 1 2 1 2 0
4 -3 2 -3 2 -5 0z"/><path d="M290 486 c-1 -1 -2 -3 -2 -6 0 -6 2 -8 10 -8 6 0 6 0 6 -2 0 -2 1 -4
2 -5 2 -1 2 -1 4 1 2 2 2 2 1 4 -1 1 -3 2 -5 2 -4 0 -3 4 2 8 4 4 4 4 3 6 -3
3 -19 3 -21 0z"/><path d="M169 478 c-1 -2 -1 -2 3 -6 5 -4 6 -8 2 -8 -2 0 -4 -1 -5 -2 -1 -2
-1 -2 1 -4 2 -2 2 -2 4 -1 1 1 2 3 2 5 0 1 1 2 2 2 6 0 8 10 4 14 -3 3 -10 3
-13 0z"/><path d="M322 478 c-4 -4 -3 -10 4 -16 6 -6 6 -6 8 -4 3 2 3 18 0 20 -2 3 -10
3 -12 0z"/><path d="M346 470 c-3 -3 -3 -18 0 -20 2 -2 2 -2 4 0 3 2 3 18 0 20 -2 2 -2 2
-4 0z"/><path d="M138 462 c-2 -1 -2 -3 -2 -8 l0 -6 -4 0 c-4 0 -4 0 -4 2 0 2 -1 4 -2
5 -2 1 -2 1 -4 -1 -2 -2 -2 -2 -1 -4 1 -1 3 -2 5 -2 2 0 2 0 2 -8 l0 -8 -4 0
c-4 0 -4 0 -4 2 0 2 -1 4 -2 5 -2 1 -2 1 -4 0 -1 -1 -2 -3 -2 -5 0 -1 -1 -2
-2 -2 -3 0 -6 -3 -6 -6 0 -1 -1 -2 -2 -2 -3 0 -6 -3 -6 -6 0 -1 -1 -2 -2 -2
-3 0 -6 -3 -6 -6 0 -2 0 -2 -6 -2 -8 0 -10 -2 -10 -8 0 -4 0 -5 -4 -8 -4 -3
-4 -4 -4 -8 0 -4 0 -5 -4 -8 -4 -3 -4 -4 -4 -8 0 -4 0 -5 -4 -8 l-4 -3 0 -41
0 -41 4 -3 4 -3 0 -13 0 -12 6 -6 c3 -4 7 -6 8 -6 2 0 2 -1 2 -6 0 -8 2 -10 8
-10 3 0 5 -1 7 -2 1 -2 1 -2 -3 -6 -4 -4 -4 -4 -3 -6 2 -2 3 -2 9 -2 6 0 6 0
6 -2 0 -3 3 -6 6 -6 1 0 2 -1 2 -2 0 -2 1 -4 2 -4 2 -2 2 -2 4 0 1 0 2 2 2 4
0 1 1 2 2 2 2 0 4 1 5 2 1 2 1 2 -1 4 0 1 -2 2 -4 2 -1 0 -2 1 -2 2 0 3 -3 6
-6 6 -1 0 -2 1 -2 2 0 1 -2 5 -6 8 -5 6 -6 6 -10 6 -5 0 -8 2 -8 6 0 1 1 2 2
2 2 0 4 1 5 2 1 2 1 2 -1 4 -2 2 -2 2 -4 1 -1 -1 -2 -3 -2 -5 0 -2 0 -2 -4 -2
l-4 0 0 8 c0 8 0 8 2 8 2 0 4 1 5 2 1 2 1 2 -1 4 -2 2 -2 2 -4 1 -1 -1 -2 -3
-2 -5 0 -1 -1 -2 -2 -2 -4 0 -6 3 -6 8 0 4 0 5 4 8 l5 4 -9 8 c-8 7 -8 8 -8
12 0 4 0 5 4 8 l4 3 0 9 0 9 -4 3 -4 3 0 9 0 8 8 8 9 8 -5 4 -4 4 4 4 c4 3 4
4 4 8 0 6 2 8 8 8 5 0 8 2 8 6 0 1 1 2 2 2 2 0 4 1 5 2 1 2 1 2 0 4 -1 1 -3 2
-5 2 -2 0 -2 0 -2 4 0 4 0 4 2 4 3 0 6 3 6 6 0 1 1 2 2 2 3 0 6 3 6 6 0 1 1 2
2 2 3 0 6 3 6 6 0 2 1 2 4 2 4 0 4 0 4 -2 0 -2 1 -4 2 -4 2 -2 2 -2 4 0 1 0 2
2 2 4 0 1 1 2 2 2 4 0 6 3 6 10 0 6 0 6 2 6 6 0 8 10 4 14 -2 2 -2 2 -4 0z
m-50 -66 c0 -5 -3 -6 -6 -2 -2 2 -2 2 0 4 3 4 6 3 6 -2z m16 -192 l0 -4 4 0 4
0 0 -4 0 -4 -4 0 -4 0 0 4 0 4 -4 0 c-3 0 -4 0 -4 2 0 3 3 6 6 6 2 0 2 0 2 -4z"/><path d="M154 462 c-3 -3 -3 -10 0 -12 3 -3 6 0 6 6 0 7 -3 10 -6 6z"/><path d="M362 462 c-4 -4 -2 -14 4 -14 2 0 2 0 2 -6 0 -5 0 -7 2 -8 3 -4 6 0
6 8 0 6 0 6 2 6 2 0 4 1 5 2 1 2 1 2 -1 4 -2 2 -2 2 -4 1 -1 -1 -2 -3 -2 -5 0
-2 0 -2 -4 -2 l-4 0 0 6 c0 5 0 7 -2 8 -2 2 -2 2 -4 0z"/><path d="M386 438 c-2 -2 -2 -2 0 -4 0 -1 2 -2 4 -2 1 0 2 -1 2 -2 0 -3 3 -6
6 -6 1 0 2 -1 2 -2 0 -3 3 -6 6 -6 1 0 2 -1 2 -2 0 -3 3 -6 6 -6 2 0 2 -1 2
-4 0 -4 0 -4 -2 -4 -2 0 -4 -1 -4 -2 -2 -2 -2 -2 0 -4 0 -1 2 -2 4 -2 1 0 2
-1 2 -2 0 -4 3 -6 8 -6 3 0 5 -1 7 -2 1 -2 1 -2 -3 -6 -4 -4 -4 -4 -3 -6 2 -1
4 -2 7 -2 3 0 5 -1 7 -2 1 -2 1 -2 -3 -6 l-4 -4 8 -8 8 -8 0 -8 0 -9 -4 -3
c-4 -3 -4 -4 -4 -8 0 -4 0 -5 4 -8 l4 -3 0 -13 c0 -15 -1 -16 -8 -16 -3 0 -5
-1 -7 -2 -1 -2 -1 -2 3 -6 4 -3 4 -4 4 -10 l0 -6 -4 0 c-4 0 -4 0 -4 2 0 2 -1
4 -2 5 -2 1 -2 1 -4 -1 -2 -2 -2 -2 -1 -4 1 -1 3 -2 5 -2 2 0 2 0 2 -8 l0 -8
-4 0 c-4 0 -4 0 -4 2 0 2 -1 4 -2 5 -2 1 -2 1 -4 -1 -2 -2 -2 -2 -1 -4 1 -1 3
-2 5 -2 2 0 2 0 2 -4 l0 -4 -6 0 c-7 0 -10 -2 -10 -6 0 -1 -1 -2 -2 -2 -3 0
-6 -3 -6 -6 0 -1 -1 -2 -2 -2 -3 0 -6 -3 -6 -6 0 -1 -1 -2 -2 -2 -2 0 -4 -1
-4 -2 -2 -2 -2 -2 0 -4 0 -1 2 -2 4 -2 1 0 2 -1 2 -2 0 -2 1 -4 2 -4 2 -2 2
-2 4 0 1 0 2 2 2 4 0 1 1 2 2 2 3 0 6 3 6 6 0 1 1 2 2 2 2 0 4 1 5 2 1 2 1 2
0 4 -1 1 -3 2 -5 2 -2 0 -2 0 -2 4 l0 4 6 0 c7 0 10 2 10 6 0 1 1 2 2 2 3 0 6
3 6 6 0 1 1 2 2 2 4 0 6 3 6 10 0 6 0 6 2 6 4 0 6 3 6 8 0 4 0 5 4 8 l4 3 0
41 0 41 -4 3 -4 3 0 9 0 9 -4 3 c-4 3 -4 4 -4 8 0 4 0 5 -6 10 -3 4 -7 6 -8 6
-1 0 -2 1 -2 2 0 3 -3 6 -6 6 -1 0 -2 1 -2 2 0 3 -3 6 -6 6 -1 0 -2 1 -2 2 0
3 -3 6 -6 6 -1 0 -2 1 -2 2 0 3 -3 6 -6 6 -1 0 -2 1 -2 2 0 2 -3 6 -4 6 0 0
-2 -1 -2 -2z m38 -40 c0 -3 -3 -6 -6 -6 -2 0 -2 0 -2 4 l0 4 4 0 c3 0 4 0 4
-2z m-16 -194 l0 -4 -4 0 -4 0 0 -4 0 -4 -4 0 -4 0 0 4 0 4 4 0 4 0 0 4 0 4 4
0 4 0 0 -4z"/><path d="M130 190 c-1 -1 -2 -3 -2 -4 0 -1 -1 -2 -2 -2 -3 0 -6 -3 -6 -6 0 -1
-1 -2 -2 -2 -2 0 -4 -1 -5 -2 -1 -2 -1 -2 1 -4 2 -2 2 -2 4 -1 1 1 2 3 2 5 0
2 0 2 4 2 4 0 4 0 4 -2 0 -2 1 -4 2 -4 2 -2 2 -2 4 0 1 0 2 2 2 4 0 1 1 2 2 2
2 0 4 1 5 2 1 2 1 2 0 4 -1 1 -3 2 -5 2 -1 0 -2 1 -2 2 0 2 -3 6 -4 6 0 0 -1
-1 -2 -2z m6 -10 l0 -4 -4 0 -4 0 0 4 0 4 4 0 4 0 0 -4z"/><path d="M362 182 c-2 -2 -2 -2 0 -4 0 -1 2 -2 4 -2 1 0 2 -1 2 -2 0 -2 1 -4
2 -4 2 -2 2 -2 4 0 1 0 2 2 2 4 0 2 0 2 4 2 4 0 4 0 4 -2 0 -2 1 -4 2 -5 2 -1
2 -1 4 1 2 2 2 2 1 4 -1 1 -3 2 -5 2 -1 0 -2 1 -2 2 0 2 -1 4 -2 5 -2 1 -2 1
-4 0 -1 -1 -2 -3 -2 -5 0 -2 0 -2 -4 -2 -4 0 -4 0 -4 2 0 2 -3 6 -4 6 0 0 -2
-1 -2 -2z"/><path d="M154 174 c-1 -1 -2 -3 -2 -4 0 -1 -1 -2 -2 -2 -3 0 -6 -3 -6 -6 0 -1
-1 -2 -2 -2 -2 0 -4 -1 -5 -2 -1 -2 -1 -2 1 -4 2 -2 2 -2 4 -1 1 1 2 3 2 5 0
1 1 2 2 2 3 0 6 3 6 6 0 1 1 2 2 2 2 0 4 1 5 2 1 2 1 2 0 4 -3 2 -3 2 -5 0z"/><path d="M346 174 c-2 -2 -2 -2 0 -4 0 -1 2 -2 4 -2 2 0 2 0 2 -8 l0 -8 -4 0
c-4 0 -4 0 -4 2 0 3 -3 6 -6 6 -1 0 -2 1 -2 2 0 2 -1 4 -2 5 -2 1 -2 1 -4 -1
-2 -2 -2 -2 -1 -4 1 -1 3 -2 5 -2 1 0 2 -1 2 -2 0 -3 3 -6 6 -6 1 0 2 -1 2 -2
0 -2 1 -4 2 -4 2 -2 2 -2 4 0 1 0 2 2 2 4 0 2 0 2 6 2 5 0 7 0 8 2 2 2 2 2 -4
8 -3 3 -7 6 -8 6 -1 0 -2 1 -2 2 0 2 -3 6 -4 6 0 0 -2 -1 -2 -2z"/><path d="M170 166 c-1 -1 -2 -3 -2 -4 0 -1 -1 -2 -2 -2 -3 0 -6 -3 -6 -6 0 -1
-1 -2 -2 -2 -2 0 -4 -1 -5 -2 -1 -2 -1 -2 1 -4 2 -2 2 -2 4 -1 1 1 2 3 2 5 0
1 1 2 2 2 3 0 6 3 6 6 0 1 1 2 2 2 2 0 4 1 5 2 1 2 1 2 0 4 -3 2 -3 2 -5 0z"/><path d="M194 158 c-1 -1 -2 -3 -2 -4 0 -2 0 -2 -6 -2 -8 0 -10 -2 -10 -8 0
-3 1 -5 2 -7 2 -1 2 -1 6 3 4 5 8 6 8 2 0 -2 1 -4 4 -6 l4 -3 0 -9 0 -8 8 -8
c8 -7 8 -8 8 -12 0 -4 0 -5 4 -8 4 -3 4 -4 4 -8 0 -4 0 -5 8 -12 8 -7 8 -8 8
-12 0 -6 10 -16 16 -16 6 0 8 2 8 8 0 4 0 5 4 8 4 3 4 4 4 8 0 4 0 5 8 12 8 7
8 8 8 12 0 4 0 5 4 8 4 3 4 4 4 8 0 4 0 5 4 8 4 3 4 4 4 8 0 4 0 5 6 10 5 6 6
6 10 6 6 0 8 2 8 8 0 6 -2 8 -10 8 -6 0 -6 0 -6 2 0 2 -1 4 -2 5 -2 1 -2 1 -4
-1 -2 -2 -2 -2 -1 -4 1 -1 3 -2 5 -2 1 0 2 -1 2 -2 0 -4 -3 -6 -8 -6 -4 0 -5
-1 -10 -6 l-6 -6 4 -4 5 -4 -5 -4 c-4 -3 -4 -4 -4 -8 0 -5 -2 -8 -6 -8 -1 0
-2 1 -2 2 0 2 -1 4 -2 5 -2 1 -2 1 -4 -1 -2 -2 -2 -2 -1 -4 1 -1 3 -2 5 -2 1
0 2 -1 2 -2 0 -4 -3 -6 -8 -6 -5 0 -8 -2 -8 -6 0 -1 -1 -2 -2 -2 -2 0 -4 -1
-4 -2 -2 -2 -2 -2 0 -4 0 -1 2 -2 4 -2 3 0 3 -12 0 -15 -2 -1 -2 -1 -6 3 -3 4
-4 4 -8 4 -4 0 -5 1 -7 2 -1 2 -1 2 3 6 4 4 4 4 3 6 -2 1 -4 2 -7 2 -4 0 -5 0
-10 6 l-6 6 4 4 c4 4 4 4 3 6 -2 1 -4 2 -7 2 -3 0 -5 1 -7 2 -1 2 -1 2 3 6 4
4 4 4 3 6 -2 1 -4 2 -7 2 -6 0 -8 2 -8 8 0 6 -2 8 -10 8 l-6 0 0 4 c0 4 0 4 2
4 2 0 4 1 5 2 1 2 1 2 0 4 -3 2 -3 2 -5 0z m77 -72 c1 -2 1 -2 0 -4 -4 -4 -7
-3 -7 2 0 5 3 6 7 2z"/><path d="M249 142 c-1 -2 -1 -2 1 -4 l2 -2 2 2 c2 2 2 2 1 4 -1 1 -3 2 -3 2 0
0 -2 -1 -3 -2z"/></g>
  <g transform="scale(0.125 0.125) translate(0.000000,512.000000) scale(1.000000,-1.000000)" fill="#787878" stroke="none"><path d="M202 486 c-2 -1 -2 -3 -2 -8 0 -6 0 -6 -2 -6 -2 0 -4 -1 -5 -2 -1 -2
-1 -2 1 -4 2 -2 2 -2 4 -1 1 1 2 3 2 5 0 2 0 2 6 2 8 0 10 2 10 8 0 6 -2 8 -8
8 -3 0 -5 -1 -6 -2z"/><path d="M234 486 c-2 -2 -2 -2 0 -4 0 -1 2 -2 4 -2 1 0 2 -1 2 -2 0 -2 1 -4
2 -5 2 -1 2 -1 4 1 2 2 2 2 1 4 -1 1 -3 2 -5 2 -1 0 -2 1 -2 2 0 2 -3 6 -4 6
0 0 -2 -1 -2 -2z"/><path d="M266 486 c-1 -1 -2 -3 -2 -4 0 -1 -1 -2 -2 -2 -2 0 -4 -1 -5 -2 -1
-2 -1 -2 1 -4 2 -2 2 -2 4 -1 1 1 2 3 2 5 0 1 1 2 2 2 2 0 4 1 5 2 1 2 1 2 0
4 -3 2 -3 2 -5 0z"/><path d="M290 486 c-1 -1 -2 -3 -2 -6 0 -6 2 -8 10 -8 6 0 6 0 6 -2 0 -2 1 -4
2 -5 2 -1 2 -1 4 1 2 2 2 2 1 4 -1 1 -3 2 -5 2 -2 0 -2 0 -2 6 0 5 0 7 -2 8
-2 3 -10 3 -12 0z"/><path d="M170 478 c-2 -2 -2 -2 0 -4 0 -1 2 -2 4 -2 2 0 2 0 2 -4 0 -4 0 -4
-2 -4 -2 0 -4 -1 -5 -2 -1 -2 -1 -2 1 -4 2 -2 2 -2 4 -1 1 1 2 3 2 5 0 1 1 2
2 2 2 0 4 1 5 2 1 2 1 2 0 4 -1 1 -3 2 -5 2 -1 0 -2 1 -2 2 0 2 -3 6 -4 6 0 0
-2 -1 -2 -2z"/><path d="M330 478 c-1 -1 -2 -3 -2 -4 0 -1 -1 -2 -2 -2 -2 0 -4 -1 -4 -2 -2
-2 -2 -2 0 -4 0 -1 2 -2 4 -2 1 0 2 -1 2 -2 0 -2 1 -4 2 -5 2 -1 2 -1 4 1 2 2
2 2 1 4 -1 1 -3 2 -5 2 -2 0 -2 0 -2 4 0 4 0 4 2 4 2 0 4 1 5 2 1 2 1 2 0 4
-3 2 -3 2 -5 0z"/><path d="M138 462 c-2 -1 -2 -3 -2 -8 0 -6 0 -6 -2 -6 -4 0 -6 -3 -6 -10 l0
-6 -4 0 c-4 0 -4 0 -4 2 0 2 -1 4 -2 5 -2 1 -2 1 -4 0 -1 -1 -2 -3 -2 -5 0 -1
-1 -2 -2 -2 -3 0 -6 -3 -6 -6 0 -1 -1 -2 -2 -2 -3 0 -6 -3 -6 -6 0 -1 -1 -2
-2 -2 -3 0 -6 -3 -6 -6 0 -1 -1 -2 -2 -2 -2 0 -4 -1 -4 -2 -2 -2 -2 -2 0 -4 0
-1 2 -2 4 -2 2 0 2 0 2 -4 l0 -4 -6 0 c-7 0 -10 -2 -10 -6 0 -1 -1 -2 -2 -2
-1 0 -5 -2 -8 -6 l-6 -6 0 -14 0 -14 -2 0 c-6 0 -6 -1 -6 -36 l0 -33 4 -3 c4
-3 4 -4 4 -8 0 -3 1 -5 2 -6 2 -2 2 -2 8 4 l6 6 -8 8 c-8 7 -8 8 -8 12 0 4 0
5 4 8 l4 3 0 9 0 9 -4 3 -4 3 0 11 c0 9 0 10 2 10 1 0 5 3 8 6 l6 6 -4 4 -4 4
4 4 c4 3 4 4 4 10 l0 6 6 0 c7 0 10 2 10 6 0 1 1 2 2 2 2 0 4 1 5 2 1 2 1 2 0
4 -1 1 -3 2 -5 2 -2 0 -2 0 -2 4 0 4 0 4 2 4 3 0 6 3 6 6 0 1 1 2 2 2 3 0 6 3
6 6 0 1 1 2 2 2 3 0 6 3 6 6 0 2 1 2 4 2 4 0 4 0 4 -2 0 -2 1 -4 2 -4 2 -2 2
-2 4 0 1 0 2 2 2 4 0 1 1 2 2 2 4 0 6 3 6 10 0 6 0 6 2 6 6 0 8 10 4 14 -2 2
-2 2 -4 0z"/><path d="M154 462 c-3 -3 -3 -10 0 -12 3 -3 6 0 6 6 0 7 -3 10 -6 6z"/><path d="M346 462 c-3 -3 -3 -10 0 -12 3 -3 6 0 6 6 0 7 -3 10 -6 6z"/><path d="M362 454 c-2 -2 -2 -2 0 -4 0 -1 2 -2 4 -2 2 0 2 0 2 -6 0 -8 3 -12
6 -8 5 4 2 14 -4 14 -1 0 -2 1 -2 2 0 2 -3 6 -4 6 0 0 -2 -1 -2 -2z"/><path d="M386 438 c-2 -2 -2 -2 0 -4 0 -1 2 -2 4 -2 1 0 2 -1 2 -2 0 -3 3 -6
6 -6 1 0 2 -1 2 -2 0 -3 3 -6 6 -6 1 0 2 -1 2 -2 0 -3 3 -6 6 -6 2 0 2 -1 2
-4 0 -4 0 -4 -2 -4 -2 0 -4 -1 -4 -2 -2 -2 -2 -2 0 -4 0 -1 2 -2 4 -2 1 0 2
-1 2 -2 0 -4 3 -6 10 -6 8 0 8 -3 2 -8 -4 -4 -4 -4 -3 -6 2 -2 3 -2 9 -2 8 0
8 -2 2 -8 l-4 -4 6 -6 c3 -3 7 -6 8 -6 2 0 2 -1 2 -10 l0 -11 -4 -3 c-4 -3 -4
-4 -4 -8 0 -4 0 -5 4 -8 l4 -3 0 -9 c0 -7 0 -9 2 -10 2 -2 2 -2 4 0 2 1 2 3 2
30 0 31 0 32 -6 32 -2 0 -2 0 -2 10 0 12 -1 14 -6 14 -2 0 -2 0 -2 6 0 7 -2
10 -6 10 -1 0 -2 1 -2 2 0 4 -3 6 -10 6 l-6 0 0 4 c0 4 0 4 2 4 2 0 4 1 5 2 1
2 1 2 0 4 -1 1 -3 2 -5 2 -1 0 -2 1 -2 2 0 3 -3 6 -6 6 -1 0 -2 1 -2 2 0 3 -3
6 -6 6 -1 0 -2 1 -2 2 0 3 -3 6 -6 6 -1 0 -2 1 -2 2 0 2 -3 6 -4 6 0 0 -2 -1
-2 -2z"/><path d="M434 270 c-2 -2 -2 -2 4 -8 6 -6 6 -6 8 -4 3 2 3 10 0 12 -2 3 -10 3
-12 0z"/><path d="M74 254 c-1 -1 -2 -3 -2 -4 0 -1 -1 -2 -2 -2 -2 0 -4 -1 -5 -2 -1 -2
-1 -2 1 -4 2 -2 2 -2 4 -1 1 1 2 3 2 5 0 1 1 2 2 2 2 0 4 1 5 2 1 2 1 2 0 4
-3 2 -3 2 -5 0z"/><path d="M426 254 c-2 -2 -2 -2 0 -4 0 -1 2 -2 4 -2 1 0 2 -1 2 -2 0 -2 1 -4
2 -5 2 -1 2 -1 4 1 2 2 2 2 1 4 -1 1 -3 2 -5 2 -1 0 -2 1 -2 2 0 2 -3 6 -4 6
0 0 -2 -1 -2 -2z"/><path d="M82 238 c-1 -1 -2 -3 -2 -4 0 -1 -1 -2 -2 -2 -2 0 -4 -1 -4 -2 -2 -2
-2 -2 0 -4 0 -1 2 -2 4 -2 1 0 2 -1 2 -2 0 -1 2 -5 6 -8 l6 -6 6 0 6 0 0 -4
c0 -4 0 -4 -2 -4 -2 0 -4 -1 -5 -2 -1 -2 -1 -2 1 -4 2 -2 2 -2 4 -1 1 1 2 3 2
5 0 2 0 2 4 2 4 0 4 0 4 -2 0 -2 1 -4 2 -5 2 -1 2 -1 4 1 2 2 2 2 1 4 -1 1 -3
2 -5 2 -1 0 -2 1 -2 2 0 3 -3 6 -6 6 -1 0 -2 1 -2 2 0 1 -2 5 -6 8 l-6 6 -6 0
-6 0 0 4 c0 4 0 4 2 4 2 0 4 1 5 2 1 2 1 2 0 4 -3 2 -3 2 -5 0z"/><path d="M418 238 c-2 -2 -2 -2 0 -4 0 -1 2 -2 4 -2 2 0 2 0 2 -4 l0 -4 -6 0
c-7 0 -10 -2 -10 -6 0 -1 -1 -2 -2 -2 -3 0 -6 -3 -6 -6 0 -1 -1 -2 -2 -2 -3 0
-6 -3 -6 -6 0 -1 -1 -2 -2 -2 -2 0 -4 -1 -5 -2 -1 -2 -1 -2 1 -4 2 -2 2 -2 4
-1 1 1 2 3 2 5 0 2 0 2 4 2 4 0 4 0 4 -2 0 -2 1 -4 2 -5 2 -1 2 -1 4 1 2 2 2
2 1 4 -1 1 -3 2 -5 2 -2 0 -2 0 -2 4 0 4 0 4 2 4 3 0 6 3 6 6 0 2 0 2 6 2 7 0
10 2 10 6 0 1 1 2 2 2 2 0 4 1 5 2 1 2 1 2 0 4 -1 1 -3 2 -5 2 -1 0 -2 1 -2 2
0 2 -3 6 -4 6 0 0 -2 -1 -2 -2z"/><path d="M130 190 c-1 -1 -2 -3 -2 -4 0 -1 -1 -2 -2 -2 -2 0 -4 -1 -4 -2 -2
-2 -2 -2 0 -4 0 -1 2 -2 4 -2 1 0 2 -1 2 -2 0 -2 1 -4 2 -4 2 -2 2 -2 4 0 1 0
2 2 2 4 0 1 1 2 2 2 2 0 4 1 5 2 1 2 1 2 0 4 -1 1 -3 2 -5 2 -1 0 -2 1 -2 2 0
2 -3 6 -4 6 0 0 -1 -1 -2 -2z m6 -10 l0 -4 -4 0 -4 0 0 4 0 4 4 0 4 0 0 -4z"/><path d="M362 182 c-2 -2 -2 -2 0 -4 0 -1 2 -2 4 -2 1 0 2 -1 2 -2 0 -2 1 -4
2 -4 2 -2 2 -2 4 0 1 0 2 2 2 4 0 1 1 2 2 2 2 0 4 1 5 2 1 2 1 2 -1 4 -2 2 -2
2 -4 1 -1 -1 -2 -3 -2 -5 0 -2 0 -2 -4 -2 -4 0 -4 0 -4 2 0 2 -3 6 -4 6 0 0
-2 -1 -2 -2z"/><path d="M154 174 c-1 -1 -2 -3 -2 -4 0 -1 -1 -2 -2 -2 -2 0 -4 -1 -5 -2 -1
-2 -1 -2 1 -4 2 -2 2 -2 4 -1 1 1 2 3 2 5 0 1 1 2 2 2 2 0 4 1 5 2 1 2 1 2 0
4 -3 2 -3 2 -5 0z"/><path d="M346 174 c-2 -2 -2 -2 0 -4 0 -1 2 -2 4 -2 2 0 2 0 2 -6 0 -8 3 -12
6 -8 5 4 2 14 -4 14 -1 0 -2 1 -2 2 0 2 -3 6 -4 6 0 0 -2 -1 -2 -2z"/><path d="M170 166 c-1 -1 -2 -3 -2 -4 0 -1 -1 -2 -2 -2 -2 0 -4 -1 -5 -2 -1
-2 -1 -2 1 -4 2 -2 2 -2 4 -1 1 1 2 3 2 5 0 1 1 2 2 2 2 0 4 1 5 2 1 2 1 2 0
4 -3 2 -3 2 -5 0z"/><path d="M330 166 c-2 -2 -2 -2 0 -4 0 -1 2 -2 4 -2 1 0 2 -1 2 -2 0 -2 1 -4
2 -5 2 -1 2 -1 4 1 2 2 2 2 1 4 -1 1 -3 2 -5 2 -1 0 -2 1 -2 2 0 2 -3 6 -4 6
0 0 -2 -1 -2 -2z"/><path d="M194 158 c-1 -1 -2 -3 -2 -4 0 -2 0 -2 -6 -2 -8 0 -12 -3 -8 -6 1 -2
3 -2 8 -2 6 0 6 0 6 -2 0 -2 1 -4 4 -6 l4 -3 0 -9 0 -8 8 -8 c8 -7 8 -8 8 -12
0 -4 0 -5 4 -8 4 -3 4 -4 4 -8 0 -4 0 -5 8 -12 8 -7 8 -8 8 -12 0 -6 10 -16
16 -16 6 0 8 2 8 8 0 4 0 5 4 8 4 3 4 4 4 8 0 4 0 5 8 12 8 7 8 8 8 12 0 4 0
5 4 8 4 3 4 4 4 8 0 4 0 5 4 8 4 3 4 4 4 8 0 4 0 4 12 16 12 12 12 12 10 14
-1 2 -3 2 -8 2 -6 0 -6 0 -6 2 0 2 -1 4 -2 5 -2 1 -2 1 -4 -1 -2 -2 -2 -2 -1
-4 1 -1 3 -2 5 -2 1 0 2 -1 2 -2 0 -4 -3 -6 -8 -6 -4 0 -5 -1 -10 -6 l-6 -6 4
-4 5 -4 -5 -4 c-4 -3 -4 -4 -4 -8 0 -5 -2 -8 -6 -8 -1 0 -2 1 -2 2 0 2 -1 4
-2 5 -2 1 -2 1 -4 -1 -2 -2 -2 -2 -1 -4 1 -1 3 -2 5 -2 1 0 2 -1 2 -2 0 -4 -3
-6 -8 -6 -5 0 -8 -2 -8 -6 0 -1 -1 -2 -2 -2 -2 0 -4 -1 -4 -2 -2 -2 -2 -2 0
-4 0 -1 2 -2 4 -2 3 0 3 -12 0 -15 -2 -1 -2 -1 -6 3 -3 4 -4 4 -8 4 -4 0 -5 1
-7 2 -1 2 -1 2 3 6 4 4 4 4 3 6 -2 1 -4 2 -7 2 -4 0 -5 0 -10 6 l-6 6 4 4 c4
4 4 4 3 6 -2 1 -4 2 -7 2 -3 0 -5 1 -7 2 -1 2 -1 2 3 6 4 4 4 4 3 6 -2 1 -4 2
-7 2 -6 0 -8 2 -8 8 0 6 -2 8 -10 8 l-6 0 0 4 c0 4 0 4 2 4 2 0 4 1 5 2 1 2 1
2 0 4 -3 2 -3 2 -5 0z m77 -72 c1 -2 1 -2 0 -4 -4 -4 -7 -3 -7 2 0 5 3 6 7 2z"/><path d="M249 142 c-1 -2 -1 -2 1 -4 l2 -2 2 2 c2 2 2 2 1 4 -1 1 -3 2 -3 2 0
0 -2 -1 -3 -2z"/></g>
  <g transform="scale(0.125 0.125) translate(0.000000,512.000000) scale(1.000000,-1.000000)" fill="#474747" stroke="none"><path d="M202 486 c-2 -1 -2 -3 -2 -8 0 -6 0 -6 -2 -6 -2 0 -4 -1 -5 -2 -1 -2
-1 -2 1 -4 2 -2 2 -2 4 -1 1 1 2 3 2 5 0 1 1 2 2 2 1 0 5 3 8 6 6 6 6 6 4 8
-2 3 -10 3 -12 0z"/><path d="M234 486 c-2 -2 -2 -2 0 -4 0 -1 2 -2 4 -2 1 0 2 -1 2 -2 0 -2 1 -4
2 -5 2 -1 2 -1 4 1 2 2 2 2 1 4 -1 1 -3 2 -5 2 -1 0 -2 1 -2 2 0 2 -3 6 -4 6
0 0 -2 -1 -2 -2z"/><path d="M266 486 c-1 -1 -2 -3 -2 -4 0 -1 -1 -2 -2 -2 -2 0 -4 -1 -5 -2 -1
-2 -1 -2 1 -4 2 -2 2 -2 4 -1 1 1 2 3 2 5 0 1 1 2 2 2 2 0 4 1 5 2 1 2 1 2 0
4 -3 2 -3 2 -5 0z"/><path d="M290 486 c-2 -2 -2 -2 4 -8 3 -3 7 -6 8 -6 1 0 2 -1 2 -2 0 -2 1 -4
2 -5 2 -1 2 -1 4 1 2 2 2 2 1 4 -1 1 -3 2 -5 2 -2 0 -2 0 -2 6 0 8 -2 10 -8
10 -3 0 -5 -1 -6 -2z"/><path d="M169 478 c-1 -2 -1 -2 1 -4 l2 -2 2 2 c2 2 2 2 1 4 -1 1 -3 2 -3 2 0
0 -2 -1 -3 -2z"/><path d="M329 478 c-1 -2 -1 -2 1 -4 l2 -2 2 2 c2 2 2 2 1 4 -1 1 -3 2 -3 2 0
0 -2 -1 -3 -2z"/><path d="M138 462 c-3 -3 -3 -10 0 -12 3 -3 6 0 6 6 0 7 -3 10 -6 6z"/><path d="M154 462 c-3 -3 -3 -10 0 -12 3 -3 6 0 6 6 0 7 -3 10 -6 6z"/><path d="M169 462 c-1 -2 -1 -2 1 -4 l2 -2 2 2 c2 2 2 2 1 4 -1 1 -3 2 -3 2 0
0 -2 -1 -3 -2z"/><path d="M329 462 c-1 -2 -1 -2 1 -4 l2 -2 2 2 c2 2 2 2 1 4 -1 1 -3 2 -3 2 0
0 -2 -1 -3 -2z"/><path d="M346 462 c-3 -3 -3 -10 0 -12 3 -3 6 0 6 6 0 7 -3 10 -6 6z"/><path d="M361 454 c-1 -2 -1 -2 1 -4 l2 -2 2 2 c2 2 2 2 1 4 -1 1 -3 2 -3 2 0
0 -2 -1 -3 -2z"/><path d="M114 438 c-1 -1 -2 -3 -2 -4 0 -1 -1 -2 -2 -2 -3 0 -6 -3 -6 -6 0 -1
-1 -2 -2 -2 -3 0 -6 -3 -6 -6 0 -1 -1 -2 -2 -2 -3 0 -6 -3 -6 -6 0 -1 -1 -2
-2 -2 -2 0 -4 -1 -4 -2 -2 -2 -2 -2 0 -4 0 -1 2 -2 4 -2 2 0 2 0 2 -4 0 -4 0
-4 -2 -4 -2 0 -4 -1 -5 -2 -1 -2 -1 -2 1 -4 2 -2 2 -2 4 -1 1 1 2 3 2 5 0 1 1
2 2 2 2 0 4 1 5 2 1 2 1 2 0 4 -1 1 -3 2 -5 2 -2 0 -2 0 -2 4 0 4 0 4 2 4 3 0
6 3 6 6 0 1 1 2 2 2 3 0 6 3 6 6 0 1 1 2 2 2 3 0 6 3 6 6 0 2 1 2 4 2 4 0 4 0
4 -2 0 -2 1 -4 2 -4 2 -2 2 -2 4 0 1 0 2 2 2 4 0 1 1 2 2 2 2 0 4 1 5 2 1 2 1
2 -1 4 -2 2 -2 2 -4 1 -1 -1 -2 -3 -2 -5 0 -2 0 -2 -4 -2 -4 0 -4 0 -4 2 0 2
-3 6 -4 6 0 0 -1 -1 -2 -2z"/><path d="M369 438 c-1 -2 -1 -2 1 -4 l2 -2 2 2 c2 2 2 2 1 4 -1 1 -3 2 -3 2 0
0 -2 -1 -3 -2z"/><path d="M386 438 c-2 -2 -2 -2 0 -4 0 -1 2 -2 4 -2 1 0 2 -1 2 -2 0 -3 3 -6
6 -6 1 0 2 -1 2 -2 0 -3 3 -6 6 -6 1 0 2 -1 2 -2 0 -3 3 -6 6 -6 2 0 2 -1 2
-4 0 -4 0 -4 -2 -4 -2 0 -4 -1 -4 -2 -2 -2 -2 -2 0 -4 0 -1 2 -2 4 -2 1 0 2
-1 2 -2 0 -2 1 -4 2 -5 2 -1 2 -1 4 1 2 2 2 2 1 4 -1 1 -3 2 -5 2 -2 0 -2 0
-2 4 0 4 0 4 2 4 2 0 4 1 5 2 1 2 1 2 0 4 -1 1 -3 2 -5 2 -1 0 -2 1 -2 2 0 3
-3 6 -6 6 -1 0 -2 1 -2 2 0 3 -3 6 -6 6 -1 0 -2 1 -2 2 0 3 -3 6 -6 6 -1 0 -2
1 -2 2 0 2 -3 6 -4 6 0 0 -2 -1 -2 -2z"/><path d="M66 382 c-1 -1 -2 -3 -2 -4 0 -1 -1 -2 -2 -2 -5 0 -6 -3 -6 -12 0
-10 1 -12 8 -12 3 0 5 1 7 2 1 2 1 2 -3 6 -4 3 -4 4 -4 10 0 6 0 6 2 6 2 0 4
1 5 2 1 2 1 2 0 4 -3 2 -3 2 -5 0z"/><path d="M434 382 c-1 -1 -2 -3 -2 -4 0 -1 -1 -2 -2 -2 -2 0 -4 -1 -5 -2 -1
-2 -1 -2 1 -4 2 -2 2 -2 4 -1 1 1 2 3 2 5 0 1 1 2 2 2 2 0 4 1 5 2 1 2 1 2 0
4 -3 2 -3 2 -5 0z"/><path d="M442 366 c-1 -1 -2 -3 -2 -4 0 -1 -1 -2 -2 -2 -2 0 -4 -1 -5 -2 -1
-2 -1 -2 1 -4 2 -2 2 -2 4 -1 1 1 2 3 2 5 0 1 1 2 2 2 2 0 4 1 5 2 1 2 1 2 0
4 -3 2 -3 2 -5 0z"/><path d="M50 342 c-3 -3 -3 -66 0 -68 2 -2 2 -2 4 0 2 1 2 3 2 10 l0 9 4 3 4
3 0 9 0 9 -4 3 -4 3 0 9 c0 7 0 9 -2 10 -2 2 -2 2 -4 0z"/><path d="M450 342 c-2 -1 -2 -4 -2 -10 l0 -9 -4 -3 c-4 -3 -4 -4 -4 -8 0 -4 0
-5 4 -8 l4 -3 0 -9 c0 -7 0 -9 2 -10 2 -2 2 -2 4 0 3 2 3 58 0 60 -2 2 -2 2
-4 0z"/><path d="M66 270 c-1 -1 -2 -3 -2 -4 0 -1 -1 -2 -2 -2 -2 0 -4 -1 -5 -2 -1 -2
-1 -2 1 -4 2 -2 2 -2 4 -1 1 1 2 3 2 5 0 1 1 2 2 2 2 0 4 1 5 2 1 2 1 2 0 4
-3 2 -3 2 -5 0z"/><path d="M434 270 c-2 -2 -2 -2 0 -4 0 -1 2 -2 4 -2 1 0 2 -1 2 -2 0 -2 1 -4
2 -5 2 -1 2 -1 4 1 2 2 2 2 1 4 -1 1 -3 2 -5 2 -1 0 -2 1 -2 2 0 2 -3 6 -4 6
0 0 -2 -1 -2 -2z"/><path d="M74 254 c-1 -1 -2 -3 -2 -4 0 -1 -1 -2 -2 -2 -2 0 -4 -1 -5 -2 -1 -2
-1 -2 1 -4 2 -2 2 -2 4 -1 1 1 2 3 2 5 0 1 1 2 2 2 2 0 4 1 5 2 1 2 1 2 0 4
-3 2 -3 2 -5 0z"/><path d="M426 254 c-2 -2 -2 -2 0 -4 0 -1 2 -2 4 -2 1 0 2 -1 2 -2 0 -2 1 -4
2 -5 2 -1 2 -1 4 1 2 2 2 2 1 4 -1 1 -3 2 -5 2 -1 0 -2 1 -2 2 0 2 -3 6 -4 6
0 0 -2 -1 -2 -2z"/><path d="M82 238 c-1 -1 -2 -3 -2 -4 0 -1 -1 -2 -2 -2 -2 0 -4 -1 -5 -2 -1 -2
-1 -2 1 -4 2 -2 2 -2 4 -1 1 1 2 3 2 5 0 1 1 2 2 2 2 0 4 1 5 2 1 2 1 2 0 4
-3 2 -3 2 -5 0z"/><path d="M418 238 c-2 -2 -2 -2 0 -4 0 -1 2 -2 4 -2 1 0 2 -1 2 -2 0 -2 1 -4
2 -5 2 -1 2 -1 4 1 2 2 2 2 1 4 -1 1 -3 2 -5 2 -1 0 -2 1 -2 2 0 2 -3 6 -4 6
0 0 -2 -1 -2 -2z"/><path d="M90 222 c-2 -2 -2 -2 0 -4 0 -1 2 -2 4 -2 1 0 2 -1 2 -2 0 -3 3 -6 6
-6 2 0 2 -1 2 -4 0 -4 0 -4 -2 -4 -2 0 -4 -1 -5 -2 -1 -2 -1 -2 1 -4 2 -2 2
-2 4 -1 1 1 2 3 2 5 0 2 0 2 4 2 4 0 4 0 4 -2 0 -2 1 -4 2 -5 2 -1 2 -1 4 1 2
2 2 2 1 4 -1 1 -3 2 -5 2 -1 0 -2 1 -2 2 0 3 -3 6 -6 6 -1 0 -2 1 -2 2 0 3 -3
6 -6 6 -1 0 -2 1 -2 2 0 2 -3 6 -4 6 0 0 -2 -1 -2 -2z"/><path d="M410 222 c-1 -1 -2 -3 -2 -4 0 -1 -1 -2 -2 -2 -3 0 -6 -3 -6 -6 0 -1
-1 -2 -2 -2 -3 0 -6 -3 -6 -6 0 -1 -1 -2 -2 -2 -2 0 -4 -1 -5 -2 -1 -2 -1 -2
1 -4 2 -2 2 -2 4 -1 1 1 2 3 2 5 0 2 0 2 4 2 4 0 4 0 4 -2 0 -2 1 -4 2 -5 2
-1 2 -1 4 1 2 2 2 2 1 4 -1 1 -3 2 -5 2 -2 0 -2 0 -2 4 0 4 0 4 2 4 3 0 6 3 6
6 0 1 1 2 2 2 2 0 4 1 5 2 1 2 1 2 0 4 -3 2 -3 2 -5 0z"/><path d="M130 190 c-2 -2 -2 -2 0 -4 0 -1 2 -2 4 -2 2 0 2 0 2 -4 0 -4 0 -4
-2 -4 -2 0 -4 -1 -5 -2 -1 -2 -1 -2 1 -4 2 -2 2 -2 4 -1 1 1 2 3 2 5 0 1 1 2
2 2 2 0 4 1 5 2 1 2 1 2 0 4 -1 1 -3 2 -5 2 -1 0 -2 1 -2 2 0 2 -3 6 -4 6 0 0
-2 -1 -2 -2z"/><path d="M362 182 c-2 -2 -2 -2 0 -4 0 -1 2 -2 4 -2 1 0 2 -1 2 -2 0 -2 1 -4
2 -5 2 -1 2 -1 4 1 2 2 2 2 1 4 -1 1 -3 2 -5 2 -1 0 -2 1 -2 2 0 2 -3 6 -4 6
0 0 -2 -1 -2 -2z"/><path d="M153 174 c-1 -2 -1 -2 1 -4 l2 -2 2 2 c2 2 2 2 1 4 -1 1 -3 2 -3 2 0
0 -2 -1 -3 -2z"/><path d="M345 174 c-1 -2 -1 -2 1 -4 l2 -2 2 2 c2 2 2 2 1 4 -1 1 -3 2 -3 2 0
0 -2 -1 -3 -2z"/><path d="M169 166 c-1 -2 -1 -2 1 -4 l2 -2 2 2 c2 2 2 2 1 4 -1 1 -3 2 -3 2 0
0 -2 -1 -3 -2z"/><path d="M329 166 c-1 -2 -1 -2 1 -4 l2 -2 2 2 c2 2 2 2 1 4 -1 1 -3 2 -3 2 0
0 -2 -1 -3 -2z"/><path d="M193 158 c-1 -2 -1 -2 1 -4 l2 -2 2 2 c2 2 2 2 1 4 -1 1 -3 2 -3 2 0
0 -2 -1 -3 -2z"/><path d="M305 158 c-1 -2 -1 -2 1 -4 l2 -2 2 2 c2 2 2 2 1 4 -1 1 -3 2 -3 2 0
0 -2 -1 -3 -2z"/><path d="M353 158 c-1 -2 -1 -2 1 -4 l2 -2 2 2 c2 2 2 2 1 4 -1 1 -3 2 -3 2 0
0 -2 -1 -3 -2z"/><path d="M177 150 c-1 -2 -1 -2 1 -4 l2 -2 2 2 c2 2 2 2 1 4 -1 1 -3 2 -3 2 0
0 -2 -1 -3 -2z"/><path d="M322 150 c-1 -1 -2 -3 -2 -4 0 -2 0 -2 -6 -2 -9 0 -10 -1 -10 -10 l0
-6 -4 0 c-4 0 -4 0 -4 2 0 2 -1 4 -2 5 -2 1 -2 1 -4 -1 -2 -2 -2 -2 -1 -4 1
-1 3 -2 5 -2 2 0 2 0 2 -8 0 -8 0 -8 -2 -8 -2 0 -4 -1 -6 -4 -4 -5 -8 -6 -8
-2 0 2 -1 4 -2 5 -2 1 -2 1 -4 -1 -2 -2 -2 -2 -1 -4 1 -1 3 -2 5 -2 2 0 2 0 2
-6 0 -7 -2 -10 -6 -10 -1 0 -2 1 -2 2 0 2 -1 4 -2 5 -2 1 -2 1 -4 0 -1 -1 -2
-3 -2 -5 0 -1 -1 -2 -2 -2 -2 0 -4 -1 -5 -2 -1 -2 -1 -2 1 -4 2 -2 2 -2 4 -1
1 1 2 3 2 5 0 2 0 2 4 2 l4 0 0 -8 c0 -8 0 -8 -2 -8 -2 0 -4 -2 -6 -4 l-4 -4
-4 4 -4 5 -4 -5 c-6 -7 -8 -6 -8 4 0 8 0 8 2 8 2 0 4 1 5 2 1 2 1 2 -1 4 -2 2
-2 2 -4 1 -1 -1 -2 -3 -2 -5 0 -1 -1 -2 -2 -2 -4 0 -6 3 -6 8 0 4 0 5 -4 8 -5
4 -6 8 -2 8 2 0 4 1 5 2 1 2 1 2 -1 4 -2 2 -2 2 -4 1 -1 -1 -2 -3 -2 -5 0 -2
0 -2 -4 -2 l-4 0 0 8 c0 8 0 8 2 8 2 0 4 1 5 2 1 2 1 2 -1 4 -2 2 -2 2 -4 1
-1 -1 -2 -3 -2 -5 0 -1 -1 -2 -2 -2 -5 0 -6 3 -6 12 0 10 -1 12 -8 12 -3 0 -5
-1 -7 -2 -1 -2 -1 -2 3 -6 l4 -3 0 -9 0 -8 6 -6 c3 -4 7 -6 8 -6 2 0 2 -1 2
-6 0 -7 0 -7 4 -10 4 -3 4 -4 4 -8 0 -4 0 -5 6 -10 3 -4 7 -6 8 -6 2 0 2 -1 2
-6 l0 -6 6 -6 c5 -6 6 -6 10 -6 6 0 8 2 8 8 0 4 0 5 4 8 4 3 4 3 4 10 0 5 0 6
2 6 1 0 5 2 8 6 6 5 6 6 6 10 0 4 0 5 4 8 4 3 4 3 4 10 0 6 0 6 2 6 4 0 6 3 6
10 0 5 0 6 2 6 3 0 14 11 14 14 0 1 1 2 2 2 2 0 4 1 5 2 1 2 1 2 0 4 -3 2 -3
2 -5 0z"/><path d="M249 142 c-1 -2 -1 -2 1 -4 l2 -2 2 2 c2 2 2 2 1 4 -1 1 -3 2 -3 2 0
0 -2 -1 -3 -2z"/></g>
  <g transform="scale(0.125 0.125) translate(0.000000,512.000000) scale(1.000000,-1.000000)" fill="#565656" stroke="none"><path d="M234 486 c-2 -2 -2 -2 0 -4 0 -1 2 -2 4 -2 1 0 2 -1 2 -2 0 -2 1 -4
2 -5 2 -1 2 -1 4 1 2 2 2 2 1 4 -1 1 -3 2 -5 2 -1 0 -2 1 -2 2 0 2 -3 6 -4 6
0 0 -2 -1 -2 -2z"/><path d="M266 486 c-1 -1 -2 -3 -2 -4 0 -1 -1 -2 -2 -2 -2 0 -4 -1 -5 -2 -1
-2 -1 -2 1 -4 2 -2 2 -2 4 -1 1 1 2 3 2 5 0 1 1 2 2 2 2 0 4 1 5 2 1 2 1 2 0
4 -3 2 -3 2 -5 0z"/><path d="M169 478 c-1 -2 -1 -2 1 -4 l2 -2 2 2 c2 2 2 2 1 4 -1 1 -3 2 -3 2 0
0 -2 -1 -3 -2z"/><path d="M329 478 c-1 -2 -1 -2 1 -4 l2 -2 2 2 c2 2 2 2 1 4 -1 1 -3 2 -3 2 0
0 -2 -1 -3 -2z"/><path d="M193 470 c-1 -2 -1 -2 1 -4 l2 -2 2 2 c2 2 2 2 1 4 -1 1 -3 2 -3 2 0
0 -2 -1 -3 -2z"/><path d="M305 470 c-1 -2 -1 -2 1 -4 l2 -2 2 2 c2 2 2 2 1 4 -1 1 -3 2 -3 2 0
0 -2 -1 -3 -2z"/><path d="M154 462 c-3 -3 -3 -10 0 -12 3 -3 6 0 6 6 0 7 -3 10 -6 6z"/><path d="M169 462 c-1 -2 -1 -2 1 -4 l2 -2 2 2 c2 2 2 2 1 4 -1 1 -3 2 -3 2 0
0 -2 -1 -3 -2z"/><path d="M329 462 c-1 -2 -1 -2 1 -4 l2 -2 2 2 c2 2 2 2 1 4 -1 1 -3 2 -3 2 0
0 -2 -1 -3 -2z"/><path d="M346 462 c-3 -3 -3 -10 0 -12 3 -3 6 0 6 6 0 7 -3 10 -6 6z"/><path d="M130 438 c-1 -1 -2 -3 -2 -4 0 -1 -1 -2 -2 -2 -2 0 -4 -1 -5 -2 -1
-2 -1 -2 1 -4 2 -2 2 -2 4 -1 1 1 2 3 2 5 0 1 1 2 2 2 2 0 4 1 5 2 1 2 1 2 0
4 -3 2 -3 2 -5 0z"/><path d="M369 438 c-1 -2 -1 -2 1 -4 l2 -2 2 2 c2 2 2 2 1 4 -1 1 -3 2 -3 2 0
0 -2 -1 -3 -2z"/><path d="M106 430 c-1 -1 -2 -3 -2 -4 0 -1 -1 -2 -2 -2 -3 0 -6 -3 -6 -6 0 -1
-1 -2 -2 -2 -2 0 -4 -1 -5 -2 -1 -2 -1 -2 1 -4 2 -2 2 -2 4 -1 1 1 2 3 2 5 0
1 1 2 2 2 3 0 6 3 6 6 0 1 1 2 2 2 2 0 4 1 5 2 1 2 1 2 0 4 -3 2 -3 2 -5 0z"/><path d="M394 430 c-2 -2 -2 -2 0 -4 0 -1 2 -2 4 -2 1 0 2 -1 2 -2 0 -3 3 -6
6 -6 1 0 2 -1 2 -2 0 -2 1 -4 2 -5 2 -1 2 -1 4 1 2 2 2 2 1 4 -1 1 -3 2 -5 2
-1 0 -2 1 -2 2 0 3 -3 6 -6 6 -1 0 -2 1 -2 2 0 2 -3 6 -4 6 0 0 -2 -1 -2 -2z"/><path d="M90 398 c-1 -1 -2 -3 -2 -4 0 -1 -1 -2 -2 -2 -2 0 -4 -1 -5 -2 -1 -2
-1 -2 1 -4 2 -2 2 -2 4 -1 1 1 2 3 2 5 0 1 1 2 2 2 2 0 4 1 5 2 1 2 1 2 0 4
-3 2 -3 2 -5 0z"/><path d="M410 398 c-2 -2 -2 -2 0 -4 0 -1 2 -2 4 -2 1 0 2 -1 2 -2 0 -2 1 -4
2 -5 2 -1 2 -1 4 1 2 2 2 2 1 4 -1 1 -3 2 -5 2 -1 0 -2 1 -2 2 0 2 -3 6 -4 6
0 0 -2 -1 -2 -2z"/><path d="M425 374 c-1 -2 -1 -2 1 -4 l2 -2 2 2 c2 2 2 2 1 4 -1 1 -3 2 -3 2 0
0 -2 -1 -3 -2z"/><path d="M58 358 c-3 -3 0 -6 6 -6 3 0 5 1 7 2 2 3 -1 6 -7 6 -3 0 -5 -1 -6
-2z"/><path d="M433 358 c-1 -2 -1 -2 1 -4 l2 -2 2 2 c2 2 2 2 1 4 -1 1 -3 2 -3 2 0
0 -2 -1 -3 -2z"/><path d="M446 322 c-8 -8 -8 -12 0 -20 6 -6 6 -6 8 -4 3 2 3 26 0 28 -2 2 -2
3 -8 -4z"/><path d="M50 318 c-3 -3 -3 -18 0 -20 2 -3 10 -3 12 0 3 3 3 18 0 20 -2 3 -10
3 -12 0z"/><path d="M66 270 c-1 -1 -2 -3 -2 -4 0 -1 -1 -2 -2 -2 -2 0 -4 -1 -5 -2 -1 -2
-1 -2 1 -4 2 -2 2 -2 4 -1 1 1 2 3 2 5 0 1 1 2 2 2 2 0 4 1 5 2 1 2 1 2 0 4
-3 2 -3 2 -5 0z"/><path d="M434 270 c-2 -2 -2 -2 0 -4 0 -1 2 -2 4 -2 1 0 2 -1 2 -2 0 -2 1 -4
2 -5 2 -1 2 -1 4 1 2 2 2 2 1 4 -1 1 -3 2 -5 2 -1 0 -2 1 -2 2 0 2 -3 6 -4 6
0 0 -2 -1 -2 -2z"/><path d="M74 254 c-1 -1 -2 -3 -2 -4 0 -1 -1 -2 -2 -2 -2 0 -4 -1 -5 -2 -1 -2
-1 -2 1 -4 2 -2 2 -2 4 -1 1 1 2 3 2 5 0 1 1 2 2 2 2 0 4 1 5 2 1 2 1 2 0 4
-3 2 -3 2 -5 0z"/><path d="M426 254 c-2 -2 -2 -2 0 -4 0 -1 2 -2 4 -2 1 0 2 -1 2 -2 0 -2 1 -4
2 -5 2 -1 2 -1 4 1 2 2 2 2 1 4 -1 1 -3 2 -5 2 -1 0 -2 1 -2 2 0 2 -3 6 -4 6
0 0 -2 -1 -2 -2z"/><path d="M82 238 c-1 -1 -2 -3 -2 -4 0 -1 -1 -2 -2 -2 -2 0 -4 -1 -5 -2 -1 -2
-1 -2 1 -4 2 -2 2 -2 4 -1 1 1 2 3 2 5 0 1 1 2 2 2 2 0 4 1 5 2 1 2 1 2 0 4
-3 2 -3 2 -5 0z"/><path d="M418 238 c-2 -2 -2 -2 0 -4 0 -1 2 -2 4 -2 1 0 2 -1 2 -2 0 -2 1 -4
2 -5 2 -1 2 -1 4 1 2 2 2 2 1 4 -1 1 -3 2 -5 2 -1 0 -2 1 -2 2 0 2 -3 6 -4 6
0 0 -2 -1 -2 -2z"/><path d="M90 222 c-2 -2 -2 -2 0 -4 0 -1 2 -2 4 -2 1 0 2 -1 2 -2 0 -3 3 -6 6
-6 1 0 2 -1 2 -2 0 -3 3 -6 6 -6 1 0 2 -1 2 -2 0 -2 1 -4 2 -5 2 -1 2 -1 4 1
2 2 2 2 1 4 -1 1 -3 2 -5 2 -1 0 -2 1 -2 2 0 3 -3 6 -6 6 -1 0 -2 1 -2 2 0 3
-3 6 -6 6 -1 0 -2 1 -2 2 0 2 -3 6 -4 6 0 0 -2 -1 -2 -2z"/><path d="M410 222 c-1 -1 -2 -3 -2 -4 0 -1 -1 -2 -2 -2 -3 0 -6 -3 -6 -6 0 -1
-1 -2 -2 -2 -3 0 -6 -3 -6 -6 0 -1 -1 -2 -2 -2 -2 0 -4 -1 -5 -2 -1 -2 -1 -2
1 -4 2 -2 2 -2 4 -1 1 1 2 3 2 5 0 1 1 2 2 2 3 0 6 3 6 6 0 1 1 2 2 2 3 0 6 3
6 6 0 1 1 2 2 2 2 0 4 1 5 2 1 2 1 2 0 4 -3 2 -3 2 -5 0z"/><path d="M130 190 c-2 -2 -2 -2 0 -4 0 -1 2 -2 4 -2 2 0 2 0 2 -4 0 -4 0 -4
-2 -4 -2 0 -4 -1 -5 -2 -1 -2 -1 -2 1 -4 2 -2 2 -2 4 -1 1 1 2 3 2 5 0 1 1 2
2 2 2 0 4 1 5 2 1 2 1 2 0 4 -1 1 -3 2 -5 2 -1 0 -2 1 -2 2 0 2 -3 6 -4 6 0 0
-2 -1 -2 -2z"/><path d="M362 182 c-2 -2 -2 -2 0 -4 0 -1 2 -2 4 -2 1 0 2 -1 2 -2 0 -2 1 -4
2 -5 2 -1 2 -1 4 1 2 2 2 2 1 4 -1 1 -3 2 -5 2 -1 0 -2 1 -2 2 0 2 -3 6 -4 6
0 0 -2 -1 -2 -2z"/><path d="M153 174 c-1 -2 -1 -2 1 -4 l2 -2 2 2 c2 2 2 2 1 4 -1 1 -3 2 -3 2 0
0 -2 -1 -3 -2z"/><path d="M345 174 c-1 -2 -1 -2 1 -4 l2 -2 2 2 c2 2 2 2 1 4 -1 1 -3 2 -3 2 0
0 -2 -1 -3 -2z"/><path d="M169 166 c-1 -2 -1 -2 1 -4 l2 -2 2 2 c2 2 2 2 1 4 -1 1 -3 2 -3 2 0
0 -2 -1 -3 -2z"/><path d="M329 166 c-1 -2 -1 -2 1 -4 l2 -2 2 2 c2 2 2 2 1 4 -1 1 -3 2 -3 2 0
0 -2 -1 -3 -2z"/><path d="M193 158 c-1 -2 -1 -2 1 -4 l2 -2 2 2 c2 2 2 2 1 4 -1 1 -3 2 -3 2 0
0 -2 -1 -3 -2z"/><path d="M305 158 c-1 -2 -1 -2 1 -4 l2 -2 2 2 c2 2 2 2 1 4 -1 1 -3 2 -3 2 0
0 -2 -1 -3 -2z"/><path d="M353 158 c-1 -2 -1 -2 1 -4 l2 -2 2 2 c2 2 2 2 1 4 -1 1 -3 2 -3 2 0
0 -2 -1 -3 -2z"/><path d="M193 142 c-1 -2 -1 -2 3 -6 l4 -3 0 -9 0 -8 6 -6 c3 -4 7 -6 8 -6 2
0 2 -1 2 -6 0 -7 0 -7 4 -10 4 -3 4 -4 4 -8 0 -4 0 -5 6 -10 3 -4 7 -6 8 -6 2
0 2 -1 2 -6 l0 -6 6 -6 c5 -6 6 -6 10 -6 6 0 8 2 8 8 0 4 0 5 4 8 4 3 4 3 4
10 0 5 0 6 2 6 1 0 5 2 8 6 6 5 6 6 6 10 0 4 0 5 4 8 4 3 4 3 4 10 0 6 0 6 2
6 4 0 6 3 6 10 0 5 0 6 2 6 1 0 5 3 8 6 6 6 6 6 4 8 -1 1 -3 2 -6 2 -6 0 -8
-2 -8 -10 l0 -6 -4 0 c-4 0 -4 0 -4 2 0 2 -1 4 -2 5 -2 1 -2 1 -4 -1 -2 -2 -2
-2 -1 -4 1 -1 3 -2 5 -2 2 0 2 0 2 -8 0 -8 0 -8 -2 -8 -2 0 -4 -1 -6 -4 -4 -5
-8 -6 -8 -2 0 2 -1 4 -2 5 -2 1 -2 1 -4 -1 -2 -2 -2 -2 -1 -4 1 -1 3 -2 5 -2
2 0 2 0 2 -6 0 -7 -2 -10 -6 -10 -1 0 -2 1 -2 2 0 2 -1 4 -2 5 -2 1 -2 1 -4
-1 -1 0 -2 -2 -2 -4 0 -1 -1 -2 -2 -2 -2 0 -4 -1 -5 -2 -1 -2 -1 -2 1 -4 2 -2
2 -2 4 -1 1 1 2 3 2 5 0 2 0 2 4 2 l4 0 0 -8 c0 -8 0 -8 -2 -8 -2 0 -4 -2 -6
-4 l-4 -4 -4 4 -4 5 -4 -5 c-6 -7 -8 -6 -8 4 0 8 0 8 2 8 2 0 4 1 5 2 1 2 1 2
-1 4 -2 2 -2 2 -4 1 -1 -1 -2 -3 -2 -5 0 -1 -1 -2 -2 -2 -4 0 -6 3 -6 8 0 4 0
5 -4 8 -5 4 -6 8 -2 8 2 0 4 1 5 2 1 2 1 2 -1 4 -2 2 -2 2 -4 1 -1 -1 -2 -3
-2 -5 0 -2 0 -2 -4 -2 l-4 0 0 8 c0 8 0 8 2 8 2 0 4 1 5 2 1 2 1 2 -1 4 -2 2
-2 2 -4 1 -1 -1 -2 -3 -2 -5 0 -1 -1 -2 -2 -2 -5 0 -6 3 -6 12 0 10 -1 12 -8
12 -3 0 -5 -1 -7 -2z"/><path d="M249 142 c-1 -2 -1 -2 1 -4 l2 -2 2 2 c2 2 2 2 1 4 -1 1 -3 2 -3 2 0
0 -2 -1 -3 -2z"/></g>
  <g transform="scale(0.125 0.125) translate(0.000000,512.000000) scale(1.000000,-1.000000)" fill="#f3f3f3" stroke="none"><path d="M234 486 c-2 -2 -2 -2 0 -4 0 -1 2 -2 4 -2 1 0 2 -1 2 -2 0 -2 1 -4
2 -5 2 -1 2 -1 4 1 2 2 2 2 1 4 -1 1 -3 2 -5 2 -1 0 -2 1 -2 2 0 2 -3 6 -4 6
0 0 -2 -1 -2 -2z"/><path d="M266 486 c-1 -1 -2 -3 -2 -4 0 -1 -1 -2 -2 -2 -2 0 -4 -1 -5 -2 -1
-2 -1 -2 1 -4 2 -2 2 -2 4 -1 1 1 2 3 2 5 0 1 1 2 2 2 2 0 4 1 5 2 1 2 1 2 0
4 -3 2 -3 2 -5 0z"/><path d="M193 470 c-1 -2 -1 -2 1 -4 l2 -2 2 2 c2 2 2 2 1 4 -1 1 -3 2 -3 2 0
0 -2 -1 -3 -2z"/><path d="M305 470 c-1 -2 -1 -2 1 -4 l2 -2 2 2 c2 2 2 2 1 4 -1 1 -3 2 -3 2 0
0 -2 -1 -3 -2z"/><path d="M169 462 c-1 -2 -1 -2 1 -4 l2 -2 2 2 c2 2 2 2 1 4 -1 1 -3 2 -3 2 0
0 -2 -1 -3 -2z"/><path d="M329 462 c-1 -2 -1 -2 1 -4 l2 -2 2 2 c2 2 2 2 1 4 -1 1 -3 2 -3 2 0
0 -2 -1 -3 -2z"/><path d="M153 454 c-1 -2 -1 -2 1 -4 l2 -2 2 2 c2 2 2 2 1 4 -1 1 -3 2 -3 2 0
0 -2 -1 -3 -2z"/><path d="M345 454 c-1 -2 -1 -2 1 -4 l2 -2 2 2 c2 2 2 2 1 4 -1 1 -3 2 -3 2 0
0 -2 -1 -3 -2z"/><path d="M130 438 c-1 -1 -2 -3 -2 -4 0 -1 -1 -2 -2 -2 -2 0 -4 -1 -5 -2 -1
-2 -1 -2 1 -4 2 -2 2 -2 4 -1 1 1 2 3 2 5 0 1 1 2 2 2 2 0 4 1 5 2 1 2 1 2 0
4 -3 2 -3 2 -5 0z"/><path d="M369 438 c-1 -2 -1 -2 1 -4 l2 -2 2 2 c2 2 2 2 1 4 -1 1 -3 2 -3 2 0
0 -2 -1 -3 -2z"/><path d="M90 398 c-1 -1 -2 -3 -2 -4 0 -1 -1 -2 -2 -2 -2 0 -4 -1 -5 -2 -1 -2
-1 -2 1 -4 2 -2 2 -2 4 -1 1 1 2 3 2 5 0 1 1 2 2 2 2 0 4 1 5 2 1 2 1 2 0 4
-3 2 -3 2 -5 0z"/><path d="M410 398 c-2 -2 -2 -2 0 -4 0 -1 2 -2 4 -2 1 0 2 -1 2 -2 0 -2 1 -4
2 -5 2 -1 2 -1 4 1 2 2 2 2 1 4 -1 1 -3 2 -5 2 -1 0 -2 1 -2 2 0 2 -3 6 -4 6
0 0 -2 -1 -2 -2z"/><path d="M425 374 c-1 -2 -1 -2 1 -4 l2 -2 2 2 c2 2 2 2 1 4 -1 1 -3 2 -3 2 0
0 -2 -1 -3 -2z"/><path d="M65 358 c-1 -2 -1 -2 1 -4 l2 -2 2 2 c2 2 2 2 1 4 -1 1 -3 2 -3 2 0
0 -2 -1 -3 -2z"/><path d="M433 358 c-1 -2 -1 -2 1 -4 l2 -2 2 2 c2 2 2 2 1 4 -1 1 -3 2 -3 2 0
0 -2 -1 -3 -2z"/><path d="M58 318 c-3 -3 -3 -18 0 -20 2 -2 2 -2 4 0 3 2 3 18 0 20 -2 2 -2 2
-4 0z"/><path d="M442 318 c-3 -3 -3 -10 0 -12 3 -3 6 0 6 6 0 7 -3 10 -6 6z"/><path d="M65 270 c-1 -2 -1 -2 1 -4 l2 -2 2 2 c2 2 2 2 1 4 -1 1 -3 2 -3 2 0
0 -2 -1 -3 -2z"/><path d="M433 270 c-1 -2 -1 -2 1 -4 l2 -2 2 2 c2 2 2 2 1 4 -1 1 -3 2 -3 2 0
0 -2 -1 -3 -2z"/><path d="M73 254 c-1 -2 -1 -2 1 -4 l2 -2 2 2 c2 2 2 2 1 4 -1 1 -3 2 -3 2 0
0 -2 -1 -3 -2z"/><path d="M425 254 c-1 -2 -1 -2 1 -4 l2 -2 2 2 c2 2 2 2 1 4 -1 1 -3 2 -3 2 0
0 -2 -1 -3 -2z"/><path d="M81 238 c-1 -2 -1 -2 1 -4 l2 -2 2 2 c2 2 2 2 1 4 -1 1 -3 2 -3 2 0
0 -2 -1 -3 -2z"/><path d="M417 238 c-1 -2 -1 -2 1 -4 l2 -2 2 2 c2 2 2 2 1 4 -1 1 -3 2 -3 2 0
0 -2 -1 -3 -2z"/><path d="M90 222 c-2 -2 -2 -2 0 -4 0 -1 2 -2 4 -2 1 0 2 -1 2 -2 0 -3 3 -6 6
-6 1 0 2 -1 2 -2 0 -3 3 -6 6 -6 1 0 2 -1 2 -2 0 -2 1 -4 2 -5 2 -1 2 -1 4 1
2 2 2 2 1 4 -1 1 -3 2 -5 2 -1 0 -2 1 -2 2 0 3 -3 6 -6 6 -1 0 -2 1 -2 2 0 3
-3 6 -6 6 -1 0 -2 1 -2 2 0 2 -3 6 -4 6 0 0 -2 -1 -2 -2z"/><path d="M410 222 c-1 -1 -2 -3 -2 -4 0 -1 -1 -2 -2 -2 -3 0 -6 -3 -6 -6 0 -1
-1 -2 -2 -2 -3 0 -6 -3 -6 -6 0 -1 -1 -2 -2 -2 -2 0 -4 -1 -5 -2 -1 -2 -1 -2
1 -4 2 -2 2 -2 4 -1 1 1 2 3 2 5 0 1 1 2 2 2 3 0 6 3 6 6 0 1 1 2 2 2 3 0 6 3
6 6 0 1 1 2 2 2 2 0 4 1 5 2 1 2 1 2 0 4 -3 2 -3 2 -5 0z"/><path d="M130 190 c-2 -2 -2 -2 0 -4 0 -1 2 -2 4 -2 1 0 2 -1 2 -2 0 -2 1 -4
2 -5 2 -1 2 -1 4 1 2 2 2 2 1 4 -1 1 -3 2 -5 2 -1 0 -2 1 -2 2 0 2 -3 6 -4 6
0 0 -2 -1 -2 -2z"/><path d="M361 182 c-1 -2 -1 -2 1 -4 l2 -2 2 2 c2 2 2 2 1 4 -1 1 -3 2 -3 2 0
0 -2 -1 -3 -2z"/><path d="M153 174 c-1 -2 -1 -2 1 -4 l2 -2 2 2 c2 2 2 2 1 4 -1 1 -3 2 -3 2 0
0 -2 -1 -3 -2z"/><path d="M345 174 c-1 -2 -1 -2 1 -4 l2 -2 2 2 c2 2 2 2 1 4 -1 1 -3 2 -3 2 0
0 -2 -1 -3 -2z"/><path d="M169 166 c-1 -2 -1 -2 1 -4 l2 -2 2 2 c2 2 2 2 1 4 -1 1 -3 2 -3 2 0
0 -2 -1 -3 -2z"/><path d="M329 166 c-1 -2 -1 -2 1 -4 l2 -2 2 2 c2 2 2 2 1 4 -1 1 -3 2 -3 2 0
0 -2 -1 -3 -2z"/><path d="M193 158 c-1 -2 -1 -2 1 -4 l2 -2 2 2 c2 2 2 2 1 4 -1 1 -3 2 -3 2 0
0 -2 -1 -3 -2z"/><path d="M305 158 c-1 -2 -1 -2 1 -4 l2 -2 2 2 c2 2 2 2 1 4 -1 1 -3 2 -3 2 0
0 -2 -1 -3 -2z"/><path d="M353 158 c-1 -2 -1 -2 1 -4 l2 -2 2 2 c2 2 2 2 1 4 -1 1 -3 2 -3 2 0
0 -2 -1 -3 -2z"/><path d="M194 142 c-2 -2 -2 -2 0 -4 0 -1 2 -2 4 -2 2 0 2 0 2 -10 l0 -10 6
-6 c3 -4 7 -6 8 -6 2 0 2 -1 2 -6 0 -7 2 -10 6 -10 2 0 2 -1 2 -6 l0 -6 6 -6
c3 -4 7 -6 8 -6 2 0 2 -1 2 -6 l0 -6 6 -6 c5 -6 6 -6 10 -6 6 0 8 2 8 10 0 6
0 6 2 6 4 0 6 3 6 10 0 5 0 6 2 6 1 0 5 2 8 6 l6 6 0 6 c0 6 0 6 2 6 4 0 6 3
6 10 0 6 0 6 2 6 4 0 6 3 6 10 0 5 0 6 2 6 1 0 5 3 8 6 6 6 6 6 4 8 -1 1 -3 2
-6 2 -6 0 -8 -2 -8 -10 l0 -6 -4 0 c-4 0 -4 0 -4 2 0 2 -1 4 -2 5 -2 1 -2 1
-4 -1 -2 -2 -2 -2 -1 -4 1 -1 3 -2 5 -2 2 0 2 0 2 -8 0 -8 0 -8 -2 -8 -4 0 -6
-3 -6 -10 0 -6 0 -6 -2 -6 -2 0 -4 -1 -6 -4 -4 -5 -8 -6 -8 -2 0 2 -1 4 -2 5
-2 1 -2 1 -4 -1 -1 0 -2 -2 -2 -4 0 -1 -1 -2 -2 -2 -2 0 -4 -1 -5 -2 -1 -2 -1
-2 1 -4 2 -2 2 -2 4 -1 1 1 2 3 2 5 0 2 0 2 4 2 l4 0 0 -8 c0 -8 0 -8 -2 -8
-4 0 -6 -3 -6 -10 l0 -6 -6 0 c-7 0 -10 2 -10 6 0 1 1 2 2 2 2 0 4 1 5 2 1 2
1 2 -1 4 -2 2 -2 2 -4 1 -1 -1 -2 -3 -2 -5 0 -2 0 -2 -4 -2 l-4 0 0 8 c0 8 0
8 2 8 2 0 4 1 5 2 1 2 1 2 -1 4 -2 2 -2 2 -4 1 -1 -1 -2 -3 -2 -5 0 -4 -4 -3
-8 2 -2 3 -4 4 -6 4 -2 0 -2 0 -2 8 0 8 0 8 2 8 2 0 4 1 5 2 1 2 1 2 -1 4 -2
2 -2 2 -4 1 -1 -1 -2 -3 -2 -5 0 -2 0 -2 -4 -2 l-4 0 0 8 c0 8 0 8 2 8 2 0 4
1 5 2 1 2 1 2 -1 4 -2 2 -2 2 -4 1 -1 -1 -2 -3 -2 -5 0 -1 -1 -2 -2 -2 -4 0
-6 3 -6 8 0 5 -2 8 -6 8 -1 0 -2 1 -2 2 0 2 -3 6 -4 6 0 0 -2 -1 -2 -2z"/><path d="M249 142 c-1 -2 -1 -2 1 -4 l2 -2 2 2 c2 2 2 2 1 4 -1 1 -3 2 -3 2 0
0 -2 -1 -3 -2z"/><path d="M273 110 c-1 -2 -1 -2 1 -4 l2 -2 2 2 c2 2 2 2 1 4 -1 1 -3 2 -3 2 0
0 -2 -1 -3 -2z"/></g>
  <g transform="scale(0.125 0.125) translate(0.000000,512.000000) scale(1.000000,-1.000000)" fill="#fbfbfb" stroke="none"><path d="M234 486 c-2 -2 -2 -2 0 -4 0 -1 2 -2 4 -2 1 0 2 -1 2 -2 0 -2 1 -4
2 -5 2 -1 2 -1 4 1 2 2 2 2 1 4 -1 1 -3 2 -5 2 -1 0 -2 1 -2 2 0 2 -3 6 -4 6
0 0 -2 -1 -2 -2z"/><path d="M265 486 c-1 -2 -1 -2 1 -4 l2 -2 2 2 c2 2 2 2 1 4 -1 1 -3 2 -3 2 0
0 -2 -1 -3 -2z"/><path d="M305 470 c-1 -2 -1 -2 1 -4 l2 -2 2 2 c2 2 2 2 1 4 -1 1 -3 2 -3 2 0
0 -2 -1 -3 -2z"/><path d="M130 438 c-1 -1 -2 -3 -2 -4 0 -1 -1 -2 -2 -2 -2 0 -4 -1 -5 -2 -1
-2 -1 -2 1 -4 2 -2 2 -2 4 -1 1 1 2 3 2 5 0 1 1 2 2 2 2 0 4 1 5 2 1 2 1 2 0
4 -3 2 -3 2 -5 0z"/><path d="M89 398 c-1 -2 -1 -2 1 -4 l2 -2 2 2 c2 2 2 2 1 4 -1 1 -3 2 -3 2 0
0 -2 -1 -3 -2z"/><path d="M409 398 c-1 -2 -1 -2 1 -4 l2 -2 2 2 c2 2 2 2 1 4 -1 1 -3 2 -3 2 0
0 -2 -1 -3 -2z"/><path d="M425 374 c-1 -2 -1 -2 1 -4 l2 -2 2 2 c2 2 2 2 1 4 -1 1 -3 2 -3 2 0
0 -2 -1 -3 -2z"/><path d="M57 310 c-1 -2 -1 -2 1 -4 l2 -2 2 2 c2 2 2 2 1 4 -1 1 -3 2 -3 2 0
0 -2 -1 -3 -2z"/><path d="M65 270 c-1 -2 -1 -2 1 -4 l2 -2 2 2 c2 2 2 2 1 4 -1 1 -3 2 -3 2 0
0 -2 -1 -3 -2z"/><path d="M433 270 c-1 -2 -1 -2 1 -4 l2 -2 2 2 c2 2 2 2 1 4 -1 1 -3 2 -3 2 0
0 -2 -1 -3 -2z"/><path d="M73 254 c-1 -2 -1 -2 1 -4 l2 -2 2 2 c2 2 2 2 1 4 -1 1 -3 2 -3 2 0
0 -2 -1 -3 -2z"/><path d="M425 254 c-1 -2 -1 -2 1 -4 l2 -2 2 2 c2 2 2 2 1 4 -1 1 -3 2 -3 2 0
0 -2 -1 -3 -2z"/><path d="M81 238 c-1 -2 -1 -2 1 -4 l2 -2 2 2 c2 2 2 2 1 4 -1 1 -3 2 -3 2 0
0 -2 -1 -3 -2z"/><path d="M417 238 c-1 -2 -1 -2 1 -4 l2 -2 2 2 c2 2 2 2 1 4 -1 1 -3 2 -3 2 0
0 -2 -1 -3 -2z"/><path d="M129 190 c-1 -2 -1 -2 1 -4 l2 -2 2 2 c2 2 2 2 1 4 -1 1 -3 2 -3 2 0
0 -2 -1 -3 -2z"/><path d="M153 174 c-1 -2 -1 -2 1 -4 l2 -2 2 2 c2 2 2 2 1 4 -1 1 -3 2 -3 2 0
0 -2 -1 -3 -2z"/><path d="M345 174 c-1 -2 -1 -2 1 -4 l2 -2 2 2 c2 2 2 2 1 4 -1 1 -3 2 -3 2 0
0 -2 -1 -3 -2z"/><path d="M169 166 c-1 -2 -1 -2 1 -4 l2 -2 2 2 c2 2 2 2 1 4 -1 1 -3 2 -3 2 0
0 -2 -1 -3 -2z"/><path d="M329 166 c-1 -2 -1 -2 1 -4 l2 -2 2 2 c2 2 2 2 1 4 -1 1 -3 2 -3 2 0
0 -2 -1 -3 -2z"/><path d="M193 158 c-1 -2 -1 -2 1 -4 l2 -2 2 2 c2 2 2 2 1 4 -1 1 -3 2 -3 2 0
0 -2 -1 -3 -2z"/><path d="M305 158 c-1 -2 -1 -2 1 -4 l2 -2 2 2 c2 2 2 2 1 4 -1 1 -3 2 -3 2 0
0 -2 -1 -3 -2z"/><path d="M353 158 c-1 -2 -1 -2 1 -4 l2 -2 2 2 c2 2 2 2 1 4 -1 1 -3 2 -3 2 0
0 -2 -1 -3 -2z"/><path d="M194 142 c-2 -2 -2 -2 0 -4 0 -1 2 -2 4 -2 2 0 2 0 2 -10 l0 -10 6
-6 c3 -4 7 -6 8 -6 2 0 2 -1 2 -6 0 -7 2 -10 6 -10 2 0 2 -1 2 -6 l0 -6 6 -6
c3 -4 7 -6 8 -6 2 0 2 -1 2 -6 l0 -6 6 -6 c5 -6 6 -6 10 -6 6 0 8 2 8 10 0 6
0 6 2 6 4 0 6 3 6 10 0 5 0 6 2 6 1 0 5 2 8 6 l6 6 0 6 c0 6 0 6 2 6 4 0 6 3
6 10 0 6 0 6 2 6 4 0 6 3 6 10 0 5 0 6 2 6 1 0 5 3 8 6 6 6 6 6 4 8 -1 1 -3 2
-6 2 -6 0 -8 -2 -8 -10 0 -6 0 -6 -2 -6 -4 0 -6 -3 -6 -10 0 -6 0 -6 -2 -6 -4
0 -6 -3 -6 -10 0 -5 0 -6 -2 -6 -1 0 -5 -2 -8 -6 l-6 -6 0 -6 c0 -6 0 -6 -2
-6 -4 0 -6 -3 -6 -10 l0 -6 -6 0 c-7 0 -7 0 -10 4 -2 3 -4 4 -6 4 -2 0 -2 0
-2 6 l0 6 -6 6 c-3 4 -7 6 -8 6 -2 0 -2 1 -2 6 0 7 -2 10 -6 10 -2 0 -2 0 -2
6 0 7 0 7 -4 10 -4 3 -4 4 -4 8 0 5 -2 8 -6 8 -1 0 -2 1 -2 2 0 2 -3 6 -4 6 0
0 -2 -1 -2 -2z"/><path d="M249 142 c-1 -2 -1 -2 1 -4 l2 -2 2 2 c2 2 2 2 1 4 -1 1 -3 2 -3 2 0
0 -2 -1 -3 -2z"/><path d="M273 110 c-1 -2 -1 -2 1 -4 l2 -2 2 2 c2 2 2 2 1 4 -1 1 -3 2 -3 2 0
0 -2 -1 -3 -2z"/><path d="M257 86 c-1 -2 -1 -2 1 -4 l2 -2 2 2 c2 2 2 2 1 4 -1 1 -3 2 -3 2 0
0 -2 -1 -3 -2z"/></g>
  <g transform="scale(0.125 0.125) translate(0.000000,512.000000) scale(1.000000,-1.000000)" fill="#000000" stroke="none"><path d="M233 486 c-1 -2 -1 -2 1 -4 l2 -2 2 2 c2 2 2 2 1 4 -1 1 -3 2 -3 2 0
0 -2 -1 -3 -2z"/><path d="M265 486 c-1 -2 -1 -2 1 -4 l2 -2 2 2 c2 2 2 2 1 4 -1 1 -3 2 -3 2 0
0 -2 -1 -3 -2z"/><path d="M353 158 c-1 -2 -1 -2 1 -4 l2 -2 2 2 c2 2 2 2 1 4 -1 1 -3 2 -3 2 0
0 -2 -1 -3 -2z"/><path d="M194 142 c-2 -2 -2 -2 0 -4 0 -1 2 -2 4 -2 2 0 2 0 2 -10 l0 -10 6
-6 c3 -4 7 -6 8 -6 2 0 2 -1 2 -6 0 -7 2 -10 6 -10 2 0 2 -1 2 -6 l0 -6 6 -6
c3 -4 7 -6 8 -6 2 0 2 -1 2 -6 l0 -6 6 -6 c5 -6 6 -6 10 -6 6 0 8 2 8 10 0 6
0 6 2 6 4 0 6 3 6 10 0 5 0 6 2 6 1 0 5 2 8 6 l6 6 0 6 c0 6 0 6 2 6 4 0 6 3
6 10 0 6 0 6 2 6 4 0 6 3 6 10 0 5 0 6 2 6 1 0 5 3 8 6 6 6 6 6 4 8 -1 1 -3 2
-6 2 -6 0 -8 -2 -8 -10 0 -6 0 -6 -2 -6 -4 0 -6 -3 -6 -10 0 -6 0 -6 -2 -6 -4
0 -6 -3 -6 -10 0 -5 0 -6 -2 -6 -1 0 -5 -2 -8 -6 l-6 -6 0 -6 c0 -6 0 -6 -2
-6 -4 0 -6 -3 -6 -10 l0 -6 -6 0 c-7 0 -7 0 -10 4 -2 3 -4 4 -6 4 -2 0 -2 0
-2 6 l0 6 -6 6 c-3 4 -7 6 -8 6 -2 0 -2 1 -2 6 0 7 -2 10 -6 10 -2 0 -2 0 -2
6 0 7 0 7 -4 10 -4 3 -4 4 -4 8 0 5 -2 8 -6 8 -1 0 -2 1 -2 2 0 2 -3 6 -4 6 0
0 -2 -1 -2 -2z"/></g>
  <g transform="scale(0.125 0.125) translate(0.000000,512.000000) scale(1.000000,-1.000000)" fill="#101010" stroke="none"><path d="M233 486 c-1 -2 -1 -2 1 -4 l2 -2 2 2 c2 2 2 2 1 4 -1 1 -3 2 -3 2 0
0 -2 -1 -3 -2z"/><path d="M265 486 c-1 -2 -1 -2 1 -4 l2 -2 2 2 c2 2 2 2 1 4 -1 1 -3 2 -3 2 0
0 -2 -1 -3 -2z"/><path d="M353 158 c-1 -2 -1 -2 1 -4 l2 -2 2 2 c2 2 2 2 1 4 -1 1 -3 2 -3 2 0
0 -2 -1 -3 -2z"/><path d="M194 142 c-2 -2 -2 -2 0 -4 0 -1 2 -2 4 -2 1 0 2 -1 2 -2 0 -2 1 -4
2 -5 2 -1 2 -1 4 1 2 2 2 2 1 4 -1 1 -3 2 -5 2 -1 0 -2 1 -2 2 0 2 -3 6 -4 6
0 0 -2 -1 -2 -2z"/><path d="M306 142 c-3 -2 -3 -10 0 -12 2 -2 2 -2 8 4 6 6 6 6 4 8 -2 3 -10 3
-12 0z"/><path d="M250 54 c-3 -3 -3 -10 0 -12 3 -3 6 0 6 6 0 7 -3 10 -6 6z"/></g>
</svg>
