<?xml version="1.0" encoding="UTF-8"?>
<svg xmlns="http://www.w3.org/2000/svg" viewBox="0 0 64 64" width="64" height="64">
  <g transform="scale(0.125 0.125) translate(0.000000,512.000000) scale(1.000000,-1.000000)" fill="#ffffff" stroke="none"><path d="M192 484 l-3 -4 -9 0 -9 0 -3 -4 c-3 -4 -4 -4 -8 -4 -4 0 -5 0 -8 -4
-3 -4 -4 -4 -8 -4 -4 0 -5 0 -8 -4 -3 -4 -4 -4 -8 -4 -4 0 -4 0 -16 -12 -12
-12 -12 -12 -16 -12 -6 0 -8 -2 -8 -8 0 -4 0 -5 -12 -16 -12 -12 -12 -12 -12
-16 0 -4 0 -5 -4 -8 l-4 -3 0 -9 0 -9 -4 -3 -4 -3 0 -49 0 -49 4 -3 c4 -3 4
-4 4 -8 0 -4 0 -5 4 -8 4 -3 4 -4 4 -8 0 -4 0 -5 4 -8 4 -3 4 -4 4 -8 l0 -4
22 -22 c22 -22 22 -22 26 -22 4 0 5 0 12 -8 7 -8 8 -8 12 -8 4 0 5 0 8 -4 l3
-4 9 0 9 0 3 -4 c3 -4 4 -4 8 -4 6 0 16 -10 16 -16 0 -4 0 -5 8 -12 8 -7 8 -8
8 -12 0 -4 0 -5 4 -8 4 -3 4 -4 4 -8 0 -4 0 -5 4 -8 4 -3 4 -4 4 -8 0 -4 0 -5
8 -12 8 -7 8 -8 8 -12 0 -3 1 -5 2 -6 2 -2 2 -2 8 4 6 5 6 6 6 10 0 4 0 5 4 8
4 3 4 4 4 8 0 4 0 5 8 12 8 7 8 8 8 12 0 4 0 5 4 8 4 3 4 4 4 8 0 4 0 5 4 8 4
3 4 4 4 8 0 4 0 5 6 10 5 6 6 6 10 6 4 0 5 0 8 4 l3 4 9 0 9 0 3 4 c3 4 4 4 8
4 4 0 5 0 12 8 7 8 8 8 12 8 4 0 4 0 26 22 22 22 22 22 22 26 0 4 0 5 8 12 l8
8 0 8 0 9 4 3 4 3 0 9 0 9 4 3 4 3 0 25 0 25 -4 3 -4 3 0 13 0 13 -4 3 c-4 3
-4 4 -4 8 0 4 0 5 -4 8 -4 3 -4 4 -4 8 0 4 0 5 -8 12 -8 7 -8 8 -8 12 0 4 0 5
-10 14 -9 10 -10 10 -14 10 -4 0 -5 0 -12 8 -7 8 -8 8 -12 8 -4 0 -5 0 -8 4
-3 4 -4 4 -8 4 -4 0 -5 0 -8 4 -3 4 -4 4 -8 4 -4 0 -5 0 -8 4 l-3 4 -9 0 -9 0
-3 4 -3 4 -57 0 -57 0 -3 -4z"/></g>
  <g transform="scale(0.125 0.125) translate(0.000000,512.000000) scale(1.000000,-1.000000)" fill="#303030" stroke="none"><path d="M192 484 l-3 -4 -9 0 -9 0 -3 -4 c-3 -4 -4 -4 -8 -4 -4 0 -5 0 -8 -4
-3 -4 -4 -4 -8 -4 -4 0 -5 0 -8 -4 -3 -4 -4 -4 -8 -4 -4 0 -4 0 -16 -12 -12
-12 -12 -12 -16 -12 -6 0 -8 -2 -8 -8 0 -4 0 -5 -12 -16 -12 -12 -12 -12 -12
-16 0 -4 0 -5 -4 -8 l-4 -3 0 -9 0 -9 -4 -3 -4 -3 0 -49 0 -49 4 -3 c4 -3 4
-4 4 -8 0 -4 0 -5 4 -8 4 -3 4 -4 4 -8 0 -4 0 -5 4 -8 4 -3 4 -4 4 -8 l0 -4
22 -22 c22 -22 22 -22 26 -22 4 0 5 0 12 -8 7 -8 8 -8 12 -8 4 0 5 0 8 -4 l3
-4 9 0 9 0 3 -4 c3 -4 4 -4 8 -4 6 0 16 -10 16 -16 0 -4 0 -5 8 -12 8 -7 8 -8
8 -12 0 -4 0 -5 4 -8 4 -3 4 -4 4 -8 0 -4 0 -5 4 -8 4 -3 4 -4 4 -8 0 -4 0 -5
8 -12 8 -7 8 -8 8 -12 0 -3 1 -5 2 -6 2 -2 2 -2 8 4 6 5 6 6 6 10 0 4 0 5 4 8
4 3 4 4 4 8 0 4 0 5 8 12 8 7 8 8 8 12 0 4 0 5 4 8 4 3 4 4 4 8 0 4 0 5 4 8 4
3 4 4 4 8 0 4 0 5 6 10 5 6 6 6 10 6 4 0 5 0 8 4 l3 4 9 0 9 0 3 4 c3 4 4 4 8
4 4 0 5 0 12 8 7 8 8 8 12 8 4 0 4 0 26 22 22 22 22 22 22 26 0 4 0 5 8 12 l8
8 0 8 0 9 4 3 4 3 0 9 0 9 4 3 4 3 0 25 0 25 -4 3 -4 3 0 13 0 13 -4 3 c-4 3
-4 4 -4 8 0 4 0 5 -4 8 -4 3 -4 4 -4 8 0 4 0 5 -8 12 -8 7 -8 8 -8 12 0 4 0 5
-10 14 -9 10 -10 10 -14 10 -4 0 -5 0 -12 8 -7 8 -8 8 -12 8 -4 0 -5 0 -8 4
-3 4 -4 4 -8 4 -4 0 -5 0 -8 4 -3 4 -4 4 -8 4 -4 0 -5 0 -8 4 l-3 4 -9 0 -9 0
-3 4 -3 4 -57 0 -57 0 -3 -4z m64 -8 l3 -4 21 0 21 0 3 -4 3 -4 9 0 9 0 3 -4
c3 -4 4 -4 8 -4 4 0 5 0 8 -4 3 -4 4 -4 8 -4 4 0 5 0 12 -8 7 -8 8 -8 12 -8 4
0 5 0 18 -14 14 -13 14 -14 14 -18 0 -4 0 -5 8 -12 8 -7 8 -8 8 -12 0 -4 0 -5
4 -8 4 -3 4 -4 4 -8 0 -4 0 -5 4 -8 l4 -3 0 -37 0 -37 -4 -3 -4 -3 0 -9 0 -8
-8 -8 c-8 -7 -8 -8 -8 -12 0 -4 0 -4 -22 -26 l-22 -22 -4 0 c-4 0 -5 0 -8 -4
-3 -4 -4 -4 -8 -4 -4 0 -5 0 -8 -4 -3 -4 -4 -4 -8 -4 -4 0 -5 0 -8 -4 l-3 -4
-9 0 -8 0 -6 -6 c-6 -5 -6 -6 -6 -10 0 -4 0 -5 -4 -8 -4 -3 -4 -4 -4 -8 0 -4
0 -5 -8 -12 -8 -7 -8 -8 -8 -12 0 -4 0 -5 -8 -12 -8 -7 -8 -8 -8 -12 0 -3 -1
-5 -2 -6 -3 -3 -6 0 -6 6 0 4 0 5 -8 12 -8 7 -8 8 -8 12 0 4 0 5 -4 8 -4 3 -4
4 -4 8 0 4 0 5 -4 8 -4 3 -4 4 -4 8 0 4 0 4 -10 14 l-10 10 -8 0 -9 0 -3 4
c-3 4 -4 4 -8 4 -4 0 -5 0 -8 4 -3 4 -4 4 -8 4 -4 0 -5 0 -12 8 -7 8 -8 8 -12
8 -4 0 -4 0 -22 18 -18 18 -18 18 -18 22 0 4 0 5 -4 8 -4 3 -4 4 -4 8 0 4 0 5
-4 8 -4 3 -4 4 -4 8 0 4 0 5 -4 8 l-4 3 0 37 0 37 4 3 4 3 0 9 0 8 12 12 c12
11 12 12 12 16 0 4 1 5 10 14 9 9 10 10 14 10 4 0 5 0 16 12 12 12 12 12 16
12 4 0 5 0 8 4 3 4 4 4 8 4 4 0 5 0 8 4 l3 4 9 0 9 0 3 4 3 4 21 0 21 0 3 4
c2 2 4 4 4 4 0 0 2 -2 4 -4z"/><path d="M200 396 c-3 -4 -4 -4 -8 -4 -4 0 -5 0 -10 -6 l-6 -6 0 -20 0 -21 4
-3 c4 -3 4 -4 4 -8 0 -4 0 -5 8 -12 8 -7 8 -8 8 -12 0 -4 0 -5 12 -16 12 -12
12 -12 12 -16 0 -4 0 -5 4 -8 4 -3 4 -4 4 -8 0 -4 0 -5 4 -8 4 -3 4 -4 4 -8 0
-4 0 -5 6 -10 l6 -6 6 6 c6 5 6 6 6 10 0 4 0 5 4 8 4 3 4 4 4 8 0 4 0 5 8 12
8 7 8 8 8 12 0 4 0 5 12 16 12 11 12 12 12 16 0 4 0 5 8 12 l8 8 0 24 0 24 -6
6 c-5 6 -6 6 -10 6 -4 0 -5 0 -8 4 l-3 4 -9 0 -9 0 -3 -4 c-3 -4 -4 -4 -8 -4
-4 0 -5 0 -12 -8 l-8 -8 -12 12 -12 12 -12 0 -13 0 -3 -4z"/><path d="M249 142 c-1 -2 -1 -2 1 -4 l2 -2 2 2 c2 2 2 2 1 4 -1 1 -3 2 -3 2 0
0 -2 -1 -3 -2z"/></g>
  <g transform="scale(0.125 0.125) translate(0.000000,512.000000) scale(1.000000,-1.000000)" fill="#ff2d96" stroke="none"><path d="M202 478 c-1 -1 -2 -3 -2 -4 0 -2 0 -2 -10 -2 -12 0 -14 -1 -14 -6 0
-2 0 -2 -10 -2 l-11 0 -3 -4 c-3 -4 -4 -4 -8 -4 -4 0 -5 0 -12 -8 -7 -8 -8 -8
-12 -8 -4 0 -4 0 -22 -18 -18 -18 -18 -18 -18 -22 0 -4 0 -5 -8 -12 -8 -7 -8
-8 -8 -12 0 -4 0 -5 -4 -8 l-4 -3 0 -13 0 -13 -4 -3 -4 -3 0 -25 0 -25 4 -3 4
-3 0 -9 0 -9 4 -3 c4 -3 4 -4 4 -8 0 -4 0 -5 4 -8 4 -3 4 -4 4 -8 l0 -4 30
-30 30 -30 4 0 c4 0 5 0 8 -4 3 -4 4 -4 8 -4 6 0 8 -2 8 -8 0 -3 1 -5 2 -7 2
-1 2 -1 6 3 3 4 4 4 8 4 6 0 8 -2 8 -8 0 -4 0 -5 8 -12 8 -7 8 -8 8 -12 0 -4
0 -5 8 -12 8 -7 8 -8 8 -12 0 -4 0 -5 4 -8 4 -3 4 -4 4 -8 0 -4 0 -5 4 -8 4
-3 4 -4 4 -8 0 -4 0 -5 8 -12 8 -7 8 -8 8 -12 0 -3 1 -5 2 -6 2 -2 2 -2 8 4 6
5 6 6 6 10 0 4 0 5 4 8 4 3 4 4 4 8 0 4 0 5 8 12 8 7 8 8 8 12 0 4 0 5 4 8 4
3 4 4 4 8 0 4 0 5 4 8 4 3 4 4 4 8 0 4 0 5 8 12 8 7 8 8 8 12 0 6 2 8 8 8 4 0
5 0 8 -4 4 -4 4 -4 6 -3 1 2 2 4 2 7 0 3 1 5 2 7 2 1 2 1 6 -3 4 -4 4 -4 6 -3
1 2 2 4 2 7 0 6 2 8 8 8 4 0 5 0 16 12 12 12 12 12 16 12 6 0 8 2 8 8 0 4 0 5
12 16 12 12 12 12 12 16 0 4 0 5 4 8 4 3 4 4 4 8 0 4 0 5 4 8 l4 3 0 13 c0 15
1 16 8 16 8 0 8 1 8 20 l0 16 -8 8 -8 8 0 12 0 13 -4 3 c-4 3 -4 4 -4 8 0 4 0
5 -8 12 -8 7 -8 8 -8 12 0 4 0 4 -18 22 -18 18 -18 18 -22 18 -4 0 -5 0 -12 8
-7 8 -8 8 -12 8 -4 0 -5 0 -8 4 l-3 4 -11 0 c-10 0 -10 0 -10 2 0 5 -3 6 -14
6 -10 0 -10 0 -10 2 0 6 -2 6 -24 6 -19 0 -21 0 -22 -2 -2 -2 -2 -2 0 -4 1 -2
3 -2 24 -2 l22 0 0 -2 c0 -5 3 -6 14 -6 10 0 10 0 10 -2 0 -4 3 -6 8 -6 4 0 5
0 8 -4 3 -4 4 -4 8 -4 4 0 5 0 12 -8 7 -8 8 -8 12 -8 4 0 5 0 18 -14 14 -13
14 -14 14 -18 0 -4 0 -5 8 -12 8 -7 8 -8 8 -12 0 -4 0 -5 4 -8 4 -3 4 -4 4 -8
0 -4 0 -5 4 -8 l4 -3 0 -37 0 -37 -4 -3 -4 -3 0 -9 0 -8 -8 -8 c-8 -7 -8 -8
-8 -12 0 -4 0 -4 -22 -26 l-22 -22 -4 0 c-4 0 -5 0 -8 -4 -3 -4 -4 -4 -8 -4
-4 0 -5 0 -8 -4 -3 -4 -4 -4 -8 -4 -4 0 -5 0 -8 -4 l-3 -4 -9 0 -8 0 -6 -6
c-6 -5 -6 -6 -6 -10 0 -4 0 -5 -4 -8 -4 -3 -4 -4 -4 -8 0 -4 0 -5 -8 -12 -8
-7 -8 -8 -8 -12 0 -4 0 -5 -8 -12 -8 -7 -8 -8 -8 -12 0 -3 -1 -5 -2 -6 -3 -3
-6 0 -6 6 0 4 0 5 -8 12 -8 7 -8 8 -8 12 0 4 0 5 -4 8 -4 3 -4 4 -4 8 0 4 0 5
-4 8 -4 3 -4 4 -4 8 0 4 0 4 -10 14 l-10 10 -8 0 -9 0 -3 4 c-3 4 -4 4 -8 4
-4 0 -5 0 -8 4 -3 4 -4 4 -8 4 -4 0 -5 0 -12 8 -7 8 -8 8 -12 8 -4 0 -4 0 -22
18 -18 18 -18 18 -18 22 0 4 0 5 -4 8 -4 3 -4 4 -4 8 0 4 0 5 -4 8 -4 3 -4 4
-4 8 0 4 0 5 -4 8 l-4 3 0 37 0 37 4 3 4 3 0 9 0 8 12 12 c12 11 12 12 12 16
0 4 1 5 10 14 9 9 10 10 14 10 4 0 5 0 16 12 12 12 12 12 16 12 4 0 5 0 8 4 3
4 4 4 8 4 5 0 8 2 8 6 0 2 0 2 10 2 12 0 14 1 14 6 0 2 0 2 22 2 21 0 23 0 25
2 1 2 1 2 0 4 -3 3 -43 3 -45 0z"/><path d="M200 396 c-3 -4 -4 -4 -8 -4 -5 0 -8 -2 -8 -6 0 -1 -1 -2 -2 -2 -4 0
-6 -3 -6 -8 0 -4 0 -5 4 -8 4 -3 4 -4 4 -8 0 -4 0 -5 -4 -8 -4 -3 -4 -4 -4 -8
0 -6 2 -8 8 -8 3 0 5 -1 7 -2 1 -2 1 -2 -3 -6 l-4 -4 8 -8 c8 -7 8 -8 8 -12 0
-4 0 -5 10 -14 l10 -10 8 0 c7 0 9 0 11 -2 2 -3 -1 -6 -7 -6 -3 0 -5 -1 -7 -2
-1 -2 -1 -2 3 -6 4 -3 4 -4 4 -8 0 -5 2 -8 6 -8 2 0 2 0 2 -6 0 -7 2 -10 6
-10 1 0 2 -1 2 -2 0 -2 1 -4 2 -4 2 -2 2 -2 4 0 1 0 2 2 2 4 0 1 1 2 2 2 4 0
6 3 6 8 0 4 0 5 4 8 4 3 4 4 4 8 0 4 0 5 8 12 8 7 8 8 8 12 0 4 0 5 12 16 l12
12 -4 4 c-4 4 -4 4 -3 6 2 1 4 2 7 2 4 0 5 0 10 6 8 8 8 12 2 18 l-4 4 4 4 c4
3 4 4 4 8 0 4 0 5 -4 8 l-4 4 4 4 4 4 -6 6 -6 6 -4 -4 c-6 -6 -8 -6 -8 2 0 9
-1 10 -12 10 -10 0 -12 -1 -12 -8 0 -3 -1 -5 -2 -7 -2 -1 -2 -1 -6 3 l-4 4 -6
-6 c-3 -3 -6 -7 -6 -8 0 -4 -4 -2 -12 6 -5 5 -8 8 -10 8 -1 0 -2 1 -2 2 0 5
-3 6 -16 6 l-13 0 -3 -4z m32 -6 c0 -2 -1 -4 -2 -5 -2 -1 -2 -1 -4 1 -2 2 -2
2 -1 4 3 3 7 3 7 0z m-41 -8 c1 -2 1 -2 -1 -4 -2 -2 -2 -2 -4 -1 -1 1 -2 3 -2
5 0 3 4 3 7 0z m113 0 c0 -2 -1 -4 -2 -5 -2 -1 -2 -1 -4 1 -2 2 -2 2 -1 4 3 3
7 3 7 0z m-33 -8 c2 -3 -1 -6 -7 -6 -5 0 -8 2 -8 6 0 2 0 2 6 2 5 0 7 0 9 -2z
m-8 -16 c1 -2 1 -2 -1 -4 l-2 -2 -2 2 c-2 2 -2 2 -1 4 1 1 3 2 3 2 0 0 2 -1 3
-2z m-48 -48 c1 -2 1 -2 -1 -4 l-2 -2 -2 2 c-2 2 -2 2 -1 4 1 1 3 2 3 2 0 0 2
-1 3 -2z m64 -24 c1 -2 1 -2 -1 -4 l-2 -2 -2 2 c-2 2 -2 2 -1 4 1 1 3 2 3 2 0
0 2 -1 3 -2z m-16 -24 c1 -2 1 -2 0 -4 -1 -1 -3 -2 -5 -2 -1 0 -2 -1 -2 -2 0
-4 -3 -6 -10 -6 -6 0 -6 0 -6 2 0 4 3 6 10 6 6 0 6 0 6 2 0 2 3 6 4 6 0 0 2
-1 3 -2z m-9 -24 c1 -1 2 -2 2 -4 0 -2 0 -2 -4 -2 -5 0 -6 3 -2 6 2 2 2 2 4 0z"/><path d="M249 142 c-1 -2 -1 -2 1 -4 l2 -2 2 2 c2 2 2 2 1 4 -1 1 -3 2 -3 2 0
0 -2 -1 -3 -2z"/></g>
  <g transform="scale(0.125 0.125) translate(0.000000,512.000000) scale(1.000000,-1.000000)" fill="#d6d6d6" stroke="none"><path d="M202 478 c-1 -1 -2 -3 -2 -4 0 -2 0 -2 -10 -2 -12 0 -14 -1 -14 -6 0
-2 0 -2 -10 -2 l-11 0 -3 -4 c-3 -4 -4 -4 -8 -4 -4 0 -5 0 -12 -8 -7 -8 -8 -8
-12 -8 -4 0 -4 0 -22 -18 -18 -18 -18 -18 -18 -22 0 -4 0 -5 -8 -12 -8 -7 -8
-8 -8 -12 0 -4 0 -5 -4 -8 l-4 -3 0 -13 0 -13 -4 -3 -4 -3 0 -25 0 -25 4 -3 4
-3 0 -9 0 -9 4 -3 c4 -3 4 -4 4 -8 0 -4 0 -5 4 -8 4 -3 4 -4 4 -8 l0 -4 30
-30 30 -30 4 0 c4 0 5 0 8 -4 3 -4 4 -4 8 -4 6 0 8 -2 8 -8 0 -3 1 -5 2 -7 2
-1 2 -1 6 3 3 4 4 4 8 4 6 0 8 -2 8 -8 0 -4 0 -5 8 -12 8 -7 8 -8 8 -12 0 -4
0 -5 8 -12 8 -7 8 -8 8 -12 0 -4 0 -5 4 -8 4 -3 4 -4 4 -8 0 -4 0 -5 4 -8 4
-3 4 -4 4 -8 0 -4 0 -5 8 -12 8 -7 8 -8 8 -12 0 -3 1 -5 2 -6 2 -2 2 -2 8 4 6
5 6 6 6 10 0 4 0 5 4 8 4 3 4 4 4 8 0 4 0 5 8 12 8 7 8 8 8 12 0 4 0 5 4 8 4
3 4 4 4 8 0 4 0 5 4 8 4 3 4 4 4 8 0 4 0 5 8 12 8 7 8 8 8 12 0 6 2 8 8 8 4 0
5 0 8 -4 4 -4 4 -4 6 -3 1 2 2 4 2 7 0 3 1 5 2 7 2 1 2 1 6 -3 4 -4 4 -4 6 -3
1 2 2 4 2 7 0 6 2 8 8 8 4 0 5 0 16 12 12 12 12 12 16 12 6 0 8 2 8 8 0 4 0 5
12 16 12 12 12 12 12 16 0 4 0 5 4 8 4 3 4 4 4 8 0 4 0 5 4 8 l4 3 0 13 c0 15
1 16 8 16 8 0 8 1 8 20 l0 16 -8 8 -8 8 0 12 0 13 -4 3 c-4 3 -4 4 -4 8 0 4 0
5 -8 12 -8 7 -8 8 -8 12 0 4 0 4 -18 22 -18 18 -18 18 -22 18 -4 0 -5 0 -12 8
-7 8 -8 8 -12 8 -4 0 -5 0 -8 4 l-3 4 -11 0 c-10 0 -10 0 -10 2 0 5 -3 6 -14
6 -10 0 -10 0 -10 2 0 6 -2 6 -24 6 -19 0 -21 0 -22 -2 -2 -2 -2 -2 0 -4 1 -2
3 -2 24 -2 l22 0 0 -2 c0 -5 3 -6 14 -6 10 0 10 0 10 -2 0 -4 3 -6 8 -6 4 0 5
0 8 -4 3 -4 4 -4 8 -4 4 0 5 0 12 -8 7 -8 8 -8 12 -8 4 0 5 0 18 -14 14 -13
14 -14 14 -18 0 -4 0 -5 8 -12 8 -7 8 -8 8 -12 0 -4 0 -5 4 -8 4 -3 4 -4 4 -8
0 -4 0 -5 4 -8 l4 -3 0 -37 0 -37 -4 -3 -4 -3 0 -9 0 -8 -8 -8 c-8 -7 -8 -8
-8 -12 0 -4 0 -4 -22 -26 l-22 -22 -4 0 c-4 0 -5 0 -8 -4 -3 -4 -4 -4 -8 -4
-4 0 -5 0 -8 -4 -3 -4 -4 -4 -8 -4 -4 0 -5 0 -8 -4 l-3 -4 -9 0 -8 0 -6 -6
c-6 -5 -6 -6 -6 -10 0 -4 0 -5 -4 -8 -4 -3 -4 -4 -4 -8 0 -4 0 -5 -8 -12 -8
-7 -8 -8 -8 -12 0 -4 0 -5 -8 -12 -8 -7 -8 -8 -8 -12 0 -3 -1 -5 -2 -6 -3 -3
-6 0 -6 6 0 4 0 5 -8 12 -8 7 -8 8 -8 12 0 4 0 5 -4 8 -4 3 -4 4 -4 8 0 4 0 5
-4 8 -4 3 -4 4 -4 8 0 4 0 4 -10 14 l-10 10 -8 0 -9 0 -3 4 c-3 4 -4 4 -8 4
-4 0 -5 0 -8 4 -3 4 -4 4 -8 4 -4 0 -5 0 -12 8 -7 8 -8 8 -12 8 -4 0 -4 0 -22
18 -18 18 -18 18 -18 22 0 4 0 5 -4 8 -4 3 -4 4 -4 8 0 4 0 5 -4 8 -4 3 -4 4
-4 8 0 4 0 5 -4 8 l-4 3 0 37 0 37 4 3 4 3 0 9 0 8 12 12 c12 11 12 12 12 16
0 4 1 5 10 14 9 9 10 10 14 10 4 0 5 0 16 12 12 12 12 12 16 12 4 0 5 0 8 4 3
4 4 4 8 4 5 0 8 2 8 6 0 2 0 2 10 2 12 0 14 1 14 6 0 2 0 2 22 2 21 0 23 0 25
2 1 2 1 2 0 4 -3 3 -43 3 -45 0z"/><path d="M200 396 c-3 -4 -4 -4 -8 -4 -5 0 -8 -2 -8 -6 0 -1 -1 -2 -2 -2 -4 0
-6 -3 -6 -8 0 -4 0 -5 4 -8 4 -3 4 -4 4 -8 0 -4 0 -5 -4 -8 -4 -3 -4 -4 -4 -8
0 -6 2 -8 8 -8 3 0 5 -1 7 -2 1 -2 1 -2 -3 -6 l-4 -4 8 -8 c8 -7 8 -8 8 -12 0
-4 0 -5 10 -14 10 -10 10 -10 14 -10 3 0 5 1 7 2 1 2 1 2 -3 6 -4 3 -4 4 -4 8
0 6 -2 8 -8 8 -6 0 -8 2 -8 8 0 4 0 5 -4 8 -4 3 -4 4 -4 8 0 8 0 8 24 8 l21 0
3 4 4 5 4 -5 4 -4 22 0 22 0 0 -8 c0 -7 0 -8 -2 -8 -1 0 -6 -4 -12 -10 l-10
-10 0 -8 c0 -10 -1 -12 -8 -12 -7 0 -8 -2 -8 -12 l0 -8 -6 -6 -6 -6 -6 0 c-6
0 -6 0 -6 2 0 2 1 4 4 6 4 3 4 4 4 8 0 7 -2 8 -12 8 -8 0 -9 0 -11 -2 -1 -2
-1 -2 3 -6 4 -3 4 -4 4 -8 0 -5 2 -8 6 -8 2 0 2 0 2 -6 0 -7 2 -10 6 -10 1 0
2 -1 2 -2 0 -2 1 -4 2 -4 2 -2 2 -2 4 0 1 0 2 2 2 4 0 1 1 2 2 2 4 0 6 3 6 8
0 4 0 5 4 8 4 3 4 4 4 8 0 4 0 5 8 12 8 7 8 8 8 12 0 4 0 5 12 16 l12 12 -4 4
c-6 5 -6 8 2 8 l6 0 6 6 c8 8 8 12 2 18 l-4 4 4 4 c4 3 4 4 4 8 0 4 0 5 -4 8
l-4 4 4 4 4 4 -6 6 -6 6 -4 -4 c-6 -6 -8 -6 -8 2 0 9 -1 10 -12 10 -10 0 -12
-1 -12 -8 0 -3 -1 -5 -2 -7 -2 -1 -2 -1 -6 3 l-4 4 -6 -6 c-3 -3 -6 -7 -6 -8
0 -4 -4 -2 -12 6 -5 5 -8 8 -10 8 -1 0 -2 1 -2 2 0 5 -3 6 -16 6 l-13 0 -3 -4z
m32 -6 c0 -2 -1 -4 -2 -5 -2 -1 -2 -1 -4 1 -2 2 -2 2 -1 4 3 3 7 3 7 0z m-41
-8 c1 -2 1 -2 -1 -4 -2 -2 -2 -2 -4 -1 -1 1 -2 3 -2 5 0 3 4 3 7 0z m113 0 c0
-2 -1 -4 -2 -5 -2 -1 -2 -1 -4 1 -2 2 -2 2 -1 4 3 3 7 3 7 0z m-33 -8 c2 -3
-1 -6 -7 -6 -5 0 -8 2 -8 6 0 2 0 2 6 2 5 0 7 0 9 -2z m-8 -16 c1 -2 1 -2 -1
-4 l-2 -2 -2 2 c-2 2 -2 2 -1 4 1 1 3 2 3 2 0 0 2 -1 3 -2z m48 -16 c1 -2 1
-2 0 -4 -3 -3 -7 -3 -7 0 0 2 3 6 4 6 0 0 2 -1 3 -2z m-57 -104 c1 -1 2 -2 2
-4 0 -2 0 -2 -4 -2 -5 0 -6 3 -2 6 2 2 2 2 4 0z"/><path d="M249 142 c-1 -2 -1 -2 1 -4 l2 -2 2 2 c2 2 2 2 1 4 -1 1 -3 2 -3 2 0
0 -2 -1 -3 -2z"/></g>
  <g transform="scale(0.125 0.125) translate(0.000000,512.000000) scale(1.000000,-1.000000)" fill="#7b5569" stroke="none"><path d="M202 478 c-1 -1 -2 -3 -2 -4 0 -1 -1 -2 -2 -2 -2 0 -4 -1 -5 -2 -1
-2 -1 -2 1 -4 2 -2 2 -2 4 -1 1 1 2 3 2 5 0 2 0 2 10 2 9 0 11 0 13 2 1 2 1 2
0 4 -3 3 -19 3 -21 0z"/><path d="M234 478 c-3 -3 0 -6 6 -6 3 0 5 1 7 2 2 3 -1 6 -7 6 -3 0 -5 -1 -6
-2z"/><path d="M258 478 c-3 -3 0 -6 6 -6 6 0 9 3 7 6 -2 1 -4 2 -7 2 -3 0 -5 -1 -6
-2z"/><path d="M282 478 c-2 -2 -2 -2 0 -4 1 -2 3 -2 12 -2 10 0 10 0 10 -2 0 -2 1
-4 2 -5 2 -1 2 -1 4 1 2 2 2 2 1 4 -1 1 -3 2 -5 2 -1 0 -2 1 -2 2 0 5 -3 6
-12 6 -7 0 -9 0 -10 -2z"/><path d="M178 470 c-1 -1 -2 -3 -2 -4 0 -1 -1 -2 -2 -2 -2 0 -4 -1 -5 -2 -1
-2 -1 -2 1 -4 2 -2 2 -2 4 -1 1 1 2 3 2 5 0 1 1 2 2 2 2 0 4 1 5 2 1 2 1 2 0
4 -3 2 -3 2 -5 0z"/><path d="M322 470 c-2 -2 -2 -2 0 -4 0 -1 2 -2 4 -2 1 0 2 -1 2 -2 0 -2 1 -4
2 -5 2 -1 2 -1 4 1 2 2 2 2 1 4 -1 1 -3 2 -5 2 -1 0 -2 1 -2 2 0 2 -3 6 -4 6
0 0 -2 -1 -2 -2z"/><path d="M154 462 c-3 -3 -3 -10 0 -12 3 -3 6 0 6 6 0 7 -3 10 -6 6z"/><path d="M346 462 c-3 -3 -3 -10 0 -12 3 -3 6 0 6 6 0 7 -3 10 -6 6z"/><path d="M134 450 c-6 -6 -6 -6 -6 -12 l0 -6 -4 0 c-4 0 -4 0 -4 2 0 2 -1 4
-2 5 -2 1 -2 1 -4 0 -1 -1 -2 -3 -2 -5 0 -1 -1 -2 -2 -2 -3 0 -6 -3 -6 -6 0
-1 -1 -2 -2 -2 -3 0 -6 -3 -6 -6 0 -1 -1 -2 -2 -2 -3 0 -6 -3 -6 -6 0 -1 -1
-2 -2 -2 -4 0 -6 -3 -6 -8 0 -4 0 -5 -4 -8 -3 -2 -4 -4 -4 -6 0 -1 -1 -2 -2
-2 -4 0 -6 -3 -6 -10 0 -6 0 -6 -2 -6 -5 0 -6 -2 -6 -18 l0 -14 -2 0 c-6 0 -6
-2 -6 -28 0 -27 0 -28 6 -28 2 0 2 0 2 -10 0 -12 1 -14 6 -14 2 0 2 0 2 -6 0
-7 0 -7 4 -10 4 -3 4 -4 4 -8 0 -5 2 -8 6 -8 1 0 2 -1 2 -2 0 -1 2 -5 6 -8 l6
-6 6 0 6 0 0 -6 0 -6 10 -10 c6 -6 11 -10 12 -10 1 0 2 -1 2 -2 0 -4 3 -6 8
-6 4 0 5 0 8 -4 l4 -4 4 4 c2 2 4 4 6 4 2 0 2 0 2 -10 0 -9 0 -11 2 -12 3 -3
6 0 6 6 0 4 0 5 4 8 4 4 4 4 3 6 -2 2 -3 2 -9 2 -6 0 -6 0 -6 2 0 4 -3 6 -8 6
-4 0 -5 0 -8 4 -2 3 -4 4 -6 4 -1 0 -2 1 -2 2 0 4 -3 6 -8 6 -4 0 -5 0 -12 8
-5 5 -8 8 -10 8 -1 0 -2 1 -2 2 0 1 -2 5 -6 8 l-6 6 -6 0 c-8 0 -8 3 -2 8 l5
4 -5 4 c-4 3 -4 4 -4 8 0 6 -2 8 -10 8 -8 0 -8 3 -2 8 l4 4 -6 6 c-3 3 -7 6
-8 6 -2 0 -2 1 -2 6 0 7 0 7 4 10 l4 3 0 9 0 9 -4 3 c-4 3 -4 3 -4 10 0 6 0 6
2 6 4 0 6 3 6 8 0 4 0 5 4 8 l5 4 -5 4 c-5 4 -6 8 -2 8 4 0 6 3 6 10 l0 6 6 0
6 0 6 6 6 6 -4 4 c-5 4 -6 8 -2 8 3 0 6 3 6 6 0 1 1 2 2 2 3 0 6 3 6 6 0 1 1
2 2 2 3 0 6 3 6 6 0 2 1 2 4 2 4 0 4 0 4 -2 0 -2 1 -4 2 -4 2 -2 2 -2 4 0 1 0
2 2 2 4 0 1 1 2 2 2 1 0 5 2 8 6 6 5 6 6 6 10 0 3 -1 5 -2 6 -2 2 -2 3 -8 -4z
m2 -268 c0 -3 -3 -6 -6 -6 -3 0 -3 3 0 6 2 3 6 3 6 0z"/><path d="M362 454 c-4 -4 -3 -10 4 -16 6 -6 6 -6 8 -4 1 1 2 3 2 6 0 4 0 5 -6
10 -7 7 -6 7 -8 4z"/><path d="M386 438 c-2 -2 -2 -2 0 -4 0 -1 2 -2 4 -2 1 0 2 -1 2 -2 0 -3 3 -6
6 -6 1 0 2 -1 2 -2 0 -3 3 -6 6 -6 1 0 2 -1 2 -2 0 -3 3 -6 6 -6 4 0 3 -4 -2
-8 l-4 -4 6 -6 6 -6 6 0 c8 0 8 -3 2 -8 -4 -4 -4 -4 -3 -6 2 -2 3 -2 9 -2 8 0
8 -2 2 -8 l-4 -4 4 -4 c4 -3 4 -4 4 -8 0 -5 2 -8 6 -8 2 0 2 0 2 -6 0 -7 0 -7
-4 -10 l-4 -3 0 -9 0 -8 6 -6 c5 -6 6 -6 10 -6 8 0 8 1 8 20 l0 16 -6 6 c-3 4
-7 6 -8 6 -2 0 -2 0 -2 14 0 16 -1 18 -6 18 -2 0 -2 0 -2 6 0 7 -2 10 -6 10
-1 0 -2 1 -2 2 0 2 -1 4 -4 6 -4 3 -4 4 -4 8 0 5 -2 8 -6 8 -1 0 -2 1 -2 2 0
3 -3 6 -6 6 -1 0 -2 1 -2 2 0 3 -3 6 -6 6 -1 0 -2 1 -2 2 0 3 -3 6 -6 6 -1 0
-2 1 -2 2 0 2 -3 6 -4 6 0 0 -2 -1 -2 -2z"/><path d="M200 396 c-3 -4 -4 -4 -8 -4 -5 0 -8 -2 -8 -6 0 -1 -1 -2 -2 -2 -4 0
-6 -3 -6 -8 0 -4 0 -5 4 -8 4 -3 4 -4 4 -8 0 -4 0 -5 -4 -8 l-4 -4 8 -8 8 -8
0 -8 0 -9 4 -3 c4 -3 4 -4 4 -8 0 -6 2 -8 8 -8 6 0 8 -2 8 -8 0 -6 2 -8 8 -8
3 0 5 1 7 2 1 2 1 2 -3 6 -4 3 -4 4 -4 8 0 6 -2 8 -8 8 -6 0 -8 2 -8 8 0 4 0
5 -4 8 -4 3 -4 4 -4 8 0 8 0 8 24 8 l21 0 3 4 4 5 4 -5 4 -4 22 0 22 0 0 -8
c0 -7 0 -8 -2 -8 -1 0 -6 -4 -12 -10 l-10 -10 0 -8 c0 -10 -1 -12 -8 -12 -7 0
-8 -2 -8 -12 l0 -8 -8 -8 c-5 -5 -8 -8 -8 -10 0 -1 -1 -2 -2 -2 -2 0 -4 -1 -5
-2 -1 -2 -1 -2 1 -4 2 -2 2 -2 4 -1 1 1 2 3 2 5 0 4 4 3 8 -2 4 -4 4 -4 6 -3
1 2 2 4 2 7 0 4 0 5 4 8 l4 3 0 9 c0 10 1 12 8 12 6 0 8 2 8 8 0 4 0 5 4 8 4
3 4 4 4 8 0 6 2 8 8 8 3 0 5 1 7 2 1 2 1 2 -3 6 -6 5 -6 8 2 8 l6 0 6 6 c8 8
8 12 2 18 l-4 4 4 4 c4 3 4 4 4 8 0 4 0 5 -4 8 l-4 4 4 4 4 4 -6 6 -6 6 -4 -4
c-6 -6 -8 -6 -8 2 0 9 -1 10 -12 10 -10 0 -12 -1 -12 -8 0 -3 -1 -5 -2 -7 -2
-1 -2 -1 -6 3 -4 4 -4 4 -6 3 -4 -4 -3 -11 2 -15 4 -4 4 -4 3 -6 -2 -1 -4 -2
-7 -2 -4 0 -5 0 -8 4 -3 4 -4 4 -8 4 -4 0 -5 0 -8 4 -3 4 -4 4 -8 4 -3 0 -5 1
-7 2 -1 2 -1 2 3 6 4 4 4 4 3 6 -2 2 -3 2 -15 2 l-13 0 -3 -4z m-9 -14 c1 -2
1 -2 -1 -4 -2 -2 -2 -2 -4 -1 -1 1 -2 3 -2 5 0 3 4 3 7 0z m113 0 c0 -2 -1 -4
-2 -5 -2 -1 -2 -1 -4 1 -2 2 -2 2 -1 4 3 3 7 3 7 0z m-41 -24 c1 -2 1 -2 -1
-4 l-2 -2 -2 2 c-2 2 -2 2 -1 4 1 1 3 2 3 2 0 0 2 -1 3 -2z m48 -16 c1 -2 1
-2 0 -4 -3 -3 -7 -3 -7 0 0 2 3 6 4 6 0 0 2 -1 3 -2z"/><path d="M438 274 l-6 -6 4 -4 c4 -4 6 -8 2 -8 -1 0 -6 -4 -12 -10 l-10 -10 4
-4 c6 -5 6 -8 -2 -8 l-6 0 -10 -10 c-6 -6 -10 -11 -10 -12 0 -1 -1 -2 -2 -2
-1 0 -5 -2 -8 -6 l-6 -6 0 -6 0 -6 -4 0 c-4 0 -4 0 -4 2 0 2 -1 4 -2 5 -2 1
-2 1 -4 0 -1 -1 -2 -3 -2 -5 0 -2 0 -2 -6 -2 -7 0 -10 -2 -10 -6 0 -2 0 -2 -6
-2 -6 0 -7 0 -9 -2 -1 -2 -1 -2 3 -6 4 -3 4 -4 4 -8 0 -6 3 -9 6 -6 2 1 2 3 2
12 0 10 0 10 2 10 4 0 6 -3 6 -8 0 -6 3 -9 6 -6 2 1 2 3 2 12 l0 10 4 0 c4 0
4 0 4 -2 0 -2 1 -4 2 -5 2 -1 2 -1 4 1 1 0 2 2 2 4 0 1 1 2 2 2 1 0 5 2 8 6
l6 6 0 6 c0 8 3 8 8 2 4 -4 4 -4 6 -3 1 2 2 4 2 7 0 4 0 5 8 12 5 5 8 8 8 10
0 1 1 2 2 2 4 0 6 3 6 8 0 4 0 5 4 8 4 3 4 3 4 10 0 6 0 6 2 6 5 0 6 3 6 12 0
7 0 9 -2 10 -2 2 -2 3 -8 -4z"/><path d="M225 270 c-1 -2 -1 -2 3 -6 4 -3 4 -4 4 -8 0 -3 1 -5 2 -6 2 -2 2 -2
8 4 6 5 6 6 6 10 0 7 -2 8 -12 8 -8 0 -9 0 -11 -2z"/><path d="M186 158 c-2 -1 -2 -4 -2 -10 l0 -8 8 -8 c8 -7 8 -8 8 -12 0 -4 0 -5
8 -12 8 -7 8 -8 8 -12 0 -4 0 -5 4 -8 4 -3 4 -4 4 -8 0 -4 0 -5 4 -8 4 -3 4
-4 4 -8 0 -4 0 -5 8 -12 8 -7 8 -8 8 -12 0 -3 1 -5 2 -6 2 -2 2 -2 8 4 6 5 6
6 6 10 0 4 0 5 4 8 4 3 4 4 4 8 0 4 0 5 8 12 8 7 8 8 8 12 0 4 0 5 4 8 4 3 4
4 4 8 0 4 0 5 4 8 4 3 4 4 4 8 0 4 0 5 8 12 l8 8 0 8 c0 10 -1 12 -8 12 -5 0
-8 -2 -8 -6 0 -1 -1 -2 -2 -2 -4 0 -6 -3 -6 -8 0 -4 0 -5 -4 -8 l-4 -4 4 -4
c4 -4 4 -4 3 -6 -2 -1 -4 -2 -7 -2 -4 0 -5 0 -10 -6 -6 -5 -6 -6 -6 -10 0 -4
0 -5 -4 -8 -3 -2 -4 -4 -4 -6 0 -1 -1 -2 -2 -2 -4 0 -6 -3 -6 -8 0 -6 -2 -8
-8 -8 -3 0 -5 1 -7 2 -1 2 -1 2 3 6 l4 4 -6 6 c-5 6 -6 6 -10 6 -3 0 -5 1 -7
2 -1 2 -1 2 3 6 4 4 4 4 3 6 -2 1 -4 2 -7 2 -3 0 -5 1 -7 2 -1 2 -1 2 3 6 l5
4 -5 4 c-4 3 -4 4 -4 8 0 7 -2 8 -12 8 -8 0 -9 0 -11 2 -1 2 -1 2 3 6 4 4 4 4
3 6 -3 3 -11 3 -13 0z m125 -8 c1 -2 1 -2 -1 -4 -2 -2 -2 -2 -4 -1 -3 3 -3 7
0 7 2 0 4 -1 5 -2z m-40 -64 c1 -2 1 -2 -1 -4 -2 -2 -2 -2 -4 -1 -1 1 -2 3 -2
5 0 3 4 3 7 0z"/><path d="M249 142 c-1 -2 -1 -2 1 -4 l2 -2 2 2 c2 2 2 2 1 4 -1 1 -3 2 -3 2 0
0 -2 -1 -3 -2z"/></g>
  <g transform="scale(0.125 0.125) translate(0.000000,512.000000) scale(1.000000,-1.000000)" fill="#000000" stroke="none"><path d="M210 478 c-3 -3 0 -6 6 -6 3 0 5 1 7 2 2 3 -1 6 -7 6 -3 0 -5 -1 -6
-2z"/><path d="M234 478 c-3 -3 0 -6 6 -6 3 0 5 1 7 2 2 3 -1 6 -7 6 -3 0 -5 -1 -6
-2z"/><path d="M258 478 c-3 -3 0 -6 6 -6 6 0 9 3 7 6 -2 1 -4 2 -7 2 -3 0 -5 -1 -6
-2z"/><path d="M282 478 c-3 -3 0 -6 6 -6 6 0 9 3 7 6 -2 1 -4 2 -7 2 -3 0 -5 -1 -6
-2z"/><path d="M178 470 c-1 -1 -2 -3 -2 -4 0 -1 -1 -2 -2 -2 -2 0 -4 -1 -5 -2 -1
-2 -1 -2 1 -4 2 -2 2 -2 4 -1 1 1 2 3 2 5 0 1 1 2 2 2 2 0 4 1 5 2 1 2 1 2 0
4 -3 2 -3 2 -5 0z"/><path d="M193 470 c-1 -2 -1 -2 1 -4 l2 -2 2 2 c2 2 2 2 1 4 -1 1 -3 2 -3 2 0
0 -2 -1 -3 -2z"/><path d="M305 470 c-1 -2 -1 -2 1 -4 l2 -2 2 2 c2 2 2 2 1 4 -1 1 -3 2 -3 2 0
0 -2 -1 -3 -2z"/><path d="M322 470 c-2 -2 -2 -2 0 -4 0 -1 2 -2 4 -2 1 0 2 -1 2 -2 0 -2 1 -4
2 -5 2 -1 2 -1 4 1 2 2 2 2 1 4 -1 1 -3 2 -5 2 -1 0 -2 1 -2 2 0 2 -3 6 -4 6
0 0 -2 -1 -2 -2z"/><path d="M153 454 c-1 -2 -1 -2 1 -4 l2 -2 2 2 c2 2 2 2 1 4 -1 1 -3 2 -3 2 0
0 -2 -1 -3 -2z"/><path d="M345 454 c-1 -2 -1 -2 1 -4 l2 -2 2 2 c2 2 2 2 1 4 -1 1 -3 2 -3 2 0
0 -2 -1 -3 -2z"/><path d="M130 446 c-2 -1 -2 -3 -2 -8 0 -6 0 -6 -2 -6 -2 0 -4 -1 -5 -2 -1 -2
-1 -2 1 -4 2 -2 2 -2 4 -1 1 1 2 3 2 5 0 1 1 2 2 2 1 0 5 3 8 6 6 6 6 6 4 8
-2 3 -10 3 -12 0z"/><path d="M362 446 c-2 -2 -2 -2 4 -8 6 -6 6 -6 8 -4 3 2 3 10 0 12 -2 3 -10 3
-12 0z"/><path d="M393 430 c-1 -2 -1 -2 1 -4 l2 -2 2 2 c2 2 2 2 1 4 -1 1 -3 2 -3 2 0
0 -2 -1 -3 -2z"/><path d="M78 394 c-6 -6 -6 -6 -4 -8 1 -1 3 -2 6 -2 4 0 5 0 10 6 6 6 6 6 4 8
-1 1 -3 2 -6 2 -4 0 -5 -1 -10 -6z"/><path d="M202 398 c-1 -1 -2 -3 -2 -6 0 -5 -2 -8 -6 -8 -1 0 -2 1 -2 2 0 2 -1
4 -2 5 -2 1 -2 1 -4 0 -1 -1 -2 -3 -2 -5 0 -1 -1 -2 -2 -2 -4 0 -6 -3 -6 -8 0
-4 0 -5 4 -8 l4 -3 0 -13 0 -13 4 -3 c4 -3 4 -4 4 -8 0 -5 2 -8 6 -8 2 0 2 0
2 -10 0 -13 1 -14 8 -14 6 0 8 -2 8 -8 0 -6 2 -8 8 -8 3 0 5 1 7 2 1 2 1 2 -3
6 -4 3 -4 4 -4 8 0 6 -2 8 -8 8 -6 0 -8 2 -8 8 0 5 -2 8 -6 8 -2 0 -2 0 -2 6
0 10 0 10 24 10 l21 0 3 4 4 5 4 -5 4 -4 22 0 22 0 0 -8 c0 -7 0 -8 -2 -8 -1
0 -5 -2 -8 -6 -5 -5 -6 -6 -6 -10 0 -4 0 -5 -4 -8 -4 -4 -4 -4 -3 -6 2 -1 4
-2 7 -2 6 0 8 2 8 8 0 6 2 8 8 8 3 0 5 1 7 2 1 2 1 2 -3 6 -6 5 -6 8 2 8 l6 0
6 6 c8 8 8 12 2 18 l-4 4 4 4 c4 3 4 4 4 8 0 4 0 5 -4 8 l-4 4 4 4 4 4 -6 6
-6 6 -4 -4 c-6 -6 -8 -6 -8 2 0 9 -1 10 -12 10 -10 0 -12 -1 -12 -8 0 -3 -1
-5 -2 -7 -2 -1 -2 -1 -6 3 -4 4 -4 4 -6 3 -4 -4 -3 -11 2 -15 4 -4 4 -4 3 -6
-3 -3 -15 -3 -15 0 0 4 -3 6 -8 6 -4 0 -5 0 -8 4 -3 4 -4 4 -8 4 -3 0 -5 1 -7
2 -1 2 -1 2 3 6 4 4 4 4 3 6 -3 3 -27 3 -29 0z m-10 -16 c0 -2 -1 -4 -2 -4 -2
-2 -2 -2 -4 0 -4 3 -3 6 2 6 4 0 4 0 4 -2z m112 0 c0 -2 -1 -4 -2 -5 -2 -1 -2
-1 -4 1 -2 2 -2 2 -1 4 3 3 7 3 7 0z m-48 -18 c0 -4 0 -4 2 -4 2 0 4 -1 5 -2
1 -2 1 -2 -1 -4 -2 -2 -2 -2 -4 -1 -1 1 -2 3 -2 5 0 1 -1 2 -2 2 -2 0 -4 1 -4
2 -2 2 -2 2 0 4 3 4 6 3 6 -2z m55 -22 c1 -2 1 -2 0 -4 -3 -3 -7 -3 -7 0 0 2
3 6 4 6 0 0 2 -1 3 -2z"/><path d="M410 398 c-2 -2 -2 -2 4 -8 5 -6 6 -6 10 -6 3 0 5 1 6 2 2 2 2 2 -4
8 -5 6 -6 6 -10 6 -3 0 -5 -1 -6 -2z"/><path d="M65 374 c-1 -2 -1 -2 1 -4 l2 -2 2 2 c2 2 2 2 1 4 -1 1 -3 2 -3 2 0
0 -2 -1 -3 -2z"/><path d="M426 374 c-3 -3 0 -6 6 -6 6 0 9 3 7 6 -2 1 -4 2 -7 2 -3 0 -5 -1 -6
-2z"/><path d="M66 358 c-1 -1 -2 -3 -2 -4 0 -1 -1 -2 -2 -2 -6 0 -8 -10 -4 -14 3
-4 6 0 6 8 0 6 0 6 2 6 2 0 4 1 5 2 1 2 1 2 0 4 -3 2 -3 2 -5 0z"/><path d="M433 358 c-1 -2 -1 -2 3 -6 4 -3 4 -4 4 -8 0 -6 3 -9 6 -6 3 2 3 18
0 20 -3 3 -10 3 -13 0z"/><path d="M458 326 c-1 -1 -2 -3 -2 -6 0 -3 -1 -5 -2 -7 -2 -1 -2 -1 -6 3 -4 4
-4 4 -6 3 -2 -2 -2 -3 -2 -11 0 -8 0 -9 2 -11 2 -1 2 -1 6 3 4 4 4 4 6 3 1 -2
2 -4 2 -7 0 -6 3 -9 6 -6 3 2 3 34 0 36 -2 2 -2 2 -4 0z"/><path d="M58 318 c-3 -3 -3 -18 0 -20 2 -2 2 -2 4 0 3 2 3 18 0 20 -2 2 -2 2
-4 0z"/><path d="M58 278 c-3 -2 -3 -10 0 -12 2 -3 10 -3 12 0 2 2 2 2 -4 8 -7 7 -6 7
-8 4z"/><path d="M266 278 c-3 -3 -3 -10 0 -13 2 -1 2 -1 6 3 3 4 4 4 8 4 6 0 9 3 7 6
-3 3 -19 3 -21 0z"/><path d="M438 274 c-6 -6 -6 -6 -4 -8 2 -3 10 -3 12 0 3 2 3 10 0 12 -2 2 -2
3 -8 -4z"/><path d="M225 270 c-1 -2 -1 -2 3 -6 4 -3 4 -4 4 -8 0 -3 1 -5 2 -6 2 -2 2 -2
8 4 l6 6 -6 6 c-5 6 -6 6 -10 6 -3 0 -5 -1 -7 -2z"/><path d="M65 254 c-1 -2 -1 -2 3 -6 4 -3 4 -4 4 -8 0 -6 2 -8 8 -8 3 0 5 1 7
2 1 2 1 2 -3 6 -4 3 -4 4 -4 8 0 6 -2 8 -8 8 -3 0 -5 -1 -7 -2z"/><path d="M254 250 c-4 -3 -6 -7 -6 -8 0 -1 -1 -2 -2 -2 -2 0 -4 -1 -5 -2 -1
-2 -1 -2 1 -4 2 -2 2 -2 4 -1 1 1 2 3 2 5 0 4 4 3 8 -2 4 -4 4 -4 6 -3 1 2 2
3 2 7 0 4 0 5 4 8 4 4 4 4 3 6 -2 1 -3 2 -7 2 -4 0 -5 -1 -10 -6z"/><path d="M434 254 c-1 -1 -2 -3 -2 -4 0 -1 -1 -2 -2 -2 -1 0 -5 -3 -8 -6 -6
-6 -6 -6 -4 -8 1 -1 3 -2 6 -2 6 0 8 2 8 10 0 6 0 6 2 6 2 0 4 1 5 2 1 2 1 2
0 4 -3 2 -3 2 -5 0z"/><path d="M82 222 c-2 -2 -2 -2 4 -8 l6 -6 6 0 6 0 0 -6 0 -6 10 -10 10 -10 4
4 c5 6 8 6 8 -2 l0 -6 6 -6 6 -6 4 4 c4 5 8 6 8 2 0 -6 10 -8 15 -4 3 3 -1 6
-9 6 -6 0 -6 0 -6 2 0 4 -3 6 -8 6 -4 0 -5 0 -8 4 -2 3 -4 4 -6 4 -1 0 -2 1
-2 2 0 4 -3 6 -8 6 -4 0 -5 0 -12 8 -5 5 -8 8 -10 8 -1 0 -2 1 -2 2 0 1 -2 5
-6 8 -5 6 -6 6 -10 6 -3 0 -5 -1 -6 -2z"/><path d="M402 214 c-6 -6 -10 -11 -10 -12 0 -1 -1 -2 -2 -2 -1 0 -5 -2 -8 -6
-6 -5 -6 -6 -6 -10 0 -3 1 -5 2 -6 2 -2 2 -2 8 4 l6 6 0 6 0 6 6 0 6 0 10 10
c10 10 10 10 8 12 -1 1 -3 2 -6 2 -4 0 -5 0 -14 -10z"/><path d="M362 182 c-1 -1 -2 -3 -2 -4 0 -2 0 -2 -6 -2 -7 0 -10 -2 -10 -6 0
-2 0 -2 -6 -2 -8 0 -12 -3 -8 -6 4 -5 14 -2 14 4 0 1 1 2 2 2 4 0 6 -3 6 -8 0
-6 3 -9 6 -6 2 1 2 3 2 12 0 10 0 10 2 10 2 0 4 1 5 2 1 2 1 2 0 4 -3 2 -3 2
-5 0z"/><path d="M186 158 c-2 -1 -2 -4 -2 -10 l0 -8 8 -8 c8 -7 8 -8 8 -12 0 -4 1 -5
6 -10 3 -4 7 -6 8 -6 2 0 2 -1 2 -6 0 -7 2 -10 6 -10 2 0 2 0 2 -6 0 -7 0 -7
4 -10 4 -3 4 -4 4 -8 0 -4 0 -5 8 -12 8 -7 8 -8 8 -12 0 -3 1 -5 2 -6 2 -2 2
-2 8 4 l6 6 0 6 c0 6 0 6 2 6 4 0 6 3 6 10 0 5 0 6 2 6 1 0 5 2 8 6 l6 6 0 6
c0 6 0 6 2 6 4 0 6 3 6 10 0 6 0 6 2 6 4 0 6 3 6 8 0 4 0 5 8 12 l8 8 0 8 c0
10 -1 12 -8 12 -5 0 -8 -2 -8 -6 0 -1 -1 -2 -2 -2 -4 0 -6 -3 -6 -8 0 -4 0 -5
-4 -8 l-4 -4 4 -4 c4 -3 4 -4 4 -10 0 -8 -2 -8 -8 -2 l-4 4 -6 -6 c-6 -5 -6
-6 -6 -10 0 -4 0 -5 -4 -8 -3 -2 -4 -4 -4 -6 0 -1 -1 -2 -2 -2 -4 0 -6 -3 -6
-8 0 -4 0 -5 -4 -8 -3 -2 -4 -4 -4 -6 0 -1 -1 -2 -2 -2 -4 0 -6 3 -6 8 0 4 0
5 4 8 l4 4 -6 6 -6 6 -4 -4 c-6 -7 -8 -6 -8 4 0 8 0 8 2 8 2 0 4 1 5 2 1 2 1
2 -1 4 -2 2 -2 2 -4 1 -1 -1 -2 -3 -2 -5 0 -2 0 -2 -4 -2 l-4 0 0 8 c0 8 0 8
2 8 2 0 4 1 5 2 1 2 1 2 0 4 -1 1 -3 2 -5 2 -2 0 -2 0 -2 6 0 6 0 7 -2 9 -2 1
-2 1 -6 -3 l-4 -4 -6 6 -6 6 4 4 c4 4 4 4 3 6 -3 3 -11 3 -13 0z m125 -8 c1
-2 1 -2 -1 -4 -2 -2 -2 -2 -4 -1 -3 3 -3 7 0 7 2 0 4 -1 5 -2z m-95 -26 c0 -5
-3 -6 -6 -2 -2 2 -2 2 0 4 3 4 6 3 6 -2z m70 -22 c1 -1 2 -2 2 -4 0 -3 -4 -3
-6 0 -2 2 -2 2 0 4 2 2 2 2 4 0z m-16 -16 c3 -2 3 -14 0 -14 -4 0 -6 3 -6 10
0 7 2 8 6 4z m-8 -24 c1 -1 2 -2 2 -4 0 -2 0 -2 -6 -2 -7 0 -10 2 -10 6 0 2 0
2 6 2 5 0 7 0 8 -2z"/><path d="M161 150 c-1 -2 -1 -2 1 -4 l2 -2 2 2 c2 2 2 2 1 4 -1 1 -3 2 -3 2 0
0 -2 -1 -3 -2z"/><path d="M337 150 c-1 -2 -1 -2 1 -4 l2 -2 2 2 c2 2 2 2 1 4 -1 1 -3 2 -3 2 0
0 -2 -1 -3 -2z"/><path d="M249 142 c-1 -2 -1 -2 1 -4 l2 -2 2 2 c2 2 2 2 1 4 -1 1 -3 2 -3 2 0
0 -2 -1 -3 -2z"/></g>
  <g transform="scale(0.125 0.125) translate(0.000000,512.000000) scale(1.000000,-1.000000)" fill="#ff1088" stroke="none"><path d="M210 478 c-3 -3 0 -6 6 -6 3 0 5 1 7 2 2 3 -1 6 -7 6 -3 0 -5 -1 -6
-2z"/><path d="M234 478 c-3 -3 0 -6 6 -6 3 0 5 1 7 2 2 3 -1 6 -7 6 -3 0 -5 -1 -6
-2z"/><path d="M258 478 c-3 -3 0 -6 6 -6 6 0 9 3 7 6 -2 1 -4 2 -7 2 -3 0 -5 -1 -6
-2z"/><path d="M282 478 c-3 -3 0 -6 6 -6 6 0 9 3 7 6 -2 1 -4 2 -7 2 -3 0 -5 -1 -6
-2z"/><path d="M178 470 c-1 -1 -2 -3 -2 -4 0 -1 -1 -2 -2 -2 -2 0 -4 -1 -5 -2 -1
-2 -1 -2 1 -4 2 -2 2 -2 4 -1 1 1 2 3 2 5 0 1 1 2 2 2 2 0 4 1 5 2 1 2 1 2 0
4 -3 2 -3 2 -5 0z"/><path d="M193 470 c-1 -2 -1 -2 1 -4 l2 -2 2 2 c2 2 2 2 1 4 -1 1 -3 2 -3 2 0
0 -2 -1 -3 -2z"/><path d="M305 470 c-1 -2 -1 -2 1 -4 l2 -2 2 2 c2 2 2 2 1 4 -1 1 -3 2 -3 2 0
0 -2 -1 -3 -2z"/><path d="M322 470 c-2 -2 -2 -2 0 -4 0 -1 2 -2 4 -2 1 0 2 -1 2 -2 0 -2 1 -4
2 -5 2 -1 2 -1 4 1 2 2 2 2 1 4 -1 1 -3 2 -5 2 -1 0 -2 1 -2 2 0 2 -3 6 -4 6
0 0 -2 -1 -2 -2z"/><path d="M153 454 c-1 -2 -1 -2 1 -4 l2 -2 2 2 c2 2 2 2 1 4 -1 1 -3 2 -3 2 0
0 -2 -1 -3 -2z"/><path d="M345 454 c-1 -2 -1 -2 1 -4 l2 -2 2 2 c2 2 2 2 1 4 -1 1 -3 2 -3 2 0
0 -2 -1 -3 -2z"/><path d="M130 446 c-2 -1 -2 -3 -2 -8 0 -6 0 -6 -2 -6 -2 0 -4 -1 -5 -2 -1 -2
-1 -2 1 -4 2 -2 2 -2 4 -1 1 1 2 3 2 5 0 1 1 2 2 2 1 0 5 3 8 6 6 6 6 6 4 8
-2 3 -10 3 -12 0z"/><path d="M362 446 c-2 -2 -2 -2 4 -8 6 -6 6 -6 8 -4 3 2 3 10 0 12 -2 3 -10 3
-12 0z"/><path d="M393 430 c-1 -2 -1 -2 1 -4 l2 -2 2 2 c2 2 2 2 1 4 -1 1 -3 2 -3 2 0
0 -2 -1 -3 -2z"/><path d="M78 394 c-6 -6 -6 -6 -4 -8 1 -1 3 -2 6 -2 4 0 5 0 10 6 6 6 6 6 4 8
-1 1 -3 2 -6 2 -4 0 -5 -1 -10 -6z"/><path d="M202 398 c-2 -2 -2 -2 0 -4 1 -2 3 -2 14 -2 11 0 13 0 15 2 1 2 1 2
0 4 -2 2 -4 2 -15 2 -11 0 -13 0 -14 -2z"/><path d="M282 398 c-2 -2 -2 -2 0 -4 1 -2 3 -2 10 -2 7 0 9 0 11 2 1 2 1 2 0
4 -2 2 -4 2 -11 2 -7 0 -9 0 -10 -2z"/><path d="M410 398 c-2 -2 -2 -2 4 -8 5 -6 6 -6 10 -6 3 0 5 1 6 2 2 2 2 2 -4
8 -5 6 -6 6 -10 6 -3 0 -5 -1 -6 -2z"/><path d="M186 390 c-1 -1 -2 -3 -2 -4 0 -1 -1 -2 -2 -2 -6 0 -8 -10 -4 -14 3
-4 6 0 6 8 0 6 0 6 2 6 2 0 4 1 5 2 1 2 1 2 0 4 -3 2 -3 2 -5 0z"/><path d="M266 390 c-1 -1 -2 -3 -2 -6 0 -4 0 -5 4 -8 l5 -4 -5 -4 c-4 -3 -4
-4 -4 -8 0 -6 -2 -8 -8 -8 -6 0 -8 2 -8 8 0 4 0 5 4 8 4 4 4 4 3 6 -2 2 -3 2
-11 2 l-9 0 -3 4 -3 4 -13 0 -12 0 -6 -6 c-5 -5 -6 -6 -6 -10 0 -4 0 -5 -4 -8
l-4 -4 4 -4 4 -3 0 -9 c0 -8 0 -9 2 -11 2 -1 2 -1 6 3 l4 4 20 0 21 0 3 4 4 5
4 -5 4 -4 22 0 22 0 0 -2 c0 -3 3 -6 6 -6 1 0 2 -1 2 -2 0 -2 1 -4 2 -4 2 -2
2 -2 4 0 1 0 2 2 2 4 0 1 1 2 2 2 4 0 6 3 6 8 0 5 -2 8 -6 8 -2 0 -2 1 -2 6 0
6 0 7 4 10 4 4 4 4 3 6 -2 1 -4 2 -7 2 -4 0 -5 0 -8 4 -3 4 -4 4 -8 4 -4 0 -5
0 -8 4 l-3 4 -9 0 -9 0 -3 4 c-4 5 -4 5 -6 2z m54 -54 l0 -8 -4 0 c-3 0 -4 0
-4 2 0 3 -3 6 -6 6 -1 0 -2 1 -2 2 0 4 3 6 10 6 l6 0 0 -8z"/><path d="M314 390 c-2 -2 -2 -2 0 -4 0 -1 2 -2 4 -2 1 0 2 -1 2 -2 0 -2 1 -4
2 -5 2 -1 2 -1 4 1 2 2 2 2 1 4 -1 1 -3 2 -5 2 -1 0 -2 1 -2 2 0 2 -3 6 -4 6
0 0 -2 -1 -2 -2z"/><path d="M65 374 c-1 -2 -1 -2 1 -4 l2 -2 2 2 c2 2 2 2 1 4 -1 1 -3 2 -3 2 0
0 -2 -1 -3 -2z"/><path d="M426 374 c-3 -3 0 -6 6 -6 6 0 9 3 7 6 -2 1 -4 2 -7 2 -3 0 -5 -1 -6
-2z"/><path d="M66 358 c-1 -1 -2 -3 -2 -4 0 -1 -1 -2 -2 -2 -6 0 -8 -10 -4 -14 3
-4 6 0 6 8 0 6 0 6 2 6 2 0 4 1 5 2 1 2 1 2 0 4 -3 2 -3 2 -5 0z"/><path d="M433 358 c-1 -2 -1 -2 3 -6 4 -3 4 -4 4 -8 0 -6 3 -9 6 -6 3 2 3 18
0 20 -3 3 -10 3 -13 0z"/><path d="M58 318 c-3 -3 -3 -18 0 -20 2 -2 2 -2 4 0 3 2 3 18 0 20 -2 2 -2 2
-4 0z"/><path d="M202 318 c-3 -3 -3 -18 0 -20 2 -2 2 -2 4 0 3 2 3 18 0 20 -2 2 -2 2
-4 0z"/><path d="M298 318 c-1 -1 -2 -3 -2 -4 0 -1 -1 -2 -2 -2 -2 0 -4 -1 -5 -2 -1
-2 -1 -2 1 -4 2 -2 2 -2 4 -1 1 1 2 3 2 5 0 2 0 2 4 2 4 0 4 0 4 -2 0 -2 1 -4
2 -5 2 -1 2 -1 4 1 2 2 2 2 1 4 -1 1 -3 2 -5 2 -1 0 -2 1 -2 2 0 2 -3 6 -4 6
0 0 -1 -1 -2 -2z"/><path d="M442 318 c-3 -3 -3 -18 0 -20 2 -2 2 -2 8 4 l6 6 -6 6 c-7 7 -6 7 -8
4z"/><path d="M217 302 c-1 -2 -1 -2 1 -4 l2 -2 2 2 c2 2 2 2 1 4 -1 1 -3 2 -3 2 0
0 -2 -1 -3 -2z"/><path d="M289 294 c-1 -2 -1 -2 1 -4 l2 -2 2 2 c2 2 2 2 1 4 -1 1 -3 2 -3 2 0
0 -2 -1 -3 -2z"/><path d="M218 286 c-3 -3 0 -6 6 -6 3 0 5 1 7 2 2 3 -1 6 -7 6 -3 0 -5 -1 -6
-2z"/><path d="M58 278 c-3 -2 -3 -10 0 -12 2 -3 10 -3 12 0 2 2 2 2 -4 8 -7 7 -6 7
-8 4z"/><path d="M266 278 c-2 -2 -2 -2 0 -4 1 -2 3 -2 10 -2 7 0 9 0 11 2 1 2 1 2 0
4 -2 2 -4 2 -11 2 -7 0 -9 0 -10 -2z"/><path d="M438 274 c-6 -6 -6 -6 -4 -8 2 -3 10 -3 12 0 3 2 3 10 0 12 -2 2 -2
3 -8 -4z"/><path d="M225 270 c-1 -2 -1 -2 3 -6 4 -3 4 -4 4 -8 0 -3 1 -5 2 -6 2 -2 2 -2
8 4 l6 6 -6 6 c-5 6 -6 6 -10 6 -3 0 -5 -1 -7 -2z"/><path d="M65 254 c-1 -2 -1 -2 3 -6 4 -3 4 -4 4 -8 0 -6 2 -8 8 -8 3 0 5 1 7
2 1 2 1 2 -3 6 -4 3 -4 4 -4 8 0 6 -2 8 -8 8 -3 0 -5 -1 -7 -2z"/><path d="M258 254 c-3 -3 -3 -18 0 -20 3 -3 6 0 6 6 0 4 0 5 4 8 4 4 4 4 3 6
-3 3 -11 3 -13 0z"/><path d="M434 254 c-1 -1 -2 -3 -2 -4 0 -1 -1 -2 -2 -2 -1 0 -5 -3 -8 -6 -6
-6 -6 -6 -4 -8 1 -1 3 -2 6 -2 6 0 8 2 8 10 0 6 0 6 2 6 2 0 4 1 5 2 1 2 1 2
0 4 -3 2 -3 2 -5 0z"/><path d="M241 238 c-1 -2 -1 -2 1 -4 l2 -2 2 2 c2 2 2 2 1 4 -1 1 -3 2 -3 2 0
0 -2 -1 -3 -2z"/><path d="M82 222 c-2 -2 -2 -2 4 -8 l6 -6 6 0 6 0 0 -6 0 -6 10 -10 10 -10 4
4 c5 6 8 6 8 -2 l0 -6 6 -6 6 -6 4 4 c4 5 8 6 8 2 0 -6 10 -8 15 -4 3 3 -1 6
-9 6 -6 0 -6 0 -6 2 0 4 -3 6 -8 6 -4 0 -5 0 -8 4 -2 3 -4 4 -6 4 -1 0 -2 1
-2 2 0 4 -3 6 -8 6 -4 0 -5 0 -12 8 -5 5 -8 8 -10 8 -1 0 -2 1 -2 2 0 1 -2 5
-6 8 -5 6 -6 6 -10 6 -3 0 -5 -1 -6 -2z"/><path d="M402 214 c-6 -6 -10 -11 -10 -12 0 -1 -1 -2 -2 -2 -1 0 -5 -2 -8 -6
-6 -5 -6 -6 -6 -10 0 -3 1 -5 2 -6 2 -2 2 -2 8 4 l6 6 0 6 0 6 6 0 6 0 10 10
c10 10 10 10 8 12 -1 1 -3 2 -6 2 -4 0 -5 0 -14 -10z"/><path d="M362 182 c-1 -1 -2 -3 -2 -4 0 -2 0 -2 -6 -2 -7 0 -10 -2 -10 -6 0
-2 0 -2 -6 -2 -8 0 -12 -3 -8 -6 4 -5 14 -2 14 4 0 1 1 2 2 2 4 0 6 -3 6 -8 0
-6 3 -9 6 -6 2 1 2 3 2 12 0 10 0 10 2 10 2 0 4 1 5 2 1 2 1 2 0 4 -3 2 -3 2
-5 0z"/><path d="M186 158 c-2 -1 -2 -4 -2 -10 l0 -8 6 -6 6 -6 10 0 c10 0 10 0 10 -2
0 -2 1 -4 2 -5 2 -1 2 -1 4 1 2 2 2 2 1 4 -1 1 -3 2 -5 2 -2 0 -2 0 -2 6 0 6
0 7 -2 9 -2 1 -2 1 -6 -3 l-4 -4 -6 6 -6 6 4 4 c4 4 4 4 3 6 -3 3 -11 3 -13 0z"/><path d="M306 158 c-1 -1 -2 -3 -2 -4 0 -1 -1 -2 -2 -2 -4 0 -6 -3 -6 -8 0 -4
0 -5 -4 -8 -4 -4 -4 -4 -3 -6 2 -2 3 -2 11 -2 l8 0 6 6 6 6 0 8 c0 7 0 9 -2
10 -2 3 -10 3 -12 0z m5 -8 c1 -2 1 -2 -1 -4 -2 -2 -2 -2 -4 -1 -3 3 -3 7 0 7
2 0 4 -1 5 -2z"/><path d="M161 150 c-1 -2 -1 -2 1 -4 l2 -2 2 2 c2 2 2 2 1 4 -1 1 -3 2 -3 2 0
0 -2 -1 -3 -2z"/><path d="M337 150 c-1 -2 -1 -2 1 -4 l2 -2 2 2 c2 2 2 2 1 4 -1 1 -3 2 -3 2 0
0 -2 -1 -3 -2z"/><path d="M249 142 c-1 -2 -1 -2 1 -4 l2 -2 2 2 c2 2 2 2 1 4 -1 1 -3 2 -3 2 0
0 -2 -1 -3 -2z"/><path d="M278 114 c-6 -5 -6 -6 -6 -10 0 -4 0 -5 -4 -8 -3 -2 -4 -4 -4 -6 0
-1 -1 -2 -2 -2 -4 0 -6 -3 -6 -8 0 -4 0 -5 -4 -8 -4 -4 -4 -4 -3 -6 2 -1 4 -2
7 -2 7 0 8 2 8 14 0 10 0 10 2 10 2 0 4 -2 6 -4 4 -4 4 -4 6 -3 2 2 2 3 2 11
l0 9 4 3 c4 3 4 4 4 8 0 3 -1 5 -2 6 -2 2 -2 3 -8 -4z"/><path d="M225 110 c-1 -2 -1 -2 1 -4 l2 -2 2 2 c2 2 2 2 1 4 -1 1 -3 2 -3 2 0
0 -2 -1 -3 -2z"/><path d="M234 94 c-3 -2 -3 -10 0 -12 2 -3 10 -3 12 0 2 2 2 2 -4 8 -7 7 -6 7
-8 4z"/><path d="M249 54 c-1 -2 -1 -2 1 -4 l2 -2 2 2 c2 2 2 2 1 4 -1 1 -3 2 -3 2 0
0 -2 -1 -3 -2z"/></g>
  <g transform="scale(0.125 0.125) translate(0.000000,512.000000) scale(1.000000,-1.000000)" fill="#929292" stroke="none"><path d="M210 478 c-3 -3 0 -6 6 -6 3 0 5 1 7 2 2 3 -1 6 -7 6 -3 0 -5 -1 -6
-2z"/><path d="M234 478 c-3 -3 0 -6 6 -6 3 0 5 1 7 2 2 3 -1 6 -7 6 -3 0 -5 -1 -6
-2z"/><path d="M258 478 c-3 -3 0 -6 6 -6 6 0 9 3 7 6 -2 1 -4 2 -7 2 -3 0 -5 -1 -6
-2z"/><path d="M282 478 c-3 -3 0 -6 6 -6 6 0 9 3 7 6 -2 1 -4 2 -7 2 -3 0 -5 -1 -6
-2z"/><path d="M178 470 c-1 -1 -2 -3 -2 -4 0 -1 -1 -2 -2 -2 -2 0 -4 -1 -5 -2 -1
-2 -1 -2 1 -4 2 -2 2 -2 4 -1 1 1 2 3 2 5 0 1 1 2 2 2 2 0 4 1 5 2 1 2 1 2 0
4 -3 2 -3 2 -5 0z"/><path d="M193 470 c-1 -2 -1 -2 1 -4 l2 -2 2 2 c2 2 2 2 1 4 -1 1 -3 2 -3 2 0
0 -2 -1 -3 -2z"/><path d="M305 470 c-1 -2 -1 -2 1 -4 l2 -2 2 2 c2 2 2 2 1 4 -1 1 -3 2 -3 2 0
0 -2 -1 -3 -2z"/><path d="M322 470 c-2 -2 -2 -2 0 -4 0 -1 2 -2 4 -2 1 0 2 -1 2 -2 0 -2 1 -4
2 -5 2 -1 2 -1 4 1 2 2 2 2 1 4 -1 1 -3 2 -5 2 -1 0 -2 1 -2 2 0 2 -3 6 -4 6
0 0 -2 -1 -2 -2z"/><path d="M153 454 c-1 -2 -1 -2 1 -4 l2 -2 2 2 c2 2 2 2 1 4 -1 1 -3 2 -3 2 0
0 -2 -1 -3 -2z"/><path d="M345 454 c-1 -2 -1 -2 1 -4 l2 -2 2 2 c2 2 2 2 1 4 -1 1 -3 2 -3 2 0
0 -2 -1 -3 -2z"/><path d="M130 446 c-2 -1 -2 -3 -2 -8 0 -6 0 -6 -2 -6 -2 0 -4 -1 -5 -2 -1 -2
-1 -2 1 -4 2 -2 2 -2 4 -1 1 1 2 3 2 5 0 1 1 2 2 2 1 0 5 3 8 6 6 6 6 6 4 8
-2 3 -10 3 -12 0z"/><path d="M362 446 c-2 -2 -2 -2 4 -8 6 -6 6 -6 8 -4 3 2 3 10 0 12 -2 3 -10 3
-12 0z"/><path d="M393 430 c-1 -2 -1 -2 1 -4 l2 -2 2 2 c2 2 2 2 1 4 -1 1 -3 2 -3 2 0
0 -2 -1 -3 -2z"/><path d="M78 394 c-6 -6 -6 -6 -4 -8 1 -1 3 -2 6 -2 4 0 5 0 10 6 6 6 6 6 4 8
-1 1 -3 2 -6 2 -4 0 -5 -1 -10 -6z"/><path d="M202 398 c-2 -2 -2 -2 0 -4 1 -2 3 -2 14 -2 11 0 13 0 15 2 1 2 1 2
0 4 -2 2 -4 2 -15 2 -11 0 -13 0 -14 -2z"/><path d="M282 398 c-2 -2 -2 -2 0 -4 1 -2 3 -2 10 -2 7 0 9 0 11 2 1 2 1 2 0
4 -2 2 -4 2 -11 2 -7 0 -9 0 -10 -2z"/><path d="M410 398 c-2 -2 -2 -2 4 -8 5 -6 6 -6 10 -6 3 0 5 1 6 2 2 2 2 2 -4
8 -5 6 -6 6 -10 6 -3 0 -5 -1 -6 -2z"/><path d="M186 390 c-1 -1 -2 -3 -2 -4 0 -1 -1 -2 -2 -2 -6 0 -8 -10 -4 -14 3
-4 6 0 6 8 0 6 0 6 2 6 2 0 4 1 5 2 1 2 1 2 0 4 -3 2 -3 2 -5 0z"/><path d="M266 390 c-3 -2 -3 -10 0 -12 3 -3 26 -3 29 0 1 2 1 2 0 4 -2 2 -4 2
-11 2 l-9 0 -3 4 c-4 5 -4 5 -6 2z"/><path d="M314 390 c-2 -2 -2 -2 0 -4 0 -1 2 -2 4 -2 1 0 2 -1 2 -2 0 -2 1 -4
2 -5 2 -1 2 -1 4 1 2 2 2 2 1 4 -1 1 -3 2 -5 2 -1 0 -2 1 -2 2 0 2 -3 6 -4 6
0 0 -2 -1 -2 -2z"/><path d="M202 382 c-1 -1 -2 -3 -2 -4 0 -1 -1 -2 -2 -2 -2 0 -4 -1 -5 -2 -1
-2 -1 -2 1 -4 2 -2 2 -2 4 -1 1 1 2 3 2 5 l0 2 16 0 16 0 0 -2 c0 -2 1 -4 4
-6 4 -3 4 -4 4 -8 0 -5 2 -8 6 -8 1 0 2 -1 2 -2 0 -2 1 -4 2 -5 2 -1 2 -1 4 1
2 2 2 2 1 4 -1 1 -3 2 -5 2 -2 0 -2 0 -2 6 0 6 0 7 4 10 4 4 4 4 3 6 -2 2 -3
2 -13 2 -10 0 -10 0 -10 2 0 5 -3 6 -16 6 -11 0 -13 0 -14 -2z"/><path d="M65 374 c-1 -2 -1 -2 1 -4 l2 -2 2 2 c2 2 2 2 1 4 -1 1 -3 2 -3 2 0
0 -2 -1 -3 -2z"/><path d="M426 374 c-3 -3 0 -6 6 -6 6 0 9 3 7 6 -2 1 -4 2 -7 2 -3 0 -5 -1 -6
-2z"/><path d="M314 366 c-2 -1 -2 -4 -2 -10 0 -9 1 -12 6 -12 2 0 2 0 2 -8 l0 -8
-4 0 c-4 0 -4 0 -4 2 0 2 -1 4 -2 5 -2 1 -2 1 -4 -1 -2 -2 -2 -2 -1 -4 1 -1 3
-2 5 -2 1 0 2 -1 2 -2 0 -2 1 -4 2 -4 2 -2 2 -2 4 0 1 0 2 2 2 4 0 1 1 2 2 2
4 0 6 3 6 8 0 5 -2 8 -6 8 -2 0 -2 1 -2 6 0 6 0 7 4 10 4 4 4 4 3 6 -3 3 -11
3 -13 0z"/><path d="M66 358 c-1 -1 -2 -3 -2 -4 0 -1 -1 -2 -2 -2 -6 0 -8 -10 -4 -14 3
-4 6 0 6 8 0 6 0 6 2 6 2 0 4 1 5 2 1 2 1 2 0 4 -3 2 -3 2 -5 0z"/><path d="M185 358 c-1 -2 -1 -2 1 -4 l2 -2 2 2 c2 2 2 2 1 4 -1 1 -3 2 -3 2 0
0 -2 -1 -3 -2z"/><path d="M433 358 c-1 -2 -1 -2 3 -6 4 -3 4 -4 4 -8 0 -6 3 -9 6 -6 3 2 3 18
0 20 -3 3 -10 3 -13 0z"/><path d="M193 334 c-1 -2 -1 -2 1 -4 l2 -2 2 2 c2 2 2 2 1 4 -1 1 -3 2 -3 2 0
0 -2 -1 -3 -2z"/><path d="M58 318 c-3 -3 -3 -18 0 -20 2 -2 2 -2 4 0 3 2 3 18 0 20 -2 2 -2 2
-4 0z"/><path d="M202 318 c-3 -3 -3 -18 0 -20 2 -2 2 -2 4 0 3 2 3 18 0 20 -2 2 -2 2
-4 0z"/><path d="M298 318 c-1 -1 -2 -3 -2 -4 0 -1 -1 -2 -2 -2 -2 0 -4 -1 -5 -2 -1
-2 -1 -2 1 -4 2 -2 2 -2 4 -1 1 1 2 3 2 5 0 2 0 2 4 2 4 0 4 0 4 -2 0 -2 1 -4
2 -5 2 -1 2 -1 4 1 2 2 2 2 1 4 -1 1 -3 2 -5 2 -1 0 -2 1 -2 2 0 2 -3 6 -4 6
0 0 -1 -1 -2 -2z"/><path d="M442 318 c-3 -3 -3 -18 0 -20 2 -2 2 -2 8 4 l6 6 -6 6 c-7 7 -6 7 -8
4z"/><path d="M217 302 c-1 -2 -1 -2 1 -4 l2 -2 2 2 c2 2 2 2 1 4 -1 1 -3 2 -3 2 0
0 -2 -1 -3 -2z"/><path d="M289 294 c-1 -2 -1 -2 1 -4 l2 -2 2 2 c2 2 2 2 1 4 -1 1 -3 2 -3 2 0
0 -2 -1 -3 -2z"/><path d="M218 286 c-3 -3 0 -6 6 -6 3 0 5 1 7 2 2 3 -1 6 -7 6 -3 0 -5 -1 -6
-2z"/><path d="M58 278 c-3 -2 -3 -10 0 -12 2 -3 10 -3 12 0 2 2 2 2 -4 8 -7 7 -6 7
-8 4z"/><path d="M266 278 c-2 -2 -2 -2 0 -4 1 -2 3 -2 10 -2 7 0 9 0 11 2 1 2 1 2 0
4 -2 2 -4 2 -11 2 -7 0 -9 0 -10 -2z"/><path d="M438 274 c-6 -6 -6 -6 -4 -8 2 -3 10 -3 12 0 3 2 3 10 0 12 -2 2 -2
3 -8 -4z"/><path d="M225 270 c-1 -2 -1 -2 3 -6 4 -3 4 -4 4 -8 0 -3 1 -5 2 -6 2 -2 2 -2
8 4 l6 6 -6 6 c-5 6 -6 6 -10 6 -3 0 -5 -1 -7 -2z"/><path d="M65 254 c-1 -2 -1 -2 3 -6 4 -3 4 -4 4 -8 0 -6 2 -8 8 -8 3 0 5 1 7
2 1 2 1 2 -3 6 -4 3 -4 4 -4 8 0 6 -2 8 -8 8 -3 0 -5 -1 -7 -2z"/><path d="M258 254 c-3 -3 -3 -18 0 -20 3 -3 6 0 6 6 0 4 0 5 4 8 4 4 4 4 3 6
-3 3 -11 3 -13 0z"/><path d="M434 254 c-1 -1 -2 -3 -2 -4 0 -1 -1 -2 -2 -2 -1 0 -5 -3 -8 -6 -6
-6 -6 -6 -4 -8 1 -1 3 -2 6 -2 6 0 8 2 8 10 0 6 0 6 2 6 2 0 4 1 5 2 1 2 1 2
0 4 -3 2 -3 2 -5 0z"/><path d="M241 238 c-1 -2 -1 -2 1 -4 l2 -2 2 2 c2 2 2 2 1 4 -1 1 -3 2 -3 2 0
0 -2 -1 -3 -2z"/><path d="M82 222 c-2 -2 -2 -2 4 -8 l6 -6 6 0 6 0 0 -6 0 -6 10 -10 10 -10 4
4 c5 6 8 6 8 -2 l0 -6 6 -6 6 -6 4 4 c4 5 8 6 8 2 0 -6 10 -8 15 -4 3 3 -1 6
-9 6 -6 0 -6 0 -6 2 0 4 -3 6 -8 6 -4 0 -5 0 -8 4 -2 3 -4 4 -6 4 -1 0 -2 1
-2 2 0 4 -3 6 -8 6 -4 0 -5 0 -12 8 -5 5 -8 8 -10 8 -1 0 -2 1 -2 2 0 1 -2 5
-6 8 -5 6 -6 6 -10 6 -3 0 -5 -1 -6 -2z"/><path d="M402 214 c-6 -6 -10 -11 -10 -12 0 -1 -1 -2 -2 -2 -1 0 -5 -2 -8 -6
-6 -5 -6 -6 -6 -10 0 -3 1 -5 2 -6 2 -2 2 -2 8 4 l6 6 0 6 0 6 6 0 6 0 10 10
c10 10 10 10 8 12 -1 1 -3 2 -6 2 -4 0 -5 0 -14 -10z"/><path d="M362 182 c-1 -1 -2 -3 -2 -4 0 -2 0 -2 -6 -2 -7 0 -10 -2 -10 -6 0
-2 0 -2 -6 -2 -8 0 -12 -3 -8 -6 4 -5 14 -2 14 4 0 1 1 2 2 2 4 0 6 -3 6 -8 0
-6 3 -9 6 -6 2 1 2 3 2 12 0 10 0 10 2 10 2 0 4 1 5 2 1 2 1 2 0 4 -3 2 -3 2
-5 0z"/><path d="M186 158 c-2 -1 -2 -4 -2 -10 l0 -8 6 -6 6 -6 10 0 c10 0 10 0 10 -2
0 -2 1 -4 2 -5 2 -1 2 -1 4 1 2 2 2 2 1 4 -1 1 -3 2 -5 2 -2 0 -2 0 -2 6 0 6
0 7 -2 9 -2 1 -2 1 -6 -3 l-4 -4 -6 6 -6 6 4 4 c4 4 4 4 3 6 -3 3 -11 3 -13 0z"/><path d="M306 158 c-1 -1 -2 -3 -2 -4 0 -1 -1 -2 -2 -2 -4 0 -6 -3 -6 -8 0 -4
0 -5 -4 -8 -4 -4 -4 -4 -3 -6 2 -2 3 -2 11 -2 l8 0 6 6 6 6 0 8 c0 7 0 9 -2
10 -2 3 -10 3 -12 0z m5 -8 c1 -2 1 -2 -1 -4 -2 -2 -2 -2 -4 -1 -3 3 -3 7 0 7
2 0 4 -1 5 -2z"/><path d="M161 150 c-1 -2 -1 -2 1 -4 l2 -2 2 2 c2 2 2 2 1 4 -1 1 -3 2 -3 2 0
0 -2 -1 -3 -2z"/><path d="M337 150 c-1 -2 -1 -2 1 -4 l2 -2 2 2 c2 2 2 2 1 4 -1 1 -3 2 -3 2 0
0 -2 -1 -3 -2z"/><path d="M249 142 c-1 -2 -1 -2 1 -4 l2 -2 2 2 c2 2 2 2 1 4 -1 1 -3 2 -3 2 0
0 -2 -1 -3 -2z"/><path d="M278 114 c-6 -5 -6 -6 -6 -10 0 -4 0 -5 -4 -8 -3 -2 -4 -4 -4 -6 0
-1 -1 -2 -2 -2 -4 0 -6 -3 -6 -8 0 -4 0 -5 -4 -8 -4 -4 -4 -4 -3 -6 2 -1 4 -2
7 -2 7 0 8 2 8 14 0 10 0 10 2 10 2 0 4 -2 6 -4 4 -4 4 -4 6 -3 2 2 2 3 2 11
l0 9 4 3 c4 3 4 4 4 8 0 3 -1 5 -2 6 -2 2 -2 3 -8 -4z"/><path d="M225 110 c-1 -2 -1 -2 1 -4 l2 -2 2 2 c2 2 2 2 1 4 -1 1 -3 2 -3 2 0
0 -2 -1 -3 -2z"/><path d="M234 94 c-3 -2 -3 -10 0 -12 2 -3 10 -3 12 0 2 2 2 2 -4 8 -7 7 -6 7
-8 4z"/><path d="M249 54 c-1 -2 -1 -2 1 -4 l2 -2 2 2 c2 2 2 2 1 4 -1 1 -3 2 -3 2 0
0 -2 -1 -3 -2z"/></g>
  <g transform="scale(0.125 0.125) translate(0.000000,512.000000) scale(1.000000,-1.000000)" fill="#f3f2f3" stroke="none"><path d="M234 478 c-3 -3 0 -6 6 -6 3 0 5 1 7 2 2 3 -1 6 -7 6 -3 0 -5 -1 -6
-2z"/><path d="M258 478 c-3 -3 0 -6 6 -6 6 0 9 3 7 6 -2 1 -4 2 -7 2 -3 0 -5 -1 -6
-2z"/><path d="M193 470 c-1 -2 -1 -2 1 -4 l2 -2 2 2 c2 2 2 2 1 4 -1 1 -3 2 -3 2 0
0 -2 -1 -3 -2z"/><path d="M305 470 c-1 -2 -1 -2 1 -4 l2 -2 2 2 c2 2 2 2 1 4 -1 1 -3 2 -3 2 0
0 -2 -1 -3 -2z"/><path d="M169 462 c-1 -2 -1 -2 1 -4 l2 -2 2 2 c2 2 2 2 1 4 -1 1 -3 2 -3 2 0
0 -2 -1 -3 -2z"/><path d="M329 462 c-1 -2 -1 -2 1 -4 l2 -2 2 2 c2 2 2 2 1 4 -1 1 -3 2 -3 2 0
0 -2 -1 -3 -2z"/><path d="M153 454 c-1 -2 -1 -2 1 -4 l2 -2 2 2 c2 2 2 2 1 4 -1 1 -3 2 -3 2 0
0 -2 -1 -3 -2z"/><path d="M345 454 c-1 -2 -1 -2 1 -4 l2 -2 2 2 c2 2 2 2 1 4 -1 1 -3 2 -3 2 0
0 -2 -1 -3 -2z"/><path d="M138 446 c-1 -1 -2 -3 -2 -4 0 -1 -1 -2 -2 -2 -3 0 -6 -3 -6 -6 0 -1
-1 -2 -2 -2 -2 0 -4 -1 -5 -2 -1 -2 -1 -2 1 -4 2 -2 2 -2 4 -1 1 1 2 3 2 5 0
1 1 2 2 2 3 0 6 3 6 6 0 1 1 2 2 2 2 0 4 1 5 2 1 2 1 2 0 4 -3 2 -3 2 -5 0z"/><path d="M362 446 c-2 -2 -2 -2 0 -4 0 -1 2 -2 4 -2 1 0 2 -1 2 -2 0 -2 1 -4
2 -5 2 -1 2 -1 4 1 2 2 2 2 1 4 -1 1 -3 2 -5 2 -1 0 -2 1 -2 2 0 2 -3 6 -4 6
0 0 -2 -1 -2 -2z"/><path d="M90 398 c-1 -1 -2 -3 -2 -4 0 -1 -1 -2 -2 -2 -2 0 -4 -1 -5 -2 -1 -2
-1 -2 1 -4 2 -2 2 -2 4 -1 1 1 2 3 2 5 0 1 1 2 2 2 2 0 4 1 5 2 1 2 1 2 0 4
-3 2 -3 2 -5 0z"/><path d="M202 398 c-2 -2 -2 -2 0 -4 1 -2 3 -2 14 -2 11 0 13 0 15 2 1 2 1 2
0 4 -2 2 -4 2 -15 2 -11 0 -13 0 -14 -2z"/><path d="M282 398 c-2 -2 -2 -2 0 -4 1 -2 3 -2 10 -2 7 0 9 0 11 2 1 2 1 2 0
4 -2 2 -4 2 -11 2 -7 0 -9 0 -10 -2z"/><path d="M410 398 c-2 -2 -2 -2 0 -4 0 -1 2 -2 4 -2 1 0 2 -1 2 -2 0 -2 1 -4
2 -5 2 -1 2 -1 4 1 2 2 2 2 1 4 -1 1 -3 2 -5 2 -1 0 -2 1 -2 2 0 2 -3 6 -4 6
0 0 -2 -1 -2 -2z"/><path d="M186 390 c-1 -1 -2 -3 -2 -4 0 -1 -1 -2 -2 -2 -2 0 -4 -1 -5 -2 -1
-2 -1 -2 1 -4 2 -2 2 -2 4 -1 1 1 2 3 2 5 0 1 1 2 2 2 2 0 4 1 5 2 1 2 1 2 0
4 -3 2 -3 2 -5 0z"/><path d="M266 390 c-3 -2 -3 -10 0 -12 3 -3 26 -3 29 0 1 2 1 2 0 4 -2 2 -4 2
-11 2 l-9 0 -3 4 c-4 5 -4 5 -6 2z"/><path d="M314 390 c-2 -2 -2 -2 0 -4 0 -1 2 -2 4 -2 1 0 2 -1 2 -2 0 -2 1 -4
2 -5 2 -1 2 -1 4 1 2 2 2 2 1 4 -1 1 -3 2 -5 2 -1 0 -2 1 -2 2 0 2 -3 6 -4 6
0 0 -2 -1 -2 -2z"/><path d="M202 382 c-1 -1 -2 -3 -2 -4 0 -1 -1 -2 -2 -2 -2 0 -4 -1 -5 -2 -1
-2 -1 -2 1 -4 2 -2 2 -2 4 -1 1 1 2 3 2 5 l0 2 16 0 16 0 0 -2 c0 -2 1 -4 4
-6 4 -3 4 -4 4 -8 0 -5 2 -8 6 -8 1 0 2 -1 2 -2 0 -2 1 -4 2 -5 2 -1 2 -1 4 1
2 2 2 2 1 4 -1 1 -3 2 -5 2 -2 0 -2 0 -2 6 0 6 0 7 4 10 4 4 4 4 3 6 -2 2 -3
2 -13 2 -10 0 -10 0 -10 2 0 5 -3 6 -16 6 -11 0 -13 0 -14 -2z"/><path d="M425 374 c-1 -2 -1 -2 1 -4 l2 -2 2 2 c2 2 2 2 1 4 -1 1 -3 2 -3 2 0
0 -2 -1 -3 -2z"/><path d="M314 366 c-3 -3 -3 -18 0 -20 3 -3 6 0 6 6 0 4 0 5 4 8 4 4 4 4 3 6
-3 3 -11 3 -13 0z"/><path d="M65 358 c-1 -2 -1 -2 1 -4 l2 -2 2 2 c2 2 2 2 1 4 -1 1 -3 2 -3 2 0
0 -2 -1 -3 -2z"/><path d="M185 358 c-1 -2 -1 -2 1 -4 l2 -2 2 2 c2 2 2 2 1 4 -1 1 -3 2 -3 2 0
0 -2 -1 -3 -2z"/><path d="M433 358 c-1 -2 -1 -2 1 -4 l2 -2 2 2 c2 2 2 2 1 4 -1 1 -3 2 -3 2 0
0 -2 -1 -3 -2z"/><path d="M193 334 c-1 -2 -1 -2 1 -4 l2 -2 2 2 c2 2 2 2 1 4 -1 1 -3 2 -3 2 0
0 -2 -1 -3 -2z"/><path d="M305 334 c-1 -2 -1 -2 1 -4 l2 -2 2 2 c2 2 2 2 1 4 -1 1 -3 2 -3 2 0
0 -2 -1 -3 -2z"/><path d="M321 334 c-1 -2 -1 -2 1 -4 l2 -2 2 2 c2 2 2 2 1 4 -1 1 -3 2 -3 2 0
0 -2 -1 -3 -2z"/><path d="M58 318 c-3 -3 -3 -18 0 -20 2 -2 2 -2 4 0 3 2 3 18 0 20 -2 2 -2 2
-4 0z"/><path d="M202 318 c-3 -3 -3 -18 0 -20 2 -2 2 -2 4 0 3 2 3 18 0 20 -2 2 -2 2
-4 0z"/><path d="M298 318 c-1 -1 -2 -3 -2 -4 0 -1 -1 -2 -2 -2 -2 0 -4 -1 -5 -2 -1
-2 -1 -2 1 -4 2 -2 2 -2 4 -1 1 1 2 3 2 5 0 2 0 2 4 2 4 0 4 0 4 -2 0 -2 1 -4
2 -5 2 -1 2 -1 4 1 2 2 2 2 1 4 -1 1 -3 2 -5 2 -1 0 -2 1 -2 2 0 2 -3 6 -4 6
0 0 -1 -1 -2 -2z"/><path d="M442 318 c-3 -3 -3 -18 0 -20 2 -2 2 -2 4 0 3 2 3 18 0 20 -2 2 -2 2
-4 0z"/><path d="M217 302 c-1 -2 -1 -2 1 -4 l2 -2 2 2 c2 2 2 2 1 4 -1 1 -3 2 -3 2 0
0 -2 -1 -3 -2z"/><path d="M225 286 c-1 -2 -1 -2 1 -4 l2 -2 2 2 c2 2 2 2 1 4 -1 1 -3 2 -3 2 0
0 -2 -1 -3 -2z"/><path d="M266 278 c-2 -2 -2 -2 0 -4 1 -2 3 -2 10 -2 7 0 9 0 11 2 1 2 1 2 0
4 -2 2 -4 2 -11 2 -7 0 -9 0 -10 -2z"/><path d="M65 270 c-1 -2 -1 -2 1 -4 l2 -2 2 2 c2 2 2 2 1 4 -1 1 -3 2 -3 2 0
0 -2 -1 -3 -2z"/><path d="M226 270 c-4 -3 0 -6 8 -6 l6 0 0 -4 c0 -4 0 -4 -2 -4 -2 0 -4 -1 -5
-2 -1 -2 -1 -2 1 -4 2 -2 2 -2 4 -1 1 1 2 3 2 5 0 1 1 2 2 2 2 0 4 1 5 2 1 2
1 2 0 4 -1 1 -3 2 -5 2 -1 0 -2 1 -2 2 0 6 -10 8 -14 4z"/><path d="M433 270 c-1 -2 -1 -2 1 -4 l2 -2 2 2 c2 2 2 2 1 4 -1 1 -3 2 -3 2 0
0 -2 -1 -3 -2z"/><path d="M74 254 c-4 -4 -2 -14 4 -14 1 0 2 -1 2 -2 0 -2 1 -4 2 -5 2 -1 2 -1
4 1 2 2 2 2 1 4 -1 1 -3 2 -5 2 -2 0 -2 0 -2 6 0 5 0 7 -2 8 -2 2 -2 2 -4 0z"/><path d="M258 254 c-3 -3 0 -6 6 -6 3 0 5 1 7 2 2 3 -1 6 -7 6 -3 0 -5 -1 -6
-2z"/><path d="M426 246 c-1 -1 -2 -3 -2 -4 0 -1 -1 -2 -2 -2 -2 0 -4 -1 -5 -2 -1
-2 -1 -2 1 -4 2 -2 2 -2 4 -1 1 1 2 3 2 5 0 1 1 2 2 2 2 0 4 1 5 2 1 2 1 2 0
4 -3 2 -3 2 -5 0z"/><path d="M241 238 c-1 -2 -1 -2 1 -4 l2 -2 2 2 c2 2 2 2 1 4 -1 1 -3 2 -3 2 0
0 -2 -1 -3 -2z"/><path d="M257 238 c-1 -2 -1 -2 1 -4 l2 -2 2 2 c2 2 2 2 1 4 -1 1 -3 2 -3 2 0
0 -2 -1 -3 -2z"/><path d="M90 222 c-2 -2 -2 -2 0 -4 0 -1 2 -2 4 -2 1 0 2 -1 2 -2 0 -3 3 -6 6
-6 1 0 2 -1 2 -2 0 -3 3 -6 6 -6 1 0 2 -1 2 -2 0 -3 3 -6 6 -6 1 0 2 -1 2 -2
0 -4 3 -6 10 -6 6 0 6 0 6 -2 0 -3 3 -6 6 -6 1 0 2 -1 2 -2 0 -4 3 -6 10 -6 6
0 6 0 6 -2 0 -6 10 -8 15 -4 3 3 -1 6 -9 6 -6 0 -6 0 -6 2 0 4 -3 6 -10 6 -6
0 -6 0 -6 2 0 3 -3 6 -6 6 -1 0 -2 1 -2 2 0 4 -3 6 -10 6 -6 0 -6 0 -6 2 0 3
-3 6 -6 6 -1 0 -2 1 -2 2 0 3 -3 6 -6 6 -1 0 -2 1 -2 2 0 3 -3 6 -6 6 -1 0 -2
1 -2 2 0 2 -3 6 -4 6 0 0 -2 -1 -2 -2z"/><path d="M410 222 c-1 -1 -2 -3 -2 -4 0 -1 -1 -2 -2 -2 -3 0 -6 -3 -6 -6 0 -1
-1 -2 -2 -2 -3 0 -6 -3 -6 -6 0 -1 -1 -2 -2 -2 -3 0 -6 -3 -6 -6 0 -1 -1 -2
-2 -2 -2 0 -4 -1 -5 -2 -1 -2 -1 -2 1 -4 2 -2 2 -2 4 -1 1 1 2 3 2 5 0 1 1 2
2 2 3 0 6 3 6 6 0 1 1 2 2 2 3 0 6 3 6 6 0 1 1 2 2 2 3 0 6 3 6 6 0 1 1 2 2 2
2 0 4 1 5 2 1 2 1 2 0 4 -3 2 -3 2 -5 0z"/><path d="M362 182 c-1 -1 -2 -3 -2 -4 0 -2 0 -2 -6 -2 -7 0 -10 -2 -10 -6 0
-2 0 -2 -6 -2 -8 0 -12 -3 -8 -6 4 -5 14 -2 14 4 0 2 0 2 6 2 7 0 10 2 10 6 0
1 1 2 2 2 2 0 4 1 5 2 1 2 1 2 0 4 -3 2 -3 2 -5 0z"/><path d="M186 158 c-3 -3 0 -6 6 -6 3 0 5 1 7 2 2 3 -1 6 -7 6 -3 0 -5 -1 -6
-2z"/><path d="M306 158 c-1 -1 -2 -3 -2 -4 0 -1 -1 -2 -2 -2 -2 0 -4 -1 -4 -2 -2
-2 -2 -2 0 -4 0 -1 2 -2 4 -2 2 0 2 0 2 -6 0 -5 0 -7 2 -8 2 -2 2 -2 8 4 6 6
6 6 4 8 -1 2 -3 2 -8 2 l-6 0 0 4 0 4 6 0 c8 0 12 3 9 6 -3 3 -11 3 -13 0z"/><path d="M353 158 c-1 -2 -1 -2 1 -4 l2 -2 2 2 c2 2 2 2 1 4 -1 1 -3 2 -3 2 0
0 -2 -1 -3 -2z"/><path d="M161 150 c-1 -2 -1 -2 1 -4 l2 -2 2 2 c2 2 2 2 1 4 -1 1 -3 2 -3 2 0
0 -2 -1 -3 -2z"/><path d="M337 150 c-1 -2 -1 -2 1 -4 l2 -2 2 2 c2 2 2 2 1 4 -1 1 -3 2 -3 2 0
0 -2 -1 -3 -2z"/><path d="M186 142 c-2 -2 -2 -2 4 -8 5 -6 6 -6 10 -6 5 0 8 2 8 6 0 1 1 2 2 2
2 0 4 1 5 2 1 2 1 2 -1 4 -2 2 -2 2 -4 1 -1 -1 -2 -3 -2 -5 0 -4 -4 -3 -8 2
-3 4 -4 4 -8 4 -3 0 -5 -1 -6 -2z"/><path d="M249 142 c-1 -2 -1 -2 1 -4 l2 -2 2 2 c2 2 2 2 1 4 -1 1 -3 2 -3 2 0
0 -2 -1 -3 -2z"/><path d="M289 134 c-1 -2 -1 -2 1 -4 l2 -2 2 2 c2 2 2 2 1 4 -1 1 -3 2 -3 2 0
0 -2 -1 -3 -2z"/><path d="M217 126 c-1 -2 -1 -2 1 -4 l2 -2 2 2 c2 2 2 2 1 4 -1 1 -3 2 -3 2 0
0 -2 -1 -3 -2z"/><path d="M282 118 c-1 -1 -2 -3 -2 -4 0 -1 -1 -2 -2 -2 -4 0 -6 -3 -6 -10 0
-6 0 -6 -2 -6 -3 0 -6 -3 -6 -6 0 -1 -1 -2 -2 -2 -4 0 -6 -3 -6 -10 0 -6 0 -6
-2 -6 -2 0 -4 -1 -5 -2 -1 -2 -1 -2 1 -4 2 -2 2 -2 4 -1 1 1 2 3 2 5 0 1 1 2
2 2 4 0 6 3 6 10 l0 6 4 0 c4 0 4 0 4 -2 0 -2 1 -4 2 -5 2 -1 2 -1 4 1 2 2 2
2 1 4 -1 1 -3 2 -5 2 -2 0 -2 0 -2 4 0 4 0 4 2 4 4 0 6 3 6 10 0 6 0 6 2 6 2
0 4 1 5 2 1 2 1 2 0 4 -3 2 -3 2 -5 0z"/><path d="M225 110 c-1 -2 -1 -2 1 -4 l2 -2 2 2 c2 2 2 2 1 4 -1 1 -3 2 -3 2 0
0 -2 -1 -3 -2z"/><path d="M234 94 c-2 -2 -2 -2 0 -4 0 -1 2 -2 4 -2 1 0 2 -1 2 -2 0 -2 1 -4 2
-5 2 -1 2 -1 4 1 2 2 2 2 1 4 -1 1 -3 2 -5 2 -1 0 -2 1 -2 2 0 2 -3 6 -4 6 0
0 -2 -1 -2 -2z"/><path d="M249 54 c-1 -2 -1 -2 1 -4 l2 -2 2 2 c2 2 2 2 1 4 -1 1 -3 2 -3 2 0
0 -2 -1 -3 -2z"/></g>
  <g transform="scale(0.125 0.125) translate(0.000000,512.000000) scale(1.000000,-1.000000)" fill="#fbfbfb" stroke="none"><path d="M241 478 c-1 -2 -1 -2 1 -4 l2 -2 2 2 c2 2 2 2 1 4 -1 1 -3 2 -3 2 0
0 -2 -1 -3 -2z"/><path d="M257 478 c-1 -2 -1 -2 1 -4 l2 -2 2 2 c2 2 2 2 1 4 -1 1 -3 2 -3 2 0
0 -2 -1 -3 -2z"/><path d="M305 470 c-1 -2 -1 -2 1 -4 l2 -2 2 2 c2 2 2 2 1 4 -1 1 -3 2 -3 2 0
0 -2 -1 -3 -2z"/><path d="M130 438 c-1 -1 -2 -3 -2 -4 0 -1 -1 -2 -2 -2 -2 0 -4 -1 -5 -2 -1
-2 -1 -2 1 -4 2 -2 2 -2 4 -1 1 1 2 3 2 5 0 1 1 2 2 2 2 0 4 1 5 2 1 2 1 2 0
4 -3 2 -3 2 -5 0z"/><path d="M369 438 c-1 -2 -1 -2 1 -4 l2 -2 2 2 c2 2 2 2 1 4 -1 1 -3 2 -3 2 0
0 -2 -1 -3 -2z"/><path d="M90 398 c-1 -1 -2 -3 -2 -4 0 -1 -1 -2 -2 -2 -2 0 -4 -1 -5 -2 -1 -2
-1 -2 1 -4 2 -2 2 -2 4 -1 1 1 2 3 2 5 0 1 1 2 2 2 2 0 4 1 5 2 1 2 1 2 0 4
-3 2 -3 2 -5 0z"/><path d="M201 398 c-1 -2 -1 -2 1 -4 l2 -2 2 2 c2 2 2 2 1 4 -1 1 -3 2 -3 2 0
0 -2 -1 -3 -2z"/><path d="M225 398 c-1 -2 -1 -2 1 -4 l2 -2 2 2 c2 2 2 2 1 4 -1 1 -3 2 -3 2 0
0 -2 -1 -3 -2z"/><path d="M409 398 c-1 -2 -1 -2 1 -4 l2 -2 2 2 c2 2 2 2 1 4 -1 1 -3 2 -3 2 0
0 -2 -1 -3 -2z"/><path d="M186 390 c-1 -1 -2 -3 -2 -4 0 -1 -1 -2 -2 -2 -2 0 -4 -1 -5 -2 -1
-2 -1 -2 1 -4 2 -2 2 -2 4 -1 1 1 2 3 2 5 0 1 1 2 2 2 2 0 4 1 5 2 1 2 1 2 0
4 -3 2 -3 2 -5 0z"/><path d="M202 382 c-1 -1 -2 -3 -2 -4 0 -1 -1 -2 -2 -2 -2 0 -4 -1 -5 -2 -1
-2 -1 -2 1 -4 2 -2 2 -2 4 -1 1 1 2 3 2 5 l0 2 16 0 16 0 0 -2 c0 -2 1 -4 4
-6 4 -3 4 -4 4 -8 0 -5 2 -8 6 -8 1 0 2 -1 2 -2 0 -2 1 -4 2 -5 2 -1 2 -1 4 1
2 2 2 2 1 4 -1 1 -3 2 -5 2 -2 0 -2 0 -2 10 0 13 -1 14 -10 14 -6 0 -6 0 -6 2
0 5 -3 6 -16 6 -11 0 -13 0 -14 -2z"/><path d="M266 382 c-2 -2 -2 -2 0 -4 1 -2 3 -2 14 -2 11 0 13 0 15 2 1 2 1 2
0 4 -2 2 -4 2 -15 2 -11 0 -13 0 -14 -2z"/><path d="M425 374 c-1 -2 -1 -2 1 -4 l2 -2 2 2 c2 2 2 2 1 4 -1 1 -3 2 -3 2 0
0 -2 -1 -3 -2z"/><path d="M314 366 c-3 -3 -3 -18 0 -20 3 -3 6 0 6 6 0 4 0 5 4 8 4 4 4 4 3 6
-3 3 -11 3 -13 0z"/><path d="M185 358 c-1 -2 -1 -2 1 -4 l2 -2 2 2 c2 2 2 2 1 4 -1 1 -3 2 -3 2 0
0 -2 -1 -3 -2z"/><path d="M193 334 c-1 -2 -1 -2 1 -4 l2 -2 2 2 c2 2 2 2 1 4 -1 1 -3 2 -3 2 0
0 -2 -1 -3 -2z"/><path d="M305 334 c-1 -2 -1 -2 1 -4 l2 -2 2 2 c2 2 2 2 1 4 -1 1 -3 2 -3 2 0
0 -2 -1 -3 -2z"/><path d="M321 334 c-1 -2 -1 -2 1 -4 l2 -2 2 2 c2 2 2 2 1 4 -1 1 -3 2 -3 2 0
0 -2 -1 -3 -2z"/><path d="M202 318 c-3 -3 -3 -18 0 -20 2 -2 2 -2 4 0 3 2 3 18 0 20 -2 2 -2 2
-4 0z"/><path d="M298 318 c-1 -1 -2 -3 -2 -4 0 -1 -1 -2 -2 -2 -2 0 -4 -1 -5 -2 -1
-2 -1 -2 1 -4 2 -2 2 -2 4 -1 1 1 2 3 2 5 0 1 1 2 2 2 2 0 4 1 5 2 1 2 1 2 0
4 -3 2 -3 2 -5 0z"/><path d="M57 310 c-1 -2 -1 -2 1 -4 l2 -2 2 2 c2 2 2 2 1 4 -1 1 -3 2 -3 2 0
0 -2 -1 -3 -2z"/><path d="M217 302 c-1 -2 -1 -2 1 -4 l2 -2 2 2 c2 2 2 2 1 4 -1 1 -3 2 -3 2 0
0 -2 -1 -3 -2z"/><path d="M225 286 c-1 -2 -1 -2 1 -4 l2 -2 2 2 c2 2 2 2 1 4 -1 1 -3 2 -3 2 0
0 -2 -1 -3 -2z"/><path d="M266 278 c-3 -3 0 -6 6 -6 6 0 9 3 7 6 -2 1 -4 2 -7 2 -3 0 -5 -1 -6
-2z"/><path d="M65 270 c-1 -2 -1 -2 1 -4 l2 -2 2 2 c2 2 2 2 1 4 -1 1 -3 2 -3 2 0
0 -2 -1 -3 -2z"/><path d="M234 270 c-2 -2 -2 -2 0 -4 0 -1 2 -2 4 -2 2 0 2 0 2 -4 0 -4 0 -4
-2 -4 -2 0 -4 -1 -5 -2 -1 -2 -1 -2 1 -4 2 -2 2 -2 4 -1 1 1 2 3 2 5 0 1 1 2
2 2 2 0 4 1 5 2 1 2 1 2 0 4 -1 1 -3 2 -5 2 -1 0 -2 1 -2 2 0 2 -3 6 -4 6 0 0
-2 -1 -2 -2z"/><path d="M433 270 c-1 -2 -1 -2 1 -4 l2 -2 2 2 c2 2 2 2 1 4 -1 1 -3 2 -3 2 0
0 -2 -1 -3 -2z"/><path d="M73 254 c-1 -2 -1 -2 1 -4 l2 -2 2 2 c2 2 2 2 1 4 -1 1 -3 2 -3 2 0
0 -2 -1 -3 -2z"/><path d="M257 254 c-1 -2 -1 -2 1 -4 l2 -2 2 2 c2 2 2 2 1 4 -1 1 -3 2 -3 2 0
0 -2 -1 -3 -2z"/><path d="M81 238 c-1 -2 -1 -2 1 -4 l2 -2 2 2 c2 2 2 2 1 4 -1 1 -3 2 -3 2 0
0 -2 -1 -3 -2z"/><path d="M241 238 c-1 -2 -1 -2 1 -4 l2 -2 2 2 c2 2 2 2 1 4 -1 1 -3 2 -3 2 0
0 -2 -1 -3 -2z"/><path d="M417 238 c-1 -2 -1 -2 1 -4 l2 -2 2 2 c2 2 2 2 1 4 -1 1 -3 2 -3 2 0
0 -2 -1 -3 -2z"/><path d="M130 190 c-2 -2 -2 -2 0 -4 0 -1 2 -2 4 -2 1 0 2 -1 2 -2 0 -2 1 -4
2 -5 2 -1 2 -1 4 1 2 2 2 2 1 4 -1 1 -3 2 -5 2 -1 0 -2 1 -2 2 0 2 -3 6 -4 6
0 0 -2 -1 -2 -2z"/><path d="M361 182 c-1 -2 -1 -2 1 -4 l2 -2 2 2 c2 2 2 2 1 4 -1 1 -3 2 -3 2 0
0 -2 -1 -3 -2z"/><path d="M153 174 c-1 -2 -1 -2 1 -4 l2 -2 2 2 c2 2 2 2 1 4 -1 1 -3 2 -3 2 0
0 -2 -1 -3 -2z"/><path d="M345 174 c-1 -2 -1 -2 1 -4 l2 -2 2 2 c2 2 2 2 1 4 -1 1 -3 2 -3 2 0
0 -2 -1 -3 -2z"/><path d="M169 166 c-1 -2 -1 -2 1 -4 l2 -2 2 2 c2 2 2 2 1 4 -1 1 -3 2 -3 2 0
0 -2 -1 -3 -2z"/><path d="M329 166 c-1 -2 -1 -2 1 -4 l2 -2 2 2 c2 2 2 2 1 4 -1 1 -3 2 -3 2 0
0 -2 -1 -3 -2z"/><path d="M193 158 c-1 -2 -1 -2 1 -4 l2 -2 2 2 c2 2 2 2 1 4 -1 1 -3 2 -3 2 0
0 -2 -1 -3 -2z"/><path d="M305 158 c-1 -2 -1 -2 1 -4 l2 -2 2 2 c2 2 2 2 1 4 -1 1 -3 2 -3 2 0
0 -2 -1 -3 -2z"/><path d="M353 158 c-1 -2 -1 -2 1 -4 l2 -2 2 2 c2 2 2 2 1 4 -1 1 -3 2 -3 2 0
0 -2 -1 -3 -2z"/><path d="M161 150 c-1 -2 -1 -2 1 -4 l2 -2 2 2 c2 2 2 2 1 4 -1 1 -3 2 -3 2 0
0 -2 -1 -3 -2z"/><path d="M337 150 c-1 -2 -1 -2 1 -4 l2 -2 2 2 c2 2 2 2 1 4 -1 1 -3 2 -3 2 0
0 -2 -1 -3 -2z"/><path d="M186 142 c-2 -2 -2 -2 4 -8 5 -6 6 -6 10 -6 3 0 5 1 6 2 2 2 2 2 -4
8 -5 6 -6 6 -10 6 -3 0 -5 -1 -6 -2z"/><path d="M249 142 c-1 -2 -1 -2 1 -4 l2 -2 2 2 c2 2 2 2 1 4 -1 1 -3 2 -3 2 0
0 -2 -1 -3 -2z"/><path d="M306 142 c-3 -2 -3 -10 0 -12 2 -2 2 -2 8 4 6 6 6 6 4 8 -2 3 -10 3
-12 0z"/><path d="M289 134 c-1 -2 -1 -2 1 -4 l2 -2 2 2 c2 2 2 2 1 4 -1 1 -3 2 -3 2 0
0 -2 -1 -3 -2z"/><path d="M217 126 c-1 -2 -1 -2 1 -4 l2 -2 2 2 c2 2 2 2 1 4 -1 1 -3 2 -3 2 0
0 -2 -1 -3 -2z"/><path d="M273 110 c-1 -2 -1 -2 1 -4 l2 -2 2 2 c2 2 2 2 1 4 -1 1 -3 2 -3 2 0
0 -2 -1 -3 -2z"/><path d="M241 86 c-1 -2 -1 -2 1 -4 l2 -2 2 2 c2 2 2 2 1 4 -1 1 -3 2 -3 2 0
0 -2 -1 -3 -2z"/><path d="M257 86 c-1 -2 -1 -2 1 -4 l2 -2 2 2 c2 2 2 2 1 4 -1 1 -3 2 -3 2 0
0 -2 -1 -3 -2z"/><path d="M273 86 c-1 -2 -1 -2 1 -4 l2 -2 2 2 c2 2 2 2 1 4 -1 1 -3 2 -3 2 0
0 -2 -1 -3 -2z"/><path d="M249 54 c-1 -2 -1 -2 1 -4 l2 -2 2 2 c2 2 2 2 1 4 -1 1 -3 2 -3 2 0
0 -2 -1 -3 -2z"/></g>
  <g transform="scale(0.125 0.125) translate(0.000000,512.000000) scale(1.000000,-1.000000)" fill="#120c0f" stroke="none"><path d="M202 382 c-1 -1 -2 -3 -2 -4 0 -1 -1 -2 -2 -2 -2 0 -4 -1 -5 -2 -1
-2 -1 -2 1 -4 2 -2 2 -2 4 -1 1 1 2 3 2 5 l0 2 16 0 16 0 0 -2 c0 -2 1 -4 4
-6 4 -3 4 -4 4 -8 0 -5 2 -8 6 -8 1 0 2 -1 2 -2 0 -2 1 -4 2 -5 2 -1 2 -1 4 1
2 2 2 2 1 4 -1 1 -3 2 -5 2 -2 0 -2 0 -2 10 0 13 -1 14 -10 14 -6 0 -6 0 -6 2
0 5 -3 6 -16 6 -11 0 -13 0 -14 -2z"/><path d="M266 382 c-2 -2 -2 -2 0 -4 1 -2 3 -2 14 -2 11 0 13 0 15 2 1 2 1 2
0 4 -2 2 -4 2 -15 2 -11 0 -13 0 -14 -2z"/><path d="M314 366 c-3 -3 -3 -18 0 -20 3 -3 6 0 6 6 0 4 0 5 4 8 4 4 4 4 3 6
-3 3 -11 3 -13 0z"/><path d="M185 358 c-1 -2 -1 -2 1 -4 l2 -2 2 2 c2 2 2 2 1 4 -1 1 -3 2 -3 2 0
0 -2 -1 -3 -2z"/><path d="M193 334 c-1 -2 -1 -2 1 -4 l2 -2 2 2 c2 2 2 2 1 4 -1 1 -3 2 -3 2 0
0 -2 -1 -3 -2z"/><path d="M305 334 c-1 -2 -1 -2 1 -4 l2 -2 2 2 c2 2 2 2 1 4 -1 1 -3 2 -3 2 0
0 -2 -1 -3 -2z"/><path d="M202 318 c-3 -3 -3 -10 0 -12 3 -3 6 0 6 6 0 7 -3 10 -6 6z"/><path d="M298 318 c-1 -1 -2 -3 -2 -4 0 -1 -1 -2 -2 -2 -2 0 -4 -1 -5 -2 -1
-2 -1 -2 1 -4 2 -2 2 -2 4 -1 1 1 2 3 2 5 0 1 1 2 2 2 2 0 4 1 5 2 1 2 1 2 0
4 -3 2 -3 2 -5 0z"/><path d="M217 302 c-1 -2 -1 -2 1 -4 l2 -2 2 2 c2 2 2 2 1 4 -1 1 -3 2 -3 2 0
0 -2 -1 -3 -2z"/><path d="M225 286 c-1 -2 -1 -2 1 -4 l2 -2 2 2 c2 2 2 2 1 4 -1 1 -3 2 -3 2 0
0 -2 -1 -3 -2z"/><path d="M266 278 c-3 -3 0 -6 6 -6 6 0 9 3 7 6 -2 1 -4 2 -7 2 -3 0 -5 -1 -6
-2z"/><path d="M234 270 c-2 -2 -2 -2 0 -4 0 -1 2 -2 4 -2 1 0 2 -1 2 -2 0 -2 1 -4
2 -5 2 -1 2 -1 4 1 2 2 2 2 1 4 -1 1 -3 2 -5 2 -1 0 -2 1 -2 2 0 2 -3 6 -4 6
0 0 -2 -1 -2 -2z"/><path d="M257 254 c-1 -2 -1 -2 1 -4 l2 -2 2 2 c2 2 2 2 1 4 -1 1 -3 2 -3 2 0
0 -2 -1 -3 -2z"/><path d="M353 158 c-1 -2 -1 -2 1 -4 l2 -2 2 2 c2 2 2 2 1 4 -1 1 -3 2 -3 2 0
0 -2 -1 -3 -2z"/><path d="M161 150 c-1 -2 -1 -2 1 -4 l2 -2 2 2 c2 2 2 2 1 4 -1 1 -3 2 -3 2 0
0 -2 -1 -3 -2z"/><path d="M337 150 c-1 -2 -1 -2 1 -4 l2 -2 2 2 c2 2 2 2 1 4 -1 1 -3 2 -3 2 0
0 -2 -1 -3 -2z"/><path d="M186 142 c-2 -2 -2 -2 4 -8 5 -6 6 -6 10 -6 3 0 5 1 6 2 2 2 2 2 -4
8 -5 6 -6 6 -10 6 -3 0 -5 -1 -6 -2z"/><path d="M306 142 c-3 -2 -3 -10 0 -12 2 -2 2 -2 8 4 6 6 6 6 4 8 -2 3 -10 3
-12 0z"/><path d="M273 86 c-1 -2 -1 -2 1 -4 l2 -2 2 2 c2 2 2 2 1 4 -1 1 -3 2 -3 2 0
0 -2 -1 -3 -2z"/><path d="M249 54 c-1 -2 -1 -2 1 -4 l2 -2 2 2 c2 2 2 2 1 4 -1 1 -3 2 -3 2 0
0 -2 -1 -3 -2z"/></g>
  <g transform="scale(0.125 0.125) translate(0.000000,512.000000) scale(1.000000,-1.000000)" fill="#6f274c" stroke="none"><path d="M210 382 c-3 -3 0 -6 6 -6 3 0 5 1 7 2 2 3 -1 6 -7 6 -3 0 -5 -1 -6
-2z"/><path d="M282 382 c-3 -3 0 -6 6 -6 6 0 9 3 7 6 -2 1 -4 2 -7 2 -3 0 -5 -1 -6
-2z"/><path d="M193 374 c-1 -2 -1 -2 1 -4 l2 -2 2 2 c2 2 2 2 1 4 -1 1 -3 2 -3 2 0
0 -2 -1 -3 -2z"/><path d="M233 374 c-1 -2 -1 -2 1 -4 l2 -2 2 2 c2 2 2 2 1 4 -1 1 -3 2 -3 2 0
0 -2 -1 -3 -2z"/><path d="M242 358 c-2 -2 -2 -2 0 -4 0 -1 2 -2 4 -2 1 0 2 -1 2 -2 0 -2 1 -4
2 -5 2 -1 2 -1 4 1 2 2 2 2 1 4 -1 1 -3 2 -5 2 -1 0 -2 1 -2 2 0 2 -3 6 -4 6
0 0 -2 -1 -2 -2z"/><path d="M313 358 c-1 -2 -1 -2 1 -4 l2 -2 2 2 c2 2 2 2 1 4 -1 1 -3 2 -3 2 0
0 -2 -1 -3 -2z"/><path d="M193 334 c-1 -2 -1 -2 1 -4 l2 -2 2 2 c2 2 2 2 1 4 -1 1 -3 2 -3 2 0
0 -2 -1 -3 -2z"/><path d="M305 334 c-1 -2 -1 -2 1 -4 l2 -2 2 2 c2 2 2 2 1 4 -1 1 -3 2 -3 2 0
0 -2 -1 -3 -2z"/><path d="M289 310 c-1 -2 -1 -2 1 -4 l2 -2 2 2 c2 2 2 2 1 4 -1 1 -3 2 -3 2 0
0 -2 -1 -3 -2z"/><path d="M217 302 c-1 -2 -1 -2 1 -4 l2 -2 2 2 c2 2 2 2 1 4 -1 1 -3 2 -3 2 0
0 -2 -1 -3 -2z"/><path d="M265 278 c-1 -2 -1 -2 1 -4 l2 -2 2 2 c2 2 2 2 1 4 -1 1 -3 2 -3 2 0
0 -2 -1 -3 -2z"/></g>
</svg>
