<?xml version="1.0" encoding="UTF-8"?>
<svg xmlns="http://www.w3.org/2000/svg" viewBox="0 0 64 64" shape-rendering="crispEdges">
<rect x="25" y="10" width="1" height="1" fill="#656565" fill-opacity="0.075"/>
<rect x="26" y="10" width="1" height="1" fill="#545454" fill-opacity="0.380"/>
<rect x="27" y="10" width="1" height="1" fill="#414141" fill-opacity="0.725"/>
<rect x="28" y="10" width="1" height="1" fill="#252525" fill-opacity="0.757"/>
<rect x="29" y="10" width="5" height="1" fill="#080808" fill-opacity="0.827"/>
<rect x="34" y="10" width="1" height="1" fill="#272727" fill-opacity="0.796"/>
<rect x="35" y="10" width="1" height="1" fill="#414141" fill-opacity="0.725"/>
<rect x="36" y="10" width="1" height="1" fill="#545454" fill-opacity="0.498"/>
<rect x="37" y="10" width="1" height="1" fill="#656565" fill-opacity="0.075"/>
<rect x="22" y="11" width="1" height="1" fill="#6f6f6f" fill-opacity="0.122"/>
<rect x="23" y="11" width="1" height="1" fill="#484848" fill-opacity="0.353"/>
<rect x="24" y="11" width="1" height="1" fill="#464646" fill-opacity="0.824"/>
<rect x="25" y="11" width="1" height="1" fill="#333232"/>
<rect x="26" y="11" width="1" height="1" fill="#383838"/>
<rect x="27" y="11" width="1" height="1" fill="#616161"/>
<rect x="28" y="11" width="1" height="1" fill="#9e9d9e"/>
<rect x="29" y="11" width="1" height="1" fill="#d3d3d3"/>
<rect x="30" y="11" width="1" height="1" fill="#f5f5f5"/>
<rect x="31" y="11" width="1" height="1" fill="#fffefe"/>
<rect x="32" y="11" width="1" height="1" fill="#f3f3f3"/>
<rect x="33" y="11" width="1" height="1" fill="#d0d0d0"/>
<rect x="34" y="11" width="1" height="1" fill="#9e9d9e"/>
<rect x="35" y="11" width="1" height="1" fill="#6b6b6b"/>
<rect x="36" y="11" width="1" height="1" fill="#3b3b3b" fill-opacity="0.992"/>
<rect x="37" y="11" width="1" height="1" fill="#333232"/>
<rect x="38" y="11" width="1" height="1" fill="#414141" fill-opacity="0.878"/>
<rect x="39" y="11" width="1" height="1" fill="#484848" fill-opacity="0.404"/>
<rect x="40" y="11" width="1" height="1" fill="#535353" fill-opacity="0.145"/>
<rect x="20" y="12" width="1" height="1" fill="#535353" fill-opacity="0.145"/>
<rect x="21" y="12" width="1" height="1" fill="#252525" fill-opacity="0.482"/>
<rect x="22" y="12" width="1" height="1" fill="#313131" fill-opacity="0.820"/>
<rect x="23" y="12" width="1" height="1" fill="#616161"/>
<rect x="24" y="12" width="1" height="1" fill="#9e9d9e"/>
<rect x="25" y="12" width="1" height="1" fill="#d7d7d7"/>
<rect x="26" y="12" width="1" height="1" fill="#fbfbfb"/>
<rect x="27" y="12" width="9" height="1" fill="#ffffff"/>
<rect x="36" y="12" width="1" height="1" fill="#fbfbfb"/>
<rect x="37" y="12" width="1" height="1" fill="#dcdcdc"/>
<rect x="38" y="12" width="1" height="1" fill="#9e9d9e"/>
<rect x="39" y="12" width="1" height="1" fill="#656465"/>
<rect x="40" y="12" width="1" height="1" fill="#393939" fill-opacity="0.839"/>
<rect x="41" y="12" width="1" height="1" fill="#252525" fill-opacity="0.482"/>
<rect x="42" y="12" width="1" height="1" fill="#6b6b6b" fill-opacity="0.188"/>
<rect x="19" y="13" width="1" height="1" fill="#636363" fill-opacity="0.251"/>
<rect x="20" y="13" width="1" height="1" fill="#282828" fill-opacity="0.894"/>
<rect x="21" y="13" width="1" height="1" fill="#545454" fill-opacity="0.992"/>
<rect x="22" y="13" width="1" height="1" fill="#d0d0d0"/>
<rect x="23" y="13" width="1" height="1" fill="#f7f7f7"/>
<rect x="24" y="13" width="1" height="1" fill="#fffefe"/>
<rect x="25" y="13" width="14" height="1" fill="#ffffff"/>
<rect x="39" y="13" width="1" height="1" fill="#f7f7f7"/>
<rect x="40" y="13" width="1" height="1" fill="#d7d7d7"/>
<rect x="41" y="13" width="1" height="1" fill="#585858"/>
<rect x="42" y="13" width="1" height="1" fill="#212121" fill-opacity="0.918"/>
<rect x="43" y="13" width="1" height="1" fill="#575757" fill-opacity="0.302"/>
<rect x="17" y="14" width="1" height="1" fill="#656565" fill-opacity="0.075"/>
<rect x="18" y="14" width="1" height="1" fill="#383838" fill-opacity="0.498"/>
<rect x="19" y="14" width="1" height="1" fill="#333232"/>
<rect x="20" y="14" width="1" height="1" fill="#999898"/>
<rect x="21" y="14" width="1" height="1" fill="#f7f7f7"/>
<rect x="22" y="14" width="19" height="1" fill="#ffffff"/>
<rect x="41" y="14" width="1" height="1" fill="#fbfbfb"/>
<rect x="42" y="14" width="1" height="1" fill="#9e9d9e"/>
<rect x="43" y="14" width="1" height="1" fill="#333232"/>
<rect x="44" y="14" width="1" height="1" fill="#3b3b3b" fill-opacity="0.549"/>
<rect x="45" y="14" width="1" height="1" fill="#484848" fill-opacity="0.094"/>
<rect x="17" y="15" width="1" height="1" fill="#353535" fill-opacity="0.635"/>
<rect x="18" y="15" width="1" height="1" fill="#5d5c5d"/>
<rect x="19" y="15" width="1" height="1" fill="#cccccc"/>
<rect x="20" y="15" width="1" height="1" fill="#fffefe"/>
<rect x="21" y="15" width="21" height="1" fill="#ffffff"/>
<rect x="42" y="15" width="1" height="1" fill="#fbfbfb"/>
<rect x="43" y="15" width="1" height="1" fill="#d0d0d0"/>
<rect x="44" y="15" width="1" height="1" fill="#616161"/>
<rect x="45" y="15" width="1" height="1" fill="#313131" fill-opacity="0.702"/>
<rect x="16" y="16" width="1" height="1" fill="#464646" fill-opacity="0.824"/>
<rect x="17" y="16" width="1" height="1" fill="#424142"/>
<rect x="18" y="16" width="1" height="1" fill="#eaeaea"/>
<rect x="19" y="16" width="25" height="1" fill="#ffffff"/>
<rect x="44" y="16" width="1" height="1" fill="#ededed"/>
<rect x="45" y="16" width="1" height="1" fill="#4d4d4d" fill-opacity="0.996"/>
<rect x="46" y="16" width="1" height="1" fill="#414141" fill-opacity="0.878"/>
<rect x="15" y="17" width="1" height="1" fill="#383838" fill-opacity="0.498"/>
<rect x="16" y="17" width="1" height="1" fill="#424142"/>
<rect x="17" y="17" width="1" height="1" fill="#dfdfdf"/>
<rect x="18" y="17" width="27" height="1" fill="#ffffff"/>
<rect x="45" y="17" width="1" height="1" fill="#e3e2e3"/>
<rect x="46" y="17" width="1" height="1" fill="#3b3b3b" fill-opacity="0.992"/>
<rect x="47" y="17" width="1" height="1" fill="#3b3b3b" fill-opacity="0.549"/>
<rect x="48" y="17" width="1" height="1" fill="#707070" fill-opacity="0.047"/>
<rect x="14" y="18" width="1" height="1" fill="#373737" fill-opacity="0.184"/>
<rect x="15" y="18" width="1" height="1" fill="#363636" fill-opacity="0.894"/>
<rect x="16" y="18" width="1" height="1" fill="#d3d3d3"/>
<rect x="17" y="18" width="29" height="1" fill="#ffffff"/>
<rect x="46" y="18" width="1" height="1" fill="#d7d7d7"/>
<rect x="47" y="18" width="1" height="1" fill="#333333" fill-opacity="0.949"/>
<rect x="48" y="18" width="1" height="1" fill="#282828" fill-opacity="0.216"/>
<rect x="14" y="19" width="1" height="1" fill="#393939" fill-opacity="0.839"/>
<rect x="15" y="19" width="1" height="1" fill="#959494"/>
<rect x="16" y="19" width="1" height="1" fill="#fffefe"/>
<rect x="17" y="19" width="30" height="1" fill="#ffffff"/>
<rect x="47" y="19" width="1" height="1" fill="#aaaaaa"/>
<rect x="48" y="19" width="1" height="1" fill="#393939" fill-opacity="0.839"/>
<rect x="13" y="20" width="1" height="1" fill="#575757" fill-opacity="0.302"/>
<rect x="14" y="20" width="1" height="1" fill="#424142"/>
<rect x="15" y="20" width="1" height="1" fill="#e7e7e7"/>
<rect x="16" y="20" width="31" height="1" fill="#ffffff"/>
<rect x="47" y="20" width="1" height="1" fill="#e7e7e7"/>
<rect x="48" y="20" width="1" height="1" fill="#494949" fill-opacity="0.988"/>
<rect x="49" y="20" width="1" height="1" fill="#545454" fill-opacity="0.341"/>
<rect x="13" y="21" width="1" height="1" fill="#272727" fill-opacity="0.820"/>
<rect x="14" y="21" width="1" height="1" fill="#959494"/>
<rect x="15" y="21" width="32" height="1" fill="#ffffff"/>
<rect x="47" y="21" width="1" height="1" fill="#fffefe"/>
<rect x="48" y="21" width="1" height="1" fill="#959494"/>
<rect x="49" y="21" width="1" height="1" fill="#282828" fill-opacity="0.894"/>
<rect x="12" y="22" width="1" height="1" fill="#656565" fill-opacity="0.220"/>
<rect x="13" y="22" width="1" height="1" fill="#161616" fill-opacity="0.910"/>
<rect x="14" y="22" width="1" height="1" fill="#f1f0f1"/>
<rect x="15" y="22" width="33" height="1" fill="#ffffff"/>
<rect x="48" y="22" width="1" height="1" fill="#ededed"/>
<rect x="49" y="22" width="1" height="1" fill="#121111"/>
<rect x="50" y="22" width="1" height="1" fill="#636363" fill-opacity="0.251"/>
<rect x="12" y="23" width="1" height="1" fill="#404040" fill-opacity="0.424"/>
<rect x="13" y="23" width="1" height="1" fill="#454545" fill-opacity="0.984"/>
<rect x="14" y="23" width="35" height="1" fill="#ffffff"/>
<rect x="49" y="23" width="1" height="1" fill="#3b3b3b" fill-opacity="0.992"/>
<rect x="50" y="23" width="1" height="1" fill="#3f3f3f" fill-opacity="0.486"/>
<rect x="12" y="24" width="1" height="1" fill="#252525" fill-opacity="0.482"/>
<rect x="13" y="24" width="1" height="1" fill="#7c7c7c"/>
<rect x="14" y="24" width="35" height="1" fill="#ffffff"/>
<rect x="49" y="24" width="1" height="1" fill="#7c7c7c"/>
<rect x="50" y="24" width="1" height="1" fill="#212121" fill-opacity="0.592"/>
<rect x="12" y="25" width="1" height="1" fill="#000000" fill-opacity="0.494"/>
<rect x="13" y="25" width="1" height="1" fill="#b3b3b3"/>
<rect x="14" y="25" width="35" height="1" fill="#ffffff"/>
<rect x="49" y="25" width="1" height="1" fill="#b3b3b3"/>
<rect x="50" y="25" width="1" height="1" fill="#010101" fill-opacity="0.584"/>
<rect x="12" y="26" width="1" height="1" fill="#000000" fill-opacity="0.494"/>
<rect x="13" y="26" width="1" height="1" fill="#d0d0d0"/>
<rect x="14" y="26" width="35" height="1" fill="#ffffff"/>
<rect x="49" y="26" width="1" height="1" fill="#dcdcdc"/>
<rect x="50" y="26" width="1" height="1" fill="#010101" fill-opacity="0.584"/>
<rect x="12" y="27" width="1" height="1" fill="#000000" fill-opacity="0.494"/>
<rect x="13" y="27" width="1" height="1" fill="#cccccc"/>
<rect x="14" y="27" width="35" height="1" fill="#ffffff"/>
<rect x="49" y="27" width="1" height="1" fill="#d0d0d0"/>
<rect x="50" y="27" width="1" height="1" fill="#010101" fill-opacity="0.584"/>
<rect x="12" y="28" width="1" height="1" fill="#000000" fill-opacity="0.494"/>
<rect x="13" y="28" width="1" height="1" fill="#a5a5a5"/>
<rect x="14" y="28" width="35" height="1" fill="#ffffff"/>
<rect x="49" y="28" width="1" height="1" fill="#959494"/>
<rect x="50" y="28" width="1" height="1" fill="#191919" fill-opacity="0.604"/>
<rect x="12" y="29" width="1" height="1" fill="#383838" fill-opacity="0.498"/>
<rect x="13" y="29" width="1" height="1" fill="#616161"/>
<rect x="14" y="29" width="35" height="1" fill="#ffffff"/>
<rect x="49" y="29" width="1" height="1" fill="#545454" fill-opacity="0.992"/>
<rect x="50" y="29" width="1" height="1" fill="#242424" fill-opacity="0.541"/>
<rect x="12" y="30" width="1" height="1" fill="#545454" fill-opacity="0.341"/>
<rect x="13" y="30" width="1" height="1" fill="#212121" fill-opacity="0.965"/>
<rect x="14" y="30" width="1" height="1" fill="#fbfbfb"/>
<rect x="15" y="30" width="33" height="1" fill="#ffffff"/>
<rect x="48" y="30" width="1" height="1" fill="#fbfbfb"/>
<rect x="49" y="30" width="1" height="1" fill="#212021"/>
<rect x="50" y="30" width="1" height="1" fill="#545454" fill-opacity="0.380"/>
<rect x="12" y="31" width="1" height="1" fill="#656565" fill-opacity="0.075"/>
<rect x="13" y="31" width="1" height="1" fill="#161616" fill-opacity="0.910"/>
<rect x="14" y="31" width="1" height="1" fill="#bfbfbf"/>
<rect x="15" y="31" width="33" height="1" fill="#ffffff"/>
<rect x="48" y="31" width="1" height="1" fill="#bfbfbf"/>
<rect x="49" y="31" width="1" height="1" fill="#0f0f0f" fill-opacity="0.933"/>
<rect x="50" y="31" width="1" height="1" fill="#6f6f6f" fill-opacity="0.122"/>
<rect x="13" y="32" width="1" height="1" fill="#555555" fill-opacity="0.675"/>
<rect x="14" y="32" width="1" height="1" fill="#585858"/>
<rect x="15" y="32" width="1" height="1" fill="#f9f9f9"/>
<rect x="16" y="32" width="31" height="1" fill="#ffffff"/>
<rect x="47" y="32" width="1" height="1" fill="#fbfbfb"/>
<rect x="48" y="32" width="1" height="1" fill="#616161"/>
<rect x="49" y="32" width="1" height="1" fill="#555555" fill-opacity="0.675"/>
<rect x="13" y="33" width="1" height="1" fill="#656565" fill-opacity="0.075"/>
<rect x="14" y="33" width="1" height="1" fill="#303030" fill-opacity="0.953"/>
<rect x="15" y="33" width="1" height="1" fill="#bfbfbf"/>
<rect x="16" y="33" width="31" height="1" fill="#ffffff"/>
<rect x="47" y="33" width="1" height="1" fill="#c4c4c4"/>
<rect x="48" y="33" width="1" height="1" fill="#303030" fill-opacity="0.953"/>
<rect x="49" y="33" width="1" height="1" fill="#656565" fill-opacity="0.075"/>
<rect x="14" y="34" width="1" height="1" fill="#424242" fill-opacity="0.451"/>
<rect x="15" y="34" width="1" height="1" fill="#616161"/>
<rect x="16" y="34" width="1" height="1" fill="#f9f9f9"/>
<rect x="17" y="34" width="30" height="1" fill="#ffffff"/>
<rect x="47" y="34" width="1" height="1" fill="#5d5c5d"/>
<rect x="48" y="34" width="1" height="1" fill="#3b3b3b" fill-opacity="0.549"/>
<rect x="14" y="35" width="1" height="1" fill="#656565" fill-opacity="0.075"/>
<rect x="15" y="35" width="1" height="1" fill="#252525" fill-opacity="0.757"/>
<rect x="16" y="35" width="1" height="1" fill="#767575"/>
<rect x="17" y="35" width="28" height="1" fill="#ffffff"/>
<rect x="45" y="35" width="1" height="1" fill="#fdfdfd"/>
<rect x="46" y="35" width="1" height="1" fill="#898889"/>
<rect x="47" y="35" width="1" height="1" fill="#171717" fill-opacity="0.808"/>
<rect x="48" y="35" width="1" height="1" fill="#6f6f6f" fill-opacity="0.122"/>
<rect x="15" y="36" width="1" height="1" fill="#636363" fill-opacity="0.251"/>
<rect x="16" y="36" width="1" height="1" fill="#161616" fill-opacity="0.910"/>
<rect x="17" y="36" width="1" height="1" fill="#9e9d9e"/>
<rect x="18" y="36" width="1" height="1" fill="#f5f5f5"/>
<rect x="19" y="36" width="25" height="1" fill="#ffffff"/>
<rect x="44" y="36" width="1" height="1" fill="#f9f9f9"/>
<rect x="45" y="36" width="1" height="1" fill="#999898"/>
<rect x="46" y="36" width="1" height="1" fill="#212121" fill-opacity="0.965"/>
<rect x="47" y="36" width="1" height="1" fill="#636363" fill-opacity="0.251"/>
<rect x="16" y="37" width="1" height="1" fill="#4e4e4e" fill-opacity="0.263"/>
<rect x="17" y="37" width="1" height="1" fill="#343434" fill-opacity="0.918"/>
<rect x="18" y="37" width="1" height="1" fill="#959494"/>
<rect x="19" y="37" width="24" height="1" fill="#ffffff"/>
<rect x="43" y="37" width="1" height="1" fill="#f9f9f9"/>
<rect x="44" y="37" width="1" height="1" fill="#959494"/>
<rect x="45" y="37" width="1" height="1" fill="#333333" fill-opacity="0.949"/>
<rect x="46" y="37" width="1" height="1" fill="#454545" fill-opacity="0.306"/>
<rect x="17" y="38" width="1" height="1" fill="#4e4e4e" fill-opacity="0.263"/>
<rect x="18" y="38" width="1" height="1" fill="#212121" fill-opacity="0.918"/>
<rect x="19" y="38" width="1" height="1" fill="#696869"/>
<rect x="20" y="38" width="1" height="1" fill="#eaeaea"/>
<rect x="21" y="38" width="1" height="1" fill="#fffefe"/>
<rect x="22" y="38" width="20" height="1" fill="#ffffff"/>
<rect x="42" y="38" width="1" height="1" fill="#f3f3f3"/>
<rect x="43" y="38" width="1" height="1" fill="#6b6b6b"/>
<rect x="44" y="38" width="1" height="1" fill="#0f0f0f" fill-opacity="0.933"/>
<rect x="45" y="38" width="1" height="1" fill="#454545" fill-opacity="0.306"/>
<rect x="18" y="39" width="1" height="1" fill="#656565" fill-opacity="0.220"/>
<rect x="19" y="39" width="1" height="1" fill="#202020" fill-opacity="0.651"/>
<rect x="20" y="39" width="1" height="1" fill="#525051"/>
<rect x="21" y="39" width="1" height="1" fill="#aaaaaa"/>
<rect x="22" y="39" width="1" height="1" fill="#f5f5f5"/>
<rect x="23" y="39" width="17" height="1" fill="#ffffff"/>
<rect x="40" y="39" width="1" height="1" fill="#f5f5f5"/>
<rect x="41" y="39" width="1" height="1" fill="#aeadae"/>
<rect x="42" y="39" width="1" height="1" fill="#525051"/>
<rect x="43" y="39" width="1" height="1" fill="#292929" fill-opacity="0.725"/>
<rect x="44" y="39" width="1" height="1" fill="#656565" fill-opacity="0.220"/>
<rect x="19" y="40" width="1" height="1" fill="#707070" fill-opacity="0.047"/>
<rect x="20" y="40" width="1" height="1" fill="#404040" fill-opacity="0.424"/>
<rect x="21" y="40" width="1" height="1" fill="#303030" fill-opacity="0.922"/>
<rect x="22" y="40" width="1" height="1" fill="#494949" fill-opacity="0.988"/>
<rect x="23" y="40" width="1" height="1" fill="#aeadae"/>
<rect x="24" y="40" width="1" height="1" fill="#fbfbfb"/>
<rect x="25" y="40" width="13" height="1" fill="#ffffff"/>
<rect x="38" y="40" width="1" height="1" fill="#fffefe"/>
<rect x="39" y="40" width="1" height="1" fill="#b3b3b3"/>
<rect x="40" y="40" width="1" height="1" fill="#424142"/>
<rect x="41" y="40" width="1" height="1" fill="#303030" fill-opacity="0.953"/>
<rect x="42" y="40" width="1" height="1" fill="#424242" fill-opacity="0.451"/>
<rect x="43" y="40" width="1" height="1" fill="#656565" fill-opacity="0.075"/>
<rect x="22" y="41" width="1" height="1" fill="#545454" fill-opacity="0.498"/>
<rect x="23" y="41" width="1" height="1" fill="#171717" fill-opacity="0.843"/>
<rect x="24" y="41" width="1" height="1" fill="#333232"/>
<rect x="25" y="41" width="1" height="1" fill="#858585"/>
<rect x="26" y="41" width="1" height="1" fill="#d0d0d0"/>
<rect x="27" y="41" width="9" height="1" fill="#ffffff"/>
<rect x="36" y="41" width="1" height="1" fill="#cccccc"/>
<rect x="37" y="41" width="1" height="1" fill="#7c7c7c"/>
<rect x="38" y="41" width="1" height="1" fill="#2a2929"/>
<rect x="39" y="41" width="1" height="1" fill="#161616" fill-opacity="0.910"/>
<rect x="40" y="41" width="1" height="1" fill="#3b3b3b" fill-opacity="0.549"/>
<rect x="23" y="42" width="1" height="1" fill="#6f6f6f" fill-opacity="0.122"/>
<rect x="24" y="42" width="1" height="1" fill="#484848" fill-opacity="0.404"/>
<rect x="25" y="42" width="1" height="1" fill="#242424" fill-opacity="0.541"/>
<rect x="26" y="42" width="1" height="1" fill="#080808" fill-opacity="0.827"/>
<rect x="27" y="42" width="1" height="1" fill="#a0a0a0" fill-opacity="0.898"/>
<rect x="28" y="42" width="3" height="1" fill="#ffffff"/>
<rect x="31" y="42" width="1" height="1" fill="#fffefe"/>
<rect x="32" y="42" width="4" height="1" fill="#ffffff"/>
<rect x="36" y="42" width="1" height="1" fill="#161616" fill-opacity="0.910"/>
<rect x="37" y="42" width="1" height="1" fill="#191919" fill-opacity="0.604"/>
<rect x="38" y="42" width="1" height="1" fill="#484848" fill-opacity="0.404"/>
<rect x="39" y="42" width="1" height="1" fill="#6f6f6f" fill-opacity="0.122"/>
<rect x="26" y="43" width="2" height="1" fill="#030303" fill-opacity="0.624"/>
<rect x="28" y="43" width="7" height="1" fill="#ffffff"/>
<rect x="35" y="43" width="1" height="1" fill="#636363" fill-opacity="0.251"/>
<rect x="36" y="43" width="1" height="1" fill="#000000" fill-opacity="0.718"/>
<rect x="26" y="44" width="1" height="1" fill="#000000" fill-opacity="0.184"/>
<rect x="27" y="44" width="1" height="1" fill="#000000" fill-opacity="0.910"/>
<rect x="28" y="44" width="1" height="1" fill="#b7b7b7" fill-opacity="0.647"/>
<rect x="29" y="44" width="5" height="1" fill="#ffffff"/>
<rect x="34" y="44" width="1" height="1" fill="#e9e9e9" fill-opacity="0.949"/>
<rect x="35" y="44" width="1" height="1" fill="#080808" fill-opacity="0.827"/>
<rect x="36" y="44" width="1" height="1" fill="#010101" fill-opacity="0.341"/>
<rect x="27" y="45" width="1" height="1" fill="#010101" fill-opacity="0.459"/>
<rect x="28" y="45" width="1" height="1" fill="#292929" fill-opacity="0.725"/>
<rect x="29" y="45" width="1" height="1" fill="#f0f0f0" fill-opacity="0.929"/>
<rect x="30" y="45" width="3" height="1" fill="#ffffff"/>
<rect x="33" y="45" width="1" height="1" fill="#fdfdfd"/>
<rect x="34" y="45" width="1" height="1" fill="#878787" fill-opacity="0.851"/>
<rect x="35" y="45" width="1" height="1" fill="#020202" fill-opacity="0.655"/>
<rect x="28" y="46" width="1" height="1" fill="#000000" fill-opacity="0.718"/>
<rect x="29" y="46" width="1" height="1" fill="#bfbfbf"/>
<rect x="30" y="46" width="3" height="1" fill="#ffffff"/>
<rect x="33" y="46" width="1" height="1" fill="#d7d7d7"/>
<rect x="34" y="46" width="1" height="1" fill="#000000" fill-opacity="0.765"/>
<rect x="35" y="46" width="1" height="1" fill="#030303" fill-opacity="0.090"/>
<rect x="28" y="47" width="1" height="1" fill="#010101" fill-opacity="0.341"/>
<rect x="29" y="47" width="1" height="1" fill="#020202" fill-opacity="0.655"/>
<rect x="30" y="47" width="1" height="1" fill="#f1f1f1" fill-opacity="0.812"/>
<rect x="31" y="47" width="1" height="1" fill="#ffffff"/>
<rect x="32" y="47" width="1" height="1" fill="#f9f9f9"/>
<rect x="33" y="47" width="1" height="1" fill="#191919" fill-opacity="0.604"/>
<rect x="34" y="47" width="1" height="1" fill="#030303" fill-opacity="0.533"/>
<rect x="28" y="48" width="1" height="1" fill="#080808" fill-opacity="0.043"/>
<rect x="29" y="48" width="1" height="1" fill="#010101" fill-opacity="0.686"/>
<rect x="30" y="48" width="1" height="1" fill="#242424" fill-opacity="0.541"/>
<rect x="31" y="48" width="1" height="1" fill="#ffffff"/>
<rect x="32" y="48" width="1" height="1" fill="#8b8b8b" fill-opacity="0.678"/>
<rect x="33" y="48" width="1" height="1" fill="#000000" fill-opacity="0.765"/>
<rect x="34" y="48" width="1" height="1" fill="#000000" fill-opacity="0.184"/>
<rect x="29" y="49" width="1" height="1" fill="#000000" fill-opacity="0.184"/>
<rect x="30" y="49" width="1" height="1" fill="#000000" fill-opacity="0.851"/>
<rect x="31" y="49" width="1" height="1" fill="#8b8b8b" fill-opacity="0.678"/>
<rect x="32" y="49" width="1" height="1" fill="#212121" fill-opacity="0.827"/>
<rect x="33" y="49" width="1" height="1" fill="#000000" fill-opacity="0.494"/>
<rect x="30" y="50" width="1" height="1" fill="#000000" fill-opacity="0.494"/>
<rect x="31" y="50" width="1" height="1" fill="#000000" fill-opacity="0.851"/>
<rect x="32" y="50" width="1" height="1" fill="#010101" fill-opacity="0.686"/>
<rect x="33" y="50" width="1" height="1" fill="#000000" fill-opacity="0.063"/>
<rect x="30" y="51" width="1" height="1" fill="#030303" fill-opacity="0.090"/>
<rect x="31" y="51" width="1" height="1" fill="#010101" fill-opacity="0.686"/>
<rect x="32" y="51" width="1" height="1" fill="#000000" fill-opacity="0.275"/>
<rect x="31" y="52" width="1" height="1" fill="#010101" fill-opacity="0.137"/>
<rect x="32" y="52" width="1" height="1" fill="#080808" fill-opacity="0.043"/>
</svg>
