<?xml version="1.0" encoding="UTF-8"?>
<svg xmlns="http://www.w3.org/2000/svg" viewBox="0 0 64 64" width="64" height="64">
  <g transform="scale(0.125 0.125) translate(0.000000,512.000000) scale(1.000000,-1.000000)" fill="#ffffff" stroke="none"><path d="M192 484 l-3 -4 -9 0 -9 0 -3 -4 c-3 -4 -4 -4 -8 -4 -4 0 -5 0 -8 -4
-3 -4 -4 -4 -8 -4 -4 0 -5 0 -8 -4 -3 -4 -4 -4 -8 -4 -4 0 -4 0 -16 -12 -12
-12 -12 -12 -16 -12 -6 0 -8 -2 -8 -8 0 -4 0 -5 -12 -16 -12 -12 -12 -12 -12
-16 0 -4 0 -5 -4 -8 l-4 -3 0 -9 0 -9 -4 -3 -4 -3 0 -49 0 -49 4 -3 c4 -3 4
-4 4 -8 0 -4 0 -5 4 -8 4 -3 4 -4 4 -8 0 -4 0 -5 4 -8 4 -3 4 -4 4 -8 l0 -4
22 -22 c22 -22 22 -22 26 -22 4 0 5 0 12 -8 7 -8 8 -8 12 -8 4 0 5 0 8 -4 l3
-4 9 0 9 0 3 -4 c3 -4 4 -4 8 -4 6 0 16 -10 16 -16 0 -4 0 -5 8 -12 8 -7 8 -8
8 -12 0 -4 0 -5 4 -8 4 -3 4 -4 4 -8 0 -4 0 -5 4 -8 4 -3 4 -4 4 -8 0 -4 0 -5
8 -12 8 -7 8 -8 8 -12 0 -3 1 -5 2 -6 2 -2 2 -2 8 4 6 5 6 6 6 10 0 4 0 5 4 8
4 3 4 4 4 8 0 4 0 5 8 12 8 7 8 8 8 12 0 4 0 5 4 8 4 3 4 4 4 8 0 4 0 5 4 8 4
3 4 4 4 8 0 4 0 5 6 10 5 6 6 6 10 6 4 0 5 0 8 4 l3 4 9 0 9 0 3 4 c3 4 4 4 8
4 4 0 5 0 12 8 7 8 8 8 12 8 4 0 4 0 26 22 22 22 22 22 22 26 0 4 0 5 8 12 l8
8 0 8 0 9 4 3 4 3 0 9 0 9 4 3 4 3 0 25 0 25 -4 3 -4 3 0 13 0 13 -4 3 c-4 3
-4 4 -4 8 0 4 0 5 -4 8 -4 3 -4 4 -4 8 0 4 0 5 -8 12 -8 7 -8 8 -8 12 0 4 0 5
-10 14 -9 10 -10 10 -14 10 -4 0 -5 0 -12 8 -7 8 -8 8 -12 8 -4 0 -5 0 -8 4
-3 4 -4 4 -8 4 -4 0 -5 0 -8 4 -3 4 -4 4 -8 4 -4 0 -5 0 -8 4 l-3 4 -9 0 -9 0
-3 4 -3 4 -57 0 -57 0 -3 -4z"/></g>
  <g transform="scale(0.125 0.125) translate(0.000000,512.000000) scale(1.000000,-1.000000)" fill="#3a3a3a" stroke="none"><path d="M192 484 l-3 -4 -9 0 -9 0 -3 -4 c-3 -4 -4 -4 -8 -4 -4 0 -5 0 -8 -4
-3 -4 -4 -4 -8 -4 -4 0 -5 0 -8 -4 -3 -4 -4 -4 -8 -4 -4 0 -4 0 -16 -12 -12
-12 -12 -12 -16 -12 -6 0 -8 -2 -8 -8 0 -4 0 -5 -12 -16 -12 -12 -12 -12 -12
-16 0 -4 0 -5 -4 -8 l-4 -3 0 -9 0 -9 -4 -3 -4 -3 0 -49 0 -49 4 -3 c4 -3 4
-4 4 -8 0 -4 0 -5 4 -8 4 -3 4 -4 4 -8 0 -4 0 -5 4 -8 4 -3 4 -4 4 -8 l0 -4
22 -22 c22 -22 22 -22 26 -22 4 0 5 0 12 -8 7 -8 8 -8 12 -8 4 0 5 0 8 -4 l3
-4 9 0 9 0 3 -4 c3 -4 4 -4 8 -4 6 0 16 -10 16 -16 0 -4 0 -5 8 -12 8 -7 8 -8
8 -12 0 -4 0 -5 4 -8 4 -3 4 -4 4 -8 0 -4 0 -5 4 -8 4 -3 4 -4 4 -8 0 -4 0 -5
8 -12 8 -7 8 -8 8 -12 0 -3 1 -5 2 -6 2 -2 2 -2 8 4 6 5 6 6 6 10 0 4 0 5 4 8
4 3 4 4 4 8 0 4 0 5 8 12 8 7 8 8 8 12 0 4 0 5 4 8 4 3 4 4 4 8 0 4 0 5 4 8 4
3 4 4 4 8 0 4 0 5 6 10 5 6 6 6 10 6 4 0 5 0 8 4 l3 4 9 0 9 0 3 4 c3 4 4 4 8
4 4 0 5 0 12 8 7 8 8 8 12 8 4 0 4 0 26 22 22 22 22 22 22 26 0 4 0 5 8 12 l8
8 0 8 0 9 4 3 4 3 0 9 0 9 4 3 4 3 0 25 0 25 -4 3 -4 3 0 13 0 13 -4 3 c-4 3
-4 4 -4 8 0 4 0 5 -4 8 -4 3 -4 4 -4 8 0 4 0 5 -8 12 -8 7 -8 8 -8 12 0 4 0 5
-10 14 -9 10 -10 10 -14 10 -4 0 -5 0 -12 8 -7 8 -8 8 -12 8 -4 0 -5 0 -8 4
-3 4 -4 4 -8 4 -4 0 -5 0 -8 4 -3 4 -4 4 -8 4 -4 0 -5 0 -8 4 l-3 4 -9 0 -9 0
-3 4 -3 4 -57 0 -57 0 -3 -4z m64 -8 l3 -4 21 0 21 0 3 -4 3 -4 9 0 9 0 3 -4
c3 -4 4 -4 8 -4 5 0 8 -2 8 -6 0 -2 0 -2 6 -2 7 0 10 -2 10 -6 0 -1 1 -2 2 -2
3 0 6 -3 6 -6 0 -2 0 -2 6 -2 l6 0 18 -18 c18 -18 18 -18 18 -22 0 -4 0 -5 4
-8 4 -3 4 -4 4 -8 0 -4 0 -5 4 -8 4 -3 4 -4 4 -8 0 -4 0 -5 4 -8 l4 -3 0 -41
0 -41 -4 -3 c-4 -3 -4 -4 -4 -8 0 -4 0 -5 -8 -12 -8 -7 -8 -8 -8 -12 0 -4 0
-4 -22 -26 -22 -22 -22 -22 -26 -22 -4 0 -5 0 -12 -8 l-8 -8 -8 0 -9 0 -3 -4
-3 -4 -9 0 -8 0 -6 -6 c-6 -5 -6 -6 -6 -10 0 -4 0 -5 -4 -8 -4 -3 -4 -4 -4 -8
0 -4 0 -5 -4 -8 -4 -3 -4 -4 -4 -8 0 -4 0 -5 -8 -12 -8 -7 -8 -8 -8 -12 0 -4
-1 -5 -6 -10 l-6 -6 -6 6 c-6 5 -6 6 -6 10 0 4 0 5 -4 8 -4 3 -4 4 -4 8 0 4 0
5 -8 12 l-8 8 0 8 0 8 -6 6 c-5 6 -6 6 -10 6 -4 0 -5 0 -8 4 -3 4 -4 4 -8 4
-4 0 -5 0 -8 4 l-3 4 -9 0 -8 0 -8 8 c-7 8 -8 8 -12 8 -4 0 -4 0 -30 26 l-26
26 0 4 c0 4 0 5 -4 8 l-4 3 0 9 0 9 -4 3 -4 3 0 37 0 37 4 3 4 3 0 9 0 8 8 8
c8 7 8 8 8 12 0 4 0 4 22 26 l22 22 6 0 c5 0 6 0 6 2 0 4 3 6 10 6 6 0 6 0 6
2 0 4 3 6 8 6 4 0 5 0 8 4 l3 4 9 0 9 0 3 4 3 4 21 0 21 0 3 4 c2 2 4 4 4 4 0
0 2 -2 4 -4z"/><path d="M160 446 c0 -4 -3 -6 -10 -6 -5 0 -6 0 -6 -2 0 -2 -3 -5 -8 -10 l-8
-8 0 -8 0 -9 -4 -3 -4 -3 0 -13 0 -13 4 -3 c4 -3 4 -4 4 -8 0 -4 0 -5 4 -8 4
-3 4 -4 4 -8 0 -4 0 -5 8 -12 8 -7 8 -8 8 -12 0 -4 0 -5 4 -8 4 -3 4 -4 4 -8
0 -4 0 -4 12 -16 12 -11 12 -12 12 -16 0 -4 0 -5 16 -20 16 -16 16 -16 16 -20
0 -4 0 -5 8 -12 8 -7 8 -8 8 -12 0 -4 0 -5 4 -8 l4 -3 0 -13 c0 -16 0 -16 12
-16 12 0 12 0 12 16 l0 12 8 8 c8 7 8 8 8 12 0 4 0 5 8 12 8 7 8 8 8 12 0 4 0
4 16 20 16 15 16 16 16 20 0 4 0 5 12 16 12 12 12 12 12 16 0 4 0 5 4 8 4 3 4
4 4 8 0 4 0 5 8 12 8 7 8 8 8 12 0 4 0 5 4 8 l4 3 0 21 0 21 -4 3 c-4 3 -4 4
-4 8 0 4 0 5 -4 8 -3 2 -4 4 -4 6 0 1 -1 2 -2 2 -3 0 -6 3 -6 6 0 2 0 2 -6 2
-7 0 -10 2 -10 6 l0 2 -26 0 -27 0 -3 -4 c-3 -4 -4 -4 -8 -4 -6 0 -16 -10 -16
-16 0 -4 -1 -5 -6 -10 -6 -6 -6 -6 -8 -4 -1 1 -2 3 -2 6 0 4 0 4 -10 14 -10
10 -10 10 -14 10 -4 0 -5 0 -8 4 l-3 4 -27 0 -26 0 0 -2z"/></g>
  <g transform="scale(0.125 0.125) translate(0.000000,512.000000) scale(1.000000,-1.000000)" fill="#ff2592" stroke="none"><path d="M202 478 c-1 -1 -2 -3 -2 -4 0 -2 0 -2 -10 -2 -12 0 -14 -1 -14 -6 0
-2 0 -2 -10 -2 l-11 0 -3 -4 c-3 -4 -4 -4 -8 -4 -4 0 -5 0 -10 -6 -4 -3 -6 -7
-6 -8 0 -1 -1 -2 -2 -2 -3 0 -6 -3 -6 -6 0 -2 -1 -2 -6 -2 l-6 0 -10 -10 -10
-10 0 -6 c0 -5 0 -6 -2 -6 -1 0 -6 -4 -12 -10 l-10 -10 0 -8 0 -9 -4 -3 -4 -3
0 -13 0 -13 -4 -3 -4 -3 0 -17 0 -17 4 -3 4 -3 0 -9 0 -8 -4 -4 c-4 -4 -4 -4
-3 -6 2 -1 4 -2 7 -2 6 0 8 -2 8 -8 0 -4 0 -5 4 -8 4 -3 4 -4 4 -8 l0 -4 30
-30 30 -30 4 0 c6 0 8 -2 8 -8 0 -3 1 -5 2 -7 2 -1 2 -1 6 3 4 4 4 4 6 3 1 -2
2 -4 2 -7 0 -6 2 -8 8 -8 4 0 5 0 8 4 4 4 4 4 6 3 1 -2 2 -4 2 -7 0 -4 0 -5 8
-12 8 -7 8 -8 8 -12 0 -4 0 -5 8 -12 8 -7 8 -8 8 -12 0 -4 0 -5 4 -8 4 -3 4
-4 4 -8 0 -4 0 -5 4 -8 4 -3 4 -4 4 -8 0 -4 0 -5 8 -12 8 -7 8 -8 8 -12 0 -3
1 -5 2 -6 2 -2 2 -2 8 4 6 5 6 6 6 10 0 4 0 5 4 8 4 3 4 4 4 8 0 4 0 5 8 12 8
7 8 8 8 12 0 4 0 5 4 8 4 3 4 4 4 8 0 4 0 5 4 8 4 3 4 4 4 8 0 4 0 5 8 12 8 7
8 8 8 12 0 3 1 5 2 7 2 1 2 1 6 -3 3 -4 4 -4 8 -4 6 0 8 2 8 8 0 3 1 5 2 7 2
1 2 1 6 -3 4 -4 4 -4 6 -3 1 2 2 4 2 7 0 3 1 5 2 7 2 1 2 1 6 -3 l4 -4 6 6 c5
5 6 6 6 10 0 4 1 5 18 22 18 18 22 21 22 16 0 -2 1 -4 2 -5 2 -1 2 -1 4 1 2 2
2 2 1 4 -1 1 -3 2 -5 2 -4 0 -3 4 2 8 4 3 4 4 4 8 0 4 0 5 4 8 4 3 4 4 4 8 0
6 2 8 8 8 3 0 5 1 7 2 1 2 1 2 -3 6 l-4 4 0 8 c0 10 1 12 8 12 8 0 8 1 8 20 0
19 0 20 -8 20 -7 0 -8 1 -8 18 l0 14 2 0 c2 0 4 1 5 2 1 2 1 2 -1 4 -2 2 -2 2
-4 1 -1 -1 -2 -3 -2 -5 0 -1 -1 -2 -2 -2 -4 0 -6 3 -6 8 0 4 0 5 4 8 4 4 4 4
3 6 -2 1 -4 2 -7 2 -4 0 -5 0 -12 8 -5 5 -8 8 -10 8 -2 0 -2 1 -2 6 l0 6 -14
14 c-13 14 -14 14 -18 14 -4 0 -5 0 -12 8 -7 8 -8 8 -12 8 -4 0 -5 0 -8 4 l-3
4 -11 0 c-10 0 -10 0 -10 2 0 5 -3 6 -14 6 -10 0 -10 0 -10 2 0 6 -2 6 -24 6
-19 0 -21 0 -22 -2 -2 -2 -2 -2 0 -4 1 -2 3 -2 24 -2 l22 0 0 -2 c0 -5 3 -6
14 -6 10 0 10 0 10 -2 0 -4 3 -6 8 -6 5 0 8 -2 8 -6 0 -2 0 -2 -6 -2 -7 0 -7
0 -10 -4 l-3 -4 -9 0 -9 0 -3 4 c-3 4 -4 4 -8 4 -5 0 -8 -2 -8 -6 0 -2 -1 -2
-6 -2 l-6 0 -6 -6 c-6 -5 -6 -6 -6 -10 0 -4 0 -5 -4 -8 -3 -2 -4 -4 -4 -6 0
-1 -1 -2 -2 -2 -4 0 -6 3 -6 8 0 4 0 5 -10 14 -10 10 -10 10 -14 10 -4 0 -5 0
-8 4 -3 4 -4 4 -8 4 -4 0 -5 0 -8 -4 l-3 -4 -9 0 -9 0 -3 4 c-3 4 -3 4 -10 4
-6 0 -6 0 -6 2 0 4 3 6 8 6 5 0 8 2 8 6 0 2 0 2 10 2 12 0 14 1 14 6 0 2 0 2
22 2 21 0 23 0 25 2 1 2 1 2 0 4 -3 3 -43 3 -45 0z m-42 -34 c0 -4 0 -4 2 -4
2 0 4 -1 5 -2 1 -2 1 -2 -1 -4 -2 -2 -2 -2 -4 -1 -1 1 -2 3 -2 5 0 2 0 2 -8 2
-8 0 -8 0 -8 -2 0 -2 -3 -5 -8 -10 l-8 -8 0 -8 0 -9 -4 -3 -4 -3 0 -13 0 -13
4 -3 c4 -3 4 -4 4 -8 0 -5 2 -8 6 -8 1 0 2 1 2 2 0 2 1 4 2 5 2 1 2 1 4 -1 2
-2 2 -2 1 -4 -1 -1 -3 -2 -5 -2 -2 0 -2 0 -2 -6 l0 -6 8 -8 c8 -7 8 -8 8 -12
0 -5 2 -8 6 -8 1 0 2 1 2 2 0 2 1 4 2 5 2 1 2 1 4 -1 2 -2 2 -2 1 -4 -1 -1 -3
-2 -5 -2 -2 0 -2 0 -2 -6 l0 -6 10 -10 c10 -10 14 -12 14 -8 0 2 1 4 2 5 2 1
2 1 4 0 1 -1 2 -3 2 -5 0 -1 1 -2 2 -2 2 0 4 -1 5 -2 1 -2 1 -2 -1 -4 -2 -2
-2 -2 -4 -1 -1 1 -2 3 -2 5 0 2 0 2 -4 2 l-4 0 0 -6 0 -6 10 -10 c10 -10 14
-12 14 -8 0 2 1 4 2 5 2 1 2 1 4 0 1 -1 2 -3 2 -5 0 -1 1 -2 2 -2 2 0 4 -1 5
-2 1 -2 1 -2 0 -4 -1 -1 -3 -2 -5 -2 -2 0 -2 0 -2 -6 0 -7 2 -10 6 -10 1 0 2
1 2 2 0 2 1 4 2 5 2 1 2 1 4 -1 2 -2 2 -2 1 -4 -1 -1 -3 -2 -5 -2 -4 0 -3 -4
2 -8 4 -3 4 -4 4 -8 0 -4 0 -5 4 -8 l4 -3 0 -13 c0 -16 0 -16 12 -16 11 0 12
1 12 12 l0 9 -4 3 c-4 4 -4 4 -3 6 2 1 4 2 7 2 5 0 8 2 8 6 0 1 -1 2 -2 2 -2
0 -4 1 -5 2 -1 2 -1 2 1 4 2 2 2 2 4 1 1 -1 2 -3 2 -5 0 -1 1 -2 2 -2 4 0 6 3
6 10 0 6 0 6 -2 6 -2 0 -4 1 -5 2 -1 2 -1 2 1 4 2 2 2 2 4 1 1 -1 2 -3 2 -5 0
-4 4 -2 10 4 6 5 6 6 6 10 0 4 0 5 4 8 5 4 6 8 2 8 -2 0 -4 1 -5 2 -1 2 -1 2
1 4 2 2 2 2 4 1 1 -1 2 -3 2 -5 0 -4 4 -2 14 8 l10 10 0 6 c0 6 0 6 -2 6 -2 0
-4 1 -4 2 -2 2 -2 2 0 4 0 1 2 2 4 2 1 0 2 1 2 2 0 2 1 4 2 5 2 1 2 1 4 0 1
-1 2 -3 2 -5 0 -4 4 -2 10 4 l6 6 0 6 c0 6 0 6 -2 6 -2 0 -4 1 -5 2 -1 2 -1 2
1 4 2 2 2 2 4 1 1 -1 2 -3 2 -5 0 -1 1 -2 2 -2 4 0 6 3 6 8 0 4 0 5 4 8 5 4 6
8 2 8 -2 0 -4 1 -5 2 -1 2 -1 2 1 4 2 2 2 2 4 1 1 -1 2 -3 2 -5 0 -1 1 -2 2
-2 4 0 6 3 6 8 0 4 0 5 4 8 l4 3 0 21 0 21 -4 3 c-4 3 -4 4 -4 8 0 5 -2 8 -6
8 -1 0 -2 -1 -2 -2 0 -2 -1 -4 -2 -4 -2 -2 -2 -2 -4 0 -1 0 -2 2 -2 4 0 1 -1
2 -2 2 -2 0 -4 1 -4 2 -2 2 -2 2 0 4 0 1 2 2 4 2 2 0 2 0 2 4 l0 4 -6 0 c-7 0
-10 2 -10 6 0 2 0 2 6 2 7 0 10 -2 10 -6 0 -1 1 -2 2 -2 3 0 6 -3 6 -6 0 -2 0
-2 6 -2 l6 0 16 -16 c10 -11 17 -16 18 -16 2 0 2 -1 2 -6 0 -7 0 -7 4 -10 4
-3 4 -4 4 -8 0 -4 0 -5 4 -8 4 -3 4 -4 4 -8 0 -4 0 -5 4 -8 l4 -3 0 -41 0 -41
-4 -3 c-4 -3 -4 -4 -4 -8 0 -4 0 -5 -8 -12 -8 -7 -8 -8 -8 -12 0 -4 0 -4 -22
-26 -22 -22 -22 -22 -26 -22 -4 0 -5 0 -12 -8 l-8 -8 -8 0 -9 0 -3 -4 -3 -4
-9 0 -8 0 -6 -6 c-6 -5 -6 -6 -6 -10 0 -4 0 -5 -4 -8 -4 -3 -4 -4 -4 -8 0 -4
0 -5 -4 -8 -4 -3 -4 -4 -4 -8 0 -4 0 -5 -8 -12 -8 -7 -8 -8 -8 -12 0 -4 -1 -5
-6 -10 l-6 -6 -6 6 c-6 5 -6 6 -6 10 0 4 0 5 -4 8 -4 3 -4 4 -4 8 0 4 0 5 -8
12 l-8 8 0 8 0 8 -6 6 c-5 6 -6 6 -10 6 -4 0 -5 0 -8 4 -3 4 -4 4 -8 4 -4 0
-5 0 -8 4 l-3 4 -9 0 -8 0 -8 8 c-7 8 -8 8 -12 8 -4 0 -4 0 -30 26 l-26 26 0
4 c0 4 0 5 -4 8 l-4 3 0 9 0 9 -4 3 -4 3 0 37 0 37 4 3 4 3 0 9 0 8 8 8 8 8 0
6 c0 5 0 6 2 6 3 0 30 27 30 30 0 1 1 2 2 2 3 0 6 3 6 6 0 2 0 2 8 2 8 0 8 0
8 2 0 4 3 6 10 6 l6 0 0 -4z m135 -6 c1 -2 1 -2 -1 -4 -2 -2 -2 -2 -4 -1 -1 1
-2 3 -2 5 0 3 4 3 7 0z m-152 -24 c1 -2 1 -2 -1 -4 l-2 -2 -2 2 c-2 2 -2 2 -1
4 1 1 3 2 3 2 0 0 2 -1 3 -2z m120 -8 c1 -2 1 -2 -1 -4 -2 -2 -2 -2 -4 -1 -3
3 -3 7 0 7 2 0 4 -1 5 -2z m111 -8 c3 -2 3 -26 0 -28 -2 -2 -2 -2 -4 0 -3 2
-3 25 0 28 2 2 2 2 4 0z m-239 -8 c1 -2 1 -2 -1 -4 l-2 -2 -2 2 c-2 2 -2 2 -1
4 1 1 3 2 3 2 0 0 2 -1 3 -2z"/><path d="M360 428 l0 -4 4 0 4 0 0 4 0 4 -4 0 -4 0 0 -4z"/><path d="M328 292 c0 -4 0 -4 2 -4 3 0 6 3 6 6 0 2 -1 2 -4 2 l-4 0 0 -4z"/><path d="M208 246 c0 -3 3 -6 6 -6 2 0 2 1 2 4 l0 4 -4 0 c-4 0 -4 0 -4 -2z"/></g>
  <g transform="scale(0.125 0.125) translate(0.000000,512.000000) scale(1.000000,-1.000000)" fill="#f5f5f5" stroke="none"><path d="M202 478 c-1 -1 -2 -3 -2 -4 0 -2 0 -2 -10 -2 -12 0 -14 -1 -14 -6 0
-2 0 -2 -10 -2 l-11 0 -3 -4 c-3 -4 -4 -4 -8 -4 -4 0 -5 0 -10 -6 -4 -3 -6 -7
-6 -8 0 -1 -1 -2 -2 -2 -3 0 -6 -3 -6 -6 0 -2 -1 -2 -6 -2 l-6 0 -10 -10 -10
-10 0 -6 c0 -5 0 -6 -2 -6 -1 0 -6 -4 -12 -10 l-10 -10 0 -8 0 -9 -4 -3 -4 -3
0 -13 0 -13 -4 -3 -4 -3 0 -17 0 -17 4 -3 4 -3 0 -9 0 -8 -4 -4 c-4 -4 -4 -4
-3 -6 2 -1 4 -2 7 -2 6 0 8 -2 8 -8 0 -4 0 -5 4 -8 4 -3 4 -4 4 -8 l0 -4 30
-30 30 -30 4 0 c6 0 8 -2 8 -8 0 -3 1 -5 2 -7 2 -1 2 -1 6 3 4 4 4 4 6 3 1 -2
2 -4 2 -7 0 -6 2 -8 8 -8 4 0 5 0 8 4 4 4 4 4 6 3 1 -2 2 -4 2 -7 0 -4 0 -5 8
-12 8 -7 8 -8 8 -12 0 -4 0 -5 8 -12 8 -7 8 -8 8 -12 0 -4 0 -5 4 -8 4 -3 4
-4 4 -8 0 -4 0 -5 4 -8 4 -3 4 -4 4 -8 0 -4 0 -5 8 -12 8 -7 8 -8 8 -12 0 -3
1 -5 2 -6 2 -2 2 -2 8 4 6 5 6 6 6 10 0 4 0 5 4 8 4 3 4 4 4 8 0 4 0 5 8 12 8
7 8 8 8 12 0 4 0 5 4 8 4 3 4 4 4 8 0 4 0 5 4 8 4 3 4 4 4 8 0 4 0 5 8 12 8 7
8 8 8 12 0 3 1 5 2 7 2 1 2 1 6 -3 3 -4 4 -4 8 -4 6 0 8 2 8 8 0 3 1 5 2 7 2
1 2 1 6 -3 4 -4 4 -4 6 -3 1 2 2 4 2 7 0 3 1 5 2 7 2 1 2 1 6 -3 l4 -4 6 6 c5
5 6 6 6 10 0 4 1 5 18 22 18 18 22 21 22 16 0 -2 1 -4 2 -5 2 -1 2 -1 4 1 2 2
2 2 1 4 -1 1 -3 2 -5 2 -4 0 -3 4 2 8 4 3 4 4 4 8 0 4 0 5 4 8 4 3 4 4 4 8 0
6 2 8 8 8 3 0 5 1 7 2 1 2 1 2 -3 6 l-4 4 0 8 c0 10 1 12 8 12 8 0 8 1 8 20 0
19 0 20 -8 20 -7 0 -8 1 -8 18 l0 14 2 0 c2 0 4 1 5 2 1 2 1 2 -1 4 -2 2 -2 2
-4 1 -1 -1 -2 -3 -2 -5 0 -1 -1 -2 -2 -2 -4 0 -6 3 -6 8 0 4 0 5 4 8 4 4 4 4
3 6 -2 1 -4 2 -7 2 -4 0 -5 0 -12 8 -5 5 -8 8 -10 8 -2 0 -2 1 -2 6 l0 6 -14
14 c-13 14 -14 14 -18 14 -4 0 -5 0 -12 8 -7 8 -8 8 -12 8 -4 0 -5 0 -8 4 l-3
4 -11 0 c-10 0 -10 0 -10 2 0 5 -3 6 -14 6 -10 0 -10 0 -10 2 0 6 -2 6 -24 6
-19 0 -21 0 -22 -2 -2 -2 -2 -2 0 -4 1 -2 3 -2 24 -2 l22 0 0 -2 c0 -5 3 -6
14 -6 10 0 10 0 10 -2 0 -4 3 -6 8 -6 5 0 8 -2 8 -6 0 -2 0 -2 -6 -2 -7 0 -7
0 -10 -4 l-3 -4 -9 0 -9 0 -3 4 c-3 4 -4 4 -8 4 -5 0 -8 -2 -8 -6 0 -2 -1 -2
-6 -2 l-6 0 -6 -6 c-6 -5 -6 -6 -6 -10 0 -4 0 -5 -4 -8 -3 -2 -4 -4 -4 -6 0
-1 -1 -2 -2 -2 -4 0 -6 3 -6 8 0 4 0 5 -10 14 -10 10 -10 10 -14 10 -4 0 -5 0
-8 4 -3 4 -4 4 -8 4 -4 0 -5 0 -8 -4 l-3 -4 -9 0 -9 0 -3 4 c-3 4 -3 4 -10 4
-6 0 -6 0 -6 2 0 4 3 6 8 6 5 0 8 2 8 6 0 2 0 2 10 2 12 0 14 1 14 6 0 2 0 2
22 2 21 0 23 0 25 2 1 2 1 2 0 4 -3 3 -43 3 -45 0z m-42 -34 c0 -4 0 -4 2 -4
2 0 4 -1 5 -2 1 -2 1 -2 -1 -4 -2 -2 -2 -2 -4 -1 -1 1 -2 3 -2 5 0 2 0 2 -8 2
-8 0 -8 0 -8 -2 0 -2 -3 -5 -8 -10 l-8 -8 0 -8 0 -9 -4 -3 -4 -3 0 -13 0 -13
4 -3 c4 -3 4 -4 4 -8 0 -5 2 -8 6 -8 1 0 2 1 2 2 0 2 1 4 2 5 2 1 2 1 4 -1 2
-2 2 -2 1 -4 -1 -1 -3 -2 -5 -2 -2 0 -2 0 -2 -6 l0 -6 8 -8 c8 -7 8 -8 8 -12
0 -5 2 -8 6 -8 1 0 2 1 2 2 0 2 1 4 2 5 2 1 2 1 4 -1 2 -2 2 -2 1 -4 -1 -1 -3
-2 -5 -2 -2 0 -2 0 -2 -6 l0 -6 10 -10 c10 -10 14 -12 14 -8 0 2 1 4 2 5 2 1
2 1 4 0 1 -1 2 -3 2 -5 0 -1 1 -2 2 -2 2 0 4 -1 5 -2 1 -2 1 -2 -1 -4 -2 -2
-2 -2 -4 -1 -1 1 -2 3 -2 5 0 2 0 2 -4 2 l-4 0 0 -6 0 -6 10 -10 c10 -10 14
-12 14 -8 0 2 1 4 2 5 2 1 2 1 4 0 1 -1 2 -3 2 -5 0 -1 1 -2 2 -2 2 0 4 -1 5
-2 1 -2 1 -2 0 -4 -1 -1 -3 -2 -5 -2 -2 0 -2 0 -2 -6 0 -7 2 -10 6 -10 1 0 2
1 2 2 0 2 1 4 2 5 2 1 2 1 4 -1 2 -2 2 -2 1 -4 -1 -1 -3 -2 -5 -2 -4 0 -3 -4
2 -8 4 -3 4 -4 4 -8 0 -4 0 -5 4 -8 l4 -3 0 -13 c0 -16 0 -16 12 -16 11 0 12
1 12 12 l0 9 -4 3 c-4 4 -4 4 -3 6 2 1 4 2 7 2 5 0 8 2 8 6 0 1 -1 2 -2 2 -2
0 -4 1 -5 2 -1 2 -1 2 1 4 2 2 2 2 4 1 1 -1 2 -3 2 -5 0 -1 1 -2 2 -2 4 0 6 3
6 10 0 6 0 6 -2 6 -2 0 -4 1 -5 2 -1 2 -1 2 1 4 2 2 2 2 4 1 1 -1 2 -3 2 -5 0
-4 4 -2 10 4 6 5 6 6 6 10 0 4 0 5 4 8 5 4 6 8 2 8 -2 0 -4 1 -5 2 -1 2 -1 2
1 4 2 2 2 2 4 1 1 -1 2 -3 2 -5 0 -4 4 -2 14 8 l10 10 0 6 c0 6 0 6 -2 6 -2 0
-4 1 -4 2 -2 2 -2 2 0 4 0 1 2 2 4 2 1 0 2 1 2 2 0 2 1 4 2 5 2 1 2 1 4 0 1
-1 2 -3 2 -5 0 -4 4 -2 10 4 l6 6 0 6 c0 6 0 6 -2 6 -2 0 -4 1 -5 2 -1 2 -1 2
1 4 2 2 2 2 4 1 1 -1 2 -3 2 -5 0 -1 1 -2 2 -2 4 0 6 3 6 8 0 4 0 5 4 8 5 4 6
8 2 8 -2 0 -4 1 -5 2 -1 2 -1 2 1 4 2 2 2 2 4 1 1 -1 2 -3 2 -5 0 -1 1 -2 2
-2 4 0 6 3 6 8 0 4 0 5 4 8 l4 3 0 21 0 21 -4 3 c-4 3 -4 4 -4 8 0 5 -2 8 -6
8 -1 0 -2 -1 -2 -2 0 -2 -1 -4 -2 -4 -2 -2 -2 -2 -4 0 -1 0 -2 2 -2 4 0 1 -1
2 -2 2 -2 0 -4 1 -4 2 -2 2 -2 2 0 4 0 1 2 2 4 2 2 0 2 0 2 4 l0 4 -6 0 c-7 0
-10 2 -10 6 0 2 0 2 6 2 7 0 10 -2 10 -6 0 -1 1 -2 2 -2 3 0 6 -3 6 -6 0 -2 0
-2 6 -2 l6 0 16 -16 c10 -11 17 -16 18 -16 2 0 2 -1 2 -6 0 -7 0 -7 4 -10 4
-3 4 -4 4 -8 0 -4 0 -5 4 -8 4 -3 4 -4 4 -8 0 -4 0 -5 4 -8 l4 -3 0 -41 0 -41
-4 -3 c-4 -3 -4 -4 -4 -8 0 -4 0 -5 -8 -12 -8 -7 -8 -8 -8 -12 0 -4 0 -4 -22
-26 -22 -22 -22 -22 -26 -22 -4 0 -5 0 -12 -8 l-8 -8 -8 0 -9 0 -3 -4 -3 -4
-9 0 -8 0 -6 -6 c-6 -5 -6 -6 -6 -10 0 -4 0 -5 -4 -8 -4 -3 -4 -4 -4 -8 0 -4
0 -5 -4 -8 -4 -3 -4 -4 -4 -8 0 -4 0 -5 -8 -12 -8 -7 -8 -8 -8 -12 0 -4 -1 -5
-6 -10 l-6 -6 -6 6 c-6 5 -6 6 -6 10 0 4 0 5 -4 8 -4 3 -4 4 -4 8 0 4 0 5 -8
12 l-8 8 0 8 0 8 -6 6 c-5 6 -6 6 -10 6 -4 0 -5 0 -8 4 -3 4 -4 4 -8 4 -4 0
-5 0 -8 4 l-3 4 -9 0 -8 0 -8 8 c-7 8 -8 8 -12 8 -4 0 -4 0 -30 26 l-26 26 0
4 c0 4 0 5 -4 8 l-4 3 0 9 0 9 -4 3 -4 3 0 37 0 37 4 3 4 3 0 9 0 8 8 8 8 8 0
6 c0 5 0 6 2 6 3 0 30 27 30 30 0 1 1 2 2 2 3 0 6 3 6 6 0 2 0 2 8 2 8 0 8 0
8 2 0 4 3 6 10 6 l6 0 0 -4z m135 -6 c1 -2 1 -2 -1 -4 -2 -2 -2 -2 -4 -1 -1 1
-2 3 -2 5 0 3 4 3 7 0z m-152 -24 c1 -2 1 -2 -1 -4 l-2 -2 -2 2 c-2 2 -2 2 -1
4 1 1 3 2 3 2 0 0 2 -1 3 -2z m120 -8 c1 -2 1 -2 -1 -4 -2 -2 -2 -2 -4 -1 -3
3 -3 7 0 7 2 0 4 -1 5 -2z m111 -8 c3 -2 3 -26 0 -28 -2 -2 -2 -2 -4 0 -3 2
-3 25 0 28 2 2 2 2 4 0z m-239 -8 c1 -2 1 -2 -1 -4 l-2 -2 -2 2 c-2 2 -2 2 -1
4 1 1 3 2 3 2 0 0 2 -1 3 -2z m41 -42 l3 -4 77 0 c77 0 77 0 79 -2 1 -2 1 -2
-3 -6 -4 -3 -4 -4 -4 -8 0 -4 0 -4 -18 -22 l-18 -18 -40 0 -40 0 -18 18 c-18
18 -18 18 -18 22 0 4 0 5 -4 8 -4 3 -4 4 -4 8 0 4 2 8 4 8 0 0 2 -2 4 -4z"/><path d="M360 428 l0 -4 4 0 4 0 0 4 0 4 -4 0 -4 0 0 -4z"/><path d="M328 292 c0 -4 0 -4 2 -4 3 0 6 3 6 6 0 2 -1 2 -4 2 l-4 0 0 -4z"/><path d="M208 246 c0 -3 3 -6 6 -6 2 0 2 1 2 4 l0 4 -4 0 c-4 0 -4 0 -4 -2z"/></g>
  <g transform="scale(0.125 0.125) translate(0.000000,512.000000) scale(1.000000,-1.000000)" fill="#85737c" stroke="none"><path d="M202 478 c-2 -2 -2 -2 0 -4 1 -2 3 -2 14 -2 11 0 13 0 15 2 1 2 1 2
0 4 -2 2 -4 2 -15 2 -11 0 -13 0 -14 -2z"/><path d="M274 478 c-2 -2 -2 -2 0 -4 1 -2 3 -2 14 -2 11 0 13 0 15 2 1 2 1 2
0 4 -2 2 -4 2 -15 2 -11 0 -13 0 -14 -2z"/><path d="M178 470 c-3 -3 0 -6 6 -6 3 0 5 1 7 2 2 3 -1 6 -7 6 -3 0 -5 -1 -6
-2z"/><path d="M314 470 c-3 -3 0 -6 6 -6 6 0 9 3 7 6 -2 1 -4 2 -7 2 -3 0 -5 -1 -6
-2z"/><path d="M154 462 c-1 -1 -2 -3 -2 -4 0 -2 0 -2 -6 -2 -7 0 -10 -2 -10 -6 0
-1 -1 -2 -2 -2 -3 0 -6 -3 -6 -6 0 -1 -1 -2 -2 -2 -3 0 -6 -3 -6 -6 0 -2 0 -2
-6 -2 -7 0 -10 -2 -10 -6 0 -1 -1 -2 -2 -2 -3 0 -6 -3 -6 -6 0 -1 -1 -2 -2 -2
-4 0 -6 -3 -6 -10 0 -6 0 -6 -2 -6 -3 0 -6 -3 -6 -6 0 -1 -1 -2 -2 -2 -1 0 -5
-2 -8 -6 l-6 -6 0 -10 c0 -10 0 -10 -2 -10 -5 0 -6 -2 -6 -18 l0 -14 -2 0 c-5
0 -6 -2 -6 -20 0 -18 1 -20 6 -20 2 0 2 0 2 -10 l0 -10 -4 -4 c-4 -4 -4 -4 -3
-6 2 -2 3 -2 9 -2 l6 0 0 -6 c0 -7 2 -10 6 -10 2 0 2 -1 2 -6 l0 -6 6 -6 c3
-4 7 -6 8 -6 1 0 2 -1 2 -2 0 -3 3 -6 6 -6 1 0 2 -1 2 -2 0 -3 3 -6 6 -6 1 0
2 -1 2 -2 0 -3 3 -6 6 -6 1 0 2 -1 2 -2 0 -3 3 -6 6 -6 1 0 2 -1 2 -2 0 -1 2
-5 6 -8 l6 -6 6 0 6 0 0 -6 c0 -6 0 -7 2 -9 2 -1 2 -1 6 3 6 6 8 6 8 -2 0 -8
2 -10 8 -10 4 0 5 0 8 4 2 3 4 4 6 4 2 0 2 0 2 -6 l0 -6 8 -8 c8 -7 8 -8 8
-12 0 -4 0 -5 8 -12 8 -7 8 -8 8 -12 0 -4 0 -5 4 -8 4 -3 4 -4 4 -8 0 -4 0 -5
4 -8 4 -3 4 -4 4 -8 0 -4 0 -5 8 -12 8 -7 8 -8 8 -12 0 -3 1 -5 2 -6 2 -2 2
-2 8 4 6 5 6 6 6 10 0 4 0 5 4 8 4 3 4 4 4 8 0 4 0 5 8 12 8 7 8 8 8 12 0 4 0
5 4 8 4 3 4 4 4 8 0 4 0 5 4 8 4 3 4 4 4 8 0 4 0 5 8 12 l8 8 0 6 c0 6 0 6 2
6 2 0 4 -1 6 -4 3 -4 4 -4 8 -4 6 0 8 2 8 10 0 8 3 8 8 2 4 -4 4 -4 6 -3 2 2
2 3 2 9 0 8 2 8 8 2 l4 -4 6 6 6 6 0 6 c0 6 0 6 2 6 3 0 6 3 6 6 0 1 1 2 2 2
3 0 6 3 6 6 0 1 1 2 2 2 3 0 6 3 6 6 0 1 1 2 2 2 3 0 6 3 6 6 0 2 1 2 4 2 4 0
4 0 4 -2 0 -2 1 -4 2 -5 2 -1 2 -1 4 1 2 2 2 2 1 4 -1 1 -3 2 -5 2 -4 0 -3 4
2 8 4 3 4 3 4 10 0 6 0 6 2 6 4 0 6 3 6 10 l0 6 6 0 c6 0 7 0 9 2 1 2 1 2 -3
6 l-4 4 0 8 c0 10 1 12 8 12 8 0 8 1 8 20 0 20 0 20 -10 20 l-6 0 0 16 0 16 2
0 c2 0 4 1 5 2 1 2 1 2 -1 4 -2 2 -2 2 -4 1 -1 -1 -2 -3 -2 -5 0 -2 0 -2 -4
-2 l-4 0 0 6 c0 6 0 7 4 10 4 4 4 4 3 6 -2 1 -4 2 -7 2 -4 0 -5 0 -8 4 -2 3
-4 4 -6 4 -1 0 -2 1 -2 2 0 3 -3 6 -6 6 -2 0 -2 0 -2 6 0 7 -2 10 -6 10 -1 0
-2 1 -2 2 0 3 -3 6 -6 6 -1 0 -2 1 -2 2 0 3 -3 6 -6 6 -1 0 -2 1 -2 2 0 4 -3
6 -10 6 -6 0 -6 0 -6 2 0 3 -3 6 -6 6 -1 0 -2 1 -2 2 0 4 -3 6 -10 6 -6 0 -6
0 -6 2 0 6 -10 8 -14 4 -4 -3 0 -6 8 -6 6 0 6 0 6 -2 0 -4 3 -6 10 -6 6 0 6 0
6 -2 0 -3 3 -6 6 -6 1 0 2 -1 2 -2 0 -4 3 -6 10 -6 6 0 6 0 6 -2 0 -3 3 -6 6
-6 1 0 2 -1 2 -2 0 -3 3 -6 6 -6 2 0 2 0 2 -6 0 -7 2 -10 6 -10 1 0 2 -1 2 -2
0 -3 3 -6 6 -6 2 0 2 0 2 -6 0 -7 0 -7 4 -10 4 -3 4 -4 4 -8 0 -5 2 -8 6 -8 2
0 2 0 2 -14 0 -16 1 -18 6 -18 2 0 2 0 2 -14 l0 -15 -4 -3 -4 -3 0 -19 0 -18
-2 0 c-4 0 -6 -3 -6 -10 0 -5 0 -6 -2 -6 -1 0 -5 -2 -8 -6 l-6 -6 0 -6 c0 -6
0 -6 -2 -6 -3 0 -6 -3 -6 -6 0 -1 -1 -2 -2 -2 -3 0 -6 -3 -6 -6 0 -1 -1 -2 -2
-2 -3 0 -6 -3 -6 -6 0 -1 -1 -2 -2 -2 -3 0 -6 -3 -6 -6 0 -2 -1 -2 -6 -2 l-6
0 -6 -6 c-4 -3 -6 -7 -6 -8 0 -2 -1 -2 -6 -2 -7 0 -10 -2 -10 -6 0 -2 0 -2
-10 -2 -12 0 -14 -1 -14 -6 0 -2 -1 -2 -6 -2 l-6 0 -6 -6 c-6 -5 -6 -6 -6 -10
0 -4 0 -5 -4 -8 -4 -3 -4 -4 -4 -8 0 -4 0 -5 -4 -8 -4 -3 -4 -4 -4 -8 0 -4 0
-5 -8 -12 -8 -7 -8 -8 -8 -12 0 -4 -1 -5 -6 -10 -6 -6 -6 -6 -8 -4 -1 1 -2 3
-2 6 0 4 0 5 -8 12 -8 7 -8 8 -8 12 0 4 0 5 -4 8 -4 3 -4 4 -4 8 0 4 0 5 -4 8
-4 3 -4 4 -4 8 0 4 0 4 -10 14 l-10 10 -6 0 c-6 0 -6 0 -6 2 0 5 -3 6 -14 6
-10 0 -10 0 -10 2 0 4 -3 6 -10 6 -5 0 -6 0 -6 2 0 1 -2 5 -6 8 l-6 6 -6 0
c-6 0 -6 0 -6 2 0 3 -3 6 -6 6 -1 0 -2 1 -2 2 0 3 -3 6 -6 6 -1 0 -2 1 -2 2 0
3 -3 6 -6 6 -1 0 -2 1 -2 2 0 3 -3 6 -6 6 -2 0 -2 1 -2 6 l0 6 -6 6 c-3 4 -7
6 -8 6 -2 0 -2 1 -2 6 0 7 -2 10 -6 10 -2 0 -2 0 -2 14 0 16 -1 18 -6 18 -2 0
-2 0 -2 20 l0 20 2 0 c5 0 6 2 6 18 l0 14 2 0 c4 0 6 3 6 8 0 4 0 5 4 8 4 3 4
3 4 10 0 6 0 6 2 6 3 0 6 3 6 6 0 1 1 2 2 2 4 0 6 3 6 10 0 6 0 6 2 6 3 0 6 3
6 6 0 2 0 2 6 2 7 0 10 2 10 6 0 1 1 2 2 2 3 0 6 3 6 6 0 1 1 2 2 2 3 0 6 3 6
6 0 2 0 2 6 2 7 0 10 2 10 6 0 2 0 2 6 2 8 0 12 3 9 6 -3 3 -11 3 -13 0z"/><path d="M170 446 c-1 -1 -2 -3 -2 -6 0 -3 -1 -5 -2 -7 -2 -1 -2 -1 -6 3 l-4
4 -10 -10 c-6 -6 -10 -11 -10 -12 0 -1 -1 -2 -2 -2 -5 0 -6 -3 -6 -12 l0 -8 4
-4 5 -4 -5 -4 -4 -3 0 -9 c0 -10 1 -12 8 -12 3 0 5 -1 7 -2 1 -2 1 -2 -3 -6
l-4 -4 4 -4 c4 -3 4 -4 4 -8 0 -4 0 -5 4 -8 4 -3 4 -4 4 -8 0 -5 2 -8 6 -8 1
0 2 -1 2 -2 0 -1 4 -6 10 -12 10 -10 10 -10 14 -10 5 0 8 -2 8 -6 0 -1 -1 -2
-2 -2 -2 0 -4 -1 -4 -2 -2 -2 -2 -2 -1 -4 1 -1 3 -2 5 -2 1 0 2 -1 2 -2 0 -1
2 -5 6 -8 5 -6 6 -6 10 -6 5 0 8 -2 8 -6 0 -1 -1 -2 -2 -2 -2 0 -4 -1 -4 -2
-2 -2 -2 -2 -1 -4 1 -1 3 -2 5 -2 1 0 2 -1 2 -2 0 -4 3 -6 8 -6 3 0 5 -1 7 -2
1 -2 1 -2 -3 -6 l-4 -4 8 -8 8 -8 0 -8 0 -9 4 -3 c4 -3 4 -4 4 -8 0 -3 1 -5 2
-6 2 -2 2 -2 8 4 5 5 6 6 6 10 0 4 0 5 -4 8 -4 4 -4 4 -3 6 2 1 4 2 7 2 3 0 5
1 7 2 1 2 1 2 -3 6 -4 4 -4 4 -3 6 2 1 4 2 7 2 5 0 8 2 8 6 0 1 1 2 2 2 4 0 6
3 6 8 0 4 0 5 4 8 l4 3 0 9 c0 10 1 12 8 12 4 0 5 0 14 10 l10 10 -4 4 -4 4 6
6 c5 5 6 6 10 6 4 0 5 1 10 6 l6 6 -4 4 c-4 4 -4 4 -3 6 2 1 4 2 7 2 4 0 5 0
10 6 l6 6 -4 4 c-4 4 -4 4 -3 6 2 1 4 2 7 2 6 0 8 2 8 8 0 4 0 5 -4 8 l-4 3 0
13 c0 14 1 16 6 16 2 0 2 0 2 -10 0 -9 0 -11 2 -12 2 -2 2 -2 4 0 2 1 2 3 2
10 0 9 -1 12 -6 12 -2 0 -2 0 -2 6 0 8 -2 10 -8 10 -6 0 -16 10 -16 16 0 6
-10 16 -16 16 -4 0 -5 0 -8 -4 l-3 -4 -9 0 -8 0 -4 4 c-4 4 -4 4 -6 3 -1 -2
-2 -4 -2 -7 0 -3 -1 -5 -2 -7 -2 -1 -2 -1 -6 3 l-4 4 -14 -14 c-9 -9 -14 -15
-14 -16 0 -5 -4 -2 -20 14 -16 16 -16 16 -20 16 -4 0 -5 0 -8 4 l-4 5 -4 -5
-3 -4 -9 0 -9 0 -3 4 c-4 5 -4 5 -6 2z m-27 -32 c1 -2 1 -2 -1 -4 -2 -2 -2 -2
-4 -1 -1 1 -2 3 -2 5 0 3 4 3 7 0z m120 -8 c1 -2 1 -2 -1 -4 -2 -2 -2 -2 -4
-1 -3 3 -3 7 0 7 2 0 4 -1 5 -2z m-87 -58 l3 -4 77 0 c77 0 77 0 79 -2 1 -2 1
-2 -3 -6 -4 -3 -4 -4 -4 -8 0 -4 0 -4 -18 -22 l-18 -18 -40 0 -40 0 -18 18
c-18 18 -18 18 -18 22 0 4 0 5 -4 8 -4 3 -4 4 -4 8 0 4 2 8 4 8 0 0 2 -2 4 -4z
m-9 -30 c1 -2 1 -2 0 -4 -3 -3 -7 -3 -7 0 0 2 3 6 4 6 0 0 2 -1 3 -2z m32 -40
c1 -2 1 -2 0 -4 -4 -4 -7 -3 -7 2 0 5 3 6 7 2z m24 -32 c1 -2 1 -2 0 -4 -4 -4
-7 -3 -7 2 0 5 3 6 7 2z m55 -16 c1 -1 2 -2 2 -4 0 -3 -4 -3 -6 0 -2 2 -2 2 0
4 2 2 2 2 4 0z"/></g>
  <g transform="scale(0.125 0.125) translate(0.000000,512.000000) scale(1.000000,-1.000000)" fill="#fe0a85" stroke="none"><path d="M218 478 c-3 -3 0 -6 6 -6 3 0 5 1 7 2 2 3 -1 6 -7 6 -3 0 -5 -1 -6
-2z"/><path d="M274 478 c-3 -3 0 -6 6 -6 6 0 9 3 7 6 -2 1 -4 2 -7 2 -3 0 -5 -1 -6
-2z"/><path d="M185 470 c-1 -2 -1 -2 1 -4 l2 -2 2 2 c2 2 2 2 1 4 -1 1 -3 2 -3 2 0
0 -2 -1 -3 -2z"/><path d="M313 470 c-1 -2 -1 -2 1 -4 l2 -2 2 2 c2 2 2 2 1 4 -1 1 -3 2 -3 2 0
0 -2 -1 -3 -2z"/><path d="M161 462 c-1 -2 -1 -2 1 -4 l2 -2 2 2 c2 2 2 2 1 4 -1 1 -3 2 -3 2 0
0 -2 -1 -3 -2z"/><path d="M337 462 c-1 -2 -1 -2 1 -4 l2 -2 2 2 c2 2 2 2 1 4 -1 1 -3 2 -3 2 0
0 -2 -1 -3 -2z"/><path d="M145 454 c-1 -2 -1 -2 1 -4 l2 -2 2 2 c2 2 2 2 1 4 -1 1 -3 2 -3 2 0
0 -2 -1 -3 -2z"/><path d="M353 454 c-1 -2 -1 -2 1 -4 l2 -2 2 2 c2 2 2 2 1 4 -1 1 -3 2 -3 2 0
0 -2 -1 -3 -2z"/><path d="M170 446 c-1 -1 -2 -3 -2 -6 0 -3 -1 -5 -2 -7 -2 -1 -2 -1 -6 3 -4 4
-4 4 -6 3 -1 -2 -2 -4 -2 -7 0 -4 0 -5 -4 -8 -4 -3 -4 -4 -4 -8 0 -5 -2 -8 -6
-8 -1 0 -2 1 -2 2 0 2 -1 4 -2 5 -2 1 -2 1 -4 -1 -2 -2 -2 -2 -1 -4 1 -1 3 -2
5 -2 l2 0 0 -18 0 -18 -4 -4 c-4 -4 -4 -4 -3 -6 2 -1 4 -2 7 -2 7 0 8 -1 8
-16 0 -15 1 -16 8 -16 5 0 8 -2 8 -6 0 -1 -1 -2 -2 -2 -2 0 -4 -1 -4 -2 -2 -2
-2 -2 0 -4 0 -1 2 -2 4 -2 1 0 2 -1 2 -2 0 -4 3 -6 8 -6 4 0 5 0 14 -10 10
-10 12 -14 8 -14 -2 0 -4 -1 -5 -2 -1 -2 -1 -2 1 -4 2 -2 2 -2 4 -1 1 1 2 3 2
5 0 1 1 2 2 2 4 0 6 -3 6 -8 0 -4 0 -5 8 -12 8 -8 10 -12 6 -12 -2 0 -4 -1 -5
-2 -1 -2 -1 -2 1 -4 2 -2 2 -2 4 -1 1 1 2 3 2 5 0 1 1 2 2 2 4 0 6 -3 6 -8 0
-4 0 -5 4 -8 l5 -4 -5 -4 c-4 -4 -4 -4 -3 -6 2 -1 4 -2 7 -2 6 0 8 -2 8 -8 0
-4 0 -5 4 -8 l5 -4 -5 -4 c-4 -4 -4 -4 -3 -6 2 -2 3 -2 9 -2 l6 0 0 -4 c0 -4
0 -4 -2 -4 -2 0 -4 -1 -5 -2 -1 -2 -1 -2 1 -4 2 -2 2 -2 4 -1 1 1 2 3 2 5 0 1
1 2 2 2 2 0 4 1 5 2 1 2 1 2 0 4 -1 1 -3 2 -5 2 -2 0 -2 0 -2 6 0 8 2 10 8 10
3 0 5 1 7 2 1 2 1 2 -3 6 l-4 4 4 4 c4 3 4 4 4 8 0 5 2 8 6 8 1 0 2 -1 2 -2 0
-2 1 -4 2 -5 2 -1 2 -1 4 1 2 2 2 2 1 4 -1 1 -3 2 -5 2 -1 0 -2 1 -2 2 0 4 3
6 8 6 7 0 8 2 8 12 l0 8 10 10 c10 10 10 10 14 10 3 0 5 1 7 2 1 2 1 2 -3 6
l-4 4 10 10 c10 10 10 10 14 10 3 0 5 1 7 2 1 2 1 2 -3 6 l-4 4 6 6 c5 6 6 6
10 6 3 0 5 1 7 2 1 2 1 2 -3 6 -4 4 -4 4 -3 6 2 1 4 2 7 2 3 0 5 1 7 2 1 2 1
2 -3 6 l-4 4 0 20 0 21 4 3 c4 4 4 4 3 6 -2 1 -4 2 -7 2 -4 0 -4 0 -14 10 -10
10 -10 10 -10 14 0 3 -1 5 -2 7 -2 1 -2 1 -6 -3 l-3 -4 -13 0 -12 0 -4 4 c-4
4 -4 4 -6 3 -1 -2 -2 -4 -2 -7 0 -3 -1 -5 -2 -7 -2 -1 -2 -1 -6 3 -4 4 -4 4
-6 3 -1 -2 -2 -4 -2 -7 0 -6 -10 -16 -16 -16 -5 0 -8 -2 -8 -6 0 -2 -1 -2 -6
-2 l-6 0 -16 16 -16 16 -16 0 -17 0 -3 4 c-4 5 -4 5 -6 2z m93 -40 c1 -2 1 -2
0 -4 -1 -1 -3 -2 -5 -2 -1 0 -2 -1 -2 -2 0 -2 -1 -4 -2 -5 -2 -1 -2 -1 -4 1
-2 2 -2 2 -1 4 1 1 3 2 5 2 2 0 2 0 2 4 0 5 3 6 7 2z m-87 -58 l3 -4 77 0 c77
0 77 0 79 -2 1 -2 1 -2 -3 -6 -4 -3 -4 -4 -4 -8 0 -4 0 -4 -18 -22 l-18 -18
-40 0 -40 0 -18 18 c-18 18 -18 18 -18 22 0 4 0 5 -4 8 -4 3 -4 4 -4 8 0 4 2
8 4 8 0 0 2 -2 4 -4z m-9 -30 c1 -2 1 -2 0 -4 -4 -4 -7 -3 -7 2 0 5 3 6 7 2z
m48 -40 c1 -2 1 -2 -1 -4 l-2 -2 -2 2 c-2 2 -2 2 -1 4 1 1 3 2 3 2 0 0 2 -1 3
-2z"/><path d="M122 438 c-1 -1 -2 -3 -2 -4 0 -1 -1 -2 -2 -2 -2 0 -4 -1 -5 -2 -1
-2 -1 -2 1 -4 2 -2 2 -2 4 -1 1 1 2 3 2 5 0 1 1 2 2 2 2 0 4 1 5 2 1 2 1 2 0
4 -3 2 -3 2 -5 0z"/><path d="M377 438 c-1 -2 -1 -2 1 -4 l2 -2 2 2 c2 2 2 2 1 4 -1 1 -3 2 -3 2 0
0 -2 -1 -3 -2z"/><path d="M90 406 c-1 -1 -2 -3 -2 -4 0 -1 -1 -2 -2 -2 -2 0 -4 -1 -5 -2 -1 -2
-1 -2 1 -4 2 -2 2 -2 4 -1 1 1 2 3 2 5 0 1 1 2 2 2 2 0 4 1 5 2 1 2 1 2 0 4
-3 2 -3 2 -5 0z"/><path d="M410 406 c-2 -2 -2 -2 0 -4 0 -1 2 -2 4 -2 1 0 2 -1 2 -2 0 -2 1 -4
2 -5 2 -1 2 -1 4 1 2 2 2 2 1 4 -1 1 -3 2 -5 2 -1 0 -2 1 -2 2 0 2 -3 6 -4 6
0 0 -2 -1 -2 -2z"/><path d="M378 398 c-3 -3 -3 -18 0 -20 2 -2 2 -2 4 0 3 2 3 18 0 20 -2 2 -2 2
-4 0z"/><path d="M73 382 c-1 -2 -1 -2 1 -4 l2 -2 2 2 c2 2 2 2 1 4 -1 1 -3 2 -3 2 0
0 -2 -1 -3 -2z"/><path d="M425 382 c-1 -2 -1 -2 1 -4 l2 -2 2 2 c2 2 2 2 1 4 -1 1 -3 2 -3 2 0
0 -2 -1 -3 -2z"/><path d="M441 382 c-1 -2 -1 -2 1 -4 l2 -2 2 2 c2 2 2 2 1 4 -1 1 -3 2 -3 2 0
0 -2 -1 -3 -2z"/><path d="M65 366 c-1 -2 -1 -2 1 -4 l2 -2 2 2 c2 2 2 2 1 4 -1 1 -3 2 -3 2 0
0 -2 -1 -3 -2z"/><path d="M433 366 c-1 -2 -1 -2 1 -4 l2 -2 2 2 c2 2 2 2 1 4 -1 1 -3 2 -3 2 0
0 -2 -1 -3 -2z"/><path d="M449 366 c-1 -2 -1 -2 1 -4 l2 -2 2 2 c2 2 2 2 1 4 -1 1 -3 2 -3 2 0
0 -2 -1 -3 -2z"/><path d="M58 342 c-3 -3 -3 -10 0 -12 3 -3 6 0 6 6 0 7 -3 10 -6 6z"/><path d="M442 342 c-3 -3 -3 -10 0 -12 3 -3 6 0 6 6 0 7 -3 10 -6 6z"/><path d="M458 326 c-3 -3 -3 -34 0 -36 2 -2 2 -2 4 0 3 2 3 34 0 36 -2 2 -2 2
-4 0z"/><path d="M442 294 c-3 -3 -3 -18 0 -20 2 -2 2 -2 4 0 3 2 3 18 0 20 -2 2 -2 2
-4 0z"/><path d="M57 286 c-1 -2 -1 -2 1 -4 l2 -2 2 2 c2 2 2 2 1 4 -1 1 -3 2 -3 2 0
0 -2 -1 -3 -2z"/><path d="M49 262 c-1 -2 -1 -2 1 -4 l2 -2 2 2 c2 2 2 2 1 4 -1 1 -3 2 -3 2 0
0 -2 -1 -3 -2z"/><path d="M449 262 c-1 -2 -1 -2 1 -4 l2 -2 2 2 c2 2 2 2 1 4 -1 1 -3 2 -3 2 0
0 -2 -1 -3 -2z"/><path d="M65 254 c-1 -2 -1 -2 1 -4 l2 -2 2 2 c2 2 2 2 1 4 -1 1 -3 2 -3 2 0
0 -2 -1 -3 -2z"/><path d="M433 254 c-1 -2 -1 -2 1 -4 l2 -2 2 2 c2 2 2 2 1 4 -1 1 -3 2 -3 2 0
0 -2 -1 -3 -2z"/><path d="M74 238 c-2 -2 -2 -2 0 -4 0 -1 2 -2 4 -2 1 0 2 -1 2 -2 0 -2 1 -4 2
-5 2 -1 2 -1 4 1 2 2 2 2 1 4 -1 1 -3 2 -5 2 -1 0 -2 1 -2 2 0 2 -3 6 -4 6 0
0 -2 -1 -2 -2z"/><path d="M426 238 c-1 -1 -2 -3 -2 -4 0 -1 -1 -2 -2 -2 -2 0 -4 -1 -5 -2 -1
-2 -1 -2 1 -4 2 -2 2 -2 4 -1 1 1 2 3 2 5 0 1 1 2 2 2 2 0 4 1 5 2 1 2 1 2 0
4 -3 2 -3 2 -5 0z"/><path d="M410 214 c-1 -1 -2 -3 -2 -4 0 -1 -1 -2 -2 -2 -3 0 -6 -3 -6 -6 0 -1
-1 -2 -2 -2 -3 0 -6 -3 -6 -6 0 -1 -1 -2 -2 -2 -2 0 -4 -1 -5 -2 -1 -2 -1 -2
1 -4 2 -2 2 -2 4 -1 1 1 2 3 2 5 0 1 1 2 2 2 3 0 6 3 6 6 0 1 1 2 2 2 3 0 6 3
6 6 0 1 1 2 2 2 2 0 4 1 5 2 1 2 1 2 0 4 -3 2 -3 2 -5 0z"/><path d="M425 214 c-1 -2 -1 -2 1 -4 l2 -2 2 2 c2 2 2 2 1 4 -1 1 -3 2 -3 2 0
0 -2 -1 -3 -2z"/><path d="M98 206 c-2 -2 -2 -2 0 -4 0 -1 2 -2 4 -2 1 0 2 -1 2 -2 0 -3 3 -6 6
-6 1 0 2 -1 2 -2 0 -2 1 -4 2 -5 2 -1 2 -1 4 1 2 2 2 2 1 4 -1 1 -3 2 -5 2 -1
0 -2 1 -2 2 0 3 -3 6 -6 6 -1 0 -2 1 -2 2 0 2 -3 6 -4 6 0 0 -2 -1 -2 -2z"/><path d="M130 182 c-2 -2 -2 -2 0 -4 0 -1 2 -2 4 -2 1 0 2 -1 2 -2 0 -2 1 -4
2 -5 2 -1 2 -1 4 1 2 2 2 2 1 4 -1 1 -3 2 -5 2 -1 0 -2 1 -2 2 0 2 -3 6 -4 6
0 0 -2 -1 -2 -2z"/><path d="M370 182 c-1 -1 -2 -3 -2 -4 0 -1 -1 -2 -2 -2 -2 0 -4 -1 -4 -2 -2
-2 -2 -2 0 -4 0 -1 2 -2 4 -2 1 0 2 -1 2 -2 0 -2 1 -4 2 -4 2 -2 2 -2 4 0 1 0
2 2 2 4 0 1 1 2 2 2 2 0 4 1 5 2 1 2 1 2 0 4 -1 1 -3 2 -5 2 -1 0 -2 1 -2 2 0
2 -3 6 -4 6 0 0 -1 -1 -2 -2z m6 -10 l0 -4 -4 0 -4 0 0 4 0 4 4 0 4 0 0 -4z"/><path d="M154 166 c-1 -1 -2 -3 -2 -4 0 -1 -1 -2 -2 -2 -2 0 -4 -1 -5 -2 -1
-2 -1 -2 1 -4 2 -2 2 -2 4 -1 1 1 2 3 2 5 0 1 1 2 2 2 2 0 4 1 5 2 1 2 1 2 0
4 -3 2 -3 2 -5 0z"/><path d="M346 166 c-2 -2 -2 -2 0 -4 0 -1 2 -2 4 -2 1 0 2 -1 2 -2 0 -2 1 -4
2 -5 2 -1 2 -1 4 1 2 2 2 2 1 4 -1 1 -3 2 -5 2 -1 0 -2 1 -2 2 0 2 -3 6 -4 6
0 0 -2 -1 -2 -2z"/><path d="M166 154 c-6 -6 -6 -6 -4 -8 1 -1 3 -2 6 -2 4 0 5 0 10 6 6 6 6 6 4
8 -1 1 -3 2 -6 2 -4 0 -5 -1 -10 -6z"/><path d="M322 158 c-2 -2 -2 -2 4 -8 5 -6 6 -6 10 -6 3 0 5 1 6 2 2 2 2 2 -4
8 -5 6 -6 6 -10 6 -3 0 -5 -1 -6 -2z"/><path d="M190 146 l-6 -6 8 -8 c8 -7 8 -8 8 -12 0 -4 1 -5 6 -10 3 -4 7 -6 8
-6 2 0 2 -1 2 -6 0 -7 2 -10 6 -10 2 0 2 0 2 -6 0 -7 0 -7 4 -10 4 -3 4 -4 4
-8 0 -4 0 -5 8 -12 8 -7 8 -8 8 -12 0 -3 1 -5 2 -6 2 -2 2 -2 8 4 l6 6 0 6 c0
6 0 6 2 6 4 0 6 3 6 10 0 5 0 6 2 6 1 0 5 2 8 6 l6 6 0 6 c0 6 0 6 2 6 4 0 6
3 6 10 0 6 0 6 2 6 4 0 6 3 6 10 0 5 0 6 2 6 1 0 5 3 8 6 l6 6 -6 6 c-6 6 -6
6 -8 4 -2 -1 -2 -3 -2 -12 l0 -10 -6 0 c-6 0 -7 0 -9 -2 -1 -2 -1 -2 3 -6 6
-6 6 -8 -2 -8 -6 0 -7 0 -9 -2 -1 -2 -1 -2 3 -6 5 -4 6 -8 2 -8 -2 0 -4 -1 -6
-4 -3 -4 -4 -4 -8 -4 -3 0 -5 -1 -7 -2 -1 -2 -1 -2 3 -6 6 -6 6 -8 -2 -8 -6 0
-7 0 -9 -2 -1 -2 -1 -2 3 -6 6 -5 6 -8 -2 -8 l-6 0 -6 6 -6 6 4 4 c4 4 4 4 3
6 -2 1 -4 2 -7 2 -4 0 -5 0 -8 4 -2 3 -4 4 -6 4 -4 0 -3 4 2 8 4 4 4 4 3 6 -2
2 -3 2 -9 2 -8 0 -8 2 -2 8 4 4 4 4 3 6 -2 1 -4 2 -7 2 -6 0 -8 2 -8 8 0 4 0
5 -4 8 -4 3 -4 4 -4 8 0 3 -1 5 -2 6 -2 2 -2 3 -8 -4z"/></g>
  <g transform="scale(0.125 0.125) translate(0.000000,512.000000) scale(1.000000,-1.000000)" fill="#0b0809" stroke="none"><path d="M218 478 c-3 -3 0 -6 6 -6 3 0 5 1 7 2 2 3 -1 6 -7 6 -3 0 -5 -1 -6
-2z"/><path d="M274 478 c-3 -3 0 -6 6 -6 6 0 9 3 7 6 -2 1 -4 2 -7 2 -3 0 -5 -1 -6
-2z"/><path d="M185 470 c-1 -2 -1 -2 1 -4 l2 -2 2 2 c2 2 2 2 1 4 -1 1 -3 2 -3 2 0
0 -2 -1 -3 -2z"/><path d="M313 470 c-1 -2 -1 -2 1 -4 l2 -2 2 2 c2 2 2 2 1 4 -1 1 -3 2 -3 2 0
0 -2 -1 -3 -2z"/><path d="M161 462 c-1 -2 -1 -2 1 -4 l2 -2 2 2 c2 2 2 2 1 4 -1 1 -3 2 -3 2 0
0 -2 -1 -3 -2z"/><path d="M337 462 c-1 -2 -1 -2 1 -4 l2 -2 2 2 c2 2 2 2 1 4 -1 1 -3 2 -3 2 0
0 -2 -1 -3 -2z"/><path d="M145 454 c-1 -2 -1 -2 1 -4 l2 -2 2 2 c2 2 2 2 1 4 -1 1 -3 2 -3 2 0
0 -2 -1 -3 -2z"/><path d="M353 454 c-1 -2 -1 -2 1 -4 l2 -2 2 2 c2 2 2 2 1 4 -1 1 -3 2 -3 2 0
0 -2 -1 -3 -2z"/><path d="M170 446 c-1 -1 -2 -3 -2 -6 0 -3 -1 -5 -2 -7 -2 -1 -2 -1 -6 3 -4 4
-4 4 -6 3 -1 -2 -2 -4 -2 -7 0 -4 0 -5 -4 -8 -4 -3 -4 -4 -4 -8 0 -5 -2 -8 -6
-8 -1 0 -2 1 -2 2 0 2 -1 4 -2 5 -2 1 -2 1 -4 -1 -2 -2 -2 -2 -1 -4 1 -1 3 -2
5 -2 l2 0 0 -18 0 -18 -4 -4 c-4 -4 -4 -4 -3 -6 2 -1 4 -2 7 -2 7 0 8 -1 8
-16 0 -15 1 -16 8 -16 5 0 8 -2 8 -6 0 -1 -1 -2 -2 -2 -2 0 -4 -1 -4 -2 -2 -2
-2 -2 0 -4 0 -1 2 -2 4 -2 1 0 2 -1 2 -2 0 -4 3 -6 8 -6 4 0 5 0 14 -10 10
-10 12 -14 8 -14 -2 0 -4 -1 -5 -2 -1 -2 -1 -2 1 -4 2 -2 2 -2 4 -1 1 1 2 3 2
5 0 1 1 2 2 2 4 0 6 -3 6 -8 0 -4 0 -5 8 -12 8 -8 10 -12 6 -12 -2 0 -4 -1 -5
-2 -1 -2 -1 -2 1 -4 2 -2 2 -2 4 -1 1 1 2 3 2 5 0 1 1 2 2 2 4 0 6 -3 6 -8 0
-4 0 -5 4 -8 l5 -4 -5 -4 c-4 -4 -4 -4 -3 -6 2 -1 4 -2 7 -2 6 0 8 -2 8 -8 0
-4 0 -5 4 -8 l5 -4 -5 -4 c-4 -4 -4 -4 -3 -6 2 -2 3 -2 9 -2 l6 0 0 -4 c0 -4
0 -4 -2 -4 -2 0 -4 -1 -5 -2 -1 -2 -1 -2 1 -4 2 -2 2 -2 4 -1 1 1 2 3 2 5 0 1
1 2 2 2 2 0 4 1 5 2 1 2 1 2 0 4 -1 1 -3 2 -5 2 -2 0 -2 0 -2 6 0 8 2 10 8 10
3 0 5 1 7 2 1 2 1 2 -3 6 l-4 4 4 4 c4 3 4 4 4 8 0 5 2 8 6 8 1 0 2 -1 2 -2 0
-2 1 -4 2 -5 2 -1 2 -1 4 1 2 2 2 2 1 4 -1 1 -3 2 -5 2 -1 0 -2 1 -2 2 0 4 3
6 8 6 7 0 8 2 8 12 l0 8 10 10 c10 10 10 10 14 10 3 0 5 1 7 2 1 2 1 2 -3 6
l-4 4 10 10 c10 10 10 10 14 10 3 0 5 1 7 2 1 2 1 2 -3 6 l-4 4 6 6 c5 6 6 6
10 6 3 0 5 1 7 2 1 2 1 2 -3 6 -4 4 -4 4 -3 6 2 1 4 2 7 2 3 0 5 1 7 2 1 2 1
2 -3 6 l-4 4 0 20 0 21 4 3 c4 4 4 4 3 6 -2 1 -4 2 -7 2 -4 0 -4 0 -14 10 -10
10 -10 10 -10 14 0 3 -1 5 -2 7 -2 1 -2 1 -6 -3 l-3 -4 -13 0 -12 0 -4 4 c-4
4 -4 4 -6 3 -1 -2 -2 -4 -2 -7 0 -3 -1 -5 -2 -7 -2 -1 -2 -1 -6 3 -4 4 -4 4
-6 3 -1 -2 -2 -4 -2 -7 0 -6 -10 -16 -16 -16 -5 0 -8 -2 -8 -6 0 -2 -1 -2 -6
-2 l-6 0 -16 16 -16 16 -16 0 -17 0 -3 4 c-4 5 -4 5 -6 2z m38 -26 c3 -4 4 -4
8 -4 6 0 8 -2 8 -8 0 -4 0 -5 4 -8 4 -3 4 -4 4 -8 0 -4 0 -5 4 -8 4 -4 4 -4 3
-6 -2 -2 -3 -2 -39 -2 -42 0 -40 0 -40 -8 0 -6 -3 -9 -6 -6 -2 1 -2 3 -2 18
l0 17 4 3 c4 3 4 4 4 8 0 6 2 8 8 8 4 0 5 0 8 4 l3 4 13 0 13 0 3 -4z m120 0
c3 -4 4 -4 8 -4 4 0 5 0 10 -6 l6 -6 0 -12 c0 -10 0 -13 -2 -14 -1 -2 -4 -2
-42 -2 -40 0 -41 0 -43 2 -1 2 -1 2 3 6 4 3 4 4 4 8 0 4 0 4 14 18 l14 14 12
0 13 0 3 -4z m-65 -14 c1 -2 1 -2 0 -4 -1 -1 -3 -2 -5 -2 -1 0 -2 -1 -2 -2 0
-2 -1 -4 -2 -5 -2 -1 -2 -1 -4 1 -2 2 -2 2 -1 4 1 1 3 2 5 2 2 0 2 0 2 4 0 5
3 6 7 2z m-87 -58 l3 -4 77 0 c77 0 77 0 79 -2 1 -2 1 -2 -3 -6 -4 -3 -4 -4
-4 -8 0 -4 0 -4 -18 -22 l-18 -18 -40 0 -40 0 -18 18 c-18 18 -18 18 -18 22 0
4 0 5 -4 8 -4 3 -4 4 -4 8 0 4 2 8 4 8 0 0 2 -2 4 -4z m-9 -30 c1 -2 1 -2 0
-4 -4 -4 -7 -3 -7 2 0 5 3 6 7 2z m48 -40 c1 -2 1 -2 -1 -4 l-2 -2 -2 2 c-2 2
-2 2 -1 4 1 1 3 2 3 2 0 0 2 -1 3 -2z"/><path d="M122 438 c-1 -1 -2 -3 -2 -4 0 -1 -1 -2 -2 -2 -2 0 -4 -1 -5 -2 -1
-2 -1 -2 1 -4 2 -2 2 -2 4 -1 1 1 2 3 2 5 0 1 1 2 2 2 2 0 4 1 5 2 1 2 1 2 0
4 -3 2 -3 2 -5 0z"/><path d="M377 438 c-1 -2 -1 -2 1 -4 l2 -2 2 2 c2 2 2 2 1 4 -1 1 -3 2 -3 2 0
0 -2 -1 -3 -2z"/><path d="M90 406 c-1 -1 -2 -3 -2 -4 0 -1 -1 -2 -2 -2 -2 0 -4 -1 -5 -2 -1 -2
-1 -2 1 -4 2 -2 2 -2 4 -1 1 1 2 3 2 5 0 1 1 2 2 2 2 0 4 1 5 2 1 2 1 2 0 4
-3 2 -3 2 -5 0z"/><path d="M410 406 c-2 -2 -2 -2 0 -4 0 -1 2 -2 4 -2 1 0 2 -1 2 -2 0 -2 1 -4
2 -5 2 -1 2 -1 4 1 2 2 2 2 1 4 -1 1 -3 2 -5 2 -1 0 -2 1 -2 2 0 2 -3 6 -4 6
0 0 -2 -1 -2 -2z"/><path d="M378 398 c-3 -3 -3 -18 0 -20 2 -2 2 -2 4 0 3 2 3 18 0 20 -2 2 -2 2
-4 0z"/><path d="M73 382 c-1 -2 -1 -2 1 -4 l2 -2 2 2 c2 2 2 2 1 4 -1 1 -3 2 -3 2 0
0 -2 -1 -3 -2z"/><path d="M425 382 c-1 -2 -1 -2 1 -4 l2 -2 2 2 c2 2 2 2 1 4 -1 1 -3 2 -3 2 0
0 -2 -1 -3 -2z"/><path d="M441 382 c-1 -2 -1 -2 1 -4 l2 -2 2 2 c2 2 2 2 1 4 -1 1 -3 2 -3 2 0
0 -2 -1 -3 -2z"/><path d="M65 366 c-1 -2 -1 -2 1 -4 l2 -2 2 2 c2 2 2 2 1 4 -1 1 -3 2 -3 2 0
0 -2 -1 -3 -2z"/><path d="M433 366 c-1 -2 -1 -2 1 -4 l2 -2 2 2 c2 2 2 2 1 4 -1 1 -3 2 -3 2 0
0 -2 -1 -3 -2z"/><path d="M449 366 c-1 -2 -1 -2 1 -4 l2 -2 2 2 c2 2 2 2 1 4 -1 1 -3 2 -3 2 0
0 -2 -1 -3 -2z"/><path d="M58 342 c-3 -3 -3 -10 0 -12 3 -3 6 0 6 6 0 7 -3 10 -6 6z"/><path d="M442 342 c-3 -3 -3 -10 0 -12 3 -3 6 0 6 6 0 7 -3 10 -6 6z"/><path d="M458 326 c-3 -3 -3 -34 0 -36 2 -2 2 -2 4 0 3 2 3 34 0 36 -2 2 -2 2
-4 0z"/><path d="M442 294 c-3 -3 -3 -18 0 -20 2 -2 2 -2 4 0 3 2 3 18 0 20 -2 2 -2 2
-4 0z"/><path d="M57 286 c-1 -2 -1 -2 1 -4 l2 -2 2 2 c2 2 2 2 1 4 -1 1 -3 2 -3 2 0
0 -2 -1 -3 -2z"/><path d="M49 262 c-1 -2 -1 -2 1 -4 l2 -2 2 2 c2 2 2 2 1 4 -1 1 -3 2 -3 2 0
0 -2 -1 -3 -2z"/><path d="M449 262 c-1 -2 -1 -2 1 -4 l2 -2 2 2 c2 2 2 2 1 4 -1 1 -3 2 -3 2 0
0 -2 -1 -3 -2z"/><path d="M65 254 c-1 -2 -1 -2 1 -4 l2 -2 2 2 c2 2 2 2 1 4 -1 1 -3 2 -3 2 0
0 -2 -1 -3 -2z"/><path d="M433 254 c-1 -2 -1 -2 1 -4 l2 -2 2 2 c2 2 2 2 1 4 -1 1 -3 2 -3 2 0
0 -2 -1 -3 -2z"/><path d="M74 238 c-2 -2 -2 -2 0 -4 0 -1 2 -2 4 -2 1 0 2 -1 2 -2 0 -2 1 -4 2
-5 2 -1 2 -1 4 1 2 2 2 2 1 4 -1 1 -3 2 -5 2 -1 0 -2 1 -2 2 0 2 -3 6 -4 6 0
0 -2 -1 -2 -2z"/><path d="M426 238 c-1 -1 -2 -3 -2 -4 0 -1 -1 -2 -2 -2 -2 0 -4 -1 -5 -2 -1
-2 -1 -2 1 -4 2 -2 2 -2 4 -1 1 1 2 3 2 5 0 1 1 2 2 2 2 0 4 1 5 2 1 2 1 2 0
4 -3 2 -3 2 -5 0z"/><path d="M410 214 c-1 -1 -2 -3 -2 -4 0 -1 -1 -2 -2 -2 -3 0 -6 -3 -6 -6 0 -1
-1 -2 -2 -2 -3 0 -6 -3 -6 -6 0 -1 -1 -2 -2 -2 -2 0 -4 -1 -5 -2 -1 -2 -1 -2
1 -4 2 -2 2 -2 4 -1 1 1 2 3 2 5 0 1 1 2 2 2 3 0 6 3 6 6 0 1 1 2 2 2 3 0 6 3
6 6 0 1 1 2 2 2 2 0 4 1 5 2 1 2 1 2 0 4 -3 2 -3 2 -5 0z"/><path d="M425 214 c-1 -2 -1 -2 1 -4 l2 -2 2 2 c2 2 2 2 1 4 -1 1 -3 2 -3 2 0
0 -2 -1 -3 -2z"/><path d="M98 206 c-2 -2 -2 -2 0 -4 0 -1 2 -2 4 -2 1 0 2 -1 2 -2 0 -3 3 -6 6
-6 1 0 2 -1 2 -2 0 -2 1 -4 2 -5 2 -1 2 -1 4 1 2 2 2 2 1 4 -1 1 -3 2 -5 2 -1
0 -2 1 -2 2 0 3 -3 6 -6 6 -1 0 -2 1 -2 2 0 2 -3 6 -4 6 0 0 -2 -1 -2 -2z"/><path d="M130 182 c-2 -2 -2 -2 0 -4 0 -1 2 -2 4 -2 1 0 2 -1 2 -2 0 -2 1 -4
2 -5 2 -1 2 -1 4 1 2 2 2 2 1 4 -1 1 -3 2 -5 2 -1 0 -2 1 -2 2 0 2 -3 6 -4 6
0 0 -2 -1 -2 -2z"/><path d="M370 182 c-1 -1 -2 -3 -2 -4 0 -1 -1 -2 -2 -2 -2 0 -4 -1 -4 -2 -2
-2 -2 -2 0 -4 0 -1 2 -2 4 -2 1 0 2 -1 2 -2 0 -2 1 -4 2 -4 2 -2 2 -2 4 0 1 0
2 2 2 4 0 1 1 2 2 2 2 0 4 1 5 2 1 2 1 2 0 4 -1 1 -3 2 -5 2 -1 0 -2 1 -2 2 0
2 -3 6 -4 6 0 0 -1 -1 -2 -2z m6 -10 l0 -4 -4 0 -4 0 0 4 0 4 4 0 4 0 0 -4z"/><path d="M154 166 c-1 -1 -2 -3 -2 -4 0 -1 -1 -2 -2 -2 -2 0 -4 -1 -5 -2 -1
-2 -1 -2 1 -4 2 -2 2 -2 4 -1 1 1 2 3 2 5 0 1 1 2 2 2 2 0 4 1 5 2 1 2 1 2 0
4 -3 2 -3 2 -5 0z"/><path d="M346 166 c-2 -2 -2 -2 0 -4 0 -1 2 -2 4 -2 1 0 2 -1 2 -2 0 -2 1 -4
2 -5 2 -1 2 -1 4 1 2 2 2 2 1 4 -1 1 -3 2 -5 2 -1 0 -2 1 -2 2 0 2 -3 6 -4 6
0 0 -2 -1 -2 -2z"/><path d="M166 154 c-6 -6 -6 -6 -4 -8 1 -1 3 -2 6 -2 4 0 5 0 10 6 6 6 6 6 4
8 -1 1 -3 2 -6 2 -4 0 -5 -1 -10 -6z"/><path d="M322 158 c-2 -2 -2 -2 4 -8 5 -6 6 -6 10 -6 3 0 5 1 6 2 2 2 2 2 -4
8 -5 6 -6 6 -10 6 -3 0 -5 -1 -6 -2z"/><path d="M190 146 l-6 -6 8 -8 c8 -7 8 -8 8 -12 0 -4 1 -5 6 -10 3 -4 7 -6 8
-6 2 0 2 -1 2 -6 0 -7 2 -10 6 -10 2 0 2 0 2 -6 0 -7 0 -7 4 -10 4 -3 4 -4 4
-8 0 -4 0 -5 8 -12 8 -7 8 -8 8 -12 0 -3 1 -5 2 -6 2 -2 2 -2 8 4 l6 6 0 6 c0
6 0 6 2 6 4 0 6 3 6 10 0 5 0 6 2 6 1 0 5 2 8 6 l6 6 0 6 c0 6 0 6 2 6 4 0 6
3 6 10 0 6 0 6 2 6 4 0 6 3 6 10 0 5 0 6 2 6 1 0 5 3 8 6 l6 6 -6 6 c-6 6 -6
6 -8 4 -2 -1 -2 -3 -2 -12 l0 -10 -6 0 c-6 0 -7 0 -9 -2 -1 -2 -1 -2 3 -6 6
-6 6 -8 -2 -8 -6 0 -7 0 -9 -2 -1 -2 -1 -2 3 -6 5 -4 6 -8 2 -8 -2 0 -4 -1 -6
-4 -3 -4 -4 -4 -8 -4 -3 0 -5 -1 -7 -2 -1 -2 -1 -2 3 -6 6 -6 6 -8 -2 -8 -6 0
-7 0 -9 -2 -1 -2 -1 -2 3 -6 6 -5 6 -8 -2 -8 l-6 0 -6 6 -6 6 4 4 c4 4 4 4 3
6 -2 1 -4 2 -7 2 -4 0 -5 0 -8 4 -2 3 -4 4 -6 4 -4 0 -3 4 2 8 4 4 4 4 3 6 -2
2 -3 2 -9 2 -8 0 -8 2 -2 8 4 4 4 4 3 6 -2 1 -4 2 -7 2 -6 0 -8 2 -8 8 0 4 0
5 -4 8 -4 3 -4 4 -4 8 0 3 -1 5 -2 6 -2 2 -2 3 -8 -4z"/></g>
  <g transform="scale(0.125 0.125) translate(0.000000,512.000000) scale(1.000000,-1.000000)" fill="#000000" stroke="none"><path d="M218 478 c-3 -3 0 -6 6 -6 3 0 5 1 7 2 2 3 -1 6 -7 6 -3 0 -5 -1 -6
-2z"/><path d="M274 478 c-3 -3 0 -6 6 -6 6 0 9 3 7 6 -2 1 -4 2 -7 2 -3 0 -5 -1 -6
-2z"/><path d="M185 470 c-1 -2 -1 -2 1 -4 l2 -2 2 2 c2 2 2 2 1 4 -1 1 -3 2 -3 2 0
0 -2 -1 -3 -2z"/><path d="M313 470 c-1 -2 -1 -2 1 -4 l2 -2 2 2 c2 2 2 2 1 4 -1 1 -3 2 -3 2 0
0 -2 -1 -3 -2z"/><path d="M161 462 c-1 -2 -1 -2 1 -4 l2 -2 2 2 c2 2 2 2 1 4 -1 1 -3 2 -3 2 0
0 -2 -1 -3 -2z"/><path d="M337 462 c-1 -2 -1 -2 1 -4 l2 -2 2 2 c2 2 2 2 1 4 -1 1 -3 2 -3 2 0
0 -2 -1 -3 -2z"/><path d="M145 454 c-1 -2 -1 -2 1 -4 l2 -2 2 2 c2 2 2 2 1 4 -1 1 -3 2 -3 2 0
0 -2 -1 -3 -2z"/><path d="M353 454 c-1 -2 -1 -2 1 -4 l2 -2 2 2 c2 2 2 2 1 4 -1 1 -3 2 -3 2 0
0 -2 -1 -3 -2z"/><path d="M170 446 c-2 -2 -2 -2 0 -4 0 -1 2 -2 4 -2 2 0 2 0 2 -4 l0 -4 -8 0
c-8 0 -8 0 -8 2 0 2 -1 4 -2 5 -2 1 -2 1 -4 -1 -2 -2 -2 -2 -1 -4 1 -1 3 -2 5
-2 2 0 2 0 2 -4 l0 -4 -6 0 c-9 0 -10 -1 -10 -14 0 -10 0 -10 -2 -10 -5 0 -6
-3 -6 -12 0 -10 1 -12 8 -12 3 0 5 1 7 2 1 2 1 2 -3 6 -4 3 -4 4 -4 10 l0 6 6
0 c6 0 7 0 9 2 1 2 1 2 -3 6 l-4 4 4 4 c2 2 4 4 4 6 0 4 4 3 8 -2 4 -4 4 -4 6
-3 2 2 2 3 2 9 l0 6 16 0 16 0 0 -6 c0 -8 3 -12 6 -8 5 4 2 14 -4 14 -1 0 -2
1 -2 2 0 5 -2 6 -18 6 l-14 0 0 2 c0 2 -3 6 -4 6 0 0 -2 -1 -2 -2z"/><path d="M298 446 c-2 -1 -2 -3 -2 -8 l0 -6 -4 0 c-4 0 -4 0 -4 2 0 2 -1 4 -2
5 -2 1 -2 1 -4 -1 -2 -2 -2 -2 -1 -4 1 -1 3 -2 5 -2 2 0 2 0 2 -8 0 -8 0 -8
-2 -8 -3 0 -6 -3 -6 -6 0 -2 0 -2 -8 -2 -8 0 -8 0 -8 2 0 2 -1 4 -2 5 -2 1 -2
1 -4 0 -1 -1 -2 -3 -2 -5 0 -1 -1 -2 -2 -2 -2 0 -4 -1 -5 -2 -1 -2 -1 -2 1 -4
2 -2 2 -2 4 -1 1 1 2 3 2 5 0 2 0 2 4 2 4 0 4 0 4 -2 0 -4 3 -6 8 -6 5 0 8 2
8 6 0 1 1 2 2 2 3 0 6 3 6 6 0 1 1 2 2 2 4 0 6 3 6 10 l0 6 14 0 c17 0 18 0
18 -8 0 -3 1 -5 2 -7 2 -1 2 -1 6 3 4 4 4 4 6 3 1 -2 2 -4 2 -7 0 -6 2 -8 10
-8 6 0 6 0 6 -2 0 -2 -1 -4 -4 -6 l-4 -3 0 -9 c0 -13 4 -12 -44 -12 -40 0 -41
0 -43 2 -1 2 -1 2 3 6 4 4 4 4 3 6 -2 1 -4 2 -7 2 -4 0 -5 0 -8 -4 -4 -5 -8
-6 -8 -2 0 6 -10 8 -14 4 -4 -3 0 -6 8 -6 l6 0 0 -4 0 -4 -42 0 c-48 0 -46 0
-46 -8 0 -3 -1 -5 -2 -7 -2 -1 -2 -1 -6 3 -4 4 -4 4 -6 3 -3 -3 -3 -19 0 -22
2 -1 2 -1 6 3 4 4 4 4 6 3 1 -2 2 -4 2 -7 0 -5 2 -8 6 -8 4 0 3 -4 -2 -8 -3
-2 -4 -4 -4 -6 0 -1 -1 -2 -2 -2 -2 0 -4 -1 -4 -2 -2 -2 -2 -2 0 -4 0 -1 2 -2
4 -2 1 0 2 -1 2 -2 0 -2 1 -4 2 -4 2 -2 2 -2 4 0 1 0 2 2 2 4 0 2 0 2 8 2 l8
0 0 -4 c0 -4 0 -4 -2 -4 -2 0 -4 -1 -4 -2 -2 -2 -2 -2 0 -4 0 -1 2 -2 4 -2 1
0 2 -1 2 -2 0 -2 1 -4 4 -6 5 -4 6 -8 2 -8 -2 0 -4 -1 -5 -2 -1 -2 -1 -2 1 -4
2 -2 2 -2 4 -1 1 1 2 3 2 5 0 4 4 3 8 -2 l4 -4 4 4 c4 4 4 4 6 3 4 -4 3 -11
-2 -15 -4 -4 -4 -4 -3 -6 2 -1 4 -2 7 -2 4 0 4 0 14 -10 l10 -10 -4 -4 c-2 -2
-4 -4 -4 -6 0 -1 -1 -2 -2 -2 -2 0 -4 -1 -5 -2 -1 -2 -1 -2 1 -4 2 -2 2 -2 4
-1 1 1 2 3 2 5 0 2 0 2 6 2 7 0 7 0 10 -4 l3 -4 9 0 c10 0 12 1 12 8 0 5 2 8
6 8 1 0 2 -1 2 -2 0 -2 1 -4 2 -5 2 -1 2 -1 4 1 2 2 2 2 1 4 -1 1 -3 2 -5 2
-2 0 -2 0 -2 10 0 12 1 14 8 14 4 0 5 1 10 6 l6 6 -4 4 c-4 4 -4 4 -3 6 2 1 4
2 7 2 4 0 5 0 8 4 4 5 8 6 8 2 0 -2 1 -4 2 -5 2 -1 2 -1 4 1 2 2 2 2 1 4 -1 1
-3 2 -5 2 -4 0 -3 4 2 8 l5 4 -5 4 c-6 6 -6 8 2 8 8 0 10 2 10 8 0 6 2 8 8 8
3 0 5 1 7 2 1 2 1 2 -3 6 -4 4 -4 4 -3 6 3 3 15 3 15 0 0 -2 1 -4 2 -5 2 -1 2
-1 4 1 2 2 2 2 1 4 -1 1 -3 2 -5 2 -1 0 -2 1 -2 2 0 2 -1 4 -4 6 -4 3 -4 4 -4
8 0 6 2 8 8 8 8 0 8 1 8 22 l0 18 2 0 c2 0 4 1 5 2 1 2 1 2 -1 4 -2 2 -2 2 -4
1 -1 -1 -2 -3 -2 -5 0 -2 0 -2 -4 -2 l-4 0 0 6 0 6 -6 6 c-5 6 -6 6 -10 6 -5
0 -8 2 -8 6 0 1 1 2 2 2 2 0 4 1 5 2 1 2 1 2 -1 4 -2 2 -2 2 -4 1 -1 -1 -2 -3
-2 -5 l0 -2 -14 0 -15 0 -3 4 c-4 5 -4 5 -6 2z m-43 -72 c1 -2 1 -2 -1 -4 -2
-2 -2 -2 -4 -1 -3 3 -3 7 0 7 2 0 4 -1 5 -2z m-79 -26 l3 -4 77 0 c77 0 77 0
79 -2 1 -2 1 -2 -3 -6 -4 -3 -4 -4 -4 -8 0 -4 0 -5 -4 -8 -3 -2 -4 -4 -4 -6 0
-1 -1 -2 -2 -2 -2 0 -6 -4 -14 -12 l-12 -12 -40 0 -40 0 -8 8 c-8 8 -12 10
-12 6 0 -3 -3 -6 -6 -6 -2 0 -2 0 -2 4 l0 4 4 0 c3 0 4 0 4 2 0 3 -3 6 -6 6
-1 0 -2 1 -2 2 0 2 -1 4 -4 6 -4 3 -4 4 -4 8 0 5 -2 8 -6 8 -2 0 -2 0 -2 6 0
5 0 7 2 8 2 3 2 3 6 -2z m-10 -30 c1 -1 2 -2 2 -4 0 -2 0 -2 -4 -2 l-4 0 0 4
c0 5 3 6 6 2z"/><path d="M122 438 c-1 -1 -2 -3 -2 -4 0 -1 -1 -2 -2 -2 -2 0 -4 -1 -5 -2 -1
-2 -1 -2 1 -4 2 -2 2 -2 4 -1 1 1 2 3 2 5 0 1 1 2 2 2 2 0 4 1 5 2 1 2 1 2 0
4 -3 2 -3 2 -5 0z"/><path d="M377 438 c-1 -2 -1 -2 1 -4 l2 -2 2 2 c2 2 2 2 1 4 -1 1 -3 2 -3 2 0
0 -2 -1 -3 -2z"/><path d="M129 414 c-1 -2 -1 -2 1 -4 l2 -2 2 2 c2 2 2 2 1 4 -1 1 -3 2 -3 2 0
0 -2 -1 -3 -2z"/><path d="M230 410 c-6 -6 -6 -6 -4 -8 2 -3 10 -3 12 0 3 2 3 10 0 12 -2 2 -2
3 -8 -4z"/><path d="M90 406 c-1 -1 -2 -3 -2 -4 0 -1 -1 -2 -2 -2 -2 0 -4 -1 -5 -2 -1 -2
-1 -2 1 -4 2 -2 2 -2 4 -1 1 1 2 3 2 5 0 1 1 2 2 2 2 0 4 1 5 2 1 2 1 2 0 4
-3 2 -3 2 -5 0z"/><path d="M410 406 c-2 -2 -2 -2 0 -4 0 -1 2 -2 4 -2 1 0 2 -1 2 -2 0 -2 1 -4
2 -5 2 -1 2 -1 4 1 2 2 2 2 1 4 -1 1 -3 2 -5 2 -1 0 -2 1 -2 2 0 2 -3 6 -4 6
0 0 -2 -1 -2 -2z"/><path d="M378 398 c-3 -3 -3 -18 0 -20 2 -2 2 -2 4 0 3 2 3 18 0 20 -2 2 -2 2
-4 0z"/><path d="M73 382 c-1 -2 -1 -2 1 -4 l2 -2 2 2 c2 2 2 2 1 4 -1 1 -3 2 -3 2 0
0 -2 -1 -3 -2z"/><path d="M425 382 c-1 -2 -1 -2 1 -4 l2 -2 2 2 c2 2 2 2 1 4 -1 1 -3 2 -3 2 0
0 -2 -1 -3 -2z"/><path d="M65 366 c-1 -2 -1 -2 1 -4 l2 -2 2 2 c2 2 2 2 1 4 -1 1 -3 2 -3 2 0
0 -2 -1 -3 -2z"/><path d="M129 366 c-1 -2 -1 -2 1 -4 l2 -2 2 2 c2 2 2 2 1 4 -1 1 -3 2 -3 2 0
0 -2 -1 -3 -2z"/><path d="M433 366 c-1 -2 -1 -2 1 -4 l2 -2 2 2 c2 2 2 2 1 4 -1 1 -3 2 -3 2 0
0 -2 -1 -3 -2z"/><path d="M369 358 c-1 -2 -1 -2 1 -4 l2 -2 2 2 c2 2 2 2 1 4 -1 1 -3 2 -3 2 0
0 -2 -1 -3 -2z"/><path d="M58 342 c-3 -3 -3 -10 0 -12 3 -3 6 0 6 6 0 7 -3 10 -6 6z"/><path d="M442 342 c-3 -3 -3 -10 0 -12 3 -3 6 0 6 6 0 7 -3 10 -6 6z"/><path d="M145 334 c-1 -2 -1 -2 1 -4 l2 -2 2 2 c2 2 2 2 1 4 -1 1 -3 2 -3 2 0
0 -2 -1 -3 -2z"/><path d="M458 326 c-3 -3 -3 -34 0 -36 2 -2 2 -2 4 0 3 2 3 34 0 36 -2 2 -2 2
-4 0z"/><path d="M345 318 c-1 -2 -1 -2 1 -4 l2 -2 2 2 c2 2 2 2 1 4 -1 1 -3 2 -3 2 0
0 -2 -1 -3 -2z"/><path d="M442 294 c-3 -3 -3 -18 0 -20 2 -2 2 -2 4 0 3 2 3 18 0 20 -2 2 -2 2
-4 0z"/><path d="M57 286 c-1 -2 -1 -2 1 -4 l2 -2 2 2 c2 2 2 2 1 4 -1 1 -3 2 -3 2 0
0 -2 -1 -3 -2z"/><path d="M65 254 c-1 -2 -1 -2 1 -4 l2 -2 2 2 c2 2 2 2 1 4 -1 1 -3 2 -3 2 0
0 -2 -1 -3 -2z"/><path d="M433 254 c-1 -2 -1 -2 1 -4 l2 -2 2 2 c2 2 2 2 1 4 -1 1 -3 2 -3 2 0
0 -2 -1 -3 -2z"/><path d="M209 246 c-1 -2 -1 -2 1 -4 l2 -2 2 2 c2 2 2 2 1 4 -1 1 -3 2 -3 2 0
0 -2 -1 -3 -2z"/><path d="M289 246 c-1 -2 -1 -2 1 -4 l2 -2 2 2 c2 2 2 2 1 4 -1 1 -3 2 -3 2 0
0 -2 -1 -3 -2z"/><path d="M74 238 c-2 -2 -2 -2 0 -4 0 -1 2 -2 4 -2 1 0 2 -1 2 -2 0 -2 1 -4 2
-5 2 -1 2 -1 4 1 2 2 2 2 1 4 -1 1 -3 2 -5 2 -1 0 -2 1 -2 2 0 2 -3 6 -4 6 0
0 -2 -1 -2 -2z"/><path d="M426 238 c-1 -1 -2 -3 -2 -4 0 -1 -1 -2 -2 -2 -2 0 -4 -1 -5 -2 -1
-2 -1 -2 1 -4 2 -2 2 -2 4 -1 1 1 2 3 2 5 0 1 1 2 2 2 2 0 4 1 5 2 1 2 1 2 0
4 -3 2 -3 2 -5 0z"/><path d="M410 214 c-1 -1 -2 -3 -2 -4 0 -1 -1 -2 -2 -2 -3 0 -6 -3 -6 -6 0 -1
-1 -2 -2 -2 -3 0 -6 -3 -6 -6 0 -1 -1 -2 -2 -2 -2 0 -4 -1 -5 -2 -1 -2 -1 -2
1 -4 2 -2 2 -2 4 -1 1 1 2 3 2 5 0 1 1 2 2 2 3 0 6 3 6 6 0 1 1 2 2 2 3 0 6 3
6 6 0 1 1 2 2 2 2 0 4 1 5 2 1 2 1 2 0 4 -3 2 -3 2 -5 0z"/><path d="M98 206 c-2 -2 -2 -2 0 -4 0 -1 2 -2 4 -2 1 0 2 -1 2 -2 0 -3 3 -6 6
-6 1 0 2 -1 2 -2 0 -2 1 -4 2 -5 2 -1 2 -1 4 1 2 2 2 2 1 4 -1 1 -3 2 -5 2 -1
0 -2 1 -2 2 0 3 -3 6 -6 6 -1 0 -2 1 -2 2 0 2 -3 6 -4 6 0 0 -2 -1 -2 -2z"/><path d="M250 206 c-2 -1 -2 -3 -2 -8 0 -6 0 -6 -2 -6 -2 0 -4 -1 -5 -2 -1 -2
-1 -2 1 -4 2 -2 2 -2 4 -1 1 1 2 3 2 5 0 1 1 2 2 2 2 0 4 1 6 4 3 4 4 4 8 4 6
0 9 3 7 6 -3 3 -19 3 -21 0z"/><path d="M130 182 c-2 -2 -2 -2 0 -4 0 -1 2 -2 4 -2 1 0 2 -1 2 -2 0 -2 1 -4
2 -5 2 -1 2 -1 4 1 2 2 2 2 1 4 -1 1 -3 2 -5 2 -1 0 -2 1 -2 2 0 2 -3 6 -4 6
0 0 -2 -1 -2 -2z"/><path d="M258 182 c-1 -1 -2 -3 -2 -4 0 -1 -1 -2 -2 -2 -2 0 -4 -1 -5 -2 -1
-2 -1 -2 1 -4 2 -2 2 -2 4 -1 1 1 2 3 2 5 0 1 1 2 2 2 2 0 4 1 5 2 1 2 1 2 0
4 -3 2 -3 2 -5 0z"/><path d="M370 182 c-1 -1 -2 -3 -2 -4 0 -1 -1 -2 -2 -2 -2 0 -4 -1 -5 -2 -1
-2 -1 -2 1 -4 2 -2 2 -2 4 -1 1 1 2 3 2 5 0 1 1 2 2 2 2 0 4 1 5 2 1 2 1 2 0
4 -3 2 -3 2 -5 0z"/><path d="M153 166 c-1 -2 -1 -2 1 -4 l2 -2 2 2 c2 2 2 2 1 4 -1 1 -3 2 -3 2 0
0 -2 -1 -3 -2z"/><path d="M345 166 c-1 -2 -1 -2 1 -4 l2 -2 2 2 c2 2 2 2 1 4 -1 1 -3 2 -3 2 0
0 -2 -1 -3 -2z"/><path d="M170 158 c-3 -3 0 -6 6 -6 3 0 5 1 7 2 2 3 -1 6 -7 6 -3 0 -5 -1 -6
-2z"/><path d="M322 158 c-3 -3 0 -6 6 -6 6 0 9 3 7 6 -2 1 -4 2 -7 2 -3 0 -5 -1 -6
-2z"/><path d="M193 150 c-1 -2 -1 -2 1 -4 l2 -2 2 2 c2 2 2 2 1 4 -1 1 -3 2 -3 2 0
0 -2 -1 -3 -2z"/><path d="M305 150 c-1 -2 -1 -2 1 -4 l2 -2 2 2 c2 2 2 2 1 4 -1 1 -3 2 -3 2 0
0 -2 -1 -3 -2z"/><path d="M202 126 c-4 -4 -3 -10 4 -16 3 -4 7 -6 8 -6 2 0 2 -1 2 -6 0 -7 2
-10 6 -10 2 0 2 0 2 -6 0 -7 0 -7 4 -10 4 -3 4 -4 4 -8 0 -4 0 -5 6 -10 3 -4
7 -6 8 -6 2 0 2 -1 2 -6 0 -5 0 -7 2 -8 2 -2 2 -2 8 4 l6 6 0 6 c0 6 0 6 2 6
4 0 6 3 6 10 0 6 0 6 2 6 3 0 6 3 6 6 0 1 1 2 2 2 4 0 6 3 6 10 0 6 0 6 2 6 4
0 6 3 6 10 0 6 0 6 2 6 6 0 8 10 4 14 -3 3 -10 3 -13 0 -1 -2 -1 -2 3 -6 6 -6
6 -8 -2 -8 -6 0 -7 0 -9 -2 -1 -2 -1 -2 3 -6 5 -4 6 -8 2 -8 -4 0 -6 -3 -6
-10 l0 -6 -4 0 c-4 0 -4 0 -4 2 0 2 -1 4 -2 5 -2 1 -2 1 -4 -1 -2 -2 -2 -2 -1
-4 1 -1 3 -2 5 -2 2 0 2 0 2 -4 l0 -4 -6 0 c-6 0 -7 0 -9 -2 -1 -2 -1 -2 3 -6
5 -4 6 -8 2 -8 -2 0 -4 -1 -6 -4 -2 -3 -4 -4 -6 -4 -2 0 -2 0 -2 6 0 6 0 7 -4
10 l-4 4 4 4 c4 4 4 4 3 6 -2 1 -4 2 -7 2 -4 0 -5 0 -8 4 -2 3 -4 4 -6 4 -4 0
-3 4 2 8 4 4 4 4 3 6 -2 2 -3 2 -9 2 -8 0 -8 2 -2 8 4 4 4 4 3 6 -2 1 -4 2 -7
2 -4 0 -5 0 -8 4 -4 5 -4 5 -6 2z"/></g>
  <g transform="scale(0.125 0.125) translate(0.000000,512.000000) scale(1.000000,-1.000000)" fill="#fc1a8c" stroke="none"><path d="M218 478 c-3 -3 0 -6 6 -6 3 0 5 1 7 2 2 3 -1 6 -7 6 -3 0 -5 -1 -6
-2z"/><path d="M274 478 c-3 -3 0 -6 6 -6 6 0 9 3 7 6 -2 1 -4 2 -7 2 -3 0 -5 -1 -6
-2z"/><path d="M185 470 c-1 -2 -1 -2 1 -4 l2 -2 2 2 c2 2 2 2 1 4 -1 1 -3 2 -3 2 0
0 -2 -1 -3 -2z"/><path d="M313 470 c-1 -2 -1 -2 1 -4 l2 -2 2 2 c2 2 2 2 1 4 -1 1 -3 2 -3 2 0
0 -2 -1 -3 -2z"/><path d="M161 462 c-1 -2 -1 -2 1 -4 l2 -2 2 2 c2 2 2 2 1 4 -1 1 -3 2 -3 2 0
0 -2 -1 -3 -2z"/><path d="M337 462 c-1 -2 -1 -2 1 -4 l2 -2 2 2 c2 2 2 2 1 4 -1 1 -3 2 -3 2 0
0 -2 -1 -3 -2z"/><path d="M145 454 c-1 -2 -1 -2 1 -4 l2 -2 2 2 c2 2 2 2 1 4 -1 1 -3 2 -3 2 0
0 -2 -1 -3 -2z"/><path d="M353 454 c-1 -2 -1 -2 1 -4 l2 -2 2 2 c2 2 2 2 1 4 -1 1 -3 2 -3 2 0
0 -2 -1 -3 -2z"/><path d="M169 446 c-1 -2 -1 -2 1 -4 l2 -2 2 2 c2 2 2 2 1 4 -1 1 -3 2 -3 2 0
0 -2 -1 -3 -2z"/><path d="M297 446 c-1 -2 -1 -2 1 -4 l2 -2 2 2 c2 2 2 2 1 4 -1 1 -3 2 -3 2 0
0 -2 -1 -3 -2z"/><path d="M337 446 c-1 -2 -1 -2 1 -4 l2 -2 2 2 c2 2 2 2 1 4 -1 1 -3 2 -3 2 0
0 -2 -1 -3 -2z"/><path d="M122 438 c-1 -1 -2 -3 -2 -4 0 -1 -1 -2 -2 -2 -2 0 -4 -1 -5 -2 -1
-2 -1 -2 1 -4 2 -2 2 -2 4 -1 1 1 2 3 2 5 0 1 1 2 2 2 2 0 4 1 5 2 1 2 1 2 0
4 -3 2 -3 2 -5 0z"/><path d="M153 438 c-1 -2 -1 -2 1 -4 l2 -2 2 2 c2 2 2 2 1 4 -1 1 -3 2 -3 2 0
0 -2 -1 -3 -2z"/><path d="M281 438 c-1 -2 -1 -2 1 -4 l2 -2 2 2 c2 2 2 2 1 4 -1 1 -3 2 -3 2 0
0 -2 -1 -3 -2z"/><path d="M377 438 c-1 -2 -1 -2 1 -4 l2 -2 2 2 c2 2 2 2 1 4 -1 1 -3 2 -3 2 0
0 -2 -1 -3 -2z"/><path d="M169 422 c-1 -2 -1 -2 1 -4 l2 -2 2 2 c2 2 2 2 1 4 -1 1 -3 2 -3 2 0
0 -2 -1 -3 -2z"/><path d="M209 422 c-1 -2 -1 -2 1 -4 l2 -2 2 2 c2 2 2 2 1 4 -1 1 -3 2 -3 2 0
0 -2 -1 -3 -2z"/><path d="M290 422 c-1 -1 -2 -3 -2 -4 0 -1 -1 -2 -2 -2 -3 0 -6 -3 -6 -6 0 -1
-1 -2 -2 -2 -2 0 -4 -1 -5 -2 -1 -2 -1 -2 1 -4 2 -2 2 -2 4 -1 1 1 2 3 2 5 0
1 1 2 2 2 3 0 6 3 6 6 0 1 1 2 2 2 2 0 4 1 5 2 1 2 1 2 0 4 -3 2 -3 2 -5 0z"/><path d="M329 422 c-1 -2 -1 -2 1 -4 l2 -2 2 2 c2 2 2 2 1 4 -1 1 -3 2 -3 2 0
0 -2 -1 -3 -2z"/><path d="M129 414 c-1 -2 -1 -2 1 -4 l2 -2 2 2 c2 2 2 2 1 4 -1 1 -3 2 -3 2 0
0 -2 -1 -3 -2z"/><path d="M258 414 c-1 -1 -2 -3 -2 -4 0 -1 -1 -2 -2 -2 -2 0 -4 -1 -5 -2 -1
-2 -1 -2 1 -4 2 -2 2 -2 4 -1 1 1 2 3 2 5 0 1 1 2 2 2 2 0 4 1 5 2 1 2 1 2 0
4 -3 2 -3 2 -5 0z"/><path d="M345 414 c-1 -2 -1 -2 1 -4 l2 -2 2 2 c2 2 2 2 1 4 -1 1 -3 2 -3 2 0
0 -2 -1 -3 -2z"/><path d="M369 414 c-1 -2 -1 -2 1 -4 l2 -2 2 2 c2 2 2 2 1 4 -1 1 -3 2 -3 2 0
0 -2 -1 -3 -2z"/><path d="M90 406 c-1 -1 -2 -3 -2 -4 0 -1 -1 -2 -2 -2 -2 0 -4 -1 -5 -2 -1 -2
-1 -2 1 -4 2 -2 2 -2 4 -1 1 1 2 3 2 5 0 1 1 2 2 2 2 0 4 1 5 2 1 2 1 2 0 4
-3 2 -3 2 -5 0z"/><path d="M153 406 c-1 -2 -1 -2 1 -4 l2 -2 2 2 c2 2 2 2 1 4 -1 1 -3 2 -3 2 0
0 -2 -1 -3 -2z"/><path d="M225 406 c-1 -2 -1 -2 1 -4 l2 -2 2 2 c2 2 2 2 1 4 -1 1 -3 2 -3 2 0
0 -2 -1 -3 -2z"/><path d="M410 406 c-2 -2 -2 -2 0 -4 0 -1 2 -2 4 -2 1 0 2 -1 2 -2 0 -2 1 -4
2 -5 2 -1 2 -1 4 1 2 2 2 2 1 4 -1 1 -3 2 -5 2 -1 0 -2 1 -2 2 0 2 -3 6 -4 6
0 0 -2 -1 -2 -2z"/><path d="M354 398 c-2 -1 -2 -4 -2 -10 0 -13 4 -12 -48 -12 l-44 0 -4 -4 -4
-4 -4 4 -3 4 -41 0 c-46 0 -44 0 -44 -8 0 -4 0 -5 -4 -8 l-4 -4 4 -4 c4 -3 4
-4 4 -8 0 -5 2 -8 6 -8 2 0 2 0 2 -6 0 -7 2 -10 6 -10 1 0 2 -1 2 -2 0 -3 3
-6 6 -6 1 0 2 -1 2 -2 0 -3 3 -6 6 -6 2 0 2 -1 2 -6 l0 -6 6 -6 c5 -6 6 -6 10
-6 7 0 8 -2 8 -12 l0 -8 12 -12 c12 -11 12 -12 12 -16 0 -6 10 -16 16 -16 6 0
8 2 8 8 0 4 0 5 8 12 8 7 8 8 8 12 0 4 0 5 8 12 8 7 8 8 8 12 0 4 0 5 12 16
l12 12 0 6 c0 6 0 6 2 6 3 0 6 3 6 6 0 1 1 2 2 2 1 0 5 2 8 6 6 5 6 6 6 10 0
4 0 5 4 8 l4 3 0 9 0 9 4 3 4 3 0 13 c0 11 0 13 -2 14 -2 2 -2 2 -4 0z m-178
-50 l3 -4 77 0 c77 0 77 0 79 -2 1 -2 1 -2 -3 -6 -4 -3 -4 -4 -4 -10 0 -6 0
-6 -2 -6 -3 0 -6 -3 -6 -6 0 -1 -1 -2 -2 -2 -2 0 -6 -4 -14 -12 l-12 -12 -40
0 -40 0 -8 8 c-5 5 -8 8 -10 8 -1 0 -2 1 -2 2 0 3 -3 6 -6 6 -1 0 -2 1 -2 2 0
3 -3 6 -6 6 -2 0 -2 0 -2 6 0 7 -2 10 -6 10 -2 0 -2 0 -2 6 0 5 0 7 2 8 2 3 2
3 6 -2z"/><path d="M378 398 c-3 -3 -3 -18 0 -20 2 -2 2 -2 4 0 3 2 3 18 0 20 -2 2 -2 2
-4 0z"/><path d="M233 390 c-1 -2 -1 -2 1 -4 l2 -2 2 2 c2 2 2 2 1 4 -1 1 -3 2 -3 2 0
0 -2 -1 -3 -2z"/><path d="M265 390 c-1 -2 -1 -2 1 -4 l2 -2 2 2 c2 2 2 2 1 4 -1 1 -3 2 -3 2 0
0 -2 -1 -3 -2z"/><path d="M73 382 c-1 -2 -1 -2 1 -4 l2 -2 2 2 c2 2 2 2 1 4 -1 1 -3 2 -3 2 0
0 -2 -1 -3 -2z"/><path d="M145 382 c-1 -2 -1 -2 1 -4 l2 -2 2 2 c2 2 2 2 1 4 -1 1 -3 2 -3 2 0
0 -2 -1 -3 -2z"/><path d="M425 382 c-1 -2 -1 -2 1 -4 l2 -2 2 2 c2 2 2 2 1 4 -1 1 -3 2 -3 2 0
0 -2 -1 -3 -2z"/><path d="M65 366 c-1 -2 -1 -2 1 -4 l2 -2 2 2 c2 2 2 2 1 4 -1 1 -3 2 -3 2 0
0 -2 -1 -3 -2z"/><path d="M129 366 c-1 -2 -1 -2 1 -4 l2 -2 2 2 c2 2 2 2 1 4 -1 1 -3 2 -3 2 0
0 -2 -1 -3 -2z"/><path d="M433 366 c-1 -2 -1 -2 1 -4 l2 -2 2 2 c2 2 2 2 1 4 -1 1 -3 2 -3 2 0
0 -2 -1 -3 -2z"/><path d="M369 358 c-1 -2 -1 -2 1 -4 l2 -2 2 2 c2 2 2 2 1 4 -1 1 -3 2 -3 2 0
0 -2 -1 -3 -2z"/><path d="M58 342 c-3 -3 -3 -10 0 -12 3 -3 6 0 6 6 0 7 -3 10 -6 6z"/><path d="M361 342 c-1 -2 -1 -2 1 -4 l2 -2 2 2 c2 2 2 2 1 4 -1 1 -3 2 -3 2 0
0 -2 -1 -3 -2z"/><path d="M442 342 c-3 -3 -3 -10 0 -12 3 -3 6 0 6 6 0 7 -3 10 -6 6z"/><path d="M145 334 c-1 -2 -1 -2 1 -4 l2 -2 2 2 c2 2 2 2 1 4 -1 1 -3 2 -3 2 0
0 -2 -1 -3 -2z"/><path d="M154 318 c-2 -2 -2 -2 0 -4 0 -1 2 -2 4 -2 1 0 2 -1 2 -2 0 -2 1 -4
2 -5 2 -1 2 -1 4 1 2 2 2 2 1 4 -1 1 -3 2 -5 2 -1 0 -2 1 -2 2 0 2 -3 6 -4 6
0 0 -2 -1 -2 -2z"/><path d="M345 318 c-1 -2 -1 -2 1 -4 l2 -2 2 2 c2 2 2 2 1 4 -1 1 -3 2 -3 2 0
0 -2 -1 -3 -2z"/><path d="M442 294 c-3 -3 -3 -18 0 -20 2 -2 2 -2 4 0 3 2 3 18 0 20 -2 2 -2 2
-4 0z"/><path d="M57 286 c-1 -2 -1 -2 1 -4 l2 -2 2 2 c2 2 2 2 1 4 -1 1 -3 2 -3 2 0
0 -2 -1 -3 -2z"/><path d="M321 286 c-1 -2 -1 -2 1 -4 l2 -2 2 2 c2 2 2 2 1 4 -1 1 -3 2 -3 2 0
0 -2 -1 -3 -2z"/><path d="M185 278 c-1 -2 -1 -2 1 -4 l2 -2 2 2 c2 2 2 2 1 4 -1 1 -3 2 -3 2 0
0 -2 -1 -3 -2z"/><path d="M65 254 c-1 -2 -1 -2 1 -4 l2 -2 2 2 c2 2 2 2 1 4 -1 1 -3 2 -3 2 0
0 -2 -1 -3 -2z"/><path d="M433 254 c-1 -2 -1 -2 1 -4 l2 -2 2 2 c2 2 2 2 1 4 -1 1 -3 2 -3 2 0
0 -2 -1 -3 -2z"/><path d="M209 246 c-1 -2 -1 -2 1 -4 l2 -2 2 2 c2 2 2 2 1 4 -1 1 -3 2 -3 2 0
0 -2 -1 -3 -2z"/><path d="M289 246 c-1 -2 -1 -2 1 -4 l2 -2 2 2 c2 2 2 2 1 4 -1 1 -3 2 -3 2 0
0 -2 -1 -3 -2z"/><path d="M74 238 c-2 -2 -2 -2 0 -4 0 -1 2 -2 4 -2 1 0 2 -1 2 -2 0 -2 1 -4 2
-5 2 -1 2 -1 4 1 2 2 2 2 1 4 -1 1 -3 2 -5 2 -1 0 -2 1 -2 2 0 2 -3 6 -4 6 0
0 -2 -1 -2 -2z"/><path d="M426 238 c-1 -1 -2 -3 -2 -4 0 -1 -1 -2 -2 -2 -2 0 -4 -1 -5 -2 -1
-2 -1 -2 1 -4 2 -2 2 -2 4 -1 1 1 2 3 2 5 0 1 1 2 2 2 2 0 4 1 5 2 1 2 1 2 0
4 -3 2 -3 2 -5 0z"/><path d="M281 230 c-1 -2 -1 -2 1 -4 l2 -2 2 2 c2 2 2 2 1 4 -1 1 -3 2 -3 2 0
0 -2 -1 -3 -2z"/><path d="M225 222 c-1 -2 -1 -2 1 -4 l2 -2 2 2 c2 2 2 2 1 4 -1 1 -3 2 -3 2 0
0 -2 -1 -3 -2z"/><path d="M410 214 c-1 -1 -2 -3 -2 -4 0 -1 -1 -2 -2 -2 -3 0 -6 -3 -6 -6 0 -1
-1 -2 -2 -2 -3 0 -6 -3 -6 -6 0 -1 -1 -2 -2 -2 -2 0 -4 -1 -5 -2 -1 -2 -1 -2
1 -4 2 -2 2 -2 4 -1 1 1 2 3 2 5 0 1 1 2 2 2 3 0 6 3 6 6 0 1 1 2 2 2 3 0 6 3
6 6 0 1 1 2 2 2 2 0 4 1 5 2 1 2 1 2 0 4 -3 2 -3 2 -5 0z"/><path d="M98 206 c-2 -2 -2 -2 0 -4 0 -1 2 -2 4 -2 1 0 2 -1 2 -2 0 -3 3 -6 6
-6 1 0 2 -1 2 -2 0 -2 1 -4 2 -5 2 -1 2 -1 4 1 2 2 2 2 1 4 -1 1 -3 2 -5 2 -1
0 -2 1 -2 2 0 3 -3 6 -6 6 -1 0 -2 1 -2 2 0 2 -3 6 -4 6 0 0 -2 -1 -2 -2z"/><path d="M265 206 c-1 -2 -1 -2 1 -4 l2 -2 2 2 c2 2 2 2 1 4 -1 1 -3 2 -3 2 0
0 -2 -1 -3 -2z"/><path d="M241 190 c-1 -2 -1 -2 1 -4 l2 -2 2 2 c2 2 2 2 1 4 -1 1 -3 2 -3 2 0
0 -2 -1 -3 -2z"/><path d="M130 182 c-2 -2 -2 -2 0 -4 0 -1 2 -2 4 -2 1 0 2 -1 2 -2 0 -2 1 -4
2 -5 2 -1 2 -1 4 1 2 2 2 2 1 4 -1 1 -3 2 -5 2 -1 0 -2 1 -2 2 0 2 -3 6 -4 6
0 0 -2 -1 -2 -2z"/><path d="M258 182 c-1 -1 -2 -3 -2 -4 0 -1 -1 -2 -2 -2 -2 0 -4 -1 -5 -2 -1
-2 -1 -2 1 -4 2 -2 2 -2 4 -1 1 1 2 3 2 5 0 1 1 2 2 2 2 0 4 1 5 2 1 2 1 2 0
4 -3 2 -3 2 -5 0z"/><path d="M370 182 c-1 -1 -2 -3 -2 -4 0 -1 -1 -2 -2 -2 -2 0 -4 -1 -5 -2 -1
-2 -1 -2 1 -4 2 -2 2 -2 4 -1 1 1 2 3 2 5 0 1 1 2 2 2 2 0 4 1 5 2 1 2 1 2 0
4 -3 2 -3 2 -5 0z"/><path d="M153 166 c-1 -2 -1 -2 1 -4 l2 -2 2 2 c2 2 2 2 1 4 -1 1 -3 2 -3 2 0
0 -2 -1 -3 -2z"/><path d="M345 166 c-1 -2 -1 -2 1 -4 l2 -2 2 2 c2 2 2 2 1 4 -1 1 -3 2 -3 2 0
0 -2 -1 -3 -2z"/><path d="M170 158 c-3 -3 0 -6 6 -6 3 0 5 1 7 2 2 3 -1 6 -7 6 -3 0 -5 -1 -6
-2z"/><path d="M322 158 c-3 -3 0 -6 6 -6 6 0 9 3 7 6 -2 1 -4 2 -7 2 -3 0 -5 -1 -6
-2z"/><path d="M193 150 c-1 -2 -1 -2 1 -4 l2 -2 2 2 c2 2 2 2 1 4 -1 1 -3 2 -3 2 0
0 -2 -1 -3 -2z"/><path d="M305 150 c-1 -2 -1 -2 1 -4 l2 -2 2 2 c2 2 2 2 1 4 -1 1 -3 2 -3 2 0
0 -2 -1 -3 -2z"/><path d="M289 126 c-1 -2 -1 -2 1 -4 l2 -2 2 2 c2 2 2 2 1 4 -1 1 -3 2 -3 2 0
0 -2 -1 -3 -2z"/><path d="M217 118 c-1 -2 -1 -2 1 -4 l2 -2 2 2 c2 2 2 2 1 4 -1 1 -3 2 -3 2 0
0 -2 -1 -3 -2z"/><path d="M281 110 c-1 -2 -1 -2 1 -4 l2 -2 2 2 c2 2 2 2 1 4 -1 1 -3 2 -3 2 0
0 -2 -1 -3 -2z"/><path d="M225 102 c-1 -2 -1 -2 1 -4 l2 -2 2 2 c2 2 2 2 1 4 -1 1 -3 2 -3 2 0
0 -2 -1 -3 -2z"/><path d="M265 86 c-1 -2 -1 -2 1 -4 l2 -2 2 2 c2 2 2 2 1 4 -1 1 -3 2 -3 2 0
0 -2 -1 -3 -2z"/><path d="M241 78 c-1 -2 -1 -2 1 -4 l2 -2 2 2 c2 2 2 2 1 4 -1 1 -3 2 -3 2 0
0 -2 -1 -3 -2z"/><path d="M257 70 c-1 -2 -1 -2 1 -4 l2 -2 2 2 c2 2 2 2 1 4 -1 1 -3 2 -3 2 0
0 -2 -1 -3 -2z"/></g>
  <g transform="scale(0.125 0.125) translate(0.000000,512.000000) scale(1.000000,-1.000000)" fill="#c5c5c5" stroke="none"><path d="M218 478 c-3 -3 0 -6 6 -6 3 0 5 1 7 2 2 3 -1 6 -7 6 -3 0 -5 -1 -6
-2z"/><path d="M274 478 c-3 -3 0 -6 6 -6 6 0 9 3 7 6 -2 1 -4 2 -7 2 -3 0 -5 -1 -6
-2z"/><path d="M185 470 c-1 -2 -1 -2 1 -4 l2 -2 2 2 c2 2 2 2 1 4 -1 1 -3 2 -3 2 0
0 -2 -1 -3 -2z"/><path d="M313 470 c-1 -2 -1 -2 1 -4 l2 -2 2 2 c2 2 2 2 1 4 -1 1 -3 2 -3 2 0
0 -2 -1 -3 -2z"/><path d="M161 462 c-1 -2 -1 -2 1 -4 l2 -2 2 2 c2 2 2 2 1 4 -1 1 -3 2 -3 2 0
0 -2 -1 -3 -2z"/><path d="M337 462 c-1 -2 -1 -2 1 -4 l2 -2 2 2 c2 2 2 2 1 4 -1 1 -3 2 -3 2 0
0 -2 -1 -3 -2z"/><path d="M145 454 c-1 -2 -1 -2 1 -4 l2 -2 2 2 c2 2 2 2 1 4 -1 1 -3 2 -3 2 0
0 -2 -1 -3 -2z"/><path d="M353 454 c-1 -2 -1 -2 1 -4 l2 -2 2 2 c2 2 2 2 1 4 -1 1 -3 2 -3 2 0
0 -2 -1 -3 -2z"/><path d="M169 446 c-1 -2 -1 -2 1 -4 l2 -2 2 2 c2 2 2 2 1 4 -1 1 -3 2 -3 2 0
0 -2 -1 -3 -2z"/><path d="M297 446 c-1 -2 -1 -2 1 -4 l2 -2 2 2 c2 2 2 2 1 4 -1 1 -3 2 -3 2 0
0 -2 -1 -3 -2z"/><path d="M337 446 c-1 -2 -1 -2 1 -4 l2 -2 2 2 c2 2 2 2 1 4 -1 1 -3 2 -3 2 0
0 -2 -1 -3 -2z"/><path d="M122 438 c-1 -1 -2 -3 -2 -4 0 -1 -1 -2 -2 -2 -2 0 -4 -1 -5 -2 -1
-2 -1 -2 1 -4 2 -2 2 -2 4 -1 1 1 2 3 2 5 0 1 1 2 2 2 2 0 4 1 5 2 1 2 1 2 0
4 -3 2 -3 2 -5 0z"/><path d="M153 438 c-1 -2 -1 -2 1 -4 l2 -2 2 2 c2 2 2 2 1 4 -1 1 -3 2 -3 2 0
0 -2 -1 -3 -2z"/><path d="M281 438 c-1 -2 -1 -2 1 -4 l2 -2 2 2 c2 2 2 2 1 4 -1 1 -3 2 -3 2 0
0 -2 -1 -3 -2z"/><path d="M377 438 c-1 -2 -1 -2 1 -4 l2 -2 2 2 c2 2 2 2 1 4 -1 1 -3 2 -3 2 0
0 -2 -1 -3 -2z"/><path d="M169 422 c-1 -2 -1 -2 1 -4 l2 -2 2 2 c2 2 2 2 1 4 -1 1 -3 2 -3 2 0
0 -2 -1 -3 -2z"/><path d="M209 422 c-1 -2 -1 -2 1 -4 l2 -2 2 2 c2 2 2 2 1 4 -1 1 -3 2 -3 2 0
0 -2 -1 -3 -2z"/><path d="M290 422 c-1 -1 -2 -3 -2 -4 0 -1 -1 -2 -2 -2 -3 0 -6 -3 -6 -6 0 -1
-1 -2 -2 -2 -2 0 -4 -1 -5 -2 -1 -2 -1 -2 1 -4 2 -2 2 -2 4 -1 1 1 2 3 2 5 0
1 1 2 2 2 3 0 6 3 6 6 0 1 1 2 2 2 2 0 4 1 5 2 1 2 1 2 0 4 -3 2 -3 2 -5 0z"/><path d="M329 422 c-1 -2 -1 -2 1 -4 l2 -2 2 2 c2 2 2 2 1 4 -1 1 -3 2 -3 2 0
0 -2 -1 -3 -2z"/><path d="M129 414 c-1 -2 -1 -2 1 -4 l2 -2 2 2 c2 2 2 2 1 4 -1 1 -3 2 -3 2 0
0 -2 -1 -3 -2z"/><path d="M258 414 c-1 -1 -2 -3 -2 -4 0 -1 -1 -2 -2 -2 -2 0 -4 -1 -5 -2 -1
-2 -1 -2 1 -4 2 -2 2 -2 4 -1 1 1 2 3 2 5 0 1 1 2 2 2 2 0 4 1 5 2 1 2 1 2 0
4 -3 2 -3 2 -5 0z"/><path d="M345 414 c-1 -2 -1 -2 1 -4 l2 -2 2 2 c2 2 2 2 1 4 -1 1 -3 2 -3 2 0
0 -2 -1 -3 -2z"/><path d="M369 414 c-1 -2 -1 -2 1 -4 l2 -2 2 2 c2 2 2 2 1 4 -1 1 -3 2 -3 2 0
0 -2 -1 -3 -2z"/><path d="M90 406 c-1 -1 -2 -3 -2 -4 0 -1 -1 -2 -2 -2 -2 0 -4 -1 -5 -2 -1 -2
-1 -2 1 -4 2 -2 2 -2 4 -1 1 1 2 3 2 5 0 1 1 2 2 2 2 0 4 1 5 2 1 2 1 2 0 4
-3 2 -3 2 -5 0z"/><path d="M153 406 c-1 -2 -1 -2 1 -4 l2 -2 2 2 c2 2 2 2 1 4 -1 1 -3 2 -3 2 0
0 -2 -1 -3 -2z"/><path d="M225 406 c-1 -2 -1 -2 1 -4 l2 -2 2 2 c2 2 2 2 1 4 -1 1 -3 2 -3 2 0
0 -2 -1 -3 -2z"/><path d="M410 406 c-2 -2 -2 -2 0 -4 0 -1 2 -2 4 -2 1 0 2 -1 2 -2 0 -2 1 -4
2 -5 2 -1 2 -1 4 1 2 2 2 2 1 4 -1 1 -3 2 -5 2 -1 0 -2 1 -2 2 0 2 -3 6 -4 6
0 0 -2 -1 -2 -2z"/><path d="M354 398 c-3 -3 -3 -26 0 -28 2 -2 2 -2 4 0 3 2 3 26 0 28 -2 2 -2 2
-4 0z"/><path d="M378 398 c-3 -3 -3 -18 0 -20 2 -2 2 -2 4 0 3 2 3 18 0 20 -2 2 -2 2
-4 0z"/><path d="M233 390 c-1 -2 -1 -2 1 -4 l2 -2 2 2 c2 2 2 2 1 4 -1 1 -3 2 -3 2 0
0 -2 -1 -3 -2z"/><path d="M265 390 c-1 -2 -1 -2 1 -4 l2 -2 2 2 c2 2 2 2 1 4 -1 1 -3 2 -3 2 0
0 -2 -1 -3 -2z"/><path d="M73 382 c-1 -2 -1 -2 1 -4 l2 -2 2 2 c2 2 2 2 1 4 -1 1 -3 2 -3 2 0
0 -2 -1 -3 -2z"/><path d="M145 382 c-1 -2 -1 -2 1 -4 l2 -2 2 2 c2 2 2 2 1 4 -1 1 -3 2 -3 2 0
0 -2 -1 -3 -2z"/><path d="M425 382 c-1 -2 -1 -2 1 -4 l2 -2 2 2 c2 2 2 2 1 4 -1 1 -3 2 -3 2 0
0 -2 -1 -3 -2z"/><path d="M241 374 c-1 -2 -1 -2 1 -4 l2 -2 2 2 c2 2 2 2 1 4 -1 1 -3 2 -3 2 0
0 -2 -1 -3 -2z"/><path d="M257 374 c-1 -2 -1 -2 1 -4 l2 -2 2 2 c2 2 2 2 1 4 -1 1 -3 2 -3 2 0
0 -2 -1 -3 -2z"/><path d="M65 366 c-1 -2 -1 -2 1 -4 l2 -2 2 2 c2 2 2 2 1 4 -1 1 -3 2 -3 2 0
0 -2 -1 -3 -2z"/><path d="M129 366 c-1 -2 -1 -2 1 -4 l2 -2 2 2 c2 2 2 2 1 4 -1 1 -3 2 -3 2 0
0 -2 -1 -3 -2z"/><path d="M433 366 c-1 -2 -1 -2 1 -4 l2 -2 2 2 c2 2 2 2 1 4 -1 1 -3 2 -3 2 0
0 -2 -1 -3 -2z"/><path d="M153 358 c-1 -2 -1 -2 1 -4 l2 -2 2 2 c2 2 2 2 1 4 -1 1 -3 2 -3 2 0
0 -2 -1 -3 -2z"/><path d="M346 358 c-2 -1 -2 -3 -2 -8 0 -6 0 -6 -2 -6 -4 0 -6 -3 -6 -10 0 -6
0 -6 -2 -6 -3 0 -6 -3 -6 -6 0 -1 -1 -2 -2 -2 -3 0 -6 -3 -6 -6 0 -1 -1 -2 -2
-2 -2 0 -6 -4 -14 -12 l-12 -12 -40 0 -40 0 -8 8 c-5 5 -8 8 -10 8 -1 0 -2 1
-2 2 0 3 -3 6 -6 6 -1 0 -2 1 -2 2 0 3 -3 6 -6 6 -2 0 -2 0 -2 6 0 7 -2 10 -6
10 -1 0 -2 1 -2 2 0 2 -1 4 -2 5 -2 1 -2 1 -4 -1 -2 -2 -2 -2 -1 -4 1 -1 3 -2
5 -2 2 0 2 0 2 -6 0 -7 2 -10 6 -10 1 0 2 -1 2 -2 0 -3 3 -6 6 -6 1 0 2 -1 2
-2 0 -3 3 -6 6 -6 2 0 2 -1 2 -6 l0 -6 6 -6 c5 -6 6 -6 10 -6 7 0 8 -2 8 -12
l0 -8 12 -12 c12 -11 12 -12 12 -16 0 -6 10 -16 16 -16 6 0 8 2 8 8 0 4 0 5 8
12 8 7 8 8 8 12 0 4 0 5 8 12 8 7 8 8 8 12 0 4 0 5 12 16 l12 12 0 6 c0 6 0 6
2 6 3 0 6 3 6 6 0 1 1 2 2 2 3 0 6 3 6 6 0 1 1 2 2 2 4 0 6 3 6 10 0 6 0 6 2
6 6 0 8 10 4 14 -2 2 -2 2 -4 0z"/><path d="M369 358 c-1 -2 -1 -2 1 -4 l2 -2 2 2 c2 2 2 2 1 4 -1 1 -3 2 -3 2 0
0 -2 -1 -3 -2z"/><path d="M58 342 c-3 -3 -3 -10 0 -12 3 -3 6 0 6 6 0 7 -3 10 -6 6z"/><path d="M361 342 c-1 -2 -1 -2 1 -4 l2 -2 2 2 c2 2 2 2 1 4 -1 1 -3 2 -3 2 0
0 -2 -1 -3 -2z"/><path d="M442 342 c-3 -3 -3 -10 0 -12 3 -3 6 0 6 6 0 7 -3 10 -6 6z"/><path d="M145 334 c-1 -2 -1 -2 1 -4 l2 -2 2 2 c2 2 2 2 1 4 -1 1 -3 2 -3 2 0
0 -2 -1 -3 -2z"/><path d="M154 318 c-2 -2 -2 -2 0 -4 0 -1 2 -2 4 -2 1 0 2 -1 2 -2 0 -2 1 -4
2 -5 2 -1 2 -1 4 1 2 2 2 2 1 4 -1 1 -3 2 -5 2 -1 0 -2 1 -2 2 0 2 -3 6 -4 6
0 0 -2 -1 -2 -2z"/><path d="M345 318 c-1 -2 -1 -2 1 -4 l2 -2 2 2 c2 2 2 2 1 4 -1 1 -3 2 -3 2 0
0 -2 -1 -3 -2z"/><path d="M442 294 c-3 -3 -3 -18 0 -20 2 -2 2 -2 4 0 3 2 3 18 0 20 -2 2 -2 2
-4 0z"/><path d="M57 286 c-1 -2 -1 -2 1 -4 l2 -2 2 2 c2 2 2 2 1 4 -1 1 -3 2 -3 2 0
0 -2 -1 -3 -2z"/><path d="M321 286 c-1 -2 -1 -2 1 -4 l2 -2 2 2 c2 2 2 2 1 4 -1 1 -3 2 -3 2 0
0 -2 -1 -3 -2z"/><path d="M185 278 c-1 -2 -1 -2 1 -4 l2 -2 2 2 c2 2 2 2 1 4 -1 1 -3 2 -3 2 0
0 -2 -1 -3 -2z"/><path d="M65 254 c-1 -2 -1 -2 1 -4 l2 -2 2 2 c2 2 2 2 1 4 -1 1 -3 2 -3 2 0
0 -2 -1 -3 -2z"/><path d="M433 254 c-1 -2 -1 -2 1 -4 l2 -2 2 2 c2 2 2 2 1 4 -1 1 -3 2 -3 2 0
0 -2 -1 -3 -2z"/><path d="M209 246 c-1 -2 -1 -2 1 -4 l2 -2 2 2 c2 2 2 2 1 4 -1 1 -3 2 -3 2 0
0 -2 -1 -3 -2z"/><path d="M289 246 c-1 -2 -1 -2 1 -4 l2 -2 2 2 c2 2 2 2 1 4 -1 1 -3 2 -3 2 0
0 -2 -1 -3 -2z"/><path d="M74 238 c-2 -2 -2 -2 0 -4 0 -1 2 -2 4 -2 1 0 2 -1 2 -2 0 -2 1 -4 2
-5 2 -1 2 -1 4 1 2 2 2 2 1 4 -1 1 -3 2 -5 2 -1 0 -2 1 -2 2 0 2 -3 6 -4 6 0
0 -2 -1 -2 -2z"/><path d="M426 238 c-1 -1 -2 -3 -2 -4 0 -1 -1 -2 -2 -2 -2 0 -4 -1 -5 -2 -1
-2 -1 -2 1 -4 2 -2 2 -2 4 -1 1 1 2 3 2 5 0 1 1 2 2 2 2 0 4 1 5 2 1 2 1 2 0
4 -3 2 -3 2 -5 0z"/><path d="M281 230 c-1 -2 -1 -2 1 -4 l2 -2 2 2 c2 2 2 2 1 4 -1 1 -3 2 -3 2 0
0 -2 -1 -3 -2z"/><path d="M225 222 c-1 -2 -1 -2 1 -4 l2 -2 2 2 c2 2 2 2 1 4 -1 1 -3 2 -3 2 0
0 -2 -1 -3 -2z"/><path d="M410 214 c-1 -1 -2 -3 -2 -4 0 -1 -1 -2 -2 -2 -3 0 -6 -3 -6 -6 0 -1
-1 -2 -2 -2 -3 0 -6 -3 -6 -6 0 -1 -1 -2 -2 -2 -2 0 -4 -1 -5 -2 -1 -2 -1 -2
1 -4 2 -2 2 -2 4 -1 1 1 2 3 2 5 0 1 1 2 2 2 3 0 6 3 6 6 0 1 1 2 2 2 3 0 6 3
6 6 0 1 1 2 2 2 2 0 4 1 5 2 1 2 1 2 0 4 -3 2 -3 2 -5 0z"/><path d="M98 206 c-2 -2 -2 -2 0 -4 0 -1 2 -2 4 -2 1 0 2 -1 2 -2 0 -3 3 -6 6
-6 1 0 2 -1 2 -2 0 -2 1 -4 2 -5 2 -1 2 -1 4 1 2 2 2 2 1 4 -1 1 -3 2 -5 2 -1
0 -2 1 -2 2 0 3 -3 6 -6 6 -1 0 -2 1 -2 2 0 2 -3 6 -4 6 0 0 -2 -1 -2 -2z"/><path d="M265 206 c-1 -2 -1 -2 1 -4 l2 -2 2 2 c2 2 2 2 1 4 -1 1 -3 2 -3 2 0
0 -2 -1 -3 -2z"/><path d="M241 190 c-1 -2 -1 -2 1 -4 l2 -2 2 2 c2 2 2 2 1 4 -1 1 -3 2 -3 2 0
0 -2 -1 -3 -2z"/><path d="M130 182 c-2 -2 -2 -2 0 -4 0 -1 2 -2 4 -2 1 0 2 -1 2 -2 0 -2 1 -4
2 -5 2 -1 2 -1 4 1 2 2 2 2 1 4 -1 1 -3 2 -5 2 -1 0 -2 1 -2 2 0 2 -3 6 -4 6
0 0 -2 -1 -2 -2z"/><path d="M258 182 c-1 -1 -2 -3 -2 -4 0 -1 -1 -2 -2 -2 -2 0 -4 -1 -5 -2 -1
-2 -1 -2 1 -4 2 -2 2 -2 4 -1 1 1 2 3 2 5 0 1 1 2 2 2 2 0 4 1 5 2 1 2 1 2 0
4 -3 2 -3 2 -5 0z"/><path d="M370 182 c-1 -1 -2 -3 -2 -4 0 -1 -1 -2 -2 -2 -2 0 -4 -1 -5 -2 -1
-2 -1 -2 1 -4 2 -2 2 -2 4 -1 1 1 2 3 2 5 0 1 1 2 2 2 2 0 4 1 5 2 1 2 1 2 0
4 -3 2 -3 2 -5 0z"/><path d="M153 166 c-1 -2 -1 -2 1 -4 l2 -2 2 2 c2 2 2 2 1 4 -1 1 -3 2 -3 2 0
0 -2 -1 -3 -2z"/><path d="M345 166 c-1 -2 -1 -2 1 -4 l2 -2 2 2 c2 2 2 2 1 4 -1 1 -3 2 -3 2 0
0 -2 -1 -3 -2z"/><path d="M170 158 c-3 -3 0 -6 6 -6 3 0 5 1 7 2 2 3 -1 6 -7 6 -3 0 -5 -1 -6
-2z"/><path d="M322 158 c-3 -3 0 -6 6 -6 6 0 9 3 7 6 -2 1 -4 2 -7 2 -3 0 -5 -1 -6
-2z"/><path d="M193 150 c-1 -2 -1 -2 1 -4 l2 -2 2 2 c2 2 2 2 1 4 -1 1 -3 2 -3 2 0
0 -2 -1 -3 -2z"/><path d="M305 150 c-1 -2 -1 -2 1 -4 l2 -2 2 2 c2 2 2 2 1 4 -1 1 -3 2 -3 2 0
0 -2 -1 -3 -2z"/><path d="M289 126 c-1 -2 -1 -2 1 -4 l2 -2 2 2 c2 2 2 2 1 4 -1 1 -3 2 -3 2 0
0 -2 -1 -3 -2z"/><path d="M217 118 c-1 -2 -1 -2 1 -4 l2 -2 2 2 c2 2 2 2 1 4 -1 1 -3 2 -3 2 0
0 -2 -1 -3 -2z"/><path d="M281 110 c-1 -2 -1 -2 1 -4 l2 -2 2 2 c2 2 2 2 1 4 -1 1 -3 2 -3 2 0
0 -2 -1 -3 -2z"/><path d="M225 102 c-1 -2 -1 -2 1 -4 l2 -2 2 2 c2 2 2 2 1 4 -1 1 -3 2 -3 2 0
0 -2 -1 -3 -2z"/><path d="M265 86 c-1 -2 -1 -2 1 -4 l2 -2 2 2 c2 2 2 2 1 4 -1 1 -3 2 -3 2 0
0 -2 -1 -3 -2z"/><path d="M241 78 c-1 -2 -1 -2 1 -4 l2 -2 2 2 c2 2 2 2 1 4 -1 1 -3 2 -3 2 0
0 -2 -1 -3 -2z"/><path d="M257 70 c-1 -2 -1 -2 1 -4 l2 -2 2 2 c2 2 2 2 1 4 -1 1 -3 2 -3 2 0
0 -2 -1 -3 -2z"/></g>
  <g transform="scale(0.125 0.125) translate(0.000000,512.000000) scale(1.000000,-1.000000)" fill="#e44093" stroke="none"><path d="M169 422 c-1 -2 -1 -2 1 -4 l2 -2 2 2 c2 2 2 2 1 4 -1 1 -3 2 -3 2 0
0 -2 -1 -3 -2z"/><path d="M209 422 c-1 -2 -1 -2 1 -4 l2 -2 2 2 c2 2 2 2 1 4 -1 1 -3 2 -3 2 0
0 -2 -1 -3 -2z"/><path d="M290 422 c-1 -1 -2 -3 -2 -4 0 -1 -1 -2 -2 -2 -3 0 -6 -3 -6 -6 0 -1
-1 -2 -2 -2 -2 0 -4 -1 -5 -2 -1 -2 -1 -2 1 -4 2 -2 2 -2 4 -1 1 1 2 3 2 5 0
1 1 2 2 2 3 0 6 3 6 6 0 1 1 2 2 2 2 0 4 1 5 2 1 2 1 2 0 4 -3 2 -3 2 -5 0z"/><path d="M329 422 c-1 -2 -1 -2 1 -4 l2 -2 2 2 c2 2 2 2 1 4 -1 1 -3 2 -3 2 0
0 -2 -1 -3 -2z"/><path d="M345 414 c-1 -2 -1 -2 1 -4 l2 -2 2 2 c2 2 2 2 1 4 -1 1 -3 2 -3 2 0
0 -2 -1 -3 -2z"/><path d="M153 406 c-1 -2 -1 -2 1 -4 l2 -2 2 2 c2 2 2 2 1 4 -1 1 -3 2 -3 2 0
0 -2 -1 -3 -2z"/><path d="M225 406 c-1 -2 -1 -2 1 -4 l2 -2 2 2 c2 2 2 2 1 4 -1 1 -3 2 -3 2 0
0 -2 -1 -3 -2z"/><path d="M354 398 c-3 -3 -3 -26 0 -28 2 -2 2 -2 4 0 3 2 3 26 0 28 -2 2 -2 2
-4 0z"/><path d="M233 390 c-1 -2 -1 -2 1 -4 l2 -2 2 2 c2 2 2 2 1 4 -1 1 -3 2 -3 2 0
0 -2 -1 -3 -2z"/><path d="M265 390 c-1 -2 -1 -2 1 -4 l2 -2 2 2 c2 2 2 2 1 4 -1 1 -3 2 -3 2 0
0 -2 -1 -3 -2z"/><path d="M145 382 c-1 -2 -1 -2 1 -4 l2 -2 2 2 c2 2 2 2 1 4 -1 1 -3 2 -3 2 0
0 -2 -1 -3 -2z"/><path d="M241 374 c-1 -2 -1 -2 1 -4 l2 -2 2 2 c2 2 2 2 1 4 -1 1 -3 2 -3 2 0
0 -2 -1 -3 -2z"/><path d="M257 374 c-1 -2 -1 -2 1 -4 l2 -2 2 2 c2 2 2 2 1 4 -1 1 -3 2 -3 2 0
0 -2 -1 -3 -2z"/><path d="M153 358 c-1 -2 -1 -2 1 -4 l2 -2 2 2 c2 2 2 2 1 4 -1 1 -3 2 -3 2 0
0 -2 -1 -3 -2z"/><path d="M346 358 c-2 -1 -2 -3 -2 -8 0 -6 0 -6 -2 -6 -4 0 -6 -3 -6 -10 0 -6
0 -6 -2 -6 -3 0 -6 -3 -6 -6 0 -1 -1 -2 -2 -2 -3 0 -6 -3 -6 -6 0 -1 -1 -2 -2
-2 -2 0 -6 -4 -14 -12 l-12 -12 -40 0 -40 0 -8 8 c-5 5 -8 8 -10 8 -1 0 -2 1
-2 2 0 3 -3 6 -6 6 -1 0 -2 1 -2 2 0 3 -3 6 -6 6 -2 0 -2 0 -2 6 0 7 -2 10 -6
10 -1 0 -2 1 -2 2 0 2 -1 4 -2 5 -2 1 -2 1 -4 -1 -2 -2 -2 -2 -1 -4 1 -1 3 -2
5 -2 2 0 2 0 2 -6 0 -7 2 -10 6 -10 1 0 2 -1 2 -2 0 -3 3 -6 6 -6 1 0 2 -1 2
-2 0 -3 3 -6 6 -6 2 0 2 -1 2 -6 l0 -6 6 -6 c5 -6 6 -6 10 -6 7 0 8 -2 8 -12
l0 -8 12 -12 c12 -11 12 -12 12 -16 0 -6 10 -16 16 -16 6 0 8 2 8 8 0 4 0 5 8
12 8 7 8 8 8 12 0 4 0 5 8 12 8 7 8 8 8 12 0 4 0 5 12 16 l12 12 0 6 c0 6 0 6
2 6 3 0 6 3 6 6 0 1 1 2 2 2 3 0 6 3 6 6 0 1 1 2 2 2 4 0 6 3 6 10 0 6 0 6 2
6 6 0 8 10 4 14 -2 2 -2 2 -4 0z"/></g>
  <g transform="scale(0.125 0.125) translate(0.000000,512.000000) scale(1.000000,-1.000000)" fill="#561536" stroke="none"><path d="M169 422 c-1 -2 -1 -2 1 -4 l2 -2 2 2 c2 2 2 2 1 4 -1 1 -3 2 -3 2 0
0 -2 -1 -3 -2z"/><path d="M209 422 c-1 -2 -1 -2 1 -4 l2 -2 2 2 c2 2 2 2 1 4 -1 1 -3 2 -3 2 0
0 -2 -1 -3 -2z"/><path d="M290 422 c-1 -1 -2 -3 -2 -4 0 -1 -1 -2 -2 -2 -3 0 -6 -3 -6 -6 0 -1
-1 -2 -2 -2 -2 0 -4 -1 -5 -2 -1 -2 -1 -2 1 -4 2 -2 2 -2 4 -1 1 1 2 3 2 5 0
1 1 2 2 2 3 0 6 3 6 6 0 1 1 2 2 2 2 0 4 1 5 2 1 2 1 2 0 4 -3 2 -3 2 -5 0z"/><path d="M329 422 c-1 -2 -1 -2 1 -4 l2 -2 2 2 c2 2 2 2 1 4 -1 1 -3 2 -3 2 0
0 -2 -1 -3 -2z"/><path d="M345 414 c-1 -2 -1 -2 1 -4 l2 -2 2 2 c2 2 2 2 1 4 -1 1 -3 2 -3 2 0
0 -2 -1 -3 -2z"/><path d="M153 406 c-1 -2 -1 -2 1 -4 l2 -2 2 2 c2 2 2 2 1 4 -1 1 -3 2 -3 2 0
0 -2 -1 -3 -2z"/><path d="M225 406 c-1 -2 -1 -2 1 -4 l2 -2 2 2 c2 2 2 2 1 4 -1 1 -3 2 -3 2 0
0 -2 -1 -3 -2z"/><path d="M354 398 c-3 -3 -3 -26 0 -28 2 -2 2 -2 4 0 3 2 3 26 0 28 -2 2 -2 2
-4 0z"/><path d="M233 390 c-1 -2 -1 -2 1 -4 l2 -2 2 2 c2 2 2 2 1 4 -1 1 -3 2 -3 2 0
0 -2 -1 -3 -2z"/><path d="M265 390 c-1 -2 -1 -2 1 -4 l2 -2 2 2 c2 2 2 2 1 4 -1 1 -3 2 -3 2 0
0 -2 -1 -3 -2z"/><path d="M145 382 c-1 -2 -1 -2 1 -4 l2 -2 2 2 c2 2 2 2 1 4 -1 1 -3 2 -3 2 0
0 -2 -1 -3 -2z"/><path d="M241 374 c-1 -2 -1 -2 1 -4 l2 -2 2 2 c2 2 2 2 1 4 -1 1 -3 2 -3 2 0
0 -2 -1 -3 -2z"/><path d="M257 374 c-1 -2 -1 -2 1 -4 l2 -2 2 2 c2 2 2 2 1 4 -1 1 -3 2 -3 2 0
0 -2 -1 -3 -2z"/><path d="M153 358 c-1 -2 -1 -2 1 -4 l2 -2 2 2 c2 2 2 2 1 4 -1 1 -3 2 -3 2 0
0 -2 -1 -3 -2z"/><path d="M345 350 c-1 -2 -1 -2 1 -4 l2 -2 2 2 c2 2 2 2 1 4 -1 1 -3 2 -3 2 0
0 -2 -1 -3 -2z"/><path d="M161 342 c-1 -2 -1 -2 1 -4 l2 -2 2 2 c2 2 2 2 1 4 -1 1 -3 2 -3 2 0
0 -2 -1 -3 -2z"/><path d="M338 334 c-1 -1 -2 -3 -2 -4 0 -1 -1 -2 -2 -2 -2 0 -4 -1 -5 -2 -1
-2 -1 -2 1 -4 2 -2 2 -2 4 -1 1 1 2 3 2 5 0 1 1 2 2 2 2 0 4 1 5 2 1 2 1 2 0
4 -3 2 -3 2 -5 0z"/><path d="M170 326 c-2 -2 -2 -2 0 -4 0 -1 2 -2 4 -2 1 0 2 -1 2 -2 0 -2 1 -4
2 -5 2 -1 2 -1 4 1 2 2 2 2 1 4 -1 1 -3 2 -5 2 -1 0 -2 1 -2 2 0 2 -3 6 -4 6
0 0 -2 -1 -2 -2z"/><path d="M314 302 c-1 -1 -2 -3 -2 -4 0 -1 -1 -2 -2 -2 -2 0 -4 -1 -5 -2 -1
-2 -1 -2 1 -4 2 -2 2 -2 4 -1 1 1 2 3 2 5 0 1 1 2 2 2 2 0 4 1 5 2 1 2 1 2 0
4 -3 2 -3 2 -5 0z"/><path d="M194 294 c-2 -2 -2 -2 0 -4 0 -1 2 -2 4 -2 1 0 2 -1 2 -2 0 -2 1 -4
2 -5 2 -1 2 -1 4 1 2 2 2 2 1 4 -1 1 -3 2 -5 2 -1 0 -2 1 -2 2 0 2 -3 6 -4 6
0 0 -2 -1 -2 -2z"/><path d="M290 270 c-1 -1 -2 -3 -2 -4 0 -1 -1 -2 -2 -2 -2 0 -4 -1 -5 -2 -1
-2 -1 -2 1 -4 2 -2 2 -2 4 -1 1 1 2 3 2 5 0 1 1 2 2 2 2 0 4 1 5 2 1 2 1 2 0
4 -3 2 -3 2 -5 0z"/><path d="M218 262 c-2 -2 -2 -2 0 -4 0 -1 2 -2 4 -2 1 0 2 -1 2 -2 0 -2 1 -4
2 -5 2 -1 2 -1 4 1 2 2 2 2 1 4 -1 1 -3 2 -5 2 -1 0 -2 1 -2 2 0 2 -3 6 -4 6
0 0 -2 -1 -2 -2z"/><path d="M274 246 c-1 -1 -2 -3 -2 -4 0 -1 -1 -2 -2 -2 -2 0 -4 -1 -5 -2 -1
-2 -1 -2 1 -4 2 -2 2 -2 4 -1 1 1 2 3 2 5 0 1 1 2 2 2 2 0 4 1 5 2 1 2 1 2 0
4 -3 2 -3 2 -5 0z"/><path d="M241 230 c-1 -2 -1 -2 1 -4 l2 -2 2 2 c2 2 2 2 1 4 -1 1 -3 2 -3 2 0
0 -2 -1 -3 -2z"/><path d="M257 222 c-1 -2 -1 -2 1 -4 l2 -2 2 2 c2 2 2 2 1 4 -1 1 -3 2 -3 2 0
0 -2 -1 -3 -2z"/></g>
</svg>
