<?xml version="1.0" encoding="UTF-8"?>
<svg xmlns="http://www.w3.org/2000/svg" viewBox="0 0 64 64" width="64" height="64">
  <g transform="scale(0.125 0.125) translate(0.000000,512.000000) scale(1.000000,-1.000000)" fill="#ffffff" stroke="none"><path d="M192 484 l-3 -4 -9 0 -9 0 -3 -4 c-3 -4 -4 -4 -8 -4 -4 0 -5 0 -8 -4
-3 -4 -4 -4 -8 -4 -4 0 -5 0 -8 -4 -3 -4 -4 -4 -8 -4 -4 0 -4 0 -16 -12 -12
-12 -12 -12 -16 -12 -6 0 -8 -2 -8 -8 0 -4 0 -5 -12 -16 -12 -12 -12 -12 -12
-16 0 -4 0 -5 -4 -8 l-4 -3 0 -9 0 -9 -4 -3 -4 -3 0 -49 0 -49 4 -3 c4 -3 4
-4 4 -8 0 -4 0 -5 4 -8 4 -3 4 -4 4 -8 0 -4 0 -5 4 -8 4 -3 4 -4 4 -8 l0 -4
22 -22 c22 -22 22 -22 26 -22 4 0 5 0 12 -8 7 -8 8 -8 12 -8 4 0 5 0 8 -4 l3
-4 9 0 9 0 3 -4 c3 -4 4 -4 8 -4 6 0 16 -10 16 -16 0 -4 0 -5 8 -12 8 -7 8 -8
8 -12 0 -4 0 -5 4 -8 4 -3 4 -4 4 -8 0 -4 0 -5 4 -8 4 -3 4 -4 4 -8 0 -4 0 -5
8 -12 8 -7 8 -8 8 -12 0 -3 1 -5 2 -6 2 -2 2 -2 8 4 6 5 6 6 6 10 0 4 0 5 4 8
4 3 4 4 4 8 0 4 0 5 8 12 8 7 8 8 8 12 0 4 0 5 4 8 4 3 4 4 4 8 0 4 0 5 4 8 4
3 4 4 4 8 0 4 0 5 6 10 5 6 6 6 10 6 4 0 5 0 8 4 l3 4 9 0 9 0 3 4 c3 4 4 4 8
4 4 0 5 0 12 8 7 8 8 8 12 8 4 0 4 0 26 22 22 22 22 22 22 26 0 4 0 5 8 12 l8
8 0 8 0 9 4 3 4 3 0 9 0 9 4 3 4 3 0 25 0 25 -4 3 -4 3 0 13 0 13 -4 3 c-4 3
-4 4 -4 8 0 4 0 5 -4 8 -4 3 -4 4 -4 8 0 4 0 5 -8 12 -8 7 -8 8 -8 12 0 4 0 5
-10 14 -9 10 -10 10 -14 10 -4 0 -5 0 -12 8 -7 8 -8 8 -12 8 -4 0 -5 0 -8 4
-3 4 -4 4 -8 4 -4 0 -5 0 -8 4 -3 4 -4 4 -8 4 -4 0 -5 0 -8 4 l-3 4 -9 0 -9 0
-3 4 -3 4 -57 0 -57 0 -3 -4z"/></g>
  <g transform="scale(0.125 0.125) translate(0.000000,512.000000) scale(1.000000,-1.000000)" fill="#ff2794" stroke="none"><path d="M192 484 l-3 -4 -9 0 -9 0 -3 -4 c-3 -4 -4 -4 -8 -4 -4 0 -5 0 -8 -4
-3 -4 -4 -4 -8 -4 -4 0 -5 0 -8 -4 -3 -4 -4 -4 -8 -4 -4 0 -4 0 -16 -12 -12
-12 -12 -12 -16 -12 -6 0 -8 -2 -8 -8 0 -4 0 -5 -12 -16 -12 -12 -12 -12 -12
-16 0 -4 0 -5 -4 -8 l-4 -3 0 -9 0 -9 -4 -3 -4 -3 0 -49 0 -49 4 -3 c4 -3 4
-4 4 -8 0 -4 0 -5 4 -8 4 -3 4 -4 4 -8 0 -4 0 -5 4 -8 4 -3 4 -4 4 -8 l0 -4
22 -22 c22 -22 22 -22 26 -22 4 0 5 0 12 -8 7 -8 8 -8 12 -8 4 0 5 0 8 -4 l3
-4 9 0 9 0 3 -4 c3 -4 4 -4 8 -4 6 0 16 -10 16 -16 0 -4 0 -5 8 -12 8 -7 8 -8
8 -12 0 -4 0 -5 4 -8 4 -3 4 -4 4 -8 0 -4 0 -5 4 -8 4 -3 4 -4 4 -8 0 -4 0 -5
8 -12 8 -7 8 -8 8 -12 0 -3 1 -5 2 -6 2 -2 2 -2 8 4 6 5 6 6 6 10 0 4 0 5 4 8
4 3 4 4 4 8 0 4 0 5 8 12 8 7 8 8 8 12 0 4 0 5 4 8 4 3 4 4 4 8 0 4 0 5 4 8 4
3 4 4 4 8 0 4 0 5 6 10 5 6 6 6 10 6 4 0 5 0 8 4 l3 4 9 0 9 0 3 4 c3 4 4 4 8
4 4 0 5 0 12 8 7 8 8 8 12 8 4 0 4 0 26 22 22 22 22 22 22 26 0 4 0 5 8 12 l8
8 0 8 0 9 4 3 4 3 0 9 0 9 4 3 4 3 0 25 0 25 -4 3 -4 3 0 13 0 13 -4 3 c-4 3
-4 4 -4 8 0 4 0 5 -4 8 -4 3 -4 4 -4 8 0 4 0 5 -8 12 -8 7 -8 8 -8 12 0 4 0 5
-10 14 -9 10 -10 10 -14 10 -4 0 -5 0 -12 8 -7 8 -8 8 -12 8 -4 0 -5 0 -8 4
-3 4 -4 4 -8 4 -4 0 -5 0 -8 4 -3 4 -4 4 -8 4 -4 0 -5 0 -8 4 l-3 4 -9 0 -9 0
-3 4 -3 4 -57 0 -57 0 -3 -4z m64 -8 l3 -4 21 0 21 0 3 -4 3 -4 9 0 9 0 3 -4
c3 -4 4 -4 8 -4 4 0 5 0 8 -4 3 -4 4 -4 8 -4 4 0 5 0 12 -8 7 -8 8 -8 12 -8 4
0 5 0 18 -14 14 -13 14 -14 14 -18 0 -4 0 -5 8 -12 8 -7 8 -8 8 -12 0 -4 0 -5
4 -8 4 -3 4 -4 4 -8 0 -4 0 -5 4 -8 l4 -3 0 -37 0 -37 -4 -3 -4 -3 0 -9 0 -8
-8 -8 c-8 -7 -8 -8 -8 -12 0 -4 0 -4 -22 -26 l-22 -22 -4 0 c-4 0 -5 0 -8 -4
-3 -4 -4 -4 -8 -4 -4 0 -5 0 -8 -4 -3 -4 -4 -4 -8 -4 -4 0 -5 0 -8 -4 l-3 -4
-9 0 -8 0 -6 -6 c-6 -5 -6 -6 -6 -10 0 -4 0 -5 -4 -8 -4 -3 -4 -4 -4 -8 0 -4
0 -5 -4 -8 -4 -3 -4 -4 -4 -8 0 -4 0 -5 -8 -12 -8 -7 -8 -8 -8 -12 0 -4 -1 -5
-6 -10 -6 -6 -6 -6 -8 -4 -1 1 -2 3 -2 6 0 4 0 5 -8 12 -8 7 -8 8 -8 12 0 4 0
5 -4 8 -4 3 -4 4 -4 8 0 4 0 5 -4 8 -4 3 -4 4 -4 8 0 4 0 4 -10 14 l-10 10 -8
0 -9 0 -3 4 c-3 4 -4 4 -8 4 -4 0 -5 0 -8 4 -3 4 -4 4 -8 4 -4 0 -5 0 -12 8
-7 8 -8 8 -12 8 -4 0 -4 0 -22 18 -18 18 -18 18 -18 22 0 4 0 5 -8 12 l-8 8 0
8 0 9 -4 3 -4 3 0 37 0 37 4 3 4 3 0 9 0 8 12 12 c12 11 12 12 12 16 0 4 0 5
14 18 13 14 14 14 18 14 4 0 5 0 12 8 7 8 8 8 12 8 4 0 5 0 8 4 3 4 4 4 8 4 4
0 5 0 8 4 l3 4 9 0 9 0 3 4 3 4 21 0 21 0 3 4 c2 2 4 4 4 4 0 0 2 -2 4 -4z"/><path d="M162 414 c-10 -10 -10 -10 -10 -14 0 -4 0 -5 -4 -8 l-4 -3 0 -13 0
-13 4 -3 4 -3 0 -9 0 -9 4 -3 c4 -3 4 -4 4 -8 0 -4 0 -4 12 -16 12 -11 12 -12
12 -16 0 -4 0 -5 12 -16 12 -11 12 -12 12 -16 0 -4 0 -5 12 -16 12 -12 12 -12
12 -16 0 -4 0 -5 4 -8 4 -3 4 -4 4 -8 0 -4 0 -5 4 -8 4 -3 4 -4 4 -8 0 -3 1
-5 2 -6 2 -2 2 -2 8 4 6 5 6 6 6 10 0 4 0 5 4 8 l4 3 0 9 0 8 16 16 c16 16 16
16 16 20 0 4 0 5 8 12 8 7 8 8 8 12 0 6 2 8 8 8 6 0 8 2 8 8 0 4 0 5 8 12 l8
8 0 8 0 9 4 3 4 3 0 17 0 17 -4 3 c-4 3 -4 4 -4 8 0 4 0 4 -10 14 l-10 10 -24
0 -25 0 -3 -4 c-3 -4 -4 -4 -8 -4 -6 0 -8 -2 -8 -8 0 -4 -1 -5 -6 -10 -6 -6
-6 -6 -8 -4 -1 1 -2 3 -2 6 0 4 0 4 -10 14 l-10 10 -28 0 -28 0 -10 -10z"/></g>
  <g transform="scale(0.125 0.125) translate(0.000000,512.000000) scale(1.000000,-1.000000)" fill="#36252d" stroke="none"><path d="M192 484 l-3 -4 -9 0 -9 0 -3 -4 c-3 -4 -4 -4 -8 -4 -4 0 -5 0 -8 -4
-3 -4 -4 -4 -8 -4 -4 0 -5 0 -8 -4 -3 -4 -4 -4 -8 -4 -4 0 -4 0 -16 -12 -12
-12 -12 -12 -16 -12 -6 0 -8 -2 -8 -8 0 -4 0 -5 -12 -16 -12 -12 -12 -12 -12
-16 0 -4 0 -5 -4 -8 l-4 -3 0 -9 0 -9 -4 -3 -4 -3 0 -49 0 -49 4 -3 c4 -3 4
-4 4 -8 0 -4 0 -5 4 -8 4 -3 4 -4 4 -8 0 -4 0 -5 4 -8 4 -3 4 -4 4 -8 l0 -4
22 -22 c22 -22 22 -22 26 -22 4 0 5 0 12 -8 7 -8 8 -8 12 -8 4 0 5 0 8 -4 l3
-4 9 0 9 0 3 -4 c3 -4 4 -4 8 -4 6 0 16 -10 16 -16 0 -4 0 -5 8 -12 8 -7 8 -8
8 -12 0 -4 0 -5 4 -8 4 -3 4 -4 4 -8 0 -4 0 -5 4 -8 4 -3 4 -4 4 -8 0 -4 0 -5
8 -12 8 -7 8 -8 8 -12 0 -3 1 -5 2 -6 2 -2 2 -2 8 4 6 5 6 6 6 10 0 4 0 5 4 8
4 3 4 4 4 8 0 4 0 5 8 12 8 7 8 8 8 12 0 4 0 5 4 8 4 3 4 4 4 8 0 4 0 5 4 8 4
3 4 4 4 8 0 4 0 5 6 10 5 6 6 6 10 6 4 0 5 0 8 4 l3 4 9 0 9 0 3 4 c3 4 4 4 8
4 4 0 5 0 12 8 7 8 8 8 12 8 4 0 4 0 26 22 22 22 22 22 22 26 0 4 0 5 8 12 l8
8 0 8 0 9 4 3 4 3 0 9 0 9 4 3 4 3 0 25 0 25 -4 3 -4 3 0 13 0 13 -4 3 c-4 3
-4 4 -4 8 0 4 0 5 -4 8 -4 3 -4 4 -4 8 0 4 0 5 -8 12 -8 7 -8 8 -8 12 0 4 0 5
-10 14 -9 10 -10 10 -14 10 -4 0 -5 0 -12 8 -7 8 -8 8 -12 8 -4 0 -5 0 -8 4
-3 4 -4 4 -8 4 -4 0 -5 0 -8 4 -3 4 -4 4 -8 4 -4 0 -5 0 -8 4 l-3 4 -9 0 -9 0
-3 4 -3 4 -57 0 -57 0 -3 -4z m64 -8 l3 -4 21 0 21 0 3 -4 3 -4 9 0 9 0 3 -4
c3 -4 4 -4 8 -4 4 0 5 0 8 -4 3 -4 4 -4 8 -4 4 0 5 0 12 -8 7 -8 8 -8 12 -8 4
0 5 0 18 -14 14 -13 14 -14 14 -18 0 -4 0 -5 8 -12 8 -7 8 -8 8 -12 0 -4 0 -5
4 -8 4 -3 4 -4 4 -8 0 -4 0 -5 4 -8 l4 -3 0 -37 0 -37 -4 -3 -4 -3 0 -9 0 -8
-8 -8 c-8 -7 -8 -8 -8 -12 0 -4 0 -4 -22 -26 l-22 -22 -4 0 c-4 0 -5 0 -8 -4
-3 -4 -4 -4 -8 -4 -4 0 -5 0 -8 -4 -3 -4 -4 -4 -8 -4 -4 0 -5 0 -8 -4 l-3 -4
-9 0 -8 0 -6 -6 c-6 -5 -6 -6 -6 -10 0 -4 0 -5 -4 -8 -4 -3 -4 -4 -4 -8 0 -4
0 -5 -4 -8 -4 -3 -4 -4 -4 -8 0 -4 0 -5 -8 -12 -8 -7 -8 -8 -8 -12 0 -4 -1 -5
-6 -10 -6 -6 -6 -6 -8 -4 -1 1 -2 3 -2 6 0 4 0 5 -8 12 -8 7 -8 8 -8 12 0 4 0
5 -4 8 -4 3 -4 4 -4 8 0 4 0 5 -4 8 -4 3 -4 4 -4 8 0 4 0 4 -10 14 l-10 10 -8
0 -9 0 -3 4 c-3 4 -4 4 -8 4 -4 0 -5 0 -8 4 -3 4 -4 4 -8 4 -4 0 -5 0 -12 8
-7 8 -8 8 -12 8 -4 0 -4 0 -22 18 -18 18 -18 18 -18 22 0 4 0 5 -8 12 l-8 8 0
8 0 9 -4 3 -4 3 0 37 0 37 4 3 4 3 0 9 0 8 12 12 c12 11 12 12 12 16 0 4 0 5
14 18 13 14 14 14 18 14 4 0 5 0 12 8 7 8 8 8 12 8 4 0 5 0 8 4 3 4 4 4 8 4 4
0 5 0 8 4 l3 4 9 0 9 0 3 4 3 4 21 0 21 0 3 4 c2 2 4 4 4 4 0 0 2 -2 4 -4z"/><path d="M162 414 c-10 -10 -10 -10 -10 -14 0 -4 0 -5 -4 -8 l-4 -3 0 -13 0
-13 4 -3 4 -3 0 -9 0 -9 4 -3 c4 -3 4 -4 4 -8 0 -4 0 -4 12 -16 12 -11 12 -12
12 -16 0 -4 0 -5 12 -16 12 -11 12 -12 12 -16 0 -4 0 -5 12 -16 12 -12 12 -12
12 -16 0 -4 0 -5 4 -8 4 -3 4 -4 4 -8 0 -4 0 -5 4 -8 4 -3 4 -4 4 -8 0 -3 1
-5 2 -6 2 -2 2 -2 8 4 6 5 6 6 6 10 0 4 0 5 4 8 l4 3 0 9 0 8 16 16 c16 16 16
16 16 20 0 4 0 5 8 12 8 7 8 8 8 12 0 6 2 8 8 8 6 0 8 2 8 8 0 4 0 5 8 12 l8
8 0 8 0 9 4 3 4 3 0 17 0 17 -4 3 c-4 3 -4 4 -4 8 0 4 0 4 -10 14 l-10 10 -24
0 -25 0 -3 -4 c-3 -4 -4 -4 -8 -4 -6 0 -8 -2 -8 -8 0 -4 -1 -5 -6 -10 -6 -6
-6 -6 -8 -4 -1 1 -2 3 -2 6 0 4 0 4 -10 14 l-10 10 -28 0 -28 0 -10 -10z m164
-64 c1 -1 2 -3 2 -6 0 -4 0 -5 -8 -12 -8 -7 -8 -8 -8 -12 0 -4 0 -5 -8 -12 -8
-7 -8 -8 -8 -12 0 -4 0 -4 -16 -20 -16 -15 -16 -16 -16 -20 0 -4 -1 -5 -6 -10
l-6 -6 -6 6 c-5 5 -6 6 -6 10 0 4 0 5 -12 16 -12 11 -12 12 -12 16 0 4 0 5
-12 16 -12 12 -12 12 -12 16 0 4 0 5 -4 8 -4 3 -4 4 -4 8 0 4 0 5 -4 8 -4 4
-4 4 -3 6 2 2 3 2 75 2 66 0 73 0 74 -2z"/></g>
  <g transform="scale(0.125 0.125) translate(0.000000,512.000000) scale(1.000000,-1.000000)" fill="#4f4f4f" stroke="none"><path d="M196 480 c-7 -8 -8 -8 -12 -8 -4 0 -5 0 -8 4 -4 4 -4 4 -6 3 -1 -2
-2 -4 -2 -7 0 -6 -2 -8 -8 -8 -4 0 -5 0 -8 -4 -3 -4 -4 -4 -8 -4 -4 0 -5 0 -8
-4 -3 -4 -4 -4 -8 -4 l-4 0 -26 -26 c-26 -26 -26 -26 -26 -30 0 -4 0 -5 -8
-12 l-8 -8 0 -8 0 -9 -4 -3 -4 -3 0 -37 0 -37 4 -3 4 -3 0 -9 0 -9 4 -3 c4 -3
4 -4 4 -8 0 -4 0 -4 12 -16 12 -11 12 -12 12 -16 0 -4 1 -5 10 -14 9 -10 10
-10 14 -10 4 0 5 0 12 -8 7 -8 8 -8 12 -8 4 0 5 0 8 -4 3 -4 4 -4 8 -4 6 0 8
-2 8 -8 0 -3 1 -5 2 -7 2 -1 2 -1 6 3 l4 4 14 -14 c14 -13 14 -14 14 -18 0 -4
0 -5 8 -12 8 -7 8 -8 8 -12 0 -4 0 -5 4 -8 4 -3 4 -4 4 -8 0 -4 0 -5 4 -8 4
-3 4 -4 4 -8 0 -4 0 -5 8 -12 8 -7 8 -8 8 -12 0 -3 1 -5 2 -6 2 -2 2 -2 8 4 6
5 6 6 6 10 0 4 0 5 4 8 4 3 4 4 4 8 0 4 0 5 8 12 8 7 8 8 8 12 0 4 0 5 4 8 4
3 4 4 4 8 0 4 0 5 4 8 4 3 4 4 4 8 0 4 0 4 14 18 l14 14 4 -4 c4 -4 4 -4 6 -3
1 2 2 4 2 7 0 3 1 5 2 7 2 1 2 1 6 -3 4 -4 4 -4 6 -3 1 2 2 4 2 7 0 6 2 8 8 8
4 0 5 0 12 8 7 8 8 8 12 8 4 0 5 0 18 14 14 13 14 14 14 18 0 4 0 5 8 12 8 7
8 8 8 12 0 4 0 5 4 8 l4 3 0 13 0 12 8 8 8 8 0 16 0 17 -4 3 c-4 3 -4 4 -4 8
0 4 0 5 -4 8 l-4 3 0 9 0 9 -4 3 c-4 3 -4 4 -4 8 0 4 0 5 -4 8 -4 3 -4 4 -4 8
l0 4 -26 26 -26 26 -4 0 c-4 0 -5 0 -8 4 -3 4 -4 4 -8 4 -4 0 -5 0 -8 4 -3 4
-4 4 -8 4 -6 0 -8 2 -8 8 0 3 -1 5 -2 7 -2 1 -2 1 -6 -3 -3 -4 -4 -4 -8 -4 -4
0 -5 0 -12 8 -7 8 -8 8 -12 8 -4 0 -5 0 -8 -4 l-3 -4 -13 0 c-11 0 -13 0 -14
-2 -2 -2 -2 -2 0 -4 1 -2 3 -2 22 -2 l21 0 3 -4 3 -4 9 0 9 0 3 -4 c3 -4 4 -4
8 -4 4 0 5 0 8 -4 3 -4 4 -4 8 -4 4 0 5 0 12 -8 7 -8 8 -8 12 -8 4 0 5 0 18
-14 14 -13 14 -14 14 -18 0 -4 0 -5 8 -12 8 -7 8 -8 8 -12 0 -4 0 -5 4 -8 4
-3 4 -4 4 -8 0 -4 0 -5 4 -8 l4 -3 0 -37 0 -37 -4 -3 -4 -3 0 -9 0 -8 -8 -8
c-8 -7 -8 -8 -8 -12 0 -4 0 -4 -22 -26 l-22 -22 -4 0 c-4 0 -5 0 -8 -4 -3 -4
-4 -4 -8 -4 -4 0 -5 0 -8 -4 -3 -4 -4 -4 -8 -4 -4 0 -5 0 -8 -4 l-3 -4 -9 0
-8 0 -6 -6 c-6 -5 -6 -6 -6 -10 0 -4 0 -5 -4 -8 -4 -3 -4 -4 -4 -8 0 -4 0 -5
-4 -8 -4 -3 -4 -4 -4 -8 0 -4 0 -5 -8 -12 -8 -7 -8 -8 -8 -12 0 -4 -1 -5 -6
-10 -6 -6 -6 -6 -8 -4 -1 1 -2 3 -2 6 0 4 0 5 -8 12 -8 7 -8 8 -8 12 0 4 0 5
-4 8 -4 3 -4 4 -4 8 0 4 0 5 -4 8 -4 3 -4 4 -4 8 0 4 0 4 -10 14 l-10 10 -8 0
-9 0 -3 4 c-3 4 -4 4 -8 4 -4 0 -5 0 -8 4 -3 4 -4 4 -8 4 -4 0 -5 0 -12 8 -7
8 -8 8 -12 8 -4 0 -4 0 -22 18 -18 18 -18 18 -18 22 0 4 0 5 -8 12 l-8 8 0 8
0 9 -4 3 -4 3 0 37 0 37 4 3 4 3 0 9 0 8 12 12 c12 11 12 12 12 16 0 4 0 5 14
18 13 14 14 14 18 14 4 0 5 0 12 8 7 8 8 8 12 8 4 0 5 0 8 4 3 4 4 4 8 4 4 0
5 0 8 4 l3 4 9 0 9 0 3 4 3 4 21 0 c19 0 21 0 23 2 1 2 1 2 0 4 -2 2 -4 2 -11
2 l-9 0 -3 4 -3 4 -9 0 -8 0 -8 -8z"/><path d="M162 414 l-10 -10 0 -6 c0 -6 0 -6 -2 -6 -5 0 -6 -3 -6 -16 0 -14 1
-16 6 -16 2 0 2 0 2 -10 0 -12 1 -14 6 -14 2 0 2 -1 2 -6 l0 -6 6 -6 c3 -4 7
-6 8 -6 1 0 2 -1 2 -2 0 -2 1 -4 4 -6 4 -3 4 -4 4 -8 0 -4 0 -5 6 -10 3 -4 7
-6 8 -6 1 0 2 -1 2 -2 0 -2 1 -4 4 -6 4 -3 4 -4 4 -8 0 -4 0 -5 6 -10 3 -4 7
-6 8 -6 1 0 2 -1 2 -2 0 -2 1 -4 4 -6 4 -3 4 -4 4 -8 0 -4 0 -5 4 -8 4 -3 4
-4 4 -8 0 -4 0 -5 4 -8 4 -3 4 -4 4 -8 0 -3 1 -5 2 -6 2 -2 2 -2 8 4 6 5 6 6
6 10 0 4 0 5 4 8 4 3 4 4 4 8 0 4 0 5 -4 8 -4 4 -4 4 -3 6 2 1 4 2 7 2 4 0 5
0 10 6 4 3 6 7 6 8 0 1 1 2 2 2 1 0 5 2 8 6 6 5 6 6 6 10 0 4 0 5 4 8 3 2 4 4
4 6 0 1 1 2 2 2 4 0 6 3 6 8 0 6 2 8 8 8 6 0 8 2 8 10 0 5 0 6 2 6 1 0 5 2 8
6 l6 6 0 10 c0 10 0 10 2 10 5 0 6 2 6 20 l0 17 -4 3 c-4 3 -4 4 -4 8 0 5 -2
8 -6 8 -1 0 -2 1 -2 2 0 1 -2 5 -6 8 -8 8 -12 8 -18 2 l-4 -4 -4 4 -3 4 -13 0
c-14 0 -16 -1 -16 -6 0 -2 0 -2 -6 -2 -8 0 -10 -2 -10 -8 0 -4 -1 -5 -6 -10
-6 -6 -6 -6 -8 -4 -1 1 -2 3 -2 6 0 4 0 4 -10 14 l-10 10 -28 0 -28 0 -10 -10z
m124 0 c1 -1 2 -2 2 -4 0 -1 1 -2 2 -2 2 0 4 -1 5 -2 1 -2 1 -2 -1 -4 -2 -2
-2 -2 -4 -1 -1 1 -2 3 -2 5 0 1 -1 2 -2 2 -3 0 -6 3 -6 6 0 3 3 3 6 0z m-95
-8 c1 -2 1 -2 -1 -4 l-2 -2 -2 2 c-2 2 -2 2 -1 4 1 1 3 2 3 2 0 0 2 -1 3 -2z
m24 0 c1 -2 1 -2 -1 -4 l-2 -2 -2 2 c-2 2 -2 2 -1 4 1 1 3 2 3 2 0 0 2 -1 3
-2z m104 0 c1 -2 1 -2 -1 -4 l-2 -2 -2 2 c-2 2 -2 2 -1 4 1 1 3 2 3 2 0 0 2
-1 3 -2z m25 0 c0 -2 -1 -4 -2 -5 -2 -1 -2 -1 -4 1 -2 2 -2 2 -1 4 3 3 7 3 7
0z m-114 -8 c1 -1 2 -2 2 -4 0 -1 1 -2 2 -2 2 0 4 -1 5 -2 1 -2 1 -2 -1 -4 -2
-2 -2 -2 -4 -1 -1 1 -2 3 -2 5 0 1 -1 2 -2 2 -2 0 -4 1 -4 2 -2 2 -2 2 0 4 2
2 2 2 4 0z m49 0 c1 -2 1 -2 -1 -4 l-2 -2 -2 2 c-2 2 -2 2 -1 4 1 1 3 2 3 2 0
0 2 -1 3 -2z m-120 -8 c1 -2 1 -2 -1 -4 -2 -2 -2 -2 -4 -1 -1 1 -2 3 -2 5 0 3
4 3 7 0z m16 0 c1 -2 1 -2 -1 -4 l-2 -2 -2 2 c-2 2 -2 2 -1 4 1 1 3 2 3 2 0 0
2 -1 3 -2z m80 -8 c1 -2 1 -2 -1 -4 l-2 -2 -2 2 c-2 2 -2 2 -1 4 1 1 3 2 3 2
0 0 2 -1 3 -2z m16 0 c1 -2 1 -2 -1 -4 l-2 -2 -2 2 c-2 2 -2 2 -1 4 1 1 3 2 3
2 0 0 2 -1 3 -2z m71 -8 c2 -1 2 -3 2 -8 0 -6 0 -6 2 -6 3 0 6 -3 6 -6 0 -1
-1 -2 -2 -2 -3 0 -6 3 -6 6 0 1 -1 2 -2 2 -6 0 -8 10 -4 14 2 2 2 2 4 0z
m-183 -8 c1 -2 1 -2 0 -4 -3 -3 -7 -3 -7 0 0 2 3 6 4 6 0 0 2 -1 3 -2z m104 0
c1 -2 1 -2 -1 -4 l-2 -2 -2 2 c-2 2 -2 2 -1 4 1 1 3 2 3 2 0 0 2 -1 3 -2z m67
-20 c6 -6 6 -6 4 -8 -1 -1 -3 -2 -6 -2 -4 0 -5 0 -10 -6 l-6 -6 4 -4 c4 -4 4
-4 3 -6 -2 -1 -4 -2 -7 -2 -6 0 -16 -10 -16 -16 0 -4 0 -5 -16 -20 l-16 -16 4
-4 c4 -4 4 -4 3 -6 -2 -1 -3 -2 -7 -2 -4 0 -5 0 -8 -4 l-4 -4 -4 4 -3 4 -11 0
c-10 0 -10 0 -10 2 0 4 3 6 8 6 3 0 5 1 6 2 2 2 2 2 -4 8 -5 5 -6 6 -10 6 -7
0 -8 2 -8 12 l0 8 -6 6 c-5 5 -6 6 -10 6 -7 0 -8 2 -8 12 0 10 -1 12 -8 12 -3
0 -5 1 -7 2 -1 2 -1 2 3 6 4 4 4 4 3 6 -3 3 -15 3 -15 0 0 -3 -3 -6 -6 -6 -1
0 -2 1 -2 2 0 3 3 6 6 6 1 0 2 1 2 2 0 1 1 3 2 4 1 2 5 2 78 2 l76 0 6 -6z m4
-20 c1 -1 2 -2 2 -4 0 -3 -4 -3 -6 0 -2 2 -2 2 0 4 2 2 2 2 4 0z m-151 -8 c1
-2 1 -2 0 -4 -3 -3 -7 -3 -7 0 0 2 3 6 4 6 0 0 2 -1 3 -2z m127 -24 c1 -1 2
-2 2 -4 0 -3 -4 -3 -6 0 -2 2 -2 2 0 4 2 2 2 2 4 0z m-103 -8 c1 -2 1 -2 0 -4
-3 -3 -7 -3 -7 0 0 2 3 6 4 6 0 0 2 -1 3 -2z m79 -24 c1 -1 2 -2 2 -4 0 -3 -4
-3 -6 0 -2 2 -2 2 0 4 2 2 2 2 4 0z"/></g>
  <g transform="scale(0.125 0.125) translate(0.000000,512.000000) scale(1.000000,-1.000000)" fill="#ff0d87" stroke="none"><path d="M210 478 c-2 -2 -2 -2 0 -4 1 -2 3 -2 18 -2 15 0 17 0 19 2 1 2 1 2
0 4 -2 2 -4 2 -19 2 -15 0 -17 0 -18 -2z"/><path d="M258 478 c-2 -2 -2 -2 0 -4 1 -2 3 -2 18 -2 15 0 17 0 19 2 1 2 1 2
0 4 -2 2 -4 2 -19 2 -15 0 -17 0 -18 -2z"/><path d="M178 470 c-1 -1 -2 -3 -2 -4 0 -2 0 -2 -6 -2 -7 0 -10 -2 -10 -6 0
-2 0 -2 -6 -2 -7 0 -10 -2 -10 -6 0 -2 -1 -2 -6 -2 l-6 0 -6 -6 c-4 -3 -6 -7
-6 -8 0 -2 -1 -2 -6 -2 -9 0 -10 -1 -10 -10 0 -6 0 -6 -2 -6 -3 0 -6 -3 -6 -6
0 -1 -1 -2 -2 -2 -1 0 -6 -4 -12 -10 l-10 -10 0 -6 c0 -6 0 -6 -2 -6 -5 0 -6
-3 -6 -14 0 -10 0 -10 -2 -10 -6 0 -6 0 -6 -44 l0 -41 4 -3 c4 -3 4 -4 4 -8 0
-5 2 -8 6 -8 2 0 2 0 2 -6 0 -7 0 -7 4 -10 4 -3 4 -4 4 -8 l0 -4 22 -22 c22
-22 22 -22 26 -22 4 0 5 0 12 -8 l8 -8 8 0 c7 0 9 0 10 -2 3 -3 3 -6 0 -6 -2
0 -4 -1 -5 -2 -1 -2 -1 -2 1 -4 2 -2 2 -2 4 -1 1 1 2 3 2 5 0 2 0 2 6 2 8 0
10 -2 10 -8 0 -4 0 -5 8 -12 8 -7 8 -8 8 -12 0 -4 1 -5 6 -10 3 -4 7 -6 8 -6
2 0 2 -1 2 -6 0 -7 2 -10 6 -10 2 0 2 0 2 -6 0 -7 0 -7 4 -10 4 -3 4 -4 4 -8
0 -4 0 -5 8 -12 8 -7 8 -8 8 -12 0 -3 1 -5 2 -6 2 -2 2 -2 8 4 l6 6 0 6 c0 6
0 6 2 6 4 0 6 3 6 10 0 5 0 6 2 6 1 0 5 2 8 6 l6 6 0 6 c0 6 0 6 2 6 4 0 6 3
6 10 0 6 0 6 2 6 4 0 6 3 6 8 0 4 0 5 8 12 8 7 8 8 8 12 0 6 2 8 10 8 6 0 6 0
6 -2 0 -2 1 -4 2 -5 2 -1 2 -1 4 1 2 2 2 2 1 4 -1 1 -3 2 -5 2 -1 0 -2 1 -2 2
0 4 3 6 8 6 4 0 5 0 8 -4 4 -4 4 -4 6 -3 1 2 2 4 2 7 0 6 10 16 16 16 4 0 5 0
26 22 l22 22 0 4 c0 4 0 5 4 8 4 3 4 3 4 10 0 6 0 6 2 6 4 0 6 3 6 8 0 4 0 5
4 8 l4 3 0 17 c0 15 0 17 2 19 3 2 6 -1 6 -7 0 -6 3 -9 6 -6 2 1 2 3 2 18 0
15 0 17 -2 19 -3 2 -6 -1 -6 -7 0 -6 -3 -9 -6 -6 -2 1 -2 3 -2 22 l0 21 -4 3
c-4 3 -4 4 -4 8 0 4 0 5 -4 8 -4 3 -4 4 -4 8 0 4 0 4 -10 14 -6 6 -11 10 -12
10 -2 0 -2 1 -2 6 l0 6 -6 6 -6 6 -6 0 c-5 0 -6 0 -6 2 0 1 -2 5 -6 8 l-6 6
-6 0 c-6 0 -6 0 -6 2 0 4 -3 6 -10 6 -6 0 -6 0 -6 2 0 4 -3 6 -10 6 -6 0 -6 0
-6 2 0 5 -3 6 -12 6 -7 0 -9 0 -10 -2 -2 -2 -2 -2 0 -4 1 -2 3 -2 12 -2 10 0
10 0 10 -2 0 -4 3 -6 10 -6 6 0 6 0 6 -2 0 -4 3 -6 10 -6 5 0 6 0 6 -2 0 -1 2
-5 6 -8 l6 -6 6 0 c5 0 6 0 6 -2 0 -3 19 -22 22 -22 2 0 2 -1 2 -6 l0 -6 8 -8
c8 -7 8 -8 8 -12 0 -4 0 -5 4 -8 4 -3 4 -4 4 -8 0 -4 0 -5 4 -8 l4 -3 0 -37 0
-37 -4 -3 -4 -3 0 -11 c0 -9 0 -10 -2 -10 -1 0 -5 -2 -8 -6 -5 -5 -6 -6 -6
-10 0 -4 0 -5 -22 -26 l-22 -22 -4 0 c-4 0 -5 0 -8 -4 -3 -4 -4 -4 -8 -4 -4 0
-5 0 -8 -4 -3 -4 -4 -4 -8 -4 -4 0 -5 0 -8 -4 l-3 -4 -9 0 -8 0 -6 -6 c-6 -5
-6 -6 -6 -10 0 -4 0 -5 -4 -8 -4 -3 -4 -3 -4 -10 0 -6 0 -6 -2 -6 -4 0 -6 -3
-6 -10 0 -5 0 -6 -2 -6 -1 0 -5 -2 -8 -6 l-6 -6 0 -6 c0 -6 0 -6 -2 -6 -2 0
-4 -1 -6 -4 -2 -3 -4 -4 -6 -4 -2 0 -2 0 -2 6 l0 6 -6 6 c-3 4 -7 6 -8 6 -2 0
-2 1 -2 6 0 7 -2 10 -6 10 -2 0 -2 0 -2 6 0 7 -2 10 -6 10 -2 0 -2 0 -2 6 0 7
-2 10 -6 10 -1 0 -2 1 -2 2 0 1 -2 5 -6 8 l-6 6 -8 0 -9 0 -3 4 c-3 4 -4 4 -8
4 -4 0 -5 0 -8 4 -3 4 -4 4 -8 4 -4 0 -5 0 -12 8 -7 8 -8 8 -12 8 -4 0 -4 0
-22 18 -17 17 -18 18 -18 22 0 4 -1 5 -6 10 -3 4 -7 6 -8 6 -2 0 -2 1 -2 10
l0 11 -4 3 -4 3 0 39 0 38 2 0 c5 0 6 3 6 14 0 9 0 10 2 10 1 0 6 4 12 10 l10
10 0 6 c0 6 0 6 2 6 3 0 6 3 6 6 0 1 1 2 2 2 3 0 14 11 14 14 0 2 1 2 6 2 l6
0 6 6 c4 3 6 7 6 8 0 2 1 2 6 2 7 0 10 2 10 6 0 2 0 2 6 2 7 0 10 2 10 6 0 2
0 2 10 2 9 0 11 0 13 2 1 2 1 2 0 4 -3 3 -19 3 -21 0z m30 -328 c0 -2 -1 -4
-2 -5 -2 -1 -2 -1 -4 1 -2 2 -2 2 -1 4 3 3 7 3 7 0z m8 -16 c0 -2 -1 -4 -2 -5
-2 -1 -2 -1 -4 1 -2 2 -2 2 -1 4 3 3 7 3 7 0z m78 -8 c3 -2 3 -6 0 -6 -3 0 -6
3 -6 6 0 3 3 3 6 0z m-70 -8 c0 -3 -3 -6 -6 -6 -3 0 -3 3 0 6 2 3 6 3 6 0z
m62 -8 c3 -2 3 -6 0 -6 -3 0 -6 3 -6 6 0 3 3 3 6 0z m-54 -8 c0 -3 -3 -6 -6
-6 -3 0 -3 3 0 6 2 3 6 3 6 0z m38 -16 c3 -2 3 -6 0 -6 -3 0 -6 3 -6 6 0 3 3
3 6 0z m-22 -10 l0 -4 6 0 c7 0 10 -2 10 -6 0 -2 0 -2 -6 -2 -7 0 -10 2 -10 6
0 1 -1 2 -2 2 -2 0 -4 1 -4 2 -2 2 -2 2 0 4 3 4 6 3 6 -2z"/><path d="M170 422 c-1 -1 -2 -3 -2 -4 0 -1 -1 -2 -2 -2 -3 0 -6 -3 -6 -6 0 -1
-1 -2 -2 -2 -4 0 -6 -3 -6 -10 0 -6 0 -6 -2 -6 -5 0 -6 -3 -6 -16 0 -12 0 -13
2 -15 2 -1 2 -1 6 3 4 4 4 4 6 3 1 -2 2 -4 2 -7 0 -4 0 -5 -4 -8 -4 -3 -4 -4
-4 -8 0 -5 2 -8 6 -8 2 0 2 0 2 -6 0 -7 2 -10 6 -10 1 0 2 -1 2 -2 0 -3 3 -6
6 -6 1 0 2 -1 2 -2 0 -2 1 -4 4 -6 4 -3 4 -4 4 -8 0 -5 2 -8 6 -8 1 0 2 -1 2
-2 0 -3 3 -6 6 -6 1 0 2 -1 2 -2 0 -2 1 -4 4 -6 4 -3 4 -4 4 -8 0 -5 2 -8 6
-8 1 0 2 -1 2 -2 0 -3 3 -6 6 -6 1 0 2 -1 2 -2 0 -4 3 -6 10 -6 8 0 8 -3 2 -8
-4 -4 -4 -4 -3 -6 2 -1 4 -2 7 -2 3 0 5 -1 7 -2 1 -2 1 -2 -3 -6 -4 -4 -4 -4
-3 -6 2 -1 4 -2 7 -2 5 0 8 -2 8 -6 0 -1 -1 -2 -2 -2 -2 0 -4 -1 -5 -2 -1 -2
-1 -2 1 -4 2 -2 2 -2 4 -1 1 1 2 3 2 5 0 1 1 2 2 2 4 0 6 3 6 8 0 4 0 5 4 8 4
3 4 4 4 8 0 4 0 5 -4 8 -4 4 -4 4 -3 6 2 1 4 2 7 2 4 0 5 0 10 6 4 3 6 7 6 8
0 1 1 2 2 2 3 0 6 3 6 6 0 1 1 2 2 2 4 0 6 3 6 8 0 4 0 5 4 8 3 2 4 4 4 6 0 1
1 2 2 2 2 0 4 1 5 2 1 2 1 2 0 4 -1 1 -3 2 -5 2 -2 0 -2 0 -2 4 l0 4 10 0 c13
0 14 1 14 10 0 6 0 6 2 6 3 0 6 3 6 6 0 1 1 2 2 2 5 0 6 3 6 14 0 10 0 10 2
10 5 0 6 2 6 20 0 19 0 20 -8 20 -5 0 -8 2 -8 6 0 1 1 2 2 2 2 0 4 1 5 2 1 2
1 2 0 4 -1 1 -3 2 -5 2 -1 0 -2 1 -2 2 0 3 -3 6 -6 6 -1 0 -2 1 -2 2 0 4 -3 6
-8 6 -4 0 -5 0 -8 -4 l-4 -4 -4 4 -3 4 -13 0 c-14 0 -16 -1 -16 -6 0 -2 0 -2
-6 -2 -8 0 -10 -2 -10 -8 0 -4 -1 -5 -6 -10 -6 -6 -6 -6 -8 -4 -1 1 -2 3 -2 6
0 5 -2 8 -6 8 -1 0 -2 1 -2 2 0 3 -3 6 -6 6 -1 0 -2 1 -2 2 0 4 -3 6 -8 6 -4
0 -5 0 -8 -4 l-4 -4 -4 4 c-3 4 -4 4 -8 4 -4 0 -5 0 -8 -4 l-4 -4 -4 4 c-3 4
-4 4 -8 4 -3 0 -5 -1 -6 -2z m5 -8 c1 -2 1 -2 0 -4 -1 -1 -3 -2 -5 -2 -1 0 -2
-1 -2 -2 0 -2 -1 -4 -2 -4 -2 -2 -2 -2 -4 0 -4 3 -3 6 2 6 l4 0 0 4 c0 5 3 6
7 2z m57 -2 l0 -4 4 0 c3 0 4 0 4 -2 0 -3 -3 -6 -6 -6 -2 0 -2 0 -2 -4 0 -4 0
-4 2 -4 2 0 4 -1 5 -2 1 -2 1 -2 -1 -4 -2 -2 -2 -2 -4 -1 -1 1 -2 3 -2 5 0 1
-1 2 -2 2 -2 0 -4 1 -4 2 -2 2 -2 2 0 4 0 1 2 2 4 2 2 0 2 0 2 4 0 4 0 4 -2 4
-2 0 -4 1 -4 2 -2 2 -2 2 0 4 3 4 6 3 6 -2z m54 2 c1 -1 2 -2 2 -4 0 -1 1 -2
2 -2 2 0 4 -1 5 -2 1 -2 1 -2 -1 -4 -2 -2 -2 -2 -4 -1 -1 1 -2 3 -2 5 0 1 -1
2 -2 2 -3 0 -6 3 -6 6 0 3 3 3 6 0z m50 -2 l0 -4 4 0 4 0 0 -4 c0 -3 0 -4 -2
-4 -3 0 -6 3 -6 6 0 1 -1 2 -2 2 -2 0 -4 1 -4 2 -2 2 -2 2 0 4 3 4 6 3 6 -2z
m-145 -6 c1 -2 1 -2 -1 -4 l-2 -2 -2 2 c-2 2 -2 2 -1 4 1 1 3 2 3 2 0 0 2 -1
3 -2z m24 0 c1 -2 1 -2 -1 -4 l-2 -2 -2 2 c-2 2 -2 2 -1 4 1 1 3 2 3 2 0 0 2
-1 3 -2z m104 0 c1 -2 1 -2 -1 -4 l-2 -2 -2 2 c-2 2 -2 2 -1 4 1 1 3 2 3 2 0
0 2 -1 3 -2z m-40 -8 c1 -2 1 -2 -1 -4 l-2 -2 -2 2 c-2 2 -2 2 -1 4 1 1 3 2 3
2 0 0 2 -1 3 -2z m-120 -8 c1 -2 1 -2 -1 -4 -2 -2 -2 -2 -4 -1 -1 1 -2 3 -2 5
0 3 4 3 7 0z m16 0 c1 -2 1 -2 -1 -4 l-2 -2 -2 2 c-2 2 -2 2 -1 4 1 1 3 2 3 2
0 0 2 -1 3 -2z m80 -8 c1 -2 1 -2 -1 -4 l-2 -2 -2 2 c-2 2 -2 2 -1 4 1 1 3 2
3 2 0 0 2 -1 3 -2z m16 0 c1 -2 1 -2 -1 -4 l-2 -2 -2 2 c-2 2 -2 2 -1 4 1 1 3
2 3 2 0 0 2 -1 3 -2z m71 -8 c2 -1 2 -3 2 -8 0 -6 0 -6 2 -6 3 0 6 -3 6 -6 0
-1 -1 -2 -2 -2 -3 0 -6 3 -6 6 0 1 -1 2 -2 2 -6 0 -8 10 -4 14 2 2 2 2 4 0z
m-79 -8 c1 -2 1 -2 -1 -4 l-2 -2 -2 2 c-2 2 -2 2 -1 4 1 1 3 2 3 2 0 0 2 -1 3
-2z m67 -20 c4 -3 6 -7 6 -8 0 -1 1 -2 2 -2 3 0 6 -3 6 -6 0 -2 0 -2 -4 -2
l-4 0 0 -4 c0 -5 -3 -6 -6 -2 -2 2 -2 2 0 4 0 1 2 2 4 2 2 0 2 0 2 4 l0 4 -6
0 -6 0 -6 -6 -6 -6 4 -4 5 -4 -5 -4 c-2 -2 -4 -4 -4 -6 0 -2 0 -2 -6 -2 -8 0
-10 -2 -10 -8 0 -4 0 -5 -4 -8 -4 -3 -4 -3 -4 -10 0 -6 0 -6 2 -6 3 0 6 -3 6
-6 0 -2 0 -2 -4 -2 l-4 0 0 -4 c0 -5 -3 -6 -6 -2 -2 2 -2 2 0 4 0 1 2 2 4 2 2
0 2 0 2 4 l0 4 -6 0 -6 0 -6 -6 -6 -6 4 -4 c4 -4 4 -4 3 -6 -2 -1 -4 -2 -7 -2
-4 0 -5 0 -8 -4 -3 -4 -3 -4 -10 -4 -6 0 -6 0 -6 2 0 4 -3 6 -10 6 l-6 0 0 4
0 4 -4 0 c-3 0 -4 0 -4 2 0 3 3 6 6 6 4 0 3 4 -2 8 l-4 3 0 9 c0 11 -1 12 -10
12 l-6 0 0 -4 c0 -4 0 -4 2 -4 2 0 4 -1 5 -2 1 -2 1 -2 0 -4 -4 -4 -7 -3 -7 2
l0 4 -4 0 c-3 0 -4 0 -4 2 0 3 3 6 6 6 4 0 3 4 -2 8 l-4 3 0 9 c0 11 -1 12
-10 12 l-6 0 0 -4 c0 -4 0 -4 2 -4 2 0 4 -1 5 -2 1 -2 1 -2 0 -4 -4 -4 -7 -3
-7 2 l0 4 -4 0 c-3 0 -4 0 -4 2 0 3 3 6 6 6 1 0 2 1 2 2 0 2 2 4 4 6 4 4 4 4
3 6 -3 3 -15 3 -15 0 0 -3 -3 -6 -6 -6 -1 0 -2 1 -2 2 0 3 3 6 6 6 1 0 2 1 2
2 0 1 1 3 2 4 1 2 5 2 78 2 l76 0 6 -6z m-18 -54 c0 -5 -3 -6 -6 -2 -2 2 -2 2
0 4 3 4 6 3 6 -2z"/><path d="M224 260 l0 -4 6 0 c8 0 12 3 9 6 -2 2 -4 2 -9 2 l-6 0 0 -4z"/></g>
  <g transform="scale(0.125 0.125) translate(0.000000,512.000000) scale(1.000000,-1.000000)" fill="#bebebe" stroke="none"><path d="M210 478 c-2 -2 -2 -2 0 -4 1 -2 3 -2 18 -2 15 0 17 0 19 2 1 2 1 2
0 4 -2 2 -4 2 -19 2 -15 0 -17 0 -18 -2z"/><path d="M258 478 c-2 -2 -2 -2 0 -4 1 -2 3 -2 18 -2 15 0 17 0 19 2 1 2 1 2
0 4 -2 2 -4 2 -19 2 -15 0 -17 0 -18 -2z"/><path d="M178 470 c-1 -1 -2 -3 -2 -4 0 -2 0 -2 -6 -2 -7 0 -10 -2 -10 -6 0
-2 0 -2 -6 -2 -7 0 -10 -2 -10 -6 0 -2 -1 -2 -6 -2 l-6 0 -6 -6 c-4 -3 -6 -7
-6 -8 0 -2 -1 -2 -6 -2 -9 0 -10 -1 -10 -10 0 -6 0 -6 -2 -6 -3 0 -6 -3 -6 -6
0 -1 -1 -2 -2 -2 -1 0 -6 -4 -12 -10 l-10 -10 0 -6 c0 -6 0 -6 -2 -6 -5 0 -6
-3 -6 -14 0 -10 0 -10 -2 -10 -6 0 -6 0 -6 -44 l0 -41 4 -3 c4 -3 4 -4 4 -8 0
-5 2 -8 6 -8 2 0 2 0 2 -6 0 -7 0 -7 4 -10 4 -3 4 -4 4 -8 l0 -4 22 -22 c22
-22 22 -22 26 -22 4 0 5 0 12 -8 l8 -8 8 0 c7 0 9 0 10 -2 3 -3 3 -6 0 -6 -2
0 -4 -1 -5 -2 -1 -2 -1 -2 1 -4 2 -2 2 -2 4 -1 1 1 2 3 2 5 0 2 0 2 6 2 8 0
10 -2 10 -8 0 -4 0 -5 8 -12 8 -7 8 -8 8 -12 0 -4 1 -5 6 -10 3 -4 7 -6 8 -6
2 0 2 -1 2 -6 0 -7 2 -10 6 -10 2 0 2 0 2 -6 0 -7 0 -7 4 -10 4 -3 4 -4 4 -8
0 -4 0 -5 8 -12 8 -7 8 -8 8 -12 0 -3 1 -5 2 -6 2 -2 2 -2 8 4 l6 6 0 6 c0 6
0 6 2 6 4 0 6 3 6 10 0 5 0 6 2 6 1 0 5 2 8 6 l6 6 0 6 c0 6 0 6 2 6 4 0 6 3
6 10 0 6 0 6 2 6 4 0 6 3 6 8 0 4 0 5 8 12 8 7 8 8 8 12 0 6 2 8 10 8 6 0 6 0
6 -2 0 -2 1 -4 2 -5 2 -1 2 -1 4 1 2 2 2 2 1 4 -1 1 -3 2 -5 2 -1 0 -2 1 -2 2
0 4 3 6 8 6 4 0 5 0 8 -4 4 -4 4 -4 6 -3 1 2 2 4 2 7 0 6 10 16 16 16 4 0 5 0
26 22 l22 22 0 4 c0 4 0 5 4 8 4 3 4 3 4 10 0 6 0 6 2 6 4 0 6 3 6 8 0 4 0 5
4 8 l4 3 0 17 c0 15 0 17 2 19 3 2 6 -1 6 -7 0 -6 3 -9 6 -6 2 1 2 3 2 18 0
15 0 17 -2 19 -3 2 -6 -1 -6 -7 0 -6 -3 -9 -6 -6 -2 1 -2 3 -2 22 l0 21 -4 3
c-4 3 -4 4 -4 8 0 4 0 5 -4 8 -4 3 -4 4 -4 8 0 4 0 4 -10 14 -6 6 -11 10 -12
10 -2 0 -2 1 -2 6 l0 6 -6 6 -6 6 -6 0 c-5 0 -6 0 -6 2 0 1 -2 5 -6 8 l-6 6
-6 0 c-6 0 -6 0 -6 2 0 4 -3 6 -10 6 -6 0 -6 0 -6 2 0 4 -3 6 -10 6 -6 0 -6 0
-6 2 0 5 -3 6 -12 6 -7 0 -9 0 -10 -2 -2 -2 -2 -2 0 -4 1 -2 3 -2 12 -2 10 0
10 0 10 -2 0 -4 3 -6 10 -6 6 0 6 0 6 -2 0 -4 3 -6 10 -6 5 0 6 0 6 -2 0 -1 2
-5 6 -8 l6 -6 6 0 c5 0 6 0 6 -2 0 -3 19 -22 22 -22 2 0 2 -1 2 -6 l0 -6 8 -8
c8 -7 8 -8 8 -12 0 -4 0 -5 4 -8 4 -3 4 -4 4 -8 0 -4 0 -5 4 -8 l4 -3 0 -37 0
-37 -4 -3 -4 -3 0 -11 c0 -9 0 -10 -2 -10 -1 0 -5 -2 -8 -6 -5 -5 -6 -6 -6
-10 0 -4 0 -5 -22 -26 l-22 -22 -4 0 c-4 0 -5 0 -8 -4 -3 -4 -4 -4 -8 -4 -4 0
-5 0 -8 -4 -3 -4 -4 -4 -8 -4 -4 0 -5 0 -8 -4 l-3 -4 -9 0 -8 0 -6 -6 c-6 -5
-6 -6 -6 -10 0 -4 0 -5 -4 -8 -4 -3 -4 -3 -4 -10 0 -6 0 -6 -2 -6 -4 0 -6 -3
-6 -10 0 -5 0 -6 -2 -6 -1 0 -5 -2 -8 -6 l-6 -6 0 -6 c0 -6 0 -6 -2 -6 -2 0
-4 -1 -6 -4 -2 -3 -4 -4 -6 -4 -2 0 -2 0 -2 6 l0 6 -6 6 c-3 4 -7 6 -8 6 -2 0
-2 1 -2 6 0 7 -2 10 -6 10 -2 0 -2 0 -2 6 0 7 -2 10 -6 10 -2 0 -2 0 -2 6 0 7
-2 10 -6 10 -1 0 -2 1 -2 2 0 1 -2 5 -6 8 l-6 6 -8 0 -9 0 -3 4 c-3 4 -4 4 -8
4 -4 0 -5 0 -8 4 -3 4 -4 4 -8 4 -4 0 -5 0 -12 8 -7 8 -8 8 -12 8 -4 0 -4 0
-22 18 -17 17 -18 18 -18 22 0 4 -1 5 -6 10 -3 4 -7 6 -8 6 -2 0 -2 1 -2 10
l0 11 -4 3 -4 3 0 39 0 38 2 0 c5 0 6 3 6 14 0 9 0 10 2 10 1 0 6 4 12 10 l10
10 0 6 c0 6 0 6 2 6 3 0 6 3 6 6 0 1 1 2 2 2 3 0 14 11 14 14 0 2 1 2 6 2 l6
0 6 6 c4 3 6 7 6 8 0 2 1 2 6 2 7 0 10 2 10 6 0 2 0 2 6 2 7 0 10 2 10 6 0 2
0 2 10 2 9 0 11 0 13 2 1 2 1 2 0 4 -3 3 -19 3 -21 0z m30 -328 c0 -2 -1 -4
-2 -5 -2 -1 -2 -1 -4 1 -2 2 -2 2 -1 4 3 3 7 3 7 0z m8 -16 c0 -2 -1 -4 -2 -5
-2 -1 -2 -1 -4 1 -2 2 -2 2 -1 4 3 3 7 3 7 0z m78 -8 c3 -2 3 -6 0 -6 -3 0 -6
3 -6 6 0 3 3 3 6 0z m-70 -8 c0 -3 -3 -6 -6 -6 -3 0 -3 3 0 6 2 3 6 3 6 0z
m62 -8 c3 -2 3 -6 0 -6 -3 0 -6 3 -6 6 0 3 3 3 6 0z m-54 -8 c0 -3 -3 -6 -6
-6 -3 0 -3 3 0 6 2 3 6 3 6 0z m38 -16 c3 -2 3 -6 0 -6 -3 0 -6 3 -6 6 0 3 3
3 6 0z m-22 -10 l0 -4 6 0 c7 0 10 -2 10 -6 0 -2 0 -2 -6 -2 -7 0 -10 2 -10 6
0 1 -1 2 -2 2 -2 0 -4 1 -4 2 -2 2 -2 2 0 4 3 4 6 3 6 -2z"/><path d="M170 422 c-1 -1 -2 -3 -2 -4 0 -1 -1 -2 -2 -2 -3 0 -6 -3 -6 -6 0 -1
-1 -2 -2 -2 -4 0 -6 -3 -6 -10 0 -6 0 -6 -2 -6 -5 0 -6 -3 -6 -16 0 -12 0 -13
2 -15 2 -1 2 -1 6 3 4 4 4 4 6 3 1 -2 2 -4 2 -7 0 -4 0 -5 -4 -8 -4 -3 -4 -4
-4 -8 0 -5 2 -8 6 -8 2 0 2 0 2 -6 0 -7 2 -10 6 -10 1 0 2 -1 2 -2 0 -3 3 -6
6 -6 1 0 2 -1 2 -2 0 -2 1 -4 4 -6 4 -3 4 -4 4 -8 0 -5 2 -8 6 -8 1 0 2 -1 2
-2 0 -3 3 -6 6 -6 1 0 2 -1 2 -2 0 -2 1 -4 4 -6 4 -3 4 -4 4 -8 0 -5 2 -8 6
-8 1 0 2 -1 2 -2 0 -3 3 -6 6 -6 1 0 2 -1 2 -2 0 -4 3 -6 10 -6 8 0 8 -3 2 -8
-4 -4 -4 -4 -3 -6 2 -1 4 -2 7 -2 3 0 5 -1 7 -2 1 -2 1 -2 -3 -6 -4 -4 -4 -4
-3 -6 2 -1 4 -2 7 -2 5 0 8 -2 8 -6 0 -1 -1 -2 -2 -2 -2 0 -4 -1 -5 -2 -1 -2
-1 -2 1 -4 2 -2 2 -2 4 -1 1 1 2 3 2 5 0 1 1 2 2 2 4 0 6 3 6 8 0 4 0 5 4 8 4
3 4 4 4 8 0 4 0 5 -4 8 -4 4 -4 4 -3 6 2 1 4 2 7 2 4 0 5 0 10 6 4 3 6 7 6 8
0 1 1 2 2 2 3 0 6 3 6 6 0 1 1 2 2 2 4 0 6 3 6 8 0 4 0 5 4 8 3 2 4 4 4 6 0 1
1 2 2 2 2 0 4 1 5 2 1 2 1 2 0 4 -1 1 -3 2 -5 2 -2 0 -2 0 -2 4 l0 4 10 0 c13
0 14 1 14 10 0 6 0 6 2 6 3 0 6 3 6 6 0 1 1 2 2 2 5 0 6 3 6 14 0 10 0 10 2
10 5 0 6 2 6 20 0 19 0 20 -8 20 -5 0 -8 2 -8 6 0 1 1 2 2 2 2 0 4 1 5 2 1 2
1 2 0 4 -1 1 -3 2 -5 2 -1 0 -2 1 -2 2 0 3 -3 6 -6 6 -1 0 -2 1 -2 2 0 4 -3 6
-8 6 -4 0 -5 0 -8 -4 l-4 -4 -4 4 -3 4 -13 0 c-14 0 -16 -1 -16 -6 0 -2 0 -2
-6 -2 -8 0 -10 -2 -10 -8 0 -4 -1 -5 -6 -10 -6 -6 -6 -6 -8 -4 -1 1 -2 3 -2 6
0 5 -2 8 -6 8 -1 0 -2 1 -2 2 0 3 -3 6 -6 6 -1 0 -2 1 -2 2 0 4 -3 6 -8 6 -4
0 -5 0 -8 -4 l-4 -4 -4 4 c-3 4 -4 4 -8 4 -4 0 -5 0 -8 -4 l-4 -4 -4 4 c-3 4
-4 4 -8 4 -3 0 -5 -1 -6 -2z m5 -8 c1 -2 1 -2 0 -4 -1 -1 -3 -2 -5 -2 -1 0 -2
-1 -2 -2 0 -2 -1 -4 -2 -4 -2 -2 -2 -2 -4 0 -4 3 -3 6 2 6 l4 0 0 4 c0 5 3 6
7 2z m57 -2 l0 -4 4 0 c3 0 4 0 4 -2 0 -3 -3 -6 -6 -6 -4 0 -3 -4 2 -8 l5 -4
-5 -4 -4 -4 4 -4 c4 -3 4 -4 4 -8 0 -4 1 -5 6 -10 6 -6 6 -6 8 -4 1 1 2 3 2 6
0 6 2 8 8 8 3 0 5 1 7 2 1 2 1 2 -3 6 l-4 4 4 4 c4 3 4 4 4 8 0 4 1 5 2 7 2 1
2 1 6 -3 4 -4 4 -4 6 -3 3 3 3 15 0 15 -3 0 -6 3 -6 6 0 1 1 2 2 2 3 0 6 -3 6
-6 0 -1 1 -2 2 -2 2 0 4 -1 6 -4 3 -4 4 -4 8 -4 4 0 5 0 8 4 4 4 4 4 6 3 1 -2
2 -4 2 -7 0 -4 0 -4 12 -16 l12 -12 0 -6 c0 -5 0 -6 2 -6 3 0 6 -3 6 -6 0 -1
-1 -2 -2 -2 -3 0 -6 3 -6 6 0 4 -4 2 -10 -4 l-6 -6 4 -4 c2 -2 4 -4 4 -6 0 -1
1 -2 2 -2 3 0 6 -3 6 -6 0 -2 0 -2 -4 -2 l-4 0 0 -4 c0 -5 -3 -6 -6 -2 -2 2
-2 2 0 4 0 1 2 2 4 2 2 0 2 0 2 4 l0 4 -6 0 -6 0 -6 -6 -6 -6 4 -4 5 -4 -5 -4
c-2 -2 -4 -4 -4 -6 0 -2 0 -2 -6 -2 -8 0 -10 -2 -10 -8 0 -4 0 -5 -4 -8 -4 -3
-4 -3 -4 -10 0 -6 0 -6 2 -6 3 0 6 -3 6 -6 0 -2 0 -2 -4 -2 l-4 0 0 -4 c0 -5
-3 -6 -6 -2 -2 2 -2 2 0 4 0 1 2 2 4 2 2 0 2 0 2 4 l0 4 -6 0 -6 0 -6 -6 -6
-6 4 -4 c4 -4 4 -4 3 -6 -2 -1 -4 -2 -7 -2 -4 0 -5 0 -8 -4 -3 -4 -3 -4 -10
-4 -6 0 -6 0 -6 2 0 4 -3 6 -10 6 l-6 0 0 4 0 4 -4 0 c-3 0 -4 0 -4 2 0 3 3 6
6 6 4 0 3 4 -2 8 l-4 3 0 9 c0 11 -1 12 -10 12 l-6 0 0 -4 c0 -4 0 -4 2 -4 2
0 4 -1 5 -2 1 -2 1 -2 0 -4 -4 -4 -7 -3 -7 2 l0 4 -4 0 c-3 0 -4 0 -4 2 0 3 3
6 6 6 4 0 3 4 -2 8 l-4 3 0 9 c0 11 -1 12 -10 12 l-6 0 0 -4 c0 -4 0 -4 2 -4
2 0 4 -1 5 -2 1 -2 1 -2 0 -4 -4 -4 -7 -3 -7 2 l0 4 -4 0 c-3 0 -4 0 -4 2 0 3
3 6 6 6 1 0 2 1 2 2 0 2 2 4 4 6 4 4 4 4 3 6 -3 3 -15 3 -15 0 0 -3 -3 -6 -6
-6 -1 0 -2 1 -2 2 0 3 3 6 6 6 1 0 2 1 2 2 0 2 2 4 4 6 l5 4 -5 4 -4 4 0 12
c0 15 1 16 8 16 6 0 8 2 8 8 0 3 1 5 2 7 2 1 2 1 6 -3 5 -6 11 -6 16 0 l4 5 4
-5 c3 -4 4 -4 10 -4 l6 0 0 4 c0 4 0 4 -2 4 -2 0 -4 1 -4 2 -2 2 -2 2 0 4 3 4
6 3 6 -2z m104 0 l0 -4 4 0 4 0 0 -4 c0 -3 0 -4 -2 -4 -3 0 -6 3 -6 6 0 1 -1
2 -2 2 -2 0 -4 1 -4 2 -2 2 -2 2 0 4 3 4 6 3 6 -2z m-177 -22 c1 -2 1 -2 -1
-4 -2 -2 -2 -2 -4 -1 -1 1 -2 3 -2 5 0 3 4 3 7 0z m96 -8 c1 -2 1 -2 -1 -4
l-2 -2 -2 2 c-2 2 -2 2 -1 4 1 1 3 2 3 2 0 0 2 -1 3 -2z m57 -90 c0 -5 -3 -6
-6 -2 -2 2 -2 2 0 4 3 4 6 3 6 -2z"/><path d="M224 260 l0 -4 6 0 c8 0 12 3 9 6 -2 2 -4 2 -9 2 l-6 0 0 -4z"/></g>
  <g transform="scale(0.125 0.125) translate(0.000000,512.000000) scale(1.000000,-1.000000)" fill="#000000" stroke="none"><path d="M209 478 c-1 -2 -1 -2 1 -4 l2 -2 2 2 c2 2 2 2 1 4 -1 1 -3 2 -3 2 0
0 -2 -1 -3 -2z"/><path d="M234 478 c-3 -3 0 -6 6 -6 3 0 5 1 7 2 2 3 -1 6 -7 6 -3 0 -5 -1 -6
-2z"/><path d="M258 478 c-3 -3 0 -6 6 -6 6 0 9 3 7 6 -2 1 -4 2 -7 2 -3 0 -5 -1 -6
-2z"/><path d="M289 478 c-1 -2 -1 -2 1 -4 l2 -2 2 2 c2 2 2 2 1 4 -1 1 -3 2 -3 2 0
0 -2 -1 -3 -2z"/><path d="M178 470 c-1 -1 -2 -3 -2 -4 0 -1 -1 -2 -2 -2 -2 0 -4 -1 -5 -2 -1
-2 -1 -2 1 -4 2 -2 2 -2 4 -1 1 1 2 3 2 5 0 1 1 2 2 2 2 0 4 1 5 2 1 2 1 2 0
4 -3 2 -3 2 -5 0z"/><path d="M193 470 c-1 -2 -1 -2 1 -4 l2 -2 2 2 c2 2 2 2 1 4 -1 1 -3 2 -3 2 0
0 -2 -1 -3 -2z"/><path d="M305 470 c-1 -2 -1 -2 1 -4 l2 -2 2 2 c2 2 2 2 1 4 -1 1 -3 2 -3 2 0
0 -2 -1 -3 -2z"/><path d="M322 470 c-2 -2 -2 -2 0 -4 0 -1 2 -2 4 -2 1 0 2 -1 2 -2 0 -2 1 -4
2 -5 2 -1 2 -1 4 1 2 2 2 2 1 4 -1 1 -3 2 -5 2 -1 0 -2 1 -2 2 0 2 -3 6 -4 6
0 0 -2 -1 -2 -2z"/><path d="M153 454 c-1 -2 -1 -2 1 -4 l2 -2 2 2 c2 2 2 2 1 4 -1 1 -3 2 -3 2 0
0 -2 -1 -3 -2z"/><path d="M345 454 c-1 -2 -1 -2 1 -4 l2 -2 2 2 c2 2 2 2 1 4 -1 1 -3 2 -3 2 0
0 -2 -1 -3 -2z"/><path d="M130 446 c-3 -2 -3 -10 0 -12 2 -2 2 -2 8 4 6 6 6 6 4 8 -2 3 -10 3
-12 0z"/><path d="M362 446 c-2 -2 -2 -2 0 -4 0 -1 2 -2 4 -2 1 0 2 -1 2 -2 0 -2 1 -4
2 -5 2 -1 2 -1 4 1 2 2 2 2 1 4 -1 1 -3 2 -5 2 -1 0 -2 1 -2 2 0 2 -3 6 -4 6
0 0 -2 -1 -2 -2z"/><path d="M106 430 c-2 -1 -2 -3 -2 -8 0 -6 0 -6 -2 -6 -2 0 -4 -1 -5 -2 -1 -2
-1 -2 1 -4 2 -2 2 -2 4 -1 1 1 2 3 2 5 0 1 1 2 2 2 1 0 5 3 8 6 6 6 6 6 4 8
-2 3 -10 3 -12 0z"/><path d="M386 430 c-2 -2 -2 -2 8 -12 10 -10 10 -10 12 -8 1 1 2 3 2 6 0 4 0
5 -6 10 -5 6 -6 6 -10 6 -3 0 -5 -1 -6 -2z"/><path d="M170 422 c-1 -1 -2 -3 -2 -4 0 -1 -1 -2 -2 -2 -3 0 -6 -3 -6 -6 0 -1
-1 -2 -2 -2 -4 0 -6 -3 -6 -10 0 -6 0 -6 -2 -6 -2 0 -4 -1 -4 -2 -2 -2 -2 -2
0 -4 0 -1 2 -2 4 -2 2 0 2 0 2 -8 0 -8 0 -8 -2 -8 -2 0 -4 -1 -5 -2 -1 -2 -1
-2 1 -4 2 -2 2 -2 4 -1 1 1 2 3 2 5 0 1 1 2 2 2 5 0 6 -3 6 -14 0 -10 0 -10
-2 -10 -2 0 -4 -1 -5 -2 -1 -2 -1 -2 1 -4 2 -2 2 -2 4 -1 1 1 2 3 2 5 0 2 0 2
4 2 l4 0 0 -8 c0 -8 0 -8 -2 -8 -2 0 -4 -1 -4 -2 -2 -2 -2 -2 0 -4 0 -1 2 -2
4 -2 1 0 2 -1 2 -2 0 -2 1 -4 2 -4 2 -2 2 -2 4 0 1 0 2 2 2 4 0 1 1 2 2 2 5 0
6 -3 6 -16 0 -14 1 -16 6 -16 1 0 2 -1 2 -2 0 -2 1 -4 2 -4 2 -2 2 -2 4 0 1 0
2 2 2 4 0 1 1 2 2 2 5 0 6 -3 6 -16 0 -14 1 -16 6 -16 1 0 2 -1 2 -2 0 -2 1
-4 2 -4 2 -2 2 -2 4 0 1 0 2 2 2 4 0 2 0 2 6 2 8 0 12 3 9 6 -2 2 -4 2 -9 2
-6 0 -6 0 -6 2 0 2 -1 4 -4 6 l-4 3 0 9 c0 11 -1 12 -10 12 -6 0 -6 0 -6 2 0
2 -1 4 -4 6 l-4 3 0 9 c0 11 -1 12 -10 12 -8 0 -8 3 -2 8 4 4 4 4 3 6 -2 2 -3
2 -9 2 -8 0 -8 2 -2 8 l5 4 -5 4 -4 4 0 12 c0 15 1 16 8 16 6 0 8 2 8 8 0 3 1
5 2 7 2 1 2 1 6 -3 5 -6 11 -6 16 0 l4 5 4 -5 c3 -4 4 -4 10 -4 6 0 6 0 6 -2
0 -2 2 -4 4 -6 l5 -4 -5 -4 -4 -4 4 -4 c4 -3 4 -4 4 -8 0 -4 1 -5 6 -10 6 -6
6 -6 8 -4 1 1 2 3 2 6 0 6 2 8 8 8 3 0 5 1 7 2 1 2 1 2 -3 6 l-4 4 4 4 c4 3 4
4 4 8 0 4 1 5 2 7 2 1 2 1 6 -3 4 -4 4 -4 6 -3 2 2 2 3 2 9 0 6 0 6 2 6 2 0 4
-1 6 -4 3 -4 4 -4 8 -4 4 0 5 0 8 4 4 4 4 4 6 3 1 -2 2 -4 2 -7 0 -4 0 -4 12
-16 l12 -12 0 -6 c0 -5 0 -6 -2 -6 -1 0 -5 -3 -8 -6 l-6 -6 4 -4 c6 -5 6 -8
-2 -8 l-6 0 -6 -6 -6 -6 4 -4 5 -4 -5 -4 c-2 -2 -4 -4 -4 -6 0 -2 0 -2 -6 -2
-8 0 -10 -2 -10 -8 0 -4 0 -5 -4 -8 -4 -3 -4 -3 -4 -10 l0 -6 -6 0 -6 0 -6 -6
-6 -6 4 -4 c4 -4 4 -4 3 -6 -2 -1 -4 -2 -7 -2 -4 0 -5 0 -8 -4 -3 -4 -3 -4
-10 -4 -6 0 -6 0 -6 2 0 2 -1 4 -2 5 -2 1 -2 1 -4 -1 -2 -2 -2 -2 -1 -4 1 -1
3 -2 5 -2 2 0 2 0 2 -6 0 -6 0 -7 4 -10 l5 -4 -5 -4 c-4 -4 -4 -4 -3 -6 2 -2
3 -2 9 -2 l6 0 0 -4 c0 -4 0 -4 -2 -4 -2 0 -4 -1 -5 -2 -1 -2 -1 -2 1 -4 2 -2
2 -2 4 -1 1 1 2 3 2 5 0 1 1 2 2 2 2 0 4 1 5 2 1 2 1 2 0 4 -1 1 -3 2 -5 2 -1
0 -2 1 -2 2 0 4 3 6 8 6 3 0 5 1 7 2 1 2 1 2 -3 6 -4 3 -4 4 -4 8 0 6 2 8 8 8
7 0 8 2 8 12 0 7 0 9 2 10 3 3 6 3 6 0 0 -2 1 -4 2 -4 2 -2 2 -2 4 0 1 0 2 2
2 4 0 1 1 2 2 2 2 0 4 1 5 2 1 2 1 2 0 4 -1 1 -3 2 -5 2 -1 0 -2 1 -2 2 0 4 3
6 8 6 5 0 8 2 8 6 0 1 1 2 2 2 2 0 4 1 5 2 1 2 1 2 0 4 -1 1 -3 2 -5 2 -2 0
-2 0 -2 4 l0 4 10 0 c10 0 11 0 13 2 1 2 1 2 -3 6 -4 3 -4 4 -4 8 0 5 2 8 6 8
1 0 2 -1 2 -2 0 -2 1 -4 2 -4 2 -2 2 -2 4 0 1 0 2 2 2 4 0 1 1 2 2 2 5 0 6 3
6 14 0 10 0 10 2 10 2 0 4 1 5 2 1 2 1 2 0 4 -1 1 -3 2 -5 2 -4 0 -3 4 2 8 4
3 4 4 4 8 0 4 0 5 -8 12 -8 8 -10 12 -6 12 2 0 4 1 5 2 1 2 1 2 -1 4 -2 2 -2
2 -4 1 -1 -1 -2 -3 -2 -5 0 -4 -4 -2 -10 4 -6 6 -8 10 -4 10 2 0 4 1 5 2 1 2
1 2 -1 4 -2 2 -2 2 -4 1 -1 -1 -2 -3 -2 -5 0 -2 0 -2 -6 -2 -7 0 -7 0 -10 4
l-3 4 -13 0 c-14 0 -16 -1 -16 -6 0 -2 0 -2 -6 -2 -9 0 -10 -1 -10 -12 l0 -9
-4 -3 c-4 -3 -4 -4 -4 -8 0 -6 -3 -9 -6 -6 -2 1 -2 3 -2 14 0 14 -1 16 -6 16
-1 0 -2 1 -2 2 0 3 -3 6 -6 6 -1 0 -2 1 -2 2 0 2 -1 4 -2 5 -2 1 -2 1 -4 0 -1
-1 -2 -3 -2 -5 0 -2 0 -2 -6 -2 -7 0 -7 0 -10 4 -3 4 -4 4 -8 4 -4 0 -5 0 -8
-4 -3 -4 -3 -4 -10 -4 -6 0 -6 0 -6 2 0 2 -3 6 -4 6 0 0 -1 -1 -2 -2z m6 -8
c0 -3 -3 -6 -6 -6 -1 0 -2 -1 -2 -2 0 -2 -1 -4 -2 -4 -2 -2 -2 -2 -4 0 -4 3
-3 6 2 6 l4 0 0 4 0 4 4 0 c3 0 4 0 4 -2z m56 -2 l0 -4 4 0 c3 0 4 0 4 -2 0
-3 -3 -6 -6 -6 -2 0 -2 0 -2 4 0 3 0 4 -2 4 -3 0 -6 3 -6 6 0 2 0 2 4 2 l4 0
0 -4z m54 2 c3 -2 3 -6 0 -6 -3 0 -6 3 -6 6 0 3 3 3 6 0z m-127 -24 c1 -2 1
-2 0 -4 -4 -4 -7 -3 -7 2 0 5 3 6 7 2z m193 -34 c0 -3 0 -4 -2 -4 -3 0 -6 3
-6 6 0 2 0 2 4 2 l4 0 0 -4z m-10 -22 c1 -1 2 -2 2 -4 0 -2 0 -2 -4 -2 l-4 0
0 4 c0 5 3 6 6 2z m-166 -10 l0 -4 -4 0 -4 0 0 4 0 4 4 0 4 0 0 -4z m24 -32
l0 -4 -4 0 c-3 0 -4 0 -4 2 0 3 3 6 6 6 2 0 2 0 2 -4z m112 0 c0 -5 -3 -6 -6
-2 -2 2 -2 2 0 4 3 4 6 3 6 -2z m-16 -24 l0 -4 -4 0 -4 0 0 4 0 4 4 0 4 0 0
-4z m-72 -8 l0 -4 -4 0 c-3 0 -4 0 -4 2 0 3 3 6 6 6 2 0 2 0 2 -4z"/><path d="M90 398 c-1 -1 -2 -3 -2 -4 0 -2 0 -2 -6 -2 -8 0 -12 -3 -8 -6 4 -5
14 -2 14 4 0 1 1 2 2 2 2 0 4 1 5 2 1 2 1 2 0 4 -3 2 -3 2 -5 0z"/><path d="M410 398 c-2 -2 -2 -2 0 -4 0 -1 2 -2 4 -2 1 0 2 -1 2 -2 0 -6 10 -8
15 -4 3 3 -1 6 -9 6 -6 0 -6 0 -6 2 0 2 -3 6 -4 6 0 0 -2 -1 -2 -2z"/><path d="M65 374 c-1 -2 -1 -2 1 -4 l2 -2 2 2 c2 2 2 2 1 4 -1 1 -3 2 -3 2 0
0 -2 -1 -3 -2z"/><path d="M426 374 c-3 -3 0 -6 6 -6 6 0 9 3 7 6 -2 1 -4 2 -7 2 -3 0 -5 -1 -6
-2z"/><path d="M66 358 c-1 -1 -2 -3 -2 -4 0 -1 -1 -2 -2 -2 -2 0 -4 -1 -5 -2 -1 -2
-1 -2 1 -4 2 -2 2 -2 4 -1 1 1 2 3 2 5 0 1 1 2 2 2 2 0 4 1 5 2 1 2 1 2 0 4
-3 2 -3 2 -5 0z"/><path d="M434 358 c-3 -3 0 -6 6 -6 6 0 9 3 7 6 -2 1 -4 2 -7 2 -3 0 -5 -1 -6
-2z"/><path d="M58 326 c-3 -3 -3 -34 0 -36 2 -2 2 -2 4 0 3 2 3 34 0 36 -2 2 -2 2
-4 0z"/><path d="M442 326 c-3 -3 -3 -26 0 -29 2 -1 2 -1 6 3 4 4 4 4 6 3 1 -2 2 -4 2
-7 0 -6 3 -9 6 -6 2 1 2 3 2 18 0 15 0 17 -2 19 -3 2 -6 -1 -6 -7 0 -6 -3 -9
-6 -6 -1 1 -2 3 -2 6 0 7 -3 10 -6 6z"/><path d="M58 270 c-2 -2 -2 -2 4 -8 6 -6 6 -6 8 -4 3 2 3 10 0 12 -2 3 -10 3
-12 0z"/><path d="M434 270 c-3 -2 -3 -10 0 -12 2 -2 2 -2 8 4 6 6 6 6 4 8 -2 3 -10 3
-12 0z"/><path d="M74 246 c-2 -2 -2 -2 0 -4 0 -1 2 -2 4 -2 2 0 2 0 2 -10 0 -13 1 -14
10 -14 6 0 6 0 6 -2 0 -3 3 -6 6 -6 1 0 2 -1 2 -2 0 -3 3 -6 6 -6 1 0 2 -1 2
-2 0 -3 3 -6 6 -6 2 0 2 0 2 -6 0 -9 1 -10 14 -10 l10 0 0 -6 c0 -6 0 -7 2 -9
2 -1 2 -1 6 3 4 5 8 6 8 2 0 -4 3 -6 10 -6 6 0 6 0 6 -2 0 -2 1 -4 4 -6 4 -3
4 -4 4 -8 0 -4 0 -5 8 -12 8 -7 8 -8 8 -12 0 -4 1 -5 6 -10 3 -4 7 -6 8 -6 2
0 2 -1 2 -6 0 -7 2 -10 6 -10 2 0 2 0 2 -6 0 -7 0 -7 4 -10 4 -3 4 -4 4 -8 0
-4 0 -5 8 -12 8 -7 8 -8 8 -12 0 -3 1 -5 2 -6 2 -2 2 -2 8 4 l6 6 0 6 c0 6 0
6 2 6 4 0 6 3 6 10 0 5 0 6 2 6 1 0 5 2 8 6 l6 6 0 6 c0 6 0 6 2 6 4 0 6 3 6
10 0 6 0 6 2 6 4 0 6 3 6 8 0 4 0 5 8 12 8 7 8 8 8 12 0 4 0 5 4 8 3 2 4 4 4
6 0 2 0 2 6 2 7 0 10 2 10 6 0 1 1 2 2 2 4 0 6 -3 6 -8 0 -6 3 -9 6 -6 2 1 2
3 2 12 l0 10 10 0 c13 0 14 1 14 10 0 6 0 6 2 6 3 0 6 3 6 6 0 1 1 2 2 2 3 0
6 3 6 6 0 1 1 2 2 2 3 0 6 3 6 6 0 2 0 2 6 2 9 0 10 1 10 14 0 10 0 10 2 10 2
0 4 1 5 2 1 2 1 2 -1 4 -2 2 -2 2 -4 1 -1 -1 -2 -3 -2 -5 0 -1 -1 -2 -2 -2 -4
0 -6 -3 -6 -8 0 -4 0 -5 -4 -8 -3 -2 -4 -4 -4 -6 0 -1 -1 -2 -2 -2 -3 0 -6 -3
-6 -6 0 -1 -1 -2 -2 -2 -3 0 -6 -3 -6 -6 0 -1 -1 -2 -2 -2 -3 0 -6 -3 -6 -6 0
-1 -1 -2 -2 -2 -2 0 -4 -1 -6 -4 -3 -4 -4 -4 -8 -4 -5 0 -8 -2 -8 -6 0 -2 0
-2 -6 -2 -7 0 -10 -2 -10 -6 0 -2 0 -2 -6 -2 -7 0 -10 -2 -10 -6 0 -2 0 -2
-10 -2 -12 0 -14 -1 -14 -6 0 -1 -1 -2 -2 -2 -4 0 -6 -3 -6 -8 0 -4 0 -5 -4
-8 l-4 -4 4 -4 c4 -3 4 -4 4 -10 l0 -6 -4 0 c-4 0 -4 0 -4 2 0 2 -1 4 -2 5 -2
1 -2 1 -4 -1 -2 -2 -2 -2 -1 -4 1 -1 3 -2 5 -2 2 0 2 0 2 -8 0 -10 -2 -11 -8
-4 l-4 4 -6 -6 -6 -6 4 -4 c4 -3 4 -4 4 -10 l0 -6 -4 0 c-4 0 -4 0 -4 2 0 2
-1 4 -2 4 -2 2 -2 2 -4 0 -1 0 -2 -2 -2 -4 0 -1 -1 -2 -2 -2 -3 0 -6 -3 -6 -6
0 -1 -1 -2 -2 -2 -4 0 -6 3 -6 8 0 4 0 5 4 8 l4 4 -6 6 -6 6 -4 -4 c-6 -7 -8
-6 -8 4 0 8 0 8 2 8 2 0 4 1 5 2 1 2 1 2 -1 4 -2 2 -2 2 -4 1 -1 -1 -2 -3 -2
-5 0 -2 0 -2 -4 -2 l-4 0 0 8 c0 8 0 8 2 8 2 0 4 1 5 2 1 2 1 2 -1 4 -2 2 -2
2 -4 1 -1 -1 -2 -3 -2 -5 0 -1 -1 -2 -2 -2 -4 0 -6 3 -6 10 0 6 0 6 2 6 2 0 4
1 4 2 2 2 2 2 0 4 0 1 -2 2 -4 2 -1 0 -2 1 -2 2 0 3 -3 6 -6 6 -1 0 -2 1 -2 2
0 5 -3 6 -14 6 -10 0 -10 0 -10 2 0 4 -3 6 -10 6 -6 0 -6 0 -6 2 0 4 -3 6 -10
6 -5 0 -6 0 -6 2 0 1 -2 5 -6 8 l-6 6 -6 0 c-6 0 -6 0 -6 2 0 3 -3 6 -6 6 -1
0 -2 1 -2 2 0 3 -3 6 -6 6 -1 0 -2 1 -2 2 0 3 -3 6 -6 6 -1 0 -2 1 -2 2 0 2
-1 4 -4 6 -4 3 -4 4 -4 8 0 5 -2 8 -6 8 -1 0 -2 1 -2 2 0 2 -3 6 -4 6 0 0 -2
-1 -2 -2z m126 -98 l0 -4 4 0 4 0 0 -4 c0 -3 0 -4 -2 -4 -3 0 -6 3 -6 6 0 1
-1 2 -2 2 -2 0 -4 1 -4 2 -2 2 -2 2 0 4 3 4 6 3 6 -2z m111 2 c1 -2 1 -2 -1
-4 -2 -2 -2 -2 -4 -1 -3 3 -3 7 0 7 2 0 4 -1 5 -2z m-47 -86 l0 -8 -6 0 c-7 0
-10 2 -10 6 0 1 1 2 2 2 3 0 6 3 6 6 0 2 0 2 4 2 l4 0 0 -8z"/><path d="M161 150 c-1 -2 -1 -2 1 -4 l2 -2 2 2 c2 2 2 2 1 4 -1 1 -3 2 -3 2 0
0 -2 -1 -3 -2z"/><path d="M337 150 c-1 -2 -1 -2 1 -4 l2 -2 2 2 c2 2 2 2 1 4 -1 1 -3 2 -3 2 0
0 -2 -1 -3 -2z"/></g>
  <g transform="scale(0.125 0.125) translate(0.000000,512.000000) scale(1.000000,-1.000000)" fill="#ecebec" stroke="none"><path d="M209 478 c-1 -2 -1 -2 1 -4 l2 -2 2 2 c2 2 2 2 1 4 -1 1 -3 2 -3 2 0
0 -2 -1 -3 -2z"/><path d="M234 478 c-3 -3 0 -6 6 -6 3 0 5 1 7 2 2 3 -1 6 -7 6 -3 0 -5 -1 -6
-2z"/><path d="M258 478 c-3 -3 0 -6 6 -6 6 0 9 3 7 6 -2 1 -4 2 -7 2 -3 0 -5 -1 -6
-2z"/><path d="M289 478 c-1 -2 -1 -2 1 -4 l2 -2 2 2 c2 2 2 2 1 4 -1 1 -3 2 -3 2 0
0 -2 -1 -3 -2z"/><path d="M178 470 c-1 -1 -2 -3 -2 -4 0 -1 -1 -2 -2 -2 -2 0 -4 -1 -5 -2 -1
-2 -1 -2 1 -4 2 -2 2 -2 4 -1 1 1 2 3 2 5 0 1 1 2 2 2 2 0 4 1 5 2 1 2 1 2 0
4 -3 2 -3 2 -5 0z"/><path d="M193 470 c-1 -2 -1 -2 1 -4 l2 -2 2 2 c2 2 2 2 1 4 -1 1 -3 2 -3 2 0
0 -2 -1 -3 -2z"/><path d="M305 470 c-1 -2 -1 -2 1 -4 l2 -2 2 2 c2 2 2 2 1 4 -1 1 -3 2 -3 2 0
0 -2 -1 -3 -2z"/><path d="M322 470 c-2 -2 -2 -2 0 -4 0 -1 2 -2 4 -2 1 0 2 -1 2 -2 0 -2 1 -4
2 -5 2 -1 2 -1 4 1 2 2 2 2 1 4 -1 1 -3 2 -5 2 -1 0 -2 1 -2 2 0 2 -3 6 -4 6
0 0 -2 -1 -2 -2z"/><path d="M153 454 c-1 -2 -1 -2 1 -4 l2 -2 2 2 c2 2 2 2 1 4 -1 1 -3 2 -3 2 0
0 -2 -1 -3 -2z"/><path d="M345 454 c-1 -2 -1 -2 1 -4 l2 -2 2 2 c2 2 2 2 1 4 -1 1 -3 2 -3 2 0
0 -2 -1 -3 -2z"/><path d="M130 446 c-3 -2 -3 -10 0 -12 2 -2 2 -2 8 4 6 6 6 6 4 8 -2 3 -10 3
-12 0z"/><path d="M362 446 c-2 -2 -2 -2 0 -4 0 -1 2 -2 4 -2 1 0 2 -1 2 -2 0 -2 1 -4
2 -5 2 -1 2 -1 4 1 2 2 2 2 1 4 -1 1 -3 2 -5 2 -1 0 -2 1 -2 2 0 2 -3 6 -4 6
0 0 -2 -1 -2 -2z"/><path d="M106 430 c-2 -1 -2 -3 -2 -8 0 -6 0 -6 -2 -6 -2 0 -4 -1 -5 -2 -1 -2
-1 -2 1 -4 2 -2 2 -2 4 -1 1 1 2 3 2 5 0 1 1 2 2 2 1 0 5 3 8 6 6 6 6 6 4 8
-2 3 -10 3 -12 0z"/><path d="M386 430 c-2 -2 -2 -2 8 -12 10 -10 10 -10 12 -8 1 1 2 3 2 6 0 4 0
5 -6 10 -5 6 -6 6 -10 6 -3 0 -5 -1 -6 -2z"/><path d="M170 422 c-1 -1 -2 -3 -2 -4 0 -1 -1 -2 -2 -2 -3 0 -6 -3 -6 -6 0 -1
-1 -2 -2 -2 -4 0 -6 -3 -6 -10 0 -6 0 -6 -2 -6 -2 0 -4 -1 -4 -2 -2 -2 -2 -2
0 -4 0 -1 2 -2 4 -2 2 0 2 0 2 -8 0 -8 0 -8 -2 -8 -2 0 -4 -1 -5 -2 -1 -2 -1
-2 1 -4 2 -2 2 -2 4 -1 1 1 2 3 2 5 0 4 4 3 8 -2 2 -3 4 -4 6 -4 1 0 2 -1 2
-2 0 -2 1 -4 2 -5 2 -1 2 -1 4 1 2 2 2 2 1 4 -1 1 -3 2 -5 2 -2 0 -2 0 -2 10
0 13 -1 14 -10 14 l-6 0 0 4 c0 4 0 4 2 4 4 0 6 3 6 10 0 6 0 6 2 6 3 0 6 3 6
6 0 2 1 2 4 2 l4 0 0 -6 c0 -6 0 -7 -4 -10 -4 -4 -4 -4 -3 -6 2 -1 4 -2 7 -2
7 0 8 2 8 12 0 9 -1 12 -6 12 -1 0 -2 1 -2 2 0 2 -3 6 -4 6 0 0 -1 -1 -2 -2z"/><path d="M226 422 c-1 -1 -2 -3 -2 -4 0 -1 -1 -2 -2 -2 -6 0 -8 -10 -4 -14 3
-4 6 0 6 8 l0 6 4 0 c4 0 4 0 4 -2 0 -3 3 -6 6 -6 2 0 2 0 2 -6 0 -8 3 -12 6
-8 5 4 2 14 -4 14 -1 0 -2 1 -2 2 0 3 -3 6 -6 6 -1 0 -2 1 -2 2 0 2 -3 6 -4 6
0 0 -1 -1 -2 -2z"/><path d="M282 422 c-1 -1 -2 -3 -2 -4 0 -2 0 -2 -6 -2 -9 0 -10 -1 -10 -12 l0
-8 -4 -4 c-4 -4 -4 -4 -3 -6 2 -1 4 -2 7 -2 7 0 8 2 8 12 0 9 1 12 6 12 2 0 2
0 2 -6 0 -8 3 -12 6 -8 5 4 2 14 -4 14 -2 0 -2 1 -2 4 l0 4 10 0 c9 0 11 0 13
2 1 2 1 2 0 4 -3 3 -19 3 -21 0z"/><path d="M330 422 c-1 -1 -2 -3 -2 -4 0 -1 -1 -2 -2 -2 -5 0 -6 -3 -6 -12 l0
-8 6 -6 c3 -4 7 -6 8 -6 1 0 2 -1 2 -2 0 -2 1 -4 2 -4 2 -2 2 -2 4 0 1 0 2 2
2 4 0 2 0 2 4 2 l4 0 0 -8 c0 -8 0 -8 -2 -8 -3 0 -6 -3 -6 -6 0 -1 -1 -2 -2
-2 -3 0 -6 -3 -6 -6 0 -1 -1 -2 -2 -2 -2 0 -4 -1 -4 -2 -2 -2 -2 -2 0 -4 0 -1
2 -2 4 -2 1 0 2 -1 2 -2 0 -2 1 -4 4 -6 5 -4 6 -8 2 -8 -2 0 -4 -1 -5 -2 -1
-2 -1 -2 1 -4 2 -2 2 -2 4 -1 1 1 2 3 2 5 0 1 1 2 2 2 5 0 6 3 6 14 0 10 0 10
2 10 2 0 4 1 5 2 1 2 1 2 0 4 -1 1 -3 2 -5 2 -2 0 -2 0 -2 4 0 4 0 4 2 4 4 0
6 3 6 8 0 5 -2 8 -6 8 -1 0 -2 1 -2 2 0 2 -1 4 -2 5 -2 1 -2 1 -4 0 -1 -1 -2
-3 -2 -5 0 -2 0 -2 -4 -2 l-4 0 0 6 c0 7 0 7 -4 10 -4 3 -4 3 -4 10 0 6 0 6 2
6 2 0 4 1 5 2 1 2 1 2 0 4 -3 2 -3 2 -5 0z m22 -66 l0 -4 -4 0 c-3 0 -4 0 -4
-2 0 -3 -3 -6 -6 -6 -2 0 -2 0 -2 4 l0 4 4 0 4 0 0 4 0 4 4 0 4 0 0 -4z"/><path d="M194 406 c-3 -3 0 -6 6 -6 3 0 5 1 7 2 2 3 -1 6 -7 6 -3 0 -5 -1 -6
-2z"/><path d="M298 406 c-3 -3 0 -6 6 -6 6 0 9 3 7 6 -2 1 -4 2 -7 2 -3 0 -5 -1 -6
-2z"/><path d="M345 406 c-1 -2 -1 -2 1 -4 l2 -2 2 2 c2 2 2 2 1 4 -1 1 -3 2 -3 2 0
0 -2 -1 -3 -2z"/><path d="M90 398 c-1 -1 -2 -3 -2 -4 0 -2 0 -2 -6 -2 -8 0 -12 -3 -8 -6 4 -5
14 -2 14 4 0 1 1 2 2 2 2 0 4 1 5 2 1 2 1 2 0 4 -3 2 -3 2 -5 0z"/><path d="M410 398 c-2 -2 -2 -2 0 -4 0 -1 2 -2 4 -2 1 0 2 -1 2 -2 0 -6 10 -8
15 -4 3 3 -1 6 -9 6 -6 0 -6 0 -6 2 0 2 -3 6 -4 6 0 0 -2 -1 -2 -2z"/><path d="M234 382 c-2 -2 -2 -2 0 -4 0 -1 2 -2 4 -2 2 0 2 0 2 -6 0 -7 2 -10
6 -10 1 0 2 -1 2 -2 0 -2 1 -4 2 -5 2 -1 2 -1 4 1 2 2 2 2 1 4 -1 1 -3 2 -5 2
-2 0 -2 0 -2 6 0 7 -2 10 -6 10 -1 0 -2 1 -2 2 0 2 -3 6 -4 6 0 0 -2 -1 -2 -2z"/><path d="M65 374 c-1 -2 -1 -2 1 -4 l2 -2 2 2 c2 2 2 2 1 4 -1 1 -3 2 -3 2 0
0 -2 -1 -3 -2z"/><path d="M265 374 c-1 -2 -1 -2 1 -4 l2 -2 2 2 c2 2 2 2 1 4 -1 1 -3 2 -3 2 0
0 -2 -1 -3 -2z"/><path d="M426 374 c-3 -3 0 -6 6 -6 6 0 9 3 7 6 -2 1 -4 2 -7 2 -3 0 -5 -1 -6
-2z"/><path d="M66 358 c-1 -1 -2 -3 -2 -4 0 -1 -1 -2 -2 -2 -2 0 -4 -1 -5 -2 -1 -2
-1 -2 1 -4 2 -2 2 -2 4 -1 1 1 2 3 2 5 0 1 1 2 2 2 2 0 4 1 5 2 1 2 1 2 0 4
-3 2 -3 2 -5 0z"/><path d="M434 358 c-3 -3 0 -6 6 -6 6 0 9 3 7 6 -2 1 -4 2 -7 2 -3 0 -5 -1 -6
-2z"/><path d="M153 342 c-1 -2 -1 -2 1 -4 l2 -2 2 2 c2 2 2 2 1 4 -1 1 -3 2 -3 2 0
0 -2 -1 -3 -2z"/><path d="M170 342 c-3 -3 0 -6 6 -6 3 0 5 1 7 2 2 3 -1 6 -7 6 -3 0 -5 -1 -6
-2z"/><path d="M318 330 l-6 -6 4 -4 c4 -3 4 -4 4 -8 0 -6 2 -8 8 -8 3 0 5 1 7 2 1
2 1 2 -3 6 l-4 4 0 8 c0 7 0 9 -2 10 -2 2 -2 3 -8 -4z"/><path d="M58 326 c-3 -3 -3 -34 0 -36 2 -2 2 -2 4 0 3 2 3 34 0 36 -2 2 -2 2
-4 0z"/><path d="M162 326 c-2 -2 -2 -2 0 -4 0 -1 2 -2 4 -2 1 0 2 -1 2 -2 0 -2 1 -4
2 -5 2 -1 2 -1 4 1 2 2 2 2 1 4 -1 1 -3 2 -5 2 -1 0 -2 1 -2 2 0 2 -3 6 -4 6
0 0 -2 -1 -2 -2z"/><path d="M186 326 c-2 -1 -2 -4 -2 -18 0 -18 1 -20 6 -20 1 0 2 -1 2 -2 0 -2
1 -4 2 -4 2 -2 2 -2 4 0 1 0 2 2 2 4 0 2 0 2 6 2 8 0 12 3 9 6 -5 5 -15 2 -15
-4 0 -2 -1 -2 -4 -2 l-4 0 0 18 c0 17 0 19 -2 20 -2 2 -2 2 -4 0z"/><path d="M442 326 c-3 -3 -3 -26 0 -28 2 -2 2 -2 8 4 l6 6 -4 4 c-4 3 -4 4 -4
8 0 7 -3 10 -6 6z"/><path d="M298 302 c-1 -1 -2 -3 -2 -6 0 -4 0 -5 -4 -8 -4 -3 -4 -4 -4 -8 0 -5
2 -8 6 -8 2 0 2 -1 2 -4 0 -4 0 -4 -2 -4 -2 0 -4 -1 -5 -2 -1 -2 -1 -2 1 -4 2
-2 2 -2 4 -1 1 1 2 3 2 5 0 1 1 2 2 2 2 0 4 1 5 2 1 2 1 2 0 4 -1 1 -3 2 -5 2
-1 0 -2 1 -2 2 0 4 3 6 8 6 5 0 8 2 8 6 0 1 1 2 2 2 2 0 4 1 5 2 1 2 1 2 -1 4
-2 2 -2 2 -4 1 -1 -1 -2 -3 -2 -5 0 -1 -1 -2 -2 -2 -4 0 -6 3 -6 8 0 7 -3 10
-6 6z"/><path d="M210 278 c-2 -1 -2 -4 -2 -10 0 -9 1 -12 6 -12 1 0 2 -1 2 -2 0 -2 1
-4 2 -5 2 -1 2 -1 4 1 2 2 2 2 1 4 -1 1 -3 2 -5 2 -4 0 -3 4 2 8 l4 4 -6 6
c-7 7 -6 7 -8 4z"/><path d="M58 270 c-2 -2 -2 -2 4 -8 6 -6 6 -6 8 -4 3 2 3 10 0 12 -2 3 -10 3
-12 0z"/><path d="M270 266 l-6 -6 4 -4 c4 -3 4 -4 4 -8 0 -6 3 -9 6 -6 3 2 3 26 0 28
-2 2 -2 3 -8 -4z"/><path d="M434 270 c-3 -2 -3 -10 0 -12 2 -2 2 -2 8 4 6 6 6 6 4 8 -2 3 -10 3
-12 0z"/><path d="M233 262 c-1 -2 -1 -2 1 -4 l2 -2 2 2 c2 2 2 2 1 4 -1 1 -3 2 -3 2 0
0 -2 -1 -3 -2z"/><path d="M74 246 c-2 -2 -2 -2 0 -4 0 -1 2 -2 4 -2 2 0 2 0 2 -10 0 -13 1 -14
10 -14 6 0 6 0 6 -2 0 -3 3 -6 6 -6 1 0 2 -1 2 -2 0 -3 3 -6 6 -6 1 0 2 -1 2
-2 0 -3 3 -6 6 -6 2 0 2 0 2 -6 0 -9 1 -10 14 -10 l10 0 0 -6 c0 -6 0 -7 2 -9
2 -1 2 -1 6 3 4 5 8 6 8 2 0 -4 3 -6 10 -6 6 0 6 0 6 -2 0 -2 1 -4 4 -6 4 -3
4 -4 4 -8 0 -4 0 -5 6 -10 5 -6 6 -6 10 -6 5 0 8 2 8 6 0 1 1 2 2 2 2 0 4 1 4
2 2 2 2 2 0 4 0 1 -2 2 -4 2 -1 0 -2 1 -2 2 0 3 -3 6 -6 6 -1 0 -2 1 -2 2 0 5
-3 6 -14 6 -10 0 -10 0 -10 2 0 4 -3 6 -10 6 -6 0 -6 0 -6 2 0 4 -3 6 -10 6
-5 0 -6 0 -6 2 0 1 -2 5 -6 8 l-6 6 -6 0 c-6 0 -6 0 -6 2 0 3 -3 6 -6 6 -1 0
-2 1 -2 2 0 3 -3 6 -6 6 -1 0 -2 1 -2 2 0 3 -3 6 -6 6 -1 0 -2 1 -2 2 0 2 -1
4 -4 6 -4 3 -4 4 -4 8 0 5 -2 8 -6 8 -1 0 -2 1 -2 2 0 2 -3 6 -4 6 0 0 -2 -1
-2 -2z m126 -98 l0 -4 4 0 4 0 0 -4 c0 -3 0 -4 -2 -4 -3 0 -6 3 -6 6 0 1 -1 2
-2 2 -2 0 -4 1 -4 2 -2 2 -2 2 0 4 3 4 6 3 6 -2z"/><path d="M233 246 c-1 -2 -1 -2 1 -4 l2 -2 2 2 c2 2 2 2 1 4 -1 1 -3 2 -3 2 0
0 -2 -1 -3 -2z"/><path d="M250 238 c-10 -10 -10 -10 -8 -12 1 -2 3 -2 8 -2 l6 0 0 -4 0 -4 -6
0 c-8 0 -12 -3 -8 -6 1 -2 3 -2 8 -2 l6 0 0 -4 c0 -4 0 -4 -2 -4 -2 0 -4 -1
-5 -2 -1 -2 -1 -2 1 -4 2 -2 2 -2 4 -1 1 1 2 3 2 5 0 1 1 2 2 2 2 0 4 1 5 2 1
2 1 2 0 4 -1 1 -3 2 -5 2 -2 0 -2 0 -2 4 l0 4 6 0 c8 0 12 3 9 6 -2 2 -4 2 -9
2 -6 0 -6 0 -6 2 0 2 1 4 4 6 4 3 4 4 4 8 0 4 -2 8 -4 8 0 0 -5 -5 -10 -10z"/><path d="M426 246 c-1 -1 -2 -3 -2 -4 0 -1 -1 -2 -2 -2 -4 0 -6 -3 -6 -8 0 -4
0 -5 -4 -8 -3 -2 -4 -4 -4 -6 0 -1 -1 -2 -2 -2 -3 0 -6 -3 -6 -6 0 -1 -1 -2
-2 -2 -3 0 -6 -3 -6 -6 0 -1 -1 -2 -2 -2 -3 0 -6 -3 -6 -6 0 -1 -1 -2 -2 -2
-2 0 -4 -1 -6 -4 -3 -4 -4 -4 -8 -4 -5 0 -8 -2 -8 -6 0 -2 0 -2 -6 -2 -7 0
-10 -2 -10 -6 0 -2 0 -2 -6 -2 -7 0 -10 -2 -10 -6 0 -2 0 -2 -10 -2 -12 0 -14
-1 -14 -6 0 -1 -1 -2 -2 -2 -4 0 -6 -3 -6 -8 0 -4 0 -5 -4 -8 -4 -4 -4 -4 -3
-6 2 -2 3 -2 11 -2 l8 0 6 6 c6 5 6 6 6 10 0 4 0 5 4 8 3 2 4 4 4 6 0 2 0 2 6
2 7 0 10 2 10 6 0 1 1 2 2 2 4 0 6 -3 6 -8 0 -6 3 -9 6 -6 2 1 2 3 2 12 l0 10
10 0 c13 0 14 1 14 10 0 6 0 6 2 6 3 0 6 3 6 6 0 1 1 2 2 2 3 0 6 3 6 6 0 1 1
2 2 2 3 0 6 3 6 6 0 2 0 2 6 2 9 0 10 1 10 14 0 10 0 10 2 10 2 0 4 1 5 2 1 2
1 2 0 4 -3 2 -3 2 -5 0z m-115 -96 c1 -2 1 -2 -1 -4 -2 -2 -2 -2 -4 -1 -3 3
-3 7 0 7 2 0 4 -1 5 -2z"/><path d="M161 150 c-1 -2 -1 -2 1 -4 l2 -2 2 2 c2 2 2 2 1 4 -1 1 -3 2 -3 2 0
0 -2 -1 -3 -2z"/><path d="M337 150 c-1 -2 -1 -2 1 -4 l2 -2 2 2 c2 2 2 2 1 4 -1 1 -3 2 -3 2 0
0 -2 -1 -3 -2z"/><path d="M217 126 c-1 -2 -1 -2 1 -4 l2 -2 2 2 c2 2 2 2 1 4 -1 1 -3 2 -3 2 0
0 -2 -1 -3 -2z"/><path d="M281 118 c-1 -2 -1 -2 1 -4 l2 -2 2 2 c2 2 2 2 1 4 -1 1 -3 2 -3 2 0
0 -2 -1 -3 -2z"/><path d="M225 110 c-1 -2 -1 -2 1 -4 l2 -2 2 2 c2 2 2 2 1 4 -1 1 -3 2 -3 2 0
0 -2 -1 -3 -2z"/><path d="M270 98 l-6 -6 6 -6 c6 -6 6 -6 8 -4 3 2 3 18 0 20 -2 2 -2 3 -8 -4z"/><path d="M234 94 c-3 -2 -3 -10 0 -12 2 -3 10 -3 12 0 2 2 2 2 -4 8 -7 7 -6 7
-8 4z"/><path d="M258 78 c-1 -1 -2 -3 -2 -4 0 -1 -1 -2 -2 -2 -2 0 -4 -1 -5 -2 -1 -2
-1 -2 1 -4 2 -2 2 -2 4 -1 1 1 2 3 2 5 0 1 1 2 2 2 2 0 4 1 5 2 1 2 1 2 0 4
-3 2 -3 2 -5 0z"/><path d="M249 54 c-1 -2 -1 -2 1 -4 l2 -2 2 2 c2 2 2 2 1 4 -1 1 -3 2 -3 2 0
0 -2 -1 -3 -2z"/></g>
  <g transform="scale(0.125 0.125) translate(0.000000,512.000000) scale(1.000000,-1.000000)" fill="#fafafa" stroke="none"><path d="M209 478 c-1 -2 -1 -2 1 -4 l2 -2 2 2 c2 2 2 2 1 4 -1 1 -3 2 -3 2 0
0 -2 -1 -3 -2z"/><path d="M241 478 c-1 -2 -1 -2 1 -4 l2 -2 2 2 c2 2 2 2 1 4 -1 1 -3 2 -3 2 0
0 -2 -1 -3 -2z"/><path d="M257 478 c-1 -2 -1 -2 1 -4 l2 -2 2 2 c2 2 2 2 1 4 -1 1 -3 2 -3 2 0
0 -2 -1 -3 -2z"/><path d="M289 478 c-1 -2 -1 -2 1 -4 l2 -2 2 2 c2 2 2 2 1 4 -1 1 -3 2 -3 2 0
0 -2 -1 -3 -2z"/><path d="M177 470 c-1 -2 -1 -2 1 -4 l2 -2 2 2 c2 2 2 2 1 4 -1 1 -3 2 -3 2 0
0 -2 -1 -3 -2z"/><path d="M193 470 c-1 -2 -1 -2 1 -4 l2 -2 2 2 c2 2 2 2 1 4 -1 1 -3 2 -3 2 0
0 -2 -1 -3 -2z"/><path d="M305 470 c-1 -2 -1 -2 1 -4 l2 -2 2 2 c2 2 2 2 1 4 -1 1 -3 2 -3 2 0
0 -2 -1 -3 -2z"/><path d="M321 470 c-1 -2 -1 -2 1 -4 l2 -2 2 2 c2 2 2 2 1 4 -1 1 -3 2 -3 2 0
0 -2 -1 -3 -2z"/><path d="M345 454 c-1 -2 -1 -2 1 -4 l2 -2 2 2 c2 2 2 2 1 4 -1 1 -3 2 -3 2 0
0 -2 -1 -3 -2z"/><path d="M130 446 c-3 -3 -3 -10 0 -12 3 -3 6 0 6 6 0 7 -3 10 -6 6z"/><path d="M369 438 c-1 -2 -1 -2 1 -4 l2 -2 2 2 c2 2 2 2 1 4 -1 1 -3 2 -3 2 0
0 -2 -1 -3 -2z"/><path d="M105 430 c-1 -2 -1 -2 1 -4 l2 -2 2 2 c2 2 2 2 1 4 -1 1 -3 2 -3 2 0
0 -2 -1 -3 -2z"/><path d="M394 430 c-2 -2 -2 -2 0 -4 0 -1 2 -2 4 -2 1 0 2 -1 2 -2 0 -2 1 -4
2 -5 2 -1 2 -1 4 1 2 2 2 2 1 4 -1 1 -3 2 -5 2 -1 0 -2 1 -2 2 0 2 -3 6 -4 6
0 0 -2 -1 -2 -2z"/><path d="M170 422 c-2 -2 -2 -2 0 -4 0 -1 2 -2 4 -2 2 0 2 0 2 -6 0 -6 0 -7
-4 -10 -4 -4 -4 -4 -3 -6 2 -1 4 -2 7 -2 7 0 8 2 8 12 0 9 -1 12 -6 12 -1 0
-2 1 -2 2 0 2 -3 6 -4 6 0 0 -2 -1 -2 -2z"/><path d="M226 422 c-1 -1 -2 -3 -2 -4 0 -1 -1 -2 -2 -2 -6 0 -8 -10 -4 -14 3
-4 6 0 6 8 0 6 0 6 2 6 2 0 4 1 5 2 1 2 1 2 0 4 -3 2 -3 2 -5 0z"/><path d="M290 422 c-3 -3 0 -6 6 -6 6 0 9 3 7 6 -2 1 -4 2 -7 2 -3 0 -5 -1 -6
-2z"/><path d="M330 422 c-1 -1 -2 -3 -2 -4 0 -1 -1 -2 -2 -2 -5 0 -6 -3 -6 -12 l0
-8 6 -6 c3 -4 7 -6 8 -6 1 0 2 -1 2 -2 0 -2 1 -4 2 -4 2 -2 2 -2 4 0 1 0 2 2
2 4 0 2 0 2 4 2 l4 0 0 -8 c0 -8 0 -8 -2 -8 -3 0 -6 -3 -6 -6 0 -1 -1 -2 -2
-2 -3 0 -6 -3 -6 -6 0 -1 -1 -2 -2 -2 -2 0 -4 -1 -4 -2 -2 -2 -2 -2 0 -4 0 -1
2 -2 4 -2 1 0 2 -1 2 -2 0 -3 3 -6 6 -6 1 0 2 -1 2 -2 0 -2 1 -4 2 -5 2 -1 2
-1 4 1 2 2 2 2 1 4 -1 1 -3 2 -5 2 -2 0 -2 0 -2 4 0 4 0 4 2 4 3 0 6 3 6 6 0
1 1 2 2 2 2 0 4 1 5 2 1 2 1 2 0 4 -1 1 -3 2 -5 2 -2 0 -2 0 -2 4 0 4 0 4 2 4
4 0 6 3 6 8 0 5 -2 8 -6 8 -1 0 -2 1 -2 2 0 2 -1 4 -2 5 -2 1 -2 1 -4 0 -1 -1
-2 -3 -2 -5 0 -2 0 -2 -4 -2 l-4 0 0 6 c0 7 0 7 -4 10 -4 3 -4 3 -4 10 0 6 0
6 2 6 2 0 4 1 5 2 1 2 1 2 0 4 -3 2 -3 2 -5 0z m22 -66 l0 -4 -4 0 -4 0 0 -4
0 -4 -4 0 -4 0 0 4 0 4 4 0 4 0 0 4 0 4 4 0 4 0 0 -4z"/><path d="M266 414 c-2 -1 -2 -4 -2 -10 l0 -8 -4 -4 c-4 -4 -4 -4 -3 -6 2 -1 4
-2 7 -2 7 0 8 2 8 12 0 9 1 12 6 12 2 0 2 0 2 -6 0 -8 3 -12 6 -8 5 4 2 14 -4
14 -1 0 -2 1 -2 2 0 6 -10 8 -14 4z"/><path d="M154 406 c-2 -1 -2 -3 -2 -8 0 -6 0 -6 -2 -6 -2 0 -4 -1 -4 -2 -2 -2
-2 -2 0 -4 0 -1 2 -2 4 -2 2 0 2 0 2 -6 l0 -6 6 -6 c3 -4 7 -6 8 -6 1 0 2 -1
2 -2 0 -2 1 -4 2 -5 2 -1 2 -1 4 1 2 2 2 2 1 4 -1 1 -3 2 -5 2 -2 0 -2 0 -2
10 0 13 -1 14 -10 14 l-6 0 0 4 c0 4 0 4 2 4 6 0 8 10 4 14 -2 2 -2 2 -4 0z"/><path d="M194 406 c-3 -3 0 -6 6 -6 3 0 5 1 7 2 2 3 -1 6 -7 6 -3 0 -5 -1 -6
-2z"/><path d="M242 406 c-3 -3 -3 -10 0 -12 3 -3 6 0 6 6 0 7 -3 10 -6 6z"/><path d="M298 406 c-3 -3 0 -6 6 -6 6 0 9 3 7 6 -2 1 -4 2 -7 2 -3 0 -5 -1 -6
-2z"/><path d="M90 398 c-1 -1 -2 -3 -2 -4 0 -2 0 -2 -6 -2 -8 0 -12 -3 -8 -6 4 -5
14 -2 14 4 0 1 1 2 2 2 2 0 4 1 5 2 1 2 1 2 0 4 -3 2 -3 2 -5 0z"/><path d="M410 398 c-2 -2 -2 -2 0 -4 0 -1 2 -2 4 -2 1 0 2 -1 2 -2 0 -6 10 -8
15 -4 3 3 -1 6 -9 6 -6 0 -6 0 -6 2 0 2 -3 6 -4 6 0 0 -2 -1 -2 -2z"/><path d="M234 382 c-2 -2 -2 -2 0 -4 0 -1 2 -2 4 -2 2 0 2 0 2 -6 0 -7 2 -10
6 -10 1 0 2 -1 2 -2 0 -2 1 -4 2 -5 2 -1 2 -1 4 1 2 2 2 2 1 4 -1 1 -3 2 -5 2
-2 0 -2 0 -2 6 0 7 -2 10 -6 10 -1 0 -2 1 -2 2 0 2 -3 6 -4 6 0 0 -2 -1 -2 -2z"/><path d="M65 374 c-1 -2 -1 -2 1 -4 l2 -2 2 2 c2 2 2 2 1 4 -1 1 -3 2 -3 2 0
0 -2 -1 -3 -2z"/><path d="M265 374 c-1 -2 -1 -2 1 -4 l2 -2 2 2 c2 2 2 2 1 4 -1 1 -3 2 -3 2 0
0 -2 -1 -3 -2z"/><path d="M426 374 c-3 -3 0 -6 6 -6 6 0 9 3 7 6 -2 1 -4 2 -7 2 -3 0 -5 -1 -6
-2z"/><path d="M66 358 c-1 -1 -2 -3 -2 -4 0 -1 -1 -2 -2 -2 -2 0 -4 -1 -5 -2 -1 -2
-1 -2 1 -4 2 -2 2 -2 4 -1 1 1 2 3 2 5 0 1 1 2 2 2 2 0 4 1 5 2 1 2 1 2 0 4
-3 2 -3 2 -5 0z"/><path d="M434 358 c-3 -3 0 -6 6 -6 6 0 9 3 7 6 -2 1 -4 2 -7 2 -3 0 -5 -1 -6
-2z"/><path d="M153 342 c-1 -2 -1 -2 1 -4 l2 -2 2 2 c2 2 2 2 1 4 -1 1 -3 2 -3 2 0
0 -2 -1 -3 -2z"/><path d="M170 342 c-3 -3 0 -6 6 -6 3 0 5 1 7 2 2 3 -1 6 -7 6 -3 0 -5 -1 -6
-2z"/><path d="M318 330 l-6 -6 4 -4 c4 -3 4 -4 4 -8 0 -6 2 -8 8 -8 3 0 5 1 7 2 1
2 1 2 -3 6 l-4 4 0 8 c0 7 0 9 -2 10 -2 2 -2 3 -8 -4z"/><path d="M161 326 c-1 -2 -1 -2 1 -4 l2 -2 2 2 c2 2 2 2 1 4 -1 1 -3 2 -3 2 0
0 -2 -1 -3 -2z"/><path d="M186 326 c-3 -3 -3 -34 0 -36 2 -2 2 -2 4 0 3 2 3 34 0 36 -2 2 -2 2
-4 0z"/><path d="M58 318 c-3 -3 -3 -18 0 -20 2 -2 2 -2 4 0 3 2 3 18 0 20 -2 2 -2 2
-4 0z"/><path d="M442 310 c-3 -3 0 -6 6 -6 6 0 9 3 7 6 -2 1 -4 2 -7 2 -3 0 -5 -1 -6
-2z"/><path d="M298 302 c-1 -1 -2 -3 -2 -6 0 -4 0 -5 -4 -8 -4 -3 -4 -4 -4 -8 0 -5
2 -8 6 -8 2 0 2 -1 2 -4 0 -4 0 -4 -2 -4 -2 0 -4 -1 -5 -2 -1 -2 -1 -2 1 -4 2
-2 2 -2 4 -1 1 1 2 3 2 5 0 1 1 2 2 2 2 0 4 1 5 2 1 2 1 2 0 4 -1 1 -3 2 -5 2
-4 0 -3 4 2 8 l4 3 0 9 c0 7 0 9 -2 10 -2 2 -2 2 -4 0z"/><path d="M202 294 c-3 -3 0 -6 6 -6 3 0 5 1 7 2 2 3 -1 6 -7 6 -3 0 -5 -1 -6
-2z"/><path d="M210 278 c-3 -3 -3 -18 0 -20 2 -2 2 -2 8 4 l6 6 -6 6 c-7 7 -6 7 -8
4z"/><path d="M58 270 c-3 -3 0 -6 6 -6 3 0 5 1 7 2 2 3 -1 6 -7 6 -3 0 -5 -1 -6
-2z"/><path d="M270 266 l-6 -6 4 -4 c4 -3 4 -4 4 -8 0 -6 3 -9 6 -6 3 2 3 26 0 28
-2 2 -2 3 -8 -4z"/><path d="M434 270 c-3 -3 0 -6 6 -6 6 0 9 3 7 6 -2 1 -4 2 -7 2 -3 0 -5 -1 -6
-2z"/><path d="M233 262 c-1 -2 -1 -2 1 -4 l2 -2 2 2 c2 2 2 2 1 4 -1 1 -3 2 -3 2 0
0 -2 -1 -3 -2z"/><path d="M233 246 c-1 -2 -1 -2 1 -4 l2 -2 2 2 c2 2 2 2 1 4 -1 1 -3 2 -3 2 0
0 -2 -1 -3 -2z"/><path d="M250 238 c-10 -10 -10 -10 -8 -12 1 -2 3 -2 8 -2 l6 0 0 -4 c0 -4 0
-4 -2 -4 -2 0 -4 -1 -4 -2 -2 -2 -2 -2 0 -4 0 -1 2 -2 4 -2 1 0 2 -1 2 -2 0
-2 1 -4 2 -5 2 -1 2 -1 4 1 2 2 2 2 1 4 -1 1 -3 2 -5 2 -2 0 -2 0 -2 4 l0 4 6
0 c8 0 12 3 9 6 -2 2 -4 2 -9 2 -6 0 -6 0 -6 2 0 2 1 4 4 6 4 3 4 4 4 8 0 4
-2 8 -4 8 0 0 -5 -5 -10 -10z"/><path d="M81 238 c-1 -2 -1 -2 1 -4 l2 -2 2 2 c2 2 2 2 1 4 -1 1 -3 2 -3 2 0
0 -2 -1 -3 -2z"/><path d="M417 238 c-1 -2 -1 -2 1 -4 l2 -2 2 2 c2 2 2 2 1 4 -1 1 -3 2 -3 2 0
0 -2 -1 -3 -2z"/><path d="M81 222 c-1 -2 -1 -2 1 -4 l2 -2 2 2 c2 2 2 2 1 4 -1 1 -3 2 -3 2 0
0 -2 -1 -3 -2z"/><path d="M417 222 c-1 -2 -1 -2 1 -4 l2 -2 2 2 c2 2 2 2 1 4 -1 1 -3 2 -3 2 0
0 -2 -1 -3 -2z"/><path d="M98 214 c-2 -2 -2 -2 0 -4 0 -1 2 -2 4 -2 1 0 2 -1 2 -2 0 -3 3 -6 6
-6 1 0 2 -1 2 -2 0 -2 1 -4 2 -5 2 -1 2 -1 4 1 2 2 2 2 1 4 -1 1 -3 2 -5 2 -1
0 -2 1 -2 2 0 3 -3 6 -6 6 -1 0 -2 1 -2 2 0 2 -3 6 -4 6 0 0 -2 -1 -2 -2z"/><path d="M402 214 c-1 -1 -2 -3 -2 -4 0 -1 -1 -2 -2 -2 -3 0 -6 -3 -6 -6 0 -1
-1 -2 -2 -2 -2 0 -4 -1 -5 -2 -1 -2 -1 -2 1 -4 2 -2 2 -2 4 -1 1 1 2 3 2 5 0
1 1 2 2 2 3 0 6 3 6 6 0 1 1 2 2 2 2 0 4 1 5 2 1 2 1 2 0 4 -3 2 -3 2 -5 0z"/><path d="M130 190 c-1 -1 -2 -3 -2 -4 0 -1 -1 -2 -2 -2 -2 0 -4 -1 -5 -2 -1
-2 -1 -2 1 -4 2 -2 2 -2 4 -1 1 1 2 3 2 5 0 2 0 2 4 2 4 0 4 0 4 -2 0 -2 1 -4
2 -5 2 -1 2 -1 4 1 2 2 2 2 1 4 -1 1 -3 2 -5 2 -1 0 -2 1 -2 2 0 2 -3 6 -4 6
0 0 -1 -1 -2 -2z"/><path d="M361 182 c-1 -2 -1 -2 1 -4 l2 -2 2 2 c2 2 2 2 1 4 -1 1 -3 2 -3 2 0
0 -2 -1 -3 -2z"/><path d="M377 182 c-1 -2 -1 -2 1 -4 l2 -2 2 2 c2 2 2 2 1 4 -1 1 -3 2 -3 2 0
0 -2 -1 -3 -2z"/><path d="M154 174 c-1 -1 -2 -3 -2 -4 0 -1 -1 -2 -2 -2 -2 0 -4 -1 -5 -2 -1
-2 -1 -2 1 -4 2 -2 2 -2 4 -1 1 1 2 3 2 5 0 1 1 2 2 2 2 0 4 1 5 2 1 2 1 2 0
4 -3 2 -3 2 -5 0z"/><path d="M346 174 c-2 -2 -2 -2 0 -4 0 -1 2 -2 4 -2 2 0 2 0 2 -6 0 -8 3 -12
6 -8 5 4 2 14 -4 14 -1 0 -2 1 -2 2 0 2 -3 6 -4 6 0 0 -2 -1 -2 -2z"/><path d="M169 166 c-1 -2 -1 -2 1 -4 l2 -2 2 2 c2 2 2 2 1 4 -1 1 -3 2 -3 2 0
0 -2 -1 -3 -2z"/><path d="M329 166 c-1 -2 -1 -2 1 -4 l2 -2 2 2 c2 2 2 2 1 4 -1 1 -3 2 -3 2 0
0 -2 -1 -3 -2z"/><path d="M194 158 c-1 -1 -2 -3 -2 -4 0 -1 -1 -2 -2 -2 -4 0 -6 -3 -6 -8 0 -6
10 -16 16 -16 3 0 5 1 7 2 1 2 1 2 -7 10 -8 8 -10 12 -6 12 2 0 4 1 5 2 1 2 1
2 0 4 -3 2 -3 2 -5 0z"/><path d="M306 158 c-2 -2 -2 -2 0 -4 0 -1 2 -2 4 -2 1 0 2 -1 2 -2 0 -4 -3 -6
-8 -6 -4 0 -5 -1 -10 -6 -6 -6 -6 -6 -4 -8 1 -2 3 -2 10 -2 l8 0 6 6 c6 5 6 6
6 10 0 5 -2 8 -6 8 -1 0 -2 1 -2 2 0 2 -3 6 -4 6 0 0 -2 -1 -2 -2z"/><path d="M161 150 c-1 -2 -1 -2 1 -4 l2 -2 2 2 c2 2 2 2 1 4 -1 1 -3 2 -3 2 0
0 -2 -1 -3 -2z"/><path d="M337 150 c-1 -2 -1 -2 1 -4 l2 -2 2 2 c2 2 2 2 1 4 -1 1 -3 2 -3 2 0
0 -2 -1 -3 -2z"/><path d="M217 126 c-1 -2 -1 -2 1 -4 l2 -2 2 2 c2 2 2 2 1 4 -1 1 -3 2 -3 2 0
0 -2 -1 -3 -2z"/><path d="M225 110 c-1 -2 -1 -2 1 -4 l2 -2 2 2 c2 2 2 2 1 4 -1 1 -3 2 -3 2 0
0 -2 -1 -3 -2z"/><path d="M266 94 c-2 -2 -2 -2 4 -8 6 -6 6 -6 8 -4 3 2 3 10 0 12 -2 3 -10 3
-12 0z"/><path d="M234 86 c-3 -3 0 -6 6 -6 3 0 5 1 7 2 2 3 -1 6 -7 6 -3 0 -5 -1 -6
-2z"/><path d="M249 54 c-1 -2 -1 -2 1 -4 l2 -2 2 2 c2 2 2 2 1 4 -1 1 -3 2 -3 2 0
0 -2 -1 -3 -2z"/></g>
  <g transform="scale(0.125 0.125) translate(0.000000,512.000000) scale(1.000000,-1.000000)" fill="#0b0809" stroke="none"><path d="M209 478 c-1 -2 -1 -2 1 -4 l2 -2 2 2 c2 2 2 2 1 4 -1 1 -3 2 -3 2 0
0 -2 -1 -3 -2z"/><path d="M289 478 c-1 -2 -1 -2 1 -4 l2 -2 2 2 c2 2 2 2 1 4 -1 1 -3 2 -3 2 0
0 -2 -1 -3 -2z"/><path d="M177 470 c-1 -2 -1 -2 1 -4 l2 -2 2 2 c2 2 2 2 1 4 -1 1 -3 2 -3 2 0
0 -2 -1 -3 -2z"/><path d="M321 470 c-1 -2 -1 -2 1 -4 l2 -2 2 2 c2 2 2 2 1 4 -1 1 -3 2 -3 2 0
0 -2 -1 -3 -2z"/><path d="M129 446 c-1 -2 -1 -2 1 -4 l2 -2 2 2 c2 2 2 2 1 4 -1 1 -3 2 -3 2 0
0 -2 -1 -3 -2z"/><path d="M105 430 c-1 -2 -1 -2 1 -4 l2 -2 2 2 c2 2 2 2 1 4 -1 1 -3 2 -3 2 0
0 -2 -1 -3 -2z"/><path d="M394 430 c-2 -2 -2 -2 0 -4 0 -1 2 -2 4 -2 1 0 2 -1 2 -2 0 -2 1 -4
2 -5 2 -1 2 -1 4 1 2 2 2 2 1 4 -1 1 -3 2 -5 2 -1 0 -2 1 -2 2 0 2 -3 6 -4 6
0 0 -2 -1 -2 -2z"/><path d="M290 422 c-3 -3 0 -6 6 -6 6 0 9 3 7 6 -2 1 -4 2 -7 2 -3 0 -5 -1 -6
-2z"/><path d="M178 414 c-1 -1 -2 -3 -2 -6 0 -4 0 -5 -4 -8 -4 -4 -4 -4 -3 -6 3 -3
11 -3 13 0 3 3 3 18 0 20 -2 2 -2 2 -4 0z"/><path d="M218 414 c-3 -3 -3 -10 0 -12 3 -3 6 0 6 6 0 7 -3 10 -6 6z"/><path d="M274 414 c-1 -1 -2 -3 -2 -4 0 -1 -1 -2 -2 -2 -4 0 -6 -3 -6 -8 0 -4
0 -5 -4 -8 -4 -4 -4 -4 -3 -6 2 -1 4 -2 7 -2 7 0 8 2 8 14 l0 10 4 0 4 0 0 -6
c0 -8 3 -12 6 -8 5 4 2 14 -4 14 -1 0 -2 1 -2 2 0 2 -3 6 -4 6 0 0 -1 -1 -2
-2z"/><path d="M322 414 c-2 -1 -2 -4 -2 -10 l0 -8 6 -6 c3 -4 7 -6 8 -6 1 0 2 -1 2
-2 0 -2 1 -4 2 -4 2 -2 2 -2 4 0 1 0 2 2 2 4 0 2 0 2 4 2 l4 0 0 -8 c0 -8 0
-8 -2 -8 -3 0 -6 -3 -6 -6 0 -1 -1 -2 -2 -2 -3 0 -6 -3 -6 -6 0 -1 -1 -2 -2
-2 -2 0 -4 -1 -4 -2 -2 -2 -2 -2 0 -4 0 -1 2 -2 4 -2 1 0 2 -1 2 -2 0 -2 1 -4
2 -4 2 -2 2 -2 4 0 1 0 2 2 2 4 0 1 1 2 2 2 2 0 4 1 5 2 1 2 1 2 0 4 -1 1 -3
2 -5 2 -2 0 -2 0 -2 4 0 4 0 4 2 4 3 0 6 3 6 6 0 1 1 2 2 2 4 0 6 3 6 8 0 5
-2 8 -6 8 -1 0 -2 1 -2 2 0 2 -1 4 -2 5 -2 1 -2 1 -4 0 -1 -1 -2 -3 -2 -5 0
-2 0 -2 -4 -2 l-4 0 0 6 c0 7 0 7 -4 10 -4 3 -4 4 -4 8 0 7 -3 10 -6 6z m22
-66 l0 -4 -4 0 -4 0 0 4 0 4 4 0 4 0 0 -4z"/><path d="M194 406 c-3 -3 0 -6 6 -6 3 0 5 1 7 2 2 3 -1 6 -7 6 -3 0 -5 -1 -6
-2z"/><path d="M298 406 c-3 -3 0 -6 6 -6 6 0 9 3 7 6 -2 1 -4 2 -7 2 -3 0 -5 -1 -6
-2z"/><path d="M153 398 c-1 -2 -1 -2 1 -4 l2 -2 2 2 c2 2 2 2 1 4 -1 1 -3 2 -3 2 0
0 -2 -1 -3 -2z"/><path d="M241 398 c-1 -2 -1 -2 1 -4 l2 -2 2 2 c2 2 2 2 1 4 -1 1 -3 2 -3 2 0
0 -2 -1 -3 -2z"/><path d="M73 390 c-1 -2 -1 -2 1 -4 l2 -2 2 2 c2 2 2 2 1 4 -1 1 -3 2 -3 2 0
0 -2 -1 -3 -2z"/><path d="M425 390 c-1 -2 -1 -2 1 -4 l2 -2 2 2 c2 2 2 2 1 4 -1 1 -3 2 -3 2 0
0 -2 -1 -3 -2z"/><path d="M154 382 c-4 -4 -3 -10 4 -16 3 -4 7 -6 8 -6 1 0 2 -1 2 -2 0 -2 1
-4 2 -5 2 -1 2 -1 4 1 2 2 2 2 1 4 -1 1 -3 2 -5 2 -2 0 -2 0 -2 10 0 9 0 11
-2 12 -2 3 -10 3 -12 0z"/><path d="M234 382 c-2 -2 -2 -2 0 -4 0 -1 2 -2 4 -2 2 0 2 0 2 -6 0 -7 2 -10
6 -10 1 0 2 -1 2 -2 0 -2 1 -4 2 -5 2 -1 2 -1 4 1 2 2 2 2 1 4 -1 1 -3 2 -5 2
-2 0 -2 0 -2 6 0 7 -2 10 -6 10 -1 0 -2 1 -2 2 0 2 -3 6 -4 6 0 0 -2 -1 -2 -2z"/><path d="M65 374 c-1 -2 -1 -2 1 -4 l2 -2 2 2 c2 2 2 2 1 4 -1 1 -3 2 -3 2 0
0 -2 -1 -3 -2z"/><path d="M265 374 c-1 -2 -1 -2 1 -4 l2 -2 2 2 c2 2 2 2 1 4 -1 1 -3 2 -3 2 0
0 -2 -1 -3 -2z"/><path d="M433 374 c-1 -2 -1 -2 1 -4 l2 -2 2 2 c2 2 2 2 1 4 -1 1 -3 2 -3 2 0
0 -2 -1 -3 -2z"/><path d="M441 358 c-1 -2 -1 -2 1 -4 l2 -2 2 2 c2 2 2 2 1 4 -1 1 -3 2 -3 2 0
0 -2 -1 -3 -2z"/><path d="M57 350 c-1 -2 -1 -2 1 -4 l2 -2 2 2 c2 2 2 2 1 4 -1 1 -3 2 -3 2 0
0 -2 -1 -3 -2z"/><path d="M170 342 c-3 -3 0 -6 6 -6 3 0 5 1 7 2 2 3 -1 6 -7 6 -3 0 -5 -1 -6
-2z"/><path d="M318 330 l-6 -6 4 -4 c4 -3 4 -4 4 -8 0 -6 3 -9 6 -6 3 2 3 26 0 28
-2 2 -2 3 -8 -4z"/><path d="M186 326 c-3 -3 -3 -26 0 -28 2 -2 2 -2 4 0 3 2 3 26 0 28 -2 2 -2 2
-4 0z"/><path d="M449 310 c-1 -2 -1 -2 1 -4 l2 -2 2 2 c2 2 2 2 1 4 -1 1 -3 2 -3 2 0
0 -2 -1 -3 -2z"/><path d="M298 302 c-1 -1 -2 -3 -2 -6 0 -4 0 -5 -4 -8 -4 -3 -4 -4 -4 -8 0 -3
1 -5 2 -6 2 -2 2 -2 8 4 l6 6 0 8 c0 7 0 9 -2 10 -2 2 -2 2 -4 0z"/><path d="M202 294 c-3 -3 0 -6 6 -6 3 0 5 1 7 2 2 3 -1 6 -7 6 -3 0 -5 -1 -6
-2z"/><path d="M210 278 c-3 -2 -3 -10 0 -12 2 -3 10 -3 12 0 2 2 2 2 -4 8 -7 7 -6
7 -8 4z"/><path d="M57 270 c-1 -2 -1 -2 1 -4 l2 -2 2 2 c2 2 2 2 1 4 -1 1 -3 2 -3 2 0
0 -2 -1 -3 -2z"/><path d="M270 266 l-6 -6 4 -4 c4 -3 4 -4 4 -8 0 -6 3 -9 6 -6 3 2 3 26 0 28
-2 2 -2 3 -8 -4z"/><path d="M441 270 c-1 -2 -1 -2 1 -4 l2 -2 2 2 c2 2 2 2 1 4 -1 1 -3 2 -3 2 0
0 -2 -1 -3 -2z"/><path d="M233 262 c-1 -2 -1 -2 1 -4 l2 -2 2 2 c2 2 2 2 1 4 -1 1 -3 2 -3 2 0
0 -2 -1 -3 -2z"/><path d="M233 246 c-1 -2 -1 -2 1 -4 l2 -2 2 2 c2 2 2 2 1 4 -1 1 -3 2 -3 2 0
0 -2 -1 -3 -2z"/><path d="M250 238 c-10 -10 -10 -10 -8 -12 1 -2 3 -2 8 -2 l6 0 0 -4 c0 -4 0
-4 -2 -4 -2 0 -4 -1 -5 -2 -1 -2 -1 -2 1 -4 2 -2 2 -2 4 -1 1 1 2 3 2 5 0 1 1
2 2 2 2 0 4 1 5 2 1 2 1 2 0 4 -1 1 -3 2 -5 2 -4 0 -3 4 2 8 4 3 4 4 4 8 0 4
-2 8 -4 8 0 0 -5 -5 -10 -10z"/><path d="M81 222 c-1 -2 -1 -2 1 -4 l2 -2 2 2 c2 2 2 2 1 4 -1 1 -3 2 -3 2 0
0 -2 -1 -3 -2z"/><path d="M417 222 c-1 -2 -1 -2 1 -4 l2 -2 2 2 c2 2 2 2 1 4 -1 1 -3 2 -3 2 0
0 -2 -1 -3 -2z"/><path d="M121 182 c-1 -2 -1 -2 1 -4 l2 -2 2 2 c2 2 2 2 1 4 -1 1 -3 2 -3 2 0
0 -2 -1 -3 -2z"/><path d="M377 182 c-1 -2 -1 -2 1 -4 l2 -2 2 2 c2 2 2 2 1 4 -1 1 -3 2 -3 2 0
0 -2 -1 -3 -2z"/><path d="M145 166 c-1 -2 -1 -2 1 -4 l2 -2 2 2 c2 2 2 2 1 4 -1 1 -3 2 -3 2 0
0 -2 -1 -3 -2z"/><path d="M354 166 c-3 -3 -3 -10 0 -12 3 -3 6 0 6 6 0 7 -3 10 -6 6z"/><path d="M161 150 c-1 -2 -1 -2 1 -4 l2 -2 2 2 c2 2 2 2 1 4 -1 1 -3 2 -3 2 0
0 -2 -1 -3 -2z"/><path d="M186 150 c-1 -1 -2 -3 -2 -6 0 -6 10 -16 16 -16 3 0 5 1 6 2 2 2 2 2
-8 12 -11 11 -10 11 -12 8z"/><path d="M312 148 c-3 -4 -4 -4 -8 -4 -6 0 -8 -2 -8 -8 0 -6 2 -8 8 -8 6 0 16
10 16 16 0 3 -1 5 -2 6 -2 3 -2 3 -6 -2z"/><path d="M337 150 c-1 -2 -1 -2 1 -4 l2 -2 2 2 c2 2 2 2 1 4 -1 1 -3 2 -3 2 0
0 -2 -1 -3 -2z"/><path d="M274 94 c-3 -3 -3 -10 0 -12 3 -3 6 0 6 6 0 7 -3 10 -6 6z"/><path d="M233 86 c-1 -2 -1 -2 1 -4 l2 -2 2 2 c2 2 2 2 1 4 -1 1 -3 2 -3 2 0
0 -2 -1 -3 -2z"/><path d="M249 54 c-1 -2 -1 -2 1 -4 l2 -2 2 2 c2 2 2 2 1 4 -1 1 -3 2 -3 2 0
0 -2 -1 -3 -2z"/></g>
  <g transform="scale(0.125 0.125) translate(0.000000,512.000000) scale(1.000000,-1.000000)" fill="#bb6491" stroke="none"><path d="M209 478 c-1 -2 -1 -2 1 -4 l2 -2 2 2 c2 2 2 2 1 4 -1 1 -3 2 -3 2 0
0 -2 -1 -3 -2z"/><path d="M289 478 c-1 -2 -1 -2 1 -4 l2 -2 2 2 c2 2 2 2 1 4 -1 1 -3 2 -3 2 0
0 -2 -1 -3 -2z"/><path d="M177 470 c-1 -2 -1 -2 1 -4 l2 -2 2 2 c2 2 2 2 1 4 -1 1 -3 2 -3 2 0
0 -2 -1 -3 -2z"/><path d="M321 470 c-1 -2 -1 -2 1 -4 l2 -2 2 2 c2 2 2 2 1 4 -1 1 -3 2 -3 2 0
0 -2 -1 -3 -2z"/><path d="M129 446 c-1 -2 -1 -2 1 -4 l2 -2 2 2 c2 2 2 2 1 4 -1 1 -3 2 -3 2 0
0 -2 -1 -3 -2z"/><path d="M105 430 c-1 -2 -1 -2 1 -4 l2 -2 2 2 c2 2 2 2 1 4 -1 1 -3 2 -3 2 0
0 -2 -1 -3 -2z"/><path d="M394 430 c-2 -2 -2 -2 0 -4 0 -1 2 -2 4 -2 1 0 2 -1 2 -2 0 -2 1 -4
2 -5 2 -1 2 -1 4 1 2 2 2 2 1 4 -1 1 -3 2 -5 2 -1 0 -2 1 -2 2 0 2 -3 6 -4 6
0 0 -2 -1 -2 -2z"/><path d="M289 422 c-1 -2 -1 -2 1 -4 l2 -2 2 2 c2 2 2 2 1 4 -1 1 -3 2 -3 2 0
0 -2 -1 -3 -2z"/><path d="M274 414 c-1 -1 -2 -3 -2 -4 0 -1 -1 -2 -2 -2 -2 0 -4 -1 -5 -2 -1
-2 -1 -2 1 -4 2 -2 2 -2 4 -1 1 1 2 3 2 5 0 1 1 2 2 2 2 0 4 1 5 2 1 2 1 2 0
4 -3 2 -3 2 -5 0z"/><path d="M194 406 c-3 -3 0 -6 6 -6 3 0 5 1 7 2 2 3 -1 6 -7 6 -3 0 -5 -1 -6
-2z"/><path d="M298 406 c-3 -3 0 -6 6 -6 6 0 9 3 7 6 -2 1 -4 2 -7 2 -3 0 -5 -1 -6
-2z"/><path d="M153 398 c-1 -2 -1 -2 1 -4 l2 -2 2 2 c2 2 2 2 1 4 -1 1 -3 2 -3 2 0
0 -2 -1 -3 -2z"/><path d="M177 398 c-1 -2 -1 -2 1 -4 l2 -2 2 2 c2 2 2 2 1 4 -1 1 -3 2 -3 2 0
0 -2 -1 -3 -2z"/><path d="M241 398 c-1 -2 -1 -2 1 -4 l2 -2 2 2 c2 2 2 2 1 4 -1 1 -3 2 -3 2 0
0 -2 -1 -3 -2z"/><path d="M281 398 c-1 -2 -1 -2 1 -4 l2 -2 2 2 c2 2 2 2 1 4 -1 1 -3 2 -3 2 0
0 -2 -1 -3 -2z"/><path d="M322 398 c-2 -2 -2 -2 0 -4 0 -1 2 -2 4 -2 1 0 2 -1 2 -2 0 -2 1 -4
2 -5 2 -1 2 -1 4 1 2 2 2 2 1 4 -1 1 -3 2 -5 2 -1 0 -2 1 -2 2 0 2 -3 6 -4 6
0 0 -2 -1 -2 -2z"/><path d="M73 390 c-1 -2 -1 -2 1 -4 l2 -2 2 2 c2 2 2 2 1 4 -1 1 -3 2 -3 2 0
0 -2 -1 -3 -2z"/><path d="M425 390 c-1 -2 -1 -2 1 -4 l2 -2 2 2 c2 2 2 2 1 4 -1 1 -3 2 -3 2 0
0 -2 -1 -3 -2z"/><path d="M233 382 c-1 -2 -1 -2 1 -4 l2 -2 2 2 c2 2 2 2 1 4 -1 1 -3 2 -3 2 0
0 -2 -1 -3 -2z"/><path d="M354 382 c-3 -3 -3 -10 0 -12 3 -3 6 0 6 6 0 7 -3 10 -6 6z"/><path d="M65 374 c-1 -2 -1 -2 1 -4 l2 -2 2 2 c2 2 2 2 1 4 -1 1 -3 2 -3 2 0
0 -2 -1 -3 -2z"/><path d="M265 374 c-1 -2 -1 -2 1 -4 l2 -2 2 2 c2 2 2 2 1 4 -1 1 -3 2 -3 2 0
0 -2 -1 -3 -2z"/><path d="M433 374 c-1 -2 -1 -2 1 -4 l2 -2 2 2 c2 2 2 2 1 4 -1 1 -3 2 -3 2 0
0 -2 -1 -3 -2z"/><path d="M242 366 c-2 -2 -2 -2 0 -4 0 -1 2 -2 4 -2 1 0 2 -1 2 -2 0 -2 1 -4
2 -5 2 -1 2 -1 4 1 2 2 2 2 1 4 -1 1 -3 2 -5 2 -1 0 -2 1 -2 2 0 2 -3 6 -4 6
0 0 -2 -1 -2 -2z"/><path d="M169 358 c-1 -2 -1 -2 1 -4 l2 -2 2 2 c2 2 2 2 1 4 -1 1 -3 2 -3 2 0
0 -2 -1 -3 -2z"/><path d="M441 358 c-1 -2 -1 -2 1 -4 l2 -2 2 2 c2 2 2 2 1 4 -1 1 -3 2 -3 2 0
0 -2 -1 -3 -2z"/><path d="M57 350 c-1 -2 -1 -2 1 -4 l2 -2 2 2 c2 2 2 2 1 4 -1 1 -3 2 -3 2 0
0 -2 -1 -3 -2z"/><path d="M329 350 c-1 -2 -1 -2 1 -4 l2 -2 2 2 c2 2 2 2 1 4 -1 1 -3 2 -3 2 0
0 -2 -1 -3 -2z"/><path d="M345 350 c-1 -2 -1 -2 1 -4 l2 -2 2 2 c2 2 2 2 1 4 -1 1 -3 2 -3 2 0
0 -2 -1 -3 -2z"/><path d="M177 342 c-1 -2 -1 -2 1 -4 l2 -2 2 2 c2 2 2 2 1 4 -1 1 -3 2 -3 2 0
0 -2 -1 -3 -2z"/><path d="M322 334 c-1 -1 -2 -3 -2 -4 0 -1 -1 -2 -2 -2 -2 0 -4 -1 -5 -2 -1
-2 -1 -2 1 -4 2 -2 2 -2 4 -1 1 1 2 3 2 5 0 1 1 2 2 2 2 0 4 1 5 2 1 2 1 2 0
4 -3 2 -3 2 -5 0z"/><path d="M185 326 c-1 -2 -1 -2 1 -4 l2 -2 2 2 c2 2 2 2 1 4 -1 1 -3 2 -3 2 0
0 -2 -1 -3 -2z"/><path d="M321 310 c-1 -2 -1 -2 1 -4 l2 -2 2 2 c2 2 2 2 1 4 -1 1 -3 2 -3 2 0
0 -2 -1 -3 -2z"/><path d="M449 310 c-1 -2 -1 -2 1 -4 l2 -2 2 2 c2 2 2 2 1 4 -1 1 -3 2 -3 2 0
0 -2 -1 -3 -2z"/><path d="M185 302 c-1 -2 -1 -2 1 -4 l2 -2 2 2 c2 2 2 2 1 4 -1 1 -3 2 -3 2 0
0 -2 -1 -3 -2z"/><path d="M297 302 c-1 -2 -1 -2 1 -4 l2 -2 2 2 c2 2 2 2 1 4 -1 1 -3 2 -3 2 0
0 -2 -1 -3 -2z"/><path d="M209 294 c-1 -2 -1 -2 1 -4 l2 -2 2 2 c2 2 2 2 1 4 -1 1 -3 2 -3 2 0
0 -2 -1 -3 -2z"/><path d="M57 270 c-1 -2 -1 -2 1 -4 l2 -2 2 2 c2 2 2 2 1 4 -1 1 -3 2 -3 2 0
0 -2 -1 -3 -2z"/><path d="M209 270 c-1 -2 -1 -2 1 -4 l2 -2 2 2 c2 2 2 2 1 4 -1 1 -3 2 -3 2 0
0 -2 -1 -3 -2z"/><path d="M274 270 c-1 -1 -2 -3 -2 -4 0 -1 -1 -2 -2 -2 -2 0 -4 -1 -5 -2 -1
-2 -1 -2 1 -4 2 -2 2 -2 4 -1 1 1 2 3 2 5 0 1 1 2 2 2 2 0 4 1 5 2 1 2 1 2 0
4 -3 2 -3 2 -5 0z"/><path d="M441 270 c-1 -2 -1 -2 1 -4 l2 -2 2 2 c2 2 2 2 1 4 -1 1 -3 2 -3 2 0
0 -2 -1 -3 -2z"/><path d="M233 262 c-1 -2 -1 -2 1 -4 l2 -2 2 2 c2 2 2 2 1 4 -1 1 -3 2 -3 2 0
0 -2 -1 -3 -2z"/><path d="M258 246 c-1 -1 -2 -3 -2 -4 0 -1 -1 -2 -2 -2 -2 0 -4 -1 -5 -2 -1
-2 -1 -2 1 -4 2 -2 2 -2 4 -1 1 1 2 3 2 5 0 1 1 2 2 2 2 0 4 1 5 2 1 2 1 2 0
4 -3 2 -3 2 -5 0z"/><path d="M273 246 c-1 -2 -1 -2 1 -4 l2 -2 2 2 c2 2 2 2 1 4 -1 1 -3 2 -3 2 0
0 -2 -1 -3 -2z"/><path d="M81 222 c-1 -2 -1 -2 1 -4 l2 -2 2 2 c2 2 2 2 1 4 -1 1 -3 2 -3 2 0
0 -2 -1 -3 -2z"/><path d="M417 222 c-1 -2 -1 -2 1 -4 l2 -2 2 2 c2 2 2 2 1 4 -1 1 -3 2 -3 2 0
0 -2 -1 -3 -2z"/><path d="M121 182 c-1 -2 -1 -2 1 -4 l2 -2 2 2 c2 2 2 2 1 4 -1 1 -3 2 -3 2 0
0 -2 -1 -3 -2z"/><path d="M377 182 c-1 -2 -1 -2 1 -4 l2 -2 2 2 c2 2 2 2 1 4 -1 1 -3 2 -3 2 0
0 -2 -1 -3 -2z"/><path d="M145 166 c-1 -2 -1 -2 1 -4 l2 -2 2 2 c2 2 2 2 1 4 -1 1 -3 2 -3 2 0
0 -2 -1 -3 -2z"/><path d="M353 166 c-1 -2 -1 -2 1 -4 l2 -2 2 2 c2 2 2 2 1 4 -1 1 -3 2 -3 2 0
0 -2 -1 -3 -2z"/><path d="M185 150 c-1 -2 -1 -2 1 -4 l2 -2 2 2 c2 2 2 2 1 4 -1 1 -3 2 -3 2 0
0 -2 -1 -3 -2z"/><path d="M313 150 c-1 -2 -1 -2 1 -4 l2 -2 2 2 c2 2 2 2 1 4 -1 1 -3 2 -3 2 0
0 -2 -1 -3 -2z"/><path d="M298 142 c-3 -3 -3 -10 0 -12 3 -3 6 0 6 6 0 7 -3 10 -6 6z"/><path d="M273 94 c-1 -2 -1 -2 1 -4 l2 -2 2 2 c2 2 2 2 1 4 -1 1 -3 2 -3 2 0
0 -2 -1 -3 -2z"/><path d="M233 86 c-1 -2 -1 -2 1 -4 l2 -2 2 2 c2 2 2 2 1 4 -1 1 -3 2 -3 2 0
0 -2 -1 -3 -2z"/></g>
  <g transform="scale(0.125 0.125) translate(0.000000,512.000000) scale(1.000000,-1.000000)" fill="#c51370" stroke="none"><path d="M194 406 c-3 -3 0 -6 6 -6 3 0 5 1 7 2 2 3 -1 6 -7 6 -3 0 -5 -1 -6
-2z"/><path d="M298 406 c-3 -3 0 -6 6 -6 6 0 9 3 7 6 -2 1 -4 2 -7 2 -3 0 -5 -1 -6
-2z"/><path d="M177 398 c-1 -2 -1 -2 1 -4 l2 -2 2 2 c2 2 2 2 1 4 -1 1 -3 2 -3 2 0
0 -2 -1 -3 -2z"/><path d="M281 398 c-1 -2 -1 -2 1 -4 l2 -2 2 2 c2 2 2 2 1 4 -1 1 -3 2 -3 2 0
0 -2 -1 -3 -2z"/><path d="M322 398 c-2 -2 -2 -2 0 -4 0 -1 2 -2 4 -2 1 0 2 -1 2 -2 0 -2 1 -4
2 -5 2 -1 2 -1 4 1 2 2 2 2 1 4 -1 1 -3 2 -5 2 -1 0 -2 1 -2 2 0 2 -3 6 -4 6
0 0 -2 -1 -2 -2z"/><path d="M233 382 c-1 -2 -1 -2 1 -4 l2 -2 2 2 c2 2 2 2 1 4 -1 1 -3 2 -3 2 0
0 -2 -1 -3 -2z"/><path d="M265 374 c-1 -2 -1 -2 1 -4 l2 -2 2 2 c2 2 2 2 1 4 -1 1 -3 2 -3 2 0
0 -2 -1 -3 -2z"/><path d="M242 366 c-2 -2 -2 -2 0 -4 0 -1 2 -2 4 -2 1 0 2 -1 2 -2 0 -2 1 -4
2 -5 2 -1 2 -1 4 1 2 2 2 2 1 4 -1 1 -3 2 -5 2 -1 0 -2 1 -2 2 0 2 -3 6 -4 6
0 0 -2 -1 -2 -2z"/><path d="M169 358 c-1 -2 -1 -2 1 -4 l2 -2 2 2 c2 2 2 2 1 4 -1 1 -3 2 -3 2 0
0 -2 -1 -3 -2z"/><path d="M329 350 c-1 -2 -1 -2 1 -4 l2 -2 2 2 c2 2 2 2 1 4 -1 1 -3 2 -3 2 0
0 -2 -1 -3 -2z"/><path d="M177 342 c-1 -2 -1 -2 1 -4 l2 -2 2 2 c2 2 2 2 1 4 -1 1 -3 2 -3 2 0
0 -2 -1 -3 -2z"/><path d="M322 334 c-1 -1 -2 -3 -2 -4 0 -1 -1 -2 -2 -2 -2 0 -4 -1 -5 -2 -1
-2 -1 -2 1 -4 2 -2 2 -2 4 -1 1 1 2 3 2 5 0 1 1 2 2 2 2 0 4 1 5 2 1 2 1 2 0
4 -3 2 -3 2 -5 0z"/><path d="M185 326 c-1 -2 -1 -2 1 -4 l2 -2 2 2 c2 2 2 2 1 4 -1 1 -3 2 -3 2 0
0 -2 -1 -3 -2z"/><path d="M297 302 c-1 -2 -1 -2 1 -4 l2 -2 2 2 c2 2 2 2 1 4 -1 1 -3 2 -3 2 0
0 -2 -1 -3 -2z"/><path d="M209 294 c-1 -2 -1 -2 1 -4 l2 -2 2 2 c2 2 2 2 1 4 -1 1 -3 2 -3 2 0
0 -2 -1 -3 -2z"/></g>
</svg>
