<?xml version="1.0" encoding="UTF-8"?>
<svg xmlns="http://www.w3.org/2000/svg" viewBox="0 0 64 64" width="64" height="64">
  <g transform="scale(0.125 0.125) translate(0.000000,512.000000) scale(1.000000,-1.000000)" fill="#ffffff" stroke="none"><path d="M192 484 l-3 -4 -9 0 -9 0 -3 -4 c-3 -4 -4 -4 -8 -4 -4 0 -5 0 -8 -4
-3 -4 -4 -4 -8 -4 -4 0 -5 0 -8 -4 -3 -4 -4 -4 -8 -4 -4 0 -4 0 -16 -12 -12
-12 -12 -12 -16 -12 -6 0 -8 -2 -8 -8 0 -4 0 -5 -12 -16 -12 -12 -12 -12 -12
-16 0 -4 0 -5 -4 -8 l-4 -3 0 -9 0 -9 -4 -3 -4 -3 0 -49 0 -49 4 -3 c4 -3 4
-4 4 -8 0 -4 0 -5 4 -8 4 -3 4 -4 4 -8 0 -4 0 -5 4 -8 4 -3 4 -4 4 -8 l0 -4
22 -22 c22 -22 22 -22 26 -22 4 0 5 0 12 -8 7 -8 8 -8 12 -8 4 0 5 0 8 -4 l3
-4 9 0 9 0 3 -4 c3 -4 4 -4 8 -4 6 0 16 -10 16 -16 0 -4 0 -5 8 -12 8 -7 8 -8
8 -12 0 -4 0 -5 4 -8 4 -3 4 -4 4 -8 0 -4 0 -5 4 -8 4 -3 4 -4 4 -8 0 -4 0 -5
8 -12 8 -7 8 -8 8 -12 0 -3 1 -5 2 -6 2 -2 2 -2 8 4 6 5 6 6 6 10 0 4 0 5 4 8
4 3 4 4 4 8 0 4 0 5 8 12 8 7 8 8 8 12 0 4 0 5 4 8 4 3 4 4 4 8 0 4 0 5 4 8 4
3 4 4 4 8 0 4 0 5 6 10 5 6 6 6 10 6 4 0 5 0 8 4 l3 4 9 0 9 0 3 4 c3 4 4 4 8
4 4 0 5 0 12 8 7 8 8 8 12 8 4 0 4 0 26 22 22 22 22 22 22 26 0 4 0 5 8 12 l8
8 0 8 0 9 4 3 4 3 0 9 0 9 4 3 4 3 0 25 0 25 -4 3 -4 3 0 13 0 13 -4 3 c-4 3
-4 4 -4 8 0 4 0 5 -4 8 -4 3 -4 4 -4 8 0 4 0 5 -8 12 -8 7 -8 8 -8 12 0 4 0 5
-10 14 -9 10 -10 10 -14 10 -4 0 -5 0 -12 8 -7 8 -8 8 -12 8 -4 0 -5 0 -8 4
-3 4 -4 4 -8 4 -4 0 -5 0 -8 4 -3 4 -4 4 -8 4 -4 0 -5 0 -8 4 l-3 4 -9 0 -9 0
-3 4 -3 4 -57 0 -57 0 -3 -4z"/></g>
  <g transform="scale(0.125 0.125) translate(0.000000,512.000000) scale(1.000000,-1.000000)" fill="#fd2592" stroke="none"><path d="M192 484 l-3 -4 -9 0 -9 0 -3 -4 c-3 -4 -4 -4 -8 -4 -4 0 -5 0 -8 -4
-3 -4 -4 -4 -8 -4 -4 0 -5 0 -8 -4 -3 -4 -4 -4 -8 -4 -4 0 -4 0 -16 -12 -12
-12 -12 -12 -16 -12 -6 0 -8 -2 -8 -8 0 -4 0 -5 -12 -16 -12 -12 -12 -12 -12
-16 0 -4 0 -5 -4 -8 l-4 -3 0 -9 0 -9 -4 -3 -4 -3 0 -49 0 -49 4 -3 c4 -3 4
-4 4 -8 0 -4 0 -5 4 -8 4 -3 4 -4 4 -8 0 -4 0 -5 4 -8 4 -3 4 -4 4 -8 l0 -4
22 -22 c22 -22 22 -22 26 -22 4 0 5 0 12 -8 7 -8 8 -8 12 -8 4 0 5 0 8 -4 l3
-4 9 0 9 0 3 -4 c3 -4 4 -4 8 -4 6 0 16 -10 16 -16 0 -4 0 -5 8 -12 8 -7 8 -8
8 -12 0 -4 0 -5 4 -8 4 -3 4 -4 4 -8 0 -4 0 -5 4 -8 4 -3 4 -4 4 -8 0 -4 0 -5
8 -12 8 -7 8 -8 8 -12 0 -3 1 -5 2 -6 2 -2 2 -2 8 4 6 5 6 6 6 10 0 4 0 5 4 8
4 3 4 4 4 8 0 4 0 5 8 12 8 7 8 8 8 12 0 4 0 5 4 8 4 3 4 4 4 8 0 4 0 5 4 8 4
3 4 4 4 8 0 4 0 5 6 10 5 6 6 6 10 6 4 0 5 0 8 4 l3 4 9 0 9 0 3 4 c3 4 4 4 8
4 4 0 5 0 12 8 7 8 8 8 12 8 4 0 4 0 26 22 22 22 22 22 22 26 0 4 0 5 8 12 l8
8 0 8 0 9 4 3 4 3 0 9 0 9 4 3 4 3 0 25 0 25 -4 3 -4 3 0 13 0 13 -4 3 c-4 3
-4 4 -4 8 0 4 0 5 -4 8 -4 3 -4 4 -4 8 0 4 0 5 -8 12 -8 7 -8 8 -8 12 0 4 0 5
-10 14 -9 10 -10 10 -14 10 -4 0 -5 0 -12 8 -7 8 -8 8 -12 8 -4 0 -5 0 -8 4
-3 4 -4 4 -8 4 -4 0 -5 0 -8 4 -3 4 -4 4 -8 4 -4 0 -5 0 -8 4 l-3 4 -9 0 -9 0
-3 4 -3 4 -57 0 -57 0 -3 -4z m64 -8 l3 -4 21 0 21 0 3 -4 3 -4 9 0 9 0 3 -4
c3 -4 4 -4 8 -4 4 0 5 0 8 -4 3 -4 4 -4 8 -4 4 0 5 0 12 -8 7 -8 8 -8 12 -8 4
0 5 0 18 -14 14 -13 14 -14 14 -18 0 -4 0 -5 8 -12 8 -7 8 -8 8 -12 0 -4 0 -5
4 -8 4 -3 4 -4 4 -8 0 -4 0 -5 4 -8 l4 -3 0 -37 0 -37 -4 -3 -4 -3 0 -9 0 -8
-8 -8 c-8 -7 -8 -8 -8 -12 0 -4 0 -4 -22 -26 l-22 -22 -4 0 c-4 0 -5 0 -8 -4
-3 -4 -4 -4 -8 -4 -4 0 -5 0 -8 -4 -3 -4 -4 -4 -8 -4 -4 0 -5 0 -8 -4 l-3 -4
-9 0 -8 0 -6 -6 c-6 -5 -6 -6 -6 -10 0 -4 0 -5 -4 -8 -4 -3 -4 -4 -4 -8 0 -4
0 -5 -8 -12 -8 -7 -8 -8 -8 -12 0 -4 0 -5 -8 -12 -8 -7 -8 -8 -8 -12 0 -3 -1
-5 -2 -6 -3 -3 -6 0 -6 6 0 4 0 5 -8 12 -8 7 -8 8 -8 12 0 4 0 5 -4 8 -4 3 -4
4 -4 8 0 4 0 5 -4 8 -4 3 -4 4 -4 8 0 4 0 4 -10 14 l-10 10 -8 0 -9 0 -3 4
c-3 4 -4 4 -8 4 -4 0 -5 0 -8 4 -3 4 -4 4 -8 4 -4 0 -5 0 -12 8 -7 8 -8 8 -12
8 -4 0 -4 0 -22 18 -18 18 -18 18 -18 22 0 4 0 5 -4 8 -4 3 -4 4 -4 8 0 4 0 5
-4 8 -4 3 -4 4 -4 8 0 4 0 5 -4 8 l-4 3 0 37 0 37 4 3 4 3 0 9 0 8 12 12 c12
11 12 12 12 16 0 4 1 5 10 14 9 9 10 10 14 10 4 0 5 0 16 12 12 12 12 12 16
12 4 0 5 0 8 4 3 4 4 4 8 4 4 0 5 0 8 4 l3 4 9 0 9 0 3 4 3 4 21 0 21 0 3 4
c2 2 4 4 4 4 0 0 2 -2 4 -4z"/><path d="M168 436 c-3 -4 -4 -4 -8 -4 -4 0 -4 0 -14 -10 -10 -10 -10 -10 -10
-14 0 -4 0 -5 -4 -8 l-4 -3 0 -13 0 -13 4 -3 4 -3 0 -9 0 -8 8 -8 c8 -7 8 -8
8 -12 0 -4 0 -5 4 -8 4 -3 4 -4 4 -8 0 -4 0 -4 12 -16 12 -12 12 -12 12 -16 0
-6 2 -8 8 -8 6 0 8 -2 8 -8 0 -4 0 -5 8 -12 8 -7 8 -8 8 -12 0 -4 0 -5 4 -8 4
-3 4 -4 4 -8 0 -4 0 -5 8 -12 l8 -8 0 -12 c0 -16 0 -16 12 -16 11 0 12 1 12
12 l0 9 4 3 c4 3 4 4 4 8 0 4 0 5 4 8 4 3 4 4 4 8 0 4 0 5 4 8 4 3 4 4 4 8 0
6 2 8 8 8 6 0 8 2 8 8 0 4 0 5 12 16 12 11 12 12 12 16 0 4 0 5 8 12 8 7 8 8
8 12 0 4 0 5 8 12 8 7 8 8 8 12 0 4 0 5 4 8 4 3 4 4 4 8 0 4 0 5 4 8 l4 3 0
21 0 20 -14 14 c-14 14 -14 14 -18 14 -4 0 -5 0 -8 4 l-3 4 -21 0 -21 0 -3 -4
c-3 -4 -4 -4 -8 -4 -4 0 -5 0 -10 -6 -6 -5 -6 -6 -6 -10 0 -6 -2 -8 -8 -8 -4
0 -5 0 -16 12 -12 12 -12 12 -16 12 -4 0 -5 0 -8 4 l-3 4 -21 0 -21 0 -3 -4z"/><path d="M249 142 c-1 -2 -1 -2 1 -4 l2 -2 2 2 c2 2 2 2 1 4 -1 1 -3 2 -3 2 0
0 -2 -1 -3 -2z"/></g>
  <g transform="scale(0.125 0.125) translate(0.000000,512.000000) scale(1.000000,-1.000000)" fill="#464646" stroke="none"><path d="M192 484 l-3 -4 -9 0 -9 0 -3 -4 c-3 -4 -4 -4 -8 -4 -4 0 -5 0 -8 -4
-3 -4 -4 -4 -8 -4 -4 0 -5 0 -8 -4 -3 -4 -4 -4 -8 -4 -4 0 -4 0 -16 -12 -12
-12 -12 -12 -16 -12 -6 0 -8 -2 -8 -8 0 -4 0 -5 -12 -16 -12 -12 -12 -12 -12
-16 0 -4 0 -5 -4 -8 l-4 -3 0 -9 0 -9 -4 -3 -4 -3 0 -49 0 -49 4 -3 c4 -3 4
-4 4 -8 0 -4 0 -5 4 -8 4 -3 4 -4 4 -8 0 -4 0 -5 4 -8 4 -3 4 -4 4 -8 l0 -4
22 -22 c22 -22 22 -22 26 -22 4 0 5 0 12 -8 7 -8 8 -8 12 -8 4 0 5 0 8 -4 l3
-4 9 0 9 0 3 -4 c3 -4 4 -4 8 -4 6 0 16 -10 16 -16 0 -4 0 -5 8 -12 8 -7 8 -8
8 -12 0 -4 0 -5 4 -8 4 -3 4 -4 4 -8 0 -4 0 -5 4 -8 4 -3 4 -4 4 -8 0 -4 0 -5
8 -12 8 -7 8 -8 8 -12 0 -3 1 -5 2 -6 2 -2 2 -2 8 4 6 5 6 6 6 10 0 4 0 5 4 8
4 3 4 4 4 8 0 4 0 5 8 12 8 7 8 8 8 12 0 4 0 5 4 8 4 3 4 4 4 8 0 4 0 5 4 8 4
3 4 4 4 8 0 4 0 5 6 10 5 6 6 6 10 6 4 0 5 0 8 4 l3 4 9 0 9 0 3 4 c3 4 4 4 8
4 4 0 5 0 12 8 7 8 8 8 12 8 4 0 4 0 26 22 22 22 22 22 22 26 0 4 0 5 8 12 l8
8 0 8 0 9 4 3 4 3 0 9 0 9 4 3 4 3 0 25 0 25 -4 3 -4 3 0 13 0 13 -4 3 c-4 3
-4 4 -4 8 0 4 0 5 -4 8 -4 3 -4 4 -4 8 0 4 0 5 -8 12 -8 7 -8 8 -8 12 0 4 0 5
-10 14 -9 10 -10 10 -14 10 -4 0 -5 0 -12 8 -7 8 -8 8 -12 8 -4 0 -5 0 -8 4
-3 4 -4 4 -8 4 -4 0 -5 0 -8 4 -3 4 -4 4 -8 4 -4 0 -5 0 -8 4 l-3 4 -9 0 -9 0
-3 4 -3 4 -57 0 -57 0 -3 -4z m64 -8 l3 -4 21 0 21 0 3 -4 3 -4 9 0 9 0 3 -4
c3 -4 4 -4 8 -4 4 0 5 0 8 -4 3 -4 4 -4 8 -4 4 0 5 0 12 -8 7 -8 8 -8 12 -8 4
0 5 0 18 -14 14 -13 14 -14 14 -18 0 -4 0 -5 8 -12 8 -7 8 -8 8 -12 0 -4 0 -5
4 -8 4 -3 4 -4 4 -8 0 -4 0 -5 4 -8 l4 -3 0 -37 0 -37 -4 -3 -4 -3 0 -9 0 -8
-8 -8 c-8 -7 -8 -8 -8 -12 0 -4 0 -4 -22 -26 l-22 -22 -4 0 c-4 0 -5 0 -8 -4
-3 -4 -4 -4 -8 -4 -4 0 -5 0 -8 -4 -3 -4 -4 -4 -8 -4 -4 0 -5 0 -8 -4 l-3 -4
-9 0 -8 0 -6 -6 c-6 -5 -6 -6 -6 -10 0 -4 0 -5 -4 -8 -4 -3 -4 -4 -4 -8 0 -4
0 -5 -8 -12 -8 -7 -8 -8 -8 -12 0 -4 0 -5 -8 -12 -8 -7 -8 -8 -8 -12 0 -3 -1
-5 -2 -6 -3 -3 -6 0 -6 6 0 4 0 5 -8 12 -8 7 -8 8 -8 12 0 4 0 5 -4 8 -4 3 -4
4 -4 8 0 4 0 5 -4 8 -4 3 -4 4 -4 8 0 4 0 4 -10 14 l-10 10 -8 0 -9 0 -3 4
c-3 4 -4 4 -8 4 -4 0 -5 0 -8 4 -3 4 -4 4 -8 4 -4 0 -5 0 -12 8 -7 8 -8 8 -12
8 -4 0 -4 0 -22 18 -18 18 -18 18 -18 22 0 4 0 5 -4 8 -4 3 -4 4 -4 8 0 4 0 5
-4 8 -4 3 -4 4 -4 8 0 4 0 5 -4 8 l-4 3 0 37 0 37 4 3 4 3 0 9 0 8 12 12 c12
11 12 12 12 16 0 4 1 5 10 14 9 9 10 10 14 10 4 0 5 0 16 12 12 12 12 12 16
12 4 0 5 0 8 4 3 4 4 4 8 4 4 0 5 0 8 4 l3 4 9 0 9 0 3 4 3 4 21 0 21 0 3 4
c2 2 4 4 4 4 0 0 2 -2 4 -4z"/><path d="M168 436 c-3 -4 -4 -4 -8 -4 -4 0 -4 0 -14 -10 -10 -10 -10 -10 -10
-14 0 -4 0 -5 -4 -8 l-4 -3 0 -13 0 -13 4 -3 4 -3 0 -9 0 -8 8 -8 c8 -7 8 -8
8 -12 0 -4 0 -5 4 -8 4 -3 4 -4 4 -8 0 -4 0 -4 12 -16 12 -12 12 -12 12 -16 0
-6 2 -8 8 -8 6 0 8 -2 8 -8 0 -4 0 -5 8 -12 8 -7 8 -8 8 -12 0 -4 0 -5 4 -8 4
-3 4 -4 4 -8 0 -4 0 -5 8 -12 l8 -8 0 -12 c0 -16 0 -16 12 -16 11 0 12 1 12
12 l0 9 4 3 c4 3 4 4 4 8 0 4 0 5 4 8 4 3 4 4 4 8 0 4 0 5 4 8 4 3 4 4 4 8 0
6 2 8 8 8 6 0 8 2 8 8 0 4 0 5 12 16 12 11 12 12 12 16 0 4 0 5 8 12 8 7 8 8
8 12 0 4 0 5 8 12 8 7 8 8 8 12 0 4 0 5 4 8 4 3 4 4 4 8 0 4 0 5 4 8 l4 3 0
21 0 20 -14 14 c-14 14 -14 14 -18 14 -4 0 -5 0 -8 4 l-3 4 -21 0 -21 0 -3 -4
c-3 -4 -4 -4 -8 -4 -4 0 -5 0 -10 -6 -6 -5 -6 -6 -6 -10 0 -6 -2 -8 -8 -8 -4
0 -5 0 -16 12 -12 12 -12 12 -16 12 -4 0 -5 0 -8 4 l-3 4 -21 0 -21 0 -3 -4z
m80 -72 c3 -4 4 -4 8 -4 4 0 5 0 8 4 l4 5 4 -5 4 -4 28 0 c34 0 32 1 32 -12
l0 -8 -8 -8 c-8 -7 -8 -8 -8 -12 0 -4 0 -4 -16 -20 -16 -15 -16 -16 -16 -20 0
-4 -1 -5 -10 -14 l-10 -10 -16 0 -16 0 -10 10 c-9 9 -10 10 -10 14 0 4 0 5
-12 16 -12 11 -12 12 -12 16 0 4 0 5 -12 16 l-12 12 0 8 c0 13 -3 12 36 12
l33 0 3 4 c2 2 4 4 4 4 0 0 2 -2 4 -4z"/><path d="M249 142 c-1 -2 -1 -2 1 -4 l2 -2 2 2 c2 2 2 2 1 4 -1 1 -3 2 -3 2 0
0 -2 -1 -3 -2z"/></g>
  <g transform="scale(0.125 0.125) translate(0.000000,512.000000) scale(1.000000,-1.000000)" fill="#fa0a83" stroke="none"><path d="M224 484 c-3 -4 -4 -4 -8 -4 -6 0 -9 -3 -6 -6 1 -2 3 -2 18 -2 15 0
17 0 19 2 2 3 -1 6 -7 6 -4 0 -5 0 -8 4 -2 2 -4 4 -4 4 0 0 -2 -2 -4 -4z"/><path d="M262 482 c-6 -6 -6 -6 -4 -8 2 -3 34 -3 37 0 2 3 -1 6 -7 6 -4 0 -5
0 -8 4 -3 4 -4 4 -8 4 -4 0 -5 -1 -10 -6z"/><path d="M162 470 c-2 -1 -2 -3 -2 -8 l0 -6 -6 0 c-7 0 -10 -2 -10 -6 0 -2 0
-2 -8 -2 -8 0 -8 0 -8 2 0 2 -1 4 -2 5 -2 1 -2 1 -4 0 -1 -1 -2 -3 -2 -5 0 -1
-1 -2 -2 -2 -3 0 -6 -3 -6 -6 0 -1 -1 -2 -2 -2 -4 0 -6 -3 -6 -8 0 -6 -2 -8
-8 -8 -7 0 -8 -2 -8 -12 0 -7 0 -9 -2 -10 -3 -3 -6 -3 -6 0 0 2 -1 4 -2 5 -2
1 -2 1 -4 0 -1 -1 -2 -3 -2 -5 0 -1 -1 -2 -2 -2 -4 0 -6 -3 -6 -10 0 -6 0 -6
-2 -6 -2 0 -4 -1 -4 -2 -2 -2 -2 -2 0 -4 0 -1 2 -2 4 -2 2 0 2 0 2 -6 0 -8 -2
-10 -8 -10 -3 0 -5 -1 -7 -2 -1 -2 -1 -2 3 -6 l4 -3 0 -43 0 -42 -2 0 c-2 0
-4 -1 -5 -2 -1 -2 -1 -2 1 -4 2 -2 2 -2 4 -1 1 1 2 3 2 5 0 1 1 2 2 2 4 0 6
-3 6 -10 0 -6 0 -6 -2 -6 -2 0 -4 -1 -5 -2 -1 -2 -1 -2 1 -4 2 -2 2 -2 4 -1 1
1 2 3 2 5 0 1 1 2 2 2 4 0 6 -3 6 -10 0 -6 0 -6 -2 -6 -2 0 -4 -1 -5 -2 -1 -2
-1 -2 1 -4 2 -2 2 -2 4 -1 1 1 2 3 2 5 0 1 1 2 2 2 4 0 6 -3 6 -8 0 -4 0 -5
-4 -8 l-4 -4 6 -6 c3 -3 7 -6 8 -6 1 0 2 -1 2 -2 0 -3 3 -6 6 -6 1 0 2 -1 2
-2 0 -3 3 -6 6 -6 1 0 2 -1 2 -2 0 -4 3 -6 8 -6 4 0 5 0 8 -4 2 -3 4 -4 6 -4
1 0 2 -1 2 -2 0 -4 3 -6 8 -6 4 0 5 0 8 -4 l4 -4 4 4 c4 4 4 4 6 3 1 -2 2 -4
2 -7 0 -6 2 -8 10 -8 6 0 6 0 6 -2 0 -4 3 -6 8 -6 6 0 16 -10 16 -16 0 -4 1
-5 6 -10 3 -4 7 -6 8 -6 2 0 2 -1 2 -6 0 -7 2 -10 6 -10 2 0 2 0 2 -6 0 -7 0
-7 4 -10 4 -3 4 -4 4 -8 0 -4 0 -5 8 -12 8 -7 8 -8 8 -12 0 -3 1 -5 2 -6 2 -2
2 -2 8 4 l6 6 0 6 c0 6 0 6 2 6 4 0 6 3 6 10 0 5 0 6 2 6 1 0 5 2 8 6 l6 6 0
6 c0 6 0 6 2 6 4 0 6 3 6 8 0 4 0 5 4 8 4 3 4 4 4 8 0 4 0 5 6 10 5 6 6 6 10
6 5 0 8 2 8 6 0 2 0 2 10 2 l11 0 3 4 c3 4 4 4 8 4 4 0 5 0 10 6 4 3 6 7 6 8
0 2 1 2 6 2 l6 0 6 6 c4 3 6 7 6 8 0 1 1 2 2 2 3 0 6 3 6 6 0 1 1 2 2 2 3 0 6
3 6 6 0 1 1 2 2 2 3 0 6 3 6 6 0 1 1 2 2 2 4 0 6 3 6 10 0 6 0 6 2 6 3 0 6 3
6 6 0 1 1 2 2 2 4 0 6 3 6 8 0 4 0 5 -4 8 -4 3 -4 4 -4 8 0 3 1 5 2 7 2 1 2 1
6 -3 4 -4 4 -4 6 -3 1 2 2 4 2 7 0 4 0 5 -4 8 l-4 3 0 13 c0 11 0 13 2 14 2 2
2 2 4 1 2 -2 2 -4 2 -11 0 -7 0 -9 2 -10 2 -2 2 -2 4 -1 3 3 3 51 0 54 -3 2
-6 -1 -6 -7 0 -6 -3 -9 -6 -6 -2 1 -2 3 -2 14 l0 13 4 3 c4 3 4 4 4 8 0 3 -1
5 -2 7 -2 1 -2 1 -6 -3 -4 -4 -4 -4 -6 -3 -3 3 -3 15 0 15 2 0 4 1 5 2 1 2 1
2 -1 4 -2 2 -2 2 -4 1 -1 -1 -2 -3 -2 -5 0 -1 -1 -2 -2 -2 -4 0 -6 3 -6 10 0
6 0 6 2 6 2 0 4 1 5 2 1 2 1 2 0 4 -1 1 -3 2 -5 2 -1 0 -2 1 -2 2 0 2 -1 4 -2
5 -2 1 -2 1 -4 -1 -1 0 -2 -2 -2 -4 0 -1 -1 -2 -2 -2 -5 0 -6 3 -6 12 l0 8
-10 10 c-6 6 -11 10 -12 10 -1 0 -2 1 -2 2 0 3 -3 6 -6 6 -1 0 -2 1 -2 2 0 4
-3 6 -8 6 -4 0 -5 0 -8 -4 -4 -5 -8 -6 -8 -2 0 4 -3 6 -10 6 l-6 0 0 6 c0 6 0
7 -2 9 -2 1 -2 1 -6 -3 -4 -5 -8 -6 -8 -2 0 5 -3 6 -12 6 -7 0 -9 0 -10 -2 -2
-2 -2 -2 0 -4 1 -2 3 -2 12 -2 10 0 10 0 10 -2 0 -4 3 -6 10 -6 6 0 6 0 6 -2
0 -4 3 -6 10 -6 5 0 6 0 6 -2 0 -1 2 -5 6 -8 l6 -6 6 0 c5 0 6 0 6 -2 0 -2 4
-6 12 -14 12 -11 12 -12 12 -16 0 -4 0 -5 8 -12 8 -7 8 -8 8 -12 0 -4 0 -5 4
-8 4 -3 4 -4 4 -8 0 -4 0 -5 4 -8 l4 -3 0 -37 0 -37 -4 -3 -4 -3 0 -9 0 -8 -8
-8 c-8 -7 -8 -8 -8 -12 0 -4 0 -4 -22 -26 l-22 -22 -4 0 c-4 0 -5 0 -8 -4 -3
-4 -4 -4 -8 -4 -4 0 -5 0 -8 -4 -3 -4 -4 -4 -8 -4 -4 0 -5 0 -8 -4 l-3 -4 -9
0 -8 0 -6 -6 c-6 -5 -6 -6 -6 -10 0 -4 0 -5 -4 -8 -4 -3 -4 -4 -4 -8 0 -4 0
-5 -8 -12 -8 -7 -8 -8 -8 -12 0 -4 0 -5 -8 -12 -8 -7 -8 -8 -8 -12 0 -6 -3 -9
-6 -7 -1 2 -2 4 -2 7 0 4 0 5 -6 10 -3 4 -7 6 -8 6 -2 0 -2 1 -2 6 0 7 -2 10
-6 10 -2 0 -2 0 -2 6 0 7 0 7 -4 10 -4 3 -4 4 -4 8 0 5 -2 8 -6 8 -1 0 -2 1
-2 2 0 1 -2 5 -6 8 l-6 6 -8 0 -9 0 -3 4 c-3 4 -4 4 -8 4 -4 0 -5 0 -8 4 -3 4
-4 4 -8 4 -4 0 -5 0 -12 8 -7 8 -8 8 -12 8 -4 0 -4 0 -22 18 -18 18 -18 18
-18 22 0 4 0 5 -4 8 -4 3 -4 4 -4 8 0 4 0 5 -4 8 -4 3 -4 4 -4 8 0 4 0 5 -4 8
l-4 3 0 37 0 37 4 3 4 3 0 11 c0 9 0 10 2 10 1 0 6 4 12 10 9 9 10 10 10 14 0
4 1 5 10 14 9 9 10 10 14 10 4 0 5 1 14 10 6 6 10 11 10 12 0 2 1 2 6 2 7 0
10 2 10 6 0 2 0 2 6 2 7 0 10 2 10 6 0 2 0 2 10 2 9 0 11 0 13 2 1 2 1 2 0 4
-2 2 -4 2 -11 2 -9 0 -12 -1 -12 -6 0 -4 -4 -3 -8 2 -4 5 -4 5 -6 2z m-34 -24
c0 -3 -3 -6 -6 -6 -1 0 -2 -1 -2 -2 0 -2 -1 -4 -2 -4 -2 -2 -2 -2 -4 0 -4 3
-3 6 2 6 l4 0 0 4 0 4 4 0 c3 0 4 0 4 -2z m256 -2 l0 -4 4 0 c3 0 4 0 4 -2 0
-3 -3 -6 -6 -6 -2 0 -2 0 -2 4 0 4 0 4 -2 4 -2 0 -4 1 -4 2 -2 2 -2 2 0 4 3 4
6 3 6 -2z m-304 -46 c0 -2 -1 -4 -2 -4 -2 -2 -2 -2 -4 0 -4 3 -3 6 2 6 4 0 4
0 4 -2z m352 -2 c0 -3 0 -4 -2 -4 -3 0 -6 3 -6 6 0 2 0 2 4 2 l4 0 0 -4z
m-362 -14 c1 -1 2 -2 2 -4 0 -2 0 -2 -4 -2 l-4 0 0 4 c0 5 3 6 6 2z m368 -144
c1 -1 2 -2 2 -4 0 -2 0 -2 -4 -2 l-4 0 0 -4 c0 -5 -3 -6 -6 -2 -2 2 -2 2 0 4
0 1 2 2 4 2 1 0 2 1 2 2 0 2 3 6 4 6 0 0 1 -1 2 -2z m-16 -24 c1 -1 2 -2 2 -4
0 -2 0 -2 -4 -2 l-4 0 0 -4 0 -4 -4 0 -4 0 0 -4 0 -4 -4 0 -4 0 0 -4 c0 -5 -3
-6 -6 -2 -2 2 -2 2 0 4 0 1 2 2 4 2 1 0 2 1 2 2 0 3 3 6 6 6 1 0 2 1 2 2 0 3
3 6 6 6 1 0 2 1 2 2 0 2 3 6 4 6 0 0 1 -1 2 -2z m-328 -8 c1 -1 2 -2 2 -4 0
-1 1 -2 2 -2 3 0 6 -3 6 -6 0 -1 1 -2 2 -2 2 0 4 -1 5 -2 1 -2 1 -2 0 -4 -4
-4 -7 -3 -7 2 l0 4 -4 0 -4 0 0 4 0 4 -4 0 c-5 0 -6 3 -2 6 2 2 2 2 4 0z m41
-32 c1 -2 1 -2 0 -4 -3 -3 -7 -3 -7 0 0 2 3 6 4 6 0 0 2 -1 3 -2z m239 0 c1
-1 2 -2 2 -4 0 -3 -4 -3 -6 0 -2 2 -2 2 0 4 2 2 2 2 4 0z m-191 -24 c1 -2 1
-2 0 -4 -3 -3 -7 -3 -7 0 0 2 3 6 4 6 0 0 2 -1 3 -2z m143 0 c1 -1 2 -2 2 -4
0 -3 -4 -3 -6 0 -2 2 -2 2 0 4 2 2 2 2 4 0z m-118 -8 c0 -2 -1 -4 -2 -5 -2 -1
-2 -1 -4 1 -2 2 -2 2 -1 4 3 3 7 3 7 0z m16 -32 c0 -3 -3 -6 -6 -6 -3 0 -3 3
0 6 2 3 6 3 6 0z m62 -8 c1 -1 2 -2 2 -4 0 -3 -4 -3 -6 0 -2 2 -2 2 0 4 2 2 2
2 4 0z m-54 -8 c0 -3 -3 -6 -6 -6 -3 0 -3 3 0 6 2 3 6 3 6 0z m38 -16 c1 -1 2
-2 2 -4 0 -3 -4 -3 -6 0 -2 2 -2 2 0 4 2 2 2 2 4 0z m-8 -16 c1 -1 2 -2 2 -4
0 -2 0 -2 -6 -2 -8 0 -12 3 -8 6 2 3 9 3 12 0z"/><path d="M168 436 c-3 -4 -4 -4 -8 -4 -5 0 -8 -2 -8 -6 0 -1 -1 -2 -2 -2 -3 0
-6 -3 -6 -6 0 -1 -1 -2 -2 -2 -4 0 -6 -3 -6 -8 0 -4 0 -5 -4 -8 l-4 -3 0 -13
c0 -14 1 -16 6 -16 2 0 2 0 2 -10 0 -12 1 -14 6 -14 1 0 2 -1 2 -2 0 -2 1 -4
4 -6 4 -3 4 -4 4 -8 0 -5 2 -8 6 -8 2 0 2 -1 2 -6 l0 -6 6 -6 c3 -4 7 -6 8 -6
1 0 2 -1 2 -2 0 -2 1 -4 4 -6 4 -3 4 -4 4 -8 0 -6 2 -8 8 -8 6 0 8 -2 8 -8 0
-5 2 -8 6 -8 1 0 2 -1 2 -2 0 -2 1 -4 4 -6 4 -3 4 -4 4 -8 0 -5 2 -8 6 -8 2 0
2 0 2 -6 0 -7 2 -10 6 -10 1 0 2 -1 2 -2 0 -2 1 -4 4 -6 l4 -3 0 -13 c0 -16 0
-16 12 -16 12 0 12 0 12 14 0 10 0 10 2 10 4 0 6 3 6 10 0 6 0 6 2 6 4 0 6 3
6 8 0 4 0 5 4 8 l5 4 -5 4 c-4 4 -4 4 -3 6 2 2 3 2 11 2 11 0 12 1 12 10 0 6
0 6 2 6 3 0 6 3 6 6 0 1 1 2 2 2 1 0 5 2 8 6 6 5 6 6 6 10 0 4 0 5 4 8 3 2 4
4 4 6 0 1 1 2 2 2 4 0 6 3 6 8 0 4 0 5 4 8 3 2 4 4 4 6 0 1 1 2 2 2 4 0 6 3 6
8 0 4 0 5 4 8 4 3 4 3 4 10 0 6 0 6 2 6 6 0 6 2 6 24 l0 20 -14 14 -14 14 -4
-4 c-4 -4 -4 -4 -6 -3 -1 2 -2 4 -2 7 0 3 -1 5 -2 7 -2 1 -2 1 -6 -3 l-3 -4
-9 0 -9 0 -3 4 c-3 4 -4 4 -8 4 -4 0 -5 0 -8 -4 -3 -4 -4 -4 -8 -4 -5 0 -8 -2
-8 -6 0 -1 -1 -2 -2 -2 -2 0 -4 -1 -4 -2 -2 -2 -2 -2 0 -4 0 -1 2 -2 4 -2 1 0
2 -1 2 -2 0 -5 -3 -6 -14 -6 -9 0 -10 0 -10 2 0 3 -11 14 -14 14 -1 0 -2 1 -2
2 0 2 -1 4 -2 5 -2 1 -2 1 -4 0 -1 -1 -2 -3 -2 -5 0 -1 -1 -2 -2 -2 -4 0 -6 3
-6 8 0 3 -1 5 -2 7 -2 1 -2 1 -6 -3 l-3 -4 -9 0 -9 0 -3 4 c-3 4 -4 4 -8 4 -4
0 -5 0 -8 -4z m-9 -14 c1 -2 1 -2 0 -4 -1 -1 -3 -2 -5 -2 -1 0 -2 -1 -2 -2 0
-2 -1 -4 -2 -4 -2 -2 -2 -2 -4 0 -4 3 -3 6 2 6 l4 0 0 4 c0 5 3 6 7 2z m73 0
c0 -2 -1 -4 -2 -4 -2 -2 -2 -2 -4 0 -4 3 -3 6 2 6 4 0 4 0 4 -2z m47 0 c1 -2
1 -2 0 -4 -4 -4 -7 -3 -7 2 0 5 3 6 7 2z m-31 -16 c0 -2 -1 -4 -2 -5 -2 -1 -2
-1 -4 1 -2 2 -2 2 -1 4 3 3 7 3 7 0z m119 -8 c1 -2 1 -2 -1 -4 l-2 -2 -2 2
c-2 2 -2 2 -1 4 1 1 3 2 3 2 0 0 2 -1 3 -2z m-225 -8 c2 -1 2 -3 2 -10 0 -9
-1 -12 -6 -12 -2 0 -2 0 -2 10 0 8 0 11 2 12 2 2 2 2 4 0z m106 -26 c3 -4 4
-4 8 -4 4 0 5 0 8 4 l4 5 4 -5 4 -4 28 0 c34 0 32 1 32 -12 l0 -8 -8 -8 c-8
-7 -8 -8 -8 -12 0 -4 0 -4 -16 -20 -16 -15 -16 -16 -16 -20 0 -4 -1 -5 -10
-14 l-10 -10 -16 0 -16 0 -10 10 c-9 9 -10 10 -10 14 0 4 0 5 -12 16 -12 11
-12 12 -12 16 0 4 0 5 -12 16 l-12 12 0 8 c0 13 -3 12 36 12 l33 0 3 4 c2 2 4
4 4 4 0 0 2 -2 4 -4z m118 2 c1 -1 2 -2 2 -4 0 -3 -4 -3 -6 0 -2 2 -2 2 0 4 2
2 2 2 4 0z m-215 -16 c1 -2 1 -2 0 -4 -3 -3 -7 -3 -7 0 0 2 3 6 4 6 0 0 2 -1
3 -2z m199 -16 c1 -1 2 -2 2 -4 0 -3 -4 -3 -6 0 -2 2 -2 2 0 4 2 2 2 2 4 0z
m-183 -8 c1 -2 1 -2 0 -4 -3 -3 -7 -3 -7 0 0 2 3 6 4 6 0 0 2 -1 3 -2z m167
-16 c1 -1 2 -2 2 -4 0 -3 -4 -3 -6 0 -2 2 -2 2 0 4 2 2 2 2 4 0z m-151 -8 c1
-2 1 -2 0 -4 -3 -3 -7 -3 -7 0 0 2 3 6 4 6 0 0 2 -1 3 -2z m127 -24 c1 -1 2
-2 2 -4 0 -2 0 -2 -4 -2 l-4 0 0 -4 c0 -5 -3 -6 -6 -2 -2 2 -2 2 0 4 0 1 2 2
4 2 1 0 2 1 2 2 0 2 3 6 4 6 0 0 1 -1 2 -2z m-95 -16 c1 -2 1 -2 0 -4 -3 -3
-7 -3 -7 0 0 2 3 6 4 6 0 0 2 -1 3 -2z m16 -24 c1 -2 1 -2 0 -4 -3 -3 -7 -3
-7 0 0 2 3 6 4 6 0 0 2 -1 3 -2z m8 -16 c1 -2 1 -2 0 -4 -3 -3 -7 -3 -7 0 0 2
3 6 4 6 0 0 2 -1 3 -2z m31 0 c1 -1 2 -2 2 -4 0 -3 -4 -3 -6 0 -2 2 -2 2 0 4
2 2 2 2 4 0z m-8 -16 c1 -1 2 -2 2 -4 0 -3 -4 -3 -6 0 -2 2 -2 2 0 4 2 2 2 2
4 0z"/><path d="M249 142 c-1 -2 -1 -2 1 -4 l2 -2 2 2 c2 2 2 2 1 4 -1 1 -3 2 -3 2 0
0 -2 -1 -3 -2z"/></g>
  <g transform="scale(0.125 0.125) translate(0.000000,512.000000) scale(1.000000,-1.000000)" fill="#a3a3a3" stroke="none"><path d="M224 484 c-3 -4 -4 -4 -8 -4 -6 0 -9 -3 -6 -6 1 -2 3 -2 18 -2 15 0
17 0 19 2 2 3 -1 6 -7 6 -4 0 -5 0 -8 4 -2 2 -4 4 -4 4 0 0 -2 -2 -4 -4z"/><path d="M262 482 c-6 -6 -6 -6 -4 -8 2 -3 34 -3 37 0 2 3 -1 6 -7 6 -4 0 -5
0 -8 4 -3 4 -4 4 -8 4 -4 0 -5 -1 -10 -6z"/><path d="M162 470 c-2 -1 -2 -3 -2 -8 l0 -6 -6 0 c-7 0 -10 -2 -10 -6 0 -2 0
-2 -8 -2 -8 0 -8 0 -8 2 0 2 -1 4 -2 5 -2 1 -2 1 -4 0 -1 -1 -2 -3 -2 -5 0 -1
-1 -2 -2 -2 -3 0 -6 -3 -6 -6 0 -1 -1 -2 -2 -2 -4 0 -6 -3 -6 -8 0 -6 -2 -8
-8 -8 -7 0 -8 -2 -8 -12 0 -7 0 -9 -2 -10 -3 -3 -6 -3 -6 0 0 2 -1 4 -2 5 -2
1 -2 1 -4 0 -1 -1 -2 -3 -2 -5 0 -1 -1 -2 -2 -2 -4 0 -6 -3 -6 -10 0 -6 0 -6
-2 -6 -2 0 -4 -1 -4 -2 -2 -2 -2 -2 0 -4 0 -1 2 -2 4 -2 2 0 2 0 2 -6 0 -8 -2
-10 -8 -10 -3 0 -5 -1 -7 -2 -1 -2 -1 -2 3 -6 l4 -3 0 -43 0 -42 -2 0 c-2 0
-4 -1 -5 -2 -1 -2 -1 -2 1 -4 2 -2 2 -2 4 -1 1 1 2 3 2 5 0 1 1 2 2 2 4 0 6
-3 6 -10 0 -6 0 -6 -2 -6 -2 0 -4 -1 -5 -2 -1 -2 -1 -2 1 -4 2 -2 2 -2 4 -1 1
1 2 3 2 5 0 1 1 2 2 2 4 0 6 -3 6 -10 0 -6 0 -6 -2 -6 -2 0 -4 -1 -5 -2 -1 -2
-1 -2 1 -4 2 -2 2 -2 4 -1 1 1 2 3 2 5 0 1 1 2 2 2 4 0 6 -3 6 -8 0 -4 0 -5
-4 -8 l-4 -4 6 -6 c3 -3 7 -6 8 -6 1 0 2 -1 2 -2 0 -3 3 -6 6 -6 1 0 2 -1 2
-2 0 -3 3 -6 6 -6 1 0 2 -1 2 -2 0 -4 3 -6 8 -6 4 0 5 0 8 -4 2 -3 4 -4 6 -4
1 0 2 -1 2 -2 0 -4 3 -6 8 -6 4 0 5 0 8 -4 l4 -4 4 4 c4 4 4 4 6 3 1 -2 2 -4
2 -7 0 -6 2 -8 10 -8 6 0 6 0 6 -2 0 -4 3 -6 8 -6 6 0 16 -10 16 -16 0 -4 1
-5 6 -10 3 -4 7 -6 8 -6 2 0 2 -1 2 -6 0 -7 2 -10 6 -10 2 0 2 0 2 -6 0 -7 0
-7 4 -10 4 -3 4 -4 4 -8 0 -4 0 -5 8 -12 8 -7 8 -8 8 -12 0 -3 1 -5 2 -6 2 -2
2 -2 8 4 l6 6 0 6 c0 6 0 6 2 6 4 0 6 3 6 10 0 5 0 6 2 6 1 0 5 2 8 6 l6 6 0
6 c0 6 0 6 2 6 4 0 6 3 6 8 0 4 0 5 4 8 4 3 4 4 4 8 0 4 0 5 6 10 5 6 6 6 10
6 5 0 8 2 8 6 0 2 0 2 10 2 l11 0 3 4 c3 4 4 4 8 4 4 0 5 0 10 6 4 3 6 7 6 8
0 2 1 2 6 2 l6 0 6 6 c4 3 6 7 6 8 0 1 1 2 2 2 3 0 6 3 6 6 0 1 1 2 2 2 3 0 6
3 6 6 0 1 1 2 2 2 3 0 6 3 6 6 0 1 1 2 2 2 4 0 6 3 6 10 0 6 0 6 2 6 3 0 6 3
6 6 0 1 1 2 2 2 4 0 6 3 6 8 0 4 0 5 -4 8 -4 3 -4 4 -4 8 0 3 1 5 2 7 2 1 2 1
6 -3 4 -4 4 -4 6 -3 1 2 2 4 2 7 0 4 0 5 -4 8 l-4 3 0 13 c0 11 0 13 2 14 2 2
2 2 4 1 2 -2 2 -4 2 -11 0 -7 0 -9 2 -10 2 -2 2 -2 4 -1 3 3 3 51 0 54 -3 2
-6 -1 -6 -7 0 -6 -3 -9 -6 -6 -2 1 -2 3 -2 14 l0 13 4 3 c4 3 4 4 4 8 0 3 -1
5 -2 7 -2 1 -2 1 -6 -3 -4 -4 -4 -4 -6 -3 -3 3 -3 15 0 15 2 0 4 1 5 2 1 2 1
2 -1 4 -2 2 -2 2 -4 1 -1 -1 -2 -3 -2 -5 0 -1 -1 -2 -2 -2 -4 0 -6 3 -6 10 0
6 0 6 2 6 2 0 4 1 5 2 1 2 1 2 0 4 -1 1 -3 2 -5 2 -1 0 -2 1 -2 2 0 2 -1 4 -2
5 -2 1 -2 1 -4 -1 -1 0 -2 -2 -2 -4 0 -1 -1 -2 -2 -2 -5 0 -6 3 -6 12 l0 8
-10 10 c-6 6 -11 10 -12 10 -1 0 -2 1 -2 2 0 3 -3 6 -6 6 -1 0 -2 1 -2 2 0 4
-3 6 -8 6 -4 0 -5 0 -8 -4 -4 -5 -8 -6 -8 -2 0 4 -3 6 -10 6 l-6 0 0 6 c0 6 0
7 -2 9 -2 1 -2 1 -6 -3 -4 -5 -8 -6 -8 -2 0 5 -3 6 -12 6 -7 0 -9 0 -10 -2 -2
-2 -2 -2 0 -4 1 -2 3 -2 12 -2 10 0 10 0 10 -2 0 -4 3 -6 10 -6 6 0 6 0 6 -2
0 -4 3 -6 10 -6 5 0 6 0 6 -2 0 -1 2 -5 6 -8 l6 -6 6 0 c5 0 6 0 6 -2 0 -2 4
-6 12 -14 12 -11 12 -12 12 -16 0 -4 0 -5 8 -12 8 -7 8 -8 8 -12 0 -4 0 -5 4
-8 4 -3 4 -4 4 -8 0 -4 0 -5 4 -8 l4 -3 0 -37 0 -37 -4 -3 -4 -3 0 -9 0 -8 -8
-8 c-8 -7 -8 -8 -8 -12 0 -4 0 -4 -22 -26 l-22 -22 -4 0 c-4 0 -5 0 -8 -4 -3
-4 -4 -4 -8 -4 -4 0 -5 0 -8 -4 -3 -4 -4 -4 -8 -4 -4 0 -5 0 -8 -4 l-3 -4 -9
0 -8 0 -6 -6 c-6 -5 -6 -6 -6 -10 0 -4 0 -5 -4 -8 -4 -3 -4 -4 -4 -8 0 -4 0
-5 -8 -12 -8 -7 -8 -8 -8 -12 0 -4 0 -5 -8 -12 -8 -7 -8 -8 -8 -12 0 -6 -3 -9
-6 -7 -1 2 -2 4 -2 7 0 4 0 5 -6 10 -3 4 -7 6 -8 6 -2 0 -2 1 -2 6 0 7 -2 10
-6 10 -2 0 -2 0 -2 6 0 7 0 7 -4 10 -4 3 -4 4 -4 8 0 5 -2 8 -6 8 -1 0 -2 1
-2 2 0 1 -2 5 -6 8 l-6 6 -8 0 -9 0 -3 4 c-3 4 -4 4 -8 4 -4 0 -5 0 -8 4 -3 4
-4 4 -8 4 -4 0 -5 0 -12 8 -7 8 -8 8 -12 8 -4 0 -4 0 -22 18 -18 18 -18 18
-18 22 0 4 0 5 -4 8 -4 3 -4 4 -4 8 0 4 0 5 -4 8 -4 3 -4 4 -4 8 0 4 0 5 -4 8
l-4 3 0 37 0 37 4 3 4 3 0 11 c0 9 0 10 2 10 1 0 6 4 12 10 9 9 10 10 10 14 0
4 1 5 10 14 9 9 10 10 14 10 4 0 5 1 14 10 6 6 10 11 10 12 0 2 1 2 6 2 7 0
10 2 10 6 0 2 0 2 6 2 7 0 10 2 10 6 0 2 0 2 10 2 9 0 11 0 13 2 1 2 1 2 0 4
-2 2 -4 2 -11 2 -9 0 -12 -1 -12 -6 0 -4 -4 -3 -8 2 -4 5 -4 5 -6 2z m-34 -24
c0 -3 -3 -6 -6 -6 -1 0 -2 -1 -2 -2 0 -2 -1 -4 -2 -4 -2 -2 -2 -2 -4 0 -4 3
-3 6 2 6 l4 0 0 4 0 4 4 0 c3 0 4 0 4 -2z m256 -2 l0 -4 4 0 c3 0 4 0 4 -2 0
-3 -3 -6 -6 -6 -2 0 -2 0 -2 4 0 4 0 4 -2 4 -2 0 -4 1 -4 2 -2 2 -2 2 0 4 3 4
6 3 6 -2z m-304 -46 c0 -2 -1 -4 -2 -4 -2 -2 -2 -2 -4 0 -4 3 -3 6 2 6 4 0 4
0 4 -2z m352 -2 c0 -3 0 -4 -2 -4 -3 0 -6 3 -6 6 0 2 0 2 4 2 l4 0 0 -4z
m-362 -14 c1 -1 2 -2 2 -4 0 -2 0 -2 -4 -2 l-4 0 0 4 c0 5 3 6 6 2z m368 -144
c1 -1 2 -2 2 -4 0 -2 0 -2 -4 -2 l-4 0 0 -4 c0 -5 -3 -6 -6 -2 -2 2 -2 2 0 4
0 1 2 2 4 2 1 0 2 1 2 2 0 2 3 6 4 6 0 0 1 -1 2 -2z m-16 -24 c1 -1 2 -2 2 -4
0 -2 0 -2 -4 -2 l-4 0 0 -4 0 -4 -4 0 -4 0 0 -4 0 -4 -4 0 -4 0 0 -4 c0 -5 -3
-6 -6 -2 -2 2 -2 2 0 4 0 1 2 2 4 2 1 0 2 1 2 2 0 3 3 6 6 6 1 0 2 1 2 2 0 3
3 6 6 6 1 0 2 1 2 2 0 2 3 6 4 6 0 0 1 -1 2 -2z m-328 -8 c1 -1 2 -2 2 -4 0
-1 1 -2 2 -2 3 0 6 -3 6 -6 0 -1 1 -2 2 -2 2 0 4 -1 5 -2 1 -2 1 -2 0 -4 -4
-4 -7 -3 -7 2 l0 4 -4 0 -4 0 0 4 0 4 -4 0 c-5 0 -6 3 -2 6 2 2 2 2 4 0z m41
-32 c1 -2 1 -2 0 -4 -3 -3 -7 -3 -7 0 0 2 3 6 4 6 0 0 2 -1 3 -2z m239 0 c1
-1 2 -2 2 -4 0 -3 -4 -3 -6 0 -2 2 -2 2 0 4 2 2 2 2 4 0z m-191 -24 c1 -2 1
-2 0 -4 -3 -3 -7 -3 -7 0 0 2 3 6 4 6 0 0 2 -1 3 -2z m143 0 c1 -1 2 -2 2 -4
0 -3 -4 -3 -6 0 -2 2 -2 2 0 4 2 2 2 2 4 0z m-118 -8 c0 -2 -1 -4 -2 -5 -2 -1
-2 -1 -4 1 -2 2 -2 2 -1 4 3 3 7 3 7 0z m16 -32 c0 -3 -3 -6 -6 -6 -3 0 -3 3
0 6 2 3 6 3 6 0z m62 -8 c1 -1 2 -2 2 -4 0 -3 -4 -3 -6 0 -2 2 -2 2 0 4 2 2 2
2 4 0z m-54 -8 c0 -3 -3 -6 -6 -6 -3 0 -3 3 0 6 2 3 6 3 6 0z m38 -16 c1 -1 2
-2 2 -4 0 -3 -4 -3 -6 0 -2 2 -2 2 0 4 2 2 2 2 4 0z m-8 -16 c1 -1 2 -2 2 -4
0 -2 0 -2 -6 -2 -8 0 -12 3 -8 6 2 3 9 3 12 0z"/><path d="M168 436 c-3 -4 -4 -4 -8 -4 -5 0 -8 -2 -8 -6 0 -1 -1 -2 -2 -2 -3 0
-6 -3 -6 -6 0 -1 -1 -2 -2 -2 -4 0 -6 -3 -6 -8 0 -4 0 -5 -4 -8 l-4 -3 0 -13
c0 -14 1 -16 6 -16 2 0 2 0 2 -10 0 -12 1 -14 6 -14 1 0 2 -1 2 -2 0 -2 1 -4
4 -6 4 -3 4 -4 4 -8 0 -5 2 -8 6 -8 2 0 2 -1 2 -6 l0 -6 6 -6 c3 -4 7 -6 8 -6
1 0 2 -1 2 -2 0 -2 1 -4 4 -6 4 -3 4 -4 4 -8 0 -6 2 -8 8 -8 6 0 8 -2 8 -8 0
-5 2 -8 6 -8 1 0 2 -1 2 -2 0 -2 1 -4 4 -6 4 -3 4 -4 4 -8 0 -5 2 -8 6 -8 2 0
2 0 2 -6 0 -7 2 -10 6 -10 1 0 2 -1 2 -2 0 -2 1 -4 4 -6 l4 -3 0 -13 c0 -16 0
-16 12 -16 12 0 12 0 12 14 0 10 0 10 2 10 4 0 6 3 6 10 0 6 0 6 2 6 4 0 6 3
6 8 0 4 0 5 4 8 l5 4 -5 4 c-4 4 -4 4 -3 6 2 2 3 2 11 2 11 0 12 1 12 10 0 6
0 6 2 6 3 0 6 3 6 6 0 1 1 2 2 2 1 0 5 2 8 6 6 5 6 6 6 10 0 4 0 5 4 8 3 2 4
4 4 6 0 1 1 2 2 2 4 0 6 3 6 8 0 4 0 5 4 8 3 2 4 4 4 6 0 1 1 2 2 2 4 0 6 3 6
8 0 4 0 5 4 8 4 3 4 3 4 10 0 6 0 6 2 6 6 0 6 2 6 24 l0 20 -14 14 -14 14 -4
-4 c-4 -4 -4 -4 -6 -3 -1 2 -2 4 -2 7 0 3 -1 5 -2 7 -2 1 -2 1 -6 -3 l-3 -4
-9 0 -9 0 -3 4 c-3 4 -4 4 -8 4 -4 0 -5 0 -8 -4 -3 -4 -4 -4 -8 -4 -5 0 -8 -2
-8 -6 0 -1 -1 -2 -2 -2 -2 0 -4 -1 -4 -2 -2 -2 -2 -2 0 -4 0 -1 2 -2 4 -2 1 0
2 -1 2 -2 0 -5 -3 -6 -14 -6 -9 0 -10 0 -10 2 0 3 -11 14 -14 14 -1 0 -2 1 -2
2 0 2 -1 4 -2 5 -2 1 -2 1 -4 0 -1 -1 -2 -3 -2 -5 0 -1 -1 -2 -2 -2 -4 0 -6 3
-6 8 0 3 -1 5 -2 7 -2 1 -2 1 -6 -3 l-3 -4 -9 0 -9 0 -3 4 c-3 4 -4 4 -8 4 -4
0 -5 0 -8 -4z m-9 -14 c1 -2 1 -2 0 -4 -1 -1 -3 -2 -5 -2 -1 0 -2 -1 -2 -2 0
-2 -1 -4 -2 -4 -2 -2 -2 -2 -4 0 -4 3 -3 6 2 6 l4 0 0 4 c0 5 3 6 7 2z m73 0
c0 -2 -1 -4 -2 -4 -2 -2 -2 -2 -4 0 -4 3 -3 6 2 6 4 0 4 0 4 -2z m47 0 c1 -2
1 -2 0 -4 -4 -4 -7 -3 -7 2 0 5 3 6 7 2z m-57 -16 c10 -10 10 -10 10 -14 0 -4
0 -5 4 -8 4 -3 4 -4 4 -8 0 -7 2 -8 12 -8 l8 0 6 6 6 6 0 8 0 8 10 10 10 10
16 0 16 0 10 -10 10 -10 0 -20 0 -21 -4 -3 c-4 -3 -4 -4 -4 -8 0 -4 0 -5 -8
-12 -8 -7 -8 -8 -8 -12 0 -4 0 -4 -16 -20 -16 -15 -16 -16 -16 -20 0 -4 -1 -5
-10 -14 l-10 -10 -16 0 -16 0 -10 10 c-9 9 -10 10 -10 14 0 4 0 5 -12 16 -12
11 -12 12 -12 16 0 4 0 5 -12 16 l-12 12 0 8 0 9 -4 3 -4 3 0 17 0 16 10 10
10 10 16 0 16 0 10 -10z m26 0 c0 -2 -1 -4 -2 -5 -2 -1 -2 -1 -4 1 -2 2 -2 2
-1 4 3 3 7 3 7 0z m119 -8 c1 -2 1 -2 -1 -4 l-2 -2 -2 2 c-2 2 -2 2 -1 4 1 1
3 2 3 2 0 0 2 -1 3 -2z m-225 -8 c2 -1 2 -3 2 -10 0 -9 -1 -12 -6 -12 -2 0 -2
0 -2 10 0 8 0 11 2 12 2 2 2 2 4 0z m224 -24 c1 -1 2 -2 2 -4 0 -3 -4 -3 -6 0
-2 2 -2 2 0 4 2 2 2 2 4 0z m-215 -16 c1 -2 1 -2 0 -4 -3 -3 -7 -3 -7 0 0 2 3
6 4 6 0 0 2 -1 3 -2z m199 -16 c1 -1 2 -2 2 -4 0 -3 -4 -3 -6 0 -2 2 -2 2 0 4
2 2 2 2 4 0z m-183 -8 c1 -2 1 -2 0 -4 -3 -3 -7 -3 -7 0 0 2 3 6 4 6 0 0 2 -1
3 -2z m167 -16 c1 -1 2 -2 2 -4 0 -3 -4 -3 -6 0 -2 2 -2 2 0 4 2 2 2 2 4 0z
m-151 -8 c1 -2 1 -2 0 -4 -3 -3 -7 -3 -7 0 0 2 3 6 4 6 0 0 2 -1 3 -2z m127
-24 c1 -1 2 -2 2 -4 0 -2 0 -2 -4 -2 l-4 0 0 -4 c0 -5 -3 -6 -6 -2 -2 2 -2 2
0 4 0 1 2 2 4 2 1 0 2 1 2 2 0 2 3 6 4 6 0 0 1 -1 2 -2z m-95 -16 c1 -2 1 -2
0 -4 -3 -3 -7 -3 -7 0 0 2 3 6 4 6 0 0 2 -1 3 -2z m16 -24 c1 -2 1 -2 0 -4 -3
-3 -7 -3 -7 0 0 2 3 6 4 6 0 0 2 -1 3 -2z m8 -16 c1 -2 1 -2 0 -4 -3 -3 -7 -3
-7 0 0 2 3 6 4 6 0 0 2 -1 3 -2z m31 0 c1 -1 2 -2 2 -4 0 -3 -4 -3 -6 0 -2 2
-2 2 0 4 2 2 2 2 4 0z m-8 -16 c1 -1 2 -2 2 -4 0 -3 -4 -3 -6 0 -2 2 -2 2 0 4
2 2 2 2 4 0z"/><path d="M249 142 c-1 -2 -1 -2 1 -4 l2 -2 2 2 c2 2 2 2 1 4 -1 1 -3 2 -3 2 0
0 -2 -1 -3 -2z"/></g>
  <g transform="scale(0.125 0.125) translate(0.000000,512.000000) scale(1.000000,-1.000000)" fill="#eae9ea" stroke="none"><path d="M226 486 c-3 -2 -3 -10 0 -12 3 -3 18 -3 21 0 2 3 -1 6 -7 6 -4 0 -5
0 -8 4 -4 5 -4 5 -6 2z"/><path d="M262 482 c-6 -6 -6 -6 -4 -8 1 -2 3 -2 10 -2 10 0 12 1 12 8 0 6 -2
8 -8 8 -4 0 -5 -1 -10 -6z"/><path d="M162 470 c-2 -2 -2 -2 0 -4 0 -1 2 -2 4 -2 1 0 2 -1 2 -2 0 -2 1 -4
2 -5 2 -1 2 -1 4 1 2 2 2 2 1 4 -1 1 -3 2 -5 2 -1 0 -2 1 -2 2 0 2 -3 6 -4 6
0 0 -2 -1 -2 -2z"/><path d="M186 470 c-3 -3 0 -6 6 -6 3 0 5 1 7 2 2 3 -1 6 -7 6 -3 0 -5 -1 -6
-2z"/><path d="M306 470 c-3 -3 0 -6 6 -6 6 0 9 3 7 6 -2 1 -4 2 -7 2 -3 0 -5 -1 -6
-2z"/><path d="M338 470 c-1 -1 -2 -3 -2 -4 0 -1 -1 -2 -2 -2 -2 0 -4 -1 -5 -2 -1
-2 -1 -2 1 -4 2 -2 2 -2 4 -1 1 1 2 3 2 5 0 1 1 2 2 2 2 0 4 1 5 2 1 2 1 2 0
4 -3 2 -3 2 -5 0z"/><path d="M122 454 c-1 -1 -2 -3 -2 -4 0 -1 -1 -2 -2 -2 -3 0 -6 -3 -6 -6 0 -1
-1 -2 -2 -2 -2 0 -4 -1 -4 -2 -2 -2 -2 -2 0 -4 0 -1 2 -2 4 -2 2 0 2 0 2 -4 0
-4 0 -4 -2 -4 -3 0 -6 -3 -6 -6 0 -2 -1 -2 -4 -2 -4 0 -4 0 -4 2 0 2 -1 4 -2
5 -2 1 -2 1 -4 -1 -2 -2 -2 -2 -1 -4 1 -1 3 -2 5 -2 2 0 2 0 2 -4 0 -4 0 -4
-2 -4 -4 0 -6 -3 -6 -10 0 -6 0 -6 -2 -6 -3 0 -6 -3 -6 -6 0 -2 -1 -2 -4 -2
l-4 0 0 8 c0 8 0 8 2 8 2 0 4 1 5 2 1 2 1 2 -1 4 -2 2 -2 2 -4 1 -1 -1 -2 -3
-2 -5 0 -1 -1 -2 -2 -2 -4 0 -6 -3 -6 -10 0 -6 0 -6 -2 -6 -2 0 -4 -1 -5 -2
-1 -2 -1 -2 1 -4 2 -2 2 -2 4 -1 1 1 2 3 2 5 0 2 0 2 4 2 4 0 4 0 4 -2 0 -2 1
-4 2 -4 2 -2 2 -2 4 0 1 0 2 2 2 4 0 1 1 2 2 2 3 0 6 3 6 6 0 1 1 2 2 2 4 0 6
3 6 10 0 6 0 6 2 6 3 0 6 3 6 6 0 1 1 2 2 2 3 0 6 3 6 6 0 2 0 2 6 2 7 0 10 2
10 6 0 1 1 2 2 2 3 0 6 3 6 6 0 1 1 2 2 2 2 0 4 1 5 2 1 2 1 2 -1 4 -2 2 -2 2
-4 1 -1 -1 -2 -3 -2 -5 0 -1 -1 -2 -2 -2 -3 0 -6 -3 -6 -6 0 -2 0 -2 -8 -2
l-8 0 0 4 c0 4 0 4 2 4 3 0 6 3 6 6 0 1 1 2 2 2 2 0 4 1 5 2 1 2 1 2 0 4 -3 2
-3 2 -5 0z"/><path d="M153 454 c-1 -2 -1 -2 1 -4 l2 -2 2 2 c2 2 2 2 1 4 -1 1 -3 2 -3 2 0
0 -2 -1 -3 -2z"/><path d="M345 454 c-1 -2 -1 -2 1 -4 l2 -2 2 2 c2 2 2 2 1 4 -1 1 -3 2 -3 2 0
0 -2 -1 -3 -2z"/><path d="M370 454 c-1 -1 -2 -3 -2 -4 0 -1 -1 -2 -2 -2 -2 0 -4 -1 -4 -2 -2
-2 -2 -2 0 -4 0 -1 2 -2 4 -2 1 0 2 -1 2 -2 0 -2 1 -4 2 -5 2 -1 2 -1 4 1 2 2
2 2 1 4 -1 1 -3 2 -5 2 -2 0 -2 0 -2 4 l0 4 8 0 c8 0 8 0 8 -2 0 -3 3 -6 6 -6
2 0 2 -1 2 -4 0 -4 0 -4 -2 -4 -2 0 -4 -1 -4 -2 -2 -2 -2 -2 0 -4 0 -1 2 -2 4
-2 1 0 2 -1 2 -2 0 -3 3 -6 6 -6 1 0 2 -1 2 -2 0 -3 3 -6 6 -6 2 0 2 0 2 -6 0
-7 2 -10 6 -10 1 0 2 -1 2 -2 0 -3 3 -6 6 -6 2 0 2 0 2 -6 0 -7 2 -10 6 -10 2
0 2 0 2 -6 0 -8 3 -12 6 -8 5 4 2 14 -4 14 -2 0 -2 0 -2 6 0 7 -2 10 -6 10 -1
0 -2 1 -2 2 0 3 -3 6 -6 6 -2 0 -2 0 -2 6 0 7 -2 10 -6 10 -2 0 -2 1 -2 4 0 4
0 4 2 4 2 0 4 1 5 2 1 2 1 2 0 4 -1 1 -3 2 -5 2 -1 0 -2 1 -2 2 0 3 -3 6 -6 6
-1 0 -2 1 -2 2 0 3 -3 6 -6 6 -1 0 -2 1 -2 2 0 3 -3 6 -6 6 -1 0 -2 1 -2 2 0
6 -10 8 -14 4z m30 -26 l0 -4 4 0 4 0 0 -4 0 -4 -4 0 -4 0 0 4 0 4 -4 0 -4 0
0 4 0 4 4 0 4 0 0 -4z"/><path d="M170 438 c-1 -1 -2 -3 -2 -6 0 -5 -2 -8 -6 -8 -1 0 -2 1 -2 2 0 2 -1
4 -2 5 -2 1 -2 1 -4 0 -1 -1 -2 -3 -2 -5 0 -1 -1 -2 -2 -2 -3 0 -6 -3 -6 -6 0
-1 -1 -2 -2 -2 -2 0 -4 -1 -4 -2 -2 -2 -2 -2 0 -4 0 -1 2 -2 4 -2 l2 0 0 -22
0 -23 -4 -3 c-4 -3 -4 -4 -4 -8 0 -5 2 -8 6 -8 1 0 2 -1 2 -2 0 -4 3 -6 8 -6
5 0 8 -2 8 -6 0 -1 -1 -2 -2 -2 -2 0 -4 -1 -5 -2 -1 -2 -1 -2 1 -4 2 -2 2 -2
4 -1 1 1 2 3 2 5 0 1 1 2 2 2 4 0 6 -3 6 -10 0 -6 0 -6 -2 -6 -2 0 -4 -1 -4
-2 -2 -2 -2 -2 0 -4 0 -1 2 -2 4 -2 1 0 2 -1 2 -2 0 -3 3 -6 6 -6 1 0 2 -1 2
-2 0 -4 3 -6 8 -6 5 0 8 -2 8 -6 0 -1 -1 -2 -2 -2 -2 0 -4 -1 -5 -2 -1 -2 -1
-2 1 -4 2 -2 2 -2 4 -1 1 1 2 3 2 5 0 4 4 2 10 -4 6 -6 8 -10 4 -10 -2 0 -4
-1 -4 -2 -2 -2 -2 -2 0 -4 0 -1 2 -2 4 -2 1 0 2 -1 2 -2 0 -4 3 -6 8 -6 5 0 8
-2 8 -6 0 -1 -1 -2 -2 -2 -2 0 -4 -1 -5 -2 -1 -2 -1 -2 1 -4 2 -2 2 -2 4 -1 1
1 2 3 2 5 0 1 1 2 2 2 4 0 6 -3 6 -10 0 -6 0 -6 -2 -6 -2 0 -4 -1 -4 -2 -2 -2
-2 -2 0 -4 0 -1 2 -2 4 -2 1 0 2 -1 2 -2 0 -4 3 -6 8 -6 3 0 5 -1 7 -2 1 -2 1
-2 -3 -6 l-4 -3 0 -9 c0 -11 1 -12 12 -12 10 0 12 1 12 8 0 5 -2 8 -6 8 -3 0
-3 12 0 14 3 3 6 3 6 0 0 -2 1 -4 2 -5 2 -1 2 -1 4 1 2 2 2 2 1 4 -1 1 -3 2
-5 2 -2 0 -2 0 -2 6 0 7 2 10 6 10 1 0 2 -1 2 -2 0 -2 1 -4 2 -5 2 -1 2 -1 4
1 2 2 2 2 1 4 -1 1 -3 2 -5 2 -1 0 -2 1 -2 2 0 4 3 6 8 6 3 0 5 1 7 2 1 2 1 2
-3 6 l-4 4 6 6 c6 6 10 8 10 4 0 -2 1 -4 2 -5 2 -1 2 -1 4 1 2 2 2 2 1 4 -1 1
-3 2 -5 2 -2 0 -2 0 -2 6 0 7 2 10 6 10 1 0 2 -1 2 -2 0 -2 1 -4 2 -4 2 -2 2
-2 4 -1 1 1 2 3 2 5 0 1 1 2 2 2 3 0 6 3 6 6 0 1 1 2 2 2 2 0 4 1 5 2 1 2 1 2
0 4 -1 1 -3 2 -5 2 -1 0 -2 1 -2 2 0 4 3 6 8 6 5 0 8 2 8 6 0 1 1 2 2 2 2 0 4
1 5 2 1 2 1 2 0 4 -1 1 -3 2 -5 2 -4 0 -3 4 2 8 4 3 4 4 4 8 0 5 2 8 6 8 1 0
2 -1 2 -2 0 -2 1 -4 2 -5 2 -1 2 -1 4 1 2 2 2 2 1 4 -1 1 -3 2 -5 2 -1 0 -2 1
-2 2 0 4 3 6 8 6 3 0 5 1 7 2 1 2 1 2 -3 6 -5 4 -6 11 -2 15 2 1 2 1 6 -3 4
-4 4 -4 6 -3 2 2 2 3 2 23 0 22 0 24 -6 24 -1 0 -2 1 -2 2 0 1 -4 6 -10 12
l-10 10 -4 -4 -4 -4 -4 4 -3 4 -17 0 -16 0 -4 4 c-4 4 -4 4 -6 3 -1 -2 -2 -4
-2 -7 0 -5 -2 -8 -6 -8 -1 0 -2 1 -2 2 0 2 -1 4 -2 5 -2 1 -2 1 -4 0 -1 -1 -2
-3 -2 -5 0 -1 -1 -2 -2 -2 -2 0 -4 -1 -4 -2 -2 -2 -2 -2 0 -4 0 -1 2 -2 4 -2
4 0 2 -4 -4 -10 -6 -6 -10 -8 -10 -4 0 3 -3 6 -6 6 -1 0 -2 1 -2 2 0 3 -11 14
-14 14 -1 0 -2 1 -2 2 0 2 -1 4 -2 5 -2 1 -2 1 -4 0 -1 -1 -2 -3 -2 -5 0 -1
-1 -2 -2 -2 -4 0 -6 3 -6 8 0 3 -1 5 -2 7 -2 1 -2 1 -6 -3 l-3 -4 -13 0 -13 0
-3 4 c-4 5 -4 5 -6 2z m-10 -16 c0 -3 -3 -6 -6 -6 -1 0 -2 -1 -2 -2 0 -3 -3
-6 -6 -6 -2 0 -2 0 -2 4 l0 4 4 0 4 0 0 4 0 4 4 0 c3 0 4 0 4 -2z m72 0 c0 -2
-1 -4 -2 -4 -2 -2 -2 -2 -4 0 -4 3 -3 6 2 6 4 0 4 0 4 -2z m48 0 c0 -3 -3 -6
-6 -6 -2 0 -2 0 -2 4 l0 4 4 0 c3 0 4 0 4 -2z m-58 -16 c10 -10 10 -10 10 -14
0 -4 0 -5 4 -8 4 -3 4 -4 4 -8 0 -7 2 -8 12 -8 l8 0 6 6 6 6 0 8 0 8 10 10 10
10 16 0 16 0 10 -10 10 -10 0 -20 0 -21 -4 -3 c-4 -3 -4 -4 -4 -8 0 -4 0 -5
-8 -12 -8 -7 -8 -8 -8 -12 0 -4 0 -4 -16 -20 -16 -15 -16 -16 -16 -20 0 -4 -1
-5 -10 -14 l-10 -10 -16 0 -16 0 -10 10 c-9 9 -10 10 -10 14 0 4 0 5 -12 16
-12 11 -12 12 -12 16 0 4 0 5 -12 16 l-12 12 0 8 0 9 -4 3 -4 3 0 17 0 16 10
10 10 10 16 0 16 0 10 -10z m26 -2 l0 -4 4 0 c5 0 6 -3 2 -6 -2 -2 -2 -2 -4 0
-1 0 -2 2 -2 4 0 1 -1 2 -2 2 -2 0 -4 1 -4 2 -2 2 -2 2 0 4 3 4 6 3 6 -2z
m120 -2 c0 -8 -3 -12 -6 -8 -4 4 -2 14 4 14 2 0 2 0 2 -6z m-217 -52 c1 -2 1
-2 0 -4 -3 -3 -7 -3 -7 0 0 2 3 6 4 6 0 0 2 -1 3 -2z m23 -40 c1 -1 2 -2 2 -4
0 -1 1 -2 2 -2 2 0 4 -1 5 -2 1 -2 1 -2 0 -4 -4 -4 -7 -3 -7 2 l0 4 -4 0 -4 0
0 4 c0 5 3 6 6 2z m162 -2 c0 -5 -3 -6 -6 -2 -2 2 -2 2 0 4 3 4 6 3 6 -2z
m-16 -24 l0 -4 -4 0 -4 0 0 -4 0 -4 -4 0 c-3 0 -4 0 -4 2 0 3 3 6 6 6 1 0 2 1
2 2 0 3 3 6 6 6 2 0 2 0 2 -4z m-105 -22 c1 -2 1 -2 0 -4 -4 -4 -7 -3 -7 2 0
5 3 6 7 2z m24 -40 c1 -2 1 -2 0 -4 -4 -4 -7 -3 -7 2 0 5 3 6 7 2z m17 -32 c0
-2 -1 -4 -2 -5 -2 -1 -2 -1 -4 1 -2 2 -2 2 -1 4 3 3 7 3 7 0z"/><path d="M426 406 c-2 -2 -2 -2 0 -4 0 -1 2 -2 4 -2 1 0 2 -1 2 -2 0 -2 1 -4
2 -5 2 -1 2 -1 4 1 2 2 2 2 1 4 -1 1 -3 2 -5 2 -1 0 -2 1 -2 2 0 2 -3 6 -4 6
0 0 -2 -1 -2 -2z"/><path d="M130 398 c-3 -3 -3 -26 0 -28 2 -2 2 -2 4 0 3 2 3 26 0 28 -2 2 -2 2
-4 0z"/><path d="M441 382 c-1 -2 -1 -2 1 -4 l2 -2 2 2 c2 2 2 2 1 4 -1 1 -3 2 -3 2 0
0 -2 -1 -3 -2z"/><path d="M66 366 c-3 -3 -3 -10 0 -12 3 -3 6 0 6 6 0 7 -3 10 -6 6z"/><path d="M450 366 c-3 -3 -3 -10 0 -12 3 -3 6 0 6 6 0 7 -3 10 -6 6z"/><path d="M49 358 c-1 -2 -1 -2 1 -4 l2 -2 2 2 c2 2 2 2 1 4 -1 1 -3 2 -3 2 0
0 -2 -1 -3 -2z"/><path d="M58 334 c-3 -3 -3 -42 0 -44 2 -2 2 -2 4 0 3 2 3 42 0 44 -2 2 -2 2
-4 0z"/><path d="M442 334 c-3 -3 -3 -42 0 -44 2 -2 2 -2 4 0 3 2 3 42 0 44 -2 2 -2 2
-4 0z"/><path d="M458 334 c-3 -3 -3 -50 0 -52 2 -2 2 -2 4 0 3 2 3 50 0 52 -2 2 -2 2
-4 0z"/><path d="M66 270 c-4 -4 -2 -14 4 -14 2 0 2 0 2 -6 0 -7 2 -10 6 -10 2 0 2 0
2 -6 0 -7 2 -10 6 -10 2 0 2 -1 2 -4 l0 -4 -6 0 c-5 0 -7 0 -8 -2 -2 -2 -2 -2
4 -8 3 -3 7 -6 8 -6 1 0 2 -1 2 -2 0 -3 3 -6 6 -6 1 0 2 -1 2 -2 0 -3 3 -6 6
-6 1 0 2 -1 2 -2 0 -4 3 -6 10 -6 6 0 6 0 6 -2 0 -3 3 -6 6 -6 1 0 2 -1 2 -2
0 -4 3 -6 10 -6 6 0 6 0 6 -2 0 -2 1 -4 2 -4 2 -2 2 -2 4 -1 1 1 2 3 2 5 0 2
0 2 12 2 l12 0 0 -4 0 -4 -6 0 c-5 0 -7 0 -8 -2 -4 -3 0 -6 8 -6 6 0 6 0 6 -2
0 -4 3 -6 8 -6 6 0 16 -10 16 -16 0 -4 1 -5 6 -10 3 -4 7 -6 8 -6 2 0 2 -1 2
-6 0 -7 2 -10 6 -10 2 0 2 0 2 -6 0 -7 0 -7 4 -10 4 -3 4 -4 4 -8 0 -4 0 -5 8
-12 8 -7 8 -8 8 -12 0 -3 1 -5 2 -6 2 -2 2 -2 8 4 l6 6 0 6 c0 6 0 6 2 6 4 0
6 3 6 10 0 5 0 6 2 6 1 0 5 2 8 6 l6 6 0 6 c0 6 0 6 2 6 4 0 6 3 6 10 0 6 0 6
2 6 4 0 6 3 6 10 0 6 0 6 2 6 2 0 4 1 6 4 3 4 4 4 8 4 5 0 8 2 8 6 0 2 0 2 10
2 l11 0 3 4 c3 4 4 4 8 4 4 0 5 0 10 6 4 3 6 7 6 8 0 2 1 2 6 2 l6 0 6 6 c4 3
6 7 6 8 0 1 1 2 2 2 3 0 6 3 6 6 0 1 1 2 2 2 3 0 6 3 6 6 0 1 1 2 2 2 3 0 6 3
6 6 0 1 1 2 2 2 4 0 6 3 6 10 0 6 0 6 2 6 3 0 6 3 6 6 0 1 1 2 2 2 6 0 8 10 4
15 -3 3 -6 -1 -6 -9 0 -6 0 -6 -2 -6 -3 0 -6 -3 -6 -6 0 -2 -1 -2 -4 -2 l-4 0
0 8 c0 8 0 8 2 8 2 0 4 1 5 2 1 2 1 2 -1 4 -2 2 -2 2 -4 1 -1 -1 -2 -3 -2 -5
0 -1 -1 -2 -2 -2 -4 0 -6 -3 -6 -10 0 -6 0 -6 -2 -6 -3 0 -6 -3 -6 -6 0 -1 -1
-2 -2 -2 -3 0 -6 -3 -6 -6 0 -1 -1 -2 -2 -2 -3 0 -6 -3 -6 -6 0 -1 -1 -2 -2
-2 -3 0 -6 -3 -6 -6 0 -1 -1 -2 -2 -2 -3 0 -6 -3 -6 -6 0 -2 0 -2 -6 -2 -7 0
-10 -2 -10 -6 0 -2 0 -2 -6 -2 -7 0 -10 -2 -10 -6 0 -2 0 -2 -6 -2 -7 0 -10
-2 -10 -6 0 -2 0 -2 -10 -2 -12 0 -14 -1 -14 -6 0 -1 -1 -2 -2 -2 -2 0 -4 -1
-4 -2 -2 -2 -2 -2 0 -4 0 -1 2 -2 4 -2 2 0 2 0 2 -8 0 -10 -2 -11 -8 -4 -4 4
-4 4 -6 3 -2 -2 -2 -3 -2 -9 0 -6 0 -6 -2 -6 -3 0 -6 -3 -6 -6 0 -1 -1 -2 -2
-2 -4 0 -6 -3 -6 -10 0 -6 0 -6 -2 -6 -3 0 -6 -3 -6 -6 0 -1 -1 -2 -2 -2 -4 0
-6 -3 -6 -10 l0 -6 -4 0 -4 0 0 6 c0 7 -2 10 -6 10 -1 0 -2 1 -2 2 0 2 -1 4
-2 5 -2 1 -2 1 -4 0 -1 -1 -2 -3 -2 -5 0 -2 0 -2 -4 -2 l-4 0 0 8 c0 8 0 8 2
8 2 0 4 1 5 2 1 2 1 2 -1 4 -2 2 -2 2 -4 1 -1 -1 -2 -3 -2 -5 0 -2 0 -2 -4 -2
l-4 0 0 8 c0 8 0 8 2 8 2 0 4 1 5 2 1 2 1 2 -1 4 -2 2 -2 2 -4 1 -1 -1 -2 -3
-2 -5 0 -1 -1 -2 -2 -2 -4 0 -6 3 -6 10 0 6 0 6 2 6 2 0 4 1 5 2 1 2 1 2 0 4
-1 1 -3 2 -5 2 -1 0 -2 1 -2 2 0 3 -3 6 -6 6 -1 0 -2 1 -2 2 0 5 -3 6 -14 6
-10 0 -10 0 -10 2 0 4 -3 6 -8 6 -4 0 -5 0 -8 4 -3 4 -3 4 -10 4 -5 0 -6 0 -6
2 0 1 -2 5 -6 8 l-6 6 -6 0 c-6 0 -6 0 -6 2 0 3 -3 6 -6 6 -1 0 -2 1 -2 2 0 3
-3 6 -6 6 -1 0 -2 1 -2 2 0 3 -3 6 -6 6 -1 0 -2 1 -2 2 0 3 -3 6 -6 6 -2 0 -2
0 -2 6 0 7 -2 10 -6 10 -2 0 -2 0 -2 6 0 7 -2 10 -6 10 -2 0 -2 0 -2 6 0 5 0
7 -2 8 -2 2 -2 2 -4 0z m358 -54 c0 -8 0 -8 -2 -8 -3 0 -6 -3 -6 -6 0 -1 -1
-2 -2 -2 -3 0 -6 -3 -6 -6 0 -1 -1 -2 -2 -2 -3 0 -6 -3 -6 -6 0 -2 0 -2 -8 -2
-8 0 -8 0 -8 -2 0 -3 -3 -6 -6 -6 -2 0 -2 0 -2 -4 l0 -4 -8 0 c-8 0 -8 0 -8
-2 0 -4 -3 -6 -10 -6 -6 0 -6 0 -6 -2 0 -4 -3 -6 -10 -6 l-6 0 0 -4 0 -4 -12
0 -12 0 0 4 0 4 12 0 12 0 0 4 0 4 8 0 8 0 0 4 0 4 8 0 8 0 0 4 0 4 8 0 8 0 0
4 0 4 4 0 4 0 0 4 c0 3 0 4 2 4 3 0 6 3 6 6 0 1 1 2 2 2 3 0 6 3 6 6 0 1 1 2
2 2 3 0 6 3 6 6 0 1 1 2 2 2 3 0 6 3 6 6 0 2 0 2 4 2 l4 0 0 -8z m-328 -2 c0
-3 3 -6 6 -6 1 0 2 -1 2 -2 0 -3 3 -6 6 -6 1 0 2 -1 2 -2 0 -3 3 -6 6 -6 2 0
2 0 2 -4 0 -3 0 -4 2 -4 3 0 6 -3 6 -6 0 -2 0 -2 8 -2 l8 0 0 -4 c0 -3 0 -4 2
-4 3 0 6 -3 6 -6 0 -2 0 -2 -4 -2 l-4 0 0 4 0 4 -8 0 -8 0 0 4 0 4 -4 0 -4 0
0 4 0 4 -8 0 c-8 0 -8 0 -8 2 0 3 -3 6 -6 6 -1 0 -2 1 -2 2 0 3 -3 6 -6 6 -2
0 -2 0 -2 8 l0 8 4 0 c3 0 4 0 4 -2z m104 -66 l0 -4 4 0 4 0 0 -4 c0 -3 0 -4
-2 -4 -3 0 -6 3 -6 6 0 2 0 2 -12 2 l-12 0 0 4 0 4 12 0 12 0 0 -4z m94 -30
c1 -1 2 -2 2 -4 0 -2 0 -2 -4 -2 l-4 0 0 -8 0 -8 -4 0 c-3 0 -4 0 -4 -2 0 -3
-3 -6 -6 -6 -2 0 -2 0 -2 -8 l0 -8 -4 0 -4 0 0 -8 0 -8 -6 0 c-7 0 -10 2 -10
6 0 1 -1 2 -2 2 -2 0 -4 1 -4 2 -2 2 -2 2 0 4 3 4 6 3 6 -2 0 -3 0 -4 2 -4 3
0 6 3 6 6 0 2 0 2 4 2 l4 0 0 8 0 8 4 0 4 0 0 4 0 4 4 0 4 0 0 8 0 8 4 0 4 0
0 4 c0 5 3 6 6 2z m-54 -32 c0 -2 -1 -4 -2 -4 -2 -2 -2 -2 -4 0 -4 3 -3 6 2 6
4 0 4 0 4 -2z"/><path d="M434 270 c-3 -3 -3 -10 0 -12 3 -3 6 0 6 6 0 7 -3 10 -6 6z"/><path d="M450 270 c-3 -3 -3 -10 0 -12 3 -3 6 0 6 6 0 7 -3 10 -6 6z"/><path d="M49 262 c-1 -2 -1 -2 1 -4 l2 -2 2 2 c2 2 2 2 1 4 -1 1 -3 2 -3 2 0
0 -2 -1 -3 -2z"/><path d="M57 246 c-1 -2 -1 -2 1 -4 l2 -2 2 2 c2 2 2 2 1 4 -1 1 -3 2 -3 2 0
0 -2 -1 -3 -2z"/><path d="M65 230 c-1 -2 -1 -2 1 -4 l2 -2 2 2 c2 2 2 2 1 4 -1 1 -3 2 -3 2 0
0 -2 -1 -3 -2z"/><path d="M249 142 c-1 -2 -1 -2 1 -4 l2 -2 2 2 c2 2 2 2 1 4 -1 1 -3 2 -3 2 0
0 -2 -1 -3 -2z"/></g>
  <g transform="scale(0.125 0.125) translate(0.000000,512.000000) scale(1.000000,-1.000000)" fill="#282124" stroke="none"><path d="M225 486 c-1 -2 -1 -2 1 -4 l2 -2 2 2 c2 2 2 2 1 4 -1 1 -3 2 -3 2 0
0 -2 -1 -3 -2z"/><path d="M266 486 c-1 -1 -2 -3 -2 -4 0 -1 -1 -2 -2 -2 -2 0 -4 -1 -5 -2 -1
-2 -1 -2 1 -4 2 -2 2 -2 4 -1 1 1 2 3 2 5 0 2 0 2 6 2 8 0 12 3 9 6 -3 3 -11
3 -13 0z"/><path d="M241 478 c-1 -2 -1 -2 1 -4 l2 -2 2 2 c2 2 2 2 1 4 -1 1 -3 2 -3 2 0
0 -2 -1 -3 -2z"/><path d="M161 470 c-1 -2 -1 -2 1 -4 l2 -2 2 2 c2 2 2 2 1 4 -1 1 -3 2 -3 2 0
0 -2 -1 -3 -2z"/><path d="M193 470 c-1 -2 -1 -2 1 -4 l2 -2 2 2 c2 2 2 2 1 4 -1 1 -3 2 -3 2 0
0 -2 -1 -3 -2z"/><path d="M305 470 c-1 -2 -1 -2 1 -4 l2 -2 2 2 c2 2 2 2 1 4 -1 1 -3 2 -3 2 0
0 -2 -1 -3 -2z"/><path d="M337 470 c-1 -2 -1 -2 1 -4 l2 -2 2 2 c2 2 2 2 1 4 -1 1 -3 2 -3 2 0
0 -2 -1 -3 -2z"/><path d="M122 454 c-1 -1 -2 -3 -2 -4 0 -1 -1 -2 -2 -2 -3 0 -6 -3 -6 -6 0 -1
-1 -2 -2 -2 -2 0 -4 -1 -5 -2 -1 -2 -1 -2 1 -4 2 -2 2 -2 4 -1 1 1 2 3 2 5 0
1 1 2 2 2 3 0 6 3 6 6 0 1 1 2 2 2 2 0 4 1 5 2 1 2 1 2 0 4 -3 2 -3 2 -5 0z"/><path d="M345 454 c-1 -2 -1 -2 1 -4 l2 -2 2 2 c2 2 2 2 1 4 -1 1 -3 2 -3 2 0
0 -2 -1 -3 -2z"/><path d="M370 454 c-4 -3 0 -6 8 -6 6 0 6 0 6 -2 0 -3 3 -6 6 -6 1 0 2 -1 2
-2 0 -3 3 -6 6 -6 1 0 2 -1 2 -2 0 -3 3 -6 6 -6 1 0 2 -1 2 -2 0 -2 1 -4 2 -5
2 -1 2 -1 4 1 2 2 2 2 1 4 -1 1 -3 2 -5 2 -1 0 -2 1 -2 2 0 3 -3 6 -6 6 -1 0
-2 1 -2 2 0 3 -3 6 -6 6 -1 0 -2 1 -2 2 0 3 -3 6 -6 6 -1 0 -2 1 -2 2 0 6 -10
8 -14 4z"/><path d="M130 438 c-1 -1 -2 -3 -2 -4 0 -1 -1 -2 -2 -2 -2 0 -4 -1 -5 -2 -1
-2 -1 -2 1 -4 2 -2 2 -2 4 -1 1 1 2 3 2 5 0 1 1 2 2 2 2 0 4 1 5 2 1 2 1 2 0
4 -3 2 -3 2 -5 0z"/><path d="M369 438 c-1 -2 -1 -2 1 -4 l2 -2 2 2 c2 2 2 2 1 4 -1 1 -3 2 -3 2 0
0 -2 -1 -3 -2z"/><path d="M160 420 c-12 -12 -16 -15 -16 -10 0 2 -1 4 -2 5 -2 1 -2 1 -4 -1 -2
-2 -2 -2 -1 -4 1 -1 3 -2 5 -2 l2 0 0 -28 0 -28 -2 0 c-2 0 -4 -1 -5 -2 -1 -2
-1 -2 1 -4 2 -2 2 -2 4 -1 1 1 2 3 2 5 0 1 1 2 2 2 4 0 6 -3 6 -8 0 -4 0 -5 8
-12 l8 -8 0 -6 c0 -6 0 -6 -2 -6 -2 0 -4 -1 -5 -2 -1 -2 -1 -2 1 -4 2 -2 2 -2
4 -1 1 1 2 3 2 5 0 4 4 2 10 -4 6 -5 6 -6 6 -10 0 -4 0 -5 4 -8 5 -4 6 -8 2
-8 -2 0 -4 -1 -5 -2 -1 -2 -1 -2 1 -4 2 -2 2 -2 4 -1 1 1 2 3 2 5 0 4 4 2 14
-8 10 -10 10 -10 10 -14 0 -4 0 -5 4 -8 5 -4 6 -8 2 -8 -2 0 -4 -1 -5 -2 -1
-2 -1 -2 1 -4 2 -2 2 -2 4 -1 1 1 2 3 2 5 0 1 1 2 2 2 4 0 6 -3 6 -10 0 -6 0
-6 -2 -6 -2 0 -4 -1 -5 -2 -1 -2 -1 -2 1 -4 2 -2 2 -2 4 -1 1 1 2 3 2 5 0 1 1
2 2 2 4 0 6 -3 6 -8 0 -4 0 -5 4 -8 4 -3 4 -4 4 -8 0 -6 3 -9 6 -7 1 2 2 4 2
7 0 5 2 8 6 8 1 0 2 -1 2 -2 0 -2 1 -4 2 -5 2 -1 2 -1 4 1 2 2 2 2 1 4 -1 1
-3 2 -5 2 -2 0 -2 0 -2 6 l0 6 8 8 c8 7 8 8 8 12 0 4 1 5 6 10 6 6 10 8 10 4
0 -2 1 -4 2 -5 2 -1 2 -1 4 1 2 2 2 2 1 4 -1 1 -3 2 -5 2 -2 0 -2 0 -2 6 l0 6
6 6 c6 6 10 8 10 4 0 -2 1 -4 2 -4 2 -2 2 -2 4 0 1 0 2 2 2 4 0 1 1 2 2 2 2 0
4 1 5 2 1 2 1 2 0 4 -1 1 -3 2 -5 2 -4 0 -3 4 2 8 4 3 4 4 4 8 0 4 0 5 8 12 8
7 8 8 8 12 0 5 2 8 6 8 1 0 2 -1 2 -2 0 -2 1 -4 2 -5 2 -1 2 -1 4 1 2 2 2 2 1
4 -1 1 -3 2 -5 2 -4 0 -3 4 2 8 l4 3 0 9 c0 7 0 9 2 10 3 3 6 3 6 0 0 -2 1 -4
2 -5 2 -1 2 -1 4 1 2 2 2 2 1 4 -1 1 -3 2 -5 2 -2 0 -2 0 -2 10 l0 11 -4 3 -4
3 0 9 0 8 -6 6 c-5 6 -6 6 -10 6 -4 0 -5 0 -8 4 l-3 4 -21 0 -20 0 -16 -16
c-16 -16 -20 -19 -20 -14 0 2 -1 4 -2 5 -2 1 -2 1 -4 0 -1 -1 -2 -3 -2 -5 0
-1 -1 -2 -2 -2 -4 0 -6 3 -6 8 0 6 -2 8 -8 8 -4 0 -5 0 -12 8 l-8 8 -20 0 -20
0 -12 -12z m62 -14 c10 -10 10 -10 10 -14 0 -4 0 -5 4 -8 4 -3 4 -4 4 -8 0 -7
2 -8 12 -8 l8 0 6 6 6 6 0 8 0 8 10 10 10 10 16 0 16 0 10 -10 10 -10 0 -20 0
-21 -4 -3 c-4 -3 -4 -4 -4 -8 0 -4 0 -5 -8 -12 -8 -7 -8 -8 -8 -12 0 -4 0 -4
-16 -20 -16 -15 -16 -16 -16 -20 0 -4 -1 -5 -10 -14 l-10 -10 -16 0 -16 0 -10
10 c-9 9 -10 10 -10 14 0 4 0 5 -12 16 -12 11 -12 12 -12 16 0 4 0 5 -12 16
l-12 12 0 8 0 9 -4 3 -4 3 0 17 0 16 10 10 10 10 16 0 16 0 10 -10z m34 -8 c0
-2 -1 -4 -2 -4 -2 -2 -2 -2 -4 0 -4 3 -3 6 2 6 4 0 4 0 4 -2z m64 -114 l0 -4
-4 0 c-3 0 -4 0 -4 2 0 3 3 6 6 6 2 0 2 0 2 -4z"/><path d="M89 422 c-1 -2 -1 -2 1 -4 l2 -2 2 2 c2 2 2 2 1 4 -1 1 -3 2 -3 2 0
0 -2 -1 -3 -2z"/><path d="M74 406 c-1 -1 -2 -3 -2 -4 0 -1 -1 -2 -2 -2 -4 0 -6 -3 -6 -10 0 -6
0 -6 -2 -6 -2 0 -4 -1 -5 -2 -1 -2 -1 -2 1 -4 2 -2 2 -2 4 -1 1 1 2 3 2 5 0 1
1 2 2 2 4 0 6 3 6 10 0 6 0 6 2 6 2 0 4 1 5 2 1 2 1 2 0 4 -3 2 -3 2 -5 0z"/><path d="M369 406 c-1 -2 -1 -2 1 -4 l2 -2 2 2 c2 2 2 2 1 4 -1 1 -3 2 -3 2 0
0 -2 -1 -3 -2z"/><path d="M426 406 c-2 -2 -2 -2 0 -4 0 -1 2 -2 4 -2 1 0 2 -1 2 -2 0 -2 1 -4
2 -5 2 -1 2 -1 4 1 2 2 2 2 1 4 -1 1 -3 2 -5 2 -1 0 -2 1 -2 2 0 2 -3 6 -4 6
0 0 -2 -1 -2 -2z"/><path d="M90 398 c-1 -1 -2 -3 -2 -4 0 -1 -1 -2 -2 -2 -2 0 -4 -1 -5 -2 -1 -2
-1 -2 1 -4 2 -2 2 -2 4 -1 1 1 2 3 2 5 0 1 1 2 2 2 2 0 4 1 5 2 1 2 1 2 0 4
-3 2 -3 2 -5 0z"/><path d="M129 398 c-1 -2 -1 -2 1 -4 l2 -2 2 2 c2 2 2 2 1 4 -1 1 -3 2 -3 2 0
0 -2 -1 -3 -2z"/><path d="M410 398 c-2 -2 -2 -2 0 -4 0 -1 2 -2 4 -2 1 0 2 -1 2 -2 0 -2 1 -4
2 -5 2 -1 2 -1 4 1 2 2 2 2 1 4 -1 1 -3 2 -5 2 -1 0 -2 1 -2 2 0 2 -3 6 -4 6
0 0 -2 -1 -2 -2z"/><path d="M441 382 c-1 -2 -1 -2 1 -4 l2 -2 2 2 c2 2 2 2 1 4 -1 1 -3 2 -3 2 0
0 -2 -1 -3 -2z"/><path d="M129 374 c-1 -2 -1 -2 1 -4 l2 -2 2 2 c2 2 2 2 1 4 -1 1 -3 2 -3 2 0
0 -2 -1 -3 -2z"/><path d="M425 374 c-1 -2 -1 -2 1 -4 l2 -2 2 2 c2 2 2 2 1 4 -1 1 -3 2 -3 2 0
0 -2 -1 -3 -2z"/><path d="M450 366 c-3 -3 -3 -10 0 -12 3 -3 6 0 6 6 0 7 -3 10 -6 6z"/><path d="M49 358 c-1 -2 -1 -2 1 -4 l2 -2 2 2 c2 2 2 2 1 4 -1 1 -3 2 -3 2 0
0 -2 -1 -3 -2z"/><path d="M458 334 c-3 -3 -3 -50 0 -52 2 -2 2 -2 4 0 3 2 3 50 0 52 -2 2 -2 2
-4 0z"/><path d="M57 310 c-1 -2 -1 -2 1 -4 l2 -2 2 2 c2 2 2 2 1 4 -1 1 -3 2 -3 2 0
0 -2 -1 -3 -2z"/><path d="M65 270 c-1 -2 -1 -2 1 -4 l2 -2 2 2 c2 2 2 2 1 4 -1 1 -3 2 -3 2 0
0 -2 -1 -3 -2z"/><path d="M433 270 c-1 -2 -1 -2 1 -4 l2 -2 2 2 c2 2 2 2 1 4 -1 1 -3 2 -3 2 0
0 -2 -1 -3 -2z"/><path d="M450 270 c-3 -3 -3 -10 0 -12 3 -3 6 0 6 6 0 7 -3 10 -6 6z"/><path d="M49 262 c-1 -2 -1 -2 1 -4 l2 -2 2 2 c2 2 2 2 1 4 -1 1 -3 2 -3 2 0
0 -2 -1 -3 -2z"/><path d="M73 254 c-1 -2 -1 -2 1 -4 l2 -2 2 2 c2 2 2 2 1 4 -1 1 -3 2 -3 2 0
0 -2 -1 -3 -2z"/><path d="M57 246 c-1 -2 -1 -2 1 -4 l2 -2 2 2 c2 2 2 2 1 4 -1 1 -3 2 -3 2 0
0 -2 -1 -3 -2z"/><path d="M442 246 c-2 -1 -2 -3 -2 -8 0 -6 0 -6 -2 -6 -3 0 -6 -3 -6 -6 0 -1
-1 -2 -2 -2 -4 0 -6 -3 -6 -10 0 -6 0 -6 -2 -6 -3 0 -6 -3 -6 -6 0 -1 -1 -2
-2 -2 -3 0 -6 -3 -6 -6 0 -1 -1 -2 -2 -2 -3 0 -6 -3 -6 -6 0 -2 -1 -2 -6 -2
l-6 0 -6 -6 c-4 -3 -6 -7 -6 -8 0 -2 -1 -2 -6 -2 -7 0 -7 0 -10 -4 -3 -4 -4
-4 -8 -4 -4 0 -5 0 -8 -4 -3 -4 -4 -4 -8 -4 -5 0 -8 -2 -8 -6 0 -2 0 -2 -10
-2 -13 0 -14 -1 -14 -10 l0 -6 -4 0 c-4 0 -4 0 -4 2 0 2 -1 4 -2 5 -2 1 -2 1
-4 -1 -2 -2 -2 -2 -1 -4 1 -1 3 -2 5 -2 2 0 2 0 2 -8 0 -8 0 -8 -2 -8 -4 0 -6
-3 -6 -10 0 -6 0 -6 -2 -6 -2 0 -4 -1 -6 -4 -4 -5 -8 -6 -8 -2 0 2 -1 4 -2 4
-2 2 -2 2 -4 0 -1 0 -2 -2 -2 -4 0 -1 -1 -2 -2 -2 -2 0 -4 -1 -5 -2 -1 -2 -1
-2 1 -4 2 -2 2 -2 4 -1 1 1 2 3 2 5 0 2 0 2 4 2 l4 0 0 -8 c0 -8 0 -8 -2 -8
-4 0 -6 -3 -6 -10 l0 -6 -6 0 -6 0 -6 6 -6 6 0 6 c0 6 0 6 2 6 2 0 4 1 5 2 1
2 1 2 -1 4 -2 2 -2 2 -4 1 -1 -1 -2 -3 -2 -5 0 -4 -4 -3 -8 2 -2 3 -4 4 -6 4
-2 0 -2 0 -2 8 0 8 0 8 2 8 2 0 4 1 5 2 1 2 1 2 -1 4 -2 2 -2 2 -4 1 -1 -1 -2
-3 -2 -5 0 -2 0 -2 -4 -2 l-4 0 0 8 c0 8 0 8 2 8 2 0 4 1 5 2 1 2 1 2 -1 4 -2
2 -2 2 -4 1 -1 -1 -2 -3 -2 -5 0 -1 -1 -2 -2 -2 -4 0 -6 3 -6 8 0 4 -1 5 -6
10 l-6 6 -10 0 c-10 0 -10 0 -10 2 0 6 -10 8 -14 4 -4 -3 0 -6 8 -6 6 0 6 0 6
-2 0 -4 3 -6 8 -6 6 0 16 -10 16 -16 0 -4 1 -5 6 -10 3 -4 7 -6 8 -6 2 0 2 -1
2 -6 0 -7 2 -10 6 -10 2 0 2 0 2 -6 0 -7 0 -7 4 -10 4 -3 4 -4 4 -8 0 -4 0 -5
8 -12 8 -7 8 -8 8 -12 0 -3 1 -5 2 -6 2 -2 2 -2 8 4 l6 6 0 6 c0 6 0 6 2 6 4
0 6 3 6 10 0 5 0 6 2 6 1 0 5 2 8 6 l6 6 0 6 c0 6 0 6 2 6 4 0 6 3 6 10 0 6 0
6 2 6 4 0 6 3 6 10 0 6 0 6 2 6 2 0 4 1 6 4 3 4 4 4 8 4 5 0 8 2 8 6 0 2 0 2
10 2 l11 0 3 4 c3 4 4 4 8 4 4 0 5 0 10 6 4 3 6 7 6 8 0 2 1 2 6 2 l6 0 6 6
c4 3 6 7 6 8 0 1 1 2 2 2 3 0 6 3 6 6 0 1 1 2 2 2 3 0 6 3 6 6 0 1 1 2 2 2 3
0 6 3 6 6 0 1 1 2 2 2 4 0 6 3 6 10 0 6 0 6 2 6 3 0 6 3 6 6 0 1 1 2 2 2 6 0
8 10 4 14 -2 2 -2 2 -4 0z"/><path d="M81 238 c-1 -2 -1 -2 1 -4 l2 -2 2 2 c2 2 2 2 1 4 -1 1 -3 2 -3 2 0
0 -2 -1 -3 -2z"/><path d="M417 238 c-1 -2 -1 -2 1 -4 l2 -2 2 2 c2 2 2 2 1 4 -1 1 -3 2 -3 2 0
0 -2 -1 -3 -2z"/><path d="M65 230 c-1 -2 -1 -2 1 -4 l2 -2 2 2 c2 2 2 2 1 4 -1 1 -3 2 -3 2 0
0 -2 -1 -3 -2z"/><path d="M74 214 c-2 -2 -2 -2 4 -8 3 -3 7 -6 8 -6 1 0 2 -1 2 -2 0 -3 3 -6 6
-6 1 0 2 -1 2 -2 0 -3 3 -6 6 -6 1 0 2 -1 2 -2 0 -4 3 -6 10 -6 6 0 6 0 6 -2
0 -3 3 -6 6 -6 1 0 2 -1 2 -2 0 -4 3 -6 10 -6 6 0 6 0 6 -2 0 -2 1 -4 2 -5 2
-1 2 -1 4 1 2 2 2 2 1 4 -1 1 -3 2 -5 2 -1 0 -2 1 -2 2 0 4 -3 6 -10 6 -6 0
-6 0 -6 2 0 3 -3 6 -6 6 -1 0 -2 1 -2 2 0 4 -3 6 -10 6 -6 0 -6 0 -6 2 0 3 -3
6 -6 6 -1 0 -2 1 -2 2 0 3 -3 6 -6 6 -2 0 -2 0 -2 6 0 8 -2 10 -8 10 -3 0 -5
-1 -6 -2z"/><path d="M97 214 c-1 -2 -1 -2 1 -4 l2 -2 2 2 c2 2 2 2 1 4 -1 1 -3 2 -3 2 0
0 -2 -1 -3 -2z"/><path d="M393 206 c-1 -2 -1 -2 1 -4 l2 -2 2 2 c2 2 2 2 1 4 -1 1 -3 2 -3 2 0
0 -2 -1 -3 -2z"/><path d="M130 190 c-2 -2 -2 -2 0 -4 0 -1 2 -2 4 -2 1 0 2 -1 2 -2 0 -2 1 -4
2 -5 2 -1 2 -1 4 1 2 2 2 2 1 4 -1 1 -3 2 -5 2 -1 0 -2 1 -2 2 0 2 -3 6 -4 6
0 0 -2 -1 -2 -2z"/><path d="M241 182 c-1 -2 -1 -2 1 -4 l2 -2 2 2 c2 2 2 2 1 4 -1 1 -3 2 -3 2 0
0 -2 -1 -3 -2z"/><path d="M257 182 c-1 -2 -1 -2 1 -4 l2 -2 2 2 c2 2 2 2 1 4 -1 1 -3 2 -3 2 0
0 -2 -1 -3 -2z"/><path d="M361 182 c-1 -2 -1 -2 1 -4 l2 -2 2 2 c2 2 2 2 1 4 -1 1 -3 2 -3 2 0
0 -2 -1 -3 -2z"/><path d="M153 174 c-1 -2 -1 -2 1 -4 l2 -2 2 2 c2 2 2 2 1 4 -1 1 -3 2 -3 2 0
0 -2 -1 -3 -2z"/><path d="M345 174 c-1 -2 -1 -2 1 -4 l2 -2 2 2 c2 2 2 2 1 4 -1 1 -3 2 -3 2 0
0 -2 -1 -3 -2z"/><path d="M169 166 c-1 -2 -1 -2 1 -4 l2 -2 2 2 c2 2 2 2 1 4 -1 1 -3 2 -3 2 0
0 -2 -1 -3 -2z"/><path d="M329 166 c-1 -2 -1 -2 1 -4 l2 -2 2 2 c2 2 2 2 1 4 -1 1 -3 2 -3 2 0
0 -2 -1 -3 -2z"/><path d="M193 158 c-1 -2 -1 -2 1 -4 l2 -2 2 2 c2 2 2 2 1 4 -1 1 -3 2 -3 2 0
0 -2 -1 -3 -2z"/><path d="M305 158 c-1 -2 -1 -2 1 -4 l2 -2 2 2 c2 2 2 2 1 4 -1 1 -3 2 -3 2 0
0 -2 -1 -3 -2z"/><path d="M249 142 c-1 -2 -1 -2 1 -4 l2 -2 2 2 c2 2 2 2 1 4 -1 1 -3 2 -3 2 0
0 -2 -1 -3 -2z"/><path d="M273 110 c-1 -2 -1 -2 1 -4 l2 -2 2 2 c2 2 2 2 1 4 -1 1 -3 2 -3 2 0
0 -2 -1 -3 -2z"/></g>
  <g transform="scale(0.125 0.125) translate(0.000000,512.000000) scale(1.000000,-1.000000)" fill="#000000" stroke="none"><path d="M241 478 c-1 -2 -1 -2 1 -4 l2 -2 2 2 c2 2 2 2 1 4 -1 1 -3 2 -3 2 0
0 -2 -1 -3 -2z"/><path d="M257 478 c-1 -2 -1 -2 1 -4 l2 -2 2 2 c2 2 2 2 1 4 -1 1 -3 2 -3 2 0
0 -2 -1 -3 -2z"/><path d="M193 470 c-1 -2 -1 -2 1 -4 l2 -2 2 2 c2 2 2 2 1 4 -1 1 -3 2 -3 2 0
0 -2 -1 -3 -2z"/><path d="M305 470 c-1 -2 -1 -2 1 -4 l2 -2 2 2 c2 2 2 2 1 4 -1 1 -3 2 -3 2 0
0 -2 -1 -3 -2z"/><path d="M345 454 c-1 -2 -1 -2 1 -4 l2 -2 2 2 c2 2 2 2 1 4 -1 1 -3 2 -3 2 0
0 -2 -1 -3 -2z"/><path d="M130 438 c-1 -1 -2 -3 -2 -4 0 -1 -1 -2 -2 -2 -2 0 -4 -1 -5 -2 -1
-2 -1 -2 1 -4 2 -2 2 -2 4 -1 1 1 2 3 2 5 0 1 1 2 2 2 2 0 4 1 5 2 1 2 1 2 0
4 -3 2 -3 2 -5 0z"/><path d="M369 438 c-1 -2 -1 -2 1 -4 l2 -2 2 2 c2 2 2 2 1 4 -1 1 -3 2 -3 2 0
0 -2 -1 -3 -2z"/><path d="M176 428 c-3 -4 -4 -4 -8 -4 -4 0 -5 0 -12 -8 -8 -8 -12 -10 -12 -6
0 2 -1 4 -2 5 -2 1 -2 1 -4 -1 -2 -2 -2 -2 -1 -4 1 -1 3 -2 5 -2 l2 0 0 -28 0
-28 -2 0 c-2 0 -4 -1 -5 -2 -1 -2 -1 -2 1 -4 2 -2 2 -2 4 -1 1 1 2 3 2 5 0 1
1 2 2 2 4 0 6 -3 6 -8 0 -4 0 -5 8 -12 l8 -8 0 -6 c0 -6 0 -6 -2 -6 -2 0 -4
-1 -5 -2 -1 -2 -1 -2 1 -4 2 -2 2 -2 4 -1 1 1 2 3 2 5 0 4 4 2 14 -8 l10 -10
0 -6 c0 -6 0 -6 -2 -6 -2 0 -4 -1 -5 -2 -1 -2 -1 -2 1 -4 2 -2 2 -2 4 -1 1 1
2 3 2 5 0 4 4 3 8 -2 2 -3 4 -4 6 -4 1 0 2 -1 2 -2 0 -2 1 -4 4 -6 4 -3 4 -4
4 -8 0 -5 2 -8 6 -8 2 0 2 -1 2 -4 0 -4 0 -4 -2 -4 -2 0 -4 -1 -5 -2 -1 -2 -1
-2 1 -4 2 -2 2 -2 4 -1 1 1 2 3 2 5 0 4 4 2 10 -4 l6 -6 0 -8 0 -8 6 -6 6 -6
4 4 c4 5 8 6 8 2 0 -2 1 -4 2 -5 2 -1 2 -1 4 1 2 2 2 2 1 4 -1 1 -3 2 -5 2 -2
0 -2 0 -2 6 0 7 0 7 4 10 4 3 4 4 4 8 0 4 0 5 8 12 8 7 8 8 8 12 0 4 0 5 8 12
5 5 8 8 8 10 0 2 1 2 4 2 4 0 4 0 4 -2 0 -2 1 -4 2 -4 2 -2 2 -2 4 0 1 0 2 2
2 4 0 1 1 2 2 2 2 0 4 1 5 2 1 2 1 2 -1 4 -2 2 -2 2 -4 1 -1 -1 -2 -3 -2 -5 0
-2 0 -2 -4 -2 l-4 0 0 6 0 6 12 12 c12 11 12 12 12 16 0 4 1 5 6 10 6 6 10 8
10 4 0 -2 1 -4 2 -5 2 -1 2 -1 4 1 2 2 2 2 1 4 -1 1 -3 2 -5 2 -2 0 -2 0 -2 8
0 8 0 8 2 8 6 0 6 2 6 28 l0 24 -14 14 -14 14 -16 0 c-18 0 -20 -1 -20 -6 0
-2 -1 -2 -6 -2 l-6 0 -6 -6 c-4 -3 -6 -7 -6 -8 0 -1 -1 -2 -2 -2 -4 0 -6 -3
-6 -10 0 -6 0 -6 -2 -6 -2 0 -4 -2 -6 -4 -4 -4 -4 -4 -6 -3 -3 3 -3 15 0 15 2
0 4 1 5 2 1 2 1 2 -1 4 -2 2 -2 2 -4 1 -1 -1 -2 -3 -2 -5 0 -5 -4 -2 -20 14
l-16 16 -16 0 -17 0 -3 -4z m42 -18 c14 -14 14 -14 14 -18 0 -4 0 -5 4 -8 4
-3 4 -4 4 -8 0 -6 2 -8 8 -8 4 0 5 0 8 4 3 4 4 4 8 4 3 0 5 1 7 2 1 2 1 2 -3
6 -5 4 -6 8 -2 8 4 0 6 3 6 10 l0 6 6 0 6 0 6 6 c4 3 6 7 6 8 0 2 1 2 10 2
l10 0 14 -14 14 -14 0 -16 0 -17 4 -3 c3 -2 4 -4 4 -6 0 -2 0 -2 -6 -2 -8 0
-10 -2 -10 -8 0 -4 0 -5 -8 -12 -8 -7 -8 -8 -8 -12 0 -4 0 -5 -12 -16 -12 -12
-15 -16 -10 -16 3 0 6 -3 6 -6 0 -1 -1 -2 -2 -2 -3 0 -6 3 -6 6 0 1 -1 2 -2 2
-4 0 -6 -3 -6 -8 0 -4 0 -4 -10 -14 l-10 -10 -18 0 c-18 0 -18 0 -18 -2 0 -3
-3 -6 -6 -6 -1 0 -2 1 -2 2 0 3 3 6 6 6 4 0 2 4 -4 10 l-6 6 -6 0 c-8 0 -8 3
-2 8 l4 4 -12 12 c-12 11 -12 12 -12 16 0 4 0 5 -12 16 l-12 12 0 8 c0 10 -1
12 -8 12 -3 0 -5 1 -7 2 -1 2 -1 2 3 6 l4 4 0 12 0 12 14 14 14 14 8 0 8 0 14
-14z"/><path d="M369 406 c-1 -2 -1 -2 1 -4 l2 -2 2 2 c2 2 2 2 1 4 -1 1 -3 2 -3 2 0
0 -2 -1 -3 -2z"/><path d="M90 398 c-1 -1 -2 -3 -2 -4 0 -1 -1 -2 -2 -2 -2 0 -4 -1 -5 -2 -1 -2
-1 -2 1 -4 2 -2 2 -2 4 -1 1 1 2 3 2 5 0 1 1 2 2 2 2 0 4 1 5 2 1 2 1 2 0 4
-3 2 -3 2 -5 0z"/><path d="M129 398 c-1 -2 -1 -2 1 -4 l2 -2 2 2 c2 2 2 2 1 4 -1 1 -3 2 -3 2 0
0 -2 -1 -3 -2z"/><path d="M410 398 c-2 -2 -2 -2 0 -4 0 -1 2 -2 4 -2 1 0 2 -1 2 -2 0 -2 1 -4
2 -5 2 -1 2 -1 4 1 2 2 2 2 1 4 -1 1 -3 2 -5 2 -1 0 -2 1 -2 2 0 2 -3 6 -4 6
0 0 -2 -1 -2 -2z"/><path d="M129 374 c-1 -2 -1 -2 1 -4 l2 -2 2 2 c2 2 2 2 1 4 -1 1 -3 2 -3 2 0
0 -2 -1 -3 -2z"/><path d="M425 374 c-1 -2 -1 -2 1 -4 l2 -2 2 2 c2 2 2 2 1 4 -1 1 -3 2 -3 2 0
0 -2 -1 -3 -2z"/><path d="M369 366 c-1 -2 -1 -2 1 -4 l2 -2 2 2 c2 2 2 2 1 4 -1 1 -3 2 -3 2 0
0 -2 -1 -3 -2z"/><path d="M458 326 c-3 -3 -3 -34 0 -36 2 -2 2 -2 4 0 3 2 3 34 0 36 -2 2 -2 2
-4 0z"/><path d="M57 310 c-1 -2 -1 -2 1 -4 l2 -2 2 2 c2 2 2 2 1 4 -1 1 -3 2 -3 2 0
0 -2 -1 -3 -2z"/><path d="M65 270 c-1 -2 -1 -2 1 -4 l2 -2 2 2 c2 2 2 2 1 4 -1 1 -3 2 -3 2 0
0 -2 -1 -3 -2z"/><path d="M433 270 c-1 -2 -1 -2 1 -4 l2 -2 2 2 c2 2 2 2 1 4 -1 1 -3 2 -3 2 0
0 -2 -1 -3 -2z"/><path d="M73 254 c-1 -2 -1 -2 1 -4 l2 -2 2 2 c2 2 2 2 1 4 -1 1 -3 2 -3 2 0
0 -2 -1 -3 -2z"/><path d="M297 254 c-1 -2 -1 -2 1 -4 l2 -2 2 2 c2 2 2 2 1 4 -1 1 -3 2 -3 2 0
0 -2 -1 -3 -2z"/><path d="M81 238 c-1 -2 -1 -2 1 -4 l2 -2 2 2 c2 2 2 2 1 4 -1 1 -3 2 -3 2 0
0 -2 -1 -3 -2z"/><path d="M417 238 c-1 -2 -1 -2 1 -4 l2 -2 2 2 c2 2 2 2 1 4 -1 1 -3 2 -3 2 0
0 -2 -1 -3 -2z"/><path d="M225 222 c-1 -2 -1 -2 1 -4 l2 -2 2 2 c2 2 2 2 1 4 -1 1 -3 2 -3 2 0
0 -2 -1 -3 -2z"/><path d="M97 214 c-1 -2 -1 -2 1 -4 l2 -2 2 2 c2 2 2 2 1 4 -1 1 -3 2 -3 2 0
0 -2 -1 -3 -2z"/><path d="M393 206 c-1 -2 -1 -2 1 -4 l2 -2 2 2 c2 2 2 2 1 4 -1 1 -3 2 -3 2 0
0 -2 -1 -3 -2z"/><path d="M130 190 c-2 -2 -2 -2 0 -4 0 -1 2 -2 4 -2 1 0 2 -1 2 -2 0 -2 1 -4
2 -5 2 -1 2 -1 4 1 2 2 2 2 1 4 -1 1 -3 2 -5 2 -1 0 -2 1 -2 2 0 2 -3 6 -4 6
0 0 -2 -1 -2 -2z"/><path d="M241 182 c-1 -2 -1 -2 1 -4 l2 -2 2 2 c2 2 2 2 1 4 -1 1 -3 2 -3 2 0
0 -2 -1 -3 -2z"/><path d="M257 182 c-1 -2 -1 -2 1 -4 l2 -2 2 2 c2 2 2 2 1 4 -1 1 -3 2 -3 2 0
0 -2 -1 -3 -2z"/><path d="M361 182 c-1 -2 -1 -2 1 -4 l2 -2 2 2 c2 2 2 2 1 4 -1 1 -3 2 -3 2 0
0 -2 -1 -3 -2z"/><path d="M153 174 c-1 -2 -1 -2 1 -4 l2 -2 2 2 c2 2 2 2 1 4 -1 1 -3 2 -3 2 0
0 -2 -1 -3 -2z"/><path d="M345 174 c-1 -2 -1 -2 1 -4 l2 -2 2 2 c2 2 2 2 1 4 -1 1 -3 2 -3 2 0
0 -2 -1 -3 -2z"/><path d="M169 166 c-1 -2 -1 -2 1 -4 l2 -2 2 2 c2 2 2 2 1 4 -1 1 -3 2 -3 2 0
0 -2 -1 -3 -2z"/><path d="M329 166 c-1 -2 -1 -2 1 -4 l2 -2 2 2 c2 2 2 2 1 4 -1 1 -3 2 -3 2 0
0 -2 -1 -3 -2z"/><path d="M193 158 c-1 -2 -1 -2 1 -4 l2 -2 2 2 c2 2 2 2 1 4 -1 1 -3 2 -3 2 0
0 -2 -1 -3 -2z"/><path d="M305 158 c-1 -2 -1 -2 1 -4 l2 -2 2 2 c2 2 2 2 1 4 -1 1 -3 2 -3 2 0
0 -2 -1 -3 -2z"/><path d="M194 142 c-2 -2 -2 -2 0 -4 0 -1 2 -2 4 -2 2 0 2 0 2 -10 l0 -10 6
-6 c3 -4 7 -6 8 -6 2 0 2 -1 2 -6 0 -7 2 -10 6 -10 2 0 2 0 2 -6 0 -7 0 -7 4
-10 4 -3 4 -4 4 -8 0 -4 0 -5 8 -12 8 -7 8 -8 8 -12 0 -3 1 -5 2 -6 2 -2 2 -2
8 4 l6 6 0 6 c0 6 0 6 2 6 4 0 6 3 6 10 0 5 0 6 2 6 1 0 5 2 8 6 l6 6 0 6 c0
6 0 6 2 6 4 0 6 3 6 10 0 6 0 6 2 6 4 0 6 3 6 10 0 5 0 6 2 6 1 0 5 3 8 6 6 6
6 6 4 8 -1 1 -3 2 -6 2 -6 0 -8 -2 -8 -10 l0 -6 -4 0 c-4 0 -4 0 -4 2 0 2 -1
4 -2 5 -2 1 -2 1 -4 -1 -2 -2 -2 -2 -1 -4 1 -1 3 -2 5 -2 2 0 2 0 2 -8 0 -8 0
-8 -2 -8 -4 0 -6 -3 -6 -10 0 -6 0 -6 -2 -6 -2 0 -4 -1 -6 -4 -4 -5 -8 -6 -8
-2 0 2 -1 4 -2 5 -2 1 -2 1 -4 -1 -1 0 -2 -2 -2 -4 0 -1 -1 -2 -2 -2 -2 0 -4
-1 -5 -2 -1 -2 -1 -2 1 -4 2 -2 2 -2 4 -1 1 1 2 3 2 5 0 2 0 2 4 2 l4 0 0 -8
c0 -8 0 -8 -2 -8 -4 0 -6 -3 -6 -10 l0 -6 -6 0 -6 0 -6 6 -6 6 0 6 c0 6 0 6 2
6 2 0 4 1 5 2 1 2 1 2 -1 4 -2 2 -2 2 -4 1 -1 -1 -2 -3 -2 -5 0 -4 -4 -3 -8 2
-2 3 -4 4 -6 4 -2 0 -2 0 -2 8 0 8 0 8 2 8 2 0 4 1 5 2 1 2 1 2 -1 4 -2 2 -2
2 -4 1 -1 -1 -2 -3 -2 -5 0 -2 0 -2 -4 -2 l-4 0 0 8 c0 8 0 8 2 8 2 0 4 1 5 2
1 2 1 2 -1 4 -2 2 -2 2 -4 1 -1 -1 -2 -3 -2 -5 0 -1 -1 -2 -2 -2 -4 0 -6 3 -6
8 0 5 -2 8 -6 8 -1 0 -2 1 -2 2 0 2 -3 6 -4 6 0 0 -2 -1 -2 -2z"/><path d="M249 142 c-1 -2 -1 -2 1 -4 l2 -2 2 2 c2 2 2 2 1 4 -1 1 -3 2 -3 2 0
0 -2 -1 -3 -2z"/><path d="M273 110 c-1 -2 -1 -2 1 -4 l2 -2 2 2 c2 2 2 2 1 4 -1 1 -3 2 -3 2 0
0 -2 -1 -3 -2z"/></g>
  <g transform="scale(0.125 0.125) translate(0.000000,512.000000) scale(1.000000,-1.000000)" fill="#fdfdfd" stroke="none"><path d="M241 478 c-1 -2 -1 -2 1 -4 l2 -2 2 2 c2 2 2 2 1 4 -1 1 -3 2 -3 2 0
0 -2 -1 -3 -2z"/><path d="M257 478 c-1 -2 -1 -2 1 -4 l2 -2 2 2 c2 2 2 2 1 4 -1 1 -3 2 -3 2 0
0 -2 -1 -3 -2z"/><path d="M193 470 c-1 -2 -1 -2 1 -4 l2 -2 2 2 c2 2 2 2 1 4 -1 1 -3 2 -3 2 0
0 -2 -1 -3 -2z"/><path d="M305 470 c-1 -2 -1 -2 1 -4 l2 -2 2 2 c2 2 2 2 1 4 -1 1 -3 2 -3 2 0
0 -2 -1 -3 -2z"/><path d="M345 454 c-1 -2 -1 -2 1 -4 l2 -2 2 2 c2 2 2 2 1 4 -1 1 -3 2 -3 2 0
0 -2 -1 -3 -2z"/><path d="M130 438 c-1 -1 -2 -3 -2 -4 0 -1 -1 -2 -2 -2 -2 0 -4 -1 -5 -2 -1
-2 -1 -2 1 -4 2 -2 2 -2 4 -1 1 1 2 3 2 5 0 1 1 2 2 2 2 0 4 1 5 2 1 2 1 2 0
4 -3 2 -3 2 -5 0z"/><path d="M369 438 c-1 -2 -1 -2 1 -4 l2 -2 2 2 c2 2 2 2 1 4 -1 1 -3 2 -3 2 0
0 -2 -1 -3 -2z"/><path d="M210 430 c-4 -4 -2 -14 4 -14 1 0 2 -1 2 -2 0 -3 3 -6 6 -6 1 0 2 -1
2 -2 0 -3 3 -6 6 -6 2 0 2 0 2 -6 0 -5 0 -7 2 -8 2 -2 2 -2 8 4 3 3 6 7 6 8 0
1 1 2 2 2 2 0 4 1 5 2 1 2 1 2 -1 4 -2 2 -2 2 -4 1 -1 -1 -2 -3 -2 -5 0 -2 0
-2 -8 -2 -8 0 -8 0 -8 2 0 3 -3 6 -6 6 -1 0 -2 1 -2 2 0 3 -3 6 -6 6 -2 0 -2
0 -2 6 0 5 0 7 -2 8 -2 2 -2 2 -4 0z"/><path d="M330 430 c-1 -1 -2 -3 -2 -4 0 -1 -1 -2 -2 -2 -2 0 -4 -1 -4 -2 -2
-2 -2 -2 0 -4 0 -1 2 -2 4 -2 1 0 2 -1 2 -2 0 -3 3 -6 6 -6 1 0 2 -1 2 -2 0
-3 3 -6 6 -6 2 0 2 0 2 -18 0 -17 0 -19 2 -20 2 -2 2 -2 4 0 2 1 2 3 2 18 0
18 -1 20 -6 20 -1 0 -2 1 -2 2 0 3 -3 6 -6 6 -1 0 -2 1 -2 2 0 3 -3 6 -6 6 -2
0 -2 1 -2 4 0 4 0 4 2 4 2 0 4 1 5 2 1 2 1 2 0 4 -3 2 -3 2 -5 0z"/><path d="M162 422 c-2 -2 -2 -2 0 -4 0 -1 2 -2 4 -2 2 0 2 0 2 -4 0 -4 0 -4
-2 -4 -3 0 -6 -3 -6 -6 0 -2 -1 -2 -4 -2 -4 0 -4 0 -4 2 0 3 -3 6 -6 6 -1 0
-2 1 -2 2 0 2 -1 4 -2 5 -2 1 -2 1 -4 -1 -2 -2 -2 -2 -1 -4 1 -1 3 -2 5 -2 1
0 2 -1 2 -2 0 -3 3 -6 6 -6 2 0 2 0 2 -16 l0 -16 -2 0 c-4 0 -6 -3 -6 -10 0
-6 0 -6 -2 -6 -2 0 -4 -1 -5 -2 -1 -2 -1 -2 1 -4 2 -2 2 -2 4 -1 1 1 2 3 2 5
0 3 12 3 15 0 1 -2 1 -2 -3 -6 -4 -4 -4 -4 -3 -6 2 -2 3 -2 9 -2 6 0 6 0 6 -2
0 -3 3 -6 6 -6 4 0 3 -4 -2 -8 -3 -2 -4 -4 -4 -6 0 -1 -1 -2 -2 -2 -2 0 -4 -1
-5 -2 -1 -2 -1 -2 1 -4 2 -2 2 -2 4 -1 1 1 2 3 2 5 0 2 0 2 6 2 7 0 7 0 10 -4
2 -3 4 -4 6 -4 1 0 2 -1 2 -2 0 -3 3 -6 6 -6 4 0 3 -4 -2 -8 -3 -2 -4 -4 -4
-6 0 -1 -1 -2 -2 -2 -2 0 -4 -1 -5 -2 -1 -2 -1 -2 1 -4 2 -2 2 -2 4 -1 1 1 2
3 2 5 0 4 4 3 8 -2 2 -3 4 -4 6 -4 1 0 2 -1 2 -2 0 -4 3 -6 10 -6 l6 0 0 -4
c0 -4 0 -4 -2 -4 -2 0 -4 -1 -4 -2 -2 -2 -2 -2 0 -4 0 -1 2 -2 4 -2 2 0 2 0 2
-4 0 -4 0 -4 -2 -4 -2 0 -4 -1 -5 -2 -1 -2 -1 -2 1 -4 2 -2 2 -2 4 -1 1 1 2 3
2 5 0 4 4 2 14 -8 10 -10 12 -14 8 -14 -2 0 -4 -1 -5 -2 -1 -2 -1 -2 1 -4 2
-2 2 -2 4 -1 1 1 2 3 2 5 0 2 0 2 6 2 l6 0 6 6 6 6 0 8 0 8 8 8 8 8 0 6 c0 6
0 6 2 6 4 0 6 3 6 10 0 6 0 6 2 6 2 0 4 -1 6 -4 2 -3 4 -4 6 -4 1 0 2 -1 2 -2
0 -2 1 -4 2 -4 2 -2 2 -2 4 0 1 0 2 2 2 4 0 1 1 2 2 2 2 0 4 1 5 2 1 2 1 2 -1
4 -2 2 -2 2 -4 1 -1 -1 -2 -3 -2 -5 0 -2 0 -2 -4 -2 l-4 0 0 6 c0 7 0 7 4 10
4 3 4 3 4 10 0 5 0 6 2 6 1 0 5 2 8 6 l6 6 0 6 c0 5 0 6 2 6 1 0 5 3 8 6 6 6
6 6 4 8 -1 1 -3 2 -6 2 -6 0 -8 -2 -8 -10 0 -5 0 -6 -2 -6 -1 0 -5 -2 -8 -6
l-6 -6 0 -6 c0 -5 0 -6 -2 -6 -1 0 -6 -4 -12 -10 -6 -6 -10 -11 -10 -12 0 -1
-1 -2 -2 -2 -4 0 -6 -3 -6 -10 0 -5 0 -6 -2 -6 -2 0 -5 -3 -10 -8 l-8 -8 -18
0 -18 0 0 2 c0 3 -3 6 -6 6 -1 0 -2 1 -2 2 0 4 -3 6 -10 6 -8 0 -8 3 -2 8 l4
4 -6 6 c-3 3 -7 6 -8 6 -1 0 -2 1 -2 2 0 3 -3 6 -6 6 -2 0 -2 1 -2 6 l0 6 -6
6 c-3 4 -7 6 -8 6 -1 0 -2 1 -2 2 0 3 -3 6 -6 6 -2 0 -2 0 -2 10 0 13 -1 14
-8 14 -5 0 -8 2 -8 6 0 1 1 2 2 2 5 0 6 2 6 18 l0 14 2 0 c3 0 6 3 6 6 0 1 1
2 2 2 3 0 6 3 6 6 0 1 1 2 2 2 2 0 4 1 5 2 1 2 1 2 -1 4 -2 2 -2 2 -4 1 -1 -1
-2 -3 -2 -5 0 -2 0 -2 -4 -2 -4 0 -4 0 -4 2 0 2 -3 6 -4 6 0 0 -2 -1 -2 -2z
m70 -168 c0 -3 -3 -6 -6 -6 -2 0 -2 0 -2 4 l0 4 4 0 c3 0 4 0 4 -2z"/><path d="M282 422 c-3 -3 -3 -10 0 -12 3 -3 6 0 6 6 0 7 -3 10 -6 6z"/><path d="M369 406 c-1 -2 -1 -2 1 -4 l2 -2 2 2 c2 2 2 2 1 4 -1 1 -3 2 -3 2 0
0 -2 -1 -3 -2z"/><path d="M90 398 c-1 -1 -2 -3 -2 -4 0 -1 -1 -2 -2 -2 -2 0 -4 -1 -5 -2 -1 -2
-1 -2 1 -4 2 -2 2 -2 4 -1 1 1 2 3 2 5 0 1 1 2 2 2 2 0 4 1 5 2 1 2 1 2 0 4
-3 2 -3 2 -5 0z"/><path d="M129 398 c-1 -2 -1 -2 1 -4 l2 -2 2 2 c2 2 2 2 1 4 -1 1 -3 2 -3 2 0
0 -2 -1 -3 -2z"/><path d="M266 398 c-1 -1 -2 -3 -2 -4 0 -1 -1 -2 -2 -2 -2 0 -4 -1 -4 -2 -2
-2 -2 -2 0 -4 0 -1 2 -2 4 -2 1 0 2 -1 2 -2 0 -2 1 -4 2 -5 2 -1 2 -1 4 1 2 2
2 2 1 4 -1 1 -3 2 -5 2 -2 0 -2 0 -2 4 0 4 0 4 2 4 2 0 4 1 5 2 1 2 1 2 0 4
-3 2 -3 2 -5 0z"/><path d="M410 398 c-2 -2 -2 -2 0 -4 0 -1 2 -2 4 -2 1 0 2 -1 2 -2 0 -2 1 -4
2 -5 2 -1 2 -1 4 1 2 2 2 2 1 4 -1 1 -3 2 -5 2 -1 0 -2 1 -2 2 0 2 -3 6 -4 6
0 0 -2 -1 -2 -2z"/><path d="M129 374 c-1 -2 -1 -2 1 -4 l2 -2 2 2 c2 2 2 2 1 4 -1 1 -3 2 -3 2 0
0 -2 -1 -3 -2z"/><path d="M241 374 c-1 -2 -1 -2 1 -4 l2 -2 2 2 c2 2 2 2 1 4 -1 1 -3 2 -3 2 0
0 -2 -1 -3 -2z"/><path d="M425 374 c-1 -2 -1 -2 1 -4 l2 -2 2 2 c2 2 2 2 1 4 -1 1 -3 2 -3 2 0
0 -2 -1 -3 -2z"/><path d="M369 366 c-1 -2 -1 -2 1 -4 l2 -2 2 2 c2 2 2 2 1 4 -1 1 -3 2 -3 2 0
0 -2 -1 -3 -2z"/><path d="M353 334 c-1 -2 -1 -2 1 -4 l2 -2 2 2 c2 2 2 2 1 4 -1 1 -3 2 -3 2 0
0 -2 -1 -3 -2z"/><path d="M57 310 c-1 -2 -1 -2 1 -4 l2 -2 2 2 c2 2 2 2 1 4 -1 1 -3 2 -3 2 0
0 -2 -1 -3 -2z"/><path d="M65 270 c-1 -2 -1 -2 1 -4 l2 -2 2 2 c2 2 2 2 1 4 -1 1 -3 2 -3 2 0
0 -2 -1 -3 -2z"/><path d="M433 270 c-1 -2 -1 -2 1 -4 l2 -2 2 2 c2 2 2 2 1 4 -1 1 -3 2 -3 2 0
0 -2 -1 -3 -2z"/><path d="M73 254 c-1 -2 -1 -2 1 -4 l2 -2 2 2 c2 2 2 2 1 4 -1 1 -3 2 -3 2 0
0 -2 -1 -3 -2z"/><path d="M297 254 c-1 -2 -1 -2 1 -4 l2 -2 2 2 c2 2 2 2 1 4 -1 1 -3 2 -3 2 0
0 -2 -1 -3 -2z"/><path d="M81 238 c-1 -2 -1 -2 1 -4 l2 -2 2 2 c2 2 2 2 1 4 -1 1 -3 2 -3 2 0
0 -2 -1 -3 -2z"/><path d="M417 238 c-1 -2 -1 -2 1 -4 l2 -2 2 2 c2 2 2 2 1 4 -1 1 -3 2 -3 2 0
0 -2 -1 -3 -2z"/><path d="M225 222 c-1 -2 -1 -2 1 -4 l2 -2 2 2 c2 2 2 2 1 4 -1 1 -3 2 -3 2 0
0 -2 -1 -3 -2z"/><path d="M97 214 c-1 -2 -1 -2 1 -4 l2 -2 2 2 c2 2 2 2 1 4 -1 1 -3 2 -3 2 0
0 -2 -1 -3 -2z"/><path d="M265 206 c-1 -2 -1 -2 1 -4 l2 -2 2 2 c2 2 2 2 1 4 -1 1 -3 2 -3 2 0
0 -2 -1 -3 -2z"/><path d="M393 206 c-1 -2 -1 -2 1 -4 l2 -2 2 2 c2 2 2 2 1 4 -1 1 -3 2 -3 2 0
0 -2 -1 -3 -2z"/><path d="M130 190 c-2 -2 -2 -2 0 -4 0 -1 2 -2 4 -2 1 0 2 -1 2 -2 0 -2 1 -4
2 -5 2 -1 2 -1 4 1 2 2 2 2 1 4 -1 1 -3 2 -5 2 -1 0 -2 1 -2 2 0 2 -3 6 -4 6
0 0 -2 -1 -2 -2z"/><path d="M241 182 c-1 -2 -1 -2 1 -4 l2 -2 2 2 c2 2 2 2 1 4 -1 1 -3 2 -3 2 0
0 -2 -1 -3 -2z"/><path d="M257 182 c-1 -2 -1 -2 1 -4 l2 -2 2 2 c2 2 2 2 1 4 -1 1 -3 2 -3 2 0
0 -2 -1 -3 -2z"/><path d="M361 182 c-1 -2 -1 -2 1 -4 l2 -2 2 2 c2 2 2 2 1 4 -1 1 -3 2 -3 2 0
0 -2 -1 -3 -2z"/><path d="M153 174 c-1 -2 -1 -2 1 -4 l2 -2 2 2 c2 2 2 2 1 4 -1 1 -3 2 -3 2 0
0 -2 -1 -3 -2z"/><path d="M345 174 c-1 -2 -1 -2 1 -4 l2 -2 2 2 c2 2 2 2 1 4 -1 1 -3 2 -3 2 0
0 -2 -1 -3 -2z"/><path d="M169 166 c-1 -2 -1 -2 1 -4 l2 -2 2 2 c2 2 2 2 1 4 -1 1 -3 2 -3 2 0
0 -2 -1 -3 -2z"/><path d="M329 166 c-1 -2 -1 -2 1 -4 l2 -2 2 2 c2 2 2 2 1 4 -1 1 -3 2 -3 2 0
0 -2 -1 -3 -2z"/><path d="M193 158 c-1 -2 -1 -2 1 -4 l2 -2 2 2 c2 2 2 2 1 4 -1 1 -3 2 -3 2 0
0 -2 -1 -3 -2z"/><path d="M305 158 c-1 -2 -1 -2 1 -4 l2 -2 2 2 c2 2 2 2 1 4 -1 1 -3 2 -3 2 0
0 -2 -1 -3 -2z"/><path d="M194 142 c-2 -2 -2 -2 0 -4 0 -1 2 -2 4 -2 1 0 2 -1 2 -2 0 -2 1 -4
2 -5 2 -1 2 -1 4 1 2 2 2 2 1 4 -1 1 -3 2 -5 2 -1 0 -2 1 -2 2 0 2 -3 6 -4 6
0 0 -2 -1 -2 -2z"/><path d="M249 142 c-1 -2 -1 -2 1 -4 l2 -2 2 2 c2 2 2 2 1 4 -1 1 -3 2 -3 2 0
0 -2 -1 -3 -2z"/><path d="M306 142 c-3 -2 -3 -10 0 -12 2 -2 2 -2 8 4 6 6 6 6 4 8 -2 3 -10 3
-12 0z"/><path d="M289 134 c-1 -2 -1 -2 1 -4 l2 -2 2 2 c2 2 2 2 1 4 -1 1 -3 2 -3 2 0
0 -2 -1 -3 -2z"/><path d="M217 126 c-1 -2 -1 -2 1 -4 l2 -2 2 2 c2 2 2 2 1 4 -1 1 -3 2 -3 2 0
0 -2 -1 -3 -2z"/><path d="M225 110 c-1 -2 -1 -2 1 -4 l2 -2 2 2 c2 2 2 2 1 4 -1 1 -3 2 -3 2 0
0 -2 -1 -3 -2z"/><path d="M273 110 c-1 -2 -1 -2 1 -4 l2 -2 2 2 c2 2 2 2 1 4 -1 1 -3 2 -3 2 0
0 -2 -1 -3 -2z"/><path d="M266 94 c-1 -1 -2 -3 -2 -4 0 -1 -1 -2 -2 -2 -2 0 -4 -1 -5 -2 -1 -2
-1 -2 1 -4 2 -2 2 -2 4 -1 1 1 2 3 2 5 0 2 0 2 4 2 4 0 4 0 4 -2 0 -2 1 -4 2
-5 2 -1 2 -1 4 1 2 2 2 2 1 4 -1 1 -3 2 -5 2 -1 0 -2 1 -2 2 0 2 -3 6 -4 6 0
0 -1 -1 -2 -2z"/><path d="M241 86 c-1 -2 -1 -2 1 -4 l2 -2 2 2 c2 2 2 2 1 4 -1 1 -3 2 -3 2 0
0 -2 -1 -3 -2z"/><path d="M249 54 c-1 -2 -1 -2 1 -4 l2 -2 2 2 c2 2 2 2 1 4 -1 1 -3 2 -3 2 0
0 -2 -1 -3 -2z"/></g>
  <g transform="scale(0.125 0.125) translate(0.000000,512.000000) scale(1.000000,-1.000000)" fill="#0b0809" stroke="none"><path d="M210 430 c-4 -4 -2 -14 4 -14 1 0 2 -1 2 -2 0 -3 3 -6 6 -6 1 0 2 -1
2 -2 0 -3 3 -6 6 -6 2 0 2 0 2 -6 0 -5 0 -7 2 -8 2 -2 2 -2 8 4 6 6 6 6 4 8
-1 2 -3 2 -8 2 -6 0 -6 0 -6 2 0 3 -3 6 -6 6 -1 0 -2 1 -2 2 0 3 -3 6 -6 6 -2
0 -2 0 -2 6 0 5 0 7 -2 8 -2 2 -2 2 -4 0z"/><path d="M330 430 c-1 -1 -2 -3 -2 -4 0 -1 -1 -2 -2 -2 -2 0 -4 -1 -4 -2 -2
-2 -2 -2 0 -4 0 -1 2 -2 4 -2 1 0 2 -1 2 -2 0 -3 3 -6 6 -6 1 0 2 -1 2 -2 0
-3 3 -6 6 -6 2 0 2 0 2 -18 0 -17 0 -19 2 -20 2 -2 2 -2 4 0 2 1 2 3 2 18 0
18 -1 20 -6 20 -1 0 -2 1 -2 2 0 3 -3 6 -6 6 -1 0 -2 1 -2 2 0 3 -3 6 -6 6 -2
0 -2 1 -2 4 0 4 0 4 2 4 2 0 4 1 5 2 1 2 1 2 0 4 -3 2 -3 2 -5 0z"/><path d="M162 422 c-2 -2 -2 -2 0 -4 0 -1 2 -2 4 -2 2 0 2 0 2 -4 0 -4 0 -4
-2 -4 -3 0 -6 -3 -6 -6 0 -2 -1 -2 -4 -2 -4 0 -4 0 -4 2 0 2 -1 4 -2 5 -2 1
-2 1 -4 -1 -2 -2 -2 -2 -1 -4 1 -1 3 -2 5 -2 l2 0 0 -16 0 -16 -2 0 c-4 0 -6
-3 -6 -8 0 -6 2 -8 8 -8 3 0 5 -1 7 -2 1 -2 1 -2 -3 -6 -4 -4 -4 -4 -3 -6 2
-2 3 -2 9 -2 6 0 6 0 6 -2 0 -3 3 -6 6 -6 4 0 3 -4 -2 -8 -4 -4 -4 -4 -3 -6 2
-1 4 -2 7 -2 4 0 5 0 8 -4 2 -3 4 -4 6 -4 1 0 2 -1 2 -2 0 -3 3 -6 6 -6 4 0 3
-4 -2 -8 l-4 -4 6 -6 c3 -3 7 -6 8 -6 1 0 2 -1 2 -2 0 -4 3 -6 10 -6 l6 0 0
-4 c0 -4 0 -4 -2 -4 -2 0 -4 -1 -4 -2 -2 -2 -2 -2 0 -4 0 -1 2 -2 4 -2 1 0 2
-1 2 -2 0 -2 4 -6 12 -14 12 -12 15 -16 10 -16 -2 0 -4 -1 -5 -2 -1 -2 -1 -2
1 -4 2 -2 2 -2 4 -1 1 1 2 3 2 5 0 2 0 2 6 2 l6 0 6 6 6 6 0 8 0 8 8 8 8 8 0
6 c0 6 0 6 2 6 4 0 6 3 6 10 0 8 3 8 8 2 4 -4 4 -4 6 -3 1 2 2 4 2 7 0 4 0 5
4 8 4 3 4 3 4 10 0 5 0 6 2 6 1 0 5 2 8 6 l6 6 0 6 c0 5 0 6 2 6 1 0 5 3 8 6
6 6 6 6 4 8 -1 1 -3 2 -6 2 -6 0 -8 -2 -8 -10 0 -5 0 -6 -2 -6 -1 0 -5 -2 -8
-6 l-6 -6 0 -6 c0 -5 0 -6 -2 -6 -1 0 -6 -4 -12 -10 -6 -6 -10 -11 -10 -12 0
-1 -1 -2 -2 -2 -4 0 -6 -3 -6 -10 0 -5 0 -6 -2 -6 -2 0 -5 -3 -10 -8 l-8 -8
-18 0 -18 0 0 2 c0 3 -3 6 -6 6 -1 0 -2 1 -2 2 0 4 -3 6 -10 6 -8 0 -8 3 -2 8
l4 4 -6 6 c-3 3 -7 6 -8 6 -1 0 -2 1 -2 2 0 3 -3 6 -6 6 -2 0 -2 1 -2 6 l0 6
-6 6 c-3 4 -7 6 -8 6 -1 0 -2 1 -2 2 0 3 -3 6 -6 6 -2 0 -2 0 -2 10 0 13 -1
14 -8 14 -5 0 -8 2 -8 6 0 1 1 2 2 2 5 0 6 2 6 18 l0 14 2 0 c3 0 6 3 6 6 0 1
1 2 2 2 3 0 6 3 6 6 0 1 1 2 2 2 2 0 4 1 5 2 1 2 1 2 -1 4 -2 2 -2 2 -4 1 -1
-1 -2 -3 -2 -5 0 -2 0 -2 -4 -2 -4 0 -4 0 -4 2 0 2 -3 6 -4 6 0 0 -2 -1 -2 -2z
m70 -168 c0 -3 -3 -6 -6 -6 -2 0 -2 0 -2 4 l0 4 4 0 c3 0 4 0 4 -2z"/><path d="M282 422 c-3 -3 -3 -10 0 -12 3 -3 6 0 6 6 0 7 -3 10 -6 6z"/><path d="M266 398 c-1 -1 -2 -3 -2 -4 0 -1 -1 -2 -2 -2 -2 0 -4 -1 -4 -2 -2
-2 -2 -2 0 -4 0 -1 2 -2 4 -2 1 0 2 -1 2 -2 0 -2 1 -4 2 -5 2 -1 2 -1 4 1 2 2
2 2 1 4 -1 1 -3 2 -5 2 -2 0 -2 0 -2 4 0 4 0 4 2 4 2 0 4 1 5 2 1 2 1 2 0 4
-3 2 -3 2 -5 0z"/><path d="M241 374 c-1 -2 -1 -2 1 -4 l2 -2 2 2 c2 2 2 2 1 4 -1 1 -3 2 -3 2 0
0 -2 -1 -3 -2z"/><path d="M194 142 c-2 -2 -2 -2 0 -4 0 -1 2 -2 4 -2 1 0 2 -1 2 -2 0 -2 1 -4
2 -5 2 -1 2 -1 4 1 2 2 2 2 1 4 -1 1 -3 2 -5 2 -1 0 -2 1 -2 2 0 2 -3 6 -4 6
0 0 -2 -1 -2 -2z"/><path d="M306 142 c-3 -2 -3 -10 0 -12 2 -2 2 -2 8 4 6 6 6 6 4 8 -2 3 -10 3
-12 0z"/><path d="M273 86 c-1 -2 -1 -2 1 -4 l2 -2 2 2 c2 2 2 2 1 4 -1 1 -3 2 -3 2 0
0 -2 -1 -3 -2z"/><path d="M249 54 c-1 -2 -1 -2 1 -4 l2 -2 2 2 c2 2 2 2 1 4 -1 1 -3 2 -3 2 0
0 -2 -1 -3 -2z"/></g>
  <g transform="scale(0.125 0.125) translate(0.000000,512.000000) scale(1.000000,-1.000000)" fill="#591a3a" stroke="none"><path d="M170 414 c-1 -1 -2 -3 -2 -4 0 -1 -1 -2 -2 -2 -2 0 -4 -1 -5 -2 -1
-2 -1 -2 1 -4 2 -2 2 -2 4 -1 1 1 2 3 2 5 0 1 1 2 2 2 2 0 4 1 5 2 1 2 1 2 0
4 -3 2 -3 2 -5 0z"/><path d="M218 414 c-2 -2 -2 -2 0 -4 0 -1 2 -2 4 -2 1 0 2 -1 2 -2 0 -2 1 -4
2 -5 2 -1 2 -1 4 1 2 2 2 2 1 4 -1 1 -3 2 -5 2 -1 0 -2 1 -2 2 0 2 -3 6 -4 6
0 0 -2 -1 -2 -2z"/><path d="M330 414 c-2 -2 -2 -2 0 -4 0 -1 2 -2 4 -2 1 0 2 -1 2 -2 0 -3 3 -6
6 -6 2 0 2 0 2 -18 0 -17 0 -19 2 -20 2 -2 2 -2 4 0 2 1 2 3 2 18 0 18 -1 20
-6 20 -1 0 -2 1 -2 2 0 3 -3 6 -6 6 -1 0 -2 1 -2 2 0 2 -3 6 -4 6 0 0 -2 -1
-2 -2z"/><path d="M154 390 c-3 -3 -3 -18 0 -20 2 -2 2 -2 4 0 3 2 3 18 0 20 -2 2 -2 2
-4 0z"/><path d="M233 390 c-1 -2 -1 -2 1 -4 l2 -2 2 2 c2 2 2 2 1 4 -1 1 -3 2 -3 2 0
0 -2 -1 -3 -2z"/><path d="M265 382 c-1 -2 -1 -2 1 -4 l2 -2 2 2 c2 2 2 2 1 4 -1 1 -3 2 -3 2 0
0 -2 -1 -3 -2z"/><path d="M241 374 c-1 -2 -1 -2 1 -4 l2 -2 2 2 c2 2 2 2 1 4 -1 1 -3 2 -3 2 0
0 -2 -1 -3 -2z"/><path d="M162 358 c-3 -3 -3 -10 0 -12 3 -3 6 0 6 6 0 7 -3 10 -6 6z"/><path d="M338 350 c-2 -1 -2 -3 -2 -8 0 -6 0 -6 -2 -6 -3 0 -6 -3 -6 -6 0 -1
-1 -2 -2 -2 -4 0 -6 -3 -6 -10 0 -6 0 -6 -2 -6 -3 0 -6 -3 -6 -6 0 -1 -1 -2
-2 -2 -3 0 -6 -3 -6 -6 0 -1 -1 -2 -2 -2 -3 0 -6 -3 -6 -6 0 -1 -1 -2 -2 -2
-4 0 -6 -3 -6 -10 0 -6 0 -6 -2 -6 -3 0 -6 -3 -6 -6 0 -1 -1 -2 -2 -2 -2 0 -4
-1 -6 -4 l-3 -4 -19 0 -18 0 0 2 c0 3 -3 6 -6 6 -1 0 -2 1 -2 2 0 2 -1 4 -2 5
-2 1 -2 1 -4 -1 -2 -2 -2 -2 -1 -4 1 -1 3 -2 5 -2 1 0 2 -1 2 -2 0 -3 3 -6 6
-6 2 0 2 -1 2 -6 l0 -6 8 -8 c8 -7 8 -8 8 -12 0 -3 1 -5 2 -6 2 -2 2 -2 8 4 5
5 6 6 6 10 0 4 0 5 8 12 l8 8 0 6 c0 6 0 6 2 6 3 0 6 3 6 6 0 1 1 2 2 2 4 0 6
3 6 10 0 6 0 6 2 6 3 0 6 3 6 6 0 1 1 2 2 2 3 0 6 3 6 6 0 1 1 2 2 2 3 0 6 3
6 6 0 1 1 2 2 2 4 0 6 3 6 10 0 6 0 6 2 6 3 0 6 3 6 6 0 1 1 2 2 2 6 0 8 10 4
14 -2 2 -2 2 -4 0z"/><path d="M170 334 c-2 -2 -2 -2 0 -4 0 -1 2 -2 4 -2 1 0 2 -1 2 -2 0 -3 3 -6
6 -6 2 0 2 0 2 -6 0 -7 2 -10 6 -10 1 0 2 -1 2 -2 0 -3 3 -6 6 -6 1 0 2 -1 2
-2 0 -3 3 -6 6 -6 1 0 2 -1 2 -2 0 -2 1 -4 2 -5 2 -1 2 -1 4 1 2 2 2 2 1 4 -1
1 -3 2 -5 2 -1 0 -2 1 -2 2 0 3 -3 6 -6 6 -1 0 -2 1 -2 2 0 3 -3 6 -6 6 -2 0
-2 0 -2 6 0 7 -2 10 -6 10 -1 0 -2 1 -2 2 0 3 -3 6 -6 6 -1 0 -2 1 -2 2 0 2
-3 6 -4 6 0 0 -2 -1 -2 -2z"/></g>
  <g transform="scale(0.125 0.125) translate(0.000000,512.000000) scale(1.000000,-1.000000)" fill="#cf5091" stroke="none"><path d="M161 358 c-1 -2 -1 -2 1 -4 l2 -2 2 2 c2 2 2 2 1 4 -1 1 -3 2 -3 2 0
0 -2 -1 -3 -2z"/><path d="M337 350 c-1 -2 -1 -2 1 -4 l2 -2 2 2 c2 2 2 2 1 4 -1 1 -3 2 -3 2 0
0 -2 -1 -3 -2z"/><path d="M330 334 c-1 -1 -2 -3 -2 -4 0 -1 -1 -2 -2 -2 -2 0 -4 -1 -5 -2 -1
-2 -1 -2 1 -4 2 -2 2 -2 4 -1 1 1 2 3 2 5 0 1 1 2 2 2 2 0 4 1 5 2 1 2 1 2 0
4 -3 2 -3 2 -5 0z"/><path d="M185 318 c-1 -2 -1 -2 1 -4 l2 -2 2 2 c2 2 2 2 1 4 -1 1 -3 2 -3 2 0
0 -2 -1 -3 -2z"/><path d="M306 302 c-1 -1 -2 -3 -2 -4 0 -1 -1 -2 -2 -2 -3 0 -6 -3 -6 -6 0 -1
-1 -2 -2 -2 -2 0 -4 -1 -5 -2 -1 -2 -1 -2 1 -4 2 -2 2 -2 4 -1 1 1 2 3 2 5 0
1 1 2 2 2 3 0 6 3 6 6 0 1 1 2 2 2 2 0 4 1 5 2 1 2 1 2 0 4 -3 2 -3 2 -5 0z"/><path d="M209 286 c-1 -2 -1 -2 1 -4 l2 -2 2 2 c2 2 2 2 1 4 -1 1 -3 2 -3 2 0
0 -2 -1 -3 -2z"/><path d="M226 262 c-2 -2 -2 -2 0 -4 0 -1 2 -2 4 -2 1 0 2 -1 2 -2 0 -2 1 -4
4 -6 4 -3 4 -4 4 -8 0 -4 0 -5 6 -10 l6 -6 6 6 c6 5 6 6 6 10 0 4 0 5 4 8 3 2
4 4 4 6 0 1 1 2 2 2 2 0 4 1 5 2 1 2 1 2 -1 4 -2 2 -2 2 -4 1 -1 -1 -2 -3 -2
-5 l0 -2 -20 0 -20 0 0 2 c0 2 -3 6 -4 6 0 0 -2 -1 -2 -2z"/></g>
</svg>
