<?xml version="1.0" encoding="UTF-8"?>
<svg xmlns="http://www.w3.org/2000/svg" viewBox="0 0 64 64" width="64" height="64">
  <g transform="scale(0.125 0.125) translate(0.000000,512.000000) scale(1.000000,-1.000000)" fill="#ffffff" stroke="none"><path d="M192 484 l-3 -4 -9 0 -9 0 -3 -4 c-3 -4 -4 -4 -8 -4 -4 0 -5 0 -8 -4
-3 -4 -4 -4 -8 -4 -4 0 -5 0 -8 -4 -3 -4 -4 -4 -8 -4 -4 0 -4 0 -16 -12 -12
-12 -12 -12 -16 -12 -6 0 -8 -2 -8 -8 0 -4 0 -5 -12 -16 -12 -12 -12 -12 -12
-16 0 -4 0 -5 -4 -8 l-4 -3 0 -9 0 -9 -4 -3 -4 -3 0 -49 0 -49 4 -3 c4 -3 4
-4 4 -8 0 -4 0 -5 4 -8 4 -3 4 -4 4 -8 0 -4 0 -5 4 -8 4 -3 4 -4 4 -8 l0 -4
22 -22 c22 -22 22 -22 26 -22 4 0 5 0 12 -8 7 -8 8 -8 12 -8 4 0 5 0 8 -4 l3
-4 9 0 9 0 3 -4 c3 -4 4 -4 8 -4 6 0 16 -10 16 -16 0 -4 0 -5 8 -12 8 -7 8 -8
8 -12 0 -4 0 -5 4 -8 4 -3 4 -4 4 -8 0 -4 0 -5 4 -8 4 -3 4 -4 4 -8 0 -4 0 -5
8 -12 8 -7 8 -8 8 -12 0 -3 1 -5 2 -6 2 -2 2 -2 8 4 6 5 6 6 6 10 0 4 0 5 4 8
4 3 4 4 4 8 0 4 0 5 8 12 8 7 8 8 8 12 0 4 0 5 4 8 4 3 4 4 4 8 0 4 0 5 4 8 4
3 4 4 4 8 0 4 0 5 6 10 5 6 6 6 10 6 4 0 5 0 8 4 l3 4 9 0 9 0 3 4 c3 4 4 4 8
4 4 0 5 0 12 8 7 8 8 8 12 8 4 0 4 0 26 22 22 22 22 22 22 26 0 4 0 5 8 12 l8
8 0 8 0 9 4 3 4 3 0 9 0 9 4 3 4 3 0 25 0 25 -4 3 -4 3 0 13 0 13 -4 3 c-4 3
-4 4 -4 8 0 4 0 5 -4 8 -4 3 -4 4 -4 8 0 4 0 5 -8 12 -8 7 -8 8 -8 12 0 4 0 5
-10 14 -9 10 -10 10 -14 10 -4 0 -5 0 -12 8 -7 8 -8 8 -12 8 -4 0 -5 0 -8 4
-3 4 -4 4 -8 4 -4 0 -5 0 -8 4 -3 4 -4 4 -8 4 -4 0 -5 0 -8 4 l-3 4 -9 0 -9 0
-3 4 -3 4 -57 0 -57 0 -3 -4z"/></g>
  <g transform="scale(0.125 0.125) translate(0.000000,512.000000) scale(1.000000,-1.000000)" fill="#fd2692" stroke="none"><path d="M192 484 l-3 -4 -9 0 -9 0 -3 -4 c-3 -4 -4 -4 -8 -4 -4 0 -5 0 -8 -4
-3 -4 -4 -4 -8 -4 -4 0 -5 0 -8 -4 -3 -4 -4 -4 -8 -4 -4 0 -4 0 -16 -12 -12
-12 -12 -12 -16 -12 -6 0 -8 -2 -8 -8 0 -4 0 -5 -12 -16 -12 -12 -12 -12 -12
-16 0 -4 0 -5 -4 -8 l-4 -3 0 -9 0 -9 -4 -3 -4 -3 0 -49 0 -49 4 -3 c4 -3 4
-4 4 -8 0 -4 0 -5 4 -8 4 -3 4 -4 4 -8 0 -4 0 -5 4 -8 4 -3 4 -4 4 -8 l0 -4
22 -22 c22 -22 22 -22 26 -22 4 0 5 0 12 -8 7 -8 8 -8 12 -8 4 0 5 0 8 -4 l3
-4 9 0 9 0 3 -4 c3 -4 4 -4 8 -4 6 0 16 -10 16 -16 0 -4 0 -5 8 -12 8 -7 8 -8
8 -12 0 -4 0 -5 4 -8 4 -3 4 -4 4 -8 0 -4 0 -5 4 -8 4 -3 4 -4 4 -8 0 -4 0 -5
8 -12 8 -7 8 -8 8 -12 0 -3 1 -5 2 -6 2 -2 2 -2 8 4 6 5 6 6 6 10 0 4 0 5 4 8
4 3 4 4 4 8 0 4 0 5 8 12 8 7 8 8 8 12 0 4 0 5 4 8 4 3 4 4 4 8 0 4 0 5 4 8 4
3 4 4 4 8 0 4 0 5 6 10 5 6 6 6 10 6 4 0 5 0 8 4 l3 4 9 0 9 0 3 4 c3 4 4 4 8
4 4 0 5 0 12 8 7 8 8 8 12 8 4 0 4 0 26 22 22 22 22 22 22 26 0 4 0 5 8 12 l8
8 0 8 0 9 4 3 4 3 0 9 0 9 4 3 4 3 0 25 0 25 -4 3 -4 3 0 13 0 13 -4 3 c-4 3
-4 4 -4 8 0 4 0 5 -4 8 -4 3 -4 4 -4 8 0 4 0 5 -8 12 -8 7 -8 8 -8 12 0 4 0 5
-10 14 -9 10 -10 10 -14 10 -4 0 -5 0 -12 8 -7 8 -8 8 -12 8 -4 0 -5 0 -8 4
-3 4 -4 4 -8 4 -4 0 -5 0 -8 4 -3 4 -4 4 -8 4 -4 0 -5 0 -8 4 l-3 4 -9 0 -9 0
-3 4 -3 4 -57 0 -57 0 -3 -4z m112 -16 l3 -4 9 0 9 0 3 -4 c3 -4 4 -4 8 -4 4
0 5 0 8 -4 3 -4 4 -4 8 -4 4 0 5 0 12 -8 7 -8 8 -8 12 -8 4 0 5 0 18 -14 14
-13 14 -14 14 -18 0 -4 0 -5 8 -12 8 -7 8 -8 8 -12 0 -4 0 -5 4 -8 4 -3 4 -4
4 -8 0 -4 0 -5 4 -8 l4 -3 0 -37 0 -37 -4 -3 c-4 -3 -4 -4 -4 -8 0 -4 0 -5 -4
-8 -4 -3 -4 -4 -4 -8 0 -4 0 -5 -4 -8 -4 -3 -4 -4 -4 -8 0 -4 0 -4 -14 -18
-13 -14 -14 -14 -18 -14 -4 0 -5 0 -16 -12 -12 -12 -12 -12 -16 -12 -4 0 -5 0
-8 -4 -3 -4 -4 -4 -8 -4 -4 0 -5 0 -8 -4 l-3 -4 -9 0 -8 0 -6 -6 c-5 -5 -6 -6
-6 -10 0 -4 0 -5 -8 -12 -8 -7 -8 -8 -8 -12 0 -4 0 -5 -4 -8 -4 -3 -4 -4 -4
-8 0 -4 0 -5 -8 -12 -8 -7 -8 -8 -8 -12 0 -3 -1 -5 -2 -7 -3 -2 -6 1 -6 7 0 4
0 5 -8 12 -8 7 -8 8 -8 12 0 4 0 5 -4 8 -4 3 -4 4 -4 8 0 4 0 5 -4 8 -4 3 -4
4 -4 8 0 4 0 4 -10 14 l-10 10 -8 0 -9 0 -3 4 c-3 4 -4 4 -8 4 -4 0 -5 0 -8 4
-3 4 -4 4 -8 4 -4 0 -5 0 -12 8 -7 8 -8 8 -12 8 -4 0 -4 0 -22 18 -18 18 -18
18 -18 22 0 4 0 5 -4 8 -4 3 -4 4 -4 8 0 4 0 5 -4 8 -4 3 -4 4 -4 8 0 4 0 5
-4 8 l-4 3 0 37 0 37 4 3 4 3 0 9 0 8 12 12 c12 11 12 12 12 16 0 4 1 5 10 14
9 9 10 10 14 10 4 0 5 0 16 12 12 12 12 12 16 12 4 0 5 0 8 4 l3 4 9 0 9 0 3
4 c3 4 4 4 8 4 4 0 5 0 8 4 l3 4 49 0 49 0 3 -4z"/><path d="M154 422 l-18 -18 0 -24 0 -25 4 -3 c4 -3 4 -4 4 -8 0 -4 0 -5 4 -8
4 -3 4 -4 4 -8 0 -4 0 -5 4 -8 4 -3 4 -4 4 -8 0 -4 0 -5 6 -10 5 -6 6 -6 10
-6 6 0 8 -2 8 -8 0 -4 0 -5 8 -12 8 -7 8 -8 8 -12 0 -4 0 -5 12 -16 l12 -12 0
-8 0 -8 8 -8 8 -8 0 -12 c0 -16 0 -16 12 -16 12 0 12 0 12 16 l0 12 8 8 c8 7
8 8 8 12 0 4 0 5 4 8 4 3 4 4 4 8 0 4 0 5 8 12 8 7 8 8 8 12 0 6 2 8 8 8 6 0
8 2 8 8 0 4 0 5 12 16 12 11 12 12 12 16 0 4 0 5 8 12 8 7 8 8 8 12 0 4 0 5 4
8 l4 3 0 33 c0 37 0 36 -8 36 -4 0 -5 0 -16 12 l-12 12 -20 0 -21 0 -3 -4 c-3
-4 -4 -4 -8 -4 -6 0 -16 -10 -16 -16 0 -4 -1 -5 -6 -10 -6 -6 -6 -6 -8 -4 -1
1 -2 3 -2 6 0 4 0 4 -14 18 l-14 14 -24 0 -24 0 -18 -18z"/><path d="M246 146 c-6 -6 -6 -6 -4 -8 2 -3 10 -3 12 0 3 2 3 10 0 12 -2 2 -2
3 -8 -4z"/></g>
  <g transform="scale(0.125 0.125) translate(0.000000,512.000000) scale(1.000000,-1.000000)" fill="#4b4b4b" stroke="none"><path d="M192 484 l-3 -4 -9 0 -9 0 -3 -4 c-3 -4 -4 -4 -8 -4 -4 0 -5 0 -8 -4
-3 -4 -4 -4 -8 -4 -4 0 -5 0 -8 -4 -3 -4 -4 -4 -8 -4 -4 0 -4 0 -16 -12 -12
-12 -12 -12 -16 -12 -6 0 -8 -2 -8 -8 0 -4 0 -5 -12 -16 -12 -12 -12 -12 -12
-16 0 -4 0 -5 -4 -8 l-4 -3 0 -9 0 -9 -4 -3 -4 -3 0 -49 0 -49 4 -3 c4 -3 4
-4 4 -8 0 -4 0 -5 4 -8 4 -3 4 -4 4 -8 0 -4 0 -5 4 -8 4 -3 4 -4 4 -8 l0 -4
22 -22 c22 -22 22 -22 26 -22 4 0 5 0 12 -8 7 -8 8 -8 12 -8 4 0 5 0 8 -4 l3
-4 9 0 9 0 3 -4 c3 -4 4 -4 8 -4 6 0 16 -10 16 -16 0 -4 0 -5 8 -12 8 -7 8 -8
8 -12 0 -4 0 -5 4 -8 4 -3 4 -4 4 -8 0 -4 0 -5 4 -8 4 -3 4 -4 4 -8 0 -4 0 -5
8 -12 8 -7 8 -8 8 -12 0 -3 1 -5 2 -6 2 -2 2 -2 8 4 6 5 6 6 6 10 0 4 0 5 4 8
4 3 4 4 4 8 0 4 0 5 8 12 8 7 8 8 8 12 0 4 0 5 4 8 4 3 4 4 4 8 0 4 0 5 4 8 4
3 4 4 4 8 0 4 0 5 6 10 5 6 6 6 10 6 4 0 5 0 8 4 l3 4 9 0 9 0 3 4 c3 4 4 4 8
4 4 0 5 0 12 8 7 8 8 8 12 8 4 0 4 0 26 22 22 22 22 22 22 26 0 4 0 5 8 12 l8
8 0 8 0 9 4 3 4 3 0 9 0 9 4 3 4 3 0 25 0 25 -4 3 -4 3 0 13 0 13 -4 3 c-4 3
-4 4 -4 8 0 4 0 5 -4 8 -4 3 -4 4 -4 8 0 4 0 5 -8 12 -8 7 -8 8 -8 12 0 4 0 5
-10 14 -9 10 -10 10 -14 10 -4 0 -5 0 -12 8 -7 8 -8 8 -12 8 -4 0 -5 0 -8 4
-3 4 -4 4 -8 4 -4 0 -5 0 -8 4 -3 4 -4 4 -8 4 -4 0 -5 0 -8 4 l-3 4 -9 0 -9 0
-3 4 -3 4 -57 0 -57 0 -3 -4z m112 -16 l3 -4 9 0 9 0 3 -4 c3 -4 4 -4 8 -4 4
0 5 0 8 -4 3 -4 4 -4 8 -4 4 0 5 0 12 -8 7 -8 8 -8 12 -8 4 0 5 0 18 -14 14
-13 14 -14 14 -18 0 -4 0 -5 8 -12 8 -7 8 -8 8 -12 0 -4 0 -5 4 -8 4 -3 4 -4
4 -8 0 -4 0 -5 4 -8 l4 -3 0 -37 0 -37 -4 -3 c-4 -3 -4 -4 -4 -8 0 -4 0 -5 -4
-8 -4 -3 -4 -4 -4 -8 0 -4 0 -5 -4 -8 -4 -3 -4 -4 -4 -8 0 -4 0 -4 -14 -18
-13 -14 -14 -14 -18 -14 -4 0 -5 0 -16 -12 -12 -12 -12 -12 -16 -12 -4 0 -5 0
-8 -4 -3 -4 -4 -4 -8 -4 -4 0 -5 0 -8 -4 l-3 -4 -9 0 -8 0 -6 -6 c-5 -5 -6 -6
-6 -10 0 -4 0 -5 -8 -12 -8 -7 -8 -8 -8 -12 0 -4 0 -5 -4 -8 -4 -3 -4 -4 -4
-8 0 -4 0 -5 -8 -12 -8 -7 -8 -8 -8 -12 0 -3 -1 -5 -2 -7 -3 -2 -6 1 -6 7 0 4
0 5 -8 12 -8 7 -8 8 -8 12 0 4 0 5 -4 8 -4 3 -4 4 -4 8 0 4 0 5 -4 8 -4 3 -4
4 -4 8 0 4 0 4 -10 14 l-10 10 -8 0 -9 0 -3 4 c-3 4 -4 4 -8 4 -4 0 -5 0 -8 4
-3 4 -4 4 -8 4 -4 0 -5 0 -12 8 -7 8 -8 8 -12 8 -4 0 -4 0 -22 18 -18 18 -18
18 -18 22 0 4 0 5 -4 8 -4 3 -4 4 -4 8 0 4 0 5 -4 8 -4 3 -4 4 -4 8 0 4 0 5
-4 8 l-4 3 0 37 0 37 4 3 4 3 0 9 0 8 12 12 c12 11 12 12 12 16 0 4 1 5 10 14
9 9 10 10 14 10 4 0 5 0 16 12 12 12 12 12 16 12 4 0 5 0 8 4 l3 4 9 0 9 0 3
4 c3 4 4 4 8 4 4 0 5 0 8 4 l3 4 49 0 49 0 3 -4z"/><path d="M154 422 l-18 -18 0 -24 0 -25 4 -3 c4 -3 4 -4 4 -8 0 -4 0 -5 4 -8
4 -3 4 -4 4 -8 0 -4 0 -5 4 -8 4 -3 4 -4 4 -8 0 -4 0 -5 6 -10 5 -6 6 -6 10
-6 6 0 8 -2 8 -8 0 -4 0 -5 8 -12 8 -7 8 -8 8 -12 0 -4 0 -5 12 -16 l12 -12 0
-8 0 -8 8 -8 8 -8 0 -12 c0 -16 0 -16 12 -16 12 0 12 0 12 16 l0 12 8 8 c8 7
8 8 8 12 0 4 0 5 4 8 4 3 4 4 4 8 0 4 0 5 8 12 8 7 8 8 8 12 0 6 2 8 8 8 6 0
8 2 8 8 0 4 0 5 12 16 12 11 12 12 12 16 0 4 0 5 8 12 8 7 8 8 8 12 0 4 0 5 4
8 l4 3 0 33 c0 37 0 36 -8 36 -4 0 -5 0 -16 12 l-12 12 -20 0 -21 0 -3 -4 c-3
-4 -4 -4 -8 -4 -6 0 -16 -10 -16 -16 0 -4 -1 -5 -6 -10 -6 -6 -6 -6 -8 -4 -1
1 -2 3 -2 6 0 4 0 4 -14 18 l-14 14 -24 0 -24 0 -18 -18z m118 -58 l3 -4 29 0
c33 0 32 0 32 -8 0 -4 0 -5 -4 -8 -4 -3 -4 -4 -4 -8 0 -4 0 -5 -4 -8 -4 -3 -4
-4 -4 -8 0 -4 0 -4 -16 -20 -16 -15 -16 -16 -16 -20 0 -4 0 -5 -12 -16 -12
-11 -12 -12 -12 -16 0 -4 -1 -5 -6 -10 -6 -6 -6 -6 -8 -4 -1 1 -2 3 -2 6 0 4
0 5 -8 12 -8 7 -8 8 -8 12 0 4 0 4 -20 24 -20 20 -20 20 -20 24 0 4 0 5 -8 12
-8 7 -8 8 -8 12 0 4 0 5 -4 8 -4 3 -4 4 -4 8 0 8 -3 8 48 8 l45 0 3 4 c2 2 4
4 4 4 0 0 2 -2 4 -4z"/><path d="M246 146 c-6 -6 -6 -6 -4 -8 2 -3 10 -3 12 0 3 2 3 10 0 12 -2 2 -2
3 -8 -4z"/></g>
  <g transform="scale(0.125 0.125) translate(0.000000,512.000000) scale(1.000000,-1.000000)" fill="#f70a82" stroke="none"><path d="M224 484 c-3 -4 -4 -4 -8 -4 -6 0 -9 -3 -6 -6 1 -2 3 -2 42 -2 39 0
41 0 43 2 2 3 -1 6 -7 6 -4 0 -5 0 -8 4 -3 4 -4 4 -8 4 -4 0 -5 0 -8 -4 l-3
-4 -13 0 -13 0 -3 4 c-2 2 -4 4 -4 4 0 0 -2 -2 -4 -4z"/><path d="M162 470 c-2 -1 -2 -3 -2 -8 l0 -6 -6 0 c-7 0 -10 -2 -10 -6 0 -2 0
-2 -8 -2 -8 0 -8 0 -8 2 0 2 -1 4 -2 5 -2 1 -2 1 -4 0 -1 -1 -2 -3 -2 -5 0 -1
-1 -2 -2 -2 -3 0 -6 -3 -6 -6 0 -1 -1 -2 -2 -2 -5 0 -6 -3 -6 -14 l0 -10 -4 0
c-4 0 -4 0 -4 2 0 2 -1 4 -2 5 -2 1 -2 1 -4 -1 -2 -2 -2 -2 -1 -4 1 -1 3 -2 5
-2 2 0 2 0 2 -4 0 -4 0 -4 -2 -4 -2 0 -4 -1 -6 -4 -4 -5 -8 -6 -8 -2 0 2 -1 4
-2 5 -2 1 -2 1 -4 0 -1 -1 -2 -3 -2 -5 0 -1 -1 -2 -2 -2 -4 0 -6 -3 -6 -10 0
-6 0 -6 -2 -6 -2 0 -4 -1 -4 -2 -2 -2 -2 -2 0 -4 0 -1 2 -2 4 -2 2 0 2 0 2
-12 l0 -12 -4 0 c-4 0 -4 0 -4 2 0 2 -1 4 -2 5 -2 1 -2 1 -4 -1 -2 -2 -2 -2
-1 -4 1 -1 3 -2 5 -2 l2 0 0 -44 0 -44 -2 0 c-2 0 -4 -1 -5 -2 -1 -2 -1 -2 1
-4 2 -2 2 -2 4 -1 1 1 2 3 2 5 0 1 1 2 2 2 4 0 6 -3 6 -10 0 -6 0 -6 -2 -6 -2
0 -4 -1 -5 -2 -1 -2 -1 -2 1 -4 2 -2 2 -2 4 -1 1 1 2 3 2 5 0 1 1 2 2 2 4 0 6
-3 6 -10 0 -6 0 -6 -2 -6 -2 0 -4 -1 -4 -2 -2 -2 -2 -2 -1 -4 1 -1 3 -2 5 -2
2 0 2 0 2 -6 l0 -6 6 -6 c3 -4 7 -6 8 -6 1 0 2 -1 2 -2 0 -3 3 -6 6 -6 1 0 2
-1 2 -2 0 -3 3 -6 6 -6 1 0 2 -1 2 -2 0 -4 3 -6 8 -6 4 0 5 0 8 -4 2 -3 4 -4
6 -4 1 0 2 -1 2 -2 0 -4 3 -6 8 -6 4 0 5 0 8 -4 l4 -4 4 4 c4 5 11 6 15 2 1
-2 1 -2 -3 -6 -4 -4 -4 -4 -3 -6 2 -2 3 -2 9 -2 6 0 6 0 6 -2 0 -4 3 -6 8 -6
6 0 16 -10 16 -16 0 -4 1 -5 6 -10 3 -4 7 -6 8 -6 2 0 2 -1 2 -6 0 -7 2 -10 6
-10 2 0 2 0 2 -6 0 -7 0 -7 4 -10 4 -3 4 -4 4 -8 0 -4 0 -5 8 -12 8 -7 8 -8 8
-12 0 -3 1 -5 2 -6 2 -2 2 -2 8 4 l6 6 0 6 c0 6 0 6 2 6 4 0 6 3 6 10 0 5 0 6
2 6 1 0 5 2 8 6 l6 6 0 6 c0 6 0 6 2 6 4 0 6 3 6 10 0 6 0 6 2 6 4 0 6 3 6 8
0 6 10 16 16 16 5 0 8 2 8 6 0 2 0 2 10 2 l11 0 3 4 c3 4 4 4 8 4 4 0 5 0 10
6 4 3 6 7 6 8 0 2 1 2 6 2 l6 0 6 6 c4 3 6 7 6 8 0 1 1 2 2 2 3 0 6 3 6 6 0 1
1 2 2 2 3 0 6 3 6 6 0 1 1 2 2 2 3 0 6 3 6 6 0 1 1 2 2 2 4 0 6 3 6 10 0 6 0
6 2 6 3 0 6 3 6 6 0 1 1 2 2 2 4 0 6 3 6 8 0 5 -2 8 -6 8 -3 0 -3 12 0 15 2 1
2 1 6 -3 4 -4 4 -4 6 -3 1 2 2 4 2 7 0 4 0 5 -4 8 l-4 3 0 13 c0 11 0 13 2 14
2 2 2 2 4 1 2 -2 2 -4 2 -11 0 -7 0 -9 2 -10 2 -2 2 -2 4 -1 3 3 3 51 0 54 -2
1 -2 1 -4 -1 -2 -1 -2 -3 -2 -10 0 -7 0 -9 -2 -11 -2 -1 -2 -1 -4 1 -2 1 -2 3
-2 14 l0 13 4 3 4 3 0 9 c0 9 -1 12 -6 12 -2 0 -2 0 -2 6 0 7 -2 10 -6 10 -2
0 -2 0 -2 6 0 7 -2 10 -6 10 -1 0 -2 1 -2 2 0 3 -3 6 -6 6 -1 0 -2 1 -2 2 0 3
-3 6 -6 6 -1 0 -2 1 -2 2 0 3 -19 22 -22 22 -1 0 -2 1 -2 2 0 3 -3 6 -6 6 -1
0 -2 1 -2 2 0 4 -3 6 -8 6 -4 0 -5 0 -8 -4 -4 -5 -8 -6 -8 -2 0 4 -3 6 -10 6
l-6 0 0 6 c0 6 0 7 -2 9 -2 1 -2 1 -6 -3 -4 -5 -8 -6 -8 -2 0 5 -3 6 -12 6 -7
0 -9 0 -10 -2 -2 -2 -2 -2 0 -4 1 -2 3 -2 12 -2 10 0 10 0 10 -2 0 -4 3 -6 10
-6 6 0 6 0 6 -2 0 -4 3 -6 10 -6 5 0 6 0 6 -2 0 -1 2 -5 6 -8 l6 -6 6 0 c5 0
6 0 6 -2 0 -3 19 -22 22 -22 2 0 2 -1 2 -6 l0 -6 8 -8 c8 -7 8 -8 8 -12 0 -4
0 -5 4 -8 4 -3 4 -4 4 -8 0 -4 0 -5 4 -8 l4 -3 0 -37 0 -37 -4 -3 c-4 -3 -4
-4 -4 -8 0 -4 0 -5 -4 -8 -4 -3 -4 -4 -4 -8 0 -4 0 -5 -4 -8 -4 -3 -4 -4 -4
-8 0 -4 0 -4 -14 -18 -13 -14 -14 -14 -18 -14 -4 0 -5 0 -16 -12 -12 -12 -12
-12 -16 -12 -4 0 -5 0 -8 -4 -3 -4 -4 -4 -8 -4 -4 0 -5 0 -8 -4 l-3 -4 -9 0
-8 0 -6 -6 c-5 -5 -6 -6 -6 -10 0 -4 0 -5 -8 -12 -8 -7 -8 -8 -8 -12 0 -4 0
-5 -4 -8 -4 -3 -4 -4 -4 -8 0 -4 0 -5 -8 -12 -8 -7 -8 -8 -8 -12 0 -5 -2 -8
-6 -8 -2 0 -2 1 -2 6 l0 6 -6 6 c-3 4 -7 6 -8 6 -2 0 -2 1 -2 6 0 7 -2 10 -6
10 -2 0 -2 0 -2 6 0 7 -2 10 -6 10 -2 0 -2 0 -2 6 0 7 -2 10 -6 10 -1 0 -2 1
-2 2 0 1 -2 5 -6 8 l-6 6 -8 0 -9 0 -3 4 c-3 4 -4 4 -8 4 -4 0 -5 0 -8 4 -3 4
-4 4 -8 4 -4 0 -5 0 -12 8 -7 8 -8 8 -12 8 -4 0 -4 0 -22 18 -18 18 -18 18
-18 22 0 4 0 5 -4 8 -4 3 -4 4 -4 8 0 4 0 5 -4 8 -4 3 -4 4 -4 8 0 4 0 5 -4 8
l-4 3 0 39 0 38 2 0 c5 0 6 3 6 14 0 9 0 10 2 10 1 0 6 4 12 10 l10 10 0 6 c0
6 0 6 2 6 3 0 6 3 6 6 0 1 1 2 2 2 2 0 4 1 6 4 3 4 4 4 8 4 4 0 4 0 14 10 6 6
10 11 10 12 0 2 1 2 6 2 7 0 10 2 10 6 0 2 0 2 10 2 l11 0 3 4 c3 4 4 4 8 4 6
0 9 3 7 6 -2 2 -4 2 -11 2 l-8 0 -4 -4 -4 -4 -4 4 c-4 5 -4 5 -6 2z m-34 -24
c0 -3 -3 -6 -6 -6 -1 0 -2 -1 -2 -2 0 -2 -1 -4 -2 -4 -2 -2 -2 -2 -4 0 -4 3
-3 6 2 6 l4 0 0 4 0 4 4 0 c3 0 4 0 4 -2z m256 -2 l0 -4 4 0 c3 0 4 0 4 -2 0
-3 -3 -6 -6 -6 -2 0 -2 0 -2 4 0 4 0 4 -2 4 -2 0 -4 1 -4 2 -2 2 -2 2 0 4 3 4
6 3 6 -2z m32 -32 l0 -4 4 0 4 0 0 -4 0 -4 4 0 c5 0 6 -3 2 -6 -2 -2 -2 -2 -4
0 -1 0 -2 2 -2 4 0 1 -1 2 -2 2 -3 0 -6 3 -6 6 0 2 0 2 -4 2 -3 0 -4 0 -4 2 0
3 3 6 6 6 2 0 2 0 2 -4z m-336 -14 c0 -2 -1 -4 -2 -4 -2 -2 -2 -2 -4 0 -4 3
-3 6 2 6 4 0 4 0 4 -2z m-10 -16 c1 -1 2 -2 2 -4 0 -2 0 -2 -4 -2 l-4 0 0 4
c0 5 3 6 6 2z m370 0 c0 -2 -1 -4 -2 -5 -2 -1 -2 -1 -4 1 -2 2 -2 2 -1 4 3 3
7 3 7 0z m8 -16 c0 -2 -1 -4 -2 -5 -2 -1 -2 -1 -4 1 -2 2 -2 2 -1 4 3 3 7 3 7
0z m-8 -126 l0 -8 -4 0 -4 0 0 -4 c0 -5 -3 -6 -6 -2 -2 2 -2 2 0 4 0 1 2 2 4
2 2 0 2 0 2 6 0 7 2 10 6 10 2 0 2 0 2 -8z m-361 -10 c1 -2 1 -2 0 -4 -4 -4
-7 -3 -7 2 0 5 3 6 7 2z m343 -16 c1 -1 2 -2 2 -4 0 -2 0 -2 -4 -2 l-4 0 0 -4
0 -4 -4 0 -4 0 0 -4 0 -4 -4 0 -4 0 0 -4 c0 -5 -3 -6 -6 -2 -2 2 -2 2 0 4 0 1
2 2 4 2 1 0 2 1 2 2 0 3 3 6 6 6 1 0 2 1 2 2 0 3 3 6 6 6 1 0 2 1 2 2 0 2 3 6
4 6 0 0 1 -1 2 -2z m-328 -8 c1 -1 2 -2 2 -4 0 -1 1 -2 2 -2 3 0 6 -3 6 -6 0
-1 1 -2 2 -2 2 0 4 -1 5 -2 1 -2 1 -2 0 -4 -4 -4 -7 -3 -7 2 l0 4 -4 0 -4 0 0
4 0 4 -4 0 c-5 0 -6 3 -2 6 2 2 2 2 4 0z m41 -32 c1 -2 1 -2 0 -4 -3 -3 -7 -3
-7 0 0 2 3 6 4 6 0 0 2 -1 3 -2z m239 0 c1 -1 2 -2 2 -4 0 -3 -4 -3 -6 0 -2 2
-2 2 0 4 2 2 2 2 4 0z m-31 -16 c1 -2 1 -2 -1 -4 l-2 -2 -2 2 c-2 2 -2 2 -1 4
1 1 3 2 3 2 0 0 2 -1 3 -2z m-160 -8 c1 -2 1 -2 0 -4 -3 -3 -7 -3 -7 0 0 2 3
6 4 6 0 0 2 -1 3 -2z m143 0 c1 -1 2 -2 2 -4 0 -3 -4 -3 -6 0 -2 2 -2 2 0 4 2
2 2 2 4 0z m-118 -8 c0 -2 -1 -4 -2 -5 -2 -1 -2 -1 -4 1 -2 2 -2 2 -1 4 3 3 7
3 7 0z m8 -16 c0 -2 -1 -4 -2 -5 -2 -1 -2 -1 -4 1 -2 2 -2 2 -1 4 3 3 7 3 7 0z
m78 -8 c1 -1 2 -2 2 -4 0 -3 -4 -3 -6 0 -2 2 -2 2 0 4 2 2 2 2 4 0z m-70 -8
c0 -3 -3 -6 -6 -6 -3 0 -3 3 0 6 2 3 6 3 6 0z m62 -8 c1 -1 2 -2 2 -4 0 -3 -4
-3 -6 0 -2 2 -2 2 0 4 2 2 2 2 4 0z m-54 -8 c0 -3 -3 -6 -6 -6 -3 0 -3 3 0 6
2 3 6 3 6 0z m38 -16 c1 -1 2 -2 2 -4 0 -3 -4 -3 -6 0 -2 2 -2 2 0 4 2 2 2 2
4 0z m-22 -10 l0 -4 6 0 c7 0 10 -2 10 -6 0 -2 0 -2 -6 -2 -7 0 -10 2 -10 6 0
1 -1 2 -2 2 -2 0 -4 1 -4 2 -2 2 -2 2 0 4 3 4 6 3 6 -2z"/><path d="M158 426 c-9 -9 -14 -15 -14 -16 0 -1 -1 -2 -2 -2 -6 0 -6 -2 -6 -28
0 -27 0 -28 6 -28 2 0 2 0 2 -6 0 -7 0 -7 4 -10 4 -3 4 -4 4 -8 0 -5 2 -8 6
-8 2 0 2 -1 2 -6 l0 -6 6 -6 6 -6 8 0 c7 0 9 0 10 -2 3 -3 3 -6 0 -6 -2 0 -4
-1 -4 -2 -2 -2 -2 -2 0 -4 0 -1 2 -2 4 -2 1 0 2 -1 2 -2 0 -2 1 -4 4 -6 4 -3
4 -4 4 -8 0 -5 2 -8 6 -8 1 0 2 -1 2 -2 0 -2 3 -5 8 -10 l8 -8 0 -8 0 -8 8 -8
8 -8 0 -12 c0 -16 0 -16 12 -16 11 0 12 1 12 12 0 9 -1 12 -6 12 -1 0 -2 1 -2
2 0 4 3 6 8 6 5 0 8 2 8 6 0 1 1 2 2 2 4 0 6 3 6 10 0 6 0 6 2 6 4 0 6 3 6 8
0 4 0 5 4 8 3 2 4 4 4 6 0 1 1 2 2 2 4 0 6 3 6 8 0 6 2 8 8 8 6 0 8 2 8 10 0
6 0 6 2 6 3 0 6 3 6 6 0 1 1 2 2 2 1 0 5 2 8 6 l6 6 0 6 c0 6 0 6 2 6 3 0 6 3
6 6 0 1 1 2 2 2 4 0 6 3 6 10 0 6 0 6 2 6 5 0 6 3 6 12 l0 9 -4 3 -4 3 0 9 0
9 4 3 4 3 0 9 c0 10 -1 12 -8 12 -4 0 -5 0 -12 8 -5 5 -8 8 -10 8 -1 0 -2 1
-2 2 0 6 -2 6 -24 6 -22 0 -24 0 -24 -6 0 -2 -1 -2 -6 -2 l-6 0 -6 -6 c-6 -5
-6 -6 -6 -10 0 -4 0 -5 -4 -8 -3 -2 -4 -4 -4 -6 0 -1 -1 -2 -2 -2 -4 0 -6 3
-6 8 0 5 -2 8 -6 8 -1 0 -2 1 -2 2 0 3 -3 6 -6 6 -1 0 -2 1 -2 2 0 1 -2 5 -6
8 l-6 6 -24 0 -24 0 -14 -14z m25 4 c1 -2 1 -2 -1 -4 l-2 -2 -2 2 c-2 2 -2 2
-1 4 1 1 3 2 3 2 0 0 2 -1 3 -2z m32 0 c1 -2 1 -2 -1 -4 l-2 -2 -2 2 c-2 2 -2
2 -1 4 1 1 3 2 3 2 0 0 2 -1 3 -2z m80 0 c1 -2 1 -2 -1 -4 -2 -2 -2 -2 -4 -1
-1 1 -2 3 -2 5 0 3 4 3 7 0z m41 0 c0 -2 -1 -4 -2 -5 -2 -1 -2 -1 -4 1 -2 2
-2 2 -1 4 3 3 7 3 7 0z m-104 -10 l0 -4 4 0 c5 0 6 -3 2 -6 -2 -2 -2 -2 -4 0
-1 0 -2 2 -2 4 0 1 -1 2 -2 2 -2 0 -4 1 -4 2 -2 2 -2 2 0 4 3 4 6 3 6 -2z
m-81 -14 c1 -2 1 -2 -1 -4 -2 -2 -2 -2 -4 -1 -1 1 -2 3 -2 5 0 3 4 3 7 0z
m208 0 c1 -2 1 -2 -1 -4 l-2 -2 -2 2 c-2 2 -2 2 -1 4 1 1 3 2 3 2 0 0 2 -1 3
-2z m-96 -8 c1 -2 1 -2 0 -4 -1 -1 -3 -2 -5 -2 -1 0 -2 -1 -2 -2 0 -2 -1 -4
-2 -5 -2 -1 -2 -1 -4 1 -2 2 -2 2 -1 4 1 1 3 2 5 2 2 0 2 0 2 4 0 5 3 6 7 2z
m9 -34 l3 -4 29 0 c33 0 32 0 32 -8 0 -4 0 -5 -4 -8 -4 -3 -4 -4 -4 -8 0 -4 0
-5 -4 -8 -4 -3 -4 -4 -4 -8 0 -4 0 -4 -16 -20 -16 -15 -16 -16 -16 -20 0 -4 0
-5 -12 -16 -12 -11 -12 -12 -12 -16 0 -4 -1 -5 -6 -10 -6 -6 -6 -6 -8 -4 -1 1
-2 3 -2 6 0 4 0 5 -8 12 -8 7 -8 8 -8 12 0 4 0 4 -20 24 -20 20 -20 20 -20 24
0 4 0 5 -8 12 -8 7 -8 8 -8 12 0 4 0 5 -4 8 -4 3 -4 4 -4 8 0 8 -3 8 48 8 l45
0 3 4 c2 2 4 4 4 4 0 0 2 -2 4 -4z m-121 -6 c1 -2 1 -2 0 -4 -3 -3 -7 -3 -7 0
0 2 3 6 4 6 0 0 2 -1 3 -2z m207 -8 c1 -1 2 -2 2 -4 0 -3 -4 -3 -6 0 -2 2 -2
2 0 4 2 2 2 2 4 0z m-8 -16 c1 -1 2 -2 2 -4 0 -2 0 -2 -4 -2 l-4 0 0 -4 c0 -5
-3 -6 -6 -2 -2 2 -2 2 0 4 0 1 2 2 4 2 1 0 2 1 2 2 0 2 3 6 4 6 0 0 1 -1 2 -2z
m-183 -8 c1 -2 1 -2 0 -4 -3 -3 -7 -3 -7 0 0 2 3 6 4 6 0 0 2 -1 3 -2z m159
-24 c1 -1 2 -2 2 -4 0 -2 0 -2 -4 -2 l-4 0 0 -4 c0 -5 -3 -6 -6 -2 -2 2 -2 2
0 4 0 1 2 2 4 2 1 0 2 1 2 2 0 2 3 6 4 6 0 0 1 -1 2 -2z m-127 -16 c1 -2 1 -2
0 -4 -4 -4 -7 -3 -7 2 0 5 3 6 7 2z m16 -24 c1 -2 1 -2 0 -4 -3 -3 -7 -3 -7 0
0 2 3 6 4 6 0 0 2 -1 3 -2z m79 0 c1 -1 2 -2 2 -4 0 -3 -4 -3 -6 0 -2 2 -2 2
0 4 2 2 2 2 4 0z m-16 -24 c1 -1 2 -2 2 -4 0 -3 -4 -3 -6 0 -2 2 -2 2 0 4 2 2
2 2 4 0z m-39 -8 c1 -2 1 -2 -1 -4 l-2 -2 -2 2 c-2 2 -2 2 -1 4 1 1 3 2 3 2 0
0 2 -1 3 -2z m31 -8 c1 -1 2 -2 2 -4 0 -3 -4 -3 -6 0 -2 2 -2 2 0 4 2 2 2 2 4
0z m-14 -24 c0 -2 -1 -4 -2 -5 -2 -1 -2 -1 -4 1 -2 2 -2 2 -1 4 3 3 7 3 7 0z"/><path d="M246 146 c-6 -6 -6 -6 -4 -8 2 -3 10 -3 12 0 3 2 3 10 0 12 -2 2 -2
3 -8 -4z"/></g>
  <g transform="scale(0.125 0.125) translate(0.000000,512.000000) scale(1.000000,-1.000000)" fill="#b8b8b8" stroke="none"><path d="M224 484 c-3 -4 -4 -4 -8 -4 -6 0 -9 -3 -6 -6 1 -2 3 -2 42 -2 39 0
41 0 43 2 2 3 -1 6 -7 6 -4 0 -5 0 -8 4 -3 4 -4 4 -8 4 -4 0 -5 0 -8 -4 l-3
-4 -13 0 -13 0 -3 4 c-2 2 -4 4 -4 4 0 0 -2 -2 -4 -4z"/><path d="M162 470 c-2 -1 -2 -3 -2 -8 l0 -6 -6 0 c-7 0 -10 -2 -10 -6 0 -2 0
-2 -8 -2 -8 0 -8 0 -8 2 0 2 -1 4 -2 5 -2 1 -2 1 -4 0 -1 -1 -2 -3 -2 -5 0 -1
-1 -2 -2 -2 -3 0 -6 -3 -6 -6 0 -1 -1 -2 -2 -2 -5 0 -6 -3 -6 -14 l0 -10 -4 0
c-4 0 -4 0 -4 2 0 2 -1 4 -2 5 -2 1 -2 1 -4 -1 -2 -2 -2 -2 -1 -4 1 -1 3 -2 5
-2 2 0 2 0 2 -4 0 -4 0 -4 -2 -4 -2 0 -4 -1 -6 -4 -4 -5 -8 -6 -8 -2 0 2 -1 4
-2 5 -2 1 -2 1 -4 0 -1 -1 -2 -3 -2 -5 0 -1 -1 -2 -2 -2 -4 0 -6 -3 -6 -10 0
-6 0 -6 -2 -6 -2 0 -4 -1 -4 -2 -2 -2 -2 -2 0 -4 0 -1 2 -2 4 -2 2 0 2 0 2
-12 l0 -12 -4 0 c-4 0 -4 0 -4 2 0 2 -1 4 -2 5 -2 1 -2 1 -4 -1 -2 -2 -2 -2
-1 -4 1 -1 3 -2 5 -2 l2 0 0 -44 0 -44 -2 0 c-2 0 -4 -1 -5 -2 -1 -2 -1 -2 1
-4 2 -2 2 -2 4 -1 1 1 2 3 2 5 0 1 1 2 2 2 4 0 6 -3 6 -10 0 -6 0 -6 -2 -6 -2
0 -4 -1 -5 -2 -1 -2 -1 -2 1 -4 2 -2 2 -2 4 -1 1 1 2 3 2 5 0 1 1 2 2 2 4 0 6
-3 6 -10 0 -6 0 -6 -2 -6 -2 0 -4 -1 -4 -2 -2 -2 -2 -2 -1 -4 1 -1 3 -2 5 -2
2 0 2 0 2 -6 l0 -6 6 -6 c3 -4 7 -6 8 -6 1 0 2 -1 2 -2 0 -3 3 -6 6 -6 1 0 2
-1 2 -2 0 -3 3 -6 6 -6 1 0 2 -1 2 -2 0 -4 3 -6 8 -6 4 0 5 0 8 -4 2 -3 4 -4
6 -4 1 0 2 -1 2 -2 0 -4 3 -6 8 -6 4 0 5 0 8 -4 l4 -4 4 4 c4 5 11 6 15 2 1
-2 1 -2 -3 -6 -4 -4 -4 -4 -3 -6 2 -2 3 -2 9 -2 6 0 6 0 6 -2 0 -4 3 -6 8 -6
6 0 16 -10 16 -16 0 -4 1 -5 6 -10 3 -4 7 -6 8 -6 2 0 2 -1 2 -6 0 -7 2 -10 6
-10 2 0 2 0 2 -6 0 -7 0 -7 4 -10 4 -3 4 -4 4 -8 0 -4 0 -5 8 -12 8 -7 8 -8 8
-12 0 -3 1 -5 2 -6 2 -2 2 -2 8 4 l6 6 0 6 c0 6 0 6 2 6 4 0 6 3 6 10 0 5 0 6
2 6 1 0 5 2 8 6 l6 6 0 6 c0 6 0 6 2 6 4 0 6 3 6 10 0 6 0 6 2 6 4 0 6 3 6 8
0 6 10 16 16 16 5 0 8 2 8 6 0 2 0 2 10 2 l11 0 3 4 c3 4 4 4 8 4 4 0 5 0 10
6 4 3 6 7 6 8 0 2 1 2 6 2 l6 0 6 6 c4 3 6 7 6 8 0 1 1 2 2 2 3 0 6 3 6 6 0 1
1 2 2 2 3 0 6 3 6 6 0 1 1 2 2 2 3 0 6 3 6 6 0 1 1 2 2 2 4 0 6 3 6 10 0 6 0
6 2 6 3 0 6 3 6 6 0 1 1 2 2 2 4 0 6 3 6 8 0 5 -2 8 -6 8 -3 0 -3 12 0 15 2 1
2 1 6 -3 4 -4 4 -4 6 -3 1 2 2 4 2 7 0 4 0 5 -4 8 l-4 3 0 13 c0 11 0 13 2 14
2 2 2 2 4 1 2 -2 2 -4 2 -11 0 -7 0 -9 2 -10 2 -2 2 -2 4 -1 3 3 3 51 0 54 -2
1 -2 1 -4 -1 -2 -1 -2 -3 -2 -10 0 -7 0 -9 -2 -11 -2 -1 -2 -1 -4 1 -2 1 -2 3
-2 14 l0 13 4 3 4 3 0 9 c0 9 -1 12 -6 12 -2 0 -2 0 -2 6 0 7 -2 10 -6 10 -2
0 -2 0 -2 6 0 7 -2 10 -6 10 -1 0 -2 1 -2 2 0 3 -3 6 -6 6 -1 0 -2 1 -2 2 0 3
-3 6 -6 6 -1 0 -2 1 -2 2 0 3 -19 22 -22 22 -1 0 -2 1 -2 2 0 3 -3 6 -6 6 -1
0 -2 1 -2 2 0 4 -3 6 -8 6 -4 0 -5 0 -8 -4 -4 -5 -8 -6 -8 -2 0 4 -3 6 -10 6
l-6 0 0 6 c0 6 0 7 -2 9 -2 1 -2 1 -6 -3 -4 -5 -8 -6 -8 -2 0 5 -3 6 -12 6 -7
0 -9 0 -10 -2 -2 -2 -2 -2 0 -4 1 -2 3 -2 12 -2 10 0 10 0 10 -2 0 -4 3 -6 10
-6 6 0 6 0 6 -2 0 -4 3 -6 10 -6 5 0 6 0 6 -2 0 -1 2 -5 6 -8 l6 -6 6 0 c5 0
6 0 6 -2 0 -3 19 -22 22 -22 2 0 2 -1 2 -6 l0 -6 8 -8 c8 -7 8 -8 8 -12 0 -4
0 -5 4 -8 4 -3 4 -4 4 -8 0 -4 0 -5 4 -8 l4 -3 0 -37 0 -37 -4 -3 c-4 -3 -4
-4 -4 -8 0 -4 0 -5 -4 -8 -4 -3 -4 -4 -4 -8 0 -4 0 -5 -4 -8 -4 -3 -4 -4 -4
-8 0 -4 0 -4 -14 -18 -13 -14 -14 -14 -18 -14 -4 0 -5 0 -16 -12 -12 -12 -12
-12 -16 -12 -4 0 -5 0 -8 -4 -3 -4 -4 -4 -8 -4 -4 0 -5 0 -8 -4 l-3 -4 -9 0
-8 0 -6 -6 c-5 -5 -6 -6 -6 -10 0 -4 0 -5 -8 -12 -8 -7 -8 -8 -8 -12 0 -4 0
-5 -4 -8 -4 -3 -4 -4 -4 -8 0 -4 0 -5 -8 -12 -8 -7 -8 -8 -8 -12 0 -5 -2 -8
-6 -8 -2 0 -2 1 -2 6 l0 6 -6 6 c-3 4 -7 6 -8 6 -2 0 -2 1 -2 6 0 7 -2 10 -6
10 -2 0 -2 0 -2 6 0 7 -2 10 -6 10 -2 0 -2 0 -2 6 0 7 -2 10 -6 10 -1 0 -2 1
-2 2 0 1 -2 5 -6 8 l-6 6 -8 0 -9 0 -3 4 c-3 4 -4 4 -8 4 -4 0 -5 0 -8 4 -3 4
-4 4 -8 4 -4 0 -5 0 -12 8 -7 8 -8 8 -12 8 -4 0 -4 0 -22 18 -18 18 -18 18
-18 22 0 4 0 5 -4 8 -4 3 -4 4 -4 8 0 4 0 5 -4 8 -4 3 -4 4 -4 8 0 4 0 5 -4 8
l-4 3 0 39 0 38 2 0 c5 0 6 3 6 14 0 9 0 10 2 10 1 0 6 4 12 10 l10 10 0 6 c0
6 0 6 2 6 3 0 6 3 6 6 0 1 1 2 2 2 2 0 4 1 6 4 3 4 4 4 8 4 4 0 4 0 14 10 6 6
10 11 10 12 0 2 1 2 6 2 7 0 10 2 10 6 0 2 0 2 10 2 l11 0 3 4 c3 4 4 4 8 4 6
0 9 3 7 6 -2 2 -4 2 -11 2 l-8 0 -4 -4 -4 -4 -4 4 c-4 5 -4 5 -6 2z m-34 -24
c0 -3 -3 -6 -6 -6 -1 0 -2 -1 -2 -2 0 -2 -1 -4 -2 -4 -2 -2 -2 -2 -4 0 -4 3
-3 6 2 6 l4 0 0 4 0 4 4 0 c3 0 4 0 4 -2z m256 -2 l0 -4 4 0 c3 0 4 0 4 -2 0
-3 -3 -6 -6 -6 -2 0 -2 0 -2 4 0 4 0 4 -2 4 -2 0 -4 1 -4 2 -2 2 -2 2 0 4 3 4
6 3 6 -2z m32 -32 l0 -4 4 0 4 0 0 -4 0 -4 4 0 c5 0 6 -3 2 -6 -2 -2 -2 -2 -4
0 -1 0 -2 2 -2 4 0 1 -1 2 -2 2 -3 0 -6 3 -6 6 0 2 0 2 -4 2 -3 0 -4 0 -4 2 0
3 3 6 6 6 2 0 2 0 2 -4z m-336 -14 c0 -2 -1 -4 -2 -4 -2 -2 -2 -2 -4 0 -4 3
-3 6 2 6 4 0 4 0 4 -2z m-10 -16 c1 -1 2 -2 2 -4 0 -2 0 -2 -4 -2 l-4 0 0 4
c0 5 3 6 6 2z m370 0 c0 -2 -1 -4 -2 -5 -2 -1 -2 -1 -4 1 -2 2 -2 2 -1 4 3 3
7 3 7 0z m8 -16 c0 -2 -1 -4 -2 -5 -2 -1 -2 -1 -4 1 -2 2 -2 2 -1 4 3 3 7 3 7
0z m-8 -126 l0 -8 -4 0 -4 0 0 -4 c0 -5 -3 -6 -6 -2 -2 2 -2 2 0 4 0 1 2 2 4
2 2 0 2 0 2 6 0 7 2 10 6 10 2 0 2 0 2 -8z m-361 -10 c1 -2 1 -2 0 -4 -4 -4
-7 -3 -7 2 0 5 3 6 7 2z m343 -16 c1 -1 2 -2 2 -4 0 -2 0 -2 -4 -2 l-4 0 0 -4
0 -4 -4 0 -4 0 0 -4 0 -4 -4 0 -4 0 0 -4 c0 -5 -3 -6 -6 -2 -2 2 -2 2 0 4 0 1
2 2 4 2 1 0 2 1 2 2 0 3 3 6 6 6 1 0 2 1 2 2 0 3 3 6 6 6 1 0 2 1 2 2 0 2 3 6
4 6 0 0 1 -1 2 -2z m-328 -8 c1 -1 2 -2 2 -4 0 -1 1 -2 2 -2 3 0 6 -3 6 -6 0
-1 1 -2 2 -2 2 0 4 -1 5 -2 1 -2 1 -2 0 -4 -4 -4 -7 -3 -7 2 l0 4 -4 0 -4 0 0
4 0 4 -4 0 c-5 0 -6 3 -2 6 2 2 2 2 4 0z m41 -32 c1 -2 1 -2 0 -4 -3 -3 -7 -3
-7 0 0 2 3 6 4 6 0 0 2 -1 3 -2z m239 0 c1 -1 2 -2 2 -4 0 -3 -4 -3 -6 0 -2 2
-2 2 0 4 2 2 2 2 4 0z m-31 -16 c1 -2 1 -2 -1 -4 l-2 -2 -2 2 c-2 2 -2 2 -1 4
1 1 3 2 3 2 0 0 2 -1 3 -2z m-160 -8 c1 -2 1 -2 0 -4 -3 -3 -7 -3 -7 0 0 2 3
6 4 6 0 0 2 -1 3 -2z m143 0 c1 -1 2 -2 2 -4 0 -3 -4 -3 -6 0 -2 2 -2 2 0 4 2
2 2 2 4 0z m-118 -8 c0 -2 -1 -4 -2 -5 -2 -1 -2 -1 -4 1 -2 2 -2 2 -1 4 3 3 7
3 7 0z m8 -16 c0 -2 -1 -4 -2 -5 -2 -1 -2 -1 -4 1 -2 2 -2 2 -1 4 3 3 7 3 7 0z
m78 -8 c1 -1 2 -2 2 -4 0 -3 -4 -3 -6 0 -2 2 -2 2 0 4 2 2 2 2 4 0z m-70 -8
c0 -3 -3 -6 -6 -6 -3 0 -3 3 0 6 2 3 6 3 6 0z m62 -8 c1 -1 2 -2 2 -4 0 -3 -4
-3 -6 0 -2 2 -2 2 0 4 2 2 2 2 4 0z m-54 -8 c0 -3 -3 -6 -6 -6 -3 0 -3 3 0 6
2 3 6 3 6 0z m38 -16 c1 -1 2 -2 2 -4 0 -3 -4 -3 -6 0 -2 2 -2 2 0 4 2 2 2 2
4 0z m-22 -10 l0 -4 6 0 c7 0 10 -2 10 -6 0 -2 0 -2 -6 -2 -7 0 -10 2 -10 6 0
1 -1 2 -2 2 -2 0 -4 1 -4 2 -2 2 -2 2 0 4 3 4 6 3 6 -2z"/><path d="M158 426 c-9 -9 -14 -15 -14 -16 0 -1 -1 -2 -2 -2 -6 0 -6 -2 -6 -28
0 -27 0 -28 6 -28 2 0 2 0 2 -6 0 -7 0 -7 4 -10 4 -3 4 -4 4 -8 0 -5 2 -8 6
-8 2 0 2 -1 2 -6 l0 -6 6 -6 6 -6 8 0 c7 0 9 0 10 -2 3 -3 3 -6 0 -6 -2 0 -4
-1 -4 -2 -2 -2 -2 -2 0 -4 0 -1 2 -2 4 -2 1 0 2 -1 2 -2 0 -2 1 -4 4 -6 4 -3
4 -4 4 -8 0 -5 2 -8 6 -8 1 0 2 -1 2 -2 0 -2 3 -5 8 -10 l8 -8 0 -8 0 -8 8 -8
8 -8 0 -12 c0 -16 0 -16 12 -16 11 0 12 1 12 12 0 9 -1 12 -6 12 -1 0 -2 1 -2
2 0 4 3 6 8 6 5 0 8 2 8 6 0 1 1 2 2 2 4 0 6 3 6 10 0 6 0 6 2 6 4 0 6 3 6 8
0 4 0 5 4 8 3 2 4 4 4 6 0 1 1 2 2 2 4 0 6 3 6 8 0 6 2 8 8 8 6 0 8 2 8 10 0
6 0 6 2 6 3 0 6 3 6 6 0 1 1 2 2 2 1 0 5 2 8 6 l6 6 0 6 c0 6 0 6 2 6 3 0 6 3
6 6 0 1 1 2 2 2 4 0 6 3 6 10 0 6 0 6 2 6 5 0 6 3 6 12 l0 9 -4 3 -4 3 0 9 0
9 4 3 4 3 0 9 c0 10 -1 12 -8 12 -4 0 -5 0 -12 8 -5 5 -8 8 -10 8 -1 0 -2 1
-2 2 0 6 -2 6 -24 6 -22 0 -24 0 -24 -6 0 -2 -1 -2 -6 -2 l-6 0 -6 -6 c-6 -5
-6 -6 -6 -10 0 -4 0 -5 -4 -8 -3 -2 -4 -4 -4 -6 0 -1 -1 -2 -2 -2 -4 0 -6 3
-6 8 0 5 -2 8 -6 8 -1 0 -2 1 -2 2 0 3 -3 6 -6 6 -1 0 -2 1 -2 2 0 1 -2 5 -6
8 l-6 6 -24 0 -24 0 -14 -14z m25 4 c1 -2 1 -2 -1 -4 l-2 -2 -2 2 c-2 2 -2 2
-1 4 1 1 3 2 3 2 0 0 2 -1 3 -2z m32 0 c1 -2 1 -2 -1 -4 l-2 -2 -2 2 c-2 2 -2
2 -1 4 1 1 3 2 3 2 0 0 2 -1 3 -2z m80 0 c1 -2 1 -2 -1 -4 -2 -2 -2 -2 -4 -1
-1 1 -2 3 -2 5 0 3 4 3 7 0z m41 0 c0 -2 -1 -4 -2 -5 -2 -1 -2 -1 -4 1 -2 2
-2 2 -1 4 3 3 7 3 7 0z m-104 -10 l0 -4 4 0 c5 0 6 -3 2 -6 -2 -2 -2 -2 -4 0
-1 0 -2 2 -2 4 0 1 -1 2 -2 2 -2 0 -4 1 -4 2 -2 2 -2 2 0 4 3 4 6 3 6 -2z
m-24 -8 c3 -4 4 -4 8 -4 4 0 5 0 10 -6 6 -5 6 -6 6 -10 0 -4 0 -5 4 -8 4 -3 4
-4 4 -8 0 -4 0 -5 6 -10 l6 -6 10 10 c10 10 10 10 10 14 0 4 0 5 4 8 4 3 4 4
4 8 0 7 2 8 12 8 l9 0 3 4 c3 4 4 4 8 4 4 0 5 0 8 -4 3 -4 4 -4 8 -4 4 0 5 0
10 -6 l6 -6 0 -20 0 -21 -4 -3 c-4 -3 -4 -4 -4 -8 0 -4 0 -5 -8 -12 -8 -7 -8
-8 -8 -12 0 -4 0 -4 -16 -20 -16 -15 -16 -16 -16 -20 0 -4 0 -5 -12 -16 -12
-11 -12 -12 -12 -16 0 -4 -1 -5 -6 -10 -6 -6 -6 -6 -8 -4 -1 1 -2 3 -2 6 0 4
0 5 -8 12 -8 7 -8 8 -8 12 0 4 0 4 -20 24 -20 20 -20 20 -20 24 0 4 0 5 -8 12
-8 7 -8 8 -8 12 0 4 0 5 -4 8 -4 3 -4 4 -4 8 0 4 0 5 -4 8 l-4 3 0 13 0 12 10
10 c10 10 10 10 14 10 4 0 5 0 8 4 3 4 4 4 8 4 4 0 5 0 8 -4z m-57 -6 c1 -2 1
-2 -1 -4 -2 -2 -2 -2 -4 -1 -1 1 -2 3 -2 5 0 3 4 3 7 0z m208 0 c1 -2 1 -2 -1
-4 l-2 -2 -2 2 c-2 2 -2 2 -1 4 1 1 3 2 3 2 0 0 2 -1 3 -2z m-96 -8 c1 -2 1
-2 0 -4 -1 -1 -3 -2 -5 -2 -1 0 -2 -1 -2 -2 0 -2 -1 -4 -2 -5 -2 -1 -2 -1 -4
1 -2 2 -2 2 -1 4 1 1 3 2 5 2 2 0 2 0 2 4 0 5 3 6 7 2z m-112 -40 c1 -2 1 -2
0 -4 -3 -3 -7 -3 -7 0 0 2 3 6 4 6 0 0 2 -1 3 -2z m207 -8 c1 -1 2 -2 2 -4 0
-3 -4 -3 -6 0 -2 2 -2 2 0 4 2 2 2 2 4 0z m-8 -16 c1 -1 2 -2 2 -4 0 -2 0 -2
-4 -2 l-4 0 0 -4 c0 -5 -3 -6 -6 -2 -2 2 -2 2 0 4 0 1 2 2 4 2 1 0 2 1 2 2 0
2 3 6 4 6 0 0 1 -1 2 -2z m-183 -8 c1 -2 1 -2 0 -4 -3 -3 -7 -3 -7 0 0 2 3 6
4 6 0 0 2 -1 3 -2z m159 -24 c1 -1 2 -2 2 -4 0 -2 0 -2 -4 -2 l-4 0 0 -4 c0
-5 -3 -6 -6 -2 -2 2 -2 2 0 4 0 1 2 2 4 2 1 0 2 1 2 2 0 2 3 6 4 6 0 0 1 -1 2
-2z m-127 -16 c1 -2 1 -2 0 -4 -4 -4 -7 -3 -7 2 0 5 3 6 7 2z m16 -24 c1 -2 1
-2 0 -4 -3 -3 -7 -3 -7 0 0 2 3 6 4 6 0 0 2 -1 3 -2z m79 0 c1 -1 2 -2 2 -4 0
-3 -4 -3 -6 0 -2 2 -2 2 0 4 2 2 2 2 4 0z m-16 -24 c1 -1 2 -2 2 -4 0 -3 -4
-3 -6 0 -2 2 -2 2 0 4 2 2 2 2 4 0z m-39 -8 c1 -2 1 -2 -1 -4 l-2 -2 -2 2 c-2
2 -2 2 -1 4 1 1 3 2 3 2 0 0 2 -1 3 -2z m31 -8 c1 -1 2 -2 2 -4 0 -3 -4 -3 -6
0 -2 2 -2 2 0 4 2 2 2 2 4 0z m-14 -24 c0 -2 -1 -4 -2 -5 -2 -1 -2 -1 -4 1 -2
2 -2 2 -1 4 3 3 7 3 7 0z"/><path d="M246 146 c-6 -6 -6 -6 -4 -8 2 -3 10 -3 12 0 3 2 3 10 0 12 -2 2 -2
3 -8 -4z"/></g>
  <g transform="scale(0.125 0.125) translate(0.000000,512.000000) scale(1.000000,-1.000000)" fill="#272024" stroke="none"><path d="M226 486 c-2 -2 -2 -2 0 -4 0 -1 2 -2 4 -2 1 0 2 -1 2 -2 0 -5 2 -6
20 -6 l16 0 6 6 c6 6 6 6 4 8 -1 1 -3 2 -6 2 -4 0 -5 0 -8 -4 l-3 -4 -15 0
-14 0 0 2 c0 2 -3 6 -4 6 0 0 -2 -1 -2 -2z"/><path d="M209 478 c-1 -2 -1 -2 1 -4 l2 -2 2 2 c2 2 2 2 1 4 -1 1 -3 2 -3 2 0
0 -2 -1 -3 -2z"/><path d="M289 478 c-1 -2 -1 -2 1 -4 l2 -2 2 2 c2 2 2 2 1 4 -1 1 -3 2 -3 2 0
0 -2 -1 -3 -2z"/><path d="M162 470 c-2 -2 -2 -2 0 -4 0 -1 2 -2 4 -2 1 0 2 -1 2 -2 0 -6 10 -8
14 -4 3 3 3 10 0 13 -2 1 -2 1 -6 -3 -4 -5 -8 -6 -8 -2 0 2 -3 6 -4 6 0 0 -2
-1 -2 -2z"/><path d="M193 470 c-1 -2 -1 -2 1 -4 l2 -2 2 2 c2 2 2 2 1 4 -1 1 -3 2 -3 2 0
0 -2 -1 -3 -2z"/><path d="M305 470 c-1 -2 -1 -2 1 -4 l2 -2 2 2 c2 2 2 2 1 4 -1 1 -3 2 -3 2 0
0 -2 -1 -3 -2z"/><path d="M322 470 c-2 -2 -2 -2 0 -4 0 -1 2 -2 4 -2 1 0 2 -1 2 -2 0 -2 1 -4
2 -4 2 -2 2 -2 4 0 1 0 2 2 2 4 0 1 1 2 2 2 2 0 4 1 5 2 1 2 1 2 -1 4 -2 2 -2
2 -4 1 -1 -1 -2 -3 -2 -5 0 -2 0 -2 -4 -2 -4 0 -4 0 -4 2 0 2 -3 6 -4 6 0 0
-2 -1 -2 -2z"/><path d="M122 454 c-1 -1 -2 -3 -2 -4 0 -1 -1 -2 -2 -2 -3 0 -6 -3 -6 -6 0 -1
-1 -2 -2 -2 -5 0 -6 -3 -6 -14 l0 -10 -4 0 c-4 0 -4 0 -4 2 0 2 -1 4 -2 5 -2
1 -2 1 -4 -1 -2 -2 -2 -2 -1 -4 1 -1 3 -2 5 -2 1 0 2 -1 2 -2 0 -2 1 -4 2 -4
2 -2 2 -2 4 0 1 0 2 2 2 4 0 1 1 2 2 2 2 0 4 1 6 4 3 4 4 4 8 4 5 0 8 2 8 6 0
1 1 2 2 2 3 0 6 3 6 6 0 1 1 2 2 2 2 0 4 1 5 2 1 2 1 2 -1 4 -2 2 -2 2 -4 1
-1 -1 -2 -3 -2 -5 0 -1 -1 -2 -2 -2 -3 0 -6 -3 -6 -6 0 -3 -12 -3 -14 0 -3 3
-3 6 0 6 3 0 6 3 6 6 0 1 1 2 2 2 2 0 4 1 5 2 1 2 1 2 0 4 -3 2 -3 2 -5 0z"/><path d="M153 454 c-1 -2 -1 -2 1 -4 l2 -2 2 2 c2 2 2 2 1 4 -1 1 -3 2 -3 2 0
0 -2 -1 -3 -2z"/><path d="M345 454 c-1 -2 -1 -2 1 -4 l2 -2 2 2 c2 2 2 2 1 4 -1 1 -3 2 -3 2 0
0 -2 -1 -3 -2z"/><path d="M370 454 c-1 -1 -2 -3 -2 -4 0 -1 -1 -2 -2 -2 -2 0 -4 -1 -4 -2 -2
-2 -2 -2 0 -4 0 -1 2 -2 4 -2 1 0 2 -1 2 -2 0 -2 1 -4 2 -5 2 -1 2 -1 4 1 2 2
2 2 1 4 -1 1 -3 2 -5 2 -2 0 -2 0 -2 4 l0 4 8 0 c8 0 8 0 8 -2 0 -3 3 -6 6 -6
4 0 3 -4 -2 -8 l-4 -4 10 -10 10 -10 4 4 c4 5 8 6 8 2 0 -3 3 -6 6 -6 1 0 2
-1 2 -2 0 -3 3 -6 6 -6 2 0 2 0 2 -6 0 -7 2 -10 6 -10 2 0 2 0 2 -6 0 -7 2
-10 6 -10 1 0 2 -1 2 -2 0 -4 -3 -6 -8 -6 -3 0 -5 -1 -6 -2 -3 -3 0 -6 6 -6 4
0 5 0 8 -4 4 -4 4 -4 6 -3 2 2 2 3 2 11 0 9 -1 12 -6 12 -2 0 -2 0 -2 6 0 7
-2 10 -6 10 -2 0 -2 0 -2 6 0 7 -2 10 -6 10 -1 0 -2 1 -2 2 0 3 -3 6 -6 6 -1
0 -2 1 -2 2 0 3 -3 6 -6 6 -1 0 -2 1 -2 2 0 3 -19 22 -22 22 -1 0 -2 1 -2 2 0
3 -3 6 -6 6 -1 0 -2 1 -2 2 0 6 -10 8 -14 4z"/><path d="M166 434 c-6 -5 -6 -6 -6 -10 0 -4 0 -5 -4 -8 -4 -3 -4 -4 -4 -8 0
-3 -1 -5 -2 -7 -2 -1 -2 -1 -6 3 -4 4 -4 4 -6 3 -1 -2 -2 -4 -2 -7 0 -4 0 -5
4 -8 l4 -3 0 -9 0 -9 -4 -3 c-4 -3 -4 -4 -4 -8 0 -3 1 -5 2 -7 2 -1 2 -1 6 3
4 4 4 4 6 3 4 -4 3 -11 -2 -15 -4 -4 -4 -4 -3 -6 2 -1 4 -2 7 -2 5 0 8 -2 8
-6 0 -1 -1 -2 -2 -2 -2 0 -4 -1 -4 -2 -2 -2 -2 -2 0 -4 0 -1 2 -2 4 -2 2 0 2
0 2 -6 0 -7 2 -10 6 -10 1 0 2 -1 2 -2 0 -2 1 -4 2 -4 2 -2 2 -2 4 0 1 0 2 2
2 4 0 4 4 2 10 -4 6 -6 8 -10 4 -10 -2 0 -4 -1 -4 -2 -2 -2 -2 -2 0 -4 0 -1 2
-2 4 -2 1 0 2 -1 2 -2 0 -4 3 -6 8 -6 5 0 8 -2 8 -6 0 -1 -1 -2 -2 -2 -2 0 -4
-1 -4 -2 -2 -2 -2 -2 0 -4 0 -1 2 -2 4 -2 1 0 2 -1 2 -2 0 -4 3 -6 8 -6 4 0 5
-1 10 -6 6 -6 8 -10 4 -10 -4 0 -6 -3 -6 -8 0 -5 2 -8 6 -8 1 0 2 -1 2 -2 0
-4 3 -6 8 -6 5 0 8 -2 8 -6 0 -1 -1 -2 -2 -2 -5 0 -6 -3 -6 -12 0 -11 1 -12
12 -12 10 0 12 1 12 8 0 3 -1 5 -2 7 -2 1 -2 1 -6 -3 -4 -4 -4 -4 -6 -3 -2 2
-2 3 -2 9 0 6 0 6 2 6 2 0 4 1 6 4 3 4 4 4 8 4 5 0 8 2 8 6 0 1 1 2 2 2 2 0 4
1 5 2 1 2 1 2 0 4 -1 1 -3 2 -5 2 -2 0 -2 0 -2 6 0 7 2 10 6 10 1 0 2 -1 2 -2
0 -2 1 -4 2 -5 2 -1 2 -1 4 1 2 2 2 2 1 4 -1 1 -3 2 -5 2 -4 0 -3 4 2 8 4 3 4
4 4 8 0 3 1 5 2 7 2 1 2 1 6 -3 4 -4 4 -4 6 -3 2 2 2 3 2 11 0 7 0 9 2 10 3 3
6 3 6 0 0 -2 1 -4 2 -5 2 -1 2 -1 4 1 2 2 2 2 1 4 -1 1 -3 2 -5 2 -2 0 -2 0
-2 6 0 7 2 10 6 10 1 0 2 -1 2 -2 0 -2 1 -4 2 -4 2 -2 2 -2 4 0 1 0 2 2 2 4 0
1 1 2 2 2 1 0 5 3 8 6 l6 6 -4 4 c-4 3 -4 4 -4 8 0 5 2 8 6 8 1 0 2 -1 2 -2 0
-2 1 -4 2 -4 2 -2 2 -2 4 -1 1 1 2 3 2 5 0 1 1 2 2 2 2 0 4 1 5 2 1 2 1 2 0 4
-1 1 -3 2 -5 2 -3 0 -3 12 0 15 2 1 2 1 6 -3 4 -4 4 -4 6 -3 1 2 2 4 2 7 0 4
0 5 -4 8 l-4 3 0 19 0 18 2 0 c6 0 8 10 4 15 -3 3 -6 -1 -6 -9 0 -6 0 -6 -2
-6 -4 0 -6 3 -6 8 0 6 -10 16 -16 16 -3 0 -5 1 -7 2 -1 2 -1 2 3 6 4 4 4 4 3
6 -2 1 -4 2 -7 2 -4 0 -5 0 -8 -4 -3 -4 -4 -4 -8 -4 -4 0 -5 0 -8 4 -3 4 -4 4
-8 4 -3 0 -5 -1 -7 -2 -1 -2 -1 -2 3 -6 4 -4 4 -4 3 -6 -4 -4 -11 -3 -15 2
l-4 4 -6 -6 -6 -6 0 -12 0 -12 -6 -6 c-6 -6 -6 -6 -8 -4 -2 1 -2 3 -2 14 0 14
-1 16 -6 16 -1 0 -2 1 -2 2 0 3 -3 6 -6 6 -1 0 -2 1 -2 2 0 3 -3 6 -6 6 -1 0
-2 1 -2 2 0 4 -3 6 -8 6 -5 0 -8 -2 -8 -6 0 -2 0 -2 -12 -2 -12 0 -12 0 -12 2
0 4 -3 6 -8 6 -4 0 -5 -1 -10 -6z m18 -4 c0 -2 -1 -4 -2 -5 -2 -1 -2 -1 -4 1
-2 2 -2 2 -1 4 3 3 7 3 7 0z m40 -2 l0 -4 4 0 4 0 0 -4 0 -4 4 0 c5 0 6 -3 2
-6 -2 -2 -2 -2 -4 0 -1 0 -2 2 -2 4 0 1 -1 2 -2 2 -3 0 -6 3 -6 6 0 2 0 2 -6
2 -7 0 -10 2 -10 6 0 2 0 2 8 2 l8 0 0 -4z m-16 -16 c3 -4 4 -4 8 -4 4 0 5 0
10 -6 6 -5 6 -6 6 -10 0 -4 0 -5 4 -8 4 -3 4 -4 4 -8 0 -4 0 -5 6 -10 l6 -6
10 10 c10 10 10 10 10 14 0 4 0 5 4 8 4 3 4 4 4 8 0 7 2 8 12 8 l9 0 3 4 c3 4
4 4 8 4 4 0 5 0 8 -4 3 -4 4 -4 8 -4 4 0 5 0 10 -6 l6 -6 0 -20 0 -21 -4 -3
c-4 -3 -4 -4 -4 -8 0 -4 0 -5 -8 -12 -8 -7 -8 -8 -8 -12 0 -4 0 -4 -16 -20
-16 -15 -16 -16 -16 -20 0 -4 0 -5 -12 -16 -12 -11 -12 -12 -12 -16 0 -4 -1
-5 -6 -10 -6 -6 -6 -6 -8 -4 -1 1 -2 3 -2 6 0 4 0 5 -8 12 -8 7 -8 8 -8 12 0
4 0 4 -20 24 -20 20 -20 20 -20 24 0 4 0 5 -8 12 -8 7 -8 8 -8 12 0 4 0 5 -4
8 -4 3 -4 4 -4 8 0 4 0 5 -4 8 l-4 3 0 13 0 12 10 10 c10 10 10 10 14 10 4 0
5 0 8 4 3 4 4 4 8 4 4 0 5 0 8 -4z m144 -80 l0 -4 -4 0 c-3 0 -4 0 -4 2 0 3 3
6 6 6 2 0 2 0 2 -4z m-185 -6 c1 -2 1 -2 0 -4 -4 -4 -7 -3 -7 2 0 5 3 6 7 2z
m7 -16 c1 -1 2 -2 2 -4 0 -2 0 -2 -4 -2 -5 0 -6 3 -2 6 2 2 2 2 4 0z m152 -8
c1 -1 2 -2 2 -4 0 -2 0 -2 -4 -2 -5 0 -6 3 -2 6 2 2 2 2 4 0z m-127 -16 c1 -2
1 -2 0 -4 -4 -4 -7 -3 -7 2 0 5 3 6 7 2z m16 -24 c1 -2 1 -2 0 -4 -4 -4 -7 -3
-7 2 0 5 3 6 7 2z m23 -32 c4 -4 2 -14 -4 -14 -2 0 -2 0 -2 8 0 8 0 8 2 8 1 0
3 -1 4 -2z m34 -10 c0 -5 -3 -6 -6 -2 -2 2 -2 2 0 4 3 4 6 3 6 -2z"/><path d="M74 406 c-1 -1 -2 -3 -2 -4 0 -1 -1 -2 -2 -2 -4 0 -6 -3 -6 -10 0 -6
0 -6 -2 -6 -2 0 -4 -1 -5 -2 -1 -2 -1 -2 1 -4 2 -2 2 -2 4 -1 1 1 2 3 2 5 0 2
0 2 10 2 12 0 14 1 14 6 0 1 1 2 2 2 2 0 4 1 5 2 1 2 1 2 -1 4 -2 2 -2 2 -4 1
-1 -1 -2 -3 -2 -5 0 -2 0 -2 -6 -2 -7 0 -10 2 -10 6 0 1 1 2 2 2 2 0 4 1 5 2
1 2 1 2 0 4 -3 2 -3 2 -5 0z"/><path d="M410 398 c-2 -2 -2 -2 0 -4 0 -1 2 -2 4 -2 1 0 2 -1 2 -2 0 -2 1 -4
2 -5 2 -1 2 -1 4 1 2 2 2 2 1 4 -1 1 -3 2 -5 2 -1 0 -2 1 -2 2 0 2 -3 6 -4 6
0 0 -2 -1 -2 -2z"/><path d="M425 374 c-1 -2 -1 -2 1 -4 l2 -2 2 2 c2 2 2 2 1 4 -1 1 -3 2 -3 2 0
0 -2 -1 -3 -2z"/><path d="M49 358 c-1 -2 -1 -2 1 -4 l2 -2 2 2 c2 2 2 2 1 4 -1 1 -3 2 -3 2 0
0 -2 -1 -3 -2z"/><path d="M65 358 c-1 -2 -1 -2 1 -4 l2 -2 2 2 c2 2 2 2 1 4 -1 1 -3 2 -3 2 0
0 -2 -1 -3 -2z"/><path d="M458 334 c-2 -1 -2 -4 -2 -10 0 -7 0 -9 -2 -10 -3 -3 -6 0 -6 6 0 6
-3 9 -6 7 -3 -3 -3 -27 0 -30 2 -1 2 -1 6 3 4 4 4 4 6 3 2 -2 2 -3 2 -11 0 -7
0 -9 2 -10 2 -2 2 -2 4 0 3 2 3 50 0 52 -2 2 -2 2 -4 0z"/><path d="M58 326 c-3 -3 -3 -34 0 -36 2 -2 2 -2 4 0 3 2 3 34 0 36 -2 2 -2 2
-4 0z"/><path d="M58 270 c-1 -1 -2 -3 -2 -4 0 -1 -1 -2 -2 -2 -2 0 -4 -1 -5 -2 -1 -2
-1 -2 1 -4 2 -2 2 -2 4 -1 1 1 2 3 2 5 0 4 4 3 8 -2 2 -3 4 -4 6 -4 2 0 2 0 2
-6 0 -7 2 -10 6 -10 3 0 3 -12 0 -14 -3 -3 -6 -3 -6 0 0 2 -1 4 -2 5 -2 1 -2
1 -4 -1 -2 -2 -2 -2 -1 -4 1 -1 3 -2 5 -2 2 0 2 0 2 -6 l0 -6 6 -6 c3 -4 7 -6
8 -6 1 0 2 -1 2 -2 0 -3 3 -6 6 -6 1 0 2 -1 2 -2 0 -3 3 -6 6 -6 1 0 2 -1 2
-2 0 -4 3 -6 8 -6 4 0 5 0 8 -4 2 -3 4 -4 6 -4 1 0 2 -1 2 -2 0 -4 3 -6 8 -6
4 0 5 0 8 -4 4 -4 4 -4 6 -3 1 2 2 4 2 7 0 5 2 8 6 8 1 0 2 -1 2 -2 0 -4 3 -6
10 -6 l6 0 0 -4 0 -4 -6 0 c-5 0 -7 0 -8 -2 -4 -3 0 -6 8 -6 6 0 6 0 6 -2 0
-4 3 -6 8 -6 6 0 16 -10 16 -16 0 -4 1 -5 6 -10 3 -4 7 -6 8 -6 2 0 2 -1 2 -6
0 -7 2 -10 6 -10 2 0 2 0 2 -6 0 -7 0 -7 4 -10 4 -3 4 -4 4 -8 0 -4 0 -5 8
-12 8 -7 8 -8 8 -12 0 -3 1 -5 2 -6 2 -2 2 -2 8 4 l6 6 0 6 c0 6 0 6 2 6 4 0
6 3 6 10 0 5 0 6 2 6 1 0 5 2 8 6 l6 6 0 6 c0 6 0 6 2 6 4 0 6 3 6 10 0 6 0 6
2 6 4 0 6 3 6 8 0 6 10 16 16 16 5 0 8 2 8 6 0 2 0 2 10 2 l11 0 3 4 c3 4 4 4
8 4 4 0 5 0 10 6 4 3 6 7 6 8 0 2 1 2 6 2 l6 0 6 6 c4 3 6 7 6 8 0 1 1 2 2 2
3 0 6 3 6 6 0 1 1 2 2 2 3 0 6 3 6 6 0 1 1 2 2 2 3 0 6 3 6 6 0 1 1 2 2 2 4 0
6 3 6 10 0 6 0 6 2 6 3 0 6 3 6 6 0 1 1 2 2 2 6 0 8 10 4 15 -3 3 -6 -1 -6 -9
0 -6 0 -6 -2 -6 -3 0 -6 -3 -6 -6 0 -1 -1 -2 -2 -2 -4 0 -6 3 -6 10 0 6 0 6 2
6 4 0 6 3 6 10 0 6 0 6 2 6 6 0 8 10 4 15 -3 3 -6 -1 -6 -9 0 -6 0 -6 -2 -6
-4 0 -6 -3 -6 -10 0 -6 0 -6 -2 -6 -4 0 -6 -3 -6 -8 0 -4 0 -5 -4 -8 -3 -2 -4
-4 -4 -6 0 -1 -1 -2 -2 -2 -3 0 -6 -3 -6 -6 0 -1 -1 -2 -2 -2 -3 0 -6 -3 -6
-6 0 -2 -1 -2 -6 -2 l-6 0 -10 -10 c-6 -6 -10 -11 -10 -12 0 -2 -1 -2 -6 -2
-7 0 -10 -2 -10 -6 0 -2 0 -2 -6 -2 -7 0 -10 -2 -10 -6 0 -2 0 -2 -10 -2 -12
0 -14 -1 -14 -6 0 -1 -1 -2 -2 -2 -2 0 -4 -1 -4 -2 -2 -2 -2 -2 0 -4 0 -1 2
-2 4 -2 1 0 2 -1 2 -2 0 -4 -3 -6 -8 -6 -5 0 -8 -2 -8 -6 0 -1 -1 -2 -2 -2 -4
0 -6 -3 -6 -10 0 -6 0 -6 -2 -6 -4 0 -6 -3 -6 -8 0 -4 0 -5 -4 -8 -3 -2 -4 -4
-4 -6 0 -1 -1 -2 -2 -2 -4 0 -6 -3 -6 -10 0 -6 0 -6 -2 -6 -3 0 -6 -3 -6 -6 0
-1 -1 -2 -2 -2 -4 0 -6 3 -6 8 0 4 0 5 4 8 l4 4 -6 6 -6 6 -4 -4 c-6 -7 -8 -6
-8 4 0 8 0 8 2 8 2 0 4 1 5 2 1 2 1 2 -1 4 -2 2 -2 2 -4 1 -1 -1 -2 -3 -2 -5
0 -2 0 -2 -4 -2 l-4 0 0 8 c0 8 0 8 2 8 2 0 4 1 5 2 1 2 1 2 -1 4 -2 2 -2 2
-4 1 -1 -1 -2 -3 -2 -5 0 -1 -1 -2 -2 -2 -4 0 -6 3 -6 10 0 6 0 6 2 6 2 0 4 1
5 2 1 2 1 2 0 4 -1 1 -3 2 -5 2 -1 0 -2 1 -2 2 0 3 -3 6 -6 6 -1 0 -2 1 -2 2
0 5 -3 6 -14 6 -10 0 -10 0 -10 2 0 4 -3 6 -10 6 -6 0 -6 0 -6 2 0 4 -3 6 -10
6 -5 0 -6 0 -6 2 0 1 -2 5 -6 8 l-6 6 -6 0 c-6 0 -6 0 -6 2 0 3 -3 6 -6 6 -1
0 -2 1 -2 2 0 3 -3 6 -6 6 -1 0 -2 1 -2 2 0 3 -3 6 -6 6 -1 0 -2 1 -2 2 0 2
-1 4 -4 6 -4 3 -4 4 -4 8 0 5 -2 8 -6 8 -2 0 -2 0 -2 6 0 7 -2 10 -6 10 -2 0
-2 0 -2 6 0 5 0 7 -2 8 -2 3 -10 3 -12 0z m38 -56 c0 -3 3 -6 6 -6 1 0 2 -1 2
-2 0 -3 3 -6 6 -6 1 0 2 -1 2 -2 0 -3 3 -6 6 -6 3 0 3 -3 0 -6 -2 -3 -14 -3
-14 0 0 3 -3 6 -6 6 -1 0 -2 1 -2 2 0 3 -3 6 -6 6 -2 0 -2 0 -2 6 0 7 2 10 6
10 1 0 2 -1 2 -2z m326 0 c3 -2 3 -6 0 -6 -3 0 -6 -3 -6 -6 0 -1 -1 -2 -2 -2
-3 0 -6 -3 -6 -6 0 -1 -1 -2 -2 -2 -3 0 -6 -3 -6 -6 0 -3 -12 -3 -15 0 -1 2
-1 2 3 6 2 2 4 4 4 6 0 1 1 2 2 2 3 0 6 3 6 6 0 1 1 2 2 2 3 0 6 3 6 6 0 2 0
2 6 2 5 0 7 0 8 -2z m-278 -40 c0 -4 -3 -6 -10 -6 -7 0 -8 2 -4 6 2 3 14 3 14
0z m230 0 c1 -1 2 -2 2 -4 0 -2 0 -2 -6 -2 -7 0 -10 2 -10 6 0 2 0 2 6 2 5 0
7 0 8 -2z m-23 -8 c1 -2 1 -2 0 -4 -1 -1 -3 -2 -5 -2 -1 0 -2 -1 -2 -2 0 -4
-3 -6 -10 -6 l-6 0 0 -4 c0 -5 -3 -6 -6 -2 -2 2 -2 2 0 4 0 1 2 2 4 2 2 0 2 0
2 4 l0 4 8 0 8 0 0 4 c0 5 3 6 7 2z m-168 -16 c1 -2 1 -2 0 -4 -4 -4 -7 -3 -7
2 0 5 3 6 7 2z m17 -2 l0 -4 4 0 4 0 0 -4 c0 -3 0 -4 -2 -4 -3 0 -6 3 -6 6 0
1 -1 2 -2 2 -2 0 -4 1 -4 2 -2 2 -2 2 0 4 3 4 6 3 6 -2z m111 2 c1 -2 1 -2 0
-4 -4 -4 -7 -3 -7 2 0 5 3 6 7 2z m-17 -24 c2 -1 2 -3 2 -8 l0 -6 -4 0 -4 0 0
-8 c0 -8 0 -8 -2 -8 -4 0 -6 3 -6 10 l0 6 4 0 4 0 0 8 c0 8 0 8 2 8 1 0 3 -1
4 -2z m-24 -40 c2 -1 2 -3 2 -8 l0 -6 -4 0 -4 0 0 -8 0 -8 -6 0 c-7 0 -10 2
-10 6 0 1 1 2 2 2 3 0 6 3 6 6 0 2 0 2 4 2 l4 0 0 8 c0 8 0 8 2 8 1 0 3 -1 4
-2z"/><path d="M450 270 c-3 -3 -3 -10 0 -12 3 -3 6 0 6 6 0 7 -3 10 -6 6z"/><path d="M57 246 c-1 -2 -1 -2 1 -4 l2 -2 2 2 c2 2 2 2 1 4 -1 1 -3 2 -3 2 0
0 -2 -1 -3 -2z"/><path d="M246 146 c-6 -6 -6 -6 -4 -8 2 -3 10 -3 12 0 3 2 3 10 0 12 -2 2 -2
3 -8 -4z"/></g>
  <g transform="scale(0.125 0.125) translate(0.000000,512.000000) scale(1.000000,-1.000000)" fill="#f1f1f1" stroke="none"><path d="M209 478 c-1 -2 -1 -2 1 -4 l2 -2 2 2 c2 2 2 2 1 4 -1 1 -3 2 -3 2 0
0 -2 -1 -3 -2z"/><path d="M234 478 c-2 -2 -2 -2 0 -4 1 -2 3 -2 18 -2 15 0 17 0 19 2 1 2 1 2
0 4 -2 2 -4 2 -19 2 -15 0 -17 0 -18 -2z"/><path d="M289 478 c-1 -2 -1 -2 1 -4 l2 -2 2 2 c2 2 2 2 1 4 -1 1 -3 2 -3 2 0
0 -2 -1 -3 -2z"/><path d="M174 466 c-6 -6 -6 -6 -4 -8 2 -3 10 -3 12 0 3 2 3 10 0 12 -2 2 -2
3 -8 -4z"/><path d="M193 470 c-1 -2 -1 -2 1 -4 l2 -2 2 2 c2 2 2 2 1 4 -1 1 -3 2 -3 2 0
0 -2 -1 -3 -2z"/><path d="M305 470 c-1 -2 -1 -2 1 -4 l2 -2 2 2 c2 2 2 2 1 4 -1 1 -3 2 -3 2 0
0 -2 -1 -3 -2z"/><path d="M322 470 c-2 -2 -2 -2 0 -4 0 -1 2 -2 4 -2 1 0 2 -1 2 -2 0 -2 1 -4
2 -5 2 -1 2 -1 4 1 2 2 2 2 1 4 -1 1 -3 2 -5 2 -1 0 -2 1 -2 2 0 2 -3 6 -4 6
0 0 -2 -1 -2 -2z"/><path d="M153 454 c-1 -2 -1 -2 1 -4 l2 -2 2 2 c2 2 2 2 1 4 -1 1 -3 2 -3 2 0
0 -2 -1 -3 -2z"/><path d="M345 454 c-1 -2 -1 -2 1 -4 l2 -2 2 2 c2 2 2 2 1 4 -1 1 -3 2 -3 2 0
0 -2 -1 -3 -2z"/><path d="M138 446 c-1 -1 -2 -3 -2 -4 0 -1 -1 -2 -2 -2 -3 0 -6 -3 -6 -6 0 -2
0 -2 -10 -2 -13 0 -14 -1 -14 -10 0 -6 0 -6 -2 -6 -2 0 -4 -1 -5 -2 -1 -2 -1
-2 1 -4 2 -2 2 -2 4 -1 1 1 2 3 2 5 0 1 1 2 2 2 2 0 4 1 6 4 3 4 4 4 8 4 5 0
8 2 8 6 0 1 1 2 2 2 3 0 6 3 6 6 0 1 1 2 2 2 2 0 4 1 5 2 1 2 1 2 0 4 -3 2 -3
2 -5 0z"/><path d="M362 446 c-2 -2 -2 -2 0 -4 0 -1 2 -2 4 -2 1 0 2 -1 2 -2 0 -2 1 -4
2 -5 2 -1 2 -1 4 1 2 2 2 2 1 4 -1 1 -3 2 -5 2 -1 0 -2 1 -2 2 0 2 -3 6 -4 6
0 0 -2 -1 -2 -2z"/><path d="M166 434 l-6 -6 4 -4 5 -4 -9 -8 c-8 -7 -8 -8 -8 -12 0 -5 -2 -8 -6
-8 -2 0 -2 0 -2 6 0 8 -3 12 -6 9 -5 -5 -2 -15 4 -15 2 0 2 0 2 -12 0 -12 0
-12 -2 -12 -6 0 -8 -10 -4 -14 3 -4 6 0 6 8 0 6 0 6 2 6 5 0 6 -3 6 -14 0 -10
0 -10 -2 -10 -2 0 -4 -1 -5 -2 -1 -2 -1 -2 1 -4 2 -2 2 -2 4 -1 1 1 2 3 2 5 0
2 0 2 4 2 l4 0 0 -8 c0 -8 0 -8 -2 -8 -2 0 -4 -1 -4 -2 -2 -2 -2 -2 0 -4 0 -1
2 -2 4 -2 2 0 2 0 2 -6 0 -7 2 -10 6 -10 1 0 2 -1 2 -2 0 -2 1 -4 2 -4 2 -2 2
-2 4 0 1 0 2 2 2 4 0 2 0 2 4 2 4 0 4 0 4 -2 0 -2 1 -4 4 -6 5 -4 6 -8 2 -8
-2 0 -4 -1 -4 -2 -2 -2 -2 -2 0 -4 0 -1 2 -2 4 -2 1 0 2 -1 2 -2 0 -4 3 -6 8
-6 5 0 8 -2 8 -6 0 -1 -1 -2 -2 -2 -2 0 -4 -1 -4 -2 -2 -2 -2 -2 0 -4 0 -1 2
-2 4 -2 1 0 2 -1 2 -2 0 -2 1 -4 2 -4 2 -2 2 -2 4 0 1 0 2 2 2 4 0 4 4 3 8 -2
3 -4 3 -4 10 -4 6 0 6 0 6 -2 0 -2 -1 -4 -4 -6 -3 -2 -4 -4 -4 -6 0 -1 -1 -2
-2 -2 -4 0 -6 -3 -6 -8 0 -5 2 -8 6 -8 1 0 2 -1 2 -2 0 -2 1 -4 2 -4 2 -2 2
-2 4 0 1 0 2 2 2 4 0 1 1 2 2 2 4 0 6 -3 6 -10 0 -6 0 -6 -2 -6 -5 0 -6 -3 -6
-12 0 -11 1 -12 12 -12 10 0 12 1 12 8 0 3 -1 5 -2 7 -2 1 -2 1 -6 -3 -4 -4
-4 -4 -6 -3 -2 2 -2 3 -2 9 0 6 0 6 2 6 2 0 4 1 6 4 3 4 4 4 8 4 5 0 8 2 8 6
0 1 1 2 2 2 2 0 4 1 5 2 1 2 1 2 -1 4 -2 2 -2 2 -4 1 -1 -1 -2 -3 -2 -5 0 -4
-4 -2 -10 4 -8 8 -8 10 0 10 7 0 7 0 10 4 4 5 8 6 8 2 0 -2 1 -4 2 -5 2 -1 2
-1 4 1 2 2 2 2 1 4 -1 1 -3 2 -5 2 -2 0 -2 0 -2 4 0 4 0 4 2 4 4 0 6 3 6 8 0
3 1 5 2 7 2 1 2 1 6 -3 4 -4 4 -4 6 -3 2 2 2 3 2 15 l0 12 6 6 c6 6 10 8 10 4
0 -2 1 -4 2 -4 2 -2 2 -2 4 0 1 0 2 2 2 4 0 1 1 2 2 2 1 0 5 3 8 6 6 6 6 6 4
8 -1 1 -3 2 -6 2 -3 0 -5 1 -6 2 -2 2 -2 2 4 8 6 6 10 8 10 4 0 -2 1 -4 2 -4
2 -2 2 -2 4 -1 1 1 2 3 2 5 0 1 1 2 2 2 2 0 4 1 5 2 1 2 1 2 0 4 -1 1 -3 2 -5
2 -2 0 -2 0 -2 10 0 12 1 14 6 14 2 0 2 0 2 -6 0 -8 3 -12 6 -8 5 4 2 14 -4
14 -2 0 -2 0 -2 20 l0 20 2 0 c6 0 8 10 4 15 -3 3 -6 -1 -6 -9 0 -6 0 -6 -2
-6 -4 0 -6 3 -6 8 0 4 -1 5 -6 10 l-6 6 -8 0 c-9 0 -12 1 -12 6 0 2 0 2 6 2 8
0 12 3 9 6 -5 5 -15 2 -15 -4 0 -2 0 -2 -8 -2 -8 0 -8 0 -8 2 0 6 -10 8 -14 4
-4 -3 0 -6 8 -6 6 0 6 0 6 -2 0 -5 -3 -6 -12 -6 l-8 0 -4 4 -4 4 -6 -6 -6 -6
0 -14 c0 -14 0 -14 -2 -14 -2 0 -4 -2 -6 -4 -4 -4 -4 -4 -6 -3 -2 2 -2 3 -2
15 0 14 -1 16 -6 16 -1 0 -2 1 -2 2 0 3 -3 6 -6 6 -1 0 -2 1 -2 2 0 3 -3 6 -6
6 -1 0 -2 1 -2 2 0 4 -3 6 -8 6 -5 0 -8 -2 -8 -6 0 -2 0 -2 -12 -2 -12 0 -12
0 -12 2 0 4 -3 6 -8 6 -4 0 -5 -1 -10 -6z m18 -4 c0 -2 -1 -4 -2 -5 -2 -1 -2
-1 -4 1 -2 2 -2 2 -1 4 3 3 7 3 7 0z m40 -2 l0 -4 4 0 4 0 0 -4 0 -4 4 0 c3 0
4 0 4 -2 0 -3 -3 -6 -6 -6 -2 0 -2 0 -2 -10 l0 -10 8 -8 c8 -7 8 -8 8 -12 0
-3 1 -5 2 -6 2 -2 2 -2 12 8 l10 10 -4 4 c-6 5 -6 8 2 8 8 0 10 2 10 8 0 7 2
8 12 8 l9 0 3 4 c3 4 4 4 8 4 4 0 5 0 8 -4 3 -4 4 -4 8 -4 4 0 4 0 14 -10 l10
-10 -4 -4 -4 -3 0 -13 0 -13 -4 -3 c-4 -3 -4 -4 -4 -8 0 -4 0 -5 -8 -12 -8 -7
-8 -8 -8 -12 0 -4 0 -4 -16 -20 l-16 -16 4 -4 c4 -4 4 -4 3 -6 -2 -1 -4 -2 -7
-2 -4 0 -5 0 -10 -6 -6 -6 -8 -10 -4 -10 3 0 6 -3 6 -6 0 -1 -1 -2 -2 -2 -3 0
-6 3 -6 6 0 1 -1 2 -2 2 -4 0 -6 -3 -6 -8 0 -4 0 -5 -4 -8 -3 -2 -4 -4 -4 -6
0 -1 -1 -2 -2 -2 -4 0 -6 3 -6 8 0 5 -2 8 -6 8 -1 0 -2 1 -2 2 0 2 -1 4 -4 6
-4 3 -4 4 -4 8 0 5 -2 8 -6 8 -1 0 -2 -1 -2 -2 0 -3 -3 -6 -6 -6 -2 0 -2 0 -2
-4 l0 -4 -4 0 -4 0 0 4 0 4 4 0 c3 0 4 0 4 2 0 3 3 6 6 6 5 0 2 4 -12 18 l-14
14 -6 0 c-8 0 -8 3 -2 8 l4 4 -6 6 -6 6 -6 0 -6 0 0 -4 c0 -3 0 -4 2 -4 4 0 6
-3 6 -10 l0 -6 -4 0 -4 0 0 8 0 8 -4 0 -4 0 0 4 0 4 4 0 c3 0 4 0 4 2 0 2 2 4
4 6 4 4 4 4 3 6 -2 2 -3 2 -9 2 -8 0 -8 2 -2 8 l5 4 -5 4 c-4 3 -4 4 -4 8 0 4
0 5 -4 8 l-4 4 14 14 c14 14 14 14 18 14 4 0 5 0 8 4 3 4 4 4 8 4 4 0 5 0 8
-4 l3 -4 11 0 10 0 0 4 c0 3 0 4 -2 4 -3 0 -6 3 -6 6 0 2 0 2 -6 2 -7 0 -10 2
-10 6 0 2 0 2 8 2 l8 0 0 -4z m128 -96 l0 -4 -4 0 c-3 0 -4 0 -4 2 0 3 3 6 6
6 2 0 2 0 2 -4z m-26 -30 c1 -1 2 -2 2 -4 0 -2 0 -2 -4 -2 -5 0 -6 3 -2 6 2 2
2 2 4 0z m-127 -16 c1 -2 1 -2 0 -4 -4 -4 -7 -3 -7 2 0 5 3 6 7 2z m39 -56 c2
-1 2 -3 2 -8 l0 -6 -4 0 -4 0 0 8 c0 8 0 8 2 8 1 0 3 -1 4 -2z"/><path d="M386 430 c-2 -2 -2 -2 8 -12 10 -10 10 -10 12 -8 1 1 2 3 2 6 0 4 0
5 -6 10 -5 6 -6 6 -10 6 -3 0 -5 -1 -6 -2z"/><path d="M90 398 c-1 -1 -2 -3 -2 -4 0 -2 0 -2 -6 -2 -8 0 -12 -3 -8 -6 4 -5
14 -2 14 4 0 1 1 2 2 2 2 0 4 1 5 2 1 2 1 2 0 4 -3 2 -3 2 -5 0z"/><path d="M410 398 c-2 -2 -2 -2 0 -4 0 -1 2 -2 4 -2 1 0 2 -1 2 -2 0 -2 1 -4
2 -5 2 -1 2 -1 4 1 2 2 2 2 1 4 -1 1 -3 2 -5 2 -1 0 -2 1 -2 2 0 2 -3 6 -4 6
0 0 -2 -1 -2 -2z"/><path d="M425 374 c-1 -2 -1 -2 1 -4 l2 -2 2 2 c2 2 2 2 1 4 -1 1 -3 2 -3 2 0
0 -2 -1 -3 -2z"/><path d="M65 358 c-1 -2 -1 -2 1 -4 l2 -2 2 2 c2 2 2 2 1 4 -1 1 -3 2 -3 2 0
0 -2 -1 -3 -2z"/><path d="M434 358 c-3 -3 0 -6 6 -6 6 0 9 3 7 6 -2 1 -4 2 -7 2 -3 0 -5 -1 -6
-2z"/><path d="M58 326 c-3 -3 -3 -34 0 -36 2 -2 2 -2 4 0 3 2 3 34 0 36 -2 2 -2 2
-4 0z"/><path d="M442 326 c-3 -3 -3 -26 0 -29 2 -1 2 -1 6 3 4 4 4 4 6 3 1 -2 2 -4 2
-7 0 -6 3 -9 6 -6 2 1 2 3 2 18 0 15 0 17 -2 19 -3 2 -6 -1 -6 -7 0 -6 -3 -9
-6 -6 -1 1 -2 3 -2 6 0 7 -3 10 -6 6z"/><path d="M313 278 c-1 -2 -1 -2 1 -4 l2 -2 2 2 c2 2 2 2 1 4 -1 1 -3 2 -3 2 0
0 -2 -1 -3 -2z"/><path d="M58 270 c-2 -2 -2 -2 4 -8 3 -3 7 -6 8 -6 2 0 2 -1 2 -6 0 -7 2 -10
6 -10 2 0 2 0 2 -10 0 -13 1 -14 10 -14 6 0 6 0 6 -2 0 -3 3 -6 6 -6 1 0 2 -1
2 -2 0 -3 3 -6 6 -6 1 0 2 -1 2 -2 0 -3 3 -6 6 -6 2 0 2 0 2 -6 0 -9 1 -10 14
-10 l10 0 0 -6 c0 -6 0 -7 2 -9 2 -1 2 -1 6 3 4 5 8 6 8 2 0 -4 3 -6 10 -6 5
0 6 0 6 -2 0 -1 2 -5 6 -8 3 -4 7 -6 8 -6 1 0 2 -1 2 -2 0 -3 3 -6 6 -6 2 0 2
0 2 -10 l0 -10 6 -6 c3 -4 7 -6 8 -6 2 0 2 -1 2 -6 0 -7 2 -10 6 -10 2 0 2 0
2 -6 0 -7 0 -7 4 -10 4 -3 4 -4 4 -8 0 -4 0 -5 8 -12 8 -7 8 -8 8 -12 0 -3 1
-5 2 -6 2 -2 2 -2 8 4 l6 6 0 6 c0 6 0 6 2 6 4 0 6 3 6 10 0 5 0 6 2 6 1 0 5
2 8 6 l6 6 0 6 c0 6 0 6 2 6 4 0 6 3 6 10 0 6 0 6 2 6 4 0 6 3 6 8 0 4 0 5 8
12 8 7 8 8 8 12 0 4 0 5 4 8 3 2 4 4 4 6 0 2 0 2 6 2 7 0 10 2 10 6 0 4 4 3 8
-2 4 -4 4 -4 6 -3 2 2 2 3 2 9 l0 6 10 0 c13 0 14 1 14 8 0 4 0 5 4 8 3 2 4 4
4 6 0 1 1 2 2 2 3 0 6 3 6 6 0 1 1 2 2 2 3 0 6 3 6 6 0 2 0 2 6 2 9 0 10 1 10
14 0 10 0 10 2 10 4 0 6 3 6 10 0 6 0 6 2 6 6 0 8 10 4 15 -3 3 -6 -1 -6 -9 0
-6 0 -6 -2 -6 -4 0 -6 -3 -6 -10 0 -6 0 -6 -2 -6 -4 0 -6 -3 -6 -8 0 -4 0 -5
-4 -8 -3 -2 -4 -4 -4 -6 0 -1 -1 -2 -2 -2 -3 0 -6 -3 -6 -6 0 -1 -1 -2 -2 -2
-3 0 -6 -3 -6 -6 0 -2 -1 -2 -6 -2 l-6 0 -10 -10 c-6 -6 -10 -11 -10 -12 0 -2
-1 -2 -6 -2 -7 0 -10 -2 -10 -6 0 -2 0 -2 -6 -2 -7 0 -10 -2 -10 -6 0 -2 0 -2
-10 -2 -12 0 -14 -1 -14 -6 0 -1 -1 -2 -2 -2 -2 0 -4 -1 -4 -2 -2 -2 -2 -2 0
-4 0 -1 2 -2 4 -2 1 0 2 -1 2 -2 0 -4 -3 -6 -8 -6 -5 0 -8 -2 -8 -6 0 -1 -1
-2 -2 -2 -4 0 -6 -3 -6 -10 0 -6 0 -6 -2 -6 -4 0 -6 -3 -6 -8 0 -4 0 -5 -4 -8
-3 -2 -4 -4 -4 -6 0 -1 -1 -2 -2 -2 -4 0 -6 -3 -6 -10 0 -6 0 -6 -2 -6 -3 0
-6 -3 -6 -6 0 -1 -1 -2 -2 -2 -4 0 -6 3 -6 8 0 4 0 5 4 8 l4 4 -6 6 -6 6 -4
-4 c-6 -7 -8 -6 -8 4 0 8 0 8 2 8 2 0 4 1 5 2 1 2 1 2 -1 4 -2 2 -2 2 -4 1 -1
-1 -2 -3 -2 -5 0 -2 0 -2 -4 -2 l-4 0 0 8 c0 8 0 8 2 8 2 0 4 1 5 2 1 2 1 2
-1 4 -2 2 -2 2 -4 1 -1 -1 -2 -3 -2 -5 0 -1 -1 -2 -2 -2 -4 0 -6 3 -6 10 0 6
0 6 2 6 2 0 4 1 5 2 1 2 1 2 0 4 -1 1 -3 2 -5 2 -1 0 -2 1 -2 2 0 3 -3 6 -6 6
-1 0 -2 1 -2 2 0 5 -3 6 -14 6 -10 0 -10 0 -10 2 0 4 -3 6 -10 6 -6 0 -6 0 -6
2 0 4 -3 6 -10 6 -5 0 -6 0 -6 2 0 1 -2 5 -6 8 l-6 6 -6 0 c-6 0 -6 0 -6 2 0
3 -3 6 -6 6 -1 0 -2 1 -2 2 0 3 -3 6 -6 6 -1 0 -2 1 -2 2 0 3 -3 6 -6 6 -1 0
-2 1 -2 2 0 2 -1 4 -4 6 -4 3 -4 4 -4 8 0 5 -2 8 -6 8 -2 0 -2 0 -2 6 0 7 -2
10 -6 10 -2 0 -2 0 -2 6 0 8 -2 10 -8 10 -3 0 -5 -1 -6 -2z m142 -122 l0 -4 4
0 4 0 0 -4 0 -4 -4 0 -4 0 0 4 0 4 -4 0 c-3 0 -4 0 -4 2 0 3 3 6 6 6 2 0 2 0
2 -4z m111 2 c1 -2 1 -2 0 -4 -4 -4 -7 -3 -7 2 0 5 3 6 7 2z m-17 -24 c2 -1 2
-3 2 -8 l0 -6 -4 0 -4 0 0 -8 c0 -8 0 -8 -2 -8 -4 0 -6 3 -6 10 l0 6 4 0 4 0
0 8 c0 8 0 8 2 8 1 0 3 -1 4 -2z m-24 -40 c2 -1 2 -3 2 -8 l0 -6 -4 0 -4 0 0
-8 0 -8 -6 0 c-7 0 -10 2 -10 6 0 1 1 2 2 2 3 0 6 3 6 6 0 2 0 2 4 2 l4 0 0 8
c0 8 0 8 2 8 1 0 3 -1 4 -2z"/><path d="M246 146 c-6 -6 -6 -6 -4 -8 2 -3 10 -3 12 0 3 2 3 10 0 12 -2 2 -2
3 -8 -4z"/></g>
  <g transform="scale(0.125 0.125) translate(0.000000,512.000000) scale(1.000000,-1.000000)" fill="#000000" stroke="none"><path d="M209 478 c-1 -2 -1 -2 1 -4 l2 -2 2 2 c2 2 2 2 1 4 -1 1 -3 2 -3 2 0
0 -2 -1 -3 -2z"/><path d="M242 478 c-3 -3 0 -6 6 -6 3 0 5 1 7 2 2 3 -1 6 -7 6 -3 0 -5 -1 -6
-2z"/><path d="M289 478 c-1 -2 -1 -2 1 -4 l2 -2 2 2 c2 2 2 2 1 4 -1 1 -3 2 -3 2 0
0 -2 -1 -3 -2z"/><path d="M178 470 c-3 -3 -3 -10 0 -12 3 -3 6 0 6 6 0 7 -3 10 -6 6z"/><path d="M321 470 c-1 -2 -1 -2 1 -4 l2 -2 2 2 c2 2 2 2 1 4 -1 1 -3 2 -3 2 0
0 -2 -1 -3 -2z"/><path d="M130 438 c-1 -1 -2 -3 -2 -4 0 -1 -1 -2 -2 -2 -2 0 -4 -1 -5 -2 -1
-2 -1 -2 1 -4 2 -2 2 -2 4 -1 1 1 2 3 2 5 0 1 1 2 2 2 2 0 4 1 5 2 1 2 1 2 0
4 -3 2 -3 2 -5 0z"/><path d="M170 438 c-2 -1 -2 -4 -2 -10 l0 -8 -8 -8 c-8 -7 -8 -8 -8 -12 0 -4
0 -5 -4 -8 l-4 -3 0 -9 0 -9 4 -3 4 -3 0 -9 c0 -9 1 -12 6 -12 2 0 2 0 2 -8 0
-8 0 -8 -2 -8 -2 0 -4 -1 -5 -2 -1 -2 -1 -2 1 -4 2 -2 2 -2 4 -1 1 1 2 3 2 5
0 2 0 2 4 2 4 0 4 0 4 -2 0 -2 1 -4 4 -6 4 -3 4 -3 4 -10 l0 -6 -4 0 c-4 0 -4
0 -4 2 0 2 -1 4 -2 5 -2 1 -2 1 -4 -1 -2 -2 -2 -2 -1 -4 1 -1 3 -2 5 -2 1 0 2
-1 2 -2 0 -2 1 -4 2 -4 2 -2 2 -2 4 0 1 0 2 2 2 4 0 2 0 2 4 2 3 0 4 0 4 -2 0
-2 3 -5 8 -10 8 -7 8 -8 8 -12 0 -4 0 -5 4 -8 5 -4 6 -8 2 -8 -2 0 -4 -1 -5
-2 -1 -2 -1 -2 1 -4 2 -2 2 -2 4 -1 1 1 2 3 2 5 0 2 0 2 4 2 3 0 4 0 4 -2 0
-1 2 -5 6 -8 l6 -6 6 0 c8 0 8 -3 2 -8 l-4 -4 4 -4 c4 -3 4 -4 4 -10 l0 -6 -4
0 c-4 0 -4 0 -4 2 0 2 -1 4 -2 5 -2 1 -2 1 -4 -1 -2 -2 -2 -2 -1 -4 1 -1 3 -2
5 -2 1 0 2 -1 2 -2 0 -2 1 -4 2 -4 2 -2 2 -2 4 0 1 0 2 2 2 4 0 1 1 2 2 2 4 0
6 -3 6 -8 0 -3 1 -5 2 -6 2 -2 2 -2 8 4 6 5 6 6 6 10 0 4 0 5 -4 8 -3 2 -4 4
-4 6 0 2 0 2 6 2 7 0 7 0 10 4 4 5 8 6 8 2 0 -2 1 -4 2 -5 2 -1 2 -1 4 1 2 2
2 2 1 4 -1 1 -3 2 -5 2 -2 0 -2 0 -2 4 0 4 0 4 2 4 4 0 6 3 6 8 0 6 2 8 8 8 7
0 8 2 8 12 l0 8 10 10 c10 10 10 10 14 10 3 0 5 1 7 2 1 2 1 2 -3 6 l-4 4 10
10 c10 10 14 12 14 8 0 -2 1 -4 2 -5 2 -1 2 -1 4 1 2 2 2 2 1 4 -1 1 -3 2 -5
2 -2 0 -2 0 -2 10 l0 11 4 3 4 3 0 17 0 17 -4 3 c-4 3 -4 4 -4 8 0 4 0 5 -6
10 l-6 6 -8 0 -9 0 -3 4 c-3 4 -4 4 -8 4 -4 0 -5 0 -8 -4 l-3 -4 -9 0 -8 0 -4
4 -4 4 -6 -6 -6 -6 0 -14 c0 -14 0 -14 -2 -14 -2 0 -4 -2 -6 -4 -4 -4 -4 -4
-6 -3 -2 2 -2 3 -2 11 0 11 -1 12 -10 12 -5 0 -6 0 -6 2 0 1 -2 5 -6 8 -5 6
-6 6 -10 6 -4 0 -5 0 -8 4 l-3 4 -9 0 -8 0 -4 -4 c-4 -4 -4 -4 -6 -3 -1 2 -2
4 -2 7 0 7 -3 10 -6 6z m38 -26 l3 -4 11 0 10 0 0 -10 0 -10 8 -8 c8 -7 8 -8
8 -12 0 -3 1 -5 2 -6 2 -2 2 -2 12 8 l10 10 -4 4 c-6 5 -6 8 2 8 8 0 10 2 10
8 0 7 2 8 12 8 l9 0 3 4 c3 4 4 4 8 4 4 0 5 0 8 -4 3 -4 4 -4 8 -4 4 0 4 0 14
-10 l10 -10 -4 -4 -4 -3 0 -13 0 -13 -4 -3 c-4 -3 -4 -4 -4 -8 0 -4 0 -5 -8
-12 -8 -7 -8 -8 -8 -12 0 -4 0 -4 -16 -20 l-16 -16 4 -4 c4 -4 4 -4 3 -6 -2
-1 -4 -2 -7 -2 -4 0 -5 0 -10 -6 -6 -6 -8 -10 -4 -10 3 0 6 -3 6 -6 0 -1 -1
-2 -2 -2 -3 0 -6 3 -6 6 0 1 -1 2 -2 2 -4 0 -6 -3 -6 -8 0 -4 0 -5 -4 -8 -3
-2 -4 -4 -4 -6 0 -1 -1 -2 -2 -2 -4 0 -6 3 -6 8 0 5 -2 8 -6 8 -1 0 -2 1 -2 2
0 2 -1 4 -4 6 -4 3 -4 4 -4 8 0 5 -2 8 -6 8 -1 0 -2 -1 -2 -2 0 -3 -3 -6 -6
-6 -1 0 -2 1 -2 2 0 3 3 6 6 6 5 0 2 4 -12 18 l-14 14 -6 0 c-8 0 -8 3 -2 8
l4 4 -6 6 -6 6 -6 0 c-8 0 -8 3 -2 8 4 4 4 4 3 6 -2 2 -3 2 -9 2 -8 0 -8 2 -2
8 l5 4 -5 4 c-4 3 -4 4 -4 8 0 4 0 5 -4 8 l-4 4 14 14 c14 14 14 14 18 14 4 0
5 0 8 4 3 4 4 4 8 4 4 0 5 0 8 -4z"/><path d="M217 438 c-1 -2 -1 -2 1 -4 l2 -2 2 2 c2 2 2 2 1 4 -1 1 -3 2 -3 2 0
0 -2 -1 -3 -2z"/><path d="M105 430 c-1 -2 -1 -2 1 -4 l2 -2 2 2 c2 2 2 2 1 4 -1 1 -3 2 -3 2 0
0 -2 -1 -3 -2z"/><path d="M394 430 c-2 -2 -2 -2 0 -4 0 -1 2 -2 4 -2 1 0 2 -1 2 -2 0 -2 1 -4
2 -5 2 -1 2 -1 4 1 2 2 2 2 1 4 -1 1 -3 2 -5 2 -1 0 -2 1 -2 2 0 2 -3 6 -4 6
0 0 -2 -1 -2 -2z"/><path d="M361 414 c-1 -2 -1 -2 1 -4 l2 -2 2 2 c2 2 2 2 1 4 -1 1 -3 2 -3 2 0
0 -2 -1 -3 -2z"/><path d="M137 406 c-1 -2 -1 -2 1 -4 l2 -2 2 2 c2 2 2 2 1 4 -1 1 -3 2 -3 2 0
0 -2 -1 -3 -2z"/><path d="M89 398 c-1 -2 -1 -2 1 -4 l2 -2 2 2 c2 2 2 2 1 4 -1 1 -3 2 -3 2 0
0 -2 -1 -3 -2z"/><path d="M409 398 c-1 -2 -1 -2 1 -4 l2 -2 2 2 c2 2 2 2 1 4 -1 1 -3 2 -3 2 0
0 -2 -1 -3 -2z"/><path d="M73 390 c-1 -2 -1 -2 1 -4 l2 -2 2 2 c2 2 2 2 1 4 -1 1 -3 2 -3 2 0
0 -2 -1 -3 -2z"/><path d="M425 374 c-1 -2 -1 -2 1 -4 l2 -2 2 2 c2 2 2 2 1 4 -1 1 -3 2 -3 2 0
0 -2 -1 -3 -2z"/><path d="M137 358 c-1 -2 -1 -2 1 -4 l2 -2 2 2 c2 2 2 2 1 4 -1 1 -3 2 -3 2 0
0 -2 -1 -3 -2z"/><path d="M441 358 c-1 -2 -1 -2 1 -4 l2 -2 2 2 c2 2 2 2 1 4 -1 1 -3 2 -3 2 0
0 -2 -1 -3 -2z"/><path d="M361 350 c-1 -2 -1 -2 1 -4 l2 -2 2 2 c2 2 2 2 1 4 -1 1 -3 2 -3 2 0
0 -2 -1 -3 -2z"/><path d="M458 326 c-1 -1 -2 -3 -2 -6 0 -4 0 -5 -4 -8 l-4 -4 4 -4 c4 -3 4 -4
4 -8 0 -6 3 -9 6 -6 3 2 3 34 0 36 -2 2 -2 2 -4 0z"/><path d="M57 310 c-1 -2 -1 -2 1 -4 l2 -2 2 2 c2 2 2 2 1 4 -1 1 -3 2 -3 2 0
0 -2 -1 -3 -2z"/><path d="M313 278 c-1 -2 -1 -2 1 -4 l2 -2 2 2 c2 2 2 2 1 4 -1 1 -3 2 -3 2 0
0 -2 -1 -3 -2z"/><path d="M58 270 c-3 -3 0 -6 6 -6 3 0 5 1 7 2 2 3 -1 6 -7 6 -3 0 -5 -1 -6
-2z"/><path d="M433 270 c-1 -2 -1 -2 1 -4 l2 -2 2 2 c2 2 2 2 1 4 -1 1 -3 2 -3 2 0
0 -2 -1 -3 -2z"/><path d="M73 254 c-1 -2 -1 -2 1 -4 l2 -2 2 2 c2 2 2 2 1 4 -1 1 -3 2 -3 2 0
0 -2 -1 -3 -2z"/><path d="M425 254 c-1 -2 -1 -2 1 -4 l2 -2 2 2 c2 2 2 2 1 4 -1 1 -3 2 -3 2 0
0 -2 -1 -3 -2z"/><path d="M81 238 c-1 -2 -1 -2 1 -4 l2 -2 2 2 c2 2 2 2 1 4 -1 1 -3 2 -3 2 0
0 -2 -1 -3 -2z"/><path d="M417 238 c-1 -2 -1 -2 1 -4 l2 -2 2 2 c2 2 2 2 1 4 -1 1 -3 2 -3 2 0
0 -2 -1 -3 -2z"/><path d="M81 222 c-1 -2 -1 -2 1 -4 l2 -2 2 2 c2 2 2 2 1 4 -1 1 -3 2 -3 2 0
0 -2 -1 -3 -2z"/><path d="M273 222 c-1 -2 -1 -2 1 -4 l2 -2 2 2 c2 2 2 2 1 4 -1 1 -3 2 -3 2 0
0 -2 -1 -3 -2z"/><path d="M417 222 c-1 -2 -1 -2 1 -4 l2 -2 2 2 c2 2 2 2 1 4 -1 1 -3 2 -3 2 0
0 -2 -1 -3 -2z"/><path d="M378 198 c-1 -1 -2 -3 -2 -4 0 -1 -1 -2 -2 -2 -2 0 -4 -1 -4 -2 -2
-2 -2 -2 0 -4 0 -1 2 -2 4 -2 1 0 2 -1 2 -2 0 -2 1 -4 2 -5 2 -1 2 -1 4 1 2 2
2 2 1 4 -1 1 -3 2 -5 2 -2 0 -2 0 -2 4 0 4 0 4 2 4 2 0 4 1 5 2 1 2 1 2 0 4
-3 2 -3 2 -5 0z"/><path d="M130 190 c-1 -1 -2 -3 -2 -4 0 -1 -1 -2 -2 -2 -2 0 -4 -1 -5 -2 -1
-2 -1 -2 1 -4 2 -2 2 -2 4 -1 1 1 2 3 2 5 0 1 1 2 2 2 2 0 4 1 5 2 1 2 1 2 0
4 -3 2 -3 2 -5 0z"/><path d="M242 190 c-3 -3 -3 -10 0 -12 3 -3 6 0 6 6 0 7 -3 10 -6 6z"/><path d="M257 182 c-1 -2 -1 -2 1 -4 l2 -2 2 2 c2 2 2 2 1 4 -1 1 -3 2 -3 2 0
0 -2 -1 -3 -2z"/><path d="M154 174 c-1 -1 -2 -3 -2 -4 0 -1 -1 -2 -2 -2 -2 0 -4 -1 -5 -2 -1
-2 -1 -2 1 -4 2 -2 2 -2 4 -1 1 1 2 3 2 5 0 1 1 2 2 2 2 0 4 1 5 2 1 2 1 2 0
4 -3 2 -3 2 -5 0z"/><path d="M346 174 c-2 -2 -2 -2 0 -4 0 -1 2 -2 4 -2 1 0 2 -1 2 -2 0 -2 1 -4
2 -5 2 -1 2 -1 4 1 2 2 2 2 1 4 -1 1 -3 2 -5 2 -1 0 -2 1 -2 2 0 2 -3 6 -4 6
0 0 -2 -1 -2 -2z"/><path d="M169 166 c-1 -2 -1 -2 1 -4 l2 -2 2 2 c2 2 2 2 1 4 -1 1 -3 2 -3 2 0
0 -2 -1 -3 -2z"/><path d="M329 166 c-1 -2 -1 -2 1 -4 l2 -2 2 2 c2 2 2 2 1 4 -1 1 -3 2 -3 2 0
0 -2 -1 -3 -2z"/><path d="M194 158 c-1 -1 -2 -3 -2 -4 0 -1 -1 -2 -2 -2 -2 0 -4 -1 -4 -2 -2
-2 -2 -2 0 -4 0 -1 2 -2 4 -2 1 0 2 -1 2 -2 0 -3 3 -6 6 -6 2 0 2 0 2 -10 l0
-10 6 -6 c3 -4 7 -6 8 -6 2 0 2 -1 2 -6 0 -7 2 -10 6 -10 2 0 2 0 2 -6 0 -7 0
-7 4 -10 4 -3 4 -4 4 -8 0 -4 0 -5 8 -12 8 -7 8 -8 8 -12 0 -3 1 -5 2 -6 2 -2
2 -2 8 4 l6 6 0 6 c0 6 0 6 2 6 4 0 6 3 6 10 0 5 0 6 2 6 1 0 5 2 8 6 l6 6 0
6 c0 6 0 6 2 6 4 0 6 3 6 10 0 6 0 6 2 6 4 0 6 3 6 8 0 4 0 5 8 12 8 7 8 8 8
12 0 5 -2 8 -6 8 -1 0 -2 1 -2 2 0 2 -1 4 -2 5 -2 1 -2 1 -4 -1 -2 -2 -2 -2
-1 -4 1 -1 3 -2 5 -2 4 0 2 -4 -4 -10 -5 -6 -6 -6 -10 -6 -5 0 -8 -2 -8 -6 0
-1 -1 -2 -2 -2 -2 0 -4 -1 -5 -2 -1 -2 -1 -2 1 -4 2 -2 2 -2 4 -1 1 1 2 3 2 5
0 1 1 2 2 2 4 0 6 -3 6 -10 0 -6 0 -6 -2 -6 -4 0 -6 -3 -6 -10 l0 -6 -6 0 c-9
0 -10 -1 -10 -14 0 -10 0 -10 -2 -10 -4 0 -6 -3 -6 -10 l0 -6 -6 0 -6 0 -6 6
c-5 5 -6 6 -6 10 0 4 0 5 4 8 4 4 4 4 3 6 -2 2 -3 2 -13 2 l-10 0 0 6 c0 7 -2
10 -6 10 -2 0 -2 0 -2 8 0 8 0 8 2 8 2 0 4 1 5 2 1 2 1 2 -1 4 -2 2 -2 2 -4 1
-1 -1 -2 -3 -2 -5 0 -1 -1 -2 -2 -2 -4 0 -6 3 -6 8 0 5 -2 8 -6 8 -1 0 -2 1
-2 2 0 3 -3 6 -6 6 -2 0 -2 1 -2 4 0 4 0 4 2 4 2 0 4 1 5 2 1 2 1 2 0 4 -3 2
-3 2 -5 0z"/><path d="M246 146 c-6 -6 -6 -6 -4 -8 2 -3 10 -3 12 0 3 2 3 10 0 12 -2 2 -2
3 -8 -4z"/><path d="M273 110 c-1 -2 -1 -2 1 -4 l2 -2 2 2 c2 2 2 2 1 4 -1 1 -3 2 -3 2 0
0 -2 -1 -3 -2z"/><path d="M257 86 c-1 -2 -1 -2 1 -4 l2 -2 2 2 c2 2 2 2 1 4 -1 1 -3 2 -3 2 0
0 -2 -1 -3 -2z"/></g>
  <g transform="scale(0.125 0.125) translate(0.000000,512.000000) scale(1.000000,-1.000000)" fill="#0a0809" stroke="none"><path d="M209 478 c-1 -2 -1 -2 1 -4 l2 -2 2 2 c2 2 2 2 1 4 -1 1 -3 2 -3 2 0
0 -2 -1 -3 -2z"/><path d="M242 478 c-3 -3 0 -6 6 -6 3 0 5 1 7 2 2 3 -1 6 -7 6 -3 0 -5 -1 -6
-2z"/><path d="M289 478 c-1 -2 -1 -2 1 -4 l2 -2 2 2 c2 2 2 2 1 4 -1 1 -3 2 -3 2 0
0 -2 -1 -3 -2z"/><path d="M178 470 c-3 -3 -3 -10 0 -12 3 -3 6 0 6 6 0 7 -3 10 -6 6z"/><path d="M321 470 c-1 -2 -1 -2 1 -4 l2 -2 2 2 c2 2 2 2 1 4 -1 1 -3 2 -3 2 0
0 -2 -1 -3 -2z"/><path d="M130 438 c-1 -1 -2 -3 -2 -4 0 -1 -1 -2 -2 -2 -2 0 -4 -1 -5 -2 -1
-2 -1 -2 1 -4 2 -2 2 -2 4 -1 1 1 2 3 2 5 0 1 1 2 2 2 2 0 4 1 5 2 1 2 1 2 0
4 -3 2 -3 2 -5 0z"/><path d="M170 438 c-3 -3 -3 -10 0 -12 3 -3 6 0 6 6 0 7 -3 10 -6 6z"/><path d="M217 438 c-1 -2 -1 -2 1 -4 l2 -2 2 2 c2 2 2 2 1 4 -1 1 -3 2 -3 2 0
0 -2 -1 -3 -2z"/><path d="M105 430 c-1 -2 -1 -2 1 -4 l2 -2 2 2 c2 2 2 2 1 4 -1 1 -3 2 -3 2 0
0 -2 -1 -3 -2z"/><path d="M201 430 c-1 -2 -1 -2 1 -4 l2 -2 2 2 c2 2 2 2 1 4 -1 1 -3 2 -3 2 0
0 -2 -1 -3 -2z"/><path d="M270 426 l-6 -6 0 -14 0 -14 -2 0 c-2 0 -4 -1 -4 -2 -2 -2 -2 -2 0
-4 0 -1 2 -2 4 -2 2 0 2 0 2 -4 0 -4 0 -4 -2 -4 -3 0 -6 -3 -6 -6 0 -1 -1 -2
-2 -2 -2 0 -4 -1 -5 -2 -1 -2 -1 -2 1 -4 2 -2 2 -2 4 -1 1 1 2 3 2 5 0 1 1 2
2 2 3 0 6 3 6 6 0 1 1 2 2 2 2 0 4 1 5 2 1 2 1 2 0 4 -1 1 -3 2 -5 2 -2 0 -2
0 -2 4 l0 4 6 0 c8 0 10 2 10 8 0 7 2 8 12 8 7 0 9 0 11 2 2 3 -1 6 -7 6 -4 0
-5 0 -12 8 -4 4 -8 8 -8 8 0 0 -3 -3 -6 -6z"/><path d="M394 430 c-2 -2 -2 -2 0 -4 0 -1 2 -2 4 -2 1 0 2 -1 2 -2 0 -2 1 -4
2 -5 2 -1 2 -1 4 1 2 2 2 2 1 4 -1 1 -3 2 -5 2 -1 0 -2 1 -2 2 0 2 -3 6 -4 6
0 0 -2 -1 -2 -2z"/><path d="M214 418 c-6 -6 -6 -6 -4 -8 2 -3 10 -3 12 0 3 2 3 10 0 12 -2 2 -2
3 -8 -4z"/><path d="M338 422 c-1 -1 -2 -3 -2 -4 0 -2 0 -2 -6 -2 -5 0 -7 0 -8 -2 -4 -3
0 -6 8 -6 6 0 6 0 6 -2 0 -2 1 -4 2 -4 2 -2 2 -2 4 0 1 0 2 2 2 4 0 1 1 2 2 2
2 0 4 1 5 2 1 2 1 2 0 4 -1 1 -3 2 -5 2 -1 0 -2 1 -2 2 0 2 -3 6 -4 6 0 0 -1
-1 -2 -2z m6 -10 l0 -4 -4 0 -4 0 0 4 0 4 4 0 4 0 0 -4z"/><path d="M166 410 c-6 -6 -6 -6 -6 -12 l0 -6 -6 0 c-8 0 -12 -3 -8 -6 4 -5 14
-2 14 4 0 1 1 2 2 2 2 0 5 3 10 8 7 8 8 8 12 8 6 0 9 3 7 6 -2 2 -4 2 -11 2
l-8 0 -6 -6z"/><path d="M361 414 c-1 -2 -1 -2 1 -4 l2 -2 2 2 c2 2 2 2 1 4 -1 1 -3 2 -3 2 0
0 -2 -1 -3 -2z"/><path d="M137 406 c-1 -2 -1 -2 1 -4 l2 -2 2 2 c2 2 2 2 1 4 -1 1 -3 2 -3 2 0
0 -2 -1 -3 -2z"/><path d="M234 406 c-3 -3 -3 -18 0 -20 2 -2 2 -2 8 4 6 5 6 6 6 10 0 6 -2 8
-8 8 -3 0 -5 -1 -6 -2z"/><path d="M89 398 c-1 -2 -1 -2 1 -4 l2 -2 2 2 c2 2 2 2 1 4 -1 1 -3 2 -3 2 0
0 -2 -1 -3 -2z"/><path d="M353 398 c-1 -2 -1 -2 1 -4 l2 -2 2 2 c2 2 2 2 1 4 -1 1 -3 2 -3 2 0
0 -2 -1 -3 -2z"/><path d="M409 398 c-1 -2 -1 -2 1 -4 l2 -2 2 2 c2 2 2 2 1 4 -1 1 -3 2 -3 2 0
0 -2 -1 -3 -2z"/><path d="M73 390 c-1 -2 -1 -2 1 -4 l2 -2 2 2 c2 2 2 2 1 4 -1 1 -3 2 -3 2 0
0 -2 -1 -3 -2z"/><path d="M346 382 c-3 -3 -3 -18 0 -20 3 -3 10 -3 13 0 1 2 1 2 -3 6 -4 3 -4
4 -4 8 0 7 -3 10 -6 6z"/><path d="M146 374 c-3 -3 0 -6 6 -6 3 0 5 1 7 2 2 3 -1 6 -7 6 -3 0 -5 -1 -6
-2z"/><path d="M425 374 c-1 -2 -1 -2 1 -4 l2 -2 2 2 c2 2 2 2 1 4 -1 1 -3 2 -3 2 0
0 -2 -1 -3 -2z"/><path d="M137 358 c-1 -2 -1 -2 1 -4 l2 -2 2 2 c2 2 2 2 1 4 -1 1 -3 2 -3 2 0
0 -2 -1 -3 -2z"/><path d="M162 358 c-1 -1 -2 -3 -2 -4 0 -1 -1 -2 -2 -2 -2 0 -4 -1 -4 -2 -2
-2 -2 -2 0 -4 0 -1 2 -2 4 -2 2 0 2 0 2 -8 0 -8 0 -8 -2 -8 -2 0 -4 -1 -5 -2
-1 -2 -1 -2 1 -4 2 -2 2 -2 4 -1 1 1 2 3 2 5 0 1 1 2 2 2 1 0 5 3 8 6 6 6 6 6
4 8 -1 2 -3 2 -8 2 l-6 0 0 4 c0 4 0 4 2 4 2 0 4 1 5 2 1 2 1 2 0 4 -3 2 -3 2
-5 0z"/><path d="M441 358 c-1 -2 -1 -2 1 -4 l2 -2 2 2 c2 2 2 2 1 4 -1 1 -3 2 -3 2 0
0 -2 -1 -3 -2z"/><path d="M338 350 c-2 -1 -2 -3 -2 -8 0 -5 0 -6 -2 -6 -1 0 -5 -2 -8 -6 l-6
-6 0 -6 c0 -6 0 -6 -2 -6 -3 0 -6 -3 -6 -6 0 -1 -1 -2 -2 -2 -3 0 -6 -3 -6 -6
0 -1 -1 -2 -2 -2 -1 0 -5 -3 -8 -6 -6 -6 -6 -6 -4 -8 1 -1 3 -2 6 -2 6 0 8 2
8 10 0 6 0 6 2 6 3 0 6 3 6 6 0 1 1 2 2 2 3 0 6 3 6 6 0 2 1 2 4 2 4 0 4 0 4
-2 0 -2 1 -4 2 -5 2 -1 2 -1 4 1 2 2 2 2 1 4 -1 1 -3 2 -5 2 -4 0 -3 4 2 8 4
3 4 3 4 10 l0 6 8 0 c8 0 8 0 8 -2 0 -2 1 -4 2 -5 2 -1 2 -1 4 1 2 2 2 2 1 4
-1 1 -3 2 -5 2 -1 0 -2 1 -2 2 0 2 -11 14 -12 14 0 0 -1 -1 -2 -2z"/><path d="M361 350 c-1 -2 -1 -2 1 -4 l2 -2 2 2 c2 2 2 2 1 4 -1 1 -3 2 -3 2 0
0 -2 -1 -3 -2z"/><path d="M178 326 c-2 -2 -2 -2 0 -4 0 -1 2 -2 4 -2 2 0 2 0 2 -4 0 -4 0 -4
-2 -4 -3 0 -6 -3 -6 -6 0 -2 -1 -2 -4 -2 -4 0 -4 0 -4 2 0 2 -1 4 -2 5 -2 1
-2 1 -4 -1 -2 -2 -2 -2 -1 -4 1 -1 3 -2 5 -2 1 0 2 -1 2 -2 0 -2 1 -4 2 -4 2
-2 2 -2 4 0 1 0 2 2 2 4 0 1 1 2 2 2 3 0 6 3 6 6 0 1 1 2 2 2 2 0 4 1 5 2 1 2
1 2 0 4 -1 1 -3 2 -5 2 -1 0 -2 1 -2 2 0 2 -3 6 -4 6 0 0 -2 -1 -2 -2z"/><path d="M57 310 c-1 -2 -1 -2 1 -4 l2 -2 2 2 c2 2 2 2 1 4 -1 1 -3 2 -3 2 0
0 -2 -1 -3 -2z"/><path d="M449 310 c-1 -2 -1 -2 1 -4 l2 -2 2 2 c2 2 2 2 1 4 -1 1 -3 2 -3 2 0
0 -2 -1 -3 -2z"/><path d="M194 302 c-2 -2 -2 -2 0 -4 0 -1 2 -2 4 -2 2 0 2 0 2 -10 l0 -11 4
-3 c5 -4 6 -8 2 -8 -2 0 -4 -1 -5 -2 -1 -2 -1 -2 1 -4 2 -2 2 -2 4 -1 1 1 2 3
2 5 0 1 1 2 2 2 2 0 4 1 6 4 2 3 4 4 6 4 2 0 2 0 2 -10 0 -13 1 -14 10 -14 8
0 8 -3 2 -8 l-4 -4 10 -10 c6 -6 11 -10 12 -10 2 0 2 -1 2 -4 0 -4 0 -4 -2 -4
-2 0 -4 -1 -5 -2 -1 -2 -1 -2 1 -4 2 -2 2 -2 4 -1 1 1 2 3 2 5 0 1 1 2 2 2 2
0 4 1 5 2 1 2 1 2 0 4 -1 1 -3 2 -5 2 -2 0 -2 0 -2 8 0 8 0 8 2 8 3 0 6 3 6 6
0 2 0 2 8 2 8 0 8 0 8 -2 0 -2 1 -4 2 -5 2 -1 2 -1 4 1 2 2 2 2 1 4 -1 1 -3 2
-5 2 -2 0 -2 0 -2 4 0 4 0 4 2 4 2 0 4 1 5 2 1 2 1 2 0 4 -1 1 -3 2 -5 2 -2 0
-2 0 -2 4 l0 4 10 0 c9 0 11 0 13 2 1 2 1 2 0 4 -2 2 -4 2 -11 2 -9 0 -12 -1
-12 -6 0 -1 -1 -2 -2 -2 -3 0 -6 -3 -6 -6 0 -1 -1 -2 -2 -2 -4 0 -6 -3 -6 -10
0 -6 0 -6 -2 -6 -3 0 -6 -3 -6 -6 0 -1 -1 -2 -2 -2 -4 0 -6 3 -6 8 0 5 -2 8
-6 8 -1 0 -2 1 -2 2 0 2 -1 4 -4 6 -4 3 -4 4 -4 8 0 5 -2 8 -6 8 -1 0 -2 1 -2
2 0 3 -19 22 -22 22 -1 0 -2 1 -2 2 0 2 -3 6 -4 6 0 0 -2 -1 -2 -2z m86 -50
c0 -3 0 -4 -2 -4 -3 0 -6 3 -6 6 0 2 0 2 4 2 l4 0 0 -4z"/><path d="M313 278 c-1 -2 -1 -2 1 -4 l2 -2 2 2 c2 2 2 2 1 4 -1 1 -3 2 -3 2 0
0 -2 -1 -3 -2z"/><path d="M58 270 c-3 -3 0 -6 6 -6 3 0 5 1 7 2 2 3 -1 6 -7 6 -3 0 -5 -1 -6
-2z"/><path d="M433 270 c-1 -2 -1 -2 1 -4 l2 -2 2 2 c2 2 2 2 1 4 -1 1 -3 2 -3 2 0
0 -2 -1 -3 -2z"/><path d="M73 254 c-1 -2 -1 -2 1 -4 l2 -2 2 2 c2 2 2 2 1 4 -1 1 -3 2 -3 2 0
0 -2 -1 -3 -2z"/><path d="M425 254 c-1 -2 -1 -2 1 -4 l2 -2 2 2 c2 2 2 2 1 4 -1 1 -3 2 -3 2 0
0 -2 -1 -3 -2z"/><path d="M81 238 c-1 -2 -1 -2 1 -4 l2 -2 2 2 c2 2 2 2 1 4 -1 1 -3 2 -3 2 0
0 -2 -1 -3 -2z"/><path d="M417 238 c-1 -2 -1 -2 1 -4 l2 -2 2 2 c2 2 2 2 1 4 -1 1 -3 2 -3 2 0
0 -2 -1 -3 -2z"/><path d="M81 222 c-1 -2 -1 -2 1 -4 l2 -2 2 2 c2 2 2 2 1 4 -1 1 -3 2 -3 2 0
0 -2 -1 -3 -2z"/><path d="M226 222 c-2 -2 -2 -2 0 -4 0 -1 2 -2 4 -2 1 0 2 -1 2 -2 0 -2 1 -4
2 -5 2 -1 2 -1 4 1 2 2 2 2 1 4 -1 1 -3 2 -5 2 -1 0 -2 1 -2 2 0 2 -3 6 -4 6
0 0 -2 -1 -2 -2z"/><path d="M273 222 c-1 -2 -1 -2 1 -4 l2 -2 2 2 c2 2 2 2 1 4 -1 1 -3 2 -3 2 0
0 -2 -1 -3 -2z"/><path d="M417 222 c-1 -2 -1 -2 1 -4 l2 -2 2 2 c2 2 2 2 1 4 -1 1 -3 2 -3 2 0
0 -2 -1 -3 -2z"/><path d="M378 198 c-1 -1 -2 -3 -2 -4 0 -1 -1 -2 -2 -2 -2 0 -4 -1 -4 -2 -2
-2 -2 -2 0 -4 0 -1 2 -2 4 -2 1 0 2 -1 2 -2 0 -2 1 -4 2 -5 2 -1 2 -1 4 1 2 2
2 2 1 4 -1 1 -3 2 -5 2 -2 0 -2 0 -2 4 0 4 0 4 2 4 2 0 4 1 5 2 1 2 1 2 0 4
-3 2 -3 2 -5 0z"/><path d="M130 190 c-1 -1 -2 -3 -2 -4 0 -1 -1 -2 -2 -2 -2 0 -4 -1 -5 -2 -1
-2 -1 -2 1 -4 2 -2 2 -2 4 -1 1 1 2 3 2 5 0 1 1 2 2 2 2 0 4 1 5 2 1 2 1 2 0
4 -3 2 -3 2 -5 0z"/><path d="M242 190 c-3 -3 -3 -10 0 -12 3 -3 6 0 6 6 0 7 -3 10 -6 6z"/><path d="M257 182 c-1 -2 -1 -2 1 -4 l2 -2 2 2 c2 2 2 2 1 4 -1 1 -3 2 -3 2 0
0 -2 -1 -3 -2z"/><path d="M154 174 c-1 -1 -2 -3 -2 -4 0 -1 -1 -2 -2 -2 -2 0 -4 -1 -5 -2 -1
-2 -1 -2 1 -4 2 -2 2 -2 4 -1 1 1 2 3 2 5 0 1 1 2 2 2 2 0 4 1 5 2 1 2 1 2 0
4 -3 2 -3 2 -5 0z"/><path d="M346 174 c-2 -2 -2 -2 0 -4 0 -1 2 -2 4 -2 1 0 2 -1 2 -2 0 -2 1 -4
2 -5 2 -1 2 -1 4 1 2 2 2 2 1 4 -1 1 -3 2 -5 2 -1 0 -2 1 -2 2 0 2 -3 6 -4 6
0 0 -2 -1 -2 -2z"/><path d="M169 166 c-1 -2 -1 -2 1 -4 l2 -2 2 2 c2 2 2 2 1 4 -1 1 -3 2 -3 2 0
0 -2 -1 -3 -2z"/><path d="M329 166 c-1 -2 -1 -2 1 -4 l2 -2 2 2 c2 2 2 2 1 4 -1 1 -3 2 -3 2 0
0 -2 -1 -3 -2z"/><path d="M194 158 c-1 -1 -2 -3 -2 -4 0 -1 -1 -2 -2 -2 -2 0 -4 -1 -4 -2 -2
-2 -2 -2 0 -4 0 -1 2 -2 4 -2 1 0 2 -1 2 -2 0 -3 3 -6 6 -6 1 0 2 -1 2 -2 0
-2 1 -4 2 -5 2 -1 2 -1 4 1 2 2 2 2 1 4 -1 1 -3 2 -5 2 -1 0 -2 1 -2 2 0 3 -3
6 -6 6 -2 0 -2 1 -2 4 0 4 0 4 2 4 2 0 4 1 5 2 1 2 1 2 0 4 -3 2 -3 2 -5 0z"/><path d="M306 158 c-2 -2 -2 -2 0 -4 0 -1 2 -2 4 -2 4 0 2 -4 -4 -10 -5 -6 -6
-6 -10 -6 -5 0 -8 -2 -8 -6 0 -1 -1 -2 -2 -2 -2 0 -4 -1 -5 -2 -1 -2 -1 -2 1
-4 2 -2 2 -2 4 -1 1 1 2 3 2 5 0 2 0 2 10 2 l10 0 6 6 c6 5 6 6 6 10 0 5 -2 8
-6 8 -1 0 -2 1 -2 2 0 2 -3 6 -4 6 0 0 -2 -1 -2 -2z"/><path d="M246 146 c-6 -6 -6 -6 -4 -8 2 -3 10 -3 12 0 3 2 3 10 0 12 -2 2 -2
3 -8 -4z"/><path d="M217 126 c-1 -2 -1 -2 1 -4 l2 -2 2 2 c2 2 2 2 1 4 -1 1 -3 2 -3 2 0
0 -2 -1 -3 -2z"/><path d="M273 110 c-1 -2 -1 -2 1 -4 l2 -2 2 2 c2 2 2 2 1 4 -1 1 -3 2 -3 2 0
0 -2 -1 -3 -2z"/><path d="M274 94 c-3 -3 -3 -10 0 -12 3 -3 6 0 6 6 0 7 -3 10 -6 6z"/><path d="M234 86 c-3 -3 0 -6 6 -6 3 0 5 1 7 2 2 3 -1 6 -7 6 -3 0 -5 -1 -6
-2z"/><path d="M257 86 c-1 -2 -1 -2 1 -4 l2 -2 2 2 c2 2 2 2 1 4 -1 1 -3 2 -3 2 0
0 -2 -1 -3 -2z"/><path d="M249 54 c-1 -2 -1 -2 1 -4 l2 -2 2 2 c2 2 2 2 1 4 -1 1 -3 2 -3 2 0
0 -2 -1 -3 -2z"/></g>
  <g transform="scale(0.125 0.125) translate(0.000000,512.000000) scale(1.000000,-1.000000)" fill="#fffefe" stroke="none"><path d="M209 478 c-1 -2 -1 -2 1 -4 l2 -2 2 2 c2 2 2 2 1 4 -1 1 -3 2 -3 2 0
0 -2 -1 -3 -2z"/><path d="M242 478 c-3 -3 0 -6 6 -6 3 0 5 1 7 2 2 3 -1 6 -7 6 -3 0 -5 -1 -6
-2z"/><path d="M289 478 c-1 -2 -1 -2 1 -4 l2 -2 2 2 c2 2 2 2 1 4 -1 1 -3 2 -3 2 0
0 -2 -1 -3 -2z"/><path d="M178 470 c-3 -3 -3 -10 0 -12 3 -3 6 0 6 6 0 7 -3 10 -6 6z"/><path d="M321 470 c-1 -2 -1 -2 1 -4 l2 -2 2 2 c2 2 2 2 1 4 -1 1 -3 2 -3 2 0
0 -2 -1 -3 -2z"/><path d="M130 438 c-1 -1 -2 -3 -2 -4 0 -1 -1 -2 -2 -2 -2 0 -4 -1 -5 -2 -1
-2 -1 -2 1 -4 2 -2 2 -2 4 -1 1 1 2 3 2 5 0 1 1 2 2 2 2 0 4 1 5 2 1 2 1 2 0
4 -3 2 -3 2 -5 0z"/><path d="M170 438 c-3 -3 -3 -10 0 -12 3 -3 6 0 6 6 0 7 -3 10 -6 6z"/><path d="M217 438 c-1 -2 -1 -2 1 -4 l2 -2 2 2 c2 2 2 2 1 4 -1 1 -3 2 -3 2 0
0 -2 -1 -3 -2z"/><path d="M105 430 c-1 -2 -1 -2 1 -4 l2 -2 2 2 c2 2 2 2 1 4 -1 1 -3 2 -3 2 0
0 -2 -1 -3 -2z"/><path d="M270 426 c-7 -7 -8 -13 -4 -16 2 -2 2 -2 8 4 6 5 6 6 6 10 0 3 -1 5
-2 6 -2 2 -2 3 -8 -4z"/><path d="M394 430 c-2 -2 -2 -2 0 -4 0 -1 2 -2 4 -2 1 0 2 -1 2 -2 0 -2 1 -4
2 -5 2 -1 2 -1 4 1 2 2 2 2 1 4 -1 1 -3 2 -5 2 -1 0 -2 1 -2 2 0 2 -3 6 -4 6
0 0 -2 -1 -2 -2z"/><path d="M178 414 c-1 -1 -2 -3 -2 -4 0 -1 -1 -2 -2 -2 -3 0 -6 -3 -6 -6 0 -1
-1 -2 -2 -2 -2 0 -4 -1 -5 -2 -1 -2 -1 -2 1 -4 2 -2 2 -2 4 -1 1 1 2 3 2 5 0
1 1 2 2 2 3 0 6 3 6 6 0 2 0 2 6 2 8 0 12 3 9 6 -3 3 -11 3 -13 0z"/><path d="M209 414 c-1 -2 -1 -2 1 -4 l2 -2 2 2 c2 2 2 2 1 4 -1 1 -3 2 -3 2 0
0 -2 -1 -3 -2z"/><path d="M290 414 c-3 -3 0 -6 6 -6 6 0 9 3 7 6 -2 1 -4 2 -7 2 -3 0 -5 -1 -6
-2z"/><path d="M321 414 c-1 -2 -1 -2 1 -4 l2 -2 2 2 c2 2 2 2 1 4 -1 1 -3 2 -3 2 0
0 -2 -1 -3 -2z"/><path d="M361 414 c-1 -2 -1 -2 1 -4 l2 -2 2 2 c2 2 2 2 1 4 -1 1 -3 2 -3 2 0
0 -2 -1 -3 -2z"/><path d="M137 406 c-1 -2 -1 -2 1 -4 l2 -2 2 2 c2 2 2 2 1 4 -1 1 -3 2 -3 2 0
0 -2 -1 -3 -2z"/><path d="M241 406 c-1 -2 -1 -2 1 -4 l2 -2 2 2 c2 2 2 2 1 4 -1 1 -3 2 -3 2 0
0 -2 -1 -3 -2z"/><path d="M89 398 c-1 -2 -1 -2 1 -4 l2 -2 2 2 c2 2 2 2 1 4 -1 1 -3 2 -3 2 0
0 -2 -1 -3 -2z"/><path d="M273 398 c-1 -2 -1 -2 1 -4 l2 -2 2 2 c2 2 2 2 1 4 -1 1 -3 2 -3 2 0
0 -2 -1 -3 -2z"/><path d="M409 398 c-1 -2 -1 -2 1 -4 l2 -2 2 2 c2 2 2 2 1 4 -1 1 -3 2 -3 2 0
0 -2 -1 -3 -2z"/><path d="M73 390 c-1 -2 -1 -2 1 -4 l2 -2 2 2 c2 2 2 2 1 4 -1 1 -3 2 -3 2 0
0 -2 -1 -3 -2z"/><path d="M233 390 c-1 -2 -1 -2 1 -4 l2 -2 2 2 c2 2 2 2 1 4 -1 1 -3 2 -3 2 0
0 -2 -1 -3 -2z"/><path d="M265 382 c-1 -2 -1 -2 1 -4 l2 -2 2 2 c2 2 2 2 1 4 -1 1 -3 2 -3 2 0
0 -2 -1 -3 -2z"/><path d="M346 382 c-3 -3 -3 -10 0 -12 3 -3 6 0 6 6 0 7 -3 10 -6 6z"/><path d="M425 374 c-1 -2 -1 -2 1 -4 l2 -2 2 2 c2 2 2 2 1 4 -1 1 -3 2 -3 2 0
0 -2 -1 -3 -2z"/><path d="M249 366 c-1 -2 -1 -2 1 -4 l2 -2 2 2 c2 2 2 2 1 4 -1 1 -3 2 -3 2 0
0 -2 -1 -3 -2z"/><path d="M137 358 c-1 -2 -1 -2 1 -4 l2 -2 2 2 c2 2 2 2 1 4 -1 1 -3 2 -3 2 0
0 -2 -1 -3 -2z"/><path d="M161 358 c-1 -2 -1 -2 1 -4 l2 -2 2 2 c2 2 2 2 1 4 -1 1 -3 2 -3 2 0
0 -2 -1 -3 -2z"/><path d="M441 358 c-1 -2 -1 -2 1 -4 l2 -2 2 2 c2 2 2 2 1 4 -1 1 -3 2 -3 2 0
0 -2 -1 -3 -2z"/><path d="M337 350 c-1 -2 -1 -2 1 -4 l2 -2 2 2 c2 2 2 2 1 4 -1 1 -3 2 -3 2 0
0 -2 -1 -3 -2z"/><path d="M361 350 c-1 -2 -1 -2 1 -4 l2 -2 2 2 c2 2 2 2 1 4 -1 1 -3 2 -3 2 0
0 -2 -1 -3 -2z"/><path d="M169 342 c-1 -2 -1 -2 1 -4 l2 -2 2 2 c2 2 2 2 1 4 -1 1 -3 2 -3 2 0
0 -2 -1 -3 -2z"/><path d="M330 334 c-1 -1 -2 -3 -2 -4 0 -1 -1 -2 -2 -2 -2 0 -4 -1 -5 -2 -1
-2 -1 -2 1 -4 2 -2 2 -2 4 -1 1 1 2 3 2 5 0 1 1 2 2 2 2 0 4 1 5 2 1 2 1 2 0
4 -3 2 -3 2 -5 0z"/><path d="M353 334 c-1 -2 -1 -2 1 -4 l2 -2 2 2 c2 2 2 2 1 4 -1 1 -3 2 -3 2 0
0 -2 -1 -3 -2z"/><path d="M153 326 c-1 -2 -1 -2 1 -4 l2 -2 2 2 c2 2 2 2 1 4 -1 1 -3 2 -3 2 0
0 -2 -1 -3 -2z"/><path d="M178 326 c-2 -2 -2 -2 0 -4 0 -1 2 -2 4 -2 1 0 2 -1 2 -2 0 -2 1 -4
2 -5 2 -1 2 -1 4 1 2 2 2 2 1 4 -1 1 -3 2 -5 2 -1 0 -2 1 -2 2 0 2 -3 6 -4 6
0 0 -2 -1 -2 -2z"/><path d="M57 310 c-1 -2 -1 -2 1 -4 l2 -2 2 2 c2 2 2 2 1 4 -1 1 -3 2 -3 2 0
0 -2 -1 -3 -2z"/><path d="M162 310 c-2 -2 -2 -2 0 -4 0 -1 2 -2 4 -2 1 0 2 -1 2 -2 0 -2 1 -4
2 -5 2 -1 2 -1 4 1 2 2 2 2 1 4 -1 1 -3 2 -5 2 -1 0 -2 1 -2 2 0 2 -3 6 -4 6
0 0 -2 -1 -2 -2z"/><path d="M314 310 c-1 -1 -2 -3 -2 -4 0 -1 -1 -2 -2 -2 -3 0 -6 -3 -6 -6 0 -1
-1 -2 -2 -2 -3 0 -6 -3 -6 -6 0 -1 -1 -2 -2 -2 -2 0 -4 -1 -5 -2 -1 -2 -1 -2
1 -4 2 -2 2 -2 4 -1 1 1 2 3 2 5 0 1 1 2 2 2 3 0 6 3 6 6 0 1 1 2 2 2 3 0 6 3
6 6 0 1 1 2 2 2 2 0 4 1 5 2 1 2 1 2 0 4 -3 2 -3 2 -5 0z"/><path d="M329 310 c-1 -2 -1 -2 1 -4 l2 -2 2 2 c2 2 2 2 1 4 -1 1 -3 2 -3 2 0
0 -2 -1 -3 -2z"/><path d="M449 310 c-1 -2 -1 -2 1 -4 l2 -2 2 2 c2 2 2 2 1 4 -1 1 -3 2 -3 2 0
0 -2 -1 -3 -2z"/><path d="M194 302 c-2 -2 -2 -2 0 -4 0 -1 2 -2 4 -2 1 0 2 -1 2 -2 0 -3 3 -6
6 -6 1 0 2 -1 2 -2 0 -3 3 -6 6 -6 1 0 2 -1 2 -2 0 -3 3 -6 6 -6 2 0 2 0 2 -6
0 -7 2 -10 6 -10 1 0 2 -1 2 -2 0 -3 3 -6 6 -6 2 0 2 0 2 -6 0 -7 2 -10 6 -10
1 0 2 -1 2 -2 0 -2 1 -4 2 -4 2 -2 2 -2 4 0 1 0 2 2 2 4 0 1 1 2 2 2 3 0 6 3
6 6 0 1 1 2 2 2 4 0 6 3 6 10 0 6 0 6 2 6 3 0 6 3 6 6 0 1 1 2 2 2 2 0 4 1 5
2 1 2 1 2 -1 4 -2 2 -2 2 -4 1 -1 -1 -2 -3 -2 -5 0 -1 -1 -2 -2 -2 -3 0 -6 -3
-6 -6 0 -1 -1 -2 -2 -2 -4 0 -6 -3 -6 -10 0 -6 0 -6 -2 -6 -3 0 -6 -3 -6 -6 0
-2 -1 -2 -4 -2 l-4 0 0 6 c0 7 -2 10 -6 10 -1 0 -2 1 -2 2 0 3 -3 6 -6 6 -2 0
-2 0 -2 6 0 7 -2 10 -6 10 -1 0 -2 1 -2 2 0 3 -3 6 -6 6 -1 0 -2 1 -2 2 0 3
-3 6 -6 6 -1 0 -2 1 -2 2 0 3 -3 6 -6 6 -1 0 -2 1 -2 2 0 2 -3 6 -4 6 0 0 -2
-1 -2 -2z"/><path d="M313 278 c-1 -2 -1 -2 1 -4 l2 -2 2 2 c2 2 2 2 1 4 -1 1 -3 2 -3 2 0
0 -2 -1 -3 -2z"/><path d="M58 270 c-3 -3 0 -6 6 -6 3 0 5 1 7 2 2 3 -1 6 -7 6 -3 0 -5 -1 -6
-2z"/><path d="M297 270 c-1 -2 -1 -2 1 -4 l2 -2 2 2 c2 2 2 2 1 4 -1 1 -3 2 -3 2 0
0 -2 -1 -3 -2z"/><path d="M433 270 c-1 -2 -1 -2 1 -4 l2 -2 2 2 c2 2 2 2 1 4 -1 1 -3 2 -3 2 0
0 -2 -1 -3 -2z"/><path d="M201 262 c-1 -2 -1 -2 1 -4 l2 -2 2 2 c2 2 2 2 1 4 -1 1 -3 2 -3 2 0
0 -2 -1 -3 -2z"/><path d="M73 254 c-1 -2 -1 -2 1 -4 l2 -2 2 2 c2 2 2 2 1 4 -1 1 -3 2 -3 2 0
0 -2 -1 -3 -2z"/><path d="M425 254 c-1 -2 -1 -2 1 -4 l2 -2 2 2 c2 2 2 2 1 4 -1 1 -3 2 -3 2 0
0 -2 -1 -3 -2z"/><path d="M81 238 c-1 -2 -1 -2 1 -4 l2 -2 2 2 c2 2 2 2 1 4 -1 1 -3 2 -3 2 0
0 -2 -1 -3 -2z"/><path d="M281 238 c-1 -2 -1 -2 1 -4 l2 -2 2 2 c2 2 2 2 1 4 -1 1 -3 2 -3 2 0
0 -2 -1 -3 -2z"/><path d="M417 238 c-1 -2 -1 -2 1 -4 l2 -2 2 2 c2 2 2 2 1 4 -1 1 -3 2 -3 2 0
0 -2 -1 -3 -2z"/><path d="M81 222 c-1 -2 -1 -2 1 -4 l2 -2 2 2 c2 2 2 2 1 4 -1 1 -3 2 -3 2 0
0 -2 -1 -3 -2z"/><path d="M226 222 c-2 -2 -2 -2 0 -4 0 -1 2 -2 4 -2 1 0 2 -1 2 -2 0 -2 1 -4
2 -5 2 -1 2 -1 4 1 2 2 2 2 1 4 -1 1 -3 2 -5 2 -1 0 -2 1 -2 2 0 2 -3 6 -4 6
0 0 -2 -1 -2 -2z"/><path d="M273 222 c-1 -2 -1 -2 1 -4 l2 -2 2 2 c2 2 2 2 1 4 -1 1 -3 2 -3 2 0
0 -2 -1 -3 -2z"/><path d="M417 222 c-1 -2 -1 -2 1 -4 l2 -2 2 2 c2 2 2 2 1 4 -1 1 -3 2 -3 2 0
0 -2 -1 -3 -2z"/><path d="M378 198 c-1 -1 -2 -3 -2 -4 0 -1 -1 -2 -2 -2 -2 0 -4 -1 -4 -2 -2
-2 -2 -2 0 -4 0 -1 2 -2 4 -2 1 0 2 -1 2 -2 0 -2 1 -4 2 -5 2 -1 2 -1 4 1 2 2
2 2 1 4 -1 1 -3 2 -5 2 -2 0 -2 0 -2 4 0 4 0 4 2 4 2 0 4 1 5 2 1 2 1 2 0 4
-3 2 -3 2 -5 0z"/><path d="M130 190 c-1 -1 -2 -3 -2 -4 0 -1 -1 -2 -2 -2 -2 0 -4 -1 -5 -2 -1
-2 -1 -2 1 -4 2 -2 2 -2 4 -1 1 1 2 3 2 5 0 1 1 2 2 2 2 0 4 1 5 2 1 2 1 2 0
4 -3 2 -3 2 -5 0z"/><path d="M242 190 c-3 -3 -3 -10 0 -12 3 -3 6 0 6 6 0 7 -3 10 -6 6z"/><path d="M257 182 c-1 -2 -1 -2 1 -4 l2 -2 2 2 c2 2 2 2 1 4 -1 1 -3 2 -3 2 0
0 -2 -1 -3 -2z"/><path d="M154 174 c-1 -1 -2 -3 -2 -4 0 -1 -1 -2 -2 -2 -2 0 -4 -1 -5 -2 -1
-2 -1 -2 1 -4 2 -2 2 -2 4 -1 1 1 2 3 2 5 0 1 1 2 2 2 2 0 4 1 5 2 1 2 1 2 0
4 -3 2 -3 2 -5 0z"/><path d="M346 174 c-2 -2 -2 -2 0 -4 0 -1 2 -2 4 -2 1 0 2 -1 2 -2 0 -2 1 -4
2 -5 2 -1 2 -1 4 1 2 2 2 2 1 4 -1 1 -3 2 -5 2 -1 0 -2 1 -2 2 0 2 -3 6 -4 6
0 0 -2 -1 -2 -2z"/><path d="M169 166 c-1 -2 -1 -2 1 -4 l2 -2 2 2 c2 2 2 2 1 4 -1 1 -3 2 -3 2 0
0 -2 -1 -3 -2z"/><path d="M329 166 c-1 -2 -1 -2 1 -4 l2 -2 2 2 c2 2 2 2 1 4 -1 1 -3 2 -3 2 0
0 -2 -1 -3 -2z"/><path d="M194 158 c-1 -1 -2 -3 -2 -4 0 -1 -1 -2 -2 -2 -2 0 -4 -1 -5 -2 -1
-2 -1 -2 1 -4 2 -2 2 -2 4 -1 1 1 2 3 2 5 0 1 1 2 2 2 2 0 4 1 5 2 1 2 1 2 0
4 -3 2 -3 2 -5 0z"/><path d="M306 158 c-2 -2 -2 -2 0 -4 0 -1 2 -2 4 -2 1 0 2 -1 2 -2 0 -2 1 -4
2 -5 2 -1 2 -1 4 1 2 2 2 2 1 4 -1 1 -3 2 -5 2 -1 0 -2 1 -2 2 0 2 -3 6 -4 6
0 0 -2 -1 -2 -2z"/><path d="M246 146 c-6 -6 -6 -6 -4 -8 2 -3 10 -3 12 0 3 2 3 10 0 12 -2 2 -2
3 -8 -4z"/><path d="M290 134 c-1 -1 -2 -3 -2 -4 0 -1 -1 -2 -2 -2 -2 0 -4 -1 -5 -2 -1
-2 -1 -2 1 -4 2 -2 2 -2 4 -1 1 1 2 3 2 5 0 2 0 2 6 2 8 0 12 3 9 6 -3 3 -11
3 -13 0z"/><path d="M217 126 c-1 -2 -1 -2 1 -4 l2 -2 2 2 c2 2 2 2 1 4 -1 1 -3 2 -3 2 0
0 -2 -1 -3 -2z"/><path d="M273 110 c-1 -2 -1 -2 1 -4 l2 -2 2 2 c2 2 2 2 1 4 -1 1 -3 2 -3 2 0
0 -2 -1 -3 -2z"/><path d="M273 94 c-1 -2 -1 -2 1 -4 l2 -2 2 2 c2 2 2 2 1 4 -1 1 -3 2 -3 2 0
0 -2 -1 -3 -2z"/><path d="M234 86 c-3 -3 0 -6 6 -6 3 0 5 1 7 2 2 3 -1 6 -7 6 -3 0 -5 -1 -6
-2z"/><path d="M257 86 c-1 -2 -1 -2 1 -4 l2 -2 2 2 c2 2 2 2 1 4 -1 1 -3 2 -3 2 0
0 -2 -1 -3 -2z"/></g>
  <g transform="scale(0.125 0.125) translate(0.000000,512.000000) scale(1.000000,-1.000000)" fill="#c15d90" stroke="none"><path d="M209 478 c-1 -2 -1 -2 1 -4 l2 -2 2 2 c2 2 2 2 1 4 -1 1 -3 2 -3 2 0
0 -2 -1 -3 -2z"/><path d="M289 478 c-1 -2 -1 -2 1 -4 l2 -2 2 2 c2 2 2 2 1 4 -1 1 -3 2 -3 2 0
0 -2 -1 -3 -2z"/><path d="M177 470 c-1 -2 -1 -2 1 -4 l2 -2 2 2 c2 2 2 2 1 4 -1 1 -3 2 -3 2 0
0 -2 -1 -3 -2z"/><path d="M321 470 c-1 -2 -1 -2 1 -4 l2 -2 2 2 c2 2 2 2 1 4 -1 1 -3 2 -3 2 0
0 -2 -1 -3 -2z"/><path d="M105 430 c-1 -2 -1 -2 1 -4 l2 -2 2 2 c2 2 2 2 1 4 -1 1 -3 2 -3 2 0
0 -2 -1 -3 -2z"/><path d="M169 430 c-1 -2 -1 -2 1 -4 l2 -2 2 2 c2 2 2 2 1 4 -1 1 -3 2 -3 2 0
0 -2 -1 -3 -2z"/><path d="M394 430 c-2 -2 -2 -2 0 -4 0 -1 2 -2 4 -2 1 0 2 -1 2 -2 0 -2 1 -4
2 -5 2 -1 2 -1 4 1 2 2 2 2 1 4 -1 1 -3 2 -5 2 -1 0 -2 1 -2 2 0 2 -3 6 -4 6
0 0 -2 -1 -2 -2z"/><path d="M274 422 c-1 -1 -2 -3 -2 -4 0 -1 -1 -2 -2 -2 -2 0 -4 -1 -5 -2 -1
-2 -1 -2 1 -4 2 -2 2 -2 4 -1 1 1 2 3 2 5 0 1 1 2 2 2 2 0 4 1 5 2 1 2 1 2 0
4 -3 2 -3 2 -5 0z"/><path d="M178 414 c-1 -1 -2 -3 -2 -4 0 -1 -1 -2 -2 -2 -3 0 -6 -3 -6 -6 0 -1
-1 -2 -2 -2 -2 0 -4 -1 -5 -2 -1 -2 -1 -2 1 -4 2 -2 2 -2 4 -1 1 1 2 3 2 5 0
1 1 2 2 2 3 0 6 3 6 6 0 2 0 2 6 2 8 0 12 3 9 6 -3 3 -11 3 -13 0z"/><path d="M209 414 c-1 -2 -1 -2 1 -4 l2 -2 2 2 c2 2 2 2 1 4 -1 1 -3 2 -3 2 0
0 -2 -1 -3 -2z"/><path d="M290 414 c-3 -3 0 -6 6 -6 6 0 9 3 7 6 -2 1 -4 2 -7 2 -3 0 -5 -1 -6
-2z"/><path d="M321 414 c-1 -2 -1 -2 1 -4 l2 -2 2 2 c2 2 2 2 1 4 -1 1 -3 2 -3 2 0
0 -2 -1 -3 -2z"/><path d="M241 406 c-1 -2 -1 -2 1 -4 l2 -2 2 2 c2 2 2 2 1 4 -1 1 -3 2 -3 2 0
0 -2 -1 -3 -2z"/><path d="M273 398 c-1 -2 -1 -2 1 -4 l2 -2 2 2 c2 2 2 2 1 4 -1 1 -3 2 -3 2 0
0 -2 -1 -3 -2z"/><path d="M73 390 c-1 -2 -1 -2 1 -4 l2 -2 2 2 c2 2 2 2 1 4 -1 1 -3 2 -3 2 0
0 -2 -1 -3 -2z"/><path d="M233 390 c-1 -2 -1 -2 1 -4 l2 -2 2 2 c2 2 2 2 1 4 -1 1 -3 2 -3 2 0
0 -2 -1 -3 -2z"/><path d="M265 382 c-1 -2 -1 -2 1 -4 l2 -2 2 2 c2 2 2 2 1 4 -1 1 -3 2 -3 2 0
0 -2 -1 -3 -2z"/><path d="M346 382 c-3 -3 -3 -10 0 -12 3 -3 6 0 6 6 0 7 -3 10 -6 6z"/><path d="M249 366 c-1 -2 -1 -2 1 -4 l2 -2 2 2 c2 2 2 2 1 4 -1 1 -3 2 -3 2 0
0 -2 -1 -3 -2z"/><path d="M161 358 c-1 -2 -1 -2 1 -4 l2 -2 2 2 c2 2 2 2 1 4 -1 1 -3 2 -3 2 0
0 -2 -1 -3 -2z"/><path d="M441 358 c-1 -2 -1 -2 1 -4 l2 -2 2 2 c2 2 2 2 1 4 -1 1 -3 2 -3 2 0
0 -2 -1 -3 -2z"/><path d="M337 350 c-1 -2 -1 -2 1 -4 l2 -2 2 2 c2 2 2 2 1 4 -1 1 -3 2 -3 2 0
0 -2 -1 -3 -2z"/><path d="M169 342 c-1 -2 -1 -2 1 -4 l2 -2 2 2 c2 2 2 2 1 4 -1 1 -3 2 -3 2 0
0 -2 -1 -3 -2z"/><path d="M330 334 c-1 -1 -2 -3 -2 -4 0 -1 -1 -2 -2 -2 -2 0 -4 -1 -5 -2 -1
-2 -1 -2 1 -4 2 -2 2 -2 4 -1 1 1 2 3 2 5 0 1 1 2 2 2 2 0 4 1 5 2 1 2 1 2 0
4 -3 2 -3 2 -5 0z"/><path d="M178 326 c-2 -2 -2 -2 0 -4 0 -1 2 -2 4 -2 1 0 2 -1 2 -2 0 -2 1 -4
2 -5 2 -1 2 -1 4 1 2 2 2 2 1 4 -1 1 -3 2 -5 2 -1 0 -2 1 -2 2 0 2 -3 6 -4 6
0 0 -2 -1 -2 -2z"/><path d="M314 310 c-1 -1 -2 -3 -2 -4 0 -1 -1 -2 -2 -2 -3 0 -6 -3 -6 -6 0 -1
-1 -2 -2 -2 -3 0 -6 -3 -6 -6 0 -1 -1 -2 -2 -2 -2 0 -4 -1 -5 -2 -1 -2 -1 -2
1 -4 2 -2 2 -2 4 -1 1 1 2 3 2 5 0 1 1 2 2 2 3 0 6 3 6 6 0 1 1 2 2 2 3 0 6 3
6 6 0 1 1 2 2 2 2 0 4 1 5 2 1 2 1 2 0 4 -3 2 -3 2 -5 0z"/><path d="M329 310 c-1 -2 -1 -2 1 -4 l2 -2 2 2 c2 2 2 2 1 4 -1 1 -3 2 -3 2 0
0 -2 -1 -3 -2z"/><path d="M449 310 c-1 -2 -1 -2 1 -4 l2 -2 2 2 c2 2 2 2 1 4 -1 1 -3 2 -3 2 0
0 -2 -1 -3 -2z"/><path d="M194 302 c-2 -2 -2 -2 0 -4 0 -1 2 -2 4 -2 1 0 2 -1 2 -2 0 -3 3 -6
6 -6 1 0 2 -1 2 -2 0 -3 3 -6 6 -6 1 0 2 -1 2 -2 0 -3 3 -6 6 -6 2 0 2 0 2 -6
0 -7 2 -10 6 -10 1 0 2 -1 2 -2 0 -3 3 -6 6 -6 2 0 2 0 2 -6 0 -7 2 -10 6 -10
1 0 2 -1 2 -2 0 -2 1 -4 2 -4 2 -2 2 -2 4 0 1 0 2 2 2 4 0 1 1 2 2 2 3 0 6 3
6 6 0 1 1 2 2 2 4 0 6 3 6 10 0 6 0 6 2 6 3 0 6 3 6 6 0 1 1 2 2 2 2 0 4 1 5
2 1 2 1 2 -1 4 -2 2 -2 2 -4 1 -1 -1 -2 -3 -2 -5 0 -1 -1 -2 -2 -2 -3 0 -6 -3
-6 -6 0 -1 -1 -2 -2 -2 -4 0 -6 -3 -6 -10 0 -6 0 -6 -2 -6 -3 0 -6 -3 -6 -6 0
-2 -1 -2 -4 -2 l-4 0 0 6 c0 7 -2 10 -6 10 -1 0 -2 1 -2 2 0 3 -3 6 -6 6 -2 0
-2 0 -2 6 0 7 -2 10 -6 10 -1 0 -2 1 -2 2 0 3 -3 6 -6 6 -1 0 -2 1 -2 2 0 3
-3 6 -6 6 -1 0 -2 1 -2 2 0 3 -3 6 -6 6 -1 0 -2 1 -2 2 0 2 -3 6 -4 6 0 0 -2
-1 -2 -2z"/><path d="M57 270 c-1 -2 -1 -2 1 -4 l2 -2 2 2 c2 2 2 2 1 4 -1 1 -3 2 -3 2 0
0 -2 -1 -3 -2z"/><path d="M297 270 c-1 -2 -1 -2 1 -4 l2 -2 2 2 c2 2 2 2 1 4 -1 1 -3 2 -3 2 0
0 -2 -1 -3 -2z"/><path d="M81 222 c-1 -2 -1 -2 1 -4 l2 -2 2 2 c2 2 2 2 1 4 -1 1 -3 2 -3 2 0
0 -2 -1 -3 -2z"/><path d="M417 222 c-1 -2 -1 -2 1 -4 l2 -2 2 2 c2 2 2 2 1 4 -1 1 -3 2 -3 2 0
0 -2 -1 -3 -2z"/><path d="M121 182 c-1 -2 -1 -2 1 -4 l2 -2 2 2 c2 2 2 2 1 4 -1 1 -3 2 -3 2 0
0 -2 -1 -3 -2z"/><path d="M377 182 c-1 -2 -1 -2 1 -4 l2 -2 2 2 c2 2 2 2 1 4 -1 1 -3 2 -3 2 0
0 -2 -1 -3 -2z"/><path d="M145 166 c-1 -2 -1 -2 1 -4 l2 -2 2 2 c2 2 2 2 1 4 -1 1 -3 2 -3 2 0
0 -2 -1 -3 -2z"/><path d="M353 166 c-1 -2 -1 -2 1 -4 l2 -2 2 2 c2 2 2 2 1 4 -1 1 -3 2 -3 2 0
0 -2 -1 -3 -2z"/><path d="M185 150 c-1 -2 -1 -2 1 -4 l2 -2 2 2 c2 2 2 2 1 4 -1 1 -3 2 -3 2 0
0 -2 -1 -3 -2z"/><path d="M313 150 c-1 -2 -1 -2 1 -4 l2 -2 2 2 c2 2 2 2 1 4 -1 1 -3 2 -3 2 0
0 -2 -1 -3 -2z"/><path d="M297 134 c-1 -2 -1 -2 1 -4 l2 -2 2 2 c2 2 2 2 1 4 -1 1 -3 2 -3 2 0
0 -2 -1 -3 -2z"/><path d="M273 94 c-1 -2 -1 -2 1 -4 l2 -2 2 2 c2 2 2 2 1 4 -1 1 -3 2 -3 2 0
0 -2 -1 -3 -2z"/><path d="M233 86 c-1 -2 -1 -2 1 -4 l2 -2 2 2 c2 2 2 2 1 4 -1 1 -3 2 -3 2 0
0 -2 -1 -3 -2z"/></g>
  <g transform="scale(0.125 0.125) translate(0.000000,512.000000) scale(1.000000,-1.000000)" fill="#551f3a" stroke="none"><path d="M178 414 c-1 -1 -2 -3 -2 -4 0 -1 -1 -2 -2 -2 -3 0 -6 -3 -6 -6 0 -1
-1 -2 -2 -2 -2 0 -4 -1 -5 -2 -1 -2 -1 -2 1 -4 2 -2 2 -2 4 -1 1 1 2 3 2 5 0
1 1 2 2 2 3 0 6 3 6 6 0 2 0 2 6 2 8 0 12 3 9 6 -3 3 -11 3 -13 0z"/><path d="M209 414 c-1 -2 -1 -2 1 -4 l2 -2 2 2 c2 2 2 2 1 4 -1 1 -3 2 -3 2 0
0 -2 -1 -3 -2z"/><path d="M290 414 c-3 -3 0 -6 6 -6 6 0 9 3 7 6 -2 1 -4 2 -7 2 -3 0 -5 -1 -6
-2z"/><path d="M321 414 c-1 -2 -1 -2 1 -4 l2 -2 2 2 c2 2 2 2 1 4 -1 1 -3 2 -3 2 0
0 -2 -1 -3 -2z"/><path d="M273 398 c-1 -2 -1 -2 1 -4 l2 -2 2 2 c2 2 2 2 1 4 -1 1 -3 2 -3 2 0
0 -2 -1 -3 -2z"/><path d="M233 390 c-1 -2 -1 -2 1 -4 l2 -2 2 2 c2 2 2 2 1 4 -1 1 -3 2 -3 2 0
0 -2 -1 -3 -2z"/><path d="M265 382 c-1 -2 -1 -2 1 -4 l2 -2 2 2 c2 2 2 2 1 4 -1 1 -3 2 -3 2 0
0 -2 -1 -3 -2z"/><path d="M346 382 c-3 -3 -3 -10 0 -12 3 -3 6 0 6 6 0 7 -3 10 -6 6z"/><path d="M249 366 c-1 -2 -1 -2 1 -4 l2 -2 2 2 c2 2 2 2 1 4 -1 1 -3 2 -3 2 0
0 -2 -1 -3 -2z"/><path d="M161 358 c-1 -2 -1 -2 1 -4 l2 -2 2 2 c2 2 2 2 1 4 -1 1 -3 2 -3 2 0
0 -2 -1 -3 -2z"/><path d="M337 350 c-1 -2 -1 -2 1 -4 l2 -2 2 2 c2 2 2 2 1 4 -1 1 -3 2 -3 2 0
0 -2 -1 -3 -2z"/><path d="M329 334 c-1 -2 -1 -2 1 -4 l2 -2 2 2 c2 2 2 2 1 4 -1 1 -3 2 -3 2 0
0 -2 -1 -3 -2z"/><path d="M177 326 c-1 -2 -1 -2 1 -4 l2 -2 2 2 c2 2 2 2 1 4 -1 1 -3 2 -3 2 0
0 -2 -1 -3 -2z"/><path d="M314 310 c-1 -1 -2 -3 -2 -4 0 -1 -1 -2 -2 -2 -2 0 -4 -1 -5 -2 -1
-2 -1 -2 1 -4 2 -2 2 -2 4 -1 1 1 2 3 2 5 0 1 1 2 2 2 2 0 4 1 5 2 1 2 1 2 0
4 -3 2 -3 2 -5 0z"/><path d="M194 302 c-2 -2 -2 -2 0 -4 0 -1 2 -2 4 -2 1 0 2 -1 2 -2 0 -3 3 -6
6 -6 1 0 2 -1 2 -2 0 -2 1 -4 2 -5 2 -1 2 -1 4 1 2 2 2 2 1 4 -1 1 -3 2 -5 2
-1 0 -2 1 -2 2 0 3 -3 6 -6 6 -1 0 -2 1 -2 2 0 2 -3 6 -4 6 0 0 -2 -1 -2 -2z"/><path d="M281 270 c-1 -2 -1 -2 1 -4 l2 -2 2 2 c2 2 2 2 1 4 -1 1 -3 2 -3 2 0
0 -2 -1 -3 -2z"/><path d="M225 262 c-1 -2 -1 -2 1 -4 l2 -2 2 2 c2 2 2 2 1 4 -1 1 -3 2 -3 2 0
0 -2 -1 -3 -2z"/><path d="M265 246 c-1 -2 -1 -2 1 -4 l2 -2 2 2 c2 2 2 2 1 4 -1 1 -3 2 -3 2 0
0 -2 -1 -3 -2z"/><path d="M241 238 c-1 -2 -1 -2 1 -4 l2 -2 2 2 c2 2 2 2 1 4 -1 1 -3 2 -3 2 0
0 -2 -1 -3 -2z"/></g>
</svg>
