<?xml version="1.0" encoding="UTF-8"?>
<svg xmlns="http://www.w3.org/2000/svg" viewBox="0 0 64 64" width="64" height="64">
  <g transform="scale(0.125 0.125) translate(0.000000,512.000000) scale(1.000000,-1.000000)" fill="#ffffff" stroke="none"><path d="M192 484 l-3 -4 -9 0 -9 0 -3 -4 c-3 -4 -4 -4 -8 -4 -4 0 -5 0 -8 -4
-3 -4 -4 -4 -8 -4 -4 0 -5 0 -8 -4 -3 -4 -4 -4 -8 -4 -4 0 -4 0 -16 -12 -12
-12 -12 -12 -16 -12 -6 0 -8 -2 -8 -8 0 -4 0 -5 -12 -16 -12 -12 -12 -12 -12
-16 0 -4 0 -5 -4 -8 l-4 -3 0 -9 0 -9 -4 -3 -4 -3 0 -49 0 -49 4 -3 c4 -3 4
-4 4 -8 0 -4 0 -5 4 -8 4 -3 4 -4 4 -8 0 -4 0 -5 4 -8 4 -3 4 -4 4 -8 l0 -4
22 -22 c22 -22 22 -22 26 -22 4 0 5 0 12 -8 7 -8 8 -8 12 -8 4 0 5 0 8 -4 l3
-4 9 0 9 0 3 -4 c3 -4 4 -4 8 -4 6 0 16 -10 16 -16 0 -4 0 -5 8 -12 8 -7 8 -8
8 -12 0 -4 0 -5 4 -8 4 -3 4 -4 4 -8 0 -4 0 -5 4 -8 4 -3 4 -4 4 -8 0 -4 0 -5
8 -12 8 -7 8 -8 8 -12 0 -3 1 -5 2 -6 2 -2 2 -2 8 4 6 5 6 6 6 10 0 4 0 5 4 8
4 3 4 4 4 8 0 4 0 5 8 12 8 7 8 8 8 12 0 4 0 5 4 8 4 3 4 4 4 8 0 4 0 5 4 8 4
3 4 4 4 8 0 4 0 5 6 10 5 6 6 6 10 6 4 0 5 0 8 4 l3 4 9 0 9 0 3 4 c3 4 4 4 8
4 4 0 5 0 12 8 7 8 8 8 12 8 4 0 4 0 26 22 22 22 22 22 22 26 0 4 0 5 8 12 l8
8 0 8 0 9 4 3 4 3 0 9 0 9 4 3 4 3 0 25 0 25 -4 3 -4 3 0 13 0 13 -4 3 c-4 3
-4 4 -4 8 0 4 0 5 -4 8 -4 3 -4 4 -4 8 0 4 0 5 -8 12 -8 7 -8 8 -8 12 0 4 0 5
-10 14 -9 10 -10 10 -14 10 -4 0 -5 0 -12 8 -7 8 -8 8 -12 8 -4 0 -5 0 -8 4
-3 4 -4 4 -8 4 -4 0 -5 0 -8 4 -3 4 -4 4 -8 4 -4 0 -5 0 -8 4 l-3 4 -9 0 -9 0
-3 4 -3 4 -57 0 -57 0 -3 -4z"/></g>
  <g transform="scale(0.125 0.125) translate(0.000000,512.000000) scale(1.000000,-1.000000)" fill="#ff2894" stroke="none"><path d="M192 484 l-3 -4 -9 0 -9 0 -3 -4 c-3 -4 -4 -4 -8 -4 -4 0 -5 0 -8 -4
-3 -4 -4 -4 -8 -4 -4 0 -5 0 -8 -4 -3 -4 -4 -4 -8 -4 -4 0 -4 0 -16 -12 -12
-12 -12 -12 -16 -12 -6 0 -8 -2 -8 -8 0 -4 0 -5 -12 -16 -12 -12 -12 -12 -12
-16 0 -4 0 -5 -4 -8 l-4 -3 0 -9 0 -9 -4 -3 -4 -3 0 -49 0 -49 4 -3 c4 -3 4
-4 4 -8 0 -4 0 -5 4 -8 4 -3 4 -4 4 -8 0 -4 0 -5 4 -8 4 -3 4 -4 4 -8 l0 -4
22 -22 c22 -22 22 -22 26 -22 4 0 5 0 12 -8 7 -8 8 -8 12 -8 4 0 5 0 8 -4 l3
-4 9 0 9 0 3 -4 c3 -4 4 -4 8 -4 6 0 16 -10 16 -16 0 -4 0 -5 8 -12 8 -7 8 -8
8 -12 0 -4 0 -5 4 -8 4 -3 4 -4 4 -8 0 -4 0 -5 4 -8 4 -3 4 -4 4 -8 0 -4 0 -5
8 -12 8 -7 8 -8 8 -12 0 -3 1 -5 2 -6 2 -2 2 -2 8 4 6 5 6 6 6 10 0 4 0 5 4 8
4 3 4 4 4 8 0 4 0 5 8 12 8 7 8 8 8 12 0 4 0 5 4 8 4 3 4 4 4 8 0 4 0 5 4 8 4
3 4 4 4 8 0 4 0 5 6 10 5 6 6 6 10 6 4 0 5 0 8 4 l3 4 9 0 9 0 3 4 c3 4 4 4 8
4 4 0 5 0 12 8 7 8 8 8 12 8 4 0 4 0 26 22 22 22 22 22 22 26 0 4 0 5 8 12 l8
8 0 8 0 9 4 3 4 3 0 9 0 9 4 3 4 3 0 25 0 25 -4 3 -4 3 0 13 0 13 -4 3 c-4 3
-4 4 -4 8 0 4 0 5 -4 8 -4 3 -4 4 -4 8 0 4 0 5 -8 12 -8 7 -8 8 -8 12 0 4 0 5
-10 14 -9 10 -10 10 -14 10 -4 0 -5 0 -12 8 -7 8 -8 8 -12 8 -4 0 -5 0 -8 4
-3 4 -4 4 -8 4 -4 0 -5 0 -8 4 -3 4 -4 4 -8 4 -4 0 -5 0 -8 4 l-3 4 -9 0 -9 0
-3 4 -3 4 -57 0 -57 0 -3 -4z m64 -8 l3 -4 21 0 21 0 3 -4 3 -4 9 0 9 0 3 -4
c3 -4 4 -4 8 -4 4 0 5 0 8 -4 3 -4 4 -4 8 -4 4 0 5 0 12 -8 7 -8 8 -8 12 -8 4
0 5 0 18 -14 14 -13 14 -14 14 -18 0 -4 0 -5 8 -12 8 -7 8 -8 8 -12 0 -4 0 -5
4 -8 4 -3 4 -4 4 -8 0 -4 0 -5 4 -8 l4 -3 0 -37 0 -37 -4 -3 -4 -3 0 -9 0 -8
-8 -8 c-8 -7 -8 -8 -8 -12 0 -4 0 -4 -22 -26 l-22 -22 -4 0 c-4 0 -5 0 -8 -4
-3 -4 -4 -4 -8 -4 -4 0 -5 0 -8 -4 -3 -4 -4 -4 -8 -4 -4 0 -5 0 -8 -4 l-3 -4
-9 0 -8 0 -6 -6 c-6 -5 -6 -6 -6 -10 0 -4 0 -5 -4 -8 -4 -3 -4 -4 -4 -8 0 -4
0 -5 -8 -12 -8 -7 -8 -8 -8 -12 0 -4 0 -5 -8 -12 -8 -7 -8 -8 -8 -12 0 -3 -1
-5 -2 -6 -3 -3 -6 0 -6 6 0 4 0 5 -8 12 -8 7 -8 8 -8 12 0 4 0 5 -4 8 -4 3 -4
4 -4 8 0 4 0 5 -4 8 -4 3 -4 4 -4 8 0 4 0 4 -10 14 l-10 10 -8 0 -9 0 -3 4
c-3 4 -4 4 -8 4 -4 0 -5 0 -8 4 -3 4 -4 4 -8 4 -4 0 -5 0 -12 8 -7 8 -8 8 -12
8 -4 0 -4 0 -22 18 -18 18 -18 18 -18 22 0 4 0 5 -4 8 -4 3 -4 4 -4 8 0 4 0 5
-4 8 -4 3 -4 4 -4 8 0 4 0 5 -4 8 l-4 3 0 37 0 37 4 3 4 3 0 9 0 8 12 12 c12
11 12 12 12 16 0 4 1 5 10 14 9 9 10 10 14 10 4 0 5 0 16 12 12 12 12 12 16
12 4 0 5 0 8 4 3 4 4 4 8 4 4 0 5 0 8 4 l3 4 9 0 9 0 3 4 3 4 21 0 21 0 3 4
c2 2 4 4 4 4 0 0 2 -2 4 -4z"/><path d="M176 428 c-3 -4 -4 -4 -8 -4 -4 0 -4 0 -14 -10 l-10 -10 0 -28 0 -28
8 -8 c8 -7 8 -8 8 -12 0 -4 0 -5 4 -8 4 -3 4 -4 4 -8 0 -4 0 -4 12 -16 12 -11
12 -12 12 -16 0 -4 0 -5 8 -12 8 -7 8 -8 8 -12 0 -6 2 -8 8 -8 6 0 8 -2 8 -8
0 -4 0 -5 4 -8 4 -3 4 -4 4 -8 0 -4 0 -5 4 -8 4 -3 4 -4 4 -8 0 -4 0 -5 4 -8
4 -3 4 -4 4 -8 0 -3 1 -5 2 -6 2 -2 2 -2 8 4 l6 6 0 8 0 8 8 8 c8 7 8 8 8 12
0 4 0 5 8 12 8 7 8 8 8 12 0 4 0 5 12 16 12 11 12 12 12 16 0 4 0 5 12 16 12
11 12 12 12 16 0 4 0 5 8 12 l8 8 0 8 0 9 4 3 4 3 0 13 0 13 -4 3 c-4 3 -4 4
-4 8 0 4 0 4 -10 14 -10 10 -10 10 -14 10 -4 0 -5 0 -8 4 l-3 4 -21 0 -20 0
-10 -10 c-10 -10 -10 -10 -10 -14 0 -6 -2 -8 -8 -8 -4 0 -4 0 -20 16 l-16 16
-20 0 -21 0 -3 -4z"/><path d="M249 142 c-1 -2 -1 -2 1 -4 l2 -2 2 2 c2 2 2 2 1 4 -1 1 -3 2 -3 2 0
0 -2 -1 -3 -2z"/></g>
  <g transform="scale(0.125 0.125) translate(0.000000,512.000000) scale(1.000000,-1.000000)" fill="#3c2430" stroke="none"><path d="M192 484 l-3 -4 -9 0 -9 0 -3 -4 c-3 -4 -4 -4 -8 -4 -4 0 -5 0 -8 -4
-3 -4 -4 -4 -8 -4 -4 0 -5 0 -8 -4 -3 -4 -4 -4 -8 -4 -4 0 -4 0 -16 -12 -12
-12 -12 -12 -16 -12 -6 0 -8 -2 -8 -8 0 -4 0 -5 -12 -16 -12 -12 -12 -12 -12
-16 0 -4 0 -5 -4 -8 l-4 -3 0 -9 0 -9 -4 -3 -4 -3 0 -49 0 -49 4 -3 c4 -3 4
-4 4 -8 0 -4 0 -5 4 -8 4 -3 4 -4 4 -8 0 -4 0 -5 4 -8 4 -3 4 -4 4 -8 l0 -4
22 -22 c22 -22 22 -22 26 -22 4 0 5 0 12 -8 7 -8 8 -8 12 -8 4 0 5 0 8 -4 l3
-4 9 0 9 0 3 -4 c3 -4 4 -4 8 -4 6 0 16 -10 16 -16 0 -4 0 -5 8 -12 8 -7 8 -8
8 -12 0 -4 0 -5 4 -8 4 -3 4 -4 4 -8 0 -4 0 -5 4 -8 4 -3 4 -4 4 -8 0 -4 0 -5
8 -12 8 -7 8 -8 8 -12 0 -3 1 -5 2 -6 2 -2 2 -2 8 4 6 5 6 6 6 10 0 4 0 5 4 8
4 3 4 4 4 8 0 4 0 5 8 12 8 7 8 8 8 12 0 4 0 5 4 8 4 3 4 4 4 8 0 4 0 5 4 8 4
3 4 4 4 8 0 4 0 5 6 10 5 6 6 6 10 6 4 0 5 0 8 4 l3 4 9 0 9 0 3 4 c3 4 4 4 8
4 4 0 5 0 12 8 7 8 8 8 12 8 4 0 4 0 26 22 22 22 22 22 22 26 0 4 0 5 8 12 l8
8 0 8 0 9 4 3 4 3 0 9 0 9 4 3 4 3 0 25 0 25 -4 3 -4 3 0 13 0 13 -4 3 c-4 3
-4 4 -4 8 0 4 0 5 -4 8 -4 3 -4 4 -4 8 0 4 0 5 -8 12 -8 7 -8 8 -8 12 0 4 0 5
-10 14 -9 10 -10 10 -14 10 -4 0 -5 0 -12 8 -7 8 -8 8 -12 8 -4 0 -5 0 -8 4
-3 4 -4 4 -8 4 -4 0 -5 0 -8 4 -3 4 -4 4 -8 4 -4 0 -5 0 -8 4 l-3 4 -9 0 -9 0
-3 4 -3 4 -57 0 -57 0 -3 -4z m64 -8 l3 -4 21 0 21 0 3 -4 3 -4 9 0 9 0 3 -4
c3 -4 4 -4 8 -4 4 0 5 0 8 -4 3 -4 4 -4 8 -4 4 0 5 0 12 -8 7 -8 8 -8 12 -8 4
0 5 0 18 -14 14 -13 14 -14 14 -18 0 -4 0 -5 8 -12 8 -7 8 -8 8 -12 0 -4 0 -5
4 -8 4 -3 4 -4 4 -8 0 -4 0 -5 4 -8 l4 -3 0 -37 0 -37 -4 -3 -4 -3 0 -9 0 -8
-8 -8 c-8 -7 -8 -8 -8 -12 0 -4 0 -4 -22 -26 l-22 -22 -4 0 c-4 0 -5 0 -8 -4
-3 -4 -4 -4 -8 -4 -4 0 -5 0 -8 -4 -3 -4 -4 -4 -8 -4 -4 0 -5 0 -8 -4 l-3 -4
-9 0 -8 0 -6 -6 c-6 -5 -6 -6 -6 -10 0 -4 0 -5 -4 -8 -4 -3 -4 -4 -4 -8 0 -4
0 -5 -8 -12 -8 -7 -8 -8 -8 -12 0 -4 0 -5 -8 -12 -8 -7 -8 -8 -8 -12 0 -3 -1
-5 -2 -6 -3 -3 -6 0 -6 6 0 4 0 5 -8 12 -8 7 -8 8 -8 12 0 4 0 5 -4 8 -4 3 -4
4 -4 8 0 4 0 5 -4 8 -4 3 -4 4 -4 8 0 4 0 4 -10 14 l-10 10 -8 0 -9 0 -3 4
c-3 4 -4 4 -8 4 -4 0 -5 0 -8 4 -3 4 -4 4 -8 4 -4 0 -5 0 -12 8 -7 8 -8 8 -12
8 -4 0 -4 0 -22 18 -18 18 -18 18 -18 22 0 4 0 5 -4 8 -4 3 -4 4 -4 8 0 4 0 5
-4 8 -4 3 -4 4 -4 8 0 4 0 5 -4 8 l-4 3 0 37 0 37 4 3 4 3 0 9 0 8 12 12 c12
11 12 12 12 16 0 4 1 5 10 14 9 9 10 10 14 10 4 0 5 0 16 12 12 12 12 12 16
12 4 0 5 0 8 4 3 4 4 4 8 4 4 0 5 0 8 4 l3 4 9 0 9 0 3 4 3 4 21 0 21 0 3 4
c2 2 4 4 4 4 0 0 2 -2 4 -4z"/><path d="M176 428 c-3 -4 -4 -4 -8 -4 -4 0 -4 0 -14 -10 l-10 -10 0 -28 0 -28
8 -8 c8 -7 8 -8 8 -12 0 -4 0 -5 4 -8 4 -3 4 -4 4 -8 0 -4 0 -4 12 -16 12 -11
12 -12 12 -16 0 -4 0 -5 8 -12 8 -7 8 -8 8 -12 0 -6 2 -8 8 -8 6 0 8 -2 8 -8
0 -4 0 -5 4 -8 4 -3 4 -4 4 -8 0 -4 0 -5 4 -8 4 -3 4 -4 4 -8 0 -4 0 -5 4 -8
4 -3 4 -4 4 -8 0 -3 1 -5 2 -6 2 -2 2 -2 8 4 l6 6 0 8 0 8 8 8 c8 7 8 8 8 12
0 4 0 5 8 12 8 7 8 8 8 12 0 4 0 5 12 16 12 11 12 12 12 16 0 4 0 5 12 16 12
11 12 12 12 16 0 4 0 5 8 12 l8 8 0 8 0 9 4 3 4 3 0 13 0 13 -4 3 c-4 3 -4 4
-4 8 0 4 0 4 -10 14 -10 10 -10 10 -14 10 -4 0 -5 0 -8 4 l-3 4 -21 0 -20 0
-10 -10 c-10 -10 -10 -10 -10 -14 0 -6 -2 -8 -8 -8 -4 0 -4 0 -20 16 l-16 16
-20 0 -21 0 -3 -4z m-2 -70 c1 -1 2 -2 2 -4 l0 -2 34 0 35 0 3 4 4 5 4 -5 4
-4 32 0 33 0 3 4 c4 4 4 4 6 3 1 -2 2 -4 2 -7 0 -4 0 -5 -8 -12 -8 -7 -8 -8
-8 -12 0 -4 0 -5 -8 -12 -8 -7 -8 -8 -8 -12 0 -4 0 -4 -16 -20 -16 -16 -16
-16 -16 -20 0 -4 0 -5 -4 -8 -4 -3 -4 -4 -4 -8 0 -4 0 -5 -6 -10 -6 -6 -6 -6
-8 -4 -1 1 -2 3 -2 6 0 4 0 5 -4 8 -4 3 -4 4 -4 8 0 4 0 4 -16 20 -16 15 -16
16 -16 20 0 4 0 5 -12 16 -12 12 -12 12 -12 16 0 4 0 5 -4 8 -4 3 -4 3 -4 10
0 6 0 6 -2 6 -2 0 -4 1 -4 2 -2 2 -2 2 0 4 2 2 2 2 4 0z"/><path d="M249 142 c-1 -2 -1 -2 1 -4 l2 -2 2 2 c2 2 2 2 1 4 -1 1 -3 2 -3 2 0
0 -2 -1 -3 -2z"/></g>
  <g transform="scale(0.125 0.125) translate(0.000000,512.000000) scale(1.000000,-1.000000)" fill="#4f4f4f" stroke="none"><path d="M196 480 c-7 -8 -8 -8 -12 -8 -4 0 -5 0 -8 4 -4 4 -4 4 -6 3 -1 -2
-2 -4 -2 -7 0 -6 -2 -8 -8 -8 -4 0 -5 0 -8 -4 -3 -4 -4 -4 -8 -4 -4 0 -5 0 -8
-4 -3 -4 -4 -4 -8 -4 l-4 0 -26 -26 c-26 -26 -26 -26 -26 -30 0 -4 0 -5 -8
-12 l-8 -8 0 -8 0 -9 -4 -3 -4 -3 0 -37 0 -37 4 -3 4 -3 0 -9 0 -9 4 -3 c4 -3
4 -4 4 -8 0 -4 0 -4 12 -16 12 -11 12 -12 12 -16 0 -4 1 -5 10 -14 9 -10 10
-10 14 -10 4 0 5 0 12 -8 7 -8 8 -8 12 -8 4 0 5 0 8 -4 3 -4 4 -4 8 -4 6 0 8
-2 8 -8 0 -3 1 -5 2 -7 2 -1 2 -1 6 3 l4 4 14 -14 c14 -13 14 -14 14 -18 0 -4
0 -5 8 -12 8 -7 8 -8 8 -12 0 -4 0 -5 4 -8 4 -3 4 -4 4 -8 0 -4 0 -5 4 -8 4
-3 4 -4 4 -8 0 -4 0 -5 8 -12 8 -7 8 -8 8 -12 0 -3 1 -5 2 -6 2 -2 2 -2 8 4 6
5 6 6 6 10 0 4 0 5 4 8 4 3 4 4 4 8 0 4 0 5 8 12 8 7 8 8 8 12 0 4 0 5 4 8 4
3 4 4 4 8 0 4 0 5 4 8 4 3 4 4 4 8 0 4 0 4 14 18 l14 14 4 -4 c4 -4 4 -4 6 -3
1 2 2 4 2 7 0 3 1 5 2 7 2 1 2 1 6 -3 4 -4 4 -4 6 -3 1 2 2 4 2 7 0 6 2 8 8 8
4 0 5 0 12 8 7 8 8 8 12 8 4 0 5 0 18 14 14 13 14 14 14 18 0 4 0 5 8 12 8 7
8 8 8 12 0 4 0 5 4 8 l4 3 0 13 0 12 8 8 8 8 0 16 0 17 -4 3 c-4 3 -4 4 -4 8
0 4 0 5 -4 8 l-4 3 0 9 0 9 -4 3 c-4 3 -4 4 -4 8 0 4 0 5 -4 8 -4 3 -4 4 -4 8
l0 4 -26 26 -26 26 -4 0 c-4 0 -5 0 -8 4 -3 4 -4 4 -8 4 -4 0 -5 0 -8 4 -3 4
-4 4 -8 4 -6 0 -8 2 -8 8 0 3 -1 5 -2 7 -2 1 -2 1 -6 -3 -3 -4 -4 -4 -8 -4 -4
0 -5 0 -12 8 -7 8 -8 8 -12 8 -4 0 -5 0 -8 -4 l-3 -4 -13 0 c-11 0 -13 0 -14
-2 -2 -2 -2 -2 0 -4 1 -2 3 -2 22 -2 l21 0 3 -4 3 -4 9 0 9 0 3 -4 c3 -4 4 -4
8 -4 4 0 5 0 8 -4 3 -4 4 -4 8 -4 4 0 5 0 12 -8 7 -8 8 -8 12 -8 4 0 5 0 18
-14 14 -13 14 -14 14 -18 0 -4 0 -5 8 -12 8 -7 8 -8 8 -12 0 -4 0 -5 4 -8 4
-3 4 -4 4 -8 0 -4 0 -5 4 -8 l4 -3 0 -37 0 -37 -4 -3 -4 -3 0 -9 0 -8 -8 -8
c-8 -7 -8 -8 -8 -12 0 -4 0 -4 -22 -26 l-22 -22 -4 0 c-4 0 -5 0 -8 -4 -3 -4
-4 -4 -8 -4 -4 0 -5 0 -8 -4 -3 -4 -4 -4 -8 -4 -4 0 -5 0 -8 -4 l-3 -4 -9 0
-8 0 -6 -6 c-6 -5 -6 -6 -6 -10 0 -4 0 -5 -4 -8 -4 -3 -4 -4 -4 -8 0 -4 0 -5
-8 -12 -8 -7 -8 -8 -8 -12 0 -4 0 -5 -8 -12 -8 -7 -8 -8 -8 -12 0 -3 -1 -5 -2
-6 -3 -3 -6 0 -6 6 0 4 0 5 -8 12 -8 7 -8 8 -8 12 0 4 0 5 -4 8 -4 3 -4 4 -4
8 0 4 0 5 -4 8 -4 3 -4 4 -4 8 0 4 0 4 -10 14 l-10 10 -8 0 -9 0 -3 4 c-3 4
-4 4 -8 4 -4 0 -5 0 -8 4 -3 4 -4 4 -8 4 -4 0 -5 0 -12 8 -7 8 -8 8 -12 8 -4
0 -4 0 -22 18 -18 18 -18 18 -18 22 0 4 0 5 -4 8 -4 3 -4 4 -4 8 0 4 0 5 -4 8
-4 3 -4 4 -4 8 0 4 0 5 -4 8 l-4 3 0 37 0 37 4 3 4 3 0 9 0 8 12 12 c12 11 12
12 12 16 0 4 1 5 10 14 9 9 10 10 14 10 4 0 5 0 16 12 12 12 12 12 16 12 4 0
5 0 8 4 3 4 4 4 8 4 4 0 5 0 8 4 l3 4 9 0 9 0 3 4 3 4 21 0 c19 0 21 0 23 2 1
2 1 2 0 4 -2 2 -4 2 -11 2 l-9 0 -3 4 -3 4 -9 0 -8 0 -8 -8z"/><path d="M178 430 c-1 -1 -2 -3 -2 -4 0 -2 -1 -2 -6 -2 l-6 0 -10 -10 -10 -10
0 -28 c0 -31 0 -32 6 -32 1 0 2 -1 2 -2 0 -2 1 -4 4 -6 4 -3 4 -4 4 -8 0 -4 0
-5 4 -8 4 -3 4 -4 4 -8 0 -4 0 -5 6 -10 3 -4 7 -6 8 -6 1 0 2 -1 2 -2 0 -2 1
-4 4 -6 4 -3 4 -4 4 -8 0 -4 0 -5 8 -12 8 -7 8 -8 8 -12 0 -6 2 -8 8 -8 6 0 8
-2 8 -8 0 -5 2 -8 6 -8 2 0 2 0 2 -6 0 -7 0 -7 4 -10 4 -3 4 -4 4 -8 0 -5 2
-8 6 -8 2 0 2 0 2 -6 0 -5 0 -7 2 -8 2 -2 2 -2 8 4 l6 6 0 8 0 8 8 8 8 8 0 6
c0 5 0 6 2 6 1 0 5 2 8 6 l6 6 0 6 c0 5 0 6 2 6 1 0 6 4 12 10 10 10 10 10 10
14 0 4 0 5 4 8 3 2 4 4 4 6 0 1 1 2 2 2 1 0 5 2 8 6 l6 6 0 6 c0 5 0 6 2 6 1
0 5 2 8 6 l6 6 0 8 0 9 4 3 4 3 0 13 0 13 -4 3 c-4 3 -4 4 -4 8 0 4 0 5 -6 10
-3 4 -7 6 -8 6 -1 0 -2 1 -2 2 0 4 -3 6 -8 6 -4 0 -5 0 -8 4 l-3 4 -21 0 -20
0 -6 -6 c-4 -3 -6 -7 -6 -8 0 -1 -1 -2 -2 -2 -2 0 -4 -1 -4 -2 -2 -2 -2 -2 0
-4 0 -1 2 -2 4 -2 2 0 2 0 2 -4 l0 -4 -12 0 c-12 0 -12 0 -12 2 0 3 -3 6 -6 6
-1 0 -2 1 -2 2 0 1 -4 6 -10 12 l-10 10 -20 0 c-19 0 -21 0 -22 -2z m5 -8 c1
-2 1 -2 -1 -4 -2 -2 -2 -2 -4 -1 -1 1 -2 3 -2 5 0 3 4 3 7 0z m95 -8 c1 -1 2
-2 2 -4 0 -1 1 -2 2 -2 2 0 4 -1 5 -2 1 -2 1 -2 0 -4 -1 -1 -3 -2 -5 -2 -1 0
-2 -1 -2 -2 0 -2 -1 -4 -2 -4 -2 -2 -2 -2 -4 0 -4 3 -3 6 2 6 l4 0 0 4 0 4 -4
0 -4 0 0 4 c0 5 3 6 6 2z m66 0 c0 -2 -1 -4 -2 -5 -2 -1 -2 -1 -4 1 -2 2 -2 2
-1 4 3 3 7 3 7 0z m-161 -8 c1 -2 1 -2 0 -4 -1 -1 -3 -2 -5 -2 -1 0 -2 -1 -2
-2 0 -3 -3 -6 -6 -6 l-2 0 0 -14 0 -15 4 -3 c3 -2 4 -4 4 -6 l0 -2 34 0 35 0
3 4 c2 3 4 4 6 4 1 0 2 1 2 2 0 2 1 4 2 5 2 1 2 1 4 -1 2 -2 2 -2 1 -4 -1 -1
-3 -2 -5 -2 -3 0 -3 -3 0 -6 1 -2 4 -2 34 -2 l32 0 8 8 c8 8 8 8 10 7 1 -2 2
-4 2 -7 0 -4 0 -4 -12 -16 l-12 -12 4 -4 c4 -4 4 -4 3 -6 -2 -1 -4 -2 -7 -2
-4 0 -5 0 -10 -6 l-6 -6 0 -8 0 -8 -6 -6 c-5 -5 -6 -6 -10 -6 -4 0 -5 -1 -10
-6 l-6 -6 4 -4 c4 -4 4 -4 3 -6 -2 -1 -4 -2 -7 -2 -7 0 -8 -2 -8 -12 l0 -8 -6
-6 c-6 -6 -6 -6 -8 -4 -2 1 -2 3 -2 10 0 10 -1 12 -8 12 -3 0 -5 1 -7 2 -1 2
-1 2 3 6 l4 4 -10 10 c-9 9 -10 10 -14 10 -4 0 -5 1 -10 6 l-6 6 4 4 4 4 -6 6
c-5 5 -6 6 -10 6 -7 0 -8 2 -8 12 0 10 -1 12 -8 12 -3 0 -5 1 -7 2 -1 2 -1 2
3 6 7 6 6 8 -4 8 -8 0 -8 0 -8 -2 0 -3 -3 -6 -6 -6 -1 0 -2 1 -2 2 0 3 3 6 6
6 l2 0 0 18 c0 20 1 22 6 22 1 0 2 1 2 2 0 3 3 6 6 6 1 0 2 1 2 2 0 2 3 6 4 6
0 0 2 -1 3 -2z m40 0 c1 -2 1 -2 -1 -4 l-2 -2 -2 2 c-2 2 -2 2 -1 4 1 1 3 2 3
2 0 0 2 -1 3 -2z m17 -2 l0 -4 4 0 c3 0 4 0 4 -2 0 -3 -3 -6 -6 -6 -1 0 -2 -1
-2 -2 0 -2 -1 -4 -2 -5 -2 -1 -2 -1 -4 1 -2 2 -2 2 -1 4 1 1 3 2 5 2 2 0 2 0
2 4 0 4 0 4 -2 4 -2 0 -4 1 -4 2 -2 2 -2 2 0 4 3 4 6 3 6 -2z m103 -14 c1 -2
1 -2 -1 -4 l-2 -2 -2 2 c-2 2 -2 2 -1 4 1 1 3 2 3 2 0 0 2 -1 3 -2z m-72 -8
c1 -2 1 -2 -1 -4 l-2 -2 -2 2 c-2 2 -2 2 -1 4 1 1 3 2 3 2 0 0 2 -1 3 -2z m87
0 c3 -2 3 -10 0 -12 -2 -2 -2 -2 -4 0 -3 2 -3 9 0 12 2 2 2 2 4 0z m-16 -48
c1 -1 2 -2 2 -4 0 -3 -4 -3 -6 0 -2 2 -2 2 0 4 2 2 2 2 4 0z m-16 -24 c1 -1 2
-2 2 -4 0 -3 -4 -3 -6 0 -2 2 -2 2 0 4 2 2 2 2 4 0z m-135 -8 c1 -2 1 -2 0 -4
-3 -3 -7 -3 -7 0 0 2 3 6 4 6 0 0 2 -1 3 -2z m103 -32 c1 -1 2 -2 2 -4 0 -3
-4 -3 -6 0 -2 2 -2 2 0 4 2 2 2 2 4 0z m-71 -8 c1 -2 1 -2 -1 -4 l-2 -2 -2 2
c-2 2 -2 2 -1 4 1 1 3 2 3 2 0 0 2 -1 3 -2z m55 -16 c1 -1 2 -2 2 -4 0 -3 -4
-3 -6 0 -2 2 -2 2 0 4 2 2 2 2 4 0z m-39 -8 c1 -2 1 -2 0 -4 -3 -3 -7 -3 -7 0
0 2 3 6 4 6 0 0 2 -1 3 -2z m16 -32 c1 -2 1 -2 0 -4 -3 -3 -7 -3 -7 0 0 2 3 6
4 6 0 0 2 -1 3 -2z"/><path d="M249 142 c-1 -2 -1 -2 1 -4 l2 -2 2 2 c2 2 2 2 1 4 -1 1 -3 2 -3 2 0
0 -2 -1 -3 -2z"/></g>
  <g transform="scale(0.125 0.125) translate(0.000000,512.000000) scale(1.000000,-1.000000)" fill="#ff0f87" stroke="none"><path d="M210 478 c-2 -2 -2 -2 0 -4 1 -2 3 -2 18 -2 15 0 17 0 19 2 1 2 1 2
0 4 -2 2 -4 2 -19 2 -15 0 -17 0 -18 -2z"/><path d="M258 478 c-2 -2 -2 -2 0 -4 1 -2 3 -2 18 -2 15 0 17 0 19 2 1 2 1 2
0 4 -2 2 -4 2 -19 2 -15 0 -17 0 -18 -2z"/><path d="M178 470 c-1 -1 -2 -3 -2 -4 0 -2 0 -2 -6 -2 -7 0 -10 -2 -10 -6 0
-2 0 -2 -6 -2 -7 0 -10 -2 -10 -6 0 -2 -1 -2 -6 -2 l-6 0 -10 -10 c-6 -6 -10
-11 -10 -12 0 -1 -1 -2 -2 -2 -3 0 -6 -3 -6 -6 0 -1 -1 -2 -2 -2 -3 0 -6 -3
-6 -6 0 -1 -1 -2 -2 -2 -1 0 -6 -4 -12 -10 l-10 -10 0 -6 c0 -6 0 -6 -2 -6 -5
0 -6 -3 -6 -14 0 -10 0 -10 -2 -10 -6 0 -6 0 -6 -44 l0 -41 4 -3 c4 -3 4 -4 4
-8 0 -4 0 -5 4 -8 4 -3 4 -4 4 -8 0 -4 0 -5 4 -8 4 -3 4 -4 4 -8 l0 -4 22 -22
c22 -22 22 -22 26 -22 4 0 5 0 12 -8 l8 -8 8 0 c7 0 9 0 10 -2 3 -3 3 -6 0 -6
-2 0 -4 -1 -5 -2 -1 -2 -1 -2 1 -4 2 -2 2 -2 4 -1 1 1 2 3 2 5 0 2 0 2 6 2 8
0 10 -2 10 -8 0 -4 0 -5 8 -12 8 -7 8 -8 8 -12 0 -4 1 -5 6 -10 3 -4 7 -6 8
-6 2 0 2 -1 2 -6 0 -7 2 -10 6 -10 2 0 2 0 2 -6 0 -7 0 -7 4 -10 4 -3 4 -4 4
-8 0 -4 0 -5 8 -12 8 -7 8 -8 8 -12 0 -3 1 -5 2 -6 2 -2 2 -2 8 4 l6 6 0 6 c0
6 0 6 2 6 4 0 6 3 6 10 0 5 0 6 2 6 1 0 5 2 8 6 l6 6 0 6 c0 6 0 6 2 6 4 0 6
3 6 10 0 6 0 6 2 6 4 0 6 3 6 8 0 4 0 5 8 12 8 7 8 8 8 12 0 6 2 8 10 8 6 0 6
0 6 -2 0 -2 1 -4 2 -5 2 -1 2 -1 4 1 2 2 2 2 1 4 -1 1 -3 2 -5 2 -1 0 -2 1 -2
2 0 4 3 6 8 6 4 0 5 0 8 -4 4 -4 4 -4 6 -3 1 2 2 4 2 7 0 6 10 16 16 16 4 0 5
0 26 22 l22 22 0 4 c0 4 0 5 4 8 4 3 4 3 4 10 0 6 0 6 2 6 4 0 6 3 6 8 0 4 0
5 4 8 l4 3 0 17 c0 15 0 17 2 19 3 2 6 -1 6 -7 0 -6 3 -9 6 -6 2 1 2 3 2 18 0
15 0 17 -2 19 -3 2 -6 -1 -6 -7 0 -6 -3 -9 -6 -6 -2 1 -2 3 -2 22 l0 21 -4 3
c-4 3 -4 4 -4 8 0 4 0 5 -4 8 -4 3 -4 4 -4 8 0 4 0 4 -10 14 -6 6 -11 10 -12
10 -1 0 -2 1 -2 2 0 3 -3 6 -6 6 -2 0 -2 0 -2 6 0 9 -1 10 -10 10 -5 0 -6 0
-6 2 0 1 -2 5 -6 8 l-6 6 -6 0 c-6 0 -6 0 -6 2 0 4 -3 6 -10 6 -6 0 -6 0 -6 2
0 4 -3 6 -10 6 -6 0 -6 0 -6 2 0 5 -3 6 -12 6 -7 0 -9 0 -10 -2 -2 -2 -2 -2 0
-4 1 -2 3 -2 12 -2 10 0 10 0 10 -2 0 -4 3 -6 10 -6 6 0 6 0 6 -2 0 -4 3 -6
10 -6 5 0 6 0 6 -2 0 -1 2 -5 6 -8 l6 -6 6 0 c5 0 6 0 6 -2 0 -3 11 -14 14
-14 1 0 2 -1 2 -2 0 -3 3 -6 6 -6 2 0 2 -1 2 -6 l0 -6 8 -8 c8 -7 8 -8 8 -12
0 -4 0 -5 4 -8 4 -3 4 -4 4 -8 0 -4 0 -5 4 -8 l4 -3 0 -37 0 -37 -4 -3 -4 -3
0 -11 c0 -9 0 -10 -2 -10 -1 0 -5 -2 -8 -6 -5 -5 -6 -6 -6 -10 0 -4 0 -5 -22
-26 l-22 -22 -4 0 c-4 0 -5 0 -8 -4 -3 -4 -4 -4 -8 -4 -4 0 -5 0 -8 -4 -3 -4
-4 -4 -8 -4 -4 0 -5 0 -8 -4 l-3 -4 -9 0 -8 0 -6 -6 c-6 -5 -6 -6 -6 -10 0 -4
0 -5 -4 -8 -4 -3 -4 -3 -4 -10 0 -5 0 -6 -2 -6 -1 0 -5 -2 -8 -6 -5 -5 -6 -6
-6 -10 0 -4 0 -5 -8 -12 -8 -7 -8 -8 -8 -12 0 -5 -2 -8 -6 -8 -2 0 -2 1 -2 6
l0 6 -6 6 c-3 4 -7 6 -8 6 -2 0 -2 1 -2 6 0 7 -2 10 -6 10 -2 0 -2 0 -2 6 0 7
-2 10 -6 10 -2 0 -2 0 -2 6 0 7 -2 10 -6 10 -1 0 -2 1 -2 2 0 1 -2 5 -6 8 l-6
6 -8 0 -9 0 -3 4 c-3 4 -4 4 -8 4 -4 0 -5 0 -8 4 -3 4 -4 4 -8 4 -4 0 -5 0
-12 8 -7 8 -8 8 -12 8 -4 0 -4 0 -22 18 -18 18 -18 18 -18 22 0 4 0 5 -4 8 -4
3 -4 4 -4 8 0 4 0 5 -4 8 -4 3 -4 4 -4 8 0 4 0 5 -4 8 l-4 3 0 39 0 38 2 0 c5
0 6 3 6 14 0 9 0 10 2 10 1 0 6 4 12 10 l10 10 0 6 c0 6 0 6 2 6 3 0 6 3 6 6
0 1 1 2 2 2 3 0 6 3 6 6 0 2 1 2 6 2 l6 0 10 10 c6 6 10 11 10 12 0 2 1 2 6 2
7 0 10 2 10 6 0 2 0 2 6 2 7 0 10 2 10 6 0 2 0 2 10 2 9 0 11 0 13 2 1 2 1 2
0 4 -3 3 -19 3 -21 0z m30 -328 c0 -2 -1 -4 -2 -5 -2 -1 -2 -1 -4 1 -2 2 -2 2
-1 4 3 3 7 3 7 0z m8 -16 c0 -2 -1 -4 -2 -5 -2 -1 -2 -1 -4 1 -2 2 -2 2 -1 4
3 3 7 3 7 0z m78 -8 c3 -2 3 -6 0 -6 -3 0 -6 3 -6 6 0 3 3 3 6 0z m-70 -8 c0
-3 -3 -6 -6 -6 -3 0 -3 3 0 6 2 3 6 3 6 0z m62 -8 c1 -1 2 -2 2 -4 0 -3 -4 -3
-6 0 -2 2 -2 2 0 4 2 2 2 2 4 0z m-54 -8 c0 -3 -3 -6 -6 -6 -3 0 -3 3 0 6 2 3
6 3 6 0z m38 -16 c1 -1 2 -2 2 -4 0 -3 -4 -3 -6 0 -2 2 -2 2 0 4 2 2 2 2 4 0z
m-22 -10 l0 -4 6 0 c7 0 10 -2 10 -6 0 -2 0 -2 -6 -2 -7 0 -10 2 -10 6 0 1 -1
2 -2 2 -2 0 -4 1 -4 2 -2 2 -2 2 0 4 3 4 6 3 6 -2z"/><path d="M178 430 c-1 -1 -2 -3 -2 -4 0 -2 0 -2 -6 -2 -7 0 -10 -2 -10 -6 0
-1 -1 -2 -2 -2 -3 0 -6 -3 -6 -6 0 -1 -1 -2 -2 -2 -5 0 -6 -3 -6 -12 l0 -9 4
-3 c4 -3 4 -4 4 -8 0 -4 0 -5 -4 -8 l-4 -3 0 -9 c0 -9 1 -12 6 -12 1 0 2 -1 2
-2 0 -4 3 -6 10 -6 8 0 8 -2 2 -8 l-4 -4 4 -4 c4 -3 4 -4 4 -8 0 -5 2 -8 6 -8
1 0 2 -1 2 -2 0 -3 3 -6 6 -6 1 0 2 -1 2 -2 0 -2 1 -4 4 -6 4 -3 4 -4 4 -8 0
-5 2 -8 6 -8 1 0 2 -1 2 -2 0 -3 3 -6 6 -6 2 0 2 0 2 -6 0 -9 1 -10 14 -10
l10 0 0 -4 c0 -4 0 -4 -2 -4 -2 0 -4 -1 -4 -2 -2 -2 -2 -2 0 -4 0 -1 2 -2 4
-2 2 0 2 0 2 -6 0 -7 0 -7 4 -10 4 -3 4 -4 4 -8 0 -5 2 -8 6 -8 2 0 2 0 2 -6
0 -5 0 -7 2 -8 2 -2 2 -2 8 4 6 5 6 6 6 10 0 5 -2 8 -6 8 -1 0 -2 1 -2 2 0 4
3 6 8 6 5 0 8 2 8 6 0 1 1 2 2 2 4 0 6 3 6 10 0 6 0 6 2 6 3 0 6 3 6 6 0 1 1
2 2 2 4 0 6 3 6 10 0 6 0 6 2 6 3 0 6 3 6 6 0 1 1 2 2 2 1 0 5 2 8 6 6 5 6 6
6 10 0 4 0 5 4 8 3 2 4 4 4 6 0 1 1 2 2 2 3 0 6 3 6 6 0 1 1 2 2 2 4 0 6 3 6
10 0 6 0 6 2 6 3 0 6 3 6 6 0 1 1 2 2 2 5 0 6 3 6 14 0 10 0 10 2 10 5 0 6 3
6 16 0 14 -1 16 -6 16 -2 0 -2 1 -2 6 l0 6 -6 6 c-3 4 -7 6 -8 6 -1 0 -2 1 -2
2 0 2 -1 4 -2 5 -2 1 -2 1 -4 0 -1 -1 -2 -3 -2 -5 0 -1 -1 -2 -2 -2 -4 0 -6 3
-6 8 0 8 0 8 -24 8 -22 0 -24 0 -24 -6 0 -1 -1 -2 -2 -2 -3 0 -6 -3 -6 -6 0
-1 -1 -2 -2 -2 -2 0 -4 -1 -4 -2 -2 -2 -2 -2 0 -4 0 -1 2 -2 4 -2 2 0 2 0 2
-4 0 -3 0 -4 -2 -4 -2 0 -4 -2 -6 -4 l-4 -4 -4 4 c-2 2 -4 4 -6 4 -1 0 -2 1
-2 2 0 3 -3 6 -6 6 -1 0 -2 1 -2 2 0 3 -11 14 -14 14 -1 0 -2 1 -2 2 0 6 -2 6
-24 6 -19 0 -21 0 -22 -2z m5 -8 c1 -2 1 -2 -1 -4 -2 -2 -2 -2 -4 -1 -1 1 -2
3 -2 5 0 3 4 3 7 0z m41 0 c0 -2 -1 -4 -2 -5 -2 -1 -2 -1 -4 1 -2 2 -2 2 -1 4
3 3 7 3 7 0z m63 0 c1 -2 1 -2 0 -4 -1 -1 -3 -2 -5 -2 -2 0 -2 0 -2 -4 0 -4 0
-4 2 -4 2 0 4 -1 5 -2 1 -2 1 -2 0 -4 -1 -1 -3 -2 -5 -2 -1 0 -2 -1 -2 -2 0
-2 -1 -4 -2 -4 -2 -2 -2 -2 -4 0 -4 3 -3 6 2 6 l4 0 0 4 0 4 -4 0 -4 0 0 4 0
4 4 0 4 0 0 4 c0 5 3 6 7 2z m-120 -8 c1 -2 1 -2 0 -4 -1 -1 -3 -2 -5 -2 -1 0
-2 -1 -2 -2 0 -2 -1 -4 -2 -4 -2 -2 -2 -2 -4 0 -4 3 -3 6 2 6 l4 0 0 4 c0 5 3
6 7 2z m177 0 c0 -2 -1 -4 -2 -4 -2 -2 -2 -2 -4 0 -4 3 -3 6 2 6 4 0 4 0 4 -2z
m-161 -8 c1 -2 1 -2 0 -4 -1 -1 -3 -2 -5 -2 -1 0 -2 -1 -2 -2 0 -3 -3 -6 -6
-6 l-2 0 0 -14 0 -15 4 -3 c3 -2 4 -4 4 -6 l0 -2 34 0 35 0 3 4 c2 3 4 4 6 4
1 0 2 1 2 2 0 2 1 4 2 5 2 1 2 1 4 -1 2 -2 2 -2 1 -4 -1 -1 -3 -2 -5 -2 -3 0
-3 -3 0 -6 1 -2 4 -2 34 -2 l32 0 8 8 c8 8 8 8 10 7 1 -2 2 -4 2 -7 0 -4 0 -5
-4 -8 -4 -3 -4 -3 -4 -10 l0 -6 4 0 c4 0 4 0 4 2 0 2 1 4 2 5 2 1 2 1 4 0 4
-4 3 -7 -2 -7 l-4 0 0 -4 c0 -3 0 -4 -2 -4 -3 0 -6 3 -6 6 0 3 -12 3 -15 0 -1
-2 -1 -2 3 -6 2 -2 4 -4 4 -6 0 -1 1 -2 2 -2 3 0 6 -3 6 -6 0 -2 0 -2 -4 -2
l-4 0 0 -4 c0 -5 -3 -6 -6 -2 -2 2 -2 2 0 4 0 1 2 2 4 2 2 0 2 0 2 4 l0 4 -6
0 -6 0 -6 -6 -6 -6 0 -8 0 -9 -4 -3 c-5 -4 -6 -8 -2 -8 3 0 6 -3 6 -6 0 -2 0
-2 -4 -2 l-4 0 0 -4 c0 -5 -3 -6 -6 -2 -2 2 -2 2 0 4 0 1 2 2 4 2 2 0 2 0 2 4
l0 4 -6 0 -6 0 -6 -6 -6 -6 4 -4 c2 -2 4 -4 4 -6 0 -1 1 -2 2 -2 3 0 6 -3 6
-6 0 -2 0 -2 -4 -2 l-4 0 0 -4 c0 -5 -3 -6 -6 -2 -2 2 -2 2 0 4 0 1 2 2 4 2 2
0 2 0 2 4 l0 4 -6 0 c-9 0 -10 -1 -10 -14 0 -10 0 -10 2 -10 3 0 6 -3 6 -6 0
-1 -1 -2 -2 -2 -3 0 -6 3 -6 6 0 4 -4 3 -8 -2 -4 -4 -4 -4 -6 -3 -2 2 -2 3 -2
11 0 11 -1 12 -10 12 -8 0 -8 2 -2 8 l4 4 -6 6 -6 6 -6 0 -6 0 0 -4 c0 -4 0
-4 2 -4 2 0 4 -1 5 -2 1 -2 1 -2 -1 -4 -2 -2 -2 -2 -4 -1 -1 1 -2 3 -2 5 0 2
0 2 -4 2 l-4 0 0 4 0 4 -4 0 c-3 0 -4 0 -4 2 0 3 3 6 6 6 4 0 3 4 -2 8 l-4 4
4 4 c4 4 4 4 3 6 -3 3 -15 3 -15 0 0 -3 -3 -6 -6 -6 -2 0 -2 0 -2 4 l0 4 -4 0
c-3 0 -4 0 -4 2 0 3 3 6 6 6 2 0 2 0 2 10 0 13 -1 14 -10 14 -6 0 -6 0 -6 2 0
2 1 4 4 6 3 2 4 4 4 6 0 2 0 2 -8 2 -8 0 -8 0 -8 -2 0 -3 -3 -6 -6 -6 -1 0 -2
1 -2 2 0 3 3 6 6 6 l2 0 0 18 c0 20 1 22 6 22 1 0 2 1 2 2 0 3 3 6 6 6 1 0 2
1 2 2 0 2 3 6 4 6 0 0 2 -1 3 -2z m40 0 c1 -2 1 -2 -1 -4 l-2 -2 -2 2 c-2 2
-2 2 -1 4 1 1 3 2 3 2 0 0 2 -1 3 -2z m17 -2 l0 -4 4 0 c3 0 4 0 4 -2 0 -3 -3
-6 -6 -6 -1 0 -2 -1 -2 -2 0 -2 -1 -4 -2 -5 -2 -1 -2 -1 -4 1 -2 2 -2 2 -1 4
1 1 3 2 5 2 2 0 2 0 2 4 0 4 0 4 -2 4 -2 0 -4 1 -4 2 -2 2 -2 2 0 4 3 4 6 3 6
-2z m103 -14 c1 -2 1 -2 -1 -4 l-2 -2 -2 2 c-2 2 -2 2 -1 4 1 1 3 2 3 2 0 0 2
-1 3 -2z m17 -14 c0 -16 0 -16 -2 -16 -5 0 -6 2 -6 16 0 13 1 16 6 16 l2 0 0
-16z m-89 6 c1 -2 1 -2 -1 -4 l-2 -2 -2 2 c-2 2 -2 2 -1 4 1 1 3 2 3 2 0 0 2
-1 3 -2z m-32 -144 c1 -2 1 -2 0 -4 -4 -4 -7 -3 -7 2 0 5 3 6 7 2z m17 -32 c0
-3 -3 -6 -6 -6 -3 0 -3 3 0 6 2 3 6 3 6 0z"/><path d="M184 308 l0 -4 4 0 c4 0 4 0 4 2 0 3 -3 6 -6 6 -2 0 -2 -1 -2 -4z"/><path d="M208 276 l0 -4 4 0 c4 0 4 0 4 2 0 3 -3 6 -6 6 -2 0 -2 -1 -2 -4z"/><path d="M249 142 c-1 -2 -1 -2 1 -4 l2 -2 2 2 c2 2 2 2 1 4 -1 1 -3 2 -3 2 0
0 -2 -1 -3 -2z"/></g>
  <g transform="scale(0.125 0.125) translate(0.000000,512.000000) scale(1.000000,-1.000000)" fill="#000000" stroke="none"><path d="M210 478 c-2 -2 -2 -2 0 -4 1 -2 3 -2 18 -2 15 0 17 0 19 2 1 2 1 2
0 4 -2 2 -4 2 -19 2 -15 0 -17 0 -18 -2z"/><path d="M258 478 c-2 -2 -2 -2 0 -4 1 -2 3 -2 18 -2 15 0 17 0 19 2 1 2 1 2
0 4 -2 2 -4 2 -19 2 -15 0 -17 0 -18 -2z"/><path d="M178 470 c-1 -1 -2 -3 -2 -4 0 -2 0 -2 -6 -2 -7 0 -10 -2 -10 -6 0
-2 0 -2 -6 -2 -7 0 -10 -2 -10 -6 0 -2 -1 -2 -6 -2 l-6 0 -10 -10 c-6 -6 -10
-11 -10 -12 0 -1 -1 -2 -2 -2 -3 0 -6 -3 -6 -6 0 -1 -1 -2 -2 -2 -3 0 -6 -3
-6 -6 0 -1 -1 -2 -2 -2 -1 0 -6 -4 -12 -10 l-10 -10 0 -6 c0 -6 0 -6 -2 -6 -5
0 -6 -3 -6 -14 0 -10 0 -10 -2 -10 -6 0 -6 0 -6 -44 l0 -41 4 -3 c4 -3 4 -4 4
-8 0 -4 0 -5 4 -8 4 -3 4 -4 4 -8 0 -4 0 -5 4 -8 4 -3 4 -4 4 -8 l0 -4 22 -22
c22 -22 22 -22 26 -22 4 0 5 0 12 -8 l8 -8 8 0 c7 0 9 0 10 -2 3 -3 3 -6 0 -6
-2 0 -4 -1 -5 -2 -1 -2 -1 -2 1 -4 2 -2 2 -2 4 -1 1 1 2 3 2 5 0 2 0 2 6 2 8
0 10 -2 10 -8 0 -4 0 -5 8 -12 8 -7 8 -8 8 -12 0 -4 1 -5 6 -10 3 -4 7 -6 8
-6 2 0 2 -1 2 -6 0 -7 2 -10 6 -10 2 0 2 0 2 -6 0 -7 0 -7 4 -10 4 -3 4 -4 4
-8 0 -4 0 -5 8 -12 8 -7 8 -8 8 -12 0 -3 1 -5 2 -6 2 -2 2 -2 8 4 l6 6 0 6 c0
6 0 6 2 6 4 0 6 3 6 10 0 5 0 6 2 6 1 0 5 2 8 6 l6 6 0 6 c0 6 0 6 2 6 4 0 6
3 6 10 0 6 0 6 2 6 4 0 6 3 6 8 0 4 0 5 8 12 8 7 8 8 8 12 0 6 2 8 10 8 6 0 6
0 6 -2 0 -2 1 -4 2 -5 2 -1 2 -1 4 1 2 2 2 2 1 4 -1 1 -3 2 -5 2 -1 0 -2 1 -2
2 0 4 3 6 8 6 4 0 5 0 8 -4 4 -4 4 -4 6 -3 1 2 2 4 2 7 0 6 10 16 16 16 4 0 5
0 26 22 l22 22 0 4 c0 4 0 5 4 8 4 3 4 3 4 10 0 6 0 6 2 6 4 0 6 3 6 8 0 4 0
5 4 8 l4 3 0 17 c0 15 0 17 2 19 3 2 6 -1 6 -7 0 -6 3 -9 6 -6 2 1 2 3 2 18 0
15 0 17 -2 19 -3 2 -6 -1 -6 -7 0 -6 -3 -9 -6 -6 -2 1 -2 3 -2 22 l0 21 -4 3
c-4 3 -4 4 -4 8 0 4 0 5 -4 8 -4 3 -4 4 -4 8 0 4 0 4 -10 14 -6 6 -11 10 -12
10 -1 0 -2 1 -2 2 0 3 -3 6 -6 6 -2 0 -2 0 -2 6 0 9 -1 10 -10 10 -5 0 -6 0
-6 2 0 1 -2 5 -6 8 l-6 6 -6 0 c-6 0 -6 0 -6 2 0 4 -3 6 -10 6 -6 0 -6 0 -6 2
0 4 -3 6 -10 6 -6 0 -6 0 -6 2 0 5 -3 6 -12 6 -7 0 -9 0 -10 -2 -2 -2 -2 -2 0
-4 1 -2 3 -2 12 -2 10 0 10 0 10 -2 0 -4 3 -6 10 -6 6 0 6 0 6 -2 0 -4 3 -6
10 -6 5 0 6 0 6 -2 0 -1 2 -5 6 -8 l6 -6 6 0 c5 0 6 0 6 -2 0 -3 11 -14 14
-14 1 0 2 -1 2 -2 0 -3 3 -6 6 -6 2 0 2 -1 2 -6 l0 -6 8 -8 c8 -7 8 -8 8 -12
0 -4 0 -5 4 -8 4 -3 4 -4 4 -8 0 -4 0 -5 4 -8 l4 -3 0 -37 0 -37 -4 -3 -4 -3
0 -11 c0 -9 0 -10 -2 -10 -1 0 -5 -2 -8 -6 -5 -5 -6 -6 -6 -10 0 -4 0 -5 -22
-26 l-22 -22 -4 0 c-4 0 -5 0 -8 -4 -3 -4 -4 -4 -8 -4 -4 0 -5 0 -8 -4 -3 -4
-4 -4 -8 -4 -4 0 -5 0 -8 -4 l-3 -4 -9 0 -8 0 -6 -6 c-6 -5 -6 -6 -6 -10 0 -4
0 -5 -4 -8 -4 -3 -4 -3 -4 -10 0 -5 0 -6 -2 -6 -1 0 -5 -2 -8 -6 -5 -5 -6 -6
-6 -10 0 -4 0 -5 -8 -12 -8 -7 -8 -8 -8 -12 0 -5 -2 -8 -6 -8 -2 0 -2 1 -2 6
l0 6 -6 6 c-3 4 -7 6 -8 6 -2 0 -2 1 -2 6 0 7 -2 10 -6 10 -2 0 -2 0 -2 6 0 7
-2 10 -6 10 -2 0 -2 0 -2 6 0 7 -2 10 -6 10 -1 0 -2 1 -2 2 0 1 -2 5 -6 8 l-6
6 -8 0 -9 0 -3 4 c-3 4 -4 4 -8 4 -4 0 -5 0 -8 4 -3 4 -4 4 -8 4 -4 0 -5 0
-12 8 -7 8 -8 8 -12 8 -4 0 -4 0 -22 18 -18 18 -18 18 -18 22 0 4 0 5 -4 8 -4
3 -4 4 -4 8 0 4 0 5 -4 8 -4 3 -4 4 -4 8 0 4 0 5 -4 8 l-4 3 0 39 0 38 2 0 c5
0 6 3 6 14 0 9 0 10 2 10 1 0 6 4 12 10 l10 10 0 6 c0 6 0 6 2 6 3 0 6 3 6 6
0 1 1 2 2 2 3 0 6 3 6 6 0 2 1 2 6 2 l6 0 10 10 c6 6 10 11 10 12 0 2 1 2 6 2
7 0 10 2 10 6 0 2 0 2 6 2 7 0 10 2 10 6 0 2 0 2 10 2 9 0 11 0 13 2 1 2 1 2
0 4 -3 3 -19 3 -21 0z m30 -328 c0 -2 -1 -4 -2 -5 -2 -1 -2 -1 -4 1 -2 2 -2 2
-1 4 3 3 7 3 7 0z m8 -16 c0 -2 -1 -4 -2 -5 -2 -1 -2 -1 -4 1 -2 2 -2 2 -1 4
3 3 7 3 7 0z m78 -8 c3 -2 3 -6 0 -6 -3 0 -6 3 -6 6 0 3 3 3 6 0z m-70 -8 c0
-3 -3 -6 -6 -6 -3 0 -3 3 0 6 2 3 6 3 6 0z m62 -8 c1 -1 2 -2 2 -4 0 -3 -4 -3
-6 0 -2 2 -2 2 0 4 2 2 2 2 4 0z m-54 -8 c0 -3 -3 -6 -6 -6 -3 0 -3 3 0 6 2 3
6 3 6 0z m38 -16 c1 -1 2 -2 2 -4 0 -3 -4 -3 -6 0 -2 2 -2 2 0 4 2 2 2 2 4 0z
m-22 -10 l0 -4 6 0 c7 0 10 -2 10 -6 0 -2 0 -2 -6 -2 -7 0 -10 2 -10 6 0 1 -1
2 -2 2 -2 0 -4 1 -4 2 -2 2 -2 2 0 4 3 4 6 3 6 -2z"/><path d="M178 430 c-1 -1 -2 -3 -2 -4 0 -2 0 -2 -6 -2 -7 0 -10 -2 -10 -6 0
-1 -1 -2 -2 -2 -3 0 -6 -3 -6 -6 0 -1 -1 -2 -2 -2 -5 0 -6 -3 -6 -12 l0 -9 4
-3 c4 -3 4 -4 4 -8 0 -4 0 -5 -4 -8 l-4 -3 0 -9 c0 -9 1 -12 6 -12 1 0 2 -1 2
-2 0 -4 3 -6 10 -6 8 0 8 -2 2 -8 l-4 -4 4 -4 c4 -3 4 -4 4 -8 0 -5 2 -8 6 -8
1 0 2 -1 2 -2 0 -3 3 -6 6 -6 1 0 2 -1 2 -2 0 -2 1 -4 4 -6 4 -3 4 -4 4 -8 0
-5 2 -8 6 -8 1 0 2 -1 2 -2 0 -3 3 -6 6 -6 2 0 2 0 2 -6 0 -9 1 -10 14 -10
l10 0 0 -4 c0 -4 0 -4 -2 -4 -2 0 -4 -1 -4 -2 -2 -2 -2 -2 0 -4 0 -1 2 -2 4
-2 2 0 2 0 2 -6 0 -7 0 -7 4 -10 4 -3 4 -4 4 -8 0 -5 2 -8 6 -8 2 0 2 0 2 -6
0 -5 0 -7 2 -8 2 -2 2 -2 8 4 6 5 6 6 6 10 0 5 -2 8 -6 8 -1 0 -2 1 -2 2 0 4
3 6 8 6 5 0 8 2 8 6 0 1 1 2 2 2 4 0 6 3 6 10 0 6 0 6 2 6 3 0 6 3 6 6 0 1 1
2 2 2 4 0 6 3 6 10 0 6 0 6 2 6 3 0 6 3 6 6 0 1 1 2 2 2 1 0 5 2 8 6 6 5 6 6
6 10 0 4 0 5 4 8 3 2 4 4 4 6 0 1 1 2 2 2 3 0 6 3 6 6 0 1 1 2 2 2 4 0 6 3 6
10 0 6 0 6 2 6 3 0 6 3 6 6 0 1 1 2 2 2 5 0 6 3 6 14 0 10 0 10 2 10 5 0 6 3
6 16 0 14 -1 16 -6 16 -2 0 -2 1 -2 6 l0 6 -6 6 c-3 4 -7 6 -8 6 -1 0 -2 1 -2
2 0 2 -1 4 -2 5 -2 1 -2 1 -4 0 -1 -1 -2 -3 -2 -5 0 -1 -1 -2 -2 -2 -4 0 -6 3
-6 8 0 8 0 8 -24 8 -22 0 -24 0 -24 -6 0 -1 -1 -2 -2 -2 -3 0 -6 -3 -6 -6 0
-1 -1 -2 -2 -2 -2 0 -4 -1 -4 -2 -2 -2 -2 -2 0 -4 0 -1 2 -2 4 -2 2 0 2 0 2
-4 0 -3 0 -4 -2 -4 -2 0 -4 -2 -6 -4 l-4 -4 -4 4 c-2 2 -4 4 -6 4 -1 0 -2 1
-2 2 0 3 -3 6 -6 6 -1 0 -2 1 -2 2 0 3 -11 14 -14 14 -1 0 -2 1 -2 2 0 6 -2 6
-24 6 -19 0 -21 0 -22 -2z m5 -8 c1 -2 1 -2 -1 -4 -2 -2 -2 -2 -4 -1 -1 1 -2
3 -2 5 0 3 4 3 7 0z m41 0 c0 -2 -1 -4 -2 -5 -2 -1 -2 -1 -4 1 -2 2 -2 2 -1 4
3 3 7 3 7 0z m63 0 c1 -2 1 -2 0 -4 -1 -1 -3 -2 -5 -2 -2 0 -2 0 -2 -4 0 -3 0
-4 2 -4 2 0 4 -2 6 -4 l4 -4 4 4 c3 4 4 4 8 4 4 0 5 0 8 -4 3 -4 4 -4 8 -4 4
0 5 0 8 -4 3 -4 4 -4 8 -4 3 0 5 -1 7 -2 1 -2 1 -2 -3 -6 -4 -3 -4 -4 -4 -8 0
-4 0 -5 4 -8 4 -3 4 -4 4 -8 0 -4 0 -5 -4 -8 -4 -3 -4 -3 -4 -10 l0 -6 4 0 c4
0 4 0 4 2 0 2 1 4 2 5 2 1 2 1 4 0 4 -4 3 -7 -2 -7 l-4 0 0 -4 c0 -3 0 -4 -2
-4 -3 0 -6 3 -6 6 0 3 -12 3 -15 0 -1 -2 -1 -2 3 -6 2 -2 4 -4 4 -6 0 -1 1 -2
2 -2 3 0 6 -3 6 -6 0 -2 0 -2 -4 -2 l-4 0 0 -4 c0 -5 -3 -6 -6 -2 -2 2 -2 2 0
4 0 1 2 2 4 2 2 0 2 0 2 4 l0 4 -6 0 -6 0 -6 -6 -6 -6 0 -8 0 -9 -4 -3 c-5 -4
-6 -8 -2 -8 3 0 6 -3 6 -6 0 -2 0 -2 -4 -2 l-4 0 0 -4 c0 -5 -3 -6 -6 -2 -2 2
-2 2 0 4 0 1 2 2 4 2 2 0 2 0 2 4 l0 4 -6 0 -6 0 -6 -6 -6 -6 4 -4 c2 -2 4 -4
4 -6 0 -1 1 -2 2 -2 3 0 6 -3 6 -6 0 -2 0 -2 -4 -2 l-4 0 0 -4 c0 -5 -3 -6 -6
-2 -2 2 -2 2 0 4 0 1 2 2 4 2 2 0 2 0 2 4 l0 4 -6 0 c-9 0 -10 -1 -10 -14 0
-10 0 -10 2 -10 3 0 6 -3 6 -6 0 -1 -1 -2 -2 -2 -3 0 -6 3 -6 6 0 4 -4 3 -8
-2 -4 -4 -4 -4 -6 -3 -2 2 -2 3 -2 11 0 11 -1 12 -10 12 -8 0 -8 2 -2 8 l4 4
-6 6 -6 6 -6 0 -6 0 0 -4 c0 -4 0 -4 2 -4 2 0 4 -1 5 -2 1 -2 1 -2 -1 -4 -2
-2 -2 -2 -4 -1 -1 1 -2 3 -2 5 0 2 0 2 -4 2 l-4 0 0 4 0 4 -4 0 c-3 0 -4 0 -4
2 0 3 3 6 6 6 4 0 3 4 -2 8 l-4 4 4 4 c4 4 4 4 3 6 -3 3 -15 3 -15 0 0 -3 -3
-6 -6 -6 -2 0 -2 0 -2 4 l0 4 -4 0 c-3 0 -4 0 -4 2 0 3 3 6 6 6 2 0 2 0 2 10
0 13 -1 14 -10 14 -8 0 -8 2 -2 8 4 4 4 4 3 6 -3 3 -15 3 -15 0 0 -3 -3 -6 -6
-6 -1 0 -2 1 -2 2 0 3 3 6 6 6 l2 0 0 18 0 18 10 10 10 10 4 -4 4 -4 4 4 c5 6
11 6 16 0 l4 -4 4 4 c4 4 4 4 6 3 1 -2 2 -4 2 -7 0 -6 2 -8 10 -8 l6 0 0 4 c0
4 0 4 -2 4 -2 0 -4 1 -4 2 -2 2 -2 2 0 4 3 4 6 3 6 -2 l0 -4 4 0 c3 0 4 0 4
-2 0 -3 -3 -6 -6 -6 -1 0 -2 -1 -2 -2 0 -2 -2 -4 -4 -6 l-4 -4 4 -4 c4 -3 4
-4 4 -8 0 -6 2 -8 8 -8 4 0 5 0 8 4 3 4 4 4 8 4 3 0 5 1 7 2 1 2 1 2 -3 6 l-4
4 4 4 c4 3 4 4 4 10 0 6 0 6 2 6 3 0 6 3 6 6 0 2 0 2 -4 2 l-4 0 0 4 0 4 4 0
4 0 0 4 c0 5 3 6 7 2z m-120 -8 c1 -2 1 -2 0 -4 -1 -1 -3 -2 -5 -2 -1 0 -2 -1
-2 -2 0 -2 -1 -4 -2 -4 -2 -2 -2 -2 -4 0 -4 3 -3 6 2 6 l4 0 0 4 c0 5 3 6 7 2z
m177 0 c0 -2 -1 -4 -2 -4 -2 -2 -2 -2 -4 0 -4 3 -3 6 2 6 4 0 4 0 4 -2z m16
-38 c0 -16 0 -16 -2 -16 -5 0 -6 2 -6 16 0 13 1 16 6 16 l2 0 0 -16z m-121
-138 c1 -2 1 -2 0 -4 -4 -4 -7 -3 -7 2 0 5 3 6 7 2z m17 -32 c0 -3 -3 -6 -6
-6 -3 0 -3 3 0 6 2 3 6 3 6 0z"/><path d="M184 308 l0 -4 4 0 c4 0 4 0 4 2 0 3 -3 6 -6 6 -2 0 -2 -1 -2 -4z"/><path d="M208 276 l0 -4 4 0 c4 0 4 0 4 2 0 3 -3 6 -6 6 -2 0 -2 -1 -2 -4z"/><path d="M249 142 c-1 -2 -1 -2 1 -4 l2 -2 2 2 c2 2 2 2 1 4 -1 1 -3 2 -3 2 0
0 -2 -1 -3 -2z"/></g>
  <g transform="scale(0.125 0.125) translate(0.000000,512.000000) scale(1.000000,-1.000000)" fill="#c0c0c0" stroke="none"><path d="M210 478 c-2 -2 -2 -2 0 -4 1 -2 3 -2 18 -2 15 0 17 0 19 2 1 2 1 2
0 4 -2 2 -4 2 -19 2 -15 0 -17 0 -18 -2z"/><path d="M258 478 c-2 -2 -2 -2 0 -4 1 -2 3 -2 18 -2 15 0 17 0 19 2 1 2 1 2
0 4 -2 2 -4 2 -19 2 -15 0 -17 0 -18 -2z"/><path d="M178 470 c-1 -1 -2 -3 -2 -4 0 -2 0 -2 -6 -2 -7 0 -10 -2 -10 -6 0
-2 0 -2 -6 -2 -7 0 -10 -2 -10 -6 0 -2 -1 -2 -6 -2 l-6 0 -10 -10 c-6 -6 -10
-11 -10 -12 0 -1 -1 -2 -2 -2 -3 0 -6 -3 -6 -6 0 -1 -1 -2 -2 -2 -3 0 -6 -3
-6 -6 0 -1 -1 -2 -2 -2 -1 0 -6 -4 -12 -10 l-10 -10 0 -6 c0 -6 0 -6 -2 -6 -5
0 -6 -3 -6 -14 0 -10 0 -10 -2 -10 -6 0 -6 0 -6 -44 l0 -41 4 -3 c4 -3 4 -4 4
-8 0 -4 0 -5 4 -8 4 -3 4 -4 4 -8 0 -4 0 -5 4 -8 4 -3 4 -4 4 -8 l0 -4 22 -22
c22 -22 22 -22 26 -22 4 0 5 0 12 -8 l8 -8 8 0 c7 0 9 0 10 -2 3 -3 3 -6 0 -6
-2 0 -4 -1 -5 -2 -1 -2 -1 -2 1 -4 2 -2 2 -2 4 -1 1 1 2 3 2 5 0 2 0 2 6 2 8
0 10 -2 10 -8 0 -4 1 -5 6 -10 l6 -6 10 0 10 0 0 -6 c0 -7 2 -10 6 -10 2 0 2
0 2 -6 0 -7 2 -10 6 -10 2 0 2 -1 2 -6 l0 -6 6 -6 c3 -4 7 -6 8 -6 1 0 2 -1 2
-2 0 -4 3 -6 8 -6 6 0 8 2 8 8 0 6 2 8 8 8 7 0 8 2 8 12 l0 9 4 3 c4 3 4 3 4
10 0 6 0 6 2 6 2 0 4 1 6 4 3 4 4 4 8 4 4 0 5 0 10 6 6 5 6 6 6 10 0 6 2 8 10
8 6 0 6 0 6 -2 0 -2 1 -4 2 -5 2 -1 2 -1 4 1 2 2 2 2 1 4 -1 1 -3 2 -5 2 -1 0
-2 1 -2 2 0 4 3 6 8 6 4 0 5 0 8 -4 4 -4 4 -4 6 -3 1 2 2 4 2 7 0 6 10 16 16
16 4 0 5 0 26 22 l22 22 0 4 c0 4 0 5 4 8 4 3 4 3 4 10 0 6 0 6 2 6 4 0 6 3 6
8 0 4 0 5 4 8 l4 3 0 17 0 17 4 3 5 4 -5 4 -4 4 0 20 0 21 -4 3 c-4 3 -4 4 -4
8 0 4 0 5 -4 8 -4 3 -4 4 -4 8 0 4 0 4 -10 14 -6 6 -11 10 -12 10 -1 0 -2 1
-2 2 0 3 -3 6 -6 6 -2 0 -2 0 -2 6 0 9 -1 10 -10 10 -5 0 -6 0 -6 2 0 1 -2 5
-6 8 l-6 6 -6 0 c-6 0 -6 0 -6 2 0 4 -3 6 -10 6 -6 0 -6 0 -6 2 0 4 -3 6 -10
6 -6 0 -6 0 -6 2 0 5 -3 6 -12 6 -7 0 -9 0 -10 -2 -2 -2 -2 -2 0 -4 1 -2 3 -2
12 -2 10 0 10 0 10 -2 0 -4 3 -6 10 -6 6 0 6 0 6 -2 0 -4 3 -6 10 -6 5 0 6 0
6 -2 0 -1 2 -5 6 -8 l6 -6 6 0 c5 0 6 0 6 -2 0 -3 11 -14 14 -14 1 0 2 -1 2
-2 0 -3 3 -6 6 -6 2 0 2 -1 2 -6 l0 -6 8 -8 c8 -7 8 -8 8 -12 0 -4 0 -5 4 -8
4 -3 4 -4 4 -8 0 -4 0 -5 4 -8 l4 -3 0 -37 0 -37 -4 -3 -4 -3 0 -11 c0 -9 0
-10 -2 -10 -1 0 -5 -2 -8 -6 -5 -5 -6 -6 -6 -10 0 -4 0 -5 -22 -26 l-22 -22
-4 0 c-4 0 -5 0 -8 -4 -3 -4 -4 -4 -8 -4 -4 0 -5 0 -8 -4 -3 -4 -4 -4 -8 -4
-4 0 -5 0 -8 -4 l-3 -4 -9 0 -8 0 -6 -6 c-6 -5 -6 -6 -6 -10 0 -4 0 -5 -4 -8
-4 -3 -4 -3 -4 -10 0 -5 0 -6 -2 -6 -1 0 -5 -2 -8 -6 -5 -5 -6 -6 -6 -10 0 -4
0 -5 -8 -12 -8 -7 -8 -8 -8 -12 0 -5 -2 -8 -6 -8 -2 0 -2 1 -2 6 l0 6 -6 6
c-3 4 -7 6 -8 6 -2 0 -2 1 -2 6 0 7 -2 10 -6 10 -2 0 -2 0 -2 6 0 7 -2 10 -6
10 -2 0 -2 0 -2 6 0 7 -2 10 -6 10 -1 0 -2 1 -2 2 0 1 -2 5 -6 8 l-6 6 -8 0
-9 0 -3 4 c-3 4 -4 4 -8 4 -4 0 -5 0 -8 4 -3 4 -4 4 -8 4 -4 0 -5 0 -12 8 -7
8 -8 8 -12 8 -4 0 -4 0 -22 18 -18 18 -18 18 -18 22 0 4 0 5 -4 8 -4 3 -4 4
-4 8 0 4 0 5 -4 8 -4 3 -4 4 -4 8 0 4 0 5 -4 8 l-4 3 0 39 0 38 2 0 c5 0 6 3
6 14 0 9 0 10 2 10 1 0 6 4 12 10 l10 10 0 6 c0 6 0 6 2 6 3 0 6 3 6 6 0 1 1
2 2 2 3 0 6 3 6 6 0 2 1 2 6 2 l6 0 10 10 c6 6 10 11 10 12 0 2 1 2 6 2 7 0
10 2 10 6 0 2 0 2 6 2 7 0 10 2 10 6 0 2 0 2 10 2 9 0 11 0 13 2 1 2 1 2 0 4
-3 3 -19 3 -21 0z m30 -328 c0 -2 -1 -4 -2 -5 -2 -1 -2 -1 -4 1 -2 2 -2 2 -1
4 3 3 7 3 7 0z"/><path d="M178 430 c-1 -1 -2 -3 -2 -4 0 -2 0 -2 -6 -2 -7 0 -10 -2 -10 -6 0
-1 -1 -2 -2 -2 -3 0 -6 -3 -6 -6 0 -1 -1 -2 -2 -2 -5 0 -6 -3 -6 -12 0 -7 0
-9 2 -10 2 -2 2 -2 8 4 l6 6 -4 4 c-5 4 -6 8 -2 8 3 0 6 3 6 6 0 2 0 2 6 2 7
0 10 2 10 6 0 2 0 2 14 2 13 0 15 0 17 -2 1 -2 1 -2 0 -4 -2 -2 -4 -2 -11 -2
-10 0 -12 -1 -12 -8 0 -3 1 -5 2 -7 2 -1 2 -1 6 3 3 4 4 4 8 4 4 0 5 0 8 -4 4
-4 4 -4 6 -3 2 2 2 3 2 11 0 9 1 12 6 12 2 0 2 0 2 -6 0 -9 1 -10 10 -10 6 0
6 0 6 -2 0 -3 3 -6 6 -6 2 0 2 0 2 -12 l0 -12 -4 0 c-4 0 -4 0 -4 2 0 2 -1 4
-2 5 -2 1 -2 1 -4 -1 -2 -2 -2 -2 -1 -4 1 -1 3 -2 5 -2 2 0 2 0 2 -6 0 -8 2
-10 8 -10 3 0 5 1 7 2 1 2 1 2 -3 6 -5 4 -6 8 -2 8 2 0 4 1 6 4 3 4 4 4 8 4 3
0 5 1 7 2 2 3 -1 6 -7 6 -4 0 -5 0 -8 4 -2 3 -4 4 -6 4 -1 0 -2 1 -2 2 0 3 -3
6 -6 6 -1 0 -2 1 -2 2 0 3 -11 14 -14 14 -1 0 -2 1 -2 2 0 6 -2 6 -24 6 -19 0
-21 0 -22 -2z"/><path d="M282 430 c-1 -1 -2 -3 -2 -4 0 -1 -1 -2 -2 -2 -3 0 -6 -3 -6 -6 0 -1
-1 -2 -2 -2 -2 0 -4 -1 -5 -2 -1 -2 -1 -2 1 -4 2 -2 2 -2 4 -1 1 1 2 3 2 5 0
1 1 2 2 2 3 0 6 3 6 6 0 1 1 2 2 2 5 0 6 -3 6 -12 0 -8 0 -9 2 -11 2 -1 2 -1
6 3 3 4 4 4 8 4 4 0 5 0 8 -4 3 -4 3 -4 10 -4 6 0 6 0 6 -2 0 -4 3 -6 8 -6 5
0 8 2 8 6 0 4 4 3 8 -2 2 -3 4 -4 6 -4 l2 0 0 -16 0 -16 -2 0 c-2 0 -4 -1 -6
-4 -3 -4 -4 -4 -8 -4 -6 0 -9 -3 -6 -6 1 -1 3 -2 6 -2 5 0 8 -2 8 -6 0 -1 -1
-2 -2 -2 -3 0 -6 -3 -6 -6 0 -1 -1 -2 -2 -2 -4 0 -6 -3 -6 -10 0 -6 0 -6 -2
-6 -3 0 -6 -3 -6 -6 0 -3 -12 -3 -14 0 -3 3 -3 6 0 6 2 0 4 1 5 2 1 2 1 2 -1
4 -2 2 -2 2 -4 1 -1 -1 -2 -3 -2 -5 0 -1 -1 -2 -2 -2 -4 0 -6 -3 -6 -8 0 -4 0
-5 4 -8 l5 -4 -5 -4 c-4 -3 -4 -4 -4 -10 l0 -6 -4 0 c-4 0 -4 0 -4 2 0 4 -3 6
-8 6 -4 0 -5 -1 -10 -6 l-6 -6 8 -8 c8 -8 10 -12 6 -12 -3 0 -6 -3 -6 -6 0 -1
-1 -2 -2 -2 -4 0 -6 3 -6 8 0 6 -3 9 -6 7 -2 -2 -2 -4 -2 -11 l0 -9 4 -3 c5
-4 6 -8 2 -8 -2 0 -4 -1 -5 -2 -1 -2 -1 -2 1 -4 2 -2 2 -2 4 -1 1 1 2 3 2 5 0
1 1 2 2 2 4 0 6 3 6 10 0 6 0 6 2 6 3 0 6 3 6 6 0 1 1 2 2 2 4 0 6 3 6 10 0 6
0 6 2 6 3 0 6 3 6 6 0 1 1 2 2 2 1 0 5 2 8 6 6 5 6 6 6 10 0 4 0 5 4 8 3 2 4
4 4 6 0 1 1 2 2 2 3 0 6 3 6 6 0 1 1 2 2 2 4 0 6 3 6 10 0 6 0 6 2 6 3 0 6 3
6 6 0 1 1 2 2 2 5 0 6 3 6 14 0 10 0 10 2 10 5 0 6 3 6 16 0 14 -1 16 -6 16
-2 0 -2 1 -2 6 l0 6 -6 6 c-3 4 -7 6 -8 6 -1 0 -2 1 -2 2 0 2 -1 4 -2 5 -2 1
-2 1 -4 -1 -2 -2 -2 -2 -1 -4 1 -1 3 -2 5 -2 2 0 2 0 2 -8 l0 -8 -8 0 c-8 0
-8 0 -8 2 0 2 -1 4 -4 6 -5 4 -6 8 -2 8 6 0 8 10 4 14 -3 3 -42 3 -44 0z m36
-8 c1 -1 2 -2 2 -4 0 -2 0 -2 -10 -2 -9 0 -11 0 -12 2 -2 2 -2 2 0 4 2 3 17 3
20 0z m-22 -154 c0 -5 -3 -6 -6 -2 -2 2 -2 2 0 4 3 4 6 3 6 -2z"/><path d="M225 398 c-1 -2 -1 -2 1 -4 l2 -2 2 2 c2 2 2 2 1 4 -1 1 -3 2 -3 2 0
0 -2 -1 -3 -2z"/><path d="M338 382 c-3 -3 -3 -10 0 -12 3 -3 6 0 6 6 0 7 -3 10 -6 6z"/><path d="M265 374 c-1 -2 -1 -2 1 -4 l2 -2 2 2 c2 2 2 2 1 4 -1 1 -3 2 -3 2 0
0 -2 -1 -3 -2z"/><path d="M146 366 c-2 -1 -2 -4 -2 -10 0 -9 1 -12 6 -12 1 0 2 -1 2 -2 0 -2 1
-4 2 -5 2 -1 2 -1 4 1 2 2 2 2 1 4 -1 1 -3 2 -5 2 -4 0 -3 4 2 8 l4 4 -6 6
c-7 7 -6 7 -8 4z"/><path d="M169 350 c-1 -2 -1 -2 1 -4 l2 -2 2 2 c2 2 2 2 1 4 -1 1 -3 2 -3 2 0
0 -2 -1 -3 -2z"/><path d="M176 332 c-3 -4 -4 -4 -8 -4 -3 0 -5 -1 -7 -2 -1 -2 -1 -2 3 -6 4 -3
4 -4 4 -8 0 -5 2 -8 6 -8 1 0 2 -1 2 -2 0 -3 3 -6 6 -6 1 0 2 -1 2 -2 0 -2 1
-4 4 -6 4 -3 4 -4 4 -8 0 -5 2 -8 6 -8 1 0 2 -1 2 -2 0 -3 3 -6 6 -6 2 0 2 0
2 -6 0 -8 2 -10 8 -10 5 0 8 2 8 6 0 2 0 2 6 2 5 0 7 0 8 2 2 2 2 2 -4 8 -6 6
-6 6 -8 4 -2 -1 -2 -3 -2 -8 0 -6 0 -6 -2 -6 -2 0 -4 1 -6 4 -2 3 -4 4 -6 4
-1 0 -2 1 -2 2 0 3 -3 6 -6 6 -4 0 -3 4 2 8 l5 4 -5 4 -4 4 4 4 c4 4 4 4 3 6
-2 1 -4 2 -7 2 -4 0 -5 0 -8 -4 -4 -5 -8 -6 -8 -2 0 3 -3 6 -6 6 -2 0 -2 0 -2
6 0 7 0 7 4 10 4 3 4 4 4 8 0 3 -1 5 -2 6 -2 3 -2 3 -6 -2z"/><path d="M321 334 c-1 -2 -1 -2 1 -4 l2 -2 2 2 c2 2 2 2 1 4 -1 1 -3 2 -3 2 0
0 -2 -1 -3 -2z"/><path d="M242 246 c-2 -1 -2 -3 -2 -8 l0 -6 -4 0 c-4 0 -4 0 -4 2 0 2 -1 4 -2
5 -2 1 -2 1 -4 -1 -2 -2 -2 -2 -1 -4 1 -1 3 -2 5 -2 2 0 2 0 2 -6 0 -7 0 -7 4
-10 4 -3 4 -4 4 -8 0 -5 2 -8 6 -8 2 0 2 0 2 -6 0 -5 0 -7 2 -8 2 -2 2 -2 8 4
6 5 6 6 6 10 0 3 -1 5 -2 7 -2 1 -2 1 -6 -3 -2 -2 -4 -4 -6 -4 -2 0 -2 0 -2
10 l0 11 -4 3 c-5 4 -6 8 -2 8 6 0 8 10 4 14 -2 2 -2 2 -4 0z"/><path d="M249 142 c-1 -2 -1 -2 1 -4 l2 -2 2 2 c2 2 2 2 1 4 -1 1 -3 2 -3 2 0
0 -2 -1 -3 -2z"/><path d="M249 54 c-1 -2 -1 -2 1 -4 l2 -2 2 2 c2 2 2 2 1 4 -1 1 -3 2 -3 2 0
0 -2 -1 -3 -2z"/></g>
  <g transform="scale(0.125 0.125) translate(0.000000,512.000000) scale(1.000000,-1.000000)" fill="#eeeeee" stroke="none"><path d="M209 478 c-1 -2 -1 -2 1 -4 l2 -2 2 2 c2 2 2 2 1 4 -1 1 -3 2 -3 2 0
0 -2 -1 -3 -2z"/><path d="M234 478 c-3 -3 0 -6 6 -6 3 0 5 1 7 2 2 3 -1 6 -7 6 -3 0 -5 -1 -6
-2z"/><path d="M258 478 c-3 -3 0 -6 6 -6 6 0 9 3 7 6 -2 1 -4 2 -7 2 -3 0 -5 -1 -6
-2z"/><path d="M289 478 c-1 -2 -1 -2 1 -4 l2 -2 2 2 c2 2 2 2 1 4 -1 1 -3 2 -3 2 0
0 -2 -1 -3 -2z"/><path d="M178 470 c-1 -1 -2 -3 -2 -4 0 -1 -1 -2 -2 -2 -2 0 -4 -1 -5 -2 -1
-2 -1 -2 1 -4 2 -2 2 -2 4 -1 1 1 2 3 2 5 0 1 1 2 2 2 2 0 4 1 5 2 1 2 1 2 0
4 -3 2 -3 2 -5 0z"/><path d="M193 470 c-1 -2 -1 -2 1 -4 l2 -2 2 2 c2 2 2 2 1 4 -1 1 -3 2 -3 2 0
0 -2 -1 -3 -2z"/><path d="M305 470 c-1 -2 -1 -2 1 -4 l2 -2 2 2 c2 2 2 2 1 4 -1 1 -3 2 -3 2 0
0 -2 -1 -3 -2z"/><path d="M322 470 c-2 -2 -2 -2 0 -4 0 -1 2 -2 4 -2 1 0 2 -1 2 -2 0 -2 1 -4
2 -5 2 -1 2 -1 4 1 2 2 2 2 1 4 -1 1 -3 2 -5 2 -1 0 -2 1 -2 2 0 2 -3 6 -4 6
0 0 -2 -1 -2 -2z"/><path d="M153 454 c-1 -2 -1 -2 1 -4 l2 -2 2 2 c2 2 2 2 1 4 -1 1 -3 2 -3 2 0
0 -2 -1 -3 -2z"/><path d="M345 454 c-1 -2 -1 -2 1 -4 l2 -2 2 2 c2 2 2 2 1 4 -1 1 -3 2 -3 2 0
0 -2 -1 -3 -2z"/><path d="M130 446 c-2 -1 -2 -3 -2 -8 l0 -6 -6 0 c-7 0 -10 -2 -10 -6 0 -1 -1
-2 -2 -2 -3 0 -6 -3 -6 -6 0 -1 -1 -2 -2 -2 -2 0 -4 -1 -5 -2 -1 -2 -1 -2 1
-4 2 -2 2 -2 4 -1 1 1 2 3 2 5 0 1 1 2 2 2 3 0 6 3 6 6 0 2 0 2 6 2 7 0 10 2
10 6 0 1 1 2 2 2 1 0 5 3 8 6 6 6 6 6 4 8 -2 3 -10 3 -12 0z"/><path d="M362 446 c-2 -2 -2 -2 0 -4 0 -1 2 -2 4 -2 1 0 2 -1 2 -2 0 -2 1 -4
2 -5 2 -1 2 -1 4 1 2 2 2 2 1 4 -1 1 -3 2 -5 2 -1 0 -2 1 -2 2 0 2 -3 6 -4 6
0 0 -2 -1 -2 -2z"/><path d="M178 430 c-1 -1 -2 -3 -2 -4 0 -2 0 -2 -6 -2 -7 0 -10 -2 -10 -6 0
-1 -1 -2 -2 -2 -3 0 -6 -3 -6 -6 0 -1 -1 -2 -2 -2 -2 0 -4 -1 -4 -2 -2 -2 -2
-2 0 -4 0 -1 2 -2 4 -2 2 0 2 0 2 -4 0 -4 0 -4 -2 -4 -2 0 -4 -1 -5 -2 -1 -2
-1 -2 1 -4 2 -2 2 -2 4 -1 1 1 2 3 2 5 0 1 1 2 2 2 2 0 4 1 5 2 1 2 1 2 0 4
-1 1 -3 2 -5 2 -2 0 -2 0 -2 4 0 4 0 4 2 4 3 0 6 3 6 6 0 2 0 2 6 2 7 0 10 2
10 6 0 2 0 2 16 2 l16 0 0 -2 c0 -5 -3 -6 -12 -6 -10 0 -12 -1 -12 -8 0 -3 1
-5 2 -7 2 -1 2 -1 6 3 3 4 4 4 8 4 4 0 5 0 8 -4 4 -4 4 -4 6 -3 2 2 2 3 2 13
l0 10 4 0 4 0 0 -6 c0 -8 3 -12 6 -8 5 4 2 14 -4 14 -1 0 -2 1 -2 2 0 2 -1 4
-2 5 -2 1 -2 1 -4 0 -1 -1 -2 -3 -2 -5 0 -2 0 -2 -4 -2 -4 0 -4 0 -4 2 0 5 -3
6 -16 6 -11 0 -13 0 -14 -2z"/><path d="M282 430 c-1 -1 -2 -3 -2 -4 0 -1 -1 -2 -2 -2 -2 0 -4 -1 -5 -2 -1
-2 -1 -2 1 -4 2 -2 2 -2 4 -1 1 1 2 3 2 5 0 2 0 2 4 2 l4 0 0 -10 c0 -10 0
-11 2 -13 2 -1 2 -1 6 3 3 4 4 4 8 4 4 0 5 0 8 -4 3 -4 3 -4 10 -4 6 0 6 0 6
-2 0 -4 3 -6 8 -6 5 0 8 2 8 6 0 4 4 3 8 -2 2 -3 4 -4 6 -4 l2 0 0 -14 c0 -13
0 -15 2 -16 2 -2 2 -2 4 0 2 1 2 3 2 14 0 14 -1 16 -6 16 -2 0 -2 0 -2 6 0 8
-2 10 -8 10 -5 0 -8 -2 -8 -6 0 -2 0 -2 -8 -2 -8 0 -8 0 -8 2 0 2 -1 4 -4 6
-5 4 -6 8 -2 8 2 0 4 1 5 2 1 2 1 2 0 4 -1 1 -3 2 -5 2 -1 0 -2 1 -2 2 0 5 -3
6 -12 6 -9 0 -12 -1 -12 -6 0 -2 -1 -2 -4 -2 -4 0 -4 0 -4 2 0 2 -3 6 -4 6 0
0 -1 -1 -2 -2z m38 -10 l0 -4 -10 0 c-11 0 -14 1 -14 6 0 2 0 2 12 2 l12 0 0
-4z"/><path d="M386 430 c-2 -2 -2 -2 4 -8 3 -3 7 -6 8 -6 1 0 2 -1 2 -2 0 -2 1 -4
2 -5 2 -1 2 -1 4 1 2 2 2 2 1 4 -1 1 -3 2 -5 2 -2 0 -2 0 -2 6 0 8 -2 10 -8
10 -3 0 -5 -1 -6 -2z"/><path d="M337 422 c-1 -2 -1 -2 1 -4 l2 -2 2 2 c2 2 2 2 1 4 -1 1 -3 2 -3 2 0
0 -2 -1 -3 -2z"/><path d="M242 406 c-2 -2 -2 -2 0 -4 0 -1 2 -2 4 -2 2 0 2 0 2 -12 l0 -12 -4
0 c-4 0 -4 0 -4 2 0 2 -1 4 -2 5 -2 1 -2 1 -4 -1 -2 -2 -2 -2 -1 -4 1 -1 3 -2
5 -2 2 0 2 0 2 -6 0 -8 2 -10 8 -10 3 0 5 1 7 2 1 2 1 2 -3 6 -5 4 -6 8 -2 8
2 0 4 1 6 4 3 4 4 4 8 4 6 0 9 3 7 6 -2 1 -4 2 -7 2 -4 0 -5 0 -8 4 -2 3 -4 4
-6 4 -1 0 -2 1 -2 2 0 2 -3 6 -4 6 0 0 -2 -1 -2 -2z"/><path d="M90 398 c-1 -1 -2 -3 -2 -4 0 -2 0 -2 -6 -2 -8 0 -12 -3 -8 -6 4 -5
14 -2 14 4 0 1 1 2 2 2 2 0 4 1 5 2 1 2 1 2 0 4 -3 2 -3 2 -5 0z"/><path d="M225 398 c-1 -2 -1 -2 1 -4 l2 -2 2 2 c2 2 2 2 1 4 -1 1 -3 2 -3 2 0
0 -2 -1 -3 -2z"/><path d="M410 398 c-2 -2 -2 -2 0 -4 0 -1 2 -2 4 -2 1 0 2 -1 2 -2 0 -6 10 -8
15 -4 3 3 -1 6 -9 6 -6 0 -6 0 -6 2 0 2 -3 6 -4 6 0 0 -2 -1 -2 -2z"/><path d="M338 382 c-3 -3 -3 -10 0 -12 3 -3 6 0 6 6 0 7 -3 10 -6 6z"/><path d="M65 374 c-1 -2 -1 -2 1 -4 l2 -2 2 2 c2 2 2 2 1 4 -1 1 -3 2 -3 2 0
0 -2 -1 -3 -2z"/><path d="M265 374 c-1 -2 -1 -2 1 -4 l2 -2 2 2 c2 2 2 2 1 4 -1 1 -3 2 -3 2 0
0 -2 -1 -3 -2z"/><path d="M426 374 c-3 -3 0 -6 6 -6 6 0 9 3 7 6 -2 1 -4 2 -7 2 -3 0 -5 -1 -6
-2z"/><path d="M66 358 c-1 -1 -2 -3 -2 -4 0 -1 -1 -2 -2 -2 -2 0 -4 -1 -5 -2 -1 -2
-1 -2 1 -4 2 -2 2 -2 4 -1 1 1 2 3 2 5 0 1 1 2 2 2 2 0 4 1 5 2 1 2 1 2 0 4
-3 2 -3 2 -5 0z"/><path d="M154 358 c-1 -1 -2 -3 -2 -4 0 -1 -1 -2 -2 -2 -2 0 -4 -1 -5 -2 -1
-2 -1 -2 1 -4 2 -2 2 -2 4 -1 1 1 2 3 2 5 0 1 1 2 2 2 2 0 4 1 5 2 1 2 1 2 0
4 -3 2 -3 2 -5 0z"/><path d="M434 358 c-3 -3 0 -6 6 -6 6 0 9 3 7 6 -2 1 -4 2 -7 2 -3 0 -5 -1 -6
-2z"/><path d="M169 350 c-1 -2 -1 -2 1 -4 l2 -2 2 2 c2 2 2 2 1 4 -1 1 -3 2 -3 2 0
0 -2 -1 -3 -2z"/><path d="M338 350 c-3 -3 0 -6 6 -6 5 0 8 -2 8 -6 0 -1 -1 -2 -2 -2 -2 0 -4
-1 -5 -2 -1 -2 -1 -2 1 -4 2 -2 2 -2 4 -1 1 1 2 3 2 5 0 1 1 2 2 2 6 0 8 10 4
14 -3 3 -18 3 -20 0z"/><path d="M174 330 l-6 -6 0 -8 c0 -9 1 -12 6 -12 1 0 2 -1 2 -2 0 -2 1 -4 2
-5 2 -1 2 -1 4 1 2 2 2 2 1 4 -1 1 -3 2 -5 2 -2 0 -2 0 -2 6 0 7 0 7 4 10 4 3
4 4 4 8 0 3 -1 5 -2 6 -2 2 -2 3 -8 -4z"/><path d="M321 334 c-1 -2 -1 -2 1 -4 l2 -2 2 2 c2 2 2 2 1 4 -1 1 -3 2 -3 2 0
0 -2 -1 -3 -2z"/><path d="M58 326 c-3 -3 -3 -34 0 -36 2 -2 2 -2 4 0 3 2 3 34 0 36 -2 2 -2 2
-4 0z"/><path d="M442 326 c-3 -3 -3 -26 0 -28 2 -2 2 -2 8 4 l6 6 -4 4 c-4 3 -4 4 -4
8 0 7 -3 10 -6 6z"/><path d="M314 318 c-1 -1 -2 -3 -2 -4 0 -1 -1 -2 -2 -2 -6 0 -8 -10 -4 -14 3
-3 10 -3 13 0 1 2 1 2 -3 6 -5 4 -6 8 -2 8 2 0 4 1 5 2 1 2 1 2 0 4 -3 2 -3 2
-5 0z"/><path d="M338 318 c-1 -1 -2 -3 -2 -4 0 -1 -1 -2 -2 -2 -2 0 -4 -1 -5 -2 -1
-2 -1 -2 1 -4 2 -2 2 -2 4 -1 1 1 2 3 2 5 0 1 1 2 2 2 2 0 4 1 5 2 1 2 1 2 0
4 -3 2 -3 2 -5 0z"/><path d="M194 302 c-4 -4 -2 -14 4 -14 2 0 2 -1 2 -4 0 -4 0 -4 -2 -4 -2 0 -4
-1 -4 -2 -2 -2 -2 -2 0 -4 0 -1 2 -2 4 -2 1 0 2 -1 2 -2 0 -3 3 -6 6 -6 2 0 2
0 2 -6 0 -8 3 -12 6 -8 5 4 2 14 -4 14 -1 0 -2 1 -2 2 0 3 -3 6 -6 6 -2 0 -2
1 -2 4 0 4 0 4 2 4 2 0 4 1 5 2 1 2 1 2 0 4 -1 1 -3 2 -5 2 -4 0 -3 4 2 8 4 4
4 4 3 6 -3 3 -11 3 -13 0z"/><path d="M306 286 c-2 -1 -2 -3 -2 -8 l0 -6 -4 0 c-4 0 -4 0 -4 2 0 4 -3 6 -8
6 -4 0 -5 -1 -10 -6 l-6 -6 6 -6 c3 -3 7 -6 8 -6 2 0 2 -1 2 -4 0 -4 0 -4 -2
-4 -2 0 -4 -1 -5 -2 -1 -2 -1 -2 1 -4 2 -2 2 -2 4 -1 1 1 2 3 2 5 0 1 1 2 2 2
2 0 4 1 5 2 1 2 1 2 0 4 -1 1 -3 2 -5 2 -2 0 -2 0 -2 6 0 7 2 10 6 10 1 0 2
-1 2 -2 0 -2 1 -4 2 -4 2 -2 2 -2 4 0 1 0 2 2 2 4 0 1 1 2 2 2 1 0 5 3 8 6 6
6 6 6 4 8 -2 3 -10 3 -12 0z"/><path d="M58 270 c-2 -2 -2 -2 4 -8 3 -3 7 -6 8 -6 2 0 2 -1 2 -6 0 -7 2 -10
6 -10 2 0 2 0 2 -10 0 -13 1 -14 10 -14 6 0 6 0 6 -2 0 -3 3 -6 6 -6 1 0 2 -1
2 -2 0 -3 3 -6 6 -6 1 0 2 -1 2 -2 0 -3 3 -6 6 -6 2 0 2 0 2 -6 0 -6 0 -7 2
-9 2 -1 2 -1 6 3 4 5 8 6 8 2 0 -3 3 -6 6 -6 2 0 2 0 2 -6 0 -6 0 -7 2 -9 2
-1 2 -1 6 3 4 5 8 6 8 2 0 -6 10 -8 15 -4 3 3 -1 6 -9 6 -6 0 -6 0 -6 2 0 4
-3 6 -10 6 -6 0 -6 0 -6 2 0 3 -3 6 -6 6 -1 0 -2 1 -2 2 0 4 -3 6 -10 6 -6 0
-6 0 -6 2 0 3 -3 6 -6 6 -1 0 -2 1 -2 2 0 3 -3 6 -6 6 -1 0 -2 1 -2 2 0 3 -3
6 -6 6 -1 0 -2 1 -2 2 0 2 -1 4 -4 6 -4 3 -4 4 -4 8 0 5 -2 8 -6 8 -2 0 -2 0
-2 6 0 7 -2 10 -6 10 -2 0 -2 0 -2 6 0 8 -2 10 -8 10 -3 0 -5 -1 -6 -2z"/><path d="M226 270 c-3 -2 -3 -10 0 -12 2 -3 10 -3 12 0 2 2 2 2 -4 8 -7 7 -6
7 -8 4z"/><path d="M434 270 c-3 -2 -3 -10 0 -12 2 -2 2 -2 8 4 6 6 6 6 4 8 -2 3 -10 3
-12 0z"/><path d="M266 254 c-2 -1 -2 -4 -2 -10 0 -9 1 -12 6 -12 1 0 2 -1 2 -2 0 -2 1
-4 2 -5 2 -1 2 -1 4 1 2 2 2 2 1 4 -1 1 -3 2 -5 2 -2 0 -2 0 -2 10 0 9 0 11
-2 12 -2 2 -2 2 -4 0z"/><path d="M242 246 c-2 -1 -2 -3 -2 -8 l0 -6 -4 0 c-4 0 -4 0 -4 2 0 2 -1 4 -2
5 -2 1 -2 1 -4 -1 -2 -2 -2 -2 -1 -4 1 -1 3 -2 5 -2 2 0 2 0 2 -6 0 -7 0 -7 4
-10 4 -3 4 -4 4 -8 0 -5 2 -8 6 -8 2 0 2 0 2 -6 0 -5 0 -7 2 -8 2 -2 2 -2 8 4
6 6 6 6 4 8 -1 2 -3 2 -8 2 l-6 0 0 10 0 11 -4 3 c-5 4 -6 8 -2 8 6 0 8 10 4
14 -2 2 -2 2 -4 0z"/><path d="M426 246 c-1 -1 -2 -3 -2 -4 0 -1 -1 -2 -2 -2 -2 0 -4 -1 -5 -2 -1
-2 -1 -2 1 -4 2 -2 2 -2 4 -1 1 1 2 3 2 5 0 1 1 2 2 2 2 0 4 1 5 2 1 2 1 2 0
4 -3 2 -3 2 -5 0z"/><path d="M410 222 c-1 -1 -2 -3 -2 -4 0 -1 -1 -2 -2 -2 -3 0 -6 -3 -6 -6 0 -1
-1 -2 -2 -2 -3 0 -6 -3 -6 -6 0 -1 -1 -2 -2 -2 -3 0 -6 -3 -6 -6 0 -1 -1 -2
-2 -2 -2 0 -4 -1 -6 -4 -3 -4 -4 -4 -8 -4 -5 0 -8 -2 -8 -6 0 -2 0 -2 -6 -2
-7 0 -10 -2 -10 -6 0 -2 0 -2 -6 -2 -8 0 -12 -3 -8 -6 4 -5 14 -2 14 4 0 1 1
2 2 2 4 0 6 -3 6 -8 0 -6 3 -9 6 -6 2 1 2 3 2 12 l0 10 10 0 c13 0 14 1 14 10
0 6 0 6 2 6 3 0 6 3 6 6 0 1 1 2 2 2 3 0 6 3 6 6 0 1 1 2 2 2 3 0 6 3 6 6 0 2
0 2 6 2 8 0 12 3 9 6 -3 3 -11 3 -13 0z"/><path d="M186 158 c-2 -1 -2 -4 -2 -10 l0 -8 6 -6 c5 -6 6 -6 10 -6 5 0 8 2 8
6 0 1 1 2 2 2 2 0 4 1 5 2 1 2 1 2 0 4 -1 1 -3 2 -5 2 -1 0 -2 1 -2 2 0 3 -3
6 -6 6 -1 0 -2 1 -2 2 0 6 -10 8 -14 4z m14 -10 l0 -4 4 0 4 0 0 -4 c0 -3 0
-4 -2 -4 -3 0 -6 3 -6 6 0 1 -1 2 -2 2 -2 0 -4 1 -4 2 -2 2 -2 2 0 4 3 4 6 3
6 -2z"/><path d="M306 158 c-1 -1 -2 -3 -2 -4 0 -1 -1 -2 -2 -2 -4 0 -6 -3 -6 -8 0 -4
0 -5 -4 -8 -4 -4 -4 -4 -3 -6 2 -2 3 -2 11 -2 l8 0 6 6 6 6 0 8 c0 7 0 9 -2
10 -2 3 -10 3 -12 0z m5 -8 c1 -2 1 -2 -1 -4 -2 -2 -2 -2 -4 -1 -3 3 -3 7 0 7
2 0 4 -1 5 -2z"/><path d="M161 150 c-1 -2 -1 -2 1 -4 l2 -2 2 2 c2 2 2 2 1 4 -1 1 -3 2 -3 2 0
0 -2 -1 -3 -2z"/><path d="M337 150 c-1 -2 -1 -2 1 -4 l2 -2 2 2 c2 2 2 2 1 4 -1 1 -3 2 -3 2 0
0 -2 -1 -3 -2z"/><path d="M249 142 c-1 -2 -1 -2 1 -4 l2 -2 2 2 c2 2 2 2 1 4 -1 1 -3 2 -3 2 0
0 -2 -1 -3 -2z"/><path d="M217 126 c-1 -2 -1 -2 1 -4 l2 -2 2 2 c2 2 2 2 1 4 -1 1 -3 2 -3 2 0
0 -2 -1 -3 -2z"/><path d="M282 118 c-1 -1 -2 -3 -2 -4 0 -1 -1 -2 -2 -2 -4 0 -6 -3 -6 -8 0 -4
0 -5 -4 -8 -3 -2 -4 -4 -4 -6 0 -1 -1 -2 -2 -2 -4 0 -6 -3 -6 -10 0 -6 0 -6
-2 -6 -2 0 -4 -1 -5 -2 -1 -2 -1 -2 1 -4 2 -2 2 -2 4 -1 1 1 2 3 2 5 0 1 1 2
2 2 4 0 6 3 6 10 0 8 3 8 8 2 4 -4 4 -4 6 -3 2 2 2 3 2 17 l0 14 2 0 c2 0 4 1
5 2 1 2 1 2 0 4 -3 2 -3 2 -5 0z"/><path d="M225 110 c-1 -2 -1 -2 1 -4 l2 -2 2 2 c2 2 2 2 1 4 -1 1 -3 2 -3 2 0
0 -2 -1 -3 -2z"/><path d="M234 94 c-3 -2 -3 -10 0 -12 2 -3 10 -3 12 0 2 2 2 2 -4 8 -7 7 -6 7
-8 4z"/><path d="M249 54 c-1 -2 -1 -2 1 -4 l2 -2 2 2 c2 2 2 2 1 4 -1 1 -3 2 -3 2 0
0 -2 -1 -3 -2z"/></g>
  <g transform="scale(0.125 0.125) translate(0.000000,512.000000) scale(1.000000,-1.000000)" fill="#fbfbfb" stroke="none"><path d="M209 478 c-1 -2 -1 -2 1 -4 l2 -2 2 2 c2 2 2 2 1 4 -1 1 -3 2 -3 2 0
0 -2 -1 -3 -2z"/><path d="M241 478 c-1 -2 -1 -2 1 -4 l2 -2 2 2 c2 2 2 2 1 4 -1 1 -3 2 -3 2 0
0 -2 -1 -3 -2z"/><path d="M257 478 c-1 -2 -1 -2 1 -4 l2 -2 2 2 c2 2 2 2 1 4 -1 1 -3 2 -3 2 0
0 -2 -1 -3 -2z"/><path d="M289 478 c-1 -2 -1 -2 1 -4 l2 -2 2 2 c2 2 2 2 1 4 -1 1 -3 2 -3 2 0
0 -2 -1 -3 -2z"/><path d="M177 470 c-1 -2 -1 -2 1 -4 l2 -2 2 2 c2 2 2 2 1 4 -1 1 -3 2 -3 2 0
0 -2 -1 -3 -2z"/><path d="M193 470 c-1 -2 -1 -2 1 -4 l2 -2 2 2 c2 2 2 2 1 4 -1 1 -3 2 -3 2 0
0 -2 -1 -3 -2z"/><path d="M305 470 c-1 -2 -1 -2 1 -4 l2 -2 2 2 c2 2 2 2 1 4 -1 1 -3 2 -3 2 0
0 -2 -1 -3 -2z"/><path d="M321 470 c-1 -2 -1 -2 1 -4 l2 -2 2 2 c2 2 2 2 1 4 -1 1 -3 2 -3 2 0
0 -2 -1 -3 -2z"/><path d="M345 454 c-1 -2 -1 -2 1 -4 l2 -2 2 2 c2 2 2 2 1 4 -1 1 -3 2 -3 2 0
0 -2 -1 -3 -2z"/><path d="M130 446 c-2 -1 -2 -3 -2 -8 0 -6 0 -6 -2 -6 -2 0 -4 -1 -5 -2 -1 -2
-1 -2 1 -4 2 -2 2 -2 4 -1 1 1 2 3 2 5 0 1 1 2 2 2 6 0 8 10 4 14 -2 2 -2 2
-4 0z"/><path d="M369 438 c-1 -2 -1 -2 1 -4 l2 -2 2 2 c2 2 2 2 1 4 -1 1 -3 2 -3 2 0
0 -2 -1 -3 -2z"/><path d="M186 430 c-2 -2 -2 -2 0 -4 1 -2 3 -2 12 -2 10 0 10 0 10 -2 0 -5 -3
-6 -12 -6 -10 0 -12 -1 -12 -8 0 -3 1 -5 2 -7 2 -1 2 -1 6 3 3 4 4 4 8 4 4 0
5 0 8 -4 4 -4 4 -4 6 -3 2 2 2 3 2 13 0 10 0 10 2 10 2 0 4 1 5 2 1 2 1 2 -1
4 -2 2 -2 2 -4 1 -1 -1 -2 -3 -2 -5 0 -2 0 -2 -4 -2 -4 0 -4 0 -4 2 0 5 -3 6
-12 6 -7 0 -9 0 -10 -2z"/><path d="M282 430 c-1 -1 -2 -3 -2 -4 0 -1 -1 -2 -2 -2 -2 0 -4 -1 -5 -2 -1
-2 -1 -2 1 -4 2 -2 2 -2 4 -1 1 1 2 3 2 5 0 2 0 2 4 2 l4 0 0 -10 c0 -10 0
-11 2 -13 2 -1 2 -1 6 3 3 4 4 4 8 4 4 0 5 0 8 -4 3 -4 3 -4 10 -4 6 0 6 0 6
-2 0 -4 3 -6 8 -6 5 0 8 2 8 6 0 2 1 2 4 2 4 0 4 0 4 -2 0 -3 3 -6 6 -6 2 0 2
0 2 -14 0 -13 0 -15 2 -16 2 -2 2 -2 4 0 2 1 2 3 2 14 0 14 -1 16 -6 16 -1 0
-2 1 -2 2 0 3 -3 6 -6 6 -1 0 -2 1 -2 2 0 2 -1 4 -2 5 -2 1 -2 1 -4 0 -1 -1
-2 -3 -2 -5 0 -2 0 -2 -8 -2 -8 0 -8 0 -8 2 0 2 -1 4 -4 6 -5 4 -6 8 -2 8 2 0
4 1 5 2 1 2 1 2 0 4 -1 1 -3 2 -5 2 -1 0 -2 1 -2 2 0 5 -3 6 -12 6 -9 0 -12
-1 -12 -6 0 -2 -1 -2 -4 -2 -4 0 -4 0 -4 2 0 2 -3 6 -4 6 0 0 -1 -1 -2 -2z
m38 -10 l0 -4 -10 0 c-11 0 -14 1 -14 6 0 2 0 2 12 2 l12 0 0 -4z"/><path d="M393 430 c-1 -2 -1 -2 1 -4 l2 -2 2 2 c2 2 2 2 1 4 -1 1 -3 2 -3 2 0
0 -2 -1 -3 -2z"/><path d="M162 422 c-3 -3 0 -6 6 -6 3 0 5 1 7 2 2 3 -1 6 -7 6 -3 0 -5 -1 -6
-2z"/><path d="M225 414 c-1 -2 -1 -2 1 -4 l2 -2 2 2 c2 2 2 2 1 4 -1 1 -3 2 -3 2 0
0 -2 -1 -3 -2z"/><path d="M146 406 c-2 -2 -2 -2 0 -4 0 -1 2 -2 4 -2 2 0 2 0 2 -4 0 -4 0 -4
-2 -4 -2 0 -4 -1 -5 -2 -1 -2 -1 -2 1 -4 2 -2 2 -2 4 -1 1 1 2 3 2 5 0 1 1 2
2 2 2 0 4 1 5 2 1 2 1 2 0 4 -1 1 -3 2 -5 2 -1 0 -2 1 -2 2 0 2 -3 6 -4 6 0 0
-2 -1 -2 -2z"/><path d="M90 398 c-1 -1 -2 -3 -2 -4 0 -2 0 -2 -6 -2 -8 0 -12 -3 -8 -6 4 -5
14 -2 14 4 0 1 1 2 2 2 2 0 4 1 5 2 1 2 1 2 0 4 -3 2 -3 2 -5 0z"/><path d="M225 398 c-1 -2 -1 -2 1 -4 l2 -2 2 2 c2 2 2 2 1 4 -1 1 -3 2 -3 2 0
0 -2 -1 -3 -2z"/><path d="M410 398 c-2 -2 -2 -2 0 -4 0 -1 2 -2 4 -2 1 0 2 -1 2 -2 0 -6 10 -8
15 -4 3 3 -1 6 -9 6 -6 0 -6 0 -6 2 0 2 -3 6 -4 6 0 0 -2 -1 -2 -2z"/><path d="M250 390 c-2 -1 -2 -3 -2 -8 l0 -6 -4 0 c-4 0 -4 0 -4 2 0 2 -1 4 -2
5 -2 1 -2 1 -4 -1 -2 -2 -2 -2 -1 -4 1 -1 3 -2 5 -2 2 0 2 0 2 -6 0 -8 2 -10
8 -10 3 0 5 1 7 2 1 2 1 2 -3 6 -5 4 -6 8 -2 8 2 0 4 1 6 4 3 4 4 4 8 4 6 0 9
3 7 6 -3 3 -19 3 -21 0z"/><path d="M338 382 c-3 -3 -3 -10 0 -12 3 -3 6 0 6 6 0 7 -3 10 -6 6z"/><path d="M65 374 c-1 -2 -1 -2 1 -4 l2 -2 2 2 c2 2 2 2 1 4 -1 1 -3 2 -3 2 0
0 -2 -1 -3 -2z"/><path d="M265 374 c-1 -2 -1 -2 1 -4 l2 -2 2 2 c2 2 2 2 1 4 -1 1 -3 2 -3 2 0
0 -2 -1 -3 -2z"/><path d="M426 374 c-3 -3 0 -6 6 -6 6 0 9 3 7 6 -2 1 -4 2 -7 2 -3 0 -5 -1 -6
-2z"/><path d="M153 358 c-1 -2 -1 -2 1 -4 l2 -2 2 2 c2 2 2 2 1 4 -1 1 -3 2 -3 2 0
0 -2 -1 -3 -2z"/><path d="M441 358 c-1 -2 -1 -2 1 -4 l2 -2 2 2 c2 2 2 2 1 4 -1 1 -3 2 -3 2 0
0 -2 -1 -3 -2z"/><path d="M57 350 c-1 -2 -1 -2 1 -4 l2 -2 2 2 c2 2 2 2 1 4 -1 1 -3 2 -3 2 0
0 -2 -1 -3 -2z"/><path d="M169 350 c-1 -2 -1 -2 1 -4 l2 -2 2 2 c2 2 2 2 1 4 -1 1 -3 2 -3 2 0
0 -2 -1 -3 -2z"/><path d="M338 350 c-4 -3 0 -6 8 -6 l6 0 0 -4 c0 -4 0 -4 -2 -4 -2 0 -4 -1 -5
-2 -1 -2 -1 -2 1 -4 2 -2 2 -2 4 -1 1 1 2 3 2 5 0 1 1 2 2 2 2 0 4 1 5 2 1 2
1 2 0 4 -1 1 -3 2 -5 2 -1 0 -2 1 -2 2 0 6 -10 8 -14 4z"/><path d="M174 330 l-6 -6 0 -8 c0 -7 0 -9 2 -10 3 -3 6 0 6 6 0 4 0 5 4 8 4 3
4 4 4 8 0 3 -1 5 -2 6 -2 2 -2 3 -8 -4z"/><path d="M321 334 c-1 -2 -1 -2 1 -4 l2 -2 2 2 c2 2 2 2 1 4 -1 1 -3 2 -3 2 0
0 -2 -1 -3 -2z"/><path d="M314 318 c-1 -1 -2 -3 -2 -4 0 -1 -1 -2 -2 -2 -6 0 -8 -10 -4 -14 3
-3 10 -3 13 0 1 2 1 2 -3 6 -5 4 -6 8 -2 8 2 0 4 1 5 2 1 2 1 2 0 4 -3 2 -3 2
-5 0z"/><path d="M337 318 c-1 -2 -1 -2 1 -4 l2 -2 2 2 c2 2 2 2 1 4 -1 1 -3 2 -3 2 0
0 -2 -1 -3 -2z"/><path d="M57 310 c-1 -2 -1 -2 1 -4 l2 -2 2 2 c2 2 2 2 1 4 -1 1 -3 2 -3 2 0
0 -2 -1 -3 -2z"/><path d="M449 310 c-1 -2 -1 -2 1 -4 l2 -2 2 2 c2 2 2 2 1 4 -1 1 -3 2 -3 2 0
0 -2 -1 -3 -2z"/><path d="M194 302 c-4 -4 -2 -14 4 -14 2 0 2 -1 2 -4 0 -4 0 -4 -2 -4 -2 0 -4
-1 -5 -2 -1 -2 -1 -2 1 -4 2 -2 2 -2 4 -1 1 1 2 3 2 5 0 1 1 2 2 2 2 0 4 1 5
2 1 2 1 2 0 4 -1 1 -3 2 -5 2 -4 0 -3 4 2 8 4 4 4 4 3 6 -3 3 -11 3 -13 0z"/><path d="M306 286 c-3 -3 0 -6 6 -6 6 0 9 3 7 6 -2 1 -4 2 -7 2 -3 0 -5 -1 -6
-2z"/><path d="M278 274 l-6 -6 6 -6 c3 -3 7 -6 8 -6 1 0 2 -1 2 -2 0 -2 1 -4 2 -5
2 -1 2 -1 4 1 2 2 2 2 1 4 -1 1 -3 2 -5 2 -2 0 -2 0 -2 6 0 6 0 7 4 10 4 4 4
4 3 6 -2 1 -3 2 -7 2 -4 0 -5 -1 -10 -6z"/><path d="M58 270 c-3 -3 0 -6 6 -6 3 0 5 1 7 2 2 3 -1 6 -7 6 -3 0 -5 -1 -6
-2z"/><path d="M226 270 c-3 -2 -3 -10 0 -12 2 -3 10 -3 12 0 2 2 2 2 -4 8 -7 7 -6
7 -8 4z"/><path d="M434 270 c-3 -3 0 -6 6 -6 6 0 9 3 7 6 -2 1 -4 2 -7 2 -3 0 -5 -1 -6
-2z"/><path d="M73 254 c-1 -2 -1 -2 1 -4 l2 -2 2 2 c2 2 2 2 1 4 -1 1 -3 2 -3 2 0
0 -2 -1 -3 -2z"/><path d="M209 254 c-1 -2 -1 -2 1 -4 l2 -2 2 2 c2 2 2 2 1 4 -3 2 -3 2 -6 0z"/><path d="M266 254 c-2 -1 -2 -4 -2 -10 0 -9 1 -12 6 -12 1 0 2 -1 2 -2 0 -2 1
-4 2 -5 2 -1 2 -1 4 1 2 2 2 2 1 4 -1 1 -3 2 -5 2 -2 0 -2 0 -2 10 0 9 0 11
-2 12 -2 2 -2 2 -4 0z"/><path d="M242 246 c-2 -1 -2 -3 -2 -8 0 -6 0 -6 -2 -6 -2 0 -4 -1 -4 -2 -2 -2
-2 -2 0 -4 0 -1 2 -2 4 -2 2 0 2 0 2 -10 0 -12 1 -14 6 -14 1 0 2 -1 2 -2 0
-6 10 -8 15 -4 3 3 -1 6 -9 6 l-6 0 0 10 c0 12 -1 14 -6 14 -2 0 -2 1 -2 4 0
4 0 4 2 4 6 0 8 10 4 14 -2 2 -2 2 -4 0z"/><path d="M81 238 c-1 -2 -1 -2 1 -4 l2 -2 2 2 c2 2 2 2 1 4 -1 1 -3 2 -3 2 0
0 -2 -1 -3 -2z"/><path d="M417 238 c-1 -2 -1 -2 1 -4 l2 -2 2 2 c2 2 2 2 1 4 -1 1 -3 2 -3 2 0
0 -2 -1 -3 -2z"/><path d="M81 222 c-1 -2 -1 -2 1 -4 l2 -2 2 2 c2 2 2 2 1 4 -1 1 -3 2 -3 2 0
0 -2 -1 -3 -2z"/><path d="M417 222 c-1 -2 -1 -2 1 -4 l2 -2 2 2 c2 2 2 2 1 4 -1 1 -3 2 -3 2 0
0 -2 -1 -3 -2z"/><path d="M97 214 c-1 -2 -1 -2 1 -4 l2 -2 2 2 c2 2 2 2 1 4 -1 1 -3 2 -3 2 0
0 -2 -1 -3 -2z"/><path d="M393 206 c-1 -2 -1 -2 1 -4 l2 -2 2 2 c2 2 2 2 1 4 -1 1 -3 2 -3 2 0
0 -2 -1 -3 -2z"/><path d="M130 190 c-1 -1 -2 -3 -2 -4 0 -1 -1 -2 -2 -2 -2 0 -4 -1 -5 -2 -1
-2 -1 -2 1 -4 2 -2 2 -2 4 -1 1 1 2 3 2 5 0 2 0 2 4 2 4 0 4 0 4 -2 0 -2 1 -4
2 -5 2 -1 2 -1 4 1 2 2 2 2 1 4 -1 1 -3 2 -5 2 -1 0 -2 1 -2 2 0 2 -3 6 -4 6
0 0 -1 -1 -2 -2z"/><path d="M361 182 c-1 -2 -1 -2 1 -4 l2 -2 2 2 c2 2 2 2 1 4 -1 1 -3 2 -3 2 0
0 -2 -1 -3 -2z"/><path d="M377 182 c-1 -2 -1 -2 1 -4 l2 -2 2 2 c2 2 2 2 1 4 -1 1 -3 2 -3 2 0
0 -2 -1 -3 -2z"/><path d="M154 174 c-1 -1 -2 -3 -2 -4 0 -1 -1 -2 -2 -2 -2 0 -4 -1 -5 -2 -1
-2 -1 -2 1 -4 2 -2 2 -2 4 -1 1 1 2 3 2 5 0 1 1 2 2 2 2 0 4 1 5 2 1 2 1 2 0
4 -3 2 -3 2 -5 0z"/><path d="M346 174 c-2 -2 -2 -2 0 -4 0 -1 2 -2 4 -2 2 0 2 0 2 -6 0 -8 3 -12
6 -8 5 4 2 14 -4 14 -1 0 -2 1 -2 2 0 2 -3 6 -4 6 0 0 -2 -1 -2 -2z"/><path d="M169 166 c-1 -2 -1 -2 1 -4 l2 -2 2 2 c2 2 2 2 1 4 -1 1 -3 2 -3 2 0
0 -2 -1 -3 -2z"/><path d="M329 166 c-1 -2 -1 -2 1 -4 l2 -2 2 2 c2 2 2 2 1 4 -1 1 -3 2 -3 2 0
0 -2 -1 -3 -2z"/><path d="M194 158 c-1 -1 -2 -3 -2 -4 0 -1 -1 -2 -2 -2 -4 0 -6 -3 -6 -8 0 -6
10 -16 16 -16 3 0 5 1 7 2 1 2 1 2 -7 10 -8 8 -10 12 -6 12 2 0 4 1 5 2 1 2 1
2 0 4 -3 2 -3 2 -5 0z"/><path d="M306 158 c-2 -2 -2 -2 0 -4 0 -1 2 -2 4 -2 1 0 2 -1 2 -2 0 -4 -3 -6
-8 -6 -4 0 -5 -1 -10 -6 -6 -6 -6 -6 -4 -8 1 -2 3 -2 10 -2 l8 0 6 6 c6 5 6 6
6 10 0 5 -2 8 -6 8 -1 0 -2 1 -2 2 0 2 -3 6 -4 6 0 0 -2 -1 -2 -2z"/><path d="M161 150 c-1 -2 -1 -2 1 -4 l2 -2 2 2 c2 2 2 2 1 4 -1 1 -3 2 -3 2 0
0 -2 -1 -3 -2z"/><path d="M337 150 c-1 -2 -1 -2 1 -4 l2 -2 2 2 c2 2 2 2 1 4 -1 1 -3 2 -3 2 0
0 -2 -1 -3 -2z"/><path d="M249 142 c-1 -2 -1 -2 1 -4 l2 -2 2 2 c2 2 2 2 1 4 -1 1 -3 2 -3 2 0
0 -2 -1 -3 -2z"/><path d="M217 126 c-1 -2 -1 -2 1 -4 l2 -2 2 2 c2 2 2 2 1 4 -1 1 -3 2 -3 2 0
0 -2 -1 -3 -2z"/><path d="M225 110 c-1 -2 -1 -2 1 -4 l2 -2 2 2 c2 2 2 2 1 4 -1 1 -3 2 -3 2 0
0 -2 -1 -3 -2z"/><path d="M273 110 c-1 -2 -1 -2 1 -4 l2 -2 2 2 c2 2 2 2 1 4 -1 1 -3 2 -3 2 0
0 -2 -1 -3 -2z"/><path d="M266 94 c-1 -1 -2 -3 -2 -4 0 -1 -1 -2 -2 -2 -2 0 -4 -1 -5 -2 -1 -2
-1 -2 1 -4 2 -2 2 -2 4 -1 1 1 2 3 2 5 0 4 4 3 8 -2 4 -4 4 -4 6 -3 3 3 3 11
0 13 -2 3 -10 3 -12 0z"/><path d="M234 86 c-3 -3 0 -6 6 -6 3 0 5 1 7 2 2 3 -1 6 -7 6 -3 0 -5 -1 -6
-2z"/><path d="M249 54 c-1 -2 -1 -2 1 -4 l2 -2 2 2 c2 2 2 2 1 4 -1 1 -3 2 -3 2 0
0 -2 -1 -3 -2z"/></g>
  <g transform="scale(0.125 0.125) translate(0.000000,512.000000) scale(1.000000,-1.000000)" fill="#0f0b0d" stroke="none"><path d="M209 478 c-1 -2 -1 -2 1 -4 l2 -2 2 2 c2 2 2 2 1 4 -1 1 -3 2 -3 2 0
0 -2 -1 -3 -2z"/><path d="M289 478 c-1 -2 -1 -2 1 -4 l2 -2 2 2 c2 2 2 2 1 4 -1 1 -3 2 -3 2 0
0 -2 -1 -3 -2z"/><path d="M177 470 c-1 -2 -1 -2 1 -4 l2 -2 2 2 c2 2 2 2 1 4 -1 1 -3 2 -3 2 0
0 -2 -1 -3 -2z"/><path d="M321 470 c-1 -2 -1 -2 1 -4 l2 -2 2 2 c2 2 2 2 1 4 -1 1 -3 2 -3 2 0
0 -2 -1 -3 -2z"/><path d="M129 446 c-1 -2 -1 -2 1 -4 l2 -2 2 2 c2 2 2 2 1 4 -1 1 -3 2 -3 2 0
0 -2 -1 -3 -2z"/><path d="M186 430 c-2 -2 -2 -2 0 -4 1 -2 3 -2 12 -2 10 0 10 0 10 -2 0 -5 -3
-6 -12 -6 -10 0 -12 -1 -12 -8 0 -3 1 -5 2 -7 2 -1 2 -1 6 3 3 4 4 4 8 4 4 0
5 0 8 -4 4 -4 4 -4 6 -3 2 2 2 3 2 11 0 9 -1 12 -6 12 -1 0 -2 1 -2 2 0 5 -3
6 -12 6 -7 0 -9 0 -10 -2z"/><path d="M298 430 c-1 -1 -2 -3 -2 -4 0 -1 -1 -2 -2 -2 -5 0 -6 -3 -6 -12 0
-8 0 -9 2 -11 2 -1 2 -1 6 3 3 4 4 4 8 4 4 0 5 0 8 -4 3 -4 3 -4 10 -4 6 0 6
0 6 -2 0 -4 3 -6 8 -6 5 0 8 2 8 6 0 2 1 2 4 2 4 0 4 0 4 -2 0 -2 1 -4 2 -5 2
-1 2 -1 4 1 2 2 2 2 1 4 -1 1 -3 2 -5 2 -1 0 -2 1 -2 2 0 2 -1 4 -2 5 -2 1 -2
1 -4 0 -1 -1 -2 -3 -2 -5 0 -2 0 -2 -8 -2 -8 0 -8 0 -8 2 0 2 -1 4 -4 6 -5 4
-6 8 -2 8 2 0 4 1 5 2 1 2 1 2 0 4 -1 1 -3 2 -5 2 -1 0 -2 1 -2 2 0 5 -3 6
-12 6 -7 0 -9 0 -10 -2z m22 -10 l0 -4 -10 0 c-11 0 -14 1 -14 6 0 2 0 2 12 2
l12 0 0 -4z"/><path d="M393 430 c-1 -2 -1 -2 1 -4 l2 -2 2 2 c2 2 2 2 1 4 -1 1 -3 2 -3 2 0
0 -2 -1 -3 -2z"/><path d="M169 422 c-1 -2 -1 -2 1 -4 l2 -2 2 2 c2 2 2 2 1 4 -1 1 -3 2 -3 2 0
0 -2 -1 -3 -2z"/><path d="M225 414 c-1 -2 -1 -2 1 -4 l2 -2 2 2 c2 2 2 2 1 4 -1 1 -3 2 -3 2 0
0 -2 -1 -3 -2z"/><path d="M154 398 c-1 -1 -2 -3 -2 -4 0 -1 -1 -2 -2 -2 -2 0 -4 -1 -5 -2 -1
-2 -1 -2 1 -4 2 -2 2 -2 4 -1 1 1 2 3 2 5 0 1 1 2 2 2 2 0 4 1 5 2 1 2 1 2 0
4 -3 2 -3 2 -5 0z"/><path d="M225 398 c-1 -2 -1 -2 1 -4 l2 -2 2 2 c2 2 2 2 1 4 -1 1 -3 2 -3 2 0
0 -2 -1 -3 -2z"/><path d="M73 390 c-1 -2 -1 -2 1 -4 l2 -2 2 2 c2 2 2 2 1 4 -1 1 -3 2 -3 2 0
0 -2 -1 -3 -2z"/><path d="M250 390 c-2 -1 -2 -3 -2 -8 l0 -6 -4 0 c-4 0 -4 0 -4 2 0 2 -1 4 -2
5 -2 1 -2 1 -4 -1 -2 -2 -2 -2 -1 -4 1 -1 3 -2 5 -2 2 0 2 0 2 -6 0 -8 2 -10
8 -10 3 0 5 1 7 2 1 2 1 2 -3 6 -5 4 -6 8 -2 8 2 0 4 1 6 4 3 4 4 4 8 4 6 0 9
3 7 6 -3 3 -19 3 -21 0z"/><path d="M425 390 c-1 -2 -1 -2 1 -4 l2 -2 2 2 c2 2 2 2 1 4 -1 1 -3 2 -3 2 0
0 -2 -1 -3 -2z"/><path d="M338 382 c-3 -3 -3 -10 0 -12 3 -3 6 0 6 6 0 7 -3 10 -6 6z"/><path d="M65 374 c-1 -2 -1 -2 1 -4 l2 -2 2 2 c2 2 2 2 1 4 -1 1 -3 2 -3 2 0
0 -2 -1 -3 -2z"/><path d="M265 374 c-1 -2 -1 -2 1 -4 l2 -2 2 2 c2 2 2 2 1 4 -1 1 -3 2 -3 2 0
0 -2 -1 -3 -2z"/><path d="M433 374 c-1 -2 -1 -2 1 -4 l2 -2 2 2 c2 2 2 2 1 4 -1 1 -3 2 -3 2 0
0 -2 -1 -3 -2z"/><path d="M153 358 c-1 -2 -1 -2 1 -4 l2 -2 2 2 c2 2 2 2 1 4 -1 1 -3 2 -3 2 0
0 -2 -1 -3 -2z"/><path d="M441 358 c-1 -2 -1 -2 1 -4 l2 -2 2 2 c2 2 2 2 1 4 -1 1 -3 2 -3 2 0
0 -2 -1 -3 -2z"/><path d="M57 350 c-1 -2 -1 -2 1 -4 l2 -2 2 2 c2 2 2 2 1 4 -1 1 -3 2 -3 2 0
0 -2 -1 -3 -2z"/><path d="M169 350 c-1 -2 -1 -2 1 -4 l2 -2 2 2 c2 2 2 2 1 4 -1 1 -3 2 -3 2 0
0 -2 -1 -3 -2z"/><path d="M338 350 c-3 -3 0 -6 6 -6 6 0 9 3 7 6 -2 1 -4 2 -7 2 -3 0 -5 -1 -6
-2z"/><path d="M174 330 c-7 -7 -8 -13 -4 -16 2 -2 2 -2 8 4 6 5 6 6 6 10 0 3 -1 5
-2 6 -2 2 -2 3 -8 -4z"/><path d="M321 334 c-1 -2 -1 -2 1 -4 l2 -2 2 2 c2 2 2 2 1 4 -1 1 -3 2 -3 2 0
0 -2 -1 -3 -2z"/><path d="M314 318 c-1 -1 -2 -3 -2 -4 0 -1 -1 -2 -2 -2 -6 0 -8 -10 -4 -14 3
-3 10 -3 13 0 1 2 1 2 -3 6 -5 4 -6 8 -2 8 2 0 4 1 5 2 1 2 1 2 0 4 -3 2 -3 2
-5 0z"/><path d="M449 310 c-1 -2 -1 -2 1 -4 l2 -2 2 2 c2 2 2 2 1 4 -1 1 -3 2 -3 2 0
0 -2 -1 -3 -2z"/><path d="M194 302 c-4 -4 -2 -14 4 -14 1 0 2 -1 2 -2 0 -2 1 -4 2 -5 2 -1 2
-1 4 1 2 2 2 2 1 4 -1 1 -3 2 -5 2 -4 0 -3 4 2 8 4 4 4 4 3 6 -3 3 -11 3 -13
0z"/><path d="M305 286 c-1 -2 -1 -2 1 -4 l2 -2 2 2 c2 2 2 2 1 4 -1 1 -3 2 -3 2 0
0 -2 -1 -3 -2z"/><path d="M278 274 l-6 -6 6 -6 c6 -6 6 -6 8 -4 1 1 2 3 2 6 0 4 0 5 4 8 4 4 4
4 3 6 -2 1 -3 2 -7 2 -4 0 -5 -1 -10 -6z"/><path d="M57 270 c-1 -2 -1 -2 1 -4 l2 -2 2 2 c2 2 2 2 1 4 -1 1 -3 2 -3 2 0
0 -2 -1 -3 -2z"/><path d="M226 270 c-3 -2 -3 -10 0 -12 2 -3 10 -3 12 0 2 2 2 2 -4 8 -7 7 -6
7 -8 4z"/><path d="M441 270 c-1 -2 -1 -2 1 -4 l2 -2 2 2 c2 2 2 2 1 4 -1 1 -3 2 -3 2 0
0 -2 -1 -3 -2z"/><path d="M266 254 c-3 -3 -3 -18 0 -20 2 -2 2 -2 4 0 3 2 3 18 0 20 -2 2 -2 2
-4 0z"/><path d="M242 246 c-2 -1 -2 -3 -2 -8 0 -6 0 -6 -2 -6 -2 0 -4 -1 -4 -2 -2 -2
-2 -2 0 -4 0 -1 2 -2 4 -2 2 0 2 0 2 -6 0 -8 3 -12 6 -8 5 4 2 14 -4 14 -2 0
-2 1 -2 4 0 4 0 4 2 4 6 0 8 10 4 14 -2 2 -2 2 -4 0z"/><path d="M81 222 c-1 -2 -1 -2 1 -4 l2 -2 2 2 c2 2 2 2 1 4 -1 1 -3 2 -3 2 0
0 -2 -1 -3 -2z"/><path d="M417 222 c-1 -2 -1 -2 1 -4 l2 -2 2 2 c2 2 2 2 1 4 -1 1 -3 2 -3 2 0
0 -2 -1 -3 -2z"/><path d="M249 198 c-1 -2 -1 -2 1 -4 l2 -2 2 2 c2 2 2 2 1 4 -1 1 -3 2 -3 2 0
0 -2 -1 -3 -2z"/><path d="M121 182 c-1 -2 -1 -2 1 -4 l2 -2 2 2 c2 2 2 2 1 4 -1 1 -3 2 -3 2 0
0 -2 -1 -3 -2z"/><path d="M377 182 c-1 -2 -1 -2 1 -4 l2 -2 2 2 c2 2 2 2 1 4 -1 1 -3 2 -3 2 0
0 -2 -1 -3 -2z"/><path d="M145 166 c-1 -2 -1 -2 1 -4 l2 -2 2 2 c2 2 2 2 1 4 -1 1 -3 2 -3 2 0
0 -2 -1 -3 -2z"/><path d="M354 166 c-3 -3 -3 -10 0 -12 3 -3 6 0 6 6 0 7 -3 10 -6 6z"/><path d="M161 150 c-1 -2 -1 -2 1 -4 l2 -2 2 2 c2 2 2 2 1 4 -1 1 -3 2 -3 2 0
0 -2 -1 -3 -2z"/><path d="M186 150 c-1 -1 -2 -3 -2 -6 0 -6 10 -16 16 -16 3 0 5 1 6 2 2 2 2 2
-8 12 -11 11 -10 11 -12 8z"/><path d="M312 148 c-3 -4 -4 -4 -8 -4 -6 0 -8 -2 -8 -8 0 -6 2 -8 8 -8 6 0 16
10 16 16 0 3 -1 5 -2 6 -2 3 -2 3 -6 -2z"/><path d="M337 150 c-1 -2 -1 -2 1 -4 l2 -2 2 2 c2 2 2 2 1 4 -1 1 -3 2 -3 2 0
0 -2 -1 -3 -2z"/><path d="M274 94 c-3 -3 -3 -10 0 -12 3 -3 6 0 6 6 0 7 -3 10 -6 6z"/><path d="M233 86 c-1 -2 -1 -2 1 -4 l2 -2 2 2 c2 2 2 2 1 4 -1 1 -3 2 -3 2 0
0 -2 -1 -3 -2z"/><path d="M249 54 c-1 -2 -1 -2 1 -4 l2 -2 2 2 c2 2 2 2 1 4 -1 1 -3 2 -3 2 0
0 -2 -1 -3 -2z"/></g>
  <g transform="scale(0.125 0.125) translate(0.000000,512.000000) scale(1.000000,-1.000000)" fill="#bd6592" stroke="none"><path d="M209 478 c-1 -2 -1 -2 1 -4 l2 -2 2 2 c2 2 2 2 1 4 -1 1 -3 2 -3 2 0
0 -2 -1 -3 -2z"/><path d="M289 478 c-1 -2 -1 -2 1 -4 l2 -2 2 2 c2 2 2 2 1 4 -1 1 -3 2 -3 2 0
0 -2 -1 -3 -2z"/><path d="M177 470 c-1 -2 -1 -2 1 -4 l2 -2 2 2 c2 2 2 2 1 4 -1 1 -3 2 -3 2 0
0 -2 -1 -3 -2z"/><path d="M321 470 c-1 -2 -1 -2 1 -4 l2 -2 2 2 c2 2 2 2 1 4 -1 1 -3 2 -3 2 0
0 -2 -1 -3 -2z"/><path d="M129 446 c-1 -2 -1 -2 1 -4 l2 -2 2 2 c2 2 2 2 1 4 -1 1 -3 2 -3 2 0
0 -2 -1 -3 -2z"/><path d="M186 430 c-2 -2 -2 -2 0 -4 1 -2 3 -2 10 -2 7 0 9 0 11 2 1 2 1 2 0
4 -2 2 -4 2 -11 2 -7 0 -9 0 -10 -2z"/><path d="M298 430 c-2 -2 -2 -2 0 -4 1 -2 3 -2 10 -2 7 0 9 0 11 2 1 2 1 2 0
4 -2 2 -4 2 -11 2 -7 0 -9 0 -10 -2z"/><path d="M393 430 c-1 -2 -1 -2 1 -4 l2 -2 2 2 c2 2 2 2 1 4 -1 1 -3 2 -3 2 0
0 -2 -1 -3 -2z"/><path d="M169 422 c-1 -2 -1 -2 1 -4 l2 -2 2 2 c2 2 2 2 1 4 -1 1 -3 2 -3 2 0
0 -2 -1 -3 -2z"/><path d="M185 406 c-1 -2 -1 -2 1 -4 l2 -2 2 2 c2 2 2 2 1 4 -1 1 -3 2 -3 2 0
0 -2 -1 -3 -2z"/><path d="M209 406 c-1 -2 -1 -2 1 -4 l2 -2 2 2 c2 2 2 2 1 4 -1 1 -3 2 -3 2 0
0 -2 -1 -3 -2z"/><path d="M289 406 c-1 -2 -1 -2 1 -4 l2 -2 2 2 c2 2 2 2 1 4 -1 1 -3 2 -3 2 0
0 -2 -1 -3 -2z"/><path d="M314 406 c-4 -3 0 -6 8 -6 6 0 6 0 6 -2 0 -2 1 -4 2 -5 2 -1 2 -1 4
1 2 2 2 2 1 4 -1 1 -3 2 -5 2 -1 0 -2 1 -2 2 0 6 -10 8 -14 4z"/><path d="M225 398 c-1 -2 -1 -2 1 -4 l2 -2 2 2 c2 2 2 2 1 4 -1 1 -3 2 -3 2 0
0 -2 -1 -3 -2z"/><path d="M353 398 c-1 -2 -1 -2 1 -4 l2 -2 2 2 c2 2 2 2 1 4 -1 1 -3 2 -3 2 0
0 -2 -1 -3 -2z"/><path d="M73 390 c-1 -2 -1 -2 1 -4 l2 -2 2 2 c2 2 2 2 1 4 -1 1 -3 2 -3 2 0
0 -2 -1 -3 -2z"/><path d="M145 390 c-1 -2 -1 -2 1 -4 l2 -2 2 2 c2 2 2 2 1 4 -1 1 -3 2 -3 2 0
0 -2 -1 -3 -2z"/><path d="M249 390 c-1 -2 -1 -2 1 -4 l2 -2 2 2 c2 2 2 2 1 4 -1 1 -3 2 -3 2 0
0 -2 -1 -3 -2z"/><path d="M425 390 c-1 -2 -1 -2 1 -4 l2 -2 2 2 c2 2 2 2 1 4 -1 1 -3 2 -3 2 0
0 -2 -1 -3 -2z"/><path d="M233 382 c-1 -2 -1 -2 1 -4 l2 -2 2 2 c2 2 2 2 1 4 -1 1 -3 2 -3 2 0
0 -2 -1 -3 -2z"/><path d="M338 382 c-3 -3 -3 -10 0 -12 3 -3 6 0 6 6 0 7 -3 10 -6 6z"/><path d="M65 374 c-1 -2 -1 -2 1 -4 l2 -2 2 2 c2 2 2 2 1 4 -1 1 -3 2 -3 2 0
0 -2 -1 -3 -2z"/><path d="M265 374 c-1 -2 -1 -2 1 -4 l2 -2 2 2 c2 2 2 2 1 4 -1 1 -3 2 -3 2 0
0 -2 -1 -3 -2z"/><path d="M433 374 c-1 -2 -1 -2 1 -4 l2 -2 2 2 c2 2 2 2 1 4 -1 1 -3 2 -3 2 0
0 -2 -1 -3 -2z"/><path d="M241 366 c-1 -2 -1 -2 1 -4 l2 -2 2 2 c2 2 2 2 1 4 -1 1 -3 2 -3 2 0
0 -2 -1 -3 -2z"/><path d="M441 358 c-1 -2 -1 -2 1 -4 l2 -2 2 2 c2 2 2 2 1 4 -1 1 -3 2 -3 2 0
0 -2 -1 -3 -2z"/><path d="M57 350 c-1 -2 -1 -2 1 -4 l2 -2 2 2 c2 2 2 2 1 4 -1 1 -3 2 -3 2 0
0 -2 -1 -3 -2z"/><path d="M169 350 c-1 -2 -1 -2 1 -4 l2 -2 2 2 c2 2 2 2 1 4 -1 1 -3 2 -3 2 0
0 -2 -1 -3 -2z"/><path d="M177 334 c-1 -2 -1 -2 1 -4 l2 -2 2 2 c2 2 2 2 1 4 -1 1 -3 2 -3 2 0
0 -2 -1 -3 -2z"/><path d="M321 334 c-1 -2 -1 -2 1 -4 l2 -2 2 2 c2 2 2 2 1 4 -1 1 -3 2 -3 2 0
0 -2 -1 -3 -2z"/><path d="M169 318 c-1 -2 -1 -2 1 -4 l2 -2 2 2 c2 2 2 2 1 4 -1 1 -3 2 -3 2 0
0 -2 -1 -3 -2z"/><path d="M314 318 c-1 -1 -2 -3 -2 -4 0 -1 -1 -2 -2 -2 -2 0 -4 -1 -5 -2 -1
-2 -1 -2 1 -4 2 -2 2 -2 4 -1 1 1 2 3 2 5 0 1 1 2 2 2 2 0 4 1 5 2 1 2 1 2 0
4 -3 2 -3 2 -5 0z"/><path d="M449 310 c-1 -2 -1 -2 1 -4 l2 -2 2 2 c2 2 2 2 1 4 -1 1 -3 2 -3 2 0
0 -2 -1 -3 -2z"/><path d="M201 302 c-1 -2 -1 -2 1 -4 l2 -2 2 2 c2 2 2 2 1 4 -1 1 -3 2 -3 2 0
0 -2 -1 -3 -2z"/><path d="M305 286 c-1 -2 -1 -2 1 -4 l2 -2 2 2 c2 2 2 2 1 4 -1 1 -3 2 -3 2 0
0 -2 -1 -3 -2z"/><path d="M282 278 c-1 -1 -2 -3 -2 -4 0 -1 -1 -2 -2 -2 -2 0 -4 -1 -5 -2 -1
-2 -1 -2 1 -4 2 -2 2 -2 4 -1 1 1 2 3 2 5 0 1 1 2 2 2 2 0 4 1 5 2 1 2 1 2 0
4 -3 2 -3 2 -5 0z"/><path d="M57 270 c-1 -2 -1 -2 1 -4 l2 -2 2 2 c2 2 2 2 1 4 -1 1 -3 2 -3 2 0
0 -2 -1 -3 -2z"/><path d="M226 270 c-2 -2 -2 -2 0 -4 0 -1 2 -2 4 -2 1 0 2 -1 2 -2 0 -2 1 -4
2 -5 2 -1 2 -1 4 1 2 2 2 2 1 4 -1 1 -3 2 -5 2 -1 0 -2 1 -2 2 0 2 -3 6 -4 6
0 0 -2 -1 -2 -2z"/><path d="M441 270 c-1 -2 -1 -2 1 -4 l2 -2 2 2 c2 2 2 2 1 4 -1 1 -3 2 -3 2 0
0 -2 -1 -3 -2z"/><path d="M265 254 c-1 -2 -1 -2 1 -4 l2 -2 2 2 c2 2 2 2 1 4 -1 1 -3 2 -3 2 0
0 -2 -1 -3 -2z"/><path d="M241 246 c-1 -2 -1 -2 1 -4 l2 -2 2 2 c2 2 2 2 1 4 -1 1 -3 2 -3 2 0
0 -2 -1 -3 -2z"/><path d="M233 230 c-1 -2 -1 -2 1 -4 l2 -2 2 2 c2 2 2 2 1 4 -1 1 -3 2 -3 2 0
0 -2 -1 -3 -2z"/><path d="M81 222 c-1 -2 -1 -2 1 -4 l2 -2 2 2 c2 2 2 2 1 4 -1 1 -3 2 -3 2 0
0 -2 -1 -3 -2z"/><path d="M417 222 c-1 -2 -1 -2 1 -4 l2 -2 2 2 c2 2 2 2 1 4 -1 1 -3 2 -3 2 0
0 -2 -1 -3 -2z"/><path d="M241 214 c-1 -2 -1 -2 1 -4 l2 -2 2 2 c2 2 2 2 1 4 -1 1 -3 2 -3 2 0
0 -2 -1 -3 -2z"/><path d="M249 198 c-1 -2 -1 -2 1 -4 l2 -2 2 2 c2 2 2 2 1 4 -1 1 -3 2 -3 2 0
0 -2 -1 -3 -2z"/><path d="M121 182 c-1 -2 -1 -2 1 -4 l2 -2 2 2 c2 2 2 2 1 4 -1 1 -3 2 -3 2 0
0 -2 -1 -3 -2z"/><path d="M377 182 c-1 -2 -1 -2 1 -4 l2 -2 2 2 c2 2 2 2 1 4 -1 1 -3 2 -3 2 0
0 -2 -1 -3 -2z"/><path d="M145 166 c-1 -2 -1 -2 1 -4 l2 -2 2 2 c2 2 2 2 1 4 -1 1 -3 2 -3 2 0
0 -2 -1 -3 -2z"/><path d="M353 166 c-1 -2 -1 -2 1 -4 l2 -2 2 2 c2 2 2 2 1 4 -1 1 -3 2 -3 2 0
0 -2 -1 -3 -2z"/><path d="M185 150 c-1 -2 -1 -2 1 -4 l2 -2 2 2 c2 2 2 2 1 4 -1 1 -3 2 -3 2 0
0 -2 -1 -3 -2z"/><path d="M313 150 c-1 -2 -1 -2 1 -4 l2 -2 2 2 c2 2 2 2 1 4 -1 1 -3 2 -3 2 0
0 -2 -1 -3 -2z"/><path d="M298 142 c-3 -3 -3 -10 0 -12 3 -3 6 0 6 6 0 7 -3 10 -6 6z"/><path d="M273 94 c-1 -2 -1 -2 1 -4 l2 -2 2 2 c2 2 2 2 1 4 -1 1 -3 2 -3 2 0
0 -2 -1 -3 -2z"/><path d="M233 86 c-1 -2 -1 -2 1 -4 l2 -2 2 2 c2 2 2 2 1 4 -1 1 -3 2 -3 2 0
0 -2 -1 -3 -2z"/></g>
  <g transform="scale(0.125 0.125) translate(0.000000,512.000000) scale(1.000000,-1.000000)" fill="#d71379" stroke="none"><path d="M185 406 c-1 -2 -1 -2 1 -4 l2 -2 2 2 c2 2 2 2 1 4 -1 1 -3 2 -3 2 0
0 -2 -1 -3 -2z"/><path d="M209 406 c-1 -2 -1 -2 1 -4 l2 -2 2 2 c2 2 2 2 1 4 -1 1 -3 2 -3 2 0
0 -2 -1 -3 -2z"/><path d="M289 406 c-1 -2 -1 -2 1 -4 l2 -2 2 2 c2 2 2 2 1 4 -1 1 -3 2 -3 2 0
0 -2 -1 -3 -2z"/><path d="M314 406 c-4 -3 0 -6 8 -6 6 0 6 0 6 -2 0 -2 1 -4 2 -5 2 -1 2 -1 4
1 2 2 2 2 1 4 -1 1 -3 2 -5 2 -1 0 -2 1 -2 2 0 6 -10 8 -14 4z"/><path d="M225 398 c-1 -2 -1 -2 1 -4 l2 -2 2 2 c2 2 2 2 1 4 -1 1 -3 2 -3 2 0
0 -2 -1 -3 -2z"/><path d="M233 382 c-1 -2 -1 -2 1 -4 l2 -2 2 2 c2 2 2 2 1 4 -1 1 -3 2 -3 2 0
0 -2 -1 -3 -2z"/><path d="M338 382 c-3 -3 -3 -10 0 -12 3 -3 6 0 6 6 0 7 -3 10 -6 6z"/><path d="M265 374 c-1 -2 -1 -2 1 -4 l2 -2 2 2 c2 2 2 2 1 4 -1 1 -3 2 -3 2 0
0 -2 -1 -3 -2z"/><path d="M241 366 c-1 -2 -1 -2 1 -4 l2 -2 2 2 c2 2 2 2 1 4 -1 1 -3 2 -3 2 0
0 -2 -1 -3 -2z"/><path d="M169 350 c-1 -2 -1 -2 1 -4 l2 -2 2 2 c2 2 2 2 1 4 -1 1 -3 2 -3 2 0
0 -2 -1 -3 -2z"/><path d="M177 334 c-1 -2 -1 -2 1 -4 l2 -2 2 2 c2 2 2 2 1 4 -1 1 -3 2 -3 2 0
0 -2 -1 -3 -2z"/><path d="M321 334 c-1 -2 -1 -2 1 -4 l2 -2 2 2 c2 2 2 2 1 4 -1 1 -3 2 -3 2 0
0 -2 -1 -3 -2z"/><path d="M314 318 c-1 -1 -2 -3 -2 -4 0 -1 -1 -2 -2 -2 -2 0 -4 -1 -5 -2 -1
-2 -1 -2 1 -4 2 -2 2 -2 4 -1 1 1 2 3 2 5 0 1 1 2 2 2 2 0 4 1 5 2 1 2 1 2 0
4 -3 2 -3 2 -5 0z"/><path d="M201 302 c-1 -2 -1 -2 1 -4 l2 -2 2 2 c2 2 2 2 1 4 -1 1 -3 2 -3 2 0
0 -2 -1 -3 -2z"/><path d="M281 278 c-1 -2 -1 -2 1 -4 l2 -2 2 2 c2 2 2 2 1 4 -1 1 -3 2 -3 2 0
0 -2 -1 -3 -2z"/><path d="M265 254 c-1 -2 -1 -2 1 -4 l2 -2 2 2 c2 2 2 2 1 4 -1 1 -3 2 -3 2 0
0 -2 -1 -3 -2z"/></g>
</svg>
