<?xml version="1.0" encoding="UTF-8"?>
<svg xmlns="http://www.w3.org/2000/svg" viewBox="0 0 64 64" width="64" height="64">
  <g transform="scale(0.125 0.125) translate(0.000000,512.000000) scale(1.000000,-1.000000)" fill="#ffffff" stroke="none"><path d="M192 484 l-3 -4 -9 0 -9 0 -3 -4 c-3 -4 -4 -4 -8 -4 -4 0 -5 0 -8 -4
-3 -4 -4 -4 -8 -4 -4 0 -5 0 -8 -4 -3 -4 -4 -4 -8 -4 -4 0 -4 0 -16 -12 -12
-12 -12 -12 -16 -12 -6 0 -8 -2 -8 -8 0 -4 0 -5 -12 -16 -12 -12 -12 -12 -12
-16 0 -4 0 -5 -4 -8 l-4 -3 0 -9 0 -9 -4 -3 -4 -3 0 -49 0 -49 4 -3 c4 -3 4
-4 4 -8 0 -4 0 -5 4 -8 4 -3 4 -4 4 -8 0 -4 0 -5 4 -8 4 -3 4 -4 4 -8 l0 -4
22 -22 c22 -22 22 -22 26 -22 4 0 5 0 12 -8 7 -8 8 -8 12 -8 4 0 5 0 8 -4 l3
-4 9 0 9 0 3 -4 c3 -4 4 -4 8 -4 6 0 16 -10 16 -16 0 -4 0 -5 8 -12 8 -7 8 -8
8 -12 0 -4 0 -5 4 -8 4 -3 4 -4 4 -8 0 -4 0 -5 4 -8 4 -3 4 -4 4 -8 0 -4 0 -5
8 -12 8 -7 8 -8 8 -12 0 -3 1 -5 2 -6 2 -2 2 -2 8 4 6 5 6 6 6 10 0 4 0 5 4 8
4 3 4 4 4 8 0 4 0 5 8 12 8 7 8 8 8 12 0 4 0 5 4 8 4 3 4 4 4 8 0 4 0 5 4 8 4
3 4 4 4 8 0 4 0 5 6 10 5 6 6 6 10 6 4 0 5 0 8 4 l3 4 9 0 9 0 3 4 c3 4 4 4 8
4 4 0 5 0 12 8 7 8 8 8 12 8 4 0 4 0 26 22 22 22 22 22 22 26 0 4 0 5 8 12 l8
8 0 8 0 9 4 3 4 3 0 9 0 9 4 3 4 3 0 25 0 25 -4 3 -4 3 0 13 0 13 -4 3 c-4 3
-4 4 -4 8 0 4 0 5 -4 8 -4 3 -4 4 -4 8 0 4 0 5 -8 12 -8 7 -8 8 -8 12 0 4 0 5
-10 14 -9 10 -10 10 -14 10 -4 0 -5 0 -12 8 -7 8 -8 8 -12 8 -4 0 -5 0 -8 4
-3 4 -4 4 -8 4 -4 0 -5 0 -8 4 -3 4 -4 4 -8 4 -4 0 -5 0 -8 4 l-3 4 -9 0 -9 0
-3 4 -3 4 -57 0 -57 0 -3 -4z"/></g>
  <g transform="scale(0.125 0.125) translate(0.000000,512.000000) scale(1.000000,-1.000000)" fill="#ff2c96" stroke="none"><path d="M192 484 l-3 -4 -9 0 -9 0 -3 -4 c-3 -4 -4 -4 -8 -4 -4 0 -5 0 -8 -4
-3 -4 -4 -4 -8 -4 -4 0 -5 0 -8 -4 -3 -4 -4 -4 -8 -4 -4 0 -4 0 -16 -12 -12
-12 -12 -12 -16 -12 -6 0 -8 -2 -8 -8 0 -4 0 -5 -12 -16 -12 -12 -12 -12 -12
-16 0 -4 0 -5 -4 -8 l-4 -3 0 -9 0 -9 -4 -3 -4 -3 0 -49 0 -49 4 -3 c4 -3 4
-4 4 -8 0 -4 0 -5 4 -8 4 -3 4 -4 4 -8 0 -4 0 -5 4 -8 4 -3 4 -4 4 -8 l0 -4
22 -22 c22 -22 22 -22 26 -22 4 0 5 0 12 -8 7 -8 8 -8 12 -8 4 0 5 0 8 -4 l3
-4 9 0 9 0 3 -4 c3 -4 4 -4 8 -4 6 0 16 -10 16 -16 0 -4 0 -5 8 -12 8 -7 8 -8
8 -12 0 -4 0 -5 4 -8 4 -3 4 -4 4 -8 0 -4 0 -5 4 -8 4 -3 4 -4 4 -8 0 -4 0 -5
8 -12 8 -7 8 -8 8 -12 0 -3 1 -5 2 -6 2 -2 2 -2 8 4 6 5 6 6 6 10 0 4 0 5 4 8
4 3 4 4 4 8 0 4 0 5 8 12 8 7 8 8 8 12 0 4 0 5 4 8 4 3 4 4 4 8 0 4 0 5 4 8 4
3 4 4 4 8 0 4 0 5 6 10 5 6 6 6 10 6 4 0 5 0 8 4 l3 4 9 0 9 0 3 4 c3 4 4 4 8
4 4 0 5 0 12 8 7 8 8 8 12 8 4 0 4 0 26 22 22 22 22 22 22 26 0 4 0 5 8 12 l8
8 0 8 0 9 4 3 4 3 0 9 0 9 4 3 4 3 0 25 0 25 -4 3 -4 3 0 13 0 13 -4 3 c-4 3
-4 4 -4 8 0 4 0 5 -4 8 -4 3 -4 4 -4 8 0 4 0 5 -8 12 -8 7 -8 8 -8 12 0 4 0 5
-10 14 -9 10 -10 10 -14 10 -4 0 -5 0 -12 8 -7 8 -8 8 -12 8 -4 0 -5 0 -8 4
-3 4 -4 4 -8 4 -4 0 -5 0 -8 4 -3 4 -4 4 -8 4 -4 0 -5 0 -8 4 l-3 4 -9 0 -9 0
-3 4 -3 4 -57 0 -57 0 -3 -4z m64 -8 l3 -4 21 0 21 0 3 -4 3 -4 9 0 9 0 3 -4
c3 -4 4 -4 8 -4 4 0 5 0 8 -4 3 -4 4 -4 8 -4 4 0 5 0 12 -8 7 -8 8 -8 12 -8 4
0 4 0 22 -18 18 -18 18 -18 18 -22 0 -4 0 -5 4 -8 4 -3 4 -4 4 -8 0 -4 0 -5 4
-8 4 -3 4 -4 4 -8 0 -4 0 -5 4 -8 l4 -3 0 -41 0 -41 -4 -3 c-4 -3 -4 -4 -4 -8
0 -4 0 -5 -8 -12 -8 -7 -8 -8 -8 -12 0 -4 0 -4 -22 -26 -22 -22 -22 -22 -26
-22 -4 0 -5 0 -12 -8 l-8 -8 -8 0 -9 0 -3 -4 -3 -4 -9 0 -8 0 -6 -6 -6 -6 0
-8 0 -8 -8 -8 c-8 -7 -8 -8 -8 -12 0 -4 0 -5 -8 -12 -8 -7 -8 -8 -8 -12 0 -4
-1 -5 -6 -10 l-6 -6 -6 6 c-6 5 -6 6 -6 10 0 4 0 5 -4 8 -4 3 -4 4 -4 8 0 4 0
5 -8 12 l-8 8 0 8 0 8 -6 6 c-5 6 -6 6 -10 6 -4 0 -5 0 -8 4 -3 4 -4 4 -8 4
-4 0 -5 0 -8 4 l-3 4 -9 0 -8 0 -8 8 c-7 8 -8 8 -12 8 -4 0 -4 0 -30 26 l-26
26 0 4 c0 4 0 5 -4 8 l-4 3 0 9 0 9 -4 3 -4 3 0 37 0 37 4 3 4 3 0 9 0 8 8 8
c8 7 8 8 8 12 0 4 0 4 22 26 l22 22 4 0 c4 0 5 0 8 4 3 4 4 4 8 4 4 0 5 0 8 4
3 4 4 4 8 4 4 0 5 0 8 4 l3 4 9 0 9 0 3 4 3 4 21 0 21 0 3 4 c2 2 4 4 4 4 0 0
2 -2 4 -4z"/><path d="M170 406 c-10 -10 -10 -10 -10 -14 0 -4 0 -5 -4 -8 l-4 -3 0 -13 0
-13 4 -3 4 -3 0 -9 0 -8 12 -12 c12 -11 12 -12 12 -16 0 -4 0 -5 12 -16 12
-11 12 -12 12 -16 0 -4 0 -5 8 -12 8 -7 8 -8 8 -12 0 -4 0 -5 8 -12 8 -7 8 -8
8 -12 0 -4 0 -5 4 -8 4 -3 4 -4 4 -8 0 -6 3 -9 6 -6 1 1 2 3 2 6 0 4 0 5 8 12
8 7 8 8 8 12 0 4 0 5 4 8 4 3 4 4 4 8 0 4 0 5 8 12 8 7 8 8 8 12 0 4 0 4 16
20 16 16 16 16 16 20 0 4 0 5 8 12 l8 8 0 8 0 9 4 3 4 3 0 17 0 16 -14 14 -14
14 -24 0 -24 0 -12 -12 -12 -12 -12 12 -12 12 -24 0 -24 0 -10 -10z"/></g>
  <g transform="scale(0.125 0.125) translate(0.000000,512.000000) scale(1.000000,-1.000000)" fill="#343434" stroke="none"><path d="M192 484 l-3 -4 -9 0 -9 0 -3 -4 c-3 -4 -4 -4 -8 -4 -4 0 -5 0 -8 -4
-3 -4 -4 -4 -8 -4 -4 0 -5 0 -8 -4 -3 -4 -4 -4 -8 -4 -4 0 -4 0 -16 -12 -12
-12 -12 -12 -16 -12 -6 0 -8 -2 -8 -8 0 -4 0 -5 -12 -16 -12 -12 -12 -12 -12
-16 0 -4 0 -5 -4 -8 l-4 -3 0 -9 0 -9 -4 -3 -4 -3 0 -49 0 -49 4 -3 c4 -3 4
-4 4 -8 0 -4 0 -5 4 -8 4 -3 4 -4 4 -8 0 -4 0 -5 4 -8 4 -3 4 -4 4 -8 l0 -4
22 -22 c22 -22 22 -22 26 -22 4 0 5 0 12 -8 7 -8 8 -8 12 -8 4 0 5 0 8 -4 l3
-4 9 0 9 0 3 -4 c3 -4 4 -4 8 -4 6 0 16 -10 16 -16 0 -4 0 -5 8 -12 8 -7 8 -8
8 -12 0 -4 0 -5 4 -8 4 -3 4 -4 4 -8 0 -4 0 -5 4 -8 4 -3 4 -4 4 -8 0 -4 0 -5
8 -12 8 -7 8 -8 8 -12 0 -3 1 -5 2 -6 2 -2 2 -2 8 4 6 5 6 6 6 10 0 4 0 5 4 8
4 3 4 4 4 8 0 4 0 5 8 12 8 7 8 8 8 12 0 4 0 5 4 8 4 3 4 4 4 8 0 4 0 5 4 8 4
3 4 4 4 8 0 4 0 5 6 10 5 6 6 6 10 6 4 0 5 0 8 4 l3 4 9 0 9 0 3 4 c3 4 4 4 8
4 4 0 5 0 12 8 7 8 8 8 12 8 4 0 4 0 26 22 22 22 22 22 22 26 0 4 0 5 8 12 l8
8 0 8 0 9 4 3 4 3 0 9 0 9 4 3 4 3 0 25 0 25 -4 3 -4 3 0 13 0 13 -4 3 c-4 3
-4 4 -4 8 0 4 0 5 -4 8 -4 3 -4 4 -4 8 0 4 0 5 -8 12 -8 7 -8 8 -8 12 0 4 0 5
-10 14 -9 10 -10 10 -14 10 -4 0 -5 0 -12 8 -7 8 -8 8 -12 8 -4 0 -5 0 -8 4
-3 4 -4 4 -8 4 -4 0 -5 0 -8 4 -3 4 -4 4 -8 4 -4 0 -5 0 -8 4 l-3 4 -9 0 -9 0
-3 4 -3 4 -57 0 -57 0 -3 -4z m64 -8 l3 -4 21 0 21 0 3 -4 3 -4 9 0 9 0 3 -4
c3 -4 4 -4 8 -4 4 0 5 0 8 -4 3 -4 4 -4 8 -4 4 0 5 0 12 -8 7 -8 8 -8 12 -8 4
0 4 0 22 -18 18 -18 18 -18 18 -22 0 -4 0 -5 4 -8 4 -3 4 -4 4 -8 0 -4 0 -5 4
-8 4 -3 4 -4 4 -8 0 -4 0 -5 4 -8 l4 -3 0 -41 0 -41 -4 -3 c-4 -3 -4 -4 -4 -8
0 -4 0 -5 -8 -12 -8 -7 -8 -8 -8 -12 0 -4 0 -4 -22 -26 -22 -22 -22 -22 -26
-22 -4 0 -5 0 -12 -8 l-8 -8 -8 0 -9 0 -3 -4 -3 -4 -9 0 -8 0 -6 -6 -6 -6 0
-8 0 -8 -8 -8 c-8 -7 -8 -8 -8 -12 0 -4 0 -5 -8 -12 -8 -7 -8 -8 -8 -12 0 -4
-1 -5 -6 -10 l-6 -6 -6 6 c-6 5 -6 6 -6 10 0 4 0 5 -4 8 -4 3 -4 4 -4 8 0 4 0
5 -8 12 l-8 8 0 8 0 8 -6 6 c-5 6 -6 6 -10 6 -4 0 -5 0 -8 4 -3 4 -4 4 -8 4
-4 0 -5 0 -8 4 l-3 4 -9 0 -8 0 -8 8 c-7 8 -8 8 -12 8 -4 0 -4 0 -30 26 l-26
26 0 4 c0 4 0 5 -4 8 l-4 3 0 9 0 9 -4 3 -4 3 0 37 0 37 4 3 4 3 0 9 0 8 8 8
c8 7 8 8 8 12 0 4 0 4 22 26 l22 22 4 0 c4 0 5 0 8 4 3 4 4 4 8 4 4 0 5 0 8 4
3 4 4 4 8 4 4 0 5 0 8 4 l3 4 9 0 9 0 3 4 3 4 21 0 21 0 3 4 c2 2 4 4 4 4 0 0
2 -2 4 -4z"/><path d="M170 406 c-10 -10 -10 -10 -10 -14 0 -4 0 -5 -4 -8 l-4 -3 0 -13 0
-13 4 -3 4 -3 0 -9 0 -8 12 -12 c12 -11 12 -12 12 -16 0 -4 0 -5 12 -16 12
-11 12 -12 12 -16 0 -4 0 -5 8 -12 8 -7 8 -8 8 -12 0 -4 0 -5 8 -12 8 -7 8 -8
8 -12 0 -4 0 -5 4 -8 4 -3 4 -4 4 -8 0 -6 3 -9 6 -6 1 1 2 3 2 6 0 4 0 5 8 12
8 7 8 8 8 12 0 4 0 5 4 8 4 3 4 4 4 8 0 4 0 5 8 12 8 7 8 8 8 12 0 4 0 4 16
20 16 16 16 16 16 20 0 4 0 5 8 12 l8 8 0 8 0 9 4 3 4 3 0 17 0 16 -14 14 -14
14 -24 0 -24 0 -12 -12 -12 -12 -12 12 -12 12 -24 0 -24 0 -10 -10z m86 -58
l3 -4 29 0 c28 0 29 0 31 -2 1 -2 1 -2 -3 -6 -4 -3 -4 -4 -4 -8 0 -4 0 -5 -4
-8 -4 -3 -4 -4 -4 -8 0 -4 0 -4 -12 -16 -12 -11 -12 -12 -12 -16 0 -4 0 -5 -8
-12 -8 -7 -8 -8 -8 -12 0 -4 -1 -5 -6 -10 -6 -6 -6 -6 -8 -4 -1 1 -2 3 -2 6 0
4 0 5 -8 12 -8 7 -8 8 -8 12 0 4 0 5 -12 16 -12 11 -12 12 -12 16 0 4 0 5 -8
12 -8 7 -8 8 -8 12 0 4 0 5 -4 8 -4 4 -4 4 -3 6 2 2 3 2 31 2 l29 0 3 4 c2 2
4 4 4 4 0 0 2 -2 4 -4z"/></g>
  <g transform="scale(0.125 0.125) translate(0.000000,512.000000) scale(1.000000,-1.000000)" fill="#ff1088" stroke="none"><path d="M202 478 c-1 -1 -2 -3 -2 -4 0 -2 0 -2 -10 -2 -12 0 -14 -1 -14 -6 0
-2 0 -2 -10 -2 l-11 0 -3 -4 c-3 -4 -4 -4 -8 -4 -4 0 -5 0 -10 -6 -4 -3 -6 -7
-6 -8 0 -2 -1 -2 -6 -2 l-6 0 -16 -16 c-16 -16 -16 -16 -20 -16 -5 0 -8 -2 -8
-6 0 -1 -1 -2 -2 -2 -2 0 -4 -1 -4 -2 -2 -2 -2 -2 0 -4 0 -1 2 -2 4 -2 1 0 2
-1 2 -2 0 -4 -3 -6 -8 -6 -3 0 -5 -1 -7 -2 -1 -2 -1 -2 3 -6 l5 -4 -5 -4 -4
-3 0 -13 0 -13 -4 -3 -4 -3 0 -25 0 -25 4 -3 c4 -3 4 -4 4 -8 0 -4 0 -5 -4 -8
-4 -4 -4 -4 -3 -6 2 -1 4 -2 7 -2 6 0 8 -2 8 -8 0 -4 0 -5 4 -8 4 -3 4 -4 4
-8 0 -4 0 -5 4 -8 5 -4 6 -8 2 -8 -2 0 -4 -1 -5 -2 -1 -2 -1 -2 1 -4 2 -2 2
-2 4 -1 1 1 2 3 2 5 0 4 4 2 14 -8 10 -10 12 -14 8 -14 -2 0 -4 -1 -5 -2 -1
-2 -1 -2 1 -4 2 -2 2 -2 4 -1 1 1 2 3 2 5 0 4 4 2 10 -4 5 -5 6 -6 6 -10 0 -4
1 -5 6 -10 l6 -6 4 4 c4 4 4 4 6 3 1 -2 2 -4 2 -7 0 -3 1 -5 2 -7 2 -1 2 -1 6
3 4 4 4 4 6 3 1 -2 2 -4 2 -7 0 -6 2 -8 8 -8 4 0 5 0 8 4 4 4 4 4 6 3 1 -2 2
-4 2 -7 0 -4 0 -5 8 -12 8 -7 8 -8 8 -12 0 -4 0 -5 8 -12 8 -7 8 -8 8 -12 0
-4 0 -5 4 -8 4 -3 4 -4 4 -8 0 -4 0 -5 4 -8 4 -3 4 -4 4 -8 0 -4 0 -5 8 -12 8
-7 8 -8 8 -12 0 -3 1 -5 2 -6 2 -2 2 -2 8 4 6 5 6 6 6 10 0 4 0 5 4 8 4 3 4 4
4 8 0 4 0 5 8 12 8 7 8 8 8 12 0 4 0 5 4 8 4 3 4 4 4 8 0 4 0 5 4 8 4 3 4 4 4
8 0 4 0 5 8 12 8 7 8 8 8 12 0 3 1 5 2 7 2 1 2 1 6 -3 3 -4 4 -4 8 -4 6 0 8 2
8 8 0 3 1 5 2 7 2 1 2 1 6 -3 4 -4 4 -4 6 -3 1 2 2 4 2 7 0 3 1 5 2 7 2 1 2 1
6 -3 l4 -4 6 6 c6 5 6 6 6 10 0 5 2 8 6 8 1 0 2 -1 2 -2 0 -2 1 -4 2 -4 2 -2
2 -2 4 0 1 0 2 2 2 4 0 1 1 2 2 2 3 0 14 11 14 14 0 1 1 2 2 2 3 0 6 3 6 6 0
1 1 2 2 2 2 0 4 1 5 2 1 2 1 2 0 4 -1 1 -3 2 -5 2 -1 0 -2 1 -2 2 0 4 3 6 8 6
5 0 8 2 8 6 0 1 1 2 2 2 4 0 6 3 6 8 0 4 0 5 -4 8 -4 4 -4 4 -3 6 2 1 4 2 7 2
3 0 5 1 7 2 1 2 1 2 -3 6 l-4 4 0 8 c0 8 0 9 2 11 2 1 2 1 6 -3 4 -4 4 -4 6
-3 2 2 2 3 2 27 0 28 0 28 -8 28 -6 0 -8 2 -8 8 0 4 0 5 4 8 4 3 4 4 4 8 0 6
-2 8 -8 8 -3 0 -5 1 -7 2 -1 2 -1 2 3 6 4 4 4 4 3 6 -2 1 -4 2 -7 2 -5 0 -8 2
-8 6 0 1 1 2 2 2 2 0 4 1 5 2 1 2 1 2 0 4 -1 1 -3 2 -5 2 -1 0 -2 1 -2 2 0 4
-3 6 -8 6 -4 0 -4 0 -20 16 -16 16 -16 16 -20 16 -4 0 -5 0 -12 8 -7 8 -8 8
-12 8 -4 0 -5 0 -8 4 l-3 4 -11 0 c-10 0 -10 0 -10 2 0 5 -3 6 -14 6 -10 0
-10 0 -10 2 0 6 -2 6 -24 6 -19 0 -21 0 -22 -2 -2 -2 -2 -2 0 -4 1 -2 3 -2 24
-2 l22 0 0 -2 c0 -5 3 -6 14 -6 10 0 10 0 10 -2 0 -4 3 -6 8 -6 4 0 5 0 8 -4
3 -4 4 -4 8 -4 4 0 5 0 12 -8 7 -8 8 -8 12 -8 4 0 4 0 22 -18 18 -18 18 -18
18 -22 0 -4 0 -5 4 -8 4 -3 4 -4 4 -8 0 -4 0 -5 4 -8 4 -3 4 -4 4 -8 0 -4 0
-5 4 -8 l4 -3 0 -41 0 -41 -4 -3 c-4 -3 -4 -4 -4 -8 0 -4 0 -5 -8 -12 -8 -7
-8 -8 -8 -12 0 -4 0 -4 -22 -26 -22 -22 -22 -22 -26 -22 -4 0 -5 0 -12 -8 l-8
-8 -8 0 -9 0 -3 -4 -3 -4 -9 0 -8 0 -6 -6 -6 -6 0 -8 0 -8 -8 -8 c-8 -7 -8 -8
-8 -12 0 -4 0 -5 -8 -12 -8 -7 -8 -8 -8 -12 0 -4 -1 -5 -6 -10 l-6 -6 -6 6
c-6 5 -6 6 -6 10 0 4 0 5 -4 8 -4 3 -4 4 -4 8 0 4 0 5 -8 12 l-8 8 0 8 0 8 -6
6 c-5 6 -6 6 -10 6 -4 0 -5 0 -8 4 -3 4 -4 4 -8 4 -4 0 -5 0 -8 4 l-3 4 -9 0
-8 0 -8 8 c-7 8 -8 8 -12 8 -4 0 -4 0 -30 26 l-26 26 0 4 c0 4 0 5 -4 8 l-4 3
0 9 0 9 -4 3 -4 3 0 37 0 37 4 3 4 3 0 9 0 8 8 8 c8 7 8 8 8 12 0 4 0 4 20 24
13 13 20 21 20 22 0 2 1 2 6 2 7 0 7 0 10 4 3 4 4 4 8 4 4 0 5 0 8 4 3 4 4 4
8 4 5 0 8 2 8 6 0 2 0 2 10 2 12 0 14 1 14 6 0 2 0 2 22 2 21 0 23 0 25 2 1 2
1 2 0 4 -3 3 -43 3 -45 0z m-123 -80 c1 -2 1 -2 0 -4 -4 -4 -7 -3 -7 2 0 5 3
6 7 2z m353 -2 c0 -5 -3 -6 -6 -2 -2 2 -2 2 0 4 3 4 6 3 6 -2z m6 -158 c1 -1
2 -2 2 -4 0 -3 -4 -3 -6 0 -2 2 -2 2 0 4 2 2 2 2 4 0z m-14 -26 l0 -4 -4 0 -4
0 0 -4 c0 -5 -3 -6 -6 -2 -2 2 -2 2 0 4 0 1 2 2 4 2 1 0 2 1 2 2 0 3 3 6 6 6
2 0 2 0 2 -4z m-26 -22 c1 -1 2 -2 2 -4 0 -2 0 -2 -4 -2 -5 0 -6 3 -2 6 2 2 2
2 4 0z"/><path d="M170 406 l-10 -10 4 -4 c4 -4 4 -4 3 -6 -2 -1 -4 -2 -7 -2 -7 0 -8
-1 -8 -16 l0 -13 4 -3 4 -3 0 -9 c0 -9 1 -12 6 -12 1 0 2 -1 2 -2 0 -2 3 -5 8
-10 8 -7 8 -8 8 -12 0 -4 0 -5 12 -16 12 -12 12 -12 12 -16 0 -5 2 -8 6 -8 1
0 2 -1 2 -2 0 -2 1 -4 4 -6 4 -3 4 -4 4 -8 0 -5 2 -8 6 -8 1 0 2 -1 2 -2 0 -4
3 -6 8 -6 3 0 5 -1 7 -2 1 -2 1 -2 -3 -6 -4 -4 -4 -4 -3 -6 2 -2 3 -2 11 -2
l8 0 6 6 c6 5 6 6 6 10 0 4 0 5 4 8 4 3 4 4 4 8 0 4 0 5 8 12 l9 8 -5 4 c-4 4
-4 4 -3 6 2 1 4 2 7 2 4 0 4 0 14 10 6 6 10 11 10 12 0 1 1 2 2 2 4 0 6 3 6 8
0 4 0 5 8 12 8 7 8 8 8 12 0 4 0 5 -4 8 -4 4 -4 4 -3 6 2 1 4 2 7 2 8 0 8 1 8
20 l0 16 -14 14 -14 14 -12 0 -12 0 -4 -4 -4 -4 -4 4 c-3 4 -4 4 -8 4 -5 0 -8
-2 -8 -6 0 -1 -1 -2 -2 -2 -3 0 -6 -3 -6 -6 0 -1 -1 -2 -2 -2 -2 0 -4 -1 -6
-4 -4 -5 -8 -6 -8 -2 0 1 -4 6 -10 12 l-10 10 -24 0 -24 0 -10 -10z m109 0 c1
-2 1 -2 0 -4 -1 -1 -3 -2 -5 -2 -1 0 -2 -1 -2 -2 0 -2 -1 -4 -2 -4 -2 -2 -2
-2 -4 0 -4 3 -3 6 2 6 l4 0 0 4 c0 5 3 6 7 2z m-31 -16 c0 -2 -1 -4 -2 -5 -2
-1 -2 -1 -4 1 -2 2 -2 2 -1 4 3 3 7 3 7 0z m8 -42 l3 -4 29 0 c28 0 29 0 31
-2 1 -2 1 -2 -3 -6 -4 -3 -4 -4 -4 -8 0 -4 0 -5 -4 -8 -4 -3 -4 -4 -4 -8 0 -4
0 -4 -12 -16 -12 -11 -12 -12 -12 -16 0 -4 0 -5 -8 -12 -8 -7 -8 -8 -8 -12 0
-4 -1 -5 -6 -10 -6 -6 -6 -6 -8 -4 -1 1 -2 3 -2 6 0 4 0 5 -8 12 -8 7 -8 8 -8
12 0 4 0 5 -12 16 -12 11 -12 12 -12 16 0 4 0 5 -8 12 -8 7 -8 8 -8 12 0 4 0
5 -4 8 -4 4 -4 4 -3 6 2 2 3 2 31 2 l29 0 3 4 c2 2 4 4 4 4 0 0 2 -2 4 -4z
m-81 -14 c1 -2 1 -2 0 -4 -3 -3 -7 -3 -7 0 0 2 3 6 4 6 0 0 2 -1 3 -2z m143
-24 c1 -1 2 -2 2 -4 0 -3 -4 -3 -6 0 -2 2 -2 2 0 4 2 2 2 2 4 0z m-95 -40 c1
-2 1 -2 0 -4 -3 -3 -7 -3 -7 0 0 2 3 6 4 6 0 0 2 -1 3 -2z m16 -24 c1 -2 1 -2
0 -4 -3 -3 -7 -3 -7 0 0 2 3 6 4 6 0 0 2 -1 3 -2z"/><path d="M249 206 c-1 -2 -1 -2 1 -4 l2 -2 2 2 c2 2 2 2 1 4 -1 1 -3 2 -3 2 0
0 -2 -1 -3 -2z"/></g>
  <g transform="scale(0.125 0.125) translate(0.000000,512.000000) scale(1.000000,-1.000000)" fill="#797778" stroke="none"><path d="M202 478 c-1 -1 -2 -3 -2 -4 0 -2 0 -2 -10 -2 -12 0 -14 -1 -14 -6 0
-2 0 -2 -10 -2 l-11 0 -3 -4 c-3 -4 -4 -4 -8 -4 -4 0 -5 0 -10 -6 -4 -3 -6 -7
-6 -8 0 -2 -1 -2 -6 -2 l-6 0 -16 -16 c-16 -16 -16 -16 -20 -16 -5 0 -8 -2 -8
-6 0 -1 -1 -2 -2 -2 -2 0 -4 -1 -4 -2 -2 -2 -2 -2 0 -4 0 -1 2 -2 4 -2 1 0 2
-1 2 -2 0 -4 -3 -6 -8 -6 -3 0 -5 -1 -7 -2 -1 -2 -1 -2 3 -6 l5 -4 -5 -4 -4
-3 0 -13 0 -13 -4 -3 -4 -3 0 -25 0 -25 4 -3 c4 -3 4 -4 4 -8 0 -4 0 -5 -4 -8
-4 -4 -4 -4 -3 -6 2 -1 4 -2 7 -2 6 0 8 -2 8 -8 0 -4 0 -5 4 -8 4 -3 4 -4 4
-8 0 -4 0 -5 4 -8 5 -4 6 -8 2 -8 -2 0 -4 -1 -5 -2 -1 -2 -1 -2 1 -4 2 -2 2
-2 4 -1 1 1 2 3 2 5 0 4 4 2 14 -8 10 -10 12 -14 8 -14 -2 0 -4 -1 -5 -2 -1
-2 -1 -2 1 -4 2 -2 2 -2 4 -1 1 1 2 3 2 5 0 4 4 2 10 -4 5 -5 6 -6 6 -10 0 -4
1 -5 6 -10 l6 -6 4 4 c4 4 4 4 6 3 1 -2 2 -4 2 -7 0 -3 1 -5 2 -7 2 -1 2 -1 6
3 4 4 4 4 6 3 1 -2 2 -4 2 -7 0 -6 2 -8 8 -8 4 0 5 0 8 4 4 4 4 4 6 3 1 -2 2
-4 2 -7 0 -4 0 -5 8 -12 8 -7 8 -8 8 -12 0 -4 0 -5 8 -12 8 -7 8 -8 8 -12 0
-4 0 -5 4 -8 4 -3 4 -4 4 -8 0 -4 0 -5 4 -8 4 -3 4 -4 4 -8 0 -4 0 -5 8 -12 8
-7 8 -8 8 -12 0 -3 1 -5 2 -6 2 -2 2 -2 8 4 6 5 6 6 6 10 0 4 0 5 4 8 4 3 4 4
4 8 0 4 0 5 8 12 8 7 8 8 8 12 0 4 0 5 4 8 4 3 4 4 4 8 0 4 0 5 4 8 4 3 4 4 4
8 0 4 0 5 8 12 8 7 8 8 8 12 0 3 1 5 2 7 2 1 2 1 6 -3 3 -4 4 -4 8 -4 6 0 8 2
8 8 0 3 1 5 2 7 2 1 2 1 6 -3 4 -4 4 -4 6 -3 1 2 2 4 2 7 0 3 1 5 2 7 2 1 2 1
6 -3 l4 -4 6 6 c6 5 6 6 6 10 0 5 2 8 6 8 1 0 2 -1 2 -2 0 -2 1 -4 2 -4 2 -2
2 -2 4 0 1 0 2 2 2 4 0 1 1 2 2 2 3 0 14 11 14 14 0 1 1 2 2 2 3 0 6 3 6 6 0
1 1 2 2 2 2 0 4 1 5 2 1 2 1 2 0 4 -1 1 -3 2 -5 2 -1 0 -2 1 -2 2 0 4 3 6 8 6
5 0 8 2 8 6 0 1 1 2 2 2 4 0 6 3 6 8 0 4 0 5 -4 8 -4 4 -4 4 -3 6 2 1 4 2 7 2
3 0 5 1 7 2 1 2 1 2 -3 6 l-4 4 0 8 c0 8 0 9 2 11 2 1 2 1 6 -3 4 -4 4 -4 6
-3 2 2 2 3 2 27 0 28 0 28 -8 28 -6 0 -8 2 -8 8 0 4 0 5 4 8 4 3 4 4 4 8 0 6
-2 8 -8 8 -3 0 -5 1 -7 2 -1 2 -1 2 3 6 4 4 4 4 3 6 -2 1 -4 2 -7 2 -5 0 -8 2
-8 6 0 1 1 2 2 2 2 0 4 1 5 2 1 2 1 2 0 4 -1 1 -3 2 -5 2 -1 0 -2 1 -2 2 0 4
-3 6 -8 6 -4 0 -4 0 -20 16 -16 16 -16 16 -20 16 -4 0 -5 0 -12 8 -7 8 -8 8
-12 8 -4 0 -5 0 -8 4 l-3 4 -11 0 c-10 0 -10 0 -10 2 0 5 -3 6 -14 6 -10 0
-10 0 -10 2 0 6 -2 6 -24 6 -19 0 -21 0 -22 -2 -2 -2 -2 -2 0 -4 1 -2 3 -2 24
-2 l22 0 0 -2 c0 -5 3 -6 14 -6 10 0 10 0 10 -2 0 -4 3 -6 8 -6 4 0 5 0 8 -4
3 -4 4 -4 8 -4 4 0 5 0 12 -8 7 -8 8 -8 12 -8 4 0 4 0 22 -18 18 -18 18 -18
18 -22 0 -4 0 -5 4 -8 4 -3 4 -4 4 -8 0 -4 0 -5 4 -8 4 -3 4 -4 4 -8 0 -4 0
-5 4 -8 l4 -3 0 -41 0 -41 -4 -3 c-4 -3 -4 -4 -4 -8 0 -4 0 -5 -8 -12 -8 -7
-8 -8 -8 -12 0 -4 0 -4 -22 -26 -22 -22 -22 -22 -26 -22 -4 0 -5 0 -12 -8 l-8
-8 -8 0 -9 0 -3 -4 -3 -4 -9 0 -8 0 -6 -6 -6 -6 0 -8 0 -8 -8 -8 c-8 -7 -8 -8
-8 -12 0 -4 0 -5 -8 -12 -8 -7 -8 -8 -8 -12 0 -4 -1 -5 -6 -10 l-6 -6 -6 6
c-6 5 -6 6 -6 10 0 4 0 5 -4 8 -4 3 -4 4 -4 8 0 4 0 5 -8 12 l-8 8 0 8 0 8 -6
6 c-5 6 -6 6 -10 6 -4 0 -5 0 -8 4 -3 4 -4 4 -8 4 -4 0 -5 0 -8 4 l-3 4 -9 0
-8 0 -8 8 c-7 8 -8 8 -12 8 -4 0 -4 0 -30 26 l-26 26 0 4 c0 4 0 5 -4 8 l-4 3
0 9 0 9 -4 3 -4 3 0 37 0 37 4 3 4 3 0 9 0 8 8 8 c8 7 8 8 8 12 0 4 0 4 20 24
13 13 20 21 20 22 0 2 1 2 6 2 7 0 7 0 10 4 3 4 4 4 8 4 4 0 5 0 8 4 3 4 4 4
8 4 5 0 8 2 8 6 0 2 0 2 10 2 12 0 14 1 14 6 0 2 0 2 22 2 21 0 23 0 25 2 1 2
1 2 0 4 -3 3 -43 3 -45 0z m-123 -80 c1 -2 1 -2 0 -4 -4 -4 -7 -3 -7 2 0 5 3
6 7 2z m353 -2 c0 -5 -3 -6 -6 -2 -2 2 -2 2 0 4 3 4 6 3 6 -2z m6 -158 c1 -1
2 -2 2 -4 0 -3 -4 -3 -6 0 -2 2 -2 2 0 4 2 2 2 2 4 0z m-14 -26 l0 -4 -4 0 -4
0 0 -4 c0 -5 -3 -6 -6 -2 -2 2 -2 2 0 4 0 1 2 2 4 2 1 0 2 1 2 2 0 3 3 6 6 6
2 0 2 0 2 -4z m-26 -22 c1 -1 2 -2 2 -4 0 -2 0 -2 -4 -2 -5 0 -6 3 -2 6 2 2 2
2 4 0z"/><path d="M170 406 l-10 -10 4 -4 c4 -4 4 -4 3 -6 -2 -1 -4 -2 -7 -2 -7 0 -8
-1 -8 -16 l0 -13 4 -3 4 -3 0 -9 c0 -9 1 -12 6 -12 1 0 2 -1 2 -2 0 -2 3 -5 8
-10 8 -7 8 -8 8 -12 0 -4 0 -5 12 -16 12 -12 12 -12 12 -16 0 -5 2 -8 6 -8 1
0 2 -1 2 -2 0 -2 1 -4 4 -6 4 -3 4 -4 4 -8 0 -5 2 -8 6 -8 1 0 2 -1 2 -2 0 -4
3 -6 8 -6 3 0 5 -1 7 -2 1 -2 1 -2 -3 -6 -4 -4 -4 -4 -3 -6 2 -2 3 -2 11 -2
l8 0 6 6 c6 5 6 6 6 10 0 4 0 5 4 8 4 3 4 4 4 8 0 4 0 5 8 12 l9 8 -5 4 c-4 4
-4 4 -3 6 2 1 4 2 7 2 4 0 4 0 14 10 6 6 10 11 10 12 0 1 1 2 2 2 4 0 6 3 6 8
0 4 0 5 8 12 8 7 8 8 8 12 0 4 0 5 -4 8 -4 4 -4 4 -3 6 2 1 4 2 7 2 8 0 8 1 8
20 l0 16 -14 14 -14 14 -12 0 -12 0 -4 -4 -4 -4 -4 4 c-3 4 -4 4 -8 4 -5 0 -8
-2 -8 -6 0 -1 -1 -2 -2 -2 -3 0 -6 -3 -6 -6 0 -1 -1 -2 -2 -2 -2 0 -4 -1 -6
-4 -4 -5 -8 -6 -8 -2 0 1 -4 6 -10 12 l-10 10 -24 0 -24 0 -10 -10z m109 0 c1
-2 1 -2 0 -4 -1 -1 -3 -2 -5 -2 -1 0 -2 -1 -2 -2 0 -2 -1 -4 -2 -4 -2 -2 -2
-2 -4 0 -4 3 -3 6 2 6 l4 0 0 4 c0 5 3 6 7 2z m-49 -24 c9 -9 10 -10 10 -14 0
-6 10 -16 16 -16 6 0 8 2 8 8 0 4 0 5 4 8 4 3 4 4 4 8 0 4 0 5 6 10 l6 6 16 0
16 0 6 -6 6 -6 0 -16 0 -17 -4 -3 c-4 -3 -4 -4 -4 -8 0 -4 0 -5 -8 -12 -8 -7
-8 -8 -8 -12 0 -4 0 -5 -12 -16 -12 -11 -12 -12 -12 -16 0 -4 0 -5 -8 -12 -8
-7 -8 -8 -8 -12 0 -4 -1 -5 -6 -10 -6 -6 -6 -6 -8 -4 -1 1 -2 3 -2 6 0 4 0 5
-8 12 -8 7 -8 8 -8 12 0 4 0 5 -12 16 -12 11 -12 12 -12 16 0 4 0 5 -8 12 -8
7 -8 8 -8 12 0 4 0 5 -4 8 -4 3 -4 4 -4 8 0 4 0 5 -4 8 l-4 3 0 13 0 12 6 6 6
6 16 0 16 0 10 -10z m18 8 c0 -2 -1 -4 -2 -5 -2 -1 -2 -1 -4 1 -2 2 -2 2 -1 4
3 3 7 3 7 0z m-73 -56 c1 -2 1 -2 0 -4 -3 -3 -7 -3 -7 0 0 2 3 6 4 6 0 0 2 -1
3 -2z m143 -24 c1 -1 2 -2 2 -4 0 -3 -4 -3 -6 0 -2 2 -2 2 0 4 2 2 2 2 4 0z
m-95 -40 c1 -2 1 -2 0 -4 -3 -3 -7 -3 -7 0 0 2 3 6 4 6 0 0 2 -1 3 -2z m16
-24 c1 -2 1 -2 0 -4 -3 -3 -7 -3 -7 0 0 2 3 6 4 6 0 0 2 -1 3 -2z"/><path d="M249 206 c-1 -2 -1 -2 1 -4 l2 -2 2 2 c2 2 2 2 1 4 -1 1 -3 2 -3 2 0
0 -2 -1 -3 -2z"/></g>
  <g transform="scale(0.125 0.125) translate(0.000000,512.000000) scale(1.000000,-1.000000)" fill="#f5f4f5" stroke="none"><path d="M202 478 c-1 -1 -2 -3 -2 -4 0 -2 0 -2 -6 -2 -8 0 -12 -3 -8 -6 4 -5
14 -2 14 4 0 1 1 2 2 2 2 0 4 1 5 2 1 2 1 2 0 4 -3 2 -3 2 -5 0z"/><path d="M218 478 c-2 -2 -2 -2 0 -4 1 -2 3 -2 14 -2 11 0 13 0 15 2 1 2 1 2
0 4 -2 2 -4 2 -15 2 -11 0 -13 0 -14 -2z"/><path d="M258 478 c-2 -2 -2 -2 0 -4 1 -2 3 -2 14 -2 11 0 13 0 15 2 1 2 1 2
0 4 -2 2 -4 2 -15 2 -11 0 -13 0 -14 -2z"/><path d="M306 470 c-3 -3 0 -6 6 -6 6 0 9 3 7 6 -2 1 -4 2 -7 2 -3 0 -5 -1 -6
-2z"/><path d="M162 462 c-1 -1 -2 -3 -2 -4 0 -2 0 -2 -6 -2 -7 0 -10 -2 -10 -6 0
-1 -1 -2 -2 -2 -2 0 -4 -1 -5 -2 -1 -2 -1 -2 1 -4 2 -2 2 -2 4 -1 1 1 2 3 2 5
0 2 0 2 6 2 7 0 10 2 10 6 0 2 0 2 6 2 8 0 12 3 9 6 -3 3 -11 3 -13 0z"/><path d="M330 462 c-4 -3 0 -6 8 -6 6 0 6 0 6 -2 0 -4 3 -6 10 -6 6 0 6 0 6
-2 0 -3 3 -6 6 -6 1 0 2 -1 2 -2 0 -4 3 -6 10 -6 6 0 6 0 6 -2 0 -3 3 -6 6 -6
1 0 2 -1 2 -2 0 -3 3 -6 6 -6 1 0 2 -1 2 -2 0 -3 3 -6 6 -6 1 0 2 -1 2 -2 0
-2 1 -4 4 -6 4 -3 4 -4 4 -8 0 -5 2 -8 6 -8 2 0 2 0 2 -6 0 -7 2 -10 6 -10 2
0 2 0 2 -6 0 -6 0 -7 2 -9 2 -1 2 -1 6 3 l4 5 4 -5 c4 -4 4 -4 6 -3 1 2 2 4 2
7 0 7 -2 8 -14 8 -10 0 -10 0 -10 2 0 4 3 6 8 6 6 0 9 3 7 6 -2 2 -4 2 -13 2
l-10 0 0 6 c0 7 2 10 6 10 1 0 2 -1 2 -2 0 -2 1 -4 2 -5 2 -1 2 -1 4 1 2 2 2
2 1 4 -1 1 -3 2 -5 2 -1 0 -2 1 -2 2 0 5 -3 6 -14 6 -10 0 -10 0 -10 2 0 3 -3
6 -6 6 -1 0 -2 1 -2 2 0 3 -3 6 -6 6 -1 0 -2 1 -2 2 0 3 -3 6 -6 6 -1 0 -2 1
-2 2 0 4 -3 6 -10 6 -6 0 -6 0 -6 2 0 3 -3 6 -6 6 -1 0 -2 1 -2 2 0 4 -3 6
-10 6 -6 0 -6 0 -6 2 0 6 -10 8 -14 4z"/><path d="M114 438 c-2 -1 -2 -3 -2 -8 0 -6 0 -6 -2 -6 -3 0 -6 -3 -6 -6 0 -1
-1 -2 -2 -2 -3 0 -6 -3 -6 -6 0 -2 0 -2 -10 -2 -12 0 -14 -1 -14 -6 0 -1 -1
-2 -2 -2 -2 0 -4 -1 -5 -2 -1 -2 -1 -2 1 -4 2 -2 2 -2 4 -1 1 1 2 3 2 5 0 1 1
2 2 2 4 0 6 -3 6 -10 l0 -6 -10 0 c-9 0 -11 0 -12 -2 -2 -2 -2 -2 0 -4 1 -2 3
-2 10 -2 9 0 12 1 12 6 0 1 1 2 2 2 4 0 6 3 6 8 0 4 0 5 4 8 3 2 4 4 4 6 0 1
1 2 2 2 3 0 6 3 6 6 0 1 1 2 2 2 3 0 6 3 6 6 0 1 1 2 2 2 1 0 5 3 8 6 6 6 6 6
4 8 -2 3 -10 3 -12 0z"/><path d="M170 406 l-10 -10 4 -4 c4 -4 4 -4 3 -6 -2 -1 -4 -2 -7 -2 -7 0 -8
-1 -8 -16 0 -15 1 -16 8 -16 3 0 5 -1 7 -2 1 -2 1 -2 -3 -6 -4 -3 -4 -4 -4 -8
0 -5 2 -8 6 -8 1 0 2 -1 2 -2 0 -4 3 -6 8 -6 7 0 8 -2 8 -12 l0 -8 10 -10 c10
-10 10 -10 14 -10 5 0 8 -2 8 -6 0 -1 -1 -2 -2 -2 -2 0 -4 -1 -4 -2 -2 -2 -2
-2 0 -4 0 -1 2 -2 4 -2 1 0 2 -1 2 -2 0 -4 3 -6 8 -6 5 0 8 -2 8 -6 0 -1 -1
-2 -2 -2 -2 0 -4 -1 -4 -2 -2 -2 -2 -2 0 -4 0 -1 2 -2 4 -2 1 0 2 -1 2 -2 0
-4 3 -6 8 -6 3 0 5 -1 7 -2 1 -2 1 -2 -3 -6 -4 -4 -4 -4 -3 -6 2 -1 4 -2 7 -2
4 0 5 0 8 4 3 4 4 4 8 4 6 0 8 2 8 8 0 4 0 5 4 8 4 3 4 4 4 8 0 4 0 5 8 12 l9
8 -5 4 -4 4 6 6 c5 5 6 6 10 6 4 0 5 1 10 6 4 3 6 7 6 8 0 1 1 2 2 2 4 0 6 3
6 8 0 4 0 5 8 12 l9 8 -5 4 c-4 3 -4 4 -4 8 0 6 2 8 8 8 3 0 5 1 7 2 1 2 1 2
-3 6 l-4 4 4 4 5 4 -5 4 -4 4 4 4 c4 4 4 4 3 6 -2 1 -4 2 -7 2 -6 0 -16 10
-16 16 0 3 -1 5 -2 7 -2 1 -2 1 -6 -3 l-4 -4 -4 4 c-3 4 -4 4 -8 4 -4 0 -5 0
-8 -4 l-4 -4 -4 4 c-3 4 -4 4 -8 4 -5 0 -8 -2 -8 -6 0 -1 -1 -2 -2 -2 -3 0 -6
-3 -6 -6 0 -1 -1 -2 -2 -2 -3 0 -6 -3 -6 -6 0 -2 -1 -2 -4 -2 -3 0 -4 0 -4 2
0 1 -4 6 -10 12 l-10 10 -4 -4 -4 -4 -4 4 -3 4 -9 0 -8 0 -4 -4 -4 -4 -4 4
c-2 2 -4 4 -4 4 0 0 -5 -5 -10 -10z m109 0 c1 -2 1 -2 0 -4 -1 -1 -3 -2 -5 -2
-1 0 -2 -1 -2 -2 0 -3 -3 -6 -6 -6 -1 0 -2 -1 -2 -2 0 -3 -3 -6 -6 -6 -1 0 -2
-1 -2 -2 0 -2 -1 -4 -2 -4 -2 -2 -2 -2 -4 0 -1 0 -2 2 -2 4 0 1 -1 2 -2 2 -2
0 -4 1 -4 2 -2 2 -2 2 0 4 3 4 6 3 6 -2 l0 -4 4 0 4 0 0 4 0 4 4 0 4 0 0 4 0
4 4 0 4 0 0 4 c0 5 3 6 7 2z m-49 -24 c9 -9 10 -10 10 -14 0 -6 10 -16 16 -16
6 0 8 2 8 8 0 4 0 5 4 8 4 3 4 4 4 8 0 4 0 5 6 10 l6 6 16 0 16 0 6 -6 6 -6 0
-16 0 -17 -4 -3 c-4 -3 -4 -4 -4 -8 0 -4 0 -5 -8 -12 -8 -7 -8 -8 -8 -12 0 -4
0 -5 -12 -16 -12 -11 -12 -12 -12 -16 0 -4 0 -5 -8 -12 -8 -7 -8 -8 -8 -12 0
-4 -1 -5 -6 -10 -6 -6 -6 -6 -8 -4 -1 1 -2 3 -2 6 0 4 0 5 -8 12 -8 7 -8 8 -8
12 0 4 0 5 -12 16 -12 11 -12 12 -12 16 0 4 0 5 -8 12 -8 7 -8 8 -8 12 0 4 0
5 -4 8 -4 3 -4 4 -4 8 0 4 0 5 -4 8 l-4 3 0 13 0 12 6 6 6 6 16 0 16 0 10 -10z
m-55 -48 c1 -2 1 -2 0 -4 -3 -3 -7 -3 -7 0 0 2 3 6 4 6 0 0 2 -1 3 -2z m143
-24 c1 -1 2 -2 2 -4 0 -3 -4 -3 -6 0 -2 2 -2 2 0 4 2 2 2 2 4 0z m-95 -40 c1
-2 1 -2 0 -4 -4 -4 -7 -3 -7 2 0 5 3 6 7 2z m16 -24 c1 -2 1 -2 0 -4 -4 -4 -7
-3 -7 2 0 5 3 6 7 2z"/><path d="M58 366 c-2 -2 -2 -2 4 -8 6 -6 6 -6 8 -4 3 2 3 10 0 12 -2 3 -10 3
-12 0z"/><path d="M54 338 l-6 -6 4 -4 4 -3 0 -17 0 -16 -4 -4 c-4 -4 -4 -4 -3 -6 3 -3
11 -3 13 0 3 3 3 58 0 60 -2 2 -2 3 -8 -4z"/><path d="M442 342 c-3 -3 -3 -66 0 -68 3 -3 6 0 6 6 0 3 1 5 2 7 2 1 2 1 6 -3
4 -4 4 -4 6 -3 2 2 2 3 2 27 0 28 0 28 -8 28 -4 0 -5 0 -8 4 -4 5 -4 5 -6 2z
m12 -16 c3 -2 3 -26 0 -28 -2 -2 -2 -2 -4 0 -3 2 -3 25 0 28 2 2 2 2 4 0z"/><path d="M66 270 c-2 -1 -2 -4 -2 -10 0 -9 1 -12 6 -12 2 0 2 0 2 -6 0 -7 2
-10 6 -10 1 0 2 -1 2 -2 0 -3 3 -6 6 -6 1 0 2 -1 2 -2 0 -3 3 -6 6 -6 2 0 2 0
2 -6 0 -7 0 -7 4 -10 5 -4 6 -8 2 -8 -2 0 -4 -1 -5 -2 -1 -2 -1 -2 1 -4 2 -2
2 -2 4 -1 1 1 2 3 2 5 0 4 4 3 8 -2 3 -4 3 -4 10 -4 l6 0 0 -4 c0 -4 0 -4 -2
-4 -2 0 -4 -1 -4 -2 -2 -2 -2 -2 0 -4 0 -1 2 -2 4 -2 1 0 2 -1 2 -2 0 -2 1 -4
2 -4 2 -2 2 -2 4 -1 1 1 2 3 2 5 0 2 0 2 8 2 l8 0 0 -4 c0 -4 0 -4 -2 -4 -2 0
-4 -1 -5 -2 -1 -2 -1 -2 1 -4 2 -2 2 -2 4 -1 1 1 2 3 2 5 0 3 12 3 15 0 1 -2
1 -2 -3 -6 -4 -4 -4 -4 -3 -6 2 -1 4 -2 7 -2 4 0 5 0 8 4 3 4 3 4 10 4 8 0 8
-2 2 -8 l-4 -4 8 -8 c8 -7 8 -8 8 -12 0 -4 1 -5 6 -10 3 -4 7 -6 8 -6 2 0 2
-1 2 -6 0 -7 2 -10 6 -10 2 0 2 0 2 -6 0 -7 0 -7 4 -10 4 -3 4 -4 4 -8 0 -4 0
-5 8 -12 8 -7 8 -8 8 -12 0 -3 1 -5 2 -6 2 -2 2 -2 8 4 l6 6 0 6 c0 6 0 6 2 6
4 0 6 3 6 10 0 5 0 6 2 6 1 0 5 2 8 6 l6 6 0 6 c0 6 0 6 2 6 4 0 6 3 6 10 0 6
0 6 2 6 4 0 6 3 6 10 0 5 0 6 2 6 1 0 5 3 8 6 l6 6 -4 4 c-4 4 -4 4 -3 6 2 1
4 2 7 2 4 0 5 0 8 -4 3 -4 4 -4 8 -4 3 0 5 1 7 2 1 2 1 2 -3 6 -4 4 -4 4 -3 6
3 3 15 3 15 0 0 -2 1 -4 2 -5 2 -1 2 -1 4 1 2 2 2 2 1 4 -1 1 -3 2 -5 2 -2 0
-2 0 -2 4 l0 4 8 0 c8 0 8 0 8 -2 0 -2 1 -4 2 -4 2 -2 2 -2 4 0 1 0 2 2 2 4 0
1 1 2 2 2 2 0 4 1 5 2 1 2 1 2 0 4 -1 1 -3 2 -5 2 -2 0 -2 0 -2 4 l0 4 8 0 c8
0 8 0 8 -2 0 -2 1 -4 2 -4 2 -2 2 -2 4 -1 1 1 2 3 2 5 0 1 1 2 2 2 3 0 14 11
14 14 0 1 1 2 2 2 3 0 6 3 6 6 0 1 1 2 2 2 2 0 4 1 5 2 1 2 1 2 -1 4 -2 2 -2
2 -4 1 -1 -1 -2 -3 -2 -5 0 -2 0 -2 -4 -2 l-4 0 0 8 c0 8 0 8 2 8 2 0 4 1 6 4
4 5 8 6 8 2 0 -2 1 -4 2 -5 2 -1 2 -1 4 1 1 0 2 2 2 4 0 1 1 2 2 2 4 0 6 3 6
8 0 5 -2 8 -6 8 -2 0 -2 0 -2 6 0 8 -3 12 -6 8 -2 -1 -2 -3 -2 -8 0 -5 0 -6
-2 -6 -1 0 -5 -2 -8 -6 l-6 -6 0 -6 c0 -5 0 -6 -2 -6 -3 0 -38 -35 -38 -38 0
-2 -1 -2 -6 -2 l-6 0 -6 -6 c-4 -3 -6 -7 -6 -8 0 -2 -1 -2 -10 -2 l-11 0 -3
-4 -3 -4 -9 0 -8 0 -6 -6 -6 -6 4 -4 c4 -3 4 -4 4 -10 l0 -6 -6 0 c-7 0 -10
-2 -10 -6 0 -1 -1 -2 -2 -2 -4 0 -6 -3 -6 -10 0 -6 0 -6 -2 -6 -3 0 -6 -3 -6
-6 0 -1 -1 -2 -2 -2 -4 0 -6 -3 -6 -10 0 -6 0 -6 -2 -6 -2 0 -4 -1 -6 -4 -4
-5 -8 -6 -8 -2 0 4 -3 6 -8 6 -5 0 -8 2 -8 6 0 1 1 2 2 2 2 0 4 1 5 2 1 2 1 2
-1 4 0 1 -2 2 -4 2 -2 0 -2 0 -2 6 0 7 -2 10 -6 10 -1 0 -2 1 -2 2 0 4 -3 6
-8 6 -3 0 -5 1 -7 2 -1 2 -1 2 3 6 4 3 4 4 4 8 0 5 -2 8 -6 8 -1 0 -2 1 -2 2
0 4 -3 6 -10 6 -6 0 -6 0 -6 2 0 4 -3 6 -8 6 -4 0 -5 0 -8 4 l-3 4 -11 0 c-9
0 -10 0 -10 2 0 1 -2 5 -6 8 l-6 6 -6 0 c-5 0 -6 0 -6 2 0 3 -27 30 -30 30 -1
0 -2 1 -2 2 0 3 -3 6 -6 6 -1 0 -2 1 -2 2 0 3 -3 6 -6 6 -2 0 -2 0 -2 6 0 7
-2 10 -6 10 -2 0 -2 0 -2 10 0 9 0 11 -2 12 -2 2 -2 2 -4 0z m374 -30 l0 -8
-4 0 -4 0 0 8 0 8 4 0 4 0 0 -8z m-24 -36 c0 -5 -3 -6 -6 -2 -2 2 -2 2 0 4 3
4 6 3 6 -2z m-18 -14 c1 -1 2 -2 2 -4 0 -2 0 -2 -4 -2 -5 0 -6 3 -2 6 2 2 2 2
4 0z m-264 -16 c1 -1 2 -2 2 -4 0 -2 0 -2 -4 -2 l-4 0 0 4 c0 5 3 6 6 2z m242
-2 l0 -4 -4 0 c-3 0 -4 0 -4 2 0 3 3 6 6 6 2 0 2 0 2 -4z m-168 -30 c0 -2 -1
-4 -2 -5 -2 -1 -2 -1 -4 1 -2 2 -2 2 -1 4 3 3 7 3 7 0z m86 -24 c3 -2 3 -6 0
-6 -3 0 -6 3 -6 6 0 3 3 3 6 0z m-70 -8 c0 -3 -3 -6 -6 -6 -3 0 -3 3 0 6 2 3
6 3 6 0z m62 -8 c1 -1 2 -2 2 -4 0 -2 0 -2 -4 -2 -4 0 -4 0 -4 -2 0 -2 -1 -4
-2 -4 -2 -2 -2 -2 -4 0 -4 3 -3 6 2 6 l4 0 0 4 c0 5 3 6 6 2z m-54 -10 l0 -4
-4 0 c-3 0 -4 0 -4 2 0 3 3 6 6 6 2 0 2 0 2 -4z m38 -14 c3 -2 3 -6 0 -6 -3 0
-6 3 -6 6 0 3 3 3 6 0z m-22 -10 l0 -4 6 0 c7 0 10 -2 10 -6 0 -2 0 -2 -6 -2
-7 0 -10 2 -10 6 0 1 -1 2 -2 2 -2 0 -4 1 -4 2 -2 2 -2 2 0 4 3 4 6 3 6 -2z"/><path d="M49 262 c-1 -2 -1 -2 1 -4 l2 -2 2 2 c2 2 2 2 1 4 -1 1 -3 2 -3 2 0
0 -2 -1 -3 -2z"/><path d="M449 262 c-1 -2 -1 -2 1 -4 l2 -2 2 2 c2 2 2 2 1 4 -1 1 -3 2 -3 2 0
0 -2 -1 -3 -2z"/><path d="M73 214 c-1 -2 -1 -2 1 -4 l2 -2 2 2 c2 2 2 2 1 4 -1 1 -3 2 -3 2 0
0 -2 -1 -3 -2z"/><path d="M249 206 c-1 -2 -1 -2 1 -4 l2 -2 2 2 c2 2 2 2 1 4 -1 1 -3 2 -3 2 0
0 -2 -1 -3 -2z"/></g>
  <g transform="scale(0.125 0.125) translate(0.000000,512.000000) scale(1.000000,-1.000000)" fill="#c4c4c4" stroke="none"><path d="M201 478 c-1 -2 -1 -2 1 -4 l2 -2 2 2 c2 2 2 2 1 4 -1 1 -3 2 -3 2 0
0 -2 -1 -3 -2z"/><path d="M218 478 c-3 -3 0 -6 6 -6 3 0 5 1 7 2 2 3 -1 6 -7 6 -3 0 -5 -1 -6
-2z"/><path d="M274 478 c-3 -3 0 -6 6 -6 6 0 9 3 7 6 -2 1 -4 2 -7 2 -3 0 -5 -1 -6
-2z"/><path d="M185 470 c-1 -2 -1 -2 1 -4 l2 -2 2 2 c2 2 2 2 1 4 -1 1 -3 2 -3 2 0
0 -2 -1 -3 -2z"/><path d="M313 470 c-1 -2 -1 -2 1 -4 l2 -2 2 2 c2 2 2 2 1 4 -1 1 -3 2 -3 2 0
0 -2 -1 -3 -2z"/><path d="M161 462 c-1 -2 -1 -2 1 -4 l2 -2 2 2 c2 2 2 2 1 4 -1 1 -3 2 -3 2 0
0 -2 -1 -3 -2z"/><path d="M337 462 c-1 -2 -1 -2 1 -4 l2 -2 2 2 c2 2 2 2 1 4 -1 1 -3 2 -3 2 0
0 -2 -1 -3 -2z"/><path d="M145 454 c-1 -2 -1 -2 1 -4 l2 -2 2 2 c2 2 2 2 1 4 -1 1 -3 2 -3 2 0
0 -2 -1 -3 -2z"/><path d="M353 454 c-1 -2 -1 -2 1 -4 l2 -2 2 2 c2 2 2 2 1 4 -1 1 -3 2 -3 2 0
0 -2 -1 -3 -2z"/><path d="M114 438 c-3 -2 -3 -10 0 -12 2 -2 2 -2 8 4 6 6 6 6 4 8 -2 3 -10 3
-12 0z"/><path d="M377 438 c-1 -2 -1 -2 1 -4 l2 -2 2 2 c2 2 2 2 1 4 -1 1 -3 2 -3 2 0
0 -2 -1 -3 -2z"/><path d="M170 406 l-10 -10 4 -4 c4 -4 4 -4 3 -6 -2 -1 -4 -2 -7 -2 -7 0 -8
-2 -8 -12 l0 -8 8 -8 9 -8 -5 -4 c-4 -4 -4 -4 -3 -6 2 -1 4 -2 7 -2 6 0 8 -2
8 -8 0 -4 0 -5 4 -8 4 -3 4 -4 4 -8 0 -4 0 -5 8 -12 8 -7 8 -8 8 -12 0 -6 2
-8 8 -8 6 0 16 -10 16 -16 0 -4 0 -5 8 -12 l9 -8 -5 -4 c-4 -4 -4 -4 -3 -6 2
-1 4 -2 7 -2 3 0 5 -1 7 -2 1 -2 1 -2 -3 -6 -4 -4 -4 -4 -3 -6 2 -1 4 -2 7 -2
4 0 4 0 14 10 9 9 10 10 10 14 0 4 0 5 12 16 l12 12 -4 4 -4 4 6 6 c5 5 6 6
10 6 4 0 5 1 10 6 l6 6 -4 4 c-4 4 -4 4 -3 6 2 1 4 2 7 2 4 0 5 0 10 6 l6 6 0
12 c0 15 1 16 8 16 3 0 5 1 7 2 1 2 1 2 -3 6 l-4 4 4 4 5 4 -5 4 c-4 3 -4 4
-4 8 0 4 0 5 -8 12 -8 7 -8 8 -8 12 0 3 -1 5 -2 7 -2 1 -2 1 -6 -3 l-4 -4 -4
4 c-3 4 -4 4 -8 4 -4 0 -5 0 -8 -4 l-4 -4 -4 4 c-4 4 -4 4 -6 3 -1 -2 -2 -4
-2 -7 0 -4 0 -4 -14 -18 l-14 -14 -6 6 -6 6 4 4 4 4 -6 6 -6 6 -8 0 -9 0 -3 4
-3 4 -9 0 -8 0 -4 -4 -4 -4 -4 4 c-2 2 -4 4 -4 4 0 0 -5 -5 -10 -10z m60 -24
c9 -9 10 -10 10 -14 0 -6 10 -16 16 -16 6 0 8 2 8 8 0 4 0 5 4 8 4 3 4 4 4 8
0 4 0 5 6 10 l6 6 16 0 16 0 6 -6 6 -6 0 -16 0 -17 -4 -3 c-4 -3 -4 -4 -4 -8
0 -4 0 -5 -8 -12 -8 -7 -8 -8 -8 -12 0 -4 0 -5 -12 -16 -12 -11 -12 -12 -12
-16 0 -4 0 -5 -8 -12 -8 -7 -8 -8 -8 -12 0 -4 -1 -5 -6 -10 -6 -6 -6 -6 -8 -4
-1 1 -2 3 -2 6 0 4 0 5 -8 12 -8 7 -8 8 -8 12 0 4 0 5 -12 16 -12 11 -12 12
-12 16 0 4 0 5 -8 12 -8 7 -8 8 -8 12 0 4 0 5 -4 8 -4 3 -4 4 -4 8 0 4 0 5 -4
8 l-4 3 0 13 0 12 6 6 6 6 16 0 16 0 10 -10z"/><path d="M74 406 c-1 -1 -2 -3 -2 -4 0 -1 -1 -2 -2 -2 -2 0 -4 -1 -5 -2 -1 -2
-1 -2 1 -4 2 -2 2 -2 4 -1 1 1 2 3 2 5 0 4 4 3 8 -2 l4 -4 6 6 c6 6 6 6 4 8
-2 3 -18 3 -20 0z"/><path d="M410 406 c-2 -2 -2 -2 4 -8 l6 -6 4 4 c4 5 8 6 8 2 0 -2 1 -4 2 -5 2
-1 2 -1 4 1 2 2 2 2 1 4 -1 1 -3 2 -5 2 -1 0 -2 1 -2 2 0 5 -3 6 -12 6 -7 0
-9 0 -10 -2z"/><path d="M58 382 c-2 -2 -2 -2 0 -4 1 -2 3 -2 10 -2 7 0 9 0 11 2 1 2 1 2 0 4
-2 2 -4 2 -11 2 -7 0 -9 0 -10 -2z"/><path d="M426 382 c-2 -2 -2 -2 0 -4 1 -2 3 -2 10 -2 7 0 9 0 11 2 1 2 1 2 0
4 -2 2 -4 2 -11 2 -7 0 -9 0 -10 -2z"/><path d="M58 366 c-3 -3 0 -6 6 -6 3 0 5 1 7 2 2 3 -1 6 -7 6 -3 0 -5 -1 -6
-2z"/><path d="M434 366 c-3 -3 0 -6 6 -6 4 0 5 0 8 -4 4 -4 4 -4 6 -3 3 3 3 11 0
13 -3 3 -18 3 -20 0z"/><path d="M54 338 c-6 -6 -6 -6 -4 -8 2 -3 10 -3 12 0 3 2 3 10 0 12 -2 2 -2 3
-8 -4z"/><path d="M442 342 c-1 -1 -2 -3 -2 -6 0 -6 2 -8 8 -8 7 0 8 -1 8 -16 0 -15 -1
-16 -8 -16 -7 0 -8 -2 -8 -12 0 -7 0 -9 2 -10 3 -3 6 0 6 6 0 3 1 5 2 7 2 1 2
1 6 -3 4 -4 4 -4 6 -3 2 2 2 3 2 27 0 28 0 28 -8 28 -4 0 -5 0 -8 4 -4 5 -4 5
-6 2z"/><path d="M50 286 c-3 -3 0 -6 6 -6 3 0 5 1 7 2 2 3 -1 6 -7 6 -3 0 -5 -1 -6
-2z"/><path d="M49 262 c-1 -2 -1 -2 1 -4 l2 -2 2 2 c2 2 2 2 1 4 -1 1 -3 2 -3 2 0
0 -2 -1 -3 -2z"/><path d="M449 262 c-1 -2 -1 -2 1 -4 l2 -2 2 2 c2 2 2 2 1 4 -1 1 -3 2 -3 2 0
0 -2 -1 -3 -2z"/><path d="M65 254 c-1 -2 -1 -2 1 -4 l2 -2 2 2 c2 2 2 2 1 4 -1 1 -3 2 -3 2 0
0 -2 -1 -3 -2z"/><path d="M434 254 c-2 -2 -2 -2 0 -4 0 -1 2 -2 4 -2 2 0 2 0 2 -8 l0 -8 -4 0
c-4 0 -4 0 -4 2 0 2 -1 4 -2 5 -2 1 -2 1 -4 0 -1 -1 -2 -3 -2 -5 0 -1 -1 -2
-2 -2 -2 0 -4 -1 -5 -2 -1 -2 -1 -2 1 -4 2 -2 2 -2 4 -1 1 1 2 3 2 5 0 2 0 2
4 2 4 0 4 0 4 -2 0 -2 1 -4 2 -4 2 -2 2 -2 4 0 1 0 2 2 2 4 0 1 1 2 2 2 4 0 6
3 6 8 0 5 -2 8 -6 8 -1 0 -2 1 -2 2 0 2 -3 6 -4 6 0 0 -2 -1 -2 -2z"/><path d="M74 238 c-2 -2 -2 -2 0 -4 0 -1 2 -2 4 -2 1 0 2 -1 2 -2 0 -2 1 -4 2
-5 2 -1 2 -1 4 1 2 2 2 2 1 4 -1 1 -3 2 -5 2 -1 0 -2 1 -2 2 0 2 -3 6 -4 6 0
0 -2 -1 -2 -2z"/><path d="M73 214 c-1 -2 -1 -2 1 -4 l2 -2 2 2 c2 2 2 2 1 4 -1 1 -3 2 -3 2 0
0 -2 -1 -3 -2z"/><path d="M410 214 c-1 -1 -2 -3 -2 -4 0 -1 -1 -2 -2 -2 -3 0 -14 -11 -14 -14
0 -1 -1 -2 -2 -2 -2 0 -4 -1 -4 -2 -2 -2 -2 -2 0 -4 0 -1 2 -2 4 -2 1 0 2 -1
2 -2 0 -2 1 -4 2 -4 2 -2 2 -2 4 0 1 0 2 2 2 4 0 1 1 2 2 2 3 0 14 11 14 14 0
1 1 2 2 2 3 0 6 3 6 6 0 1 1 2 2 2 2 0 4 1 5 2 1 2 1 2 -1 4 -2 2 -2 2 -4 1
-1 -1 -2 -3 -2 -5 0 -2 0 -2 -4 -2 -4 0 -4 0 -4 2 0 2 -3 6 -4 6 0 0 -1 -1 -2
-2z m6 -10 c0 -3 0 -4 -2 -4 -3 0 -6 3 -6 6 0 2 0 2 4 2 l4 0 0 -4z m-18 -14
c1 -1 2 -2 2 -4 0 -2 0 -2 -4 -2 l-4 0 0 4 c0 5 3 6 6 2z"/><path d="M98 206 c-2 -2 -2 -2 0 -4 0 -1 2 -2 4 -2 2 0 2 0 2 -4 0 -4 0 -4 -2
-4 -2 0 -4 -1 -5 -2 -1 -2 -1 -2 1 -4 2 -2 2 -2 4 -1 1 1 2 3 2 5 0 2 0 2 4 2
4 0 4 0 4 -2 0 -2 1 -4 2 -5 2 -1 2 -1 4 1 2 2 2 2 1 4 -1 1 -3 2 -5 2 -1 0
-2 1 -2 2 0 3 -3 6 -6 6 -1 0 -2 1 -2 2 0 2 -3 6 -4 6 0 0 -2 -1 -2 -2z"/><path d="M249 206 c-1 -2 -1 -2 1 -4 l2 -2 2 2 c2 2 2 2 1 4 -1 1 -3 2 -3 2 0
0 -2 -1 -3 -2z"/><path d="M130 182 c-1 -1 -2 -3 -2 -4 0 -1 -1 -2 -2 -2 -2 0 -4 -1 -4 -2 -2
-2 -2 -2 0 -4 0 -1 2 -2 4 -2 1 0 2 -1 2 -2 0 -2 1 -4 2 -4 2 -2 2 -2 4 0 1 0
2 2 2 4 0 1 1 2 2 2 2 0 4 1 5 2 1 2 1 2 0 4 -1 1 -3 2 -5 2 -1 0 -2 1 -2 2 0
2 -3 6 -4 6 0 0 -1 -1 -2 -2z m6 -10 l0 -4 -4 0 -4 0 0 4 0 4 4 0 4 0 0 -4z"/><path d="M370 182 c-1 -1 -2 -3 -2 -4 0 -1 -1 -2 -2 -2 -2 0 -4 -1 -4 -2 -2
-2 -2 -2 0 -4 0 -1 2 -2 4 -2 1 0 2 -1 2 -2 0 -2 1 -4 2 -4 2 -2 2 -2 4 0 1 0
2 2 2 4 0 1 1 2 2 2 2 0 4 1 5 2 1 2 1 2 0 4 -1 1 -3 2 -5 2 -1 0 -2 1 -2 2 0
2 -3 6 -4 6 0 0 -1 -1 -2 -2z m6 -10 l0 -4 -4 0 -4 0 0 4 0 4 4 0 4 0 0 -4z"/><path d="M154 166 c-1 -1 -2 -3 -2 -4 0 -1 -1 -2 -2 -2 -2 0 -4 -1 -5 -2 -1
-2 -1 -2 1 -4 2 -2 2 -2 4 -1 1 1 2 3 2 5 0 1 1 2 2 2 2 0 4 1 5 2 1 2 1 2 0
4 -3 2 -3 2 -5 0z"/><path d="M346 166 c-2 -2 -2 -2 0 -4 0 -1 2 -2 4 -2 1 0 2 -1 2 -2 0 -2 1 -4
2 -5 2 -1 2 -1 4 1 2 2 2 2 1 4 -1 1 -3 2 -5 2 -1 0 -2 1 -2 2 0 2 -3 6 -4 6
0 0 -2 -1 -2 -2z"/><path d="M166 154 c-6 -6 -6 -6 -4 -8 1 -1 3 -2 6 -2 4 0 5 0 10 6 6 6 6 6 4
8 -1 1 -3 2 -6 2 -4 0 -5 -1 -10 -6z"/><path d="M322 158 c-2 -2 -2 -2 4 -8 5 -6 6 -6 10 -6 3 0 5 1 6 2 2 2 2 2 -4
8 -5 6 -6 6 -10 6 -3 0 -5 -1 -6 -2z"/><path d="M190 146 l-6 -6 8 -8 c8 -7 8 -8 8 -12 0 -4 1 -5 6 -10 3 -4 7 -6 8
-6 2 0 2 -1 2 -6 0 -7 2 -10 6 -10 2 0 2 0 2 -6 0 -7 0 -7 4 -10 4 -3 4 -4 4
-8 0 -4 0 -5 8 -12 8 -7 8 -8 8 -12 0 -3 1 -5 2 -6 2 -2 2 -2 8 4 l6 6 0 6 c0
6 0 6 2 6 4 0 6 3 6 10 0 5 0 6 2 6 1 0 5 2 8 6 l6 6 0 6 c0 6 0 6 2 6 4 0 6
3 6 10 0 6 0 6 2 6 4 0 6 3 6 10 0 5 0 6 2 6 1 0 5 3 8 6 l6 6 -6 6 c-6 6 -6
6 -8 4 -2 -1 -2 -3 -2 -12 l0 -10 -6 0 c-6 0 -7 0 -9 -2 -1 -2 -1 -2 3 -6 6
-6 6 -8 -2 -8 -6 0 -7 0 -9 -2 -1 -2 -1 -2 3 -6 5 -4 6 -8 2 -8 -2 0 -4 -1 -6
-4 -3 -4 -4 -4 -8 -4 -3 0 -5 -1 -7 -2 -1 -2 -1 -2 3 -6 6 -6 6 -8 -2 -8 -6 0
-7 0 -9 -2 -1 -2 -1 -2 3 -6 6 -5 6 -8 -2 -8 l-6 0 -6 6 -6 6 4 4 c4 4 4 4 3
6 -2 1 -4 2 -7 2 -4 0 -5 0 -8 4 -2 3 -4 4 -6 4 -4 0 -3 4 2 8 4 4 4 4 3 6 -2
2 -3 2 -9 2 -8 0 -8 2 -2 8 4 4 4 4 3 6 -2 1 -4 2 -7 2 -3 0 -5 1 -7 2 -1 2
-1 2 3 6 4 4 4 4 3 6 -2 1 -4 2 -7 2 -6 0 -8 2 -8 8 0 3 -1 5 -2 6 -2 2 -2 3
-8 -4z"/></g>
  <g transform="scale(0.125 0.125) translate(0.000000,512.000000) scale(1.000000,-1.000000)" fill="#000000" stroke="none"><path d="M201 478 c-1 -2 -1 -2 1 -4 l2 -2 2 2 c2 2 2 2 1 4 -1 1 -3 2 -3 2 0
0 -2 -1 -3 -2z"/><path d="M113 438 c-1 -2 -1 -2 1 -4 l2 -2 2 2 c2 2 2 2 1 4 -1 1 -3 2 -3 2 0
0 -2 -1 -3 -2z"/><path d="M192 412 c-3 -4 -4 -4 -8 -4 -4 0 -5 0 -10 -6 -6 -5 -6 -6 -6 -10 0
-4 0 -5 -4 -8 l-4 -3 0 -13 0 -13 4 -3 c4 -3 4 -4 4 -8 0 -4 0 -5 4 -8 4 -3 4
-4 4 -8 0 -4 0 -5 4 -8 4 -3 4 -4 4 -8 l0 -4 20 -20 c20 -20 20 -20 20 -24 0
-4 0 -5 8 -12 8 -7 8 -8 8 -12 0 -4 0 -5 4 -8 4 -3 4 -4 4 -8 0 -3 1 -5 2 -6
2 -2 2 -2 8 4 5 5 6 6 6 10 0 4 0 5 8 12 8 7 8 8 8 12 0 4 0 5 4 8 4 3 4 4 4
8 0 4 0 4 12 16 12 12 12 12 12 16 0 6 2 8 8 8 6 0 8 2 8 8 0 4 0 5 4 8 l4 3
0 9 0 9 4 3 c4 3 4 4 4 8 0 4 0 5 4 8 l5 4 -5 4 c-4 3 -4 4 -4 8 0 4 0 5 -10
14 -10 10 -10 10 -14 10 -4 0 -5 0 -8 4 -3 4 -4 4 -8 4 -4 0 -5 0 -8 -4 -3 -4
-4 -4 -8 -4 -4 0 -4 0 -20 -16 l-16 -16 -6 6 c-5 5 -6 6 -6 10 0 6 -10 16 -16
16 -4 0 -5 0 -8 4 l-3 4 -9 0 -9 0 -3 -4z m38 -30 c9 -9 10 -10 10 -14 0 -6
10 -16 16 -16 6 0 8 2 8 8 0 4 0 5 4 8 4 3 4 4 4 8 0 4 0 5 6 10 l6 6 16 0 16
0 6 -6 6 -6 0 -16 0 -17 -4 -3 c-4 -3 -4 -4 -4 -8 0 -4 0 -5 -8 -12 -8 -7 -8
-8 -8 -12 0 -4 0 -5 -12 -16 -12 -11 -12 -12 -12 -16 0 -4 0 -5 -8 -12 -8 -7
-8 -8 -8 -12 0 -4 -1 -5 -6 -10 -6 -6 -6 -6 -8 -4 -1 1 -2 3 -2 6 0 4 0 5 -8
12 -8 7 -8 8 -8 12 0 4 0 5 -12 16 -12 11 -12 12 -12 16 0 4 0 5 -8 12 -8 7
-8 8 -8 12 0 4 0 5 -4 8 -4 3 -4 4 -4 8 0 4 0 5 -4 8 l-4 3 0 13 0 12 6 6 6 6
16 0 16 0 10 -10z"/><path d="M74 406 c-1 -1 -2 -3 -2 -4 0 -1 -1 -2 -2 -2 -2 0 -4 -1 -5 -2 -1 -2
-1 -2 1 -4 2 -2 2 -2 4 -1 1 1 2 3 2 5 0 2 0 2 6 2 8 0 12 3 9 6 -3 3 -11 3
-13 0z"/><path d="M418 406 c-4 -3 0 -6 8 -6 6 0 6 0 6 -2 0 -2 1 -4 2 -5 2 -1 2 -1 4
1 2 2 2 2 1 4 -1 1 -3 2 -5 2 -1 0 -2 1 -2 2 0 6 -10 8 -14 4z"/><path d="M58 382 c-3 -3 0 -6 6 -6 3 0 5 1 7 2 2 3 -1 6 -7 6 -3 0 -5 -1 -6
-2z"/><path d="M434 382 c-3 -3 0 -6 6 -6 6 0 9 3 7 6 -2 1 -4 2 -7 2 -3 0 -5 -1 -6
-2z"/><path d="M57 366 c-1 -2 -1 -2 1 -4 l2 -2 2 2 c2 2 2 2 1 4 -1 1 -3 2 -3 2 0
0 -2 -1 -3 -2z"/><path d="M442 366 c-2 -2 -2 -2 4 -8 6 -6 6 -6 8 -4 3 2 3 10 0 12 -2 3 -10 3
-12 0z"/><path d="M49 334 c-1 -2 -1 -2 1 -4 l2 -2 2 2 c2 2 2 2 1 4 -1 1 -3 2 -3 2 0
0 -2 -1 -3 -2z"/><path d="M449 334 c-1 -2 -1 -2 3 -6 l4 -3 0 -13 0 -12 -4 -4 -4 -4 6 -6 c6
-6 6 -6 8 -4 3 2 3 50 0 52 -3 3 -10 3 -13 0z"/><path d="M49 286 c-1 -2 -1 -2 1 -4 l2 -2 2 2 c2 2 2 2 1 4 -1 1 -3 2 -3 2 0
0 -2 -1 -3 -2z"/><path d="M49 262 c-1 -2 -1 -2 1 -4 l2 -2 2 2 c2 2 2 2 1 4 -1 1 -3 2 -3 2 0
0 -2 -1 -3 -2z"/><path d="M449 262 c-1 -2 -1 -2 1 -4 l2 -2 2 2 c2 2 2 2 1 4 -1 1 -3 2 -3 2 0
0 -2 -1 -3 -2z"/><path d="M442 246 c-2 -1 -2 -3 -2 -8 0 -6 0 -6 -2 -6 -2 0 -4 -1 -5 -2 -1 -2
-1 -2 1 -4 2 -2 2 -2 4 -1 1 1 2 3 2 5 0 1 1 2 2 2 6 0 8 10 4 14 -2 2 -2 2
-4 0z"/><path d="M73 214 c-1 -2 -1 -2 1 -4 l2 -2 2 2 c2 2 2 2 1 4 -1 1 -3 2 -3 2 0
0 -2 -1 -3 -2z"/><path d="M426 214 c-1 -1 -2 -3 -2 -4 0 -1 -1 -2 -2 -2 -3 0 -6 -3 -6 -6 0 -2
0 -2 -6 -2 -9 0 -10 -1 -10 -10 0 -6 0 -6 -2 -6 -2 0 -4 -1 -5 -2 -1 -2 -1 -2
1 -4 2 -2 2 -2 4 -1 1 1 2 3 2 5 0 1 1 2 2 2 3 0 14 11 14 14 0 1 1 2 2 2 3 0
6 3 6 6 0 1 1 2 2 2 2 0 4 1 5 2 1 2 1 2 0 4 -3 2 -3 2 -5 0z"/><path d="M97 190 c-1 -2 -1 -2 1 -4 l2 -2 2 2 c2 2 2 2 1 4 -1 1 -3 2 -3 2 0
0 -2 -1 -3 -2z"/><path d="M122 174 c-2 -2 -2 -2 0 -4 0 -1 2 -2 4 -2 1 0 2 -1 2 -2 0 -2 1 -4
2 -5 2 -1 2 -1 4 1 2 2 2 2 1 4 -1 1 -3 2 -5 2 -1 0 -2 1 -2 2 0 2 -3 6 -4 6
0 0 -2 -1 -2 -2z"/><path d="M378 174 c-1 -1 -2 -3 -2 -4 0 -1 -1 -2 -2 -2 -2 0 -4 -1 -5 -2 -1
-2 -1 -2 1 -4 2 -2 2 -2 4 -1 1 1 2 3 2 5 0 1 1 2 2 2 2 0 4 1 5 2 1 2 1 2 0
4 -3 2 -3 2 -5 0z"/><path d="M145 158 c-1 -2 -1 -2 1 -4 l2 -2 2 2 c2 2 2 2 1 4 -1 1 -3 2 -3 2 0
0 -2 -1 -3 -2z"/><path d="M353 158 c-1 -2 -1 -2 1 -4 l2 -2 2 2 c2 2 2 2 1 4 -1 1 -3 2 -3 2 0
0 -2 -1 -3 -2z"/><path d="M162 150 c-3 -3 0 -6 6 -6 3 0 5 1 7 2 2 3 -1 6 -7 6 -3 0 -5 -1 -6
-2z"/><path d="M330 150 c-3 -3 0 -6 6 -6 6 0 9 3 7 6 -2 1 -4 2 -7 2 -3 0 -5 -1 -6
-2z"/><path d="M185 142 c-1 -2 -1 -2 7 -10 8 -7 8 -8 8 -12 0 -4 1 -5 6 -10 3 -4 7
-6 8 -6 2 0 2 -1 2 -6 0 -7 2 -10 6 -10 2 0 2 0 2 -6 0 -7 0 -7 4 -10 4 -3 4
-4 4 -8 0 -4 0 -5 8 -12 8 -7 8 -8 8 -12 0 -3 1 -5 2 -6 2 -2 2 -2 8 4 l6 6 0
6 c0 6 0 6 2 6 4 0 6 3 6 10 0 5 0 6 2 6 1 0 5 2 8 6 l6 6 0 6 c0 6 0 6 2 6 4
0 6 3 6 10 0 6 0 6 2 6 4 0 6 3 6 10 0 5 0 6 2 6 1 0 5 3 8 6 6 6 6 6 4 8 -1
1 -3 2 -6 2 -6 0 -8 -2 -8 -10 0 -6 0 -6 -2 -6 -4 0 -6 -3 -6 -10 0 -6 0 -6
-2 -6 -4 0 -6 -3 -6 -10 0 -5 0 -6 -2 -6 -1 0 -5 -2 -8 -6 l-6 -6 0 -6 c0 -6
0 -6 -2 -6 -4 0 -6 -3 -6 -10 l0 -6 -6 0 -6 0 -6 6 c-5 5 -6 6 -6 10 0 4 -1 5
-6 10 -3 4 -7 6 -8 6 -2 0 -2 1 -2 6 0 7 -2 10 -6 10 -2 0 -2 0 -2 6 0 7 0 7
-4 10 -4 3 -4 4 -4 8 0 4 0 5 -6 10 -5 6 -6 6 -10 6 -3 0 -5 -1 -7 -2z"/></g>
  <g transform="scale(0.125 0.125) translate(0.000000,512.000000) scale(1.000000,-1.000000)" fill="#311925" stroke="none"><path d="M201 478 c-1 -2 -1 -2 1 -4 l2 -2 2 2 c2 2 2 2 1 4 -1 1 -3 2 -3 2 0
0 -2 -1 -3 -2z"/><path d="M113 438 c-1 -2 -1 -2 1 -4 l2 -2 2 2 c2 2 2 2 1 4 -1 1 -3 2 -3 2 0
0 -2 -1 -3 -2z"/><path d="M209 414 c-1 -2 -1 -2 1 -4 l2 -2 2 2 c2 2 2 2 1 4 -1 1 -3 2 -3 2 0
0 -2 -1 -3 -2z"/><path d="M74 406 c-1 -1 -2 -3 -2 -4 0 -1 -1 -2 -2 -2 -2 0 -4 -1 -5 -2 -1 -2
-1 -2 1 -4 2 -2 2 -2 4 -1 1 1 2 3 2 5 0 2 0 2 6 2 8 0 12 3 9 6 -3 3 -11 3
-13 0z"/><path d="M178 406 c-2 -2 -2 -2 0 -4 0 -1 2 -2 4 -2 2 0 2 0 2 -4 0 -4 0 -4
-2 -4 -3 0 -6 -3 -6 -6 0 -2 0 -2 -6 -2 -6 0 -7 0 -9 -2 -1 -2 -1 -2 3 -6 l5
-4 -5 -4 c-4 -3 -4 -4 -4 -8 0 -4 0 -5 8 -12 l8 -8 0 -8 c0 -11 1 -12 10 -12
l6 0 0 -4 c0 -4 0 -4 -2 -4 -2 0 -4 -1 -4 -2 -2 -2 -2 -2 0 -4 0 -1 2 -2 4 -2
1 0 2 -1 2 -2 0 -1 4 -6 10 -12 l10 -10 6 0 6 0 0 -10 c0 -13 1 -14 10 -14 l6
0 0 -10 c0 -13 1 -14 10 -14 l6 0 0 -4 c0 -4 0 -4 -2 -4 -2 0 -4 -1 -5 -2 -1
-2 -1 -2 1 -4 2 -2 2 -2 4 -1 1 1 2 3 2 5 0 1 1 2 2 2 2 0 4 1 5 2 1 2 1 2 0
4 -1 1 -3 2 -5 2 -2 0 -2 0 -2 4 l0 4 6 0 6 0 6 6 c5 5 6 6 6 10 0 4 0 5 4 8
4 4 4 4 3 6 -4 4 -10 3 -17 -4 -6 -5 -6 -6 -6 -10 0 -4 0 -5 -4 -8 -3 -2 -4
-4 -4 -6 0 -1 -1 -2 -2 -2 -4 0 -6 3 -6 8 0 5 -2 8 -6 8 -1 0 -2 1 -2 2 0 2
-1 4 -4 6 -4 3 -4 4 -4 8 0 5 -2 8 -6 8 -1 0 -2 1 -2 2 0 2 -3 5 -8 10 -8 7
-8 8 -8 12 0 5 -2 8 -6 8 -1 0 -2 1 -2 2 0 3 -3 6 -6 6 -2 0 -2 0 -2 6 0 7 0
7 -4 10 -4 3 -4 4 -4 8 0 4 0 5 -4 8 l-4 3 0 15 0 14 2 0 c3 0 6 3 6 6 0 2 0
2 18 2 l18 0 8 -8 c5 -5 8 -8 10 -8 2 0 2 -1 2 -6 0 -7 2 -10 6 -10 1 0 2 -1
2 -2 0 -4 3 -6 8 -6 6 0 8 2 8 10 0 6 0 6 2 6 4 0 6 3 6 10 0 6 0 6 2 6 2 0 4
1 6 4 l3 4 19 0 18 0 0 -2 c0 -3 3 -6 6 -6 2 0 2 0 2 -20 l0 -20 -2 0 c-4 0
-6 -3 -6 -8 0 -4 0 -5 -4 -8 -3 -2 -4 -4 -4 -6 0 -1 -1 -2 -2 -2 -4 0 -6 -3
-6 -8 0 -4 0 -5 -12 -16 -12 -12 -12 -12 -10 -14 1 -1 3 -2 6 -2 4 0 4 0 14
10 l10 10 0 10 c0 10 0 10 2 10 2 0 4 -2 6 -4 4 -4 4 -4 6 -3 1 2 2 3 2 7 0 4
0 5 4 8 l5 4 -5 4 c-4 4 -6 8 -2 8 1 0 5 3 8 6 l6 6 -4 4 -4 4 0 10 c0 10 0
10 2 10 2 0 4 1 5 2 1 2 1 2 -1 4 -2 2 -2 2 -4 1 -1 -1 -2 -3 -2 -5 0 -2 0 -2
-4 -2 -4 0 -4 0 -4 2 0 3 -3 6 -6 6 -2 0 -2 1 -2 4 0 4 0 4 2 4 2 0 4 1 5 2 1
2 1 2 -1 4 -2 2 -2 2 -4 1 -1 -1 -2 -3 -2 -5 l0 -2 -22 0 c-27 0 -26 0 -26
-10 0 -6 0 -6 -2 -6 -4 0 -6 -3 -6 -10 l0 -6 -4 0 c-4 0 -4 0 -4 2 0 4 -3 6
-10 6 l-6 0 0 10 0 10 -6 6 -6 6 -4 -4 -3 -4 -19 0 -18 0 0 2 c0 2 -3 6 -4 6
0 0 -2 -1 -2 -2z m78 -40 c0 -3 -3 -6 -6 -6 -3 0 -3 3 0 6 2 3 6 3 6 0z m-56
-56 c0 -3 -3 -6 -6 -6 -2 0 -2 0 -2 4 l0 4 4 0 c3 0 4 0 4 -2z"/><path d="M418 406 c-4 -3 0 -6 8 -6 6 0 6 0 6 -2 0 -2 1 -4 2 -5 2 -1 2 -1 4
1 2 2 2 2 1 4 -1 1 -3 2 -5 2 -1 0 -2 1 -2 2 0 6 -10 8 -14 4z"/><path d="M58 382 c-3 -3 0 -6 6 -6 3 0 5 1 7 2 2 3 -1 6 -7 6 -3 0 -5 -1 -6
-2z"/><path d="M434 382 c-3 -3 0 -6 6 -6 6 0 9 3 7 6 -2 1 -4 2 -7 2 -3 0 -5 -1 -6
-2z"/><path d="M345 374 c-1 -2 -1 -2 1 -4 l2 -2 2 2 c2 2 2 2 1 4 -1 1 -3 2 -3 2 0
0 -2 -1 -3 -2z"/><path d="M57 366 c-1 -2 -1 -2 1 -4 l2 -2 2 2 c2 2 2 2 1 4 -1 1 -3 2 -3 2 0
0 -2 -1 -3 -2z"/><path d="M442 366 c-2 -2 -2 -2 4 -8 6 -6 6 -6 8 -4 3 2 3 10 0 12 -2 3 -10 3
-12 0z"/><path d="M49 334 c-1 -2 -1 -2 1 -4 l2 -2 2 2 c2 2 2 2 1 4 -1 1 -3 2 -3 2 0
0 -2 -1 -3 -2z"/><path d="M450 334 c-3 -3 0 -6 6 -6 6 0 9 3 7 6 -2 1 -4 2 -7 2 -3 0 -5 -1 -6
-2z"/><path d="M450 294 c-2 -2 -2 -2 0 -4 0 -1 2 -2 4 -2 1 0 2 -1 2 -2 0 -2 1 -4
2 -5 2 -1 2 -1 4 1 2 2 2 2 1 4 -1 1 -3 2 -5 2 -1 0 -2 1 -2 2 0 2 -3 6 -4 6
0 0 -2 -1 -2 -2z"/><path d="M49 286 c-1 -2 -1 -2 1 -4 l2 -2 2 2 c2 2 2 2 1 4 -1 1 -3 2 -3 2 0
0 -2 -1 -3 -2z"/><path d="M49 262 c-1 -2 -1 -2 1 -4 l2 -2 2 2 c2 2 2 2 1 4 -1 1 -3 2 -3 2 0
0 -2 -1 -3 -2z"/><path d="M449 262 c-1 -2 -1 -2 1 -4 l2 -2 2 2 c2 2 2 2 1 4 -1 1 -3 2 -3 2 0
0 -2 -1 -3 -2z"/><path d="M442 246 c-2 -1 -2 -3 -2 -8 0 -6 0 -6 -2 -6 -2 0 -4 -1 -5 -2 -1 -2
-1 -2 1 -4 2 -2 2 -2 4 -1 1 1 2 3 2 5 0 1 1 2 2 2 6 0 8 10 4 14 -2 2 -2 2
-4 0z"/><path d="M73 214 c-1 -2 -1 -2 1 -4 l2 -2 2 2 c2 2 2 2 1 4 -1 1 -3 2 -3 2 0
0 -2 -1 -3 -2z"/><path d="M426 214 c-1 -1 -2 -3 -2 -4 0 -1 -1 -2 -2 -2 -3 0 -6 -3 -6 -6 0 -2
0 -2 -6 -2 -9 0 -10 -1 -10 -10 0 -6 0 -6 -2 -6 -2 0 -4 -1 -5 -2 -1 -2 -1 -2
1 -4 2 -2 2 -2 4 -1 1 1 2 3 2 5 0 1 1 2 2 2 3 0 14 11 14 14 0 1 1 2 2 2 3 0
6 3 6 6 0 1 1 2 2 2 2 0 4 1 5 2 1 2 1 2 0 4 -3 2 -3 2 -5 0z"/><path d="M97 190 c-1 -2 -1 -2 1 -4 l2 -2 2 2 c2 2 2 2 1 4 -1 1 -3 2 -3 2 0
0 -2 -1 -3 -2z"/><path d="M122 174 c-2 -2 -2 -2 0 -4 0 -1 2 -2 4 -2 1 0 2 -1 2 -2 0 -2 1 -4
2 -5 2 -1 2 -1 4 1 2 2 2 2 1 4 -1 1 -3 2 -5 2 -1 0 -2 1 -2 2 0 2 -3 6 -4 6
0 0 -2 -1 -2 -2z"/><path d="M378 174 c-1 -1 -2 -3 -2 -4 0 -1 -1 -2 -2 -2 -2 0 -4 -1 -5 -2 -1
-2 -1 -2 1 -4 2 -2 2 -2 4 -1 1 1 2 3 2 5 0 1 1 2 2 2 2 0 4 1 5 2 1 2 1 2 0
4 -3 2 -3 2 -5 0z"/><path d="M145 158 c-1 -2 -1 -2 1 -4 l2 -2 2 2 c2 2 2 2 1 4 -1 1 -3 2 -3 2 0
0 -2 -1 -3 -2z"/><path d="M353 158 c-1 -2 -1 -2 1 -4 l2 -2 2 2 c2 2 2 2 1 4 -1 1 -3 2 -3 2 0
0 -2 -1 -3 -2z"/><path d="M162 150 c-3 -3 0 -6 6 -6 3 0 5 1 7 2 2 3 -1 6 -7 6 -3 0 -5 -1 -6
-2z"/><path d="M330 150 c-3 -3 0 -6 6 -6 6 0 9 3 7 6 -2 1 -4 2 -7 2 -3 0 -5 -1 -6
-2z"/><path d="M186 142 c-2 -2 -2 -2 4 -8 5 -6 6 -6 10 -6 3 0 5 1 6 2 2 2 2 2 -4
8 -5 6 -6 6 -10 6 -3 0 -5 -1 -6 -2z"/><path d="M306 142 c-3 -2 -3 -10 0 -12 2 -2 2 -2 8 4 6 6 6 6 4 8 -2 3 -10 3
-12 0z"/><path d="M273 86 c-1 -2 -1 -2 1 -4 l2 -2 2 2 c2 2 2 2 1 4 -1 1 -3 2 -3 2 0
0 -2 -1 -3 -2z"/><path d="M249 54 c-1 -2 -1 -2 1 -4 l2 -2 2 2 c2 2 2 2 1 4 -1 1 -3 2 -3 2 0
0 -2 -1 -3 -2z"/></g>
  <g transform="scale(0.125 0.125) translate(0.000000,512.000000) scale(1.000000,-1.000000)" fill="#0c090a" stroke="none"><path d="M201 478 c-1 -2 -1 -2 1 -4 l2 -2 2 2 c2 2 2 2 1 4 -1 1 -3 2 -3 2 0
0 -2 -1 -3 -2z"/><path d="M113 438 c-1 -2 -1 -2 1 -4 l2 -2 2 2 c2 2 2 2 1 4 -1 1 -3 2 -3 2 0
0 -2 -1 -3 -2z"/><path d="M81 406 c-1 -2 -1 -2 1 -4 l2 -2 2 2 c2 2 2 2 1 4 -1 1 -3 2 -3 2 0
0 -2 -1 -3 -2z"/><path d="M177 406 c-1 -2 -1 -2 1 -4 l2 -2 2 2 c2 2 2 2 1 4 -1 1 -3 2 -3 2 0
0 -2 -1 -3 -2z"/><path d="M321 406 c-1 -2 -1 -2 1 -4 l2 -2 2 2 c2 2 2 2 1 4 -1 1 -3 2 -3 2 0
0 -2 -1 -3 -2z"/><path d="M417 406 c-1 -2 -1 -2 1 -4 l2 -2 2 2 c2 2 2 2 1 4 -1 1 -3 2 -3 2 0
0 -2 -1 -3 -2z"/><path d="M194 398 c-2 -2 -2 -2 0 -4 1 -2 3 -2 14 -2 l12 0 8 -8 c5 -5 8 -8
10 -8 1 0 2 -1 2 -2 0 -4 3 -6 10 -6 8 0 8 -3 2 -8 -4 -4 -4 -4 -3 -6 2 -1 4
-2 7 -2 6 0 8 2 8 10 0 6 0 6 2 6 2 0 4 1 5 2 1 2 1 2 -1 4 -2 2 -2 2 -4 1 -1
-1 -2 -3 -2 -5 0 -2 0 -2 -4 -2 -4 0 -4 0 -4 2 0 4 -3 6 -10 6 l-6 0 0 6 0 6
-6 6 -6 6 -16 0 c-15 0 -17 0 -18 -2z"/><path d="M274 398 c-3 -3 -3 -10 0 -12 3 -3 6 0 6 6 0 7 -3 10 -6 6z"/><path d="M290 398 c-2 -2 -2 -2 0 -4 1 -2 3 -2 10 -2 7 0 9 0 11 2 1 2 1 2 0
4 -2 2 -4 2 -11 2 -7 0 -9 0 -10 -2z"/><path d="M178 390 c-1 -1 -2 -3 -2 -4 0 -2 0 -2 -6 -2 -8 0 -12 -3 -8 -6 4 -5
14 -2 14 4 0 1 1 2 2 2 2 0 4 1 5 2 1 2 1 2 0 4 -3 2 -3 2 -5 0z"/><path d="M321 390 c-1 -2 -1 -2 1 -4 l2 -2 2 2 c2 2 2 2 1 4 -1 1 -3 2 -3 2 0
0 -2 -1 -3 -2z"/><path d="M65 382 c-1 -2 -1 -2 1 -4 l2 -2 2 2 c2 2 2 2 1 4 -1 1 -3 2 -3 2 0
0 -2 -1 -3 -2z"/><path d="M433 382 c-1 -2 -1 -2 1 -4 l2 -2 2 2 c2 2 2 2 1 4 -1 1 -3 2 -3 2 0
0 -2 -1 -3 -2z"/><path d="M330 374 c-4 -4 -2 -14 4 -14 2 0 2 -1 2 -4 0 -4 0 -4 -2 -4 -3 0 -6
-3 -6 -6 0 -1 -1 -2 -2 -2 -4 0 -6 -3 -6 -8 0 -4 0 -5 -4 -8 -3 -2 -4 -4 -4
-6 0 -1 -1 -2 -2 -2 -5 0 -6 -3 -6 -14 l0 -10 -6 0 -6 0 -6 -6 c-6 -6 -6 -6
-4 -8 1 -1 3 -2 6 -2 4 0 5 0 10 6 4 3 6 7 6 8 0 1 1 2 2 2 5 0 6 3 6 14 0 10
0 10 2 10 2 0 4 -2 6 -4 4 -4 4 -4 6 -3 2 2 2 3 2 17 l0 14 2 0 c3 0 6 3 6 6
0 1 1 2 2 2 2 0 4 1 5 2 1 2 1 2 0 4 -1 1 -3 2 -5 2 -2 0 -2 0 -2 6 0 5 0 7
-2 8 -2 2 -2 2 -4 0z"/><path d="M345 374 c-1 -2 -1 -2 1 -4 l2 -2 2 2 c2 2 2 2 1 4 -1 1 -3 2 -3 2 0
0 -2 -1 -3 -2z"/><path d="M57 366 c-1 -2 -1 -2 1 -4 l2 -2 2 2 c2 2 2 2 1 4 -1 1 -3 2 -3 2 0
0 -2 -1 -3 -2z"/><path d="M162 366 c-2 -2 -2 -2 0 -4 0 -1 2 -2 4 -2 2 0 2 0 2 -6 0 -7 0 -7 4
-10 l4 -3 0 -9 c0 -7 0 -9 2 -10 2 -2 2 -2 8 4 l6 6 -4 4 c-4 3 -4 4 -4 8 0 4
-1 5 -6 10 -3 4 -7 6 -8 6 -1 0 -2 1 -2 2 0 2 -3 6 -4 6 0 0 -2 -1 -2 -2z"/><path d="M441 366 c-1 -2 -1 -2 1 -4 l2 -2 2 2 c2 2 2 2 1 4 -1 1 -3 2 -3 2 0
0 -2 -1 -3 -2z"/><path d="M49 334 c-1 -2 -1 -2 1 -4 l2 -2 2 2 c2 2 2 2 1 4 -1 1 -3 2 -3 2 0
0 -2 -1 -3 -2z"/><path d="M449 334 c-1 -2 -1 -2 1 -4 l2 -2 2 2 c2 2 2 2 1 4 -1 1 -3 2 -3 2 0
0 -2 -1 -3 -2z"/><path d="M194 318 c-1 -1 -2 -3 -2 -4 0 -1 -1 -2 -2 -2 -2 0 -4 -1 -5 -2 -1
-2 -1 -2 1 -4 2 -2 2 -2 4 -1 1 1 2 3 2 5 0 2 0 2 4 2 l4 0 0 -6 c0 -8 3 -12
6 -8 5 4 2 14 -4 14 -1 0 -2 1 -2 2 0 2 -3 6 -4 6 0 0 -1 -1 -2 -2z"/><path d="M449 294 c-1 -2 -1 -2 1 -4 l2 -2 2 2 c2 2 2 2 1 4 -1 1 -3 2 -3 2 0
0 -2 -1 -3 -2z"/><path d="M49 286 c-1 -2 -1 -2 1 -4 l2 -2 2 2 c2 2 2 2 1 4 -1 1 -3 2 -3 2 0
0 -2 -1 -3 -2z"/><path d="M210 286 c-4 -3 0 -6 8 -6 l6 0 0 -6 c0 -8 3 -12 6 -8 5 4 2 14 -4
14 -1 0 -2 1 -2 2 0 6 -10 8 -14 4z"/><path d="M282 270 c-1 -1 -2 -3 -2 -4 0 -2 0 -2 -6 -2 -8 0 -10 -2 -10 -8 0
-6 2 -8 8 -8 6 0 8 2 8 10 0 6 0 6 2 6 2 0 4 1 5 2 1 2 1 2 0 4 -3 2 -3 2 -5
0z"/><path d="M242 254 c-3 -3 -3 -18 0 -20 2 -2 2 -2 4 0 3 2 3 18 0 20 -2 2 -2 2
-4 0z"/><path d="M258 230 c-1 -1 -2 -3 -2 -4 0 -1 -1 -2 -2 -2 -2 0 -4 -1 -5 -2 -1
-2 -1 -2 1 -4 2 -2 2 -2 4 -1 1 1 2 3 2 5 0 1 1 2 2 2 2 0 4 1 5 2 1 2 1 2 0
4 -3 2 -3 2 -5 0z"/><path d="M401 198 c-1 -2 -1 -2 1 -4 l2 -2 2 2 c2 2 2 2 1 4 -1 1 -3 2 -3 2 0
0 -2 -1 -3 -2z"/><path d="M353 158 c-1 -2 -1 -2 1 -4 l2 -2 2 2 c2 2 2 2 1 4 -1 1 -3 2 -3 2 0
0 -2 -1 -3 -2z"/><path d="M161 150 c-1 -2 -1 -2 1 -4 l2 -2 2 2 c2 2 2 2 1 4 -1 1 -3 2 -3 2 0
0 -2 -1 -3 -2z"/><path d="M337 150 c-1 -2 -1 -2 1 -4 l2 -2 2 2 c2 2 2 2 1 4 -1 1 -3 2 -3 2 0
0 -2 -1 -3 -2z"/><path d="M186 142 c-2 -2 -2 -2 4 -8 5 -6 6 -6 10 -6 3 0 5 1 6 2 2 2 2 2 -4
8 -5 6 -6 6 -10 6 -3 0 -5 -1 -6 -2z"/><path d="M306 142 c-3 -2 -3 -10 0 -12 2 -2 2 -2 8 4 6 6 6 6 4 8 -2 3 -10 3
-12 0z"/><path d="M273 86 c-1 -2 -1 -2 1 -4 l2 -2 2 2 c2 2 2 2 1 4 -1 1 -3 2 -3 2 0
0 -2 -1 -3 -2z"/><path d="M249 54 c-1 -2 -1 -2 1 -4 l2 -2 2 2 c2 2 2 2 1 4 -1 1 -3 2 -3 2 0
0 -2 -1 -3 -2z"/></g>
  <g transform="scale(0.125 0.125) translate(0.000000,512.000000) scale(1.000000,-1.000000)" fill="#854566" stroke="none"><path d="M201 478 c-1 -2 -1 -2 1 -4 l2 -2 2 2 c2 2 2 2 1 4 -1 1 -3 2 -3 2 0
0 -2 -1 -3 -2z"/><path d="M113 438 c-1 -2 -1 -2 1 -4 l2 -2 2 2 c2 2 2 2 1 4 -1 1 -3 2 -3 2 0
0 -2 -1 -3 -2z"/><path d="M81 406 c-1 -2 -1 -2 1 -4 l2 -2 2 2 c2 2 2 2 1 4 -1 1 -3 2 -3 2 0
0 -2 -1 -3 -2z"/><path d="M417 406 c-1 -2 -1 -2 1 -4 l2 -2 2 2 c2 2 2 2 1 4 -1 1 -3 2 -3 2 0
0 -2 -1 -3 -2z"/><path d="M194 398 c-2 -2 -2 -2 0 -4 1 -2 3 -2 16 -2 l14 0 0 -2 c0 -3 3 -6 6
-6 1 0 2 -1 2 -2 0 -2 1 -4 2 -5 2 -1 2 -1 4 1 2 2 2 2 1 4 -1 1 -3 2 -5 2 -1
0 -2 1 -2 2 0 3 -3 6 -6 6 -1 0 -2 1 -2 2 0 5 -3 6 -16 6 -11 0 -13 0 -14 -2z"/><path d="M290 398 c-2 -2 -2 -2 0 -4 1 -2 3 -2 10 -2 7 0 9 0 11 2 1 2 1 2 0
4 -2 2 -4 2 -11 2 -7 0 -9 0 -10 -2z"/><path d="M177 390 c-1 -2 -1 -2 1 -4 l2 -2 2 2 c2 2 2 2 1 4 -1 1 -3 2 -3 2 0
0 -2 -1 -3 -2z"/><path d="M273 390 c-1 -2 -1 -2 1 -4 l2 -2 2 2 c2 2 2 2 1 4 -1 1 -3 2 -3 2 0
0 -2 -1 -3 -2z"/><path d="M321 390 c-1 -2 -1 -2 1 -4 l2 -2 2 2 c2 2 2 2 1 4 -1 1 -3 2 -3 2 0
0 -2 -1 -3 -2z"/><path d="M65 382 c-1 -2 -1 -2 1 -4 l2 -2 2 2 c2 2 2 2 1 4 -1 1 -3 2 -3 2 0
0 -2 -1 -3 -2z"/><path d="M433 382 c-1 -2 -1 -2 1 -4 l2 -2 2 2 c2 2 2 2 1 4 -1 1 -3 2 -3 2 0
0 -2 -1 -3 -2z"/><path d="M265 374 c-1 -2 -1 -2 1 -4 l2 -2 2 2 c2 2 2 2 1 4 -1 1 -3 2 -3 2 0
0 -2 -1 -3 -2z"/><path d="M330 374 c-3 -3 -3 -10 0 -12 3 -3 6 0 6 6 0 7 -3 10 -6 6z"/><path d="M345 374 c-1 -2 -1 -2 1 -4 l2 -2 2 2 c2 2 2 2 1 4 -1 1 -3 2 -3 2 0
0 -2 -1 -3 -2z"/><path d="M57 366 c-1 -2 -1 -2 1 -4 l2 -2 2 2 c2 2 2 2 1 4 -1 1 -3 2 -3 2 0
0 -2 -1 -3 -2z"/><path d="M441 366 c-1 -2 -1 -2 1 -4 l2 -2 2 2 c2 2 2 2 1 4 -1 1 -3 2 -3 2 0
0 -2 -1 -3 -2z"/><path d="M250 358 c-3 -3 0 -6 6 -6 6 0 9 3 7 6 -2 1 -4 2 -7 2 -3 0 -5 -1 -6
-2z"/><path d="M178 350 c-4 -4 -2 -14 4 -14 1 0 2 -1 2 -2 0 -2 1 -4 2 -5 2 -1 2
-1 4 1 2 2 2 2 1 4 -1 1 -3 2 -5 2 -2 0 -2 0 -2 6 0 5 0 7 -2 8 -2 2 -2 2 -4
0z"/><path d="M321 342 c-1 -2 -1 -2 1 -4 l2 -2 2 2 c2 2 2 2 1 4 -1 1 -3 2 -3 2 0
0 -2 -1 -3 -2z"/><path d="M49 334 c-1 -2 -1 -2 1 -4 l2 -2 2 2 c2 2 2 2 1 4 -1 1 -3 2 -3 2 0
0 -2 -1 -3 -2z"/><path d="M449 334 c-1 -2 -1 -2 1 -4 l2 -2 2 2 c2 2 2 2 1 4 -1 1 -3 2 -3 2 0
0 -2 -1 -3 -2z"/><path d="M314 326 c-1 -1 -2 -3 -2 -4 0 -1 -1 -2 -2 -2 -2 0 -4 -1 -5 -2 -1
-2 -1 -2 1 -4 2 -2 2 -2 4 -1 1 1 2 3 2 5 0 2 0 2 4 2 4 0 4 0 4 -2 0 -2 1 -4
2 -5 2 -1 2 -1 4 1 2 2 2 2 1 4 -1 1 -3 2 -5 2 -1 0 -2 1 -2 2 0 2 -3 6 -4 6
0 0 -1 -1 -2 -2z"/><path d="M194 318 c-1 -1 -2 -3 -2 -4 0 -1 -1 -2 -2 -2 -2 0 -4 -1 -5 -2 -1
-2 -1 -2 1 -4 2 -2 2 -2 4 -1 1 1 2 3 2 5 0 2 0 2 4 2 4 0 4 0 4 -2 0 -2 1 -4
2 -5 2 -1 2 -1 4 1 2 2 2 2 1 4 -1 1 -3 2 -5 2 -1 0 -2 1 -2 2 0 2 -3 6 -4 6
0 0 -1 -1 -2 -2z"/><path d="M290 294 c-1 -1 -2 -3 -2 -4 0 -1 -1 -2 -2 -2 -2 0 -4 -1 -5 -2 -1
-2 -1 -2 1 -4 2 -2 2 -2 4 -1 1 1 2 3 2 5 0 1 1 2 2 2 2 0 4 1 5 2 1 2 1 2 0
4 -3 2 -3 2 -5 0z"/><path d="M449 294 c-1 -2 -1 -2 1 -4 l2 -2 2 2 c2 2 2 2 1 4 -1 1 -3 2 -3 2 0
0 -2 -1 -3 -2z"/><path d="M49 286 c-1 -2 -1 -2 1 -4 l2 -2 2 2 c2 2 2 2 1 4 -1 1 -3 2 -3 2 0
0 -2 -1 -3 -2z"/><path d="M218 286 c-2 -2 -2 -2 0 -4 0 -1 2 -2 4 -2 1 0 2 -1 2 -2 0 -2 1 -4
2 -5 2 -1 2 -1 4 1 2 2 2 2 1 4 -1 1 -3 2 -5 2 -1 0 -2 1 -2 2 0 2 -3 6 -4 6
0 0 -2 -1 -2 -2z"/><path d="M266 262 c-2 -2 -2 -2 0 -4 0 -1 2 -2 4 -2 1 0 2 -1 2 -2 0 -2 1 -4
2 -5 2 -1 2 -1 4 1 2 2 2 2 1 4 -1 1 -3 2 -5 2 -1 0 -2 1 -2 2 0 2 -3 6 -4 6
0 0 -2 -1 -2 -2z"/><path d="M241 254 c-1 -2 -1 -2 1 -4 l2 -2 2 2 c2 2 2 2 1 4 -3 2 -3 2 -6 0z"/><path d="M401 198 c-1 -2 -1 -2 1 -4 l2 -2 2 2 c2 2 2 2 1 4 -1 1 -3 2 -3 2 0
0 -2 -1 -3 -2z"/></g>
  <g transform="scale(0.125 0.125) translate(0.000000,512.000000) scale(1.000000,-1.000000)" fill="#c2106c" stroke="none"><path d="M194 398 c-2 -2 -2 -2 0 -4 1 -2 3 -2 16 -2 l14 0 0 -2 c0 -3 3 -6 6
-6 1 0 2 -1 2 -2 0 -2 1 -4 2 -5 2 -1 2 -1 4 1 2 2 2 2 1 4 -1 1 -3 2 -5 2 -1
0 -2 1 -2 2 0 3 -3 6 -6 6 -1 0 -2 1 -2 2 0 5 -3 6 -16 6 -11 0 -13 0 -14 -2z"/><path d="M290 398 c-2 -2 -2 -2 0 -4 1 -2 3 -2 10 -2 7 0 9 0 11 2 1 2 1 2 0
4 -2 2 -4 2 -11 2 -7 0 -9 0 -10 -2z"/><path d="M273 390 c-1 -2 -1 -2 1 -4 l2 -2 2 2 c2 2 2 2 1 4 -1 1 -3 2 -3 2 0
0 -2 -1 -3 -2z"/><path d="M321 390 c-1 -2 -1 -2 1 -4 l2 -2 2 2 c2 2 2 2 1 4 -1 1 -3 2 -3 2 0
0 -2 -1 -3 -2z"/><path d="M265 374 c-1 -2 -1 -2 1 -4 l2 -2 2 2 c2 2 2 2 1 4 -1 1 -3 2 -3 2 0
0 -2 -1 -3 -2z"/><path d="M250 358 c-3 -3 0 -6 6 -6 6 0 9 3 7 6 -2 1 -4 2 -7 2 -3 0 -5 -1 -6
-2z"/><path d="M177 350 c-1 -2 -1 -2 1 -4 l2 -2 2 2 c2 2 2 2 1 4 -1 1 -3 2 -3 2 0
0 -2 -1 -3 -2z"/><path d="M321 342 c-1 -2 -1 -2 1 -4 l2 -2 2 2 c2 2 2 2 1 4 -1 1 -3 2 -3 2 0
0 -2 -1 -3 -2z"/><path d="M185 334 c-1 -2 -1 -2 1 -4 l2 -2 2 2 c2 2 2 2 1 4 -1 1 -3 2 -3 2 0
0 -2 -1 -3 -2z"/><path d="M305 318 c-1 -2 -1 -2 1 -4 l2 -2 2 2 c2 2 2 2 1 4 -1 1 -3 2 -3 2 0
0 -2 -1 -3 -2z"/><path d="M201 310 c-1 -2 -1 -2 1 -4 l2 -2 2 2 c2 2 2 2 1 4 -1 1 -3 2 -3 2 0
0 -2 -1 -3 -2z"/><path d="M281 286 c-1 -2 -1 -2 1 -4 l2 -2 2 2 c2 2 2 2 1 4 -1 1 -3 2 -3 2 0
0 -2 -1 -3 -2z"/><path d="M241 254 c-1 -2 -1 -2 1 -4 l2 -2 2 2 c2 2 2 2 1 4 -3 2 -3 2 -6 0z"/></g>
</svg>
