<?xml version="1.0" encoding="UTF-8"?>
<svg xmlns="http://www.w3.org/2000/svg" viewBox="0 0 64 64" width="64" height="64">
  <g transform="scale(0.125 0.125) translate(0.000000,512.000000) scale(1.000000,-1.000000)" fill="#ffffff" stroke="none"><path d="M192 484 l-3 -4 -9 0 -9 0 -3 -4 c-3 -4 -4 -4 -8 -4 -4 0 -5 0 -8 -4
-3 -4 -4 -4 -8 -4 -4 0 -5 0 -8 -4 -3 -4 -4 -4 -8 -4 -4 0 -4 0 -16 -12 -12
-12 -12 -12 -16 -12 -6 0 -8 -2 -8 -8 0 -4 0 -5 -12 -16 -12 -12 -12 -12 -12
-16 0 -4 0 -5 -4 -8 l-4 -3 0 -9 0 -9 -4 -3 -4 -3 0 -49 0 -49 4 -3 c4 -3 4
-4 4 -8 0 -4 0 -5 4 -8 4 -3 4 -4 4 -8 0 -4 0 -5 4 -8 4 -3 4 -4 4 -8 l0 -4
22 -22 c22 -22 22 -22 26 -22 4 0 5 0 12 -8 7 -8 8 -8 12 -8 4 0 5 0 8 -4 l3
-4 9 0 9 0 3 -4 c3 -4 4 -4 8 -4 6 0 16 -10 16 -16 0 -4 0 -5 8 -12 8 -7 8 -8
8 -12 0 -4 0 -5 4 -8 4 -3 4 -4 4 -8 0 -4 0 -5 4 -8 4 -3 4 -4 4 -8 0 -4 0 -5
8 -12 8 -7 8 -8 8 -12 0 -3 1 -5 2 -6 2 -2 2 -2 8 4 6 5 6 6 6 10 0 4 0 5 4 8
4 3 4 4 4 8 0 4 0 5 8 12 8 7 8 8 8 12 0 4 0 5 4 8 4 3 4 4 4 8 0 4 0 5 4 8 4
3 4 4 4 8 0 4 0 5 6 10 5 6 6 6 10 6 4 0 5 0 8 4 l3 4 9 0 9 0 3 4 c3 4 4 4 8
4 4 0 5 0 12 8 7 8 8 8 12 8 4 0 4 0 26 22 22 22 22 22 22 26 0 4 0 5 8 12 l8
8 0 8 0 9 4 3 4 3 0 9 0 9 4 3 4 3 0 25 0 25 -4 3 -4 3 0 13 0 13 -4 3 c-4 3
-4 4 -4 8 0 4 0 5 -4 8 -4 3 -4 4 -4 8 0 4 0 5 -8 12 -8 7 -8 8 -8 12 0 4 0 5
-10 14 -9 10 -10 10 -14 10 -4 0 -5 0 -12 8 -7 8 -8 8 -12 8 -4 0 -5 0 -8 4
-3 4 -4 4 -8 4 -4 0 -5 0 -8 4 -3 4 -4 4 -8 4 -4 0 -5 0 -8 4 l-3 4 -9 0 -9 0
-3 4 -3 4 -57 0 -57 0 -3 -4z"/></g>
  <g transform="scale(0.125 0.125) translate(0.000000,512.000000) scale(1.000000,-1.000000)" fill="#382830" stroke="none"><path d="M192 484 l-3 -4 -9 0 -9 0 -3 -4 c-3 -4 -4 -4 -8 -4 -4 0 -5 0 -8 -4
-3 -4 -4 -4 -8 -4 -4 0 -5 0 -8 -4 -3 -4 -4 -4 -8 -4 -4 0 -4 0 -16 -12 -12
-12 -12 -12 -16 -12 -6 0 -8 -2 -8 -8 0 -4 0 -5 -12 -16 -12 -12 -12 -12 -12
-16 0 -4 0 -5 -4 -8 l-4 -3 0 -9 0 -9 -4 -3 -4 -3 0 -49 0 -49 4 -3 c4 -3 4
-4 4 -8 0 -4 0 -5 4 -8 4 -3 4 -4 4 -8 0 -4 0 -5 4 -8 4 -3 4 -4 4 -8 l0 -4
22 -22 c22 -22 22 -22 26 -22 4 0 5 0 12 -8 7 -8 8 -8 12 -8 4 0 5 0 8 -4 l3
-4 9 0 9 0 3 -4 c3 -4 4 -4 8 -4 6 0 16 -10 16 -16 0 -4 0 -5 8 -12 8 -7 8 -8
8 -12 0 -4 0 -5 4 -8 4 -3 4 -4 4 -8 0 -4 0 -5 4 -8 4 -3 4 -4 4 -8 0 -4 0 -5
8 -12 8 -7 8 -8 8 -12 0 -3 1 -5 2 -6 2 -2 2 -2 8 4 6 5 6 6 6 10 0 4 0 5 4 8
4 3 4 4 4 8 0 4 0 5 8 12 8 7 8 8 8 12 0 4 0 5 4 8 4 3 4 4 4 8 0 4 0 5 4 8 4
3 4 4 4 8 0 4 0 5 6 10 5 6 6 6 10 6 4 0 5 0 8 4 l3 4 9 0 9 0 3 4 c3 4 4 4 8
4 4 0 5 0 12 8 7 8 8 8 12 8 4 0 4 0 26 22 22 22 22 22 22 26 0 4 0 5 8 12 l8
8 0 8 0 9 4 3 4 3 0 9 0 9 4 3 4 3 0 25 0 25 -4 3 -4 3 0 13 0 13 -4 3 c-4 3
-4 4 -4 8 0 4 0 5 -4 8 -4 3 -4 4 -4 8 0 4 0 5 -8 12 -8 7 -8 8 -8 12 0 4 0 5
-10 14 -9 10 -10 10 -14 10 -4 0 -5 0 -12 8 -7 8 -8 8 -12 8 -4 0 -5 0 -8 4
-3 4 -4 4 -8 4 -4 0 -5 0 -8 4 -3 4 -4 4 -8 4 -4 0 -5 0 -8 4 l-3 4 -9 0 -9 0
-3 4 -3 4 -57 0 -57 0 -3 -4z m64 -8 l3 -4 21 0 21 0 3 -4 3 -4 9 0 9 0 3 -4
c3 -4 4 -4 8 -4 4 0 5 0 8 -4 3 -4 4 -4 8 -4 4 0 5 0 12 -8 7 -8 8 -8 12 -8 4
0 5 0 18 -14 14 -13 14 -14 14 -18 0 -4 0 -5 8 -12 8 -7 8 -8 8 -12 0 -4 0 -5
4 -8 4 -3 4 -4 4 -8 0 -4 0 -5 4 -8 l4 -3 0 -37 0 -37 -4 -3 -4 -3 0 -9 0 -8
-8 -8 c-8 -7 -8 -8 -8 -12 0 -4 0 -4 -22 -26 l-22 -22 -4 0 c-4 0 -5 0 -8 -4
-3 -4 -4 -4 -8 -4 -4 0 -5 0 -8 -4 -3 -4 -4 -4 -8 -4 -4 0 -5 0 -8 -4 l-3 -4
-9 0 -8 0 -6 -6 c-6 -5 -6 -6 -6 -10 0 -4 0 -5 -4 -8 -4 -3 -4 -4 -4 -8 0 -4
0 -5 -4 -8 -4 -3 -4 -4 -4 -8 0 -4 0 -5 -8 -12 -8 -7 -8 -8 -8 -12 0 -4 -1 -5
-6 -10 -6 -6 -6 -6 -8 -4 -1 1 -2 3 -2 6 0 4 0 5 -8 12 -8 7 -8 8 -8 12 0 4 0
5 -4 8 -4 3 -4 4 -4 8 0 4 0 5 -4 8 -4 3 -4 4 -4 8 0 4 0 4 -10 14 l-10 10 -8
0 -9 0 -3 4 c-3 4 -4 4 -8 4 -4 0 -5 0 -8 4 -3 4 -4 4 -8 4 -4 0 -5 0 -12 8
-7 8 -8 8 -12 8 -4 0 -4 0 -22 18 -18 18 -18 18 -18 22 0 4 0 5 -8 12 l-8 8 0
8 0 9 -4 3 -4 3 0 37 0 37 4 3 4 3 0 9 0 8 12 12 c12 11 12 12 12 16 0 4 0 5
14 18 13 14 14 14 18 14 4 0 5 0 12 8 7 8 8 8 12 8 4 0 5 0 8 4 3 4 4 4 8 4 4
0 5 0 8 4 l3 4 9 0 9 0 3 4 3 4 21 0 21 0 3 4 c2 2 4 4 4 4 0 0 2 -2 4 -4z"/><path d="M170 406 c-10 -10 -10 -10 -10 -14 0 -4 0 -5 -4 -8 l-4 -3 0 -13 0
-13 4 -3 4 -3 0 -9 0 -8 12 -12 c12 -11 12 -12 12 -16 0 -4 0 -5 12 -16 12
-11 12 -12 12 -16 0 -4 0 -5 8 -12 8 -7 8 -8 8 -12 0 -4 0 -5 8 -12 8 -7 8 -8
8 -12 0 -4 0 -5 4 -8 4 -3 4 -4 4 -8 0 -6 3 -9 6 -6 1 1 2 3 2 6 0 4 0 5 8 12
8 7 8 8 8 12 0 4 0 5 4 8 4 3 4 4 4 8 0 4 0 5 8 12 8 7 8 8 8 12 0 4 0 4 16
20 16 16 16 16 16 20 0 4 0 5 8 12 l8 8 0 8 0 9 4 3 4 3 0 17 0 16 -14 14 -14
14 -24 0 -24 0 -12 -12 -12 -12 -12 12 -12 12 -24 0 -24 0 -10 -10z"/></g>
  <g transform="scale(0.125 0.125) translate(0.000000,512.000000) scale(1.000000,-1.000000)" fill="#ff2c96" stroke="none"><path d="M202 478 c-1 -1 -2 -3 -2 -4 0 -2 0 -2 -10 -2 -12 0 -14 -1 -14 -6 0
-2 0 -2 -10 -2 l-11 0 -3 -4 c-3 -4 -4 -4 -8 -4 -4 0 -5 0 -12 -8 -7 -8 -8 -8
-12 -8 -4 0 -4 0 -22 -18 -18 -18 -18 -18 -18 -22 0 -4 0 -5 -8 -12 -8 -7 -8
-8 -8 -12 0 -4 0 -5 -4 -8 l-4 -3 0 -13 0 -13 -4 -3 -4 -3 0 -25 0 -25 4 -3 4
-3 0 -9 0 -9 4 -3 c4 -3 4 -4 4 -8 0 -4 0 -5 4 -8 4 -3 4 -4 4 -8 l0 -4 30
-30 30 -30 4 0 c4 0 5 0 8 -4 3 -4 4 -4 8 -4 6 0 8 -2 8 -8 0 -3 1 -5 2 -7 2
-1 2 -1 6 3 3 4 4 4 8 4 6 0 8 -2 8 -8 0 -4 0 -5 8 -12 8 -7 8 -8 8 -12 0 -4
0 -5 8 -12 8 -7 8 -8 8 -12 0 -4 0 -5 4 -8 4 -3 4 -4 4 -8 0 -4 0 -5 4 -8 4
-3 4 -4 4 -8 0 -4 0 -5 8 -12 8 -7 8 -8 8 -12 0 -3 1 -5 2 -6 2 -2 2 -2 8 4 6
5 6 6 6 10 0 4 0 5 4 8 4 3 4 4 4 8 0 4 0 5 8 12 8 7 8 8 8 12 0 4 0 5 4 8 4
3 4 4 4 8 0 4 0 5 4 8 4 3 4 4 4 8 0 4 0 5 8 12 8 7 8 8 8 12 0 6 2 8 8 8 4 0
5 0 8 -4 4 -4 4 -4 6 -3 1 2 2 4 2 7 0 3 1 5 2 7 2 1 2 1 6 -3 4 -4 4 -4 6 -3
1 2 2 4 2 7 0 6 2 8 8 8 4 0 5 0 16 12 12 12 12 12 16 12 6 0 8 2 8 8 0 4 0 5
12 16 12 12 12 12 12 16 0 4 0 5 4 8 4 3 4 4 4 8 0 4 0 5 4 8 l4 3 0 13 c0 15
1 16 8 16 8 0 8 1 8 20 l0 16 -8 8 -8 8 0 12 0 13 -4 3 c-4 3 -4 4 -4 8 0 4 0
5 -8 12 -8 7 -8 8 -8 12 0 4 0 4 -18 22 -18 18 -18 18 -22 18 -4 0 -5 0 -12 8
-7 8 -8 8 -12 8 -4 0 -5 0 -8 4 l-3 4 -11 0 c-10 0 -10 0 -10 2 0 5 -3 6 -14
6 -10 0 -10 0 -10 2 0 6 -2 6 -24 6 -19 0 -21 0 -22 -2 -2 -2 -2 -2 0 -4 1 -2
3 -2 24 -2 l22 0 0 -2 c0 -5 3 -6 14 -6 10 0 10 0 10 -2 0 -4 3 -6 8 -6 4 0 5
0 8 -4 3 -4 4 -4 8 -4 4 0 5 0 12 -8 7 -8 8 -8 12 -8 4 0 5 0 18 -14 14 -13
14 -14 14 -18 0 -4 0 -5 8 -12 8 -7 8 -8 8 -12 0 -4 0 -5 4 -8 4 -3 4 -4 4 -8
0 -4 0 -5 4 -8 l4 -3 0 -37 0 -37 -4 -3 -4 -3 0 -9 0 -8 -8 -8 c-8 -7 -8 -8
-8 -12 0 -4 0 -4 -22 -26 l-22 -22 -4 0 c-4 0 -5 0 -8 -4 -3 -4 -4 -4 -8 -4
-4 0 -5 0 -8 -4 -3 -4 -4 -4 -8 -4 -4 0 -5 0 -8 -4 l-3 -4 -9 0 -8 0 -6 -6
c-6 -5 -6 -6 -6 -10 0 -4 0 -5 -4 -8 -4 -3 -4 -4 -4 -8 0 -4 0 -5 -4 -8 -4 -3
-4 -4 -4 -8 0 -4 0 -5 -8 -12 -8 -7 -8 -8 -8 -12 0 -4 -1 -5 -6 -10 -6 -6 -6
-6 -8 -4 -1 1 -2 3 -2 6 0 4 0 5 -8 12 -8 7 -8 8 -8 12 0 4 0 5 -4 8 -4 3 -4
4 -4 8 0 4 0 5 -4 8 -4 3 -4 4 -4 8 0 4 0 4 -10 14 l-10 10 -8 0 -9 0 -3 4
c-3 4 -4 4 -8 4 -4 0 -5 0 -8 4 -3 4 -4 4 -8 4 -4 0 -5 0 -12 8 -7 8 -8 8 -12
8 -4 0 -4 0 -22 18 -18 18 -18 18 -18 22 0 4 0 5 -8 12 l-8 8 0 8 0 9 -4 3 -4
3 0 37 0 37 4 3 4 3 0 9 0 8 12 12 c12 11 12 12 12 16 0 4 0 5 14 18 13 14 14
14 18 14 4 0 5 0 12 8 7 8 8 8 12 8 4 0 5 0 8 4 3 4 4 4 8 4 5 0 8 2 8 6 0 2
0 2 10 2 12 0 14 1 14 6 0 2 0 2 22 2 21 0 23 0 25 2 1 2 1 2 0 4 -3 3 -43 3
-45 0z"/><path d="M178 414 c-1 -1 -2 -3 -2 -4 0 -1 -1 -2 -2 -2 -1 0 -5 -2 -8 -6 -6
-5 -6 -6 -6 -10 0 -4 0 -5 -4 -8 l-4 -3 0 -13 c0 -14 1 -16 6 -16 2 0 2 0 2
-10 0 -12 1 -14 6 -14 1 0 2 -1 2 -2 0 -2 3 -5 8 -10 8 -7 8 -8 8 -12 0 -5 2
-8 6 -8 1 0 2 -1 2 -2 0 -2 3 -5 8 -10 8 -7 8 -8 8 -12 0 -5 2 -8 6 -8 1 0 2
-1 2 -2 0 -3 3 -6 6 -6 2 0 2 -1 2 -6 l0 -6 6 -6 6 -6 6 0 c8 0 8 -3 2 -8 l-4
-4 4 -4 c4 -3 4 -4 4 -8 0 -6 3 -9 6 -6 1 1 2 3 2 6 0 4 0 5 8 12 l8 8 0 6 c0
6 0 6 2 6 4 0 6 3 6 8 0 4 0 5 8 12 8 7 8 8 8 12 0 4 0 5 12 16 8 8 12 12 12
14 0 1 1 2 2 2 4 0 6 3 6 8 0 4 0 5 4 8 3 2 4 4 4 6 0 1 1 2 2 2 4 0 6 3 6 8
0 4 0 5 -4 8 -3 2 -4 4 -4 6 0 2 0 2 6 2 10 0 10 0 10 20 0 18 -1 20 -6 20 -1
0 -2 1 -2 2 0 1 -4 6 -10 12 l-10 10 -12 0 -12 0 -4 -4 -4 -4 -4 4 c-3 4 -4 4
-8 4 -5 0 -8 -2 -8 -6 0 -1 -1 -2 -2 -2 -3 0 -6 -3 -6 -6 0 -1 -1 -2 -2 -2 -2
0 -4 -1 -6 -4 -4 -5 -8 -6 -8 -2 0 3 -11 14 -14 14 -1 0 -2 1 -2 2 0 6 -2 6
-28 6 -23 0 -25 0 -26 -2z m4 -8 c1 -1 2 -2 2 -4 0 -1 1 -2 2 -2 2 0 4 -1 5
-2 1 -2 1 -2 0 -4 -1 -1 -3 -2 -5 -2 -1 0 -2 -1 -2 -2 0 -2 -1 -4 -2 -5 -2 -1
-2 -1 -4 1 -2 2 -2 2 -1 4 1 1 3 2 5 2 2 0 2 0 2 4 0 3 0 4 -2 4 -3 0 -6 3 -6
6 0 3 3 3 6 0z m50 0 c0 -2 -1 -4 -2 -5 -2 -1 -2 -1 -4 1 -2 2 -2 2 -1 4 3 3
7 3 7 0z m46 0 c1 -1 2 -2 2 -4 0 -1 1 -2 2 -2 2 0 4 -1 5 -2 1 -2 1 -2 -1 -4
-2 -2 -2 -2 -4 -1 -1 1 -2 3 -2 5 0 2 0 2 -4 2 -4 0 -4 0 -4 -2 0 -2 -1 -4 -2
-4 -2 -2 -2 -2 -4 0 -4 3 -3 6 2 6 l4 0 0 4 c0 5 3 6 6 2z m41 -8 c1 -2 1 -2
-1 -4 l-2 -2 -2 2 c-2 2 -2 2 -1 4 1 1 3 2 3 2 0 0 2 -1 3 -2z m-71 -8 c0 -2
-1 -4 -2 -5 -2 -1 -2 -1 -4 1 -2 2 -2 2 -1 4 3 3 7 3 7 0z m96 0 c0 -2 -1 -4
-2 -5 -2 -1 -2 -1 -4 1 -2 2 -2 2 -1 4 3 3 7 3 7 0z m-73 -8 c1 -2 1 -2 -1 -4
l-2 -2 -2 2 c-2 2 -2 2 -1 4 1 1 3 2 3 2 0 0 2 -1 3 -2z m63 -8 c2 -1 2 -3 2
-12 0 -10 0 -10 -2 -10 -5 0 -6 3 -6 12 0 10 2 14 6 10z m-87 -8 c1 -2 1 -2
-1 -4 l-2 -2 -2 2 c-2 2 -2 2 -1 4 1 1 3 2 3 2 0 0 2 -1 3 -2z m-80 -8 c1 -2
1 -2 0 -4 -3 -3 -7 -3 -7 0 0 2 3 6 4 6 0 0 2 -1 3 -2z m16 -16 c1 -2 1 -2 0
-4 -1 -1 -3 -2 -5 -2 -1 0 -2 -1 -2 -2 0 -3 -3 -6 -6 -6 -1 0 -2 1 -2 2 0 3 3
6 6 6 1 0 2 1 2 2 0 2 3 6 4 6 0 0 2 -1 3 -2z m151 -8 c1 -1 2 -2 2 -4 0 -3
-4 -3 -6 0 -2 2 -2 2 0 4 2 2 2 2 4 0z m-143 -8 c1 -2 1 -2 -1 -4 l-2 -2 -2 2
c-2 2 -2 2 -1 4 1 1 3 2 3 2 0 0 2 -1 3 -2z m128 0 c1 -2 1 -2 -1 -4 l-2 -2
-2 2 c-2 2 -2 2 -1 4 1 1 3 2 3 2 0 0 2 -1 3 -2z m-1 -16 c1 -1 2 -2 2 -4 0
-3 -4 -3 -6 0 -2 2 -2 2 0 4 2 2 2 2 4 0z m-119 -8 c1 -2 1 -2 0 -4 -3 -3 -7
-3 -7 0 0 2 3 6 4 6 0 0 2 -1 3 -2z m104 0 c1 -2 1 -2 0 -4 -1 -1 -3 -2 -5 -2
-1 0 -2 -1 -2 -2 0 -2 -1 -4 -2 -5 -2 -1 -2 -1 -4 1 -2 2 -2 2 -1 4 1 1 3 2 5
2 1 0 2 1 2 2 0 2 3 6 4 6 0 0 2 -1 3 -2z m-88 -8 c1 -2 1 -2 -1 -4 l-2 -2 -2
2 c-2 2 -2 2 -1 4 1 1 3 2 3 2 0 0 2 -1 3 -2z m7 -24 c1 -1 2 -2 2 -4 0 -2 0
-2 6 -2 5 0 7 0 9 -2 3 -3 -1 -6 -9 -6 l-6 0 0 4 0 4 -4 0 c-5 0 -6 3 -2 6 2
2 2 2 4 0z m57 0 c1 -2 1 -2 -1 -4 l-2 -2 -2 2 c-2 2 -2 2 -1 4 1 1 3 2 3 2 0
0 2 -1 3 -2z m-9 -24 c1 -1 2 -2 2 -4 0 -2 0 -2 -8 -2 -8 0 -8 0 -8 -2 0 -3
-3 -6 -6 -6 -1 0 -2 1 -2 2 0 3 3 6 6 6 1 0 2 1 2 2 0 6 10 8 14 4z"/></g>
  <g transform="scale(0.125 0.125) translate(0.000000,512.000000) scale(1.000000,-1.000000)" fill="#7a797a" stroke="none"><path d="M202 478 c-1 -1 -2 -3 -2 -4 0 -2 0 -2 -10 -2 -12 0 -14 -1 -14 -6 0
-2 0 -2 -10 -2 l-11 0 -3 -4 c-3 -4 -4 -4 -8 -4 -4 0 -5 0 -12 -8 -7 -8 -8 -8
-12 -8 -4 0 -4 0 -22 -18 -18 -18 -18 -18 -18 -22 0 -4 0 -5 -8 -12 -8 -7 -8
-8 -8 -12 0 -4 0 -5 -4 -8 l-4 -3 0 -13 0 -13 -4 -3 -4 -3 0 -25 0 -25 4 -3 4
-3 0 -9 0 -9 4 -3 c4 -3 4 -4 4 -8 0 -4 0 -5 4 -8 4 -3 4 -4 4 -8 l0 -4 30
-30 30 -30 4 0 c4 0 5 0 8 -4 3 -4 4 -4 8 -4 6 0 8 -2 8 -8 0 -3 1 -5 2 -7 2
-1 2 -1 6 3 3 4 4 4 8 4 6 0 8 -2 8 -8 0 -4 0 -5 8 -12 8 -7 8 -8 8 -12 0 -4
0 -5 8 -12 8 -7 8 -8 8 -12 0 -4 0 -5 4 -8 4 -3 4 -4 4 -8 0 -4 0 -5 4 -8 4
-3 4 -4 4 -8 0 -4 0 -5 8 -12 8 -7 8 -8 8 -12 0 -3 1 -5 2 -6 2 -2 2 -2 8 4 6
5 6 6 6 10 0 4 0 5 4 8 4 3 4 4 4 8 0 4 0 5 8 12 8 7 8 8 8 12 0 4 0 5 4 8 4
3 4 4 4 8 0 4 0 5 4 8 4 3 4 4 4 8 0 4 0 5 8 12 8 7 8 8 8 12 0 6 2 8 8 8 4 0
5 0 8 -4 4 -4 4 -4 6 -3 1 2 2 4 2 7 0 3 1 5 2 7 2 1 2 1 6 -3 4 -4 4 -4 6 -3
1 2 2 4 2 7 0 6 2 8 8 8 4 0 5 0 16 12 12 12 12 12 16 12 6 0 8 2 8 8 0 4 0 5
12 16 12 12 12 12 12 16 0 4 0 5 4 8 4 3 4 4 4 8 0 4 0 5 4 8 l4 3 0 13 c0 15
1 16 8 16 8 0 8 1 8 20 l0 16 -8 8 -8 8 0 12 0 13 -4 3 c-4 3 -4 4 -4 8 0 4 0
5 -8 12 -8 7 -8 8 -8 12 0 4 0 4 -18 22 -18 18 -18 18 -22 18 -4 0 -5 0 -12 8
-7 8 -8 8 -12 8 -4 0 -5 0 -8 4 l-3 4 -11 0 c-10 0 -10 0 -10 2 0 5 -3 6 -14
6 -10 0 -10 0 -10 2 0 6 -2 6 -24 6 -19 0 -21 0 -22 -2 -2 -2 -2 -2 0 -4 1 -2
3 -2 24 -2 l22 0 0 -2 c0 -5 3 -6 14 -6 10 0 10 0 10 -2 0 -4 3 -6 8 -6 4 0 5
0 8 -4 3 -4 4 -4 8 -4 4 0 5 0 12 -8 7 -8 8 -8 12 -8 4 0 5 0 18 -14 14 -13
14 -14 14 -18 0 -4 0 -5 8 -12 8 -7 8 -8 8 -12 0 -4 0 -5 4 -8 4 -3 4 -4 4 -8
0 -4 0 -5 4 -8 l4 -3 0 -37 0 -37 -4 -3 -4 -3 0 -9 0 -8 -8 -8 c-8 -7 -8 -8
-8 -12 0 -4 0 -4 -22 -26 l-22 -22 -4 0 c-4 0 -5 0 -8 -4 -3 -4 -4 -4 -8 -4
-4 0 -5 0 -8 -4 -3 -4 -4 -4 -8 -4 -4 0 -5 0 -8 -4 l-3 -4 -9 0 -8 0 -6 -6
c-6 -5 -6 -6 -6 -10 0 -4 0 -5 -4 -8 -4 -3 -4 -4 -4 -8 0 -4 0 -5 -4 -8 -4 -3
-4 -4 -4 -8 0 -4 0 -5 -8 -12 -8 -7 -8 -8 -8 -12 0 -4 -1 -5 -6 -10 -6 -6 -6
-6 -8 -4 -1 1 -2 3 -2 6 0 4 0 5 -8 12 -8 7 -8 8 -8 12 0 4 0 5 -4 8 -4 3 -4
4 -4 8 0 4 0 5 -4 8 -4 3 -4 4 -4 8 0 4 0 4 -10 14 l-10 10 -8 0 -9 0 -3 4
c-3 4 -4 4 -8 4 -4 0 -5 0 -8 4 -3 4 -4 4 -8 4 -4 0 -5 0 -12 8 -7 8 -8 8 -12
8 -4 0 -4 0 -22 18 -18 18 -18 18 -18 22 0 4 0 5 -8 12 l-8 8 0 8 0 9 -4 3 -4
3 0 37 0 37 4 3 4 3 0 9 0 8 12 12 c12 11 12 12 12 16 0 4 0 5 14 18 13 14 14
14 18 14 4 0 5 0 12 8 7 8 8 8 12 8 4 0 5 0 8 4 3 4 4 4 8 4 5 0 8 2 8 6 0 2
0 2 10 2 12 0 14 1 14 6 0 2 0 2 22 2 21 0 23 0 25 2 1 2 1 2 0 4 -3 3 -43 3
-45 0z"/><path d="M178 414 c-1 -1 -2 -3 -2 -4 0 -1 -1 -2 -2 -2 -1 0 -5 -2 -8 -6 -6
-5 -6 -6 -6 -10 0 -4 0 -5 -4 -8 l-4 -3 0 -13 c0 -14 1 -16 6 -16 2 0 2 0 2
-10 0 -12 1 -14 6 -14 1 0 2 -1 2 -2 0 -2 3 -5 8 -10 8 -7 8 -8 8 -12 0 -5 2
-8 6 -8 1 0 2 -1 2 -2 0 -2 3 -5 8 -10 8 -7 8 -8 8 -12 0 -5 2 -8 6 -8 1 0 2
-1 2 -2 0 -3 3 -6 6 -6 2 0 2 -1 2 -6 l0 -6 6 -6 6 -6 6 0 c8 0 8 -3 2 -8 l-4
-4 4 -4 c4 -3 4 -4 4 -8 0 -6 3 -9 6 -6 1 1 2 3 2 6 0 4 0 5 8 12 l8 8 0 6 c0
6 0 6 2 6 4 0 6 3 6 8 0 4 0 5 8 12 8 7 8 8 8 12 0 4 0 5 12 16 8 8 12 12 12
14 0 1 1 2 2 2 4 0 6 3 6 8 0 4 0 5 4 8 3 2 4 4 4 6 0 1 1 2 2 2 4 0 6 3 6 8
0 4 0 5 -4 8 -3 2 -4 4 -4 6 0 2 0 2 6 2 10 0 10 0 10 20 0 18 -1 20 -6 20 -1
0 -2 1 -2 2 0 1 -4 6 -10 12 l-10 10 -12 0 -12 0 -4 -4 -4 -4 -4 4 c-3 4 -4 4
-8 4 -5 0 -8 -2 -8 -6 0 -1 -1 -2 -2 -2 -3 0 -6 -3 -6 -6 0 -1 -1 -2 -2 -2 -2
0 -4 -1 -6 -4 -4 -5 -8 -6 -8 -2 0 3 -11 14 -14 14 -1 0 -2 1 -2 2 0 6 -2 6
-28 6 -23 0 -25 0 -26 -2z m4 -8 c1 -1 2 -2 2 -4 0 -1 1 -2 2 -2 2 0 4 -1 5
-2 1 -2 1 -2 0 -4 -1 -1 -3 -2 -5 -2 -1 0 -2 -1 -2 -2 0 -2 -1 -4 -2 -5 -2 -1
-2 -1 -4 1 -2 2 -2 2 -1 4 1 1 3 2 5 2 2 0 2 0 2 4 0 3 0 4 -2 4 -3 0 -6 3 -6
6 0 3 3 3 6 0z m50 0 c0 -2 -1 -4 -2 -5 -2 -1 -2 -1 -4 1 -2 2 -2 2 -1 4 3 3
7 3 7 0z m46 0 c1 -1 2 -2 2 -4 0 -1 1 -2 2 -2 2 0 4 -1 5 -2 1 -2 1 -2 -1 -4
-2 -2 -2 -2 -4 -1 -1 1 -2 3 -2 5 0 2 0 2 -4 2 -4 0 -4 0 -4 -2 0 -2 -1 -4 -2
-4 -2 -2 -2 -2 -4 0 -4 3 -3 6 2 6 l4 0 0 4 c0 5 3 6 6 2z m41 -8 c1 -2 1 -2
-1 -4 l-2 -2 -2 2 c-2 2 -2 2 -1 4 1 1 3 2 3 2 0 0 2 -1 3 -2z m-71 -8 c0 -2
-1 -4 -2 -5 -2 -1 -2 -1 -4 1 -2 2 -2 2 -1 4 3 3 7 3 7 0z m96 0 c0 -2 -1 -4
-2 -5 -2 -1 -2 -1 -4 1 -2 2 -2 2 -1 4 3 3 7 3 7 0z m-73 -8 c1 -2 1 -2 -1 -4
l-2 -2 -2 2 c-2 2 -2 2 -1 4 1 1 3 2 3 2 0 0 2 -1 3 -2z m63 -8 c2 -1 2 -3 2
-12 0 -10 0 -10 -2 -10 -5 0 -6 3 -6 12 0 10 2 14 6 10z m-87 -8 c1 -2 1 -2
-1 -4 l-2 -2 -2 2 c-2 2 -2 2 -1 4 1 1 3 2 3 2 0 0 2 -1 3 -2z m-80 -8 c1 -2
1 -2 0 -4 -3 -3 -7 -3 -7 0 0 2 3 6 4 6 0 0 2 -1 3 -2z m89 -10 l3 -4 29 0
c28 0 29 0 31 -2 1 -2 1 -2 -3 -6 l-4 -4 4 -4 c4 -4 4 -4 3 -6 -2 -1 -4 -2 -7
-2 -7 0 -8 -2 -8 -12 l0 -8 -6 -6 c-5 -5 -6 -6 -10 -6 -4 0 -5 -1 -10 -6 l-6
-6 4 -4 c4 -4 4 -4 3 -6 -2 -1 -4 -2 -7 -2 -6 0 -8 -2 -8 -8 0 -4 0 -5 4 -8 3
-2 4 -4 4 -6 0 -2 0 -2 -6 -2 -7 0 -7 0 -10 -4 -2 -3 -4 -4 -6 -4 -2 0 -2 0
-2 10 0 14 0 14 -14 14 l-10 0 0 4 0 4 -4 0 c-5 0 -6 3 -2 7 2 1 2 1 4 0 1 -1
2 -3 2 -5 0 -1 1 -2 2 -2 4 0 6 3 6 8 0 6 -10 16 -16 16 -7 0 -8 2 -8 12 l0 8
-6 6 c-5 6 -6 6 -10 6 -3 0 -5 1 -7 2 -1 2 -1 2 3 6 4 4 4 4 3 6 -3 3 -15 3
-15 0 0 -3 -3 -6 -6 -6 -1 0 -2 1 -2 2 0 3 3 6 6 6 1 0 2 1 2 2 0 6 0 6 36 6
l33 0 3 4 c2 2 4 4 4 4 0 0 2 -2 4 -4z m78 -14 c1 -1 2 -2 2 -4 0 -3 -4 -3 -6
0 -2 2 -2 2 0 4 2 2 2 2 4 0z m-16 -24 c1 -1 2 -2 2 -4 0 -3 -4 -3 -6 0 -2 2
-2 2 0 4 2 2 2 2 4 0z m-119 -8 c1 -2 1 -2 0 -4 -3 -3 -7 -3 -7 0 0 2 3 6 4 6
0 0 2 -1 3 -2z"/></g>
  <g transform="scale(0.125 0.125) translate(0.000000,512.000000) scale(1.000000,-1.000000)" fill="#ff1088" stroke="none"><path d="M202 478 c-1 -1 -2 -3 -2 -4 0 -2 0 -2 -6 -2 -8 0 -12 -3 -8 -6 4 -5
14 -2 14 4 0 1 1 2 2 2 2 0 4 1 5 2 1 2 1 2 0 4 -3 2 -3 2 -5 0z"/><path d="M218 478 c-2 -2 -2 -2 0 -4 1 -2 3 -2 14 -2 11 0 13 0 15 2 1 2 1 2
0 4 -2 2 -4 2 -15 2 -11 0 -13 0 -14 -2z"/><path d="M258 478 c-2 -2 -2 -2 0 -4 1 -2 3 -2 14 -2 11 0 13 0 15 2 1 2 1 2
0 4 -2 2 -4 2 -15 2 -11 0 -13 0 -14 -2z"/><path d="M306 470 c-3 -3 0 -6 6 -6 6 0 9 3 7 6 -2 1 -4 2 -7 2 -3 0 -5 -1 -6
-2z"/><path d="M162 462 c-1 -1 -2 -3 -2 -4 0 -2 0 -2 -6 -2 -7 0 -10 -2 -10 -6 0
-1 -1 -2 -2 -2 -3 0 -6 -3 -6 -6 0 -2 0 -2 -10 -2 -13 0 -14 -1 -14 -10 0 -6
0 -6 -2 -6 -3 0 -6 -3 -6 -6 0 -1 -1 -2 -2 -2 -3 0 -6 -3 -6 -6 0 -2 0 -2 -6
-2 -9 0 -10 -1 -10 -14 l0 -10 -6 0 c-8 0 -12 -3 -8 -6 4 -5 14 -2 14 4 0 1 1
2 2 2 1 0 5 2 8 6 l6 6 0 6 c0 6 0 6 2 6 3 0 6 3 6 6 0 1 1 2 2 2 3 0 6 3 6 6
0 1 1 2 2 2 2 0 4 1 6 4 3 4 4 4 8 4 5 0 8 2 8 6 0 1 1 2 2 2 3 0 6 3 6 6 0 2
0 2 6 2 7 0 10 2 10 6 0 2 0 2 6 2 8 0 12 3 9 6 -3 3 -11 3 -13 0z"/><path d="M330 462 c-4 -3 0 -6 8 -6 6 0 6 0 6 -2 0 -4 3 -6 10 -6 6 0 6 0 6
-2 0 -3 3 -6 6 -6 1 0 2 -1 2 -2 0 -4 3 -6 10 -6 6 0 6 0 6 -2 0 -3 3 -6 6 -6
1 0 2 -1 2 -2 0 -3 3 -6 6 -6 1 0 2 -1 2 -2 0 -3 3 -6 6 -6 2 0 2 -1 2 -6 l0
-6 6 -6 c3 -4 7 -6 8 -6 2 0 2 -1 2 -6 0 -7 2 -10 6 -10 2 0 2 0 2 -6 0 -5 0
-7 2 -8 2 -2 2 -2 8 4 6 6 6 6 4 8 -1 2 -3 2 -8 2 -8 0 -8 2 -2 8 4 4 4 4 3 6
-2 2 -3 2 -9 2 l-6 0 0 10 c0 13 -1 14 -10 14 -6 0 -6 0 -6 2 0 3 -3 6 -6 6
-1 0 -2 1 -2 2 0 3 -3 6 -6 6 -1 0 -2 1 -2 2 0 3 -3 6 -6 6 -1 0 -2 1 -2 2 0
4 -3 6 -10 6 -6 0 -6 0 -6 2 0 3 -3 6 -6 6 -1 0 -2 1 -2 2 0 4 -3 6 -10 6 -6
0 -6 0 -6 2 0 6 -10 8 -14 4z"/><path d="M178 414 c-1 -1 -2 -3 -2 -4 0 -1 -1 -2 -2 -2 -1 0 -5 -2 -8 -6 -6
-5 -6 -6 -6 -10 0 -4 0 -5 -4 -8 l-4 -3 0 -13 c0 -12 0 -13 2 -15 2 -1 2 -1 6
3 4 4 4 4 6 3 1 -2 2 -4 2 -7 0 -4 0 -5 -4 -8 -4 -3 -4 -4 -4 -8 0 -5 2 -8 6
-8 1 0 2 -1 2 -2 0 -4 3 -6 10 -6 6 0 6 0 6 -2 0 -2 1 -4 4 -6 5 -4 6 -8 2 -8
-2 0 -4 -1 -4 -2 -2 -2 -2 -2 0 -4 0 -1 2 -2 4 -2 1 0 2 -1 2 -2 0 -1 2 -5 6
-8 5 -6 6 -6 10 -6 5 0 8 -2 8 -6 0 -1 -1 -2 -2 -2 -2 0 -4 -1 -4 -2 -2 -2 -2
-2 0 -4 0 -1 2 -2 4 -2 1 0 2 -1 2 -2 0 -3 3 -6 6 -6 2 0 2 -1 2 -6 l0 -6 6
-6 6 -6 6 0 c8 0 8 -3 2 -8 l-4 -4 4 -4 c4 -3 4 -4 4 -8 0 -6 3 -9 6 -6 1 1 2
3 2 6 0 4 0 5 8 12 l8 8 0 6 c0 6 0 6 2 6 2 0 4 1 5 2 1 2 1 2 0 4 -1 1 -3 2
-5 2 -1 0 -2 1 -2 2 0 4 3 6 8 6 4 0 5 1 10 6 l6 6 0 10 0 10 6 0 6 0 6 6 c4
3 6 7 6 8 0 1 1 2 2 2 2 0 4 1 5 2 1 2 1 2 0 4 -1 1 -3 2 -5 2 -2 0 -2 0 -2 4
l0 4 6 0 c7 0 10 2 10 6 0 1 1 2 2 2 2 0 4 1 5 2 1 2 1 2 0 4 -1 1 -3 2 -5 2
-2 0 -2 0 -2 8 l0 8 6 0 c6 0 7 0 9 2 1 2 1 2 -3 6 l-4 4 0 10 c0 10 0 10 2
10 2 0 4 1 5 2 1 2 1 2 -1 4 -2 2 -2 2 -4 1 -1 -1 -2 -3 -2 -5 0 -1 -1 -2 -2
-2 -4 0 -6 3 -6 8 0 4 0 5 -4 8 -4 3 -4 4 -4 8 0 3 -1 5 -2 7 -2 1 -2 1 -6 -3
l-4 -4 -4 4 c-3 4 -4 4 -8 4 -4 0 -5 0 -8 -4 l-4 -4 -4 4 c-3 4 -4 4 -8 4 -5
0 -8 -2 -8 -6 0 -1 -1 -2 -2 -2 -3 0 -6 -3 -6 -6 0 -1 -1 -2 -2 -2 -3 0 -6 -3
-6 -6 0 -2 -1 -2 -4 -2 -3 0 -4 0 -4 2 0 3 -11 14 -14 14 -1 0 -2 1 -2 2 0 5
-2 6 -20 6 l-17 0 -3 -4 c-4 -5 -8 -6 -8 -2 0 2 -3 6 -4 6 0 0 -1 -1 -2 -2z
m6 -10 c0 -4 0 -4 2 -4 2 0 4 -1 5 -2 1 -2 1 -2 0 -4 -1 -1 -3 -2 -5 -2 -1 0
-2 -1 -2 -2 0 -2 -1 -4 -2 -5 -2 -1 -2 -1 -4 1 -2 2 -2 2 -1 4 1 1 3 2 5 2 2
0 2 0 2 4 0 3 0 4 -2 4 -3 0 -6 3 -6 6 0 2 0 2 4 2 l4 0 0 -4z m48 2 c0 -2 -1
-4 -2 -5 -2 -1 -2 -1 -4 1 -2 2 -2 2 -1 4 3 3 7 3 7 0z m46 0 c1 -1 2 -2 2 -4
0 -1 1 -2 2 -2 2 0 4 -1 5 -2 1 -2 1 -2 -1 -4 -2 -2 -2 -2 -4 -1 -1 1 -2 3 -2
5 0 2 0 2 -4 2 -3 0 -4 0 -4 -2 0 -3 -3 -6 -6 -6 -2 0 -2 0 -2 -4 0 -4 0 -4 2
-4 2 0 4 -1 5 -2 1 -2 1 -2 -1 -4 -2 -2 -2 -2 -4 -1 -1 1 -2 3 -2 5 0 2 0 2
-4 2 -4 0 -4 0 -4 -2 0 -2 -1 -4 -2 -4 -2 -2 -2 -2 -4 0 -1 0 -2 2 -2 4 0 1
-1 2 -2 2 -2 0 -4 1 -4 2 -2 2 -2 2 0 4 3 4 6 3 6 -2 l0 -4 4 0 4 0 0 4 0 4 4
0 4 0 0 4 0 4 4 0 4 0 0 4 c0 5 3 6 6 2z m41 -8 c1 -2 1 -2 -1 -4 l-2 -2 -2 2
c-2 2 -2 2 -1 4 1 1 3 2 3 2 0 0 2 -1 3 -2z m15 -24 c2 -1 2 -3 2 -12 0 -10 0
-10 -2 -10 -5 0 -6 3 -6 12 0 10 2 14 6 10z m-87 -8 c1 -2 1 -2 -1 -4 l-2 -2
-2 2 c-2 2 -2 2 -1 4 1 1 3 2 3 2 0 0 2 -1 3 -2z m9 -18 l3 -4 29 0 c28 0 29
0 31 -2 1 -2 1 -2 -3 -6 l-4 -4 4 -4 c6 -6 6 -8 -2 -8 -9 0 -10 -1 -10 -12 l0
-9 -4 -3 c-3 -2 -4 -4 -4 -6 0 -2 0 -2 -6 -2 l-6 0 -6 -6 -6 -6 4 -4 c4 -4 4
-4 3 -6 -2 -1 -4 -2 -7 -2 -6 0 -8 -2 -8 -8 0 -5 2 -8 6 -8 2 0 2 0 2 -4 l0
-4 -6 0 c-7 0 -7 0 -10 -4 -2 -3 -4 -4 -6 -4 -2 0 -2 0 -2 10 0 14 0 14 -14
14 l-10 0 0 4 0 4 -4 0 -4 0 0 4 c0 3 0 4 2 4 3 0 6 -3 6 -6 0 -1 1 -2 2 -2 4
0 6 3 6 8 0 6 -10 16 -16 16 -7 0 -8 2 -8 12 l0 8 -6 6 -6 6 -6 0 c-8 0 -8 3
-2 8 4 4 4 4 3 6 -3 3 -15 3 -15 0 0 -3 -3 -6 -6 -6 -1 0 -2 1 -2 2 0 3 3 6 6
6 1 0 2 1 2 2 0 6 0 6 36 6 l33 0 3 4 c2 2 4 4 4 4 0 0 2 -2 4 -4z m80 -16 c0
-5 -3 -6 -6 -2 -2 2 -2 2 0 4 3 4 6 3 6 -2z m-16 -24 c0 -5 -3 -6 -6 -2 -2 2
-2 2 0 4 3 4 6 3 6 -2z m-121 -6 c1 -2 1 -2 0 -4 -4 -4 -7 -3 -7 2 0 5 3 6 7
2z"/><path d="M58 366 c-2 -2 -2 -2 4 -8 6 -6 6 -6 8 -4 3 2 3 10 0 12 -2 3 -10 3
-12 0z"/><path d="M54 338 l-6 -6 4 -4 4 -3 0 -17 0 -16 -4 -4 c-4 -4 -4 -4 -3 -6 3 -3
11 -3 13 0 3 3 3 58 0 60 -2 2 -2 3 -8 -4z"/><path d="M442 342 c-2 -1 -2 -5 -2 -36 l0 -34 -2 0 c-5 0 -6 -3 -6 -14 0 -9 0
-10 -2 -10 -1 0 -5 -2 -8 -6 l-6 -6 0 -6 c0 -5 0 -6 -2 -6 -3 0 -38 -35 -38
-38 0 -2 -1 -2 -6 -2 -7 0 -7 0 -10 -4 -3 -4 -4 -4 -8 -4 -4 0 -5 0 -8 -4 -3
-4 -4 -4 -8 -4 -4 0 -5 0 -8 -4 l-3 -4 -9 0 -8 0 -6 -6 -6 -6 4 -4 c4 -3 4 -4
4 -10 0 -8 -2 -8 -8 -2 -4 4 -4 4 -6 3 -2 -2 -2 -3 -2 -9 0 -6 0 -6 -2 -6 -4
0 -6 -3 -6 -10 0 -6 0 -6 -2 -6 -3 0 -6 -3 -6 -6 0 -1 -1 -2 -2 -2 -4 0 -6 -3
-6 -10 0 -6 0 -6 -2 -6 -2 0 -4 -1 -6 -4 -2 -3 -4 -4 -6 -4 -2 0 -2 0 -2 6 0
7 -2 10 -6 10 -1 0 -2 1 -2 2 0 3 -3 6 -6 6 -2 0 -2 0 -2 6 0 7 -2 10 -6 10
-2 0 -2 0 -2 6 0 7 -2 10 -6 10 -2 0 -2 0 -2 6 0 7 -2 10 -6 10 -1 0 -2 1 -2
2 0 1 -2 5 -6 8 l-6 6 -8 0 -9 0 -3 4 c-3 4 -4 4 -8 4 -4 0 -5 0 -8 4 -3 4 -4
4 -8 4 -4 0 -5 0 -12 8 -7 8 -8 8 -12 8 -4 0 -5 0 -16 12 -8 8 -12 12 -14 12
-1 0 -2 1 -2 2 0 3 -3 6 -6 6 -2 0 -2 1 -2 6 l0 6 -6 6 c-3 4 -7 6 -8 6 -2 0
-2 1 -2 10 0 9 0 11 -2 13 -2 1 -2 1 -4 0 -2 -2 -2 -4 -2 -11 0 -9 1 -12 6
-12 2 0 2 -1 2 -6 l0 -6 6 -6 c3 -4 7 -6 8 -6 1 0 2 -1 2 -2 0 -3 3 -6 6 -6 2
0 2 -1 2 -6 l0 -6 10 -10 c9 -10 10 -10 14 -10 4 0 5 0 12 -8 7 -8 8 -8 12 -8
4 0 5 0 8 -4 3 -4 4 -4 8 -4 5 0 8 -2 8 -6 0 -1 -1 -2 -2 -2 -2 0 -4 -1 -5 -2
-1 -2 -1 -2 1 -4 2 -2 2 -2 4 -1 1 1 2 3 2 5 0 2 0 2 10 2 10 0 11 0 13 -2 1
-2 1 -2 -3 -6 l-4 -4 8 -8 c8 -7 8 -8 8 -12 0 -4 1 -5 6 -10 3 -4 7 -6 8 -6 2
0 2 -1 2 -6 0 -7 2 -10 6 -10 2 0 2 0 2 -6 0 -7 0 -7 4 -10 4 -3 4 -4 4 -8 0
-4 0 -5 8 -12 8 -7 8 -8 8 -12 0 -3 1 -5 2 -6 2 -2 2 -2 8 4 6 5 6 6 6 10 0 4
0 5 4 8 4 3 4 3 4 10 0 5 0 6 2 6 1 0 5 2 8 6 l6 6 0 6 c0 6 0 6 2 6 4 0 6 3
6 10 0 6 0 6 2 6 4 0 6 3 6 10 0 5 0 6 2 6 1 0 5 3 8 6 l6 6 -4 4 c-4 4 -4 4
-3 6 2 2 3 2 13 2 10 0 10 0 10 -2 0 -2 1 -4 2 -5 2 -1 2 -1 4 1 2 2 2 2 1 4
-1 1 -3 2 -5 2 -1 0 -2 1 -2 2 0 4 3 6 10 6 6 0 6 0 6 -2 0 -2 1 -4 2 -5 2 -1
2 -1 4 1 2 2 2 2 1 4 -1 1 -3 2 -5 2 -1 0 -2 1 -2 2 0 4 3 6 8 6 4 0 5 1 10 6
4 3 6 7 6 8 0 2 1 2 6 2 7 0 7 0 10 4 3 4 4 4 8 4 6 0 8 2 8 8 0 4 0 5 4 8 4
3 4 3 4 10 0 5 0 6 2 6 1 0 5 2 8 6 l6 6 0 6 c0 6 0 6 2 6 5 0 6 3 6 14 0 10
0 10 2 10 4 0 6 3 6 8 0 6 2 8 8 8 8 0 8 1 8 20 0 18 -1 20 -6 20 -1 0 -2 1
-2 2 0 2 -11 14 -12 14 0 0 -1 -1 -2 -2z m14 -28 c0 -13 0 -15 -2 -16 -2 -2
-2 -2 -4 0 -2 1 -2 3 -2 14 0 13 1 16 6 16 l2 0 0 -14z m-248 -172 c0 -2 -1
-4 -2 -5 -2 -1 -2 -1 -4 1 -2 2 -2 2 -1 4 3 3 7 3 7 0z m8 -16 c0 -2 -1 -4 -2
-5 -2 -1 -2 -1 -4 1 -2 2 -2 2 -1 4 3 3 7 3 7 0z m78 -8 c3 -2 3 -6 0 -6 -3 0
-6 3 -6 6 0 3 3 3 6 0z m-70 -8 c0 -3 -3 -6 -6 -6 -3 0 -3 3 0 6 2 3 6 3 6 0z
m62 -8 c1 -1 2 -2 2 -4 0 -2 0 -2 -4 -2 -4 0 -4 0 -4 -2 0 -2 -1 -4 -2 -4 -2
-2 -2 -2 -4 0 -4 3 -3 6 2 6 l4 0 0 4 c0 5 3 6 6 2z m-54 -10 l0 -4 4 0 c5 0
6 -3 2 -6 -2 -2 -2 -2 -4 0 -1 0 -2 2 -2 4 0 2 0 2 -4 2 -3 0 -4 0 -4 2 0 3 3
6 6 6 2 0 2 0 2 -4z m38 -14 c3 -2 3 -6 0 -6 -3 0 -6 3 -6 6 0 3 3 3 6 0z
m-22 -10 c0 -4 0 -4 2 -4 2 0 4 -1 5 -2 1 -2 1 -2 -1 -4 -2 -2 -2 -2 -4 -1 -1
1 -2 3 -2 5 0 1 -1 2 -2 2 -2 0 -4 1 -4 2 -2 2 -2 2 0 4 3 4 6 3 6 -2z"/></g>
  <g transform="scale(0.125 0.125) translate(0.000000,512.000000) scale(1.000000,-1.000000)" fill="#000000" stroke="none"><path d="M202 478 c-1 -1 -2 -3 -2 -4 0 -2 0 -2 -6 -2 -8 0 -12 -3 -8 -6 4 -5
14 -2 14 4 0 1 1 2 2 2 2 0 4 1 5 2 1 2 1 2 0 4 -3 2 -3 2 -5 0z"/><path d="M218 478 c-2 -2 -2 -2 0 -4 1 -2 3 -2 14 -2 11 0 13 0 15 2 1 2 1 2
0 4 -2 2 -4 2 -15 2 -11 0 -13 0 -14 -2z"/><path d="M258 478 c-2 -2 -2 -2 0 -4 1 -2 3 -2 14 -2 11 0 13 0 15 2 1 2 1 2
0 4 -2 2 -4 2 -15 2 -11 0 -13 0 -14 -2z"/><path d="M306 470 c-3 -3 0 -6 6 -6 6 0 9 3 7 6 -2 1 -4 2 -7 2 -3 0 -5 -1 -6
-2z"/><path d="M162 462 c-1 -1 -2 -3 -2 -4 0 -2 0 -2 -6 -2 -7 0 -10 -2 -10 -6 0
-1 -1 -2 -2 -2 -3 0 -6 -3 -6 -6 0 -2 0 -2 -10 -2 -13 0 -14 -1 -14 -10 0 -6
0 -6 -2 -6 -3 0 -6 -3 -6 -6 0 -1 -1 -2 -2 -2 -3 0 -6 -3 -6 -6 0 -2 0 -2 -6
-2 -9 0 -10 -1 -10 -14 l0 -10 -6 0 c-8 0 -12 -3 -8 -6 4 -5 14 -2 14 4 0 1 1
2 2 2 1 0 5 2 8 6 l6 6 0 6 c0 6 0 6 2 6 3 0 6 3 6 6 0 1 1 2 2 2 3 0 6 3 6 6
0 1 1 2 2 2 2 0 4 1 6 4 3 4 4 4 8 4 5 0 8 2 8 6 0 1 1 2 2 2 3 0 6 3 6 6 0 2
0 2 6 2 7 0 10 2 10 6 0 2 0 2 6 2 8 0 12 3 9 6 -3 3 -11 3 -13 0z"/><path d="M330 462 c-4 -3 0 -6 8 -6 6 0 6 0 6 -2 0 -4 3 -6 10 -6 6 0 6 0 6
-2 0 -3 3 -6 6 -6 1 0 2 -1 2 -2 0 -4 3 -6 10 -6 6 0 6 0 6 -2 0 -3 3 -6 6 -6
1 0 2 -1 2 -2 0 -3 3 -6 6 -6 1 0 2 -1 2 -2 0 -3 3 -6 6 -6 2 0 2 -1 2 -6 l0
-6 6 -6 c3 -4 7 -6 8 -6 2 0 2 -1 2 -6 0 -7 2 -10 6 -10 2 0 2 0 2 -6 0 -5 0
-7 2 -8 2 -2 2 -2 8 4 6 6 6 6 4 8 -1 2 -3 2 -8 2 -8 0 -8 2 -2 8 4 4 4 4 3 6
-2 2 -3 2 -9 2 l-6 0 0 10 c0 13 -1 14 -10 14 -6 0 -6 0 -6 2 0 3 -3 6 -6 6
-1 0 -2 1 -2 2 0 3 -3 6 -6 6 -1 0 -2 1 -2 2 0 3 -3 6 -6 6 -1 0 -2 1 -2 2 0
4 -3 6 -10 6 -6 0 -6 0 -6 2 0 3 -3 6 -6 6 -1 0 -2 1 -2 2 0 4 -3 6 -10 6 -6
0 -6 0 -6 2 0 6 -10 8 -14 4z"/><path d="M178 414 c-1 -1 -2 -3 -2 -4 0 -1 -1 -2 -2 -2 -1 0 -5 -2 -8 -6 -6
-5 -6 -6 -6 -10 0 -4 0 -5 -4 -8 l-4 -3 0 -13 c0 -12 0 -13 2 -15 2 -1 2 -1 6
3 4 4 4 4 6 3 1 -2 2 -4 2 -7 0 -4 0 -5 -4 -8 -4 -3 -4 -4 -4 -8 0 -5 2 -8 6
-8 1 0 2 -1 2 -2 0 -4 3 -6 10 -6 6 0 6 0 6 -2 0 -2 1 -4 4 -6 5 -4 6 -8 2 -8
-2 0 -4 -1 -4 -2 -2 -2 -2 -2 0 -4 0 -1 2 -2 4 -2 1 0 2 -1 2 -2 0 -1 2 -5 6
-8 5 -6 6 -6 10 -6 5 0 8 -2 8 -6 0 -1 -1 -2 -2 -2 -2 0 -4 -1 -4 -2 -2 -2 -2
-2 0 -4 0 -1 2 -2 4 -2 1 0 2 -1 2 -2 0 -3 3 -6 6 -6 2 0 2 -1 2 -6 l0 -6 6
-6 6 -6 6 0 c8 0 8 -3 2 -8 l-4 -4 4 -4 c4 -3 4 -4 4 -8 0 -6 3 -9 6 -6 1 1 2
3 2 6 0 4 0 5 8 12 l8 8 0 6 c0 6 0 6 2 6 2 0 4 1 5 2 1 2 1 2 0 4 -1 1 -3 2
-5 2 -1 0 -2 1 -2 2 0 4 3 6 8 6 4 0 5 1 10 6 l6 6 0 10 0 10 6 0 6 0 6 6 c4
3 6 7 6 8 0 1 1 2 2 2 2 0 4 1 5 2 1 2 1 2 0 4 -1 1 -3 2 -5 2 -2 0 -2 0 -2 4
l0 4 6 0 c7 0 10 2 10 6 0 1 1 2 2 2 2 0 4 1 5 2 1 2 1 2 0 4 -1 1 -3 2 -5 2
-2 0 -2 0 -2 8 l0 8 6 0 c6 0 7 0 9 2 1 2 1 2 -3 6 l-4 4 0 10 c0 10 0 10 2
10 2 0 4 1 5 2 1 2 1 2 -1 4 -2 2 -2 2 -4 1 -1 -1 -2 -3 -2 -5 0 -1 -1 -2 -2
-2 -4 0 -6 3 -6 8 0 4 0 5 -4 8 -4 3 -4 4 -4 8 0 3 -1 5 -2 7 -2 1 -2 1 -6 -3
l-4 -4 -4 4 c-3 4 -4 4 -8 4 -4 0 -5 0 -8 -4 l-4 -4 -4 4 c-3 4 -4 4 -8 4 -5
0 -8 -2 -8 -6 0 -1 -1 -2 -2 -2 -3 0 -6 -3 -6 -6 0 -1 -1 -2 -2 -2 -3 0 -6 -3
-6 -6 0 -2 -1 -2 -4 -2 -3 0 -4 0 -4 2 0 3 -11 14 -14 14 -1 0 -2 1 -2 2 0 5
-2 6 -20 6 l-17 0 -3 -4 c-4 -5 -8 -6 -8 -2 0 2 -3 6 -4 6 0 0 -1 -1 -2 -2z
m6 -10 c0 -4 0 -4 2 -4 2 0 4 -1 6 -4 l3 -4 13 0 12 0 14 -14 14 -14 -4 -4
c-4 -4 -4 -4 -3 -6 2 -2 3 -2 11 -2 10 0 12 1 12 8 0 4 0 5 4 8 l5 4 -5 4 c-2
2 -4 4 -4 6 0 2 -1 2 -4 2 -4 0 -4 0 -4 -2 0 -2 -1 -4 -2 -4 -2 -2 -2 -2 -4 0
-1 0 -2 2 -2 4 0 1 -1 2 -2 2 -2 0 -4 1 -4 2 -2 2 -2 2 0 4 3 4 6 3 6 -2 l0
-4 4 0 4 0 0 4 0 4 4 0 4 0 0 4 0 4 4 0 4 0 0 4 c0 3 0 4 2 4 3 0 6 -3 6 -6 0
-1 1 -2 2 -2 2 0 4 -1 6 -4 l3 -4 9 0 9 0 3 4 c4 4 4 4 6 3 1 -2 2 -4 2 -7 0
-4 0 -5 8 -12 l8 -8 0 -10 0 -10 -6 0 c-10 0 -10 0 -10 -18 l0 -14 -6 0 c-9 0
-10 -1 -10 -12 l0 -9 -4 -3 c-3 -2 -4 -4 -4 -6 0 -2 0 -2 -6 -2 l-6 0 -6 -6
-6 -6 4 -4 c4 -4 4 -4 3 -6 -2 -1 -4 -2 -7 -2 -6 0 -8 -2 -8 -8 0 -5 2 -8 6
-8 2 0 2 0 2 -4 l0 -4 -6 0 c-7 0 -7 0 -10 -4 -2 -3 -4 -4 -6 -4 -2 0 -2 0 -2
10 0 14 0 14 -14 14 l-10 0 0 4 0 4 -4 0 -4 0 0 4 c0 3 0 4 2 4 3 0 6 -3 6 -6
0 -1 1 -2 2 -2 4 0 6 3 6 8 0 6 -10 16 -16 16 -7 0 -8 2 -8 12 l0 8 -6 6 -6 6
-6 0 c-8 0 -8 3 -2 8 4 4 4 4 3 6 -3 3 -15 3 -15 0 0 -3 -3 -6 -6 -6 -1 0 -2
1 -2 2 0 3 3 6 6 6 1 0 2 1 2 2 0 2 2 4 4 6 l5 4 -5 4 -4 4 0 8 0 9 4 3 5 4
-5 4 -4 4 4 4 c5 4 6 8 2 8 -3 0 -6 3 -6 6 0 2 0 2 4 2 l4 0 0 -4z m48 2 c0
-2 -1 -4 -2 -5 -2 -1 -2 -1 -4 1 -2 2 -2 2 -1 4 3 3 7 3 7 0z m104 -74 c0 -5
-3 -6 -6 -2 -2 2 -2 2 0 4 3 4 6 3 6 -2z m-16 -24 c0 -5 -3 -6 -6 -2 -2 2 -2
2 0 4 3 4 6 3 6 -2z m-121 -6 c1 -2 1 -2 0 -4 -4 -4 -7 -3 -7 2 0 5 3 6 7 2z"/><path d="M272 398 c0 -3 -3 -6 -6 -6 -2 0 -2 -1 -2 -4 l0 -4 6 0 c9 0 10 1 10
10 l0 6 -4 0 c-4 0 -4 0 -4 -2z"/><path d="M58 366 c-2 -2 -2 -2 4 -8 6 -6 6 -6 8 -4 3 2 3 10 0 12 -2 3 -10 3
-12 0z"/><path d="M54 338 l-6 -6 4 -4 4 -3 0 -17 0 -16 -4 -4 c-4 -4 -4 -4 -3 -6 3 -3
11 -3 13 0 3 3 3 58 0 60 -2 2 -2 3 -8 -4z"/><path d="M442 342 c-2 -1 -2 -5 -2 -36 l0 -34 -2 0 c-5 0 -6 -3 -6 -14 0 -9 0
-10 -2 -10 -1 0 -5 -2 -8 -6 l-6 -6 0 -6 c0 -5 0 -6 -2 -6 -3 0 -38 -35 -38
-38 0 -2 -1 -2 -6 -2 -7 0 -7 0 -10 -4 -3 -4 -4 -4 -8 -4 -4 0 -5 0 -8 -4 -3
-4 -4 -4 -8 -4 -4 0 -5 0 -8 -4 l-3 -4 -9 0 -8 0 -6 -6 -6 -6 4 -4 c4 -3 4 -4
4 -10 0 -8 -2 -8 -8 -2 -4 4 -4 4 -6 3 -2 -2 -2 -3 -2 -9 0 -6 0 -6 -2 -6 -4
0 -6 -3 -6 -10 0 -6 0 -6 -2 -6 -3 0 -6 -3 -6 -6 0 -1 -1 -2 -2 -2 -4 0 -6 -3
-6 -10 0 -6 0 -6 -2 -6 -2 0 -4 -1 -6 -4 -2 -3 -4 -4 -6 -4 -2 0 -2 0 -2 6 0
7 -2 10 -6 10 -1 0 -2 1 -2 2 0 3 -3 6 -6 6 -2 0 -2 0 -2 6 0 7 -2 10 -6 10
-2 0 -2 0 -2 6 0 7 -2 10 -6 10 -2 0 -2 0 -2 6 0 7 -2 10 -6 10 -1 0 -2 1 -2
2 0 1 -2 5 -6 8 l-6 6 -8 0 -9 0 -3 4 c-3 4 -4 4 -8 4 -4 0 -5 0 -8 4 -3 4 -4
4 -8 4 -4 0 -5 0 -12 8 -7 8 -8 8 -12 8 -4 0 -5 0 -16 12 -8 8 -12 12 -14 12
-1 0 -2 1 -2 2 0 3 -3 6 -6 6 -2 0 -2 1 -2 6 l0 6 -6 6 c-3 4 -7 6 -8 6 -2 0
-2 1 -2 10 0 9 0 11 -2 13 -2 1 -2 1 -4 0 -2 -2 -2 -4 -2 -11 0 -9 1 -12 6
-12 2 0 2 -1 2 -6 l0 -6 6 -6 c3 -4 7 -6 8 -6 1 0 2 -1 2 -2 0 -3 3 -6 6 -6 2
0 2 -1 2 -6 l0 -6 10 -10 c9 -10 10 -10 14 -10 4 0 5 0 12 -8 7 -8 8 -8 12 -8
4 0 5 0 8 -4 3 -4 4 -4 8 -4 5 0 8 -2 8 -6 0 -1 -1 -2 -2 -2 -2 0 -4 -1 -5 -2
-1 -2 -1 -2 1 -4 2 -2 2 -2 4 -1 1 1 2 3 2 5 0 2 0 2 10 2 10 0 11 0 13 -2 1
-2 1 -2 -3 -6 l-4 -4 8 -8 c8 -7 8 -8 8 -12 0 -4 1 -5 6 -10 3 -4 7 -6 8 -6 2
0 2 -1 2 -6 0 -7 2 -10 6 -10 2 0 2 0 2 -6 0 -7 0 -7 4 -10 4 -3 4 -4 4 -8 0
-4 0 -5 8 -12 8 -7 8 -8 8 -12 0 -3 1 -5 2 -6 2 -2 2 -2 8 4 6 5 6 6 6 10 0 4
0 5 4 8 4 3 4 3 4 10 0 5 0 6 2 6 1 0 5 2 8 6 l6 6 0 6 c0 6 0 6 2 6 4 0 6 3
6 10 0 6 0 6 2 6 4 0 6 3 6 10 0 5 0 6 2 6 1 0 5 3 8 6 l6 6 -4 4 c-4 4 -4 4
-3 6 2 2 3 2 13 2 10 0 10 0 10 -2 0 -2 1 -4 2 -5 2 -1 2 -1 4 1 2 2 2 2 1 4
-1 1 -3 2 -5 2 -1 0 -2 1 -2 2 0 4 3 6 10 6 6 0 6 0 6 -2 0 -2 1 -4 2 -5 2 -1
2 -1 4 1 2 2 2 2 1 4 -1 1 -3 2 -5 2 -1 0 -2 1 -2 2 0 4 3 6 8 6 4 0 5 1 10 6
4 3 6 7 6 8 0 2 1 2 6 2 7 0 7 0 10 4 3 4 4 4 8 4 6 0 8 2 8 8 0 4 0 5 4 8 4
3 4 3 4 10 0 5 0 6 2 6 1 0 5 2 8 6 l6 6 0 6 c0 6 0 6 2 6 5 0 6 3 6 14 0 10
0 10 2 10 4 0 6 3 6 8 0 6 2 8 8 8 8 0 8 1 8 20 0 18 -1 20 -6 20 -1 0 -2 1
-2 2 0 2 -11 14 -12 14 0 0 -1 -1 -2 -2z m14 -28 c0 -13 0 -15 -2 -16 -2 -2
-2 -2 -4 0 -2 1 -2 3 -2 14 0 13 1 16 6 16 l2 0 0 -14z m-248 -172 c0 -2 -1
-4 -2 -5 -2 -1 -2 -1 -4 1 -2 2 -2 2 -1 4 3 3 7 3 7 0z m8 -16 c0 -2 -1 -4 -2
-5 -2 -1 -2 -1 -4 1 -2 2 -2 2 -1 4 3 3 7 3 7 0z m78 -8 c3 -2 3 -6 0 -6 -3 0
-6 3 -6 6 0 3 3 3 6 0z m-70 -8 c0 -3 -3 -6 -6 -6 -3 0 -3 3 0 6 2 3 6 3 6 0z
m62 -8 c1 -1 2 -2 2 -4 0 -2 0 -2 -4 -2 -4 0 -4 0 -4 -2 0 -2 -1 -4 -2 -4 -2
-2 -2 -2 -4 0 -4 3 -3 6 2 6 l4 0 0 4 c0 5 3 6 6 2z m-54 -10 l0 -4 4 0 c5 0
6 -3 2 -6 -2 -2 -2 -2 -4 0 -1 0 -2 2 -2 4 0 2 0 2 -4 2 -3 0 -4 0 -4 2 0 3 3
6 6 6 2 0 2 0 2 -4z m38 -14 c3 -2 3 -6 0 -6 -3 0 -6 3 -6 6 0 3 3 3 6 0z
m-22 -10 c0 -4 0 -4 2 -4 2 0 4 -1 5 -2 1 -2 1 -2 -1 -4 -2 -2 -2 -2 -4 -1 -1
1 -2 3 -2 5 0 1 -1 2 -2 2 -2 0 -4 1 -4 2 -2 2 -2 2 0 4 3 4 6 3 6 -2z"/></g>
  <g transform="scale(0.125 0.125) translate(0.000000,512.000000) scale(1.000000,-1.000000)" fill="#c5c5c5" stroke="none"><path d="M202 478 c-1 -1 -2 -3 -2 -4 0 -2 0 -2 -6 -2 -8 0 -12 -3 -8 -6 4 -5
14 -2 14 4 0 1 1 2 2 2 2 0 4 1 5 2 1 2 1 2 0 4 -3 2 -3 2 -5 0z"/><path d="M218 478 c-2 -2 -2 -2 0 -4 1 -2 3 -2 14 -2 11 0 13 0 15 2 1 2 1 2
0 4 -2 2 -4 2 -15 2 -11 0 -13 0 -14 -2z"/><path d="M258 478 c-2 -2 -2 -2 0 -4 1 -2 3 -2 14 -2 11 0 13 0 15 2 1 2 1 2
0 4 -2 2 -4 2 -15 2 -11 0 -13 0 -14 -2z"/><path d="M306 470 c-3 -3 0 -6 6 -6 6 0 9 3 7 6 -2 1 -4 2 -7 2 -3 0 -5 -1 -6
-2z"/><path d="M162 462 c-1 -1 -2 -3 -2 -4 0 -2 0 -2 -6 -2 -7 0 -10 -2 -10 -6 0
-1 -1 -2 -2 -2 -3 0 -6 -3 -6 -6 0 -2 0 -2 -10 -2 -13 0 -14 -1 -14 -10 0 -6
0 -6 -2 -6 -3 0 -6 -3 -6 -6 0 -1 -1 -2 -2 -2 -3 0 -6 -3 -6 -6 0 -2 0 -2 -6
-2 -9 0 -10 -1 -10 -14 l0 -10 -6 0 c-8 0 -12 -3 -8 -6 4 -5 14 -2 14 4 0 1 1
2 2 2 1 0 5 2 8 6 l6 6 0 6 c0 6 0 6 2 6 3 0 6 3 6 6 0 1 1 2 2 2 3 0 6 3 6 6
0 1 1 2 2 2 2 0 4 1 6 4 3 4 4 4 8 4 5 0 8 2 8 6 0 1 1 2 2 2 3 0 6 3 6 6 0 2
0 2 6 2 7 0 10 2 10 6 0 2 0 2 6 2 8 0 12 3 9 6 -3 3 -11 3 -13 0z"/><path d="M330 462 c-4 -3 0 -6 8 -6 6 0 6 0 6 -2 0 -4 3 -6 10 -6 6 0 6 0 6
-2 0 -3 3 -6 6 -6 1 0 2 -1 2 -2 0 -4 3 -6 10 -6 6 0 6 0 6 -2 0 -3 3 -6 6 -6
1 0 2 -1 2 -2 0 -3 3 -6 6 -6 1 0 2 -1 2 -2 0 -3 3 -6 6 -6 2 0 2 -1 2 -6 l0
-6 6 -6 c3 -4 7 -6 8 -6 2 0 2 -1 2 -6 0 -7 2 -10 6 -10 2 0 2 0 2 -6 0 -5 0
-7 2 -8 2 -2 2 -2 8 4 6 6 6 6 4 8 -1 2 -3 2 -8 2 -8 0 -8 2 -2 8 4 4 4 4 3 6
-2 2 -3 2 -9 2 l-6 0 0 10 c0 13 -1 14 -10 14 -6 0 -6 0 -6 2 0 3 -3 6 -6 6
-1 0 -2 1 -2 2 0 3 -3 6 -6 6 -1 0 -2 1 -2 2 0 3 -3 6 -6 6 -1 0 -2 1 -2 2 0
4 -3 6 -10 6 -6 0 -6 0 -6 2 0 3 -3 6 -6 6 -1 0 -2 1 -2 2 0 4 -3 6 -10 6 -6
0 -6 0 -6 2 0 6 -10 8 -14 4z"/><path d="M178 414 c-1 -1 -2 -3 -2 -4 0 -1 -1 -2 -2 -2 -3 0 -6 -3 -6 -6 0 -1
-1 -2 -2 -2 -4 0 -6 -3 -6 -8 0 -4 0 -5 -4 -8 l-4 -3 0 -13 c0 -11 0 -13 2
-14 2 -2 2 -2 4 0 2 1 2 3 2 10 0 9 1 12 6 12 2 0 2 0 2 -6 0 -5 0 -7 2 -8 3
-4 6 0 6 8 0 6 0 6 2 6 2 0 4 1 5 2 1 2 1 2 -1 4 -2 2 -2 2 -4 1 -1 -1 -2 -3
-2 -5 0 -2 0 -2 -4 -2 l-4 0 0 12 c0 12 0 12 2 12 3 0 6 3 6 6 0 1 1 2 2 2 2
0 4 1 5 2 1 2 1 2 0 4 -3 2 -3 2 -5 0z"/><path d="M210 414 c-2 -2 -2 -2 0 -4 1 -2 3 -2 12 -2 10 0 10 0 10 -2 0 -5 -2
-6 -20 -6 -15 0 -17 0 -18 -2 -2 -2 -2 -2 0 -4 1 -2 3 -2 14 -2 l13 0 3 -4 c2
-3 4 -4 6 -4 1 0 2 -1 2 -2 0 -3 3 -6 6 -6 1 0 2 -1 2 -2 0 -4 3 -6 10 -6 6 0
6 0 6 -2 0 -4 -3 -6 -8 -6 -6 0 -9 -3 -6 -6 1 -2 3 -2 10 -2 11 0 12 1 12 10
0 6 0 6 2 6 2 0 4 1 5 2 1 2 1 2 -1 4 -2 2 -2 2 -4 1 -1 -1 -2 -3 -2 -5 0 -2
0 -2 -4 -2 -4 0 -4 0 -4 2 0 4 -3 6 -10 6 -6 0 -6 0 -6 2 0 3 -3 6 -6 6 -1 0
-2 1 -2 2 0 4 3 6 10 6 6 0 6 0 6 -2 0 -2 1 -4 2 -4 2 -2 2 -2 4 0 1 0 2 2 2
4 0 1 1 2 2 2 3 0 6 3 6 6 0 1 1 2 2 2 3 0 6 3 6 6 0 2 0 2 6 2 8 0 12 3 9 6
-5 5 -15 2 -15 -4 0 -1 -1 -2 -2 -2 -3 0 -6 -3 -6 -6 0 -1 -1 -2 -2 -2 -3 0
-6 -3 -6 -6 0 -2 -1 -2 -4 -2 -3 0 -4 0 -4 2 0 3 -11 14 -14 14 -1 0 -2 1 -2
2 0 5 -3 6 -12 6 -7 0 -9 0 -10 -2z"/><path d="M322 414 c-3 -3 -3 -10 0 -12 3 -3 6 0 6 6 0 7 -3 10 -6 6z"/><path d="M290 398 c-2 -2 -2 -2 0 -4 1 -2 3 -2 10 -2 7 0 9 0 11 2 1 2 1 2 0
4 -2 2 -4 2 -11 2 -7 0 -9 0 -10 -2z"/><path d="M273 390 c-1 -2 -1 -2 1 -4 l2 -2 2 2 c2 2 2 2 1 4 -1 1 -3 2 -3 2 0
0 -2 -1 -3 -2z"/><path d="M322 390 c-2 -2 -2 -2 0 -4 0 -1 2 -2 4 -2 1 0 2 -1 2 -2 0 -2 1 -4
2 -5 2 -1 2 -1 4 1 2 2 2 2 1 4 -1 1 -3 2 -5 2 -1 0 -2 1 -2 2 0 2 -3 6 -4 6
0 0 -2 -1 -2 -2z"/><path d="M345 390 c-1 -2 -1 -2 1 -4 l2 -2 2 2 c2 2 2 2 1 4 -1 1 -3 2 -3 2 0
0 -2 -1 -3 -2z"/><path d="M58 366 c-2 -2 -2 -2 4 -8 6 -6 6 -6 8 -4 3 2 3 10 0 12 -2 3 -10 3
-12 0z"/><path d="M338 358 c-1 -1 -2 -3 -2 -4 0 -2 0 -2 -6 -2 -10 0 -10 -1 -10 -16 0
-15 1 -16 8 -16 5 0 8 2 8 6 0 1 1 2 2 2 2 0 4 1 5 2 1 2 1 2 -1 4 -2 2 -2 2
-4 1 -1 -1 -2 -3 -2 -5 0 -1 -1 -2 -2 -2 -4 0 -6 3 -6 8 0 4 0 5 4 8 3 2 4 4
4 6 0 2 0 2 6 2 8 0 12 3 9 6 -3 3 -11 3 -13 0z"/><path d="M177 350 c-1 -2 -1 -2 1 -4 l2 -2 2 2 c2 2 2 2 1 4 -1 1 -3 2 -3 2 0
0 -2 -1 -3 -2z"/><path d="M54 338 l-6 -6 4 -4 4 -3 0 -17 0 -16 -4 -4 c-4 -4 -4 -4 -3 -6 3 -3
11 -3 13 0 3 3 3 58 0 60 -2 2 -2 3 -8 -4z"/><path d="M162 342 c-4 -4 -2 -14 4 -14 1 0 2 -1 2 -2 0 -4 3 -6 8 -6 5 0 8 2
8 6 0 1 1 2 2 2 2 0 4 1 5 2 1 2 1 2 -1 4 -2 2 -2 2 -4 1 -1 -1 -2 -3 -2 -5 0
-2 0 -2 -8 -2 l-8 0 0 6 c0 5 0 7 -2 8 -2 2 -2 2 -4 0z"/><path d="M442 342 c-2 -1 -2 -5 -2 -36 l0 -34 -2 0 c-5 0 -6 -3 -6 -14 0 -9 0
-10 -2 -10 -1 0 -5 -2 -8 -6 l-6 -6 0 -6 c0 -5 0 -6 -2 -6 -3 0 -38 -35 -38
-38 0 -2 -1 -2 -6 -2 -7 0 -7 0 -10 -4 -3 -4 -4 -4 -8 -4 -4 0 -5 0 -8 -4 -3
-4 -4 -4 -8 -4 -4 0 -5 0 -8 -4 l-3 -4 -9 0 -8 0 -6 -6 -6 -6 4 -4 c4 -3 4 -4
4 -8 0 -3 1 -5 2 -6 2 -2 2 -2 8 4 l6 6 -4 4 c-4 4 -4 4 -3 6 2 2 3 2 13 2 10
0 10 0 10 -2 0 -2 1 -4 2 -5 2 -1 2 -1 4 1 2 2 2 2 1 4 -1 1 -3 2 -5 2 -1 0
-2 1 -2 2 0 4 3 6 10 6 6 0 6 0 6 -2 0 -2 1 -4 2 -5 2 -1 2 -1 4 1 2 2 2 2 1
4 -1 1 -3 2 -5 2 -1 0 -2 1 -2 2 0 4 3 6 8 6 4 0 5 1 10 6 4 3 6 7 6 8 0 2 1
2 6 2 7 0 7 0 10 4 3 4 4 4 8 4 6 0 8 2 8 8 0 4 0 5 4 8 4 3 4 3 4 10 0 5 0 6
2 6 1 0 5 2 8 6 l6 6 0 6 c0 6 0 6 2 6 5 0 6 3 6 14 0 10 0 10 2 10 4 0 6 3 6
8 0 4 0 5 4 8 l5 4 -5 4 -4 4 0 12 0 13 4 3 4 4 -6 6 c-7 7 -6 7 -8 4z"/><path d="M194 318 c-2 -2 -2 -2 0 -4 0 -1 2 -2 4 -2 2 0 2 0 2 -6 0 -7 -2 -10
-6 -10 -1 0 -2 1 -2 2 0 2 -1 4 -2 5 -2 1 -2 1 -4 -1 -2 -2 -2 -2 -1 -4 1 -1
3 -2 5 -2 1 0 2 -1 2 -2 0 -1 3 -5 6 -8 6 -6 6 -6 8 -4 2 1 2 3 2 14 0 14 -1
16 -6 16 -1 0 -2 1 -2 2 0 2 -3 6 -4 6 0 0 -2 -1 -2 -2z"/><path d="M306 318 c-3 -3 -3 -26 0 -28 2 -2 2 -2 8 4 3 3 6 7 6 8 0 1 1 2 2 2
2 0 4 1 5 2 1 2 1 2 -1 4 -2 2 -2 2 -4 1 -1 -1 -2 -3 -2 -5 0 -1 -1 -2 -2 -2
-4 0 -6 3 -6 8 0 7 -3 10 -6 6z"/><path d="M218 286 c-2 -2 -2 -2 0 -4 0 -1 2 -2 4 -2 2 0 2 0 2 -8 l0 -8 -4 0
c-4 0 -4 0 -4 2 0 2 -1 4 -2 5 -2 1 -2 1 -4 -1 -2 -2 -2 -2 -1 -4 1 -1 3 -2 5
-2 1 0 2 -1 2 -2 0 -3 3 -6 6 -6 2 0 2 -1 2 -6 l0 -6 6 -6 c5 -6 6 -6 10 -6 7
0 8 2 8 12 0 8 0 9 -2 11 -2 1 -2 1 -6 -3 l-4 -4 -4 4 c-2 2 -4 4 -6 4 -2 0
-2 1 -2 4 0 4 0 4 2 4 4 0 6 3 6 8 0 5 -2 8 -6 8 -1 0 -2 1 -2 2 0 2 -3 6 -4
6 0 0 -2 -1 -2 -2z"/><path d="M282 286 c-1 -1 -2 -3 -2 -4 0 -1 -1 -2 -2 -2 -2 0 -4 -1 -4 -2 -2
-2 -2 -2 0 -4 0 -1 2 -2 4 -2 1 0 2 -1 2 -2 0 -4 -3 -6 -8 -6 -6 0 -9 -3 -6
-6 1 -2 3 -2 10 -2 l8 0 6 6 c6 5 6 6 6 10 0 5 -2 8 -6 8 -1 0 -2 1 -2 2 0 2
-3 6 -4 6 0 0 -1 -1 -2 -2z m6 -8 c0 -3 -3 -6 -6 -6 -2 0 -2 0 -2 4 l0 4 4 0
c3 0 4 0 4 -2z"/><path d="M66 270 c-2 -1 -2 -4 -2 -10 0 -9 1 -12 6 -12 2 0 2 -1 2 -6 l0 -6 6
-6 c3 -4 7 -6 8 -6 1 0 2 -1 2 -2 0 -3 3 -6 6 -6 2 0 2 -1 2 -6 l0 -6 10 -10
c9 -10 10 -10 14 -10 4 0 5 0 12 -8 7 -8 8 -8 12 -8 4 0 5 0 8 -4 3 -4 4 -4 8
-4 5 0 8 -2 8 -6 0 -1 -1 -2 -2 -2 -2 0 -4 -1 -5 -2 -1 -2 -1 -2 1 -4 2 -2 2
-2 4 -1 1 1 2 3 2 5 0 2 0 2 10 2 10 0 11 0 13 -2 1 -2 1 -2 -3 -6 l-4 -4 6
-6 6 -6 10 0 10 0 0 -6 c0 -7 2 -10 6 -10 2 0 2 0 2 -6 0 -7 2 -10 6 -10 1 0
2 -1 2 -2 0 -3 3 -6 6 -6 2 0 2 0 2 -6 0 -7 2 -10 6 -10 1 0 2 -1 2 -2 0 -2 1
-4 4 -6 5 -4 6 -8 2 -8 -2 0 -4 -1 -5 -2 -1 -2 -1 -2 1 -4 2 -2 2 -2 4 -1 1 1
2 3 2 5 0 1 1 2 2 2 5 0 6 3 6 14 l0 10 6 0 c6 0 7 0 9 2 1 2 1 2 -3 6 -5 4
-6 8 -2 8 3 0 6 3 6 6 0 1 1 2 2 2 4 0 6 3 6 10 0 6 0 6 2 6 6 0 8 10 4 15 -3
3 -6 -1 -6 -9 0 -6 0 -6 -2 -6 -4 0 -6 -3 -6 -10 0 -6 0 -6 -2 -6 -3 0 -6 -3
-6 -6 0 -1 -1 -2 -2 -2 -4 0 -6 -3 -6 -10 0 -6 0 -6 -2 -6 -2 0 -4 -1 -6 -4
-2 -3 -4 -4 -6 -4 -2 0 -2 0 -2 6 0 7 -2 10 -6 10 -1 0 -2 1 -2 2 0 3 -3 6 -6
6 -2 0 -2 0 -2 6 0 7 -2 10 -6 10 -2 0 -2 0 -2 6 0 7 -2 10 -6 10 -2 0 -2 0
-2 6 0 7 -2 10 -6 10 -1 0 -2 1 -2 2 0 1 -2 5 -6 8 l-6 6 -8 0 -9 0 -3 4 c-3
4 -4 4 -8 4 -4 0 -5 0 -8 4 -3 4 -4 4 -8 4 -4 0 -5 0 -12 8 -7 8 -8 8 -12 8
-4 0 -5 0 -16 12 -8 8 -12 12 -14 12 -1 0 -2 1 -2 2 0 3 -3 6 -6 6 -2 0 -2 1
-2 6 l0 6 -6 6 c-3 4 -7 6 -8 6 -2 0 -2 1 -2 10 0 9 0 11 -2 12 -2 2 -2 2 -4
0z m142 -128 c0 -2 -1 -4 -2 -5 -2 -1 -2 -1 -4 1 -2 2 -2 2 -1 4 3 3 7 3 7 0z"/><path d="M274 246 c-1 -1 -2 -3 -2 -4 0 -1 -1 -2 -2 -2 -2 0 -5 -3 -10 -8 -7
-8 -8 -8 -12 -8 -3 0 -5 -1 -7 -2 -1 -2 -1 -2 3 -6 4 -3 4 -4 4 -8 0 -6 3 -9
6 -6 1 1 2 3 2 6 0 4 0 5 8 12 l8 8 0 6 c0 6 0 6 2 6 2 0 4 1 5 2 1 2 1 2 0 4
-3 2 -3 2 -5 0z"/></g>
  <g transform="scale(0.125 0.125) translate(0.000000,512.000000) scale(1.000000,-1.000000)" fill="#eeedee" stroke="none"><path d="M202 478 c-1 -1 -2 -3 -2 -4 0 -1 -1 -2 -2 -2 -2 0 -4 -1 -5 -2 -1
-2 -1 -2 1 -4 2 -2 2 -2 4 -1 1 1 2 3 2 5 0 1 1 2 2 2 2 0 4 1 5 2 1 2 1 2 0
4 -3 2 -3 2 -5 0z"/><path d="M234 478 c-3 -3 0 -6 6 -6 3 0 5 1 7 2 2 3 -1 6 -7 6 -3 0 -5 -1 -6
-2z"/><path d="M258 478 c-3 -3 0 -6 6 -6 6 0 9 3 7 6 -2 1 -4 2 -7 2 -3 0 -5 -1 -6
-2z"/><path d="M305 470 c-1 -2 -1 -2 1 -4 l2 -2 2 2 c2 2 2 2 1 4 -1 1 -3 2 -3 2 0
0 -2 -1 -3 -2z"/><path d="M169 462 c-1 -2 -1 -2 1 -4 l2 -2 2 2 c2 2 2 2 1 4 -1 1 -3 2 -3 2 0
0 -2 -1 -3 -2z"/><path d="M329 462 c-1 -2 -1 -2 1 -4 l2 -2 2 2 c2 2 2 2 1 4 -1 1 -3 2 -3 2 0
0 -2 -1 -3 -2z"/><path d="M153 454 c-1 -2 -1 -2 1 -4 l2 -2 2 2 c2 2 2 2 1 4 -1 1 -3 2 -3 2 0
0 -2 -1 -3 -2z"/><path d="M345 454 c-1 -2 -1 -2 1 -4 l2 -2 2 2 c2 2 2 2 1 4 -1 1 -3 2 -3 2 0
0 -2 -1 -3 -2z"/><path d="M138 446 c-1 -1 -2 -3 -2 -4 0 -1 -1 -2 -2 -2 -2 0 -4 -1 -5 -2 -1
-2 -1 -2 1 -4 2 -2 2 -2 4 -1 1 1 2 3 2 5 0 1 1 2 2 2 2 0 4 1 5 2 1 2 1 2 0
4 -3 2 -3 2 -5 0z"/><path d="M362 446 c-2 -2 -2 -2 0 -4 0 -1 2 -2 4 -2 1 0 2 -1 2 -2 0 -2 1 -4
2 -5 2 -1 2 -1 4 1 2 2 2 2 1 4 -1 1 -3 2 -5 2 -1 0 -2 1 -2 2 0 2 -3 6 -4 6
0 0 -2 -1 -2 -2z"/><path d="M114 438 c-2 -1 -2 -3 -2 -8 0 -6 0 -6 -2 -6 -3 0 -6 -3 -6 -6 0 -1
-1 -2 -2 -2 -2 0 -4 -1 -5 -2 -1 -2 -1 -2 1 -4 2 -2 2 -2 4 -1 1 1 2 3 2 5 0
1 1 2 2 2 3 0 6 3 6 6 0 1 1 2 2 2 6 0 8 10 4 14 -2 2 -2 2 -4 0z"/><path d="M386 430 c-2 -2 -2 -2 0 -4 0 -1 2 -2 4 -2 1 0 2 -1 2 -2 0 -3 3 -6
6 -6 1 0 2 -1 2 -2 0 -2 1 -4 2 -5 2 -1 2 -1 4 1 2 2 2 2 1 4 -1 1 -3 2 -5 2
-1 0 -2 1 -2 2 0 3 -3 6 -6 6 -1 0 -2 1 -2 2 0 2 -3 6 -4 6 0 0 -2 -1 -2 -2z"/><path d="M177 414 c-1 -2 -1 -2 1 -4 l2 -2 2 2 c2 2 2 2 1 4 -1 1 -3 2 -3 2 0
0 -2 -1 -3 -2z"/><path d="M209 414 c-1 -2 -1 -2 1 -4 l2 -2 2 2 c2 2 2 2 1 4 -1 1 -3 2 -3 2 0
0 -2 -1 -3 -2z"/><path d="M226 414 c-2 -2 -2 -2 0 -4 0 -1 2 -2 4 -2 1 0 2 -1 2 -2 0 -5 -2 -6
-20 -6 -15 0 -17 0 -18 -2 -2 -2 -2 -2 0 -4 1 -2 3 -2 14 -2 l13 0 3 -4 c2 -3
4 -4 6 -4 1 0 2 -1 2 -2 0 -3 3 -6 6 -6 1 0 2 -1 2 -2 0 -4 3 -6 10 -6 6 0 6
0 6 -2 0 -4 -3 -6 -8 -6 -6 0 -9 -3 -6 -6 1 -2 3 -2 10 -2 11 0 12 1 12 10 0
6 0 6 2 6 2 0 4 1 5 2 1 2 1 2 -1 4 -2 2 -2 2 -4 1 -1 -1 -2 -3 -2 -5 0 -2 0
-2 -4 -2 -4 0 -4 0 -4 2 0 4 -3 6 -10 6 -6 0 -6 0 -6 2 0 3 -3 6 -6 6 -1 0 -2
1 -2 2 0 4 3 6 10 6 6 0 6 0 6 -2 0 -2 1 -4 2 -4 2 -2 2 -2 4 0 1 0 2 2 2 4 0
1 1 2 2 2 3 0 6 3 6 6 0 1 1 2 2 2 3 0 6 3 6 6 0 1 1 2 2 2 2 0 4 1 5 2 1 2 1
2 -1 4 -2 2 -2 2 -4 1 -1 -1 -2 -3 -2 -5 0 -1 -1 -2 -2 -2 -3 0 -6 -3 -6 -6 0
-1 -1 -2 -2 -2 -3 0 -6 -3 -6 -6 0 -2 -1 -2 -4 -2 -3 0 -4 0 -4 2 0 3 -11 14
-14 14 -1 0 -2 1 -2 2 0 2 -3 6 -4 6 0 0 -2 -1 -2 -2z"/><path d="M322 414 c-3 -3 -3 -10 0 -12 3 -3 6 0 6 6 0 7 -3 10 -6 6z"/><path d="M82 406 c-2 -2 -2 -2 0 -4 0 -1 2 -2 4 -2 2 0 2 0 2 -4 0 -4 0 -4 -2
-4 -2 0 -4 -1 -5 -2 -1 -2 -1 -2 1 -4 2 -2 2 -2 4 -1 1 1 2 3 2 5 0 1 1 2 2 2
2 0 4 1 5 2 1 2 1 2 0 4 -1 1 -3 2 -5 2 -1 0 -2 1 -2 2 0 2 -3 6 -4 6 0 0 -2
-1 -2 -2z"/><path d="M418 406 c-1 -1 -2 -3 -2 -4 0 -1 -1 -2 -2 -2 -2 0 -4 -1 -4 -2 -2
-2 -2 -2 0 -4 0 -1 2 -2 4 -2 1 0 2 -1 2 -2 0 -2 1 -4 2 -5 2 -1 2 -1 4 1 2 2
2 2 1 4 -1 1 -3 2 -5 2 -2 0 -2 0 -2 4 0 4 0 4 2 4 2 0 4 1 5 2 1 2 1 2 0 4
-3 2 -3 2 -5 0z"/><path d="M290 398 c-2 -2 -2 -2 0 -4 1 -2 3 -2 10 -2 7 0 9 0 11 2 1 2 1 2 0
4 -2 2 -4 2 -11 2 -7 0 -9 0 -10 -2z"/><path d="M158 386 c-6 -6 -6 -6 -4 -8 1 -2 3 -2 8 -2 l6 0 0 -6 c0 -5 0 -7 2
-8 3 -4 6 0 6 8 0 6 0 6 2 6 2 0 4 1 5 2 1 2 1 2 -1 4 -2 2 -2 2 -4 1 -1 -1
-2 -3 -2 -5 0 -2 0 -2 -4 -2 l-4 0 0 6 c0 5 0 7 -2 8 -2 2 -2 3 -8 -4z"/><path d="M273 390 c-1 -2 -1 -2 1 -4 l2 -2 2 2 c2 2 2 2 1 4 -1 1 -3 2 -3 2 0
0 -2 -1 -3 -2z"/><path d="M322 390 c-2 -2 -2 -2 0 -4 0 -1 2 -2 4 -2 1 0 2 -1 2 -2 0 -2 1 -4
2 -5 2 -1 2 -1 4 1 2 2 2 2 1 4 -1 1 -3 2 -5 2 -1 0 -2 1 -2 2 0 2 -3 6 -4 6
0 0 -2 -1 -2 -2z"/><path d="M345 390 c-1 -2 -1 -2 1 -4 l2 -2 2 2 c2 2 2 2 1 4 -1 1 -3 2 -3 2 0
0 -2 -1 -3 -2z"/><path d="M65 382 c-1 -2 -1 -2 1 -4 l2 -2 2 2 c2 2 2 2 1 4 -1 1 -3 2 -3 2 0
0 -2 -1 -3 -2z"/><path d="M434 382 c-1 -1 -2 -3 -2 -4 0 -1 -1 -2 -2 -2 -2 0 -4 -1 -5 -2 -1
-2 -1 -2 1 -4 2 -2 2 -2 4 -1 1 1 2 3 2 5 0 1 1 2 2 2 2 0 4 1 5 2 1 2 1 2 0
4 -3 2 -3 2 -5 0z"/><path d="M58 366 c-2 -2 -2 -2 0 -4 0 -1 2 -2 4 -2 1 0 2 -1 2 -2 0 -2 1 -4 2
-5 2 -1 2 -1 4 1 2 2 2 2 1 4 -1 1 -3 2 -5 2 -1 0 -2 1 -2 2 0 2 -3 6 -4 6 0
0 -2 -1 -2 -2z"/><path d="M442 366 c-1 -1 -2 -3 -2 -4 0 -1 -1 -2 -2 -2 -2 0 -4 -1 -5 -2 -1
-2 -1 -2 1 -4 2 -2 2 -2 4 -1 1 1 2 3 2 5 0 1 1 2 2 2 2 0 4 1 5 2 1 2 1 2 0
4 -3 2 -3 2 -5 0z"/><path d="M153 358 c-1 -2 -1 -2 1 -4 l2 -2 2 2 c2 2 2 2 1 4 -1 1 -3 2 -3 2 0
0 -2 -1 -3 -2z"/><path d="M338 358 c-1 -1 -2 -3 -2 -4 0 -2 0 -2 -6 -2 -10 0 -10 -1 -10 -16 0
-11 0 -13 2 -14 2 -2 2 -2 4 0 2 1 2 3 2 10 l0 9 4 3 c3 2 4 4 4 6 0 1 1 2 2
2 2 0 4 1 5 2 1 2 1 2 0 4 -3 2 -3 2 -5 0z"/><path d="M177 350 c-1 -2 -1 -2 1 -4 l2 -2 2 2 c2 2 2 2 1 4 -1 1 -3 2 -3 2 0
0 -2 -1 -3 -2z"/><path d="M50 334 c-2 -2 -2 -2 0 -4 0 -1 2 -2 4 -2 l2 0 0 -20 0 -20 -2 0 c-2
0 -4 -1 -5 -2 -1 -2 -1 -2 1 -4 2 -2 2 -2 4 -1 1 1 2 3 2 5 0 1 1 2 2 2 5 0 6
2 6 20 0 18 -1 20 -6 20 -1 0 -2 1 -2 2 0 2 -3 6 -4 6 0 0 -2 -1 -2 -2z"/><path d="M162 334 c-2 -2 -2 -2 0 -4 0 -1 2 -2 4 -2 1 0 2 -1 2 -2 0 -4 3 -6
8 -6 5 0 8 2 8 6 0 1 1 2 2 2 2 0 4 1 5 2 1 2 1 2 -1 4 -2 2 -2 2 -4 1 -1 -1
-2 -3 -2 -5 0 -2 0 -2 -8 -2 -8 0 -8 0 -8 2 0 2 -3 6 -4 6 0 0 -2 -1 -2 -2z"/><path d="M337 334 c-1 -2 -1 -2 1 -4 l2 -2 2 2 c2 2 2 2 1 4 -1 1 -3 2 -3 2 0
0 -2 -1 -3 -2z"/><path d="M450 334 c-1 -1 -2 -3 -2 -4 0 -1 -1 -2 -2 -2 -5 0 -6 -3 -6 -16 0
-14 1 -16 6 -16 1 0 2 -1 2 -2 0 -2 1 -4 2 -5 2 -1 2 -1 4 1 2 2 2 2 1 4 -1 1
-3 2 -5 2 l-2 0 0 16 0 16 2 0 c2 0 4 1 5 2 1 2 1 2 0 4 -3 2 -3 2 -5 0z"/><path d="M194 318 c-2 -2 -2 -2 0 -4 0 -1 2 -2 4 -2 2 0 2 0 2 -6 0 -7 -2 -10
-6 -10 -1 0 -2 1 -2 2 0 2 -1 4 -2 5 -2 1 -2 1 -4 -1 -2 -2 -2 -2 -1 -4 1 -1
3 -2 5 -2 1 0 2 -1 2 -2 0 -4 3 -6 8 -6 7 0 8 2 8 12 0 9 -1 12 -6 12 -1 0 -2
1 -2 2 0 2 -3 6 -4 6 0 0 -2 -1 -2 -2z"/><path d="M306 318 c-3 -3 -3 -18 0 -20 2 -2 2 -2 4 0 3 2 3 18 0 20 -2 2 -2 2
-4 0z"/><path d="M321 310 c-1 -2 -1 -2 1 -4 l2 -2 2 2 c2 2 2 2 1 4 -1 1 -3 2 -3 2 0
0 -2 -1 -3 -2z"/><path d="M218 286 c-2 -2 -2 -2 0 -4 0 -1 2 -2 4 -2 2 0 2 0 2 -8 l0 -8 -4 0
c-4 0 -4 0 -4 2 0 2 -1 4 -2 5 -2 1 -2 1 -4 -1 -2 -2 -2 -2 -1 -4 1 -1 3 -2 5
-2 1 0 2 -1 2 -2 0 -2 1 -4 2 -4 2 -2 2 -2 4 0 1 0 2 2 2 4 0 1 1 2 2 2 4 0 6
3 6 8 0 5 -2 8 -6 8 -1 0 -2 1 -2 2 0 2 -3 6 -4 6 0 0 -2 -1 -2 -2z"/><path d="M282 286 c-1 -1 -2 -3 -2 -4 0 -1 -1 -2 -2 -2 -2 0 -4 -1 -4 -2 -2
-2 -2 -2 0 -4 0 -1 2 -2 4 -2 2 0 2 0 2 -4 l0 -4 -6 0 c-8 0 -12 -3 -8 -6 4
-5 14 -2 14 4 0 2 0 2 6 2 8 0 10 2 10 8 0 5 -2 8 -6 8 -1 0 -2 1 -2 2 0 2 -3
6 -4 6 0 0 -1 -1 -2 -2z m6 -8 c0 -3 -3 -6 -6 -6 -2 0 -2 0 -2 4 l0 4 4 0 c3
0 4 0 4 -2z"/><path d="M66 270 c-3 -3 -3 -10 0 -12 3 -3 6 0 6 6 0 7 -3 10 -6 6z"/><path d="M434 270 c-3 -3 -3 -10 0 -12 3 -3 6 0 6 6 0 7 -3 10 -6 6z"/><path d="M240 252 c-3 -4 -4 -4 -8 -4 -3 0 -5 -1 -6 -2 -2 -2 -2 -2 4 -8 5 -6
6 -6 10 -6 7 0 8 2 8 12 0 7 0 9 -2 10 -2 3 -2 3 -6 -2z"/><path d="M74 246 c-2 -2 -2 -2 0 -4 0 -1 2 -2 4 -2 2 0 2 0 2 -6 0 -7 2 -10 6
-10 1 0 2 -1 2 -2 0 -3 3 -6 6 -6 1 0 2 -1 2 -2 0 -3 3 -6 6 -6 1 0 2 -1 2 -2
0 -3 3 -6 6 -6 1 0 2 -1 2 -2 0 -3 3 -6 6 -6 1 0 2 -1 2 -2 0 -4 3 -6 10 -6 6
0 6 0 6 -2 0 -3 3 -6 6 -6 1 0 2 -1 2 -2 0 -4 3 -6 10 -6 6 0 6 0 6 -2 0 -6
10 -8 15 -4 3 3 -1 6 -9 6 -6 0 -6 0 -6 2 0 4 -3 6 -10 6 -6 0 -6 0 -6 2 0 3
-3 6 -6 6 -1 0 -2 1 -2 2 0 4 -3 6 -10 6 -6 0 -6 0 -6 2 0 3 -3 6 -6 6 -1 0
-2 1 -2 2 0 3 -3 6 -6 6 -1 0 -2 1 -2 2 0 3 -3 6 -6 6 -1 0 -2 1 -2 2 0 3 -3
6 -6 6 -2 0 -2 0 -2 6 0 7 -2 10 -6 10 -1 0 -2 1 -2 2 0 2 -3 6 -4 6 0 0 -2
-1 -2 -2z"/><path d="M273 246 c-1 -2 -1 -2 1 -4 l2 -2 2 2 c2 2 2 2 1 4 -1 1 -3 2 -3 2 0
0 -2 -1 -3 -2z"/><path d="M426 246 c-1 -1 -2 -3 -2 -4 0 -1 -1 -2 -2 -2 -2 0 -4 -1 -5 -2 -1
-2 -1 -2 1 -4 2 -2 2 -2 4 -1 1 1 2 3 2 5 0 1 1 2 2 2 2 0 4 1 5 2 1 2 1 2 0
4 -3 2 -3 2 -5 0z"/><path d="M258 230 c-1 -1 -2 -3 -2 -4 0 -1 -1 -2 -2 -2 -5 0 -6 -3 -6 -12 0
-7 0 -9 2 -10 2 -2 2 -2 4 0 2 1 2 3 2 12 l0 10 6 0 c8 0 12 3 9 6 -3 3 -11 3
-13 0z"/><path d="M410 222 c-1 -1 -2 -3 -2 -4 0 -1 -1 -2 -2 -2 -3 0 -6 -3 -6 -6 0 -1
-1 -2 -2 -2 -3 0 -6 -3 -6 -6 0 -1 -1 -2 -2 -2 -3 0 -6 -3 -6 -6 0 -1 -1 -2
-2 -2 -3 0 -6 -3 -6 -6 0 -2 0 -2 -6 -2 -7 0 -10 -2 -10 -6 0 -2 0 -2 -6 -2
-7 0 -10 -2 -10 -6 0 -2 0 -2 -6 -2 -8 0 -12 -3 -8 -6 4 -5 14 -2 14 4 0 2 0
2 6 2 7 0 10 2 10 6 0 2 0 2 6 2 7 0 10 2 10 6 0 1 1 2 2 2 3 0 6 3 6 6 0 1 1
2 2 2 3 0 6 3 6 6 0 2 1 2 4 2 4 0 4 0 4 -2 0 -2 1 -4 2 -5 2 -1 2 -1 4 1 2 2
2 2 1 4 -1 1 -3 2 -5 2 -2 0 -2 0 -2 4 0 4 0 4 2 4 3 0 6 3 6 6 0 1 1 2 2 2 2
0 4 1 5 2 1 2 1 2 0 4 -3 2 -3 2 -5 0z"/><path d="M186 158 c-4 -3 0 -6 8 -6 l6 0 0 -4 0 -4 -6 0 c-5 0 -7 0 -8 -2 -2
-2 -2 -2 4 -8 5 -6 6 -6 10 -6 5 0 8 2 8 6 0 1 1 2 2 2 2 0 4 1 5 2 1 2 1 2 0
4 -1 1 -3 2 -5 2 -1 0 -2 1 -2 2 0 3 -3 6 -6 6 -1 0 -2 1 -2 2 0 6 -10 8 -14
4z m22 -18 c0 -3 0 -4 -2 -4 -3 0 -6 3 -6 6 0 2 0 2 4 2 l4 0 0 -4z"/><path d="M306 158 c-1 -1 -2 -3 -2 -4 0 -1 -1 -2 -2 -2 -2 0 -4 -1 -4 -2 -2
-2 -2 -2 0 -4 0 -1 2 -2 4 -2 2 0 2 0 2 -6 0 -5 0 -7 2 -8 2 -2 2 -2 8 4 6 6
6 6 4 8 -1 2 -3 2 -8 2 l-6 0 0 4 0 4 6 0 c8 0 12 3 9 6 -3 3 -11 3 -13 0z"/><path d="M353 158 c-1 -2 -1 -2 1 -4 l2 -2 2 2 c2 2 2 2 1 4 -1 1 -3 2 -3 2 0
0 -2 -1 -3 -2z"/><path d="M161 150 c-1 -2 -1 -2 1 -4 l2 -2 2 2 c2 2 2 2 1 4 -1 1 -3 2 -3 2 0
0 -2 -1 -3 -2z"/><path d="M337 150 c-1 -2 -1 -2 1 -4 l2 -2 2 2 c2 2 2 2 1 4 -1 1 -3 2 -3 2 0
0 -2 -1 -3 -2z"/><path d="M289 134 c-1 -2 -1 -2 1 -4 l2 -2 2 2 c2 2 2 2 1 4 -1 1 -3 2 -3 2 0
0 -2 -1 -3 -2z"/><path d="M217 126 c-1 -2 -1 -2 1 -4 l2 -2 2 2 c2 2 2 2 1 4 -1 1 -3 2 -3 2 0
0 -2 -1 -3 -2z"/><path d="M281 118 c-1 -2 -1 -2 1 -4 l2 -2 2 2 c2 2 2 2 1 4 -1 1 -3 2 -3 2 0
0 -2 -1 -3 -2z"/><path d="M225 110 c-1 -2 -1 -2 1 -4 l2 -2 2 2 c2 2 2 2 1 4 -1 1 -3 2 -3 2 0
0 -2 -1 -3 -2z"/><path d="M274 102 c-1 -1 -2 -3 -2 -4 0 -1 -1 -2 -2 -2 -2 0 -4 -1 -4 -2 -2
-2 -2 -2 0 -4 0 -1 2 -2 4 -2 1 0 2 -1 2 -2 0 -2 1 -4 2 -5 2 -1 2 -1 4 1 2 2
2 2 1 4 -1 1 -3 2 -5 2 -2 0 -2 0 -2 4 0 4 0 4 2 4 2 0 4 1 5 2 1 2 1 2 0 4
-3 2 -3 2 -5 0z"/><path d="M234 94 c-2 -2 -2 -2 0 -4 0 -1 2 -2 4 -2 1 0 2 -1 2 -2 0 -2 1 -4 2
-5 2 -1 2 -1 4 1 2 2 2 2 1 4 -1 1 -3 2 -5 2 -1 0 -2 1 -2 2 0 2 -3 6 -4 6 0
0 -2 -1 -2 -2z"/><path d="M258 78 c-1 -1 -2 -3 -2 -4 0 -1 -1 -2 -2 -2 -2 0 -4 -1 -4 -2 -2 -2
-2 -2 0 -4 0 -1 2 -2 4 -2 2 0 2 0 2 -4 0 -4 0 -4 -2 -4 -2 0 -4 -1 -5 -2 -1
-2 -1 -2 1 -4 2 -2 2 -2 4 -1 1 1 2 3 2 5 0 1 1 2 2 2 2 0 4 1 5 2 1 2 1 2 0
4 -1 1 -3 2 -5 2 -2 0 -2 0 -2 4 0 4 0 4 2 4 2 0 4 1 5 2 1 2 1 2 0 4 -3 2 -3
2 -5 0z"/></g>
  <g transform="scale(0.125 0.125) translate(0.000000,512.000000) scale(1.000000,-1.000000)" fill="#fafafa" stroke="none"><path d="M202 478 c-1 -1 -2 -3 -2 -4 0 -1 -1 -2 -2 -2 -2 0 -4 -1 -5 -2 -1
-2 -1 -2 1 -4 2 -2 2 -2 4 -1 1 1 2 3 2 5 0 1 1 2 2 2 2 0 4 1 5 2 1 2 1 2 0
4 -3 2 -3 2 -5 0z"/><path d="M241 478 c-1 -2 -1 -2 1 -4 l2 -2 2 2 c2 2 2 2 1 4 -1 1 -3 2 -3 2 0
0 -2 -1 -3 -2z"/><path d="M257 478 c-1 -2 -1 -2 1 -4 l2 -2 2 2 c2 2 2 2 1 4 -1 1 -3 2 -3 2 0
0 -2 -1 -3 -2z"/><path d="M305 470 c-1 -2 -1 -2 1 -4 l2 -2 2 2 c2 2 2 2 1 4 -1 1 -3 2 -3 2 0
0 -2 -1 -3 -2z"/><path d="M345 454 c-1 -2 -1 -2 1 -4 l2 -2 2 2 c2 2 2 2 1 4 -1 1 -3 2 -3 2 0
0 -2 -1 -3 -2z"/><path d="M113 438 c-1 -2 -1 -2 1 -4 l2 -2 2 2 c2 2 2 2 1 4 -1 1 -3 2 -3 2 0
0 -2 -1 -3 -2z"/><path d="M129 438 c-1 -2 -1 -2 1 -4 l2 -2 2 2 c2 2 2 2 1 4 -1 1 -3 2 -3 2 0
0 -2 -1 -3 -2z"/><path d="M369 438 c-1 -2 -1 -2 1 -4 l2 -2 2 2 c2 2 2 2 1 4 -1 1 -3 2 -3 2 0
0 -2 -1 -3 -2z"/><path d="M209 414 c-1 -2 -1 -2 1 -4 l2 -2 2 2 c2 2 2 2 1 4 -1 1 -3 2 -3 2 0
0 -2 -1 -3 -2z"/><path d="M273 414 c-1 -2 -1 -2 1 -4 l2 -2 2 2 c2 2 2 2 1 4 -1 1 -3 2 -3 2 0
0 -2 -1 -3 -2z"/><path d="M82 406 c-2 -2 -2 -2 0 -4 0 -1 2 -2 4 -2 2 0 2 0 2 -4 0 -4 0 -4 -2
-4 -2 0 -4 -1 -5 -2 -1 -2 -1 -2 1 -4 2 -2 2 -2 4 -1 1 1 2 3 2 5 0 1 1 2 2 2
2 0 4 1 5 2 1 2 1 2 0 4 -1 1 -3 2 -5 2 -1 0 -2 1 -2 2 0 2 -3 6 -4 6 0 0 -2
-1 -2 -2z"/><path d="M321 406 c-1 -2 -1 -2 1 -4 l2 -2 2 2 c2 2 2 2 1 4 -1 1 -3 2 -3 2 0
0 -2 -1 -3 -2z"/><path d="M418 406 c-1 -1 -2 -3 -2 -4 0 -1 -1 -2 -2 -2 -2 0 -4 -1 -4 -2 -2
-2 -2 -2 0 -4 0 -1 2 -2 4 -2 1 0 2 -1 2 -2 0 -2 1 -4 2 -5 2 -1 2 -1 4 1 2 2
2 2 1 4 -1 1 -3 2 -5 2 -2 0 -2 0 -2 4 0 4 0 4 2 4 2 0 4 1 5 2 1 2 1 2 0 4
-3 2 -3 2 -5 0z"/><path d="M194 398 c-2 -2 -2 -2 0 -4 1 -2 3 -2 14 -2 l13 0 3 -4 c2 -3 4 -4 6
-4 1 0 2 -1 2 -2 0 -3 3 -6 6 -6 1 0 2 -1 2 -2 0 -4 3 -6 10 -6 6 0 6 0 6 -2
0 -4 -3 -6 -8 -6 -6 0 -9 -3 -6 -6 1 -2 3 -2 10 -2 11 0 12 1 12 10 0 6 0 6 2
6 2 0 4 1 5 2 1 2 1 2 -1 4 -2 2 -2 2 -4 1 -1 -1 -2 -3 -2 -5 0 -2 0 -2 -4 -2
-4 0 -4 0 -4 2 0 4 -3 6 -10 6 -6 0 -6 0 -6 2 0 3 -3 6 -6 6 -4 0 -3 4 2 8 4
4 4 4 3 6 -3 3 -43 3 -45 0z"/><path d="M258 398 c-1 -1 -2 -3 -2 -4 0 -1 -1 -2 -2 -2 -2 0 -4 -1 -5 -2 -1
-2 -1 -2 1 -4 2 -2 2 -2 4 -1 1 1 2 3 2 5 0 1 1 2 2 2 2 0 4 1 5 2 1 2 1 2 0
4 -3 2 -3 2 -5 0z"/><path d="M290 398 c-2 -2 -2 -2 0 -4 1 -2 3 -2 10 -2 7 0 9 0 11 2 1 2 1 2 0
4 -2 2 -4 2 -11 2 -7 0 -9 0 -10 -2z"/><path d="M162 390 c-4 -4 -2 -14 4 -14 2 0 2 0 2 -6 0 -5 0 -7 2 -8 3 -4 6 0
6 8 0 6 0 6 2 6 2 0 4 1 5 2 1 2 1 2 -1 4 -2 2 -2 2 -4 1 -1 -1 -2 -3 -2 -5 0
-2 0 -2 -4 -2 l-4 0 0 6 c0 5 0 7 -2 8 -2 2 -2 2 -4 0z"/><path d="M273 390 c-1 -2 -1 -2 1 -4 l2 -2 2 2 c2 2 2 2 1 4 -1 1 -3 2 -3 2 0
0 -2 -1 -3 -2z"/><path d="M322 390 c-2 -2 -2 -2 0 -4 0 -1 2 -2 4 -2 1 0 2 -1 2 -2 0 -2 1 -4
2 -5 2 -1 2 -1 4 1 2 2 2 2 1 4 -1 1 -3 2 -5 2 -1 0 -2 1 -2 2 0 2 -3 6 -4 6
0 0 -2 -1 -2 -2z"/><path d="M345 390 c-1 -2 -1 -2 1 -4 l2 -2 2 2 c2 2 2 2 1 4 -1 1 -3 2 -3 2 0
0 -2 -1 -3 -2z"/><path d="M65 382 c-1 -2 -1 -2 1 -4 l2 -2 2 2 c2 2 2 2 1 4 -1 1 -3 2 -3 2 0
0 -2 -1 -3 -2z"/><path d="M434 382 c-1 -1 -2 -3 -2 -4 0 -1 -1 -2 -2 -2 -2 0 -4 -1 -5 -2 -1
-2 -1 -2 1 -4 2 -2 2 -2 4 -1 1 1 2 3 2 5 0 1 1 2 2 2 2 0 4 1 5 2 1 2 1 2 0
4 -3 2 -3 2 -5 0z"/><path d="M57 366 c-1 -2 -1 -2 1 -4 l2 -2 2 2 c2 2 2 2 1 4 -1 1 -3 2 -3 2 0
0 -2 -1 -3 -2z"/><path d="M441 366 c-1 -2 -1 -2 1 -4 l2 -2 2 2 c2 2 2 2 1 4 -1 1 -3 2 -3 2 0
0 -2 -1 -3 -2z"/><path d="M153 358 c-1 -2 -1 -2 1 -4 l2 -2 2 2 c2 2 2 2 1 4 -1 1 -3 2 -3 2 0
0 -2 -1 -3 -2z"/><path d="M338 358 c-1 -1 -2 -3 -2 -4 0 -2 0 -2 -6 -2 -10 0 -10 -1 -10 -16 0
-11 0 -13 2 -14 2 -2 2 -2 4 0 2 1 2 3 2 10 l0 9 4 3 c3 2 4 4 4 6 0 1 1 2 2
2 2 0 4 1 5 2 1 2 1 2 0 4 -3 2 -3 2 -5 0z"/><path d="M177 350 c-1 -2 -1 -2 1 -4 l2 -2 2 2 c2 2 2 2 1 4 -1 1 -3 2 -3 2 0
0 -2 -1 -3 -2z"/><path d="M49 334 c-1 -2 -1 -2 1 -4 l2 -2 2 2 c2 2 2 2 1 4 -1 1 -3 2 -3 2 0
0 -2 -1 -3 -2z"/><path d="M161 334 c-1 -2 -1 -2 1 -4 l2 -2 2 2 c2 2 2 2 1 4 -1 1 -3 2 -3 2 0
0 -2 -1 -3 -2z"/><path d="M186 334 c-1 -1 -2 -3 -2 -4 0 -1 -1 -2 -2 -2 -2 0 -4 -1 -5 -2 -1
-2 -1 -2 1 -4 2 -2 2 -2 4 -1 1 1 2 3 2 5 0 1 1 2 2 2 2 0 4 1 5 2 1 2 1 2 0
4 -3 2 -3 2 -5 0z"/><path d="M449 334 c-1 -2 -1 -2 1 -4 l2 -2 2 2 c2 2 2 2 1 4 -1 1 -3 2 -3 2 0
0 -2 -1 -3 -2z"/><path d="M194 318 c-2 -2 -2 -2 0 -4 0 -1 2 -2 4 -2 2 0 2 0 2 -10 0 -9 0 -11
2 -12 2 -2 2 -2 4 0 2 1 2 3 2 10 0 9 -1 12 -6 12 -1 0 -2 1 -2 2 0 2 -3 6 -4
6 0 0 -2 -1 -2 -2z"/><path d="M306 318 c-3 -3 -3 -18 0 -20 2 -2 2 -2 4 0 3 2 3 18 0 20 -2 2 -2 2
-4 0z"/><path d="M57 310 c-1 -2 -1 -2 1 -4 l2 -2 2 2 c2 2 2 2 1 4 -1 1 -3 2 -3 2 0
0 -2 -1 -3 -2z"/><path d="M449 294 c-1 -2 -1 -2 1 -4 l2 -2 2 2 c2 2 2 2 1 4 -1 1 -3 2 -3 2 0
0 -2 -1 -3 -2z"/><path d="M49 286 c-1 -2 -1 -2 1 -4 l2 -2 2 2 c2 2 2 2 1 4 -1 1 -3 2 -3 2 0
0 -2 -1 -3 -2z"/><path d="M218 286 c-2 -2 -2 -2 0 -4 0 -1 2 -2 4 -2 2 0 2 0 2 -6 0 -8 3 -12
6 -8 5 4 2 14 -4 14 -1 0 -2 1 -2 2 0 2 -3 6 -4 6 0 0 -2 -1 -2 -2z"/><path d="M282 286 c-1 -1 -2 -3 -2 -4 0 -1 -1 -2 -2 -2 -2 0 -4 -1 -4 -2 -2
-2 -2 -2 0 -4 0 -1 2 -2 4 -2 2 0 2 0 2 -4 l0 -4 -6 0 c-8 0 -12 -3 -8 -6 4
-5 14 -2 14 4 0 1 1 2 2 2 3 0 6 3 6 6 0 1 1 2 2 2 2 0 4 1 5 2 1 2 1 2 0 4
-1 1 -3 2 -5 2 -1 0 -2 1 -2 2 0 2 -3 6 -4 6 0 0 -1 -1 -2 -2z m6 -10 l0 -4
-4 0 -4 0 0 4 0 4 4 0 4 0 0 -4z"/><path d="M65 270 c-1 -2 -1 -2 1 -4 l2 -2 2 2 c2 2 2 2 1 4 -1 1 -3 2 -3 2 0
0 -2 -1 -3 -2z"/><path d="M209 270 c-1 -2 -1 -2 1 -4 l2 -2 2 2 c2 2 2 2 1 4 -1 1 -3 2 -3 2 0
0 -2 -1 -3 -2z"/><path d="M433 270 c-1 -2 -1 -2 1 -4 l2 -2 2 2 c2 2 2 2 1 4 -1 1 -3 2 -3 2 0
0 -2 -1 -3 -2z"/><path d="M240 252 c-3 -4 -4 -4 -8 -4 -6 0 -9 -3 -6 -6 1 -1 3 -2 6 -2 4 0 5
0 8 -4 4 -4 4 -4 6 -3 3 3 3 19 0 21 -2 3 -2 3 -6 -2z"/><path d="M81 238 c-1 -2 -1 -2 1 -4 l2 -2 2 2 c2 2 2 2 1 4 -1 1 -3 2 -3 2 0
0 -2 -1 -3 -2z"/><path d="M417 238 c-1 -2 -1 -2 1 -4 l2 -2 2 2 c2 2 2 2 1 4 -1 1 -3 2 -3 2 0
0 -2 -1 -3 -2z"/><path d="M258 230 c-1 -1 -2 -3 -2 -4 0 -1 -1 -2 -2 -2 -6 0 -8 -10 -4 -14 3
-4 6 0 6 8 l0 6 6 0 c8 0 12 3 9 6 -3 3 -11 3 -13 0z"/><path d="M97 214 c-1 -2 -1 -2 1 -4 l2 -2 2 2 c2 2 2 2 1 4 -1 1 -3 2 -3 2 0
0 -2 -1 -3 -2z"/><path d="M394 206 c-2 -2 -2 -2 0 -4 0 -1 2 -2 4 -2 1 0 2 -1 2 -2 0 -2 1 -4
2 -5 2 -1 2 -1 4 1 2 2 2 2 1 4 -1 1 -3 2 -5 2 -1 0 -2 1 -2 2 0 2 -3 6 -4 6
0 0 -2 -1 -2 -2z"/><path d="M130 190 c-2 -2 -2 -2 0 -4 0 -1 2 -2 4 -2 1 0 2 -1 2 -2 0 -2 1 -4
2 -5 2 -1 2 -1 4 1 2 2 2 2 1 4 -1 1 -3 2 -5 2 -1 0 -2 1 -2 2 0 2 -3 6 -4 6
0 0 -2 -1 -2 -2z"/><path d="M361 182 c-1 -2 -1 -2 1 -4 l2 -2 2 2 c2 2 2 2 1 4 -1 1 -3 2 -3 2 0
0 -2 -1 -3 -2z"/><path d="M153 174 c-1 -2 -1 -2 1 -4 l2 -2 2 2 c2 2 2 2 1 4 -1 1 -3 2 -3 2 0
0 -2 -1 -3 -2z"/><path d="M345 174 c-1 -2 -1 -2 1 -4 l2 -2 2 2 c2 2 2 2 1 4 -1 1 -3 2 -3 2 0
0 -2 -1 -3 -2z"/><path d="M169 166 c-1 -2 -1 -2 1 -4 l2 -2 2 2 c2 2 2 2 1 4 -1 1 -3 2 -3 2 0
0 -2 -1 -3 -2z"/><path d="M329 166 c-1 -2 -1 -2 1 -4 l2 -2 2 2 c2 2 2 2 1 4 -1 1 -3 2 -3 2 0
0 -2 -1 -3 -2z"/><path d="M193 158 c-1 -2 -1 -2 1 -4 l2 -2 2 2 c2 2 2 2 1 4 -1 1 -3 2 -3 2 0
0 -2 -1 -3 -2z"/><path d="M305 158 c-1 -2 -1 -2 1 -4 l2 -2 2 2 c2 2 2 2 1 4 -1 1 -3 2 -3 2 0
0 -2 -1 -3 -2z"/><path d="M353 158 c-1 -2 -1 -2 1 -4 l2 -2 2 2 c2 2 2 2 1 4 -1 1 -3 2 -3 2 0
0 -2 -1 -3 -2z"/><path d="M161 150 c-1 -2 -1 -2 1 -4 l2 -2 2 2 c2 2 2 2 1 4 -1 1 -3 2 -3 2 0
0 -2 -1 -3 -2z"/><path d="M337 150 c-1 -2 -1 -2 1 -4 l2 -2 2 2 c2 2 2 2 1 4 -1 1 -3 2 -3 2 0
0 -2 -1 -3 -2z"/><path d="M186 142 c-2 -2 -2 -2 4 -8 5 -6 6 -6 10 -6 3 0 5 1 6 2 2 2 2 2 -4
8 -5 6 -6 6 -10 6 -3 0 -5 -1 -6 -2z"/><path d="M306 142 c-3 -2 -3 -10 0 -12 2 -2 2 -2 8 4 6 6 6 6 4 8 -2 3 -10 3
-12 0z"/><path d="M289 134 c-1 -2 -1 -2 1 -4 l2 -2 2 2 c2 2 2 2 1 4 -1 1 -3 2 -3 2 0
0 -2 -1 -3 -2z"/><path d="M217 126 c-1 -2 -1 -2 1 -4 l2 -2 2 2 c2 2 2 2 1 4 -1 1 -3 2 -3 2 0
0 -2 -1 -3 -2z"/><path d="M225 110 c-1 -2 -1 -2 1 -4 l2 -2 2 2 c2 2 2 2 1 4 -1 1 -3 2 -3 2 0
0 -2 -1 -3 -2z"/><path d="M266 94 c-2 -2 -2 -2 0 -4 0 -1 2 -2 4 -2 1 0 2 -1 2 -2 0 -2 1 -4 2
-5 2 -1 2 -1 4 1 2 2 2 2 1 4 -1 1 -3 2 -5 2 -1 0 -2 1 -2 2 0 2 -3 6 -4 6 0
0 -2 -1 -2 -2z"/><path d="M241 86 c-1 -2 -1 -2 1 -4 l2 -2 2 2 c2 2 2 2 1 4 -1 1 -3 2 -3 2 0
0 -2 -1 -3 -2z"/><path d="M258 62 c-1 -1 -2 -3 -2 -4 0 -1 -1 -2 -2 -2 -2 0 -4 -1 -5 -2 -1 -2
-1 -2 1 -4 2 -2 2 -2 4 -1 1 1 2 3 2 5 0 1 1 2 2 2 2 0 4 1 5 2 1 2 1 2 0 4
-3 2 -3 2 -5 0z"/></g>
  <g transform="scale(0.125 0.125) translate(0.000000,512.000000) scale(1.000000,-1.000000)" fill="#0f0c0d" stroke="none"><path d="M201 478 c-1 -2 -1 -2 1 -4 l2 -2 2 2 c2 2 2 2 1 4 -1 1 -3 2 -3 2 0
0 -2 -1 -3 -2z"/><path d="M113 438 c-1 -2 -1 -2 1 -4 l2 -2 2 2 c2 2 2 2 1 4 -1 1 -3 2 -3 2 0
0 -2 -1 -3 -2z"/><path d="M209 414 c-1 -2 -1 -2 1 -4 l2 -2 2 2 c2 2 2 2 1 4 -1 1 -3 2 -3 2 0
0 -2 -1 -3 -2z"/><path d="M81 406 c-1 -2 -1 -2 1 -4 l2 -2 2 2 c2 2 2 2 1 4 -1 1 -3 2 -3 2 0
0 -2 -1 -3 -2z"/><path d="M321 406 c-1 -2 -1 -2 1 -4 l2 -2 2 2 c2 2 2 2 1 4 -1 1 -3 2 -3 2 0
0 -2 -1 -3 -2z"/><path d="M417 406 c-1 -2 -1 -2 1 -4 l2 -2 2 2 c2 2 2 2 1 4 -1 1 -3 2 -3 2 0
0 -2 -1 -3 -2z"/><path d="M194 398 c-2 -2 -2 -2 0 -4 1 -2 3 -2 14 -2 l13 0 3 -4 c2 -3 4 -4 6
-4 1 0 2 -1 2 -2 0 -3 3 -6 6 -6 1 0 2 -1 2 -2 0 -4 3 -6 10 -6 6 0 6 0 6 -2
0 -4 -3 -6 -8 -6 -6 0 -9 -3 -6 -6 1 -2 3 -2 10 -2 11 0 12 1 12 10 0 6 0 6 2
6 2 0 4 1 5 2 1 2 1 2 -1 4 -2 2 -2 2 -4 1 -1 -1 -2 -3 -2 -5 0 -2 0 -2 -4 -2
-4 0 -4 0 -4 2 0 4 -3 6 -10 6 -6 0 -6 0 -6 2 0 3 -3 6 -6 6 -4 0 -3 4 2 8 4
4 4 4 3 6 -3 3 -43 3 -45 0z"/><path d="M290 398 c-2 -2 -2 -2 0 -4 1 -2 3 -2 10 -2 7 0 9 0 11 2 1 2 1 2 0
4 -2 2 -4 2 -11 2 -7 0 -9 0 -10 -2z"/><path d="M162 390 c-4 -4 -2 -14 4 -14 2 0 2 0 2 -6 0 -5 0 -7 2 -8 3 -4 6 0
6 8 0 6 0 6 2 6 2 0 4 1 5 2 1 2 1 2 -1 4 -2 2 -2 2 -4 1 -1 -1 -2 -3 -2 -5 0
-2 0 -2 -4 -2 l-4 0 0 6 c0 5 0 7 -2 8 -2 2 -2 2 -4 0z"/><path d="M273 390 c-1 -2 -1 -2 1 -4 l2 -2 2 2 c2 2 2 2 1 4 -1 1 -3 2 -3 2 0
0 -2 -1 -3 -2z"/><path d="M322 390 c-2 -2 -2 -2 0 -4 0 -1 2 -2 4 -2 1 0 2 -1 2 -2 0 -2 1 -4
2 -5 2 -1 2 -1 4 1 2 2 2 2 1 4 -1 1 -3 2 -5 2 -1 0 -2 1 -2 2 0 2 -3 6 -4 6
0 0 -2 -1 -2 -2z"/><path d="M65 382 c-1 -2 -1 -2 1 -4 l2 -2 2 2 c2 2 2 2 1 4 -1 1 -3 2 -3 2 0
0 -2 -1 -3 -2z"/><path d="M433 382 c-1 -2 -1 -2 1 -4 l2 -2 2 2 c2 2 2 2 1 4 -1 1 -3 2 -3 2 0
0 -2 -1 -3 -2z"/><path d="M57 366 c-1 -2 -1 -2 1 -4 l2 -2 2 2 c2 2 2 2 1 4 -1 1 -3 2 -3 2 0
0 -2 -1 -3 -2z"/><path d="M441 366 c-1 -2 -1 -2 1 -4 l2 -2 2 2 c2 2 2 2 1 4 -1 1 -3 2 -3 2 0
0 -2 -1 -3 -2z"/><path d="M338 358 c-1 -1 -2 -3 -2 -4 0 -2 0 -2 -6 -2 -10 0 -10 -1 -10 -16 0
-11 0 -13 2 -14 2 -2 2 -2 4 0 2 1 2 3 2 10 l0 9 4 3 c3 2 4 4 4 6 0 1 1 2 2
2 2 0 4 1 5 2 1 2 1 2 0 4 -3 2 -3 2 -5 0z"/><path d="M177 350 c-1 -2 -1 -2 1 -4 l2 -2 2 2 c2 2 2 2 1 4 -1 1 -3 2 -3 2 0
0 -2 -1 -3 -2z"/><path d="M49 334 c-1 -2 -1 -2 1 -4 l2 -2 2 2 c2 2 2 2 1 4 -1 1 -3 2 -3 2 0
0 -2 -1 -3 -2z"/><path d="M186 334 c-1 -1 -2 -3 -2 -4 0 -1 -1 -2 -2 -2 -2 0 -4 -1 -5 -2 -1
-2 -1 -2 1 -4 2 -2 2 -2 4 -1 1 1 2 3 2 5 0 1 1 2 2 2 2 0 4 1 5 2 1 2 1 2 0
4 -3 2 -3 2 -5 0z"/><path d="M449 334 c-1 -2 -1 -2 1 -4 l2 -2 2 2 c2 2 2 2 1 4 -1 1 -3 2 -3 2 0
0 -2 -1 -3 -2z"/><path d="M194 318 c-2 -2 -2 -2 0 -4 0 -1 2 -2 4 -2 2 0 2 0 2 -10 0 -9 0 -11
2 -12 2 -2 2 -2 4 0 2 1 2 3 2 10 0 9 -1 12 -6 12 -1 0 -2 1 -2 2 0 2 -3 6 -4
6 0 0 -2 -1 -2 -2z"/><path d="M306 318 c-3 -3 -3 -18 0 -20 2 -2 2 -2 4 0 3 2 3 18 0 20 -2 2 -2 2
-4 0z"/><path d="M449 294 c-1 -2 -1 -2 1 -4 l2 -2 2 2 c2 2 2 2 1 4 -1 1 -3 2 -3 2 0
0 -2 -1 -3 -2z"/><path d="M49 286 c-1 -2 -1 -2 1 -4 l2 -2 2 2 c2 2 2 2 1 4 -1 1 -3 2 -3 2 0
0 -2 -1 -3 -2z"/><path d="M218 286 c-2 -2 -2 -2 0 -4 0 -1 2 -2 4 -2 2 0 2 0 2 -6 0 -8 3 -12
6 -8 5 4 2 14 -4 14 -1 0 -2 1 -2 2 0 2 -3 6 -4 6 0 0 -2 -1 -2 -2z"/><path d="M282 286 c-1 -1 -2 -3 -2 -4 0 -1 -1 -2 -2 -2 -2 0 -4 -1 -4 -2 -2
-2 -2 -2 0 -4 0 -1 2 -2 4 -2 2 0 2 0 2 -4 l0 -4 -6 0 c-8 0 -12 -3 -8 -6 4
-5 14 -2 14 4 0 1 1 2 2 2 3 0 6 3 6 6 0 1 1 2 2 2 2 0 4 1 5 2 1 2 1 2 0 4
-1 1 -3 2 -5 2 -1 0 -2 1 -2 2 0 2 -3 6 -4 6 0 0 -1 -1 -2 -2z m6 -10 l0 -4
-4 0 -4 0 0 4 0 4 4 0 4 0 0 -4z"/><path d="M238 250 l-6 -6 6 -6 c6 -6 6 -6 8 -4 3 2 3 18 0 20 -2 2 -2 3 -8 -4z"/><path d="M258 230 c-1 -1 -2 -3 -2 -4 0 -1 -1 -2 -2 -2 -6 0 -8 -10 -4 -14 3
-4 6 0 6 8 0 6 0 6 2 6 2 0 4 1 5 2 1 2 1 2 0 4 -3 2 -3 2 -5 0z"/><path d="M401 198 c-1 -2 -1 -2 1 -4 l2 -2 2 2 c2 2 2 2 1 4 -1 1 -3 2 -3 2 0
0 -2 -1 -3 -2z"/><path d="M353 158 c-1 -2 -1 -2 1 -4 l2 -2 2 2 c2 2 2 2 1 4 -1 1 -3 2 -3 2 0
0 -2 -1 -3 -2z"/><path d="M161 150 c-1 -2 -1 -2 1 -4 l2 -2 2 2 c2 2 2 2 1 4 -1 1 -3 2 -3 2 0
0 -2 -1 -3 -2z"/><path d="M337 150 c-1 -2 -1 -2 1 -4 l2 -2 2 2 c2 2 2 2 1 4 -1 1 -3 2 -3 2 0
0 -2 -1 -3 -2z"/><path d="M186 142 c-2 -2 -2 -2 4 -8 5 -6 6 -6 10 -6 3 0 5 1 6 2 2 2 2 2 -4
8 -5 6 -6 6 -10 6 -3 0 -5 -1 -6 -2z"/><path d="M306 142 c-3 -2 -3 -10 0 -12 2 -2 2 -2 8 4 6 6 6 6 4 8 -2 3 -10 3
-12 0z"/><path d="M273 86 c-1 -2 -1 -2 1 -4 l2 -2 2 2 c2 2 2 2 1 4 -1 1 -3 2 -3 2 0
0 -2 -1 -3 -2z"/><path d="M258 62 c-1 -1 -2 -3 -2 -4 0 -1 -1 -2 -2 -2 -2 0 -4 -1 -5 -2 -1 -2
-1 -2 1 -4 2 -2 2 -2 4 -1 1 1 2 3 2 5 0 1 1 2 2 2 2 0 4 1 5 2 1 2 1 2 0 4
-3 2 -3 2 -5 0z"/></g>
  <g transform="scale(0.125 0.125) translate(0.000000,512.000000) scale(1.000000,-1.000000)" fill="#824564" stroke="none"><path d="M201 478 c-1 -2 -1 -2 1 -4 l2 -2 2 2 c2 2 2 2 1 4 -1 1 -3 2 -3 2 0
0 -2 -1 -3 -2z"/><path d="M113 438 c-1 -2 -1 -2 1 -4 l2 -2 2 2 c2 2 2 2 1 4 -1 1 -3 2 -3 2 0
0 -2 -1 -3 -2z"/><path d="M81 406 c-1 -2 -1 -2 1 -4 l2 -2 2 2 c2 2 2 2 1 4 -1 1 -3 2 -3 2 0
0 -2 -1 -3 -2z"/><path d="M417 406 c-1 -2 -1 -2 1 -4 l2 -2 2 2 c2 2 2 2 1 4 -1 1 -3 2 -3 2 0
0 -2 -1 -3 -2z"/><path d="M194 398 c-2 -2 -2 -2 0 -4 1 -2 3 -2 16 -2 l14 0 0 -2 c0 -3 3 -6 6
-6 1 0 2 -1 2 -2 0 -2 1 -4 2 -5 2 -1 2 -1 4 1 2 2 2 2 1 4 -1 1 -3 2 -5 2 -1
0 -2 1 -2 2 0 3 -3 6 -6 6 -1 0 -2 1 -2 2 0 5 -3 6 -16 6 -11 0 -13 0 -14 -2z"/><path d="M290 398 c-2 -2 -2 -2 0 -4 1 -2 3 -2 10 -2 7 0 9 0 11 2 1 2 1 2 0
4 -2 2 -4 2 -11 2 -7 0 -9 0 -10 -2z"/><path d="M161 390 c-1 -2 -1 -2 1 -4 l2 -2 2 2 c2 2 2 2 1 4 -1 1 -3 2 -3 2 0
0 -2 -1 -3 -2z"/><path d="M273 390 c-1 -2 -1 -2 1 -4 l2 -2 2 2 c2 2 2 2 1 4 -1 1 -3 2 -3 2 0
0 -2 -1 -3 -2z"/><path d="M321 390 c-1 -2 -1 -2 1 -4 l2 -2 2 2 c2 2 2 2 1 4 -1 1 -3 2 -3 2 0
0 -2 -1 -3 -2z"/><path d="M65 382 c-1 -2 -1 -2 1 -4 l2 -2 2 2 c2 2 2 2 1 4 -1 1 -3 2 -3 2 0
0 -2 -1 -3 -2z"/><path d="M177 382 c-1 -2 -1 -2 1 -4 l2 -2 2 2 c2 2 2 2 1 4 -1 1 -3 2 -3 2 0
0 -2 -1 -3 -2z"/><path d="M433 382 c-1 -2 -1 -2 1 -4 l2 -2 2 2 c2 2 2 2 1 4 -1 1 -3 2 -3 2 0
0 -2 -1 -3 -2z"/><path d="M265 374 c-1 -2 -1 -2 1 -4 l2 -2 2 2 c2 2 2 2 1 4 -1 1 -3 2 -3 2 0
0 -2 -1 -3 -2z"/><path d="M57 366 c-1 -2 -1 -2 1 -4 l2 -2 2 2 c2 2 2 2 1 4 -1 1 -3 2 -3 2 0
0 -2 -1 -3 -2z"/><path d="M441 366 c-1 -2 -1 -2 1 -4 l2 -2 2 2 c2 2 2 2 1 4 -1 1 -3 2 -3 2 0
0 -2 -1 -3 -2z"/><path d="M242 358 c-2 -2 -2 -2 0 -4 1 -2 3 -2 10 -2 7 0 9 0 11 2 1 2 1 2 0
4 -2 2 -4 2 -11 2 -7 0 -9 0 -10 -2z"/><path d="M177 350 c-1 -2 -1 -2 1 -4 l2 -2 2 2 c2 2 2 2 1 4 -1 1 -3 2 -3 2 0
0 -2 -1 -3 -2z"/><path d="M322 350 c-3 -3 -3 -10 0 -12 3 -3 6 0 6 6 0 7 -3 10 -6 6z"/><path d="M49 334 c-1 -2 -1 -2 1 -4 l2 -2 2 2 c2 2 2 2 1 4 -1 1 -3 2 -3 2 0
0 -2 -1 -3 -2z"/><path d="M185 334 c-1 -2 -1 -2 1 -4 l2 -2 2 2 c2 2 2 2 1 4 -1 1 -3 2 -3 2 0
0 -2 -1 -3 -2z"/><path d="M449 334 c-1 -2 -1 -2 1 -4 l2 -2 2 2 c2 2 2 2 1 4 -1 1 -3 2 -3 2 0
0 -2 -1 -3 -2z"/><path d="M194 318 c-2 -2 -2 -2 0 -4 0 -1 2 -2 4 -2 1 0 2 -1 2 -2 0 -2 1 -4
2 -5 2 -1 2 -1 4 1 2 2 2 2 1 4 -1 1 -3 2 -5 2 -1 0 -2 1 -2 2 0 2 -3 6 -4 6
0 0 -2 -1 -2 -2z"/><path d="M305 318 c-1 -2 -1 -2 1 -4 l2 -2 2 2 c2 2 2 2 1 4 -1 1 -3 2 -3 2 0
0 -2 -1 -3 -2z"/><path d="M449 294 c-1 -2 -1 -2 1 -4 l2 -2 2 2 c2 2 2 2 1 4 -1 1 -3 2 -3 2 0
0 -2 -1 -3 -2z"/><path d="M49 286 c-1 -2 -1 -2 1 -4 l2 -2 2 2 c2 2 2 2 1 4 -1 1 -3 2 -3 2 0
0 -2 -1 -3 -2z"/><path d="M218 286 c-2 -2 -2 -2 0 -4 0 -1 2 -2 4 -2 1 0 2 -1 2 -2 0 -2 1 -4
2 -5 2 -1 2 -1 4 1 2 2 2 2 1 4 -1 1 -3 2 -5 2 -1 0 -2 1 -2 2 0 2 -3 6 -4 6
0 0 -2 -1 -2 -2z"/><path d="M282 286 c-1 -1 -2 -3 -2 -4 0 -1 -1 -2 -2 -2 -2 0 -4 -1 -5 -2 -1
-2 -1 -2 1 -4 2 -2 2 -2 4 -1 1 1 2 3 2 5 0 2 0 2 4 2 4 0 4 0 4 -2 0 -2 1 -4
2 -5 2 -1 2 -1 4 1 2 2 2 2 1 4 -1 1 -3 2 -5 2 -1 0 -2 1 -2 2 0 2 -3 6 -4 6
0 0 -1 -1 -2 -2z"/><path d="M265 262 c-1 -2 -1 -2 1 -4 l2 -2 2 2 c2 2 2 2 1 4 -1 1 -3 2 -3 2 0
0 -2 -1 -3 -2z"/><path d="M242 254 c-1 -1 -2 -3 -2 -4 0 -1 -1 -2 -2 -2 -2 0 -4 -1 -5 -2 -1
-2 -1 -2 1 -4 2 -2 2 -2 4 -1 1 1 2 3 2 5 0 1 1 2 2 2 2 0 4 1 5 2 1 2 1 2 0
4 -3 2 -3 2 -5 0z"/><path d="M249 214 c-1 -2 -1 -2 1 -4 l2 -2 2 2 c2 2 2 2 1 4 -1 1 -3 2 -3 2 0
0 -2 -1 -3 -2z"/><path d="M401 198 c-1 -2 -1 -2 1 -4 l2 -2 2 2 c2 2 2 2 1 4 -1 1 -3 2 -3 2 0
0 -2 -1 -3 -2z"/><path d="M257 62 c-1 -2 -1 -2 1 -4 l2 -2 2 2 c2 2 2 2 1 4 -1 1 -3 2 -3 2 0
0 -2 -1 -3 -2z"/></g>
  <g transform="scale(0.125 0.125) translate(0.000000,512.000000) scale(1.000000,-1.000000)" fill="#c81070" stroke="none"><path d="M194 398 c-2 -2 -2 -2 0 -4 1 -2 3 -2 10 -2 7 0 9 0 11 2 1 2 1 2 0
4 -2 2 -4 2 -11 2 -7 0 -9 0 -10 -2z"/><path d="M290 398 c-2 -2 -2 -2 0 -4 1 -2 3 -2 10 -2 7 0 9 0 11 2 1 2 1 2 0
4 -2 2 -4 2 -11 2 -7 0 -9 0 -10 -2z"/><path d="M226 390 c-2 -2 -2 -2 0 -4 0 -1 2 -2 4 -2 1 0 2 -1 2 -2 0 -2 1 -4
2 -5 2 -1 2 -1 4 1 2 2 2 2 1 4 -1 1 -3 2 -5 2 -1 0 -2 1 -2 2 0 2 -3 6 -4 6
0 0 -2 -1 -2 -2z"/><path d="M273 390 c-1 -2 -1 -2 1 -4 l2 -2 2 2 c2 2 2 2 1 4 -1 1 -3 2 -3 2 0
0 -2 -1 -3 -2z"/><path d="M177 382 c-1 -2 -1 -2 1 -4 l2 -2 2 2 c2 2 2 2 1 4 -1 1 -3 2 -3 2 0
0 -2 -1 -3 -2z"/><path d="M265 374 c-1 -2 -1 -2 1 -4 l2 -2 2 2 c2 2 2 2 1 4 -1 1 -3 2 -3 2 0
0 -2 -1 -3 -2z"/><path d="M241 358 c-1 -2 -1 -2 1 -4 l2 -2 2 2 c2 2 2 2 1 4 -1 1 -3 2 -3 2 0
0 -2 -1 -3 -2z"/><path d="M257 358 c-1 -2 -1 -2 1 -4 l2 -2 2 2 c2 2 2 2 1 4 -1 1 -3 2 -3 2 0
0 -2 -1 -3 -2z"/><path d="M177 350 c-1 -2 -1 -2 1 -4 l2 -2 2 2 c2 2 2 2 1 4 -1 1 -3 2 -3 2 0
0 -2 -1 -3 -2z"/><path d="M322 350 c-3 -3 -3 -10 0 -12 3 -3 6 0 6 6 0 7 -3 10 -6 6z"/><path d="M185 334 c-1 -2 -1 -2 1 -4 l2 -2 2 2 c2 2 2 2 1 4 -1 1 -3 2 -3 2 0
0 -2 -1 -3 -2z"/><path d="M305 318 c-1 -2 -1 -2 1 -4 l2 -2 2 2 c2 2 2 2 1 4 -1 1 -3 2 -3 2 0
0 -2 -1 -3 -2z"/><path d="M201 310 c-1 -2 -1 -2 1 -4 l2 -2 2 2 c2 2 2 2 1 4 -1 1 -3 2 -3 2 0
0 -2 -1 -3 -2z"/><path d="M273 278 c-1 -2 -1 -2 1 -4 l2 -2 2 2 c2 2 2 2 1 4 -1 1 -3 2 -3 2 0
0 -2 -1 -3 -2z"/></g>
</svg>
