<?xml version="1.0" encoding="UTF-8"?>
<svg xmlns="http://www.w3.org/2000/svg" viewBox="0 0 64 64" width="64" height="64">
  <g transform="scale(0.125 0.125) translate(0.000000,512.000000) scale(1.000000,-1.000000)" fill="#236b61" stroke="none"><path d="M210 254 l-18 -18 0 -12 0 -12 -8 -8 -8 -8 0 -8 0 -8 6 -6 c5 -6 6
-6 10 -6 3 0 5 -1 6 -2 2 -2 2 -2 -14 -18 -21 -21 -21 -20 8 -20 l20 0 8 8 8
9 4 -5 4 -4 12 0 13 0 3 -4 3 -4 29 0 c27 0 29 0 30 2 2 2 2 2 -4 8 -5 6 -6 6
-10 6 -6 0 -8 2 -8 8 0 4 1 5 6 10 l6 6 20 0 21 0 3 4 c3 4 4 4 8 4 6 0 16 10
16 16 0 4 -1 5 -6 10 l-6 6 -20 0 c-26 0 -24 -1 -24 16 l0 12 -14 14 c-14 14
-14 14 -18 14 -4 0 -5 0 -8 4 l-3 4 -29 0 -28 0 -18 -18z"/></g>
  <g transform="scale(0.125 0.125) translate(0.000000,512.000000) scale(1.000000,-1.000000)" fill="#001714" stroke="none"><path d="M222 266 c-4 -3 -6 -7 -6 -8 0 -1 -1 -2 -2 -2 -3 0 -6 -3 -6 -6 0 -1
-1 -2 -2 -2 -3 0 -6 -3 -6 -6 0 -1 -1 -2 -2 -2 -5 0 -6 -3 -6 -16 l0 -12 -8
-8 -8 -8 0 -8 0 -8 6 -6 c5 -6 6 -6 10 -6 3 0 5 -1 6 -2 2 -2 2 -2 -14 -18
-21 -21 -21 -20 8 -20 l20 0 8 8 8 9 4 -5 4 -4 12 0 13 0 3 -4 3 -4 29 0 c27
0 29 0 30 2 2 2 2 2 -4 8 -5 6 -6 6 -10 6 -6 0 -8 2 -8 8 0 4 1 5 6 10 l6 6
20 0 21 0 3 4 c3 4 4 4 8 4 6 0 16 10 16 16 0 4 -1 5 -6 10 l-6 6 -20 0 c-26
0 -24 -1 -24 16 l0 12 -14 14 c-14 14 -14 14 -18 14 -4 0 -5 0 -8 4 l-3 4 -29
0 -28 0 -6 -6z m17 -4 c1 -2 1 -2 0 -4 -1 -1 -3 -2 -5 -2 -3 0 -3 -3 0 -6 1
-2 3 -2 30 -2 l28 0 14 -14 c14 -13 14 -14 14 -18 0 -7 -2 -8 -14 -8 -10 0
-10 0 -10 -2 0 -2 -3 -5 -8 -10 l-8 -8 0 -8 0 -8 8 -8 c8 -8 8 -8 7 -10 -2 -2
-4 -2 -27 -2 l-24 0 -10 10 c-10 10 -10 10 -10 14 0 4 0 5 4 8 4 3 4 4 4 8 0
6 -2 8 -8 8 -4 0 -4 0 -16 -12 -12 -12 -12 -12 -14 -10 -2 1 -2 3 -2 10 l0 9
4 3 c4 3 4 4 4 8 0 4 0 5 4 8 l5 4 -5 4 c-4 3 -4 4 -4 10 0 5 0 6 2 6 3 0 6 3
6 6 0 1 1 2 2 2 3 0 6 3 6 6 0 2 0 2 8 2 8 0 8 0 8 2 0 2 3 6 4 6 0 0 2 -1 3
-2z"/><path d="M282 222 c-1 -1 -2 -3 -2 -6 0 -6 2 -8 10 -8 l6 0 0 6 c0 5 0 7 -2 8
-2 3 -10 3 -12 0z"/></g>
  <g transform="scale(0.125 0.125) translate(0.000000,512.000000) scale(1.000000,-1.000000)" fill="#251700" stroke="none"><path d="M226 262 c-2 -2 -2 -2 0 -4 0 -1 2 -2 4 -2 1 0 2 -1 2 -2 0 -6 1 -6
32 -6 l28 0 12 -12 c12 -12 12 -12 14 -10 1 1 2 3 2 6 0 4 0 4 -10 14 -10 10
-10 10 -14 10 -4 0 -5 0 -8 4 l-3 4 -21 0 -21 0 -3 -4 c-4 -5 -8 -6 -8 -2 0 2
-3 6 -4 6 0 0 -2 -1 -2 -2z"/><path d="M290 214 c-2 -2 -2 -2 0 -4 0 -1 2 -2 4 -2 4 0 2 -4 -6 -12 l-8 -8 0
-8 0 -8 6 -6 c5 -6 6 -6 10 -6 4 0 5 0 8 4 l3 4 25 0 25 0 3 4 c3 4 4 4 8 4 6
0 16 10 16 16 0 4 -1 5 -6 10 l-6 6 -38 0 -38 0 0 2 c0 2 -3 6 -4 6 0 0 -2 -1
-2 -2z"/><path d="M194 206 c-1 -1 -2 -3 -2 -4 0 -1 -1 -2 -2 -2 -5 0 -6 -3 -6 -12 0
-7 0 -9 2 -10 2 -2 2 -2 4 0 2 1 2 3 2 12 0 10 0 10 2 10 2 0 4 1 5 2 1 2 1 2
0 4 -3 2 -3 2 -5 0z"/><path d="M218 198 c-1 -1 -2 -3 -2 -4 0 -1 -1 -2 -2 -2 -3 0 -6 -3 -6 -6 0 -1
-1 -2 -2 -2 -2 0 -4 -1 -4 -2 -2 -2 -2 -2 0 -4 0 -1 2 -2 4 -2 2 0 2 0 2 -12
0 -12 0 -12 -2 -12 -2 0 -4 2 -6 4 l-4 4 -14 -14 c-19 -19 -19 -18 10 -18 l20
0 6 6 c6 6 6 6 4 8 -1 1 -3 2 -6 2 -5 0 -8 2 -8 6 0 2 0 2 10 2 l11 0 3 -4 3
-4 21 0 c19 0 21 0 23 -2 2 -3 -1 -6 -7 -6 -6 0 -9 -3 -6 -6 2 -3 58 -3 60 0
2 2 2 2 -4 8 l-6 6 -12 0 -13 0 -3 4 -3 4 -21 0 -20 0 -10 10 -10 10 0 6 c0 6
0 6 2 6 2 0 4 1 5 2 1 2 1 2 0 4 -1 1 -3 2 -5 2 -1 0 -2 1 -2 2 0 2 -3 6 -4 6
0 0 -1 -1 -2 -2z m6 -10 l0 -4 -4 0 c-3 0 -4 0 -4 -2 0 -3 -3 -6 -6 -6 -2 0
-2 0 -2 4 l0 4 4 0 4 0 0 4 0 4 4 0 4 0 0 -4z"/></g>
  <g transform="scale(0.125 0.125) translate(0.000000,512.000000) scale(1.000000,-1.000000)" fill="#054139" stroke="none"><path d="M226 262 c-2 -2 -2 -2 0 -4 0 -1 2 -2 4 -2 1 0 2 -1 2 -2 0 -6 1 -6
32 -6 l28 0 12 -12 c12 -12 12 -12 14 -10 1 1 2 3 2 6 0 4 0 4 -10 14 -10 10
-10 10 -14 10 -4 0 -5 0 -8 4 l-3 4 -21 0 -21 0 -3 -4 c-4 -5 -8 -6 -8 -2 0 2
-3 6 -4 6 0 0 -2 -1 -2 -2z"/><path d="M289 214 c-1 -2 -1 -2 1 -4 l2 -2 2 2 c2 2 2 2 1 4 -1 1 -3 2 -3 2 0
0 -2 -1 -3 -2z"/><path d="M194 206 c-1 -1 -2 -3 -2 -4 0 -1 -1 -2 -2 -2 -5 0 -6 -3 -6 -12 0
-7 0 -9 2 -10 2 -2 2 -2 4 0 2 1 2 3 2 12 0 10 0 10 2 10 2 0 4 1 5 2 1 2 1 2
0 4 -3 2 -3 2 -5 0z"/><path d="M218 198 c-1 -1 -2 -3 -2 -4 0 -1 -1 -2 -2 -2 -3 0 -6 -3 -6 -6 0 -1
-1 -2 -2 -2 -2 0 -4 -1 -4 -2 -2 -2 -2 -2 0 -4 0 -1 2 -2 4 -2 2 0 2 0 2 -12
l0 -12 -6 0 -6 0 -10 -10 c-10 -10 -10 -10 -8 -12 1 -2 3 -2 14 -2 l12 0 6 6
6 6 -4 4 c-2 2 -4 4 -4 6 0 2 0 2 10 2 l11 0 3 -4 3 -4 21 0 c20 0 21 0 23 -2
1 -2 1 -2 -3 -6 -4 -4 -4 -4 -3 -6 3 -3 43 -3 46 0 2 3 -1 6 -7 6 -4 0 -5 0
-8 4 -3 4 -4 4 -8 4 -4 0 -5 0 -8 4 l-3 4 -21 0 -20 0 -10 10 -10 10 0 6 c0 6
0 6 2 6 2 0 4 1 5 2 1 2 1 2 0 4 -1 1 -3 2 -5 2 -1 0 -2 1 -2 2 0 2 -3 6 -4 6
0 0 -1 -1 -2 -2z m6 -10 l0 -4 -4 0 c-3 0 -4 0 -4 -2 0 -3 -3 -6 -6 -6 -2 0
-2 0 -2 4 l0 4 4 0 4 0 0 4 0 4 4 0 4 0 0 -4z"/><path d="M296 196 c-3 -4 -4 -4 -8 -4 -7 0 -8 -2 -8 -12 l0 -8 6 -6 c7 -7 13
-8 17 -4 1 2 1 2 -3 6 -2 2 -4 4 -4 6 l0 2 30 0 31 0 3 4 c3 4 4 4 8 4 6 0 8
2 8 8 0 8 1 8 -40 8 l-37 0 -3 -4z m-2 -14 c1 -1 2 -2 2 -4 0 -3 -4 -3 -6 0
-2 2 -2 2 0 4 2 2 2 2 4 0z"/></g>
  <g transform="scale(0.125 0.125) translate(0.000000,512.000000) scale(1.000000,-1.000000)" fill="#55948b" stroke="none"><path d="M238 258 c-6 -6 -6 -6 -4 -8 1 -2 3 -2 30 -2 l28 0 12 -12 c12 -12
12 -12 14 -10 1 1 2 3 2 6 0 4 0 4 -10 14 -10 10 -10 10 -14 10 -4 0 -5 0 -8
4 l-3 4 -21 0 -20 0 -6 -6z"/><path d="M289 214 c-1 -2 -1 -2 1 -4 l2 -2 2 2 c2 2 2 2 1 4 -1 1 -3 2 -3 2 0
0 -2 -1 -3 -2z"/><path d="M194 206 c-1 -1 -2 -3 -2 -4 0 -1 -1 -2 -2 -2 -5 0 -6 -3 -6 -12 0
-7 0 -9 2 -10 2 -2 2 -2 4 0 2 1 2 3 2 12 0 10 0 10 2 10 2 0 4 1 5 2 1 2 1 2
0 4 -3 2 -3 2 -5 0z"/><path d="M294 194 l-6 -6 6 -6 6 -6 28 0 29 0 3 4 c3 4 4 4 8 4 6 0 8 2 8 8 0
8 1 8 -40 8 l-36 0 -6 -6z"/><path d="M186 142 c-10 -10 -10 -10 -8 -12 1 -2 3 -2 14 -2 l12 0 6 6 6 6 -6
6 c-5 6 -6 6 -10 6 -4 0 -5 -1 -14 -10z"/><path d="M278 138 c-6 -6 -6 -6 -4 -8 2 -3 42 -3 45 0 2 3 -1 6 -7 6 -4 0 -5
0 -8 4 l-3 4 -9 0 -8 0 -6 -6z"/></g>
  <g transform="scale(0.125 0.125) translate(0.000000,512.000000) scale(1.000000,-1.000000)" fill="#aa7f38" stroke="none"><path d="M289 214 c-1 -2 -1 -2 1 -4 l2 -2 2 2 c2 2 2 2 1 4 -1 1 -3 2 -3 2 0
0 -2 -1 -3 -2z"/><path d="M294 194 l-6 -6 6 -6 6 -6 28 0 29 0 3 4 c3 4 4 4 8 4 6 0 8 2 8 8 0
8 1 8 -40 8 l-36 0 -6 -6z"/><path d="M186 142 c-10 -10 -10 -10 -8 -12 1 -2 3 -2 14 -2 l12 0 6 6 6 6 -6
6 c-5 6 -6 6 -10 6 -4 0 -5 -1 -14 -10z"/><path d="M278 138 c-6 -6 -6 -6 -4 -8 2 -3 42 -3 45 0 2 3 -1 6 -7 6 -4 0 -5
0 -8 4 l-3 4 -9 0 -8 0 -6 -6z"/></g>
  <g transform="scale(0.125 0.125) translate(0.000000,512.000000) scale(1.000000,-1.000000)" fill="#ecc687" stroke="none"><path d="M289 214 c-1 -2 -1 -2 1 -4 l2 -2 2 2 c2 2 2 2 1 4 -1 1 -3 2 -3 2 0
0 -2 -1 -3 -2z"/><path d="M298 198 c-1 -1 -2 -3 -2 -4 0 -1 -1 -2 -2 -2 -2 0 -4 -1 -4 -2 -2
-2 -2 -2 0 -4 0 -1 2 -2 4 -2 1 0 2 -1 2 -2 0 -6 2 -6 24 -6 19 0 21 0 23 2 1
2 1 2 0 4 -2 2 -4 2 -25 2 l-22 0 0 4 0 4 34 0 35 0 3 -4 c4 -4 4 -4 6 -3 3 3
3 11 0 13 -3 3 -74 3 -76 0z"/><path d="M194 150 c-1 -1 -2 -3 -2 -4 0 -1 -1 -2 -2 -2 -3 0 -6 -3 -6 -6 0 -1
-1 -2 -2 -2 -2 0 -4 -1 -5 -2 -1 -2 -1 -2 1 -4 2 -2 2 -2 4 -1 1 1 2 3 2 5 0
1 1 2 2 2 3 0 6 3 6 6 0 4 4 3 8 -2 3 -4 4 -4 8 -4 3 0 5 1 6 2 2 2 2 2 -4 8
-5 6 -6 6 -10 6 -3 0 -5 -1 -6 -2z"/><path d="M298 142 c-2 -2 -2 -2 0 -4 0 -1 2 -2 4 -2 1 0 2 -1 2 -2 0 -6 10 -8
15 -4 3 3 -1 6 -9 6 -6 0 -6 0 -6 2 0 2 -3 6 -4 6 0 0 -2 -1 -2 -2z"/><path d="M273 134 c-1 -2 -1 -2 1 -4 l2 -2 2 2 c2 2 2 2 1 4 -1 1 -3 2 -3 2 0
0 -2 -1 -3 -2z"/></g>
  <g transform="scale(0.125 0.125) translate(0.000000,512.000000) scale(1.000000,-1.000000)" fill="#674309" stroke="none"><path d="M289 214 c-1 -2 -1 -2 1 -4 l2 -2 2 2 c2 2 2 2 1 4 -1 1 -3 2 -3 2 0
0 -2 -1 -3 -2z"/><path d="M290 190 c-2 -2 -2 -2 0 -4 0 -1 2 -2 4 -2 1 0 2 -1 2 -2 0 -6 2 -6
24 -6 19 0 21 0 23 2 1 2 1 2 0 4 -2 2 -4 2 -25 2 l-22 0 0 2 c0 2 -3 6 -4 6
0 0 -2 -1 -2 -2z"/><path d="M194 150 c-2 -2 -2 -2 4 -8 5 -6 6 -6 10 -6 3 0 5 1 6 2 2 2 2 2 -4
8 -5 6 -6 6 -10 6 -3 0 -5 -1 -6 -2z"/><path d="M273 134 c-1 -2 -1 -2 1 -4 l2 -2 2 2 c2 2 2 2 1 4 -1 1 -3 2 -3 2 0
0 -2 -1 -3 -2z"/></g>
  <g transform="scale(0.125 0.125) translate(0.000000,512.000000) scale(1.000000,-1.000000)" fill="#afd5d0" stroke="none"><path d="M289 214 c-1 -2 -1 -2 1 -4 l2 -2 2 2 c2 2 2 2 1 4 -1 1 -3 2 -3 2 0
0 -2 -1 -3 -2z"/></g>
</svg>
