<?xml version="1.0" encoding="UTF-8"?>
<svg xmlns="http://www.w3.org/2000/svg" viewBox="0 0 64 64" width="64" height="64">
  <g transform="scale(0.125 0.125) translate(0.000000,512.000000) scale(1.000000,-1.000000)" fill="#236b61" stroke="none"><path d="M184 252 l-27 -28 -9 0 -8 0 -6 -6 -6 -6 0 -12 0 -12 6 -6 6 -6 20 0
c25 0 24 0 24 -12 l0 -8 -12 -12 c-17 -16 -17 -16 16 -16 28 0 28 0 28 8 0 8
0 8 24 8 24 0 24 0 24 -8 0 -8 0 -8 32 -8 27 0 29 0 30 2 2 2 2 2 -4 8 -5 5
-6 6 -10 6 -4 0 -5 1 -14 10 l-10 10 6 6 6 6 8 -8 8 -8 8 0 c10 0 12 1 12 8 0
4 0 5 4 8 l4 3 0 9 0 9 -4 3 c-4 3 -4 4 -4 8 0 7 -2 8 -12 8 -12 0 -12 0 -12
16 l0 12 -14 14 c-14 14 -14 14 -18 14 -4 0 -5 0 -8 4 l-3 4 -29 0 -28 0 -28
-28z"/></g>
  <g transform="scale(0.125 0.125) translate(0.000000,512.000000) scale(1.000000,-1.000000)" fill="#001714" stroke="none"><path d="M184 252 l-27 -28 -9 0 c-9 0 -12 -1 -12 -6 0 -1 -1 -2 -2 -2 -5 0
-6 -3 -6 -16 l0 -12 6 -6 6 -6 20 0 c25 0 24 0 24 -12 l0 -8 -12 -12 c-17 -16
-17 -16 16 -16 28 0 28 0 28 8 0 8 0 8 24 8 24 0 24 0 24 -8 0 -8 0 -8 32 -8
27 0 29 0 30 2 2 2 2 2 -4 8 -5 5 -6 6 -10 6 -4 0 -5 1 -14 10 l-10 10 6 6 6
6 8 -8 8 -8 8 0 c10 0 12 1 12 8 0 4 0 5 4 8 l4 3 0 9 0 9 -4 3 c-4 3 -4 4 -4
8 0 7 -2 8 -12 8 -12 0 -12 0 -12 16 l0 12 -14 14 c-14 14 -14 14 -18 14 -4 0
-5 0 -8 4 l-3 4 -29 0 -28 0 -28 -28z m39 18 c1 -2 1 -2 0 -4 -1 -1 -3 -2 -5
-2 -3 0 -3 -3 0 -6 1 -2 3 -2 30 -2 l28 0 14 -14 c14 -13 14 -14 14 -18 0 -6
-2 -8 -8 -8 -6 0 -8 2 -8 8 0 6 -2 8 -8 8 -6 0 -8 -2 -8 -8 0 -8 -1 -8 -20 -8
l-16 0 -10 -10 -10 -10 14 -14 14 -14 16 0 c15 0 17 0 19 -2 1 -2 1 -2 0 -4
-2 -2 -4 -2 -31 -2 l-28 0 -18 18 -18 18 0 20 0 20 14 14 c9 9 15 14 16 14 1
0 2 1 2 2 0 2 3 6 4 6 0 0 2 -1 3 -2z m-81 -56 c1 -1 2 -2 2 -4 0 -1 1 -2 2
-2 1 0 5 -3 8 -6 6 -6 6 -6 4 -8 -1 -1 -3 -2 -6 -2 -6 0 -8 2 -8 10 0 6 0 6
-2 6 -3 0 -6 3 -6 6 0 3 3 3 6 0z"/><path d="M210 230 c-3 -2 -3 -10 0 -12 2 -3 10 -3 12 0 3 2 3 10 0 12 -2 3
-10 3 -12 0z"/></g>
  <g transform="scale(0.125 0.125) translate(0.000000,512.000000) scale(1.000000,-1.000000)" fill="#054139" stroke="none"><path d="M210 270 c-1 -1 -2 -3 -2 -4 0 -1 -1 -2 -2 -2 -3 0 -6 -3 -6 -6 0 -1
-1 -2 -2 -2 -3 0 -6 -3 -6 -6 0 -1 -1 -2 -2 -2 -2 0 -4 -1 -5 -2 -1 -2 -1 -2
1 -4 2 -2 2 -2 4 -1 1 1 2 3 2 5 0 1 1 2 2 2 3 0 6 3 6 6 0 1 1 2 2 2 3 0 6 3
6 6 0 2 1 2 4 2 4 0 4 0 4 -2 0 -6 1 -6 32 -6 l28 0 12 -12 c12 -12 12 -12 14
-10 1 1 2 3 2 6 0 4 0 4 -10 14 -10 10 -10 10 -14 10 -4 0 -5 0 -8 4 l-3 4
-21 0 -21 0 -3 -4 c-4 -5 -8 -6 -8 -2 0 2 -3 6 -4 6 0 0 -1 -1 -2 -2z"/><path d="M178 230 c-2 -1 -2 -4 -2 -22 l0 -20 8 -8 8 -8 0 -6 c0 -5 0 -6 -2
-6 -1 0 -7 -5 -16 -14 -19 -19 -20 -18 14 -18 30 0 28 -1 28 14 l0 10 22 0
c27 0 26 1 26 -12 0 -13 -2 -12 32 -12 27 0 29 0 30 2 2 2 2 2 -4 8 -5 5 -6 6
-10 6 -4 0 -5 0 -12 8 l-8 9 -4 -5 c-3 -4 -4 -4 -8 -4 -4 0 -5 0 -8 4 l-3 4
-27 0 c-26 0 -26 0 -26 2 0 1 -5 8 -16 18 l-16 16 0 16 c0 15 0 17 -2 18 -2 2
-2 2 -4 0z m38 -74 l0 -4 -10 0 c-11 0 -14 1 -14 6 0 2 0 2 12 2 l12 0 0 -4z"/><path d="M217 222 c-1 -2 -1 -2 1 -4 l2 -2 2 2 c2 2 2 2 1 4 -1 1 -3 2 -3 2 0
0 -2 -1 -3 -2z"/><path d="M280 220 l-3 -4 -21 0 -20 0 -10 -10 -10 -10 14 -14 14 -14 20 0 21
0 3 4 c3 4 4 4 8 4 4 0 5 0 8 4 4 4 4 4 6 3 1 -2 2 -4 2 -7 0 -6 2 -8 8 -8 4
0 5 1 10 6 l6 6 0 8 0 8 -10 10 -10 10 -12 0 -13 0 -3 4 c-2 2 -4 4 -4 4 0 0
-2 -2 -4 -4z m47 -30 c1 -2 1 -2 -1 -4 l-2 -2 -2 2 c-2 2 -2 2 -1 4 1 1 3 2 3
2 0 0 2 -1 3 -2z"/><path d="M146 214 c-1 -1 -2 -3 -2 -4 0 -1 -1 -2 -2 -2 -5 0 -6 -3 -6 -12 0
-12 0 -12 16 -12 16 0 16 -1 16 16 0 16 0 16 -12 16 -7 0 -9 0 -10 -2z m8 -12
c6 -6 6 -6 4 -8 -1 -1 -3 -2 -6 -2 -6 0 -8 2 -8 10 0 8 2 8 10 0z"/></g>
  <g transform="scale(0.125 0.125) translate(0.000000,512.000000) scale(1.000000,-1.000000)" fill="#251700" stroke="none"><path d="M222 266 c-6 -6 -6 -6 -4 -8 1 -2 3 -2 30 -2 l28 0 12 -12 c12 -12
12 -12 14 -10 1 1 2 3 2 6 0 4 0 4 -10 14 -10 10 -10 10 -14 10 -4 0 -5 0 -8
4 l-3 4 -21 0 -20 0 -6 -6z"/><path d="M217 222 c-1 -2 -1 -2 1 -4 l2 -2 2 2 c2 2 2 2 1 4 -1 1 -3 2 -3 2 0
0 -2 -1 -3 -2z"/><path d="M280 220 l-3 -4 -21 0 -20 0 -10 -10 -10 -10 10 -10 10 -10 32 0 33
0 3 4 c3 4 4 4 8 4 6 0 16 10 16 16 0 4 -1 5 -6 10 l-6 6 -12 0 -13 0 -3 4
c-2 2 -4 4 -4 4 0 0 -2 -2 -4 -4z"/><path d="M138 206 c-3 -3 -3 -18 0 -20 3 -3 18 -3 21 0 2 3 -1 6 -7 6 -6 0 -8
2 -8 8 0 7 -3 10 -6 6z"/><path d="M174 146 c-19 -19 -20 -18 14 -18 30 0 28 -1 28 12 0 11 -1 12 -12
12 l-9 0 -3 4 c-2 2 -3 4 -4 4 0 0 -7 -6 -14 -14z"/><path d="M288 156 l-3 -4 -9 0 c-11 0 -12 -1 -12 -12 0 -13 -2 -12 32 -12 27
0 29 0 30 2 2 2 2 2 -4 8 -5 5 -6 6 -10 6 -4 0 -5 0 -12 8 -4 4 -8 8 -8 8 -1
0 -2 -2 -4 -4z"/></g>
  <g transform="scale(0.125 0.125) translate(0.000000,512.000000) scale(1.000000,-1.000000)" fill="#55948b" stroke="none"><path d="M222 266 c-6 -6 -6 -6 -4 -8 1 -2 3 -2 30 -2 l28 0 12 -12 c12 -12
12 -12 14 -10 1 1 2 3 2 6 0 4 0 4 -10 14 -10 10 -10 10 -14 10 -4 0 -5 0 -8
4 l-3 4 -21 0 -20 0 -6 -6z"/><path d="M217 222 c-1 -2 -1 -2 1 -4 l2 -2 2 2 c2 2 2 2 1 4 -1 1 -3 2 -3 2 0
0 -2 -1 -3 -2z"/><path d="M281 222 c-1 -2 -1 -2 1 -4 l2 -2 2 2 c2 2 2 2 1 4 -1 1 -3 2 -3 2 0
0 -2 -1 -3 -2z"/><path d="M138 206 c-3 -3 -3 -18 0 -20 3 -3 18 -3 21 0 2 3 -1 6 -7 6 -6 0 -8
2 -8 8 0 7 -3 10 -6 6z"/><path d="M230 202 l-6 -6 6 -6 6 -6 32 0 33 0 3 4 c3 4 4 4 8 4 6 0 8 2 8 8 0
8 2 8 -44 8 l-40 0 -6 -6z"/><path d="M178 142 c-10 -10 -10 -10 -8 -12 1 -2 3 -2 18 -2 20 0 20 0 20 12 0
11 -1 12 -12 12 l-8 0 -10 -10z"/><path d="M274 150 c-3 -3 -3 -18 0 -20 3 -3 42 -3 45 0 2 3 -1 6 -7 6 -4 0 -5
0 -12 8 l-8 8 -8 0 c-7 0 -9 0 -10 -2z"/></g>
  <g transform="scale(0.125 0.125) translate(0.000000,512.000000) scale(1.000000,-1.000000)" fill="#aa7f38" stroke="none"><path d="M217 222 c-1 -2 -1 -2 1 -4 l2 -2 2 2 c2 2 2 2 1 4 -1 1 -3 2 -3 2 0
0 -2 -1 -3 -2z"/><path d="M281 222 c-1 -2 -1 -2 1 -4 l2 -2 2 2 c2 2 2 2 1 4 -1 1 -3 2 -3 2 0
0 -2 -1 -3 -2z"/><path d="M230 202 l-6 -6 6 -6 6 -6 32 0 33 0 3 4 c3 4 4 4 8 4 6 0 8 2 8 8 0
8 2 8 -44 8 l-40 0 -6 -6z"/><path d="M178 142 c-10 -10 -10 -10 -8 -12 1 -2 3 -2 18 -2 20 0 20 0 20 12 0
11 -1 12 -12 12 l-8 0 -10 -10z"/><path d="M274 150 c-3 -3 -3 -18 0 -20 3 -3 42 -3 45 0 2 3 -1 6 -7 6 -4 0 -5
0 -12 8 l-8 8 -8 0 c-7 0 -9 0 -10 -2z"/></g>
  <g transform="scale(0.125 0.125) translate(0.000000,512.000000) scale(1.000000,-1.000000)" fill="#ecc687" stroke="none"><path d="M217 222 c-1 -2 -1 -2 1 -4 l2 -2 2 2 c2 2 2 2 1 4 -1 1 -3 2 -3 2 0
0 -2 -1 -3 -2z"/><path d="M281 222 c-1 -2 -1 -2 1 -4 l2 -2 2 2 c2 2 2 2 1 4 -1 1 -3 2 -3 2 0
0 -2 -1 -3 -2z"/><path d="M234 206 c-1 -1 -2 -3 -2 -4 0 -1 -1 -2 -2 -2 -2 0 -4 -1 -4 -2 -2
-2 -2 -2 0 -4 0 -1 2 -2 4 -2 1 0 2 -1 2 -2 0 -6 2 -6 24 -6 19 0 21 0 23 2 1
2 1 2 0 4 -2 2 -4 2 -25 2 l-22 0 0 4 0 4 38 0 39 0 3 -4 c4 -4 4 -4 6 -3 3 3
3 11 0 13 -3 3 -82 3 -84 0z"/><path d="M186 150 c-1 -1 -2 -3 -2 -4 0 -1 -1 -2 -2 -2 -3 0 -6 -3 -6 -6 0 -1
-1 -2 -2 -2 -2 0 -4 -1 -5 -2 -1 -2 -1 -2 1 -4 2 -2 2 -2 4 -1 1 1 2 3 2 5 0
1 1 2 2 2 3 0 6 3 6 6 0 4 4 2 12 -6 8 -8 8 -8 10 -7 3 3 3 19 0 21 -3 3 -18
3 -20 0z"/><path d="M282 150 c-1 -1 -2 -3 -2 -4 0 -1 -1 -2 -2 -2 -6 0 -8 -10 -4 -14 3
-4 6 0 6 8 l0 6 8 0 c8 0 8 0 8 -2 0 -3 3 -6 6 -6 1 0 2 -1 2 -2 0 -6 10 -8
15 -4 3 3 -1 6 -9 6 -6 0 -6 0 -6 2 0 3 -3 6 -6 6 -1 0 -2 1 -2 2 0 6 -10 8
-14 4z"/></g>
  <g transform="scale(0.125 0.125) translate(0.000000,512.000000) scale(1.000000,-1.000000)" fill="#674309" stroke="none"><path d="M217 222 c-1 -2 -1 -2 1 -4 l2 -2 2 2 c2 2 2 2 1 4 -1 1 -3 2 -3 2 0
0 -2 -1 -3 -2z"/><path d="M281 222 c-1 -2 -1 -2 1 -4 l2 -2 2 2 c2 2 2 2 1 4 -1 1 -3 2 -3 2 0
0 -2 -1 -3 -2z"/><path d="M226 198 c-2 -2 -2 -2 0 -4 0 -1 2 -2 4 -2 1 0 2 -1 2 -2 0 -6 2 -6
24 -6 19 0 21 0 23 2 1 2 1 2 0 4 -2 2 -4 2 -25 2 l-22 0 0 2 c0 2 -3 6 -4 6
0 0 -2 -1 -2 -2z"/><path d="M186 150 c-2 -2 -2 -2 8 -12 10 -10 10 -10 12 -8 3 2 3 18 0 20 -3 3
-18 3 -20 0z"/><path d="M274 142 c-3 -3 -3 -10 0 -12 3 -3 6 0 6 6 0 7 -3 10 -6 6z"/></g>
  <g transform="scale(0.125 0.125) translate(0.000000,512.000000) scale(1.000000,-1.000000)" fill="#afd5d0" stroke="none"><path d="M217 222 c-1 -2 -1 -2 1 -4 l2 -2 2 2 c2 2 2 2 1 4 -1 1 -3 2 -3 2 0
0 -2 -1 -3 -2z"/><path d="M281 222 c-1 -2 -1 -2 1 -4 l2 -2 2 2 c2 2 2 2 1 4 -1 1 -3 2 -3 2 0
0 -2 -1 -3 -2z"/></g>
</svg>
