<?xml version="1.0" encoding="UTF-8"?>
<svg xmlns="http://www.w3.org/2000/svg" viewBox="0 0 64 64" width="64" height="64">
  <g transform="scale(0.125 0.125) translate(0.000000,512.000000) scale(1.000000,-1.000000)" fill="#236b61" stroke="none"><path d="M214 250 l-22 -22 0 -20 0 -21 4 -3 c4 -3 4 -4 4 -8 0 -4 0 -5 -4 -8
-4 -3 -4 -4 -4 -8 0 -4 0 -5 -4 -8 l-4 -3 0 -9 c0 -12 0 -12 16 -12 l12 0 8 8
8 9 4 -5 4 -4 12 0 13 0 3 -4 3 -4 29 0 c27 0 29 0 30 2 2 2 2 2 -4 8 -5 6 -6
6 -10 6 -3 0 -5 1 -6 2 -2 2 -2 2 4 8 5 5 6 6 10 6 4 0 5 0 12 8 l8 8 16 0 16
0 10 10 c14 14 14 14 0 28 l-10 10 -16 0 -16 0 -20 20 -20 20 -4 0 c-4 0 -5 0
-8 4 l-3 4 -25 0 -24 0 -22 -22z"/></g>
  <g transform="scale(0.125 0.125) translate(0.000000,512.000000) scale(1.000000,-1.000000)" fill="#001714" stroke="none"><path d="M234 270 c-1 -1 -2 -3 -2 -4 0 -1 -1 -2 -2 -2 -3 0 -6 -3 -6 -6 0 -1
-1 -2 -2 -2 -3 0 -6 -3 -6 -6 0 -1 -1 -2 -2 -2 -3 0 -6 -3 -6 -6 0 -1 -1 -2
-2 -2 -3 0 -6 -3 -6 -6 0 -1 -1 -2 -2 -2 -6 0 -6 -2 -6 -24 l0 -21 4 -3 c4 -3
4 -4 4 -8 0 -4 0 -5 -4 -8 -4 -3 -4 -4 -4 -8 0 -4 0 -5 -4 -8 l-4 -3 0 -9 c0
-12 0 -12 16 -12 l12 0 8 8 8 9 4 -5 4 -4 12 0 13 0 3 -4 3 -4 29 0 c27 0 29
0 30 2 2 2 2 2 -4 8 -5 6 -6 6 -10 6 -3 0 -5 1 -6 2 -2 2 -2 2 4 8 5 5 6 6 10
6 4 0 5 0 12 8 l8 8 16 0 c18 0 20 1 20 6 0 1 1 2 2 2 3 0 6 3 6 6 0 1 1 2 2
2 4 0 6 3 6 8 0 4 0 5 -10 14 l-10 10 -16 0 -16 0 -20 20 -20 20 -4 0 c-4 0
-5 0 -8 4 l-3 4 -25 0 c-23 0 -25 0 -26 -2z m10 -14 l8 -8 20 0 20 0 12 -12
c11 -12 12 -12 16 -12 4 0 5 0 12 -8 l8 -8 12 0 13 0 3 -4 c3 -4 4 -4 8 -4 5
0 8 -2 8 -6 0 -1 -1 -2 -2 -2 -3 0 -6 -3 -6 -6 0 -4 -4 -3 -8 2 l-3 4 -21 0
-20 0 -16 -16 -16 -16 -20 0 -20 0 -26 26 -26 26 0 10 c0 10 0 10 2 10 3 0 6
3 6 6 0 1 1 2 2 2 3 0 6 3 6 6 0 1 1 2 2 2 3 0 6 3 6 6 0 1 1 2 2 2 3 0 6 3 6
6 0 4 4 2 12 -6z"/></g>
  <g transform="scale(0.125 0.125) translate(0.000000,512.000000) scale(1.000000,-1.000000)" fill="#054139" stroke="none"><path d="M242 262 c-2 -2 -2 -2 4 -8 l6 -6 20 0 20 0 12 -12 12 -12 6 0 c6 0
6 0 6 -2 0 -3 3 -6 6 -6 1 0 2 -1 2 -2 0 -5 3 -6 16 -6 l13 0 3 -4 c3 -4 4 -4
8 -4 3 0 5 1 6 2 2 2 2 2 -4 8 l-6 6 -18 0 -18 0 0 2 c0 3 -3 6 -6 6 -1 0 -2
1 -2 2 0 1 -5 7 -14 16 -14 14 -14 14 -18 14 -4 0 -5 0 -8 4 l-3 4 -21 0 c-19
0 -21 0 -22 -2z"/><path d="M202 206 c-2 -1 -2 -4 -2 -10 l0 -8 4 -4 5 -4 -9 -8 c-8 -7 -8 -8 -8
-12 0 -4 0 -5 -4 -8 l-4 -3 0 -9 c0 -12 0 -12 16 -12 l12 0 8 8 8 8 34 0 34 0
0 -2 c0 -5 -3 -6 -16 -6 -11 0 -13 0 -14 -2 -2 -2 -2 -2 0 -4 2 -3 58 -3 60 0
2 2 2 2 -4 8 l-6 6 -10 0 c-13 0 -13 1 0 14 9 10 10 10 14 10 4 0 5 0 12 8 l8
8 12 0 c11 0 13 0 15 2 1 2 1 2 0 4 -2 2 -4 2 -23 2 l-20 0 -16 -16 -16 -16
-20 0 -20 0 -24 24 c-13 13 -24 24 -24 24 -1 0 -1 -1 -2 -2z"/></g>
  <g transform="scale(0.125 0.125) translate(0.000000,512.000000) scale(1.000000,-1.000000)" fill="#55948b" stroke="none"><path d="M242 262 c-2 -2 -2 -2 4 -8 l6 -6 20 0 20 0 12 -12 12 -12 6 0 c6 0
6 0 6 -2 0 -3 3 -6 6 -6 1 0 2 -1 2 -2 0 -5 3 -6 16 -6 l13 0 3 -4 c3 -4 4 -4
8 -4 3 0 5 1 6 2 2 2 2 2 -4 8 l-6 6 -18 0 -18 0 0 2 c0 3 -3 6 -6 6 -1 0 -2
1 -2 2 0 1 -5 7 -14 16 -14 14 -14 14 -18 14 -4 0 -5 0 -8 4 l-3 4 -21 0 c-19
0 -21 0 -22 -2z"/><path d="M202 174 c-10 -10 -10 -10 -10 -14 0 -4 0 -5 -4 -8 l-4 -3 0 -9 c0
-12 0 -12 16 -12 l12 0 10 10 10 10 0 8 0 8 -10 10 c-5 6 -10 10 -10 10 0 0
-5 -5 -10 -10z"/><path d="M296 140 l-3 -4 -13 0 c-11 0 -13 0 -14 -2 -2 -2 -2 -2 0 -4 2 -3 58
-3 60 0 2 2 2 2 -4 8 l-6 6 -8 0 -9 0 -3 -4z"/></g>
  <g transform="scale(0.125 0.125) translate(0.000000,512.000000) scale(1.000000,-1.000000)" fill="#251700" stroke="none"><path d="M202 174 c-10 -10 -10 -10 -10 -14 0 -4 0 -5 -4 -8 l-4 -3 0 -9 c0
-12 0 -12 16 -12 l12 0 10 10 10 10 0 8 0 8 -10 10 c-5 6 -10 10 -10 10 0 0
-5 -5 -10 -10z"/><path d="M296 140 l-3 -4 -13 0 c-11 0 -13 0 -14 -2 -2 -2 -2 -2 0 -4 2 -3 58
-3 60 0 2 2 2 2 -4 8 l-6 6 -8 0 -9 0 -3 -4z"/></g>
  <g transform="scale(0.125 0.125) translate(0.000000,512.000000) scale(1.000000,-1.000000)" fill="#674309" stroke="none"><path d="M206 170 c-6 -5 -6 -6 -6 -10 0 -4 0 -5 -4 -8 l-4 -3 0 -9 c0 -10 1
-12 8 -12 4 0 5 0 14 10 l10 10 0 8 0 8 -6 6 c-3 3 -6 6 -6 6 0 0 -3 -3 -6 -6z"/><path d="M296 140 l-3 -4 -9 0 c-7 0 -9 0 -10 -2 -2 -2 -2 -2 0 -4 1 -2 3 -2
22 -2 19 0 21 0 23 2 2 3 -1 6 -7 6 -4 0 -5 0 -8 4 -2 2 -4 4 -4 4 0 0 -2 -2
-4 -4z"/></g>
  <g transform="scale(0.125 0.125) translate(0.000000,512.000000) scale(1.000000,-1.000000)" fill="#aa7f38" stroke="none"><path d="M198 154 l-6 -6 0 -8 c0 -10 1 -12 8 -12 6 0 16 10 16 16 0 4 -1 5
-6 10 -3 3 -6 6 -6 6 0 0 -3 -3 -6 -6z"/><path d="M296 140 c-3 -4 -4 -4 -8 -4 -6 0 -9 -3 -6 -6 1 -2 3 -2 18 -2 15 0
17 0 19 2 2 3 -1 6 -7 6 -4 0 -5 0 -8 4 -2 2 -4 4 -4 4 0 0 -2 -2 -4 -4z"/></g>
  <g transform="scale(0.125 0.125) translate(0.000000,512.000000) scale(1.000000,-1.000000)" fill="#ecc687" stroke="none"><path d="M202 158 c-1 -1 -2 -3 -2 -4 0 -1 -1 -2 -2 -2 -5 0 -6 -3 -6 -12 0
-7 0 -9 2 -10 2 -2 2 -2 4 0 2 1 2 3 2 12 0 10 0 10 2 10 2 0 4 1 5 2 1 2 1 2
0 4 -3 2 -3 2 -5 0z"/><path d="M298 142 c-2 -2 -2 -2 0 -4 0 -1 2 -2 4 -2 1 0 2 -1 2 -2 0 -6 10 -8
15 -4 3 3 -1 6 -9 6 -6 0 -6 0 -6 2 0 2 -3 6 -4 6 0 0 -2 -1 -2 -2z"/></g>
</svg>
