<?xml version="1.0" encoding="UTF-8"?>
<svg xmlns="http://www.w3.org/2000/svg" viewBox="0 0 64 64" width="64" height="64">
  <g transform="scale(0.125 0.125) translate(0.000000,512.000000) scale(1.000000,-1.000000)" fill="#236b61" stroke="none"><path d="M196 248 l-15 -16 -9 0 -8 0 -10 -10 -10 -10 0 -12 0 -12 10 -10 c9
-9 10 -10 14 -10 4 0 5 -1 10 -6 l6 -6 -12 -12 c-18 -18 -26 -16 72 -16 79 0
81 0 82 2 2 2 2 2 -4 8 -5 5 -6 6 -10 6 -4 0 -5 1 -10 6 l-6 6 6 6 6 6 36 0
36 0 6 6 c5 5 6 6 6 10 0 4 -1 5 -14 18 l-14 14 -24 0 c-28 0 -28 0 -28 8 0 4
0 5 -14 18 -14 14 -14 14 -18 14 -4 0 -5 0 -8 4 l-3 4 -29 0 -28 0 -16 -16z"/></g>
  <g transform="scale(0.125 0.125) translate(0.000000,512.000000) scale(1.000000,-1.000000)" fill="#001714" stroke="none"><path d="M196 248 l-15 -16 -9 0 -8 0 -10 -10 -10 -10 0 -12 0 -12 10 -10 c9
-9 10 -10 14 -10 4 0 5 -1 10 -6 l6 -6 -12 -12 c-18 -18 -26 -16 72 -16 79 0
81 0 82 2 2 2 2 2 -4 8 -5 5 -6 6 -10 6 -4 0 -5 1 -10 6 l-6 6 6 6 6 6 36 0
c40 0 40 0 40 6 0 1 1 2 2 2 4 0 6 3 6 8 0 4 0 5 -14 18 l-14 14 -24 0 c-28 0
-28 0 -28 8 0 4 0 5 -14 18 -14 14 -14 14 -18 14 -4 0 -5 0 -8 4 l-3 4 -29 0
-28 0 -16 -16z m27 6 c1 -2 1 -2 0 -4 -1 -1 -3 -2 -5 -2 -3 0 -3 -3 0 -6 1 -2
3 -2 30 -2 l28 0 14 -14 c14 -13 14 -14 14 -18 0 -6 -2 -8 -8 -8 -6 0 -8 2 -8
8 0 6 -2 8 -8 8 -6 0 -8 -2 -8 -8 0 -8 -1 -8 -20 -8 l-16 0 -10 -10 -10 -10
14 -14 14 -14 16 0 c15 0 17 0 19 -2 1 -2 1 -2 0 -4 -2 -2 -4 -2 -31 -2 l-28
0 -16 16 c-15 16 -16 16 -20 16 -4 0 -5 1 -18 14 l-14 14 6 6 c5 6 6 6 10 6 4
0 5 0 8 -4 3 -4 4 -4 8 -4 3 0 5 1 7 2 1 2 1 2 -3 6 l-4 4 14 14 c9 9 15 14
16 14 1 0 2 1 2 2 0 2 3 6 4 6 0 0 2 -1 3 -2z m137 -58 c3 -4 4 -4 8 -4 4 0 5
0 10 -6 8 -8 8 -10 0 -10 -7 0 -7 0 -10 4 l-3 4 -17 0 -16 0 -6 6 c-6 6 -6 6
-4 8 1 2 3 2 18 2 l17 0 3 -4z"/><path d="M210 214 c-3 -2 -3 -10 0 -12 2 -3 10 -3 12 0 3 2 3 10 0 12 -2 3
-10 3 -12 0z"/></g>
  <g transform="scale(0.125 0.125) translate(0.000000,512.000000) scale(1.000000,-1.000000)" fill="#054139" stroke="none"><path d="M210 254 c-1 -1 -2 -3 -2 -4 0 -1 -1 -2 -2 -2 -3 0 -6 -3 -6 -6 0 -1
-1 -2 -2 -2 -3 0 -6 -3 -6 -6 0 -1 -1 -2 -2 -2 -2 0 -4 -1 -5 -2 -1 -2 -1 -2
1 -4 2 -2 2 -2 4 -1 1 1 2 3 2 5 0 1 1 2 2 2 3 0 6 3 6 6 0 1 1 2 2 2 3 0 6 3
6 6 0 2 1 2 4 2 4 0 4 0 4 -2 0 -6 1 -6 32 -6 l28 0 12 -12 c12 -12 12 -12 14
-10 1 1 2 3 2 6 0 4 0 4 -10 14 -10 10 -10 10 -14 10 -4 0 -5 0 -8 4 l-3 4
-21 0 -21 0 -3 -4 c-4 -5 -8 -6 -8 -2 0 2 -3 6 -4 6 0 0 -1 -1 -2 -2z"/><path d="M162 222 c-1 -1 -2 -3 -2 -4 0 -1 -1 -2 -2 -2 -2 0 -4 -1 -5 -2 -1
-2 -1 -2 1 -4 2 -2 2 -2 4 -1 1 1 2 3 2 5 0 2 0 2 8 2 8 0 8 0 8 -2 0 -2 1 -4
2 -5 2 -1 2 -1 4 1 2 2 2 2 1 4 -1 1 -3 2 -5 2 -1 0 -2 1 -2 2 0 6 -10 8 -14
4z"/><path d="M217 206 c-1 -2 -1 -2 1 -4 l2 -2 2 2 c2 2 2 2 1 4 -1 1 -3 2 -3 2 0
0 -2 -1 -3 -2z"/><path d="M280 204 l-3 -4 -21 0 -20 0 -10 -10 -10 -10 14 -14 14 -14 22 0 22
0 0 -6 c0 -9 -1 -10 -10 -10 -6 0 -6 0 -6 2 0 6 -1 6 -30 6 -25 0 -26 0 -26 2
0 1 -5 7 -14 16 l-14 14 -6 0 c-5 0 -6 0 -6 2 0 1 -4 6 -10 12 -10 10 -10 10
-12 8 -1 -1 -2 -3 -2 -6 0 -4 0 -5 6 -10 l6 -6 6 0 c5 0 6 0 6 -2 0 -2 3 -5 8
-10 l8 -8 0 -6 c0 -8 -3 -8 -8 -2 l-4 4 -10 -10 c-14 -14 -15 -14 18 -14 27 0
28 0 28 6 l0 2 28 0 28 0 0 -2 c0 -6 2 -6 28 -6 23 0 25 0 26 2 2 2 2 2 -4 8
l-6 6 -8 0 -9 0 -3 4 c-2 3 -4 4 -6 4 -1 0 -2 1 -2 2 0 4 3 6 8 6 4 0 5 0 8 4
3 4 4 4 8 4 4 0 5 0 8 4 l3 4 21 0 c19 0 21 0 23 2 1 2 1 2 0 4 -2 2 -4 2 -19
2 l-16 0 -6 6 c-6 6 -6 6 -4 8 1 2 3 2 18 2 l17 0 3 -4 c3 -4 3 -4 10 -4 6 0
6 0 6 -2 0 -2 1 -4 2 -5 2 -1 2 -1 4 1 2 2 2 2 1 4 -1 1 -3 2 -5 2 -1 0 -2 1
-2 2 0 1 -2 5 -6 8 l-6 6 -24 0 -25 0 -3 -4 -3 -4 -9 0 -9 0 -3 4 c-2 2 -4 4
-4 4 0 0 -2 -2 -4 -4z m-64 -64 l0 -4 -10 0 c-11 0 -14 1 -14 6 0 2 0 2 12 2
l12 0 0 -4z"/></g>
  <g transform="scale(0.125 0.125) translate(0.000000,512.000000) scale(1.000000,-1.000000)" fill="#55948b" stroke="none"><path d="M222 250 c-6 -6 -6 -6 -4 -8 1 -2 3 -2 30 -2 l28 0 12 -12 c12 -12
12 -12 14 -10 1 1 2 3 2 6 0 4 0 4 -10 14 -10 10 -10 10 -14 10 -4 0 -5 0 -8
4 l-3 4 -21 0 -20 0 -6 -6z"/><path d="M162 222 c-1 -1 -2 -3 -2 -4 0 -1 -1 -2 -2 -2 -2 0 -4 -1 -5 -2 -1
-2 -1 -2 1 -4 2 -2 2 -2 4 -1 1 1 2 3 2 5 0 2 0 2 8 2 8 0 8 0 8 -2 0 -2 1 -4
2 -5 2 -1 2 -1 4 1 2 2 2 2 1 4 -1 1 -3 2 -5 2 -1 0 -2 1 -2 2 0 6 -10 8 -14
4z"/><path d="M217 206 c-1 -2 -1 -2 1 -4 l2 -2 2 2 c2 2 2 2 1 4 -1 1 -3 2 -3 2 0
0 -2 -1 -3 -2z"/><path d="M280 204 l-3 -4 -21 0 -20 0 -10 -10 -10 -10 10 -10 10 -10 32 0 33
0 3 4 c3 4 4 4 8 4 6 0 16 10 16 16 0 4 0 5 -4 8 -4 4 -4 4 -3 6 2 2 3 2 19 2
l17 0 3 -4 c3 -4 3 -4 10 -4 6 0 6 0 6 -2 0 -2 1 -4 2 -5 2 -1 2 -1 4 1 2 2 2
2 1 4 -1 1 -3 2 -5 2 -1 0 -2 1 -2 2 0 1 -2 5 -6 8 l-6 6 -24 0 -25 0 -3 -4
-3 -4 -9 0 -9 0 -3 4 c-2 2 -4 4 -4 4 0 0 -2 -2 -4 -4z"/><path d="M170 142 c-14 -14 -15 -14 18 -14 23 0 25 0 27 2 1 2 1 2 0 4 -2 2
-4 2 -11 2 l-8 0 -8 8 c-4 4 -8 8 -8 8 0 0 -5 -5 -10 -10z"/><path d="M290 150 c-1 -1 -2 -3 -2 -6 0 -6 -2 -8 -8 -8 -6 0 -9 -3 -6 -6 2 -3
50 -3 52 0 2 2 2 2 -4 8 l-6 6 -8 0 -9 0 -3 4 c-4 5 -4 5 -6 2z"/></g>
  <g transform="scale(0.125 0.125) translate(0.000000,512.000000) scale(1.000000,-1.000000)" fill="#251700" stroke="none"><path d="M217 206 c-1 -2 -1 -2 1 -4 l2 -2 2 2 c2 2 2 2 1 4 -1 1 -3 2 -3 2 0
0 -2 -1 -3 -2z"/><path d="M280 204 l-3 -4 -21 0 -20 0 -10 -10 -10 -10 10 -10 10 -10 32 0 33
0 3 4 c3 4 4 4 8 4 6 0 16 10 16 16 0 4 -1 5 -6 10 l-6 6 -12 0 -13 0 -3 4
c-2 2 -4 4 -4 4 0 0 -2 -2 -4 -4z"/><path d="M170 142 c-14 -14 -15 -14 18 -14 23 0 25 0 27 2 1 2 1 2 0 4 -2 2
-4 2 -11 2 l-8 0 -8 8 c-4 4 -8 8 -8 8 0 0 -5 -5 -10 -10z"/><path d="M290 150 c-1 -1 -2 -3 -2 -6 0 -6 -2 -8 -8 -8 -6 0 -9 -3 -6 -6 2 -3
50 -3 52 0 2 2 2 2 -4 8 l-6 6 -8 0 -9 0 -3 4 c-4 5 -4 5 -6 2z"/></g>
  <g transform="scale(0.125 0.125) translate(0.000000,512.000000) scale(1.000000,-1.000000)" fill="#aa7f38" stroke="none"><path d="M217 206 c-1 -2 -1 -2 1 -4 l2 -2 2 2 c2 2 2 2 1 4 -1 1 -3 2 -3 2 0
0 -2 -1 -3 -2z"/><path d="M281 206 c-1 -2 -1 -2 1 -4 l2 -2 2 2 c2 2 2 2 1 4 -1 1 -3 2 -3 2 0
0 -2 -1 -3 -2z"/><path d="M230 186 l-6 -6 6 -6 6 -6 32 0 33 0 3 4 c3 4 4 4 8 4 6 0 8 2 8 8 0
8 2 8 -44 8 l-40 0 -6 -6z"/><path d="M290 150 c-1 -1 -2 -3 -2 -6 0 -6 -2 -8 -8 -8 -6 0 -9 -3 -6 -6 1 -2
3 -2 22 -2 19 0 21 0 23 2 2 3 -1 6 -7 6 -4 0 -5 0 -12 8 -9 9 -8 9 -10 6z"/><path d="M174 138 c-6 -6 -6 -6 -4 -8 2 -3 34 -3 37 0 2 3 -1 6 -7 6 -4 0 -5
0 -8 4 -3 4 -4 4 -8 4 -4 0 -5 -1 -10 -6z"/></g>
  <g transform="scale(0.125 0.125) translate(0.000000,512.000000) scale(1.000000,-1.000000)" fill="#ecc687" stroke="none"><path d="M217 206 c-1 -2 -1 -2 1 -4 l2 -2 2 2 c2 2 2 2 1 4 -1 1 -3 2 -3 2 0
0 -2 -1 -3 -2z"/><path d="M281 206 c-1 -2 -1 -2 1 -4 l2 -2 2 2 c2 2 2 2 1 4 -1 1 -3 2 -3 2 0
0 -2 -1 -3 -2z"/><path d="M234 190 c-1 -1 -2 -3 -2 -4 0 -1 -1 -2 -2 -2 -2 0 -4 -1 -4 -2 -2
-2 -2 -2 0 -4 0 -1 2 -2 4 -2 1 0 2 -1 2 -2 0 -6 2 -6 24 -6 19 0 21 0 23 2 1
2 1 2 0 4 -2 2 -4 2 -25 2 l-22 0 0 4 0 4 38 0 39 0 3 -4 c4 -4 4 -4 6 -3 3 3
3 11 0 13 -3 3 -82 3 -84 0z"/><path d="M290 150 c-2 -2 -2 -2 0 -4 0 -1 2 -2 4 -2 1 0 2 -1 2 -2 0 -3 3 -6
6 -6 1 0 2 -1 2 -2 0 -6 10 -8 15 -4 3 3 -1 6 -9 6 -6 0 -6 0 -6 2 0 3 -3 6
-6 6 -1 0 -2 1 -2 2 0 2 -3 6 -4 6 0 0 -2 -1 -2 -2z"/><path d="M178 142 c-1 -1 -2 -3 -2 -4 0 -1 -1 -2 -2 -2 -2 0 -4 -1 -5 -2 -1
-2 -1 -2 1 -4 2 -2 2 -2 4 -1 1 1 2 3 2 5 0 1 1 2 2 2 2 0 4 1 5 2 1 2 1 2 0
4 -3 2 -3 2 -5 0z"/><path d="M201 134 c-1 -2 -1 -2 1 -4 l2 -2 2 2 c2 2 2 2 1 4 -1 1 -3 2 -3 2 0
0 -2 -1 -3 -2z"/><path d="M273 134 c-1 -2 -1 -2 1 -4 l2 -2 2 2 c2 2 2 2 1 4 -1 1 -3 2 -3 2 0
0 -2 -1 -3 -2z"/></g>
  <g transform="scale(0.125 0.125) translate(0.000000,512.000000) scale(1.000000,-1.000000)" fill="#674309" stroke="none"><path d="M217 206 c-1 -2 -1 -2 1 -4 l2 -2 2 2 c2 2 2 2 1 4 -1 1 -3 2 -3 2 0
0 -2 -1 -3 -2z"/><path d="M281 206 c-1 -2 -1 -2 1 -4 l2 -2 2 2 c2 2 2 2 1 4 -1 1 -3 2 -3 2 0
0 -2 -1 -3 -2z"/><path d="M226 182 c-2 -2 -2 -2 0 -4 0 -1 2 -2 4 -2 1 0 2 -1 2 -2 0 -6 2 -6
24 -6 19 0 21 0 23 2 1 2 1 2 0 4 -2 2 -4 2 -25 2 l-22 0 0 2 c0 2 -3 6 -4 6
0 0 -2 -1 -2 -2z"/><path d="M201 134 c-1 -2 -1 -2 1 -4 l2 -2 2 2 c2 2 2 2 1 4 -1 1 -3 2 -3 2 0
0 -2 -1 -3 -2z"/><path d="M273 134 c-1 -2 -1 -2 1 -4 l2 -2 2 2 c2 2 2 2 1 4 -1 1 -3 2 -3 2 0
0 -2 -1 -3 -2z"/></g>
  <g transform="scale(0.125 0.125) translate(0.000000,512.000000) scale(1.000000,-1.000000)" fill="#afd5d0" stroke="none"><path d="M217 206 c-1 -2 -1 -2 1 -4 l2 -2 2 2 c2 2 2 2 1 4 -1 1 -3 2 -3 2 0
0 -2 -1 -3 -2z"/><path d="M281 206 c-1 -2 -1 -2 1 -4 l2 -2 2 2 c2 2 2 2 1 4 -1 1 -3 2 -3 2 0
0 -2 -1 -3 -2z"/></g>
</svg>
