<?xml version="1.0" encoding="UTF-8"?>
<svg xmlns="http://www.w3.org/2000/svg" viewBox="0 0 48 48" width="48" height="48">
  <g transform="scale(0.062500 0.062500) translate(0.000000,768.000000) scale(1.000000,-1.000000)" fill="#99795a" stroke="none"><path d="M197.67 394.33 C196.58 393.25 196.91 389.49 198.20 388.20 C198.86 387.54 200.66 387.00 202.20 387.00 C204.47 387.00 205.00 387.44 205.00 389.35 C205.00 393.09 199.90 396.56 197.67 394.33 Z M540.93 388.61 C540.62 388.29 530.05 387.59 517.43 387.06 C504.82 386.52 492.72 385.56 490.55 384.94 C485.54 383.49 480.56 378.55 478.98 373.45 C478.16 370.82 477.54 357.61 477.12 334.00 C476.40 293.08 477.11 296.12 465.94 285.58 C457.82 277.92 454.11 276.00 447.43 276.00 C443.50 276.00 442.29 276.51 439.40 279.40 C436.41 282.39 436.00 283.43 436.00 287.95 C436.00 293.80 437.30 296.79 442.59 303.08 C450.10 312.03 451.86 320.53 447.90 328.70 C446.45 331.71 444.39 333.86 441.15 335.76 L436.50 338.50 L369.50 339.03 C295.35 339.62 297.12 339.46 293.10 346.08 C292.02 347.84 290.84 351.58 290.46 354.39 C289.64 360.53 287.91 365.00 285.62 366.90 C283.10 368.99 277.25 366.88 272.82 362.28 L269.18 358.50 L268.89 334.00 C268.63 311.05 270.32 259.74 271.59 252.05 C272.61 245.95 275.62 241.73 287.00 230.50 C301.51 216.17 301.99 215.21 302.03 200.29 C302.10 167.05 305.43 159.50 320.00 159.50 C327.64 159.50 331.05 161.23 334.28 166.75 C336.50 170.53 337.98 182.92 338.01 198.00 C338.05 211.56 339.75 216.73 345.17 219.68 C348.24 221.36 351.85 221.50 392.00 221.50 C431.70 221.50 435.78 221.35 438.73 219.73 C444.58 216.54 445.35 213.65 446.08 192.30 C446.68 174.83 446.95 172.67 449.12 168.30 C455.19 156.05 472.82 156.08 478.90 168.34 C481.21 173.00 481.31 174.15 481.73 199.84 C481.96 214.50 482.59 227.91 483.12 229.64 C483.65 231.37 486.32 235.34 489.05 238.46 C497.70 248.35 497.39 246.96 497.98 278.55 C498.44 303.37 498.71 306.91 500.31 309.35 C504.35 315.52 508.00 313.21 510.53 302.87 C512.52 294.75 517.47 287.40 526.44 279.21 C535.69 270.78 536.52 270.50 552.00 270.50 C567.53 270.50 568.88 270.96 577.85 279.37 C586.08 287.10 591.77 295.28 592.56 300.53 C593.71 308.25 592.47 311.48 585.31 319.31 C581.69 323.26 578.23 326.66 577.62 326.87 C574.78 327.79 574.10 330.15 575.72 333.53 C578.27 338.88 576.09 344.66 568.34 353.09 C564.86 356.90 562.00 360.34 561.99 360.75 C561.95 364.50 559.54 374.97 558.05 377.87 C555.11 383.57 549.81 388.08 545.37 388.67 C543.24 388.95 541.24 388.93 540.93 388.61 Z M207.99 381.98 C206.31 378.83 206.63 364.83 208.49 360.38 C210.69 355.10 213.84 352.00 217.00 352.00 C221.79 352.00 226.80 359.66 227.70 368.38 C228.22 373.46 228.17 373.59 223.72 377.69 C219.78 381.33 214.13 383.98 210.29 383.99 C209.62 384.00 208.58 383.09 207.99 381.98 Z M549.03 378.48 C552.37 376.76 554.07 373.85 556.34 366.00 C557.62 361.54 559.15 359.28 564.42 354.07 C572.62 345.96 573.27 343.56 569.10 336.86 C564.84 330.00 564.48 327.94 566.98 324.75 C568.54 322.76 570.61 321.78 575.10 320.90 C581.64 319.61 586.19 317.03 589.30 312.82 C591.89 309.32 591.97 300.87 589.45 295.45 C587.26 290.74 573.94 277.05 569.00 274.44 C564.66 272.14 545.73 271.19 539.22 272.94 C530.13 275.39 515.15 290.97 512.51 300.72 C511.64 303.90 510.47 308.24 509.89 310.37 C507.55 319.04 500.30 321.67 494.85 315.83 C493.22 314.09 491.23 311.09 490.42 309.16 C486.91 300.75 485.00 313.17 485.06 344.00 C485.12 369.26 485.69 372.97 490.01 376.18 C493.55 378.79 501.56 379.49 511.77 378.07 C519.10 377.05 521.46 377.09 526.50 378.34 C534.56 380.34 545.31 380.41 549.03 378.48 Z M515.51 370.83 C511.44 367.63 509.59 362.63 511.22 359.23 C513.01 355.50 516.33 354.06 520.82 355.07 C528.27 356.75 530.51 364.64 525.08 370.08 C521.59 373.56 519.22 373.75 515.51 370.83 Z M295.35 334.40 C299.50 333.09 308.00 332.62 339.00 331.96 C360.18 331.51 389.43 331.11 404.00 331.07 C418.82 331.02 432.13 330.54 434.20 329.96 C439.18 328.58 442.00 324.82 442.00 319.56 C442.00 315.35 440.12 311.80 433.07 302.68 C425.71 293.16 427.42 276.81 436.34 271.41 C438.79 269.93 441.40 269.50 448.00 269.50 C455.28 269.50 457.10 269.86 460.69 272.00 C465.80 275.05 483.07 291.62 485.60 295.90 C486.61 297.60 487.69 299.00 488.01 299.00 C488.70 299.00 490.69 289.49 491.45 282.50 C492.29 274.86 490.33 257.53 488.04 252.35 C486.94 249.86 483.77 244.99 481.01 241.51 C473.67 232.29 472.64 229.30 473.94 220.95 C475.55 210.55 475.32 177.71 473.61 173.60 C471.80 169.27 468.46 167.00 463.91 167.00 C455.61 167.00 452.01 173.97 453.87 186.46 C456.18 202.00 454.42 212.78 448.43 219.91 C443.15 226.18 441.54 226.40 398.13 226.80 C355.84 227.19 345.14 226.48 339.37 222.92 C335.20 220.34 331.59 214.35 329.60 206.74 C328.27 201.62 328.27 199.88 329.60 191.24 C331.42 179.34 330.79 173.92 327.11 169.80 C321.66 163.70 312.18 166.57 310.09 174.93 C309.60 176.90 308.94 186.45 308.63 196.17 C307.86 219.72 307.39 220.96 293.56 234.98 C280.87 247.86 278.47 252.37 277.03 266.07 C276.48 271.25 276.03 287.20 276.02 301.50 C276.02 326.14 276.79 336.68 279.03 342.57 L280.02 345.17 L285.10 340.60 C288.25 337.77 292.16 335.40 295.35 334.40 Z M360.45 207.59 C356.32 205.80 352.25 200.74 351.29 196.22 C350.86 194.17 350.52 188.20 350.56 182.93 C350.60 174.85 350.99 172.61 353.06 168.49 C356.64 161.33 359.68 159.50 368.00 159.50 C376.33 159.50 379.35 161.32 383.00 168.55 C385.18 172.89 385.49 174.79 385.49 184.00 C385.49 197.86 383.04 203.83 375.80 207.60 C372.43 209.35 364.48 209.35 360.45 207.59 Z M408.45 207.59 C404.32 205.80 400.25 200.74 399.29 196.22 C398.86 194.17 398.52 188.20 398.56 182.93 C398.60 174.85 398.99 172.61 401.06 168.49 C404.64 161.33 407.68 159.50 416.00 159.50 C424.33 159.50 427.35 161.32 431.00 168.55 C433.18 172.89 433.49 174.79 433.49 184.00 C433.49 197.86 431.04 203.83 423.80 207.60 C420.43 209.35 412.48 209.35 408.45 207.59 Z M372.62 176.46 C375.78 171.63 370.35 166.13 365.16 168.91 C362.26 170.46 361.54 173.66 363.44 176.55 C365.66 179.94 370.37 179.90 372.62 176.46 Z M420.62 176.46 C423.78 171.63 418.35 166.13 413.16 168.91 C410.26 170.46 409.54 173.66 411.44 176.55 C413.66 179.94 418.37 179.90 420.62 176.46 Z M358.09 128.69 C352.65 126.79 350.74 123.28 350.25 114.29 C349.71 104.33 351.30 99.26 355.84 96.52 C364.66 91.19 365.24 90.23 366.04 79.67 C366.86 68.79 367.98 66.37 374.02 62.37 C381.48 57.43 379.07 54.68 363.66 50.54 C345.24 45.58 336.55 39.64 336.55 32.00 C336.55 24.33 345.76 18.07 363.86 13.47 C401.70 3.84 463.45 3.90 500.75 13.59 C521.89 19.08 530.94 27.01 526.57 36.20 C520.99 47.93 489.15 55.96 441.50 57.66 L423.50 58.30 L415.00 62.73 C402.88 69.04 402.81 69.14 401.96 80.44 C401.14 91.28 399.85 94.01 394.24 96.88 C387.67 100.23 386.75 101.99 385.94 112.63 C384.87 126.84 381.70 129.89 368.00 129.89 C364.43 129.89 359.97 129.35 358.09 128.69 Z M377.45 126.58 C382.13 124.63 383.28 121.94 384.00 111.29 C384.69 101.06 385.66 99.24 392.24 95.88 C397.95 92.97 399.30 90.08 400.01 79.33 C400.75 68.03 401.20 67.45 414.43 60.62 L423.37 56.00 L438.43 56.00 C463.74 56.00 488.95 52.80 506.19 47.40 C522.84 42.19 529.17 35.17 524.42 27.14 C517.76 15.86 480.13 8.03 432.50 8.01 C408.30 8.00 394.27 9.02 377.31 12.02 C346.48 17.47 333.27 26.19 339.60 36.91 C342.72 42.18 349.61 45.25 372.24 51.47 C376.24 52.57 378.50 53.83 379.68 55.63 C381.76 58.80 380.92 60.41 375.16 64.32 C369.53 68.13 368.73 69.98 367.99 80.90 C367.39 89.76 367.18 90.44 364.34 92.90 C362.67 94.33 359.88 96.28 358.12 97.23 C354.01 99.44 352.00 104.30 352.00 112.00 C352.00 119.98 354.01 124.67 358.21 126.49 C362.47 128.34 373.12 128.39 377.45 126.58 Z"/></g>
  <g transform="scale(0.062500 0.062500) translate(0.000000,768.000000) scale(1.000000,-1.000000)" fill="#5c3f2a" stroke="none"><path d="M478.30 401.00 C469.19 399.09 465.57 395.71 462.83 386.54 C459.85 376.60 458.60 374.52 454.29 372.39 C450.70 370.61 446.17 370.48 369.00 369.98 C324.18 369.69 286.94 369.10 286.26 368.67 C285.32 368.08 285.50 367.24 287.00 365.20 C288.08 363.71 289.58 359.28 290.32 355.33 C291.93 346.72 293.95 343.37 298.83 341.20 C302.06 339.76 310.45 339.50 369.50 339.03 L436.50 338.50 L441.15 335.76 C444.39 333.86 446.45 331.71 447.90 328.70 C451.86 320.53 450.10 312.03 442.59 303.08 C437.30 296.79 436.00 293.80 436.00 287.95 C436.00 283.43 436.41 282.39 439.40 279.40 C442.29 276.51 443.50 276.00 447.43 276.00 C454.11 276.00 457.82 277.92 465.94 285.58 C477.11 296.12 476.40 293.08 477.12 334.00 C477.54 357.61 478.16 370.82 478.98 373.45 C480.56 378.55 485.54 383.49 490.55 384.94 C493.89 385.90 531.01 388.28 544.74 388.41 L548.98 388.45 L544.74 392.84 C536.92 400.96 534.99 401.41 507.00 401.66 C493.52 401.78 480.61 401.48 478.30 401.00 Z M227.70 368.12 C226.71 359.72 222.11 352.57 217.23 351.84 C215.26 351.55 216.75 349.65 228.23 337.81 C242.76 322.83 246.95 320.05 257.89 318.16 C261.41 317.55 265.06 316.35 266.00 315.50 C267.59 314.06 267.75 314.38 268.36 320.12 C268.71 323.52 269.00 333.44 269.00 342.17 L269.00 358.05 L266.29 356.27 C262.81 353.99 252.76 354.00 248.37 356.29 C245.64 357.72 241.68 360.99 230.89 370.74 L228.29 373.10 L227.70 368.12 Z M575.21 332.57 C574.01 329.93 575.14 327.75 578.27 326.66 C579.76 326.14 579.88 326.35 579.02 327.96 C578.46 329.01 578.00 330.77 578.00 331.88 C578.00 334.87 576.44 335.26 575.21 332.57 Z"/></g>
  <g transform="scale(0.062500 0.062500) translate(0.000000,768.000000) scale(1.000000,-1.000000)" fill="#d4a373" stroke="none"><path d="M542.05 364.75 C541.49 364.06 539.81 361.98 538.32 360.12 L535.61 356.75 L538.97 358.48 C541.20 359.64 543.61 360.05 546.16 359.70 C548.27 359.42 550.00 359.38 550.00 359.60 C550.00 360.42 544.65 366.00 543.87 366.00 C543.44 366.00 542.62 365.44 542.05 364.75 Z M497.59 347.36 C497.26 346.52 497.00 343.33 497.00 340.26 C497.00 335.01 497.24 334.47 501.17 330.85 C505.54 326.81 506.89 326.46 505.08 329.85 C503.05 333.65 503.77 340.57 506.53 343.86 L509.07 346.87 L506.28 346.82 C504.75 346.80 502.30 347.25 500.84 347.83 C498.69 348.68 498.05 348.59 497.59 347.36 Z M288.50 321.67 C286.63 320.26 286.48 318.78 286.16 298.83 C285.84 278.40 286.45 270.36 289.28 257.50 C290.30 252.83 290.41 252.70 290.94 255.50 C291.36 257.74 292.51 259.01 295.50 260.50 C299.38 262.44 301.50 262.50 367.04 262.50 C420.80 262.50 433.88 262.74 431.10 263.70 C423.22 266.41 419.75 271.19 417.85 281.95 C416.11 291.84 418.57 301.38 425.49 311.58 C428.53 316.05 428.63 317.59 425.99 319.00 C424.68 319.71 402.71 320.41 362.74 321.03 C329.06 321.55 299.02 322.25 296.00 322.58 C291.92 323.02 289.98 322.78 288.50 321.67 Z M472.38 266.89 C467.86 264.39 463.12 262.65 459.38 262.10 L453.50 261.24 L461.68 261.12 C471.70 260.97 474.71 259.92 476.38 255.96 L477.66 252.90 L478.94 259.70 C479.64 263.44 480.05 267.47 479.86 268.65 C479.51 270.73 479.25 270.67 472.38 266.89 Z M439.25 261.31 C440.21 261.06 441.79 261.06 442.75 261.31 C443.71 261.56 442.93 261.77 441.00 261.77 C439.07 261.77 438.29 261.56 439.25 261.31 Z M463.26 235.86 C462.63 235.23 459.96 234.14 457.31 233.43 C452.67 232.18 452.62 232.13 456.00 232.07 C458.31 232.03 460.52 232.85 462.50 234.47 C464.15 235.82 465.25 236.94 464.95 236.96 C464.65 236.98 463.89 236.49 463.26 235.86 Z M311.54 230.61 C320.34 219.78 319.28 220.57 322.63 222.31 C324.29 223.17 326.29 224.65 327.07 225.60 C327.86 226.55 329.85 228.17 331.50 229.21 L334.50 231.10 L330.50 230.30 C323.84 228.97 317.77 229.55 313.04 231.97 L308.58 234.25 L311.54 230.61 Z M359.22 122.44 C358.00 121.59 357.00 120.44 357.00 119.90 C357.00 119.36 357.98 119.84 359.19 120.96 C362.35 123.90 373.65 123.90 376.81 120.96 C378.02 119.84 379.00 119.36 379.00 119.90 C379.00 122.28 374.38 124.00 368.00 124.00 C363.69 124.00 360.69 123.47 359.22 122.44 Z M356.16 111.97 C355.97 104.36 357.25 101.93 362.97 99.01 C367.41 96.75 370.95 92.66 371.12 89.62 C371.20 88.03 371.34 87.92 371.68 89.18 C372.51 92.33 369.11 96.91 364.05 99.48 C361.35 100.84 358.77 102.53 358.32 103.23 C357.87 103.93 357.24 107.65 356.91 111.50 L356.32 118.50 L356.16 111.97 Z M379.33 111.50 C379.33 107.65 379.51 106.20 379.73 108.27 C379.95 110.35 379.94 113.50 379.72 115.27 C379.50 117.05 379.32 115.35 379.33 111.50 Z M380.09 102.70 C379.91 99.08 383.07 95.00 387.95 92.52 C390.65 91.16 393.23 89.47 393.68 88.77 C394.13 88.07 394.76 84.12 395.08 80.00 L395.67 72.50 L395.83 79.53 C396.03 87.63 394.84 90.02 389.18 92.91 C384.65 95.22 382.15 97.90 381.03 101.64 C380.53 103.32 380.14 103.76 380.09 102.70 Z M372.17 80.17 C372.01 73.30 372.18 72.68 374.86 70.17 C376.43 68.70 379.23 66.60 381.09 65.49 C387.68 61.57 387.18 53.74 380.11 50.00 C378.12 48.95 376.86 48.07 377.30 48.04 C379.00 47.95 383.95 51.10 385.44 53.22 C388.88 58.13 386.70 63.76 379.91 67.45 C377.25 68.90 374.71 70.63 374.28 71.30 C373.85 71.96 373.24 75.88 372.92 80.00 L372.33 87.50 L372.17 80.17 Z M396.09 70.70 C395.88 66.43 399.04 63.02 406.77 59.15 C411.02 57.01 416.07 54.42 418.00 53.39 C421.08 51.73 423.96 51.49 442.00 51.38 L462.50 51.27 L442.00 51.96 L421.50 52.65 L411.38 57.85 C400.49 63.45 398.36 65.20 397.03 69.64 C396.53 71.32 396.14 71.76 396.09 70.70 Z M465.25 50.28 C466.76 50.05 469.24 50.05 470.75 50.28 C472.26 50.51 471.02 50.70 468.00 50.70 C464.98 50.70 463.74 50.51 465.25 50.28 Z M475.25 49.31 C476.21 49.06 477.79 49.06 478.75 49.31 C479.71 49.56 478.93 49.77 477.00 49.77 C475.07 49.77 474.29 49.56 475.25 49.31 Z M482.27 48.31 C483.24 48.05 484.59 48.07 485.27 48.34 C485.95 48.62 485.15 48.83 483.50 48.81 C481.85 48.78 481.30 48.56 482.27 48.31 Z M373.81 47.32 C374.53 47.03 375.40 47.06 375.73 47.40 C376.06 47.73 375.47 47.96 374.42 47.92 C373.25 47.87 373.01 47.64 373.81 47.32 Z M487.75 47.34 C488.44 47.06 489.56 47.06 490.25 47.34 C490.94 47.62 490.38 47.84 489.00 47.84 C487.62 47.84 487.06 47.62 487.75 47.34 Z M368.75 46.34 C369.44 46.06 370.56 46.06 371.25 46.34 C371.94 46.62 371.38 46.84 370.00 46.84 C368.62 46.84 368.06 46.62 368.75 46.34 Z M492.75 46.34 C493.44 46.06 494.56 46.06 495.25 46.34 C495.94 46.62 495.38 46.84 494.00 46.84 C492.62 46.84 492.06 46.62 492.75 46.34 Z M362.50 45.00 C361.24 44.46 361.05 44.14 362.00 44.14 C362.82 44.14 364.40 44.53 365.50 45.00 C366.76 45.54 366.95 45.86 366.00 45.86 C365.18 45.86 363.60 45.47 362.50 45.00 Z M502.46 43.95 C505.73 42.92 508.59 42.26 508.81 42.47 C509.27 42.94 499.12 46.04 497.57 45.91 C496.98 45.86 499.18 44.98 502.46 43.95 Z M353.50 42.05 C348.23 39.56 349.24 39.51 355.50 41.95 C358.25 43.03 359.82 43.92 359.00 43.93 C358.18 43.94 355.70 43.10 353.50 42.05 Z M511.00 41.00 C511.82 40.47 512.95 40.03 513.50 40.03 C514.05 40.03 513.83 40.47 513.00 41.00 C512.17 41.53 511.05 41.97 510.50 41.97 C509.95 41.97 510.18 41.53 511.00 41.00 Z M344.92 37.08 C343.32 35.47 342.00 33.32 342.00 32.30 C342.00 29.88 344.53 26.32 347.30 24.85 C348.77 24.08 348.41 24.71 346.25 26.75 C342.18 30.58 342.14 33.39 346.11 37.10 C347.81 38.69 348.90 40.00 348.53 40.00 C348.15 40.00 346.53 38.68 344.92 37.08 Z M517.75 37.32 C519.54 35.60 521.00 33.21 521.00 32.00 C521.00 30.79 519.54 28.40 517.75 26.68 C515.28 24.30 515.10 23.93 517.00 25.14 C518.38 26.01 520.17 27.91 521.00 29.36 C522.33 31.71 522.33 32.29 521.00 34.64 C520.17 36.09 518.38 37.99 517.00 38.86 C515.10 40.07 515.28 39.70 517.75 37.32 Z M353.50 21.95 C355.70 20.90 358.18 20.06 359.00 20.07 C359.82 20.08 358.25 20.97 355.50 22.05 C349.24 24.49 348.23 24.44 353.50 21.95 Z M511.00 23.00 C510.18 22.47 509.95 22.03 510.50 22.03 C511.05 22.03 512.17 22.47 513.00 23.00 C513.83 23.53 514.05 23.97 513.50 23.97 C512.95 23.97 511.82 23.53 511.00 23.00 Z M505.50 21.00 C504.18 20.43 504.01 20.12 505.00 20.09 C505.82 20.06 507.18 20.47 508.00 21.00 C509.83 22.18 508.25 22.18 505.50 21.00 Z M362.50 19.00 C363.60 18.53 365.18 18.14 366.00 18.14 C366.95 18.14 366.76 18.46 365.50 19.00 C364.40 19.47 362.82 19.86 362.00 19.86 C361.05 19.86 361.24 19.54 362.50 19.00 Z M498.50 19.00 C497.24 18.46 497.05 18.14 498.00 18.14 C498.82 18.14 500.40 18.53 501.50 19.00 C502.76 19.54 502.95 19.86 502.00 19.86 C501.18 19.86 499.60 19.47 498.50 19.00 Z M368.75 17.34 C369.44 17.06 370.56 17.06 371.25 17.34 C371.94 17.62 371.38 17.84 370.00 17.84 C368.62 17.84 368.06 17.62 368.75 17.34 Z M492.75 17.34 C493.44 17.06 494.56 17.06 495.25 17.34 C495.94 17.62 495.38 17.84 494.00 17.84 C492.62 17.84 492.06 17.62 492.75 17.34 Z M373.75 16.34 C374.44 16.06 375.56 16.06 376.25 16.34 C376.94 16.62 376.38 16.84 375.00 16.84 C373.62 16.84 373.06 16.62 373.75 16.34 Z M487.75 16.34 C488.44 16.06 489.56 16.06 490.25 16.34 C490.94 16.62 490.38 16.84 489.00 16.84 C487.62 16.84 487.06 16.62 487.75 16.34 Z M381.50 14.94 C383.70 14.49 386.62 14.14 388.00 14.17 C389.60 14.21 389.07 14.53 386.50 15.06 C384.30 15.51 381.38 15.86 380.00 15.83 C378.40 15.79 378.93 15.47 381.50 14.94 Z M481.25 15.31 C482.21 15.06 483.79 15.06 484.75 15.31 C485.71 15.56 484.93 15.77 483.00 15.77 C481.07 15.77 480.29 15.56 481.25 15.31 Z M474.25 14.31 C475.21 14.06 476.79 14.06 477.75 14.31 C478.71 14.56 477.93 14.77 476.00 14.77 C474.07 14.77 473.29 14.56 474.25 14.31 Z M393.25 13.28 C394.76 13.05 397.24 13.05 398.75 13.28 C400.26 13.51 399.02 13.70 396.00 13.70 C392.98 13.70 391.74 13.51 393.25 13.28 Z M465.26 13.28 C466.78 13.05 469.03 13.06 470.26 13.30 C471.49 13.53 470.25 13.72 467.50 13.71 C464.75 13.71 463.74 13.51 465.26 13.28 Z M416.75 12.25 C425.14 12.08 438.86 12.08 447.25 12.25 C455.64 12.42 448.77 12.56 432.00 12.56 C415.23 12.56 408.36 12.42 416.75 12.25 Z"/></g>
  <g transform="scale(0.062500 0.062500) translate(0.000000,768.000000) scale(1.000000,-1.000000)" fill="#b58c64" stroke="none"><path d="M526.50 378.34 C521.46 377.09 519.10 377.05 511.77 378.07 C501.56 379.49 493.55 378.79 490.01 376.18 C485.69 372.97 485.12 369.26 485.06 344.00 C485.00 313.17 486.91 300.75 490.42 309.16 C491.23 311.09 493.22 314.09 494.85 315.83 C500.30 321.67 507.55 319.04 509.89 310.37 C510.47 308.24 511.64 303.90 512.51 300.72 C515.15 290.97 530.13 275.39 539.22 272.94 C545.73 271.19 564.66 272.14 569.00 274.44 C573.94 277.05 587.26 290.74 589.45 295.45 C591.97 300.87 591.89 309.32 589.30 312.82 C586.19 317.03 581.64 319.61 575.10 320.90 C570.61 321.78 568.54 322.76 566.98 324.75 C564.48 327.94 564.84 330.00 569.10 336.86 C573.27 343.56 572.62 345.96 564.42 354.07 C559.15 359.28 557.62 361.54 556.34 366.00 C554.07 373.85 552.37 376.76 549.03 378.48 C545.31 380.41 534.56 380.34 526.50 378.34 Z M547.20 373.64 C548.14 372.93 550.53 369.15 552.51 365.25 C554.57 361.20 557.55 357.06 559.45 355.61 C569.85 347.68 571.16 343.76 566.00 336.00 C560.00 326.98 562.44 322.02 574.30 319.09 C583.68 316.77 586.71 314.94 588.58 310.45 C591.97 302.34 589.35 295.45 578.87 284.87 C568.83 274.74 567.00 274.00 552.00 274.00 C537.08 274.00 535.20 274.75 525.34 284.58 C517.10 292.80 514.91 296.63 512.64 306.89 C509.96 318.90 505.52 324.00 497.70 324.00 C495.53 324.00 493.63 324.75 492.40 326.10 C490.71 327.98 490.47 330.17 490.18 346.27 C490.01 356.21 490.14 365.40 490.46 366.70 C491.46 370.67 494.60 373.00 498.96 373.00 C503.79 373.00 505.00 371.23 505.00 364.13 C505.00 361.38 505.45 357.95 505.99 356.52 C507.32 353.02 513.15 350.61 518.29 351.43 C527.69 352.93 533.99 358.89 534.00 366.30 C534.00 373.20 541.96 377.63 547.20 373.64 Z M525.08 370.08 C530.51 364.64 528.27 356.75 520.82 355.07 C513.66 353.46 508.66 358.85 511.35 365.29 C512.97 369.17 517.37 373.00 520.21 373.00 C521.28 373.00 523.47 371.68 525.08 370.08 Z M279.03 342.57 C276.79 336.68 276.02 326.14 276.02 301.50 C276.03 287.20 276.48 271.25 277.03 266.07 C278.47 252.37 280.87 247.86 293.56 234.98 C307.39 220.96 307.86 219.72 308.63 196.17 C308.94 186.45 309.60 176.90 310.09 174.93 C312.18 166.57 321.66 163.70 327.11 169.80 C330.79 173.92 331.42 179.34 329.60 191.24 C328.27 199.88 328.27 201.62 329.60 206.74 C331.59 214.35 335.20 220.34 339.37 222.92 C345.14 226.48 355.84 227.19 398.13 226.80 C433.54 226.47 437.93 226.25 441.75 224.61 C452.75 219.88 456.90 206.83 453.87 186.46 C452.01 173.97 455.61 167.00 463.91 167.00 C468.46 167.00 471.80 169.27 473.61 173.60 C475.32 177.71 475.55 210.55 473.94 220.95 C472.64 229.30 473.67 232.29 481.01 241.51 C483.77 244.99 486.94 249.86 488.04 252.35 C490.33 257.53 492.29 274.86 491.45 282.50 C490.69 289.49 488.70 299.00 488.01 299.00 C487.69 299.00 486.61 297.60 485.60 295.90 C483.07 291.62 465.80 275.05 460.69 272.00 C457.10 269.86 455.28 269.50 448.00 269.50 C441.40 269.50 438.79 269.93 436.34 271.41 C427.42 276.81 425.71 293.16 433.07 302.68 C440.12 311.80 442.00 315.35 442.00 319.56 C442.00 324.82 439.18 328.58 434.20 329.96 C432.13 330.54 418.82 331.02 404.00 331.07 C389.43 331.11 360.18 331.51 339.00 331.96 C294.90 332.90 293.40 333.14 285.10 340.60 L280.02 345.17 L279.03 342.57 Z M305.00 328.11 C310.77 327.59 340.69 326.85 371.48 326.48 C409.15 326.02 428.61 325.42 430.96 324.65 C437.84 322.38 437.98 317.34 431.40 309.31 C425.77 302.44 423.66 296.62 423.64 287.91 C423.63 277.41 426.52 271.55 433.43 268.04 C437.67 265.89 439.71 265.54 447.93 265.54 C459.66 265.54 464.46 267.43 473.16 275.48 C484.01 285.53 487.55 284.09 486.65 270.00 C485.85 257.51 483.03 250.39 474.90 240.31 C470.80 235.22 467.81 230.49 467.43 228.49 C467.09 226.65 467.48 222.08 468.30 218.33 C469.62 212.33 470.07 204.81 470.29 185.38 C470.40 175.72 465.70 170.25 460.96 174.54 C458.19 177.04 458.42 183.65 461.57 192.37 C464.67 200.97 464.35 203.55 458.99 213.40 C454.71 221.25 452.06 224.40 447.93 226.54 C442.42 229.39 427.30 230.17 386.00 229.75 C342.92 229.30 340.47 229.04 334.15 224.27 C329.87 221.05 322.41 209.55 320.89 203.87 C319.84 199.95 320.00 198.74 322.36 192.19 C323.81 188.17 325.00 183.03 325.00 180.77 C325.00 173.85 320.33 170.77 316.40 175.10 C314.75 176.94 314.42 179.44 313.87 194.35 C312.91 220.51 311.14 225.46 299.13 235.46 C290.91 242.31 286.53 248.05 283.97 255.35 C279.17 269.01 278.56 323.15 283.14 328.67 C284.12 329.85 285.62 330.08 289.46 329.64 C292.23 329.32 299.23 328.63 305.00 328.11 Z M363.44 176.55 C362.49 175.11 362.10 173.26 362.48 172.05 C363.98 167.34 371.12 166.97 373.18 171.49 C375.88 177.43 367.03 182.03 363.44 176.55 Z M411.44 176.55 C410.49 175.11 410.10 173.26 410.48 172.05 C411.98 167.34 419.12 166.97 421.18 171.49 C423.88 177.43 415.03 182.03 411.44 176.55 Z M358.21 126.49 C354.01 124.67 352.00 119.98 352.00 112.00 C352.00 104.30 354.01 99.44 358.12 97.23 C359.88 96.28 362.67 94.33 364.34 92.90 C367.18 90.44 367.39 89.76 367.99 80.90 C368.73 69.98 369.53 68.13 375.16 64.32 C380.92 60.41 381.76 58.80 379.68 55.63 C378.50 53.83 376.24 52.57 372.24 51.47 C349.61 45.25 342.72 42.18 339.60 36.91 C333.27 26.19 346.48 17.47 377.31 12.02 C410.36 6.17 460.56 6.59 491.87 12.97 C519.03 18.51 530.35 26.83 524.40 36.91 C518.11 47.55 480.10 56.00 438.43 56.00 L423.37 56.00 L414.43 60.62 C401.20 67.45 400.75 68.03 400.01 79.33 C399.30 90.08 397.95 92.97 392.24 95.88 C385.66 99.24 384.69 101.06 384.00 111.29 C383.28 121.94 382.13 124.63 377.45 126.58 C373.12 128.39 362.47 128.34 358.21 126.49 Z M376.39 123.87 C379.69 122.36 380.78 119.11 381.26 109.33 C381.74 99.59 383.04 97.19 389.90 93.46 C395.83 90.23 396.73 88.27 397.26 77.33 C397.52 72.09 398.24 68.29 399.27 66.71 C400.17 65.33 405.44 61.92 411.19 58.99 L421.50 53.73 L444.50 52.96 C492.05 51.39 523.00 42.94 523.00 31.55 C523.00 23.10 500.41 15.49 464.78 11.95 C448.28 10.30 398.86 11.23 385.00 13.44 C357.03 17.91 341.00 24.67 341.00 32.00 C341.00 37.66 350.46 42.93 368.76 47.48 C378.95 50.01 382.53 51.88 384.19 55.51 C385.90 59.26 383.70 63.17 378.00 66.50 C372.15 69.92 371.27 71.88 370.74 82.67 C370.26 92.40 368.96 94.81 362.14 98.52 C356.29 101.70 355.00 104.14 355.00 112.00 C355.00 118.78 356.32 122.36 359.36 123.83 C362.27 125.24 373.33 125.26 376.39 123.87 Z"/></g>
  <g transform="scale(0.062500 0.062500) translate(0.000000,768.000000) scale(1.000000,-1.000000)" fill="#c99e72" stroke="none"><path d="M536.45 372.55 C534.71 370.80 534.00 368.99 534.00 366.30 C533.99 358.89 527.69 352.93 518.29 351.43 C513.15 350.61 507.32 353.02 505.99 356.52 C505.45 357.95 505.00 361.38 505.00 364.13 C505.00 371.23 503.79 373.00 498.96 373.00 C494.60 373.00 491.46 370.67 490.46 366.70 C490.14 365.40 490.01 356.21 490.18 346.27 C490.47 330.17 490.71 327.98 492.40 326.10 C493.63 324.75 495.53 324.00 497.70 324.00 C505.52 324.00 509.96 318.90 512.64 306.89 C514.91 296.63 517.10 292.80 525.34 284.58 C533.16 276.78 538.00 273.94 543.15 274.12 C546.63 274.24 546.12 274.44 539.68 275.49 C536.69 275.98 534.10 277.80 527.85 283.77 C518.22 292.97 515.76 297.03 513.51 307.41 C511.03 318.84 508.63 323.65 502.47 329.57 C497.14 334.69 497.00 334.97 497.00 340.33 C497.00 348.50 497.40 349.10 501.80 347.58 C508.80 345.16 528.43 351.05 536.25 357.91 C538.26 359.68 540.17 361.95 540.49 362.97 C541.61 366.50 544.28 366.33 547.68 362.51 C549.44 360.53 554.21 356.74 558.27 354.09 C563.28 350.82 566.06 348.26 566.95 346.12 C568.18 343.16 568.03 342.59 564.63 337.08 C557.55 325.61 560.84 319.69 575.50 317.54 C581.90 316.60 585.58 314.41 587.48 310.39 C591.26 302.44 588.38 295.46 576.73 284.31 C569.97 277.84 567.37 275.99 564.34 275.50 C557.88 274.44 557.37 274.24 560.85 274.12 C566.07 273.94 570.88 276.81 578.87 284.87 C589.35 295.45 591.97 302.34 588.58 310.45 C586.71 314.94 583.68 316.77 574.30 319.09 C562.44 322.02 560.00 326.98 566.00 336.00 C571.16 343.76 569.85 347.68 559.45 355.61 C557.55 357.06 554.57 361.20 552.51 365.25 C550.53 369.15 548.14 372.93 547.20 373.64 C544.35 375.81 539.19 375.28 536.45 372.55 Z M283.14 328.67 C278.56 323.15 279.17 269.01 283.97 255.35 C286.53 248.05 290.91 242.31 299.13 235.46 C311.14 225.46 312.91 220.51 313.87 194.35 C314.42 179.44 314.75 176.94 316.40 175.10 C320.33 170.77 325.00 173.85 325.00 180.77 C325.00 183.03 323.81 188.17 322.36 192.19 C320.00 198.74 319.84 199.95 320.89 203.87 C322.41 209.55 329.87 221.05 334.15 224.27 C340.47 229.04 342.92 229.30 386.00 229.75 C427.30 230.17 442.42 229.39 447.93 226.54 C452.06 224.40 454.71 221.25 458.99 213.40 C464.35 203.55 464.67 200.97 461.57 192.37 C458.42 183.65 458.19 177.04 460.96 174.54 C465.70 170.25 470.40 175.72 470.29 185.38 C470.07 204.81 469.62 212.33 468.30 218.33 C467.48 222.08 467.09 226.65 467.43 228.49 C467.81 230.49 470.80 235.22 474.90 240.31 C483.03 250.39 485.85 257.51 486.65 270.00 C487.55 284.09 484.01 285.53 473.16 275.48 C464.46 267.43 459.66 265.54 447.93 265.54 C439.71 265.54 437.67 265.89 433.43 268.04 C426.52 271.55 423.63 277.41 423.64 287.91 C423.66 296.62 425.77 302.44 431.40 309.31 C437.98 317.34 437.84 322.38 430.96 324.65 C428.61 325.42 409.15 326.02 371.48 326.48 C321.43 327.09 306.84 327.65 289.46 329.64 C285.62 330.08 284.12 329.85 283.14 328.67 Z M362.74 321.03 C402.71 320.41 424.68 319.71 425.99 319.00 C428.63 317.59 428.53 316.05 425.49 311.58 C417.10 299.21 415.20 287.19 419.65 274.57 C422.41 266.74 427.89 263.43 440.63 261.87 C453.41 260.31 463.34 261.91 472.67 267.03 L480.00 271.05 L480.00 267.59 C480.00 262.77 477.25 251.42 475.04 247.08 C474.02 245.08 470.11 240.84 466.35 237.65 L459.50 231.84 L450.00 232.41 C429.12 233.65 378.34 234.09 359.00 233.20 C336.81 232.17 333.07 231.33 327.50 226.07 C325.85 224.51 323.40 222.68 322.06 221.99 C319.46 220.64 319.02 220.99 312.13 230.00 C310.83 231.70 306.49 235.30 302.49 238.01 C294.17 243.62 291.86 246.87 289.68 256.00 C286.50 269.34 285.83 277.53 286.16 298.83 C286.56 323.84 286.46 323.61 296.00 322.58 C299.02 322.25 329.06 321.55 362.74 321.03 Z M359.36 123.83 C356.32 122.36 355.00 118.78 355.00 112.00 C355.00 104.14 356.29 101.70 362.14 98.52 C368.96 94.81 370.26 92.40 370.74 82.67 C371.27 71.88 372.15 69.92 378.00 66.50 C388.67 60.27 386.59 52.29 373.28 48.41 C368.80 47.11 368.75 47.06 372.45 47.59 C385.42 49.47 390.28 59.75 380.99 65.66 C372.50 71.06 372.59 70.91 371.91 81.34 C371.23 91.95 369.84 95.13 364.71 97.85 C362.99 98.76 360.28 100.75 358.68 102.28 C355.90 104.95 355.80 105.36 356.17 112.64 C356.67 122.50 358.23 124.00 368.00 124.00 C378.06 124.00 379.12 122.83 380.04 110.67 C380.84 100.03 382.22 96.87 387.22 94.15 C394.86 90.01 395.42 89.03 396.10 78.53 C396.57 71.14 397.19 68.22 398.70 66.18 C399.79 64.70 405.36 61.05 411.09 58.06 L421.50 52.62 L441.50 52.43 L461.50 52.25 L441.50 52.95 L421.50 53.66 L411.19 58.95 C405.48 61.89 400.17 65.34 399.27 66.71 C398.24 68.29 397.52 72.09 397.26 77.33 C396.73 88.27 395.83 90.23 389.90 93.46 C383.04 97.19 381.74 99.59 381.26 109.33 C380.78 119.11 379.69 122.36 376.39 123.87 C373.33 125.26 362.27 125.24 359.36 123.83 Z M464.26 51.28 C465.78 51.05 468.03 51.06 469.26 51.30 C470.49 51.53 469.25 51.72 466.50 51.71 C463.75 51.71 462.74 51.51 464.26 51.28 Z M474.25 50.31 C475.21 50.06 476.79 50.06 477.75 50.31 C478.71 50.56 477.93 50.77 476.00 50.77 C474.07 50.77 473.29 50.56 474.25 50.31 Z M481.27 49.31 C482.24 49.05 483.59 49.07 484.27 49.34 C484.95 49.62 484.15 49.83 482.50 49.81 C480.85 49.78 480.30 49.56 481.27 49.31 Z M488.50 48.00 C490.15 47.58 492.40 47.23 493.50 47.22 C495.07 47.20 494.96 47.37 493.00 48.00 C491.62 48.44 489.38 48.79 488.00 48.78 C485.75 48.77 485.81 48.69 488.50 48.00 Z M361.00 45.50 C356.33 43.70 358.35 43.67 364.00 45.45 C366.48 46.23 367.60 46.86 366.50 46.86 C365.40 46.85 362.93 46.24 361.00 45.50 Z M498.00 46.00 C501.42 44.90 504.05 44.90 501.50 46.00 C500.40 46.47 498.60 46.85 497.50 46.83 C495.89 46.81 495.99 46.64 498.00 46.00 Z M510.50 41.98 C528.48 34.38 525.19 25.97 501.50 18.93 C498.20 17.95 496.21 17.12 497.08 17.08 C499.04 16.98 510.43 20.67 514.50 22.72 C519.05 25.01 523.00 29.12 523.00 31.55 C523.00 35.15 518.99 39.13 512.33 42.15 C508.87 43.72 505.47 44.99 504.77 44.97 C504.07 44.96 506.65 43.61 510.50 41.98 Z M348.84 40.98 C344.68 38.78 341.00 34.56 341.00 32.00 C341.00 29.37 344.74 25.17 349.05 22.97 C354.86 20.01 355.23 20.64 349.53 23.77 C346.80 25.27 343.87 27.74 343.03 29.25 C341.66 31.72 341.66 32.28 343.03 34.75 C343.87 36.26 346.80 38.73 349.53 40.23 C352.26 41.73 354.05 42.94 353.50 42.93 C352.95 42.92 350.85 42.04 348.84 40.98 Z M361.00 18.50 C362.93 17.76 365.40 17.15 366.50 17.14 C367.60 17.14 366.48 17.77 364.00 18.55 C358.35 20.33 356.33 20.30 361.00 18.50 Z M371.00 16.00 C372.38 15.56 374.62 15.21 376.00 15.22 C378.25 15.23 378.19 15.31 375.50 16.00 C373.85 16.42 371.60 16.77 370.50 16.78 C368.93 16.80 369.04 16.63 371.00 16.00 Z M488.50 16.00 C485.81 15.31 485.75 15.23 488.00 15.22 C489.38 15.21 491.62 15.56 493.00 16.00 C494.96 16.63 495.07 16.80 493.50 16.78 C492.40 16.77 490.15 16.42 488.50 16.00 Z M380.27 14.31 C381.24 14.05 382.59 14.07 383.27 14.34 C383.95 14.62 383.15 14.83 381.50 14.81 C379.85 14.78 379.30 14.56 380.27 14.31 Z M475.50 14.00 C472.10 13.39 471.95 13.27 474.50 13.20 C476.15 13.15 479.30 13.49 481.50 13.94 C484.81 14.63 484.98 14.77 482.50 14.74 C480.85 14.73 477.70 14.39 475.50 14.00 Z M386.25 13.31 C387.21 13.06 388.79 13.06 389.75 13.31 C390.71 13.56 389.93 13.77 388.00 13.77 C386.07 13.77 385.29 13.56 386.25 13.31 Z M395.26 12.28 C396.78 12.05 399.03 12.06 400.26 12.30 C401.49 12.53 400.25 12.72 397.50 12.71 C394.75 12.71 393.74 12.51 395.26 12.28 Z M463.75 12.29 C464.99 12.06 467.01 12.06 468.25 12.29 C469.49 12.53 468.48 12.73 466.00 12.73 C463.52 12.73 462.51 12.53 463.75 12.29 Z M417.31 11.25 C425.46 11.08 438.51 11.08 446.31 11.25 C454.12 11.42 447.45 11.56 431.50 11.56 C415.55 11.56 409.17 11.42 417.31 11.25 Z"/></g>
  <g transform="scale(0.062500 0.062500) translate(0.000000,768.000000) scale(1.000000,-1.000000)" fill="#d2b18e" stroke="none"><path d="M533.34 355.47 C528.79 352.97 521.72 350.12 517.34 349.03 C503.03 345.47 500.62 339.00 507.89 323.69 C510.03 319.19 512.56 311.90 513.50 307.50 C515.75 297.03 518.19 292.99 527.85 283.77 C536.90 275.12 538.44 274.53 552.00 274.53 C565.71 274.53 567.08 275.07 576.73 284.31 C588.38 295.46 591.26 302.44 587.48 310.39 C585.58 314.41 581.90 316.60 575.50 317.54 C560.84 319.69 557.55 325.61 564.63 337.08 C568.00 342.55 568.17 343.18 566.98 346.04 C565.67 349.22 556.86 355.91 550.48 358.57 C545.09 360.82 542.07 360.28 533.34 355.47 Z M555.62 348.38 C561.19 345.73 561.53 343.97 557.91 336.46 C555.47 331.42 554.88 329.10 555.33 326.35 C556.49 319.22 561.78 314.55 569.97 313.45 C580.40 312.04 584.00 309.48 584.00 303.45 C584.00 297.01 571.00 282.52 563.10 280.15 C558.06 278.64 545.79 278.68 540.62 280.23 C535.98 281.62 524.41 292.31 521.58 297.82 C519.39 302.08 514.93 322.50 514.28 331.22 C513.80 337.59 513.93 338.08 516.65 340.80 C519.27 343.43 533.25 348.91 541.00 350.36 C544.95 351.10 551.85 350.16 555.62 348.38 Z M298.81 261.63 C292.35 259.85 291.00 258.49 291.00 253.75 C291.00 246.31 297.19 240.04 312.00 232.46 C318.55 229.11 323.45 228.89 336.49 231.34 C346.88 233.30 398.19 234.23 432.50 233.09 C455.99 232.30 459.52 232.88 467.44 238.87 C476.02 245.35 479.12 253.16 475.09 258.14 C473.26 260.41 472.47 260.53 454.84 261.26 C444.75 261.68 406.57 262.22 370.00 262.47 C317.49 262.83 302.51 262.66 298.81 261.63 Z M424.00 252.05 C451.82 251.26 459.00 250.43 459.00 248.00 C459.00 246.32 452.79 244.82 442.58 244.01 C423.55 242.51 360.61 241.89 337.61 242.97 C315.02 244.03 309.15 244.91 306.96 247.55 C304.74 250.22 307.51 251.44 317.29 252.08 C331.53 253.00 391.23 252.99 424.00 252.05 Z"/></g>
  <g transform="scale(0.062500 0.062500) translate(0.000000,768.000000) scale(1.000000,-1.000000)" fill="#f5d04a" stroke="none"><path d="M359.19 120.96 C357.37 119.27 357.00 117.82 357.00 112.40 C357.00 104.21 357.87 102.60 364.01 99.49 C370.44 96.24 372.11 92.91 372.75 82.06 C373.03 77.35 373.65 72.74 374.13 71.81 C374.61 70.88 377.20 68.93 379.89 67.47 C386.70 63.76 388.89 58.14 385.44 53.22 C383.32 50.19 379.35 48.28 371.29 46.42 C338.73 38.89 333.84 29.03 358.74 21.11 C377.28 15.21 388.94 13.82 424.32 13.27 C465.36 12.63 484.28 14.47 505.26 21.12 C526.31 27.80 526.31 36.19 505.26 42.89 C488.85 48.12 474.49 50.06 446.50 50.87 C425.04 51.48 421.00 51.84 418.00 53.43 C416.07 54.44 411.02 57.01 406.77 59.15 C397.28 63.90 395.95 66.07 395.25 77.94 C394.97 82.65 394.33 87.29 393.83 88.25 C393.34 89.21 390.70 91.13 387.99 92.51 C381.54 95.77 379.99 98.94 379.14 110.59 C378.30 122.03 377.50 122.92 367.94 122.97 C362.69 122.99 360.94 122.59 359.19 120.96 Z M462.95 41.58 C480.63 37.06 480.36 26.85 462.45 22.30 C452.34 19.73 411.66 19.73 401.55 22.30 C383.66 26.85 383.38 37.38 401.05 41.40 C411.38 43.76 412.44 43.82 435.00 43.52 C450.90 43.30 458.18 42.80 462.95 41.58 Z"/></g>
  <g transform="scale(0.062500 0.062500) translate(0.000000,768.000000) scale(1.000000,-1.000000)" fill="#eadac5" stroke="none"><path d="M541.00 350.36 C533.25 348.91 519.27 343.43 516.65 340.80 C513.93 338.08 513.80 337.59 514.28 331.22 C514.93 322.50 519.39 302.08 521.58 297.82 C524.41 292.31 535.98 281.62 540.62 280.23 C545.79 278.68 558.06 278.64 563.10 280.15 C571.00 282.52 584.00 297.01 584.00 303.45 C584.00 309.48 580.40 312.04 569.97 313.45 C561.78 314.55 556.49 319.22 555.33 326.35 C554.88 329.10 555.47 331.42 557.91 336.46 C561.53 343.97 561.19 345.73 555.62 348.38 C551.85 350.16 544.95 351.10 541.00 350.36 Z M317.29 252.08 C307.51 251.44 304.74 250.22 306.96 247.55 C309.15 244.91 315.02 244.03 337.61 242.97 C360.61 241.89 423.55 242.51 442.58 244.01 C452.79 244.82 459.00 246.32 459.00 248.00 C459.00 250.43 451.82 251.26 424.00 252.05 C391.23 252.99 331.53 253.00 317.29 252.08 Z"/></g>
  <g transform="scale(0.062500 0.062500) translate(0.000000,768.000000) scale(1.000000,-1.000000)" fill="#fff37a" stroke="none"><path d="M410.50 43.34 C395.53 41.01 388.00 37.21 388.00 32.00 C388.00 27.98 392.85 24.51 401.55 22.30 C411.66 19.73 452.34 19.73 462.45 22.30 C475.45 25.60 479.79 32.01 472.70 37.41 C466.85 41.88 458.70 43.19 435.00 43.52 C423.18 43.68 412.15 43.60 410.50 43.34 Z"/></g>
</svg>
