<?xml version="1.0" encoding="UTF-8"?>
<svg xmlns="http://www.w3.org/2000/svg" viewBox="0 0 32 32" width="32" height="32">
  <g transform="scale(0.125 0.125) translate(0.000000,256.000000) scale(1.000000,-1.000000)" fill="#2f2f2e" stroke="none"><path d="M130 86 c-2 -1 -2 -4 -2 -18 0 -20 0 -20 -12 -20 -12 0 -12 0 -12 16
0 15 -1 16 -8 16 -4 0 -5 -1 -10 -6 l-6 -6 0 -12 0 -13 4 -3 4 -3 0 -19 0 -18
8 0 c8 0 8 0 8 2 0 2 1 4 2 5 2 1 2 1 4 0 1 -1 2 -3 2 -5 0 -2 0 -2 8 -2 8 0
8 0 8 2 0 2 1 4 2 5 2 1 2 1 4 0 1 -1 2 -3 2 -5 0 -2 0 -2 8 -2 8 0 8 0 8 2 0
2 1 4 2 5 2 1 2 1 4 0 1 -1 2 -3 2 -5 0 -2 0 -2 8 -2 l8 0 0 18 0 19 4 3 4 3
0 9 0 9 -4 3 -4 3 0 9 c0 10 -1 12 -8 12 -4 0 -5 0 -8 -4 -3 -4 -4 -4 -8 -4
-4 0 -5 0 -8 4 -3 4 -4 4 -8 4 -3 0 -5 -1 -6 -2z"/></g>
  <g transform="scale(0.125 0.125) translate(0.000000,256.000000) scale(1.000000,-1.000000)" fill="#e0e0e0" stroke="none"><path d="M138 78 c-2 -1 -2 -4 -2 -18 0 -22 2 -20 -22 -20 l-18 0 0 14 c0 13
0 15 -2 17 -2 1 -2 1 -4 0 -2 -2 -2 -4 -2 -15 0 -14 1 -16 6 -16 2 0 2 0 2
-14 0 -13 0 -15 2 -17 3 -2 6 1 6 7 0 3 1 5 2 7 2 1 2 1 6 -3 l4 -4 8 0 9 0 3
4 c4 4 4 4 6 3 1 -2 2 -4 2 -7 0 -3 1 -5 2 -7 2 -1 2 -1 6 3 l4 5 4 -5 c4 -4
4 -4 6 -3 2 2 2 3 2 15 l0 13 4 3 4 3 0 9 0 8 -6 6 -6 6 -8 0 -9 0 -3 4 c-4 5
-4 5 -6 2z m21 -16 c1 -2 1 -2 -1 -4 l-2 -2 -2 2 c-2 2 -2 2 -1 4 1 1 3 2 3 2
0 0 2 -1 3 -2z"/></g>
  <g transform="scale(0.125 0.125) translate(0.000000,256.000000) scale(1.000000,-1.000000)" fill="#b5b5b5" stroke="none"><path d="M138 78 c-3 -3 -3 -34 0 -36 3 -3 34 -3 37 0 1 2 1 2 0 4 -2 2 -4 2
-15 2 -17 0 -16 -1 -16 16 0 11 0 13 -2 14 -2 2 -2 2 -4 0z"/><path d="M162 62 c-3 -3 0 -6 6 -6 6 0 9 3 7 6 -2 1 -4 2 -7 2 -3 0 -5 -1 -6
-2z"/><path d="M153 22 c-1 -2 -1 -2 1 -4 l2 -2 2 2 c2 2 2 2 1 4 -1 1 -3 2 -3 2 0
0 -2 -1 -3 -2z"/><path d="M97 14 c-1 -2 -1 -2 1 -4 l2 -2 2 2 c2 2 2 2 1 4 -1 1 -3 2 -3 2 0 0
-2 -1 -3 -2z"/></g>
</svg>
