<?xml version="1.0" encoding="UTF-8"?>
<svg xmlns="http://www.w3.org/2000/svg" viewBox="0 0 32 32" shape-rendering="crispEdges">
<rect x="17" y="21" width="2" height="1" fill="#2f2f2e"/>
<rect x="20" y="21" width="2" height="1" fill="#2f2f2e"/>
<rect x="16" y="22" width="1" height="1" fill="#2f2f2e"/>
<rect x="17" y="22" width="1" height="1" fill="#b5b5b5"/>
<rect x="18" y="22" width="4" height="1" fill="#2f2f2e"/>
<rect x="9" y="23" width="2" height="1" fill="#2f2f2e"/>
<rect x="16" y="23" width="1" height="1" fill="#2f2f2e"/>
<rect x="17" y="23" width="1" height="1" fill="#b5b5b5"/>
<rect x="18" y="23" width="3" height="1" fill="#e0e0e0"/>
<rect x="21" y="23" width="1" height="1" fill="#2f2f2e"/>
<rect x="8" y="24" width="1" height="1" fill="#2f2f2e"/>
<rect x="9" y="24" width="2" height="1" fill="#e0e0e0"/>
<rect x="11" y="24" width="1" height="1" fill="#2f2f2e"/>
<rect x="16" y="24" width="1" height="1" fill="#2f2f2e"/>
<rect x="17" y="24" width="1" height="1" fill="#b5b5b5"/>
<rect x="18" y="24" width="1" height="1" fill="#e0e0e0"/>
<rect x="19" y="24" width="1" height="1" fill="#2f2f2e"/>
<rect x="20" y="24" width="2" height="1" fill="#b5b5b5"/>
<rect x="22" y="24" width="1" height="1" fill="#2f2f2e"/>
<rect x="7" y="25" width="1" height="1" fill="#2f2f2e"/>
<rect x="8" y="25" width="1" height="1" fill="#e0e0e0"/>
<rect x="9" y="25" width="2" height="1" fill="#2f2f2e"/>
<rect x="11" y="25" width="1" height="1" fill="#e0e0e0"/>
<rect x="12" y="25" width="1" height="1" fill="#2f2f2e"/>
<rect x="16" y="25" width="1" height="1" fill="#2f2f2e"/>
<rect x="17" y="25" width="1" height="1" fill="#b5b5b5"/>
<rect x="18" y="25" width="4" height="1" fill="#e0e0e0"/>
<rect x="22" y="25" width="1" height="1" fill="#2f2f2e"/>
<rect x="7" y="26" width="2" height="1" fill="#2f2f2e"/>
<rect x="10" y="26" width="1" height="1" fill="#2f2f2e"/>
<rect x="11" y="26" width="1" height="1" fill="#e0e0e0"/>
<rect x="12" y="26" width="5" height="1" fill="#2f2f2e"/>
<rect x="17" y="26" width="5" height="1" fill="#b5b5b5"/>
<rect x="22" y="26" width="1" height="1" fill="#2f2f2e"/>
<rect x="11" y="27" width="1" height="1" fill="#2f2f2e"/>
<rect x="12" y="27" width="9" height="1" fill="#e0e0e0"/>
<rect x="21" y="27" width="1" height="1" fill="#2f2f2e"/>
<rect x="11" y="28" width="1" height="1" fill="#2f2f2e"/>
<rect x="12" y="28" width="9" height="1" fill="#e0e0e0"/>
<rect x="21" y="28" width="1" height="1" fill="#2f2f2e"/>
<rect x="10" y="29" width="1" height="1" fill="#2f2f2e"/>
<rect x="11" y="29" width="8" height="1" fill="#e0e0e0"/>
<rect x="19" y="29" width="2" height="1" fill="#b5b5b5"/>
<rect x="21" y="29" width="1" height="1" fill="#e0e0e0"/>
<rect x="22" y="29" width="1" height="1" fill="#2f2f2e"/>
<rect x="10" y="30" width="1" height="1" fill="#2f2f2e"/>
<rect x="11" y="30" width="1" height="1" fill="#e0e0e0"/>
<rect x="12" y="30" width="6" height="1" fill="#2f2f2e"/>
<rect x="18" y="30" width="1" height="1" fill="#e0e0e0"/>
<rect x="19" y="30" width="2" height="1" fill="#2f2f2e"/>
<rect x="21" y="30" width="1" height="1" fill="#e0e0e0"/>
<rect x="22" y="30" width="1" height="1" fill="#2f2f2e"/>
<rect x="10" y="31" width="2" height="1" fill="#2f2f2e"/>
<rect x="13" y="31" width="2" height="1" fill="#2f2f2e"/>
<rect x="17" y="31" width="2" height="1" fill="#2f2f2e"/>
<rect x="21" y="31" width="2" height="1" fill="#2f2f2e"/>
</svg>
