<?xml version="1.0" encoding="UTF-8"?>
<svg xmlns="http://www.w3.org/2000/svg" viewBox="0 0 32 32" width="32" height="32">
  <g transform="scale(0.125 0.125) translate(0.000000,256.000000) scale(1.000000,-1.000000)" fill="#2f2f2e" stroke="none"><path d="M138 86 l-10 -10 0 -8 c0 -10 -1 -12 -8 -12 -7 0 -8 1 -8 16 0 15 -1
16 -8 16 -4 0 -5 -1 -10 -6 l-6 -6 0 -8 0 -8 -4 -4 -4 -4 4 -4 4 -3 0 -9 0 -9
-4 -3 c-4 -3 -4 -4 -4 -8 0 -6 2 -8 8 -8 4 0 5 0 8 4 l3 4 13 0 13 0 3 -4 c3
-4 4 -4 8 -4 4 0 5 0 8 4 l3 4 9 0 9 0 3 -4 4 -4 6 6 c6 5 6 6 6 10 0 4 0 5
-4 8 -4 3 -4 4 -4 8 0 4 0 5 4 8 l4 3 0 9 0 9 -4 3 -4 4 4 4 c4 3 4 4 4 8 0 6
-2 8 -8 8 -4 0 -5 0 -8 -4 l-4 -4 -4 4 c-3 4 -4 4 -8 4 -4 0 -5 0 -14 -10z"/></g>
  <g transform="scale(0.125 0.125) translate(0.000000,256.000000) scale(1.000000,-1.000000)" fill="#e0e0e0" stroke="none"><path d="M142 82 l-6 -6 0 -12 c0 -17 1 -16 -22 -16 l-18 0 0 4 c0 4 0 4 2 4
5 0 6 3 6 12 0 7 0 9 -2 11 -2 1 -2 1 -4 0 -2 -2 -2 -4 -2 -13 0 -10 0 -10 -2
-10 -2 0 -4 -1 -4 -2 -2 -2 -2 -2 0 -4 0 -1 2 -2 4 -2 2 0 2 0 2 -12 0 -12 0
-12 -2 -12 -2 0 -4 -1 -5 -2 -1 -2 -1 -2 1 -4 2 -2 2 -2 4 -1 1 1 2 3 2 5 0 1
1 2 2 2 2 0 4 2 6 4 l4 5 4 -5 4 -4 10 0 c10 0 10 0 10 -2 0 -2 1 -4 2 -4 2
-2 2 -2 4 0 1 0 2 2 2 4 0 2 0 2 10 2 l11 0 3 -4 c4 -4 4 -4 6 -3 1 2 2 4 2 7
0 4 0 5 -4 8 -4 3 -4 4 -4 8 0 4 0 5 4 8 l4 3 0 9 0 9 -4 3 c-5 4 -6 8 -2 8 2
0 4 1 5 2 1 2 1 2 -1 4 -2 2 -2 2 -4 1 -1 -1 -2 -3 -2 -5 0 -2 0 -2 -6 -2 -7
0 -7 0 -10 4 -2 2 -3 4 -4 4 0 0 -3 -3 -6 -6z m17 -12 c1 -2 1 -2 -1 -4 l-2
-2 -2 2 c-2 2 -2 2 -1 4 1 1 3 2 3 2 0 0 2 -1 3 -2z m-17 -40 c1 -1 2 -2 2 -4
0 -2 0 -2 -4 -2 -5 0 -6 3 -2 6 2 2 2 2 4 0z"/></g>
  <g transform="scale(0.125 0.125) translate(0.000000,256.000000) scale(1.000000,-1.000000)" fill="#b5b5b5" stroke="none"><path d="M146 86 c-1 -1 -2 -3 -2 -4 0 -1 -1 -2 -2 -2 -5 0 -6 -3 -6 -16 0
-17 -1 -16 20 -16 15 0 17 0 19 2 1 2 1 2 0 4 -2 2 -4 2 -15 2 -16 0 -16 0
-16 14 0 10 0 10 2 10 2 0 4 1 5 2 1 2 1 2 0 4 -3 2 -3 2 -5 0z"/><path d="M169 86 c-1 -2 -1 -2 1 -4 l2 -2 2 2 c2 2 2 2 1 4 -1 1 -3 2 -3 2 0
0 -2 -1 -3 -2z"/><path d="M162 70 c-3 -3 0 -6 6 -6 3 0 5 1 7 2 2 3 -1 6 -7 6 -3 0 -5 -1 -6
-2z"/><path d="M154 30 c-3 -3 0 -6 6 -6 3 0 5 1 7 2 2 3 -1 6 -7 6 -3 0 -5 -1 -6
-2z"/><path d="M89 22 c-1 -2 -1 -2 1 -4 l2 -2 2 2 c2 2 2 2 1 4 -1 1 -3 2 -3 2 0 0
-2 -1 -3 -2z"/></g>
</svg>
