<?xml version="1.0" encoding="UTF-8"?>
<svg xmlns="http://www.w3.org/2000/svg" viewBox="0 0 32 32" width="32" height="32">
  <g transform="scale(0.125 0.125) translate(0.000000,256.000000) scale(1.000000,-1.000000)" fill="#2f2f2e" stroke="none"><path d="M134 90 l-6 -6 0 -8 c0 -12 1 -12 -24 -12 -24 0 -24 0 -24 8 0 6 -2
8 -8 8 -6 0 -16 -10 -16 -16 0 -4 0 -5 8 -12 l8 -8 0 -8 c0 -13 -5 -12 52 -12
l48 0 6 6 6 6 -4 4 c-4 3 -4 4 -4 8 0 4 0 5 4 8 l4 3 0 13 0 12 -6 6 -6 6 -16
0 -16 0 -6 -6z"/></g>
  <g transform="scale(0.125 0.125) translate(0.000000,256.000000) scale(1.000000,-1.000000)" fill="#e0e0e0" stroke="none"><path d="M138 86 c-2 -1 -2 -4 -2 -14 0 -17 1 -16 -20 -16 -20 0 -20 0 -20
-10 l0 -6 -6 0 c-8 0 -12 -3 -8 -6 4 -5 14 -2 14 4 0 4 4 3 8 -2 3 -4 4 -4 8
-4 5 0 8 2 8 6 0 4 4 3 8 -2 3 -4 4 -4 8 -4 4 0 5 0 8 4 l4 5 4 -5 4 -4 8 0
c7 0 9 0 11 2 2 3 -1 6 -7 6 -3 0 -5 1 -7 2 -1 2 -1 2 7 10 l8 8 0 8 0 8 -6 6
c-6 6 -6 6 -8 4 -1 -1 -2 -3 -2 -6 0 -3 -1 -5 -2 -6 -3 -3 -6 0 -6 6 0 6 -2 8
-8 8 -3 0 -5 -1 -6 -2z m-20 -40 c1 -1 2 -2 2 -4 0 -3 -4 -3 -6 0 -2 2 -2 2 0
4 2 2 2 2 4 0z"/><path d="M66 70 c-4 -4 -2 -14 4 -14 1 0 2 -1 2 -2 0 -6 10 -8 15 -4 3 3 -1 6
-9 6 l-6 0 0 6 c0 5 0 7 -2 8 -2 2 -2 2 -4 0z"/></g>
  <g transform="scale(0.125 0.125) translate(0.000000,256.000000) scale(1.000000,-1.000000)" fill="#b5b5b5" stroke="none"><path d="M138 86 c-3 -3 -3 -26 0 -28 3 -3 34 -3 37 0 1 2 1 2 0 4 -2 2 -4 2
-15 2 -16 0 -16 0 -16 12 0 7 0 9 -2 10 -2 2 -2 2 -4 0z"/><path d="M162 78 c-3 -3 0 -6 6 -6 3 0 5 1 7 2 2 3 -1 6 -7 6 -3 0 -5 -1 -6
-2z"/><path d="M82 38 c-3 -3 0 -6 6 -6 6 0 9 3 7 6 -2 1 -4 2 -7 2 -3 0 -5 -1 -6
-2z"/><path d="M113 38 c-1 -2 -1 -2 1 -4 l2 -2 2 2 c2 2 2 2 1 4 -1 1 -3 2 -3 2 0
0 -2 -1 -3 -2z"/></g>
</svg>
