<?xml version="1.0" encoding="UTF-8"?>
<svg xmlns="http://www.w3.org/2000/svg" viewBox="0 0 32 32" width="32" height="32">
  <g transform="scale(0.125 0.125) translate(0.000000,256.000000) scale(1.000000,-1.000000)" fill="#2f2f2e" stroke="none"><path d="M78 90 l-6 -6 4 -4 4 -3 0 -9 0 -8 4 -4 5 -4 -9 -8 -8 -8 6 -6 6 -6
16 0 17 0 3 -4 c5 -6 11 -6 16 0 l3 4 25 0 c28 0 28 0 28 8 0 4 0 5 -8 12 l-8
8 4 4 4 4 0 12 0 12 -6 6 -6 6 -16 0 -16 0 -6 -6 -6 -6 0 -8 c0 -11 -1 -12
-12 -12 -10 0 -12 1 -12 8 0 4 0 5 -4 8 -4 3 -4 4 -4 8 0 6 -2 8 -8 8 -4 0 -5
-1 -10 -6z"/></g>
  <g transform="scale(0.125 0.125) translate(0.000000,256.000000) scale(1.000000,-1.000000)" fill="#e0e0e0" stroke="none"><path d="M82 86 c-2 -2 -2 -2 0 -4 0 -1 2 -2 4 -2 2 0 2 0 2 -10 0 -12 1 -14
6 -14 2 0 2 0 2 -6 0 -8 -2 -10 -8 -10 -6 0 -9 -3 -6 -6 1 -2 3 -2 10 -2 l9 0
3 4 4 5 8 -9 c7 -8 8 -8 12 -8 4 0 5 0 8 4 l3 4 21 0 c19 0 21 0 23 2 2 3 -1
6 -7 6 -6 0 -8 2 -8 8 0 4 0 5 4 8 l4 3 0 9 0 8 -6 6 -6 6 -12 0 c-16 0 -16 0
-16 -16 0 -17 1 -16 -22 -16 l-18 0 0 10 c0 12 -1 14 -6 14 -1 0 -2 1 -2 2 0
2 -3 6 -4 6 0 0 -2 -1 -2 -2z m77 -8 c1 -2 1 -2 -1 -4 l-2 -2 -2 2 c-2 2 -2 2
-1 4 1 1 3 2 3 2 0 0 2 -1 3 -2z"/></g>
  <g transform="scale(0.125 0.125) translate(0.000000,256.000000) scale(1.000000,-1.000000)" fill="#b5b5b5" stroke="none"><path d="M138 86 c-3 -3 -3 -26 0 -28 3 -3 34 -3 37 0 1 2 1 2 0 4 -2 2 -4 2
-15 2 -16 0 -16 0 -16 12 0 7 0 9 -2 10 -2 2 -2 2 -4 0z"/><path d="M162 78 c-3 -3 0 -6 6 -6 3 0 5 1 7 2 2 3 -1 6 -7 6 -3 0 -5 -1 -6
-2z"/><path d="M81 38 c-1 -2 -1 -2 1 -4 l2 -2 2 2 c2 2 2 2 1 4 -1 1 -3 2 -3 2 0 0
-2 -1 -3 -2z"/><path d="M154 38 c-3 -3 0 -6 6 -6 3 0 5 1 7 2 2 3 -1 6 -7 6 -3 0 -5 -1 -6
-2z"/></g>
</svg>
