<?xml version="1.0" encoding="UTF-8"?>
<svg xmlns="http://www.w3.org/2000/svg" viewBox="0 0 48 48" width="48" height="48">
  <g transform="scale(0.062500 0.062500) translate(0.000000,768.000000) scale(1.000000,-1.000000)" fill="#d4a373" stroke="none"><path d="M195.65 396.17 C191.91 392.03 194.86 386.00 200.63 386.00 C204.44 386.00 206.00 387.61 206.00 391.55 C206.00 397.24 199.32 400.22 195.65 396.17 Z M491.13 373.13 C489.10 371.10 489.00 370.06 489.00 351.15 C489.00 332.62 489.87 325.00 491.98 325.00 C492.42 325.00 493.99 325.63 495.48 326.40 C497.38 327.39 499.09 327.55 501.23 326.93 C508.30 324.91 511.08 319.71 512.12 306.59 C512.54 301.13 513.39 295.47 514.00 294.01 C514.63 292.47 517.28 290.11 520.27 288.40 C524.06 286.23 526.23 284.06 528.40 280.27 C532.46 273.15 534.44 272.50 552.00 272.50 C569.47 272.50 571.71 273.21 575.37 279.94 C578.70 286.05 579.42 286.61 586.32 288.41 C593.33 290.24 593.89 290.57 595.07 293.68 C596.53 297.53 591.66 312.67 587.77 316.35 C584.78 319.16 584.66 319.19 576.01 318.50 C563.72 317.53 559.00 320.16 559.00 328.00 C559.00 332.80 560.56 334.75 567.02 338.01 C576.84 342.97 575.98 348.32 564.71 352.44 C555.84 355.69 551.00 361.69 551.00 369.43 C551.00 371.98 550.42 373.24 548.86 374.08 C546.72 375.22 536.60 374.93 535.36 373.70 C535.01 373.34 535.29 371.03 535.99 368.54 C537.47 363.23 536.45 359.76 532.18 355.67 C528.19 351.85 522.82 350.00 515.78 350.01 C507.77 350.03 504.84 351.52 503.23 356.40 C502.17 359.63 502.23 361.28 503.58 366.69 C504.47 370.23 504.98 373.36 504.71 373.63 C504.43 373.90 501.75 374.38 498.73 374.69 C494.03 375.17 492.95 374.95 491.13 373.13 Z M557.42 350.48 C567.43 348.16 569.00 347.37 569.00 344.68 C569.00 342.88 568.04 341.87 565.05 340.52 C559.13 337.85 556.78 334.82 556.31 329.28 C555.86 323.85 557.22 320.65 561.21 317.68 C563.53 315.96 565.32 315.69 573.55 315.82 C578.84 315.91 584.00 315.54 585.01 315.00 C587.44 313.70 588.97 308.77 589.13 301.75 C589.29 294.92 588.37 293.58 581.41 290.50 C577.08 288.59 575.78 287.35 573.37 282.86 C569.72 276.04 567.17 275.11 552.00 275.11 C536.88 275.11 534.28 276.05 530.68 282.77 C528.46 286.90 526.80 288.58 522.96 290.52 C520.27 291.88 517.56 293.95 516.94 295.12 C516.31 296.28 515.41 302.70 514.93 309.37 C514.45 316.04 513.61 323.30 513.05 325.50 C511.79 330.54 511.72 339.12 512.92 342.28 C513.90 344.88 516.62 346.21 524.58 347.98 C527.37 348.61 531.42 349.75 533.58 350.51 C538.79 352.37 549.34 352.36 557.42 350.48 Z M281.98 327.43 C281.42 325.98 281.00 312.05 281.00 295.17 C281.00 268.26 281.17 265.14 282.84 261.99 C283.85 260.07 285.23 256.29 285.89 253.60 C288.38 243.54 292.07 240.24 302.76 238.51 C305.43 238.08 308.06 236.79 309.78 235.06 L312.54 232.31 L314.77 236.94 C319.81 247.39 328.25 247.47 335.41 237.13 C340.25 230.14 341.78 229.83 369.37 230.19 L393.66 230.50 L397.33 233.30 C403.18 237.76 407.23 239.00 416.00 239.00 C424.60 239.00 428.83 237.75 434.25 233.63 C436.04 232.26 439.75 230.61 442.50 229.95 C450.82 227.95 455.45 224.74 457.41 219.58 C458.56 216.58 460.51 214.06 463.27 212.04 C468.64 208.08 470.00 208.15 470.00 212.38 C470.00 215.98 468.89 217.31 463.74 219.88 C456.12 223.69 460.11 233.69 471.54 239.48 C477.93 242.71 480.28 245.82 482.09 253.42 C482.76 256.21 484.16 260.14 485.20 262.14 C486.68 265.00 487.02 267.47 486.79 273.63 C486.45 282.74 485.75 283.31 478.85 280.06 C475.61 278.53 473.86 276.80 472.00 273.29 C467.88 265.51 465.11 264.50 448.00 264.50 C435.23 264.50 433.08 264.74 430.00 266.53 C424.23 269.89 423.00 273.64 423.00 287.93 C423.00 303.37 424.59 307.65 431.57 311.03 C434.02 312.22 436.69 314.14 437.51 315.32 C439.59 318.29 439.37 322.63 437.00 325.00 C435.04 326.96 433.64 327.00 363.75 327.04 C304.31 327.08 291.84 327.33 288.50 328.53 C283.22 330.43 283.11 330.41 281.98 327.43 Z M471.43 252.67 C473.88 250.89 472.73 247.53 469.22 246.16 C457.33 241.53 445.14 240.81 433.07 244.02 C423.08 246.68 408.92 246.68 398.93 244.02 C392.57 242.33 388.18 242.04 368.44 242.02 C346.60 242.00 345.26 242.11 343.19 244.04 C340.52 246.53 340.27 251.48 342.75 252.92 C343.89 253.58 366.43 253.95 407.06 253.97 C457.48 253.99 469.97 253.74 471.43 252.67 Z M313.43 221.49 C312.60 217.03 313.52 212.18 315.67 209.82 C317.78 207.48 322.22 207.49 324.35 209.83 C327.36 213.16 326.37 215.60 320.05 220.46 L314.10 225.04 L313.43 221.49 Z M463.25 187.95 C458.28 184.30 457.27 181.77 459.44 178.45 C461.39 175.48 465.92 175.15 468.33 177.82 C471.49 181.31 471.75 191.00 468.68 191.00 C467.97 191.00 465.53 189.63 463.25 187.95 Z"/></g>
  <g transform="scale(0.062500 0.062500) translate(0.000000,768.000000) scale(1.000000,-1.000000)" fill="#a47a52" stroke="none"><path d="M198.25 400.31 C199.21 400.06 200.79 400.06 201.75 400.31 C202.71 400.56 201.93 400.77 200.00 400.77 C198.07 400.77 197.29 400.56 198.25 400.31 Z M193.40 397.75 L191.50 395.50 L193.75 397.40 C195.86 399.20 196.46 400.00 195.65 400.00 C195.47 400.00 194.45 398.99 193.40 397.75 Z M205.50 398.00 C206.50 396.90 207.53 396.00 207.81 396.00 C208.08 396.00 207.50 396.90 206.50 398.00 C205.50 399.10 204.47 400.00 204.19 400.00 C203.92 400.00 204.50 399.10 205.50 398.00 Z M191.23 392.00 C191.23 390.07 191.44 389.29 191.69 390.25 C191.94 391.21 191.94 392.79 191.69 393.75 C191.44 394.71 191.23 393.93 191.23 392.00 Z M208.73 390.93 C209.32 385.45 207.47 383.02 202.68 382.96 L199.50 382.92 L202.24 381.43 C205.43 379.70 205.78 378.43 206.27 366.86 C206.51 361.06 207.17 357.39 208.26 355.72 C210.24 352.70 218.54 347.89 220.48 348.63 C223.04 349.61 225.01 353.88 227.12 363.04 C229.04 371.38 229.08 372.26 227.60 373.89 C226.72 374.86 226.00 376.03 226.00 376.48 C226.00 378.81 220.64 383.87 216.48 385.45 C212.65 386.92 211.50 387.97 210.03 391.37 L208.24 395.50 L208.73 390.93 Z M544.59 388.25 C544.17 387.84 530.92 387.27 515.12 387.00 C483.79 386.45 483.24 386.35 479.26 380.28 C477.67 377.86 477.45 373.54 477.00 336.21 L476.50 294.82 L473.89 292.66 C472.45 291.47 469.85 289.73 468.11 288.78 C466.37 287.83 464.17 285.60 463.22 283.82 C462.27 282.04 460.30 279.33 458.83 277.79 C456.33 275.18 455.62 275.00 448.03 275.00 C440.74 275.00 439.66 275.25 437.45 277.45 C435.25 279.66 435.00 280.74 435.00 288.03 C435.00 295.62 435.18 296.33 437.79 298.83 C439.33 300.30 441.99 302.24 443.71 303.15 C449.22 306.08 450.48 309.20 450.48 320.00 C450.48 330.49 449.41 333.37 444.28 336.74 C441.79 338.37 436.13 338.54 368.21 339.00 L294.82 339.50 L293.07 341.67 C291.74 343.31 291.15 346.52 290.68 354.67 C289.77 370.56 289.86 370.37 283.16 369.68 C276.93 369.03 273.51 366.94 270.98 362.23 C270.04 360.47 268.70 358.34 268.01 357.51 C267.04 356.35 267.01 355.00 267.88 351.56 C269.30 345.92 269.33 325.72 267.92 320.66 C267.07 317.59 267.17 316.16 268.43 313.51 C269.75 310.73 270.01 305.29 270.06 279.85 C270.12 246.02 270.44 243.88 276.00 240.34 C282.45 236.24 284.78 234.04 286.73 230.26 C287.79 228.19 290.13 225.60 291.92 224.50 C300.72 219.10 301.24 218.23 302.04 207.55 C303.13 193.14 306.25 190.11 320.00 190.11 C333.72 190.11 336.87 193.15 337.95 207.44 C339.07 222.25 337.47 221.50 368.00 221.50 C398.53 221.50 396.93 222.25 398.05 207.44 C399.13 193.15 402.28 190.11 416.00 190.11 C429.69 190.11 432.87 193.17 433.94 207.33 C434.75 218.12 435.85 220.25 440.39 219.80 C445.51 219.30 445.96 217.09 446.04 192.00 C446.09 177.31 446.53 168.32 447.31 166.09 C449.21 160.65 452.72 158.74 461.71 158.25 C471.00 157.75 476.42 159.30 479.40 163.32 C481.41 166.02 481.52 167.61 482.00 199.65 L482.50 233.17 L485.66 235.83 C487.40 237.30 490.32 239.41 492.16 240.52 C497.53 243.76 497.88 246.14 497.96 280.00 C498.04 314.32 498.24 315.50 504.00 315.50 C506.67 315.50 507.73 314.94 508.71 313.00 C509.67 311.09 509.97 310.93 509.99 312.30 C510.01 315.40 507.01 320.04 504.32 321.07 C501.06 322.31 498.95 321.64 495.91 318.40 C493.51 315.86 493.50 315.68 493.00 288.67 L492.50 261.50 L488.58 255.00 C480.87 242.19 479.95 241.03 474.51 237.01 C467.98 232.18 467.44 229.54 471.96 224.40 C476.65 219.05 477.30 214.79 476.74 193.00 C476.07 166.76 475.29 165.06 464.00 165.06 C454.23 165.06 452.00 167.77 452.00 179.63 C452.00 186.83 452.81 188.99 457.29 193.72 C461.59 198.26 461.34 201.68 456.28 207.42 C453.94 210.08 451.78 213.82 451.16 216.30 C449.70 222.07 446.61 224.68 438.61 226.90 C434.91 227.93 430.89 229.66 429.69 230.76 C425.88 234.23 423.33 235.00 415.71 235.00 C409.38 235.00 407.80 234.63 404.90 232.51 C397.41 227.01 397.31 227.00 365.04 227.00 L335.03 227.00 L332.59 230.86 C329.94 235.06 326.72 236.57 324.96 234.45 C322.94 232.02 324.31 228.69 328.16 226.66 C332.47 224.40 333.47 221.03 332.50 212.16 C330.99 198.46 329.78 197.00 320.00 197.00 C314.76 197.00 312.93 197.42 311.23 199.00 C309.01 201.07 308.70 202.26 307.01 215.37 C305.91 223.82 303.42 230.58 300.52 233.00 C299.53 233.82 296.66 235.62 294.15 237.00 C289.29 239.66 285.95 243.69 279.50 254.68 L275.50 261.50 L275.58 289.00 C275.70 328.03 276.48 359.35 277.36 360.78 C278.46 362.55 280.79 362.28 281.84 360.25 C282.35 359.29 282.95 354.67 283.19 349.98 C283.69 340.03 285.59 335.94 290.96 333.27 C294.22 331.64 300.32 331.46 367.33 331.00 C450.99 330.43 443.00 331.56 443.00 320.24 C443.00 312.26 442.19 310.77 436.05 307.43 C429.14 303.67 427.59 300.10 427.59 288.00 C427.59 271.17 430.83 268.00 448.00 268.00 C460.75 268.00 463.55 269.18 467.59 276.25 C469.75 280.04 471.93 282.23 475.63 284.35 C484.78 289.57 484.43 287.67 485.00 334.83 C485.48 374.28 485.59 376.23 487.44 377.58 C488.94 378.68 493.38 379.00 507.03 379.00 C516.74 379.00 530.72 379.28 538.09 379.63 C555.25 380.44 556.00 380.01 556.73 368.94 C557.30 360.25 558.60 357.76 563.97 355.01 C569.26 352.32 569.62 352.47 565.86 355.83 C562.85 358.52 562.66 359.14 561.96 368.33 C561.13 379.36 559.87 382.00 554.05 384.97 C551.90 386.07 549.85 387.43 549.51 387.99 C548.78 389.17 545.67 389.34 544.59 388.25 Z M193.50 386.00 C194.50 384.90 195.53 384.00 195.81 384.00 C196.08 384.00 195.50 384.90 194.50 386.00 C193.50 387.10 192.47 388.00 192.19 388.00 C191.92 388.00 192.50 387.10 193.50 386.00 Z M218.43 377.43 C221.96 373.90 219.28 357.41 215.29 358.18 C212.27 358.76 210.87 362.96 211.31 370.11 C211.53 373.75 212.03 377.24 212.42 377.86 C213.42 379.49 216.59 379.26 218.43 377.43 Z M513.31 371.05 C509.21 368.55 508.00 366.18 508.00 360.64 C508.00 354.35 511.06 352.00 519.23 352.00 C524.69 352.00 525.49 352.29 528.60 355.40 C538.08 364.88 525.05 378.21 513.31 371.05 Z M523.07 364.96 C527.28 362.71 524.66 356.00 519.57 356.00 C517.12 356.00 513.96 359.70 514.66 361.73 C515.99 365.55 519.47 366.89 523.07 364.96 Z M573.50 350.00 C574.50 348.90 575.53 348.00 575.81 348.00 C576.08 348.00 575.50 348.90 574.50 350.00 C573.50 351.10 572.47 352.00 572.19 352.00 C571.92 352.00 572.50 351.10 573.50 350.00 Z M576.10 345.33 C575.91 341.14 574.65 339.76 568.52 337.01 C561.12 333.69 558.89 330.10 561.02 324.96 C562.86 320.50 564.95 319.86 576.45 320.19 C583.24 320.39 586.26 320.81 585.17 321.39 C584.25 321.87 582.56 323.13 581.40 324.17 C579.69 325.72 578.80 325.88 576.59 325.03 C572.93 323.64 567.67 323.73 566.20 325.20 C562.88 328.52 566.31 332.29 573.75 333.49 C577.98 334.17 578.00 334.19 577.90 338.34 C577.85 340.63 577.44 343.62 577.00 345.00 C576.26 347.30 576.19 347.33 576.10 345.33 Z M589.50 318.00 C590.50 316.90 591.53 316.00 591.81 316.00 C592.08 316.00 591.50 316.90 590.50 318.00 C589.50 319.10 588.47 320.00 588.19 320.00 C587.92 320.00 588.50 319.10 589.50 318.00 Z M594.46 308.33 C595.81 304.59 597.42 301.36 598.03 301.16 C598.64 300.95 600.30 299.79 601.72 298.56 C607.87 293.28 604.75 274.24 598.33 277.84 C597.50 278.30 595.83 280.44 594.61 282.59 C592.49 286.33 592.20 286.49 587.95 286.17 C582.59 285.78 579.56 283.99 577.50 279.99 C575.36 275.86 576.35 276.23 578.87 280.50 C580.49 283.25 581.57 284.00 583.89 284.00 C586.38 284.00 587.46 283.09 590.68 278.26 C594.89 271.95 598.33 270.02 602.65 271.56 C607.35 273.23 609.28 277.08 609.75 285.71 C610.29 295.73 608.71 300.66 604.00 303.64 C598.37 307.21 594.00 311.09 594.00 312.54 C594.00 313.28 593.55 314.16 592.99 314.50 C592.44 314.85 593.10 312.07 594.46 308.33 Z M510.32 303.00 C510.32 299.43 510.50 297.96 510.72 299.75 C510.95 301.54 510.95 304.46 510.72 306.25 C510.50 308.04 510.32 306.57 510.32 303.00 Z M513.50 290.00 C514.50 288.90 515.53 288.00 515.81 288.00 C516.08 288.00 515.50 288.90 514.50 290.00 C513.50 291.10 512.47 292.00 512.19 292.00 C511.92 292.00 512.50 291.10 513.50 290.00 Z M523.00 283.50 C524.29 282.12 525.57 281.00 525.85 281.00 C526.12 281.00 525.29 282.12 524.00 283.50 C522.71 284.88 521.43 286.00 521.15 286.00 C520.88 286.00 521.71 284.88 523.00 283.50 Z M526.00 279.06 C526.00 278.54 526.44 277.84 526.99 277.51 C527.56 277.16 527.72 277.56 527.38 278.45 C526.72 280.18 526.00 280.50 526.00 279.06 Z M529.50 274.00 C530.50 272.90 531.53 272.00 531.81 272.00 C532.08 272.00 531.50 272.90 530.50 274.00 C529.50 275.10 528.47 276.00 528.19 276.00 C527.92 276.00 528.50 275.10 529.50 274.00 Z M573.40 273.75 L571.50 271.50 L573.75 273.40 C575.86 275.20 576.46 276.00 575.65 276.00 C575.47 276.00 574.45 274.99 573.40 273.75 Z M544.25 270.26 C548.51 270.07 555.49 270.07 559.75 270.26 C564.01 270.44 560.52 270.60 552.00 270.60 C543.48 270.60 539.99 270.44 544.25 270.26 Z M358.09 208.75 C351.42 206.30 350.54 203.80 350.18 186.18 C349.67 161.31 351.48 158.50 368.00 158.50 C384.14 158.50 385.89 160.99 385.89 184.00 C385.89 206.25 384.09 209.12 369.77 209.68 C364.81 209.88 360.14 209.50 358.09 208.75 Z M422.78 206.44 C424.02 205.57 425.00 203.83 425.00 202.50 C425.00 199.19 421.41 197.00 416.00 197.00 C410.59 197.00 407.00 199.19 407.00 202.50 C407.00 205.81 410.59 208.00 416.00 208.00 C418.51 208.00 421.56 207.30 422.78 206.44 Z M374.78 174.44 C376.02 173.57 377.00 171.83 377.00 170.50 C377.00 167.19 373.41 165.00 368.00 165.00 C362.59 165.00 359.00 167.19 359.00 170.50 C359.00 173.81 362.59 176.00 368.00 176.00 C370.51 176.00 373.56 175.30 374.78 174.44 Z"/></g>
  <g transform="scale(0.062500 0.062500) translate(0.000000,768.000000) scale(1.000000,-1.000000)" fill="#4a2c18" stroke="none"><path d="M470.09 400.72 C464.47 398.70 462.88 395.52 462.05 384.56 C461.45 376.52 460.95 374.50 459.13 372.69 L456.94 370.50 L372.86 370.23 L288.78 369.97 L289.42 367.73 C289.77 366.50 290.34 360.63 290.68 354.67 C291.15 346.52 291.74 343.31 293.07 341.67 L294.82 339.50 L368.21 339.00 C436.13 338.54 441.79 338.37 444.28 336.74 C449.41 333.37 450.48 330.49 450.48 320.00 C450.48 309.20 449.22 306.08 443.71 303.15 C441.99 302.24 439.33 300.30 437.79 298.83 C435.18 296.33 435.00 295.62 435.00 288.03 C435.00 280.74 435.25 279.66 437.45 277.45 C439.66 275.25 440.74 275.00 448.03 275.00 C455.62 275.00 456.33 275.18 458.83 277.79 C460.30 279.33 462.27 282.04 463.22 283.82 C464.17 285.60 466.37 287.83 468.11 288.78 C469.85 289.73 472.45 291.47 473.89 292.66 L476.50 294.82 L477.00 336.21 C477.45 373.54 477.67 377.86 479.26 380.28 C483.23 386.33 483.84 386.45 514.95 387.10 C530.65 387.43 544.48 388.04 545.68 388.45 L547.86 389.20 L545.53 393.35 C540.83 401.72 542.01 401.47 505.68 401.72 C482.39 401.88 472.56 401.60 470.09 400.72 Z M226.97 362.39 C225.31 355.07 224.20 352.35 221.98 350.13 C220.12 348.27 219.46 346.94 220.10 346.30 C220.64 345.76 221.89 343.79 222.89 341.91 C223.89 340.03 226.23 337.51 228.10 336.31 C234.50 332.18 236.80 330.01 238.72 326.32 C241.88 320.23 244.57 318.88 255.19 318.07 C260.37 317.68 265.09 317.06 265.69 316.69 C268.62 314.88 270.33 341.83 267.90 351.47 C266.83 355.74 266.75 355.81 263.87 354.80 C262.25 354.24 257.81 353.95 254.01 354.17 C248.42 354.49 246.61 355.02 244.55 356.95 C243.15 358.27 242.00 359.76 242.00 360.27 C242.00 362.38 237.68 367.01 233.55 369.32 L229.12 371.79 L226.97 362.39 Z M516.83 364.75 C514.20 362.63 513.90 360.10 516.02 357.98 C519.63 354.37 525.00 356.18 525.00 361.00 C525.00 365.30 520.23 367.49 516.83 364.75 Z M571.26 333.03 C565.39 331.63 563.12 327.80 566.51 324.99 C568.15 323.63 576.52 324.12 578.06 325.66 C578.55 326.15 578.68 328.22 578.34 330.27 C577.70 334.24 577.20 334.44 571.26 333.03 Z"/></g>
  <g transform="scale(0.062500 0.062500) translate(0.000000,768.000000) scale(1.000000,-1.000000)" fill="#c89a6a" stroke="none"><path d="M194.17 397.69 C191.14 394.45 191.26 389.04 194.44 386.06 C197.76 382.94 204.97 382.11 207.43 384.57 C209.89 387.03 209.06 394.24 205.94 397.56 C202.86 400.85 197.20 400.91 194.17 397.69 Z M204.17 396.35 C206.25 394.47 206.62 389.02 204.80 387.20 C203.07 385.47 197.96 385.73 195.83 387.65 C192.03 391.09 194.70 398.00 199.83 398.00 C201.21 398.00 203.17 397.26 204.17 396.35 Z M511.30 379.04 C494.20 378.64 487.75 378.16 486.80 377.20 C485.79 376.20 485.39 366.60 485.00 334.70 C484.43 287.68 484.78 289.57 475.63 284.35 C471.93 282.23 469.75 280.04 467.59 276.25 C463.55 269.18 460.75 268.00 448.00 268.00 C430.83 268.00 427.59 271.17 427.59 288.00 C427.59 300.10 429.14 303.67 436.05 307.43 C442.19 310.77 443.00 312.26 443.00 320.24 C443.00 331.56 450.99 330.43 367.33 331.00 C300.32 331.46 294.22 331.64 290.96 333.27 C285.59 335.94 283.69 340.03 283.19 349.98 C282.95 354.67 282.35 359.29 281.84 360.25 C280.79 362.28 278.46 362.55 277.36 360.78 C276.48 359.35 275.70 328.03 275.58 289.00 L275.50 261.50 L279.50 254.68 C285.95 243.69 289.29 239.66 294.15 237.00 C296.66 235.62 299.53 233.82 300.52 233.00 C303.42 230.58 305.91 223.82 307.01 215.37 C308.70 202.26 309.01 201.07 311.23 199.00 C312.93 197.42 314.76 197.00 320.00 197.00 C329.78 197.00 330.99 198.46 332.50 212.16 C333.47 221.03 332.47 224.40 328.16 226.66 C324.31 228.69 322.94 232.02 324.96 234.45 C326.72 236.57 329.94 235.06 332.59 230.86 L335.03 227.00 L365.04 227.00 C397.31 227.00 397.41 227.01 404.90 232.51 C407.80 234.63 409.38 235.00 415.71 235.00 C423.33 235.00 425.88 234.23 429.69 230.76 C430.89 229.66 434.91 227.93 438.61 226.90 C446.61 224.68 449.70 222.07 451.16 216.30 C451.78 213.82 453.94 210.08 456.28 207.42 C461.34 201.68 461.59 198.26 457.29 193.72 C452.81 188.99 452.00 186.83 452.00 179.63 C452.00 167.77 454.23 165.06 464.00 165.06 C475.29 165.06 476.07 166.76 476.74 193.00 C477.30 214.79 476.65 219.05 471.96 224.40 C467.44 229.54 467.98 232.18 474.51 237.01 C479.95 241.03 480.87 242.19 488.58 255.00 L492.50 261.50 L493.00 288.67 C493.50 315.68 493.51 315.86 495.91 318.40 C498.95 321.64 501.06 322.31 504.32 321.07 C508.43 319.51 510.14 314.86 510.76 303.60 C511.29 293.92 511.44 293.38 514.43 290.50 C516.15 288.85 519.02 286.73 520.81 285.78 C522.60 284.83 524.83 282.60 525.78 280.81 C526.73 279.02 528.92 276.08 530.65 274.28 L533.80 271.00 L551.77 271.00 C572.05 271.00 573.09 271.33 577.04 279.08 C579.59 284.08 582.43 285.88 588.27 286.22 C592.43 286.47 593.08 286.83 593.97 289.36 C594.80 291.74 594.74 292.03 593.61 291.09 C592.85 290.46 589.62 289.27 586.43 288.44 C579.42 286.61 578.71 286.07 575.37 279.94 C571.71 273.21 569.47 272.50 552.00 272.50 C534.44 272.50 532.46 273.15 528.40 280.27 C526.23 284.06 524.06 286.23 520.27 288.40 C517.28 290.11 514.63 292.47 514.00 294.01 C513.39 295.47 512.54 301.13 512.12 306.59 C511.08 319.71 508.30 324.91 501.23 326.93 C499.09 327.55 497.38 327.39 495.48 326.40 C493.99 325.63 492.42 325.00 491.98 325.00 C489.87 325.00 489.00 332.62 489.00 351.15 C489.00 370.06 489.10 371.10 491.13 373.13 C492.95 374.95 494.03 375.17 498.73 374.69 C501.75 374.38 504.43 373.90 504.71 373.63 C504.98 373.36 504.47 370.23 503.58 366.69 C502.23 361.28 502.17 359.63 503.23 356.40 C504.84 351.52 507.77 350.03 515.78 350.01 C522.82 350.00 528.19 351.85 532.18 355.67 C536.45 359.76 537.47 363.23 535.99 368.54 C535.29 371.03 535.01 373.34 535.36 373.70 C536.60 374.93 546.72 375.22 548.86 374.08 C550.42 373.24 551.00 371.98 551.00 369.43 C551.00 361.69 555.84 355.69 564.71 352.44 C575.98 348.32 576.84 342.97 567.02 338.01 C560.56 334.75 559.00 332.80 559.00 328.00 C559.00 320.18 563.73 317.53 575.95 318.50 C584.24 319.15 584.76 319.07 587.60 316.68 C589.84 314.80 591.16 312.16 592.93 306.03 C594.57 300.36 595.60 298.20 596.33 298.93 C597.81 300.41 592.61 314.81 589.43 318.00 C587.05 320.39 586.50 320.49 576.51 320.19 C564.95 319.86 562.87 320.50 561.02 324.96 C558.89 330.10 561.12 333.69 568.52 337.01 C571.92 338.54 574.99 340.54 575.35 341.47 C577.43 346.89 575.01 350.15 565.83 354.27 C562.72 355.67 559.51 357.87 558.69 359.16 C557.88 360.45 557.00 364.85 556.73 368.94 C556.06 379.09 554.82 380.08 543.14 379.79 C538.39 379.67 524.06 379.33 511.30 379.04 Z M212.42 377.86 C212.03 377.24 211.53 373.75 211.31 370.11 C210.87 362.96 212.27 358.76 215.29 358.18 C219.28 357.41 221.96 373.90 218.43 377.43 C216.59 379.26 213.42 379.49 212.42 377.86 Z M525.99 371.51 C532.90 367.93 534.05 360.85 528.60 355.40 C525.49 352.29 524.69 352.00 519.23 352.00 C511.06 352.00 508.00 354.35 508.00 360.64 C508.00 366.18 509.21 368.55 513.31 371.05 C517.13 373.37 522.03 373.55 525.99 371.51 Z M288.50 328.53 C291.84 327.33 304.31 327.08 363.75 327.04 C433.64 327.00 435.04 326.96 437.00 325.00 C439.37 322.63 439.59 318.29 437.51 315.32 C436.69 314.14 434.02 312.22 431.57 311.03 C424.59 307.65 423.00 303.37 423.00 287.93 C423.00 273.64 424.23 269.89 430.00 266.53 C433.08 264.74 435.23 264.50 448.00 264.50 C465.11 264.50 467.88 265.51 472.00 273.29 C473.86 276.80 475.61 278.53 478.85 280.06 C485.75 283.31 486.45 282.74 486.79 273.63 C487.02 267.47 486.68 265.00 485.20 262.14 C484.16 260.14 482.76 256.21 482.09 253.42 C480.28 245.82 477.93 242.71 471.54 239.48 C460.11 233.69 456.12 223.69 463.74 219.88 C468.89 217.31 470.00 215.98 470.00 212.38 C470.00 208.15 468.64 208.08 463.27 212.04 C460.51 214.06 458.56 216.58 457.41 219.58 C455.45 224.74 450.82 227.95 442.50 229.95 C439.75 230.61 436.04 232.26 434.25 233.63 C428.83 237.75 424.60 239.00 416.00 239.00 C407.23 239.00 403.18 237.76 397.33 233.30 L393.66 230.50 L369.37 230.19 C341.78 229.83 340.25 230.14 335.41 237.13 C328.25 247.47 319.81 247.39 314.77 236.94 L312.54 232.31 L309.78 235.06 C308.06 236.79 305.43 238.08 302.76 238.51 C292.07 240.24 288.38 243.54 285.89 253.60 C285.23 256.29 283.85 260.07 282.84 261.99 C281.17 265.14 281.00 268.26 281.00 295.17 C281.00 322.60 281.58 330.03 283.73 329.98 C284.15 329.98 286.30 329.32 288.50 328.53 Z M326.00 213.77 C326.00 208.71 319.07 206.06 315.67 209.82 C313.52 212.18 312.60 217.03 313.43 221.49 L314.10 225.04 L320.05 220.46 C323.99 217.43 326.00 215.17 326.00 213.77 Z M409.22 206.44 C407.98 205.57 407.00 203.83 407.00 202.50 C407.00 199.19 410.59 197.00 416.00 197.00 C421.41 197.00 425.00 199.19 425.00 202.50 C425.00 205.81 421.41 208.00 416.00 208.00 C413.49 208.00 410.44 207.30 409.22 206.44 Z M470.60 188.46 C471.44 185.10 470.37 180.07 468.33 177.82 C465.92 175.15 461.39 175.48 459.44 178.45 C457.27 181.77 458.28 184.30 463.25 187.95 C468.29 191.66 469.77 191.77 470.60 188.46 Z M361.22 174.44 C359.98 173.57 359.00 171.83 359.00 170.50 C359.00 167.19 362.59 165.00 368.00 165.00 C373.41 165.00 377.00 167.19 377.00 170.50 C377.00 173.81 373.41 176.00 368.00 176.00 C365.49 176.00 362.44 175.30 361.22 174.44 Z"/></g>
  <g transform="scale(0.062500 0.062500) translate(0.000000,768.000000) scale(1.000000,-1.000000)" fill="#f7eede" stroke="none"><path d="M533.58 350.51 C531.42 349.75 527.37 348.61 524.58 347.98 C516.62 346.21 513.90 344.88 512.92 342.28 C511.72 339.12 511.79 330.54 513.05 325.50 C513.61 323.30 514.45 316.04 514.93 309.37 C515.41 302.70 516.31 296.28 516.94 295.12 C517.56 293.95 520.27 291.88 522.96 290.52 C526.80 288.58 528.46 286.90 530.68 282.77 C534.28 276.05 536.88 275.11 552.00 275.11 C567.17 275.11 569.72 276.04 573.37 282.86 C575.78 287.35 577.08 288.59 581.41 290.50 C588.37 293.58 589.29 294.92 589.13 301.75 C588.97 308.77 587.44 313.70 585.01 315.00 C584.00 315.54 578.84 315.91 573.55 315.82 C565.32 315.69 563.53 315.96 561.21 317.68 C557.22 320.65 555.86 323.85 556.31 329.28 C556.78 334.82 559.13 337.85 565.05 340.52 C569.86 342.69 570.58 346.45 566.48 348.01 C556.31 351.87 540.72 353.06 533.58 350.51 Z M342.75 252.92 C340.27 251.48 340.52 246.53 343.19 244.04 C345.26 242.11 346.60 242.00 368.44 242.02 C388.18 242.04 392.57 242.33 398.93 244.02 C408.92 246.68 423.08 246.68 433.07 244.02 C445.14 240.81 457.33 241.53 469.22 246.16 C470.71 246.74 472.23 248.14 472.59 249.28 C474.08 253.99 473.86 254.00 407.06 253.97 C366.43 253.95 343.89 253.58 342.75 252.92 Z"/></g>
  <g transform="scale(0.062500 0.062500) translate(0.000000,768.000000) scale(1.000000,-1.000000)" fill="#e0586a" stroke="none"><path d="M595.98 296.75 C595.38 294.41 594.44 291.07 593.89 289.32 C593.08 286.75 593.27 285.38 594.90 282.19 C599.74 272.71 605.83 278.01 604.77 290.78 C604.40 295.26 603.78 296.79 601.60 298.67 C600.11 299.95 598.48 301.00 597.98 301.00 C597.48 301.00 596.58 299.09 595.98 296.75 Z"/></g>
</svg>
