<?xml version="1.0" encoding="UTF-8"?>
<svg xmlns="http://www.w3.org/2000/svg" viewBox="0 0 64 64" width="64" height="64">
  <g transform="scale(0.125 0.125) translate(0.000000,512.000000) scale(1.000000,-1.000000)" fill="#236b61" stroke="none"><path d="M240 268 c-3 -4 -4 -4 -8 -4 -4 0 -5 0 -12 -8 l-8 -8 -4 4 c-3 4 -4
4 -8 4 -4 0 -5 -1 -10 -6 l-6 -6 0 -16 0 -16 4 -4 5 -4 -5 -4 c-4 -3 -4 -4 -4
-8 0 -4 0 -5 4 -8 l5 -4 -5 -4 c-4 -3 -4 -4 -4 -8 0 -4 0 -5 4 -8 4 -3 4 -4 4
-8 0 -4 0 -5 6 -10 5 -6 6 -6 10 -6 4 0 5 0 8 -4 l3 -4 13 0 13 0 3 4 3 4 23
0 22 0 0 -2 c0 -6 2 -6 24 -6 l20 0 10 10 10 10 0 12 0 13 -4 3 c-4 3 -4 4 -4
8 0 4 0 5 8 12 l8 8 0 8 0 8 -10 10 -10 10 -12 0 c-15 0 -16 1 -16 8 0 4 0 5
-10 14 l-10 10 -28 0 -29 0 -3 -4z m63 -126 c1 -2 1 -2 0 -4 -3 -3 -7 -3 -7 0
0 2 3 6 4 6 0 0 2 -1 3 -2z"/></g>
  <g transform="scale(0.125 0.125) translate(0.000000,512.000000) scale(1.000000,-1.000000)" fill="#001714" stroke="none"><path d="M240 268 c-3 -4 -4 -4 -8 -4 -4 0 -5 0 -12 -8 l-8 -8 -4 4 c-3 4 -4
4 -8 4 -4 0 -5 -1 -10 -6 l-6 -6 0 -16 0 -16 4 -4 5 -4 -5 -4 c-4 -3 -4 -4 -4
-8 0 -4 0 -5 4 -8 l5 -4 -5 -4 c-4 -3 -4 -4 -4 -8 0 -4 0 -5 4 -8 4 -3 4 -4 4
-8 0 -4 0 -5 6 -10 5 -6 6 -6 10 -6 4 0 5 0 8 -4 l3 -4 13 0 13 0 3 4 3 4 23
0 22 0 0 -2 c0 -6 2 -6 24 -6 l20 0 10 10 10 10 0 12 0 13 -4 3 c-4 3 -4 4 -4
8 0 4 0 5 8 12 l8 8 0 8 0 8 -10 10 -10 10 -14 0 -14 0 0 6 0 6 -10 10 -10 10
-28 0 -29 0 -3 -4z m64 -16 c8 -8 12 -12 14 -12 4 0 3 -4 -2 -8 -4 -4 -4 -4
-3 -6 2 -2 3 -2 19 -2 l16 0 6 -6 6 -6 -10 -10 -10 -10 -12 0 c-15 0 -16 -1
-16 -8 0 -4 0 -4 -14 -18 l-14 -14 -28 0 c-27 0 -29 0 -31 2 -1 2 -1 2 1 4 1
2 3 2 22 2 l20 0 10 10 c14 14 14 14 0 28 l-10 10 -16 0 c-19 0 -20 0 -20 8 0
6 -2 8 -10 8 l-6 0 0 -6 c0 -8 -3 -12 -6 -8 -4 4 -2 14 4 14 1 0 2 1 2 2 0 1
4 6 10 12 l10 10 12 0 13 0 3 4 3 4 9 0 9 0 3 4 c2 2 3 4 4 4 0 0 6 -5 12 -12z
m-1 -110 c1 -2 1 -2 0 -4 -3 -3 -7 -3 -7 0 0 2 3 6 4 6 0 0 2 -1 3 -2z"/><path d="M282 222 c-3 -2 -3 -10 0 -12 2 -3 10 -3 12 0 3 2 3 10 0 12 -2 3
-10 3 -12 0z"/></g>
  <g transform="scale(0.125 0.125) translate(0.000000,512.000000) scale(1.000000,-1.000000)" fill="#251700" stroke="none"><path d="M240 260 c-3 -4 -4 -4 -8 -4 -4 0 -5 0 -12 -8 -8 -8 -12 -10 -12 -6
0 4 -3 6 -8 6 -8 0 -8 0 -8 -24 l0 -21 -4 -3 c-4 -3 -4 -4 -4 -8 0 -4 0 -5 4
-8 l5 -4 -5 -4 c-4 -3 -4 -4 -4 -8 0 -4 0 -5 4 -8 4 -3 4 -4 4 -8 0 -4 0 -5 6
-10 5 -6 6 -6 10 -6 4 0 5 0 8 -4 l3 -4 13 0 12 0 8 8 8 8 16 0 17 0 3 4 c4 4
4 4 6 3 4 -4 3 -11 -2 -15 -4 -4 -4 -4 -3 -6 2 -2 3 -2 23 -2 l20 0 10 10 10
10 0 12 0 12 -6 6 c-3 4 -7 6 -8 6 -2 0 -2 1 -2 4 0 4 0 4 2 4 3 0 6 3 6 6 0
1 1 2 2 2 2 0 4 1 5 2 1 2 1 2 -1 4 -2 2 -2 2 -4 1 -1 -1 -2 -3 -2 -5 0 -1 -1
-2 -2 -2 -3 0 -6 -3 -6 -6 0 -2 0 -2 -6 -2 -7 0 -10 -2 -10 -6 0 -2 -1 -2 -6
-2 l-6 0 -16 -16 -16 -16 -20 0 -21 0 -3 -4 c-3 -4 -4 -4 -8 -4 -4 0 -5 0 -10
6 -7 7 -8 13 -4 17 2 1 2 1 6 -3 l4 -4 20 0 20 0 10 10 c14 14 14 14 0 28
l-10 10 -16 0 -16 0 -4 4 -4 5 -4 -5 -3 -4 -9 0 c-12 0 -12 0 -12 16 0 14 1
16 6 16 2 0 2 0 2 -6 0 -5 0 -7 2 -8 2 -2 2 -2 14 10 l12 12 12 0 13 0 3 4 3
4 9 0 c7 0 9 0 11 2 1 2 1 2 0 4 -2 2 -4 2 -23 2 l-21 0 -3 -4z m104 -78 c0
-4 -3 -6 -8 -6 -5 0 -8 2 -8 6 0 2 0 2 8 2 8 0 8 0 8 -2z"/><path d="M298 262 c-2 -2 -2 -2 0 -4 0 -1 2 -2 4 -2 1 0 2 -1 2 -2 0 -2 1 -4
2 -5 2 -1 2 -1 4 1 2 2 2 2 1 4 -1 1 -3 2 -5 2 -1 0 -2 1 -2 2 0 2 -3 6 -4 6
0 0 -2 -1 -2 -2z"/><path d="M322 230 c-2 -2 -2 -2 0 -4 1 -2 3 -2 16 -2 l14 0 0 -2 c0 -2 1 -4 2
-5 2 -1 2 -1 4 1 2 2 2 2 1 4 -1 1 -3 2 -5 2 -1 0 -2 1 -2 2 0 5 -3 6 -16 6
-11 0 -13 0 -14 -2z"/><path d="M281 214 c-1 -2 -1 -2 1 -4 l2 -2 2 2 c2 2 2 2 1 4 -1 1 -3 2 -3 2 0
0 -2 -1 -3 -2z"/></g>
  <g transform="scale(0.125 0.125) translate(0.000000,512.000000) scale(1.000000,-1.000000)" fill="#054139" stroke="none"><path d="M240 260 c-3 -4 -4 -4 -8 -4 -4 0 -5 0 -12 -8 -8 -8 -12 -10 -12 -6
0 6 -10 8 -14 4 -3 -3 -3 -34 0 -36 2 -2 2 -2 4 0 2 1 2 3 2 14 0 14 1 16 6
16 2 0 2 0 2 -6 0 -5 0 -7 2 -8 2 -2 2 -2 14 10 l12 12 12 0 13 0 3 4 3 4 9 0
c7 0 9 0 11 2 1 2 1 2 0 4 -2 2 -4 2 -23 2 l-21 0 -3 -4z"/><path d="M298 262 c-2 -2 -2 -2 0 -4 0 -1 2 -2 4 -2 1 0 2 -1 2 -2 0 -2 1 -4
2 -5 2 -1 2 -1 4 1 2 2 2 2 1 4 -1 1 -3 2 -5 2 -1 0 -2 1 -2 2 0 2 -3 6 -4 6
0 0 -2 -1 -2 -2z"/><path d="M322 230 c-2 -2 -2 -2 0 -4 1 -2 3 -2 16 -2 l14 0 0 -2 c0 -2 1 -4 2
-5 2 -1 2 -1 4 1 2 2 2 2 1 4 -1 1 -3 2 -5 2 -1 0 -2 1 -2 2 0 5 -3 6 -16 6
-11 0 -13 0 -14 -2z"/><path d="M225 214 c-1 -2 -1 -2 1 -4 l2 -2 2 2 c2 2 2 2 1 4 -1 1 -3 2 -3 2 0
0 -2 -1 -3 -2z"/><path d="M281 214 c-1 -2 -1 -2 1 -4 l2 -2 2 2 c2 2 2 2 1 4 -1 1 -3 2 -3 2 0
0 -2 -1 -3 -2z"/><path d="M354 206 c-1 -1 -2 -3 -2 -4 0 -1 -1 -2 -2 -2 -3 0 -6 -3 -6 -6 0 -2
0 -2 -6 -2 -7 0 -10 -2 -10 -6 0 -2 -1 -2 -6 -2 l-6 0 -16 -16 -16 -16 -20 0
-21 0 -3 -4 c-3 -4 -4 -4 -8 -4 -4 0 -5 0 -10 6 -6 5 -6 6 -6 10 0 6 -2 8 -8
8 -4 0 -5 0 -8 4 -4 4 -4 4 -6 3 -2 -2 -2 -3 -2 -11 l0 -8 6 -6 c5 -5 6 -6 10
-6 4 0 5 0 12 -8 7 -8 8 -8 12 -8 4 0 5 0 12 8 l8 8 20 0 21 0 3 4 c3 4 3 4
10 4 l6 0 0 -6 c0 -6 0 -7 -4 -10 -4 -4 -4 -4 -3 -6 2 -2 3 -2 15 -2 l12 0 10
10 10 10 0 12 c0 15 -1 16 -8 16 -4 0 -5 0 -8 -4 -2 -3 -4 -4 -6 -4 -2 0 -2 0
-2 8 l0 8 6 0 c7 0 10 2 10 6 0 1 1 2 2 2 3 0 6 3 6 6 0 1 1 2 2 2 2 0 4 1 5
2 1 2 1 2 0 4 -3 2 -3 2 -5 0z m-26 -40 c0 -3 -3 -6 -6 -6 -1 0 -2 -1 -2 -2 0
-3 -3 -6 -6 -6 -1 0 -2 1 -2 2 0 3 3 6 6 6 1 0 2 1 2 2 0 3 3 6 6 6 1 0 2 -1
2 -2z"/><path d="M194 198 c-1 -1 -2 -3 -2 -6 0 -6 2 -8 8 -8 4 0 5 0 8 -4 l3 -4 31 0
30 0 0 -4 0 -4 -22 0 c-21 0 -23 0 -24 -2 -2 -2 -2 -2 0 -4 1 -2 3 -2 22 -2
22 0 24 0 24 6 0 1 1 2 2 2 3 0 6 3 6 6 0 1 1 2 2 2 2 0 4 1 5 2 1 2 1 2 0 4
-1 1 -3 2 -5 2 -1 0 -2 1 -2 2 0 1 -2 5 -6 8 l-6 6 -36 0 c-34 0 -37 0 -38 -2z
m86 -18 l0 -4 -4 0 c-3 0 -4 0 -4 2 0 3 3 6 6 6 2 0 2 0 2 -4z"/></g>
  <g transform="scale(0.125 0.125) translate(0.000000,512.000000) scale(1.000000,-1.000000)" fill="#aa7f38" stroke="none"><path d="M240 260 c-3 -4 -4 -4 -8 -4 -4 0 -4 0 -14 -10 -10 -10 -10 -10 -10
-14 0 -3 1 -5 2 -6 2 -2 2 -2 14 10 l12 12 12 0 13 0 3 4 3 4 9 0 c7 0 9 0 11
2 1 2 1 2 0 4 -2 2 -4 2 -23 2 l-21 0 -3 -4z"/><path d="M322 230 c-2 -2 -2 -2 0 -4 1 -2 3 -2 16 -2 l14 0 0 -2 c0 -2 1 -4 2
-5 2 -1 2 -1 4 1 2 2 2 2 1 4 -1 1 -3 2 -5 2 -1 0 -2 1 -2 2 0 5 -3 6 -16 6
-11 0 -13 0 -14 -2z"/><path d="M225 214 c-1 -2 -1 -2 1 -4 l2 -2 2 2 c2 2 2 2 1 4 -1 1 -3 2 -3 2 0
0 -2 -1 -3 -2z"/><path d="M281 214 c-1 -2 -1 -2 1 -4 l2 -2 2 2 c2 2 2 2 1 4 -1 1 -3 2 -3 2 0
0 -2 -1 -3 -2z"/><path d="M194 198 c-1 -1 -2 -3 -2 -6 0 -6 2 -8 8 -8 4 0 5 0 8 -4 l3 -4 29 0
28 0 6 6 6 6 -6 6 -6 6 -36 0 c-34 0 -37 0 -38 -2z"/><path d="M194 174 c-2 -1 -2 -4 -2 -10 l0 -8 6 -6 c5 -5 6 -6 10 -6 4 0 5 0
12 -8 7 -8 8 -8 12 -8 4 0 5 1 10 6 6 6 6 6 4 8 -1 2 -3 2 -10 2 l-8 0 -6 6
c-6 5 -6 6 -6 10 0 6 -2 8 -8 8 -4 0 -5 0 -8 4 -4 5 -4 5 -6 2z"/><path d="M326 162 c-14 -14 -14 -14 -14 -18 0 -4 0 -5 -4 -8 -4 -4 -4 -4 -3
-6 2 -2 3 -2 15 -2 l12 0 10 10 10 10 0 12 c0 15 -1 16 -8 16 -4 0 -5 0 -18
-14z"/></g>
  <g transform="scale(0.125 0.125) translate(0.000000,512.000000) scale(1.000000,-1.000000)" fill="#674309" stroke="none"><path d="M240 260 c-3 -4 -4 -4 -8 -4 -4 0 -4 0 -14 -10 -10 -10 -10 -10 -10
-14 0 -3 1 -5 2 -6 2 -2 2 -2 14 10 l12 12 12 0 13 0 3 4 3 4 9 0 c7 0 9 0 11
2 1 2 1 2 0 4 -2 2 -4 2 -23 2 l-21 0 -3 -4z"/><path d="M322 230 c-2 -2 -2 -2 0 -4 1 -2 3 -2 16 -2 l14 0 0 -2 c0 -2 1 -4 2
-5 2 -1 2 -1 4 1 2 2 2 2 1 4 -1 1 -3 2 -5 2 -1 0 -2 1 -2 2 0 5 -3 6 -16 6
-11 0 -13 0 -14 -2z"/><path d="M225 214 c-1 -2 -1 -2 1 -4 l2 -2 2 2 c2 2 2 2 1 4 -1 1 -3 2 -3 2 0
0 -2 -1 -3 -2z"/><path d="M281 214 c-1 -2 -1 -2 1 -4 l2 -2 2 2 c2 2 2 2 1 4 -1 1 -3 2 -3 2 0
0 -2 -1 -3 -2z"/><path d="M194 198 c-3 -3 -3 -10 0 -13 2 -1 2 -1 6 3 l4 4 34 0 34 0 0 -4 0
-4 -18 0 c-17 0 -19 0 -20 -2 -2 -2 -2 -2 0 -4 1 -2 3 -2 18 -2 18 0 20 1 20
6 0 1 1 2 2 2 2 0 4 1 5 2 1 2 1 2 0 4 -1 1 -3 2 -5 2 -1 0 -2 1 -2 2 0 6 0 6
-40 6 -34 0 -37 0 -38 -2z"/><path d="M194 174 c-2 -1 -2 -4 -2 -10 l0 -8 6 -6 c5 -5 6 -6 10 -6 4 0 5 0
12 -8 7 -8 8 -8 12 -8 4 0 5 1 10 6 6 6 6 6 4 8 -1 2 -3 2 -10 2 l-8 0 -6 6
c-6 5 -6 6 -6 10 0 6 -2 8 -8 8 -4 0 -5 0 -8 4 -4 5 -4 5 -6 2z"/><path d="M338 174 c-1 -1 -2 -3 -2 -4 0 -1 -1 -2 -2 -2 -3 0 -6 -3 -6 -6 0 -1
-1 -2 -2 -2 -3 0 -6 -3 -6 -6 0 -1 -1 -2 -2 -2 -2 0 -4 -1 -5 -2 -1 -2 -1 -2
1 -4 2 -2 2 -2 4 -1 1 1 2 3 2 5 0 1 1 2 2 2 3 0 6 3 6 6 0 1 1 2 2 2 3 0 6 3
6 6 0 1 1 2 2 2 2 0 4 1 5 2 1 2 1 2 0 4 -3 2 -3 2 -5 0z"/><path d="M306 134 c-3 -3 0 -6 6 -6 6 0 9 3 7 6 -2 1 -4 2 -7 2 -3 0 -5 -1 -6
-2z"/></g>
  <g transform="scale(0.125 0.125) translate(0.000000,512.000000) scale(1.000000,-1.000000)" fill="#55948b" stroke="none"><path d="M240 260 c-3 -4 -4 -4 -8 -4 -4 0 -4 0 -14 -10 -10 -10 -10 -10 -10
-14 0 -3 1 -5 2 -6 2 -2 2 -2 14 10 l12 12 12 0 13 0 3 4 3 4 9 0 c7 0 9 0 11
2 1 2 1 2 0 4 -2 2 -4 2 -23 2 l-21 0 -3 -4z"/><path d="M322 230 c-2 -2 -2 -2 0 -4 1 -2 3 -2 16 -2 l14 0 0 -2 c0 -2 1 -4 2
-5 2 -1 2 -1 4 1 2 2 2 2 1 4 -1 1 -3 2 -5 2 -1 0 -2 1 -2 2 0 5 -3 6 -16 6
-11 0 -13 0 -14 -2z"/><path d="M225 214 c-1 -2 -1 -2 1 -4 l2 -2 2 2 c2 2 2 2 1 4 -1 1 -3 2 -3 2 0
0 -2 -1 -3 -2z"/><path d="M281 214 c-1 -2 -1 -2 1 -4 l2 -2 2 2 c2 2 2 2 1 4 -1 1 -3 2 -3 2 0
0 -2 -1 -3 -2z"/><path d="M194 198 c-3 -3 -3 -10 0 -13 2 -1 2 -1 6 3 l4 4 32 0 c31 0 33 0 35
2 1 2 1 2 0 4 -3 3 -75 3 -77 0z"/><path d="M306 134 c-3 -3 0 -6 6 -6 6 0 9 3 7 6 -2 1 -4 2 -7 2 -3 0 -5 -1 -6
-2z"/></g>
  <g transform="scale(0.125 0.125) translate(0.000000,512.000000) scale(1.000000,-1.000000)" fill="#ecc687" stroke="none"><path d="M225 214 c-1 -2 -1 -2 1 -4 l2 -2 2 2 c2 2 2 2 1 4 -1 1 -3 2 -3 2 0
0 -2 -1 -3 -2z"/><path d="M281 214 c-1 -2 -1 -2 1 -4 l2 -2 2 2 c2 2 2 2 1 4 -1 1 -3 2 -3 2 0
0 -2 -1 -3 -2z"/><path d="M194 198 c-3 -3 -3 -10 0 -13 2 -1 2 -1 6 3 l4 4 32 0 c31 0 33 0 35
2 1 2 1 2 0 4 -3 3 -75 3 -77 0z"/><path d="M306 134 c-3 -3 0 -6 6 -6 6 0 9 3 7 6 -2 1 -4 2 -7 2 -3 0 -5 -1 -6
-2z"/></g>
  <g transform="scale(0.125 0.125) translate(0.000000,512.000000) scale(1.000000,-1.000000)" fill="#afd5d0" stroke="none"><path d="M225 214 c-1 -2 -1 -2 1 -4 l2 -2 2 2 c2 2 2 2 1 4 -1 1 -3 2 -3 2 0
0 -2 -1 -3 -2z"/><path d="M281 214 c-1 -2 -1 -2 1 -4 l2 -2 2 2 c2 2 2 2 1 4 -1 1 -3 2 -3 2 0
0 -2 -1 -3 -2z"/></g>
</svg>
