<?xml version="1.0" encoding="UTF-8"?>
<svg xmlns="http://www.w3.org/2000/svg" viewBox="0 0 64 64" shape-rendering="crispEdges">
<rect x="30" y="29" width="8" height="1" fill="#001714"/>
<rect x="28" y="30" width="2" height="1" fill="#001714"/>
<rect x="30" y="30" width="6" height="1" fill="#55948b"/>
<rect x="36" y="30" width="1" height="1" fill="#236b61"/>
<rect x="37" y="30" width="1" height="1" fill="#054139"/>
<rect x="38" y="30" width="1" height="1" fill="#001714"/>
<rect x="27" y="31" width="1" height="1" fill="#001714"/>
<rect x="28" y="31" width="5" height="1" fill="#55948b"/>
<rect x="33" y="31" width="5" height="1" fill="#236b61"/>
<rect x="38" y="31" width="1" height="1" fill="#054139"/>
<rect x="39" y="31" width="1" height="1" fill="#001714"/>
<rect x="26" y="32" width="1" height="1" fill="#001714"/>
<rect x="27" y="32" width="2" height="1" fill="#55948b"/>
<rect x="29" y="32" width="10" height="1" fill="#236b61"/>
<rect x="39" y="32" width="1" height="1" fill="#054139"/>
<rect x="40" y="32" width="1" height="1" fill="#001714"/>
<rect x="25" y="33" width="1" height="1" fill="#001714"/>
<rect x="26" y="33" width="2" height="1" fill="#55948b"/>
<rect x="28" y="33" width="12" height="1" fill="#236b61"/>
<rect x="40" y="33" width="1" height="1" fill="#054139"/>
<rect x="41" y="33" width="1" height="1" fill="#001714"/>
<rect x="25" y="34" width="1" height="1" fill="#001714"/>
<rect x="26" y="34" width="1" height="1" fill="#55948b"/>
<rect x="27" y="34" width="14" height="1" fill="#236b61"/>
<rect x="41" y="34" width="1" height="1" fill="#054139"/>
<rect x="42" y="34" width="1" height="1" fill="#001714"/>
<rect x="25" y="35" width="3" height="1" fill="#001714"/>
<rect x="28" y="35" width="5" height="1" fill="#236b61"/>
<rect x="33" y="35" width="2" height="1" fill="#001714"/>
<rect x="35" y="35" width="7" height="1" fill="#236b61"/>
<rect x="42" y="35" width="1" height="1" fill="#054139"/>
<rect x="43" y="35" width="1" height="1" fill="#001714"/>
<rect x="25" y="36" width="2" height="1" fill="#001714"/>
<rect x="27" y="36" width="1" height="1" fill="#afd5d0"/>
<rect x="28" y="36" width="5" height="1" fill="#236b61"/>
<rect x="33" y="36" width="1" height="1" fill="#afd5d0"/>
<rect x="34" y="36" width="1" height="1" fill="#001714"/>
<rect x="35" y="36" width="8" height="1" fill="#236b61"/>
<rect x="43" y="36" width="1" height="1" fill="#054139"/>
<rect x="44" y="36" width="1" height="1" fill="#001714"/>
<rect x="23" y="37" width="10" height="1" fill="#251700"/>
<rect x="33" y="37" width="11" height="1" fill="#236b61"/>
<rect x="44" y="37" width="1" height="1" fill="#001714"/>
<rect x="22" y="38" width="1" height="1" fill="#251700"/>
<rect x="23" y="38" width="10" height="1" fill="#ecc687"/>
<rect x="33" y="38" width="1" height="1" fill="#251700"/>
<rect x="34" y="38" width="10" height="1" fill="#236b61"/>
<rect x="44" y="38" width="1" height="1" fill="#054139"/>
<rect x="45" y="38" width="1" height="1" fill="#001714"/>
<rect x="22" y="39" width="1" height="1" fill="#251700"/>
<rect x="23" y="39" width="1" height="1" fill="#ecc687"/>
<rect x="24" y="39" width="9" height="1" fill="#aa7f38"/>
<rect x="33" y="39" width="1" height="1" fill="#674309"/>
<rect x="34" y="39" width="1" height="1" fill="#251700"/>
<rect x="35" y="39" width="4" height="1" fill="#236b61"/>
<rect x="39" y="39" width="1" height="1" fill="#001714"/>
<rect x="40" y="39" width="3" height="1" fill="#236b61"/>
<rect x="43" y="39" width="2" height="1" fill="#054139"/>
<rect x="45" y="39" width="1" height="1" fill="#001714"/>
<rect x="23" y="40" width="2" height="1" fill="#251700"/>
<rect x="25" y="40" width="3" height="1" fill="#aa7f38"/>
<rect x="28" y="40" width="5" height="1" fill="#674309"/>
<rect x="33" y="40" width="1" height="1" fill="#251700"/>
<rect x="34" y="40" width="2" height="1" fill="#054139"/>
<rect x="36" y="40" width="3" height="1" fill="#236b61"/>
<rect x="39" y="40" width="1" height="1" fill="#001714"/>
<rect x="40" y="40" width="1" height="1" fill="#054139"/>
<rect x="41" y="40" width="1" height="1" fill="#236b61"/>
<rect x="42" y="40" width="2" height="1" fill="#054139"/>
<rect x="44" y="40" width="1" height="1" fill="#001714"/>
<rect x="24" y="41" width="9" height="1" fill="#251700"/>
<rect x="33" y="41" width="2" height="1" fill="#054139"/>
<rect x="35" y="41" width="3" height="1" fill="#236b61"/>
<rect x="38" y="41" width="2" height="1" fill="#054139"/>
<rect x="40" y="41" width="1" height="1" fill="#001714"/>
<rect x="41" y="41" width="2" height="1" fill="#054139"/>
<rect x="43" y="41" width="1" height="1" fill="#001714"/>
<rect x="27" y="42" width="1" height="1" fill="#001714"/>
<rect x="28" y="42" width="6" height="1" fill="#054139"/>
<rect x="34" y="42" width="3" height="1" fill="#236b61"/>
<rect x="37" y="42" width="3" height="1" fill="#054139"/>
<rect x="40" y="42" width="3" height="1" fill="#001714"/>
<rect x="27" y="43" width="1" height="1" fill="#001714"/>
<rect x="28" y="43" width="8" height="1" fill="#236b61"/>
<rect x="36" y="43" width="3" height="1" fill="#054139"/>
<rect x="39" y="43" width="2" height="1" fill="#001714"/>
<rect x="28" y="44" width="2" height="1" fill="#001714"/>
<rect x="30" y="44" width="2" height="1" fill="#054139"/>
<rect x="32" y="44" width="8" height="1" fill="#001714"/>
<rect x="40" y="44" width="1" height="1" fill="#674309"/>
<rect x="41" y="44" width="1" height="1" fill="#001714"/>
<rect x="30" y="45" width="1" height="1" fill="#251700"/>
<rect x="31" y="45" width="1" height="1" fill="#001714"/>
<rect x="32" y="45" width="6" height="1" fill="#ecc687"/>
<rect x="38" y="45" width="2" height="1" fill="#aa7f38"/>
<rect x="40" y="45" width="1" height="1" fill="#674309"/>
<rect x="41" y="45" width="1" height="1" fill="#001714"/>
<rect x="29" y="46" width="1" height="1" fill="#001714"/>
<rect x="30" y="46" width="1" height="1" fill="#674309"/>
<rect x="31" y="46" width="1" height="1" fill="#001714"/>
<rect x="32" y="46" width="7" height="1" fill="#aa7f38"/>
<rect x="39" y="46" width="1" height="1" fill="#674309"/>
<rect x="40" y="46" width="1" height="1" fill="#001714"/>
<rect x="30" y="47" width="1" height="1" fill="#001714"/>
<rect x="31" y="47" width="1" height="1" fill="#674309"/>
<rect x="32" y="47" width="1" height="1" fill="#001714"/>
<rect x="33" y="47" width="6" height="1" fill="#251700"/>
<rect x="39" y="47" width="1" height="1" fill="#001714"/>
</svg>
