<?xml version="1.0" encoding="UTF-8"?>
<svg xmlns="http://www.w3.org/2000/svg" viewBox="0 0 64 64" width="64" height="64">
  <g transform="scale(0.125 0.125) translate(0.000000,512.000000) scale(1.000000,-1.000000)" fill="#236b61" stroke="none"><path d="M240 268 c-3 -4 -4 -4 -8 -4 -4 0 -4 0 -18 -14 l-14 -14 0 -12 c0
-16 0 -16 -16 -16 l-12 0 -6 -6 c-5 -5 -6 -6 -6 -10 0 -6 10 -16 16 -16 3 0 5
-1 7 -2 1 -2 1 -2 -3 -6 l-4 -4 18 -18 18 -18 20 0 21 0 3 4 3 4 13 0 13 0 3
-4 3 -4 25 0 24 0 10 10 10 10 0 8 0 8 -8 8 -8 8 0 24 0 24 -22 22 -22 22 -28
0 -29 0 -3 -4z"/></g>
  <g transform="scale(0.125 0.125) translate(0.000000,512.000000) scale(1.000000,-1.000000)" fill="#001714" stroke="none"><path d="M240 268 c-3 -4 -4 -4 -8 -4 -4 0 -4 0 -18 -14 l-14 -14 0 -12 c0
-16 0 -16 -16 -16 l-12 0 -6 -6 c-5 -5 -6 -6 -6 -10 0 -6 10 -16 16 -16 3 0 5
-1 7 -2 1 -2 1 -2 -3 -6 l-4 -4 18 -18 18 -18 20 0 21 0 3 4 3 4 13 0 13 0 3
-4 3 -4 25 0 24 0 10 10 10 10 0 8 0 8 -8 8 -8 8 0 24 0 24 -22 22 -22 22 -28
0 -29 0 -3 -4z m70 -22 l18 -18 0 -16 0 -16 -6 -6 -6 -6 -8 0 -9 0 -3 -4 c-3
-4 -3 -4 -10 -4 l-6 0 0 -6 c0 -9 -1 -10 -12 -10 l-8 0 -6 6 -6 6 0 8 0 8 -8
8 c-5 5 -8 8 -8 10 0 2 0 2 -10 2 -12 0 -14 1 -14 8 0 4 0 4 14 18 l14 14 12
0 13 0 3 4 3 4 9 0 9 0 3 4 c2 2 3 4 4 4 0 0 8 -8 18 -18z"/><path d="M234 222 c-2 -1 -2 -3 -2 -8 l0 -6 6 0 c8 0 10 2 10 8 0 6 -2 8 -8 8
-3 0 -5 -1 -6 -2z"/><path d="M278 202 l-6 -6 0 -8 c0 -7 0 -9 2 -10 3 -3 6 -3 6 0 0 2 3 5 8 10 8
7 8 8 8 12 0 6 -2 8 -8 8 -4 0 -5 -1 -10 -6z"/></g>
  <g transform="scale(0.125 0.125) translate(0.000000,512.000000) scale(1.000000,-1.000000)" fill="#054139" stroke="none"><path d="M240 260 c-3 -4 -4 -4 -8 -4 -4 0 -4 0 -14 -10 -10 -10 -10 -10 -10
-14 0 -3 1 -5 2 -6 2 -2 2 -2 14 10 l12 12 12 0 13 0 3 4 3 4 9 0 c7 0 9 0 11
2 1 2 1 2 0 4 -2 2 -4 2 -23 2 l-21 0 -3 -4z"/><path d="M298 262 c-2 -2 -2 -2 0 -4 0 -1 2 -2 4 -2 1 0 2 -1 2 -2 0 -3 3 -6
6 -6 1 0 2 -1 2 -2 0 -3 3 -6 6 -6 1 0 2 -1 2 -2 0 -3 3 -6 6 -6 2 0 2 0 2
-18 l0 -18 -6 -6 -6 -6 -8 0 c-11 0 -12 -1 -12 -10 l0 -6 -6 0 c-7 0 -7 0 -10
-4 l-3 -4 -9 0 -8 0 -6 6 -6 6 0 8 0 8 -8 8 c-8 8 -10 12 -6 12 2 0 4 1 5 2 1
2 1 2 -1 4 -2 2 -2 2 -4 1 -1 -1 -2 -3 -2 -5 l0 -2 -30 0 -30 0 -6 -6 c-5 -5
-6 -6 -6 -10 0 -6 10 -16 16 -16 3 0 5 -1 7 -2 1 -2 1 -2 -3 -6 l-4 -4 18 -18
18 -18 20 0 c24 0 24 0 24 8 0 8 1 8 20 8 16 0 17 0 19 -2 1 -2 1 -2 -3 -6 -4
-4 -4 -4 -3 -6 2 -2 3 -2 27 -2 l24 0 10 10 10 10 0 8 0 8 -6 6 -6 6 -6 0 -6
0 0 26 c0 29 0 30 -6 30 -1 0 -2 1 -2 2 0 3 -3 6 -6 6 -1 0 -2 1 -2 2 0 3 -3
6 -6 6 -1 0 -2 1 -2 2 0 3 -3 6 -6 6 -1 0 -2 1 -2 2 0 2 -3 6 -4 6 0 0 -2 -1
-2 -2z m38 -88 c0 -3 -3 -6 -6 -6 -1 0 -2 -1 -2 -2 0 -3 -11 -14 -14 -14 -1 0
-2 -1 -2 -2 0 -2 -1 -4 -2 -5 -2 -1 -2 -1 -4 1 -2 2 -2 2 -1 4 1 1 3 2 5 2 1
0 2 1 2 2 0 4 -3 6 -8 6 -5 0 -8 2 -8 6 l0 2 16 0 c16 0 16 0 16 2 0 3 3 6 6
6 1 0 2 -1 2 -2z"/><path d="M282 198 c-3 -2 -3 -10 0 -12 2 -2 2 -2 8 4 6 6 6 6 4 8 -2 3 -10 3
-12 0z"/></g>
  <g transform="scale(0.125 0.125) translate(0.000000,512.000000) scale(1.000000,-1.000000)" fill="#251700" stroke="none"><path d="M240 260 c-3 -4 -4 -4 -8 -4 -4 0 -4 0 -14 -10 -10 -10 -10 -10 -10
-14 0 -3 1 -5 2 -6 2 -2 2 -2 14 10 l12 12 12 0 13 0 3 4 3 4 9 0 c7 0 9 0 11
2 1 2 1 2 0 4 -2 2 -4 2 -23 2 l-21 0 -3 -4z"/><path d="M234 214 c-1 -1 -2 -3 -2 -4 l0 -2 -30 0 -30 0 -6 -6 c-8 -8 -8 -12
0 -20 5 -6 6 -6 10 -6 3 0 5 -1 7 -2 1 -2 1 -2 -3 -6 l-4 -4 18 -18 18 -18 20
0 c24 0 24 0 24 8 0 4 0 5 -12 16 -12 11 -12 12 -12 16 0 4 0 5 8 12 l8 8 -8
8 c-8 8 -10 12 -6 12 2 0 4 1 5 2 1 2 1 2 0 4 -3 2 -3 2 -5 0z"/><path d="M282 198 c-3 -2 -3 -10 0 -12 2 -2 2 -2 8 4 6 6 6 6 4 8 -2 3 -10 3
-12 0z"/><path d="M324 160 c-15 -16 -16 -16 -20 -16 -4 0 -5 -1 -10 -6 -6 -6 -6 -6 -4
-8 1 -2 3 -2 26 -2 l24 0 10 10 10 10 0 8 0 8 -6 6 c-5 6 -6 6 -10 6 -4 0 -5
0 -20 -16z"/></g>
  <g transform="scale(0.125 0.125) translate(0.000000,512.000000) scale(1.000000,-1.000000)" fill="#674309" stroke="none"><path d="M240 260 c-3 -4 -4 -4 -8 -4 -4 0 -4 0 -14 -10 -10 -10 -10 -10 -10
-14 0 -3 1 -5 2 -6 2 -2 2 -2 14 10 l12 12 12 0 13 0 3 4 3 4 9 0 c7 0 9 0 11
2 1 2 1 2 0 4 -2 2 -4 2 -23 2 l-21 0 -3 -4z"/><path d="M233 214 c-1 -2 -1 -2 1 -4 l2 -2 2 2 c2 2 2 2 1 4 -1 1 -3 2 -3 2 0
0 -2 -1 -3 -2z"/><path d="M170 198 c-1 -1 -2 -3 -2 -6 0 -6 2 -8 8 -8 4 0 5 0 8 -4 l3 -4 21 0
20 0 6 6 6 6 -6 6 -6 6 -28 0 c-27 0 -29 0 -30 -2z"/><path d="M282 198 c-3 -2 -3 -10 0 -12 2 -2 2 -2 8 4 6 6 6 6 4 8 -2 3 -10 3
-12 0z"/><path d="M186 166 c-2 -2 -2 -2 16 -20 l18 -18 12 0 c15 0 16 1 16 8 0 4 0 5
-14 18 l-14 14 -16 0 c-15 0 -17 0 -18 -2z"/><path d="M314 150 c-23 -23 -23 -22 2 -22 l16 0 10 10 10 10 0 8 c0 11 -1 12
-12 12 l-8 0 -18 -18z"/></g>
  <g transform="scale(0.125 0.125) translate(0.000000,512.000000) scale(1.000000,-1.000000)" fill="#aa7f38" stroke="none"><path d="M240 260 c-3 -4 -4 -4 -8 -4 -4 0 -4 0 -14 -10 -10 -10 -10 -10 -10
-14 0 -3 1 -5 2 -6 2 -2 2 -2 14 10 l12 12 12 0 13 0 3 4 3 4 9 0 c7 0 9 0 11
2 1 2 1 2 0 4 -2 2 -4 2 -23 2 l-21 0 -3 -4z"/><path d="M233 214 c-1 -2 -1 -2 1 -4 l2 -2 2 2 c2 2 2 2 1 4 -1 1 -3 2 -3 2 0
0 -2 -1 -3 -2z"/><path d="M170 198 c-1 -1 -2 -3 -2 -6 0 -6 2 -8 8 -8 4 0 5 0 8 -4 3 -4 4 -4
8 -4 4 0 5 0 8 4 l3 4 13 0 c15 0 16 1 16 8 0 8 0 8 -32 8 -27 0 -29 0 -30 -2z"/><path d="M282 198 c-3 -2 -3 -10 0 -12 2 -2 2 -2 8 4 6 6 6 6 4 8 -2 3 -10 3
-12 0z"/><path d="M186 166 c-2 -2 -2 -2 16 -20 l18 -18 4 4 c3 4 4 4 8 4 4 0 5 1 7 2
1 2 1 2 -3 6 -4 3 -4 4 -4 8 0 4 -1 5 -6 10 l-6 6 -16 0 c-15 0 -17 0 -18 -2z"/></g>
  <g transform="scale(0.125 0.125) translate(0.000000,512.000000) scale(1.000000,-1.000000)" fill="#55948b" stroke="none"><path d="M240 260 c-3 -4 -4 -4 -8 -4 -4 0 -4 0 -14 -10 -10 -10 -10 -10 -10
-14 0 -3 1 -5 2 -6 2 -2 2 -2 14 10 l12 12 12 0 13 0 3 4 3 4 9 0 c7 0 9 0 11
2 1 2 1 2 0 4 -2 2 -4 2 -23 2 l-21 0 -3 -4z"/><path d="M233 214 c-1 -2 -1 -2 1 -4 l2 -2 2 2 c2 2 2 2 1 4 -1 1 -3 2 -3 2 0
0 -2 -1 -3 -2z"/><path d="M170 198 c-3 -3 -3 -10 0 -13 2 -1 2 -1 6 3 l4 4 24 0 c23 0 25 0 27
2 1 2 1 2 0 4 -3 3 -59 3 -61 0z"/><path d="M282 198 c-3 -2 -3 -10 0 -12 2 -2 2 -2 8 4 6 6 6 6 4 8 -2 3 -10 3
-12 0z"/><path d="M186 166 c-2 -2 -2 -2 4 -8 3 -3 7 -6 8 -6 1 0 2 -1 2 -2 0 -2 1 -4
2 -5 2 -1 2 -1 4 1 2 2 2 2 1 4 -1 1 -3 2 -5 2 -1 0 -2 1 -2 2 0 4 3 6 8 6 6
0 9 3 7 6 -3 3 -27 3 -29 0z"/></g>
  <g transform="scale(0.125 0.125) translate(0.000000,512.000000) scale(1.000000,-1.000000)" fill="#ecc687" stroke="none"><path d="M233 214 c-1 -2 -1 -2 1 -4 l2 -2 2 2 c2 2 2 2 1 4 -1 1 -3 2 -3 2 0
0 -2 -1 -3 -2z"/><path d="M170 198 c-3 -3 -3 -10 0 -13 2 -1 2 -1 6 3 l4 4 24 0 c23 0 25 0 27
2 1 2 1 2 0 4 -3 3 -59 3 -61 0z"/><path d="M186 166 c-2 -2 -2 -2 4 -8 3 -3 7 -6 8 -6 1 0 2 -1 2 -2 0 -2 1 -4
2 -5 2 -1 2 -1 4 1 2 2 2 2 1 4 -1 1 -3 2 -5 2 -1 0 -2 1 -2 2 0 4 3 6 8 6 6
0 9 3 7 6 -3 3 -27 3 -29 0z"/></g>
  <g transform="scale(0.125 0.125) translate(0.000000,512.000000) scale(1.000000,-1.000000)" fill="#afd5d0" stroke="none"><path d="M233 214 c-1 -2 -1 -2 1 -4 l2 -2 2 2 c2 2 2 2 1 4 -1 1 -3 2 -3 2 0
0 -2 -1 -3 -2z"/></g>
</svg>
