<?xml version="1.0" encoding="UTF-8"?>
<svg xmlns="http://www.w3.org/2000/svg" viewBox="0 0 64 64" width="64" height="64">
  <g transform="scale(0.125 0.125) translate(0.000000,512.000000) scale(1.000000,-1.000000)" fill="#236b61" stroke="none"><path d="M240 276 c-3 -4 -4 -4 -8 -4 -4 0 -4 0 -18 -14 l-14 -14 0 -12 c0
-15 -1 -16 -8 -16 -6 0 -16 -10 -16 -16 0 -4 1 -5 10 -14 l10 -10 8 0 c10 0
12 -1 12 -8 0 -6 10 -16 16 -16 3 0 5 -1 7 -2 1 -2 1 -2 -3 -6 l-4 -4 6 -6 6
-6 36 0 36 0 10 10 c10 9 10 10 10 14 0 4 0 5 -4 8 -4 4 -4 4 -3 6 2 1 4 2 7
2 4 0 4 0 18 14 14 14 14 14 14 18 0 4 0 5 -4 8 -4 3 -4 4 -4 8 l0 4 -30 30
-30 30 -28 0 -29 0 -3 -4z"/></g>
  <g transform="scale(0.125 0.125) translate(0.000000,512.000000) scale(1.000000,-1.000000)" fill="#001714" stroke="none"><path d="M240 276 c-3 -4 -4 -4 -8 -4 -4 0 -4 0 -18 -14 l-14 -14 0 -12 c0
-15 -1 -16 -8 -16 -6 0 -16 -10 -16 -16 0 -4 1 -5 10 -14 l10 -10 8 0 c10 0
12 -1 12 -8 0 -5 2 -8 6 -8 1 0 2 -1 2 -2 0 -4 3 -6 8 -6 3 0 5 -1 7 -2 1 -2
1 -2 -3 -6 l-4 -4 6 -6 6 -6 36 0 36 0 10 10 c10 9 10 10 10 14 0 4 0 5 -4 8
-4 4 -4 4 -3 6 2 1 4 2 7 2 4 0 4 0 18 14 14 14 14 14 14 18 0 4 0 5 -4 8 -4
3 -4 4 -4 8 l0 4 -30 30 -30 30 -28 0 -29 0 -3 -4z m82 -34 c37 -37 35 -33 20
-48 l-10 -10 -8 8 c-8 8 -8 8 -10 7 -1 -2 -2 -4 -2 -7 0 -4 0 -4 -14 -18 l-14
-14 -30 0 -30 0 0 2 c0 6 2 6 24 6 l20 0 10 10 10 10 -12 12 c-8 8 -12 12 -12
14 0 2 0 2 -18 2 -21 0 -22 0 -22 8 0 4 0 5 -4 8 l-4 4 10 10 10 10 12 0 13 0
3 4 3 4 9 0 9 0 3 4 c2 2 3 4 4 4 0 0 14 -13 30 -30z"/><path d="M266 230 c-2 -1 -2 -3 -2 -8 l0 -6 6 0 c8 0 10 2 10 8 0 6 -2 8 -8 8
-3 0 -5 -1 -6 -2z"/></g>
  <g transform="scale(0.125 0.125) translate(0.000000,512.000000) scale(1.000000,-1.000000)" fill="#054139" stroke="none"><path d="M240 268 c-3 -4 -4 -4 -8 -4 -4 0 -4 0 -14 -10 -10 -10 -10 -10 -10
-14 0 -3 1 -5 2 -6 2 -2 2 -2 14 10 l12 12 12 0 13 0 3 4 3 4 9 0 c7 0 9 0 11
2 1 2 1 2 0 4 -2 2 -4 2 -23 2 l-21 0 -3 -4z"/><path d="M298 270 c-2 -2 -2 -2 0 -4 0 -1 2 -2 4 -2 1 0 2 -1 2 -2 0 -3 3 -6
6 -6 1 0 2 -1 2 -2 0 -3 3 -6 6 -6 1 0 2 -1 2 -2 0 -3 3 -6 6 -6 1 0 2 -1 2
-2 0 -3 3 -6 6 -6 1 0 2 -1 2 -2 0 -3 3 -6 6 -6 1 0 2 -1 2 -2 0 -2 1 -4 2 -5
2 -1 2 -1 4 1 2 2 2 2 1 4 -1 1 -3 2 -5 2 -1 0 -2 1 -2 2 0 3 -3 6 -6 6 -1 0
-2 1 -2 2 0 3 -3 6 -6 6 -1 0 -2 1 -2 2 0 3 -3 6 -6 6 -1 0 -2 1 -2 2 0 3 -3
6 -6 6 -1 0 -2 1 -2 2 0 3 -3 6 -6 6 -1 0 -2 1 -2 2 0 2 -3 6 -4 6 0 0 -2 -1
-2 -2z"/><path d="M216 220 l-3 -4 -13 0 -12 0 -6 -6 c-5 -5 -6 -6 -6 -10 0 -4 1 -5 10
-14 l10 -10 12 0 13 0 3 -4 3 -4 21 0 20 0 10 10 10 10 -12 12 c-12 12 -15 16
-10 16 2 0 4 1 5 2 1 2 1 2 -1 4 -2 2 -2 2 -4 1 -1 -1 -2 -3 -2 -5 l0 -2 -18
0 -19 0 -3 4 c-2 2 -4 4 -4 4 0 0 -2 -2 -4 -4z"/><path d="M344 196 c-12 -12 -16 -15 -16 -10 0 2 -1 4 -2 5 -2 1 -2 1 -4 0 -1
-1 -2 -3 -2 -5 0 -2 0 -2 -6 -2 l-6 0 -10 -10 c-10 -10 -10 -10 -8 -12 1 -2 3
-2 10 -2 l8 0 6 6 6 6 0 6 0 6 4 0 c4 0 4 0 4 -2 0 -4 3 -6 8 -6 4 0 5 0 14
10 10 10 10 10 10 14 0 4 -2 8 -4 8 0 0 -6 -5 -12 -12z"/><path d="M242 158 c-2 -1 -2 -4 -2 -10 0 -9 1 -12 6 -12 1 0 2 -1 2 -2 0 -2 1
-4 2 -4 2 -2 2 -2 4 0 1 0 2 2 2 4 0 4 4 3 8 -2 l3 -4 21 0 20 0 10 10 c10 10
10 10 10 14 0 3 -1 5 -2 7 -2 1 -2 1 -6 -3 l-3 -4 -31 0 -30 0 0 2 c0 6 -10 8
-14 4z m14 -14 l0 -8 -4 0 -4 0 0 6 c0 7 2 10 6 10 2 0 2 0 2 -8z"/></g>
  <g transform="scale(0.125 0.125) translate(0.000000,512.000000) scale(1.000000,-1.000000)" fill="#251700" stroke="none"><path d="M240 268 c-3 -4 -4 -4 -8 -4 -4 0 -4 0 -14 -10 -10 -10 -10 -10 -10
-14 0 -3 1 -5 2 -6 2 -2 2 -2 14 10 l12 12 12 0 13 0 3 4 3 4 9 0 c7 0 9 0 11
2 1 2 1 2 0 4 -2 2 -4 2 -23 2 l-21 0 -3 -4z"/><path d="M216 220 l-3 -4 -13 0 -12 0 -6 -6 c-5 -5 -6 -6 -6 -10 0 -4 1 -5 10
-14 l10 -10 32 0 32 0 10 10 10 10 -8 8 c-8 8 -10 12 -6 12 2 0 4 1 5 2 1 2 1
2 -1 4 -2 2 -2 2 -4 1 -1 -1 -2 -3 -2 -5 l0 -2 -18 0 -19 0 -3 4 c-2 2 -4 4
-4 4 0 0 -2 -2 -4 -4z"/><path d="M320 156 l-3 -4 -29 0 c-33 0 -32 0 -32 -10 l0 -6 -4 0 -4 0 0 6 c0
8 -3 12 -6 9 -5 -5 -2 -15 4 -15 1 0 2 -1 2 -2 0 -2 1 -4 2 -4 2 -2 2 -2 4 0
1 0 2 2 2 4 0 4 4 3 8 -2 l3 -4 21 0 20 0 10 10 c10 10 10 10 10 14 0 3 -1 5
-2 6 -2 3 -2 3 -6 -2z"/></g>
  <g transform="scale(0.125 0.125) translate(0.000000,512.000000) scale(1.000000,-1.000000)" fill="#aa7f38" stroke="none"><path d="M240 268 c-3 -4 -4 -4 -8 -4 -4 0 -4 0 -14 -10 -10 -10 -10 -10 -10
-14 0 -3 1 -5 2 -6 2 -2 2 -2 14 10 l12 12 12 0 13 0 3 4 3 4 9 0 c7 0 9 0 11
2 1 2 1 2 0 4 -2 2 -4 2 -23 2 l-21 0 -3 -4z"/><path d="M217 222 c-1 -2 -1 -2 1 -4 l2 -2 2 2 c2 2 2 2 1 4 -1 1 -3 2 -3 2 0
0 -2 -1 -3 -2z"/><path d="M265 222 c-1 -2 -1 -2 1 -4 l2 -2 2 2 c2 2 2 2 1 4 -1 1 -3 2 -3 2 0
0 -2 -1 -3 -2z"/><path d="M186 206 c-1 -1 -2 -3 -2 -6 0 -6 2 -8 8 -8 4 0 5 0 8 -4 l3 -4 29 0
28 0 6 6 6 6 -6 6 -6 6 -36 0 c-34 0 -37 0 -38 -2z"/><path d="M320 156 l-3 -4 -29 0 c-33 0 -32 0 -32 -10 l0 -6 -4 0 c-4 0 -4 0
-4 2 0 2 -1 4 -2 5 -2 1 -2 1 -4 -1 -2 -2 -2 -2 -1 -4 1 -1 3 -2 5 -2 1 0 2
-1 2 -2 0 -2 1 -4 2 -4 2 -2 2 -2 4 0 1 0 2 2 2 4 l0 2 30 0 30 0 6 6 c6 5 6
6 6 10 0 3 -1 5 -2 6 -2 3 -2 3 -6 -2z"/></g>
  <g transform="scale(0.125 0.125) translate(0.000000,512.000000) scale(1.000000,-1.000000)" fill="#ecc687" stroke="none"><path d="M240 268 c-3 -4 -4 -4 -8 -4 -4 0 -4 0 -14 -10 -10 -10 -10 -10 -10
-14 0 -3 1 -5 2 -6 2 -2 2 -2 14 10 l12 12 12 0 13 0 3 4 3 4 9 0 c7 0 9 0 11
2 1 2 1 2 0 4 -2 2 -4 2 -23 2 l-21 0 -3 -4z"/><path d="M217 222 c-1 -2 -1 -2 1 -4 l2 -2 2 2 c2 2 2 2 1 4 -1 1 -3 2 -3 2 0
0 -2 -1 -3 -2z"/><path d="M265 222 c-1 -2 -1 -2 1 -4 l2 -2 2 2 c2 2 2 2 1 4 -1 1 -3 2 -3 2 0
0 -2 -1 -3 -2z"/><path d="M186 206 c-3 -3 -3 -10 0 -13 2 -1 2 -1 6 3 l4 4 34 0 34 0 0 -4 0
-4 -18 0 c-17 0 -19 0 -20 -2 -2 -2 -2 -2 0 -4 1 -2 3 -2 18 -2 18 0 20 1 20
6 0 1 1 2 2 2 2 0 4 1 5 2 1 2 1 2 0 4 -1 1 -3 2 -5 2 -1 0 -2 1 -2 2 0 6 0 6
-40 6 -34 0 -37 0 -38 -2z"/><path d="M322 158 c-2 -1 -2 -3 -2 -8 0 -6 0 -6 -2 -6 -2 0 -4 -1 -5 -2 -1 -2
-1 -2 1 -4 2 -2 2 -2 4 -1 1 1 2 3 2 5 0 1 1 2 2 2 6 0 8 10 4 14 -2 2 -2 2
-4 0z"/><path d="M258 150 c-2 -2 -2 -2 0 -4 1 -2 3 -2 22 -2 19 0 21 0 23 2 1 2 1 2
0 4 -2 2 -4 2 -23 2 -19 0 -21 0 -22 -2z"/><path d="M242 142 c-2 -2 -2 -2 0 -4 0 -1 2 -2 4 -2 1 0 2 -1 2 -2 0 -2 1 -4
2 -5 2 -1 2 -1 4 1 2 2 2 2 1 4 -1 1 -3 2 -5 2 -1 0 -2 1 -2 2 0 2 -3 6 -4 6
0 0 -2 -1 -2 -2z"/></g>
  <g transform="scale(0.125 0.125) translate(0.000000,512.000000) scale(1.000000,-1.000000)" fill="#55948b" stroke="none"><path d="M240 268 c-3 -4 -4 -4 -8 -4 -4 0 -4 0 -14 -10 -10 -10 -10 -10 -10
-14 0 -3 1 -5 2 -6 2 -2 2 -2 14 10 l12 12 12 0 13 0 3 4 3 4 9 0 c7 0 9 0 11
2 1 2 1 2 0 4 -2 2 -4 2 -23 2 l-21 0 -3 -4z"/><path d="M217 222 c-1 -2 -1 -2 1 -4 l2 -2 2 2 c2 2 2 2 1 4 -1 1 -3 2 -3 2 0
0 -2 -1 -3 -2z"/><path d="M265 222 c-1 -2 -1 -2 1 -4 l2 -2 2 2 c2 2 2 2 1 4 -1 1 -3 2 -3 2 0
0 -2 -1 -3 -2z"/><path d="M266 198 c-1 -1 -2 -3 -2 -4 0 -2 0 -2 -18 -2 -17 0 -19 0 -20 -2 -2
-2 -2 -2 0 -4 1 -2 3 -2 18 -2 18 0 20 1 20 6 0 1 1 2 2 2 2 0 4 1 5 2 1 2 1
2 0 4 -3 2 -3 2 -5 0z"/><path d="M322 158 c-2 -1 -2 -3 -2 -8 0 -6 0 -6 -2 -6 -2 0 -4 -1 -5 -2 -1 -2
-1 -2 1 -4 2 -2 2 -2 4 -1 1 1 2 3 2 5 0 1 1 2 2 2 6 0 8 10 4 14 -2 2 -2 2
-4 0z"/><path d="M242 142 c-2 -2 -2 -2 0 -4 0 -1 2 -2 4 -2 1 0 2 -1 2 -2 0 -2 1 -4
2 -5 2 -1 2 -1 4 1 2 2 2 2 1 4 -1 1 -3 2 -5 2 -1 0 -2 1 -2 2 0 2 -3 6 -4 6
0 0 -2 -1 -2 -2z"/></g>
  <g transform="scale(0.125 0.125) translate(0.000000,512.000000) scale(1.000000,-1.000000)" fill="#674309" stroke="none"><path d="M217 222 c-1 -2 -1 -2 1 -4 l2 -2 2 2 c2 2 2 2 1 4 -1 1 -3 2 -3 2 0
0 -2 -1 -3 -2z"/><path d="M265 222 c-1 -2 -1 -2 1 -4 l2 -2 2 2 c2 2 2 2 1 4 -1 1 -3 2 -3 2 0
0 -2 -1 -3 -2z"/><path d="M266 198 c-1 -1 -2 -3 -2 -4 0 -2 0 -2 -18 -2 -17 0 -19 0 -20 -2 -2
-2 -2 -2 0 -4 1 -2 3 -2 18 -2 18 0 20 1 20 6 0 1 1 2 2 2 2 0 4 1 5 2 1 2 1
2 0 4 -3 2 -3 2 -5 0z"/><path d="M322 158 c-2 -1 -2 -3 -2 -8 0 -6 0 -6 -2 -6 -2 0 -4 -1 -5 -2 -1 -2
-1 -2 1 -4 2 -2 2 -2 4 -1 1 1 2 3 2 5 0 1 1 2 2 2 6 0 8 10 4 14 -2 2 -2 2
-4 0z"/><path d="M242 142 c-2 -2 -2 -2 0 -4 0 -1 2 -2 4 -2 1 0 2 -1 2 -2 0 -2 1 -4
2 -5 2 -1 2 -1 4 1 2 2 2 2 1 4 -1 1 -3 2 -5 2 -1 0 -2 1 -2 2 0 2 -3 6 -4 6
0 0 -2 -1 -2 -2z"/></g>
  <g transform="scale(0.125 0.125) translate(0.000000,512.000000) scale(1.000000,-1.000000)" fill="#afd5d0" stroke="none"><path d="M217 222 c-1 -2 -1 -2 1 -4 l2 -2 2 2 c2 2 2 2 1 4 -1 1 -3 2 -3 2 0
0 -2 -1 -3 -2z"/><path d="M265 222 c-1 -2 -1 -2 1 -4 l2 -2 2 2 c2 2 2 2 1 4 -1 1 -3 2 -3 2 0
0 -2 -1 -3 -2z"/></g>
</svg>
