<?xml version="1.0" encoding="UTF-8"?>
<svg xmlns="http://www.w3.org/2000/svg" viewBox="0 0 256 32" shape-rendering="crispEdges">
<rect x="14" y="20" width="2" height="1" fill="#2f2f2e"/>
<rect x="19" y="20" width="2" height="1" fill="#2f2f2e"/>
<rect x="46" y="20" width="2" height="1" fill="#2f2f2e"/>
<rect x="51" y="20" width="2" height="1" fill="#2f2f2e"/>
<rect x="78" y="20" width="2" height="1" fill="#2f2f2e"/>
<rect x="83" y="20" width="2" height="1" fill="#2f2f2e"/>
<rect x="110" y="20" width="2" height="1" fill="#2f2f2e"/>
<rect x="115" y="20" width="2" height="1" fill="#2f2f2e"/>
<rect x="14" y="21" width="1" height="1" fill="#2f2f2e"/>
<rect x="15" y="21" width="1" height="1" fill="#b5b5b5"/>
<rect x="16" y="21" width="3" height="1" fill="#2f2f2e"/>
<rect x="19" y="21" width="1" height="1" fill="#b5b5b5"/>
<rect x="20" y="21" width="1" height="1" fill="#2f2f2e"/>
<rect x="46" y="21" width="1" height="1" fill="#2f2f2e"/>
<rect x="47" y="21" width="1" height="1" fill="#b5b5b5"/>
<rect x="48" y="21" width="3" height="1" fill="#2f2f2e"/>
<rect x="51" y="21" width="1" height="1" fill="#b5b5b5"/>
<rect x="52" y="21" width="1" height="1" fill="#2f2f2e"/>
<rect x="78" y="21" width="1" height="1" fill="#2f2f2e"/>
<rect x="79" y="21" width="1" height="1" fill="#b5b5b5"/>
<rect x="80" y="21" width="3" height="1" fill="#2f2f2e"/>
<rect x="83" y="21" width="1" height="1" fill="#b5b5b5"/>
<rect x="84" y="21" width="1" height="1" fill="#2f2f2e"/>
<rect x="110" y="21" width="1" height="1" fill="#2f2f2e"/>
<rect x="111" y="21" width="1" height="1" fill="#b5b5b5"/>
<rect x="112" y="21" width="3" height="1" fill="#2f2f2e"/>
<rect x="115" y="21" width="1" height="1" fill="#b5b5b5"/>
<rect x="116" y="21" width="1" height="1" fill="#2f2f2e"/>
<rect x="14" y="22" width="1" height="1" fill="#2f2f2e"/>
<rect x="15" y="22" width="1" height="1" fill="#b5b5b5"/>
<rect x="16" y="22" width="4" height="1" fill="#e0e0e0"/>
<rect x="20" y="22" width="1" height="1" fill="#2f2f2e"/>
<rect x="46" y="22" width="1" height="1" fill="#2f2f2e"/>
<rect x="47" y="22" width="1" height="1" fill="#b5b5b5"/>
<rect x="48" y="22" width="4" height="1" fill="#e0e0e0"/>
<rect x="52" y="22" width="1" height="1" fill="#2f2f2e"/>
<rect x="78" y="22" width="1" height="1" fill="#2f2f2e"/>
<rect x="79" y="22" width="1" height="1" fill="#b5b5b5"/>
<rect x="80" y="22" width="4" height="1" fill="#e0e0e0"/>
<rect x="84" y="22" width="1" height="1" fill="#2f2f2e"/>
<rect x="110" y="22" width="1" height="1" fill="#2f2f2e"/>
<rect x="111" y="22" width="1" height="1" fill="#b5b5b5"/>
<rect x="112" y="22" width="4" height="1" fill="#e0e0e0"/>
<rect x="116" y="22" width="1" height="1" fill="#2f2f2e"/>
<rect x="14" y="23" width="1" height="1" fill="#2f2f2e"/>
<rect x="15" y="23" width="1" height="1" fill="#b5b5b5"/>
<rect x="16" y="23" width="1" height="1" fill="#2f2f2e"/>
<rect x="17" y="23" width="2" height="1" fill="#b5b5b5"/>
<rect x="19" y="23" width="2" height="1" fill="#2f2f2e"/>
<rect x="46" y="23" width="1" height="1" fill="#2f2f2e"/>
<rect x="47" y="23" width="1" height="1" fill="#b5b5b5"/>
<rect x="48" y="23" width="1" height="1" fill="#2f2f2e"/>
<rect x="49" y="23" width="2" height="1" fill="#b5b5b5"/>
<rect x="51" y="23" width="2" height="1" fill="#2f2f2e"/>
<rect x="78" y="23" width="1" height="1" fill="#2f2f2e"/>
<rect x="79" y="23" width="1" height="1" fill="#b5b5b5"/>
<rect x="80" y="23" width="1" height="1" fill="#2f2f2e"/>
<rect x="81" y="23" width="2" height="1" fill="#b5b5b5"/>
<rect x="83" y="23" width="2" height="1" fill="#2f2f2e"/>
<rect x="110" y="23" width="1" height="1" fill="#2f2f2e"/>
<rect x="111" y="23" width="1" height="1" fill="#b5b5b5"/>
<rect x="112" y="23" width="1" height="1" fill="#2f2f2e"/>
<rect x="113" y="23" width="2" height="1" fill="#b5b5b5"/>
<rect x="115" y="23" width="2" height="1" fill="#2f2f2e"/>
<rect x="14" y="24" width="1" height="1" fill="#2f2f2e"/>
<rect x="15" y="24" width="1" height="1" fill="#b5b5b5"/>
<rect x="16" y="24" width="4" height="1" fill="#e0e0e0"/>
<rect x="20" y="24" width="1" height="1" fill="#2f2f2e"/>
<rect x="46" y="24" width="1" height="1" fill="#2f2f2e"/>
<rect x="47" y="24" width="1" height="1" fill="#b5b5b5"/>
<rect x="48" y="24" width="4" height="1" fill="#e0e0e0"/>
<rect x="52" y="24" width="1" height="1" fill="#2f2f2e"/>
<rect x="78" y="24" width="1" height="1" fill="#2f2f2e"/>
<rect x="79" y="24" width="1" height="1" fill="#b5b5b5"/>
<rect x="80" y="24" width="4" height="1" fill="#e0e0e0"/>
<rect x="84" y="24" width="1" height="1" fill="#2f2f2e"/>
<rect x="110" y="24" width="1" height="1" fill="#2f2f2e"/>
<rect x="111" y="24" width="1" height="1" fill="#b5b5b5"/>
<rect x="112" y="24" width="4" height="1" fill="#e0e0e0"/>
<rect x="116" y="24" width="1" height="1" fill="#2f2f2e"/>
<rect x="14" y="25" width="1" height="1" fill="#2f2f2e"/>
<rect x="15" y="25" width="5" height="1" fill="#b5b5b5"/>
<rect x="20" y="25" width="1" height="1" fill="#2f2f2e"/>
<rect x="46" y="25" width="1" height="1" fill="#2f2f2e"/>
<rect x="47" y="25" width="5" height="1" fill="#b5b5b5"/>
<rect x="52" y="25" width="1" height="1" fill="#2f2f2e"/>
<rect x="78" y="25" width="1" height="1" fill="#2f2f2e"/>
<rect x="79" y="25" width="5" height="1" fill="#b5b5b5"/>
<rect x="84" y="25" width="1" height="1" fill="#2f2f2e"/>
<rect x="110" y="25" width="1" height="1" fill="#2f2f2e"/>
<rect x="111" y="25" width="5" height="1" fill="#b5b5b5"/>
<rect x="116" y="25" width="1" height="1" fill="#2f2f2e"/>
<rect x="13" y="26" width="1" height="1" fill="#2f2f2e"/>
<rect x="14" y="26" width="2" height="1" fill="#b5b5b5"/>
<rect x="16" y="26" width="3" height="1" fill="#e0e0e0"/>
<rect x="19" y="26" width="1" height="1" fill="#2f2f2e"/>
<rect x="45" y="26" width="1" height="1" fill="#2f2f2e"/>
<rect x="46" y="26" width="2" height="1" fill="#b5b5b5"/>
<rect x="48" y="26" width="3" height="1" fill="#e0e0e0"/>
<rect x="51" y="26" width="1" height="1" fill="#2f2f2e"/>
<rect x="77" y="26" width="1" height="1" fill="#2f2f2e"/>
<rect x="78" y="26" width="2" height="1" fill="#b5b5b5"/>
<rect x="80" y="26" width="3" height="1" fill="#e0e0e0"/>
<rect x="83" y="26" width="1" height="1" fill="#2f2f2e"/>
<rect x="109" y="26" width="1" height="1" fill="#2f2f2e"/>
<rect x="110" y="26" width="2" height="1" fill="#b5b5b5"/>
<rect x="112" y="26" width="3" height="1" fill="#e0e0e0"/>
<rect x="115" y="26" width="1" height="1" fill="#2f2f2e"/>
<rect x="13" y="27" width="1" height="1" fill="#2f2f2e"/>
<rect x="14" y="27" width="2" height="1" fill="#b5b5b5"/>
<rect x="16" y="27" width="3" height="1" fill="#e0e0e0"/>
<rect x="19" y="27" width="1" height="1" fill="#2f2f2e"/>
<rect x="45" y="27" width="1" height="1" fill="#2f2f2e"/>
<rect x="46" y="27" width="2" height="1" fill="#b5b5b5"/>
<rect x="48" y="27" width="3" height="1" fill="#e0e0e0"/>
<rect x="51" y="27" width="1" height="1" fill="#2f2f2e"/>
<rect x="77" y="27" width="1" height="1" fill="#2f2f2e"/>
<rect x="78" y="27" width="2" height="1" fill="#b5b5b5"/>
<rect x="80" y="27" width="3" height="1" fill="#e0e0e0"/>
<rect x="83" y="27" width="1" height="1" fill="#2f2f2e"/>
<rect x="109" y="27" width="1" height="1" fill="#2f2f2e"/>
<rect x="110" y="27" width="2" height="1" fill="#b5b5b5"/>
<rect x="112" y="27" width="3" height="1" fill="#e0e0e0"/>
<rect x="115" y="27" width="1" height="1" fill="#2f2f2e"/>
<rect x="13" y="28" width="1" height="1" fill="#2f2f2e"/>
<rect x="14" y="28" width="1" height="1" fill="#b5b5b5"/>
<rect x="15" y="28" width="4" height="1" fill="#e0e0e0"/>
<rect x="19" y="28" width="1" height="1" fill="#2f2f2e"/>
<rect x="43" y="28" width="3" height="1" fill="#2f2f2e"/>
<rect x="46" y="28" width="1" height="1" fill="#b5b5b5"/>
<rect x="47" y="28" width="4" height="1" fill="#e0e0e0"/>
<rect x="51" y="28" width="1" height="1" fill="#2f2f2e"/>
<rect x="74" y="28" width="4" height="1" fill="#2f2f2e"/>
<rect x="78" y="28" width="1" height="1" fill="#b5b5b5"/>
<rect x="79" y="28" width="4" height="1" fill="#e0e0e0"/>
<rect x="83" y="28" width="1" height="1" fill="#2f2f2e"/>
<rect x="105" y="28" width="2" height="1" fill="#2f2f2e"/>
<rect x="109" y="28" width="1" height="1" fill="#2f2f2e"/>
<rect x="110" y="28" width="1" height="1" fill="#b5b5b5"/>
<rect x="111" y="28" width="4" height="1" fill="#e0e0e0"/>
<rect x="115" y="28" width="1" height="1" fill="#2f2f2e"/>
<rect x="10" y="29" width="3" height="1" fill="#2f2f2e"/>
<rect x="13" y="29" width="2" height="1" fill="#b5b5b5"/>
<rect x="15" y="29" width="1" height="1" fill="#e0e0e0"/>
<rect x="16" y="29" width="1" height="1" fill="#2f2f2e"/>
<rect x="17" y="29" width="1" height="1" fill="#e0e0e0"/>
<rect x="18" y="29" width="1" height="1" fill="#2f2f2e"/>
<rect x="19" y="29" width="1" height="1" fill="#e0e0e0"/>
<rect x="20" y="29" width="1" height="1" fill="#2f2f2e"/>
<rect x="42" y="29" width="1" height="1" fill="#2f2f2e"/>
<rect x="43" y="29" width="1" height="1" fill="#b5b5b5"/>
<rect x="44" y="29" width="1" height="1" fill="#2f2f2e"/>
<rect x="45" y="29" width="2" height="1" fill="#b5b5b5"/>
<rect x="47" y="29" width="1" height="1" fill="#e0e0e0"/>
<rect x="48" y="29" width="1" height="1" fill="#2f2f2e"/>
<rect x="49" y="29" width="1" height="1" fill="#e0e0e0"/>
<rect x="50" y="29" width="1" height="1" fill="#2f2f2e"/>
<rect x="51" y="29" width="1" height="1" fill="#e0e0e0"/>
<rect x="52" y="29" width="1" height="1" fill="#2f2f2e"/>
<rect x="73" y="29" width="1" height="1" fill="#2f2f2e"/>
<rect x="74" y="29" width="2" height="1" fill="#b5b5b5"/>
<rect x="76" y="29" width="1" height="1" fill="#2f2f2e"/>
<rect x="77" y="29" width="2" height="1" fill="#b5b5b5"/>
<rect x="79" y="29" width="1" height="1" fill="#e0e0e0"/>
<rect x="80" y="29" width="1" height="1" fill="#2f2f2e"/>
<rect x="81" y="29" width="1" height="1" fill="#e0e0e0"/>
<rect x="82" y="29" width="1" height="1" fill="#2f2f2e"/>
<rect x="83" y="29" width="1" height="1" fill="#e0e0e0"/>
<rect x="84" y="29" width="1" height="1" fill="#2f2f2e"/>
<rect x="105" y="29" width="1" height="1" fill="#2f2f2e"/>
<rect x="106" y="29" width="1" height="1" fill="#b5b5b5"/>
<rect x="107" y="29" width="2" height="1" fill="#2f2f2e"/>
<rect x="109" y="29" width="2" height="1" fill="#b5b5b5"/>
<rect x="111" y="29" width="1" height="1" fill="#e0e0e0"/>
<rect x="112" y="29" width="1" height="1" fill="#2f2f2e"/>
<rect x="113" y="29" width="1" height="1" fill="#e0e0e0"/>
<rect x="114" y="29" width="1" height="1" fill="#2f2f2e"/>
<rect x="115" y="29" width="1" height="1" fill="#e0e0e0"/>
<rect x="116" y="29" width="1" height="1" fill="#2f2f2e"/>
<rect x="9" y="30" width="1" height="1" fill="#2f2f2e"/>
<rect x="10" y="30" width="2" height="1" fill="#b5b5b5"/>
<rect x="12" y="30" width="1" height="1" fill="#2f2f2e"/>
<rect x="13" y="30" width="2" height="1" fill="#b5b5b5"/>
<rect x="15" y="30" width="1" height="1" fill="#e0e0e0"/>
<rect x="16" y="30" width="1" height="1" fill="#2f2f2e"/>
<rect x="17" y="30" width="1" height="1" fill="#e0e0e0"/>
<rect x="18" y="30" width="1" height="1" fill="#2f2f2e"/>
<rect x="19" y="30" width="1" height="1" fill="#e0e0e0"/>
<rect x="20" y="30" width="1" height="1" fill="#2f2f2e"/>
<rect x="41" y="30" width="1" height="1" fill="#2f2f2e"/>
<rect x="42" y="30" width="1" height="1" fill="#b5b5b5"/>
<rect x="43" y="30" width="2" height="1" fill="#2f2f2e"/>
<rect x="45" y="30" width="2" height="1" fill="#b5b5b5"/>
<rect x="47" y="30" width="1" height="1" fill="#e0e0e0"/>
<rect x="48" y="30" width="1" height="1" fill="#2f2f2e"/>
<rect x="49" y="30" width="1" height="1" fill="#e0e0e0"/>
<rect x="50" y="30" width="1" height="1" fill="#2f2f2e"/>
<rect x="51" y="30" width="1" height="1" fill="#e0e0e0"/>
<rect x="52" y="30" width="1" height="1" fill="#2f2f2e"/>
<rect x="73" y="30" width="4" height="1" fill="#2f2f2e"/>
<rect x="77" y="30" width="2" height="1" fill="#b5b5b5"/>
<rect x="79" y="30" width="1" height="1" fill="#e0e0e0"/>
<rect x="80" y="30" width="1" height="1" fill="#2f2f2e"/>
<rect x="81" y="30" width="1" height="1" fill="#e0e0e0"/>
<rect x="82" y="30" width="1" height="1" fill="#2f2f2e"/>
<rect x="83" y="30" width="1" height="1" fill="#e0e0e0"/>
<rect x="84" y="30" width="1" height="1" fill="#2f2f2e"/>
<rect x="106" y="30" width="1" height="1" fill="#2f2f2e"/>
<rect x="107" y="30" width="1" height="1" fill="#b5b5b5"/>
<rect x="108" y="30" width="1" height="1" fill="#2f2f2e"/>
<rect x="109" y="30" width="2" height="1" fill="#b5b5b5"/>
<rect x="111" y="30" width="1" height="1" fill="#e0e0e0"/>
<rect x="112" y="30" width="1" height="1" fill="#2f2f2e"/>
<rect x="113" y="30" width="1" height="1" fill="#e0e0e0"/>
<rect x="114" y="30" width="1" height="1" fill="#2f2f2e"/>
<rect x="115" y="30" width="1" height="1" fill="#e0e0e0"/>
<rect x="116" y="30" width="1" height="1" fill="#2f2f2e"/>
<rect x="9" y="31" width="12" height="1" fill="#2f2f2e"/>
<rect x="41" y="31" width="2" height="1" fill="#2f2f2e"/>
<rect x="44" y="31" width="9" height="1" fill="#2f2f2e"/>
<rect x="76" y="31" width="9" height="1" fill="#2f2f2e"/>
<rect x="107" y="31" width="10" height="1" fill="#2f2f2e"/>
</svg>
