<?xml version="1.0" encoding="UTF-8"?>
<svg xmlns="http://www.w3.org/2000/svg" viewBox="0 0 32 32" width="32" height="32">
  <g transform="scale(0.125 0.125) translate(0.000000,256.000000) scale(1.000000,-1.000000)" fill="#2f2f2e" stroke="none"><path d="M114 94 c-2 -1 -2 -4 -2 -22 l0 -21 -4 -3 -4 -3 0 -9 c0 -11 -1 -12
-12 -12 l-8 0 -6 -6 -6 -6 0 -6 0 -6 48 0 48 0 0 10 0 11 -4 3 -4 3 0 9 0 9 4
3 4 3 0 21 c0 24 0 24 -8 24 -4 0 -5 0 -8 -4 l-3 -4 -9 0 -9 0 -3 4 c-3 4 -4
4 -8 4 -3 0 -5 -1 -6 -2z"/></g>
  <g transform="scale(0.125 0.125) translate(0.000000,256.000000) scale(1.000000,-1.000000)" fill="#e0e0e0" stroke="none"><path d="M122 86 c-2 -1 -2 -4 -2 -18 l0 -17 -4 -3 -4 -3 0 -9 0 -9 -4 -3 c-4
-3 -4 -4 -4 -8 0 -7 2 -8 12 -8 10 0 12 1 12 8 0 3 1 5 2 6 3 3 6 0 6 -6 0 -3
1 -5 2 -7 3 -2 6 1 6 7 0 5 2 8 6 8 2 0 2 0 2 -6 0 -8 3 -12 6 -8 5 4 2 14 -4
14 -2 0 -2 0 -2 10 l0 11 4 3 c4 3 4 4 4 8 0 4 0 5 -4 8 l-4 4 4 4 c5 4 6 11
2 15 -2 1 -2 1 -6 -3 l-3 -4 -9 0 -9 0 -3 4 c-4 5 -4 5 -6 2z m13 -16 c1 -2 1
-2 -1 -4 l-2 -2 -2 2 c-2 2 -2 2 -1 4 1 1 3 2 3 2 0 0 2 -1 3 -2z"/><path d="M82 14 c-2 -2 -2 -2 0 -4 2 -3 10 -3 13 0 2 3 -1 6 -7 6 -3 0 -5 -1
-6 -2z"/></g>
  <g transform="scale(0.125 0.125) translate(0.000000,256.000000) scale(1.000000,-1.000000)" fill="#b5b5b5" stroke="none"><path d="M122 86 c-2 -1 -2 -4 -2 -18 l0 -17 -4 -3 -4 -3 0 -9 0 -9 -4 -3 c-4
-3 -4 -4 -4 -8 0 -6 2 -8 8 -8 7 0 8 2 8 12 l0 9 4 3 c4 3 4 4 4 8 0 7 1 8 16
8 11 0 13 0 15 2 1 2 1 2 0 4 -2 2 -4 2 -15 2 -17 0 -16 -1 -16 16 0 11 0 13
-2 14 -2 2 -2 2 -4 0z"/><path d="M153 86 c-1 -2 -1 -2 1 -4 l2 -2 2 2 c2 2 2 2 1 4 -1 1 -3 2 -3 2 0
0 -2 -1 -3 -2z"/><path d="M138 70 c-3 -3 0 -6 6 -6 3 0 5 1 7 2 2 3 -1 6 -7 6 -3 0 -5 -1 -6
-2z"/><path d="M82 14 c-2 -2 -2 -2 0 -4 2 -3 10 -3 13 0 2 3 -1 6 -7 6 -3 0 -5 -1
-6 -2z"/></g>
</svg>
