<?xml version="1.0" encoding="UTF-8"?>
<svg xmlns="http://www.w3.org/2000/svg" viewBox="0 0 32 32" shape-rendering="crispEdges">
<rect x="0" y="0" width="32" height="1" fill="#ffffff"/>
<rect x="0" y="1" width="32" height="1" fill="#ffffff"/>
<rect x="0" y="2" width="32" height="1" fill="#ffffff"/>
<rect x="0" y="3" width="32" height="1" fill="#ffffff"/>
<rect x="0" y="4" width="32" height="1" fill="#ffffff"/>
<rect x="0" y="5" width="32" height="1" fill="#ffffff"/>
<rect x="0" y="6" width="32" height="1" fill="#ffffff"/>
<rect x="0" y="7" width="32" height="1" fill="#ffffff"/>
<rect x="0" y="8" width="32" height="1" fill="#ffffff"/>
<rect x="0" y="9" width="32" height="1" fill="#ffffff"/>
<rect x="0" y="10" width="32" height="1" fill="#ffffff"/>
<rect x="0" y="11" width="32" height="1" fill="#ffffff"/>
<rect x="0" y="12" width="32" height="1" fill="#ffffff"/>
<rect x="0" y="13" width="32" height="1" fill="#ffffff"/>
<rect x="0" y="14" width="32" height="1" fill="#ffffff"/>
<rect x="0" y="15" width="32" height="1" fill="#ffffff"/>
<rect x="0" y="16" width="32" height="1" fill="#ffffff"/>
<rect x="0" y="17" width="32" height="1" fill="#ffffff"/>
<rect x="0" y="18" width="32" height="1" fill="#ffffff"/>
<rect x="0" y="19" width="32" height="1" fill="#ffffff"/>
<rect x="0" y="20" width="32" height="1" fill="#ffffff"/>
<rect x="0" y="21" width="32" height="1" fill="#ffffff"/>
<rect x="0" y="22" width="32" height="1" fill="#ffffff"/>
<rect x="0" y="23" width="32" height="1" fill="#ffffff"/>
<rect x="0" y="24" width="32" height="1" fill="#ffffff"/>
<rect x="0" y="25" width="32" height="1" fill="#ffffff"/>
<rect x="0" y="26" width="32" height="1" fill="#ffffff"/>
<rect x="0" y="27" width="32" height="1" fill="#ffffff"/>
<rect x="0" y="28" width="32" height="1" fill="#ffffff"/>
<rect x="0" y="29" width="32" height="1" fill="#ffffff"/>
<rect x="0" y="30" width="32" height="1" fill="#ffffff"/>
<rect x="0" y="31" width="32" height="1" fill="#ffffff"/>
</svg>
