<?xml version="1.0" encoding="UTF-8"?>
<svg xmlns="http://www.w3.org/2000/svg" viewBox="0 0 48 48" width="48" height="48">
  <g transform="scale(0.062500 0.062500) translate(0.000000,768.000000) scale(1.000000,-1.000000)" fill="#d4a373" stroke="none"><path d="M195.65 412.17 C191.91 408.03 194.86 402.00 200.63 402.00 C204.44 402.00 206.00 403.61 206.00 407.55 C206.00 413.24 199.32 416.22 195.65 412.17 Z M491.13 373.13 C489.10 371.10 489.00 370.06 489.00 351.15 C489.00 332.62 489.87 325.00 491.98 325.00 C492.42 325.00 493.99 325.63 495.48 326.40 C497.38 327.39 499.09 327.55 501.23 326.93 C508.30 324.91 511.08 319.71 512.12 306.59 C512.54 301.13 513.39 295.47 514.00 294.01 C514.63 292.47 517.28 290.11 520.27 288.40 C524.06 286.23 526.23 284.06 528.40 280.27 C532.46 273.15 534.44 272.50 552.00 272.50 C569.56 272.50 571.54 273.15 575.60 280.27 C577.77 284.06 579.94 286.23 583.73 288.40 C586.75 290.12 589.31 292.42 589.89 293.93 C593.03 302.11 591.86 313.01 587.42 316.82 C584.83 319.05 584.18 319.15 575.97 318.50 C563.72 317.53 559.00 320.17 559.00 328.00 C559.00 332.80 560.56 334.75 567.02 338.01 C576.84 342.97 575.98 348.32 564.71 352.44 C555.84 355.69 551.00 361.69 551.00 369.43 C551.00 371.98 550.42 373.24 548.86 374.08 C546.72 375.22 536.60 374.93 535.36 373.70 C535.01 373.34 535.29 371.03 535.99 368.54 C537.47 363.23 536.45 359.76 532.18 355.67 C528.19 351.85 522.82 350.00 515.78 350.01 C507.77 350.03 504.84 351.52 503.23 356.40 C502.17 359.63 502.23 361.28 503.58 366.69 C504.47 370.23 504.98 373.36 504.71 373.63 C504.43 373.90 501.75 374.38 498.73 374.69 C494.03 375.17 492.95 374.95 491.13 373.13 Z M557.42 350.48 C567.43 348.16 569.00 347.37 569.00 344.68 C569.00 342.88 568.04 341.87 565.05 340.52 C559.13 337.85 556.78 334.82 556.31 329.28 C555.86 323.85 557.22 320.65 561.21 317.68 C563.54 315.95 565.31 315.69 573.78 315.83 C580.40 315.93 584.21 315.57 585.37 314.72 C588.84 312.18 589.72 300.22 586.85 294.75 C586.34 293.79 583.73 291.88 581.04 290.52 C577.20 288.58 575.54 286.90 573.32 282.77 C569.72 276.05 567.12 275.11 552.00 275.11 C536.88 275.11 534.28 276.05 530.68 282.77 C528.46 286.90 526.80 288.58 522.96 290.52 C520.27 291.88 517.56 293.95 516.94 295.12 C516.31 296.28 515.41 302.70 514.93 309.37 C514.45 316.04 513.61 323.30 513.05 325.50 C511.79 330.54 511.72 339.12 512.92 342.28 C513.90 344.88 516.62 346.21 524.58 347.98 C527.37 348.61 531.42 349.75 533.58 350.51 C538.79 352.37 549.34 352.36 557.42 350.48 Z M281.98 327.43 C281.42 325.98 281.00 312.05 281.00 295.17 C281.00 268.18 281.17 265.15 282.85 261.99 C283.87 260.07 285.25 256.21 285.91 253.42 C287.72 245.82 290.07 242.71 296.46 239.48 C307.89 233.69 311.88 223.69 304.26 219.88 C299.11 217.31 298.00 215.98 298.00 212.38 C298.00 208.15 299.36 208.08 304.73 212.04 C307.49 214.06 309.44 216.58 310.59 219.58 C311.92 223.07 313.35 224.71 316.90 226.80 L321.50 229.50 L389.50 230.00 C426.92 230.28 458.17 230.90 459.00 231.40 C459.82 231.89 461.40 233.09 462.50 234.05 C463.60 235.02 467.38 237.30 470.91 239.14 C478.01 242.83 480.25 245.69 482.09 253.42 C482.76 256.21 484.16 260.14 485.20 262.14 C486.68 265.00 487.02 267.47 486.79 273.63 C486.45 282.74 485.75 283.31 478.85 280.06 C475.61 278.53 473.86 276.80 472.00 273.29 C467.88 265.51 465.11 264.50 448.00 264.50 C435.23 264.50 433.08 264.74 430.00 266.53 C424.23 269.89 423.00 273.64 423.00 287.93 C423.00 303.37 424.59 307.65 431.57 311.03 C434.02 312.22 436.69 314.14 437.51 315.32 C439.59 318.29 439.37 322.63 437.00 325.00 C435.04 326.96 433.64 327.00 363.75 327.04 C304.31 327.08 291.84 327.33 288.50 328.53 C283.22 330.43 283.11 330.41 281.98 327.43 Z M471.43 252.67 C473.88 250.89 472.73 247.53 469.22 246.16 C458.52 241.99 458.68 242.00 384.00 242.00 C309.32 242.00 309.48 241.99 298.78 246.16 C295.27 247.53 294.12 250.89 296.57 252.67 C299.25 254.63 468.75 254.63 471.43 252.67 Z M480.46 213.94 C479.67 212.65 482.77 209.00 484.65 209.00 C486.71 209.00 486.26 212.79 484.07 213.96 C481.65 215.26 481.28 215.26 480.46 213.94 Z M297.40 188.46 C296.56 185.10 297.63 180.07 299.67 177.82 C302.08 175.15 306.61 175.48 308.56 178.45 C310.73 181.77 309.72 184.30 304.75 187.95 C299.71 191.66 298.23 191.77 297.40 188.46 Z M479.25 187.95 C474.28 184.30 473.27 181.77 475.44 178.45 C477.39 175.48 481.92 175.15 484.33 177.82 C487.49 181.31 487.75 191.00 484.68 191.00 C483.97 191.00 481.53 189.63 479.25 187.95 Z"/></g>
  <g transform="scale(0.062500 0.062500) translate(0.000000,768.000000) scale(1.000000,-1.000000)" fill="#a47a52" stroke="none"><path d="M198.25 416.31 C199.21 416.06 200.79 416.06 201.75 416.31 C202.71 416.56 201.93 416.77 200.00 416.77 C198.07 416.77 197.29 416.56 198.25 416.31 Z M193.40 413.75 L191.50 411.50 L193.75 413.40 C195.86 415.20 196.46 416.00 195.65 416.00 C195.47 416.00 194.45 414.99 193.40 413.75 Z M205.50 414.00 C206.50 412.90 207.53 412.00 207.81 412.00 C208.08 412.00 207.50 412.90 206.50 414.00 C205.50 415.10 204.47 416.00 204.19 416.00 C203.92 416.00 204.50 415.10 205.50 414.00 Z M191.23 408.00 C191.23 406.07 191.44 405.29 191.69 406.25 C191.94 407.21 191.94 408.79 191.69 409.75 C191.44 410.71 191.23 409.93 191.23 408.00 Z M208.73 406.93 C209.32 401.45 207.47 399.02 202.68 398.96 L199.50 398.92 L202.24 397.43 C205.43 395.70 205.78 394.43 206.27 382.86 C206.51 377.06 207.17 373.39 208.26 371.72 C210.24 368.70 218.54 363.89 220.48 364.63 C223.04 365.61 225.01 369.88 227.12 379.04 C229.04 387.38 229.08 388.26 227.60 389.89 C226.72 390.86 226.00 392.03 226.00 392.48 C226.00 394.81 220.64 399.87 216.48 401.45 C212.65 402.92 211.50 403.97 210.03 407.37 L208.24 411.50 L208.73 406.93 Z M193.50 402.00 C194.50 400.90 195.53 400.00 195.81 400.00 C196.08 400.00 195.50 400.90 194.50 402.00 C193.50 403.10 192.47 404.00 192.19 404.00 C191.92 404.00 192.50 403.10 193.50 402.00 Z M218.43 393.43 C221.96 389.90 219.28 373.41 215.29 374.18 C212.27 374.76 210.87 378.96 211.31 386.11 C211.53 389.75 212.03 393.24 212.42 393.86 C213.42 395.49 216.59 395.26 218.43 393.43 Z M544.59 388.25 C544.17 387.84 530.92 387.27 515.12 387.00 C483.79 386.45 483.24 386.35 479.26 380.28 C477.67 377.86 477.45 373.54 477.00 336.21 L476.50 294.82 L473.89 292.66 C472.45 291.47 469.85 289.73 468.11 288.78 C466.37 287.83 464.17 285.60 463.22 283.82 C462.27 282.04 460.30 279.33 458.83 277.79 C456.33 275.18 455.62 275.00 448.03 275.00 C440.74 275.00 439.66 275.25 437.45 277.45 C435.25 279.66 435.00 280.74 435.00 288.03 C435.00 295.62 435.18 296.33 437.79 298.83 C439.33 300.30 441.99 302.24 443.71 303.15 C449.22 306.08 450.48 309.20 450.48 320.00 C450.48 330.49 449.41 333.37 444.28 336.74 C441.79 338.37 436.13 338.54 368.21 339.00 L294.82 339.50 L293.07 341.67 C291.74 343.31 291.15 346.52 290.68 354.67 C289.77 370.56 289.86 370.37 283.16 369.68 C276.93 369.03 273.51 366.94 270.98 362.23 C270.04 360.47 268.70 358.34 268.01 357.51 C267.04 356.35 267.01 355.00 267.88 351.56 C269.30 345.92 269.33 325.72 267.92 320.66 C267.07 317.59 267.17 316.16 268.43 313.51 C269.75 310.73 270.01 305.29 270.06 279.85 C270.12 246.14 270.47 243.76 275.84 240.52 C277.68 239.41 280.60 237.30 282.34 235.83 L285.50 233.17 L286.00 199.65 C286.48 167.62 286.59 166.02 288.59 163.32 C291.30 159.67 295.92 158.11 304.00 158.11 C312.08 158.11 316.70 159.67 319.41 163.32 C321.37 165.96 321.53 167.75 322.00 191.55 C322.49 216.32 322.56 217.01 324.78 219.22 L327.06 221.50 L392.00 221.50 L456.94 221.50 L459.22 219.22 C461.44 217.01 461.51 216.32 462.00 191.55 C462.47 167.75 462.63 165.96 464.60 163.32 C467.58 159.30 473.00 157.75 482.29 158.25 C491.28 158.74 494.79 160.65 496.69 166.09 C497.48 168.34 497.89 177.14 497.89 192.00 C497.89 206.81 497.48 215.70 496.69 218.00 C495.83 220.53 493.90 222.56 489.75 225.32 C484.99 228.49 484.00 229.64 484.00 232.00 C484.00 234.36 484.99 235.51 489.75 238.68 C493.90 241.44 495.83 243.47 496.69 246.00 C497.51 248.39 497.91 259.17 497.96 280.00 C498.04 314.32 498.24 315.50 504.00 315.50 C506.67 315.50 507.73 314.94 508.71 313.00 C509.67 311.09 509.97 310.93 509.99 312.30 C510.01 315.40 507.01 320.04 504.32 321.07 C501.06 322.31 498.95 321.64 495.91 318.40 C493.51 315.86 493.50 315.68 493.00 288.67 L492.50 261.50 L488.58 255.00 C480.86 242.18 479.88 240.91 475.08 237.46 C472.40 235.54 469.01 232.40 467.55 230.48 L464.90 227.00 L397.19 227.00 C356.15 227.00 328.15 226.62 326.08 226.02 C321.30 224.65 318.10 221.29 316.84 216.30 C316.22 213.82 314.06 210.08 311.72 207.42 C306.66 201.68 306.41 198.26 310.71 193.72 C315.19 188.99 316.00 186.83 316.00 179.63 C316.00 167.77 313.77 165.06 304.00 165.06 C292.71 165.06 291.93 166.76 291.26 193.00 C290.70 214.79 291.35 219.05 296.04 224.40 C300.56 229.54 300.02 232.18 293.49 237.01 C288.05 241.03 287.13 242.19 279.42 255.00 L275.50 261.50 L275.58 289.00 C275.70 328.03 276.48 359.35 277.36 360.78 C278.46 362.55 280.79 362.28 281.84 360.25 C282.35 359.29 282.95 354.67 283.19 349.98 C283.69 340.03 285.59 335.94 290.96 333.27 C294.22 331.64 300.32 331.46 367.33 331.00 C450.99 330.43 443.00 331.56 443.00 320.24 C443.00 312.26 442.19 310.77 436.05 307.43 C429.14 303.67 427.59 300.10 427.59 288.00 C427.59 271.17 430.83 268.00 448.00 268.00 C460.75 268.00 463.55 269.18 467.59 276.25 C469.75 280.04 471.93 282.23 475.63 284.35 C484.78 289.57 484.43 287.67 485.00 334.83 C485.48 374.28 485.59 376.23 487.44 377.58 C488.94 378.68 493.38 379.00 507.03 379.00 C516.74 379.00 530.72 379.28 538.09 379.63 C555.25 380.44 556.00 380.01 556.73 368.94 C557.30 360.25 558.60 357.76 563.97 355.01 C569.26 352.32 569.62 352.47 565.86 355.83 C562.85 358.52 562.66 359.14 561.96 368.33 C561.13 379.36 559.87 382.00 554.05 384.97 C551.90 386.07 549.85 387.43 549.51 387.99 C548.78 389.17 545.67 389.34 544.59 388.25 Z M513.31 371.05 C509.21 368.55 508.00 366.18 508.00 360.64 C508.00 354.35 511.06 352.00 519.23 352.00 C524.69 352.00 525.49 352.29 528.60 355.40 C538.08 364.88 525.05 378.21 513.31 371.05 Z M523.07 364.96 C527.28 362.71 524.66 356.00 519.57 356.00 C517.12 356.00 513.96 359.70 514.66 361.73 C515.99 365.55 519.47 366.89 523.07 364.96 Z M573.50 350.00 C574.50 348.90 575.53 348.00 575.81 348.00 C576.08 348.00 575.50 348.90 574.50 350.00 C573.50 351.10 572.47 352.00 572.19 352.00 C571.92 352.00 572.50 351.10 573.50 350.00 Z M576.10 345.33 C575.91 341.14 574.65 339.76 568.52 337.01 C561.12 333.69 558.89 330.10 561.02 324.96 C562.86 320.50 564.95 319.86 576.45 320.19 C583.24 320.39 586.26 320.81 585.17 321.39 C584.25 321.87 582.56 323.13 581.40 324.17 C579.69 325.72 578.80 325.88 576.59 325.03 C572.93 323.64 567.67 323.73 566.20 325.20 C562.88 328.52 566.31 332.29 573.75 333.49 C577.98 334.17 578.00 334.19 577.90 338.34 C577.85 340.63 577.44 343.62 577.00 345.00 C576.26 347.30 576.19 347.33 576.10 345.33 Z M589.50 318.00 C590.50 316.90 591.53 316.00 591.81 316.00 C592.08 316.00 591.50 316.90 590.50 318.00 C589.50 319.10 588.47 320.00 588.19 320.00 C587.92 320.00 588.50 319.10 589.50 318.00 Z M593.34 304.00 C593.34 299.88 593.51 298.19 593.73 300.25 C593.94 302.31 593.94 305.69 593.73 307.75 C593.51 309.81 593.34 308.12 593.34 304.00 Z M510.32 303.00 C510.32 299.43 510.50 297.96 510.72 299.75 C510.95 301.54 510.95 304.46 510.72 306.25 C510.50 308.04 510.32 306.57 510.32 303.00 Z M513.50 290.00 C514.50 288.90 515.53 288.00 515.81 288.00 C516.08 288.00 515.50 288.90 514.50 290.00 C513.50 291.10 512.47 292.00 512.19 292.00 C511.92 292.00 512.50 291.10 513.50 290.00 Z M589.40 289.75 L587.50 287.50 L589.75 289.40 C591.86 291.20 592.46 292.00 591.65 292.00 C591.47 292.00 590.45 290.99 589.40 289.75 Z M523.00 283.50 C524.29 282.12 525.57 281.00 525.85 281.00 C526.12 281.00 525.29 282.12 524.00 283.50 C522.71 284.88 521.43 286.00 521.15 286.00 C520.88 286.00 521.71 284.88 523.00 283.50 Z M579.92 283.25 L577.50 280.50 L580.25 282.92 C581.76 284.26 583.00 285.50 583.00 285.67 C583.00 286.46 582.19 285.82 579.92 283.25 Z M526.00 279.06 C526.00 278.54 526.44 277.84 526.99 277.51 C527.56 277.16 527.72 277.56 527.38 278.45 C526.72 280.18 526.00 280.50 526.00 279.06 Z M576.56 278.29 C576.02 276.87 576.14 276.75 577.12 277.73 C577.81 278.41 578.11 279.22 577.81 279.53 C577.50 279.83 576.94 279.28 576.56 278.29 Z M529.50 274.00 C530.50 272.90 531.53 272.00 531.81 272.00 C532.08 272.00 531.50 272.90 530.50 274.00 C529.50 275.10 528.47 276.00 528.19 276.00 C527.92 276.00 528.50 275.10 529.50 274.00 Z M573.40 273.75 L571.50 271.50 L573.75 273.40 C575.86 275.20 576.46 276.00 575.65 276.00 C575.47 276.00 574.45 274.99 573.40 273.75 Z M544.25 270.26 C548.51 270.07 555.49 270.07 559.75 270.26 C564.01 270.44 560.52 270.60 552.00 270.60 C543.48 270.60 539.99 270.44 544.25 270.26 Z M482.16 221.87 C492.67 218.70 492.50 219.13 492.50 196.14 C492.49 167.01 491.68 164.98 480.06 165.03 C470.22 165.08 468.00 167.77 468.00 179.63 C468.00 186.83 468.81 188.99 473.29 193.72 C475.32 195.87 476.33 197.96 476.33 200.00 C476.33 202.04 475.32 204.13 473.29 206.28 C469.08 210.73 468.00 213.16 468.00 218.23 C468.00 225.66 468.84 225.88 482.16 221.87 Z M374.09 208.69 C372.22 208.04 369.75 206.23 368.59 204.68 C366.65 202.06 366.50 200.55 366.50 184.00 C366.50 167.45 366.65 165.94 368.59 163.32 C371.78 159.03 375.89 158.11 392.00 158.11 C408.11 158.11 412.22 159.03 415.41 163.32 C417.35 165.94 417.50 167.45 417.50 184.00 C417.50 200.55 417.35 202.06 415.41 204.68 C412.22 208.97 408.11 209.89 392.00 209.89 C383.33 209.89 376.13 209.41 374.09 208.69 Z M406.78 174.44 C408.02 173.57 409.00 171.83 409.00 170.50 C409.00 166.04 405.79 165.00 392.00 165.00 C378.21 165.00 375.00 166.04 375.00 170.50 C375.00 174.96 378.21 176.00 392.00 176.00 C401.74 176.00 405.05 175.65 406.78 174.44 Z"/></g>
  <g transform="scale(0.062500 0.062500) translate(0.000000,768.000000) scale(1.000000,-1.000000)" fill="#4a2c18" stroke="none"><path d="M470.09 400.72 C464.47 398.70 462.88 395.52 462.05 384.56 C461.45 376.52 460.95 374.50 459.13 372.69 L456.94 370.50 L372.86 370.23 L288.78 369.97 L289.42 367.73 C289.77 366.50 290.34 360.63 290.68 354.67 C291.15 346.52 291.74 343.31 293.07 341.67 L294.82 339.50 L368.21 339.00 C436.13 338.54 441.79 338.37 444.28 336.74 C449.41 333.37 450.48 330.49 450.48 320.00 C450.48 309.20 449.22 306.08 443.71 303.15 C441.99 302.24 439.33 300.30 437.79 298.83 C435.18 296.33 435.00 295.62 435.00 288.03 C435.00 280.74 435.25 279.66 437.45 277.45 C439.66 275.25 440.74 275.00 448.03 275.00 C455.62 275.00 456.33 275.18 458.83 277.79 C460.30 279.33 462.27 282.04 463.22 283.82 C464.17 285.60 466.37 287.83 468.11 288.78 C469.85 289.73 472.45 291.47 473.89 292.66 L476.50 294.82 L477.00 336.21 C477.45 373.54 477.67 377.86 479.26 380.28 C483.23 386.33 483.84 386.45 514.95 387.10 C530.65 387.43 544.48 388.04 545.68 388.45 L547.86 389.20 L545.53 393.35 C540.83 401.72 542.01 401.47 505.68 401.72 C482.39 401.88 472.56 401.60 470.09 400.72 Z M226.97 378.39 C225.35 371.28 224.17 368.32 222.12 366.24 C219.67 363.77 219.53 363.25 220.69 361.00 C221.39 359.62 222.00 355.57 222.04 352.00 C222.14 343.25 223.73 339.06 228.00 336.34 C234.42 332.25 236.78 330.05 238.72 326.32 C241.88 320.23 244.57 318.88 255.19 318.07 C260.37 317.68 265.09 317.06 265.69 316.69 C268.62 314.88 270.33 341.83 267.90 351.47 C266.83 355.74 266.75 355.81 263.87 354.80 C262.25 354.24 257.79 353.96 253.96 354.17 C244.03 354.73 242.89 356.09 241.96 368.44 C241.12 379.47 240.01 381.70 233.61 385.28 L229.12 387.79 L226.97 378.39 Z M516.83 364.75 C514.20 362.63 513.90 360.10 516.02 357.98 C519.63 354.37 525.00 356.18 525.00 361.00 C525.00 365.30 520.23 367.49 516.83 364.75 Z M571.26 333.03 C565.39 331.63 563.12 327.80 566.51 324.99 C568.15 323.63 576.52 324.12 578.06 325.66 C578.55 326.15 578.68 328.22 578.34 330.27 C577.70 334.24 577.20 334.44 571.26 333.03 Z"/></g>
  <g transform="scale(0.062500 0.062500) translate(0.000000,768.000000) scale(1.000000,-1.000000)" fill="#c89a6a" stroke="none"><path d="M194.17 413.69 C191.14 410.45 191.26 405.04 194.44 402.06 C197.76 398.94 204.97 398.11 207.43 400.57 C209.89 403.03 209.06 410.24 205.94 413.56 C202.86 416.85 197.20 416.91 194.17 413.69 Z M204.17 412.35 C206.25 410.47 206.62 405.02 204.80 403.20 C203.07 401.47 197.96 401.73 195.83 403.65 C192.03 407.09 194.70 414.00 199.83 414.00 C201.21 414.00 203.17 413.26 204.17 412.35 Z M212.42 393.86 C212.03 393.24 211.53 389.75 211.31 386.11 C210.87 378.96 212.27 374.76 215.29 374.18 C219.28 373.41 221.96 389.90 218.43 393.43 C216.59 395.26 213.42 395.49 212.42 393.86 Z M511.30 379.04 C494.20 378.64 487.75 378.16 486.80 377.20 C485.79 376.20 485.39 366.60 485.00 334.70 C484.43 287.68 484.78 289.57 475.63 284.35 C471.93 282.23 469.75 280.04 467.59 276.25 C463.55 269.18 460.75 268.00 448.00 268.00 C430.83 268.00 427.59 271.17 427.59 288.00 C427.59 300.10 429.14 303.67 436.05 307.43 C442.19 310.77 443.00 312.26 443.00 320.24 C443.00 331.56 450.99 330.43 367.33 331.00 C300.32 331.46 294.22 331.64 290.96 333.27 C285.59 335.94 283.69 340.03 283.19 349.98 C282.95 354.67 282.35 359.29 281.84 360.25 C280.79 362.28 278.46 362.55 277.36 360.78 C276.48 359.35 275.70 328.03 275.58 289.00 L275.50 261.50 L279.42 255.00 C287.13 242.19 288.05 241.03 293.49 237.01 C300.02 232.18 300.56 229.54 296.04 224.40 C291.35 219.05 290.70 214.79 291.26 193.00 C291.93 166.76 292.71 165.06 304.00 165.06 C313.77 165.06 316.00 167.77 316.00 179.63 C316.00 186.83 315.19 188.99 310.71 193.72 C306.41 198.26 306.66 201.68 311.72 207.42 C314.06 210.08 316.22 213.82 316.84 216.30 C318.10 221.29 321.30 224.65 326.08 226.02 C328.15 226.62 356.15 227.00 397.19 227.00 L464.90 227.00 L467.55 230.48 C469.01 232.40 472.40 235.54 475.08 237.46 C479.88 240.91 480.86 242.18 488.58 255.00 L492.50 261.50 L493.00 288.67 C493.50 315.68 493.51 315.86 495.91 318.40 C498.95 321.64 501.06 322.31 504.32 321.07 C508.43 319.51 510.14 314.86 510.76 303.60 C511.29 293.92 511.44 293.38 514.43 290.50 C516.15 288.85 519.02 286.73 520.81 285.78 C522.60 284.83 524.83 282.60 525.78 280.81 C526.73 279.02 528.92 276.08 530.65 274.28 L533.80 271.00 L552.00 271.00 L570.20 271.00 L573.35 274.28 C575.08 276.08 577.27 279.02 578.22 280.81 C579.17 282.60 581.40 284.83 583.19 285.78 C584.98 286.73 587.92 288.92 589.72 290.65 L593.00 293.80 L593.00 303.88 C593.00 313.62 592.90 314.08 590.08 317.23 L587.15 320.50 L576.61 320.19 C564.94 319.86 562.87 320.49 561.02 324.96 C558.89 330.10 561.12 333.69 568.52 337.01 C571.92 338.54 574.99 340.54 575.35 341.47 C577.43 346.89 575.01 350.15 565.83 354.27 C562.72 355.67 559.51 357.87 558.69 359.16 C557.88 360.45 557.00 364.85 556.73 368.94 C556.06 379.09 554.82 380.08 543.14 379.79 C538.39 379.67 524.06 379.33 511.30 379.04 Z M504.71 373.63 C504.98 373.36 504.47 370.23 503.58 366.69 C502.23 361.28 502.17 359.63 503.23 356.40 C504.84 351.52 507.77 350.03 515.78 350.01 C522.82 350.00 528.19 351.85 532.18 355.67 C536.45 359.76 537.47 363.23 535.99 368.54 C535.29 371.03 535.01 373.34 535.36 373.70 C536.60 374.93 546.72 375.22 548.86 374.08 C550.42 373.24 551.00 371.98 551.00 369.43 C551.00 361.69 555.84 355.69 564.71 352.44 C575.98 348.32 576.84 342.97 567.02 338.01 C560.56 334.75 559.00 332.80 559.00 328.00 C559.00 320.17 563.72 317.53 575.97 318.50 C584.18 319.15 584.83 319.05 587.42 316.82 C591.86 313.01 593.03 302.11 589.89 293.93 C589.31 292.42 586.75 290.12 583.73 288.40 C579.94 286.23 577.77 284.06 575.60 280.27 C571.54 273.15 569.56 272.50 552.00 272.50 C534.44 272.50 532.46 273.15 528.40 280.27 C526.23 284.06 524.06 286.23 520.27 288.40 C517.28 290.11 514.63 292.47 514.00 294.01 C513.39 295.47 512.54 301.13 512.12 306.59 C511.08 319.71 508.30 324.91 501.23 326.93 C499.09 327.55 497.38 327.39 495.48 326.40 C493.99 325.63 492.42 325.00 491.98 325.00 C489.87 325.00 489.00 332.62 489.00 351.15 C489.00 370.06 489.10 371.10 491.13 373.13 C492.95 374.95 494.03 375.17 498.73 374.69 C501.75 374.38 504.43 373.90 504.71 373.63 Z M525.99 371.51 C532.90 367.93 534.05 360.85 528.60 355.40 C525.49 352.29 524.69 352.00 519.23 352.00 C511.06 352.00 508.00 354.35 508.00 360.64 C508.00 366.18 509.21 368.55 513.31 371.05 C517.13 373.37 522.03 373.55 525.99 371.51 Z M288.50 328.53 C291.84 327.33 304.31 327.08 363.75 327.04 C433.64 327.00 435.04 326.96 437.00 325.00 C439.37 322.63 439.59 318.29 437.51 315.32 C436.69 314.14 434.02 312.22 431.57 311.03 C424.59 307.65 423.00 303.37 423.00 287.93 C423.00 273.64 424.23 269.89 430.00 266.53 C433.08 264.74 435.23 264.50 448.00 264.50 C465.11 264.50 467.88 265.51 472.00 273.29 C473.86 276.80 475.61 278.53 478.85 280.06 C485.75 283.31 486.45 282.74 486.79 273.63 C487.02 267.47 486.68 265.00 485.20 262.14 C484.16 260.14 482.76 256.21 482.09 253.42 C480.25 245.69 478.01 242.83 470.91 239.14 C467.38 237.30 463.60 235.02 462.50 234.05 C461.40 233.09 459.82 231.89 459.00 231.40 C458.17 230.90 426.92 230.28 389.50 230.00 L321.50 229.50 L316.90 226.80 C313.35 224.71 311.92 223.07 310.59 219.58 C309.44 216.58 307.49 214.06 304.73 212.04 C299.36 208.08 298.00 208.15 298.00 212.38 C298.00 215.98 299.11 217.31 304.26 219.88 C311.88 223.69 307.89 233.69 296.46 239.48 C290.07 242.71 287.72 245.82 285.91 253.42 C285.25 256.21 283.87 260.07 282.85 261.99 C281.17 265.15 281.00 268.18 281.00 295.17 C281.00 322.60 281.58 330.03 283.73 329.98 C284.15 329.98 286.30 329.32 288.50 328.53 Z M469.25 223.85 C467.70 222.30 467.62 214.62 469.12 211.68 C469.74 210.48 471.61 208.05 473.29 206.28 C475.32 204.13 476.33 202.04 476.33 200.00 C476.33 197.96 475.32 195.87 473.29 193.72 C468.81 188.99 468.00 186.83 468.00 179.63 C468.00 167.77 470.22 165.08 480.06 165.03 C491.68 164.98 492.49 167.01 492.50 196.14 C492.50 219.13 492.67 218.70 482.16 221.87 C471.69 225.02 470.59 225.19 469.25 223.85 Z M484.07 213.96 C486.26 212.79 486.71 209.00 484.65 209.00 C482.77 209.00 479.67 212.65 480.46 213.94 C481.28 215.26 481.65 215.26 484.07 213.96 Z M304.75 187.95 C309.72 184.30 310.73 181.77 308.56 178.45 C306.61 175.48 302.08 175.15 299.67 177.82 C296.51 181.31 296.25 191.00 299.32 191.00 C300.03 191.00 302.47 189.63 304.75 187.95 Z M486.60 188.46 C487.44 185.10 486.37 180.07 484.33 177.82 C481.92 175.15 477.39 175.48 475.44 178.45 C473.27 181.77 474.28 184.30 479.25 187.95 C484.29 191.66 485.77 191.77 486.60 188.46 Z M377.22 174.44 C375.98 173.57 375.00 171.83 375.00 170.50 C375.00 166.04 378.21 165.00 392.00 165.00 C405.79 165.00 409.00 166.04 409.00 170.50 C409.00 174.96 405.79 176.00 392.00 176.00 C382.26 176.00 378.95 175.65 377.22 174.44 Z"/></g>
  <g transform="scale(0.062500 0.062500) translate(0.000000,768.000000) scale(1.000000,-1.000000)" fill="#f7eede" stroke="none"><path d="M533.58 350.51 C531.42 349.75 527.37 348.61 524.58 347.98 C516.62 346.21 513.90 344.88 512.92 342.28 C511.72 339.12 511.79 330.54 513.05 325.50 C513.61 323.30 514.45 316.04 514.93 309.37 C515.41 302.70 516.31 296.28 516.94 295.12 C517.56 293.95 520.27 291.88 522.96 290.52 C526.80 288.58 528.46 286.90 530.68 282.77 C534.28 276.05 536.88 275.11 552.00 275.11 C567.12 275.11 569.72 276.05 573.32 282.77 C575.54 286.90 577.20 288.58 581.04 290.52 C583.73 291.88 586.34 293.79 586.85 294.75 C589.72 300.22 588.84 312.18 585.37 314.72 C584.21 315.57 580.40 315.93 573.78 315.83 C565.31 315.69 563.54 315.95 561.21 317.68 C557.22 320.65 555.86 323.85 556.31 329.28 C556.78 334.82 559.13 337.85 565.05 340.52 C569.86 342.69 570.58 346.45 566.48 348.01 C556.31 351.87 540.72 353.06 533.58 350.51 Z M296.57 252.67 C294.12 250.89 295.27 247.53 298.78 246.16 C309.48 241.99 309.32 242.00 384.00 242.00 C458.68 242.00 458.52 241.99 469.22 246.16 C472.73 247.53 473.88 250.89 471.43 252.67 C468.75 254.63 299.25 254.63 296.57 252.67 Z"/></g>
</svg>
