<?xml version="1.0" encoding="UTF-8"?>
<svg xmlns="http://www.w3.org/2000/svg" viewBox="0 0 64 64" width="64" height="64">
  <g transform="scale(0.125 0.125) translate(0.000000,512.000000) scale(1.000000,-1.000000)" fill="#236b61" stroke="none"><path d="M190 250 l-22 -22 0 -24 0 -24 -8 -8 -8 -8 0 -8 0 -8 10 -10 10 -10
24 0 25 0 3 4 3 4 13 0 13 0 3 -4 3 -4 21 0 20 0 18 18 18 18 -4 4 c-4 4 -4 4
-3 6 2 1 4 2 7 2 6 0 16 10 16 16 0 4 -1 5 -6 10 l-6 6 -12 0 c-16 0 -16 0
-16 16 l0 12 -14 14 c-14 14 -14 14 -18 14 -4 0 -5 0 -8 4 l-3 4 -29 0 -28 0
-22 -22z"/></g>
  <g transform="scale(0.125 0.125) translate(0.000000,512.000000) scale(1.000000,-1.000000)" fill="#001714" stroke="none"><path d="M190 250 l-22 -22 0 -24 0 -24 -8 -8 -8 -8 0 -8 0 -8 10 -10 10 -10
24 0 25 0 3 4 3 4 13 0 13 0 3 -4 3 -4 21 0 20 0 18 18 18 18 -4 4 c-4 4 -4 4
-3 6 2 1 4 2 7 2 6 0 16 10 16 16 0 4 -1 5 -6 10 l-6 6 -12 0 c-16 0 -16 0
-16 16 l0 12 -14 14 c-14 14 -14 14 -18 14 -4 0 -5 0 -8 4 l-3 4 -29 0 -28 0
-22 -22z m34 10 l3 -4 9 0 9 0 3 -4 3 -4 13 0 12 0 14 -14 c14 -13 14 -14 14
-18 0 -7 -2 -8 -14 -8 -10 0 -10 0 -10 -2 0 -2 -3 -5 -8 -10 l-8 -8 0 -8 0 -8
-6 -6 -6 -6 -8 0 c-11 0 -12 1 -12 10 l0 6 -6 0 c-7 0 -7 0 -10 4 l-3 4 -9 0
-8 0 -6 6 -6 6 0 16 0 16 18 18 c10 10 18 18 18 18 1 0 2 -2 4 -4z"/><path d="M266 222 c-1 -1 -2 -3 -2 -6 0 -6 2 -8 10 -8 l6 0 0 6 c0 5 0 7 -2 8
-2 3 -10 3 -12 0z"/><path d="M218 206 c-1 -1 -2 -3 -2 -6 0 -4 0 -5 8 -12 5 -5 8 -8 8 -10 0 -1 1
-2 2 -2 5 0 6 3 6 12 l0 8 -6 6 c-5 6 -6 6 -10 6 -3 0 -5 -1 -6 -2z"/></g>
  <g transform="scale(0.125 0.125) translate(0.000000,512.000000) scale(1.000000,-1.000000)" fill="#054139" stroke="none"><path d="M210 262 c-1 -1 -2 -3 -2 -4 0 -1 -1 -2 -2 -2 -3 0 -6 -3 -6 -6 0 -1
-1 -2 -2 -2 -3 0 -6 -3 -6 -6 0 -1 -1 -2 -2 -2 -3 0 -6 -3 -6 -6 0 -1 -1 -2
-2 -2 -6 0 -6 -1 -6 -30 l0 -26 -6 0 -6 0 -6 -6 -6 -6 0 -8 0 -8 10 -10 10
-10 24 0 c24 0 25 0 27 2 1 2 1 2 -3 6 -4 4 -4 4 -3 6 2 2 3 2 19 2 19 0 20 0
20 -8 0 -8 1 -8 24 -8 l20 0 18 18 18 18 -4 4 c-4 4 -4 4 -3 6 2 1 4 2 7 2 4
0 5 0 10 6 8 8 8 12 0 20 l-6 6 -30 0 -30 0 0 2 c0 2 -1 4 -2 5 -2 1 -2 1 -4
-1 -2 -2 -2 -2 -1 -4 1 -1 3 -2 5 -2 4 0 2 -4 -6 -12 l-8 -8 0 -8 0 -8 -6 -6
-6 -6 -8 0 -9 0 -3 4 c-3 4 -3 4 -10 4 l-6 0 0 6 c0 9 -1 10 -12 10 l-8 0 -6
6 -6 6 0 18 0 18 2 0 c3 0 6 3 6 6 0 1 1 2 2 2 3 0 6 3 6 6 0 1 1 2 2 2 3 0 6
3 6 6 0 1 1 2 2 2 2 0 4 1 5 2 1 2 1 2 0 4 -3 2 -3 2 -5 0z m-28 -88 c1 -1 2
-2 2 -4 l0 -2 16 0 c16 0 16 0 16 -2 0 -4 -3 -6 -8 -6 -5 0 -8 -2 -8 -6 0 -1
1 -2 2 -2 2 0 4 -1 5 -2 1 -2 1 -2 -1 -4 -2 -2 -2 -2 -4 -1 -1 1 -2 3 -2 5 0
1 -1 2 -2 2 -1 0 -5 2 -8 6 -4 3 -6 7 -6 8 0 1 -1 2 -2 2 -3 0 -6 3 -6 6 0 3
3 3 6 0z"/><path d="M226 262 c-2 -2 -2 -2 0 -4 1 -2 3 -2 10 -2 l9 0 3 -4 3 -4 13 0 12
0 12 -12 c12 -12 12 -12 14 -10 1 1 2 3 2 6 0 4 0 4 -10 14 -10 10 -10 10 -14
10 -4 0 -5 0 -8 4 l-3 4 -21 0 c-19 0 -21 0 -22 -2z"/><path d="M218 198 c-2 -2 -2 -2 4 -8 6 -6 6 -6 8 -4 3 2 3 10 0 12 -2 3 -10 3
-12 0z"/></g>
  <g transform="scale(0.125 0.125) translate(0.000000,512.000000) scale(1.000000,-1.000000)" fill="#251700" stroke="none"><path d="M226 262 c-2 -2 -2 -2 0 -4 1 -2 3 -2 10 -2 l9 0 3 -4 3 -4 13 0 12
0 12 -12 c12 -12 12 -12 14 -10 1 1 2 3 2 6 0 4 0 4 -10 14 -10 10 -10 10 -14
10 -4 0 -5 0 -8 4 l-3 4 -21 0 c-19 0 -21 0 -22 -2z"/><path d="M274 214 c-2 -2 -2 -2 0 -4 0 -1 2 -2 4 -2 4 0 2 -4 -6 -12 l-8 -8 8
-8 c8 -7 8 -8 8 -12 0 -4 0 -5 -12 -16 -12 -12 -12 -12 -12 -16 0 -8 1 -8 24
-8 l20 0 18 18 18 18 -4 4 c-4 4 -4 4 -3 6 2 1 4 2 7 2 4 0 5 0 10 6 8 8 8 12
0 20 l-6 6 -30 0 -30 0 0 2 c0 2 -3 6 -4 6 0 0 -2 -1 -2 -2z"/><path d="M218 198 c-2 -2 -2 -2 4 -8 6 -6 6 -6 8 -4 3 2 3 10 0 12 -2 3 -10 3
-12 0z"/><path d="M158 170 l-6 -6 0 -8 0 -8 10 -10 10 -10 24 0 c23 0 25 0 26 2 2 2 2
2 -4 8 -5 5 -6 6 -10 6 -4 0 -5 0 -20 16 -16 16 -16 16 -20 16 -4 0 -5 -1 -10
-6z"/></g>
  <g transform="scale(0.125 0.125) translate(0.000000,512.000000) scale(1.000000,-1.000000)" fill="#674309" stroke="none"><path d="M226 262 c-2 -2 -2 -2 0 -4 1 -2 3 -2 10 -2 l9 0 3 -4 3 -4 13 0 12
0 12 -12 c12 -12 12 -12 14 -10 1 1 2 3 2 6 0 4 0 4 -10 14 -10 10 -10 10 -14
10 -4 0 -5 0 -8 4 l-3 4 -21 0 c-19 0 -21 0 -22 -2z"/><path d="M273 214 c-1 -2 -1 -2 1 -4 l2 -2 2 2 c2 2 2 2 1 4 -1 1 -3 2 -3 2 0
0 -2 -1 -3 -2z"/><path d="M218 198 c-2 -2 -2 -2 4 -8 6 -6 6 -6 8 -4 3 2 3 10 0 12 -2 3 -10 3
-12 0z"/><path d="M278 194 l-6 -6 6 -6 6 -6 20 0 21 0 3 4 c3 4 4 4 8 4 6 0 8 2 8 8 0
8 0 8 -32 8 l-28 0 -6 -6z"/><path d="M162 166 c-2 -1 -2 -4 -2 -10 l0 -8 10 -10 10 -10 16 0 c25 0 25 -1
2 22 l-18 18 -8 0 c-7 0 -9 0 -10 -2z"/><path d="M278 154 c-14 -14 -14 -14 -14 -18 0 -7 1 -8 16 -8 l12 0 18 18 c23
23 23 22 -2 22 l-16 0 -14 -14z"/></g>
  <g transform="scale(0.125 0.125) translate(0.000000,512.000000) scale(1.000000,-1.000000)" fill="#aa7f38" stroke="none"><path d="M226 262 c-2 -2 -2 -2 0 -4 1 -2 3 -2 10 -2 l9 0 3 -4 3 -4 13 0 12
0 12 -12 c12 -12 12 -12 14 -10 1 1 2 3 2 6 0 4 0 4 -10 14 -10 10 -10 10 -14
10 -4 0 -5 0 -8 4 l-3 4 -21 0 c-19 0 -21 0 -22 -2z"/><path d="M273 214 c-1 -2 -1 -2 1 -4 l2 -2 2 2 c2 2 2 2 1 4 -1 1 -3 2 -3 2 0
0 -2 -1 -3 -2z"/><path d="M218 198 c-2 -2 -2 -2 4 -8 6 -6 6 -6 8 -4 3 2 3 10 0 12 -2 3 -10 3
-12 0z"/><path d="M282 198 c-3 -2 -3 -10 0 -12 1 -2 4 -2 14 -2 l13 0 3 -4 c3 -4 4 -4
8 -4 4 0 5 0 8 4 3 4 4 4 8 4 6 0 8 2 8 8 0 8 0 8 -32 8 -27 0 -29 0 -30 -2z"/><path d="M286 162 c-5 -5 -6 -6 -6 -10 0 -4 0 -5 -4 -8 -4 -4 -4 -4 -3 -6 2
-1 3 -2 7 -2 4 0 5 0 8 -4 l4 -4 18 18 c23 23 23 22 -2 22 l-16 0 -6 -6z"/></g>
  <g transform="scale(0.125 0.125) translate(0.000000,512.000000) scale(1.000000,-1.000000)" fill="#55948b" stroke="none"><path d="M226 262 c-2 -2 -2 -2 0 -4 1 -2 3 -2 10 -2 l9 0 3 -4 3 -4 13 0 12
0 12 -12 c12 -12 12 -12 14 -10 1 1 2 3 2 6 0 4 0 4 -10 14 -10 10 -10 10 -14
10 -4 0 -5 0 -8 4 l-3 4 -21 0 c-19 0 -21 0 -22 -2z"/><path d="M273 214 c-1 -2 -1 -2 1 -4 l2 -2 2 2 c2 2 2 2 1 4 -1 1 -3 2 -3 2 0
0 -2 -1 -3 -2z"/><path d="M218 198 c-2 -2 -2 -2 4 -8 6 -6 6 -6 8 -4 3 2 3 10 0 12 -2 3 -10 3
-12 0z"/><path d="M282 198 c-2 -2 -2 -2 0 -4 1 -2 3 -2 26 -2 l25 0 3 -4 c4 -4 4 -4 6
-3 3 3 3 11 0 13 -3 3 -58 3 -60 0z"/><path d="M298 166 c-3 -3 0 -6 6 -6 5 0 8 -2 8 -6 0 -1 -1 -2 -2 -2 -2 0 -4
-1 -5 -2 -1 -2 -1 -2 1 -4 2 -2 2 -2 4 -1 1 1 2 3 2 5 0 1 1 2 2 2 1 0 5 3 8
6 6 6 6 6 4 8 -2 3 -26 3 -28 0z"/></g>
  <g transform="scale(0.125 0.125) translate(0.000000,512.000000) scale(1.000000,-1.000000)" fill="#ecc687" stroke="none"><path d="M273 214 c-1 -2 -1 -2 1 -4 l2 -2 2 2 c2 2 2 2 1 4 -1 1 -3 2 -3 2 0
0 -2 -1 -3 -2z"/><path d="M282 198 c-2 -2 -2 -2 0 -4 1 -2 3 -2 26 -2 l25 0 3 -4 c4 -4 4 -4 6
-3 3 3 3 11 0 13 -3 3 -58 3 -60 0z"/><path d="M298 166 c-3 -3 0 -6 6 -6 5 0 8 -2 8 -6 0 -1 -1 -2 -2 -2 -2 0 -4
-1 -5 -2 -1 -2 -1 -2 1 -4 2 -2 2 -2 4 -1 1 1 2 3 2 5 0 1 1 2 2 2 1 0 5 3 8
6 6 6 6 6 4 8 -2 3 -26 3 -28 0z"/></g>
  <g transform="scale(0.125 0.125) translate(0.000000,512.000000) scale(1.000000,-1.000000)" fill="#afd5d0" stroke="none"><path d="M273 214 c-1 -2 -1 -2 1 -4 l2 -2 2 2 c2 2 2 2 1 4 -1 1 -3 2 -3 2 0
0 -2 -1 -3 -2z"/></g>
</svg>
