<?xml version="1.0" encoding="UTF-8"?>
<svg xmlns="http://www.w3.org/2000/svg" viewBox="0 0 64 64" shape-rendering="crispEdges">
<rect x="26" y="29" width="8" height="1" fill="#001714"/>
<rect x="25" y="30" width="1" height="1" fill="#001714"/>
<rect x="26" y="30" width="1" height="1" fill="#054139"/>
<rect x="27" y="30" width="1" height="1" fill="#236b61"/>
<rect x="28" y="30" width="6" height="1" fill="#55948b"/>
<rect x="34" y="30" width="2" height="1" fill="#001714"/>
<rect x="24" y="31" width="1" height="1" fill="#001714"/>
<rect x="25" y="31" width="1" height="1" fill="#054139"/>
<rect x="26" y="31" width="5" height="1" fill="#236b61"/>
<rect x="31" y="31" width="5" height="1" fill="#55948b"/>
<rect x="36" y="31" width="1" height="1" fill="#001714"/>
<rect x="23" y="32" width="1" height="1" fill="#001714"/>
<rect x="24" y="32" width="1" height="1" fill="#054139"/>
<rect x="25" y="32" width="10" height="1" fill="#236b61"/>
<rect x="35" y="32" width="2" height="1" fill="#55948b"/>
<rect x="37" y="32" width="1" height="1" fill="#001714"/>
<rect x="22" y="33" width="1" height="1" fill="#001714"/>
<rect x="23" y="33" width="1" height="1" fill="#054139"/>
<rect x="24" y="33" width="12" height="1" fill="#236b61"/>
<rect x="36" y="33" width="2" height="1" fill="#55948b"/>
<rect x="38" y="33" width="1" height="1" fill="#001714"/>
<rect x="21" y="34" width="1" height="1" fill="#001714"/>
<rect x="22" y="34" width="1" height="1" fill="#054139"/>
<rect x="23" y="34" width="14" height="1" fill="#236b61"/>
<rect x="37" y="34" width="1" height="1" fill="#55948b"/>
<rect x="38" y="34" width="1" height="1" fill="#001714"/>
<rect x="20" y="35" width="1" height="1" fill="#001714"/>
<rect x="21" y="35" width="1" height="1" fill="#054139"/>
<rect x="22" y="35" width="7" height="1" fill="#236b61"/>
<rect x="29" y="35" width="2" height="1" fill="#001714"/>
<rect x="31" y="35" width="5" height="1" fill="#236b61"/>
<rect x="36" y="35" width="3" height="1" fill="#001714"/>
<rect x="19" y="36" width="1" height="1" fill="#001714"/>
<rect x="20" y="36" width="1" height="1" fill="#054139"/>
<rect x="21" y="36" width="8" height="1" fill="#236b61"/>
<rect x="29" y="36" width="1" height="1" fill="#001714"/>
<rect x="30" y="36" width="1" height="1" fill="#afd5d0"/>
<rect x="31" y="36" width="5" height="1" fill="#236b61"/>
<rect x="36" y="36" width="1" height="1" fill="#afd5d0"/>
<rect x="37" y="36" width="2" height="1" fill="#001714"/>
<rect x="19" y="37" width="1" height="1" fill="#001714"/>
<rect x="20" y="37" width="11" height="1" fill="#236b61"/>
<rect x="31" y="37" width="10" height="1" fill="#251700"/>
<rect x="18" y="38" width="1" height="1" fill="#001714"/>
<rect x="19" y="38" width="1" height="1" fill="#054139"/>
<rect x="20" y="38" width="10" height="1" fill="#236b61"/>
<rect x="30" y="38" width="1" height="1" fill="#251700"/>
<rect x="31" y="38" width="10" height="1" fill="#ecc687"/>
<rect x="41" y="38" width="1" height="1" fill="#251700"/>
<rect x="18" y="39" width="1" height="1" fill="#001714"/>
<rect x="19" y="39" width="2" height="1" fill="#054139"/>
<rect x="21" y="39" width="3" height="1" fill="#236b61"/>
<rect x="24" y="39" width="1" height="1" fill="#001714"/>
<rect x="25" y="39" width="4" height="1" fill="#236b61"/>
<rect x="29" y="39" width="1" height="1" fill="#251700"/>
<rect x="30" y="39" width="1" height="1" fill="#674309"/>
<rect x="31" y="39" width="9" height="1" fill="#aa7f38"/>
<rect x="40" y="39" width="1" height="1" fill="#ecc687"/>
<rect x="41" y="39" width="1" height="1" fill="#251700"/>
<rect x="19" y="40" width="1" height="1" fill="#001714"/>
<rect x="20" y="40" width="2" height="1" fill="#054139"/>
<rect x="22" y="40" width="1" height="1" fill="#236b61"/>
<rect x="23" y="40" width="1" height="1" fill="#054139"/>
<rect x="24" y="40" width="1" height="1" fill="#001714"/>
<rect x="25" y="40" width="3" height="1" fill="#236b61"/>
<rect x="28" y="40" width="2" height="1" fill="#054139"/>
<rect x="30" y="40" width="1" height="1" fill="#251700"/>
<rect x="31" y="40" width="5" height="1" fill="#674309"/>
<rect x="36" y="40" width="3" height="1" fill="#aa7f38"/>
<rect x="39" y="40" width="2" height="1" fill="#251700"/>
<rect x="20" y="41" width="1" height="1" fill="#001714"/>
<rect x="21" y="41" width="2" height="1" fill="#054139"/>
<rect x="23" y="41" width="1" height="1" fill="#001714"/>
<rect x="24" y="41" width="2" height="1" fill="#054139"/>
<rect x="26" y="41" width="3" height="1" fill="#236b61"/>
<rect x="29" y="41" width="2" height="1" fill="#054139"/>
<rect x="31" y="41" width="9" height="1" fill="#251700"/>
<rect x="21" y="42" width="3" height="1" fill="#001714"/>
<rect x="24" y="42" width="3" height="1" fill="#054139"/>
<rect x="27" y="42" width="3" height="1" fill="#236b61"/>
<rect x="30" y="42" width="6" height="1" fill="#054139"/>
<rect x="36" y="42" width="1" height="1" fill="#001714"/>
<rect x="23" y="43" width="2" height="1" fill="#001714"/>
<rect x="25" y="43" width="3" height="1" fill="#054139"/>
<rect x="28" y="43" width="8" height="1" fill="#236b61"/>
<rect x="36" y="43" width="1" height="1" fill="#001714"/>
<rect x="22" y="44" width="1" height="1" fill="#001714"/>
<rect x="23" y="44" width="1" height="1" fill="#674309"/>
<rect x="24" y="44" width="8" height="1" fill="#001714"/>
<rect x="32" y="44" width="2" height="1" fill="#054139"/>
<rect x="34" y="44" width="2" height="1" fill="#001714"/>
<rect x="22" y="45" width="1" height="1" fill="#001714"/>
<rect x="23" y="45" width="1" height="1" fill="#674309"/>
<rect x="24" y="45" width="2" height="1" fill="#aa7f38"/>
<rect x="26" y="45" width="6" height="1" fill="#ecc687"/>
<rect x="32" y="45" width="1" height="1" fill="#001714"/>
<rect x="33" y="45" width="1" height="1" fill="#251700"/>
<rect x="23" y="46" width="1" height="1" fill="#001714"/>
<rect x="24" y="46" width="1" height="1" fill="#674309"/>
<rect x="25" y="46" width="7" height="1" fill="#aa7f38"/>
<rect x="32" y="46" width="1" height="1" fill="#001714"/>
<rect x="33" y="46" width="1" height="1" fill="#674309"/>
<rect x="34" y="46" width="1" height="1" fill="#001714"/>
<rect x="24" y="47" width="1" height="1" fill="#001714"/>
<rect x="25" y="47" width="6" height="1" fill="#251700"/>
<rect x="31" y="47" width="1" height="1" fill="#001714"/>
<rect x="32" y="47" width="1" height="1" fill="#674309"/>
<rect x="33" y="47" width="1" height="1" fill="#001714"/>
</svg>
