<?xml version="1.0" encoding="UTF-8"?>
<svg xmlns="http://www.w3.org/2000/svg" viewBox="0 0 64 64" width="64" height="64">
  <g transform="scale(0.125 0.125) translate(0.000000,512.000000) scale(1.000000,-1.000000)" fill="#236b61" stroke="none"><path d="M202 262 c-10 -10 -10 -10 -10 -14 0 -7 -1 -8 -16 -8 l-12 0 -10 -10
-10 -10 0 -8 0 -8 8 -8 c8 -7 8 -8 8 -12 0 -4 0 -5 -4 -8 l-4 -3 0 -13 0 -12
10 -10 10 -10 20 0 c22 0 24 0 24 6 0 2 0 2 22 2 l23 0 3 -4 3 -4 13 0 13 0 3
4 c3 4 4 4 8 4 4 0 5 0 10 6 6 5 6 6 6 10 0 4 0 5 4 8 4 3 4 4 4 8 0 4 0 5 -4
8 l-4 4 4 4 c4 3 4 4 4 8 0 4 0 5 -4 8 l-4 4 4 4 4 4 0 16 0 16 -6 6 c-5 5 -6
6 -10 6 -4 0 -5 0 -8 -4 l-4 -4 -8 8 c-7 8 -8 8 -12 8 -4 0 -5 0 -8 4 l-3 4
-29 0 -28 0 -10 -10z m12 -120 c1 -1 2 -2 2 -4 0 -3 -4 -3 -6 0 -2 2 -2 2 0 4
2 2 2 2 4 0z"/></g>
  <g transform="scale(0.125 0.125) translate(0.000000,512.000000) scale(1.000000,-1.000000)" fill="#001714" stroke="none"><path d="M202 262 l-10 -10 0 -6 0 -6 -14 0 -14 0 -10 -10 -10 -10 0 -8 0 -8
8 -8 c8 -7 8 -8 8 -12 0 -4 0 -5 -4 -8 l-4 -3 0 -13 0 -12 10 -10 10 -10 20 0
c22 0 24 0 24 6 0 2 0 2 22 2 l23 0 3 -4 3 -4 13 0 13 0 3 4 c3 4 4 4 8 4 4 0
5 0 10 6 6 5 6 6 6 10 0 4 0 5 4 8 4 3 4 4 4 8 0 4 0 5 -4 8 l-4 4 4 4 c4 3 4
4 4 8 0 4 0 5 -4 8 l-4 4 4 4 4 4 0 16 0 16 -6 6 c-5 5 -6 6 -10 6 -4 0 -5 0
-8 -4 l-4 -4 -8 8 c-7 8 -8 8 -12 8 -4 0 -5 0 -8 4 l-3 4 -29 0 -28 0 -10 -10z
m22 -2 l3 -4 9 0 9 0 3 -4 3 -4 13 0 12 0 10 -10 c6 -6 10 -11 10 -12 0 -1 1
-2 2 -2 6 0 9 -10 4 -14 -3 -4 -6 0 -6 8 l0 6 -6 0 c-8 0 -10 -2 -10 -8 0 -8
-1 -8 -20 -8 l-16 0 -10 -10 c-14 -14 -14 -14 0 -28 l10 -10 20 0 c19 0 21 0
23 -2 1 -2 1 -2 0 -4 -2 -2 -4 -2 -31 -2 l-28 0 -14 14 c-14 13 -14 14 -14 18
0 7 -1 8 -16 8 l-12 0 -10 10 -10 10 6 6 6 6 16 0 c16 0 17 0 19 2 1 2 1 2 -3
6 -5 4 -6 8 -2 8 2 0 6 4 14 12 6 7 12 12 12 12 1 0 2 -2 4 -4z m-10 -118 c1
-1 2 -2 2 -4 0 -3 -4 -3 -6 0 -2 2 -2 2 0 4 2 2 2 2 4 0z"/><path d="M218 222 c-3 -2 -3 -10 0 -12 2 -3 10 -3 12 0 3 2 3 10 0 12 -2 3
-10 3 -12 0z"/></g>
  <g transform="scale(0.125 0.125) translate(0.000000,512.000000) scale(1.000000,-1.000000)" fill="#251700" stroke="none"><path d="M210 262 c-1 -1 -2 -3 -2 -4 0 -1 -1 -2 -2 -2 -2 0 -4 -1 -5 -2 -1
-2 -1 -2 1 -4 2 -2 2 -2 4 -1 1 1 2 3 2 5 0 1 1 2 2 2 2 0 4 1 5 2 1 2 1 2 0
4 -3 2 -3 2 -5 0z"/><path d="M226 262 c-2 -2 -2 -2 0 -4 1 -2 3 -2 10 -2 l9 0 3 -4 3 -4 13 0 12
0 12 -12 c12 -12 12 -12 14 -10 2 1 2 3 2 8 0 6 0 6 2 6 5 0 6 -3 6 -16 0 -16
0 -16 -12 -16 l-8 0 -4 4 -4 5 -4 -5 -3 -4 -17 0 -16 0 -10 -10 c-14 -14 -14
-14 0 -28 l10 -10 20 0 21 0 3 4 c4 4 4 4 6 3 4 -4 3 -10 -4 -17 -5 -6 -6 -6
-10 -6 -4 0 -5 0 -8 4 l-3 4 -21 0 -20 0 -16 16 -16 16 -6 0 c-6 0 -6 0 -6 2
0 4 -3 6 -10 6 -6 0 -6 0 -6 2 0 3 -3 6 -6 6 -1 0 -2 1 -2 2 0 2 -1 4 -2 5 -2
1 -2 1 -4 -1 -2 -2 -2 -2 -1 -4 1 -1 3 -2 5 -2 1 0 2 -1 2 -2 0 -3 3 -6 6 -6
2 0 2 -1 2 -4 0 -3 0 -4 -2 -4 -1 0 -5 -2 -8 -6 l-6 -6 0 -12 0 -12 10 -10 10
-10 20 0 c20 0 21 0 23 2 1 2 1 2 -3 6 -5 4 -6 11 -2 15 2 1 2 1 6 -3 l4 -4
16 0 16 0 8 -8 8 -8 12 0 13 0 3 4 c3 4 4 4 8 4 4 0 5 0 10 6 6 5 6 6 6 10 0
4 0 5 4 8 4 3 4 4 4 8 0 4 0 5 -4 8 l-4 4 4 4 c4 3 4 4 4 8 0 4 0 5 -4 8 l-4
3 0 21 c0 24 0 24 -8 24 -5 0 -8 -2 -8 -6 0 -4 -4 -2 -12 6 -7 8 -8 8 -12 8
-4 0 -5 0 -8 4 l-3 4 -21 0 c-19 0 -21 0 -22 -2z m-42 -80 c0 -4 -3 -6 -8 -6
-5 0 -8 2 -8 6 0 2 0 2 8 2 8 0 8 0 8 -2z"/><path d="M162 230 c-1 -1 -2 -3 -2 -4 0 -1 -1 -2 -2 -2 -2 0 -4 -1 -5 -2 -1
-2 -1 -2 1 -4 2 -2 2 -2 4 -1 1 1 2 3 2 5 l0 2 14 0 c13 0 15 0 17 2 1 2 1 2
0 4 -3 3 -27 3 -29 0z"/><path d="M225 214 c-1 -2 -1 -2 1 -4 l2 -2 2 2 c2 2 2 2 1 4 -1 1 -3 2 -3 2 0
0 -2 -1 -3 -2z"/></g>
  <g transform="scale(0.125 0.125) translate(0.000000,512.000000) scale(1.000000,-1.000000)" fill="#054139" stroke="none"><path d="M210 262 c-1 -1 -2 -3 -2 -4 0 -1 -1 -2 -2 -2 -2 0 -4 -1 -5 -2 -1
-2 -1 -2 1 -4 2 -2 2 -2 4 -1 1 1 2 3 2 5 0 1 1 2 2 2 2 0 4 1 5 2 1 2 1 2 0
4 -3 2 -3 2 -5 0z"/><path d="M226 262 c-2 -2 -2 -2 0 -4 1 -2 3 -2 10 -2 l9 0 3 -4 3 -4 13 0 12
0 12 -12 c12 -12 12 -12 14 -10 2 1 2 3 2 8 0 6 0 6 2 6 5 0 6 -3 6 -16 0 -11
0 -13 2 -14 2 -2 2 -2 4 0 3 2 3 34 0 36 -4 4 -14 2 -14 -4 0 -4 -4 -2 -12 6
-7 8 -8 8 -12 8 -4 0 -5 0 -8 4 l-3 4 -21 0 c-19 0 -21 0 -22 -2z"/><path d="M162 230 c-1 -1 -2 -3 -2 -4 0 -1 -1 -2 -2 -2 -2 0 -4 -1 -5 -2 -1
-2 -1 -2 1 -4 2 -2 2 -2 4 -1 1 1 2 3 2 5 l0 2 14 0 c13 0 15 0 17 2 1 2 1 2
0 4 -3 3 -27 3 -29 0z"/><path d="M225 214 c-1 -2 -1 -2 1 -4 l2 -2 2 2 c2 2 2 2 1 4 -1 1 -3 2 -3 2 0
0 -2 -1 -3 -2z"/><path d="M281 214 c-1 -2 -1 -2 1 -4 l2 -2 2 2 c2 2 2 2 1 4 -1 1 -3 2 -3 2 0
0 -2 -1 -3 -2z"/><path d="M154 206 c-2 -2 -2 -2 0 -4 0 -1 2 -2 4 -2 1 0 2 -1 2 -2 0 -3 3 -6
6 -6 1 0 2 -1 2 -2 0 -4 3 -6 10 -6 l6 0 0 -8 c0 -8 0 -8 -2 -8 -2 0 -4 1 -6
4 -3 4 -4 4 -8 4 -7 0 -8 -1 -8 -16 l0 -12 10 -10 10 -10 12 0 c12 0 13 0 15
2 1 2 1 2 -3 6 -4 3 -4 4 -4 10 l0 6 6 0 c7 0 7 0 10 -4 l3 -4 21 0 20 0 8 -8
c7 -8 8 -8 12 -8 4 0 5 0 12 8 7 8 8 8 12 8 4 0 5 1 10 6 l6 6 0 8 c0 8 0 9
-2 11 -2 1 -2 1 -6 -3 -3 -4 -4 -4 -8 -4 -6 0 -8 -2 -8 -8 0 -6 -10 -16 -16
-16 -4 0 -5 0 -8 4 l-3 4 -21 0 -20 0 -16 16 -16 16 -6 0 c-6 0 -6 0 -6 2 0 4
-3 6 -10 6 -6 0 -6 0 -6 2 0 3 -3 6 -6 6 -1 0 -2 1 -2 2 0 2 -3 6 -4 6 0 0 -2
-1 -2 -2z m36 -40 c1 -1 2 -2 2 -4 0 -1 1 -2 2 -2 3 0 6 -3 6 -6 0 -1 -1 -2
-2 -2 -3 0 -6 3 -6 6 0 1 -1 2 -2 2 -3 0 -6 3 -6 6 0 3 3 3 6 0z"/><path d="M238 194 c-4 -3 -6 -7 -6 -8 0 -1 -1 -2 -2 -2 -2 0 -4 -1 -4 -2 -2
-2 -2 -2 0 -4 0 -1 2 -2 4 -2 1 0 2 -1 2 -2 0 -3 3 -6 6 -6 1 0 2 -1 2 -2 0
-6 2 -6 24 -6 19 0 21 0 23 2 1 2 1 2 0 4 -2 2 -4 2 -25 2 l-22 0 0 4 0 4 30
0 31 0 3 4 c3 4 4 4 8 4 6 0 8 2 8 8 0 8 1 8 -40 8 l-36 0 -6 -6z m0 -12 c1
-1 2 -2 2 -4 0 -2 0 -2 -4 -2 l-4 0 0 4 c0 5 3 6 6 2z"/></g>
  <g transform="scale(0.125 0.125) translate(0.000000,512.000000) scale(1.000000,-1.000000)" fill="#aa7f38" stroke="none"><path d="M226 262 c-2 -2 -2 -2 0 -4 1 -2 3 -2 10 -2 l9 0 3 -4 3 -4 13 0 12
0 12 -12 c12 -12 12 -12 14 -10 1 1 2 3 2 6 0 4 0 4 -10 14 -10 10 -10 10 -14
10 -4 0 -5 0 -8 4 l-3 4 -21 0 c-19 0 -21 0 -22 -2z"/><path d="M162 230 c-1 -1 -2 -3 -2 -4 0 -1 -1 -2 -2 -2 -2 0 -4 -1 -5 -2 -1
-2 -1 -2 1 -4 2 -2 2 -2 4 -1 1 1 2 3 2 5 l0 2 14 0 c13 0 15 0 17 2 1 2 1 2
0 4 -3 3 -27 3 -29 0z"/><path d="M225 214 c-1 -2 -1 -2 1 -4 l2 -2 2 2 c2 2 2 2 1 4 -1 1 -3 2 -3 2 0
0 -2 -1 -3 -2z"/><path d="M281 214 c-1 -2 -1 -2 1 -4 l2 -2 2 2 c2 2 2 2 1 4 -1 1 -3 2 -3 2 0
0 -2 -1 -3 -2z"/><path d="M238 194 l-6 -6 6 -6 6 -6 28 0 29 0 3 4 c3 4 4 4 8 4 6 0 8 2 8 8 0
8 1 8 -40 8 l-36 0 -6 -6z"/><path d="M162 174 c-2 -1 -2 -4 -2 -14 l0 -12 10 -10 10 -10 12 0 c12 0 13 0
15 2 1 2 1 2 -3 6 -4 3 -4 4 -4 8 0 4 0 4 -14 18 -14 14 -14 14 -18 14 -3 0
-5 -1 -6 -2z"/><path d="M312 172 c-3 -4 -4 -4 -8 -4 -6 0 -8 -2 -8 -8 0 -4 -1 -5 -6 -10 l-6
-6 -8 0 c-7 0 -9 0 -10 -2 -2 -2 -2 -2 4 -8 5 -5 6 -6 10 -6 4 0 5 0 12 8 7 8
8 8 12 8 4 0 5 1 10 6 l6 6 0 8 c0 7 0 9 -2 10 -2 3 -2 3 -6 -2z"/></g>
  <g transform="scale(0.125 0.125) translate(0.000000,512.000000) scale(1.000000,-1.000000)" fill="#674309" stroke="none"><path d="M226 262 c-2 -2 -2 -2 0 -4 1 -2 3 -2 10 -2 l9 0 3 -4 3 -4 13 0 12
0 12 -12 c12 -12 12 -12 14 -10 1 1 2 3 2 6 0 4 0 4 -10 14 -10 10 -10 10 -14
10 -4 0 -5 0 -8 4 l-3 4 -21 0 c-19 0 -21 0 -22 -2z"/><path d="M162 230 c-1 -1 -2 -3 -2 -4 0 -1 -1 -2 -2 -2 -2 0 -4 -1 -5 -2 -1
-2 -1 -2 1 -4 2 -2 2 -2 4 -1 1 1 2 3 2 5 l0 2 14 0 c13 0 15 0 17 2 1 2 1 2
0 4 -3 3 -27 3 -29 0z"/><path d="M225 214 c-1 -2 -1 -2 1 -4 l2 -2 2 2 c2 2 2 2 1 4 -1 1 -3 2 -3 2 0
0 -2 -1 -3 -2z"/><path d="M281 214 c-1 -2 -1 -2 1 -4 l2 -2 2 2 c2 2 2 2 1 4 -1 1 -3 2 -3 2 0
0 -2 -1 -3 -2z"/><path d="M242 198 c-1 -1 -2 -3 -2 -4 0 -1 -1 -2 -2 -2 -2 0 -4 -1 -4 -2 -2
-2 -2 -2 0 -4 0 -1 2 -2 4 -2 1 0 2 -1 2 -2 0 -5 2 -6 20 -6 15 0 17 0 19 2 1
2 1 2 0 4 -2 2 -4 2 -21 2 l-18 0 0 4 0 4 34 0 35 0 3 -4 c4 -4 4 -4 6 -3 3 3
3 11 0 13 -3 3 -74 3 -76 0z"/><path d="M170 174 c-2 -2 -2 -2 0 -4 0 -1 2 -2 4 -2 1 0 2 -1 2 -2 0 -3 3 -6
6 -6 1 0 2 -1 2 -2 0 -3 3 -6 6 -6 1 0 2 -1 2 -2 0 -2 1 -4 2 -5 2 -1 2 -1 4
1 2 2 2 2 1 4 -1 1 -3 2 -5 2 -1 0 -2 1 -2 2 0 3 -3 6 -6 6 -1 0 -2 1 -2 2 0
3 -3 6 -6 6 -1 0 -2 1 -2 2 0 2 -3 6 -4 6 0 0 -2 -1 -2 -2z"/><path d="M312 172 c-3 -4 -4 -4 -8 -4 -6 0 -8 -2 -8 -8 0 -4 -1 -5 -6 -10 l-6
-6 -8 0 c-7 0 -9 0 -10 -2 -2 -2 -2 -2 4 -8 5 -5 6 -6 10 -6 4 0 5 0 12 8 7 8
8 8 12 8 4 0 5 1 10 6 l6 6 0 8 c0 7 0 9 -2 10 -2 3 -2 3 -6 -2z"/><path d="M194 134 c-3 -3 0 -6 6 -6 6 0 9 3 7 6 -2 1 -4 2 -7 2 -3 0 -5 -1 -6
-2z"/></g>
  <g transform="scale(0.125 0.125) translate(0.000000,512.000000) scale(1.000000,-1.000000)" fill="#55948b" stroke="none"><path d="M226 262 c-2 -2 -2 -2 0 -4 1 -2 3 -2 10 -2 l9 0 3 -4 3 -4 13 0 12
0 12 -12 c12 -12 12 -12 14 -10 1 1 2 3 2 6 0 4 0 4 -10 14 -10 10 -10 10 -14
10 -4 0 -5 0 -8 4 l-3 4 -21 0 c-19 0 -21 0 -22 -2z"/><path d="M162 230 c-1 -1 -2 -3 -2 -4 0 -1 -1 -2 -2 -2 -2 0 -4 -1 -5 -2 -1
-2 -1 -2 1 -4 2 -2 2 -2 4 -1 1 1 2 3 2 5 l0 2 14 0 c13 0 15 0 17 2 1 2 1 2
0 4 -3 3 -27 3 -29 0z"/><path d="M225 214 c-1 -2 -1 -2 1 -4 l2 -2 2 2 c2 2 2 2 1 4 -1 1 -3 2 -3 2 0
0 -2 -1 -3 -2z"/><path d="M281 214 c-1 -2 -1 -2 1 -4 l2 -2 2 2 c2 2 2 2 1 4 -1 1 -3 2 -3 2 0
0 -2 -1 -3 -2z"/><path d="M242 198 c-2 -2 -2 -2 0 -4 1 -2 3 -2 34 -2 l33 0 3 -4 c4 -4 4 -4 6
-3 3 3 3 11 0 13 -3 3 -74 3 -76 0z"/><path d="M194 134 c-3 -3 0 -6 6 -6 6 0 9 3 7 6 -2 1 -4 2 -7 2 -3 0 -5 -1 -6
-2z"/></g>
  <g transform="scale(0.125 0.125) translate(0.000000,512.000000) scale(1.000000,-1.000000)" fill="#ecc687" stroke="none"><path d="M225 214 c-1 -2 -1 -2 1 -4 l2 -2 2 2 c2 2 2 2 1 4 -1 1 -3 2 -3 2 0
0 -2 -1 -3 -2z"/><path d="M281 214 c-1 -2 -1 -2 1 -4 l2 -2 2 2 c2 2 2 2 1 4 -1 1 -3 2 -3 2 0
0 -2 -1 -3 -2z"/><path d="M242 198 c-2 -2 -2 -2 0 -4 1 -2 3 -2 34 -2 l33 0 3 -4 c4 -4 4 -4 6
-3 3 3 3 11 0 13 -3 3 -74 3 -76 0z"/><path d="M194 134 c-3 -3 0 -6 6 -6 6 0 9 3 7 6 -2 1 -4 2 -7 2 -3 0 -5 -1 -6
-2z"/></g>
  <g transform="scale(0.125 0.125) translate(0.000000,512.000000) scale(1.000000,-1.000000)" fill="#afd5d0" stroke="none"><path d="M225 214 c-1 -2 -1 -2 1 -4 l2 -2 2 2 c2 2 2 2 1 4 -1 1 -3 2 -3 2 0
0 -2 -1 -3 -2z"/><path d="M281 214 c-1 -2 -1 -2 1 -4 l2 -2 2 2 c2 2 2 2 1 4 -1 1 -3 2 -3 2 0
0 -2 -1 -3 -2z"/></g>
</svg>
