<?xml version="1.0" encoding="UTF-8"?>
<svg xmlns="http://www.w3.org/2000/svg" viewBox="0 0 64 64" width="64" height="64">
  <g transform="scale(0.125 0.125) translate(0.000000,512.000000) scale(1.000000,-1.000000)" fill="#236b61" stroke="none"><path d="M182 250 l-30 -30 0 -4 c0 -4 0 -5 -4 -8 -4 -3 -4 -4 -4 -8 0 -4 0
-4 14 -18 14 -14 14 -14 18 -14 3 0 5 -1 7 -2 1 -2 1 -2 -3 -6 -4 -3 -4 -4 -4
-8 0 -4 0 -5 10 -14 l10 -10 36 0 36 0 6 6 6 6 -4 4 c-4 4 -4 4 -3 6 2 1 4 2
7 2 6 0 16 10 16 16 0 7 2 8 12 8 l8 0 10 10 c9 9 10 10 10 14 0 6 -10 16 -16
16 -7 0 -8 1 -8 16 l0 12 -14 14 c-14 14 -14 14 -18 14 -4 0 -5 0 -8 4 l-3 4
-29 0 -28 0 -30 -30z"/></g>
  <g transform="scale(0.125 0.125) translate(0.000000,512.000000) scale(1.000000,-1.000000)" fill="#001714" stroke="none"><path d="M182 250 l-30 -30 0 -4 c0 -4 0 -5 -4 -8 -4 -3 -4 -4 -4 -8 0 -4 0
-4 14 -18 14 -14 14 -14 18 -14 3 0 5 -1 7 -2 1 -2 1 -2 -3 -6 -4 -3 -4 -4 -4
-8 0 -4 0 -5 10 -14 l10 -10 36 0 36 0 6 6 6 6 -4 4 c-4 4 -4 4 -3 6 2 1 4 2
7 2 5 0 8 2 8 6 0 1 1 2 2 2 4 0 6 3 6 8 0 7 2 8 12 8 l8 0 10 10 c9 9 10 10
10 14 0 6 -10 16 -16 16 -7 0 -8 1 -8 16 l0 12 -14 14 c-14 14 -14 14 -18 14
-4 0 -5 0 -8 4 l-3 4 -29 0 -28 0 -30 -30z m42 18 l3 -4 9 0 9 0 3 -4 3 -4 13
0 12 0 10 -10 10 -10 -4 -4 c-4 -3 -4 -4 -4 -8 0 -8 -1 -8 -22 -8 -18 0 -18 0
-18 -2 0 -2 -4 -6 -12 -14 l-12 -12 10 -10 10 -10 20 0 c22 0 24 0 24 -6 l0
-2 -30 0 -30 0 -14 14 c-14 14 -14 14 -14 18 0 3 -1 5 -2 7 -2 1 -2 1 -10 -7
l-8 -8 -10 10 c-15 15 -17 11 20 48 16 16 30 30 30 30 1 0 2 -2 4 -4z"/><path d="M234 230 c-1 -1 -2 -3 -2 -6 0 -6 2 -8 10 -8 l6 0 0 6 c0 5 0 7 -2 8
-2 3 -10 3 -12 0z"/></g>
  <g transform="scale(0.125 0.125) translate(0.000000,512.000000) scale(1.000000,-1.000000)" fill="#054139" stroke="none"><path d="M210 270 c-1 -1 -2 -3 -2 -4 0 -1 -1 -2 -2 -2 -3 0 -6 -3 -6 -6 0 -1
-1 -2 -2 -2 -3 0 -6 -3 -6 -6 0 -1 -1 -2 -2 -2 -3 0 -6 -3 -6 -6 0 -1 -1 -2
-2 -2 -3 0 -6 -3 -6 -6 0 -1 -1 -2 -2 -2 -3 0 -6 -3 -6 -6 0 -1 -1 -2 -2 -2
-2 0 -4 -1 -5 -2 -1 -2 -1 -2 1 -4 2 -2 2 -2 4 -1 1 1 2 3 2 5 0 1 1 2 2 2 3
0 6 3 6 6 0 1 1 2 2 2 3 0 6 3 6 6 0 1 1 2 2 2 3 0 6 3 6 6 0 1 1 2 2 2 3 0 6
3 6 6 0 1 1 2 2 2 3 0 6 3 6 6 0 1 1 2 2 2 2 0 4 1 5 2 1 2 1 2 0 4 -3 2 -3 2
-5 0z"/><path d="M226 270 c-2 -2 -2 -2 0 -4 1 -2 3 -2 10 -2 l9 0 3 -4 3 -4 13 0 12
0 12 -12 c12 -12 12 -12 14 -10 1 1 2 3 2 6 0 4 0 4 -10 14 -10 10 -10 10 -14
10 -4 0 -5 0 -8 4 l-3 4 -21 0 c-19 0 -21 0 -22 -2z"/><path d="M242 222 c-2 -2 -2 -2 0 -4 0 -1 2 -2 4 -2 5 0 2 -4 -10 -16 l-12
-12 10 -10 10 -10 20 0 21 0 3 4 3 4 13 0 12 0 10 10 c9 9 10 10 10 14 0 4 -1
5 -6 10 l-6 6 -12 0 -12 0 -4 4 -4 5 -4 -5 -3 -4 -19 0 -18 0 0 2 c0 2 -3 6
-4 6 0 0 -2 -1 -2 -2z"/><path d="M154 206 c-1 -1 -2 -3 -2 -6 0 -4 0 -5 10 -14 10 -10 10 -10 14 -10
5 0 8 2 8 6 0 2 1 2 4 2 l4 0 0 -6 0 -6 6 -6 6 -6 8 0 c7 0 9 0 10 2 2 2 2 2
-8 12 l-10 10 -6 0 c-6 0 -6 0 -6 2 0 2 -1 4 -2 5 -2 1 -2 1 -4 0 -1 -1 -2 -3
-2 -5 0 -5 -4 -2 -16 10 -13 13 -12 13 -14 10z"/><path d="M186 158 c-1 -1 -2 -3 -2 -6 0 -4 0 -5 10 -14 l10 -10 20 0 21 0 3 4
c4 5 8 6 8 2 0 -2 1 -4 2 -4 2 -2 2 -2 4 0 1 0 2 2 2 4 0 1 1 2 2 2 5 0 6 3 6
12 0 10 -1 12 -8 12 -5 0 -8 -2 -8 -6 l0 -2 -30 0 -31 0 -3 4 c-4 5 -4 5 -6 2z
m76 -8 c2 -1 2 -3 2 -8 l0 -6 -4 0 -4 0 0 8 c0 8 0 8 2 8 1 0 3 -1 4 -2z"/></g>
  <g transform="scale(0.125 0.125) translate(0.000000,512.000000) scale(1.000000,-1.000000)" fill="#251700" stroke="none"><path d="M226 270 c-2 -2 -2 -2 0 -4 1 -2 3 -2 10 -2 l9 0 3 -4 3 -4 13 0 12
0 12 -12 c12 -12 12 -12 14 -10 1 1 2 3 2 6 0 4 0 4 -10 14 -10 10 -10 10 -14
10 -4 0 -5 0 -8 4 l-3 4 -21 0 c-19 0 -21 0 -22 -2z"/><path d="M242 222 c-2 -2 -2 -2 0 -4 0 -1 2 -2 4 -2 4 0 2 -4 -6 -12 l-8 -8
10 -10 10 -10 32 0 32 0 10 10 c9 9 10 10 10 14 0 4 -1 5 -6 10 l-6 6 -12 0
-12 0 -4 4 -4 5 -4 -5 -3 -4 -19 0 -18 0 0 2 c0 2 -3 6 -4 6 0 0 -2 -1 -2 -2z"/><path d="M186 158 c-1 -1 -2 -3 -2 -6 0 -4 0 -5 10 -14 l10 -10 20 0 21 0 3 4
c4 5 8 6 8 2 0 -2 1 -4 2 -4 2 -2 2 -2 4 0 1 0 2 2 2 4 0 1 1 2 2 2 6 0 8 10
4 15 -3 3 -6 -1 -6 -9 l0 -6 -4 0 -4 0 0 6 c0 10 1 10 -32 10 l-29 0 -3 4 c-4
5 -4 5 -6 2z"/></g>
  <g transform="scale(0.125 0.125) translate(0.000000,512.000000) scale(1.000000,-1.000000)" fill="#aa7f38" stroke="none"><path d="M226 270 c-2 -2 -2 -2 0 -4 1 -2 3 -2 10 -2 l9 0 3 -4 3 -4 13 0 12
0 12 -12 c12 -12 12 -12 14 -10 1 1 2 3 2 6 0 4 0 4 -10 14 -10 10 -10 10 -14
10 -4 0 -5 0 -8 4 l-3 4 -21 0 c-19 0 -21 0 -22 -2z"/><path d="M241 222 c-1 -2 -1 -2 1 -4 l2 -2 2 2 c2 2 2 2 1 4 -1 1 -3 2 -3 2 0
0 -2 -1 -3 -2z"/><path d="M289 222 c-1 -2 -1 -2 1 -4 l2 -2 2 2 c2 2 2 2 1 4 -1 1 -3 2 -3 2 0
0 -2 -1 -3 -2z"/><path d="M246 202 l-6 -6 6 -6 6 -6 28 0 29 0 3 4 c3 4 4 4 8 4 6 0 8 2 8 8 0
8 1 8 -40 8 l-36 0 -6 -6z"/><path d="M186 158 c-4 -4 -3 -10 4 -16 l6 -6 30 0 30 0 0 -2 c0 -2 1 -4 2 -4
2 -2 2 -2 4 0 1 0 2 2 2 4 0 1 1 2 2 2 2 0 4 1 5 2 1 2 1 2 -1 4 -2 2 -2 2 -4
1 -1 -1 -2 -3 -2 -5 0 -2 0 -2 -4 -2 l-4 0 0 6 c0 10 1 10 -32 10 l-29 0 -3 4
c-4 5 -4 5 -6 2z"/></g>
  <g transform="scale(0.125 0.125) translate(0.000000,512.000000) scale(1.000000,-1.000000)" fill="#ecc687" stroke="none"><path d="M226 270 c-2 -2 -2 -2 0 -4 1 -2 3 -2 10 -2 l9 0 3 -4 3 -4 13 0 12
0 12 -12 c12 -12 12 -12 14 -10 1 1 2 3 2 6 0 4 0 4 -10 14 -10 10 -10 10 -14
10 -4 0 -5 0 -8 4 l-3 4 -21 0 c-19 0 -21 0 -22 -2z"/><path d="M241 222 c-1 -2 -1 -2 1 -4 l2 -2 2 2 c2 2 2 2 1 4 -1 1 -3 2 -3 2 0
0 -2 -1 -3 -2z"/><path d="M289 222 c-1 -2 -1 -2 1 -4 l2 -2 2 2 c2 2 2 2 1 4 -1 1 -3 2 -3 2 0
0 -2 -1 -3 -2z"/><path d="M250 206 c-1 -1 -2 -3 -2 -4 0 -1 -1 -2 -2 -2 -2 0 -4 -1 -4 -2 -2
-2 -2 -2 0 -4 0 -1 2 -2 4 -2 1 0 2 -1 2 -2 0 -5 2 -6 20 -6 15 0 17 0 19 2 1
2 1 2 0 4 -2 2 -4 2 -21 2 l-18 0 0 4 0 4 34 0 35 0 3 -4 c4 -4 4 -4 6 -3 3 3
3 11 0 13 -3 3 -74 3 -76 0z"/><path d="M186 158 c-4 -4 -2 -14 4 -14 1 0 2 -1 2 -2 0 -2 1 -4 2 -5 2 -1 2
-1 4 1 2 2 2 2 1 4 -1 1 -3 2 -5 2 -2 0 -2 0 -2 6 0 5 0 7 -2 8 -2 2 -2 2 -4
0z"/><path d="M210 150 c-2 -2 -2 -2 0 -4 1 -2 3 -2 22 -2 19 0 21 0 23 2 1 2 1 2
0 4 -2 2 -4 2 -23 2 -19 0 -21 0 -22 -2z"/><path d="M266 142 c-1 -1 -2 -3 -2 -4 0 -1 -1 -2 -2 -2 -2 0 -4 -1 -5 -2 -1
-2 -1 -2 1 -4 2 -2 2 -2 4 -1 1 1 2 3 2 5 0 1 1 2 2 2 2 0 4 1 5 2 1 2 1 2 0
4 -3 2 -3 2 -5 0z"/></g>
  <g transform="scale(0.125 0.125) translate(0.000000,512.000000) scale(1.000000,-1.000000)" fill="#55948b" stroke="none"><path d="M226 270 c-2 -2 -2 -2 0 -4 1 -2 3 -2 10 -2 l9 0 3 -4 3 -4 13 0 12
0 12 -12 c12 -12 12 -12 14 -10 1 1 2 3 2 6 0 4 0 4 -10 14 -10 10 -10 10 -14
10 -4 0 -5 0 -8 4 l-3 4 -21 0 c-19 0 -21 0 -22 -2z"/><path d="M241 222 c-1 -2 -1 -2 1 -4 l2 -2 2 2 c2 2 2 2 1 4 -1 1 -3 2 -3 2 0
0 -2 -1 -3 -2z"/><path d="M289 222 c-1 -2 -1 -2 1 -4 l2 -2 2 2 c2 2 2 2 1 4 -1 1 -3 2 -3 2 0
0 -2 -1 -3 -2z"/><path d="M242 198 c-2 -2 -2 -2 0 -4 0 -1 2 -2 4 -2 1 0 2 -1 2 -2 0 -5 2 -6
20 -6 15 0 17 0 19 2 1 2 1 2 0 4 -2 2 -4 2 -21 2 l-18 0 0 2 c0 2 -3 6 -4 6
0 0 -2 -1 -2 -2z"/><path d="M186 158 c-4 -4 -2 -14 4 -14 1 0 2 -1 2 -2 0 -2 1 -4 2 -5 2 -1 2
-1 4 1 2 2 2 2 1 4 -1 1 -3 2 -5 2 -2 0 -2 0 -2 6 0 5 0 7 -2 8 -2 2 -2 2 -4
0z"/><path d="M266 142 c-1 -1 -2 -3 -2 -4 0 -1 -1 -2 -2 -2 -2 0 -4 -1 -5 -2 -1
-2 -1 -2 1 -4 2 -2 2 -2 4 -1 1 1 2 3 2 5 0 1 1 2 2 2 2 0 4 1 5 2 1 2 1 2 0
4 -3 2 -3 2 -5 0z"/></g>
  <g transform="scale(0.125 0.125) translate(0.000000,512.000000) scale(1.000000,-1.000000)" fill="#674309" stroke="none"><path d="M241 222 c-1 -2 -1 -2 1 -4 l2 -2 2 2 c2 2 2 2 1 4 -1 1 -3 2 -3 2 0
0 -2 -1 -3 -2z"/><path d="M289 222 c-1 -2 -1 -2 1 -4 l2 -2 2 2 c2 2 2 2 1 4 -1 1 -3 2 -3 2 0
0 -2 -1 -3 -2z"/><path d="M242 198 c-2 -2 -2 -2 0 -4 0 -1 2 -2 4 -2 1 0 2 -1 2 -2 0 -5 2 -6
20 -6 15 0 17 0 19 2 1 2 1 2 0 4 -2 2 -4 2 -21 2 l-18 0 0 2 c0 2 -3 6 -4 6
0 0 -2 -1 -2 -2z"/><path d="M186 158 c-4 -4 -2 -14 4 -14 1 0 2 -1 2 -2 0 -2 1 -4 2 -5 2 -1 2
-1 4 1 2 2 2 2 1 4 -1 1 -3 2 -5 2 -2 0 -2 0 -2 6 0 5 0 7 -2 8 -2 2 -2 2 -4
0z"/><path d="M266 142 c-1 -1 -2 -3 -2 -4 0 -1 -1 -2 -2 -2 -2 0 -4 -1 -5 -2 -1
-2 -1 -2 1 -4 2 -2 2 -2 4 -1 1 1 2 3 2 5 0 1 1 2 2 2 2 0 4 1 5 2 1 2 1 2 0
4 -3 2 -3 2 -5 0z"/></g>
  <g transform="scale(0.125 0.125) translate(0.000000,512.000000) scale(1.000000,-1.000000)" fill="#afd5d0" stroke="none"><path d="M241 222 c-1 -2 -1 -2 1 -4 l2 -2 2 2 c2 2 2 2 1 4 -1 1 -3 2 -3 2 0
0 -2 -1 -3 -2z"/><path d="M289 222 c-1 -2 -1 -2 1 -4 l2 -2 2 2 c2 2 2 2 1 4 -1 1 -3 2 -3 2 0
0 -2 -1 -3 -2z"/></g>
</svg>
