<?xml version="1.0" encoding="UTF-8"?>
<svg xmlns="http://www.w3.org/2000/svg" viewBox="0 0 256 32" shape-rendering="crispEdges">
<rect x="79" y="19" width="2" height="1" fill="#2f2f2e"/>
<rect x="83" y="19" width="2" height="1" fill="#2f2f2e"/>
<rect x="47" y="20" width="2" height="1" fill="#2f2f2e"/>
<rect x="51" y="20" width="2" height="1" fill="#2f2f2e"/>
<rect x="71" y="20" width="2" height="1" fill="#2f2f2e"/>
<rect x="79" y="20" width="1" height="1" fill="#2f2f2e"/>
<rect x="80" y="20" width="1" height="1" fill="#b5b5b5"/>
<rect x="81" y="20" width="4" height="1" fill="#2f2f2e"/>
<rect x="111" y="20" width="2" height="1" fill="#2f2f2e"/>
<rect x="115" y="20" width="2" height="1" fill="#2f2f2e"/>
<rect x="204" y="20" width="2" height="1" fill="#2f2f2e"/>
<rect x="207" y="20" width="2" height="1" fill="#2f2f2e"/>
<rect x="211" y="20" width="2" height="1" fill="#2f2f2e"/>
<rect x="16" y="21" width="2" height="1" fill="#2f2f2e"/>
<rect x="20" y="21" width="2" height="1" fill="#2f2f2e"/>
<rect x="42" y="21" width="2" height="1" fill="#2f2f2e"/>
<rect x="47" y="21" width="1" height="1" fill="#2f2f2e"/>
<rect x="48" y="21" width="1" height="1" fill="#b5b5b5"/>
<rect x="49" y="21" width="4" height="1" fill="#2f2f2e"/>
<rect x="71" y="21" width="1" height="1" fill="#2f2f2e"/>
<rect x="72" y="21" width="1" height="1" fill="#e0e0e0"/>
<rect x="73" y="21" width="1" height="1" fill="#2f2f2e"/>
<rect x="80" y="21" width="1" height="1" fill="#2f2f2e"/>
<rect x="81" y="21" width="1" height="1" fill="#b5b5b5"/>
<rect x="82" y="21" width="3" height="1" fill="#e0e0e0"/>
<rect x="85" y="21" width="1" height="1" fill="#2f2f2e"/>
<rect x="104" y="21" width="2" height="1" fill="#2f2f2e"/>
<rect x="111" y="21" width="1" height="1" fill="#2f2f2e"/>
<rect x="112" y="21" width="1" height="1" fill="#b5b5b5"/>
<rect x="113" y="21" width="4" height="1" fill="#2f2f2e"/>
<rect x="175" y="21" width="2" height="1" fill="#2f2f2e"/>
<rect x="179" y="21" width="2" height="1" fill="#2f2f2e"/>
<rect x="203" y="21" width="1" height="1" fill="#2f2f2e"/>
<rect x="204" y="21" width="1" height="1" fill="#e0e0e0"/>
<rect x="205" y="21" width="1" height="1" fill="#2f2f2e"/>
<rect x="207" y="21" width="1" height="1" fill="#2f2f2e"/>
<rect x="208" y="21" width="1" height="1" fill="#b5b5b5"/>
<rect x="209" y="21" width="5" height="1" fill="#2f2f2e"/>
<rect x="235" y="21" width="2" height="1" fill="#2f2f2e"/>
<rect x="239" y="21" width="2" height="1" fill="#2f2f2e"/>
<rect x="243" y="21" width="2" height="1" fill="#2f2f2e"/>
<rect x="11" y="22" width="2" height="1" fill="#2f2f2e"/>
<rect x="16" y="22" width="1" height="1" fill="#2f2f2e"/>
<rect x="17" y="22" width="1" height="1" fill="#b5b5b5"/>
<rect x="18" y="22" width="4" height="1" fill="#2f2f2e"/>
<rect x="41" y="22" width="1" height="1" fill="#2f2f2e"/>
<rect x="42" y="22" width="1" height="1" fill="#e0e0e0"/>
<rect x="43" y="22" width="1" height="1" fill="#2f2f2e"/>
<rect x="48" y="22" width="1" height="1" fill="#2f2f2e"/>
<rect x="49" y="22" width="1" height="1" fill="#b5b5b5"/>
<rect x="50" y="22" width="3" height="1" fill="#e0e0e0"/>
<rect x="53" y="22" width="1" height="1" fill="#2f2f2e"/>
<rect x="72" y="22" width="1" height="1" fill="#2f2f2e"/>
<rect x="73" y="22" width="1" height="1" fill="#e0e0e0"/>
<rect x="74" y="22" width="1" height="1" fill="#2f2f2e"/>
<rect x="80" y="22" width="1" height="1" fill="#2f2f2e"/>
<rect x="81" y="22" width="1" height="1" fill="#b5b5b5"/>
<rect x="82" y="22" width="1" height="1" fill="#e0e0e0"/>
<rect x="83" y="22" width="1" height="1" fill="#2f2f2e"/>
<rect x="84" y="22" width="2" height="1" fill="#b5b5b5"/>
<rect x="86" y="22" width="1" height="1" fill="#2f2f2e"/>
<rect x="104" y="22" width="1" height="1" fill="#2f2f2e"/>
<rect x="105" y="22" width="1" height="1" fill="#e0e0e0"/>
<rect x="106" y="22" width="1" height="1" fill="#2f2f2e"/>
<rect x="112" y="22" width="1" height="1" fill="#2f2f2e"/>
<rect x="113" y="22" width="1" height="1" fill="#b5b5b5"/>
<rect x="114" y="22" width="3" height="1" fill="#e0e0e0"/>
<rect x="117" y="22" width="1" height="1" fill="#2f2f2e"/>
<rect x="144" y="22" width="2" height="1" fill="#2f2f2e"/>
<rect x="148" y="22" width="2" height="1" fill="#2f2f2e"/>
<rect x="170" y="22" width="3" height="1" fill="#2f2f2e"/>
<rect x="175" y="22" width="1" height="1" fill="#2f2f2e"/>
<rect x="176" y="22" width="1" height="1" fill="#b5b5b5"/>
<rect x="177" y="22" width="5" height="1" fill="#2f2f2e"/>
<rect x="203" y="22" width="1" height="1" fill="#2f2f2e"/>
<rect x="204" y="22" width="1" height="1" fill="#e0e0e0"/>
<rect x="205" y="22" width="1" height="1" fill="#2f2f2e"/>
<rect x="208" y="22" width="1" height="1" fill="#2f2f2e"/>
<rect x="209" y="22" width="1" height="1" fill="#b5b5b5"/>
<rect x="210" y="22" width="3" height="1" fill="#e0e0e0"/>
<rect x="213" y="22" width="1" height="1" fill="#2f2f2e"/>
<rect x="234" y="22" width="1" height="1" fill="#2f2f2e"/>
<rect x="235" y="22" width="1" height="1" fill="#e0e0e0"/>
<rect x="236" y="22" width="1" height="1" fill="#2f2f2e"/>
<rect x="239" y="22" width="1" height="1" fill="#2f2f2e"/>
<rect x="240" y="22" width="1" height="1" fill="#b5b5b5"/>
<rect x="241" y="22" width="5" height="1" fill="#2f2f2e"/>
<rect x="10" y="23" width="1" height="1" fill="#2f2f2e"/>
<rect x="11" y="23" width="1" height="1" fill="#e0e0e0"/>
<rect x="12" y="23" width="1" height="1" fill="#2f2f2e"/>
<rect x="16" y="23" width="1" height="1" fill="#2f2f2e"/>
<rect x="17" y="23" width="1" height="1" fill="#b5b5b5"/>
<rect x="18" y="23" width="3" height="1" fill="#e0e0e0"/>
<rect x="21" y="23" width="1" height="1" fill="#2f2f2e"/>
<rect x="41" y="23" width="1" height="1" fill="#2f2f2e"/>
<rect x="42" y="23" width="1" height="1" fill="#e0e0e0"/>
<rect x="43" y="23" width="1" height="1" fill="#2f2f2e"/>
<rect x="48" y="23" width="1" height="1" fill="#2f2f2e"/>
<rect x="49" y="23" width="1" height="1" fill="#b5b5b5"/>
<rect x="50" y="23" width="1" height="1" fill="#e0e0e0"/>
<rect x="51" y="23" width="1" height="1" fill="#2f2f2e"/>
<rect x="52" y="23" width="2" height="1" fill="#b5b5b5"/>
<rect x="54" y="23" width="1" height="1" fill="#2f2f2e"/>
<rect x="73" y="23" width="1" height="1" fill="#2f2f2e"/>
<rect x="74" y="23" width="1" height="1" fill="#e0e0e0"/>
<rect x="75" y="23" width="1" height="1" fill="#2f2f2e"/>
<rect x="80" y="23" width="1" height="1" fill="#2f2f2e"/>
<rect x="81" y="23" width="1" height="1" fill="#b5b5b5"/>
<rect x="82" y="23" width="4" height="1" fill="#e0e0e0"/>
<rect x="86" y="23" width="1" height="1" fill="#2f2f2e"/>
<rect x="105" y="23" width="1" height="1" fill="#2f2f2e"/>
<rect x="106" y="23" width="1" height="1" fill="#e0e0e0"/>
<rect x="107" y="23" width="1" height="1" fill="#2f2f2e"/>
<rect x="112" y="23" width="1" height="1" fill="#2f2f2e"/>
<rect x="113" y="23" width="1" height="1" fill="#b5b5b5"/>
<rect x="114" y="23" width="1" height="1" fill="#e0e0e0"/>
<rect x="115" y="23" width="1" height="1" fill="#2f2f2e"/>
<rect x="116" y="23" width="2" height="1" fill="#b5b5b5"/>
<rect x="118" y="23" width="1" height="1" fill="#2f2f2e"/>
<rect x="138" y="23" width="2" height="1" fill="#2f2f2e"/>
<rect x="144" y="23" width="1" height="1" fill="#2f2f2e"/>
<rect x="145" y="23" width="1" height="1" fill="#b5b5b5"/>
<rect x="146" y="23" width="4" height="1" fill="#2f2f2e"/>
<rect x="169" y="23" width="1" height="1" fill="#2f2f2e"/>
<rect x="170" y="23" width="3" height="1" fill="#e0e0e0"/>
<rect x="173" y="23" width="1" height="1" fill="#2f2f2e"/>
<rect x="176" y="23" width="1" height="1" fill="#2f2f2e"/>
<rect x="177" y="23" width="1" height="1" fill="#b5b5b5"/>
<rect x="178" y="23" width="3" height="1" fill="#e0e0e0"/>
<rect x="181" y="23" width="1" height="1" fill="#2f2f2e"/>
<rect x="202" y="23" width="1" height="1" fill="#2f2f2e"/>
<rect x="203" y="23" width="1" height="1" fill="#e0e0e0"/>
<rect x="204" y="23" width="1" height="1" fill="#2f2f2e"/>
<rect x="208" y="23" width="1" height="1" fill="#2f2f2e"/>
<rect x="209" y="23" width="1" height="1" fill="#b5b5b5"/>
<rect x="210" y="23" width="1" height="1" fill="#e0e0e0"/>
<rect x="211" y="23" width="1" height="1" fill="#2f2f2e"/>
<rect x="212" y="23" width="2" height="1" fill="#b5b5b5"/>
<rect x="214" y="23" width="1" height="1" fill="#2f2f2e"/>
<rect x="234" y="23" width="1" height="1" fill="#2f2f2e"/>
<rect x="235" y="23" width="1" height="1" fill="#e0e0e0"/>
<rect x="236" y="23" width="1" height="1" fill="#2f2f2e"/>
<rect x="240" y="23" width="1" height="1" fill="#2f2f2e"/>
<rect x="241" y="23" width="1" height="1" fill="#b5b5b5"/>
<rect x="242" y="23" width="3" height="1" fill="#e0e0e0"/>
<rect x="245" y="23" width="1" height="1" fill="#2f2f2e"/>
<rect x="10" y="24" width="1" height="1" fill="#2f2f2e"/>
<rect x="11" y="24" width="1" height="1" fill="#e0e0e0"/>
<rect x="12" y="24" width="1" height="1" fill="#2f2f2e"/>
<rect x="16" y="24" width="1" height="1" fill="#2f2f2e"/>
<rect x="17" y="24" width="1" height="1" fill="#b5b5b5"/>
<rect x="18" y="24" width="1" height="1" fill="#e0e0e0"/>
<rect x="19" y="24" width="1" height="1" fill="#2f2f2e"/>
<rect x="20" y="24" width="2" height="1" fill="#b5b5b5"/>
<rect x="22" y="24" width="1" height="1" fill="#2f2f2e"/>
<rect x="42" y="24" width="1" height="1" fill="#2f2f2e"/>
<rect x="43" y="24" width="1" height="1" fill="#e0e0e0"/>
<rect x="44" y="24" width="1" height="1" fill="#2f2f2e"/>
<rect x="48" y="24" width="1" height="1" fill="#2f2f2e"/>
<rect x="49" y="24" width="1" height="1" fill="#b5b5b5"/>
<rect x="50" y="24" width="4" height="1" fill="#e0e0e0"/>
<rect x="54" y="24" width="1" height="1" fill="#2f2f2e"/>
<rect x="74" y="24" width="7" height="1" fill="#2f2f2e"/>
<rect x="81" y="24" width="1" height="1" fill="#b5b5b5"/>
<rect x="82" y="24" width="2" height="1" fill="#2f2f2e"/>
<rect x="84" y="24" width="2" height="1" fill="#b5b5b5"/>
<rect x="86" y="24" width="2" height="1" fill="#2f2f2e"/>
<rect x="106" y="24" width="1" height="1" fill="#2f2f2e"/>
<rect x="107" y="24" width="1" height="1" fill="#e0e0e0"/>
<rect x="108" y="24" width="1" height="1" fill="#2f2f2e"/>
<rect x="112" y="24" width="1" height="1" fill="#2f2f2e"/>
<rect x="113" y="24" width="1" height="1" fill="#b5b5b5"/>
<rect x="114" y="24" width="4" height="1" fill="#e0e0e0"/>
<rect x="118" y="24" width="1" height="1" fill="#2f2f2e"/>
<rect x="137" y="24" width="1" height="1" fill="#2f2f2e"/>
<rect x="138" y="24" width="2" height="1" fill="#e0e0e0"/>
<rect x="140" y="24" width="1" height="1" fill="#2f2f2e"/>
<rect x="144" y="24" width="1" height="1" fill="#2f2f2e"/>
<rect x="145" y="24" width="1" height="1" fill="#b5b5b5"/>
<rect x="146" y="24" width="3" height="1" fill="#e0e0e0"/>
<rect x="149" y="24" width="1" height="1" fill="#2f2f2e"/>
<rect x="170" y="24" width="2" height="1" fill="#2f2f2e"/>
<rect x="172" y="24" width="1" height="1" fill="#e0e0e0"/>
<rect x="173" y="24" width="1" height="1" fill="#2f2f2e"/>
<rect x="176" y="24" width="1" height="1" fill="#2f2f2e"/>
<rect x="177" y="24" width="1" height="1" fill="#b5b5b5"/>
<rect x="178" y="24" width="1" height="1" fill="#e0e0e0"/>
<rect x="179" y="24" width="1" height="1" fill="#2f2f2e"/>
<rect x="180" y="24" width="2" height="1" fill="#b5b5b5"/>
<rect x="182" y="24" width="1" height="1" fill="#2f2f2e"/>
<rect x="202" y="24" width="1" height="1" fill="#2f2f2e"/>
<rect x="203" y="24" width="1" height="1" fill="#e0e0e0"/>
<rect x="204" y="24" width="5" height="1" fill="#2f2f2e"/>
<rect x="209" y="24" width="1" height="1" fill="#b5b5b5"/>
<rect x="210" y="24" width="4" height="1" fill="#e0e0e0"/>
<rect x="214" y="24" width="1" height="1" fill="#2f2f2e"/>
<rect x="234" y="24" width="1" height="1" fill="#2f2f2e"/>
<rect x="235" y="24" width="1" height="1" fill="#e0e0e0"/>
<rect x="236" y="24" width="1" height="1" fill="#2f2f2e"/>
<rect x="240" y="24" width="1" height="1" fill="#2f2f2e"/>
<rect x="241" y="24" width="1" height="1" fill="#b5b5b5"/>
<rect x="242" y="24" width="1" height="1" fill="#e0e0e0"/>
<rect x="243" y="24" width="1" height="1" fill="#2f2f2e"/>
<rect x="244" y="24" width="2" height="1" fill="#b5b5b5"/>
<rect x="246" y="24" width="1" height="1" fill="#2f2f2e"/>
<rect x="10" y="25" width="1" height="1" fill="#2f2f2e"/>
<rect x="11" y="25" width="1" height="1" fill="#e0e0e0"/>
<rect x="12" y="25" width="1" height="1" fill="#2f2f2e"/>
<rect x="16" y="25" width="1" height="1" fill="#2f2f2e"/>
<rect x="17" y="25" width="1" height="1" fill="#b5b5b5"/>
<rect x="18" y="25" width="4" height="1" fill="#e0e0e0"/>
<rect x="22" y="25" width="1" height="1" fill="#2f2f2e"/>
<rect x="42" y="25" width="1" height="1" fill="#2f2f2e"/>
<rect x="43" y="25" width="1" height="1" fill="#e0e0e0"/>
<rect x="44" y="25" width="5" height="1" fill="#2f2f2e"/>
<rect x="49" y="25" width="5" height="1" fill="#b5b5b5"/>
<rect x="54" y="25" width="1" height="1" fill="#2f2f2e"/>
<rect x="73" y="25" width="1" height="1" fill="#2f2f2e"/>
<rect x="74" y="25" width="10" height="1" fill="#e0e0e0"/>
<rect x="84" y="25" width="4" height="1" fill="#2f2f2e"/>
<rect x="107" y="25" width="6" height="1" fill="#2f2f2e"/>
<rect x="113" y="25" width="5" height="1" fill="#b5b5b5"/>
<rect x="118" y="25" width="1" height="1" fill="#2f2f2e"/>
<rect x="138" y="25" width="2" height="1" fill="#2f2f2e"/>
<rect x="140" y="25" width="1" height="1" fill="#e0e0e0"/>
<rect x="141" y="25" width="1" height="1" fill="#2f2f2e"/>
<rect x="144" y="25" width="1" height="1" fill="#2f2f2e"/>
<rect x="145" y="25" width="1" height="1" fill="#b5b5b5"/>
<rect x="146" y="25" width="1" height="1" fill="#e0e0e0"/>
<rect x="147" y="25" width="1" height="1" fill="#2f2f2e"/>
<rect x="148" y="25" width="2" height="1" fill="#b5b5b5"/>
<rect x="150" y="25" width="1" height="1" fill="#2f2f2e"/>
<rect x="171" y="25" width="6" height="1" fill="#2f2f2e"/>
<rect x="177" y="25" width="1" height="1" fill="#b5b5b5"/>
<rect x="178" y="25" width="4" height="1" fill="#e0e0e0"/>
<rect x="182" y="25" width="1" height="1" fill="#2f2f2e"/>
<rect x="203" y="25" width="1" height="1" fill="#2f2f2e"/>
<rect x="204" y="25" width="5" height="1" fill="#e0e0e0"/>
<rect x="209" y="25" width="5" height="1" fill="#b5b5b5"/>
<rect x="214" y="25" width="1" height="1" fill="#2f2f2e"/>
<rect x="234" y="25" width="1" height="1" fill="#2f2f2e"/>
<rect x="235" y="25" width="1" height="1" fill="#e0e0e0"/>
<rect x="236" y="25" width="5" height="1" fill="#2f2f2e"/>
<rect x="241" y="25" width="1" height="1" fill="#b5b5b5"/>
<rect x="242" y="25" width="4" height="1" fill="#e0e0e0"/>
<rect x="246" y="25" width="1" height="1" fill="#2f2f2e"/>
<rect x="10" y="26" width="1" height="1" fill="#2f2f2e"/>
<rect x="11" y="26" width="1" height="1" fill="#e0e0e0"/>
<rect x="12" y="26" width="5" height="1" fill="#2f2f2e"/>
<rect x="17" y="26" width="5" height="1" fill="#b5b5b5"/>
<rect x="22" y="26" width="1" height="1" fill="#2f2f2e"/>
<rect x="42" y="26" width="2" height="1" fill="#2f2f2e"/>
<rect x="44" y="26" width="6" height="1" fill="#e0e0e0"/>
<rect x="50" y="26" width="2" height="1" fill="#2f2f2e"/>
<rect x="52" y="26" width="1" height="1" fill="#b5b5b5"/>
<rect x="53" y="26" width="3" height="1" fill="#2f2f2e"/>
<rect x="73" y="26" width="3" height="1" fill="#2f2f2e"/>
<rect x="76" y="26" width="6" height="1" fill="#e0e0e0"/>
<rect x="82" y="26" width="5" height="1" fill="#2f2f2e"/>
<rect x="106" y="26" width="2" height="1" fill="#2f2f2e"/>
<rect x="108" y="26" width="6" height="1" fill="#e0e0e0"/>
<rect x="114" y="26" width="2" height="1" fill="#2f2f2e"/>
<rect x="116" y="26" width="1" height="1" fill="#b5b5b5"/>
<rect x="117" y="26" width="3" height="1" fill="#2f2f2e"/>
<rect x="139" y="26" width="1" height="1" fill="#2f2f2e"/>
<rect x="140" y="26" width="1" height="1" fill="#e0e0e0"/>
<rect x="141" y="26" width="1" height="1" fill="#2f2f2e"/>
<rect x="144" y="26" width="1" height="1" fill="#2f2f2e"/>
<rect x="145" y="26" width="1" height="1" fill="#b5b5b5"/>
<rect x="146" y="26" width="4" height="1" fill="#e0e0e0"/>
<rect x="150" y="26" width="1" height="1" fill="#2f2f2e"/>
<rect x="171" y="26" width="1" height="1" fill="#2f2f2e"/>
<rect x="172" y="26" width="5" height="1" fill="#e0e0e0"/>
<rect x="177" y="26" width="5" height="1" fill="#b5b5b5"/>
<rect x="182" y="26" width="1" height="1" fill="#2f2f2e"/>
<rect x="203" y="26" width="1" height="1" fill="#2f2f2e"/>
<rect x="204" y="26" width="2" height="1" fill="#e0e0e0"/>
<rect x="206" y="26" width="2" height="1" fill="#2f2f2e"/>
<rect x="208" y="26" width="4" height="1" fill="#e0e0e0"/>
<rect x="212" y="26" width="2" height="1" fill="#2f2f2e"/>
<rect x="235" y="26" width="1" height="1" fill="#2f2f2e"/>
<rect x="236" y="26" width="5" height="1" fill="#e0e0e0"/>
<rect x="241" y="26" width="5" height="1" fill="#b5b5b5"/>
<rect x="246" y="26" width="1" height="1" fill="#2f2f2e"/>
<rect x="11" y="27" width="1" height="1" fill="#2f2f2e"/>
<rect x="12" y="27" width="9" height="1" fill="#e0e0e0"/>
<rect x="21" y="27" width="1" height="1" fill="#2f2f2e"/>
<rect x="41" y="27" width="1" height="1" fill="#2f2f2e"/>
<rect x="42" y="27" width="10" height="1" fill="#e0e0e0"/>
<rect x="52" y="27" width="1" height="1" fill="#2f2f2e"/>
<rect x="53" y="27" width="2" height="1" fill="#e0e0e0"/>
<rect x="55" y="27" width="1" height="1" fill="#2f2f2e"/>
<rect x="76" y="27" width="6" height="1" fill="#2f2f2e"/>
<rect x="105" y="27" width="1" height="1" fill="#2f2f2e"/>
<rect x="106" y="27" width="10" height="1" fill="#e0e0e0"/>
<rect x="116" y="27" width="1" height="1" fill="#2f2f2e"/>
<rect x="117" y="27" width="2" height="1" fill="#e0e0e0"/>
<rect x="119" y="27" width="1" height="1" fill="#2f2f2e"/>
<rect x="139" y="27" width="6" height="1" fill="#2f2f2e"/>
<rect x="145" y="27" width="5" height="1" fill="#b5b5b5"/>
<rect x="150" y="27" width="1" height="1" fill="#2f2f2e"/>
<rect x="171" y="27" width="1" height="1" fill="#2f2f2e"/>
<rect x="172" y="27" width="2" height="1" fill="#e0e0e0"/>
<rect x="174" y="27" width="1" height="1" fill="#2f2f2e"/>
<rect x="175" y="27" width="5" height="1" fill="#e0e0e0"/>
<rect x="180" y="27" width="2" height="1" fill="#2f2f2e"/>
<rect x="203" y="27" width="1" height="1" fill="#2f2f2e"/>
<rect x="204" y="27" width="4" height="1" fill="#e0e0e0"/>
<rect x="208" y="27" width="2" height="1" fill="#2f2f2e"/>
<rect x="210" y="27" width="1" height="1" fill="#e0e0e0"/>
<rect x="211" y="27" width="3" height="1" fill="#2f2f2e"/>
<rect x="235" y="27" width="1" height="1" fill="#2f2f2e"/>
<rect x="236" y="27" width="2" height="1" fill="#e0e0e0"/>
<rect x="238" y="27" width="1" height="1" fill="#2f2f2e"/>
<rect x="239" y="27" width="5" height="1" fill="#e0e0e0"/>
<rect x="244" y="27" width="2" height="1" fill="#2f2f2e"/>
<rect x="11" y="28" width="1" height="1" fill="#2f2f2e"/>
<rect x="12" y="28" width="9" height="1" fill="#e0e0e0"/>
<rect x="21" y="28" width="1" height="1" fill="#2f2f2e"/>
<rect x="41" y="28" width="14" height="1" fill="#2f2f2e"/>
<rect x="105" y="28" width="14" height="1" fill="#2f2f2e"/>
<rect x="139" y="28" width="1" height="1" fill="#2f2f2e"/>
<rect x="140" y="28" width="9" height="1" fill="#e0e0e0"/>
<rect x="149" y="28" width="1" height="1" fill="#2f2f2e"/>
<rect x="171" y="28" width="1" height="1" fill="#2f2f2e"/>
<rect x="172" y="28" width="3" height="1" fill="#e0e0e0"/>
<rect x="175" y="28" width="1" height="1" fill="#2f2f2e"/>
<rect x="176" y="28" width="1" height="1" fill="#e0e0e0"/>
<rect x="177" y="28" width="1" height="1" fill="#2f2f2e"/>
<rect x="178" y="28" width="1" height="1" fill="#e0e0e0"/>
<rect x="179" y="28" width="2" height="1" fill="#2f2f2e"/>
<rect x="204" y="28" width="10" height="1" fill="#2f2f2e"/>
<rect x="235" y="28" width="1" height="1" fill="#2f2f2e"/>
<rect x="236" y="28" width="3" height="1" fill="#e0e0e0"/>
<rect x="239" y="28" width="1" height="1" fill="#2f2f2e"/>
<rect x="240" y="28" width="1" height="1" fill="#e0e0e0"/>
<rect x="241" y="28" width="1" height="1" fill="#2f2f2e"/>
<rect x="242" y="28" width="1" height="1" fill="#e0e0e0"/>
<rect x="243" y="28" width="2" height="1" fill="#2f2f2e"/>
<rect x="11" y="29" width="1" height="1" fill="#2f2f2e"/>
<rect x="12" y="29" width="1" height="1" fill="#e0e0e0"/>
<rect x="13" y="29" width="1" height="1" fill="#2f2f2e"/>
<rect x="14" y="29" width="3" height="1" fill="#e0e0e0"/>
<rect x="17" y="29" width="1" height="1" fill="#2f2f2e"/>
<rect x="18" y="29" width="1" height="1" fill="#e0e0e0"/>
<rect x="19" y="29" width="1" height="1" fill="#b5b5b5"/>
<rect x="20" y="29" width="1" height="1" fill="#e0e0e0"/>
<rect x="21" y="29" width="1" height="1" fill="#2f2f2e"/>
<rect x="139" y="29" width="1" height="1" fill="#2f2f2e"/>
<rect x="140" y="29" width="1" height="1" fill="#e0e0e0"/>
<rect x="141" y="29" width="1" height="1" fill="#2f2f2e"/>
<rect x="142" y="29" width="3" height="1" fill="#e0e0e0"/>
<rect x="145" y="29" width="1" height="1" fill="#2f2f2e"/>
<rect x="146" y="29" width="1" height="1" fill="#e0e0e0"/>
<rect x="147" y="29" width="1" height="1" fill="#b5b5b5"/>
<rect x="148" y="29" width="1" height="1" fill="#e0e0e0"/>
<rect x="149" y="29" width="1" height="1" fill="#2f2f2e"/>
<rect x="172" y="29" width="2" height="1" fill="#2f2f2e"/>
<rect x="174" y="29" width="2" height="1" fill="#e0e0e0"/>
<rect x="176" y="29" width="3" height="1" fill="#2f2f2e"/>
<rect x="179" y="29" width="2" height="1" fill="#e0e0e0"/>
<rect x="181" y="29" width="1" height="1" fill="#2f2f2e"/>
<rect x="236" y="29" width="2" height="1" fill="#2f2f2e"/>
<rect x="238" y="29" width="2" height="1" fill="#e0e0e0"/>
<rect x="240" y="29" width="3" height="1" fill="#2f2f2e"/>
<rect x="243" y="29" width="2" height="1" fill="#e0e0e0"/>
<rect x="245" y="29" width="1" height="1" fill="#2f2f2e"/>
<rect x="11" y="30" width="1" height="1" fill="#2f2f2e"/>
<rect x="12" y="30" width="1" height="1" fill="#b5b5b5"/>
<rect x="13" y="30" width="5" height="1" fill="#2f2f2e"/>
<rect x="18" y="30" width="1" height="1" fill="#e0e0e0"/>
<rect x="19" y="30" width="1" height="1" fill="#2f2f2e"/>
<rect x="20" y="30" width="1" height="1" fill="#e0e0e0"/>
<rect x="21" y="30" width="1" height="1" fill="#2f2f2e"/>
<rect x="140" y="30" width="1" height="1" fill="#2f2f2e"/>
<rect x="141" y="30" width="1" height="1" fill="#b5b5b5"/>
<rect x="142" y="30" width="3" height="1" fill="#2f2f2e"/>
<rect x="145" y="30" width="1" height="1" fill="#e0e0e0"/>
<rect x="146" y="30" width="1" height="1" fill="#2f2f2e"/>
<rect x="147" y="30" width="1" height="1" fill="#e0e0e0"/>
<rect x="148" y="30" width="1" height="1" fill="#2f2f2e"/>
<rect x="174" y="30" width="3" height="1" fill="#2f2f2e"/>
<rect x="179" y="30" width="2" height="1" fill="#2f2f2e"/>
<rect x="238" y="30" width="3" height="1" fill="#2f2f2e"/>
<rect x="243" y="30" width="2" height="1" fill="#2f2f2e"/>
<rect x="11" y="31" width="2" height="1" fill="#2f2f2e"/>
<rect x="14" y="31" width="2" height="1" fill="#2f2f2e"/>
<rect x="17" y="31" width="2" height="1" fill="#2f2f2e"/>
<rect x="20" y="31" width="2" height="1" fill="#2f2f2e"/>
<rect x="140" y="31" width="6" height="1" fill="#2f2f2e"/>
<rect x="147" y="31" width="2" height="1" fill="#2f2f2e"/>
</svg>
